# arm_21 exported from /models/landings/arm_21.glb
# units: meters
v 0.012506 0.001000 0.038091
v 0.013925 0.001000 0.035747
v 0.013925 0.001000 0.037183
v -0.000781 0.001000 0.026364
v 0.001242 0.001000 0.025550
v 0.013464 0.001000 0.038026
v 0.013218 0.001000 0.038139
v -0.002520 0.001000 0.026549
v 0.012960 0.001000 0.038183
v -0.003901 0.001000 0.026259
v -0.004946 0.001000 0.025655
v -0.053502 0.001000 0.007604
v -0.054348 0.001000 0.006866
v -0.054663 0.001000 0.005789
v -0.050267 0.001000 0.003514
v -0.053969 0.001000 0.007304
v -0.019584 0.001000 0.017822
v -0.017457 0.001000 0.018362
v -0.005662 0.001000 0.024749
v -0.015107 0.001000 0.018028
v -0.013080 0.001000 0.016793
v -0.006260 0.001000 0.022263
v -0.006254 0.001000 0.019616
v -0.005831 0.001000 0.015761
v -0.011781 0.001000 0.015024
v -0.005768 0.001000 0.002447
v -0.005079 0.001000 0.009980
v -0.003132 0.001000 0.001491
v -0.001530 0.001000 -0.002493
v -0.006024 0.001000 0.001672
v -0.005718 0.001000 0.002093
v -0.005716 0.001000 0.002278
v -0.005778 0.001000 0.001918
v -0.005882 0.001000 0.001776
v -0.006199 0.001000 0.001612
v -0.008014 0.001000 -0.003704
v -0.006384 0.001000 0.001610
v -0.009577 0.001000 -0.000074
v -0.006553 0.001000 0.001661
v -0.015000 0.001000 0.004429
v -0.021640 0.001000 0.004458
v -0.021062 0.001000 0.001632
v -0.037096 0.001000 -0.000804
v -0.034713 0.001000 0.002157
v -0.044683 0.001000 0.001559
v -0.049416 0.001000 -0.000563
v -0.048558 0.001000 0.001958
v -0.049794 0.001000 0.002533
v -0.050140 0.001000 0.002966
v -0.053067 0.001000 0.000826
v -0.054141 0.001000 0.002040
v -0.054663 0.001000 0.003764
v 0.000795 0.001000 -0.009851
v -0.000614 0.001000 -0.003719
v -0.004991 0.001000 -0.014768
v -0.004888 0.001000 -0.027488
v -0.001992 0.001000 -0.018812
v -0.002078 0.001000 -0.018095
v -0.001222 0.001000 -0.014187
v -0.001753 0.001000 -0.019374
v -0.001345 0.001000 -0.019764
v -0.000758 0.001000 -0.019969
v 0.000884 0.001000 -0.019784
v 0.002633 0.001000 -0.018809
v 0.002318 0.001000 -0.034420
v 0.009568 0.001000 -0.029463
v 0.010093 0.001000 -0.028664
v 0.010892 0.001000 -0.028140
v 0.011759 0.001000 -0.027974
v 0.003965 0.001000 -0.017085
v 0.004935 0.001000 -0.014758
v 0.017993 0.001000 -0.027974
v 0.009983 0.001000 -0.006163
v 0.009349 0.001000 -0.006584
v 0.006202 0.001000 -0.009333
v 0.009049 0.001000 -0.006642
v 0.008767 0.001000 -0.006593
v 0.008510 0.001000 -0.006437
v 0.006227 0.001000 -0.006179
v 0.008282 0.001000 -0.006169
v 0.005952 0.001000 -0.005568
v 0.007693 0.001000 -0.004061
v 0.005750 0.001000 -0.005371
v 0.005508 0.001000 -0.005248
v 0.004928 0.001000 -0.005217
v 0.007527 0.001000 -0.000717
v 0.002272 0.001000 -0.001690
v 0.003870 0.001000 0.003290
v 0.008060 0.001000 0.007287
v 0.005243 0.001000 0.013963
v 0.009808 0.001000 0.013389
v 0.011419 0.001000 0.014968
v 0.004932 0.001000 0.019873
v 0.012265 0.001000 0.015328
v 0.014090 0.001000 0.021199
v 0.014615 0.001000 0.020401
v 0.013925 0.001000 0.022067
v 0.003073 0.001000 0.024112
v 0.015414 0.001000 0.019876
v 0.013029 0.001000 0.015388
v 0.013641 0.001000 0.015144
v 0.016281 0.001000 0.019710
v 0.017993 0.001000 0.014704
v 0.014099 0.001000 0.014613
v 0.014595 0.001000 0.012785
v 0.014268 0.001000 0.007024
v 0.012842 0.001000 0.000533
v 0.010626 0.001000 -0.005351
v 0.019993 0.001000 0.014704
v 0.019993 0.001000 -0.027974
v 0.026109 0.001000 -0.025618
v 0.026109 0.001000 0.017354
v 0.023753 0.001000 0.019710
v 0.024620 0.001000 0.019545
v 0.025419 0.001000 0.019020
v 0.025944 0.001000 0.018222
v 0.025944 0.001000 -0.026486
v 0.023753 0.001000 -0.027974
v 0.024620 0.001000 -0.027809
v 0.025419 0.001000 -0.027284
v 0.004258 0.001000 -0.005465
v 0.000837 0.001000 -0.003825
v 0.003543 0.001000 -0.005978
v 0.000348 0.001000 -0.004061
v 0.000105 0.001000 -0.004074
v -0.000137 0.001000 -0.004018
v 0.009403 0.001000 -0.030330
v 0.009403 0.001000 -0.038962
v 0.008132 0.001000 -0.041053
v 0.008647 0.001000 -0.040691
v 0.009061 0.001000 -0.040185
v 0.009319 0.001000 -0.039585
v 0.005242 0.001000 -0.041866
v 0.002353 0.001000 -0.041439
v 0.000318 0.001000 -0.034420
v -0.004010 0.001000 -0.038539
v -0.003149 0.001000 -0.039824
v -0.001753 0.001000 -0.040791
v 0.000353 0.001000 -0.041439
v -0.004508 0.001000 -0.036937
v -0.054586 0.001000 0.006339
v 0.013670 0.001000 0.037850
v 0.013818 0.001000 0.037634
v -0.005768 0.001000 0.002447
v -0.005768 -0.000000 0.002447
v -0.005716 0.001000 0.002275
v -0.005716 -0.000000 0.002275
v -0.005719 0.001000 0.002090
v -0.005719 -0.000000 0.002090
v -0.005779 0.001000 0.001917
v -0.005779 -0.000000 0.001917
v -0.005882 0.001000 0.001776
v -0.005882 -0.000000 0.001776
v -0.006027 0.001000 0.001670
v -0.006027 -0.000000 0.001670
v -0.006202 0.001000 0.001612
v -0.006202 -0.000000 0.001612
v -0.006386 0.001000 0.001610
v -0.006386 -0.000000 0.001610
v -0.006553 0.000333 0.001661
v -0.006553 0.001000 0.001661
v -0.006553 -0.000333 0.001661
v -0.006553 -0.001000 0.001661
v -0.006386 -0.001000 0.001610
v -0.006202 -0.001000 0.001612
v -0.006027 -0.001000 0.001670
v -0.005882 -0.001000 0.001776
v -0.005779 -0.001000 0.001917
v -0.005719 -0.001000 0.002090
v -0.005716 -0.001000 0.002275
v -0.005768 -0.001000 0.002447
v -0.006553 0.001000 0.001661
v -0.007981 0.001000 0.002313
v -0.006553 0.000333 0.001661
v -0.006553 -0.000333 0.001661
v -0.007981 0.000500 0.002313
v -0.007981 -0.000000 0.002313
v -0.009335 -0.000000 0.002870
v -0.007981 -0.000500 0.002313
v -0.009335 -0.000500 0.002870
v -0.007981 -0.001000 0.002313
v -0.006553 -0.001000 0.001661
v -0.009335 -0.001000 0.002870
v -0.011846 -0.001000 0.003728
v -0.011846 -0.000000 0.003728
v -0.017401 -0.001000 0.004653
v -0.017401 0.001000 0.004653
v -0.023022 -0.001000 0.004284
v -0.028724 -0.001000 0.003289
v -0.023022 0.001000 0.004284
v -0.028724 0.001000 0.003289
v -0.034201 0.001000 0.002241
v -0.034201 -0.001000 0.002241
v -0.039895 0.001000 0.001603
v -0.039895 -0.001000 0.001603
v -0.045204 0.001000 0.001576
v -0.045204 -0.001000 0.001576
v -0.050267 0.001000 0.003514
v -0.050267 -0.001000 0.003514
v -0.011846 0.001000 0.003728
v -0.009335 0.000500 0.002870
v -0.009335 0.001000 0.002870
v -0.050267 0.001000 0.003514
v -0.050267 -0.001000 0.003514
v -0.019584 0.001000 0.017822
v -0.019584 -0.001000 0.017822
v -0.019584 0.001000 0.017822
v -0.017383 0.001000 0.018367
v -0.019584 -0.001000 0.017822
v -0.017383 -0.001000 0.018367
v -0.015050 -0.001000 0.018007
v -0.015050 0.001000 0.018007
v -0.013059 -0.001000 0.016774
v -0.013059 0.001000 0.016774
v -0.011781 -0.001000 0.015024
v -0.011781 0.001000 0.015024
v -0.011781 0.001000 0.015024
v -0.011781 -0.001000 0.015024
v -0.005768 0.001000 0.002447
v -0.005768 -0.000000 0.002447
v -0.005768 -0.001000 0.002447
v 0.005952 0.001000 -0.005568
v 0.005952 -0.001000 -0.005568
v 0.006353 0.001000 -0.007406
v 0.006353 -0.001000 -0.007406
v 0.006202 0.001000 -0.009333
v 0.006202 -0.001000 -0.009333
v 0.005872 0.001000 -0.011248
v 0.005872 -0.001000 -0.011248
v 0.005420 0.001000 -0.013145
v 0.005420 -0.001000 -0.013145
v 0.004863 0.001000 -0.014973
v 0.004863 -0.001000 -0.014973
v 0.004115 0.001000 -0.016798
v 0.004115 -0.001000 -0.016798
v 0.003053 0.001000 -0.018398
v 0.003053 -0.001000 -0.018398
v 0.001572 0.001000 -0.019506
v 0.001572 -0.001000 -0.019506
v -0.000382 0.001000 -0.019998
v -0.000382 -0.001000 -0.019998
v -0.001857 0.001000 -0.019192
v -0.001857 -0.001000 -0.019192
v -0.002024 0.001000 -0.017231
v -0.002024 -0.001000 -0.017231
v -0.001620 0.001000 -0.015397
v -0.001620 -0.001000 -0.015397
v -0.000968 0.001000 -0.013519
v -0.000968 -0.001000 -0.013519
v -0.000204 0.001000 -0.011778
v -0.000204 -0.001000 -0.011778
v 0.000689 0.001000 -0.010042
v 0.000689 -0.001000 -0.010042
v 0.001619 0.001000 -0.008441
v 0.001619 -0.001000 -0.008441
v 0.002727 0.001000 -0.006853
v 0.002727 -0.001000 -0.006853
v 0.004213 0.001000 -0.005490
v 0.004213 -0.001000 -0.005490
v 0.005952 0.001000 -0.005568
v 0.005952 -0.001000 -0.005568
v -0.006260 0.001000 0.022263
v -0.006260 -0.001000 0.022263
v -0.005257 0.001000 0.025348
v -0.005257 -0.001000 0.025348
v -0.002553 0.001000 0.026547
v -0.002553 -0.001000 0.026547
v 0.000606 0.001000 0.025872
v 0.000606 -0.001000 0.025872
v 0.003073 0.001000 0.024112
v 0.003073 -0.001000 0.024112
v 0.004609 0.001000 0.021171
v 0.004609 -0.001000 0.021171
v 0.005201 0.001000 0.018104
v 0.005201 -0.001000 0.018104
v 0.005282 0.001000 0.015037
v 0.005282 -0.001000 0.015037
v 0.005099 0.001000 0.011669
v 0.005099 -0.001000 0.011669
v 0.004783 0.001000 0.008551
v 0.004783 -0.001000 0.008551
v 0.004292 0.001000 0.005337
v 0.004292 -0.001000 0.005337
v 0.003587 0.001000 0.002150
v 0.003587 -0.001000 0.002150
v 0.002612 0.001000 -0.000884
v 0.002612 -0.001000 -0.000884
v 0.000993 0.001000 -0.003694
v 0.000993 -0.001000 -0.003694
v -0.001407 0.001000 -0.002706
v -0.001407 -0.001000 -0.002706
v -0.002713 0.001000 0.000233
v -0.002713 -0.001000 0.000233
v -0.003660 0.001000 0.003299
v -0.003660 -0.001000 0.003299
v -0.004437 0.001000 0.006537
v -0.004437 -0.001000 0.006537
v -0.005015 0.001000 0.009596
v -0.005015 -0.001000 0.009596
v -0.005488 0.001000 0.012799
v -0.005488 -0.001000 0.012799
v -0.005831 0.001000 0.015761
v -0.005831 -0.001000 0.015761
v -0.006210 0.001000 0.019133
v -0.006210 -0.001000 0.019133
v -0.006260 0.001000 0.022263
v -0.006260 -0.001000 0.022263
v 0.008282 0.001000 -0.006169
v 0.008282 -0.001000 -0.006169
v 0.007654 0.001000 -0.003716
v 0.007654 -0.001000 -0.003716
v 0.007529 0.001000 -0.001153
v 0.007529 -0.001000 -0.001153
v 0.007572 0.001000 0.001462
v 0.007572 -0.001000 0.001462
v 0.007725 0.001000 0.004073
v 0.007725 -0.001000 0.004073
v 0.007978 0.001000 0.006637
v 0.007978 -0.001000 0.006637
v 0.008357 0.001000 0.009175
v 0.008357 -0.001000 0.009175
v 0.008993 0.001000 0.011668
v 0.008993 -0.001000 0.011668
v 0.010212 0.001000 0.013932
v 0.010212 -0.001000 0.013932
v 0.012425 0.001000 0.015364
v 0.012425 -0.001000 0.015364
v 0.014293 0.001000 0.014198
v 0.014293 -0.001000 0.014198
v 0.014656 0.001000 0.011651
v 0.014656 -0.001000 0.011651
v 0.014534 0.001000 0.009137
v 0.014534 -0.001000 0.009137
v 0.014185 0.001000 0.006500
v 0.014185 -0.001000 0.006500
v 0.013703 0.001000 0.003989
v 0.013703 -0.001000 0.003989
v 0.013099 0.001000 0.001481
v 0.013099 -0.001000 0.001481
v 0.012388 0.001000 -0.001027
v 0.012388 -0.001000 -0.001027
v 0.011544 0.001000 -0.003469
v 0.011544 -0.001000 -0.003469
v 0.010340 0.001000 -0.005760
v 0.010340 -0.001000 -0.005760
v 0.008282 0.001000 -0.006169
v 0.008282 -0.001000 -0.006169
v 0.013925 -0.001000 0.035747
v 0.013925 -0.000000 0.037183
v 0.013925 -0.001000 0.037183
v 0.013925 0.001000 0.035747
v 0.013925 0.001000 0.037183
v 0.011759 0.001000 -0.027974
v 0.011759 -0.001000 -0.027974
v 0.017993 0.001000 -0.027974
v 0.017993 -0.001000 -0.027974
v 0.017993 0.001000 -0.027974
v 0.017993 -0.001000 -0.027974
v 0.017993 0.001000 0.014704
v 0.017993 -0.001000 0.014704
v 0.017993 0.001000 0.014704
v 0.017993 -0.001000 0.014704
v 0.019993 0.001000 0.014704
v 0.019993 -0.001000 0.014704
v 0.019993 0.001000 0.014704
v 0.019993 -0.001000 0.014704
v 0.019993 0.001000 -0.027974
v 0.019993 -0.001000 -0.027974
v 0.019993 0.001000 -0.027974
v 0.019993 -0.001000 -0.027974
v 0.023753 0.001000 -0.027974
v 0.023753 -0.001000 -0.027974
v 0.023753 0.001000 -0.027974
v 0.024648 0.001000 -0.027798
v 0.023753 -0.001000 -0.027974
v 0.024648 -0.001000 -0.027798
v 0.025436 -0.001000 -0.027267
v 0.025436 0.001000 -0.027267
v 0.025948 -0.001000 -0.026475
v 0.025948 0.001000 -0.026475
v 0.026109 -0.001000 -0.025618
v 0.026109 0.001000 -0.025618
v 0.026109 0.001000 -0.025618
v 0.026109 -0.001000 -0.025618
v 0.026109 0.001000 0.017354
v 0.026109 -0.001000 0.017354
v 0.026109 0.001000 0.017354
v 0.025932 0.001000 0.018250
v 0.026109 -0.001000 0.017354
v 0.025932 -0.001000 0.018250
v 0.025401 -0.001000 0.019038
v 0.025401 0.001000 0.019038
v 0.024609 -0.001000 0.019549
v 0.024609 0.001000 0.019549
v 0.023753 -0.001000 0.019710
v 0.023753 0.001000 0.019710
v 0.023753 0.001000 0.019710
v 0.023753 -0.001000 0.019710
v 0.016281 0.001000 0.019710
v 0.016281 -0.001000 0.019710
v 0.016281 0.001000 0.019710
v 0.015386 0.001000 0.019887
v 0.016281 -0.001000 0.019710
v 0.015386 -0.001000 0.019887
v 0.014598 -0.001000 0.020418
v 0.014598 0.001000 0.020418
v 0.014086 -0.001000 0.021210
v 0.014086 0.001000 0.021210
v 0.013925 -0.001000 0.022067
v 0.013925 0.001000 0.022067
v -0.009577 0.001000 -0.000074
v -0.007414 0.001000 -0.005246
v -0.009577 -0.001000 -0.000074
v -0.007414 -0.001000 -0.005246
v -0.005751 -0.001000 -0.010500
v -0.005751 0.001000 -0.010500
v -0.004867 -0.001000 -0.016099
v -0.004867 0.001000 -0.016099
v -0.004732 -0.001000 -0.021782
v -0.004732 0.001000 -0.021782
v -0.004888 -0.001000 -0.027488
v -0.004888 0.001000 -0.027488
v -0.004917 -0.001000 -0.033157
v -0.004917 0.001000 -0.033157
v -0.004055 -0.001000 -0.038435
v -0.004055 0.001000 -0.038435
v 0.000353 -0.001000 -0.041439
v 0.000353 0.001000 -0.041439
v 0.000353 0.001000 -0.041439
v 0.000353 -0.001000 -0.041439
v 0.000336 0.001000 -0.037930
v 0.000336 -0.001000 -0.037930
v 0.000318 0.001000 -0.034420
v 0.000318 -0.001000 -0.034420
v 0.000318 0.001000 -0.034420
v 0.000318 -0.001000 -0.034420
v 0.002318 0.001000 -0.034420
v 0.002318 -0.001000 -0.034420
v 0.002318 0.001000 -0.034420
v 0.002318 -0.001000 -0.034420
v 0.002353 0.001000 -0.041439
v 0.002353 -0.001000 -0.041439
v 0.002353 0.001000 -0.041439
v 0.002353 -0.001000 -0.041439
v 0.005247 0.001000 -0.041865
v 0.005247 -0.001000 -0.041865
v 0.008132 -0.000000 -0.041053
v 0.008132 0.001000 -0.041053
v 0.008132 -0.001000 -0.041053
v 0.009403 0.001000 -0.038962
v 0.009403 -0.001000 -0.038962
v 0.009403 0.001000 -0.030330
v 0.009403 -0.001000 -0.030330
v 0.009403 0.001000 -0.030330
v 0.009580 0.001000 -0.029435
v 0.009403 -0.001000 -0.030330
v 0.009580 -0.001000 -0.029435
v 0.010111 -0.001000 -0.028647
v 0.010903 -0.001000 -0.028136
v 0.010111 0.001000 -0.028647
v 0.010903 0.001000 -0.028136
v 0.011759 0.001000 -0.027974
v 0.011759 -0.001000 -0.027974
v -0.054663 0.001000 0.003764
v -0.048855 0.001000 -0.000672
v -0.054663 -0.001000 0.003764
v -0.048855 -0.001000 -0.000672
v -0.041279 -0.001000 -0.001143
v -0.041279 0.001000 -0.001143
v -0.033073 -0.001000 -0.000186
v -0.033073 0.001000 -0.000186
v -0.025094 -0.001000 0.001194
v -0.025094 0.001000 0.001194
v -0.017140 -0.001000 0.001628
v -0.009577 -0.001000 -0.000074
v -0.017140 0.001000 0.001628
v -0.009577 0.001000 -0.000074
v 0.008132 0.001000 -0.041053
v 0.008132 -0.000000 -0.041053
v 0.008654 0.001000 -0.040684
v 0.008654 -0.001000 -0.040684
v 0.009065 0.001000 -0.040178
v 0.009065 -0.001000 -0.040178
v 0.009320 0.001000 -0.039582
v 0.009320 -0.001000 -0.039582
v 0.009403 0.001000 -0.038962
v 0.009403 -0.001000 -0.038962
v 0.008132 -0.001000 -0.041053
v 0.013925 0.001000 0.022067
v 0.013925 -0.001000 0.022067
v 0.013925 0.001000 0.035747
v 0.013925 -0.001000 0.035747
v -0.020498 -0.001000 0.022848
v -0.037000 -0.001000 0.015226
v -0.037000 -0.000500 0.015226
v -0.020498 -0.000000 0.022848
v -0.003996 -0.000500 0.030469
v -0.003996 -0.001000 0.030469
v 0.004255 -0.000750 0.034280
v 0.004255 -0.001000 0.034280
v 0.008380 -0.000875 0.036186
v 0.008380 -0.001000 0.036186
v 0.010443 -0.001000 0.037138
v 0.012506 -0.001000 0.038091
v 0.010443 -0.000875 0.037138
v 0.010443 -0.000750 0.037138
v 0.008380 -0.000750 0.036186
v 0.012506 -0.000000 0.038091
v 0.008380 -0.000500 0.036186
v 0.004255 -0.000500 0.034280
v 0.008380 -0.000250 0.036186
v 0.010443 -0.000000 0.037138
v 0.008380 -0.000000 0.036186
v 0.004255 -0.000250 0.034280
v 0.004255 -0.000000 0.034280
v -0.003996 -0.000000 0.030469
v 0.004255 0.000250 0.034280
v -0.003996 0.000500 0.030469
v 0.004255 0.000500 0.034280
v 0.004255 0.000750 0.034280
v -0.003996 0.001000 0.030469
v -0.020498 0.001000 0.022848
v -0.037000 0.000500 0.015226
v -0.037000 0.001000 0.015226
v -0.045251 0.000750 0.011415
v -0.045251 0.001000 0.011415
v -0.049376 0.001000 0.009510
v -0.053502 0.001000 0.007604
v -0.049376 0.000750 0.009510
v -0.049376 0.000500 0.009510
v -0.045251 -0.000000 0.011415
v -0.045251 0.000500 0.011415
v -0.049376 -0.000500 0.009510
v -0.045251 -0.000500 0.011415
v -0.053502 -0.001000 0.007604
v -0.049376 -0.000750 0.009510
v -0.045251 -0.000750 0.011415
v -0.049376 -0.001000 0.009510
v -0.045251 -0.001000 0.011415
v -0.037000 -0.000000 0.015226
v 0.004255 0.001000 0.034280
v 0.008380 0.001000 0.036186
v 0.008380 0.000875 0.036186
v 0.010443 0.000875 0.037138
v 0.008380 0.000750 0.036186
v 0.008380 0.000500 0.036186
v 0.010443 0.000750 0.037138
v 0.010443 0.000250 0.037138
v 0.012506 0.001000 0.038091
v 0.010443 0.001000 0.037138
v 0.010443 0.000125 0.037138
v 0.008380 0.000250 0.036186
v 0.008380 0.000125 0.036186
v 0.013925 0.001000 0.037183
v 0.013818 0.001000 0.037634
v 0.013925 -0.000000 0.037183
v 0.013708 -0.000000 0.037804
v 0.013925 -0.001000 0.037183
v 0.013818 -0.001000 0.037634
v 0.013670 -0.001000 0.037850
v 0.013464 -0.001000 0.038026
v 0.013462 -0.000000 0.038027
v 0.013218 -0.001000 0.038139
v 0.013155 -0.000000 0.038156
v 0.012960 -0.001000 0.038183
v 0.012506 -0.001000 0.038091
v 0.012823 -0.000000 0.038178
v 0.012506 -0.000000 0.038091
v 0.012960 0.001000 0.038183
v 0.013218 0.001000 0.038139
v 0.012506 0.001000 0.038091
v 0.013464 0.001000 0.038026
v 0.013670 0.001000 0.037850
v 0.013925 -0.001000 0.037183
v 0.012506 -0.001000 0.038091
v 0.013818 -0.001000 0.037634
v 0.013925 -0.001000 0.035747
v 0.013925 -0.001000 0.022067
v 0.003073 -0.001000 0.024112
v 0.001242 -0.001000 0.025550
v -0.000781 -0.001000 0.026364
v -0.002520 -0.001000 0.026549
v -0.003901 -0.001000 0.026259
v -0.004946 -0.001000 0.025655
v -0.005662 -0.001000 0.024749
v -0.017457 -0.001000 0.018362
v -0.019584 -0.001000 0.017822
v -0.053502 -0.001000 0.007604
v -0.054663 -0.001000 0.005789
v -0.054586 -0.001000 0.006339
v -0.054348 -0.001000 0.006866
v -0.053969 -0.001000 0.007304
v -0.050267 -0.001000 0.003514
v -0.054141 -0.001000 0.002040
v -0.054663 -0.001000 0.003764
v -0.050140 -0.001000 0.002966
v -0.049794 -0.001000 0.002533
v -0.053067 -0.001000 0.000826
v -0.049416 -0.001000 -0.000563
v -0.037096 -0.001000 -0.000804
v -0.044683 -0.001000 0.001559
v -0.048558 -0.001000 0.001958
v -0.034713 -0.001000 0.002157
v -0.021640 -0.001000 0.004458
v -0.021062 -0.001000 0.001632
v -0.009577 -0.001000 -0.000074
v -0.015000 -0.001000 0.004429
v -0.006553 -0.001000 0.001661
v -0.006384 -0.001000 0.001610
v -0.006199 -0.001000 0.001612
v -0.008014 -0.001000 -0.003704
v -0.004991 -0.001000 -0.014768
v 0.000795 -0.001000 -0.009851
v -0.006024 -0.001000 0.001672
v -0.003132 -0.001000 0.001491
v -0.000614 -0.001000 -0.003719
v -0.001530 -0.001000 -0.002493
v -0.000137 -0.001000 -0.004018
v 0.000105 -0.001000 -0.004074
v 0.000348 -0.001000 -0.004061
v 0.003543 -0.001000 -0.005978
v 0.000837 -0.001000 -0.003825
v 0.004258 -0.001000 -0.005465
v 0.002272 -0.001000 -0.001690
v 0.004928 -0.001000 -0.005217
v 0.003870 -0.001000 0.003290
v 0.007527 -0.001000 -0.000717
v 0.008060 -0.001000 0.007287
v 0.007693 -0.001000 -0.004061
v 0.008282 -0.001000 -0.006169
v 0.005508 -0.001000 -0.005248
v 0.006227 -0.001000 -0.006179
v 0.005952 -0.001000 -0.005568
v 0.005750 -0.001000 -0.005371
v 0.008510 -0.001000 -0.006437
v 0.006202 -0.001000 -0.009333
v 0.009049 -0.001000 -0.006642
v 0.009349 -0.001000 -0.006584
v 0.004935 -0.001000 -0.014758
v 0.008767 -0.001000 -0.006593
v 0.009983 -0.001000 -0.006163
v 0.017993 -0.001000 -0.027974
v 0.011759 -0.001000 -0.027974
v 0.003965 -0.001000 -0.017085
v 0.002633 -0.001000 -0.018809
v 0.010892 -0.001000 -0.028140
v 0.010093 -0.001000 -0.028664
v 0.009568 -0.001000 -0.029463
v 0.000884 -0.001000 -0.019784
v -0.004888 -0.001000 -0.027488
v -0.000758 -0.001000 -0.019969
v -0.001345 -0.001000 -0.019764
v -0.001753 -0.001000 -0.019374
v -0.001992 -0.001000 -0.018812
v -0.002078 -0.001000 -0.018095
v -0.001222 -0.001000 -0.014187
v 0.002318 -0.001000 -0.034420
v 0.000318 -0.001000 -0.034420
v -0.004508 -0.001000 -0.036937
v -0.004010 -0.001000 -0.038539
v -0.003149 -0.001000 -0.039824
v -0.001753 -0.001000 -0.040791
v 0.000353 -0.001000 -0.041439
v 0.002353 -0.001000 -0.041439
v 0.009403 -0.001000 -0.030330
v 0.009403 -0.001000 -0.038962
v 0.005242 -0.001000 -0.041866
v 0.008132 -0.001000 -0.041053
v 0.009319 -0.001000 -0.039585
v 0.009061 -0.001000 -0.040185
v 0.008647 -0.001000 -0.040691
v 0.017993 -0.001000 0.014704
v 0.010626 -0.001000 -0.005351
v 0.012842 -0.001000 0.000533
v 0.014268 -0.001000 0.007024
v 0.014595 -0.001000 0.012785
v 0.014099 -0.001000 0.014613
v 0.013641 -0.001000 0.015144
v 0.013029 -0.001000 0.015388
v 0.015414 -0.001000 0.019876
v 0.016281 -0.001000 0.019710
v 0.019993 -0.001000 0.014704
v 0.023753 -0.001000 0.019710
v 0.026109 -0.001000 0.017354
v 0.025944 -0.001000 0.018222
v 0.024620 -0.001000 0.019545
v 0.025419 -0.001000 0.019020
v 0.026109 -0.001000 -0.025618
v 0.025944 -0.001000 -0.026486
v 0.023753 -0.001000 -0.027974
v 0.019993 -0.001000 -0.027974
v 0.025419 -0.001000 -0.027284
v 0.024620 -0.001000 -0.027809
v 0.014615 -0.001000 0.020401
v 0.014090 -0.001000 0.021199
v 0.012265 -0.001000 0.015328
v 0.011419 -0.001000 0.014968
v 0.009808 -0.001000 0.013389
v 0.005243 -0.001000 0.013963
v 0.004932 -0.001000 0.019873
v -0.005079 -0.001000 0.009980
v -0.005882 -0.001000 0.001776
v -0.005778 -0.001000 0.001918
v -0.005718 -0.001000 0.002093
v -0.005716 -0.001000 0.002278
v -0.005768 -0.001000 0.002447
v -0.011781 -0.001000 0.015024
v -0.006254 -0.001000 0.019616
v -0.005831 -0.001000 0.015761
v -0.013080 -0.001000 0.016793
v -0.006260 -0.001000 0.022263
v -0.015107 -0.001000 0.018028
v 0.013670 -0.001000 0.037850
v 0.013464 -0.001000 0.038026
v 0.013218 -0.001000 0.038139
v 0.012960 -0.001000 0.038183
vn 0.000000 1.000000 0.000000
vn 0.000000 1.000000 0.000000
vn 0.000000 1.000000 0.000000
vn 0.000000 1.000000 0.000000
vn 0.000000 1.000000 0.000000
vn 0.000000 1.000000 0.000000
vn 0.000000 1.000000 0.000000
vn 0.000000 1.000000 0.000000
vn 0.000000 1.000000 0.000000
vn 0.000000 1.000000 0.000000
vn 0.000000 1.000000 0.000000
vn 0.000000 1.000000 0.000000
vn 0.000000 1.000000 0.000000
vn 0.000000 1.000000 0.000000
vn 0.000000 1.000000 0.000000
vn 0.000000 1.000000 0.000000
vn 0.000000 1.000000 0.000000
vn 0.000000 1.000000 0.000000
vn 0.000000 1.000000 0.000000
vn 0.000000 1.000000 0.000000
vn 0.000000 1.000000 0.000000
vn 0.000000 1.000000 0.000000
vn 0.000000 1.000000 0.000000
vn 0.000000 1.000000 0.000000
vn 0.000000 1.000000 0.000000
vn 0.000000 1.000000 0.000000
vn 0.000000 1.000000 0.000000
vn 0.000000 1.000000 0.000000
vn 0.000000 1.000000 0.000000
vn 0.000000 1.000000 0.000000
vn 0.000000 1.000000 0.000000
vn 0.000000 1.000000 0.000000
vn 0.000000 1.000000 0.000000
vn 0.000000 1.000000 0.000000
vn 0.000000 1.000000 0.000000
vn 0.000000 1.000000 0.000000
vn 0.000000 1.000000 0.000000
vn 0.000000 1.000000 0.000000
vn 0.000000 1.000000 0.000000
vn 0.000000 1.000000 0.000000
vn 0.000000 1.000000 0.000000
vn 0.000000 1.000000 0.000000
vn 0.000000 1.000000 0.000000
vn 0.000000 1.000000 0.000000
vn 0.000000 1.000000 0.000000
vn 0.000000 1.000000 0.000000
vn 0.000000 1.000000 0.000000
vn 0.000000 1.000000 0.000000
vn 0.000000 1.000000 0.000000
vn 0.000000 1.000000 0.000000
vn 0.000000 1.000000 0.000000
vn 0.000000 1.000000 0.000000
vn 0.000000 1.000000 0.000000
vn 0.000000 1.000000 0.000000
vn 0.000000 1.000000 0.000000
vn 0.000000 1.000000 0.000000
vn 0.000000 1.000000 0.000000
vn 0.000000 1.000000 0.000000
vn 0.000000 1.000000 0.000000
vn 0.000000 1.000000 0.000000
vn 0.000000 1.000000 0.000000
vn 0.000000 1.000000 0.000000
vn 0.000000 1.000000 0.000000
vn 0.000000 1.000000 0.000000
vn 0.000000 1.000000 0.000000
vn 0.000000 1.000000 0.000000
vn 0.000000 1.000000 0.000000
vn 0.000000 1.000000 0.000000
vn 0.000000 1.000000 0.000000
vn 0.000000 1.000000 0.000000
vn 0.000000 1.000000 0.000000
vn 0.000000 1.000000 0.000000
vn 0.000000 1.000000 0.000000
vn 0.000000 1.000000 0.000000
vn 0.000000 1.000000 0.000000
vn 0.000000 1.000000 0.000000
vn 0.000000 1.000000 0.000000
vn 0.000000 1.000000 0.000000
vn 0.000000 1.000000 0.000000
vn 0.000000 1.000000 0.000000
vn 0.000000 1.000000 0.000000
vn 0.000000 1.000000 0.000000
vn 0.000000 1.000000 0.000000
vn 0.000000 1.000000 0.000000
vn 0.000000 1.000000 0.000000
vn 0.000000 1.000000 0.000000
vn 0.000000 1.000000 0.000000
vn 0.000000 1.000000 0.000000
vn 0.000000 1.000000 0.000000
vn 0.000000 1.000000 0.000000
vn 0.000000 1.000000 0.000000
vn 0.000000 1.000000 0.000000
vn 0.000000 1.000000 0.000000
vn 0.000000 1.000000 0.000000
vn 0.000000 1.000000 0.000000
vn 0.000000 1.000000 0.000000
vn 0.000000 1.000000 0.000000
vn 0.000000 1.000000 0.000000
vn 0.000000 1.000000 0.000000
vn 0.000000 1.000000 0.000000
vn 0.000000 1.000000 0.000000
vn 0.000000 1.000000 0.000000
vn 0.000000 1.000000 0.000000
vn 0.000000 1.000000 0.000000
vn 0.000000 1.000000 0.000000
vn -0.000100 1.000000 0.000000
vn 0.000000 1.000000 0.000000
vn 0.000000 1.000000 0.000000
vn 0.000000 1.000000 0.000000
vn 0.000000 1.000000 0.000000
vn 0.000000 1.000000 0.000000
vn 0.000000 1.000000 0.000000
vn 0.000000 1.000000 0.000000
vn 0.000000 1.000000 0.000000
vn 0.000000 1.000000 0.000000
vn 0.000000 1.000000 0.000000
vn 0.000000 1.000000 0.000000
vn 0.000000 1.000000 0.000000
vn 0.000000 1.000000 0.000000
vn 0.000000 1.000000 0.000000
vn 0.000000 1.000000 0.000000
vn 0.000000 1.000000 0.000000
vn 0.000000 1.000000 0.000000
vn 0.000000 1.000000 0.000000
vn 0.000000 1.000000 0.000000
vn 0.000000 1.000000 0.000000
vn 0.000000 1.000000 0.000000
vn 0.000000 1.000000 0.000000
vn 0.000000 1.000000 0.000000
vn 0.000000 1.000000 0.000000
vn 0.000000 1.000000 0.000000
vn 0.000000 1.000000 0.000000
vn 0.000000 1.000000 0.000000
vn 0.000000 1.000000 0.000000
vn 0.000000 1.000000 0.000000
vn 0.000000 1.000000 0.000000
vn 0.000000 1.000000 0.000000
vn 0.000000 1.000000 0.000000
vn 0.000000 1.000000 0.000000
vn 0.000000 1.000000 0.000000
vn 0.000000 1.000000 0.000000
vn 0.000000 1.000000 0.000000
vn 0.000000 1.000000 0.000000
vn -0.902246 0.000000 -0.431222
vn -0.902246 0.000000 -0.431222
vn -0.990251 0.000000 -0.139293
vn -0.990265 0.000000 -0.139195
vn -0.984887 -0.000000 0.173198
vn -0.984887 -0.000000 0.173198
vn -0.883618 -0.000000 0.468209
vn -0.883681 -0.000000 0.468090
vn -0.707307 -0.000000 0.706907
vn -0.707257 -0.000000 0.706957
vn -0.461198 -0.000000 0.887297
vn -0.461198 -0.000000 0.887297
vn -0.164496 -0.000000 0.986378
vn -0.164399 -0.000000 0.986394
vn 0.146893 -0.000000 0.989152
vn 0.147005 -0.000000 0.989136
vn 0.430818 -0.000000 0.902439
vn 0.430818 -0.000000 0.902439
vn 0.430818 -0.000000 0.902439
vn 0.430818 -0.000000 0.902439
vn 0.147005 -0.000000 0.989136
vn -0.164496 -0.000000 0.986378
vn -0.461198 -0.000000 0.887297
vn -0.707307 -0.000000 0.706907
vn -0.883618 -0.000000 0.468209
vn -0.984887 -0.000000 0.173198
vn -0.990251 0.000000 -0.139293
vn -0.902246 0.000000 -0.431222
vn 0.430900 -0.000000 0.902400
vn 0.397995 -0.000000 0.917388
vn 0.430900 -0.000000 0.902400
vn 0.430900 -0.000000 0.902400
vn 0.397995 -0.000000 0.917388
vn 0.397995 -0.000000 0.917388
vn 0.362200 -0.000000 0.932100
vn 0.397995 -0.000000 0.917388
vn 0.362200 -0.000000 0.932100
vn 0.397995 -0.000000 0.917388
vn 0.430900 -0.000000 0.902400
vn 0.362200 -0.000000 0.932100
vn 0.280092 -0.000000 0.959973
vn 0.280092 -0.000000 0.959973
vn 0.037400 -0.000000 0.999300
vn 0.037400 -0.000000 0.999300
vn -0.137206 -0.000000 0.990543
vn -0.193500 -0.000000 0.981100
vn -0.137206 -0.000000 0.990543
vn -0.193500 -0.000000 0.981100
vn -0.165599 -0.000000 0.986193
vn -0.165599 -0.000000 0.986193
vn -0.054002 -0.000000 0.998541
vn -0.054002 -0.000000 0.998541
vn 0.038099 -0.000000 0.999274
vn 0.038099 0.000100 0.999274
vn 0.999908 -0.000000 0.013600
vn 0.999908 -0.000000 0.013600
vn 0.280092 -0.000000 0.959973
vn 0.362200 -0.000000 0.932100
vn 0.362200 -0.000000 0.932100
vn 0.422606 0.000000 -0.906313
vn 0.422606 0.000000 -0.906313
vn 0.422606 0.000000 -0.906313
vn 0.422606 0.000000 -0.906313
vn 0.422524 0.000000 -0.906352
vn 0.049000 0.000000 -0.998799
vn 0.422524 0.000000 -0.906352
vn 0.049000 0.000000 -0.998799
vn -0.347109 0.000000 -0.937825
vn -0.347109 0.000000 -0.937825
vn -0.685177 0.000000 -0.728376
vn -0.685177 0.000000 -0.728376
vn -0.902168 0.000000 -0.431385
vn -0.902168 0.000000 -0.431385
vn -0.902207 0.000000 -0.431303
vn -0.902207 0.000000 -0.431303
vn -0.902207 0.000000 -0.431303
vn -0.902207 0.000000 -0.431303
vn -0.902207 0.000000 -0.431303
vn -0.791791 0.000000 -0.610793
vn -0.791791 0.000000 -0.610793
vn -1.000000 0.000000 -0.000100
vn -1.000000 0.000000 -0.000100
vn -0.990955 -0.000000 0.134194
vn -0.990955 -0.000000 0.134194
vn -0.979283 -0.000000 0.202496
vn -0.979283 -0.000000 0.202496
vn -0.965419 -0.000000 0.260705
vn -0.965419 -0.000000 0.260705
vn -0.945682 -0.000000 0.325094
vn -0.945682 -0.000000 0.325094
vn -0.894027 -0.000000 0.448014
vn -0.894027 -0.000000 0.448014
vn -0.740338 -0.000000 0.672235
vn -0.740338 -0.000000 0.672235
vn -0.439918 -0.000000 0.898038
vn -0.439918 -0.000000 0.898038
vn 0.005000 -0.000000 0.999988
vn 0.005000 0.000100 0.999987
vn 0.899019 -0.000000 0.437909
vn 0.899019 -0.000000 0.437909
vn 0.991709 0.000000 -0.128501
vn 0.991709 0.000000 -0.128501
vn 0.959796 0.000000 -0.280699
vn 0.959796 0.000000 -0.280699
vn 0.929473 0.000000 -0.368889
vn 0.929473 0.000000 -0.368889
vn 0.901879 0.000000 -0.431990
vn 0.901879 0.000000 -0.431990
vn 0.877276 0.000000 -0.479987
vn 0.877276 0.000000 -0.479987
vn 0.848806 0.000000 -0.528704
vn 0.848806 0.000000 -0.528704
vn 0.778698 0.000000 -0.627399
vn 0.778698 0.000000 -0.627399
vn 0.493984 0.000000 -0.869471
vn 0.493984 0.000000 -0.869471
vn -0.791839 0.000000 -0.610730
vn -0.791839 0.000000 -0.610730
vn 0.995978 0.000000 -0.089598
vn 0.995978 0.000000 -0.089598
vn 0.754080 0.000000 -0.656783
vn 0.754080 0.000000 -0.656783
vn 0.061202 0.000000 -0.998125
vn 0.061202 0.000000 -0.998125
vn -0.414805 0.000000 -0.909910
vn -0.414805 0.000000 -0.909910
vn -0.747437 0.000000 -0.664333
vn -0.747437 0.000000 -0.664333
vn -0.957691 0.000000 -0.287797
vn -0.957691 0.000000 -0.287797
vn -0.995362 0.000000 -0.096196
vn -0.995362 0.000000 -0.096196
vn -0.999692 -0.000000 0.024800
vn -0.999692 -0.000000 0.024800
vn -0.996898 -0.000000 0.078700
vn -0.996898 -0.000000 0.078700
vn -0.992282 -0.000000 0.123998
vn -0.992282 -0.000000 0.123998
vn -0.983668 -0.000000 0.179994
vn -0.983668 -0.000000 0.179994
vn -0.966654 -0.000000 0.256088
vn -0.966654 -0.000000 0.256088
vn -0.930613 -0.000000 0.366005
vn -0.930613 -0.000000 0.366005
vn -0.678708 -0.000000 0.734408
vn -0.678708 0.000200 0.734408
vn 0.856636 -0.000000 0.515922
vn 0.856636 -0.000000 0.515922
vn 0.942533 -0.000000 0.334112
vn 0.942533 -0.000000 0.334112
vn 0.965146 -0.000000 0.261712
vn 0.965146 -0.000000 0.261712
vn 0.978319 -0.000000 0.207104
vn 0.978319 -0.000000 0.207104
vn 0.986125 -0.000000 0.166004
vn 0.986125 -0.000000 0.166004
vn 0.991967 -0.000000 0.126496
vn 0.991967 -0.000000 0.126496
vn 0.993741 -0.000000 0.111705
vn 0.993741 -0.000000 0.111705
vn 0.995391 -0.000000 0.095899
vn 0.995391 -0.000000 0.095899
vn 0.995987 0.000000 -0.089499
vn 0.995987 0.000000 -0.089499
vn 0.837517 -0.000000 0.546411
vn 0.837517 -0.000000 0.546411
vn 0.994743 -0.000000 0.102404
vn 0.994743 -0.000000 0.102404
vn 0.999959 -0.000000 0.009100
vn 0.999959 -0.000000 0.009100
vn 0.999259 0.000000 -0.038498
vn 0.999259 0.000000 -0.038498
vn 0.996930 0.000000 -0.078302
vn 0.996930 0.000000 -0.078302
vn 0.992834 0.000000 -0.119504
vn 0.992834 0.000000 -0.119504
vn 0.982889 0.000000 -0.184198
vn 0.982889 0.000000 -0.184198
vn 0.944296 0.000000 -0.329099
vn 0.944296 0.000000 -0.329099
vn 0.764190 0.000000 -0.644991
vn 0.764190 0.000000 -0.644991
vn 0.186896 0.000000 -0.982380
vn 0.186896 0.000000 -0.982380
vn -0.935856 0.000000 -0.352383
vn -0.935856 0.000000 -0.352383
vn -0.999935 0.000000 -0.011400
vn -0.999935 0.000000 -0.011400
vn -0.995382 -0.000000 0.095998
vn -0.995382 -0.000000 0.095998
vn -0.986740 -0.000000 0.162307
vn -0.986740 -0.000000 0.162307
vn -0.977096 -0.000000 0.212799
vn -0.977096 -0.000000 0.212799
vn -0.967204 -0.000000 0.254001
vn -0.967204 -0.000000 0.254001
vn -0.956019 -0.000000 0.293306
vn -0.956019 -0.000000 0.293306
vn -0.928711 -0.000000 0.370804
vn -0.928711 -0.000000 0.370804
vn -0.791094 -0.000000 0.611695
vn -0.791094 -0.000000 0.611695
vn 0.837396 -0.000000 0.546597
vn 0.837396 -0.000000 0.546597
vn 1.000000 0.000000 0.000000
vn 1.000000 0.000000 0.000000
vn 1.000000 0.000000 0.000000
vn 1.000000 0.000000 0.000000
vn 1.000000 0.000000 0.000000
vn 0.000000 0.000000 -1.000000
vn 0.000000 0.000000 -1.000000
vn 0.000000 0.000000 -1.000000
vn 0.000000 0.000000 -1.000000
vn 1.000000 0.000000 0.000000
vn 1.000000 0.000000 0.000000
vn 1.000000 0.000000 0.000000
vn 1.000000 0.000000 0.000000
vn 0.000000 0.000000 -1.000000
vn 0.000000 0.000000 -1.000000
vn 0.000000 0.000000 -1.000000
vn 0.000000 0.000000 -1.000000
vn -1.000000 0.000000 0.000000
vn -1.000000 0.000000 0.000000
vn -1.000000 0.000000 0.000000
vn -1.000000 0.000000 0.000000
vn 0.000000 0.000000 -1.000000
vn 0.000000 0.000000 -1.000000
vn 0.000000 0.000000 -1.000000
vn 0.000000 0.000000 -1.000000
vn 0.000100 0.000000 -1.000000
vn 0.379910 0.000000 -0.925024
vn 0.000100 0.000000 -1.000000
vn 0.379910 0.000000 -0.925024
vn 0.714320 0.000000 -0.699819
vn 0.714320 0.000000 -0.699819
vn 0.931595 0.000000 -0.363498
vn 0.931595 0.000000 -0.363498
vn 1.000000 0.000000 -0.000100
vn 1.000000 0.000000 -0.000100
vn 1.000000 0.000000 0.000000
vn 1.000000 0.000000 0.000000
vn 1.000000 0.000000 0.000000
vn 1.000000 0.000000 0.000000
vn 1.000000 -0.000100 0.000100
vn 0.925024 -0.000000 0.379910
vn 1.000000 -0.000000 0.000100
vn 0.925024 -0.000000 0.379910
vn 0.699920 -0.000000 0.714221
vn 0.699920 -0.000000 0.714221
vn 0.363411 -0.000000 0.931629
vn 0.363411 -0.000000 0.931629
vn 0.000100 -0.000000 1.000000
vn 0.000100 -0.000000 1.000000
vn 0.000000 -0.000000 1.000000
vn 0.000000 -0.000000 1.000000
vn 0.000000 -0.000000 1.000000
vn 0.000000 -0.000000 1.000000
vn 0.000100 -0.000000 1.000000
vn 0.379910 -0.000000 0.925024
vn 0.000100 -0.000000 1.000000
vn 0.379910 -0.000000 0.925024
vn 0.714419 -0.000000 0.699718
vn 0.714419 -0.000000 0.699718
vn 0.931595 -0.000000 0.363498
vn 0.931595 -0.000000 0.363498
vn 1.000000 -0.000000 0.000100
vn 1.000000 -0.000000 0.000100
vn -0.905004 0.000000 -0.425402
vn -0.935666 0.000000 -0.352887
vn -0.905004 0.000000 -0.425402
vn -0.935666 0.000000 -0.352887
vn -0.971365 0.000000 -0.237592
vn -0.971365 0.000000 -0.237592
vn -0.997176 0.000000 -0.075098
vn -0.997176 0.000000 -0.075098
vn -0.999912 -0.000000 0.013300
vn -0.999912 -0.000000 0.013300
vn -0.999559 -0.000000 0.029699
vn -0.999559 -0.000000 0.029699
vn -0.999274 0.000000 -0.038099
vn -0.999274 0.000000 -0.038099
vn -0.919883 0.000000 -0.392193
vn -0.919883 0.000000 -0.392193
vn -0.190594 0.000000 -0.981669
vn -0.190594 0.000000 -0.981669
vn 0.999988 -0.000000 0.005000
vn 0.999988 -0.000000 0.005000
vn 0.999988 -0.000000 0.005000
vn 0.999988 -0.000000 0.005000
vn 0.999988 -0.000000 0.005000
vn 0.999988 -0.000000 0.005000
vn 0.000000 0.000000 -1.000000
vn 0.000000 0.000000 -1.000000
vn 0.000000 0.000000 -1.000000
vn 0.000000 0.000000 -1.000000
vn -0.999988 0.000000 -0.005000
vn -0.999988 0.000000 -0.005000
vn -0.999988 0.000000 -0.005000
vn -0.999988 0.000000 -0.005000
vn -0.314697 0.000000 -0.949192
vn -0.314697 0.000000 -0.949192
vn 0.053797 0.000000 -0.998552
vn 0.053797 0.000000 -0.998552
vn 0.460603 0.000000 -0.887606
vn 0.460603 0.000000 -0.887606
vn 0.460603 0.000000 -0.887606
vn 1.000000 0.000000 0.000000
vn 1.000000 0.000000 0.000000
vn 1.000000 0.000000 0.000000
vn 1.000000 0.000000 0.000000
vn 1.000000 0.000000 -0.000100
vn 0.925024 0.000000 -0.379910
vn 1.000000 0.000000 -0.000100
vn 0.925024 0.000000 -0.379910
vn 0.699567 0.000000 -0.714567
vn 0.363498 0.000000 -0.931595
vn 0.699567 0.000000 -0.714567
vn 0.363498 0.000000 -0.931595
vn 0.000100 0.000000 -1.000000
vn 0.000100 0.000000 -1.000000
vn -0.993458 0.000000 -0.114195
vn -0.178701 0.000000 -0.983903
vn -0.993458 0.000000 -0.114195
vn -0.178701 0.000000 -0.983903
vn 0.035998 0.000000 -0.999352
vn 0.035998 0.000000 -0.999352
vn 0.171691 0.000000 -0.985151
vn 0.171691 0.000000 -0.985151
vn 0.144095 0.000000 -0.989564
vn 0.144095 0.000000 -0.989564
vn -0.067601 0.000000 -0.997712
vn -0.374182 0.000000 -0.927355
vn -0.067601 0.000000 -0.997712
vn -0.374182 0.000000 -0.927355
vn 0.460802 0.000000 -0.887503
vn 0.460802 0.000000 -0.887503
vn 0.682233 0.000000 -0.731135
vn 0.682233 0.000000 -0.731135
vn 0.856220 0.000000 -0.516612
vn 0.856220 0.000000 -0.516612
vn 0.964771 0.000000 -0.263092
vn 0.964771 0.000000 -0.263092
vn 1.000000 0.000000 -0.000100
vn 1.000000 0.000000 -0.000100
vn 0.460802 0.000000 -0.887503
vn 1.000000 0.000000 0.000000
vn 1.000000 0.000000 0.000000
vn 1.000000 0.000000 0.000000
vn 1.000000 0.000000 0.000000
vn -0.419318 -0.000000 0.907839
vn -0.419318 -0.000000 0.907839
vn -0.419318 -0.000000 0.907839
vn -0.419318 -0.000000 0.907839
vn -0.419318 -0.000000 0.907839
vn -0.419318 -0.000000 0.907839
vn -0.419318 -0.000000 0.907839
vn -0.419318 -0.000000 0.907839
vn -0.419318 -0.000000 0.907839
vn -0.419318 -0.000000 0.907839
vn -0.419318 -0.000000 0.907839
vn -0.419318 -0.000000 0.907839
vn -0.419318 -0.000000 0.907839
vn -0.419318 -0.000000 0.907839
vn -0.419318 -0.000000 0.907839
vn -0.419318 -0.000000 0.907839
vn -0.419318 -0.000000 0.907839
vn -0.419318 -0.000000 0.907839
vn -0.419318 -0.000000 0.907839
vn -0.419318 -0.000000 0.907839
vn -0.419318 -0.000000 0.907839
vn -0.419318 -0.000000 0.907839
vn -0.419318 -0.000000 0.907839
vn -0.419318 -0.000000 0.907839
vn -0.419318 -0.000000 0.907839
vn -0.419318 -0.000000 0.907839
vn -0.419318 -0.000000 0.907839
vn -0.419318 -0.000000 0.907839
vn -0.419318 -0.000000 0.907839
vn -0.419318 -0.000000 0.907839
vn -0.419318 -0.000000 0.907839
vn -0.419318 -0.000000 0.907839
vn -0.419318 -0.000000 0.907839
vn -0.419318 -0.000000 0.907839
vn -0.419318 -0.000000 0.907839
vn -0.419318 -0.000000 0.907839
vn -0.419318 -0.000000 0.907839
vn -0.419318 -0.000000 0.907839
vn -0.419318 -0.000000 0.907839
vn -0.419318 -0.000000 0.907839
vn -0.419318 -0.000000 0.907839
vn -0.419318 -0.000000 0.907839
vn -0.419318 -0.000000 0.907839
vn -0.419318 -0.000000 0.907839
vn -0.419318 -0.000000 0.907839
vn -0.419318 -0.000000 0.907839
vn -0.419318 -0.000000 0.907839
vn -0.419318 -0.000000 0.907839
vn -0.419318 -0.000000 0.907839
vn -0.419318 -0.000000 0.907839
vn -0.419318 -0.000000 0.907839
vn -0.419318 -0.000000 0.907839
vn -0.419318 -0.000000 0.907839
vn -0.419318 -0.000000 0.907839
vn -0.419318 -0.000000 0.907839
vn -0.419318 -0.000000 0.907839
vn -0.419318 -0.000000 0.907839
vn -0.419318 -0.000000 0.907839
vn -0.419318 -0.000000 0.907839
vn -0.419318 -0.000000 0.907839
vn -0.419318 -0.000000 0.907839
vn 1.000000 -0.000000 0.000100
vn 0.892781 -0.000000 0.450491
vn 1.000000 -0.000000 0.000100
vn 0.783583 -0.000000 0.621287
vn 1.000000 -0.000000 0.000100
vn 0.892781 -0.000000 0.450491
vn 0.745220 0.000200 0.666818
vn 0.538815 -0.000000 0.842424
vn 0.536617 -0.000000 0.843826
vn 0.292701 -0.000000 0.956204
vn 0.230093 -0.000000 0.973169
vn 0.034700 -0.000000 0.999398
vn -0.419198 -0.000000 0.907895
vn -0.102295 -0.000000 0.994754
vn -0.419198 -0.000000 0.907895
vn 0.034700 -0.000000 0.999398
vn 0.292610 -0.000000 0.956232
vn -0.419198 -0.000000 0.907895
vn 0.538815 0.000100 0.842424
vn 0.745314 -0.000100 0.666713
vn 0.000000 -1.000000 -0.000000
vn 0.000000 -1.000000 -0.000000
vn 0.000000 -1.000000 -0.000000
vn 0.000000 -1.000000 -0.000000
vn 0.000000 -1.000000 -0.000000
vn 0.000000 -1.000000 -0.000000
vn 0.000000 -1.000000 -0.000000
vn 0.000000 -1.000000 -0.000000
vn 0.000000 -1.000000 -0.000000
vn 0.000000 -1.000000 -0.000000
vn 0.000000 -1.000000 -0.000000
vn 0.000000 -1.000000 -0.000000
vn 0.000000 -1.000000 -0.000000
vn 0.000000 -1.000000 -0.000000
vn 0.000000 -1.000000 -0.000000
vn 0.000000 -1.000000 -0.000000
vn 0.000000 -1.000000 -0.000000
vn 0.000000 -1.000000 -0.000000
vn 0.000000 -1.000000 -0.000000
vn 0.000000 -1.000000 -0.000000
vn 0.000000 -1.000000 -0.000000
vn 0.000000 -1.000000 -0.000000
vn 0.000000 -1.000000 -0.000000
vn 0.000000 -1.000000 -0.000000
vn 0.000000 -1.000000 -0.000000
vn 0.000000 -1.000000 -0.000000
vn 0.000000 -1.000000 -0.000000
vn 0.000000 -1.000000 -0.000000
vn 0.000000 -1.000000 -0.000000
vn 0.000000 -1.000000 -0.000000
vn 0.000000 -1.000000 -0.000000
vn 0.000000 -1.000000 -0.000000
vn 0.000000 -1.000000 -0.000000
vn 0.000000 -1.000000 -0.000000
vn 0.000000 -1.000000 -0.000000
vn 0.000000 -1.000000 -0.000000
vn 0.000000 -1.000000 -0.000000
vn 0.000000 -1.000000 -0.000000
vn 0.000000 -1.000000 -0.000000
vn 0.000000 -1.000000 -0.000000
vn 0.000000 -1.000000 -0.000000
vn 0.000000 -1.000000 -0.000000
vn 0.000000 -1.000000 -0.000000
vn 0.000000 -1.000000 -0.000000
vn 0.000000 -1.000000 -0.000000
vn 0.000000 -1.000000 -0.000000
vn 0.000000 -1.000000 -0.000000
vn 0.000000 -1.000000 -0.000000
vn 0.000000 -1.000000 -0.000000
vn 0.000000 -1.000000 -0.000000
vn 0.000000 -1.000000 -0.000000
vn 0.000000 -1.000000 -0.000000
vn 0.000000 -1.000000 -0.000000
vn 0.000000 -1.000000 -0.000000
vn 0.000000 -1.000000 -0.000000
vn 0.000000 -1.000000 -0.000000
vn 0.000000 -1.000000 -0.000000
vn 0.000000 -1.000000 -0.000000
vn 0.000000 -1.000000 -0.000000
vn 0.000000 -1.000000 -0.000000
vn 0.000000 -1.000000 -0.000000
vn 0.000000 -1.000000 -0.000000
vn 0.000000 -1.000000 -0.000000
vn 0.000000 -1.000000 -0.000000
vn 0.000000 -1.000000 -0.000000
vn 0.000000 -1.000000 -0.000000
vn 0.000000 -1.000000 -0.000000
vn 0.000000 -1.000000 -0.000000
vn 0.000000 -1.000000 -0.000000
vn 0.000000 -1.000000 -0.000000
vn 0.000000 -1.000000 -0.000000
vn 0.000000 -1.000000 -0.000000
vn 0.000000 -1.000000 -0.000000
vn 0.000000 -1.000000 -0.000000
vn 0.000000 -1.000000 -0.000000
vn 0.000000 -1.000000 -0.000000
vn 0.000000 -1.000000 -0.000000
vn 0.000000 -1.000000 -0.000000
vn 0.000000 -1.000000 -0.000000
vn 0.000000 -1.000000 -0.000000
vn 0.000000 -1.000000 -0.000000
vn 0.000000 -1.000000 -0.000000
vn 0.000000 -1.000000 -0.000000
vn 0.000000 -1.000000 -0.000000
vn 0.000000 -1.000000 -0.000000
vn 0.000000 -1.000000 -0.000000
vn 0.000000 -1.000000 -0.000000
vn 0.000000 -1.000000 -0.000000
vn 0.000000 -1.000000 -0.000000
vn 0.000000 -1.000000 -0.000000
vn 0.000000 -1.000000 -0.000000
vn 0.000000 -1.000000 -0.000000
vn 0.000000 -1.000000 -0.000000
vn 0.000000 -1.000000 -0.000000
vn 0.000000 -1.000000 -0.000000
vn 0.000000 -1.000000 -0.000000
vn 0.000000 -1.000000 -0.000000
vn 0.000000 -1.000000 -0.000000
vn 0.000000 -1.000000 -0.000000
vn 0.000000 -1.000000 -0.000000
vn 0.000000 -1.000000 -0.000000
vn 0.000100 -1.000000 -0.000000
vn 0.000000 -1.000000 -0.000000
vn 0.000000 -1.000000 -0.000000
vn 0.000000 -1.000000 -0.000000
vn 0.000000 -1.000000 -0.000000
vn 0.000000 -1.000000 -0.000000
vn 0.000000 -1.000000 -0.000000
vn 0.000000 -1.000000 -0.000000
vn 0.000000 -1.000000 -0.000000
vn 0.000000 -1.000000 -0.000000
vn 0.000000 -1.000000 -0.000000
vn 0.000000 -1.000000 -0.000000
vn 0.000000 -1.000000 -0.000000
vn 0.000000 -1.000000 -0.000000
vn 0.000000 -1.000000 -0.000000
vn 0.000000 -1.000000 -0.000000
vn 0.000000 -1.000000 -0.000000
vn 0.000000 -1.000000 -0.000000
vn 0.000000 -1.000000 -0.000000
vn 0.000000 -1.000000 -0.000000
vn 0.000000 -1.000000 -0.000000
vn 0.000000 -1.000000 -0.000000
vn 0.000000 -1.000000 -0.000000
vn 0.000000 -1.000000 -0.000000
vn 0.000000 -1.000000 -0.000000
vn 0.000000 -1.000000 -0.000000
vn 0.000000 -1.000000 -0.000000
vn 0.000000 -1.000000 -0.000000
vn 0.000000 -1.000000 -0.000000
vn 0.000000 -1.000000 -0.000000
vn 0.000000 -1.000000 -0.000000
vn 0.000000 -1.000000 -0.000000
vn 0.000000 -1.000000 -0.000000
vn 0.000000 -1.000000 -0.000000
vn 0.000000 -1.000000 -0.000000
vn 0.000000 -1.000000 -0.000000
vn 0.000000 -1.000000 -0.000000
vn 0.000000 -1.000000 -0.000000
vn 0.000000 -1.000000 -0.000000
vn 0.000000 -1.000000 -0.000000
vn 0.000000 -1.000000 -0.000000
vn 0.000000 -1.000000 -0.000000
f 5//5 1//1 2//2
f 1//1 3//3 2//2
f 3//3 1//1 6//6
f 4//4 8//8 1//1
f 1//1 5//5 4//4
f 1//1 7//7 6//6
f 9//9 7//7 1//1
f 10//10 1//1 8//8
f 11//11 1//1 10//10
f 11//11 12//12 1//1
f 16//16 12//12 13//13
f 13//13 12//12 14//14
f 12//12 15//15 14//14
f 17//17 15//15 12//12
f 11//11 17//17 12//12
f 17//17 11//11 18//18
f 19//19 20//20 18//18
f 11//11 19//19 18//18
f 20//20 19//19 22//22
f 20//20 22//22 21//21
f 21//21 22//22 23//23
f 23//23 24//24 25//25
f 25//25 21//21 23//23
f 26//26 25//25 27//27
f 25//25 24//24 27//27
f 27//27 28//28 26//26
f 29//29 30//30 28//28
f 30//30 34//34 28//28
f 31//31 28//28 33//33
f 31//31 32//32 28//28
f 28//28 32//32 26//26
f 33//33 28//28 34//34
f 30//30 29//29 35//35
f 29//29 36//36 35//35
f 36//36 37//37 35//35
f 37//37 38//38 39//39
f 38//38 37//37 36//36
f 39//39 38//38 40//40
f 42//42 41//41 40//40
f 42//42 40//40 38//38
f 42//42 43//43 44//44
f 42//42 44//44 41//41
f 43//43 45//45 44//44
f 45//45 46//46 47//47
f 45//45 43//43 46//46
f 47//47 46//46 48//48
f 48//48 46//46 50//50
f 49//49 48//48 50//50
f 49//49 50//50 51//51
f 51//51 52//52 15//15
f 15//15 49//49 51//51
f 15//15 52//52 14//14
f 53//53 55//55 36//36
f 36//36 54//54 53//53
f 29//29 54//54 36//36
f 56//56 55//55 57//57
f 58//58 57//57 55//55
f 58//58 55//55 59//59
f 55//55 53//53 59//59
f 56//56 57//57 60//60
f 56//56 60//60 61//61
f 62//62 56//56 61//61
f 62//62 63//63 56//56
f 64//64 67//67 63//63
f 66//66 65//65 63//63
f 63//63 65//65 56//56
f 67//67 66//66 63//63
f 64//64 68//68 67//67
f 69//69 68//68 70//70
f 68//68 64//64 70//70
f 69//69 70//70 71//71
f 71//71 72//72 69//69
f 73//73 72//72 71//71
f 73//73 71//71 74//74
f 75//75 74//74 71//71
f 76//76 74//74 75//75
f 76//76 75//75 77//77
f 78//78 77//77 75//75
f 79//79 78//78 75//75
f 79//79 81//81 80//80
f 79//79 80//80 78//78
f 82//82 80//80 81//81
f 81//81 83//83 82//82
f 82//82 83//83 84//84
f 84//84 86//86 82//82
f 86//86 84//84 85//85
f 85//85 87//87 86//86
f 88//88 86//86 87//87
f 89//89 86//86 88//88
f 89//89 88//88 90//90
f 90//90 91//91 89//89
f 90//90 92//92 91//91
f 93//93 92//92 90//90
f 92//92 93//93 95//95
f 92//92 95//95 94//94
f 96//96 94//94 95//95
f 93//93 97//97 95//95
f 98//98 97//97 93//93
f 98//98 2//2 97//97
f 98//98 5//5 2//2
f 99//99 100//100 96//96
f 100//100 94//94 96//96
f 99//99 101//101 100//100
f 102//102 101//101 99//99
f 103//103 101//101 102//102
f 103//103 104//104 101//101
f 104//104 103//103 105//105
f 103//103 106//106 105//105
f 103//103 107//107 106//106
f 107//107 72//72 108//108
f 107//107 103//103 72//72
f 108//108 72//72 73//73
f 109//109 103//103 102//102
f 109//109 111//111 110//110
f 112//112 111//111 109//109
f 109//109 113//113 112//112
f 113//113 109//109 102//102
f 112//112 113//113 114//114
f 115//115 112//112 114//114
f 115//115 116//116 112//112
f 118//118 111//111 117//117
f 118//118 110//110 111//111
f 119//119 118//118 117//117
f 119//119 117//117 120//120
f 87//87 85//85 121//121
f 121//121 122//122 87//87
f 123//123 124//124 122//122
f 122//122 121//121 123//123
f 123//123 53//53 124//124
f 53//53 125//125 124//124
f 126//126 125//125 53//53
f 53//53 54//54 126//126
f 127//127 65//65 66//66
f 127//127 128//128 65//65
f 129//129 133//133 128//128
f 128//128 130//130 129//129
f 131//131 130//130 128//128
f 132//132 131//131 128//128
f 65//65 128//128 133//133
f 65//65 133//133 134//134
f 56//56 65//65 135//135
f 135//135 136//136 140//140
f 136//136 135//135 137//137
f 137//137 135//135 138//138
f 135//135 139//139 138//138
f 56//56 135//135 140//140
f 13//13 14//14 141//141
f 3//3 6//6 142//142
f 143//143 3//3 142//142
f 145//145 144//144 146//146
f 145//145 146//146 147//147
f 149//149 147//147 146//146
f 149//149 146//146 148//148
f 151//151 149//149 148//148
f 151//151 148//148 150//150
f 153//153 151//151 150//150
f 153//153 150//150 152//152
f 155//155 153//153 152//152
f 155//155 152//152 154//154
f 157//157 155//155 154//154
f 157//157 154//154 156//156
f 159//159 157//157 156//156
f 159//159 156//156 158//158
f 159//159 158//158 160//160
f 160//160 158//158 161//161
f 162//162 159//159 160//160
f 164//164 159//159 162//162
f 164//164 162//162 163//163
f 164//164 165//165 157//157
f 164//164 157//157 159//159
f 165//165 166//166 155//155
f 165//165 155//155 157//157
f 166//166 167//167 153//153
f 166//166 153//153 155//155
f 167//167 168//168 151//151
f 167//167 151//151 153//153
f 168//168 169//169 149//149
f 168//168 149//149 151//151
f 169//169 170//170 147//147
f 169//169 147//147 149//149
f 147//147 170//170 171//171
f 147//147 171//171 145//145
f 173//173 176//176 174//174
f 173//173 174//174 172//172
f 175//175 174//174 177//177
f 175//175 177//177 179//179
f 176//176 177//177 174//174
f 178//178 177//177 176//176
f 178//178 176//176 201//201
f 180//180 179//179 177//177
f 180//180 177//177 178//178
f 183//183 181//181 179//179
f 183//183 179//179 180//180
f 182//182 175//175 179//179
f 182//182 179//179 181//181
f 184//184 183//183 180//180
f 185//185 184//184 180//180
f 186//186 184//184 185//185
f 188//188 186//186 187//187
f 188//188 187//187 190//190
f 187//187 186//186 185//185
f 189//189 188//188 190//190
f 189//189 190//190 191//191
f 193//193 189//189 191//191
f 193//193 191//191 192//192
f 195//195 193//193 192//192
f 195//195 192//192 194//194
f 197//197 195//195 194//194
f 197//197 194//194 196//196
f 198//198 199//199 197//197
f 198//198 197//197 196//196
f 185//185 200//200 187//187
f 200//200 185//185 201//201
f 201//201 202//202 200//200
f 201//201 176//176 173//173
f 201//201 173//173 202//202
f 185//185 178//178 201//201
f 180//180 178//178 185//185
f 204//204 203//203 205//205
f 204//204 205//205 206//206
f 208//208 210//210 209//209
f 208//208 209//209 207//207
f 211//211 210//210 208//208
f 211//211 208//208 212//212
f 213//213 211//211 212//212
f 213//213 212//212 214//214
f 216//216 215//215 213//213
f 216//216 213//213 214//214
f 218//218 217//217 219//219
f 218//218 219//219 220//220
f 218//218 220//220 221//221
f 225//225 223//223 222//222
f 225//225 222//222 224//224
f 227//227 225//225 224//224
f 227//227 224//224 226//226
f 229//229 227//227 226//226
f 229//229 226//226 228//228
f 231//231 229//229 228//228
f 231//231 228//228 230//230
f 233//233 231//231 230//230
f 233//233 230//230 232//232
f 235//235 233//233 232//232
f 235//235 232//232 234//234
f 237//237 235//235 234//234
f 237//237 234//234 236//236
f 239//239 237//237 236//236
f 239//239 236//236 238//238
f 241//241 239//239 238//238
f 241//241 238//238 240//240
f 243//243 241//241 240//240
f 243//243 240//240 242//242
f 245//245 243//243 242//242
f 245//245 242//242 244//244
f 247//247 245//245 244//244
f 247//247 244//244 246//246
f 249//249 247//247 246//246
f 249//249 246//246 248//248
f 251//251 249//249 248//248
f 251//251 248//248 250//250
f 253//253 251//251 250//250
f 253//253 250//250 252//252
f 255//255 253//253 252//252
f 255//255 252//252 254//254
f 257//257 255//255 254//254
f 257//257 254//254 256//256
f 259//259 257//257 256//256
f 259//259 256//256 258//258
f 261//261 259//259 258//258
f 261//261 258//258 260//260
f 265//265 263//263 262//262
f 265//265 262//262 264//264
f 267//267 265//265 264//264
f 267//267 264//264 266//266
f 269//269 267//267 266//266
f 269//269 266//266 268//268
f 271//271 269//269 268//268
f 271//271 268//268 270//270
f 273//273 271//271 270//270
f 273//273 270//270 272//272
f 275//275 273//273 272//272
f 275//275 272//272 274//274
f 277//277 275//275 274//274
f 277//277 274//274 276//276
f 279//279 277//277 276//276
f 279//279 276//276 278//278
f 281//281 279//279 278//278
f 281//281 278//278 280//280
f 283//283 281//281 280//280
f 283//283 280//280 282//282
f 285//285 283//283 282//282
f 285//285 282//282 284//284
f 287//287 285//285 284//284
f 287//287 284//284 286//286
f 289//289 287//287 286//286
f 289//289 286//286 288//288
f 291//291 289//289 288//288
f 291//291 288//288 290//290
f 293//293 291//291 290//290
f 293//293 290//290 292//292
f 295//295 293//293 292//292
f 295//295 292//292 294//294
f 297//297 295//295 294//294
f 297//297 294//294 296//296
f 299//299 297//297 296//296
f 299//299 296//296 298//298
f 301//301 299//299 298//298
f 301//301 298//298 300//300
f 303//303 301//301 300//300
f 303//303 300//300 302//302
f 305//305 303//303 302//302
f 305//305 302//302 304//304
f 307//307 305//305 304//304
f 307//307 304//304 306//306
f 311//311 309//309 308//308
f 311//311 308//308 310//310
f 313//313 311//311 310//310
f 313//313 310//310 312//312
f 315//315 313//313 312//312
f 315//315 312//312 314//314
f 317//317 315//315 314//314
f 317//317 314//314 316//316
f 319//319 317//317 316//316
f 319//319 316//316 318//318
f 321//321 319//319 318//318
f 321//321 318//318 320//320
f 323//323 321//321 320//320
f 323//323 320//320 322//322
f 325//325 323//323 322//322
f 325//325 322//322 324//324
f 327//327 325//325 324//324
f 327//327 324//324 326//326
f 329//329 327//327 326//326
f 329//329 326//326 328//328
f 331//331 329//329 328//328
f 331//331 328//328 330//330
f 333//333 331//331 330//330
f 333//333 330//330 332//332
f 335//335 333//333 332//332
f 335//335 332//332 334//334
f 337//337 335//335 334//334
f 337//337 334//334 336//336
f 339//339 337//337 336//336
f 339//339 336//336 338//338
f 341//341 339//339 338//338
f 341//341 338//338 340//340
f 343//343 341//341 340//340
f 343//343 340//340 342//342
f 345//345 343//343 342//342
f 345//345 342//342 344//344
f 347//347 345//345 344//344
f 347//347 344//344 346//346
f 348//348 351//351 349//349
f 349//349 350//350 348//348
f 352//352 349//349 351//351
f 354//354 353//353 355//355
f 354//354 355//355 356//356
f 358//358 357//357 359//359
f 358//358 359//359 360//360
f 362//362 361//361 363//363
f 362//362 363//363 364//364
f 366//366 365//365 367//367
f 366//366 367//367 368//368
f 370//370 369//369 371//371
f 370//370 371//371 372//372
f 374//374 376//376 375//375
f 374//374 375//375 373//373
f 377//377 376//376 374//374
f 377//377 374//374 378//378
f 379//379 377//377 378//378
f 379//379 378//378 380//380
f 382//382 381//381 379//379
f 382//382 379//379 380//380
f 384//384 383//383 385//385
f 384//384 385//385 386//386
f 388//388 390//390 389//389
f 388//388 389//389 387//387
f 391//391 390//390 388//388
f 391//391 388//388 392//392
f 393//393 391//391 392//392
f 393//393 392//392 394//394
f 396//396 395//395 393//393
f 396//396 393//393 394//394
f 398//398 397//397 399//399
f 398//398 399//399 400//400
f 402//402 404//404 403//403
f 402//402 403//403 401//401
f 405//405 404//404 402//402
f 405//405 402//402 406//406
f 407//407 405//405 406//406
f 407//407 406//406 408//408
f 410//410 409//409 407//407
f 410//410 407//407 408//408
f 412//412 414//414 413//413
f 412//412 413//413 411//411
f 415//415 414//414 412//412
f 415//415 412//412 416//416
f 417//417 415//415 416//416
f 417//417 416//416 418//418
f 419//419 417//417 418//418
f 419//419 418//418 420//420
f 421//421 419//419 420//420
f 421//421 420//420 422//422
f 423//423 421//421 422//422
f 423//423 422//422 424//424
f 425//425 423//423 424//424
f 425//425 424//424 426//426
f 428//428 427//427 425//425
f 428//428 425//425 426//426
f 430//430 429//429 431//431
f 430//430 431//431 432//432
f 433//433 434//434 432//432
f 433//433 432//432 431//431
f 436//436 435//435 437//437
f 436//436 437//437 438//438
f 440//440 439//439 441//441
f 440//440 441//441 442//442
f 444//444 443//443 445//445
f 444//444 445//445 446//446
f 445//445 447//447 446//446
f 448//448 447//447 445//445
f 447//447 449//449 446//446
f 451//451 450//450 452//452
f 451//451 452//452 453//453
f 455//455 457//457 456//456
f 455//455 456//456 454//454
f 458//458 457//457 455//455
f 458//458 455//455 460//460
f 459//459 458//458 460//460
f 459//459 460//460 461//461
f 462//462 463//463 459//459
f 462//462 459//459 461//461
f 465//465 467//467 466//466
f 465//465 466//466 464//464
f 468//468 467//467 465//465
f 468//468 465//465 469//469
f 470//470 468//468 469//469
f 470//470 469//469 471//471
f 472//472 470//470 471//471
f 472//472 471//471 473//473
f 474//474 472//472 473//473
f 474//474 473//473 476//476
f 477//477 475//475 474//474
f 477//477 474//474 476//476
f 479//479 478//478 480//480
f 481//481 479//479 480//480
f 483//483 481//481 480//480
f 483//483 480//480 482//482
f 485//485 483//483 482//482
f 485//485 482//482 484//484
f 486//486 487//487 485//485
f 486//486 485//485 484//484
f 479//479 481//481 488//488
f 490//490 489//489 491//491
f 490//490 491//491 492//492
f 493//493 495//495 494//494
f 496//496 495//495 493//493
f 493//493 497//497 496//496
f 497//497 493//493 498//498
f 498//498 499//499 497//497
f 499//499 498//498 500//500
f 500//500 501//501 499//499
f 501//501 500//500 502//502
f 505//505 501//501 502//502
f 505//505 502//502 503//503
f 504//504 505//505 503//503
f 505//505 504//504 506//506
f 506//506 507//507 501//501
f 506//506 501//501 505//505
f 507//507 506//506 509//509
f 506//506 508//508 509//509
f 506//506 504//504 508//508
f 509//509 510//510 499//499
f 509//509 499//499 507//507
f 511//511 514//514 510//510
f 511//511 510//510 509//509
f 511//511 509//509 508//508
f 511//511 508//508 512//512
f 511//511 512//512 513//513
f 513//513 515//515 514//514
f 513//513 514//514 511//511
f 514//514 497//497 510//510
f 516//516 514//514 515//515
f 497//497 514//514 516//516
f 518//518 496//496 516//516
f 496//496 497//497 516//516
f 516//516 517//517 518//518
f 517//517 516//516 515//515
f 496//496 518//518 522//522
f 520//520 518//518 519//519
f 518//518 517//517 519//519
f 518//518 520//520 521//521
f 522//522 518//518 521//521
f 522//522 523//523 496//496
f 523//523 522//522 524//524
f 524//524 525//525 523//523
f 525//525 524//524 526//526
f 526//526 527//527 529//529
f 526//526 529//529 525//525
f 527//527 528//528 529//529
f 530//530 529//529 528//528
f 525//525 529//529 530//530
f 525//525 530//530 532//532
f 530//530 531//531 532//532
f 530//530 533//533 531//531
f 530//530 528//528 535//535
f 530//530 535//535 533//533
f 531//531 533//533 534//534
f 534//534 533//533 536//536
f 534//534 536//536 537//537
f 533//533 535//535 536//536
f 537//537 536//536 538//538
f 537//537 538//538 539//539
f 538//538 536//536 535//535
f 494//494 537//537 539//539
f 495//495 537//537 494//494
f 537//537 495//495 534//534
f 540//540 531//531 534//534
f 540//540 534//534 495//495
f 523//523 532//532 531//531
f 523//523 531//531 540//540
f 523//523 525//525 532//532
f 495//495 496//496 540//540
f 496//496 523//523 540//540
f 521//521 520//520 541//541
f 541//541 543//543 542//542
f 520//520 543//543 541//541
f 550//550 542//542 543//543
f 550//550 543//543 544//544
f 544//544 543//543 545//545
f 544//544 545//545 547//547
f 543//543 520//520 545//545
f 547//547 545//545 546//546
f 545//545 520//520 519//519
f 545//545 519//519 546//546
f 549//549 544//544 547//547
f 548//548 547//547 546//546
f 548//548 508//508 547//547
f 508//508 549//549 547//547
f 544//544 549//549 550//550
f 551//551 508//508 548//548
f 548//548 552//552 553//553
f 548//548 553//553 551//551
f 548//548 546//546 552//552
f 546//546 519//519 517//517
f 546//546 517//517 552//552
f 517//517 553//553 552//552
f 515//515 553//553 517//517
f 553//553 515//515 513//513
f 551//551 553//553 513//513
f 551//551 513//513 512//512
f 551//551 512//512 508//508
f 497//497 499//499 510//510
f 499//499 501//501 507//507
f 555//555 557//557 556//556
f 555//555 556//556 554//554
f 557//557 559//559 558//558
f 557//557 558//558 556//556
f 559//559 557//557 560//560
f 562//562 561//561 560//560
f 562//562 560//560 557//557
f 561//561 562//562 564//564
f 561//561 564//564 563//563
f 567//567 565//565 563//563
f 567//567 563//563 564//564
f 568//568 566//566 565//565
f 568//568 565//565 567//567
f 571//571 568//568 567//567
f 571//571 567//567 569//569
f 569//569 567//567 564//564
f 569//569 564//564 570//570
f 570//570 564//564 562//562
f 570//570 562//562 572//572
f 557//557 573//573 572//572
f 557//557 572//572 562//562
f 573//573 557//557 555//555
f 575//575 577//577 574//574
f 574//574 576//576 575//575
f 577//577 579//579 578//578
f 580//580 579//579 577//577
f 575//575 580//580 577//577
f 581//581 580//580 575//575
f 575//575 582//582 581//581
f 582//582 575//575 583//583
f 575//575 584//584 583//583
f 584//584 586//586 585//585
f 584//584 587//587 586//586
f 584//584 588//588 587//587
f 575//575 588//588 584//584
f 588//588 589//589 593//593
f 588//588 590//590 589//589
f 590//590 588//588 591//591
f 588//588 592//592 591//591
f 587//587 588//588 593//593
f 595//595 594//594 593//593
f 593//593 594//594 596//596
f 589//589 595//595 593//593
f 594//594 598//598 596//596
f 597//597 596//596 598//598
f 598//598 599//599 597//597
f 600//600 601//601 599//599
f 602//602 599//599 601//601
f 602//602 597//597 599//599
f 601//601 600//600 603//603
f 604//604 603//603 605//605
f 600//600 605//605 603//603
f 606//606 607//607 605//605
f 604//604 605//605 607//607
f 606//606 608//608 607//607
f 608//608 606//606 609//609
f 611//611 610//610 609//609
f 609//609 606//606 611//611
f 611//611 612//612 613//613
f 613//613 616//616 611//611
f 610//610 611//611 614//614
f 611//611 615//615 614//614
f 615//615 611//611 617//617
f 616//616 617//617 611//611
f 613//613 618//618 616//616
f 618//618 613//613 619//619
f 619//619 613//613 620//620
f 613//613 621//621 620//620
f 621//621 622//622 620//620
f 623//623 624//624 622//622
f 622//622 621//621 623//623
f 624//624 625//625 627//627
f 625//625 624//624 623//623
f 627//627 626//626 624//624
f 628//628 626//626 627//627
f 627//627 625//625 629//629
f 632//632 630//630 629//629
f 625//625 631//631 629//629
f 634//634 629//629 631//631
f 632//632 629//629 633//633
f 634//634 633//633 629//629
f 630//630 632//632 635//635
f 636//636 635//635 632//632
f 636//636 638//638 637//637
f 636//636 637//637 640//640
f 638//638 636//636 639//639
f 636//636 640//640 635//635
f 638//638 639//639 641//641
f 641//641 639//639 642//642
f 639//639 643//643 642//642
f 643//643 639//639 644//644
f 644//644 645//645 646//646
f 646//646 643//643 644//644
f 646//646 645//645 647//647
f 647//647 649//649 648//648
f 647//647 645//645 649//649
f 649//649 650//650 648//648
f 650//650 649//649 651//651
f 650//650 651//651 652//652
f 650//650 652//652 653//653
f 650//650 653//653 654//654
f 654//654 612//612 650//650
f 655//655 612//612 654//654
f 656//656 612//612 655//655
f 656//656 613//613 612//612
f 650//650 657//657 648//648
f 657//657 650//650 658//658
f 650//650 659//659 658//658
f 658//658 659//659 660//660
f 661//661 658//658 660//660
f 662//662 658//658 661//661
f 662//662 663//663 658//658
f 667//667 657//657 664//664
f 657//657 665//665 648//648
f 665//665 657//657 666//666
f 666//666 657//657 667//667
f 667//667 668//668 666//666
f 669//669 666//666 668//668
f 668//668 670//670 669//669
f 670//670 668//668 671//671
f 674//674 642//642 672//672
f 642//642 673//673 641//641
f 673//673 642//642 674//674
f 672//672 675//675 674//674
f 672//672 676//676 675//675
f 677//677 676//676 672//672
f 678//678 677//677 672//672
f 680//680 679//679 678//678
f 678//678 672//672 681//681
f 681//681 680//680 678//678
f 681//681 682//682 683//683
f 681//681 672//672 682//682
f 682//682 684//684 683//683
f 684//684 685//685 683//683
f 683//683 685//685 687//687
f 686//686 683//683 687//687
f 688//688 684//684 682//682
f 689//689 688//688 690//690
f 690//690 688//688 691//691
f 691//691 688//688 682//682
f 690//690 692//692 689//689
f 692//692 690//690 693//693
f 680//680 694//694 679//679
f 696//696 694//694 695//695
f 694//694 696//696 679//679
f 697//697 696//696 695//695
f 697//697 695//695 700//700
f 698//698 697//697 699//699
f 700//700 699//699 697//697
f 700//700 695//695 578//578
f 578//578 579//579 700//700
f 699//699 626//626 628//628
f 628//628 698//698 699//699
f 706//706 615//615 701//701
f 614//614 615//615 702//702
f 615//615 703//703 702//702
f 703//703 615//615 704//704
f 705//705 704//704 615//615
f 705//705 615//615 706//706
f 707//707 706//706 701//701
f 710//710 707//707 708//708
f 707//707 709//709 708//708
f 707//707 701//701 709//709
f 712//712 710//710 711//711
f 708//708 711//711 710//710
f 711//711 585//585 712//712
f 712//712 585//585 586//586
f 576//576 713//713 575//575
f 713//713 714//714 575//575
f 715//715 575//575 714//714
f 715//715 716//716 575//575
