# arm_22 exported from /models/landings/arm_22.glb
# units: meters
v 0.014090 0.001000 0.022267
v 0.014090 0.001000 0.013559
v 0.004784 0.001000 0.015605
v 0.014013 0.001000 0.022820
v 0.013772 0.001000 0.023350
v 0.012919 0.001000 0.024088
v 0.013389 0.001000 0.023788
v -0.048607 0.001000 0.052075
v 0.002953 0.001000 0.017043
v -0.015684 0.001000 0.031419
v -0.013277 0.001000 0.029123
v -0.010967 0.001000 0.025417
v 0.000929 0.001000 0.017857
v -0.000810 0.001000 0.018041
v -0.002190 0.001000 0.017752
v -0.003235 0.001000 0.017148
v -0.003952 0.001000 0.016242
v -0.008650 0.001000 0.016992
v -0.008516 0.001000 0.016051
v -0.004550 0.001000 0.013756
v -0.008541 0.001000 0.015876
v -0.008621 0.001000 0.015710
v -0.008749 0.001000 0.015576
v -0.008904 0.001000 0.015492
v -0.004543 0.001000 0.011108
v -0.013195 0.001000 0.013409
v -0.004120 0.001000 0.007254
v -0.009076 0.001000 0.015457
v -0.009260 0.001000 0.015477
v -0.009429 0.001000 0.015553
v -0.009560 0.001000 0.015671
v -0.021571 0.001000 0.026926
v -0.023539 0.001000 0.024012
v -0.033876 0.001000 0.032886
v -0.038737 0.001000 0.031617
v -0.042649 0.001000 0.039076
v -0.049438 0.001000 0.040079
v -0.045734 0.001000 0.042334
v -0.046482 0.001000 0.044008
v -0.046548 0.001000 0.044861
v -0.051890 0.001000 0.044133
v -0.052001 0.001000 0.044792
v -0.046367 0.001000 0.045727
v -0.052001 0.001000 0.049255
v -0.049435 0.001000 0.052254
v -0.050002 0.001000 0.052254
v -0.050738 0.001000 0.052114
v -0.052001 0.001000 0.050255
v -0.051416 0.001000 0.051669
v -0.051861 0.001000 0.050991
v -0.003368 0.001000 0.001472
v -0.007848 0.001000 -0.000050
v -0.005188 0.001000 -0.014150
v -0.001422 0.001000 -0.007016
v 0.000180 0.001000 -0.011000
v 0.001097 0.001000 -0.012226
v 0.002505 0.001000 -0.018358
v 0.001574 0.001000 -0.012525
v 0.001816 0.001000 -0.012581
v 0.002059 0.001000 -0.012568
v 0.005254 0.001000 -0.014486
v 0.002548 0.001000 -0.012332
v 0.003983 0.001000 -0.010197
v 0.009238 0.001000 -0.009225
v 0.005969 0.001000 -0.013972
v 0.006639 0.001000 -0.013725
v 0.005580 0.001000 -0.005218
v 0.009771 0.001000 -0.001220
v 0.006954 0.001000 0.005455
v 0.011519 0.001000 0.004882
v 0.006643 0.001000 0.011365
v 0.013129 0.001000 0.006460
v 0.014594 0.001000 0.012692
v 0.013976 0.001000 0.006820
v 0.015553 0.001000 0.011893
v 0.014739 0.001000 0.006880
v 0.016786 0.001000 0.011368
v 0.015352 0.001000 0.006637
v 0.015810 0.001000 0.006106
v 0.019704 0.001000 0.006196
v 0.016306 0.001000 0.004277
v 0.017992 0.001000 0.011203
v 0.021704 0.001000 0.006196
v 0.025464 0.001000 0.011203
v 0.026331 0.001000 0.011038
v 0.027820 0.001000 0.008847
v 0.027820 0.001000 -0.034126
v 0.027130 0.001000 0.010513
v 0.027654 0.001000 0.009714
v 0.021704 0.001000 -0.036482
v 0.025464 0.001000 -0.036482
v 0.026331 0.001000 -0.036316
v 0.027130 0.001000 -0.035792
v 0.027654 0.001000 -0.034993
v 0.015979 0.001000 -0.001484
v 0.014553 0.001000 -0.007975
v 0.012337 0.001000 -0.013858
v 0.019704 0.001000 -0.036482
v 0.011693 0.001000 -0.014670
v 0.013470 0.001000 -0.036482
v 0.012603 0.001000 -0.036647
v 0.006646 0.001000 -0.023266
v 0.011059 0.001000 -0.015092
v 0.005676 0.001000 -0.025592
v 0.007913 0.001000 -0.017841
v 0.007938 0.001000 -0.014686
v 0.009993 0.001000 -0.014676
v 0.010221 0.001000 -0.014944
v 0.010478 0.001000 -0.015101
v 0.010759 0.001000 -0.015149
v 0.009404 0.001000 -0.012569
v 0.007663 0.001000 -0.014075
v 0.007461 0.001000 -0.013878
v 0.007219 0.001000 -0.013755
v 0.011804 0.001000 -0.037172
v 0.004344 0.001000 -0.027317
v 0.002595 0.001000 -0.028292
v 0.011279 0.001000 -0.037971
v 0.004029 0.001000 -0.042928
v 0.011114 0.001000 -0.038838
v 0.011114 0.001000 -0.047469
v 0.011030 0.001000 -0.048093
v 0.010771 0.001000 -0.048693
v 0.010358 0.001000 -0.049198
v 0.009843 0.001000 -0.049560
v 0.006953 0.001000 -0.050373
v 0.004064 0.001000 -0.049947
v 0.002029 0.001000 -0.042928
v 0.000953 0.001000 -0.028477
v 0.000365 0.001000 -0.028272
v -0.005449 0.001000 -0.029907
v -0.000936 0.001000 -0.049947
v 0.002064 0.001000 -0.049947
v -0.005432 0.001000 -0.042393
v -0.004256 0.001000 -0.046805
v -0.002951 0.001000 -0.048535
v -0.000042 0.001000 -0.027881
v -0.000282 0.001000 -0.027320
v -0.000368 0.001000 -0.026603
v 0.000489 0.001000 -0.022695
v 0.007663 0.001000 -0.014075
v 0.007663 -0.001000 -0.014075
v 0.008064 0.001000 -0.015914
v 0.008064 -0.001000 -0.015914
v 0.007913 0.001000 -0.017841
v 0.007913 -0.001000 -0.017841
v 0.007582 0.001000 -0.019756
v 0.007582 -0.001000 -0.019756
v 0.007130 0.001000 -0.021652
v 0.007130 -0.001000 -0.021652
v 0.006573 0.001000 -0.023480
v 0.006573 -0.001000 -0.023480
v 0.005825 0.001000 -0.025306
v 0.005825 -0.001000 -0.025306
v 0.004764 0.001000 -0.026906
v 0.004764 -0.001000 -0.026906
v 0.003283 0.001000 -0.028013
v 0.003283 -0.001000 -0.028013
v 0.001329 0.001000 -0.028505
v 0.001329 -0.001000 -0.028505
v -0.000146 0.001000 -0.027699
v -0.000146 -0.001000 -0.027699
v -0.000313 0.001000 -0.025738
v -0.000313 -0.001000 -0.025738
v 0.000091 0.001000 -0.023905
v 0.000091 -0.001000 -0.023905
v 0.000743 0.001000 -0.022027
v 0.000743 -0.001000 -0.022027
v 0.001507 0.001000 -0.020286
v 0.001507 -0.001000 -0.020286
v 0.002400 0.001000 -0.018549
v 0.002400 -0.001000 -0.018549
v 0.003330 0.001000 -0.016948
v 0.003330 -0.001000 -0.016948
v 0.004438 0.001000 -0.015360
v 0.004438 -0.001000 -0.015360
v 0.005924 0.001000 -0.013998
v 0.005924 -0.001000 -0.013998
v 0.007663 0.001000 -0.014075
v 0.007663 -0.001000 -0.014075
v -0.004550 0.001000 0.013756
v -0.004550 -0.001000 0.013756
v -0.003546 0.001000 0.016840
v -0.003546 -0.001000 0.016840
v -0.000843 0.001000 0.018039
v -0.000843 -0.001000 0.018039
v 0.002317 0.001000 0.017365
v 0.002317 -0.001000 0.017365
v 0.004784 0.001000 0.015605
v 0.004784 -0.001000 0.015605
v 0.006319 0.001000 0.012664
v 0.006319 -0.001000 0.012664
v 0.006912 0.001000 0.009596
v 0.006912 -0.001000 0.009596
v 0.006992 0.001000 0.006530
v 0.006992 -0.001000 0.006530
v 0.006810 0.001000 0.003162
v 0.006810 -0.001000 0.003162
v 0.006493 0.001000 0.000044
v 0.006493 -0.001000 0.000044
v 0.006003 0.001000 -0.003170
v 0.006003 -0.001000 -0.003170
v 0.005298 0.001000 -0.006357
v 0.005298 -0.001000 -0.006357
v 0.004323 0.001000 -0.009392
v 0.004323 -0.001000 -0.009392
v 0.002704 0.001000 -0.012201
v 0.002704 -0.001000 -0.012201
v 0.000304 0.001000 -0.011213
v 0.000304 -0.001000 -0.011213
v -0.001002 0.001000 -0.008274
v -0.001002 -0.001000 -0.008274
v -0.001950 0.001000 -0.005208
v -0.001950 -0.001000 -0.005208
v -0.002726 0.001000 -0.001971
v -0.002726 -0.001000 -0.001971
v -0.003305 0.001000 0.001088
v -0.003305 -0.001000 0.001088
v -0.003777 0.001000 0.004291
v -0.003777 -0.001000 0.004291
v -0.004120 0.001000 0.007254
v -0.004120 -0.001000 0.007254
v -0.004500 0.001000 0.010626
v -0.004500 -0.001000 0.010626
v -0.004550 0.001000 0.013756
v -0.004550 -0.001000 0.013756
v -0.008516 0.001000 0.016051
v -0.008516 -0.000000 0.016051
v -0.008542 0.001000 0.015873
v -0.008542 -0.000000 0.015873
v -0.008623 0.001000 0.015707
v -0.008623 -0.000000 0.015707
v -0.008750 0.001000 0.015575
v -0.008750 -0.000000 0.015575
v -0.008904 0.001000 0.015492
v -0.008904 -0.000000 0.015492
v -0.009080 0.001000 0.015457
v -0.009080 -0.000000 0.015457
v -0.009263 0.001000 0.015478
v -0.009263 -0.000000 0.015478
v -0.009430 0.001000 0.015554
v -0.009430 -0.000000 0.015554
v -0.009560 0.001000 0.015671
v -0.009560 0.000333 0.015671
v -0.009560 -0.000333 0.015671
v -0.009560 -0.001000 0.015671
v -0.009430 -0.001000 0.015554
v -0.009263 -0.001000 0.015478
v -0.009080 -0.001000 0.015457
v -0.008904 -0.001000 0.015492
v -0.008750 -0.001000 0.015575
v -0.008623 -0.001000 0.015707
v -0.008542 -0.001000 0.015873
v -0.008516 -0.001000 0.016051
v -0.009560 0.001000 0.015671
v -0.010733 0.001000 0.017291
v -0.009560 0.000333 0.015671
v -0.009560 -0.000333 0.015671
v -0.010733 0.000500 0.017291
v -0.010733 -0.000000 0.017291
v -0.011868 -0.000000 0.018747
v -0.010733 -0.000500 0.017291
v -0.011868 -0.000500 0.018747
v -0.010733 -0.001000 0.017291
v -0.009560 -0.001000 0.015671
v -0.011868 -0.001000 0.018747
v -0.014044 -0.001000 0.021222
v -0.014044 -0.000000 0.021222
v -0.019558 -0.001000 0.025742
v -0.025515 -0.001000 0.028926
v -0.019558 0.001000 0.025742
v -0.014044 0.001000 0.021222
v -0.025515 0.001000 0.028926
v -0.032017 0.001000 0.031945
v -0.032017 -0.001000 0.031945
v -0.038045 0.001000 0.035427
v -0.038045 -0.001000 0.035427
v -0.043453 0.001000 0.039802
v -0.043453 -0.001000 0.039802
v -0.046367 0.001000 0.045727
v -0.046367 -0.001000 0.045727
v -0.011868 0.000500 0.018747
v -0.011868 0.001000 0.018747
v -0.046367 0.001000 0.045727
v -0.046367 -0.001000 0.045727
v -0.015684 0.001000 0.031419
v -0.015684 -0.001000 0.031419
v -0.015684 0.001000 0.031419
v -0.012050 0.001000 0.027381
v -0.015684 -0.001000 0.031419
v -0.012050 -0.001000 0.027381
v -0.009740 -0.001000 0.022397
v -0.009740 0.001000 0.022397
v -0.008650 -0.001000 0.016992
v -0.008650 0.001000 0.016992
v -0.008650 0.001000 0.016992
v -0.008650 -0.001000 0.016992
v -0.008583 0.001000 0.016521
v -0.008583 -0.001000 0.016521
v -0.008516 0.001000 0.016051
v -0.008516 -0.000000 0.016051
v -0.008516 -0.001000 0.016051
v 0.009993 0.001000 -0.014676
v 0.009993 -0.001000 -0.014676
v 0.009364 0.001000 -0.012223
v 0.009364 -0.001000 -0.012223
v 0.009240 0.001000 -0.009660
v 0.009240 -0.001000 -0.009660
v 0.009282 0.001000 -0.007045
v 0.009282 -0.001000 -0.007045
v 0.009435 0.001000 -0.004435
v 0.009435 -0.001000 -0.004435
v 0.009688 0.001000 -0.001871
v 0.009688 -0.001000 -0.001871
v 0.010068 0.001000 0.000668
v 0.010068 -0.001000 0.000668
v 0.010703 0.001000 0.003161
v 0.010703 -0.001000 0.003161
v 0.011922 0.001000 0.005425
v 0.011922 -0.001000 0.005425
v 0.014136 0.001000 0.006856
v 0.014136 -0.001000 0.006856
v 0.016004 0.001000 0.005690
v 0.016004 -0.001000 0.005690
v 0.016367 0.001000 0.003144
v 0.016367 -0.001000 0.003144
v 0.016244 0.001000 0.000630
v 0.016244 -0.001000 0.000630
v 0.015896 0.001000 -0.002007
v 0.015896 -0.001000 -0.002007
v 0.015414 0.001000 -0.004518
v 0.015414 -0.001000 -0.004518
v 0.014809 0.001000 -0.007026
v 0.014809 -0.001000 -0.007026
v 0.014099 0.001000 -0.009535
v 0.014099 -0.001000 -0.009535
v 0.013255 0.001000 -0.011977
v 0.013255 -0.001000 -0.011977
v 0.012051 0.001000 -0.014268
v 0.012051 -0.001000 -0.014268
v 0.009993 0.001000 -0.014676
v 0.009993 -0.001000 -0.014676
v 0.002064 -0.001000 -0.049947
v -0.000936 -0.001000 -0.049947
v 0.002064 0.001000 -0.049947
v -0.000936 0.001000 -0.049947
v 0.013470 0.001000 -0.036482
v 0.013470 -0.001000 -0.036482
v 0.019704 0.001000 -0.036482
v 0.019704 -0.001000 -0.036482
v 0.019704 0.001000 -0.036482
v 0.019704 -0.001000 -0.036482
v 0.019704 0.001000 0.006196
v 0.019704 -0.001000 0.006196
v 0.019704 0.001000 0.006196
v 0.019704 -0.001000 0.006196
v 0.021704 0.001000 0.006196
v 0.021704 -0.001000 0.006196
v 0.021704 0.001000 0.006196
v 0.021704 -0.001000 0.006196
v 0.021704 0.001000 -0.036482
v 0.021704 -0.001000 -0.036482
v 0.021704 0.001000 -0.036482
v 0.021704 -0.001000 -0.036482
v 0.025464 0.001000 -0.036482
v 0.025464 -0.001000 -0.036482
v 0.025464 0.001000 -0.036482
v 0.026359 0.001000 -0.036305
v 0.025464 -0.001000 -0.036482
v 0.026359 -0.001000 -0.036305
v 0.027147 -0.001000 -0.035774
v 0.027659 -0.001000 -0.034982
v 0.027147 0.001000 -0.035774
v 0.027659 0.001000 -0.034982
v 0.027820 0.001000 -0.034126
v 0.027820 -0.001000 -0.034126
v 0.027820 0.001000 -0.034126
v 0.027820 -0.001000 -0.034126
v 0.027820 0.001000 0.008847
v 0.027820 -0.001000 0.008847
v 0.027820 0.001000 0.008847
v 0.027643 0.001000 0.009742
v 0.027820 -0.001000 0.008847
v 0.027643 -0.001000 0.009742
v 0.027112 -0.001000 0.010530
v 0.027112 0.001000 0.010530
v 0.026320 -0.001000 0.011042
v 0.025464 -0.001000 0.011203
v 0.026320 0.001000 0.011042
v 0.025464 0.001000 0.011203
v 0.025464 0.001000 0.011203
v 0.025464 -0.001000 0.011203
v 0.017992 0.001000 0.011203
v 0.017992 -0.001000 0.011203
v 0.017992 0.001000 0.011203
v 0.016814 0.001000 0.011361
v 0.017992 -0.001000 0.011203
v 0.016814 -0.001000 0.011361
v 0.015683 -0.001000 0.011818
v 0.015683 0.001000 0.011818
v 0.014721 -0.001000 0.012552
v 0.014721 0.001000 0.012552
v 0.014090 -0.001000 0.013559
v 0.014090 0.001000 0.013559
v 0.002064 0.001000 -0.049947
v 0.002064 -0.001000 -0.049947
v 0.002029 0.001000 -0.042928
v 0.002029 -0.001000 -0.042928
v 0.002029 0.001000 -0.042928
v 0.002029 -0.001000 -0.042928
v 0.004029 0.001000 -0.042928
v 0.004029 -0.001000 -0.042928
v 0.004029 0.001000 -0.042928
v 0.004029 -0.001000 -0.042928
v 0.004046 0.001000 -0.046437
v 0.004046 -0.001000 -0.046437
v 0.004064 0.001000 -0.049947
v 0.004064 -0.001000 -0.049947
v 0.004064 0.001000 -0.049947
v 0.004064 -0.001000 -0.049947
v 0.006958 0.001000 -0.050373
v 0.006958 -0.001000 -0.050373
v 0.009843 -0.000000 -0.049560
v 0.009843 0.001000 -0.049560
v 0.009843 -0.001000 -0.049560
v 0.011114 0.001000 -0.047469
v 0.011114 -0.001000 -0.047469
v 0.011114 0.001000 -0.038838
v 0.011114 -0.001000 -0.038838
v 0.011114 0.001000 -0.038838
v 0.011290 0.001000 -0.037943
v 0.011114 -0.001000 -0.038838
v 0.011290 -0.001000 -0.037943
v 0.011821 -0.001000 -0.037155
v 0.011821 0.001000 -0.037155
v 0.012614 -0.001000 -0.036643
v 0.012614 0.001000 -0.036643
v 0.013470 -0.001000 -0.036482
v 0.013470 0.001000 -0.036482
v 0.009843 0.001000 -0.049560
v 0.009843 -0.000000 -0.049560
v 0.010365 0.001000 -0.049192
v 0.010365 -0.001000 -0.049192
v 0.010775 0.001000 -0.048686
v 0.010775 -0.001000 -0.048686
v 0.011031 0.001000 -0.048089
v 0.011031 -0.001000 -0.048089
v 0.011114 0.001000 -0.047469
v 0.011114 -0.001000 -0.047469
v 0.009843 -0.001000 -0.049560
v 0.014090 0.001000 0.013559
v 0.014090 0.001000 0.022267
v 0.014090 -0.001000 0.013559
v 0.014090 -0.001000 0.022267
v 0.012919 -0.001000 0.024088
v 0.009049 -0.000500 0.025848
v 0.012919 0.001000 0.024088
v 0.009049 -0.000750 0.025848
v 0.009049 -0.001000 0.025848
v 0.005179 -0.001000 0.027609
v 0.005179 -0.000750 0.027609
v -0.002561 -0.001000 0.031129
v -0.002561 -0.000500 0.031129
v -0.018042 -0.001000 0.038171
v -0.018042 -0.000000 0.038171
v -0.033522 -0.000500 0.045213
v -0.033522 -0.001000 0.045213
v -0.041262 -0.000750 0.048734
v -0.041262 -0.001000 0.048734
v -0.045132 -0.001000 0.050494
v -0.045132 -0.000750 0.050494
v -0.048607 -0.001000 0.052075
v -0.048607 0.001000 0.052075
v -0.045132 -0.000500 0.050494
v -0.045132 0.000500 0.050494
v -0.041262 -0.000000 0.048734
v -0.041262 -0.000500 0.048734
v -0.033522 -0.000000 0.045213
v -0.041262 0.000500 0.048734
v -0.033522 0.000500 0.045213
v -0.041262 0.000750 0.048734
v -0.045132 0.000750 0.050494
v -0.033522 0.001000 0.045213
v -0.041262 0.001000 0.048734
v -0.045132 0.001000 0.050494
v -0.018042 0.001000 0.038171
v -0.002561 0.000500 0.031129
v -0.002561 0.001000 0.031129
v 0.005179 0.000750 0.027609
v 0.005179 0.001000 0.027609
v 0.009049 0.001000 0.025848
v 0.009049 0.000750 0.025848
v 0.009049 0.000500 0.025848
v 0.005179 0.000500 0.027609
v 0.005179 -0.000000 0.027609
v 0.005179 -0.000500 0.027609
v -0.002561 -0.000000 0.031129
v -0.051890 0.001000 0.044133
v -0.050917 0.000500 0.042117
v -0.050917 0.001000 0.042117
v -0.051890 -0.000000 0.044133
v -0.051890 -0.001000 0.044133
v -0.050917 -0.000500 0.042117
v -0.050917 -0.000000 0.042117
v -0.049482 -0.000000 0.040131
v -0.045416 -0.000000 0.036104
v -0.049482 -0.000500 0.040131
v -0.049482 0.000500 0.040131
v -0.049482 0.001000 0.040131
v -0.045416 0.001000 0.036104
v -0.036304 0.001000 0.030364
v -0.036304 -0.001000 0.030364
v -0.026602 0.001000 0.025747
v -0.026602 -0.001000 0.025747
v -0.018013 0.001000 0.019649
v -0.018013 -0.001000 0.019649
v -0.011929 0.001000 0.011066
v -0.011929 -0.001000 0.011066
v -0.008187 0.001000 0.001119
v -0.008187 -0.001000 0.001119
v -0.005760 0.001000 -0.009096
v -0.005760 -0.001000 -0.009096
v -0.005058 0.001000 -0.019796
v -0.005058 -0.001000 -0.019796
v -0.005490 0.001000 -0.030791
v -0.005490 -0.001000 -0.030791
v -0.005544 -0.000000 -0.041176
v -0.005544 0.001000 -0.041176
v -0.004478 0.001000 -0.046354
v -0.000936 0.001000 -0.049947
v -0.004478 -0.000000 -0.046354
v -0.000936 -0.001000 -0.049947
v -0.004478 -0.001000 -0.046354
v -0.005544 -0.001000 -0.041176
v -0.045416 -0.001000 0.036104
v -0.049482 -0.001000 0.040131
v -0.050917 -0.001000 0.042117
v 0.012919 -0.001000 0.024088
v 0.013389 -0.001000 0.023788
v 0.012919 0.001000 0.024088
v 0.013389 0.001000 0.023788
v 0.013772 0.001000 0.023350
v 0.014013 0.001000 0.022820
v 0.013772 -0.001000 0.023350
v 0.014013 -0.001000 0.022820
v 0.014090 -0.001000 0.022267
v 0.014090 0.001000 0.022267
v 0.012919 -0.001000 0.024088
v -0.010967 -0.001000 0.025417
v -0.013277 -0.001000 0.029123
v 0.000929 -0.001000 0.017857
v -0.015684 -0.001000 0.031419
v 0.002953 -0.001000 0.017043
v -0.048607 -0.001000 0.052075
v 0.004784 -0.001000 0.015605
v 0.013389 -0.001000 0.023788
v 0.014090 -0.001000 0.022267
v 0.014090 -0.001000 0.013559
v 0.014013 -0.001000 0.022820
v 0.013772 -0.001000 0.023350
v 0.014594 -0.001000 0.012692
v 0.006643 -0.001000 0.011365
v 0.013129 -0.001000 0.006460
v 0.011519 -0.001000 0.004882
v 0.013976 -0.001000 0.006820
v 0.014739 -0.001000 0.006880
v 0.015553 -0.001000 0.011893
v 0.016786 -0.001000 0.011368
v 0.017992 -0.001000 0.011203
v 0.015352 -0.001000 0.006637
v 0.015810 -0.001000 0.006106
v 0.019704 -0.001000 0.006196
v 0.016306 -0.001000 0.004277
v 0.015979 -0.001000 -0.001484
v 0.014553 -0.001000 -0.007975
v 0.012337 -0.001000 -0.013858
v 0.019704 -0.001000 -0.036482
v 0.013470 -0.001000 -0.036482
v 0.011693 -0.001000 -0.014670
v 0.006646 -0.001000 -0.023266
v 0.011059 -0.001000 -0.015092
v 0.007913 -0.001000 -0.017841
v 0.010759 -0.001000 -0.015149
v 0.010478 -0.001000 -0.015101
v 0.010221 -0.001000 -0.014944
v 0.009993 -0.001000 -0.014676
v 0.007938 -0.001000 -0.014686
v 0.009404 -0.001000 -0.012569
v 0.007663 -0.001000 -0.014075
v 0.007461 -0.001000 -0.013878
v 0.007219 -0.001000 -0.013755
v 0.009238 -0.001000 -0.009225
v 0.005580 -0.001000 -0.005218
v 0.003983 -0.001000 -0.010197
v 0.006639 -0.001000 -0.013725
v 0.009771 -0.001000 -0.001220
v 0.006954 -0.001000 0.005455
v 0.005969 -0.001000 -0.013972
v 0.005254 -0.001000 -0.014486
v 0.002505 -0.001000 -0.018358
v 0.002548 -0.001000 -0.012332
v 0.002059 -0.001000 -0.012568
v 0.001816 -0.001000 -0.012581
v 0.001574 -0.001000 -0.012525
v 0.001097 -0.001000 -0.012226
v -0.005188 -0.001000 -0.014150
v 0.000180 -0.001000 -0.011000
v -0.001422 -0.001000 -0.007016
v -0.007848 -0.001000 -0.000050
v -0.003368 -0.001000 0.001472
v -0.004120 -0.001000 0.007254
v -0.013195 -0.001000 0.013409
v -0.004543 -0.001000 0.011108
v -0.008749 -0.001000 0.015576
v -0.008904 -0.001000 0.015492
v -0.004550 -0.001000 0.013756
v -0.009076 -0.001000 0.015457
v -0.009260 -0.001000 0.015477
v -0.009429 -0.001000 0.015553
v -0.009560 -0.001000 0.015671
v -0.021571 -0.001000 0.026926
v -0.033876 -0.001000 0.032886
v -0.023539 -0.001000 0.024012
v -0.038737 -0.001000 0.031617
v -0.049438 -0.001000 0.040079
v -0.042649 -0.001000 0.039076
v -0.045734 -0.001000 0.042334
v -0.046482 -0.001000 0.044008
v -0.051890 -0.001000 0.044133
v -0.046548 -0.001000 0.044861
v -0.052001 -0.001000 0.044792
v -0.046367 -0.001000 0.045727
v -0.052001 -0.001000 0.049255
v -0.052001 -0.001000 0.050255
v -0.049435 -0.001000 0.052254
v -0.050002 -0.001000 0.052254
v -0.050738 -0.001000 0.052114
v -0.051416 -0.001000 0.051669
v -0.051861 -0.001000 0.050991
v -0.008516 -0.001000 0.016051
v -0.008541 -0.001000 0.015876
v -0.008621 -0.001000 0.015710
v -0.003952 -0.001000 0.016242
v -0.008650 -0.001000 0.016992
v -0.003235 -0.001000 0.017148
v -0.002190 -0.001000 0.017752
v -0.000810 -0.001000 0.018041
v -0.005449 -0.001000 -0.029907
v 0.000489 -0.001000 -0.022695
v -0.000368 -0.001000 -0.026603
v -0.000282 -0.001000 -0.027320
v -0.000042 -0.001000 -0.027881
v 0.000365 -0.001000 -0.028272
v 0.002029 -0.001000 -0.042928
v 0.000953 -0.001000 -0.028477
v 0.002595 -0.001000 -0.028292
v 0.004344 -0.001000 -0.027317
v 0.004029 -0.001000 -0.042928
v 0.011279 -0.001000 -0.037971
v 0.011114 -0.001000 -0.038838
v 0.011804 -0.001000 -0.037172
v 0.005676 -0.001000 -0.025592
v 0.012603 -0.001000 -0.036647
v 0.011114 -0.001000 -0.047469
v 0.011030 -0.001000 -0.048093
v 0.006953 -0.001000 -0.050373
v 0.009843 -0.001000 -0.049560
v 0.010358 -0.001000 -0.049198
v 0.010771 -0.001000 -0.048693
v 0.004064 -0.001000 -0.049947
v 0.002064 -0.001000 -0.049947
v -0.005432 -0.001000 -0.042393
v -0.004256 -0.001000 -0.046805
v -0.002951 -0.001000 -0.048535
v -0.000936 -0.001000 -0.049947
v 0.021704 -0.001000 0.006196
v 0.027820 -0.001000 0.008847
v 0.021704 -0.001000 -0.036482
v 0.025464 -0.001000 0.011203
v 0.026331 -0.001000 0.011038
v 0.027130 -0.001000 0.010513
v 0.027654 -0.001000 0.009714
v 0.027820 -0.001000 -0.034126
v 0.025464 -0.001000 -0.036482
v 0.026331 -0.001000 -0.036316
v 0.027130 -0.001000 -0.035792
v 0.027654 -0.001000 -0.034993
vn 0.000000 1.000000 0.000000
vn 0.000000 1.000000 0.000000
vn 0.000000 1.000000 0.000000
vn 0.000000 1.000000 0.000000
vn 0.000000 1.000000 0.000000
vn 0.000000 1.000000 0.000000
vn 0.000000 1.000000 0.000000
vn 0.000000 1.000000 0.000000
vn 0.000000 1.000000 0.000000
vn 0.000000 1.000000 0.000000
vn 0.000000 1.000000 0.000000
vn 0.000000 1.000000 0.000000
vn 0.000000 1.000000 0.000000
vn 0.000000 1.000000 0.000000
vn 0.000000 1.000000 0.000000
vn 0.000000 1.000000 0.000000
vn 0.000000 1.000000 0.000000
vn 0.000000 1.000000 0.000000
vn 0.000000 1.000000 0.000000
vn 0.000000 1.000000 0.000000
vn 0.000000 1.000000 0.000000
vn 0.000000 1.000000 0.000000
vn 0.000000 1.000000 0.000000
vn 0.000000 1.000000 0.000000
vn 0.000000 1.000000 0.000000
vn 0.000000 1.000000 0.000000
vn 0.000000 1.000000 0.000000
vn 0.000000 1.000000 0.000000
vn 0.000000 1.000000 0.000000
vn 0.000000 1.000000 0.000000
vn 0.000000 1.000000 0.000000
vn 0.000000 1.000000 0.000000
vn 0.000000 1.000000 0.000000
vn 0.000000 1.000000 0.000000
vn 0.000000 1.000000 0.000000
vn 0.000000 1.000000 0.000000
vn 0.000000 1.000000 0.000000
vn 0.000000 1.000000 0.000000
vn 0.000000 1.000000 0.000000
vn 0.000000 1.000000 0.000000
vn 0.000000 1.000000 0.000000
vn 0.000000 1.000000 0.000000
vn 0.000000 1.000000 0.000000
vn 0.000000 1.000000 0.000000
vn 0.000000 1.000000 0.000000
vn 0.000000 1.000000 0.000000
vn 0.000000 1.000000 0.000000
vn 0.000000 1.000000 0.000000
vn 0.000000 1.000000 0.000000
vn 0.000000 1.000000 0.000000
vn 0.000000 1.000000 0.000000
vn 0.000000 1.000000 0.000000
vn 0.000000 1.000000 0.000000
vn 0.000000 1.000000 0.000000
vn 0.000000 1.000000 0.000000
vn 0.000000 1.000000 0.000000
vn 0.000000 1.000000 0.000000
vn 0.000000 1.000000 0.000000
vn 0.000000 1.000000 0.000000
vn 0.000000 1.000000 0.000000
vn 0.000000 1.000000 0.000000
vn 0.000000 1.000000 0.000000
vn 0.000000 1.000000 0.000000
vn 0.000000 1.000000 0.000000
vn 0.000000 1.000000 0.000000
vn 0.000000 1.000000 0.000000
vn 0.000000 1.000000 0.000000
vn 0.000000 1.000000 0.000000
vn 0.000000 1.000000 0.000000
vn 0.000000 1.000000 0.000000
vn 0.000000 1.000000 0.000000
vn 0.000000 1.000000 0.000000
vn 0.000000 1.000000 0.000000
vn 0.000000 1.000000 0.000000
vn 0.000000 1.000000 0.000000
vn 0.000000 1.000000 0.000000
vn 0.000000 1.000000 0.000000
vn 0.000000 1.000000 0.000000
vn 0.000000 1.000000 0.000000
vn 0.000000 1.000000 0.000000
vn 0.000000 1.000000 0.000000
vn 0.000000 1.000000 0.000000
vn 0.000000 1.000000 0.000000
vn 0.000000 1.000000 0.000000
vn 0.000000 1.000000 0.000000
vn 0.000000 1.000000 0.000000
vn 0.000000 1.000000 0.000000
vn 0.000000 1.000000 0.000000
vn 0.000000 1.000000 0.000000
vn 0.000000 1.000000 0.000000
vn 0.000000 1.000000 0.000000
vn 0.000000 1.000000 0.000000
vn 0.000000 1.000000 0.000000
vn 0.000000 1.000000 0.000000
vn -0.000100 1.000000 0.000000
vn 0.000000 1.000000 0.000000
vn 0.000000 1.000000 0.000000
vn 0.000000 1.000000 0.000000
vn 0.000000 1.000000 0.000000
vn 0.000000 1.000000 0.000000
vn 0.000000 1.000000 0.000000
vn 0.000000 1.000000 0.000000
vn 0.000000 1.000000 0.000000
vn 0.000000 1.000000 0.000000
vn 0.000000 1.000000 0.000000
vn 0.000000 1.000000 0.000000
vn 0.000000 1.000000 0.000000
vn 0.000000 1.000000 0.000000
vn 0.000000 1.000000 0.000000
vn 0.000000 1.000000 0.000000
vn 0.000000 1.000000 0.000000
vn 0.000000 1.000000 0.000000
vn 0.000000 1.000000 0.000000
vn 0.000000 1.000000 0.000000
vn 0.000000 1.000000 0.000000
vn 0.000000 1.000000 0.000000
vn 0.000000 1.000000 0.000000
vn 0.000000 1.000000 0.000000
vn 0.000000 1.000000 0.000000
vn 0.000000 1.000000 0.000000
vn 0.000000 1.000000 0.000000
vn 0.000000 1.000000 0.000000
vn 0.000000 1.000000 0.000000
vn 0.000000 1.000000 0.000000
vn 0.000000 1.000000 0.000000
vn 0.000000 1.000000 0.000000
vn 0.000000 1.000000 0.000000
vn 0.000000 1.000000 0.000000
vn 0.000000 1.000000 0.000000
vn 0.000000 1.000000 0.000000
vn 0.000000 1.000000 0.000000
vn 0.000000 1.000000 0.000000
vn 0.000000 1.000000 0.000000
vn 0.000000 1.000000 0.000000
vn 0.000000 1.000000 0.000000
vn 0.000000 1.000000 0.000000
vn 0.000000 1.000000 0.000000
vn 0.000000 1.000000 0.000000
vn 0.000000 1.000000 0.000000
vn 0.000000 1.000000 0.000000
vn -0.791791 0.000000 -0.610793
vn -0.791791 0.000000 -0.610793
vn -1.000000 0.000000 -0.000100
vn -1.000000 0.000000 -0.000100
vn -0.990955 -0.000000 0.134194
vn -0.990955 -0.000000 0.134194
vn -0.979283 -0.000000 0.202496
vn -0.979283 -0.000000 0.202496
vn -0.965419 -0.000000 0.260705
vn -0.965419 -0.000000 0.260705
vn -0.945682 -0.000000 0.325094
vn -0.945682 -0.000000 0.325094
vn -0.894027 -0.000000 0.448014
vn -0.894027 -0.000000 0.448014
vn -0.740338 -0.000000 0.672235
vn -0.740338 -0.000000 0.672235
vn -0.439918 -0.000000 0.898038
vn -0.439918 -0.000000 0.898038
vn 0.005000 -0.000000 0.999988
vn 0.005000 -0.000000 0.999988
vn 0.899019 -0.000000 0.437909
vn 0.899019 -0.000000 0.437909
vn 0.991709 0.000000 -0.128501
vn 0.991709 0.000000 -0.128501
vn 0.959796 0.000000 -0.280699
vn 0.959796 0.000000 -0.280699
vn 0.929473 0.000000 -0.368889
vn 0.929473 0.000000 -0.368889
vn 0.901879 0.000000 -0.431990
vn 0.901879 0.000000 -0.431990
vn 0.877103 0.000000 -0.480302
vn 0.877103 0.000000 -0.480302
vn 0.848806 0.000000 -0.528704
vn 0.848806 0.000000 -0.528704
vn 0.778698 0.000000 -0.627399
vn 0.778698 0.000000 -0.627399
vn 0.493984 0.000000 -0.869471
vn 0.493984 0.000000 -0.869471
vn -0.791839 0.000000 -0.610730
vn -0.791839 0.000000 -0.610730
vn 0.995978 0.000000 -0.089598
vn 0.995978 0.000000 -0.089598
vn 0.754080 0.000000 -0.656783
vn 0.754080 0.000000 -0.656783
vn 0.061202 0.000000 -0.998125
vn 0.061202 0.000000 -0.998125
vn -0.414805 0.000000 -0.909910
vn -0.414805 0.000000 -0.909910
vn -0.747387 0.000000 -0.664389
vn -0.747387 0.000000 -0.664389
vn -0.957691 0.000000 -0.287797
vn -0.957691 0.000000 -0.287797
vn -0.995362 0.000000 -0.096196
vn -0.995362 0.000000 -0.096196
vn -0.999692 -0.000000 0.024800
vn -0.999692 -0.000000 0.024800
vn -0.996891 -0.000000 0.078799
vn -0.996891 -0.000000 0.078799
vn -0.992282 -0.000000 0.123998
vn -0.992282 -0.000000 0.123998
vn -0.983668 -0.000000 0.179994
vn -0.983668 -0.000000 0.179994
vn -0.966654 -0.000000 0.256088
vn -0.966654 -0.000000 0.256088
vn -0.930613 -0.000000 0.366005
vn -0.930613 -0.000000 0.366005
vn -0.678708 -0.000000 0.734408
vn -0.678708 -0.000000 0.734408
vn 0.856636 -0.000000 0.515922
vn 0.856636 -0.000000 0.515922
vn 0.942533 -0.000000 0.334112
vn 0.942533 -0.000000 0.334112
vn 0.965146 -0.000000 0.261712
vn 0.965146 -0.000000 0.261712
vn 0.978319 -0.000000 0.207104
vn 0.978319 -0.000000 0.207104
vn 0.986141 -0.000000 0.165907
vn 0.986141 -0.000000 0.165907
vn 0.991967 -0.000000 0.126496
vn 0.991967 -0.000000 0.126496
vn 0.993741 -0.000000 0.111705
vn 0.993741 -0.000000 0.111705
vn 0.995391 -0.000000 0.095899
vn 0.995391 -0.000000 0.095899
vn 0.995987 0.000000 -0.089499
vn 0.995987 0.000000 -0.089499
vn -0.999955 0.000000 -0.009500
vn -0.999955 0.000000 -0.009500
vn -0.956324 -0.000000 0.292307
vn -0.956296 -0.000000 0.292399
vn -0.819363 -0.000000 0.573274
vn -0.819077 -0.000000 0.573684
vn -0.603020 -0.000000 0.797726
vn -0.603020 -0.000000 0.797726
vn -0.342209 -0.000000 0.939624
vn -0.342297 -0.000000 0.939592
vn -0.042899 -0.000000 0.999079
vn -0.042999 -0.000000 0.999075
vn 0.267793 -0.000000 0.963476
vn 0.267912 -0.000000 0.963443
vn 0.551188 -0.000000 0.834381
vn 0.551234 -0.000000 0.834351
vn 0.771832 -0.000000 0.635826
vn 0.771832 -0.000000 0.635826
vn 0.771832 -0.000000 0.635826
vn 0.771832 -0.000000 0.635826
vn 0.551188 -0.000000 0.834381
vn 0.267793 -0.000000 0.963476
vn -0.042899 -0.000000 0.999079
vn -0.342209 -0.000000 0.939624
vn -0.603020 -0.000000 0.797726
vn -0.819363 -0.000000 0.573274
vn -0.956324 -0.000000 0.292307
vn -0.999955 0.000000 -0.009500
vn 0.819410 -0.000000 0.573207
vn 0.799484 -0.000000 0.600688
vn 0.819410 -0.000000 0.573207
vn 0.819410 -0.000000 0.573207
vn 0.799484 -0.000000 0.600688
vn 0.799484 -0.000000 0.600688
vn 0.776823 -0.000000 0.629719
vn 0.799484 -0.000000 0.600688
vn 0.776823 -0.000000 0.629719
vn 0.799484 -0.000000 0.600688
vn 0.819410 -0.000000 0.573207
vn 0.776823 -0.000000 0.629719
vn 0.721213 -0.000000 0.692713
vn 0.721213 -0.000000 0.692713
vn 0.534602 -0.000000 0.845104
vn 0.428396 -0.000000 0.903591
vn 0.534602 -0.000000 0.845104
vn 0.721213 -0.000000 0.692713
vn 0.428396 -0.000000 0.903591
vn 0.436421 -0.000000 0.899743
vn 0.436421 -0.000000 0.899743
vn 0.569974 -0.000000 0.821663
vn 0.569974 -0.000000 0.821663
vn 0.679538 -0.000000 0.733641
vn 0.679538 -0.000000 0.733641
vn 0.940391 0.000000 -0.340097
vn 0.940391 0.000000 -0.340097
vn 0.776823 -0.000000 0.629719
vn 0.776823 -0.000000 0.629719
vn -0.422606 0.000000 -0.906313
vn -0.422606 0.000000 -0.906313
vn -0.422606 0.000000 -0.906313
vn -0.422606 0.000000 -0.906313
vn -0.557121 0.000000 -0.830431
vn -0.849232 0.000000 -0.528020
vn -0.557121 0.000000 -0.830431
vn -0.849232 0.000000 -0.528020
vn -0.949292 0.000000 -0.314397
vn -0.949292 0.000000 -0.314397
vn -0.998076 0.000000 -0.061999
vn -0.998076 0.000000 -0.061999
vn -0.989981 0.000000 -0.141197
vn -0.989981 0.000000 -0.141197
vn -0.989981 0.000000 -0.141197
vn -0.989981 0.000000 -0.141197
vn -0.989981 0.000000 -0.141197
vn -0.989981 0.000000 -0.141197
vn -0.989981 0.000000 -0.141197
vn 0.837517 -0.000000 0.546411
vn 0.837517 -0.000000 0.546411
vn 0.994743 -0.000000 0.102404
vn 0.994743 -0.000000 0.102404
vn 0.999959 -0.000000 0.009100
vn 0.999959 -0.000000 0.009100
vn 0.999259 0.000000 -0.038498
vn 0.999259 0.000000 -0.038498
vn 0.996922 0.000000 -0.078402
vn 0.996922 0.000000 -0.078402
vn 0.992834 0.000000 -0.119504
vn 0.992834 0.000000 -0.119504
vn 0.982889 0.000000 -0.184198
vn 0.982889 0.000000 -0.184198
vn 0.944296 0.000000 -0.329099
vn 0.944296 0.000000 -0.329099
vn 0.764190 0.000000 -0.644991
vn 0.764190 0.000000 -0.644991
vn 0.186896 0.000000 -0.982380
vn 0.186896 0.000100 -0.982380
vn -0.935856 -0.000100 -0.352383
vn -0.935856 0.000000 -0.352383
vn -0.999935 0.000000 -0.011400
vn -0.999935 0.000000 -0.011400
vn -0.995382 -0.000000 0.095998
vn -0.995382 -0.000000 0.095998
vn -0.986759 -0.000000 0.162193
vn -0.986759 -0.000000 0.162193
vn -0.977096 -0.000000 0.212799
vn -0.977096 -0.000000 0.212799
vn -0.967155 -0.000000 0.254188
vn -0.967155 -0.000000 0.254188
vn -0.956019 -0.000000 0.293306
vn -0.956019 -0.000000 0.293306
vn -0.928711 -0.000000 0.370804
vn -0.928711 -0.000000 0.370804
vn -0.791094 -0.000000 0.611695
vn -0.791094 -0.000000 0.611695
vn 0.837396 -0.000000 0.546597
vn 0.837396 -0.000000 0.546597
vn 0.000000 0.000000 -1.000000
vn 0.000000 0.000000 -1.000000
vn 0.000000 0.000000 -1.000000
vn 0.000000 0.000000 -1.000000
vn 0.000000 0.000000 -1.000000
vn 0.000000 0.000000 -1.000000
vn 0.000000 0.000000 -1.000000
vn 0.000000 0.000000 -1.000000
vn 1.000000 0.000000 0.000000
vn 1.000000 0.000000 0.000000
vn 1.000000 0.000000 0.000000
vn 1.000000 0.000000 0.000000
vn 0.000000 0.000000 -1.000000
vn 0.000000 0.000000 -1.000000
vn 0.000000 0.000000 -1.000000
vn 0.000000 0.000000 -1.000000
vn -1.000000 0.000000 0.000000
vn -1.000000 0.000000 0.000000
vn -1.000000 0.000000 0.000000
vn -1.000000 0.000000 0.000000
vn 0.000000 0.000000 -1.000000
vn 0.000000 0.000000 -1.000000
vn 0.000000 0.000000 -1.000000
vn 0.000000 0.000000 -1.000000
vn 0.000100 0.000000 -1.000000
vn 0.379910 0.000000 -0.925024
vn 0.000100 0.000000 -1.000000
vn 0.379910 0.000000 -0.925024
vn 0.714468 0.000000 -0.699668
vn 0.931629 0.000000 -0.363411
vn 0.714468 0.000000 -0.699668
vn 0.931629 0.000000 -0.363411
vn 1.000000 0.000000 -0.000100
vn 1.000000 0.000000 -0.000100
vn 1.000000 0.000000 0.000000
vn 1.000000 0.000000 0.000000
vn 1.000000 0.000000 0.000000
vn 1.000000 0.000000 0.000000
vn 1.000000 -0.000000 0.000100
vn 0.925024 -0.000000 0.379910
vn 1.000000 -0.000000 0.000100
vn 0.925024 -0.000000 0.379910
vn 0.699769 -0.000000 0.714369
vn 0.699769 -0.000000 0.714369
vn 0.363411 -0.000000 0.931629
vn 0.000100 -0.000000 1.000000
vn 0.363411 -0.000000 0.931629
vn 0.000100 -0.000000 1.000000
vn 0.000000 -0.000000 1.000000
vn 0.000000 -0.000000 1.000000
vn 0.000000 -0.000000 1.000000
vn 0.000000 -0.000000 1.000000
vn 0.000100 -0.000000 1.000000
vn 0.256206 -0.000000 0.966622
vn 0.000100 -0.000000 1.000000
vn 0.256206 -0.000000 0.966622
vn 0.488722 -0.000000 0.872440
vn 0.488722 -0.000000 0.872440
vn 0.722876 -0.000000 0.690977
vn 0.722876 -0.000000 0.690977
vn 0.950182 -0.000000 0.311694
vn 0.950182 -0.000000 0.311694
vn 0.999988 -0.000000 0.005000
vn 0.999988 -0.000000 0.005000
vn 0.999988 -0.000000 0.005000
vn 0.999988 -0.000000 0.005000
vn 0.000000 0.000000 -1.000000
vn 0.000000 0.000000 -1.000000
vn 0.000000 0.000000 -1.000000
vn 0.000000 0.000000 -1.000000
vn -0.999988 0.000000 -0.005000
vn -0.999988 0.000000 -0.005000
vn -0.999988 0.000000 -0.005000
vn -0.999988 0.000000 -0.005000
vn -0.999988 0.000000 -0.005000
vn -0.999988 0.000000 -0.005000
vn -0.314697 0.000000 -0.949192
vn -0.314697 0.000000 -0.949192
vn 0.053803 0.000000 -0.998552
vn 0.053803 0.000000 -0.998552
vn 0.460603 0.000000 -0.887606
vn 0.460603 0.000000 -0.887606
vn 0.460603 0.000000 -0.887606
vn 1.000000 0.000000 0.000000
vn 1.000000 0.000000 0.000000
vn 1.000000 0.000000 0.000000
vn 1.000000 0.000000 0.000000
vn 1.000000 0.000000 -0.000100
vn 0.925024 0.000000 -0.379910
vn 1.000000 0.000000 -0.000100
vn 0.925024 0.000000 -0.379910
vn 0.699920 0.000000 -0.714221
vn 0.699920 0.000000 -0.714221
vn 0.363498 0.000000 -0.931595
vn 0.363498 0.000000 -0.931595
vn 0.000100 0.000000 -1.000000
vn 0.000100 0.000000 -1.000000
vn 0.460802 0.000000 -0.887503
vn 0.460802 0.000000 -0.887503
vn 0.682183 0.000000 -0.731182
vn 0.682183 0.000000 -0.731182
vn 0.856220 0.000000 -0.516612
vn 0.856220 0.000000 -0.516612
vn 0.964796 0.000000 -0.262999
vn 0.964796 0.000000 -0.262999
vn 1.000000 0.000000 -0.000100
vn 1.000000 0.000000 -0.000100
vn 0.460802 0.000000 -0.887503
vn 1.000000 0.000000 0.000000
vn 1.000000 0.000000 0.000000
vn 1.000000 0.000000 0.000000
vn 1.000000 0.000000 0.000000
vn 0.414112 -0.000000 0.910226
vn 0.414112 -0.000000 0.910226
vn 0.414112 -0.000000 0.910226
vn 0.414112 -0.000000 0.910226
vn 0.414112 -0.000000 0.910226
vn 0.414112 -0.000000 0.910226
vn 0.414112 -0.000000 0.910226
vn 0.414112 -0.000000 0.910226
vn 0.414112 -0.000000 0.910226
vn 0.414112 -0.000000 0.910226
vn 0.414112 -0.000000 0.910226
vn 0.414112 -0.000000 0.910226
vn 0.414112 -0.000000 0.910226
vn 0.414112 -0.000000 0.910226
vn 0.414112 -0.000000 0.910226
vn 0.414112 -0.000000 0.910226
vn 0.414112 -0.000000 0.910226
vn 0.414112 -0.000000 0.910226
vn 0.414112 -0.000000 0.910226
vn 0.414112 -0.000000 0.910226
vn 0.414112 -0.000000 0.910226
vn 0.414112 -0.000000 0.910226
vn 0.414112 -0.000000 0.910226
vn 0.414112 -0.000000 0.910226
vn 0.414112 -0.000000 0.910226
vn 0.414112 -0.000000 0.910226
vn 0.414112 -0.000000 0.910226
vn 0.414112 -0.000000 0.910226
vn 0.414112 -0.000000 0.910226
vn 0.414112 -0.000000 0.910226
vn 0.414112 -0.000000 0.910226
vn 0.414112 -0.000000 0.910226
vn 0.414112 -0.000000 0.910226
vn 0.414112 -0.000000 0.910226
vn 0.414112 -0.000000 0.910226
vn 0.414112 -0.000000 0.910226
vn 0.414112 -0.000000 0.910226
vn 0.414112 -0.000000 0.910226
vn 0.414112 -0.000000 0.910226
vn 0.414112 -0.000000 0.910226
vn 0.414112 -0.000000 0.910226
vn 0.414112 -0.000000 0.910226
vn 0.414112 -0.000000 0.910226
vn -0.944118 0.000000 -0.329606
vn -0.853148 0.000000 -0.521668
vn -0.853193 0.000000 -0.521596
vn -0.944118 0.000000 -0.329606
vn -0.944118 0.000000 -0.329606
vn -0.853148 0.000000 -0.521668
vn -0.853193 0.000000 -0.521596
vn -0.771693 0.000000 -0.635995
vn -0.638185 0.000000 -0.769883
vn -0.771693 0.000000 -0.635995
vn -0.771693 0.000000 -0.635995
vn -0.771693 0.000000 -0.635995
vn -0.638185 0.000000 -0.769883
vn -0.440080 0.000000 -0.897959
vn -0.440080 0.000000 -0.897959
vn -0.461992 0.000000 -0.886884
vn -0.461992 0.000000 -0.886884
vn -0.705555 0.000000 -0.708655
vn -0.705555 0.000000 -0.708655
vn -0.895783 0.000000 -0.444492
vn -0.895783 0.000000 -0.444492
vn -0.959029 0.000000 -0.283309
vn -0.959029 0.000000 -0.283309
vn -0.987376 0.000000 -0.158396
vn -0.987376 0.000000 -0.158396
vn -0.999944 -0.000000 0.010600
vn -0.999944 -0.000000 0.010600
vn -0.998951 -0.000000 0.045798
vn -0.998951 -0.000000 0.045798
vn -0.997228 0.000000 -0.074402
vn -0.997228 0.000000 -0.074402
vn -0.911279 0.000000 -0.411790
vn -0.458378 0.000000 -0.888757
vn -0.911279 0.000000 -0.411790
vn -0.458378 0.000000 -0.888757
vn -0.911279 0.000000 -0.411790
vn -0.997228 0.000000 -0.074402
vn -0.638185 0.000000 -0.769883
vn -0.771693 0.000000 -0.635995
vn -0.853193 0.000000 -0.521596
vn 0.414112 -0.000000 0.910226
vn 0.649481 -0.000000 0.760378
vn 0.414112 -0.000000 0.910226
vn 0.649481 -0.000000 0.760378
vn 0.840850 -0.000000 0.541268
vn 0.961039 -0.000000 0.276411
vn 0.840850 -0.000000 0.541268
vn 0.961039 -0.000000 0.276411
vn 1.000000 -0.000000 0.000100
vn 1.000000 -0.000000 0.000100
vn 0.000000 -1.000000 -0.000000
vn 0.000000 -1.000000 -0.000000
vn 0.000000 -1.000000 -0.000000
vn 0.000000 -1.000000 -0.000000
vn 0.000000 -1.000000 -0.000000
vn 0.000000 -1.000000 -0.000000
vn 0.000000 -1.000000 -0.000000
vn 0.000000 -1.000000 -0.000000
vn 0.000000 -1.000000 -0.000000
vn 0.000000 -1.000000 -0.000000
vn 0.000000 -1.000000 -0.000000
vn 0.000000 -1.000000 -0.000000
vn 0.000000 -1.000000 -0.000000
vn 0.000000 -1.000000 -0.000000
vn 0.000000 -1.000000 -0.000000
vn 0.000000 -1.000000 -0.000000
vn 0.000000 -1.000000 -0.000000
vn 0.000000 -1.000000 -0.000000
vn 0.000000 -1.000000 -0.000000
vn 0.000000 -1.000000 -0.000000
vn 0.000000 -1.000000 -0.000000
vn 0.000000 -1.000000 -0.000000
vn 0.000000 -1.000000 -0.000000
vn 0.000000 -1.000000 -0.000000
vn 0.000000 -1.000000 -0.000000
vn 0.000000 -1.000000 -0.000000
vn 0.000100 -1.000000 -0.000000
vn 0.000000 -1.000000 -0.000000
vn 0.000000 -1.000000 -0.000000
vn 0.000000 -1.000000 -0.000000
vn 0.000000 -1.000000 -0.000000
vn 0.000000 -1.000000 -0.000000
vn 0.000000 -1.000000 -0.000000
vn 0.000000 -1.000000 -0.000000
vn 0.000000 -1.000000 -0.000000
vn 0.000000 -1.000000 -0.000000
vn 0.000000 -1.000000 -0.000000
vn 0.000000 -1.000000 -0.000000
vn 0.000000 -1.000000 -0.000000
vn 0.000000 -1.000000 -0.000000
vn 0.000000 -1.000000 -0.000000
vn 0.000000 -1.000000 -0.000000
vn 0.000000 -1.000000 -0.000000
vn 0.000000 -1.000000 -0.000000
vn 0.000000 -1.000000 -0.000000
vn 0.000000 -1.000000 -0.000000
vn 0.000000 -1.000000 -0.000000
vn 0.000000 -1.000000 -0.000000
vn 0.000000 -1.000000 -0.000000
vn 0.000000 -1.000000 -0.000000
vn 0.000000 -1.000000 -0.000000
vn 0.000000 -1.000000 -0.000000
vn 0.000000 -1.000000 -0.000000
vn 0.000000 -1.000000 -0.000000
vn 0.000000 -1.000000 -0.000000
vn 0.000000 -1.000000 -0.000000
vn 0.000000 -1.000000 -0.000000
vn 0.000000 -1.000000 -0.000000
vn 0.000000 -1.000000 -0.000000
vn 0.000000 -1.000000 -0.000000
vn 0.000000 -1.000000 -0.000000
vn 0.000000 -1.000000 -0.000000
vn 0.000000 -1.000000 -0.000000
vn 0.000000 -1.000000 -0.000000
vn 0.000000 -1.000000 -0.000000
vn 0.000000 -1.000000 -0.000000
vn 0.000000 -1.000000 -0.000000
vn 0.000000 -1.000000 -0.000000
vn 0.000000 -1.000000 -0.000000
vn 0.000000 -1.000000 -0.000000
vn 0.000000 -1.000000 -0.000000
vn 0.000000 -1.000000 -0.000000
vn 0.000000 -1.000000 -0.000000
vn 0.000000 -1.000000 -0.000000
vn 0.000000 -1.000000 -0.000000
vn 0.000000 -1.000000 -0.000000
vn 0.000000 -1.000000 -0.000000
vn 0.000000 -1.000000 -0.000000
vn 0.000000 -1.000000 -0.000000
vn 0.000000 -1.000000 -0.000000
vn 0.000000 -1.000000 -0.000000
vn 0.000000 -1.000000 -0.000000
vn 0.000000 -1.000000 -0.000000
vn 0.000000 -1.000000 -0.000000
vn 0.000000 -1.000000 -0.000000
vn 0.000000 -1.000000 -0.000000
vn 0.000000 -1.000000 -0.000000
vn 0.000000 -1.000000 -0.000000
vn 0.000000 -1.000000 -0.000000
vn 0.000000 -1.000000 -0.000000
vn 0.000000 -1.000000 -0.000000
vn 0.000000 -1.000000 -0.000000
vn 0.000000 -1.000000 -0.000000
vn 0.000000 -1.000000 -0.000000
vn 0.000000 -1.000000 -0.000000
vn 0.000000 -1.000000 -0.000000
vn 0.000000 -1.000000 -0.000000
vn 0.000000 -1.000000 -0.000000
vn 0.000000 -1.000000 -0.000000
vn 0.000000 -1.000000 -0.000000
vn 0.000000 -1.000000 -0.000000
vn 0.000000 -1.000000 -0.000000
vn 0.000000 -1.000000 -0.000000
vn 0.000000 -1.000000 -0.000000
vn 0.000000 -1.000000 -0.000000
vn 0.000000 -1.000000 -0.000000
vn 0.000000 -1.000000 -0.000000
vn 0.000000 -1.000000 -0.000000
vn 0.000000 -1.000000 -0.000000
vn 0.000000 -1.000000 -0.000000
vn 0.000000 -1.000000 -0.000000
vn 0.000000 -1.000000 -0.000000
vn 0.000000 -1.000000 -0.000000
vn 0.000000 -1.000000 -0.000000
vn 0.000000 -1.000000 -0.000000
vn 0.000000 -1.000000 -0.000000
vn 0.000000 -1.000000 -0.000000
vn 0.000000 -1.000000 -0.000000
vn 0.000000 -1.000000 -0.000000
vn 0.000000 -1.000000 -0.000000
vn 0.000000 -1.000000 -0.000000
vn 0.000000 -1.000000 -0.000000
vn 0.000000 -1.000000 -0.000000
vn 0.000000 -1.000000 -0.000000
vn 0.000000 -1.000000 -0.000000
vn 0.000000 -1.000000 -0.000000
vn 0.000000 -1.000000 -0.000000
vn 0.000000 -1.000000 -0.000000
vn 0.000000 -1.000000 -0.000000
vn 0.000000 -1.000000 -0.000000
vn 0.000000 -1.000000 -0.000000
vn 0.000000 -1.000000 -0.000000
vn 0.000000 -1.000000 -0.000000
vn 0.000000 -1.000000 -0.000000
vn 0.000000 -1.000000 -0.000000
vn 0.000000 -1.000000 -0.000000
vn 0.000000 -1.000000 -0.000000
vn 0.000000 -1.000000 -0.000000
vn 0.000000 -1.000000 -0.000000
vn 0.000000 -1.000000 -0.000000
f 2//2 3//3 1//1
f 3//3 6//6 1//1
f 1//1 5//5 4//4
f 5//5 1//1 7//7
f 7//7 1//1 6//6
f 6//6 10//10 8//8
f 6//6 3//3 9//9
f 13//13 6//6 9//9
f 10//10 6//6 11//11
f 12//12 11//11 6//6
f 6//6 13//13 12//12
f 12//12 13//13 14//14
f 14//14 15//15 12//12
f 12//12 15//15 16//16
f 18//18 16//16 17//17
f 18//18 12//12 16//16
f 18//18 17//17 19//19
f 19//19 20//20 21//21
f 20//20 19//19 17//17
f 22//22 21//21 20//20
f 20//20 23//23 22//22
f 24//24 23//23 25//25
f 25//25 23//23 20//20
f 26//26 28//28 25//25
f 25//25 27//27 26//26
f 25//25 28//28 24//24
f 29//29 28//28 26//26
f 26//26 30//30 29//29
f 30//30 26//26 31//31
f 26//26 32//32 31//31
f 33//33 32//32 26//26
f 32//32 33//33 34//34
f 33//33 35//35 34//34
f 36//36 34//34 35//35
f 37//37 36//36 35//35
f 36//36 37//37 38//38
f 38//38 37//37 39//39
f 41//41 39//39 37//37
f 39//39 41//41 40//40
f 42//42 40//40 41//41
f 43//43 40//40 42//42
f 44//44 43//43 42//42
f 43//43 44//44 8//8
f 44//44 45//45 8//8
f 45//45 44//44 46//46
f 46//46 44//44 47//47
f 47//47 44//44 48//48
f 47//47 48//48 49//49
f 50//50 49//49 48//48
f 43//43 8//8 10//10
f 27//27 52//52 26//26
f 27//27 51//51 52//52
f 54//54 53//53 52//52
f 51//51 54//54 52//52
f 53//53 54//54 55//55
f 56//56 53//53 55//55
f 53//53 56//56 57//57
f 56//56 58//58 57//57
f 59//59 57//57 58//58
f 59//59 60//60 57//57
f 61//61 57//57 60//60
f 61//61 60//60 62//62
f 62//62 63//63 61//61
f 66//66 63//63 64//64
f 64//64 63//63 67//67
f 61//61 63//63 65//65
f 63//63 66//66 65//65
f 64//64 67//67 68//68
f 68//68 67//67 69//69
f 69//69 71//71 70//70
f 70//70 68//68 69//69
f 2//2 72//72 71//71
f 70//70 71//71 72//72
f 71//71 3//3 2//2
f 73//73 72//72 2//2
f 74//74 72//72 73//73
f 75//75 74//74 73//73
f 74//74 75//75 76//76
f 76//76 75//75 77//77
f 78//78 76//76 77//77
f 78//78 77//77 79//79
f 82//82 80//80 79//79
f 80//80 81//81 79//79
f 82//82 79//79 77//77
f 80//80 82//82 83//83
f 84//84 83//83 82//82
f 85//85 86//86 84//84
f 83//83 84//84 86//86
f 86//86 87//87 90//90
f 86//86 90//90 83//83
f 86//86 85//85 88//88
f 88//88 89//89 86//86
f 87//87 91//91 90//90
f 92//92 91//91 87//87
f 87//87 93//93 92//92
f 93//93 87//87 94//94
f 80//80 95//95 81//81
f 95//95 80//80 96//96
f 80//80 98//98 96//96
f 97//97 96//96 98//98
f 98//98 99//99 97//97
f 99//99 98//98 100//100
f 101//101 102//102 100//100
f 100//100 102//102 99//99
f 102//102 101//101 104//104
f 102//102 105//105 103//103
f 99//99 102//102 103//103
f 107//107 105//105 106//106
f 107//107 108//108 105//105
f 109//109 105//105 108//108
f 109//109 110//110 105//105
f 110//110 103//103 105//105
f 111//111 107//107 106//106
f 111//111 114//114 64//64
f 112//112 113//113 111//111
f 112//112 111//111 106//106
f 114//114 111//111 113//113
f 64//64 114//114 66//66
f 115//115 104//104 101//101
f 104//104 115//115 116//116
f 118//118 116//116 115//115
f 117//117 116//116 118//118
f 119//119 117//117 118//118
f 118//118 120//120 119//119
f 121//121 119//119 120//120
f 119//119 121//121 126//126
f 122//122 123//123 121//121
f 123//123 124//124 121//121
f 124//124 125//125 121//121
f 121//121 125//125 126//126
f 126//126 127//127 119//119
f 119//119 128//128 117//117
f 128//128 130//130 129//129
f 129//129 117//117 128//128
f 128//128 131//131 130//130
f 128//128 134//134 131//131
f 136//136 128//128 132//132
f 132//132 128//128 133//133
f 128//128 135//135 134//134
f 128//128 136//136 135//135
f 131//131 137//137 130//130
f 137//137 131//131 138//138
f 138//138 131//131 139//139
f 131//131 140//140 139//139
f 53//53 140//140 131//131
f 57//57 140//140 53//53
f 144//144 142//142 141//141
f 144//144 141//141 143//143
f 146//146 144//144 143//143
f 146//146 143//143 145//145
f 148//148 146//146 145//145
f 148//148 145//145 147//147
f 150//150 148//148 147//147
f 150//150 147//147 149//149
f 152//152 150//150 149//149
f 152//152 149//149 151//151
f 154//154 152//152 151//151
f 154//154 151//151 153//153
f 156//156 154//154 153//153
f 156//156 153//153 155//155
f 158//158 156//156 155//155
f 158//158 155//155 157//157
f 160//160 158//158 157//157
f 160//160 157//157 159//159
f 162//162 160//160 159//159
f 162//162 159//159 161//161
f 164//164 162//162 161//161
f 164//164 161//161 163//163
f 166//166 164//164 163//163
f 166//166 163//163 165//165
f 168//168 166//166 165//165
f 168//168 165//165 167//167
f 170//170 168//168 167//167
f 170//170 167//167 169//169
f 172//172 170//170 169//169
f 172//172 169//169 171//171
f 174//174 172//172 171//171
f 174//174 171//171 173//173
f 176//176 174//174 173//173
f 176//176 173//173 175//175
f 178//178 176//176 175//175
f 178//178 175//175 177//177
f 180//180 178//178 177//177
f 180//180 177//177 179//179
f 184//184 182//182 181//181
f 184//184 181//181 183//183
f 186//186 184//184 183//183
f 186//186 183//183 185//185
f 188//188 186//186 185//185
f 188//188 185//185 187//187
f 190//190 188//188 187//187
f 190//190 187//187 189//189
f 192//192 190//190 189//189
f 192//192 189//189 191//191
f 194//194 192//192 191//191
f 194//194 191//191 193//193
f 196//196 194//194 193//193
f 196//196 193//193 195//195
f 198//198 196//196 195//195
f 198//198 195//195 197//197
f 200//200 198//198 197//197
f 200//200 197//197 199//199
f 202//202 200//200 199//199
f 202//202 199//199 201//201
f 204//204 202//202 201//201
f 204//204 201//201 203//203
f 206//206 204//204 203//203
f 206//206 203//203 205//205
f 208//208 206//206 205//205
f 208//208 205//205 207//207
f 210//210 208//208 207//207
f 210//210 207//207 209//209
f 212//212 210//210 209//209
f 212//212 209//209 211//211
f 214//214 212//212 211//211
f 214//214 211//211 213//213
f 216//216 214//214 213//213
f 216//216 213//213 215//215
f 218//218 216//216 215//215
f 218//218 215//215 217//217
f 220//220 218//218 217//217
f 220//220 217//217 219//219
f 222//222 220//220 219//219
f 222//222 219//219 221//221
f 224//224 222//222 221//221
f 224//224 221//221 223//223
f 226//226 224//224 223//223
f 226//226 223//223 225//225
f 228//228 227//227 229//229
f 228//228 229//229 230//230
f 232//232 230//230 229//229
f 232//232 229//229 231//231
f 234//234 232//232 231//231
f 234//234 231//231 233//233
f 236//236 234//234 233//233
f 236//236 233//233 235//235
f 238//238 236//236 235//235
f 238//238 235//235 237//237
f 240//240 238//238 237//237
f 240//240 237//237 239//239
f 242//242 240//240 239//239
f 242//242 239//239 241//241
f 243//243 244//244 242//242
f 243//243 242//242 241//241
f 245//245 242//242 244//244
f 247//247 242//242 245//245
f 247//247 245//245 246//246
f 247//247 248//248 240//240
f 247//247 240//240 242//242
f 248//248 249//249 238//238
f 248//248 238//238 240//240
f 249//249 250//250 236//236
f 249//249 236//236 238//238
f 250//250 251//251 234//234
f 250//250 234//234 236//236
f 251//251 252//252 232//232
f 251//251 232//232 234//234
f 252//252 253//253 230//230
f 252//252 230//230 232//232
f 230//230 253//253 254//254
f 230//230 254//254 228//228
f 256//256 259//259 257//257
f 256//256 257//257 255//255
f 258//258 257//257 260//260
f 258//258 260//260 262//262
f 259//259 260//260 257//257
f 261//261 260//260 259//259
f 261//261 259//259 282//282
f 263//263 262//262 260//260
f 263//263 260//260 261//261
f 266//266 264//264 262//262
f 266//266 262//262 263//263
f 265//265 258//258 262//262
f 265//265 262//262 264//264
f 267//267 266//266 263//263
f 268//268 267//267 263//263
f 269//269 267//267 268//268
f 271//271 269//269 268//268
f 270//270 269//269 271//271
f 270//270 271//271 273//273
f 268//268 272//272 271//271
f 275//275 270//270 273//273
f 275//275 273//273 274//274
f 277//277 275//275 274//274
f 277//277 274//274 276//276
f 279//279 277//277 276//276
f 279//279 276//276 278//278
f 280//280 281//281 279//279
f 280//280 279//279 278//278
f 272//272 268//268 282//282
f 282//282 283//283 272//272
f 282//282 259//259 256//256
f 282//282 256//256 283//283
f 268//268 261//261 282//282
f 263//263 261//261 268//268
f 285//285 284//284 286//286
f 285//285 286//286 287//287
f 289//289 291//291 290//290
f 289//289 290//290 288//288
f 292//292 291//291 289//289
f 292//292 289//289 293//293
f 295//295 294//294 292//292
f 295//295 292//292 293//293
f 297//297 296//296 298//298
f 297//297 298//298 299//299
f 299//299 298//298 300//300
f 299//299 300//300 301//301
f 301//301 302//302 299//299
f 306//306 304//304 303//303
f 306//306 303//303 305//305
f 308//308 306//306 305//305
f 308//308 305//305 307//307
f 310//310 308//308 307//307
f 310//310 307//307 309//309
f 312//312 310//310 309//309
f 312//312 309//309 311//311
f 314//314 312//312 311//311
f 314//314 311//311 313//313
f 316//316 314//314 313//313
f 316//316 313//313 315//315
f 318//318 316//316 315//315
f 318//318 315//315 317//317
f 320//320 318//318 317//317
f 320//320 317//317 319//319
f 322//322 320//320 319//319
f 322//322 319//319 321//321
f 324//324 322//322 321//321
f 324//324 321//321 323//323
f 326//326 324//324 323//323
f 326//326 323//323 325//325
f 328//328 326//326 325//325
f 328//328 325//325 327//327
f 330//330 328//328 327//327
f 330//330 327//327 329//329
f 332//332 330//330 329//329
f 332//332 329//329 331//331
f 334//334 332//332 331//331
f 334//334 331//331 333//333
f 336//336 334//334 333//333
f 336//336 333//333 335//335
f 338//338 336//336 335//335
f 338//338 335//335 337//337
f 340//340 338//338 337//337
f 340//340 337//337 339//339
f 342//342 340//340 339//339
f 342//342 339//339 341//341
f 344//344 346//346 345//345
f 344//344 345//345 343//343
f 348//348 347//347 349//349
f 348//348 349//349 350//350
f 352//352 351//351 353//353
f 352//352 353//353 354//354
f 356//356 355//355 357//357
f 356//356 357//357 358//358
f 360//360 359//359 361//361
f 360//360 361//361 362//362
f 364//364 363//363 365//365
f 364//364 365//365 366//366
f 368//368 370//370 369//369
f 368//368 369//369 367//367
f 371//371 370//370 368//368
f 371//371 368//368 373//373
f 372//372 371//371 373//373
f 372//372 373//373 374//374
f 375//375 376//376 372//372
f 375//375 372//372 374//374
f 378//378 377//377 379//379
f 378//378 379//379 380//380
f 382//382 384//384 383//383
f 382//382 383//383 381//381
f 385//385 384//384 382//382
f 385//385 382//382 386//386
f 387//387 385//385 386//386
f 387//387 386//386 389//389
f 390//390 388//388 387//387
f 390//390 387//387 389//389
f 392//392 391//391 393//393
f 392//392 393//393 394//394
f 396//396 398//398 397//397
f 396//396 397//397 395//395
f 399//399 398//398 396//396
f 399//399 396//396 400//400
f 401//401 399//399 400//400
f 401//401 400//400 402//402
f 404//404 403//403 401//401
f 404//404 401//401 402//402
f 406//406 405//405 407//407
f 406//406 407//407 408//408
f 410//410 409//409 411//411
f 410//410 411//411 412//412
f 414//414 413//413 415//415
f 414//414 415//415 416//416
f 417//417 418//418 416//416
f 417//417 416//416 415//415
f 420//420 419//419 421//421
f 420//420 421//421 422//422
f 421//421 423//423 422//422
f 424//424 423//423 421//421
f 423//423 425//425 422//422
f 427//427 426//426 428//428
f 427//427 428//428 429//429
f 431//431 433//433 432//432
f 431//431 432//432 430//430
f 434//434 433//433 431//431
f 434//434 431//431 435//435
f 436//436 434//434 435//435
f 436//436 435//435 437//437
f 439//439 438//438 436//436
f 439//439 436//436 437//437
f 441//441 440//440 442//442
f 443//443 441//441 442//442
f 445//445 443//443 442//442
f 445//445 442//442 444//444
f 447//447 445//445 444//444
f 447//447 444//444 446//446
f 448//448 449//449 447//447
f 448//448 447//447 446//446
f 441//441 443//443 450//450
f 452//452 454//454 453//453
f 452//452 453//453 451//451
f 458//458 455//455 456//456
f 493//493 456//456 455//455
f 493//493 455//455 457//457
f 459//459 455//455 458//458
f 460//460 459//459 458//458
f 460//460 458//458 461//461
f 462//462 460//460 461//461
f 463//463 462//462 461//461
f 464//464 462//462 463//463
f 465//465 464//464 463//463
f 464//464 465//465 466//466
f 466//466 467//467 464//464
f 467//467 466//466 468//468
f 468//468 469//469 467//467
f 470//470 469//469 468//468
f 470//470 468//468 471//471
f 470//470 471//471 472//472
f 472//472 474//474 473//473
f 474//474 472//472 471//471
f 475//475 474//474 476//476
f 474//474 475//475 473//473
f 471//471 468//468 477//477
f 471//471 477//477 474//474
f 477//477 476//476 474//474
f 477//477 466//466 478//478
f 477//477 478//478 476//476
f 466//466 477//477 468//468
f 476//476 478//478 480//480
f 476//476 480//480 479//479
f 476//476 479//479 475//475
f 481//481 479//479 480//480
f 475//475 479//479 481//481
f 475//475 481//481 482//482
f 482//482 481//481 484//484
f 482//482 484//484 485//485
f 480//480 483//483 481//481
f 483//483 484//484 481//481
f 485//485 473//473 482//482
f 486//486 483//483 480//480
f 486//486 465//465 487//487
f 487//487 488//488 486//486
f 465//465 486//486 480//480
f 488//488 487//487 489//489
f 489//489 490//490 488//488
f 489//489 492//492 491//491
f 489//489 491//491 490//490
f 492//492 457//457 491//491
f 494//494 493//493 492//492
f 494//494 492//492 489//489
f 457//457 492//492 493//493
f 495//495 493//493 494//494
f 456//456 493//493 495//495
f 495//495 496//496 456//456
f 463//463 496//496 495//495
f 463//463 495//495 497//497
f 497//497 495//495 494//494
f 497//497 494//494 487//487
f 465//465 497//497 487//487
f 463//463 497//497 465//465
f 461//461 458//458 456//456
f 461//461 456//456 496//496
f 461//461 496//496 463//463
f 487//487 494//494 489//489
f 475//475 482//482 473//473
f 480//480 478//478 465//465
f 465//465 478//478 466//466
f 501//501 498//498 499//499
f 499//499 498//498 500//500
f 503//503 502//502 501//501
f 499//499 504//504 501//501
f 504//504 503//503 501//501
f 507//507 503//503 504//504
f 507//507 504//504 505//505
f 505//505 504//504 499//499
f 505//505 499//499 508//508
f 506//506 505//505 508//508
f 507//507 505//505 506//506
f 508//508 499//499 500//500
f 508//508 500//500 509//509
f 510//510 506//506 508//508
f 508//508 509//509 510//510
f 506//506 510//510 511//511
f 511//511 512//512 506//506
f 514//514 512//512 511//511
f 514//514 511//511 513//513
f 516//516 514//514 513//513
f 516//516 513//513 515//515
f 518//518 516//516 515//515
f 518//518 515//515 517//517
f 520//520 518//518 517//517
f 520//520 517//517 519//519
f 522//522 520//520 519//519
f 522//522 519//519 521//521
f 524//524 522//522 521//521
f 524//524 521//521 523//523
f 526//526 524//524 523//523
f 526//526 523//523 525//525
f 526//526 525//525 527//527
f 525//525 528//528 527//527
f 531//531 527//527 528//528
f 531//531 528//528 529//529
f 531//531 529//529 530//530
f 532//532 531//531 530//530
f 533//533 531//531 532//532
f 533//533 534//534 527//527
f 533//533 527//527 531//531
f 527//527 534//534 526//526
f 512//512 535//535 506//506
f 506//506 535//535 507//507
f 535//535 536//536 507//507
f 536//536 537//537 503//503
f 536//536 503//503 507//507
f 502//502 503//503 537//537
f 539//539 541//541 540//540
f 539//539 540//540 538//538
f 544//544 542//542 541//541
f 544//544 541//541 539//539
f 545//545 543//543 542//542
f 545//545 542//542 544//544
f 546//546 547//547 543//543
f 546//546 543//543 545//545
f 548//548 549//549 551//551
f 548//548 550//550 549//549
f 548//548 552//552 550//550
f 553//553 548//548 551//551
f 548//548 554//554 552//552
f 553//553 555//555 548//548
f 548//548 555//555 557//557
f 556//556 548//548 557//557
f 557//557 555//555 558//558
f 556//556 557//557 560//560
f 559//559 560//560 557//557
f 563//563 561//561 558//558
f 558//558 562//562 563//563
f 562//562 558//558 555//555
f 565//565 561//561 563//563
f 564//564 563//563 562//562
f 567//567 561//561 565//565
f 566//566 567//567 565//565
f 566//566 568//568 567//567
f 571//571 569//569 568//568
f 568//568 570//570 571//571
f 570//570 568//568 566//566
f 571//571 573//573 572//572
f 571//571 572//572 569//569
f 572//572 573//573 574//574
f 572//572 574//574 575//575
f 572//572 575//575 577//577
f 576//576 577//577 575//575
f 579//579 578//578 577//577
f 576//576 579//579 577//577
f 580//580 579//579 581//581
f 578//578 579//579 580//580
f 582//582 581//581 583//583
f 582//582 580//580 581//581
f 584//584 582//582 583//583
f 582//582 584//584 585//585
f 586//586 582//582 585//585
f 588//588 587//587 586//586
f 587//587 582//582 586//586
f 588//588 589//589 587//587
f 588//588 590//590 589//589
f 588//588 591//591 590//590
f 591//591 588//588 592//592
f 593//593 592//592 596//596
f 593//593 594//594 592//592
f 592//592 594//594 595//595
f 591//591 592//592 595//595
f 593//593 596//596 597//597
f 597//597 596//596 564//564
f 562//562 597//597 564//564
f 598//598 595//595 594//594
f 598//598 594//594 599//599
f 601//601 599//599 594//594
f 602//602 600//600 599//599
f 602//602 599//599 601//601
f 602//602 603//603 600//600
f 604//604 600//600 603//603
f 604//604 605//605 600//600
f 605//605 607//607 606//606
f 600//600 605//605 606//606
f 607//607 608//608 606//606
f 610//610 609//609 608//608
f 608//608 609//609 606//606
f 611//611 609//609 610//610
f 611//611 612//612 609//609
f 611//611 613//613 612//612
f 613//613 617//617 612//612
f 616//616 614//614 613//613
f 613//613 614//614 615//615
f 613//613 615//615 617//617
f 618//618 612//612 617//617
f 612//612 618//618 619//619
f 620//620 612//612 619//619
f 612//612 620//620 621//621
f 621//621 623//623 612//612
f 622//622 623//623 621//621
f 624//624 623//623 622//622
f 624//624 626//626 625//625
f 622//622 626//626 624//624
f 625//625 626//626 627//627
f 625//625 627//627 628//628
f 628//628 629//629 625//625
f 628//628 630//630 629//629
f 629//629 630//630 631//631
f 632//632 631//631 630//630
f 632//632 552//552 554//554
f 632//632 633//633 631//631
f 633//633 632//632 554//554
f 637//637 634//634 633//633
f 633//633 554//554 635//635
f 636//636 633//633 635//635
f 633//633 636//636 637//637
f 637//637 638//638 634//634
f 634//634 638//638 639//639
f 616//616 643//643 640//640
f 640//640 641//641 616//616
f 641//641 642//642 616//616
f 614//614 616//616 642//642
f 640//640 643//643 644//644
f 643//643 645//645 644//644
f 549//549 645//645 646//646
f 549//549 644//644 645//645
f 646//646 647//647 549//549
f 551//551 549//549 647//647
f 648//648 649//649 606//606
f 606//606 649//649 600//600
f 650//650 649//649 648//648
f 651//651 650//650 648//648
f 652//652 651//651 648//648
f 653//653 652//652 648//648
f 648//648 654//654 653//653
f 653//653 654//654 655//655
f 655//655 654//654 656//656
f 659//659 657//657 656//656
f 658//658 656//656 654//654
f 659//659 656//656 658//658
f 660//660 659//659 658//658
f 659//659 661//661 657//657
f 657//657 661//661 662//662
f 661//661 663//663 662//662
f 663//663 578//578 580//580
f 580//580 662//662 663//663
f 660//660 658//658 664//664
f 664//664 669//669 665//665
f 664//664 658//658 666//666
f 667//667 664//664 666//666
f 667//667 668//668 664//664
f 664//664 668//668 669//669
f 658//658 670//670 666//666
f 675//675 671//671 654//654
f 672//672 654//654 648//648
f 673//673 654//654 672//672
f 654//654 673//673 674//674
f 674//674 675//675 654//654
f 676//676 569//569 572//572
f 676//676 677//677 679//679
f 676//676 678//678 683//683
f 676//676 683//683 677//677
f 676//676 679//679 569//569
f 679//679 677//677 680//680
f 677//677 681//681 680//680
f 681//681 677//677 682//682
f 678//678 684//684 683//683
f 683//683 684//684 685//685
f 685//685 686//686 683//683
f 683//683 686//686 687//687
