# arm_12 exported from /models/landings/arm_12.glb
# units: meters
v -0.021929 0.001000 -0.016284
v -0.021128 0.001000 -0.017885
v -0.021718 0.001000 -0.017180
v -0.014224 0.001000 -0.012468
v -0.021929 0.001000 -0.009761
v -0.015867 0.001000 -0.009670
v -0.016078 0.001000 -0.006374
v -0.015830 0.001000 -0.005379
v -0.015693 0.001000 -0.004973
v -0.017696 0.001000 0.002646
v -0.014649 0.001000 -0.002362
v -0.011817 0.001000 0.002607
v -0.013353 0.001000 0.000168
v -0.010057 0.001000 0.004941
v -0.009274 0.001000 0.012958
v -0.008092 0.001000 0.007154
v -0.005938 0.001000 0.009234
v -0.003617 0.001000 0.011164
v -0.001149 0.001000 0.012930
v 0.001994 0.001000 0.020435
v 0.004138 0.001000 0.015918
v 0.006912 0.001000 0.017114
v 0.009742 0.001000 0.018097
v 0.014769 0.001000 0.024335
v 0.010719 0.001000 0.018383
v 0.022769 0.001000 0.020818
v 0.012808 0.001000 0.018640
v 0.022769 0.001000 0.024335
v 0.031769 0.001000 0.018640
v 0.032769 0.001000 0.019640
v 0.024769 0.001000 0.020818
v 0.032698 0.001000 0.019272
v 0.032476 0.001000 0.018933
v 0.032137 0.001000 0.018710
v 0.032488 0.001000 0.021807
v 0.032769 0.001000 0.020335
v 0.031597 0.001000 0.023163
v 0.024769 0.001000 0.021335
v 0.028769 0.001000 0.024335
v 0.030241 0.001000 0.024054
v 0.024769 0.001000 0.024335
v -0.016878 0.001000 -0.020320
v -0.011849 0.001000 -0.014103
v -0.013231 0.001000 -0.021247
v -0.008941 0.001000 -0.014653
v -0.004822 0.001000 -0.021247
v -0.004822 0.001000 -0.016247
v -0.004822 0.001000 -0.015970
v -0.002822 0.001000 -0.015970
v 0.006475 0.001000 -0.015970
v 0.015512 0.001000 -0.014653
v 0.016757 0.001000 -0.018218
v 0.013323 0.001000 -0.020269
v 0.017393 0.001000 -0.017332
v 0.017512 0.001000 -0.016684
v 0.008475 0.001000 -0.015970
v 0.017400 0.001000 -0.015994
v 0.017058 0.001000 -0.015384
v 0.016019 0.001000 -0.014718
v 0.016562 0.001000 -0.014950
v 0.009279 0.001000 -0.021214
v 0.008475 0.001000 -0.021247
v 0.017113 0.001000 -0.017852
v -0.002822 0.001000 -0.016247
v 0.006475 0.001000 -0.021247
v -0.002822 0.001000 -0.021247
v -0.014224 0.001000 -0.012468
v -0.014224 0.000000 -0.012468
v -0.015638 0.001000 -0.010304
v -0.015638 -0.001000 -0.010304
v -0.016181 0.001000 -0.007736
v -0.016181 -0.001000 -0.007736
v -0.015788 0.001000 -0.005253
v -0.015788 -0.001000 -0.005253
v -0.014846 0.001000 -0.002804
v -0.014846 -0.001000 -0.002804
v -0.013707 0.001000 -0.000470
v -0.013707 -0.001000 -0.000470
v -0.012381 0.001000 0.001763
v -0.012381 -0.001000 0.001763
v -0.010888 0.001000 0.003888
v -0.010888 -0.001000 0.003888
v -0.009244 0.001000 0.005899
v -0.009244 -0.001000 0.005899
v -0.007441 0.001000 0.007816
v -0.007441 -0.001000 0.007816
v -0.005565 0.001000 0.009563
v -0.005565 -0.001000 0.009563
v -0.003617 0.001000 0.011164
v -0.003617 -0.001000 0.011164
v -0.001449 0.001000 0.012729
v -0.001449 -0.001000 0.012729
v 0.000747 0.001000 0.014116
v 0.000747 -0.001000 0.014116
v 0.003023 0.001000 0.015368
v 0.003023 -0.001000 0.015368
v 0.005371 0.001000 0.016479
v 0.005371 -0.001000 0.016479
v 0.007781 0.001000 0.017441
v 0.007781 -0.001000 0.017441
v 0.010252 0.001000 0.018250
v 0.010252 -0.001000 0.018250
v 0.012808 -0.000000 0.018640
v 0.012808 0.001000 0.018640
v 0.012808 -0.001000 0.018640
v -0.014224 -0.001000 -0.012468
v 0.014769 0.001000 0.024335
v 0.009576 -0.000000 0.023255
v 0.009576 0.001000 0.023255
v 0.014769 -0.001000 0.024335
v 0.009576 -0.001000 0.023255
v 0.004494 -0.001000 0.021534
v 0.004494 -0.000000 0.021534
v -0.004986 -0.001000 0.016364
v -0.004986 0.001000 0.016364
v -0.013034 -0.001000 0.009161
v -0.013034 0.001000 0.009161
v -0.018912 -0.000000 0.000325
v -0.018912 -0.001000 0.000325
v -0.020821 -0.001000 -0.004586
v -0.021929 -0.001000 -0.009761
v -0.020821 0.000000 -0.004586
v -0.020821 0.001000 -0.004586
v -0.021929 0.001000 -0.009761
v -0.018912 0.001000 0.000325
v 0.004494 0.001000 0.021534
v 0.006475 -0.001000 -0.021247
v 0.006475 0.001000 -0.021247
v -0.002822 -0.001000 -0.021247
v -0.002822 0.001000 -0.021247
v -0.002822 -0.001000 -0.021247
v -0.002822 0.001000 -0.021247
v -0.002822 -0.001000 -0.015970
v -0.002822 0.001000 -0.015970
v -0.002822 -0.001000 -0.015970
v -0.002822 0.001000 -0.015970
v -0.004822 -0.001000 -0.015970
v -0.004822 0.001000 -0.015970
v -0.004822 -0.001000 -0.015970
v -0.004822 0.001000 -0.015970
v -0.004822 -0.001000 -0.021247
v -0.004822 0.001000 -0.021247
v -0.004822 -0.001000 -0.021247
v -0.004822 0.001000 -0.021247
v -0.013231 -0.001000 -0.021247
v -0.013231 0.001000 -0.021247
v -0.021929 -0.001000 -0.009761
v -0.021929 -0.001000 -0.016284
v -0.021929 0.001000 -0.009761
v -0.021929 0.001000 -0.016284
v 0.014769 -0.001000 0.024335
v 0.014769 0.001000 0.024335
v 0.022769 -0.001000 0.024335
v 0.022769 0.001000 0.024335
v 0.032769 -0.001000 0.020335
v 0.032769 0.001000 0.020335
v 0.032769 -0.001000 0.019640
v 0.032769 0.001000 0.019640
v 0.024769 -0.001000 0.024335
v 0.024769 0.001000 0.024335
v 0.028769 -0.001000 0.024335
v 0.028769 0.001000 0.024335
v 0.028769 -0.001000 0.024335
v 0.030288 -0.001000 0.024035
v 0.028769 0.001000 0.024335
v 0.030288 0.001000 0.024035
v 0.031626 0.001000 0.023134
v 0.031626 -0.001000 0.023134
v 0.032495 0.001000 0.021789
v 0.032495 -0.001000 0.021789
v 0.032769 0.001000 0.020335
v 0.032769 -0.001000 0.020335
v 0.008475 0.001000 -0.021247
v 0.008475 -0.001000 -0.021247
v 0.008475 0.001000 -0.015970
v 0.008475 -0.001000 -0.015970
v 0.008475 0.001000 -0.015970
v 0.008475 -0.001000 -0.015970
v 0.006475 0.001000 -0.015970
v 0.006475 -0.001000 -0.015970
v 0.006475 0.001000 -0.015970
v 0.006475 -0.001000 -0.015970
v 0.006475 0.001000 -0.021247
v 0.006475 -0.001000 -0.021247
v 0.022769 0.001000 0.020818
v 0.022769 -0.001000 0.020818
v 0.024769 0.001000 0.020818
v 0.024769 -0.001000 0.020818
v 0.024769 0.001000 0.020818
v 0.024769 0.001000 0.021335
v 0.024769 -0.001000 0.020818
v 0.024769 -0.001000 0.021335
v 0.024769 -0.001000 0.024335
v 0.024769 0.001000 0.024335
v 0.022769 0.001000 0.024335
v 0.022769 -0.001000 0.024335
v 0.022769 0.001000 0.020818
v 0.022769 -0.001000 0.020818
v 0.008475 0.001000 -0.021247
v 0.012895 0.000000 -0.020437
v 0.012895 0.001000 -0.020437
v 0.008475 -0.001000 -0.021247
v 0.012895 -0.001000 -0.020437
v 0.014913 -0.001000 -0.019481
v 0.016757 -0.001000 -0.018218
v 0.014913 0.000000 -0.019481
v 0.014913 0.001000 -0.019481
v 0.016757 0.000000 -0.018218
v 0.016757 0.001000 -0.018218
v -0.014224 -0.001000 -0.012468
v -0.014224 0.000000 -0.012468
v -0.013141 -0.001000 -0.013394
v -0.011849 -0.001000 -0.014103
v -0.013141 0.001000 -0.013394
v -0.014224 0.001000 -0.012468
v -0.011849 0.001000 -0.014103
v -0.010418 0.001000 -0.014533
v -0.010418 -0.001000 -0.014533
v -0.008941 0.001000 -0.014653
v -0.008941 -0.001000 -0.014653
v 0.012808 0.001000 0.018640
v 0.031769 0.001000 0.018640
v 0.012808 -0.000000 0.018640
v 0.012808 -0.001000 0.018640
v 0.031769 -0.001000 0.018640
v -0.008941 -0.001000 -0.014653
v -0.008941 0.001000 -0.014653
v 0.015512 -0.001000 -0.014653
v 0.015512 0.001000 -0.014653
v 0.032769 -0.001000 0.019640
v 0.032698 -0.001000 0.019272
v 0.032769 0.001000 0.019640
v 0.032698 0.001000 0.019272
v 0.032476 0.001000 0.018933
v 0.032137 0.001000 0.018710
v 0.032476 -0.001000 0.018933
v 0.032137 -0.001000 0.018710
v 0.031769 -0.001000 0.018640
v 0.031769 0.001000 0.018640
v 0.016757 0.001000 -0.018218
v 0.016757 0.000000 -0.018218
v 0.017113 0.001000 -0.017852
v 0.017393 0.001000 -0.017332
v 0.017113 -0.001000 -0.017852
v 0.016757 -0.001000 -0.018218
v 0.017393 -0.001000 -0.017332
v 0.017512 -0.001000 -0.016684
v 0.017400 -0.001000 -0.015994
v 0.017512 0.001000 -0.016684
v 0.017400 0.001000 -0.015994
v 0.017058 0.001000 -0.015384
v 0.016562 0.001000 -0.014950
v 0.017058 -0.001000 -0.015384
v 0.016562 -0.001000 -0.014950
v 0.016019 -0.001000 -0.014718
v 0.016019 0.001000 -0.014718
v 0.015512 -0.001000 -0.014653
v 0.015512 0.001000 -0.014653
v -0.013231 -0.001000 -0.021247
v -0.017394 0.000000 -0.020094
v -0.017394 -0.001000 -0.020094
v -0.013231 0.001000 -0.021247
v -0.017394 0.001000 -0.020094
v -0.019378 0.001000 -0.019052
v -0.021128 0.001000 -0.017885
v -0.019378 0.000000 -0.019052
v -0.021128 0.000000 -0.017885
v -0.019378 -0.001000 -0.019052
v -0.021128 -0.001000 -0.017885
v -0.021128 0.001000 -0.017885
v -0.021128 0.000000 -0.017885
v -0.021718 0.001000 -0.017180
v -0.021929 0.001000 -0.016284
v -0.021718 -0.001000 -0.017180
v -0.021128 -0.001000 -0.017885
v -0.021929 -0.001000 -0.016284
v -0.021929 -0.001000 -0.016284
v -0.021128 -0.001000 -0.017885
v -0.021718 -0.001000 -0.017180
v -0.014224 -0.001000 -0.012468
v -0.021929 -0.001000 -0.009761
v -0.015867 -0.001000 -0.009670
v -0.016078 -0.001000 -0.006374
v -0.015830 -0.001000 -0.005379
v -0.015693 -0.001000 -0.004973
v -0.017696 -0.001000 0.002646
v -0.014649 -0.001000 -0.002362
v -0.011817 -0.001000 0.002607
v -0.013353 -0.001000 0.000168
v -0.010057 -0.001000 0.004941
v -0.009274 -0.001000 0.012958
v -0.008092 -0.001000 0.007154
v -0.005938 -0.001000 0.009234
v -0.001149 -0.001000 0.012930
v -0.003617 -0.001000 0.011164
v 0.001994 -0.001000 0.020435
v 0.004138 -0.001000 0.015918
v 0.006912 -0.001000 0.017114
v 0.009742 -0.001000 0.018097
v 0.014769 -0.001000 0.024335
v 0.010719 -0.001000 0.018383
v 0.022769 -0.001000 0.020818
v 0.012808 -0.001000 0.018640
v 0.022769 -0.001000 0.024335
v 0.031769 -0.001000 0.018640
v 0.032488 -0.001000 0.021807
v 0.032769 -0.001000 0.020335
v 0.032769 -0.001000 0.019640
v 0.024769 -0.001000 0.020818
v 0.032698 -0.001000 0.019272
v 0.032476 -0.001000 0.018933
v 0.032137 -0.001000 0.018710
v 0.031597 -0.001000 0.023163
v 0.024769 -0.001000 0.021335
v 0.028769 -0.001000 0.024335
v 0.024769 -0.001000 0.024335
v 0.030241 -0.001000 0.024054
v -0.016878 -0.001000 -0.020320
v -0.011849 -0.001000 -0.014103
v -0.013231 -0.001000 -0.021247
v -0.008941 -0.001000 -0.014653
v -0.004822 -0.001000 -0.016247
v -0.004822 -0.001000 -0.021247
v -0.004822 -0.001000 -0.015970
v -0.002822 -0.001000 -0.015970
v 0.006475 -0.001000 -0.015970
v 0.015512 -0.001000 -0.014653
v 0.016757 -0.001000 -0.018218
v 0.013323 -0.001000 -0.020269
v 0.017393 -0.001000 -0.017332
v 0.017512 -0.001000 -0.016684
v 0.008475 -0.001000 -0.015970
v 0.017058 -0.001000 -0.015384
v 0.017400 -0.001000 -0.015994
v 0.016019 -0.001000 -0.014718
v 0.016562 -0.001000 -0.014950
v 0.009279 -0.001000 -0.021214
v 0.008475 -0.001000 -0.021247
v 0.017113 -0.001000 -0.017852
v -0.002822 -0.001000 -0.016247
v 0.006475 -0.001000 -0.021247
v -0.002822 -0.001000 -0.021247
vn 0.000000 1.000000 0.000000
vn 0.000000 1.000000 0.000000
vn 0.000000 1.000000 0.000000
vn 0.000000 1.000000 0.000000
vn 0.000000 1.000000 0.000000
vn 0.000000 1.000000 0.000000
vn 0.000000 1.000000 0.000000
vn 0.000000 1.000000 0.000000
vn 0.000000 1.000000 0.000000
vn 0.000000 1.000000 0.000000
vn 0.000000 1.000000 0.000000
vn 0.000000 1.000000 0.000000
vn 0.000000 1.000000 0.000000
vn 0.000000 1.000000 0.000000
vn 0.000000 1.000000 0.000000
vn 0.000000 1.000000 0.000000
vn 0.000000 1.000000 0.000000
vn 0.000000 1.000000 0.000000
vn 0.000000 1.000000 0.000000
vn 0.000000 1.000000 0.000000
vn 0.000000 1.000000 0.000000
vn 0.000000 1.000000 0.000000
vn 0.000000 1.000000 0.000000
vn 0.000000 1.000000 0.000000
vn 0.000000 1.000000 0.000000
vn 0.000000 1.000000 0.000000
vn 0.000000 1.000000 0.000000
vn 0.000000 1.000000 0.000000
vn 0.000000 1.000000 0.000000
vn 0.000000 1.000000 0.000000
vn 0.000000 1.000000 0.000000
vn 0.000000 1.000000 0.000000
vn 0.000000 1.000000 0.000000
vn 0.000000 1.000000 0.000000
vn 0.000000 1.000000 0.000000
vn 0.000000 1.000000 0.000000
vn 0.000000 1.000000 0.000000
vn 0.000000 1.000000 0.000000
vn 0.000000 1.000000 0.000000
vn 0.000000 1.000000 0.000000
vn 0.000000 1.000000 0.000000
vn 0.000000 1.000000 0.000000
vn 0.000000 1.000000 0.000000
vn 0.000000 1.000000 0.000000
vn 0.000000 1.000000 0.000000
vn 0.000000 1.000000 0.000000
vn 0.000000 1.000000 0.000000
vn 0.000000 1.000000 0.000000
vn 0.000000 1.000000 0.000000
vn 0.000000 1.000000 0.000000
vn 0.000000 1.000000 0.000000
vn 0.000000 1.000000 0.000000
vn 0.000000 1.000000 0.000000
vn 0.000000 1.000000 0.000000
vn 0.000000 1.000000 0.000000
vn 0.000000 1.000000 0.000000
vn 0.000000 1.000000 0.000000
vn 0.000000 1.000000 0.000000
vn 0.000000 1.000000 0.000000
vn 0.000000 1.000000 0.000000
vn 0.000000 1.000000 0.000000
vn 0.000000 1.000000 0.000000
vn 0.000000 1.000000 0.000000
vn 0.000000 1.000000 0.000000
vn 0.000000 1.000000 0.000000
vn 0.000000 1.000000 0.000000
vn 0.723122 -0.000000 0.690721
vn 0.723122 -0.000000 0.690721
vn 0.923086 -0.000000 0.384594
vn 0.923086 -0.000000 0.384594
vn 0.999767 -0.000000 0.021599
vn 0.999767 -0.000000 0.021599
vn 0.948693 0.000000 -0.316198
vn 0.948693 0.000000 -0.316198
vn 0.916513 0.000000 -0.400006
vn 0.916513 0.000000 -0.400006
vn 0.879670 0.000000 -0.475584
vn 0.879670 0.000000 -0.475584
vn 0.839286 0.000000 -0.543691
vn 0.839286 0.000000 -0.543691
vn 0.796434 0.000000 -0.604726
vn 0.796434 0.000000 -0.604726
vn 0.751467 0.000000 -0.659771
vn 0.751467 0.000000 -0.659771
vn 0.704803 0.000000 -0.709403
vn 0.704803 0.000000 -0.709403
vn 0.658009 0.000000 -0.753010
vn 0.658009 0.000000 -0.753010
vn 0.610904 0.000000 -0.791705
vn 0.610904 0.000000 -0.791705
vn 0.559468 0.000000 -0.828852
vn 0.559468 0.000000 -0.828852
vn 0.508217 0.000000 -0.861229
vn 0.508217 0.000000 -0.861229
vn 0.454917 0.000000 -0.890534
vn 0.454917 0.000000 -0.890534
vn 0.399391 0.000000 -0.916780
vn 0.399391 0.000000 -0.916780
vn 0.341197 0.000000 -0.939992
vn 0.341197 0.000000 -0.939992
vn 0.280000 0.000000 -0.960000
vn 0.280000 0.000000 -0.960000
vn -0.027101 0.000000 -0.999633
vn -0.027101 0.000000 -0.999633
vn -0.027101 0.000000 -0.999633
vn 0.723122 -0.000000 0.690721
vn -0.141099 -0.000000 0.989995
vn -0.263608 -0.000000 0.964630
vn -0.263608 -0.000000 0.964630
vn -0.141099 -0.000000 0.989995
vn -0.263608 -0.000000 0.964630
vn -0.375594 -0.000000 0.926784
vn -0.375594 -0.000000 0.926784
vn -0.575206 -0.000000 0.818009
vn -0.575273 -0.000000 0.817962
vn -0.752310 -0.000000 0.658809
vn -0.752310 -0.000000 0.658809
vn -0.901879 -0.000000 0.431990
vn -0.901879 -0.000000 0.431990
vn -0.957418 -0.000000 0.288705
vn -0.991877 -0.000000 0.127197
vn -0.957418 -0.000000 0.288705
vn -0.957418 -0.000000 0.288705
vn -0.991877 -0.000000 0.127197
vn -0.901879 -0.000000 0.431990
vn -0.375594 -0.000000 0.926784
vn 0.000000 0.000000 -1.000000
vn 0.000000 0.000000 -1.000000
vn 0.000000 0.000000 -1.000000
vn 0.000000 0.000000 -1.000000
vn -1.000000 0.000000 0.000000
vn -1.000000 0.000000 0.000000
vn -1.000000 0.000000 0.000000
vn -1.000000 0.000000 0.000000
vn 0.000000 0.000000 -1.000000
vn 0.000000 0.000000 -1.000000
vn 0.000000 0.000000 -1.000000
vn 0.000000 0.000000 -1.000000
vn 1.000000 0.000000 0.000000
vn 1.000000 0.000000 0.000000
vn 1.000000 0.000000 0.000000
vn 1.000000 0.000000 0.000000
vn 0.000000 0.000000 -1.000000
vn 0.000000 0.000000 -1.000000
vn 0.000000 0.000000 -1.000000
vn 0.000000 0.000000 -1.000000
vn -1.000000 0.000000 0.000000
vn -1.000000 0.000000 0.000000
vn -1.000000 0.000000 0.000000
vn -1.000000 0.000000 0.000000
vn 0.000000 -0.000000 1.000000
vn 0.000000 -0.000000 1.000000
vn 0.000000 -0.000000 1.000000
vn 0.000000 -0.000000 1.000000
vn 1.000000 0.000000 0.000000
vn 1.000000 0.000000 0.000000
vn 1.000000 0.000000 0.000000
vn 1.000000 0.000000 0.000000
vn 0.000000 -0.000000 1.000000
vn 0.000000 -0.000000 1.000000
vn 0.000000 -0.000000 1.000000
vn 0.000000 -0.000000 1.000000
vn 0.000100 -0.000000 1.000000
vn 0.379910 -0.000000 0.925024
vn 0.000100 -0.000000 1.000000
vn 0.379910 -0.000000 0.925024
vn 0.714468 -0.000000 0.699668
vn 0.714468 -0.000000 0.699668
vn 0.931629 -0.000000 0.363411
vn 0.931629 -0.000000 0.363411
vn 1.000000 -0.000100 0.000100
vn 1.000000 -0.000000 0.000100
vn -1.000000 0.000000 0.000000
vn -1.000000 0.000000 0.000000
vn -1.000000 0.000000 0.000000
vn -1.000000 0.000000 0.000000
vn 0.000000 0.000000 -1.000000
vn 0.000000 0.000000 -1.000000
vn 0.000000 0.000000 -1.000000
vn 0.000000 0.000000 -1.000000
vn 1.000000 0.000000 0.000000
vn 1.000000 0.000000 0.000000
vn 1.000000 0.000000 0.000000
vn 1.000000 0.000000 0.000000
vn 0.000000 -0.000000 1.000000
vn 0.000000 -0.000000 1.000000
vn 0.000000 -0.000000 1.000000
vn 0.000000 -0.000000 1.000000
vn -1.000000 0.000000 0.000000
vn -1.000000 0.000000 0.000000
vn -1.000000 0.000000 0.000000
vn -1.000000 0.000000 0.000000
vn -1.000000 0.000000 0.000000
vn -1.000000 0.000000 0.000000
vn 1.000000 0.000000 0.000000
vn 1.000000 0.000000 0.000000
vn 1.000000 0.000000 0.000000
vn 1.000000 0.000000 0.000000
vn 0.012200 0.000000 -0.999926
vn 0.349479 0.000000 -0.936944
vn 0.349391 0.000000 -0.936977
vn 0.012200 0.000000 -0.999926
vn 0.349391 0.000000 -0.936977
vn 0.501288 0.000000 -0.865280
vn 0.622180 0.000000 -0.782875
vn 0.501288 0.000000 -0.865280
vn 0.501288 0.000000 -0.865280
vn 0.622180 0.000000 -0.782875
vn 0.622180 0.000000 -0.782875
vn 0.723024 -0.000000 0.690823
vn 0.722974 -0.000000 0.690875
vn 0.569792 -0.000000 0.821789
vn 0.386908 -0.000000 0.922118
vn 0.569792 -0.000000 0.821789
vn 0.723024 -0.000000 0.690823
vn 0.386908 -0.000000 0.922118
vn 0.184892 -0.000000 0.982759
vn 0.184892 -0.000000 0.982759
vn -0.023900 -0.000000 0.999714
vn -0.023900 -0.000000 0.999714
vn 0.000000 0.000000 -1.000000
vn 0.000000 0.000000 -1.000000
vn 0.000000 0.000000 -1.000000
vn 0.000000 0.000000 -1.000000
vn 0.000000 0.000000 -1.000000
vn 0.000000 -0.000000 1.000000
vn 0.000000 -0.000000 1.000000
vn 0.000000 -0.000000 1.000000
vn 0.000000 -0.000000 1.000000
vn 1.000000 0.000000 -0.000100
vn 0.929788 0.000000 -0.368095
vn 1.000000 0.000000 -0.000100
vn 0.929788 0.000000 -0.368095
vn 0.707107 0.000000 -0.707107
vn 0.368095 0.000000 -0.929788
vn 0.707107 0.000000 -0.707107
vn 0.368095 0.000000 -0.929788
vn 0.000100 0.000000 -1.000000
vn 0.000100 0.000000 -1.000000
vn 0.622290 0.000000 -0.782787
vn 0.622290 0.000000 -0.782787
vn 0.800300 0.000000 -0.599600
vn 0.940530 0.000000 -0.339711
vn 0.800300 0.000000 -0.599600
vn 0.622290 0.000000 -0.782787
vn 0.940530 0.000000 -0.339711
vn 0.999878 0.000000 -0.015600
vn 0.944160 -0.000000 0.329486
vn 0.999878 0.000000 -0.015600
vn 0.944160 -0.000000 0.329486
vn 0.773003 -0.000000 0.634403
vn 0.524884 -0.000000 0.851174
vn 0.773003 -0.000000 0.634403
vn 0.524884 -0.000000 0.851174
vn 0.253391 -0.000000 0.967364
vn 0.253391 -0.000000 0.967364
vn 0.000100 -0.000000 1.000000
vn 0.000100 -0.000000 1.000000
vn -0.000100 0.000000 -1.000000
vn -0.415618 0.000000 -0.909539
vn -0.415701 0.000000 -0.909502
vn -0.000100 0.000000 -1.000000
vn -0.415701 0.000000 -0.909502
vn -0.511419 0.000000 -0.859332
vn -0.599088 0.000000 -0.800684
vn -0.511301 0.000000 -0.859402
vn -0.599088 0.000000 -0.800684
vn -0.511419 0.000000 -0.859332
vn -0.599088 0.000000 -0.800684
vn -0.599264 0.000000 -0.800552
vn -0.599200 0.000000 -0.800600
vn -0.894187 0.000000 -0.447694
vn -1.000000 0.000000 -0.000100
vn -0.894187 0.000000 -0.447694
vn -0.599264 0.000000 -0.800552
vn -1.000000 0.000000 -0.000100
vn 0.000000 -1.000000 -0.000000
vn 0.000000 -1.000000 -0.000000
vn 0.000000 -1.000000 -0.000000
vn 0.000000 -1.000000 -0.000000
vn 0.000000 -1.000000 -0.000000
vn 0.000000 -1.000000 -0.000000
vn 0.000000 -1.000000 -0.000000
vn 0.000000 -1.000000 -0.000000
vn 0.000000 -1.000000 -0.000000
vn 0.000000 -1.000000 -0.000000
vn 0.000000 -1.000000 -0.000000
vn 0.000000 -1.000000 -0.000000
vn 0.000000 -1.000000 -0.000000
vn 0.000000 -1.000000 -0.000000
vn 0.000000 -1.000000 -0.000000
vn 0.000000 -1.000000 -0.000000
vn 0.000000 -1.000000 -0.000000
vn 0.000000 -1.000000 -0.000000
vn 0.000000 -1.000000 -0.000000
vn 0.000000 -1.000000 -0.000000
vn 0.000000 -1.000000 -0.000000
vn 0.000000 -1.000000 -0.000000
vn 0.000000 -1.000000 -0.000000
vn 0.000000 -1.000000 -0.000000
vn 0.000000 -1.000000 -0.000000
vn 0.000000 -1.000000 -0.000000
vn 0.000000 -1.000000 -0.000000
vn 0.000000 -1.000000 -0.000000
vn 0.000000 -1.000000 -0.000000
vn 0.000000 -1.000000 -0.000000
vn 0.000000 -1.000000 -0.000000
vn 0.000000 -1.000000 -0.000000
vn 0.000000 -1.000000 -0.000000
vn 0.000000 -1.000000 -0.000000
vn 0.000000 -1.000000 -0.000000
vn 0.000000 -1.000000 -0.000000
vn 0.000000 -1.000000 -0.000000
vn 0.000000 -1.000000 -0.000000
vn 0.000000 -1.000000 -0.000000
vn 0.000000 -1.000000 -0.000000
vn 0.000000 -1.000000 -0.000000
vn 0.000000 -1.000000 -0.000000
vn 0.000000 -1.000000 -0.000000
vn 0.000000 -1.000000 -0.000000
vn 0.000000 -1.000000 -0.000000
vn 0.000000 -1.000000 -0.000000
vn 0.000000 -1.000000 -0.000000
vn 0.000000 -1.000000 -0.000000
vn 0.000000 -1.000000 -0.000000
vn 0.000000 -1.000000 -0.000000
vn 0.000000 -1.000000 -0.000000
vn 0.000000 -1.000000 -0.000000
vn 0.000000 -1.000000 -0.000000
vn 0.000000 -1.000000 -0.000000
vn 0.000000 -1.000000 -0.000000
vn 0.000000 -1.000000 -0.000000
vn 0.000000 -1.000000 -0.000000
vn 0.000000 -1.000000 -0.000000
vn 0.000000 -1.000000 -0.000000
vn 0.000000 -1.000000 -0.000000
vn 0.000000 -1.000000 -0.000000
vn 0.000000 -1.000000 -0.000000
vn 0.000000 -1.000000 -0.000000
vn 0.000000 -1.000000 -0.000000
vn 0.000000 -1.000000 -0.000000
vn 0.000000 -1.000000 -0.000000
f 1//1 4//4 2//2
f 2//2 3//3 1//1
f 5//5 4//4 1//1
f 4//4 5//5 6//6
f 7//7 6//6 5//5
f 5//5 8//8 7//7
f 8//8 5//5 9//9
f 10//10 9//9 5//5
f 10//10 11//11 9//9
f 11//11 10//10 13//13
f 10//10 14//14 12//12
f 12//12 13//13 10//10
f 10//10 15//15 14//14
f 15//15 16//16 14//14
f 16//16 15//15 17//17
f 15//15 18//18 17//17
f 15//15 19//19 18//18
f 19//19 15//15 20//20
f 21//21 19//19 20//20
f 20//20 22//22 21//21
f 23//23 22//22 20//20
f 24//24 23//23 20//20
f 23//23 24//24 25//25
f 24//24 27//27 25//25
f 28//28 26//26 24//24
f 26//26 27//27 24//24
f 26//26 29//29 27//27
f 30//30 29//29 36//36
f 30//30 32//32 29//29
f 29//29 31//31 35//35
f 31//31 29//29 26//26
f 32//32 33//33 29//29
f 34//34 29//29 33//33
f 29//29 35//35 36//36
f 37//37 35//35 31//31
f 37//37 31//31 38//38
f 37//37 38//38 39//39
f 40//40 37//37 39//39
f 39//39 38//38 41//41
f 2//2 4//4 42//42
f 4//4 43//43 42//42
f 42//42 43//43 44//44
f 45//45 44//44 43//43
f 44//44 45//45 46//46
f 45//45 47//47 46//46
f 45//45 48//48 47//47
f 49//49 48//48 45//45
f 49//49 45//45 50//50
f 50//50 45//45 51//51
f 52//52 51//51 54//54
f 52//52 53//53 51//51
f 56//56 51//51 53//53
f 54//54 51//51 55//55
f 57//57 55//55 51//51
f 56//56 50//50 51//51
f 51//51 58//58 57//57
f 58//58 51//51 60//60
f 59//59 60//60 51//51
f 53//53 61//61 56//56
f 62//62 56//56 61//61
f 54//54 63//63 52//52
f 50//50 64//64 49//49
f 50//50 65//65 66//66
f 50//50 66//66 64//64
f 68//68 67//67 69//69
f 69//69 70//70 68//68
f 72//72 70//70 69//69
f 72//72 69//69 71//71
f 74//74 72//72 71//71
f 74//74 71//71 73//73
f 76//76 74//74 73//73
f 76//76 73//73 75//75
f 78//78 76//76 75//75
f 78//78 75//75 77//77
f 80//80 78//78 77//77
f 80//80 77//77 79//79
f 82//82 80//80 79//79
f 82//82 79//79 81//81
f 84//84 82//82 81//81
f 84//84 81//81 83//83
f 86//86 84//84 83//83
f 86//86 83//83 85//85
f 88//88 86//86 85//85
f 88//88 85//85 87//87
f 90//90 88//88 87//87
f 90//90 87//87 89//89
f 92//92 90//90 89//89
f 92//92 89//89 91//91
f 94//94 92//92 91//91
f 94//94 91//91 93//93
f 96//96 94//94 93//93
f 96//96 93//93 95//95
f 98//98 96//96 95//95
f 98//98 95//95 97//97
f 100//100 98//98 97//97
f 100//100 97//97 99//99
f 102//102 100//100 99//99
f 102//102 99//99 101//101
f 101//101 103//103 102//102
f 103//103 101//101 104//104
f 105//105 102//102 103//103
f 106//106 68//68 70//70
f 107//107 108//108 110//110
f 108//108 107//107 109//109
f 111//111 110//110 108//108
f 112//112 111//111 108//108
f 112//112 108//108 113//113
f 114//114 112//112 113//113
f 116//116 114//114 115//115
f 116//116 115//115 117//117
f 115//115 114//114 113//113
f 116//116 117//117 118//118
f 118//118 119//119 116//116
f 120//120 119//119 118//118
f 120//120 118//118 122//122
f 120//120 122//122 121//121
f 122//122 123//123 124//124
f 122//122 118//118 125//125
f 122//122 125//125 123//123
f 124//124 121//121 122//122
f 117//117 125//125 118//118
f 113//113 126//126 115//115
f 113//113 108//108 109//109
f 113//113 109//109 126//126
f 128//128 127//127 129//129
f 128//128 129//129 130//130
f 132//132 131//131 133//133
f 132//132 133//133 134//134
f 136//136 135//135 137//137
f 136//136 137//137 138//138
f 140//140 139//139 141//141
f 140//140 141//141 142//142
f 144//144 143//143 145//145
f 144//144 145//145 146//146
f 150//150 148//148 147//147
f 150//150 147//147 149//149
f 152//152 151//151 153//153
f 152//152 153//153 154//154
f 156//156 155//155 157//157
f 156//156 157//157 158//158
f 160//160 159//159 161//161
f 160//160 161//161 162//162
f 164//164 166//166 165//165
f 164//164 165//165 163//163
f 167//167 166//166 164//164
f 167//167 164//164 168//168
f 169//169 167//167 168//168
f 169//169 168//168 170//170
f 172//172 171//171 169//169
f 172//172 169//169 170//170
f 174//174 176//176 175//175
f 174//174 175//175 173//173
f 178//178 180//180 179//179
f 178//178 179//179 177//177
f 182//182 184//184 183//183
f 182//182 183//183 181//181
f 186//186 188//188 187//187
f 186//186 187//187 185//185
f 192//192 190//190 189//189
f 192//192 189//189 191//191
f 190//190 192//192 193//193
f 190//190 193//193 194//194
f 196//196 198//198 197//197
f 196//196 197//197 195//195
f 199//199 200//200 202//202
f 200//200 199//199 201//201
f 203//203 202//202 200//200
f 204//204 203//203 200//200
f 204//204 200//200 206//206
f 208//208 205//205 204//204
f 208//208 204//204 206//206
f 206//206 200//200 201//201
f 206//206 201//201 207//207
f 206//206 207//207 209//209
f 206//206 209//209 208//208
f 210//210 212//212 211//211
f 213//213 216//216 214//214
f 213//213 214//214 212//212
f 214//214 211//211 212//212
f 211//211 214//214 215//215
f 216//216 213//213 218//218
f 216//216 218//218 217//217
f 217//217 218//218 220//220
f 217//217 220//220 219//219
f 222//222 223//223 221//221
f 225//225 224//224 223//223
f 223//223 222//222 225//225
f 226//226 228//228 229//229
f 226//226 229//229 227//227
f 231//231 233//233 232//232
f 231//231 232//232 230//230
f 236//236 234//234 233//233
f 236//236 233//233 231//231
f 237//237 235//235 234//234
f 237//237 234//234 236//236
f 238//238 239//239 235//235
f 238//238 235//235 237//237
f 241//241 240//240 242//242
f 243//243 246//246 244//244
f 243//243 244//244 242//242
f 241//241 242//242 244//244
f 244//244 245//245 241//241
f 249//249 247//247 246//246
f 249//249 246//246 243//243
f 250//250 248//248 247//247
f 250//250 247//247 249//249
f 251//251 253//253 248//248
f 251//251 248//248 250//250
f 252//252 254//254 253//253
f 252//252 253//253 251//251
f 256//256 255//255 254//254
f 256//256 254//254 252//252
f 258//258 257//257 255//255
f 258//258 255//255 256//256
f 259//259 260//260 262//262
f 260//260 259//259 261//261
f 263//263 262//262 260//260
f 264//264 263//263 260//260
f 264//264 260//260 266//266
f 267//267 265//265 264//264
f 267//267 264//264 266//266
f 266//266 268//268 269//269
f 266//266 269//269 267//267
f 266//266 260//260 261//261
f 266//266 261//261 268//268
f 271//271 272//272 270//270
f 273//273 272//272 274//274
f 273//273 274//274 276//276
f 271//271 274//274 272//272
f 274//274 271//271 275//275
f 277//277 278//278 280//280
f 278//278 277//277 279//279
f 281//281 277//277 280//280
f 280//280 282//282 281//281
f 283//283 281//281 282//282
f 281//281 283//283 284//284
f 284//284 285//285 281//281
f 286//286 281//281 285//285
f 287//287 289//289 286//286
f 286//286 285//285 287//287
f 286//286 288//288 290//290
f 288//288 286//286 289//289
f 286//286 290//290 291//291
f 291//291 290//290 292//292
f 292//292 293//293 291//291
f 291//291 293//293 295//295
f 294//294 296//296 291//291
f 291//291 295//295 294//294
f 297//297 296//296 294//294
f 296//296 297//297 298//298
f 299//299 296//296 298//298
f 300//300 296//296 299//299
f 299//299 301//301 300//300
f 300//300 301//301 303//303
f 304//304 300//300 302//302
f 302//302 300//300 303//303
f 302//302 303//303 305//305
f 305//305 306//306 309//309
f 305//305 307//307 306//306
f 309//309 302//302 305//305
f 308//308 307//307 305//305
f 308//308 305//305 310//310
f 310//310 305//305 311//311
f 312//312 311//311 305//305
f 313//313 309//309 306//306
f 313//313 314//314 309//309
f 313//313 315//315 314//314
f 315//315 316//316 314//314
f 317//317 315//315 313//313
f 278//278 318//318 280//280
f 280//280 318//318 319//319
f 318//318 320//320 319//319
f 321//321 319//319 320//320
f 321//321 322//322 324//324
f 321//321 323//323 322//322
f 320//320 323//323 321//321
f 325//325 321//321 324//324
f 325//325 326//326 321//321
f 326//326 327//327 321//321
f 328//328 330//330 327//327
f 328//328 327//327 329//329
f 332//332 329//329 327//327
f 330//330 331//331 327//327
f 334//334 327//327 331//331
f 332//332 327//327 326//326
f 333//333 336//336 327//327
f 327//327 334//334 333//333
f 335//335 327//327 336//336
f 329//329 332//332 337//337
f 338//338 337//337 332//332
f 330//330 328//328 339//339
f 326//326 340//340 341//341
f 326//326 325//325 340//340
f 340//340 342//342 341//341
