# arm_20 exported from /models/landings/arm_20.glb
# units: meters
v -0.002673 0.001000 -0.018326
v -0.002673 0.001000 -0.014797
v -0.008728 0.001000 -0.018326
v -0.010347 0.001000 -0.017817
v -0.006673 0.001000 -0.008212
v -0.017614 0.001000 -0.012128
v -0.002673 0.001000 -0.013681
v -0.003384 0.001000 -0.009823
v -0.000173 0.001000 -0.010326
v -0.000673 0.001000 -0.013681
v 0.004327 0.001000 -0.013681
v -0.000673 0.001000 -0.014797
v 0.004327 0.001000 -0.014797
v -0.000673 0.001000 -0.018326
v 0.004327 0.001000 -0.018326
v 0.003064 0.001000 -0.009815
v 0.006327 0.001000 -0.013681
v 0.006327 0.001000 -0.014797
v 0.006377 0.001000 -0.008179
v 0.017269 0.001000 -0.012128
v 0.010002 0.001000 -0.017817
v 0.008382 0.001000 -0.018326
v 0.006327 0.001000 -0.018326
v 0.012455 0.001000 -0.001354
v 0.023476 0.001000 -0.001833
v 0.026327 0.001000 0.011913
v 0.021327 0.001000 0.016674
v 0.026327 0.001000 0.011949
v 0.026327 0.001000 0.020674
v 0.023327 0.001000 0.016674
v 0.023327 0.001000 0.021674
v 0.025327 0.001000 0.021674
v 0.026257 0.001000 0.021042
v 0.026034 0.001000 0.021381
v 0.025695 0.001000 0.021604
v 0.021327 0.001000 0.021674
v 0.018005 0.001000 0.020691
v 0.019005 0.001000 0.021674
v 0.018080 0.001000 0.021055
v 0.018304 0.001000 0.021387
v 0.018640 0.001000 0.021605
v -0.023821 0.001000 -0.001833
v -0.011381 0.001000 -0.003526
v -0.015155 0.001000 0.003535
v -0.018350 0.001000 0.020691
v -0.026672 0.001000 0.011913
v -0.021673 0.001000 0.016674
v -0.023673 0.001000 0.016674
v -0.026673 0.001000 0.011949
v -0.021673 0.001000 0.021674
v -0.019350 0.001000 0.021674
v -0.018425 0.001000 0.021055
v -0.018986 0.001000 0.021605
v -0.018649 0.001000 0.021387
v -0.026673 0.001000 0.020674
v -0.025673 0.001000 0.021674
v -0.023673 0.001000 0.021674
v -0.026602 0.001000 0.021042
v -0.026380 0.001000 0.021381
v -0.026041 0.001000 0.021604
v -0.008728 -0.001000 -0.018326
v -0.011977 0.000000 -0.016868
v -0.011977 -0.001000 -0.016868
v -0.008728 0.001000 -0.018326
v -0.011977 0.001000 -0.016868
v -0.016358 0.001000 -0.013377
v -0.016358 0.000000 -0.013377
v -0.021999 0.001000 -0.005918
v -0.021999 -0.001000 -0.005918
v -0.025341 -0.000000 0.002659
v -0.025341 0.001000 0.002659
v -0.026263 0.001000 0.006968
v -0.026263 -0.000000 0.006968
v -0.026673 0.001000 0.011949
v -0.026673 -0.001000 0.011949
v -0.026263 -0.001000 0.006968
v -0.025341 -0.001000 0.002659
v -0.016358 -0.001000 -0.013377
v -0.025673 -0.001000 0.021674
v -0.026041 -0.001000 0.021604
v -0.025673 0.001000 0.021674
v -0.026041 0.001000 0.021604
v -0.026380 0.001000 0.021381
v -0.026380 -0.001000 0.021381
v -0.026602 0.001000 0.021042
v -0.026673 0.001000 0.020674
v -0.026602 -0.001000 0.021042
v -0.026673 -0.001000 0.020674
v -0.026673 -0.001000 0.020674
v -0.026673 -0.001000 0.011949
v -0.026673 0.001000 0.020674
v -0.026673 0.001000 0.011949
v -0.021673 0.001000 0.016674
v -0.021673 0.001000 0.021674
v -0.021673 -0.001000 0.016674
v -0.021673 -0.001000 0.021674
v -0.023673 -0.001000 0.021674
v -0.025673 -0.001000 0.021674
v -0.023673 0.001000 0.021674
v -0.025673 0.001000 0.021674
v -0.023673 0.001000 0.016674
v -0.023673 0.001000 0.021674
v -0.023673 -0.001000 0.016674
v -0.023673 -0.001000 0.021674
v -0.023673 0.001000 0.016674
v -0.021673 0.001000 0.016674
v -0.023673 -0.001000 0.016674
v -0.021673 -0.001000 0.016674
v -0.019350 0.001000 0.021674
v -0.019350 -0.001000 0.021674
v -0.021673 0.001000 0.021674
v -0.021673 -0.001000 0.021674
v -0.019350 -0.001000 0.021674
v -0.018986 -0.001000 0.021605
v -0.019350 0.001000 0.021674
v -0.018986 0.001000 0.021605
v -0.018649 0.001000 0.021387
v -0.018649 -0.001000 0.021387
v -0.018425 0.001000 0.021055
v -0.018350 0.001000 0.020691
v -0.018350 -0.000000 0.020691
v -0.018425 -0.001000 0.021055
v -0.018350 -0.001000 0.020691
v -0.018350 -0.001000 0.020691
v -0.018350 -0.000000 0.020691
v -0.018293 -0.000500 0.018954
v -0.018110 -0.001000 0.016396
v -0.017510 -0.001000 0.012010
v -0.018088 -0.000500 0.016168
v -0.018088 -0.000000 0.016168
v -0.018293 -0.000000 0.018954
v -0.018088 0.000500 0.016168
v -0.016525 -0.001000 0.007672
v -0.016525 0.001000 0.007672
v -0.017510 0.001000 0.012010
v -0.018110 0.001000 0.016396
v -0.018293 0.000500 0.018954
v -0.018350 0.001000 0.020691
v -0.015155 0.001000 0.003535
v -0.015155 -0.001000 0.003535
v -0.011381 0.001000 -0.003526
v -0.006673 0.001000 -0.008212
v -0.011381 -0.001000 -0.003526
v -0.006673 -0.001000 -0.008212
v 0.008382 0.001000 -0.018326
v 0.011632 0.000000 -0.016868
v 0.011632 0.001000 -0.016868
v 0.008382 -0.001000 -0.018326
v 0.011632 -0.001000 -0.016868
v 0.016012 -0.001000 -0.013377
v 0.016012 0.000000 -0.013377
v 0.021654 -0.001000 -0.005918
v 0.021654 0.001000 -0.005918
v 0.024996 -0.000000 0.002659
v 0.024996 -0.001000 0.002659
v 0.025918 -0.001000 0.006968
v 0.026327 -0.001000 0.011949
v 0.025918 -0.000000 0.006968
v 0.026327 0.001000 0.011949
v 0.025918 0.001000 0.006968
v 0.024996 0.001000 0.002659
v 0.016012 0.001000 -0.013377
v 0.025327 0.001000 0.021674
v 0.025695 0.001000 0.021604
v 0.025327 -0.001000 0.021674
v 0.025695 -0.001000 0.021604
v 0.026034 -0.001000 0.021381
v 0.026034 0.001000 0.021381
v 0.026257 -0.001000 0.021042
v 0.026257 0.001000 0.021042
v 0.026327 -0.001000 0.020674
v 0.026327 0.001000 0.020674
v 0.026327 0.001000 0.020674
v 0.026327 0.001000 0.011949
v 0.026327 -0.001000 0.020674
v 0.026327 -0.001000 0.011949
v 0.004327 -0.001000 -0.013681
v 0.004327 0.001000 -0.013681
v 0.004327 -0.001000 -0.014797
v 0.004327 -0.001000 -0.018326
v 0.004327 0.001000 -0.014797
v 0.004327 0.001000 -0.018326
v 0.008382 -0.001000 -0.018326
v 0.008382 0.001000 -0.018326
v 0.006327 -0.001000 -0.018326
v 0.006327 0.001000 -0.018326
v 0.006327 -0.001000 -0.013681
v 0.006327 0.001000 -0.013681
v 0.006327 -0.001000 -0.014797
v 0.006327 0.001000 -0.014797
v 0.006327 -0.001000 -0.018326
v 0.006327 0.001000 -0.018326
v 0.006327 -0.001000 -0.013681
v 0.006327 0.001000 -0.013681
v 0.004327 -0.001000 -0.013681
v 0.004327 0.001000 -0.013681
v -0.002673 -0.001000 -0.013681
v -0.002673 0.001000 -0.013681
v -0.002673 -0.001000 -0.014797
v -0.002673 -0.001000 -0.018326
v -0.002673 0.001000 -0.014797
v -0.002673 0.001000 -0.018326
v 0.004327 -0.001000 -0.018326
v 0.004327 0.001000 -0.018326
v -0.000673 -0.001000 -0.018326
v -0.000673 0.001000 -0.018326
v -0.000673 0.001000 -0.018326
v -0.000673 -0.001000 -0.018326
v -0.000673 0.001000 -0.014797
v -0.000673 0.001000 -0.013681
v -0.000673 -0.001000 -0.014797
v -0.000673 -0.001000 -0.013681
v -0.000673 -0.001000 -0.013681
v -0.000673 0.001000 -0.013681
v -0.002673 -0.001000 -0.013681
v -0.002673 0.001000 -0.013681
v 0.021327 -0.001000 0.016674
v 0.021327 -0.001000 0.021674
v 0.021327 0.001000 0.016674
v 0.021327 0.001000 0.021674
v 0.023327 0.001000 0.021674
v 0.025327 0.001000 0.021674
v 0.023327 -0.001000 0.021674
v 0.025327 -0.001000 0.021674
v 0.023327 -0.001000 0.016674
v 0.023327 -0.001000 0.021674
v 0.023327 0.001000 0.016674
v 0.023327 0.001000 0.021674
v 0.023327 -0.001000 0.016674
v 0.021327 -0.001000 0.016674
v 0.023327 0.001000 0.016674
v 0.021327 0.001000 0.016674
v -0.006673 -0.001000 -0.008212
v -0.006673 0.001000 -0.008212
v -0.003384 -0.001000 -0.009823
v -0.000173 -0.001000 -0.010326
v -0.003384 0.001000 -0.009823
v -0.000173 0.001000 -0.010326
v 0.003064 0.001000 -0.009815
v 0.006377 0.001000 -0.008179
v 0.003064 -0.001000 -0.009815
v 0.006377 -0.001000 -0.008179
v 0.009576 -0.001000 -0.005340
v 0.012455 -0.001000 -0.001354
v 0.009576 0.001000 -0.005340
v 0.012455 0.001000 -0.001354
v 0.014825 0.001000 0.003575
v 0.014825 -0.001000 0.003575
v 0.016559 0.001000 0.009132
v 0.017168 0.001000 0.012032
v 0.016559 -0.001000 0.009132
v 0.017168 -0.001000 0.012032
v 0.017608 -0.001000 0.014952
v 0.018005 -0.001000 0.020691
v 0.017608 0.001000 0.014952
v 0.018005 -0.000000 0.020691
v 0.018005 0.001000 0.020691
v 0.019005 -0.001000 0.021674
v 0.019005 0.001000 0.021674
v 0.021327 -0.001000 0.021674
v 0.021327 0.001000 0.021674
v 0.019005 0.001000 0.021674
v 0.018640 0.001000 0.021605
v 0.019005 -0.001000 0.021674
v 0.018640 -0.001000 0.021605
v 0.018304 -0.001000 0.021387
v 0.018080 -0.001000 0.021055
v 0.018304 0.001000 0.021387
v 0.018080 0.001000 0.021055
v 0.018005 0.001000 0.020691
v 0.018005 -0.000000 0.020691
v 0.018005 -0.001000 0.020691
v -0.008728 0.001000 -0.018326
v -0.008728 -0.001000 -0.018326
v -0.002673 0.001000 -0.018326
v -0.002673 -0.001000 -0.018326
v -0.006673 -0.001000 -0.008212
v -0.017614 -0.001000 -0.012128
v -0.011381 -0.001000 -0.003526
v -0.010347 -0.001000 -0.017817
v -0.002673 -0.001000 -0.013681
v -0.003384 -0.001000 -0.009823
v -0.000173 -0.001000 -0.010326
v 0.004327 -0.001000 -0.013681
v 0.003064 -0.001000 -0.009815
v -0.000673 -0.001000 -0.013681
v -0.000673 -0.001000 -0.014797
v 0.004327 -0.001000 -0.014797
v -0.000673 -0.001000 -0.018326
v 0.004327 -0.001000 -0.018326
v 0.006327 -0.001000 -0.013681
v 0.006377 -0.001000 -0.008179
v 0.012455 -0.001000 -0.001354
v 0.017269 -0.001000 -0.012128
v 0.010002 -0.001000 -0.017817
v 0.023476 -0.001000 -0.001833
v 0.026327 -0.001000 0.011913
v 0.021327 -0.001000 0.016674
v 0.026327 -0.001000 0.011949
v 0.023327 -0.001000 0.016674
v 0.026327 -0.001000 0.020674
v 0.026257 -0.001000 0.021042
v 0.025327 -0.001000 0.021674
v 0.023327 -0.001000 0.021674
v 0.026034 -0.001000 0.021381
v 0.025695 -0.001000 0.021604
v 0.018005 -0.001000 0.020691
v 0.021327 -0.001000 0.021674
v 0.019005 -0.001000 0.021674
v 0.018080 -0.001000 0.021055
v 0.018304 -0.001000 0.021387
v 0.018640 -0.001000 0.021605
v 0.006327 -0.001000 -0.014797
v 0.008382 -0.001000 -0.018326
v 0.006327 -0.001000 -0.018326
v -0.002673 -0.001000 -0.014797
v -0.008728 -0.001000 -0.018326
v -0.002673 -0.001000 -0.018326
v -0.023821 -0.001000 -0.001833
v -0.015155 -0.001000 0.003535
v -0.026672 -0.001000 0.011913
v -0.021673 -0.001000 0.016674
v -0.018350 -0.001000 0.020691
v -0.021673 -0.001000 0.021674
v -0.018425 -0.001000 0.021055
v -0.019350 -0.001000 0.021674
v -0.018986 -0.001000 0.021605
v -0.018649 -0.001000 0.021387
v -0.026673 -0.001000 0.011949
v -0.023673 -0.001000 0.016674
v -0.026673 -0.001000 0.020674
v -0.023673 -0.001000 0.021674
v -0.025673 -0.001000 0.021674
v -0.026602 -0.001000 0.021042
v -0.026380 -0.001000 0.021381
v -0.026041 -0.001000 0.021604
vn 0.000000 1.000000 0.000000
vn 0.000000 1.000000 0.000000
vn 0.000000 1.000000 0.000000
vn 0.000000 1.000000 0.000000
vn 0.000000 1.000000 0.000000
vn 0.000000 1.000000 0.000000
vn 0.000000 1.000000 0.000000
vn 0.000000 1.000000 0.000000
vn 0.000000 1.000000 0.000000
vn 0.000000 1.000000 0.000000
vn 0.000000 1.000000 0.000000
vn 0.000000 1.000000 0.000000
vn 0.000000 1.000000 0.000000
vn 0.000000 1.000000 0.000000
vn 0.000000 1.000000 0.000000
vn 0.000000 1.000000 0.000000
vn 0.000000 1.000000 0.000000
vn 0.000000 1.000000 0.000000
vn 0.000000 1.000000 0.000000
vn 0.000000 1.000000 0.000000
vn 0.000000 1.000000 0.000000
vn 0.000000 1.000000 0.000000
vn 0.000000 1.000000 0.000000
vn 0.000000 1.000000 0.000000
vn 0.000000 1.000000 0.000000
vn 0.000000 1.000000 0.000000
vn 0.000000 1.000000 0.000000
vn 0.000000 1.000000 0.000000
vn 0.000000 1.000000 0.000000
vn 0.000000 1.000000 0.000000
vn 0.000000 1.000000 0.000000
vn 0.000000 1.000000 0.000000
vn 0.000000 1.000000 0.000000
vn 0.000000 1.000000 0.000000
vn 0.000000 1.000000 0.000000
vn 0.000000 1.000000 0.000000
vn 0.000000 1.000000 0.000000
vn 0.000000 1.000000 0.000000
vn 0.000000 1.000000 0.000000
vn 0.000000 1.000000 0.000000
vn 0.000000 1.000000 0.000000
vn 0.000000 1.000000 0.000000
vn 0.000000 1.000000 0.000000
vn 0.000000 1.000000 0.000000
vn 0.000000 1.000000 0.000000
vn 0.000000 1.000000 0.000000
vn 0.000000 1.000000 0.000000
vn 0.000000 1.000000 0.000000
vn 0.000000 1.000000 0.000000
vn 0.000000 1.000000 0.000000
vn 0.000000 1.000000 0.000000
vn 0.000000 1.000000 0.000000
vn 0.000000 1.000000 0.000000
vn 0.000000 1.000000 0.000000
vn 0.000000 1.000000 0.000000
vn 0.000000 1.000000 0.000000
vn 0.000000 1.000000 0.000000
vn 0.000000 1.000000 0.000000
vn 0.000000 1.000000 0.000000
vn 0.000000 1.000000 0.000000
vn 0.018301 0.000000 -0.999833
vn -0.547573 0.000000 -0.836758
vn -0.547503 0.000000 -0.836804
vn 0.018301 0.000000 -0.999833
vn -0.547503 0.000000 -0.836804
vn -0.685280 0.000000 -0.728279
vn -0.685227 0.000000 -0.728329
vn -0.888018 0.000000 -0.459809
vn -0.888018 0.000000 -0.459809
vn -0.963528 0.000000 -0.267608
vn -0.963554 0.000000 -0.267515
vn -0.988868 0.000000 -0.148795
vn -0.988868 0.000000 -0.148795
vn -0.999842 0.000000 -0.017801
vn -0.999842 0.000000 -0.017801
vn -0.988868 0.000000 -0.148795
vn -0.963554 0.000000 -0.267515
vn -0.685280 0.000000 -0.728279
vn -0.000100 -0.000000 1.000000
vn -0.368095 -0.000000 0.929788
vn -0.000100 -0.000000 1.000000
vn -0.368095 -0.000000 0.929788
vn -0.707107 -0.000000 0.707107
vn -0.707107 -0.000000 0.707107
vn -0.929788 -0.000000 0.368095
vn -1.000000 -0.000000 0.000100
vn -0.929788 -0.000000 0.368095
vn -1.000000 -0.000000 0.000100
vn -1.000000 0.000000 0.000000
vn -1.000000 0.000000 0.000000
vn -1.000000 0.000000 0.000000
vn -1.000000 0.000000 0.000000
vn -1.000000 0.000000 0.000000
vn -1.000000 0.000000 0.000000
vn -1.000000 0.000000 0.000000
vn -1.000000 0.000000 0.000000
vn 0.000000 -0.000000 1.000000
vn 0.000000 -0.000000 1.000000
vn 0.000000 -0.000000 1.000000
vn 0.000000 -0.000000 1.000000
vn 1.000000 0.000000 0.000000
vn 1.000000 0.000000 0.000000
vn 1.000000 0.000000 0.000000
vn 1.000000 0.000000 0.000000
vn 0.000000 -0.000000 1.000000
vn 0.000000 -0.000000 1.000000
vn 0.000000 -0.000000 1.000000
vn 0.000000 -0.000000 1.000000
vn 0.000000 -0.000000 1.000000
vn 0.000000 -0.000000 1.000000
vn 0.000000 -0.000000 1.000000
vn 0.000000 -0.000000 1.000000
vn 0.000100 -0.000000 1.000000
vn 0.364588 -0.000000 0.931169
vn 0.000100 -0.000000 1.000000
vn 0.364588 -0.000000 0.931169
vn 0.700930 -0.000000 0.713230
vn 0.700930 -0.000000 0.713230
vn 0.924699 -0.000000 0.380700
vn 0.999847 -0.000000 0.017501
vn 0.999847 -0.000000 0.017501
vn 0.924699 -0.000000 0.380700
vn 0.999847 -0.000000 0.017501
vn 0.999847 -0.000000 0.017501
vn 0.999847 -0.000000 0.017501
vn 0.998828 -0.000000 0.048401
vn 0.995515 0.000200 0.094601
vn 0.984176 -0.000200 0.177196
vn 0.995107 0.000100 0.098801
vn 0.995107 -0.000000 0.098801
vn 0.998828 -0.000000 0.048401
vn 0.995107 -0.000100 0.098801
vn 0.963807 -0.000000 0.266602
vn 0.963807 -0.000000 0.266602
vn 0.984176 0.000200 0.177196
vn 0.995515 -0.000100 0.094601
vn 0.998828 -0.000000 0.048401
vn 0.999847 -0.000000 0.017501
vn 0.931318 -0.000000 0.364207
vn 0.931318 -0.000000 0.364207
vn 0.809168 -0.000000 0.587577
vn 0.558617 -0.000000 0.829426
vn 0.809168 -0.000000 0.587577
vn 0.558617 -0.000000 0.829426
vn -0.018301 0.000000 -0.999833
vn 0.547573 0.000000 -0.836758
vn 0.547503 0.000000 -0.836804
vn -0.018301 0.000000 -0.999833
vn 0.547503 0.000000 -0.836804
vn 0.685280 0.000000 -0.728279
vn 0.685227 0.000000 -0.728329
vn 0.888018 0.000000 -0.459809
vn 0.888018 0.000000 -0.459809
vn 0.963528 0.000000 -0.267608
vn 0.963554 0.000000 -0.267515
vn 0.988868 0.000000 -0.148795
vn 0.999842 0.000000 -0.017801
vn 0.988868 0.000000 -0.148795
vn 0.999842 0.000000 -0.017801
vn 0.988868 0.000000 -0.148795
vn 0.963554 0.000000 -0.267515
vn 0.685280 0.000000 -0.728279
vn 0.000100 -0.000000 1.000000
vn 0.368095 -0.000000 0.929788
vn 0.000100 -0.000000 1.000000
vn 0.368095 -0.000000 0.929788
vn 0.707107 -0.000000 0.707107
vn 0.707107 -0.000000 0.707107
vn 0.929788 -0.000000 0.368095
vn 0.929788 -0.000000 0.368095
vn 1.000000 -0.000000 0.000100
vn 1.000000 -0.000000 0.000100
vn 1.000000 0.000000 0.000000
vn 1.000000 0.000000 0.000000
vn 1.000000 0.000000 0.000000
vn 1.000000 0.000000 0.000000
vn 1.000000 0.000000 0.000000
vn 1.000000 0.000000 0.000000
vn 1.000000 0.000000 0.000000
vn 1.000000 0.000000 0.000000
vn 1.000000 0.000000 0.000000
vn 1.000000 0.000000 0.000000
vn 0.000000 0.000000 -1.000000
vn 0.000000 0.000000 -1.000000
vn 0.000000 0.000000 -1.000000
vn 0.000000 0.000000 -1.000000
vn -1.000000 0.000000 0.000000
vn -1.000000 0.000000 0.000000
vn -1.000000 0.000000 0.000000
vn -1.000000 0.000000 0.000000
vn -1.000000 0.000000 0.000000
vn -1.000000 0.000000 0.000000
vn 0.000000 0.000000 -1.000000
vn 0.000000 0.000000 -1.000000
vn 0.000000 0.000000 -1.000000
vn 0.000000 0.000000 -1.000000
vn 1.000000 0.000000 0.000000
vn 1.000000 0.000000 0.000000
vn 1.000000 0.000000 0.000000
vn 1.000000 0.000000 0.000000
vn 1.000000 0.000000 0.000000
vn 1.000000 0.000000 0.000000
vn 0.000000 0.000000 -1.000000
vn 0.000000 0.000000 -1.000000
vn 0.000000 0.000000 -1.000000
vn 0.000000 0.000000 -1.000000
vn -1.000000 0.000000 0.000000
vn -1.000000 0.000000 0.000000
vn -1.000000 0.000000 0.000000
vn -1.000000 0.000000 0.000000
vn -1.000000 0.000000 0.000000
vn -1.000000 0.000000 0.000000
vn 0.000000 0.000000 -1.000000
vn 0.000000 0.000000 -1.000000
vn 0.000000 0.000000 -1.000000
vn 0.000000 0.000000 -1.000000
vn 1.000000 0.000000 0.000000
vn 1.000000 0.000000 0.000000
vn 1.000000 0.000000 0.000000
vn 1.000000 0.000000 0.000000
vn 0.000000 -0.000000 1.000000
vn 0.000000 -0.000000 1.000000
vn 0.000000 -0.000000 1.000000
vn 0.000000 -0.000000 1.000000
vn -1.000000 0.000000 0.000000
vn -1.000000 0.000000 0.000000
vn -1.000000 0.000000 0.000000
vn -1.000000 0.000000 0.000000
vn 0.000000 -0.000000 1.000000
vn 0.000000 -0.000000 1.000000
vn 0.000000 -0.000000 1.000000
vn 0.000000 -0.000000 1.000000
vn 0.558502 -0.000000 0.829503
vn 0.558502 -0.000000 0.829503
vn 0.301217 -0.000000 0.953555
vn 0.000000 -0.000000 1.000000
vn 0.301217 -0.000000 0.953555
vn 0.000000 -0.000000 1.000000
vn -0.303208 -0.000000 0.952924
vn -0.561902 -0.000000 0.827204
vn -0.303208 -0.000000 0.952924
vn -0.561902 -0.000000 0.827204
vn -0.745171 -0.000000 0.666874
vn -0.861595 -0.000000 0.507597
vn -0.745171 -0.000000 0.666874
vn -0.861595 -0.000000 0.507597
vn -0.931710 -0.000000 0.363204
vn -0.931710 -0.000000 0.363204
vn -0.971922 -0.000000 0.235305
vn -0.984228 -0.000000 0.176905
vn -0.971922 -0.000000 0.235305
vn -0.984228 -0.000000 0.176905
vn -0.992628 -0.000000 0.121203
vn -0.999847 -0.000000 0.017501
vn -0.992628 -0.000000 0.121203
vn -0.999847 -0.000000 0.017501
vn -0.999847 -0.000000 0.017501
vn 0.000000 -0.000000 1.000000
vn 0.000000 -0.000000 1.000000
vn 0.000000 -0.000000 1.000000
vn 0.000000 -0.000000 1.000000
vn -0.000100 -0.000000 1.000000
vn -0.364501 -0.000000 0.931203
vn -0.000100 -0.000000 1.000000
vn -0.364501 -0.000000 0.931203
vn -0.700880 -0.000000 0.713279
vn -0.924699 -0.000000 0.380700
vn -0.700880 -0.000000 0.713279
vn -0.924699 -0.000000 0.380700
vn -0.999847 -0.000000 0.017501
vn -0.999845 -0.000000 0.017601
vn -0.999847 -0.000000 0.017501
vn 0.000000 0.000000 -1.000000
vn 0.000000 0.000000 -1.000000
vn 0.000000 0.000000 -1.000000
vn 0.000000 0.000000 -1.000000
vn 0.000000 -1.000000 -0.000000
vn 0.000000 -1.000000 -0.000000
vn 0.000000 -1.000000 -0.000000
vn 0.000000 -1.000000 -0.000000
vn 0.000000 -1.000000 -0.000000
vn 0.000000 -1.000000 -0.000000
vn 0.000000 -1.000000 -0.000000
vn 0.000000 -1.000000 -0.000000
vn 0.000000 -1.000000 -0.000000
vn 0.000000 -1.000000 -0.000000
vn 0.000000 -1.000000 -0.000000
vn 0.000000 -1.000000 -0.000000
vn 0.000000 -1.000000 -0.000000
vn 0.000000 -1.000000 -0.000000
vn 0.000000 -1.000000 -0.000000
vn 0.000000 -1.000000 -0.000000
vn 0.000000 -1.000000 -0.000000
vn 0.000000 -1.000000 -0.000000
vn 0.000000 -1.000000 -0.000000
vn 0.000000 -1.000000 -0.000000
vn 0.000000 -1.000000 -0.000000
vn 0.000000 -1.000000 -0.000000
vn 0.000000 -1.000000 -0.000000
vn 0.000000 -1.000000 -0.000000
vn 0.000000 -1.000000 -0.000000
vn 0.000000 -1.000000 -0.000000
vn 0.000000 -1.000000 -0.000000
vn 0.000000 -1.000000 -0.000000
vn 0.000000 -1.000000 -0.000000
vn 0.000000 -1.000000 -0.000000
vn 0.000000 -1.000000 -0.000000
vn 0.000000 -1.000000 -0.000000
vn 0.000000 -1.000000 -0.000000
vn 0.000000 -1.000000 -0.000000
vn 0.000000 -1.000000 -0.000000
vn 0.000000 -1.000000 -0.000000
vn 0.000000 -1.000000 -0.000000
vn 0.000000 -1.000000 -0.000000
vn 0.000000 -1.000000 -0.000000
vn 0.000000 -1.000000 -0.000000
vn 0.000000 -1.000000 -0.000000
vn 0.000000 -1.000000 -0.000000
vn 0.000000 -1.000000 -0.000000
vn 0.000000 -1.000000 -0.000000
vn 0.000000 -1.000000 -0.000000
vn 0.000000 -1.000000 -0.000000
vn 0.000000 -1.000000 -0.000000
vn 0.000000 -1.000000 -0.000000
vn 0.000000 -1.000000 -0.000000
vn 0.000000 -1.000000 -0.000000
vn 0.000000 -1.000000 -0.000000
vn 0.000000 -1.000000 -0.000000
vn 0.000000 -1.000000 -0.000000
vn 0.000000 -1.000000 -0.000000
vn 0.000000 -1.000000 -0.000000
vn 0.000000 -1.000000 -0.000000
vn 0.000000 -1.000000 -0.000000
vn 0.000000 -1.000000 -0.000000
vn 0.000000 -1.000000 -0.000000
vn 0.000000 -1.000000 -0.000000
f 2//2 1//1 3//3
f 3//3 4//4 2//2
f 5//5 7//7 4//4
f 4//4 6//6 5//5
f 7//7 2//2 4//4
f 8//8 7//7 5//5
f 7//7 8//8 9//9
f 9//9 10//10 7//7
f 11//11 12//12 10//10
f 11//11 10//10 9//9
f 13//13 12//12 11//11
f 12//12 13//13 14//14
f 15//15 14//14 13//13
f 16//16 17//17 11//11
f 9//9 16//16 11//11
f 16//16 19//19 17//17
f 21//21 18//18 17//17
f 20//20 17//17 19//19
f 21//21 17//17 20//20
f 18//18 21//21 22//22
f 23//23 18//18 22//22
f 20//20 19//19 24//24
f 20//20 24//24 25//25
f 25//25 24//24 26//26
f 26//26 27//27 28//28
f 24//24 27//27 26//26
f 30//30 29//29 28//28
f 28//28 27//27 30//30
f 31//31 29//29 30//30
f 29//29 31//31 32//32
f 33//33 29//29 32//32
f 32//32 34//34 33//33
f 32//32 35//35 34//34
f 27//27 37//37 36//36
f 37//37 27//27 24//24
f 36//36 37//37 38//38
f 39//39 38//38 37//37
f 39//39 40//40 38//38
f 38//38 40//40 41//41
f 5//5 6//6 43//43
f 42//42 43//43 6//6
f 43//43 42//42 44//44
f 44//44 47//47 45//45
f 46//46 44//44 42//42
f 44//44 46//46 47//47
f 49//49 48//48 47//47
f 49//49 47//47 46//46
f 50//50 45//45 47//47
f 45//45 50//50 51//51
f 51//51 54//54 52//52
f 52//52 45//45 51//51
f 53//53 54//54 51//51
f 49//49 55//55 48//48
f 58//58 56//56 55//55
f 56//56 57//57 55//55
f 55//55 57//57 48//48
f 59//59 56//56 58//58
f 59//59 60//60 56//56
f 61//61 62//62 64//64
f 62//62 61//61 63//63
f 65//65 64//64 62//62
f 66//66 65//65 62//62
f 66//66 62//62 67//67
f 68//68 66//66 67//67
f 68//68 69//69 70//70
f 69//69 68//68 67//67
f 70//70 71//71 68//68
f 72//72 71//71 70//70
f 72//72 70//70 73//73
f 72//72 73//73 74//74
f 75//75 74//74 73//73
f 73//73 76//76 75//75
f 73//73 70//70 77//77
f 73//73 77//77 76//76
f 69//69 77//77 70//70
f 67//67 78//78 69//69
f 67//67 62//62 63//63
f 67//67 63//63 78//78
f 80//80 79//79 81//81
f 80//80 81//81 82//82
f 84//84 80//80 82//82
f 84//84 82//82 83//83
f 87//87 84//84 83//83
f 87//87 83//83 85//85
f 88//88 87//87 85//85
f 88//88 85//85 86//86
f 89//89 91//91 92//92
f 89//89 92//92 90//90
f 93//93 95//95 96//96
f 93//93 96//96 94//94
f 97//97 99//99 100//100
f 97//97 100//100 98//98
f 102//102 104//104 103//103
f 102//102 103//103 101//101
f 105//105 107//107 108//108
f 105//105 108//108 106//106
f 110//110 109//109 111//111
f 110//110 111//111 112//112
f 114//114 116//116 115//115
f 114//114 115//115 113//113
f 118//118 117//117 116//116
f 118//118 116//116 114//114
f 122//122 119//119 117//117
f 122//122 117//117 118//118
f 120//120 119//119 121//121
f 119//119 122//122 121//121
f 121//121 122//122 123//123
f 125//125 124//124 126//126
f 127//127 126//126 124//124
f 128//128 129//129 127//127
f 126//126 127//127 129//129
f 128//128 130//130 129//129
f 131//131 126//126 129//129
f 131//131 129//129 130//130
f 137//137 131//131 130//130
f 137//137 130//130 132//132
f 135//135 132//132 130//130
f 130//130 128//128 133//133
f 133//133 134//134 130//130
f 134//134 135//135 130//130
f 135//135 136//136 132//132
f 136//136 137//137 132//132
f 136//136 138//138 137//137
f 138//138 125//125 137//137
f 131//131 137//137 125//125
f 140//140 139//139 134//134
f 140//140 134//134 133//133
f 143//143 141//141 139//139
f 143//143 139//139 140//140
f 144//144 142//142 141//141
f 144//144 141//141 143//143
f 125//125 126//126 131//131
f 145//145 146//146 148//148
f 146//146 145//145 147//147
f 149//149 148//148 146//146
f 150//150 149//149 146//146
f 150//150 146//146 151//151
f 152//152 150//150 151//151
f 152//152 153//153 154//154
f 153//153 152//152 151//151
f 154//154 155//155 152//152
f 156//156 155//155 154//154
f 156//156 154//154 158//158
f 156//156 158//158 157//157
f 159//159 157//157 158//158
f 158//158 160//160 159//159
f 158//158 154//154 161//161
f 158//158 161//161 160//160
f 153//153 161//161 154//154
f 151//151 162//162 153//153
f 151//151 146//146 147//147
f 151//151 147//147 162//162
f 164//164 163//163 165//165
f 164//164 165//165 166//166
f 168//168 164//164 166//166
f 168//168 166//166 167//167
f 170//170 168//168 167//167
f 170//170 167//167 169//169
f 172//172 170//170 169//169
f 172//172 169//169 171//171
f 173//173 175//175 176//176
f 173//173 176//176 174//174
f 181//181 178//178 177//177
f 181//181 177//177 179//179
f 179//179 180//180 182//182
f 179//179 182//182 181//181
f 184//184 183//183 185//185
f 184//184 185//185 186//186
f 188//188 190//190 189//189
f 188//188 189//189 187//187
f 191//191 189//189 190//190
f 191//191 190//190 192//192
f 194//194 193//193 195//195
f 194//194 195//195 196//196
f 201//201 198//198 197//197
f 201//201 197//197 199//199
f 199//199 200//200 202//202
f 199//199 202//202 201//201
f 204//204 203//203 205//205
f 204//204 205//205 206//206
f 208//208 211//211 209//209
f 208//208 209//209 207//207
f 210//210 209//209 211//211
f 210//210 211//211 212//212
f 214//214 213//213 215//215
f 214//214 215//215 216//216
f 217//217 219//219 220//220
f 217//217 220//220 218//218
f 221//221 223//223 224//224
f 221//221 224//224 222//222
f 226//226 228//228 227//227
f 226//226 227//227 225//225
f 229//229 231//231 232//232
f 229//229 232//232 230//230
f 234//234 233//233 235//235
f 234//234 235//235 237//237
f 237//237 235//235 236//236
f 237//237 236//236 238//238
f 238//238 236//236 241//241
f 238//238 241//241 239//239
f 239//239 241//241 242//242
f 239//239 242//242 240//240
f 240//240 242//242 243//243
f 240//240 243//243 245//245
f 245//245 243//243 244//244
f 245//245 244//244 246//246
f 246//246 244//244 248//248
f 246//246 248//248 247//247
f 247//247 248//248 251//251
f 247//247 251//251 249//249
f 249//249 251//251 252//252
f 249//249 252//252 250//250
f 250//250 252//252 253//253
f 250//250 253//253 255//255
f 256//256 253//253 254//254
f 253//253 256//256 255//255
f 256//256 257//257 255//255
f 259//259 258//258 260//260
f 259//259 260//260 261//261
f 263//263 265//265 264//264
f 263//263 264//264 262//262
f 268//268 266//266 265//265
f 268//268 265//265 263//263
f 269//269 267//267 266//266
f 269//269 266//266 268//268
f 271//271 269//269 270//270
f 267//267 269//269 271//271
f 272//272 267//267 271//271
f 274//274 273//273 275//275
f 274//274 275//275 276//276
f 278//278 280//280 277//277
f 278//278 277//277 279//279
f 277//277 280//280 281//281
f 281//281 282//282 277//277
f 283//283 282//282 281//281
f 286//286 284//284 283//283
f 284//284 285//285 283//283
f 286//286 283//283 281//281
f 286//286 287//287 288//288
f 286//286 288//288 284//284
f 287//287 289//289 290//290
f 287//287 290//290 288//288
f 284//284 291//291 285//285
f 285//285 291//291 292//292
f 293//293 292//292 294//294
f 292//292 291//291 294//294
f 291//291 295//295 294//294
f 293//293 294//294 296//296
f 293//293 296//296 297//297
f 297//297 298//298 293//293
f 299//299 298//298 297//297
f 299//299 300//300 298//298
f 300//300 299//299 301//301
f 302//302 303//303 301//301
f 303//303 304//304 301//301
f 300//300 301//301 304//304
f 303//303 302//302 305//305
f 303//303 305//305 306//306
f 293//293 298//298 307//307
f 298//298 308//308 307//307
f 309//309 307//307 308//308
f 309//309 310//310 307//307
f 310//310 309//309 311//311
f 309//309 312//312 311//311
f 291//291 313//313 295//295
f 314//314 295//295 313//313
f 314//314 313//313 315//315
f 316//316 281//281 280//280
f 318//318 316//316 317//317
f 316//316 280//280 317//317
f 279//279 319//319 278//278
f 319//319 279//279 320//320
f 320//320 321//321 319//319
f 322//322 321//321 320//320
f 323//323 322//322 320//320
f 322//322 323//323 324//324
f 323//323 326//326 324//324
f 325//325 326//326 323//323
f 328//328 327//327 326//326
f 325//325 328//328 326//326
f 322//322 329//329 321//321
f 322//322 330//330 329//329
f 332//332 331//331 330//330
f 331//331 329//329 330//330
f 332//332 333//333 331//331
f 333//333 334//334 331//331
f 333//333 335//335 334//334
f 335//335 333//333 336//336
