# arm_11 exported from /models/landings/arm_11.glb
# units: meters
v -0.000399 0.001000 0.008874
v 0.004601 0.001000 0.008874
v -0.000399 0.001000 0.012874
v 0.006626 0.001000 0.008488
v 0.024601 0.001000 0.012874
v 0.008490 0.001000 0.007263
v 0.009715 0.001000 0.005399
v 0.023765 0.001000 -0.006283
v 0.024601 0.001000 -0.006126
v 0.028236 0.001000 0.012151
v 0.010101 0.001000 0.003374
v 0.018601 0.001000 -0.007648
v 0.009715 0.001000 0.001350
v 0.016601 0.001000 -0.007648
v 0.008490 0.001000 -0.000515
v 0.012085 0.001000 -0.006727
v 0.011437 0.001000 -0.006283
v 0.010601 0.001000 -0.006126
v 0.004601 0.001000 -0.002126
v -0.000399 0.001000 -0.006126
v 0.006626 0.001000 -0.001740
v -0.000399 0.001000 -0.002126
v 0.012914 0.001000 -0.008313
v 0.013351 0.001000 -0.013126
v 0.013414 0.001000 -0.017938
v 0.016601 0.001000 -0.014372
v 0.016601 0.001000 -0.014648
v 0.016601 0.001000 -0.020126
v 0.014601 0.001000 -0.020126
v 0.013773 0.001000 -0.019524
v 0.014117 0.001000 -0.019969
v 0.014340 0.001000 -0.020086
v 0.021851 0.001000 -0.013126
v 0.018601 0.001000 -0.014372
v 0.023117 0.001000 -0.006727
v 0.022289 0.001000 -0.008313
v 0.018601 0.001000 -0.014648
v 0.021789 0.001000 -0.017938
v 0.018601 0.001000 -0.020126
v 0.020601 0.001000 -0.020126
v 0.021429 0.001000 -0.019524
v 0.021085 0.001000 -0.019969
v 0.020862 0.001000 -0.020086
v 0.031319 0.001000 -0.003343
v 0.033378 0.001000 0.007010
v 0.031319 0.001000 0.010092
v 0.033378 0.001000 -0.000261
v 0.034101 0.001000 0.003374
v 0.028236 0.001000 -0.005403
v -0.008899 -0.001000 0.003374
v -0.008899 -0.000000 0.003374
v -0.008487 -0.001000 0.001285
v -0.008487 0.001000 0.001285
v -0.007247 -0.001000 -0.000555
v -0.007247 0.001000 -0.000555
v -0.005398 -0.001000 -0.001750
v -0.005398 0.001000 -0.001750
v -0.003399 0.000000 -0.002126
v -0.003399 -0.001000 -0.002126
v -0.003399 0.001000 -0.002126
v -0.008899 0.001000 0.003374
v -0.000399 -0.001000 0.008874
v -0.003399 -0.000000 0.008874
v -0.000399 0.001000 0.008874
v -0.003399 -0.001000 0.008874
v -0.003399 0.001000 0.008874
v -0.003399 -0.001000 0.008874
v -0.003399 -0.000000 0.008874
v -0.005488 -0.001000 0.008462
v -0.005488 0.001000 0.008462
v -0.007328 -0.001000 0.007223
v -0.007328 0.001000 0.007223
v -0.008523 -0.001000 0.005373
v -0.008523 0.001000 0.005373
v -0.008899 -0.000000 0.003374
v -0.008899 -0.001000 0.003374
v -0.008899 0.001000 0.003374
v -0.003399 0.001000 0.008874
v -0.003399 -0.001000 -0.002126
v -0.000399 -0.001000 -0.002126
v -0.003399 0.000000 -0.002126
v -0.003399 0.001000 -0.002126
v -0.000399 0.001000 -0.002126
v -0.000399 -0.001000 -0.002126
v -0.000399 0.001000 -0.002126
v 0.002101 -0.001000 -0.002126
v 0.004601 -0.001000 -0.002126
v 0.002101 0.001000 -0.002126
v 0.004601 0.001000 -0.002126
v 0.004601 0.000000 -0.002126
v 0.004601 -0.001000 -0.002126
v 0.004601 0.000000 -0.002126
v 0.006691 -0.001000 -0.001713
v 0.006691 0.001000 -0.001713
v 0.008530 -0.001000 -0.000474
v 0.008530 0.001000 -0.000474
v 0.009725 -0.001000 0.001375
v 0.009725 0.001000 0.001375
v 0.010101 -0.001000 0.003374
v 0.010101 0.001000 0.003374
v 0.009689 -0.001000 0.005464
v 0.009689 0.001000 0.005464
v 0.008449 -0.001000 0.007304
v 0.008449 0.001000 0.007304
v 0.006600 -0.001000 0.008498
v 0.006600 0.001000 0.008498
v 0.004601 -0.000000 0.008874
v 0.004601 -0.001000 0.008874
v 0.004601 0.001000 0.008874
v 0.004601 0.001000 -0.002126
v 0.004601 -0.001000 0.008874
v 0.002101 -0.001000 0.008874
v 0.004601 -0.000000 0.008874
v 0.002101 0.001000 0.008874
v 0.004601 0.001000 0.008874
v -0.000399 0.001000 0.008874
v -0.000399 -0.001000 0.008874
v -0.019399 -0.001000 -0.020126
v -0.019399 0.000000 -0.020126
v -0.020438 -0.001000 -0.018900
v -0.020438 0.001000 -0.018900
v -0.020638 -0.001000 -0.017161
v -0.020638 0.001000 -0.017161
v -0.020664 -0.001000 -0.015405
v -0.020664 0.001000 -0.015405
v -0.020650 -0.001000 -0.013648
v -0.020650 0.001000 -0.013648
v -0.020665 -0.001000 -0.011803
v -0.020665 0.001000 -0.011803
v -0.020774 -0.001000 -0.010035
v -0.020774 0.001000 -0.010035
v -0.021093 -0.001000 -0.008290
v -0.021093 0.001000 -0.008290
v -0.021921 -0.001000 -0.006721
v -0.021921 0.001000 -0.006721
v -0.023399 -0.000333 -0.006126
v -0.023399 -0.001000 -0.006126
v -0.023399 0.000333 -0.006126
v -0.023399 0.001000 -0.006126
v -0.019399 0.001000 -0.020126
v -0.023399 -0.001000 -0.006126
v -0.023399 -0.000333 -0.006126
v -0.025184 -0.001000 -0.005957
v -0.025184 0.000000 -0.005957
v -0.027008 -0.001000 -0.005414
v -0.027008 0.000000 -0.005414
v -0.030186 -0.001000 -0.003273
v -0.030186 0.001000 -0.003273
v -0.032249 -0.001000 -0.000079
v -0.032249 0.001000 -0.000079
v -0.032899 -0.001000 0.003374
v -0.032899 0.001000 0.003374
v -0.032187 -0.001000 0.006983
v -0.032187 0.001000 0.006983
v -0.030046 -0.001000 0.010161
v -0.030046 0.001000 0.010161
v -0.026852 -0.001000 0.012225
v -0.026852 0.001000 0.012225
v -0.023399 -0.001000 0.012874
v -0.023399 0.001000 0.012874
v -0.027008 0.001000 -0.005414
v -0.025184 0.001000 -0.005957
v -0.023399 0.001000 -0.006126
v -0.023399 0.000333 -0.006126
v -0.009399 -0.001000 -0.006126
v -0.009399 0.000000 -0.006126
v -0.010946 -0.001000 -0.006794
v -0.010946 0.001000 -0.006794
v -0.011722 -0.001000 -0.008352
v -0.011722 0.001000 -0.008352
v -0.012028 -0.001000 -0.010073
v -0.012028 0.001000 -0.010073
v -0.012135 -0.001000 -0.011872
v -0.012135 0.001000 -0.011872
v -0.012147 -0.001000 -0.013631
v -0.012147 0.001000 -0.013631
v -0.012134 -0.001000 -0.015394
v -0.012134 0.001000 -0.015394
v -0.012162 -0.001000 -0.017214
v -0.012162 0.001000 -0.017214
v -0.012361 -0.001000 -0.018905
v -0.012361 0.001000 -0.018905
v -0.013399 0.000000 -0.020126
v -0.013399 -0.001000 -0.020126
v -0.013399 0.001000 -0.020126
v -0.009399 0.001000 -0.006126
v -0.013399 -0.001000 -0.020126
v -0.013399 0.000000 -0.020126
v -0.015399 -0.001000 -0.020126
v -0.015399 0.000000 -0.020126
v -0.015399 0.001000 -0.020126
v -0.013399 0.001000 -0.020126
v -0.017399 0.001000 -0.020126
v -0.019399 0.001000 -0.020126
v -0.017399 0.000000 -0.020126
v -0.019399 0.000000 -0.020126
v -0.017399 -0.001000 -0.020126
v -0.019399 -0.001000 -0.020126
v -0.017399 -0.001000 -0.007605
v -0.017399 0.000000 -0.020126
v -0.017399 -0.001000 -0.020126
v -0.017399 0.001000 -0.007605
v -0.017399 0.001000 -0.020126
v -0.015399 -0.001000 -0.007605
v -0.015399 0.000000 -0.020126
v -0.015399 -0.001000 -0.020126
v -0.015399 0.001000 -0.007605
v -0.015399 0.001000 -0.020126
v -0.017399 0.001000 -0.007605
v -0.015399 0.001000 -0.007605
v -0.017399 -0.001000 -0.007605
v -0.015399 -0.001000 -0.007605
v -0.023399 -0.001000 0.012874
v -0.017649 -0.000000 0.012874
v -0.017649 -0.001000 0.012874
v -0.023399 0.001000 0.012874
v -0.017649 0.001000 0.012874
v -0.011899 0.001000 0.012874
v -0.011899 -0.000000 0.012874
v -0.006149 0.001000 0.012874
v -0.006149 -0.000000 0.012874
v -0.000399 0.001000 0.012874
v -0.000399 -0.001000 0.012874
v -0.006149 -0.001000 0.012874
v -0.011899 -0.001000 0.012874
v -0.000399 -0.001000 -0.006126
v -0.004899 -0.000500 -0.006126
v -0.004899 -0.001000 -0.006126
v -0.004899 0.000000 -0.006126
v -0.000399 0.001000 -0.006126
v -0.004899 0.000500 -0.006126
v -0.004899 0.001000 -0.006126
v -0.007149 0.001000 -0.006126
v -0.009399 0.001000 -0.006126
v -0.007149 0.000500 -0.006126
v -0.009399 0.000000 -0.006126
v -0.007149 0.000000 -0.006126
v -0.007149 -0.000500 -0.006126
v -0.007149 -0.001000 -0.006126
v -0.009399 -0.001000 -0.006126
v 0.016601 -0.001000 -0.014372
v 0.018601 -0.001000 -0.014372
v 0.016601 -0.001000 -0.007648
v 0.018601 -0.001000 -0.007648
v 0.016601 0.001000 -0.014372
v 0.018601 0.001000 -0.014372
v 0.016601 0.001000 -0.007648
v 0.018601 0.001000 -0.007648
v -0.000399 -0.001000 0.012874
v 0.003768 -0.000000 0.012874
v 0.003768 -0.001000 0.012874
v -0.000399 0.001000 0.012874
v 0.003768 0.001000 0.012874
v 0.007934 0.001000 0.012874
v 0.007934 -0.000000 0.012874
v 0.016268 0.001000 0.012874
v 0.016268 -0.000000 0.012874
v 0.020434 0.001000 0.012874
v 0.020434 -0.000000 0.012874
v 0.024601 0.001000 0.012874
v 0.024601 -0.001000 0.012874
v 0.020434 -0.001000 0.012874
v 0.016268 -0.001000 0.012874
v 0.007934 -0.001000 0.012874
v 0.024601 -0.001000 -0.006126
v 0.024601 0.000000 -0.006126
v 0.023054 -0.001000 -0.006794
v 0.023054 0.001000 -0.006794
v 0.022277 -0.001000 -0.008352
v 0.022277 0.001000 -0.008352
v 0.021972 -0.001000 -0.010073
v 0.021972 0.001000 -0.010073
v 0.021865 -0.001000 -0.011872
v 0.021865 0.001000 -0.011872
v 0.021853 -0.001000 -0.013631
v 0.021853 0.001000 -0.013631
v 0.021866 -0.001000 -0.015394
v 0.021866 0.001000 -0.015394
v 0.021838 -0.001000 -0.017214
v 0.021838 0.001000 -0.017214
v 0.021639 -0.001000 -0.018905
v 0.021639 0.001000 -0.018905
v 0.020601 0.000000 -0.020126
v 0.020601 -0.001000 -0.020126
v 0.020601 0.001000 -0.020126
v 0.024601 0.001000 -0.006126
v 0.020601 -0.001000 -0.020126
v 0.020601 0.000000 -0.020126
v 0.018601 -0.001000 -0.020126
v 0.018601 0.000000 -0.020126
v 0.018601 0.001000 -0.020126
v 0.020601 0.001000 -0.020126
v 0.014601 -0.001000 -0.020126
v 0.014601 0.000000 -0.020126
v 0.013562 -0.001000 -0.018900
v 0.013562 0.001000 -0.018900
v 0.013362 -0.001000 -0.017161
v 0.013362 0.001000 -0.017161
v 0.013336 -0.001000 -0.015405
v 0.013336 0.001000 -0.015405
v 0.013349 -0.001000 -0.013648
v 0.013349 0.001000 -0.013648
v 0.013335 -0.001000 -0.011803
v 0.013335 0.001000 -0.011803
v 0.013226 -0.001000 -0.010035
v 0.013226 0.001000 -0.010035
v 0.012907 -0.001000 -0.008290
v 0.012907 0.001000 -0.008290
v 0.012079 -0.001000 -0.006721
v 0.012079 0.001000 -0.006721
v 0.010601 0.000000 -0.006126
v 0.010601 -0.001000 -0.006126
v 0.010601 0.001000 -0.006126
v 0.014601 0.001000 -0.020126
v 0.010601 -0.001000 -0.006126
v 0.007851 -0.000500 -0.006126
v 0.007851 -0.001000 -0.006126
v 0.010601 0.000000 -0.006126
v 0.007851 0.000500 -0.006126
v 0.007851 0.000000 -0.006126
v 0.010601 0.001000 -0.006126
v 0.007851 0.001000 -0.006126
v 0.005101 0.001000 -0.006126
v -0.000399 0.001000 -0.006126
v 0.005101 0.000500 -0.006126
v 0.005101 0.000000 -0.006126
v 0.005101 -0.000500 -0.006126
v -0.000399 -0.001000 -0.006126
v 0.005101 -0.001000 -0.006126
v 0.016601 0.001000 -0.014372
v 0.018601 0.001000 -0.014372
v 0.016601 -0.001000 -0.014372
v 0.018601 -0.001000 -0.014372
v 0.016601 -0.001000 -0.020126
v 0.016601 0.000000 -0.020126
v 0.016601 -0.001000 -0.014648
v 0.016601 -0.001000 -0.014372
v 0.016601 0.001000 -0.014648
v 0.016601 0.001000 -0.020126
v 0.016601 0.001000 -0.014372
v 0.018601 -0.001000 -0.020126
v 0.018601 0.000000 -0.020126
v 0.018601 -0.001000 -0.014648
v 0.018601 -0.001000 -0.014372
v 0.018601 0.001000 -0.014648
v 0.018601 0.001000 -0.020126
v 0.018601 0.001000 -0.014372
v 0.016601 -0.001000 -0.020126
v 0.016601 0.000000 -0.020126
v 0.014601 -0.001000 -0.020126
v 0.014601 0.000000 -0.020126
v 0.014601 0.001000 -0.020126
v 0.016601 0.001000 -0.020126
v -0.000399 -0.001000 0.008874
v 0.004601 -0.001000 0.008874
v -0.000399 -0.001000 0.012874
v 0.006626 -0.001000 0.008488
v 0.024601 -0.001000 0.012874
v 0.008490 -0.001000 0.007263
v 0.009715 -0.001000 0.005399
v 0.023765 -0.001000 -0.006283
v 0.024601 -0.001000 -0.006126
v 0.028236 -0.001000 0.012151
v 0.010101 -0.001000 0.003374
v 0.018601 -0.001000 -0.007648
v 0.009715 -0.001000 0.001350
v 0.016601 -0.001000 -0.007648
v 0.008490 -0.001000 -0.000515
v 0.012085 -0.001000 -0.006727
v 0.011437 -0.001000 -0.006283
v 0.010601 -0.001000 -0.006126
v 0.004601 -0.001000 -0.002126
v -0.000399 -0.001000 -0.006126
v 0.006626 -0.001000 -0.001740
v -0.000399 -0.001000 -0.002126
v 0.012914 -0.001000 -0.008313
v 0.013351 -0.001000 -0.013126
v 0.013414 -0.001000 -0.017938
v 0.016601 -0.001000 -0.014372
v 0.016601 -0.001000 -0.014648
v 0.016601 -0.001000 -0.020126
v 0.014601 -0.001000 -0.020126
v 0.013773 -0.001000 -0.019524
v 0.014117 -0.001000 -0.019969
v 0.014340 -0.001000 -0.020086
v 0.022289 -0.001000 -0.008313
v 0.021851 -0.001000 -0.013126
v 0.018601 -0.001000 -0.014372
v 0.023117 -0.001000 -0.006727
v 0.018601 -0.001000 -0.014648
v 0.021789 -0.001000 -0.017938
v 0.018601 -0.001000 -0.020126
v 0.020601 -0.001000 -0.020126
v 0.021429 -0.001000 -0.019524
v 0.021085 -0.001000 -0.019969
v 0.020862 -0.001000 -0.020086
v 0.028236 -0.001000 -0.005403
v 0.033378 -0.001000 0.007010
v 0.031319 -0.001000 0.010092
v 0.031319 -0.001000 -0.003343
v 0.034101 -0.001000 0.003374
v 0.033378 -0.001000 -0.000261
v -0.000399 0.001000 0.012874
v -0.000399 0.001000 0.008874
v -0.003399 0.001000 0.008874
v -0.005423 0.001000 0.008488
v -0.023399 0.001000 0.012874
v -0.023399 0.001000 -0.006126
v -0.007288 0.001000 0.007263
v -0.008513 0.001000 0.005399
v -0.008899 0.001000 0.003374
v -0.022563 0.001000 -0.006283
v -0.026896 0.001000 0.012207
v -0.026896 0.001000 -0.005459
v -0.030116 0.001000 -0.003343
v -0.032232 0.001000 0.006871
v -0.030116 0.001000 0.010092
v -0.032232 0.001000 -0.000123
v -0.032899 0.001000 0.003374
v -0.017399 0.001000 -0.007605
v -0.021914 0.001000 -0.006727
v -0.021086 0.001000 -0.008313
v -0.020649 0.001000 -0.013126
v -0.020586 0.001000 -0.017938
v -0.017399 0.001000 -0.020126
v -0.019399 0.001000 -0.020126
v -0.020227 0.001000 -0.019524
v -0.019883 0.001000 -0.019969
v -0.019660 0.001000 -0.020086
v -0.008513 0.001000 0.001350
v -0.015399 0.001000 -0.007605
v -0.010883 0.001000 -0.006727
v -0.015399 0.001000 -0.020126
v -0.011711 0.001000 -0.008313
v -0.012149 0.001000 -0.013126
v -0.012211 0.001000 -0.017938
v -0.013399 0.001000 -0.020126
v -0.012571 0.001000 -0.019524
v -0.012915 0.001000 -0.019969
v -0.013138 0.001000 -0.020086
v -0.010235 0.001000 -0.006283
v -0.009399 0.001000 -0.006126
v -0.007288 0.001000 -0.000515
v -0.005423 0.001000 -0.001740
v -0.003399 0.001000 -0.002126
v -0.000399 0.001000 -0.002126
v -0.000399 0.001000 -0.006126
v -0.000399 -0.001000 0.012874
v -0.000399 -0.001000 0.008874
v -0.003399 -0.001000 0.008874
v -0.005423 -0.001000 0.008488
v -0.023399 -0.001000 0.012874
v -0.022563 -0.001000 -0.006283
v -0.026896 -0.001000 0.012207
v -0.023399 -0.001000 -0.006126
v -0.007288 -0.001000 0.007263
v -0.008513 -0.001000 0.005399
v -0.030116 -0.001000 -0.003343
v -0.008899 -0.001000 0.003374
v -0.017399 -0.001000 -0.007605
v -0.008513 -0.001000 0.001350
v -0.015399 -0.001000 -0.007605
v -0.010883 -0.001000 -0.006727
v -0.010235 -0.001000 -0.006283
v -0.007288 -0.001000 -0.000515
v -0.009399 -0.001000 -0.006126
v -0.005423 -0.001000 -0.001740
v -0.003399 -0.001000 -0.002126
v -0.000399 -0.001000 -0.002126
v -0.000399 -0.001000 -0.006126
v -0.011711 -0.001000 -0.008313
v -0.012149 -0.001000 -0.013126
v -0.012211 -0.001000 -0.017938
v -0.015399 -0.001000 -0.020126
v -0.013399 -0.001000 -0.020126
v -0.012571 -0.001000 -0.019524
v -0.012915 -0.001000 -0.019969
v -0.013138 -0.001000 -0.020086
v -0.021914 -0.001000 -0.006727
v -0.021086 -0.001000 -0.008313
v -0.020649 -0.001000 -0.013126
v -0.017399 -0.001000 -0.020126
v -0.020586 -0.001000 -0.017938
v -0.019399 -0.001000 -0.020126
v -0.019883 -0.001000 -0.019969
v -0.020227 -0.001000 -0.019524
v -0.019660 -0.001000 -0.020086
v -0.026896 -0.001000 -0.005459
v -0.032232 -0.001000 -0.000123
v -0.032232 -0.001000 0.006871
v -0.032899 -0.001000 0.003374
v -0.030116 -0.001000 0.010092
vn 0.000000 1.000000 0.000000
vn 0.000000 1.000000 0.000000
vn 0.000000 1.000000 0.000000
vn 0.000000 1.000000 0.000000
vn 0.000000 1.000000 0.000000
vn 0.000000 1.000000 0.000000
vn 0.000000 1.000000 0.000000
vn 0.000000 1.000000 0.000000
vn 0.000000 1.000000 0.000000
vn 0.000000 1.000000 0.000000
vn 0.000000 1.000000 0.000000
vn 0.000000 1.000000 0.000000
vn 0.000000 1.000000 0.000000
vn 0.000000 1.000000 0.000000
vn 0.000000 1.000000 0.000000
vn 0.000000 1.000000 0.000000
vn 0.000000 1.000000 0.000000
vn 0.000000 1.000000 0.000000
vn 0.000000 1.000000 0.000000
vn 0.000000 1.000000 0.000000
vn 0.000000 1.000000 0.000000
vn 0.000000 1.000000 0.000000
vn 0.000000 1.000000 0.000000
vn 0.000000 1.000000 0.000000
vn 0.000000 1.000000 0.000000
vn 0.000000 1.000000 0.000000
vn 0.000000 1.000000 0.000000
vn 0.000000 1.000000 0.000000
vn 0.000000 1.000000 0.000000
vn 0.000000 1.000000 0.000000
vn 0.000000 1.000000 0.000000
vn 0.000000 1.000000 0.000000
vn 0.000000 1.000000 0.000000
vn 0.000000 1.000000 0.000000
vn 0.000000 1.000000 0.000000
vn 0.000000 1.000000 0.000000
vn 0.000000 1.000000 0.000000
vn 0.000000 1.000000 0.000000
vn 0.000000 1.000000 0.000000
vn 0.000000 1.000000 0.000000
vn 0.000000 1.000000 0.000000
vn 0.000000 1.000000 0.000000
vn 0.000000 1.000000 0.000000
vn 0.000000 1.000000 0.000000
vn 0.000000 1.000000 0.000000
vn 0.000000 1.000000 0.000000
vn 0.000000 1.000000 0.000000
vn 0.000000 1.000000 0.000000
vn 0.000000 1.000000 0.000000
vn 1.000000 -0.000000 0.000100
vn 1.000000 -0.000000 0.000100
vn 0.924988 -0.000000 0.379995
vn 0.925024 -0.000000 0.379910
vn 0.699819 -0.000000 0.714320
vn 0.699819 -0.000000 0.714320
vn 0.363411 -0.000000 0.931629
vn 0.363411 -0.000000 0.931629
vn 0.000100 -0.000000 1.000000
vn 0.000100 -0.000000 1.000000
vn 0.000100 -0.000000 1.000000
vn 1.000000 -0.000000 0.000100
vn 0.000000 0.000000 -1.000000
vn 0.000000 0.000000 -1.000000
vn 0.000000 0.000000 -1.000000
vn 0.000000 0.000000 -1.000000
vn 0.000000 0.000000 -1.000000
vn 0.000100 0.000000 -1.000000
vn 0.000100 0.000000 -1.000000
vn 0.379995 0.000000 -0.924988
vn 0.379995 0.000000 -0.924988
vn 0.714221 0.000000 -0.699920
vn 0.714221 0.000000 -0.699920
vn 0.931629 0.000000 -0.363411
vn 0.931629 0.000000 -0.363411
vn 1.000000 0.000000 -0.000100
vn 1.000000 0.000000 -0.000100
vn 1.000000 0.000000 -0.000100
vn 0.000100 0.000000 -1.000000
vn 0.000000 -0.000000 1.000000
vn 0.000000 -0.000000 1.000000
vn 0.000000 -0.000000 1.000000
vn 0.000000 -0.000000 1.000000
vn 0.000000 -0.000000 1.000000
vn 0.000000 -0.000000 1.000000
vn 0.000000 -0.000000 1.000000
vn 0.000000 -0.000000 1.000000
vn 0.000000 -0.000000 1.000000
vn 0.000000 -0.000000 1.000000
vn 0.000000 -0.000000 1.000000
vn 0.000000 -0.000000 1.000000
vn -0.000100 -0.000000 1.000000
vn -0.000100 -0.000000 1.000000
vn -0.379995 -0.000000 0.924988
vn -0.379995 -0.000000 0.924988
vn -0.714369 -0.000000 0.699769
vn -0.714369 -0.000000 0.699769
vn -0.931595 -0.000000 0.363498
vn -0.931595 -0.000000 0.363498
vn -1.000000 0.000000 0.000000
vn -1.000000 0.000000 0.000000
vn -0.925024 0.000000 -0.379910
vn -0.925024 0.000000 -0.379910
vn -0.699668 0.000000 -0.714468
vn -0.699668 0.000000 -0.714468
vn -0.363498 0.000000 -0.931595
vn -0.363498 0.000000 -0.931595
vn -0.000100 0.000000 -1.000000
vn 0.000000 0.000000 -1.000000
vn 0.000000 0.000000 -1.000000
vn -0.000100 -0.000000 1.000000
vn 0.000000 0.000000 -1.000000
vn 0.000000 0.000000 -1.000000
vn 0.000000 0.000000 -1.000000
vn 0.000000 0.000000 -1.000000
vn 0.000000 0.000000 -1.000000
vn 0.000000 0.000000 -1.000000
vn 0.000000 0.000000 -1.000000
vn 0.000100 0.000000 -1.000000
vn 0.000100 0.000000 -1.000000
vn -0.973497 0.000000 -0.228699
vn -0.973497 0.000000 -0.228699
vn -0.999049 0.000000 -0.043602
vn -0.999049 0.000000 -0.043602
vn -0.999992 -0.000000 0.003900
vn -0.999992 -0.000000 0.003900
vn -0.999984 -0.000000 0.005700
vn -0.999984 -0.000000 0.005700
vn -0.999616 0.000000 -0.027700
vn -0.999616 0.000000 -0.027700
vn -0.994440 0.000000 -0.105304
vn -0.994440 0.000000 -0.105304
vn -0.960495 0.000000 -0.278298
vn -0.960495 0.000000 -0.278298
vn -0.711294 0.000000 -0.702894
vn -0.711294 0.000000 -0.702894
vn -0.000100 0.000000 -1.000000
vn -0.000100 0.000000 -1.000000
vn -0.000100 0.000000 -1.000000
vn -0.000100 0.000000 -1.000000
vn 0.000100 0.000000 -1.000000
vn -0.000100 0.000000 -1.000000
vn -0.000100 0.000000 -1.000000
vn -0.187898 0.000000 -0.982189
vn -0.187994 0.000000 -0.982170
vn -0.379910 0.000000 -0.925024
vn -0.379910 0.000000 -0.925024
vn -0.713874 0.000000 -0.700274
vn -0.713874 0.000000 -0.700274
vn -0.931595 0.000000 -0.363498
vn -0.931595 0.000000 -0.363498
vn -1.000000 0.000000 0.000000
vn -1.000000 0.000000 0.000000
vn -0.925024 -0.000000 0.379910
vn -0.925024 -0.000000 0.379910
vn -0.699870 -0.000000 0.714270
vn -0.699870 -0.000000 0.714270
vn -0.363411 -0.000000 0.931629
vn -0.363411 -0.000000 0.931629
vn -0.000100 -0.000000 1.000000
vn -0.000100 -0.000000 1.000000
vn -0.379910 0.000000 -0.925024
vn -0.187898 0.000000 -0.982189
vn -0.000100 0.000000 -1.000000
vn 0.000000 0.000000 -1.000000
vn 0.000100 0.000000 -1.000000
vn 0.000100 0.000000 -1.000000
vn 0.741810 0.000100 -0.670610
vn 0.741810 0.000000 -0.670610
vn 0.963170 0.000000 -0.268892
vn 0.963170 0.000000 -0.268892
vn 0.994692 0.000000 -0.102899
vn 0.994692 0.000000 -0.102899
vn 0.999670 0.000000 -0.025699
vn 0.999670 0.000000 -0.025699
vn 0.999984 -0.000000 0.005600
vn 0.999984 -0.000000 0.005600
vn 0.999992 -0.000000 0.004000
vn 0.999992 -0.000000 0.004000
vn 0.998932 0.000000 -0.046201
vn 0.998932 0.000000 -0.046201
vn 0.973213 0.000000 -0.229903
vn 0.973213 0.000000 -0.229903
vn -0.000100 0.000000 -1.000000
vn 0.000000 0.000000 -1.000000
vn 0.000000 0.000000 -1.000000
vn 0.000100 0.000000 -1.000000
vn 0.000000 0.000000 -1.000000
vn 0.000000 0.000000 -1.000000
vn 0.000000 0.000000 -1.000000
vn 0.000000 0.000000 -1.000000
vn 0.000000 0.000000 -1.000000
vn 0.000000 0.000000 -1.000000
vn 0.000000 0.000000 -1.000000
vn 0.000000 0.000000 -1.000000
vn 0.000000 0.000000 -1.000000
vn 0.000000 0.000000 -1.000000
vn 0.000000 0.000000 -1.000000
vn 0.000000 0.000000 -1.000000
vn 1.000000 0.000000 0.000000
vn 1.000000 0.000000 0.000000
vn 1.000000 0.000000 0.000000
vn 1.000000 0.000000 0.000000
vn 1.000000 0.000000 0.000000
vn -1.000000 0.000000 0.000000
vn -1.000000 0.000000 0.000000
vn -1.000000 0.000000 0.000000
vn -1.000000 0.000000 0.000000
vn -1.000000 0.000000 0.000000
vn 0.000000 0.000000 -1.000000
vn 0.000000 0.000000 -1.000000
vn 0.000000 0.000000 -1.000000
vn 0.000000 0.000000 -1.000000
vn 0.000000 -0.000000 1.000000
vn 0.000000 -0.000000 1.000000
vn 0.000000 -0.000000 1.000000
vn 0.000000 -0.000000 1.000000
vn 0.000000 -0.000000 1.000000
vn 0.000000 -0.000000 1.000000
vn 0.000000 -0.000000 1.000000
vn 0.000000 -0.000000 1.000000
vn 0.000000 -0.000000 1.000000
vn 0.000000 -0.000000 1.000000
vn 0.000000 -0.000000 1.000000
vn 0.000000 -0.000000 1.000000
vn 0.000000 -0.000000 1.000000
vn 0.000000 0.000000 -1.000000
vn 0.000000 0.000000 -1.000000
vn 0.000000 0.000000 -1.000000
vn 0.000000 0.000000 -1.000000
vn 0.000000 0.000000 -1.000000
vn 0.000000 0.000000 -1.000000
vn 0.000000 0.000000 -1.000000
vn 0.000000 0.000000 -1.000000
vn 0.000000 0.000000 -1.000000
vn 0.000000 0.000000 -1.000000
vn 0.000000 0.000000 -1.000000
vn 0.000000 0.000000 -1.000000
vn 0.000000 0.000000 -1.000000
vn 0.000000 0.000000 -1.000000
vn 0.000000 0.000000 -1.000000
vn 0.000000 -1.000000 -0.000000
vn 0.000000 -1.000000 -0.000000
vn 0.000000 -1.000000 -0.000000
vn 0.000000 -1.000000 -0.000000
vn 0.000000 1.000000 0.000000
vn 0.000000 1.000000 0.000000
vn 0.000000 1.000000 0.000000
vn 0.000000 1.000000 0.000000
vn 0.000000 -0.000000 1.000000
vn 0.000000 -0.000000 1.000000
vn 0.000000 -0.000000 1.000000
vn 0.000000 -0.000000 1.000000
vn 0.000000 -0.000000 1.000000
vn 0.000000 -0.000000 1.000000
vn 0.000000 -0.000000 1.000000
vn 0.000000 -0.000000 1.000000
vn 0.000000 -0.000000 1.000000
vn 0.000000 -0.000000 1.000000
vn 0.000000 -0.000000 1.000000
vn 0.000000 -0.000000 1.000000
vn 0.000000 -0.000000 1.000000
vn 0.000000 -0.000000 1.000000
vn 0.000000 -0.000000 1.000000
vn 0.000000 -0.000000 1.000000
vn 0.000100 0.000000 -1.000000
vn 0.000100 0.000000 -1.000000
vn 0.741810 0.000100 -0.670610
vn 0.741810 0.000000 -0.670610
vn 0.963170 0.000000 -0.268892
vn 0.963170 0.000000 -0.268892
vn 0.994692 0.000000 -0.102899
vn 0.994692 0.000000 -0.102899
vn 0.999670 0.000000 -0.025699
vn 0.999670 0.000000 -0.025699
vn 0.999984 -0.000000 0.005600
vn 0.999984 -0.000000 0.005600
vn 0.999992 -0.000000 0.004000
vn 0.999992 -0.000000 0.004000
vn 0.998932 0.000000 -0.046201
vn 0.998932 0.000000 -0.046201
vn 0.973213 0.000000 -0.229903
vn 0.973213 0.000000 -0.229903
vn -0.000100 0.000000 -1.000000
vn 0.000000 0.000000 -1.000000
vn 0.000000 0.000000 -1.000000
vn 0.000100 0.000000 -1.000000
vn 0.000000 0.000000 -1.000000
vn 0.000000 0.000000 -1.000000
vn 0.000000 0.000000 -1.000000
vn 0.000000 0.000000 -1.000000
vn 0.000000 0.000000 -1.000000
vn 0.000000 0.000000 -1.000000
vn 0.000100 0.000000 -1.000000
vn 0.000100 0.000000 -1.000000
vn -0.973497 0.000000 -0.228699
vn -0.973497 0.000000 -0.228699
vn -0.999049 0.000000 -0.043602
vn -0.999049 0.000000 -0.043602
vn -0.999992 -0.000000 0.003900
vn -0.999992 -0.000000 0.003900
vn -0.999984 -0.000000 0.005700
vn -0.999984 -0.000000 0.005700
vn -0.999616 0.000000 -0.027700
vn -0.999616 0.000000 -0.027700
vn -0.994440 0.000000 -0.105304
vn -0.994440 0.000000 -0.105304
vn -0.960495 0.000000 -0.278298
vn -0.960495 0.000000 -0.278298
vn -0.711344 0.000000 -0.702844
vn -0.711344 0.000000 -0.702844
vn -0.000100 0.000000 -1.000000
vn -0.000100 0.000000 -1.000000
vn -0.000100 0.000000 -1.000000
vn 0.000100 0.000000 -1.000000
vn 0.000000 0.000000 -1.000000
vn 0.000000 0.000000 -1.000000
vn 0.000000 0.000000 -1.000000
vn 0.000000 0.000000 -1.000000
vn 0.000000 0.000000 -1.000000
vn 0.000000 0.000000 -1.000000
vn 0.000000 0.000000 -1.000000
vn 0.000000 0.000000 -1.000000
vn 0.000000 0.000000 -1.000000
vn 0.000000 0.000000 -1.000000
vn 0.000000 0.000000 -1.000000
vn 0.000000 0.000000 -1.000000
vn 0.000000 0.000000 -1.000000
vn 0.000000 0.000000 -1.000000
vn 0.000000 0.000000 -1.000000
vn 0.000000 0.000000 -1.000000
vn 0.000000 0.000000 -1.000000
vn 0.000000 0.000000 -1.000000
vn 0.000000 0.000000 -1.000000
vn 1.000000 0.000000 0.000000
vn 1.000000 0.000000 0.000000
vn 1.000000 0.000000 0.000000
vn 1.000000 0.000000 0.000000
vn 1.000000 0.000000 0.000000
vn 1.000000 0.000000 0.000000
vn 1.000000 0.000000 0.000000
vn -1.000000 0.000000 0.000000
vn -1.000000 0.000000 0.000000
vn -1.000000 0.000000 0.000000
vn -1.000000 0.000000 0.000000
vn -1.000000 0.000000 0.000000
vn -1.000000 0.000000 0.000000
vn -1.000000 0.000000 0.000000
vn 0.000000 0.000000 -1.000000
vn 0.000000 0.000000 -1.000000
vn 0.000000 0.000000 -1.000000
vn 0.000000 0.000000 -1.000000
vn 0.000000 0.000000 -1.000000
vn 0.000000 0.000000 -1.000000
vn 0.000000 -1.000000 -0.000000
vn 0.000000 -1.000000 -0.000000
vn 0.000000 -1.000000 -0.000000
vn 0.000000 -1.000000 -0.000000
vn 0.000000 -1.000000 -0.000000
vn 0.000000 -1.000000 -0.000000
vn 0.000000 -1.000000 -0.000000
vn 0.000000 -1.000000 -0.000000
vn 0.000000 -1.000000 -0.000000
vn 0.000000 -1.000000 -0.000000
vn 0.000000 -1.000000 -0.000000
vn 0.000000 -1.000000 -0.000000
vn 0.000000 -1.000000 -0.000000
vn 0.000000 -1.000000 -0.000000
vn 0.000000 -1.000000 -0.000000
vn 0.000000 -1.000000 -0.000000
vn 0.000000 -1.000000 -0.000000
vn 0.000000 -1.000000 -0.000000
vn 0.000000 -1.000000 -0.000000
vn 0.000000 -1.000000 -0.000000
vn 0.000000 -1.000000 -0.000000
vn 0.000000 -1.000000 -0.000000
vn 0.000000 -1.000000 -0.000000
vn 0.000000 -1.000000 -0.000000
vn 0.000000 -1.000000 -0.000000
vn 0.000000 -1.000000 -0.000000
vn 0.000000 -1.000000 -0.000000
vn 0.000000 -1.000000 -0.000000
vn 0.000000 -1.000000 -0.000000
vn 0.000000 -1.000000 -0.000000
vn 0.000000 -1.000000 -0.000000
vn 0.000000 -1.000000 -0.000000
vn 0.000000 -1.000000 -0.000000
vn 0.000000 -1.000000 -0.000000
vn 0.000000 -1.000000 -0.000000
vn 0.000000 -1.000000 -0.000000
vn 0.000000 -1.000000 -0.000000
vn 0.000000 -1.000000 -0.000000
vn 0.000000 -1.000000 -0.000000
vn 0.000000 -1.000000 -0.000000
vn 0.000000 -1.000000 -0.000000
vn 0.000000 -1.000000 -0.000000
vn 0.000000 -1.000000 -0.000000
vn 0.000000 -1.000000 -0.000000
vn 0.000000 -1.000000 -0.000000
vn 0.000000 -1.000000 -0.000000
vn 0.000000 -1.000000 -0.000000
vn 0.000000 -1.000000 -0.000000
vn 0.000000 -1.000000 -0.000000
vn 0.000000 1.000000 0.000000
vn 0.000000 1.000000 0.000000
vn 0.000000 1.000000 0.000000
vn 0.000000 1.000000 0.000000
vn 0.000000 1.000000 0.000000
vn 0.000000 1.000000 0.000000
vn 0.000000 1.000000 0.000000
vn 0.000000 1.000000 0.000000
vn 0.000000 1.000000 0.000000
vn 0.000000 1.000000 0.000000
vn 0.000000 1.000000 0.000000
vn 0.000000 1.000000 0.000000
vn 0.000000 1.000000 0.000000
vn 0.000000 1.000000 0.000000
vn 0.000000 1.000000 0.000000
vn 0.000000 1.000000 0.000000
vn 0.000000 1.000000 0.000000
vn 0.000000 1.000000 0.000000
vn 0.000000 1.000000 0.000000
vn 0.000000 1.000000 0.000000
vn 0.000000 1.000000 0.000000
vn 0.000000 1.000000 0.000000
vn 0.000000 1.000000 0.000000
vn 0.000000 1.000000 0.000000
vn 0.000000 1.000000 0.000000
vn 0.000000 1.000000 0.000000
vn 0.000000 1.000000 0.000000
vn 0.000000 1.000000 0.000000
vn 0.000000 1.000000 0.000000
vn 0.000000 1.000000 0.000000
vn 0.000000 1.000000 0.000000
vn 0.000000 1.000000 0.000000
vn 0.000000 1.000000 0.000000
vn 0.000000 1.000000 0.000000
vn 0.000000 1.000000 0.000000
vn 0.000000 1.000000 0.000000
vn 0.000000 1.000000 0.000000
vn 0.000000 1.000000 0.000000
vn 0.000000 1.000000 0.000000
vn 0.000000 1.000000 0.000000
vn 0.000000 1.000000 0.000000
vn 0.000000 1.000000 0.000000
vn 0.000000 1.000000 0.000000
vn 0.000000 1.000000 0.000000
vn 0.000000 1.000000 0.000000
vn 0.000000 -1.000000 -0.000000
vn 0.000000 -1.000000 -0.000000
vn 0.000000 -1.000000 -0.000000
vn 0.000000 -1.000000 -0.000000
vn 0.000000 -1.000000 -0.000000
vn 0.000000 -1.000000 -0.000000
vn 0.000000 -1.000000 -0.000000
vn 0.000000 -1.000000 -0.000000
vn 0.000000 -1.000000 -0.000000
vn 0.000000 -1.000000 -0.000000
vn 0.000000 -1.000000 -0.000000
vn 0.000000 -1.000000 -0.000000
vn 0.000000 -1.000000 -0.000000
vn 0.000000 -1.000000 -0.000000
vn 0.000000 -1.000000 -0.000000
vn 0.000000 -1.000000 -0.000000
vn 0.000000 -1.000000 -0.000000
vn 0.000000 -1.000000 -0.000000
vn 0.000000 -1.000000 -0.000000
vn 0.000000 -1.000000 -0.000000
vn 0.000000 -1.000000 -0.000000
vn 0.000000 -1.000000 -0.000000
vn 0.000000 -1.000000 -0.000000
vn 0.000000 -1.000000 -0.000000
vn 0.000000 -1.000000 -0.000000
vn 0.000000 -1.000000 -0.000000
vn 0.000000 -1.000000 -0.000000
vn 0.000000 -1.000000 -0.000000
vn 0.000000 -1.000000 -0.000000
vn 0.000000 -1.000000 -0.000000
vn 0.000000 -1.000000 -0.000000
vn 0.000000 -1.000000 -0.000000
vn 0.000000 -1.000000 -0.000000
vn 0.000000 -1.000000 -0.000000
vn 0.000000 -1.000000 -0.000000
vn 0.000000 -1.000000 -0.000000
vn 0.000000 -1.000000 -0.000000
vn 0.000000 -1.000000 -0.000000
vn 0.000000 -1.000000 -0.000000
vn 0.000000 -1.000000 -0.000000
vn 0.000000 -1.000000 -0.000000
vn 0.000000 -1.000000 -0.000000
vn 0.000000 -1.000000 -0.000000
vn 0.000000 -1.000000 -0.000000
vn 0.000000 -1.000000 -0.000000
f 2//2 1//1 3//3
f 4//4 2//2 3//3
f 4//4 3//3 5//5
f 5//5 6//6 4//4
f 5//5 7//7 6//6
f 7//7 5//5 11//11
f 11//11 5//5 8//8
f 8//8 5//5 9//9
f 9//9 5//5 10//10
f 11//11 8//8 12//12
f 11//11 12//12 13//13
f 13//13 12//12 14//14
f 13//13 14//14 16//16
f 17//17 15//15 13//13
f 17//17 13//13 16//16
f 17//17 18//18 15//15
f 21//21 18//18 19//19
f 19//19 18//18 20//20
f 18//18 21//21 15//15
f 19//19 20//20 22//22
f 14//14 23//23 16//16
f 14//14 24//24 23//23
f 24//24 14//14 26//26
f 25//25 24//24 27//27
f 24//24 26//26 27//27
f 28//28 25//25 27//27
f 28//28 29//29 25//25
f 25//25 29//29 30//30
f 30//30 29//29 31//31
f 29//29 32//32 31//31
f 12//12 36//36 33//33
f 33//33 34//34 12//12
f 8//8 35//35 12//12
f 12//12 35//35 36//36
f 33//33 37//37 34//34
f 38//38 37//37 33//33
f 38//38 39//39 37//37
f 39//39 38//38 40//40
f 38//38 41//41 40//40
f 42//42 40//40 41//41
f 43//43 40//40 42//42
f 9//9 10//10 44//44
f 44//44 10//10 45//45
f 45//45 10//10 46//46
f 45//45 47//47 44//44
f 45//45 48//48 47//47
f 49//49 9//9 44//44
f 51//51 50//50 52//52
f 52//52 53//53 51//51
f 55//55 53//53 52//52
f 55//55 52//52 54//54
f 57//57 55//55 54//54
f 57//57 54//54 56//56
f 56//56 58//58 57//57
f 58//58 56//56 59//59
f 60//60 57//57 58//58
f 61//61 51//51 53//53
f 62//62 65//65 63//63
f 63//63 64//64 62//62
f 64//64 63//63 66//66
f 68//68 67//67 69//69
f 69//69 70//70 68//68
f 72//72 70//70 69//69
f 72//72 69//69 71//71
f 74//74 72//72 71//71
f 74//74 71//71 73//73
f 73//73 75//75 74//74
f 75//75 73//73 76//76
f 77//77 74//74 75//75
f 78//78 68//68 70//70
f 80//80 81//81 79//79
f 82//82 81//81 83//83
f 80//80 83//83 81//81
f 85//85 84//84 86//86
f 85//85 86//86 88//88
f 88//88 86//86 87//87
f 88//88 87//87 90//90
f 90//90 89//89 88//88
f 92//92 91//91 93//93
f 93//93 94//94 92//92
f 96//96 94//94 93//93
f 96//96 93//93 95//95
f 98//98 96//96 95//95
f 98//98 95//95 97//97
f 100//100 98//98 97//97
f 100//100 97//97 99//99
f 102//102 100//100 99//99
f 102//102 99//99 101//101
f 104//104 102//102 101//101
f 104//104 101//101 103//103
f 106//106 104//104 103//103
f 106//106 103//103 105//105
f 105//105 107//107 106//106
f 107//107 105//105 108//108
f 109//109 106//106 107//107
f 110//110 92//92 94//94
f 112//112 113//113 111//111
f 113//113 112//112 114//114
f 114//114 115//115 113//113
f 117//117 116//116 114//114
f 117//117 114//114 112//112
f 119//119 118//118 120//120
f 120//120 121//121 119//119
f 123//123 121//121 120//120
f 123//123 120//120 122//122
f 125//125 123//123 122//122
f 125//125 122//122 124//124
f 127//127 125//125 124//124
f 127//127 124//124 126//126
f 129//129 127//127 126//126
f 129//129 126//126 128//128
f 131//131 129//129 128//128
f 131//131 128//128 130//130
f 133//133 131//131 130//130
f 133//133 130//130 132//132
f 135//135 133//133 132//132
f 135//135 132//132 134//134
f 134//134 138//138 135//135
f 138//138 134//134 136//136
f 136//136 134//134 137//137
f 139//139 135//135 138//138
f 140//140 119//119 121//121
f 142//142 141//141 143//143
f 142//142 143//143 144//144
f 146//146 144//144 143//143
f 146//146 143//143 145//145
f 146//146 145//145 147//147
f 147//147 148//148 146//146
f 150//150 148//148 147//147
f 150//150 147//147 149//149
f 152//152 150//150 149//149
f 152//152 149//149 151//151
f 154//154 152//152 151//151
f 154//154 151//151 153//153
f 156//156 154//154 153//153
f 156//156 153//153 155//155
f 158//158 156//156 155//155
f 158//158 155//155 157//157
f 159//159 160//160 158//158
f 159//159 158//158 157//157
f 148//148 161//161 146//146
f 161//161 162//162 144//144
f 161//161 144//144 146//146
f 163//163 164//164 144//144
f 163//163 144//144 162//162
f 142//142 144//144 164//164
f 166//166 165//165 167//167
f 167//167 168//168 166//166
f 170//170 168//168 167//167
f 170//170 167//167 169//169
f 172//172 170//170 169//169
f 172//172 169//169 171//171
f 174//174 172//172 171//171
f 174//174 171//171 173//173
f 176//176 174//174 173//173
f 176//176 173//173 175//175
f 178//178 176//176 175//175
f 178//178 175//175 177//177
f 180//180 178//178 177//177
f 180//180 177//177 179//179
f 182//182 180//180 179//179
f 182//182 179//179 181//181
f 181//181 183//183 182//182
f 183//183 181//181 184//184
f 185//185 182//182 183//183
f 186//186 166//166 168//168
f 188//188 187//187 189//189
f 188//188 189//189 190//190
f 192//192 188//188 190//190
f 192//192 190//190 191//191
f 193//193 195//195 196//196
f 193//193 196//196 194//194
f 195//195 197//197 198//198
f 195//195 198//198 196//196
f 199//199 200//200 202//202
f 200//200 199//199 201//201
f 202//202 200//200 203//203
f 204//204 207//207 205//205
f 205//205 206//206 204//204
f 207//207 208//208 205//205
f 210//210 212//212 211//211
f 210//210 211//211 209//209
f 213//213 214//214 216//216
f 214//214 213//213 215//215
f 217//217 216//216 214//214
f 218//218 217//217 214//214
f 218//218 214//214 219//219
f 220//220 218//218 219//219
f 220//220 219//219 221//221
f 220//220 221//221 222//222
f 223//223 222//222 221//221
f 221//221 224//224 223//223
f 221//221 219//219 225//225
f 221//221 225//225 224//224
f 219//219 214//214 215//215
f 219//219 215//215 225//225
f 229//229 226//226 227//227
f 227//227 226//226 228//228
f 226//226 229//229 230//230
f 230//230 231//231 232//232
f 231//231 230//230 229//229
f 233//233 232//232 231//231
f 233//233 231//231 235//235
f 234//234 233//233 235//235
f 235//235 236//236 234//234
f 236//236 235//235 237//237
f 235//235 231//231 229//229
f 235//235 229//229 237//237
f 240//240 236//236 237//237
f 240//240 237//237 238//238
f 237//237 229//229 227//227
f 237//237 227//227 238//238
f 238//238 227//227 228//228
f 238//238 228//228 239//239
f 240//240 238//238 239//239
f 242//242 244//244 243//243
f 242//242 243//243 241//241
f 246//246 245//245 247//247
f 246//246 247//247 248//248
f 249//249 250//250 252//252
f 250//250 249//249 251//251
f 253//253 252//252 250//250
f 254//254 253//253 250//250
f 254//254 250//250 255//255
f 257//257 256//256 254//254
f 257//257 254//254 255//255
f 258//258 256//256 257//257
f 258//258 257//257 259//259
f 258//258 259//259 260//260
f 261//261 260//260 259//259
f 259//259 262//262 261//261
f 259//259 257//257 263//263
f 259//259 263//263 262//262
f 255//255 264//264 263//263
f 255//255 263//263 257//257
f 255//255 250//250 251//251
f 255//255 251//251 264//264
f 266//266 265//265 267//267
f 267//267 268//268 266//266
f 270//270 268//268 267//267
f 270//270 267//267 269//269
f 272//272 270//270 269//269
f 272//272 269//269 271//271
f 274//274 272//272 271//271
f 274//274 271//271 273//273
f 276//276 274//274 273//273
f 276//276 273//273 275//275
f 278//278 276//276 275//275
f 278//278 275//275 277//277
f 280//280 278//278 277//277
f 280//280 277//277 279//279
f 282//282 280//280 279//279
f 282//282 279//279 281//281
f 281//281 283//283 282//282
f 283//283 281//281 284//284
f 285//285 282//282 283//283
f 286//286 266//266 268//268
f 288//288 287//287 289//289
f 288//288 289//289 290//290
f 292//292 288//288 290//290
f 292//292 290//290 291//291
f 294//294 293//293 295//295
f 295//295 296//296 294//294
f 298//298 296//296 295//295
f 298//298 295//295 297//297
f 300//300 298//298 297//297
f 300//300 297//297 299//299
f 302//302 300//300 299//299
f 302//302 299//299 301//301
f 304//304 302//302 301//301
f 304//304 301//301 303//303
f 306//306 304//304 303//303
f 306//306 303//303 305//305
f 308//308 306//306 305//305
f 308//308 305//305 307//307
f 310//310 308//308 307//307
f 310//310 307//307 309//309
f 309//309 311//311 310//310
f 311//311 309//309 312//312
f 313//313 310//310 311//311
f 314//314 294//294 296//296
f 318//318 315//315 316//316
f 316//316 315//315 317//317
f 320//320 318//318 316//316
f 318//318 320//320 319//319
f 319//319 321//321 318//318
f 322//322 321//321 319//319
f 323//323 322//322 319//319
f 323//323 319//319 325//325
f 325//325 324//324 323//323
f 324//324 325//325 326//326
f 325//325 319//319 320//320
f 325//325 320//320 326//326
f 326//326 320//320 316//316
f 326//326 316//316 327//327
f 327//327 328//328 326//326
f 324//324 326//326 328//328
f 328//328 327//327 329//329
f 327//327 316//316 317//317
f 327//327 317//317 329//329
f 331//331 333//333 332//332
f 331//331 332//332 330//330
f 335//335 336//336 334//334
f 335//335 338//338 336//336
f 337//337 336//336 338//338
f 337//337 338//338 340//340
f 338//338 335//335 339//339
f 342//342 341//341 343//343
f 344//344 347//347 345//345
f 344//344 345//345 343//343
f 342//342 343//343 345//345
f 345//345 346//346 342//342
f 349//349 348//348 350//350
f 349//349 350//350 351//351
f 353//353 349//349 351//351
f 353//353 351//351 352//352
f 355//355 356//356 354//354
f 357//357 356//356 355//355
f 357//357 358//358 356//356
f 358//358 359//359 360//360
f 358//358 357//357 359//359
f 360//360 364//364 358//358
f 364//364 361//361 358//358
f 361//361 362//362 358//358
f 362//362 363//363 358//358
f 364//364 365//365 361//361
f 364//364 366//366 365//365
f 366//366 367//367 365//365
f 366//366 369//369 367//367
f 370//370 366//366 368//368
f 370//370 369//369 366//366
f 370//370 368//368 371//371
f 374//374 372//372 371//371
f 372//372 373//373 371//371
f 371//371 368//368 374//374
f 372//372 375//375 373//373
f 367//367 369//369 376//376
f 367//367 376//376 377//377
f 367//367 377//377 379//379
f 378//378 380//380 377//377
f 380//380 379//379 377//377
f 381//381 380//380 378//378
f 381//381 378//378 382//382
f 378//378 383//383 382//382
f 383//383 384//384 382//382
f 382//382 384//384 385//385
f 365//365 386//386 389//389
f 365//365 387//387 386//386
f 387//387 365//365 388//388
f 361//361 365//365 389//389
f 387//387 388//388 390//390
f 391//391 387//387 390//390
f 391//391 390//390 392//392
f 392//392 393//393 391//391
f 391//391 393//393 394//394
f 395//395 394//394 393//393
f 396//396 395//395 393//393
f 397//397 398//398 363//363
f 397//397 363//363 362//362
f 398//398 399//399 363//363
f 398//398 400//400 402//402
f 400//400 398//398 397//397
f 398//398 402//402 401//401
f 404//404 405//405 403//403
f 406//406 403//403 405//405
f 406//406 407//407 403//403
f 408//408 413//413 407//407
f 407//407 412//412 408//408
f 406//406 409//409 407//407
f 407//407 409//409 410//410
f 410//410 411//411 407//407
f 407//407 411//411 412//412
f 414//414 413//413 408//408
f 415//415 413//413 414//414
f 415//415 416//416 413//413
f 417//417 413//413 416//416
f 418//418 416//416 415//415
f 416//416 418//418 419//419
f 412//412 411//411 420//420
f 420//420 421//421 412//412
f 421//421 420//420 422//422
f 420//420 423//423 422//422
f 423//423 425//425 424//424
f 425//425 423//423 420//420
f 425//425 426//426 424//424
f 426//426 427//427 424//424
f 427//427 426//426 428//428
f 428//428 426//426 429//429
f 430//430 420//420 411//411
f 430//430 431//431 420//420
f 431//431 430//430 432//432
f 431//431 432//432 434//434
f 433//433 431//431 435//435
f 434//434 435//435 431//431
f 436//436 433//433 435//435
f 433//433 436//436 437//437
f 436//436 438//438 437//437
f 438//438 439//439 437//437
f 440//440 437//437 439//439
f 432//432 430//430 441//441
f 441//441 443//443 442//442
f 443//443 441//441 430//430
f 443//443 444//444 442//442
f 444//444 445//445 442//442
f 445//445 447//447 442//442
f 446//446 447//447 445//445
f 449//449 448//448 450//450
f 451//451 450//450 448//448
f 451//451 448//448 452//452
f 452//452 453//453 459//459
f 452//452 455//455 453//453
f 452//452 454//454 458//458
f 451//451 452//452 456//456
f 452//452 458//458 455//455
f 452//452 457//457 456//456
f 457//457 452//452 459//459
f 453//453 460//460 459//459
f 461//461 459//459 460//460
f 460//460 462//462 461//461
f 462//462 463//463 461//461
f 463//463 464//464 461//461
f 465//465 461//461 464//464
f 464//464 466//466 465//465
f 465//465 466//466 467//467
f 467//467 466//466 468//468
f 468//468 466//466 470//470
f 469//469 468//468 470//470
f 462//462 471//471 463//463
f 471//471 462//462 472//472
f 473//473 472//472 474//474
f 472//472 462//462 474//474
f 474//474 475//475 473//473
f 473//473 475//475 476//476
f 477//477 476//476 475//475
f 478//478 477//477 475//475
f 460//460 453//453 479//479
f 480//480 460//460 479//479
f 480//480 481//481 460//460
f 460//460 481//481 482//482
f 482//482 481//481 483//483
f 483//483 484//484 482//482
f 484//484 485//485 487//487
f 484//484 486//486 485//485
f 483//483 486//486 484//484
f 488//488 455//455 458//458
f 489//489 458//458 490//490
f 458//458 454//454 490//490
f 490//490 491//491 489//489
f 492//492 490//490 454//454
