# arm_29 exported from /models/landings/arm_29.glb
# units: meters
v -0.016632 0.001000 -0.021317
v -0.018591 0.001000 -0.014472
v -0.023241 0.001000 -0.020551
v -0.012428 0.001000 -0.021317
v -0.012428 0.001000 -0.016317
v -0.016670 0.001000 -0.014725
v -0.014820 0.001000 -0.014466
v -0.013843 0.001000 -0.014181
v -0.012428 0.001000 -0.016041
v -0.010428 0.001000 -0.016041
v -0.011013 0.001000 -0.013197
v -0.008239 0.001000 -0.012001
v -0.001131 0.001000 -0.016041
v -0.002952 0.001000 -0.009013
v -0.000484 0.001000 -0.007247
v 0.000869 0.001000 -0.016041
v 0.010725 0.001000 -0.016879
v 0.006660 0.001000 -0.019904
v 0.001674 0.001000 -0.021284
v 0.000869 0.001000 -0.021317
v 0.001837 0.001000 -0.005317
v 0.016972 0.001000 -0.007972
v 0.003990 0.001000 -0.003237
v 0.005956 0.001000 -0.001024
v 0.007715 0.001000 0.001310
v 0.009251 0.001000 0.003749
v 0.010548 0.001000 0.006279
v 0.011592 0.001000 0.008889
v 0.011729 0.001000 0.009296
v 0.025136 0.001000 0.017797
v 0.017163 0.001000 0.020748
v 0.025163 0.001000 0.018264
v 0.012035 0.001000 0.012309
v 0.011052 0.001000 0.015173
v 0.010122 0.001000 0.016385
v 0.015163 0.001000 0.020748
v 0.007163 0.001000 0.024264
v 0.015163 0.001000 0.024264
v 0.008287 0.001000 0.017766
v 0.006146 0.001000 0.018480
v 0.003114 0.001000 0.018313
v -0.004286 0.001000 0.020968
v 0.002136 0.001000 0.018027
v -0.000693 0.001000 0.017044
v -0.003467 0.001000 0.015847
v -0.008755 0.001000 0.012859
v -0.014651 0.001000 0.014760
v -0.011223 0.001000 0.011093
v -0.013544 0.001000 0.009163
v -0.015697 0.001000 0.007084
v -0.022977 0.001000 0.006166
v -0.017663 0.001000 0.004870
v -0.019422 0.001000 0.002536
v -0.020958 0.001000 0.000097
v -0.022255 0.001000 -0.002433
v -0.028313 0.001000 -0.004286
v -0.029025 0.001000 -0.012858
v -0.023473 0.001000 -0.009740
v -0.023435 0.001000 -0.005450
v -0.023684 0.001000 -0.006445
v -0.023299 0.001000 -0.005043
v -0.021829 0.001000 -0.012539
v -0.020372 0.001000 -0.013707
v -0.028246 0.001000 -0.016300
v -0.026496 0.001000 -0.018820
v 0.025163 0.001000 0.020264
v 0.024882 0.001000 0.021737
v 0.023991 0.001000 0.023093
v 0.017163 0.001000 0.021264
v 0.021163 0.001000 0.024264
v 0.022635 0.001000 0.023983
v 0.017163 0.001000 0.024264
v -0.010428 0.001000 -0.016317
v -0.001131 0.001000 -0.021317
v -0.010428 0.001000 -0.021317
v -0.001131 -0.001000 -0.021317
v -0.001131 0.001000 -0.021317
v -0.010428 -0.001000 -0.021317
v -0.010428 0.001000 -0.021317
v -0.010428 -0.001000 -0.021317
v -0.010428 0.001000 -0.021317
v -0.010428 -0.001000 -0.016041
v -0.010428 0.001000 -0.016041
v -0.010428 -0.001000 -0.016041
v -0.010428 0.001000 -0.016041
v -0.012428 -0.001000 -0.016041
v -0.012428 0.001000 -0.016041
v -0.012428 -0.001000 -0.016041
v -0.012428 0.001000 -0.016041
v -0.012428 -0.001000 -0.021317
v -0.012428 0.001000 -0.021317
v 0.007163 -0.001000 0.024264
v 0.007163 0.001000 0.024264
v 0.015163 -0.001000 0.024264
v 0.015163 0.001000 0.024264
v 0.017163 -0.001000 0.024264
v 0.017163 0.001000 0.024264
v 0.021163 -0.001000 0.024264
v 0.021163 0.001000 0.024264
v 0.000869 0.001000 -0.021317
v 0.000869 -0.001000 -0.021317
v 0.000869 0.001000 -0.016041
v 0.000869 -0.001000 -0.016041
v 0.000869 0.001000 -0.016041
v 0.000869 -0.001000 -0.016041
v -0.001131 0.001000 -0.016041
v -0.001131 -0.001000 -0.016041
v -0.001131 0.001000 -0.016041
v -0.001131 -0.001000 -0.016041
v -0.001131 0.001000 -0.021317
v -0.001131 -0.001000 -0.021317
v 0.015163 0.001000 0.020748
v 0.015163 -0.001000 0.020748
v 0.017163 0.001000 0.020748
v 0.017163 -0.001000 0.020748
v 0.017163 0.001000 0.020748
v 0.017163 0.001000 0.021264
v 0.017163 -0.001000 0.020748
v 0.017163 -0.001000 0.021264
v 0.017163 -0.001000 0.024264
v 0.017163 0.001000 0.024264
v 0.015163 0.001000 0.024264
v 0.015163 -0.001000 0.024264
v 0.015163 0.001000 0.020748
v 0.015163 -0.001000 0.020748
v 0.000869 0.001000 -0.021317
v 0.005700 0.000000 -0.020346
v 0.005700 0.001000 -0.020346
v 0.000869 -0.001000 -0.021317
v 0.005700 -0.001000 -0.020346
v 0.009687 -0.001000 -0.017845
v 0.009687 0.000000 -0.017845
v 0.015768 -0.001000 -0.010075
v 0.015768 0.001000 -0.010075
v 0.020219 -0.001000 -0.001480
v 0.020219 0.001000 -0.001480
v 0.023406 -0.000000 0.007995
v 0.023406 -0.001000 0.007995
v 0.024374 -0.000500 0.012592
v 0.024374 -0.001000 0.012592
v 0.024782 -0.001000 0.015112
v 0.025136 -0.001000 0.017797
v 0.024782 -0.000500 0.015112
v 0.024782 -0.000000 0.015112
v 0.025136 -0.000000 0.017797
v 0.025136 0.001000 0.017797
v 0.024782 0.000500 0.015112
v 0.024374 0.000500 0.012592
v 0.024782 0.001000 0.015112
v 0.024374 0.001000 0.012592
v 0.023406 0.001000 0.007995
v 0.024374 -0.000000 0.012592
v 0.009687 0.001000 -0.017845
v 0.007163 0.001000 0.024264
v 0.001366 -0.000000 0.023014
v 0.001366 0.001000 0.023014
v 0.007163 -0.001000 0.024264
v 0.001366 -0.001000 0.023014
v -0.004280 -0.001000 0.020971
v -0.004280 -0.000000 0.020971
v -0.014640 -0.001000 0.014768
v -0.014640 0.001000 0.014768
v -0.022973 -0.000000 0.006172
v -0.022973 -0.001000 0.006172
v -0.026077 -0.001000 0.001142
v -0.028313 -0.001000 -0.004286
v -0.026077 0.000000 0.001142
v -0.026077 0.001000 0.001142
v -0.028313 0.001000 -0.004286
v -0.022973 0.001000 0.006172
v -0.004280 0.001000 0.020971
v -0.012428 -0.001000 -0.021317
v -0.012428 0.001000 -0.021317
v -0.016632 -0.001000 -0.021317
v -0.016632 0.001000 -0.021317
v -0.016632 0.001000 -0.021317
v -0.018718 0.001000 -0.021230
v -0.016632 -0.001000 -0.021317
v -0.018718 -0.001000 -0.021230
v -0.020492 -0.001000 -0.021070
v -0.023241 -0.001000 -0.020551
v -0.020492 0.001000 -0.021070
v -0.023241 0.001000 -0.020551
v -0.026496 0.001000 -0.018820
v -0.028246 0.001000 -0.016300
v -0.026496 -0.001000 -0.018820
v -0.028246 -0.001000 -0.016300
v -0.029025 -0.001000 -0.012858
v -0.029025 0.001000 -0.012858
v -0.029032 -0.001000 -0.009462
v -0.028783 -0.001000 -0.007170
v -0.029032 0.001000 -0.009462
v -0.028783 0.001000 -0.007170
v -0.028313 0.001000 -0.004286
v -0.028313 -0.001000 -0.004286
v -0.021829 0.001000 -0.012539
v -0.021829 0.000000 -0.012539
v -0.023201 0.001000 -0.010475
v -0.023201 -0.001000 -0.010475
v -0.023778 0.001000 -0.008025
v -0.023778 -0.001000 -0.008025
v -0.023482 0.001000 -0.005599
v -0.023482 -0.001000 -0.005599
v -0.022622 0.001000 -0.003273
v -0.022622 -0.001000 -0.003273
v -0.021566 0.001000 -0.001019
v -0.021566 -0.001000 -0.001019
v -0.020335 0.001000 0.001145
v -0.020335 -0.001000 0.001145
v -0.018897 0.001000 0.003275
v -0.018897 -0.001000 0.003275
v -0.017413 0.001000 0.005172
v -0.017413 -0.001000 0.005172
v -0.015697 0.001000 0.007084
v -0.015697 -0.001000 0.007084
v -0.013976 0.001000 0.008770
v -0.013976 -0.001000 0.008770
v -0.012095 0.001000 0.010401
v -0.012095 -0.001000 0.010401
v -0.010119 0.001000 0.011916
v -0.010119 -0.001000 0.011916
v -0.008058 0.001000 0.013311
v -0.008058 -0.001000 0.013311
v -0.005919 0.001000 0.014585
v -0.005919 -0.001000 0.014585
v -0.003709 0.001000 0.015731
v -0.003709 -0.001000 0.015731
v -0.001436 0.001000 0.016746
v -0.001436 -0.001000 0.016746
v 0.000894 0.001000 0.017624
v 0.000894 -0.001000 0.017624
v 0.003272 0.001000 0.018355
v 0.003272 -0.001000 0.018355
v 0.005747 0.001000 0.018533
v 0.005747 -0.001000 0.018533
v 0.008163 0.001000 0.017830
v 0.008163 -0.001000 0.017830
v 0.010122 -0.000000 0.016385
v 0.010122 0.001000 0.016385
v 0.010122 -0.001000 0.016385
v -0.021829 -0.001000 -0.012539
v 0.010122 -0.001000 0.016385
v 0.010624 -0.001000 0.015799
v 0.010122 -0.000000 0.016385
v 0.010122 0.001000 0.016385
v 0.010624 0.001000 0.015799
v 0.011052 0.001000 0.015173
v 0.011052 -0.001000 0.015173
v 0.011406 0.001000 0.014515
v 0.011406 -0.001000 0.014515
v 0.011693 0.001000 0.013811
v 0.011693 -0.001000 0.013811
v 0.011904 0.001000 0.013072
v 0.011904 -0.001000 0.013072
v 0.012035 0.001000 0.012309
v 0.012081 0.001000 0.011536
v 0.012035 -0.001000 0.012309
v 0.012081 -0.001000 0.011536
v 0.012043 -0.001000 0.010768
v 0.011924 -0.001000 0.010017
v 0.012043 0.001000 0.010768
v 0.011924 0.001000 0.010017
v 0.011729 0.001000 0.009296
v 0.011729 -0.000000 0.009296
v 0.011729 -0.001000 0.009296
v 0.011729 -0.001000 0.009296
v 0.011729 -0.000000 0.009296
v 0.011424 -0.000750 0.008417
v 0.011592 -0.001000 0.008889
v 0.011092 -0.000750 0.007548
v 0.010548 -0.001000 0.006279
v 0.010346 -0.000500 0.005844
v 0.009251 -0.001000 0.003749
v 0.010346 -0.000000 0.005844
v 0.007715 -0.001000 0.001310
v 0.007715 0.001000 0.001310
v 0.005956 -0.001000 -0.001024
v 0.003990 -0.001000 -0.003237
v 0.005956 0.001000 -0.001024
v 0.003990 0.001000 -0.003237
v 0.001837 0.001000 -0.005317
v 0.001837 -0.001000 -0.005317
v -0.000484 0.001000 -0.007247
v -0.000484 -0.001000 -0.007247
v -0.002952 0.001000 -0.009013
v -0.005543 0.001000 -0.010601
v -0.002952 -0.001000 -0.009013
v -0.005543 -0.001000 -0.010601
v -0.008239 -0.001000 -0.012001
v -0.008239 0.001000 -0.012001
v -0.011013 -0.001000 -0.013197
v -0.013843 -0.001000 -0.014181
v -0.011013 0.001000 -0.013197
v -0.013843 0.001000 -0.014181
v -0.014820 0.001000 -0.014466
v -0.016670 0.001000 -0.014725
v -0.014820 -0.001000 -0.014466
v -0.016670 -0.001000 -0.014725
v -0.018591 -0.001000 -0.014472
v -0.018591 0.001000 -0.014472
v -0.020372 -0.001000 -0.013707
v -0.021829 0.000000 -0.012539
v -0.021829 -0.001000 -0.012539
v -0.021829 0.001000 -0.012539
v -0.020372 0.001000 -0.013707
v 0.009251 0.001000 0.003749
v 0.010346 0.000500 0.005844
v 0.010548 0.001000 0.006279
v 0.011592 0.001000 0.008889
v 0.011092 0.000750 0.007548
v 0.011092 0.000500 0.007548
v 0.011424 0.000750 0.008417
v 0.011424 0.000500 0.008417
v 0.011729 0.001000 0.009296
v 0.011092 -0.000000 0.007548
v 0.011092 -0.000500 0.007548
v 0.011424 -0.000500 0.008417
v -0.016632 -0.001000 -0.021317
v -0.023241 -0.001000 -0.020551
v -0.018591 -0.001000 -0.014472
v -0.012428 -0.001000 -0.021317
v -0.012428 -0.001000 -0.016317
v -0.016670 -0.001000 -0.014725
v -0.014820 -0.001000 -0.014466
v -0.013843 -0.001000 -0.014181
v -0.012428 -0.001000 -0.016041
v -0.010428 -0.001000 -0.016041
v -0.011013 -0.001000 -0.013197
v -0.008239 -0.001000 -0.012001
v -0.002952 -0.001000 -0.009013
v -0.001131 -0.001000 -0.016041
v 0.000869 -0.001000 -0.016041
v -0.001131 -0.001000 -0.021317
v -0.010428 -0.001000 -0.016317
v -0.010428 -0.001000 -0.021317
v 0.010725 -0.001000 -0.016879
v 0.006660 -0.001000 -0.019904
v 0.001674 -0.001000 -0.021284
v 0.000869 -0.001000 -0.021317
v 0.001837 -0.001000 -0.005317
v -0.000484 -0.001000 -0.007247
v 0.016972 -0.001000 -0.007972
v 0.003990 -0.001000 -0.003237
v 0.005956 -0.001000 -0.001024
v 0.007715 -0.001000 0.001310
v 0.009251 -0.001000 0.003749
v 0.010548 -0.001000 0.006279
v 0.011592 -0.001000 0.008889
v 0.011729 -0.001000 0.009296
v 0.025136 -0.001000 0.017797
v 0.017163 -0.001000 0.020748
v 0.025163 -0.001000 0.018264
v 0.012035 -0.001000 0.012309
v 0.011052 -0.001000 0.015173
v 0.010122 -0.001000 0.016385
v 0.015163 -0.001000 0.020748
v 0.007163 -0.001000 0.024264
v 0.015163 -0.001000 0.024264
v 0.008287 -0.001000 0.017766
v 0.006146 -0.001000 0.018480
v 0.003114 -0.001000 0.018313
v -0.004286 -0.001000 0.020968
v 0.002136 -0.001000 0.018027
v -0.000693 -0.001000 0.017044
v -0.003467 -0.001000 0.015847
v -0.008755 -0.001000 0.012859
v -0.014651 -0.001000 0.014760
v -0.011223 -0.001000 0.011093
v -0.013544 -0.001000 0.009163
v -0.015697 -0.001000 0.007084
v -0.017663 -0.001000 0.004870
v -0.022977 -0.001000 0.006166
v -0.028313 -0.001000 -0.004286
v -0.019422 -0.001000 0.002536
v -0.020958 -0.001000 0.000097
v -0.022255 -0.001000 -0.002433
v -0.023299 -0.001000 -0.005043
v -0.023435 -0.001000 -0.005450
v -0.023684 -0.001000 -0.006445
v -0.023473 -0.001000 -0.009740
v -0.021829 -0.001000 -0.012539
v -0.029025 -0.001000 -0.012858
v -0.028246 -0.001000 -0.016300
v -0.026496 -0.001000 -0.018820
v -0.020372 -0.001000 -0.013707
v 0.025163 -0.001000 0.020264
v 0.024882 -0.001000 0.021737
v 0.023991 -0.001000 0.023093
v 0.021163 -0.001000 0.024264
v 0.022635 -0.001000 0.023983
v 0.017163 -0.001000 0.021264
v 0.017163 -0.001000 0.024264
vn 0.000000 1.000000 0.000000
vn 0.000000 1.000000 0.000000
vn 0.000000 1.000000 0.000000
vn 0.000000 1.000000 0.000000
vn 0.000000 1.000000 0.000000
vn 0.000000 1.000000 0.000000
vn 0.000000 1.000000 0.000000
vn 0.000000 1.000000 0.000000
vn 0.000000 1.000000 0.000000
vn 0.000000 1.000000 0.000000
vn 0.000000 1.000000 0.000000
vn 0.000000 1.000000 0.000000
vn 0.000000 1.000000 0.000000
vn 0.000000 1.000000 0.000000
vn 0.000000 1.000000 0.000000
vn 0.000000 1.000000 0.000000
vn 0.000000 1.000000 0.000000
vn 0.000000 1.000000 0.000000
vn 0.000000 1.000000 0.000000
vn 0.000000 1.000000 0.000000
vn 0.000000 1.000000 0.000000
vn 0.000000 1.000000 0.000000
vn 0.000000 1.000000 0.000000
vn 0.000000 1.000000 0.000000
vn 0.000000 1.000000 0.000000
vn 0.000000 1.000000 0.000000
vn 0.000000 1.000000 0.000000
vn 0.000000 1.000000 0.000000
vn 0.000000 1.000000 0.000000
vn 0.000000 1.000000 0.000000
vn 0.000000 1.000000 0.000000
vn 0.000000 1.000000 0.000000
vn 0.000000 1.000000 0.000000
vn 0.000000 1.000000 0.000000
vn 0.000000 1.000000 0.000000
vn 0.000000 1.000000 0.000000
vn 0.000000 1.000000 0.000000
vn 0.000000 1.000000 0.000000
vn 0.000000 1.000000 0.000000
vn 0.000000 1.000000 0.000000
vn 0.000000 1.000000 0.000000
vn 0.000000 1.000000 0.000000
vn 0.000000 1.000000 0.000000
vn 0.000000 1.000000 0.000000
vn 0.000000 1.000000 0.000000
vn 0.000000 1.000000 0.000000
vn 0.000000 1.000000 0.000000
vn 0.000000 1.000000 0.000000
vn 0.000000 1.000000 0.000000
vn 0.000000 1.000000 0.000000
vn 0.000000 1.000000 0.000000
vn 0.000000 1.000000 0.000000
vn 0.000000 1.000000 0.000000
vn 0.000000 1.000000 0.000000
vn 0.000000 1.000000 0.000000
vn 0.000000 1.000000 0.000000
vn 0.000000 1.000000 0.000000
vn 0.000000 1.000000 0.000000
vn 0.000000 1.000000 0.000000
vn 0.000000 1.000000 0.000000
vn 0.000000 1.000000 0.000000
vn 0.000000 1.000000 0.000000
vn 0.000000 1.000000 0.000000
vn 0.000000 1.000000 0.000000
vn 0.000000 1.000000 0.000000
vn 0.000000 1.000000 0.000000
vn 0.000000 1.000000 0.000000
vn 0.000000 1.000000 0.000000
vn 0.000000 1.000000 0.000000
vn 0.000000 1.000000 0.000000
vn 0.000000 1.000000 0.000000
vn 0.000000 1.000000 0.000000
vn 0.000000 1.000000 0.000000
vn 0.000000 1.000000 0.000000
vn 0.000000 1.000000 0.000000
vn 0.000000 0.000000 -1.000000
vn 0.000000 0.000000 -1.000000
vn 0.000000 0.000000 -1.000000
vn 0.000000 0.000000 -1.000000
vn -1.000000 0.000000 0.000000
vn -1.000000 0.000000 0.000000
vn -1.000000 0.000000 0.000000
vn -1.000000 0.000000 0.000000
vn 0.000000 0.000000 -1.000000
vn 0.000000 0.000000 -1.000000
vn 0.000000 0.000000 -1.000000
vn 0.000000 0.000000 -1.000000
vn 1.000000 0.000000 0.000000
vn 1.000000 0.000000 0.000000
vn 1.000000 0.000000 0.000000
vn 1.000000 0.000000 0.000000
vn 0.000000 -0.000000 1.000000
vn 0.000000 -0.000000 1.000000
vn 0.000000 -0.000000 1.000000
vn 0.000000 -0.000000 1.000000
vn 0.000000 -0.000000 1.000000
vn 0.000000 -0.000000 1.000000
vn 0.000000 -0.000000 1.000000
vn 0.000000 -0.000000 1.000000
vn -1.000000 0.000000 0.000000
vn -1.000000 0.000000 0.000000
vn -1.000000 0.000000 0.000000
vn -1.000000 0.000000 0.000000
vn 0.000000 0.000000 -1.000000
vn 0.000000 0.000000 -1.000000
vn 0.000000 0.000000 -1.000000
vn 0.000000 0.000000 -1.000000
vn 1.000000 0.000000 0.000000
vn 1.000000 0.000000 0.000000
vn 1.000000 0.000000 0.000000
vn 1.000000 0.000000 0.000000
vn 0.000000 -0.000000 1.000000
vn 0.000000 -0.000000 1.000000
vn 0.000000 -0.000000 1.000000
vn 0.000000 -0.000000 1.000000
vn -1.000000 0.000000 0.000000
vn -1.000000 0.000000 0.000000
vn -1.000000 0.000000 0.000000
vn -1.000000 0.000000 0.000000
vn -1.000000 0.000000 0.000000
vn -1.000000 0.000000 0.000000
vn 1.000000 0.000000 0.000000
vn 1.000000 0.000000 0.000000
vn 1.000000 0.000000 0.000000
vn 1.000000 0.000000 0.000000
vn 0.012200 0.000000 -0.999926
vn 0.381404 0.000000 -0.924409
vn 0.381404 0.000000 -0.924409
vn 0.012200 0.000000 -0.999926
vn 0.381404 0.000000 -0.924409
vn 0.653086 0.000000 -0.757284
vn 0.653086 0.000000 -0.757284
vn 0.859927 0.000000 -0.510416
vn 0.859927 0.000000 -0.510416
vn 0.916943 0.000000 -0.399019
vn 0.916943 0.000000 -0.399019
vn 0.971018 0.000000 -0.239005
vn 0.970995 0.000000 -0.239099
vn 0.984587 0.000000 -0.174898
vn 0.984587 0.000000 -0.174898
vn 0.989402 0.000000 -0.145200
vn 0.993156 0.000000 -0.116795
vn 0.989402 0.000000 -0.145200
vn 0.989402 0.000000 -0.145200
vn 0.993156 0.000000 -0.116795
vn 0.993156 0.000000 -0.116795
vn 0.989402 0.000000 -0.145200
vn 0.984587 0.000000 -0.174898
vn 0.989402 0.000000 -0.145200
vn 0.984587 0.000000 -0.174898
vn 0.970995 0.000000 -0.239099
vn 0.984569 0.000000 -0.174995
vn 0.653086 0.000000 -0.757284
vn -0.141099 -0.000000 0.989995
vn -0.277296 -0.000000 0.960785
vn -0.277203 -0.000000 0.960811
vn -0.141099 -0.000000 0.989995
vn -0.277203 -0.000000 0.960811
vn -0.400583 -0.000000 0.916261
vn -0.400619 -0.000000 0.916245
vn -0.618665 -0.000000 0.785655
vn -0.618665 -0.000000 0.785655
vn -0.808628 -0.000000 0.588320
vn -0.808628 -0.000000 0.588320
vn -0.889678 -0.000000 0.456589
vn -0.953973 -0.000000 0.299892
vn -0.889678 -0.000000 0.456589
vn -0.889678 -0.000000 0.456589
vn -0.953973 -0.000000 0.299892
vn -0.808628 -0.000000 0.588320
vn -0.400583 -0.000000 0.916261
vn 0.000000 0.000000 -1.000000
vn 0.000000 0.000000 -1.000000
vn 0.000000 0.000000 -1.000000
vn 0.000000 0.000000 -1.000000
vn -0.022199 0.000000 -0.999754
vn -0.064302 0.000000 -0.997930
vn -0.022199 0.000000 -0.999754
vn -0.064302 0.000000 -0.997930
vn -0.118297 0.000000 -0.992978
vn -0.271788 0.000000 -0.962357
vn -0.118297 0.000000 -0.992978
vn -0.271788 0.000000 -0.962357
vn -0.678604 0.000000 -0.734504
vn -0.922828 0.000000 -0.385212
vn -0.678604 0.000000 -0.734504
vn -0.922828 0.000000 -0.385212
vn -0.995887 0.000000 -0.090599
vn -0.995887 0.000000 -0.090599
vn -0.997273 -0.000000 0.073798
vn -0.990682 -0.000000 0.136197
vn -0.997273 -0.000000 0.073798
vn -0.990682 -0.000000 0.136197
vn -0.983519 -0.000000 0.180804
vn -0.983519 -0.000000 0.180804
vn 0.723072 -0.000000 0.690773
vn 0.723072 -0.000000 0.690773
vn 0.917032 -0.000000 0.398814
vn 0.917032 -0.000000 0.398814
vn 0.998626 -0.000000 0.052401
vn 0.998626 -0.000000 0.052401
vn 0.956841 0.000000 -0.290612
vn 0.956841 0.000000 -0.290612
vn 0.922205 0.000000 -0.386702
vn 0.922205 0.000000 -0.386702
vn 0.887771 0.000000 -0.460285
vn 0.887771 0.000000 -0.460285
vn 0.849685 0.000000 -0.527291
vn 0.849685 0.000000 -0.527291
vn 0.807745 0.000000 -0.589533
vn 0.807745 0.000000 -0.589533
vn 0.766612 0.000000 -0.642110
vn 0.766612 0.000000 -0.642110
vn 0.721507 0.000000 -0.692407
vn 0.721507 0.000000 -0.692407
vn 0.677773 0.000000 -0.735271
vn 0.677773 0.000000 -0.735271
vn 0.632033 0.000000 -0.774941
vn 0.632033 0.000000 -0.774941
vn 0.584789 0.000000 -0.811185
vn 0.584789 0.000000 -0.811185
vn 0.536312 0.000000 -0.844020
vn 0.536312 0.000000 -0.844020
vn 0.486220 0.000000 -0.873836
vn 0.486220 0.000000 -0.873836
vn 0.434408 0.000000 -0.900716
vn 0.434408 0.000000 -0.900716
vn 0.380287 0.000000 -0.924869
vn 0.380287 0.000000 -0.924869
vn 0.323598 0.000000 -0.946195
vn 0.323598 0.000000 -0.946195
vn 0.245711 0.000000 -0.969343
vn 0.245711 0.000000 -0.969343
vn -0.104305 0.000000 -0.994545
vn -0.104305 0.000000 -0.994545
vn -0.445893 0.000000 -0.895086
vn -0.445893 0.000000 -0.895086
vn -0.722974 0.000000 -0.690875
vn -0.722974 0.000000 -0.690875
vn -0.722974 0.000000 -0.690875
vn 0.723072 -0.000000 0.690773
vn -0.723024 0.000000 -0.690823
vn -0.793704 0.000000 -0.608304
vn -0.723024 0.000000 -0.690823
vn -0.723024 0.000000 -0.690823
vn -0.793704 0.000000 -0.608304
vn -0.854336 0.000000 -0.519722
vn -0.854336 0.000000 -0.519722
vn -0.904719 0.000000 -0.426009
vn -0.904719 0.000000 -0.426009
vn -0.945197 0.000000 -0.326499
vn -0.945197 0.000000 -0.326499
vn -0.975044 0.000000 -0.222010
vn -0.975044 0.000000 -0.222010
vn -0.993446 0.000000 -0.114305
vn -0.999988 0.000000 -0.004900
vn -0.993446 0.000000 -0.114305
vn -0.999988 0.000000 -0.004900
vn -0.994650 -0.000000 0.103305
vn -0.977849 -0.000000 0.209311
vn -0.994650 -0.000000 0.103305
vn -0.977849 -0.000000 0.209311
vn -0.950182 -0.000000 0.311694
vn -0.950153 -0.000000 0.311785
vn -0.950182 -0.000000 0.311694
vn -0.950153 -0.000100 0.311785
vn -0.950143 -0.000000 0.311814
vn -0.939516 -0.000400 0.342506
vn -0.945373 -0.000800 0.325991
vn -0.928111 0.000100 0.372304
vn -0.909965 -0.000100 0.414684
vn -0.903304 -0.000000 0.429002
vn -0.868606 -0.000100 0.495503
vn -0.903304 -0.000000 0.429002
vn -0.822735 -0.000000 0.568425
vn -0.822735 -0.000000 0.568425
vn -0.773409 -0.000000 0.633907
vn -0.721703 -0.000000 0.692203
vn -0.773409 -0.000000 0.633907
vn -0.721703 -0.000000 0.692203
vn -0.667400 -0.000000 0.744700
vn -0.667400 -0.000000 0.744700
vn -0.611077 -0.000000 0.791571
vn -0.611077 -0.000000 0.791571
vn -0.552691 -0.000000 0.833386
vn -0.491998 -0.000000 0.870596
vn -0.552691 -0.000000 0.833386
vn -0.491998 -0.000000 0.870596
vn -0.428679 -0.000000 0.903457
vn -0.428679 -0.000000 0.903457
vn -0.362702 -0.000000 0.931905
vn -0.292912 -0.000000 0.956139
vn -0.362702 -0.000000 0.931905
vn -0.292912 -0.000000 0.956139
vn -0.268190 -0.000000 0.963366
vn -0.006600 -0.000000 0.999978
vn -0.268190 -0.000000 0.963366
vn -0.006600 -0.000000 0.999978
vn 0.265105 -0.000000 0.964219
vn 0.265105 -0.000000 0.964219
vn 0.516920 -0.000100 0.856034
vn 0.722926 -0.000000 0.690925
vn 0.722974 -0.000000 0.690875
vn 0.722974 -0.000000 0.690875
vn 0.516920 0.000100 0.856034
vn -0.868606 0.000100 0.495503
vn -0.903304 -0.000100 0.429002
vn -0.909910 -0.000100 0.414805
vn -0.945373 0.000700 0.325991
vn -0.928111 -0.000100 0.372304
vn -0.928111 -0.000000 0.372304
vn -0.939516 -0.000000 0.342506
vn -0.939516 -0.000100 0.342506
vn -0.950153 0.000100 0.311785
vn -0.928111 -0.000000 0.372304
vn -0.928111 -0.000000 0.372304
vn -0.939516 0.000100 0.342506
vn 0.000000 -1.000000 -0.000000
vn 0.000000 -1.000000 -0.000000
vn 0.000000 -1.000000 -0.000000
vn 0.000000 -1.000000 -0.000000
vn 0.000000 -1.000000 -0.000000
vn 0.000000 -1.000000 -0.000000
vn 0.000000 -1.000000 -0.000000
vn 0.000000 -1.000000 -0.000000
vn 0.000000 -1.000000 -0.000000
vn 0.000000 -1.000000 -0.000000
vn 0.000000 -1.000000 -0.000000
vn 0.000000 -1.000000 -0.000000
vn 0.000000 -1.000000 -0.000000
vn 0.000000 -1.000000 -0.000000
vn 0.000000 -1.000000 -0.000000
vn 0.000000 -1.000000 -0.000000
vn 0.000000 -1.000000 -0.000000
vn 0.000000 -1.000000 -0.000000
vn 0.000000 -1.000000 -0.000000
vn 0.000000 -1.000000 -0.000000
vn 0.000000 -1.000000 -0.000000
vn 0.000000 -1.000000 -0.000000
vn 0.000000 -1.000000 -0.000000
vn 0.000000 -1.000000 -0.000000
vn 0.000000 -1.000000 -0.000000
vn 0.000000 -1.000000 -0.000000
vn 0.000000 -1.000000 -0.000000
vn 0.000000 -1.000000 -0.000000
vn 0.000000 -1.000000 -0.000000
vn 0.000000 -1.000000 -0.000000
vn 0.000000 -1.000000 -0.000000
vn 0.000000 -1.000000 -0.000000
vn 0.000000 -1.000000 -0.000000
vn 0.000000 -1.000000 -0.000000
vn 0.000000 -1.000000 -0.000000
vn 0.000000 -1.000000 -0.000000
vn 0.000000 -1.000000 -0.000000
vn 0.000000 -1.000000 -0.000000
vn 0.000000 -1.000000 -0.000000
vn 0.000000 -1.000000 -0.000000
vn 0.000000 -1.000000 -0.000000
vn 0.000000 -1.000000 -0.000000
vn 0.000000 -1.000000 -0.000000
vn 0.000000 -1.000000 -0.000000
vn 0.000000 -1.000000 -0.000000
vn 0.000000 -1.000000 -0.000000
vn 0.000000 -1.000000 -0.000000
vn 0.000000 -1.000000 -0.000000
vn 0.000000 -1.000000 -0.000000
vn 0.000000 -1.000000 -0.000000
vn 0.000000 -1.000000 -0.000000
vn 0.000000 -1.000000 -0.000000
vn 0.000000 -1.000000 -0.000000
vn 0.000000 -1.000000 -0.000000
vn 0.000000 -1.000000 -0.000000
vn 0.000000 -1.000000 -0.000000
vn 0.000000 -1.000000 -0.000000
vn 0.000000 -1.000000 -0.000000
vn 0.000000 -1.000000 -0.000000
vn 0.000000 -1.000000 -0.000000
vn 0.000000 -1.000000 -0.000000
vn 0.000000 -1.000000 -0.000000
vn 0.000000 -1.000000 -0.000000
vn 0.000000 -1.000000 -0.000000
vn 0.000000 -1.000000 -0.000000
vn 0.000000 -1.000000 -0.000000
vn 0.000000 -1.000000 -0.000000
vn 0.000000 -1.000000 -0.000000
vn 0.000000 -1.000000 -0.000000
vn 0.000000 -1.000000 -0.000000
vn 0.000000 -1.000000 -0.000000
vn 0.000000 -1.000000 -0.000000
vn 0.000000 -1.000000 -0.000000
vn 0.000000 -1.000000 -0.000000
vn 0.000000 -1.000000 -0.000000
f 6//6 1//1 2//2
f 1//1 3//3 2//2
f 4//4 1//1 5//5
f 6//6 5//5 1//1
f 5//5 6//6 7//7
f 8//8 9//9 7//7
f 9//9 5//5 7//7
f 11//11 10//10 9//9
f 11//11 9//9 8//8
f 11//11 12//12 10//10
f 13//13 12//12 14//14
f 13//13 10//10 12//12
f 16//16 13//13 14//14
f 15//15 16//16 14//14
f 16//16 21//21 17//17
f 18//18 16//16 17//17
f 18//18 19//19 16//16
f 20//20 16//16 19//19
f 16//16 15//15 21//21
f 22//22 21//21 23//23
f 22//22 17//17 21//21
f 24//24 22//22 23//23
f 24//24 25//25 22//22
f 25//25 26//26 22//22
f 27//27 22//22 26//26
f 27//27 28//28 22//22
f 30//30 28//28 29//29
f 28//28 30//30 22//22
f 31//31 32//32 30//30
f 30//30 33//33 31//31
f 29//29 33//33 30//30
f 33//33 34//34 31//31
f 36//36 31//31 34//34
f 36//36 34//34 35//35
f 36//36 37//37 38//38
f 36//36 39//39 37//37
f 36//36 35//35 39//39
f 39//39 40//40 37//37
f 40//40 41//41 37//37
f 41//41 42//42 37//37
f 42//42 41//41 43//43
f 43//43 44//44 42//42
f 44//44 45//45 42//42
f 46//46 42//42 45//45
f 48//48 47//47 46//46
f 42//42 46//46 47//47
f 49//49 47//47 48//48
f 50//50 47//47 49//49
f 51//51 47//47 50//50
f 50//50 52//52 51//51
f 53//53 51//51 52//52
f 51//51 53//53 54//54
f 55//55 56//56 54//54
f 51//51 54//54 56//56
f 56//56 58//58 57//57
f 58//58 56//56 60//60
f 56//56 61//61 59//59
f 59//59 60//60 56//56
f 56//56 55//55 61//61
f 62//62 57//57 58//58
f 57//57 62//62 64//64
f 62//62 63//63 64//64
f 64//64 63//63 65//65
f 63//63 3//3 65//65
f 63//63 2//2 3//3
f 32//32 31//31 66//66
f 67//67 66//66 31//31
f 31//31 68//68 67//67
f 68//68 31//31 69//69
f 69//69 70//70 68//68
f 71//71 68//68 70//70
f 70//70 69//69 72//72
f 13//13 73//73 10//10
f 13//13 74//74 75//75
f 13//13 75//75 73//73
f 77//77 76//76 78//78
f 77//77 78//78 79//79
f 81//81 80//80 82//82
f 81//81 82//82 83//83
f 85//85 84//84 86//86
f 85//85 86//86 87//87
f 89//89 88//88 90//90
f 89//89 90//90 91//91
f 93//93 92//92 94//94
f 93//93 94//94 95//95
f 97//97 96//96 98//98
f 97//97 98//98 99//99
f 101//101 103//103 102//102
f 101//101 102//102 100//100
f 105//105 107//107 106//106
f 105//105 106//106 104//104
f 109//109 111//111 110//110
f 109//109 110//110 108//108
f 113//113 115//115 114//114
f 113//113 114//114 112//112
f 119//119 117//117 116//116
f 119//119 116//116 118//118
f 117//117 119//119 120//120
f 117//117 120//120 121//121
f 123//123 125//125 124//124
f 123//123 124//124 122//122
f 126//126 127//127 129//129
f 127//127 126//126 128//128
f 130//130 129//129 127//127
f 131//131 130//130 127//127
f 131//131 127//127 132//132
f 133//133 131//131 132//132
f 135//135 133//133 134//134
f 135//135 134//134 136//136
f 134//134 133//133 132//132
f 135//135 136//136 137//137
f 137//137 138//138 135//135
f 138//138 137//137 139//139
f 139//139 140//140 138//138
f 141//141 140//140 139//139
f 141//141 139//139 143//143
f 143//143 142//142 141//141
f 143//143 144//144 145//145
f 143//143 139//139 152//152
f 143//143 152//152 144//144
f 143//143 145//145 142//142
f 146//146 145//145 147//147
f 146//146 147//147 149//149
f 144//144 147//147 145//145
f 144//144 152//152 148//148
f 144//144 148//148 147//147
f 147//147 148//148 150//150
f 147//147 150//150 149//149
f 151//151 150//150 148//148
f 137//137 151//151 148//148
f 136//136 151//151 137//137
f 148//148 152//152 137//137
f 137//137 152//152 139//139
f 132//132 153//153 134//134
f 132//132 127//127 128//128
f 132//132 128//128 153//153
f 154//154 155//155 157//157
f 155//155 154//154 156//156
f 158//158 157//157 155//155
f 159//159 158//158 155//155
f 159//159 155//155 160//160
f 161//161 159//159 160//160
f 161//161 162//162 163//163
f 162//162 161//161 160//160
f 163//163 164//164 161//161
f 165//165 164//164 163//163
f 165//165 163//163 167//167
f 165//165 167//167 166//166
f 169//169 166//166 167//167
f 167//167 163//163 170//170
f 167//167 170//170 168//168
f 167//167 168//168 169//169
f 162//162 170//170 163//163
f 160//160 171//171 162//162
f 160//160 155//155 156//156
f 160//160 156//156 171//171
f 173//173 172//172 174//174
f 173//173 174//174 175//175
f 176//176 178//178 179//179
f 176//176 179//179 177//177
f 177//177 179//179 180//180
f 177//177 180//180 182//182
f 182//182 180//180 181//181
f 182//182 181//181 183//183
f 183//183 181//181 186//186
f 183//183 186//186 184//184
f 184//184 186//186 187//187
f 184//184 187//187 185//185
f 185//185 187//187 188//188
f 185//185 188//188 189//189
f 189//189 188//188 190//190
f 189//189 190//190 192//192
f 192//192 190//190 191//191
f 192//192 191//191 193//193
f 193//193 191//191 195//195
f 193//193 195//195 194//194
f 197//197 196//196 198//198
f 198//198 199//199 197//197
f 201//201 199//199 198//198
f 201//201 198//198 200//200
f 203//203 201//201 200//200
f 203//203 200//200 202//202
f 205//205 203//203 202//202
f 205//205 202//202 204//204
f 207//207 205//205 204//204
f 207//207 204//204 206//206
f 209//209 207//207 206//206
f 209//209 206//206 208//208
f 211//211 209//209 208//208
f 211//211 208//208 210//210
f 213//213 211//211 210//210
f 213//213 210//210 212//212
f 215//215 213//213 212//212
f 215//215 212//212 214//214
f 217//217 215//215 214//214
f 217//217 214//214 216//216
f 219//219 217//217 216//216
f 219//219 216//216 218//218
f 221//221 219//219 218//218
f 221//221 218//218 220//220
f 223//223 221//221 220//220
f 223//223 220//220 222//222
f 225//225 223//223 222//222
f 225//225 222//222 224//224
f 227//227 225//225 224//224
f 227//227 224//224 226//226
f 229//229 227//227 226//226
f 229//229 226//226 228//228
f 231//231 229//229 228//228
f 231//231 228//228 230//230
f 233//233 231//231 230//230
f 233//233 230//230 232//232
f 235//235 233//233 232//232
f 235//235 232//232 234//234
f 237//237 235//235 234//234
f 237//237 234//234 236//236
f 236//236 238//238 237//237
f 238//238 236//236 239//239
f 240//240 237//237 238//238
f 241//241 197//197 199//199
f 242//242 244//244 243//243
f 244//244 245//245 246//246
f 244//244 246//246 243//243
f 247//247 248//248 243//243
f 247//247 243//243 246//246
f 249//249 250//250 248//248
f 249//249 248//248 247//247
f 251//251 252//252 250//250
f 251//251 250//250 249//249
f 253//253 254//254 252//252
f 253//253 252//252 251//251
f 254//254 253//253 255//255
f 254//254 255//255 257//257
f 256//256 258//258 257//257
f 256//256 257//257 255//255
f 261//261 259//259 258//258
f 261//261 258//258 256//256
f 262//262 260//260 259//259
f 262//262 259//259 261//261
f 264//264 262//262 263//263
f 262//262 264//264 260//260
f 264//264 265//265 260//260
f 267//267 317//317 268//268
f 267//267 268//268 266//266
f 268//268 269//269 266//266
f 271//271 269//269 270//270
f 269//269 268//268 270//270
f 270//270 272//272 271//271
f 272//272 273//273 271//271
f 273//273 274//274 275//275
f 274//274 273//273 272//272
f 276//276 275//275 274//274
f 276//276 279//279 277//277
f 276//276 277//277 275//275
f 280//280 278//278 277//277
f 280//280 277//277 279//279
f 278//278 280//280 281//281
f 278//278 281//281 282//282
f 283//283 284//284 282//282
f 283//283 282//282 281//281
f 285//285 287//287 284//284
f 285//285 284//284 283//283
f 286//286 288//288 287//287
f 286//286 287//287 285//285
f 290//290 289//289 288//288
f 290//290 288//288 286//286
f 293//293 291//291 289//289
f 293//293 289//289 290//290
f 294//294 292//292 291//291
f 294//294 291//291 293//293
f 295//295 297//297 292//292
f 295//295 292//292 294//294
f 296//296 298//298 297//297
f 296//296 297//297 295//295
f 300//300 299//299 298//298
f 300//300 298//298 296//296
f 302//302 299//299 300//300
f 302//302 301//301 299//299
f 302//302 303//303 301//301
f 302//302 305//305 304//304
f 302//302 300//300 305//305
f 276//276 274//274 306//306
f 308//308 306//306 307//307
f 274//274 307//307 306//306
f 308//308 307//307 310//310
f 308//308 310//310 312//312
f 308//308 312//312 309//309
f 310//310 307//307 311//311
f 313//313 312//312 310//310
f 313//313 310//310 311//311
f 312//312 314//314 309//309
f 314//314 312//312 313//313
f 313//313 267//267 314//314
f 267//267 313//313 315//315
f 313//313 311//311 315//315
f 267//267 315//315 317//317
f 315//315 311//311 307//307
f 315//315 307//307 274//274
f 316//316 315//315 274//274
f 316//316 274//274 272//272
f 316//316 317//317 315//315
f 268//268 317//317 316//316
f 268//268 316//316 270//270
f 272//272 270//270 316//316
f 318//318 320//320 319//319
f 323//323 320//320 318//318
f 321//321 322//322 318//318
f 323//323 318//318 322//322
f 322//322 324//324 323//323
f 325//325 324//324 326//326
f 326//326 324//324 322//322
f 328//328 326//326 327//327
f 328//328 325//325 326//326
f 328//328 327//327 329//329
f 331//331 329//329 327//327
f 331//331 330//330 329//329
f 332//332 330//330 331//331
f 331//331 334//334 333//333
f 331//331 327//327 334//334
f 333//333 334//334 335//335
f 332//332 336//336 340//340
f 337//337 336//336 332//332
f 337//337 332//332 338//338
f 339//339 338//338 332//332
f 341//341 330//330 332//332
f 332//332 340//340 341//341
f 342//342 340//340 336//336
f 342//342 343//343 340//340
f 344//344 343//343 342//342
f 344//344 342//342 345//345
f 345//345 342//342 346//346
f 347//347 346//346 342//342
f 347//347 342//342 348//348
f 350//350 349//349 348//348
f 348//348 342//342 350//350
f 351//351 350//350 352//352
f 350//350 351//351 353//353
f 349//349 350//350 353//353
f 353//353 351//351 354//354
f 356//356 355//355 354//354
f 356//356 354//354 351//351
f 356//356 358//358 357//357
f 356//356 357//357 359//359
f 356//356 359//359 355//355
f 359//359 357//357 360//360
f 360//360 357//357 361//361
f 361//361 357//357 362//362
f 362//362 363//363 361//361
f 363//363 362//362 364//364
f 364//364 362//362 365//365
f 366//366 365//365 362//362
f 368//368 366//366 367//367
f 362//362 367//367 366//366
f 369//369 368//368 367//367
f 370//370 369//369 367//367
f 372//372 370//370 367//367
f 370//370 372//372 371//371
f 372//372 373//373 375//375
f 374//374 371//371 372//372
f 372//372 375//375 374//374
f 376//376 375//375 373//373
f 373//373 377//377 376//376
f 373//373 378//378 377//377
f 378//378 373//373 379//379
f 380//380 379//379 373//373
f 381//381 380//380 382//382
f 373//373 382//382 380//380
f 382//382 383//383 381//381
f 383//383 384//384 385//385
f 381//381 383//383 385//385
f 385//385 384//384 319//319
f 385//385 319//319 320//320
f 352//352 386//386 351//351
f 387//387 351//351 386//386
f 351//351 387//387 388//388
f 391//391 388//388 389//389
f 390//390 389//389 388//388
f 388//388 391//391 351//351
f 389//389 392//392 391//391
