# arm_25 exported from /models/landings/arm_25.glb
# units: meters
v -0.026404 0.001000 -0.014738
v -0.026404 0.001000 -0.035439
v -0.022649 0.001000 -0.026752
v -0.018774 0.001000 -0.021942
v -0.018492 0.001000 -0.021385
v -0.026182 0.001000 -0.014110
v -0.026347 0.001000 -0.014405
v -0.013109 0.001000 -0.013934
v 0.004519 0.001000 0.023872
v -0.011747 0.001000 -0.008260
v -0.011589 0.001000 -0.007434
v -0.011090 0.001000 -0.006674
v -0.005788 0.001000 -0.000831
v -0.006027 0.001000 -0.001374
v -0.010330 0.001000 -0.006175
v 0.004900 0.001000 0.013587
v 0.005338 0.001000 0.013967
v 0.012628 0.001000 0.017926
v 0.006074 0.001000 0.024615
v 0.012694 0.001000 0.017962
v 0.012895 0.001000 0.018050
v 0.013084 0.001000 0.018110
v 0.013280 0.001000 0.018152
v 0.013669 0.001000 0.018184
v 0.031528 0.001000 0.024615
v 0.027853 0.001000 0.018184
v 0.028038 0.001000 0.018163
v 0.028213 0.001000 0.018099
v 0.028352 0.001000 0.018001
v 0.034034 0.001000 0.019966
v 0.028444 0.001000 0.017889
v 0.028500 0.001000 0.017730
v 0.031963 0.001000 0.016820
v 0.031921 0.001000 0.016753
v 0.012962 0.001000 -0.011857
v 0.028496 0.001000 0.017613
v 0.028468 0.001000 0.017527
v 0.028436 0.001000 0.017467
v 0.024518 0.001000 0.011344
v 0.013096 0.001000 -0.006509
v 0.010799 0.001000 -0.010100
v 0.010536 0.001000 -0.010511
v 0.012523 0.001000 -0.012520
v 0.010468 0.001000 -0.010554
v 0.011845 0.001000 -0.012965
v 0.011109 0.001000 -0.013106
v -0.011488 0.001000 -0.013106
v 0.010320 0.001000 -0.010621
v 0.010163 0.001000 -0.010661
v 0.010007 0.001000 -0.010673
v -0.002800 0.001000 -0.010673
v -0.002956 0.001000 -0.010661
v -0.003113 0.001000 -0.010621
v -0.003261 0.001000 -0.010554
v -0.008679 0.001000 -0.010345
v -0.003387 0.001000 -0.010465
v -0.007919 0.001000 -0.009845
v -0.003484 0.001000 -0.010361
v -0.003549 0.001000 -0.010251
v -0.003590 0.001000 -0.010113
v -0.007420 0.001000 -0.009085
v -0.007262 0.001000 -0.008260
v -0.007420 0.001000 -0.007434
v -0.005996 0.001000 -0.002014
v -0.008679 0.001000 -0.006175
v -0.007919 0.001000 -0.006674
v -0.009504 0.001000 -0.006018
v -0.009504 0.001000 -0.010502
v -0.010330 0.001000 -0.010345
v -0.011090 0.001000 -0.009845
v -0.012398 0.001000 -0.013325
v -0.011589 0.001000 -0.009085
v 0.033638 0.001000 0.023748
v 0.034517 0.001000 0.021358
v 0.032956 0.001000 0.024253
v 0.034169 0.001000 0.023039
v 0.034469 0.001000 0.022205
v 0.005212 0.001000 0.024420
v -0.018871 0.001000 -0.022559
v -0.018864 0.001000 -0.026752
v -0.022649 0.001000 -0.028752
v -0.021382 0.001000 -0.035158
v -0.020025 0.001000 -0.034265
v -0.019135 0.001000 -0.032907
v -0.018856 0.001000 -0.031433
v -0.018861 0.001000 -0.028752
v -0.022856 0.001000 -0.035439
v -0.009504 0.001000 -0.006018
v -0.010330 0.001000 -0.006175
v -0.009504 -0.001000 -0.006018
v -0.010330 -0.001000 -0.006175
v -0.011090 -0.001000 -0.006674
v -0.011090 0.001000 -0.006674
v -0.011589 -0.001000 -0.007434
v -0.011589 0.001000 -0.007434
v -0.011747 -0.001000 -0.008260
v -0.011589 -0.001000 -0.009085
v -0.011747 0.001000 -0.008260
v -0.011589 0.001000 -0.009085
v -0.011090 0.001000 -0.009845
v -0.011090 -0.001000 -0.009845
v -0.010330 0.001000 -0.010345
v -0.009504 0.001000 -0.010502
v -0.010330 -0.001000 -0.010345
v -0.009504 -0.001000 -0.010502
v -0.008679 -0.001000 -0.010345
v -0.008679 0.001000 -0.010345
v -0.007919 -0.001000 -0.009845
v -0.007919 0.001000 -0.009845
v -0.007420 -0.001000 -0.009085
v -0.007420 0.001000 -0.009085
v -0.007262 -0.001000 -0.008260
v -0.007420 -0.001000 -0.007434
v -0.007262 0.001000 -0.008260
v -0.007420 0.001000 -0.007434
v -0.007919 0.001000 -0.006674
v -0.007919 -0.001000 -0.006674
v -0.008679 0.001000 -0.006175
v -0.009504 0.001000 -0.006018
v -0.008679 -0.001000 -0.006175
v -0.009504 -0.001000 -0.006018
v -0.002800 0.001000 -0.010673
v -0.002956 0.001000 -0.010661
v -0.002866 0.000667 -0.010671
v -0.002800 0.000500 -0.010673
v -0.002866 0.000333 -0.010671
v -0.002800 0.000000 -0.010673
v -0.002866 -0.000333 -0.010671
v -0.002800 -0.000500 -0.010673
v -0.002866 -0.000667 -0.010671
v -0.002800 -0.001000 -0.010673
v -0.002956 -0.001000 -0.010661
v -0.002996 -0.000667 -0.010653
v -0.002931 -0.000667 -0.010664
v -0.003060 -0.000667 -0.010638
v -0.003113 -0.001000 -0.010621
v -0.003183 -0.000667 -0.010594
v -0.003261 -0.001000 -0.010554
v -0.003244 -0.000667 -0.010564
v -0.003387 -0.001000 -0.010465
v -0.003302 -0.000667 -0.010529
v -0.003302 -0.000333 -0.010529
v -0.003354 -0.000667 -0.010492
v -0.003403 -0.000667 -0.010451
v -0.003354 -0.000333 -0.010492
v -0.003354 0.000333 -0.010492
v -0.003403 -0.000333 -0.010451
v -0.003448 -0.000333 -0.010405
v -0.003403 0.000333 -0.010451
v -0.003403 0.000667 -0.010451
v -0.003448 0.000333 -0.010405
v -0.003448 0.000667 -0.010405
v -0.003489 0.000333 -0.010355
v -0.003489 0.000667 -0.010355
v -0.003524 0.000333 -0.010300
v -0.003489 -0.000333 -0.010355
v -0.003524 -0.000333 -0.010300
v -0.003489 -0.000667 -0.010355
v -0.003448 -0.000667 -0.010405
v -0.003524 -0.000667 -0.010300
v -0.003484 -0.001000 -0.010361
v -0.003549 -0.001000 -0.010251
v -0.003590 -0.001000 -0.010113
v -0.003576 -0.000667 -0.010179
v -0.003553 -0.000667 -0.010243
v -0.003553 -0.000333 -0.010243
v -0.003553 0.000333 -0.010243
v -0.003576 -0.000333 -0.010179
v -0.003576 0.000333 -0.010179
v -0.003590 -0.000500 -0.010113
v -0.003590 0.000000 -0.010113
v -0.003590 0.000500 -0.010113
v -0.003590 0.001000 -0.010113
v -0.003576 0.000667 -0.010179
v -0.003553 0.000667 -0.010243
v -0.003524 0.000667 -0.010300
v -0.003549 0.001000 -0.010251
v -0.003484 0.001000 -0.010361
v -0.003387 0.001000 -0.010465
v -0.003354 0.000667 -0.010492
v -0.003302 0.000667 -0.010529
v -0.003261 0.001000 -0.010554
v -0.003113 0.001000 -0.010621
v -0.003244 0.000667 -0.010564
v -0.003244 0.000333 -0.010564
v -0.003183 0.000667 -0.010594
v -0.003183 0.000333 -0.010594
v -0.003060 0.000667 -0.010638
v -0.002996 0.000667 -0.010653
v -0.003060 0.000333 -0.010638
v -0.002996 0.000333 -0.010653
v -0.003060 -0.000333 -0.010638
v -0.002996 -0.000333 -0.010653
v -0.003183 -0.000333 -0.010594
v -0.003244 -0.000333 -0.010564
v -0.002931 -0.000333 -0.010664
v -0.002931 0.000333 -0.010664
v -0.002931 0.000667 -0.010664
v -0.003302 0.000333 -0.010529
v 0.010007 0.001000 -0.010673
v 0.010147 0.000500 -0.010663
v 0.010163 0.001000 -0.010661
v 0.010007 0.000333 -0.010673
v 0.010147 0.000000 -0.010663
v 0.010007 -0.000333 -0.010673
v 0.010007 -0.001000 -0.010673
v 0.010147 -0.000500 -0.010663
v 0.010163 -0.001000 -0.010661
v 0.010284 -0.000500 -0.010633
v 0.010284 0.000000 -0.010633
v 0.010320 -0.001000 -0.010621
v 0.010415 -0.000500 -0.010582
v 0.010415 -0.000750 -0.010582
v 0.010477 -0.000750 -0.010549
v 0.010468 -0.001000 -0.010554
v 0.010536 -0.001000 -0.010511
v 0.010536 -0.000333 -0.010511
v 0.010536 0.000333 -0.010511
v 0.010415 0.000000 -0.010582
v 0.010477 -0.000500 -0.010549
v 0.010415 0.000500 -0.010582
v 0.010477 0.000500 -0.010549
v 0.010477 0.000750 -0.010549
v 0.010536 0.001000 -0.010511
v 0.010415 0.000750 -0.010582
v 0.010468 0.001000 -0.010554
v 0.010320 0.001000 -0.010621
v 0.010284 0.000500 -0.010633
v 0.010007 0.001000 -0.010673
v 0.005738 0.001000 -0.010673
v 0.008406 0.000500 -0.010673
v 0.010007 0.000333 -0.010673
v 0.010007 -0.000333 -0.010673
v 0.008406 0.000000 -0.010673
v 0.010007 -0.001000 -0.010673
v 0.008406 -0.000500 -0.010673
v 0.006805 -0.000500 -0.010673
v 0.005738 -0.001000 -0.010673
v 0.006805 0.000000 -0.010673
v 0.001469 -0.001000 -0.010673
v 0.000402 0.000000 -0.010673
v 0.000402 -0.000500 -0.010673
v -0.001199 -0.000500 -0.010673
v -0.002800 -0.001000 -0.010673
v -0.002800 -0.000500 -0.010673
v -0.002800 0.000000 -0.010673
v -0.002800 0.000500 -0.010673
v -0.001199 0.000000 -0.010673
v -0.001199 0.000500 -0.010673
v -0.002800 0.001000 -0.010673
v 0.000402 0.000500 -0.010673
v 0.001469 0.001000 -0.010673
v 0.006805 0.000500 -0.010673
v -0.005788 0.001000 -0.000831
v -0.006027 0.001000 -0.001374
v -0.005788 0.000000 -0.000831
v -0.006027 -0.001000 -0.001374
v -0.005788 -0.001000 -0.000831
v -0.005996 0.000000 -0.002014
v -0.005996 -0.001000 -0.002014
v -0.005996 0.001000 -0.002014
v -0.005788 0.001000 -0.000831
v -0.003116 0.001000 0.002773
v -0.004452 0.000500 0.000971
v -0.005788 0.000000 -0.000831
v -0.004452 -0.000000 0.000971
v -0.004452 -0.000500 0.000971
v -0.005788 -0.001000 -0.000831
v -0.003116 -0.001000 0.002773
v -0.000444 -0.001000 0.006378
v -0.003116 -0.000500 0.002773
v -0.003116 -0.000000 0.002773
v -0.003116 0.000500 0.002773
v -0.000444 0.001000 0.006378
v 0.002228 0.001000 0.009982
v 0.002228 0.000500 0.009982
v 0.002228 -0.000000 0.009982
v 0.002228 -0.000500 0.009982
v 0.003564 -0.000000 0.011785
v 0.003564 -0.000500 0.011785
v 0.003564 0.000500 0.011785
v 0.004900 -0.000000 0.013587
v 0.004900 -0.001000 0.013587
v 0.004900 0.001000 0.013587
v 0.002228 -0.001000 0.009982
v 0.012694 0.001000 0.017962
v 0.012926 0.000500 0.018061
v 0.012895 0.001000 0.018050
v 0.012694 -0.000000 0.017962
v 0.012926 -0.000500 0.018061
v 0.012694 -0.001000 0.017962
v 0.012926 -0.000000 0.018061
v 0.013168 -0.000000 0.018130
v 0.013168 -0.000500 0.018130
v 0.013417 -0.000000 0.018171
v 0.013168 0.000500 0.018130
v 0.013280 0.001000 0.018152
v 0.013084 0.001000 0.018110
v 0.013417 0.000500 0.018171
v 0.013669 0.001000 0.018184
v 0.013669 -0.000000 0.018184
v 0.013417 -0.000500 0.018171
v 0.013669 -0.001000 0.018184
v 0.013280 -0.001000 0.018152
v 0.013084 -0.001000 0.018110
v 0.012895 -0.001000 0.018050
v 0.013669 0.001000 0.018184
v 0.013669 -0.000000 0.018184
v 0.018397 0.001000 0.018184
v 0.018397 -0.001000 0.018184
v 0.024307 -0.000000 0.018184
v 0.023125 0.001000 0.018184
v 0.027853 0.001000 0.018184
v 0.024307 0.000500 0.018184
v 0.026080 0.000500 0.018184
v 0.027853 0.000500 0.018184
v 0.026080 -0.000000 0.018184
v 0.027853 -0.000000 0.018184
v 0.026080 -0.000500 0.018184
v 0.024307 -0.000500 0.018184
v 0.023125 -0.001000 0.018184
v 0.027853 -0.000500 0.018184
v 0.027853 -0.001000 0.018184
v 0.013669 -0.001000 0.018184
v 0.012694 0.001000 0.017962
v 0.012628 0.001000 0.017926
v 0.012694 -0.000000 0.017962
v 0.012694 -0.001000 0.017962
v 0.005338 -0.000000 0.013967
v 0.012628 -0.001000 0.017926
v 0.005338 -0.001000 0.013967
v 0.005338 0.001000 0.013967
v 0.004900 0.001000 0.013587
v 0.004900 -0.000000 0.013587
v 0.005338 0.001000 0.013967
v 0.005338 -0.000000 0.013967
v 0.005338 -0.001000 0.013967
v 0.004900 -0.001000 0.013587
v 0.027853 0.001000 0.018184
v 0.027994 0.000333 0.018172
v 0.028038 0.001000 0.018163
v 0.027853 0.000500 0.018184
v 0.027853 -0.000000 0.018184
v 0.027994 -0.000333 0.018172
v 0.027853 -0.000500 0.018184
v 0.027853 -0.001000 0.018184
v 0.028038 -0.001000 0.018163
v 0.028213 -0.001000 0.018099
v 0.028131 -0.000333 0.018135
v 0.028259 -0.000333 0.018073
v 0.028259 -0.000667 0.018073
v 0.028131 0.000333 0.018135
v 0.028259 0.000333 0.018073
v 0.028213 0.001000 0.018099
v 0.028259 0.000667 0.018073
v 0.028352 0.001000 0.018001
v 0.028316 0.000667 0.018032
v 0.028369 0.000667 0.017985
v 0.028316 0.000333 0.018032
v 0.028316 -0.000333 0.018032
v 0.028369 0.000333 0.017985
v 0.028416 0.000333 0.017931
v 0.028369 -0.000333 0.017985
v 0.028416 -0.000333 0.017931
v 0.028369 -0.000667 0.017985
v 0.028316 -0.000667 0.018032
v 0.028416 -0.000667 0.017931
v 0.028352 -0.001000 0.018001
v 0.028444 -0.001000 0.017889
v 0.028454 -0.000667 0.017872
v 0.028500 -0.001000 0.017730
v 0.028502 -0.000667 0.017667
v 0.028499 -0.000667 0.017738
v 0.028496 -0.001000 0.017613
v 0.028492 -0.000667 0.017597
v 0.028470 -0.000833 0.017530
v 0.028468 -0.001000 0.017527
v 0.028454 -0.000833 0.017498
v 0.028436 -0.001000 0.017467
v 0.028454 -0.000667 0.017498
v 0.028436 -0.000500 0.017467
v 0.028436 -0.000000 0.017467
v 0.028470 -0.000333 0.017530
v 0.028492 -0.000333 0.017597
v 0.028470 -0.000667 0.017530
v 0.028470 0.000333 0.017530
v 0.028470 0.000667 0.017530
v 0.028454 0.000667 0.017498
v 0.028436 0.000500 0.017467
v 0.028492 0.000333 0.017597
v 0.028492 0.000667 0.017597
v 0.028502 0.000333 0.017667
v 0.028499 0.000333 0.017738
v 0.028502 -0.000333 0.017667
v 0.028502 0.000667 0.017667
v 0.028496 0.001000 0.017613
v 0.028499 0.000667 0.017738
v 0.028500 0.001000 0.017730
v 0.028454 0.000667 0.017872
v 0.028454 0.000333 0.017872
v 0.028416 0.000667 0.017931
v 0.028444 0.001000 0.017889
v 0.028454 -0.000333 0.017872
v 0.028499 -0.000333 0.017738
v 0.028468 0.001000 0.017527
v 0.028470 0.000833 0.017530
v 0.028454 0.000833 0.017498
v 0.028436 0.001000 0.017467
v -0.005996 0.001000 -0.002014
v -0.005996 0.000000 -0.002014
v -0.003590 0.001000 -0.010113
v -0.003590 0.000500 -0.010113
v -0.003590 0.000000 -0.010113
v -0.003590 -0.000500 -0.010113
v -0.005996 -0.001000 -0.002014
v -0.003590 -0.001000 -0.010113
v 0.028436 0.001000 0.017467
v 0.028436 0.000500 0.017467
v 0.010536 0.001000 -0.010511
v 0.010536 0.000333 -0.010511
v 0.028436 -0.000000 0.017467
v 0.010536 -0.000333 -0.010511
v 0.010536 -0.001000 -0.010511
v 0.028436 -0.000500 0.017467
v 0.028436 -0.001000 0.017467
v 0.031963 0.001000 0.016820
v 0.034034 0.001000 0.019966
v 0.031963 0.000714 0.016820
v 0.031963 0.000429 0.016820
v 0.031963 0.000143 0.016820
v 0.034034 -0.001000 0.019966
v 0.031963 -0.000143 0.016820
v 0.031963 -0.000429 0.016820
v 0.031963 -0.000714 0.016820
v 0.031963 -0.001000 0.016820
v 0.034034 -0.001000 0.019966
v 0.034517 -0.001000 0.021358
v 0.034034 0.001000 0.019966
v 0.034517 0.001000 0.021358
v 0.034469 0.001000 0.022205
v 0.034469 -0.001000 0.022205
v 0.034169 0.001000 0.023039
v 0.034169 -0.001000 0.023039
v 0.033638 0.001000 0.023748
v 0.033638 -0.001000 0.023748
v 0.032956 0.001000 0.024253
v 0.032956 -0.001000 0.024253
v 0.031528 0.001000 0.024615
v 0.031528 -0.001000 0.024615
v 0.031528 0.001000 0.024615
v 0.031528 -0.001000 0.024615
v 0.006074 0.001000 0.024615
v 0.006074 -0.001000 0.024615
v 0.006074 -0.001000 0.024615
v 0.005212 -0.001000 0.024420
v 0.006074 0.001000 0.024615
v 0.005212 0.001000 0.024420
v 0.004519 0.001000 0.023872
v 0.004519 -0.001000 0.023872
v 0.004519 0.001000 0.023872
v 0.004519 -0.001000 0.023872
v -0.026182 0.001000 -0.014110
v -0.026182 -0.001000 -0.014110
v -0.026182 -0.001000 -0.014110
v -0.026347 -0.001000 -0.014405
v -0.026182 0.001000 -0.014110
v -0.026347 0.001000 -0.014405
v -0.026404 0.001000 -0.014738
v -0.026404 -0.001000 -0.014738
v 0.012962 0.001000 -0.011857
v 0.031921 0.000714 0.016753
v 0.031921 0.001000 0.016753
v 0.012962 0.000000 -0.011857
v 0.031921 0.000429 0.016753
v 0.031921 0.000143 0.016753
v 0.031921 -0.000143 0.016753
v 0.031921 -0.000429 0.016753
v 0.012962 -0.001000 -0.011857
v 0.031921 -0.000714 0.016753
v 0.031921 -0.001000 0.016753
v 0.011109 0.001000 -0.013106
v -0.011488 0.001000 -0.013106
v 0.011109 -0.001000 -0.013106
v -0.011488 -0.001000 -0.013106
v -0.013109 0.001000 -0.013934
v -0.012398 0.001000 -0.013325
v -0.013109 -0.001000 -0.013934
v -0.012398 -0.001000 -0.013325
v -0.011488 -0.001000 -0.013106
v -0.011488 0.001000 -0.013106
v 0.011109 -0.001000 -0.013106
v 0.011845 -0.001000 -0.012965
v 0.011109 0.001000 -0.013106
v 0.011845 0.001000 -0.012965
v 0.012523 0.001000 -0.012520
v 0.012962 0.001000 -0.011857
v 0.012962 0.000000 -0.011857
v 0.012523 -0.001000 -0.012520
v 0.012962 -0.001000 -0.011857
v -0.022856 -0.001000 -0.035439
v -0.026404 -0.001000 -0.035439
v -0.022856 0.001000 -0.035439
v -0.026404 0.001000 -0.035439
v -0.018871 0.001000 -0.022559
v -0.018774 0.001000 -0.021942
v -0.018871 -0.001000 -0.022559
v -0.018774 -0.001000 -0.021942
v -0.018492 -0.001000 -0.021385
v -0.018492 0.001000 -0.021385
v -0.018861 -0.001000 -0.028752
v -0.018856 -0.001000 -0.031433
v -0.018861 0.001000 -0.028752
v -0.018856 0.001000 -0.031433
v -0.022856 -0.001000 -0.035439
v -0.022128 -0.001000 -0.035372
v -0.022856 0.001000 -0.035439
v -0.022128 0.001000 -0.035372
v -0.021382 0.001000 -0.035158
v -0.021382 -0.001000 -0.035158
v -0.020665 0.001000 -0.034786
v -0.020665 -0.001000 -0.034786
v -0.020025 0.001000 -0.034265
v -0.020025 -0.001000 -0.034265
v -0.019506 0.001000 -0.033625
v -0.019506 -0.001000 -0.033625
v -0.019135 0.001000 -0.032907
v -0.019135 -0.001000 -0.032907
v -0.018922 0.001000 -0.032161
v -0.018922 -0.001000 -0.032161
v -0.018856 0.001000 -0.031433
v -0.018856 -0.001000 -0.031433
v -0.022649 -0.001000 -0.026752
v -0.022649 0.001000 -0.026752
v -0.022649 -0.001000 -0.028752
v -0.022649 0.001000 -0.028752
v -0.018861 0.001000 -0.028752
v -0.018861 -0.001000 -0.028752
v -0.022649 0.001000 -0.028752
v -0.022649 -0.001000 -0.028752
v -0.018871 -0.001000 -0.022559
v -0.018864 -0.001000 -0.026752
v -0.018871 0.001000 -0.022559
v -0.018864 0.001000 -0.026752
v -0.018864 0.001000 -0.026752
v -0.022649 0.001000 -0.026752
v -0.018864 -0.001000 -0.026752
v -0.022649 -0.001000 -0.026752
v -0.013109 -0.001000 -0.013934
v -0.015800 -0.001000 -0.017659
v -0.013109 0.001000 -0.013934
v -0.015800 0.001000 -0.017659
v -0.018492 0.001000 -0.021385
v -0.018492 -0.001000 -0.021385
v 0.031921 -0.001000 0.016753
v 0.031963 -0.001000 0.016820
v 0.031921 -0.000714 0.016753
v 0.031963 -0.000714 0.016820
v 0.031921 -0.000429 0.016753
v 0.031963 -0.000429 0.016820
v 0.031921 -0.000143 0.016753
v 0.031921 0.000143 0.016753
v 0.031963 -0.000143 0.016820
v 0.031963 0.000143 0.016820
v 0.031963 0.000429 0.016820
v 0.031963 0.000714 0.016820
v 0.031921 0.000429 0.016753
v 0.031921 0.000714 0.016753
v 0.031921 0.001000 0.016753
v 0.031963 0.001000 0.016820
v -0.026404 -0.001000 -0.014738
v -0.026404 -0.001000 -0.035439
v -0.026404 0.001000 -0.014738
v -0.026404 0.001000 -0.035439
v -0.026404 -0.001000 -0.014738
v -0.022649 -0.001000 -0.026752
v -0.026404 -0.001000 -0.035439
v -0.018492 -0.001000 -0.021385
v -0.018774 -0.001000 -0.021942
v -0.026182 -0.001000 -0.014110
v -0.026347 -0.001000 -0.014405
v -0.013109 -0.001000 -0.013934
v 0.004519 -0.001000 0.023872
v -0.011747 -0.001000 -0.008260
v -0.011589 -0.001000 -0.007434
v -0.011090 -0.001000 -0.006674
v -0.005788 -0.001000 -0.000831
v -0.010330 -0.001000 -0.006175
v 0.004900 -0.001000 0.013587
v -0.006027 -0.001000 -0.001374
v -0.005996 -0.001000 -0.002014
v -0.009504 -0.001000 -0.006018
v -0.008679 -0.001000 -0.006175
v -0.007919 -0.001000 -0.006674
v -0.007420 -0.001000 -0.007434
v -0.007262 -0.001000 -0.008260
v -0.003590 -0.001000 -0.010113
v -0.003549 -0.001000 -0.010251
v -0.007919 -0.001000 -0.009845
v -0.007420 -0.001000 -0.009085
v -0.003387 -0.001000 -0.010465
v -0.003484 -0.001000 -0.010361
v -0.008679 -0.001000 -0.010345
v -0.009504 -0.001000 -0.010502
v -0.003261 -0.001000 -0.010554
v -0.011488 -0.001000 -0.013106
v -0.012398 -0.001000 -0.013325
v -0.003113 -0.001000 -0.010621
v -0.002956 -0.001000 -0.010661
v 0.011109 -0.001000 -0.013106
v -0.002800 -0.001000 -0.010673
v -0.011090 -0.001000 -0.009845
v -0.010330 -0.001000 -0.010345
v -0.011589 -0.001000 -0.009085
v 0.010007 -0.001000 -0.010673
v 0.010163 -0.001000 -0.010661
v 0.010320 -0.001000 -0.010621
v 0.010468 -0.001000 -0.010554
v 0.010536 -0.001000 -0.010511
v 0.011845 -0.001000 -0.012965
v 0.012523 -0.001000 -0.012520
v 0.012962 -0.001000 -0.011857
v 0.010799 -0.001000 -0.010100
v 0.013096 -0.001000 -0.006509
v 0.024518 -0.001000 0.011344
v 0.031921 -0.001000 0.016753
v 0.028500 -0.001000 0.017730
v 0.031963 -0.001000 0.016820
v 0.028468 -0.001000 0.017527
v 0.028496 -0.001000 0.017613
v 0.028436 -0.001000 0.017467
v 0.028444 -0.001000 0.017889
v 0.034034 -0.001000 0.019966
v 0.028352 -0.001000 0.018001
v 0.034169 -0.001000 0.023039
v 0.034517 -0.001000 0.021358
v 0.033638 -0.001000 0.023748
v 0.032956 -0.001000 0.024253
v 0.031528 -0.001000 0.024615
v 0.028213 -0.001000 0.018099
v 0.028038 -0.001000 0.018163
v 0.027853 -0.001000 0.018184
v 0.013669 -0.001000 0.018184
v 0.006074 -0.001000 0.024615
v 0.013280 -0.001000 0.018152
v 0.012694 -0.001000 0.017962
v 0.012628 -0.001000 0.017926
v 0.013084 -0.001000 0.018110
v 0.012895 -0.001000 0.018050
v 0.005212 -0.001000 0.024420
v 0.005338 -0.001000 0.013967
v 0.034469 -0.001000 0.022205
v -0.018871 -0.001000 -0.022559
v -0.018864 -0.001000 -0.026752
v -0.022649 -0.001000 -0.028752
v -0.022856 -0.001000 -0.035439
v -0.021382 -0.001000 -0.035158
v -0.020025 -0.001000 -0.034265
v -0.019135 -0.001000 -0.032907
v -0.018856 -0.001000 -0.031433
v -0.018861 -0.001000 -0.028752
vn 0.000000 1.000000 0.000000
vn 0.000000 1.000000 0.000000
vn 0.000000 1.000000 0.000000
vn 0.000000 1.000000 0.000000
vn 0.000000 1.000000 0.000000
vn 0.000000 1.000000 0.000000
vn 0.000000 1.000000 0.000000
vn 0.000000 1.000000 0.000000
vn 0.000000 1.000000 0.000000
vn 0.000000 1.000000 0.000000
vn 0.000000 1.000000 0.000000
vn 0.000000 1.000000 0.000000
vn 0.000000 1.000000 0.000000
vn 0.000000 1.000000 0.000000
vn 0.000000 1.000000 0.000000
vn 0.000000 1.000000 0.000000
vn 0.000000 1.000000 0.000000
vn 0.000000 1.000000 0.000000
vn 0.000000 1.000000 0.000000
vn 0.000000 1.000000 0.000000
vn 0.000000 1.000000 0.000000
vn 0.000000 1.000000 0.000000
vn 0.000000 1.000000 0.000000
vn 0.000000 1.000000 0.000000
vn 0.000000 1.000000 0.000000
vn 0.000000 1.000000 0.000000
vn 0.000000 1.000000 0.000000
vn 0.000000 1.000000 0.000000
vn 0.000000 1.000000 0.000000
vn 0.000000 1.000000 0.000000
vn 0.000000 1.000000 0.000000
vn 0.000000 1.000000 0.000000
vn 0.000000 1.000000 0.000000
vn 0.000000 1.000000 0.000000
vn 0.000000 1.000000 0.000000
vn 0.000000 1.000000 0.000000
vn 0.000000 1.000000 0.000000
vn 0.000000 1.000000 0.000000
vn 0.000000 1.000000 0.000000
vn 0.000000 1.000000 0.000000
vn 0.000000 1.000000 0.000000
vn 0.000000 1.000000 0.000000
vn 0.000000 1.000000 0.000000
vn 0.000000 1.000000 0.000000
vn 0.000000 1.000000 0.000000
vn 0.000000 1.000000 0.000000
vn 0.000000 1.000000 0.000000
vn 0.000000 1.000000 0.000000
vn 0.000000 1.000000 0.000000
vn 0.000000 1.000000 0.000000
vn 0.000000 1.000000 0.000000
vn 0.000000 1.000000 0.000000
vn 0.000000 1.000000 0.000000
vn 0.000000 1.000000 0.000000
vn 0.000000 1.000000 0.000000
vn 0.000000 1.000000 0.000000
vn 0.000000 1.000000 0.000000
vn 0.000000 1.000000 0.000000
vn 0.000000 1.000000 0.000000
vn 0.000000 1.000000 0.000000
vn 0.000000 1.000000 0.000000
vn 0.000000 1.000000 0.000000
vn 0.000000 1.000000 0.000000
vn 0.000000 1.000000 0.000000
vn 0.000000 1.000000 0.000000
vn 0.000000 1.000000 0.000000
vn 0.000000 1.000000 0.000000
vn 0.000000 1.000000 0.000000
vn 0.000000 1.000000 0.000000
vn 0.000000 1.000000 0.000000
vn 0.000000 1.000000 0.000000
vn 0.000000 1.000000 0.000000
vn 0.000000 1.000000 0.000000
vn 0.000000 1.000000 0.000000
vn 0.000000 1.000000 0.000000
vn 0.000000 1.000000 0.000000
vn 0.000000 1.000000 0.000000
vn 0.000000 1.000000 0.000000
vn 0.000000 1.000000 0.000000
vn 0.000000 1.000000 0.000000
vn 0.000000 1.000000 0.000000
vn 0.000000 1.000000 0.000000
vn 0.000000 1.000000 0.000000
vn 0.000000 1.000000 0.000000
vn 0.000000 1.000000 0.000000
vn 0.000000 1.000000 0.000000
vn 0.000000 1.000000 0.000000
vn 0.000100 0.000000 -1.000000
vn 0.368095 0.000000 -0.929788
vn 0.000100 0.000000 -1.000000
vn 0.368095 0.000000 -0.929788
vn 0.707107 0.000000 -0.707107
vn 0.707107 0.000000 -0.707107
vn 0.929788 0.000000 -0.368095
vn 0.929788 0.000000 -0.368095
vn 1.000000 0.000000 0.000000
vn 0.929788 -0.000000 0.368095
vn 1.000000 0.000000 0.000000
vn 0.929788 -0.000000 0.368095
vn 0.707107 -0.000000 0.707107
vn 0.707107 -0.000000 0.707107
vn 0.368095 -0.000000 0.929788
vn 0.000000 -0.000000 1.000000
vn 0.368095 -0.000000 0.929788
vn 0.000000 -0.000000 1.000000
vn -0.368095 -0.000000 0.929788
vn -0.368095 -0.000000 0.929788
vn -0.707107 -0.000000 0.707107
vn -0.707107 -0.000000 0.707107
vn -0.929788 -0.000000 0.368095
vn -0.929788 -0.000000 0.368095
vn -1.000000 0.000000 0.000000
vn -0.929788 0.000000 -0.368095
vn -1.000000 0.000000 0.000000
vn -0.929788 0.000000 -0.368095
vn -0.707107 0.000000 -0.707107
vn -0.707107 0.000000 -0.707107
vn -0.368095 0.000000 -0.929788
vn -0.000100 0.000000 -1.000000
vn -0.368095 0.000000 -0.929788
vn -0.000100 0.000000 -1.000000
vn 0.000100 -0.000000 1.000000
vn 0.160100 -0.000000 0.987101
vn 0.068298 -0.000000 0.997665
vn 0.000500 -0.000000 1.000000
vn 0.067899 -0.000000 0.997692
vn 0.001900 -0.000000 0.999998
vn 0.067899 -0.000000 0.997692
vn 0.000500 -0.000000 1.000000
vn 0.067899 -0.000000 0.997692
vn 0.000900 -0.000000 1.000000
vn 0.160506 -0.000000 0.987035
vn 0.200307 -0.000000 0.979733
vn 0.134698 -0.000000 0.990887
vn 0.267912 -0.000000 0.963443
vn 0.327815 -0.000000 0.944742
vn 0.407214 -0.000000 0.913333
vn 0.496203 -0.000000 0.868206
vn 0.476608 -0.000000 0.879116
vn 0.658597 0.000100 0.752496
vn 0.545389 0.000100 0.838183
vn 0.545016 -0.000000 0.838425
vn 0.612881 0.000100 0.790175
vn 0.680370 -0.000000 0.732868
vn 0.612423 -0.000000 0.790530
vn 0.612423 -0.000000 0.790530
vn 0.680627 -0.000000 0.732630
vn 0.746493 -0.000000 0.665394
vn 0.680627 -0.000000 0.732630
vn 0.680370 -0.000000 0.732868
vn 0.746493 -0.000000 0.665394
vn 0.745929 -0.000100 0.666026
vn 0.807615 -0.000000 0.589711
vn 0.807485 -0.000100 0.589889
vn 0.865212 -0.000000 0.501407
vn 0.807615 -0.000000 0.589711
vn 0.865212 -0.000000 0.501407
vn 0.807827 -0.000100 0.589420
vn 0.745929 -0.000000 0.666026
vn 0.865435 0.000200 0.501021
vn 0.800648 0.000100 0.599136
vn 0.910948 0.000100 0.412522
vn 0.988777 0.000100 0.149397
vn 0.960785 0.000100 0.277296
vn 0.917565 -0.000000 0.397585
vn 0.917602 -0.000000 0.397501
vn 0.917602 -0.000000 0.397501
vn 0.960785 -0.000000 0.277296
vn 0.960872 -0.000000 0.276992
vn 0.988763 -0.000000 0.149494
vn 0.988763 -0.000000 0.149494
vn 0.988763 -0.000000 0.149494
vn 0.988777 -0.000000 0.149397
vn 0.960758 -0.000000 0.277388
vn 0.917565 -0.000100 0.397585
vn 0.865168 -0.000100 0.501482
vn 0.911094 -0.000000 0.412198
vn 0.800767 -0.000200 0.598976
vn 0.658597 -0.000100 0.752496
vn 0.612881 -0.000100 0.790175
vn 0.545389 -0.000100 0.838183
vn 0.496203 -0.000000 0.868206
vn 0.327605 -0.000000 0.944815
vn 0.476608 -0.000000 0.879116
vn 0.476489 -0.000000 0.879180
vn 0.407214 -0.000000 0.913333
vn 0.407298 -0.000000 0.913295
vn 0.268005 -0.000000 0.963418
vn 0.200499 -0.000000 0.979694
vn 0.267793 -0.000000 0.963476
vn 0.200902 -0.000000 0.979611
vn 0.267793 -0.000000 0.963476
vn 0.200902 -0.000000 0.979611
vn 0.407298 -0.000000 0.913295
vn 0.476608 -0.000000 0.879116
vn 0.135202 -0.000000 0.990818
vn 0.135202 -0.000000 0.990818
vn 0.135202 -0.000000 0.990818
vn 0.545016 -0.000000 0.838425
vn 0.000300 -0.000000 1.000000
vn -0.143997 -0.000000 0.989578
vn -0.159905 -0.000000 0.987132
vn 0.000300 -0.000000 1.000000
vn -0.144193 -0.000000 0.989550
vn 0.000200 -0.000000 1.000000
vn 0.000300 -0.000000 1.000000
vn -0.144193 -0.000000 0.989550
vn -0.159808 -0.000000 0.987148
vn -0.287311 -0.000000 0.957837
vn -0.287403 -0.000000 0.957810
vn -0.327605 -0.000000 0.944815
vn -0.435898 -0.000000 0.899996
vn -0.435697 -0.000000 0.900093
vn -0.508025 -0.000100 0.861342
vn -0.496710 0.000100 0.867917
vn -0.580708 0.000200 0.814112
vn -0.580708 -0.000000 0.814112
vn -0.580301 -0.000000 0.814402
vn -0.436099 -0.000000 0.899899
vn -0.508217 -0.000100 0.861229
vn -0.435898 -0.000000 0.899996
vn -0.507597 -0.000000 0.861595
vn -0.507715 -0.000000 0.861525
vn -0.580595 -0.000200 0.814193
vn -0.435697 -0.000000 0.900093
vn -0.496710 -0.000100 0.867917
vn -0.327605 -0.000000 0.944815
vn -0.287403 -0.000000 0.957810
vn 0.000000 -0.000000 1.000000
vn 0.000000 -0.000000 1.000000
vn 0.000000 -0.000000 1.000000
vn 0.000000 -0.000000 1.000000
vn 0.000000 -0.000000 1.000000
vn 0.000000 -0.000000 1.000000
vn 0.000000 -0.000000 1.000000
vn 0.000000 -0.000000 1.000000
vn 0.000000 -0.000000 1.000000
vn 0.000000 -0.000000 1.000000
vn 0.000000 -0.000000 1.000000
vn 0.000000 -0.000000 1.000000
vn 0.000000 -0.000000 1.000000
vn 0.000000 -0.000000 1.000000
vn 0.000000 -0.000000 1.000000
vn 0.000000 -0.000000 1.000000
vn 0.000000 -0.000000 1.000000
vn 0.000000 -0.000000 1.000000
vn 0.000000 -0.000000 1.000000
vn 0.000000 -0.000000 1.000000
vn 0.000000 -0.000000 1.000000
vn 0.000000 -0.000000 1.000000
vn 0.000000 -0.000000 1.000000
vn 0.000000 -0.000000 1.000000
vn 0.000000 -0.000000 1.000000
vn 0.803419 0.000000 -0.595414
vn 0.981512 0.000000 -0.191402
vn 0.803419 0.000000 -0.595414
vn 0.981512 0.000000 -0.191402
vn 0.803419 0.000000 -0.595414
vn 0.958615 -0.000000 0.284705
vn 0.958615 -0.000000 0.284705
vn 0.958615 -0.000000 0.284705
vn 0.803371 0.000000 -0.595479
vn 0.803371 0.000000 -0.595479
vn 0.803371 0.000000 -0.595479
vn 0.803371 0.000000 -0.595479
vn 0.803371 0.000000 -0.595479
vn 0.803371 0.000000 -0.595479
vn 0.803371 0.000000 -0.595479
vn 0.803371 0.000000 -0.595479
vn 0.803371 0.000000 -0.595479
vn 0.803371 0.000000 -0.595479
vn 0.803371 0.000000 -0.595479
vn 0.803371 0.000000 -0.595479
vn 0.803371 0.000000 -0.595479
vn 0.803371 0.000000 -0.595479
vn 0.803371 0.000000 -0.595479
vn 0.803371 0.000000 -0.595479
vn 0.803371 0.000000 -0.595479
vn 0.803371 0.000000 -0.595479
vn 0.803371 0.000000 -0.595479
vn 0.803371 0.000000 -0.595479
vn 0.803371 0.000000 -0.595479
vn 0.803371 0.000000 -0.595479
vn 0.803371 0.000000 -0.595479
vn 0.803371 0.000000 -0.595479
vn 0.457305 0.000000 -0.889310
vn 0.333814 0.000000 -0.942639
vn 0.349183 0.000000 -0.937055
vn 0.457106 0.000000 -0.889412
vn 0.333903 0.000000 -0.942608
vn 0.457305 0.000000 -0.889310
vn 0.333991 0.000000 -0.942576
vn 0.214600 0.000000 -0.976702
vn 0.214600 0.000000 -0.976702
vn 0.107303 0.000000 -0.994226
vn 0.214600 0.000000 -0.976702
vn 0.165193 0.000000 -0.986261
vn 0.255104 0.000000 -0.966914
vn 0.107501 0.000000 -0.994205
vn 0.000000 0.000000 -1.000000
vn 0.000000 0.000000 -1.000000
vn 0.107402 0.000000 -0.994216
vn -0.000100 0.000000 -1.000000
vn 0.165193 0.000000 -0.986261
vn 0.255010 0.000000 -0.966938
vn 0.349183 0.000000 -0.937055
vn 0.000000 0.000000 -1.000000
vn 0.000000 0.000000 -1.000000
vn 0.000000 0.000000 -1.000000
vn 0.000000 0.000000 -1.000000
vn 0.000000 0.000000 -1.000000
vn 0.000000 0.000000 -1.000000
vn 0.000000 0.000000 -1.000000
vn 0.000000 0.000000 -1.000000
vn 0.000000 0.000000 -1.000000
vn 0.000000 0.000000 -1.000000
vn 0.000000 0.000000 -1.000000
vn 0.000000 0.000000 -1.000000
vn 0.000000 0.000000 -1.000000
vn 0.000000 0.000000 -1.000000
vn 0.000000 0.000000 -1.000000
vn 0.000000 0.000000 -1.000000
vn 0.000000 0.000000 -1.000000
vn 0.000000 0.000000 -1.000000
vn 0.477710 0.000000 -0.878518
vn 0.477394 0.000000 -0.878689
vn 0.477198 0.000000 -0.878796
vn 0.477710 0.000000 -0.878518
vn 0.477198 0.000000 -0.878796
vn 0.477394 0.000000 -0.878689
vn 0.477198 0.000000 -0.878796
vn 0.477198 0.000000 -0.878796
vn 0.803288 0.000000 -0.595591
vn 0.803288 0.000000 -0.595591
vn 0.477275 0.000000 -0.878754
vn 0.477275 0.000000 -0.878754
vn 0.477275 0.000000 -0.878754
vn 0.803288 0.000000 -0.595591
vn 0.000000 0.000000 -1.000000
vn -0.173797 0.000000 -0.984782
vn -0.228393 0.000000 -0.973569
vn -0.000500 0.000000 -1.000000
vn 0.000100 0.000000 -1.000000
vn -0.173797 -0.000400 -0.984781
vn -0.000500 0.000000 -1.000000
vn 0.000000 0.000000 -1.000000
vn -0.228298 0.000000 -0.973591
vn -0.462190 0.000100 -0.886781
vn -0.349007 0.000000 -0.937120
vn -0.529999 0.000000 -0.847998
vn -0.530188 0.000100 -0.847880
vn -0.349007 0.000000 -0.937120
vn -0.529999 0.000000 -0.847998
vn -0.462190 0.000000 -0.886781
vn -0.530116 -0.000100 -0.847925
vn -0.680992 0.000000 -0.732291
vn -0.621287 -0.000100 -0.783583
vn -0.710996 0.000000 -0.703196
vn -0.621005 0.000000 -0.783807
vn -0.621005 0.000000 -0.783807
vn -0.710996 0.000000 -0.703196
vn -0.799183 0.000000 -0.601088
vn -0.710996 0.000000 -0.703196
vn -0.799183 0.000000 -0.601088
vn -0.710797 0.000000 -0.703397
vn -0.621115 0.000000 -0.783719
vn -0.798967 0.000000 -0.601375
vn -0.681095 -0.000100 -0.732195
vn -0.858576 -0.000200 -0.512686
vn -0.880795 0.000000 -0.473497
vn -0.992481 0.000000 -0.122398
vn -0.998904 0.000100 0.046800
vn -0.989490 0.000000 -0.144599
vn -0.981395 -0.000000 0.191999
vn -0.972478 -0.000000 0.232995
vn -0.916870 0.000100 0.399187
vn -0.913824 -0.000300 0.406111
vn -0.881599 -0.000000 0.471999
vn -0.842378 -0.000500 0.538886
vn -0.881177 -0.000000 0.472787
vn -0.842304 0.000100 0.539003
vn -0.842304 -0.000000 0.539003
vn -0.916780 -0.000000 0.399392
vn -0.972523 -0.000000 0.232806
vn -0.916817 -0.000000 0.399307
vn -0.916943 -0.000000 0.399019
vn -0.916817 -0.000000 0.399307
vn -0.881218 -0.000000 0.472710
vn -0.842544 -0.000100 0.538628
vn -0.972523 -0.000000 0.232806
vn -0.972478 -0.000100 0.232995
vn -0.998900 -0.000000 0.046900
vn -0.989490 0.000000 -0.144599
vn -0.998900 -0.000000 0.046900
vn -0.998904 -0.000000 0.046800
vn -0.981357 -0.000000 0.192192
vn -0.989490 0.000000 -0.144599
vn -0.992481 0.000000 -0.122398
vn -0.880795 0.000000 -0.473497
vn -0.880837 0.000000 -0.473420
vn -0.799099 0.000000 -0.601199
vn -0.858506 0.000000 -0.512804
vn -0.880837 0.000000 -0.473420
vn -0.989490 0.000000 -0.144599
vn -0.913824 0.000300 0.406111
vn -0.916870 -0.000200 0.399187
vn -0.881429 -0.000300 0.472316
vn -0.842618 0.000600 0.538512
vn 0.958588 -0.000000 0.284796
vn 0.958588 -0.000000 0.284796
vn 0.958588 -0.000000 0.284796
vn 0.958588 -0.000000 0.284796
vn 0.958588 -0.000000 0.284796
vn 0.958588 -0.000000 0.284796
vn 0.958588 -0.000000 0.284796
vn 0.958588 -0.000000 0.284796
vn -0.842378 -0.000000 0.538886
vn -0.842378 -0.000000 0.538886
vn -0.842378 -0.000000 0.538886
vn -0.842378 -0.000000 0.538886
vn -0.842378 -0.000000 0.538886
vn -0.842378 -0.000000 0.538886
vn -0.842378 -0.000000 0.538886
vn -0.842378 -0.000000 0.538886
vn -0.842378 -0.000000 0.538886
vn 0.835297 0.000000 -0.549798
vn 0.835297 0.000000 -0.549798
vn 0.835297 0.000000 -0.549798
vn 0.835297 0.000000 -0.549798
vn 0.835297 0.000000 -0.549798
vn 0.835297 0.000000 -0.549798
vn 0.835297 0.000000 -0.549798
vn 0.835297 0.000000 -0.549798
vn 0.835297 0.000000 -0.549798
vn 0.835297 0.000000 -0.549798
vn 0.835343 0.000000 -0.549729
vn 0.996312 0.000000 -0.085801
vn 0.835343 0.000000 -0.549729
vn 0.996312 0.000000 -0.085801
vn 0.980442 -0.000000 0.196808
vn 0.980442 -0.000000 0.196808
vn 0.880307 -0.000000 0.474404
vn 0.880307 -0.000000 0.474404
vn 0.703397 -0.000000 0.710797
vn 0.703397 -0.000000 0.710797
vn 0.476096 -0.000000 0.879393
vn 0.476096 -0.000000 0.879393
vn 0.000100 -0.000000 1.000000
vn 0.000100 -0.000000 1.000000
vn 0.000000 -0.000000 1.000000
vn 0.000000 -0.000000 1.000000
vn 0.000000 -0.000000 1.000000
vn 0.000000 -0.000000 1.000000
vn -0.000100 -0.000000 1.000000
vn -0.430900 -0.000000 0.902400
vn -0.000100 -0.000000 1.000000
vn -0.430900 -0.000000 0.902400
vn -0.777668 -0.000000 0.628675
vn -0.777668 -0.000000 0.628675
vn -0.777717 -0.000000 0.628614
vn -0.777717 -0.000000 0.628614
vn -0.777717 -0.000000 0.628614
vn -0.777717 -0.000000 0.628614
vn -0.777757 -0.000000 0.628565
vn -0.942787 -0.000000 0.333395
vn -0.777757 -0.000000 0.628565
vn -0.942787 -0.000000 0.333395
vn -1.000000 -0.000000 0.000100
vn -1.000000 -0.000000 0.000100
vn 0.833585 0.000000 -0.552390
vn 0.833585 0.000000 -0.552390
vn 0.833585 0.000000 -0.552390
vn 0.833585 0.000000 -0.552390
vn 0.833585 0.000000 -0.552390
vn 0.833585 0.000000 -0.552390
vn 0.833585 0.000000 -0.552390
vn 0.833585 0.000000 -0.552390
vn 0.833585 0.000000 -0.552390
vn 0.833585 0.000000 -0.552390
vn 0.833585 0.000000 -0.552390
vn 0.000000 0.000000 -1.000000
vn 0.000000 0.000000 -1.000000
vn 0.000000 0.000000 -1.000000
vn 0.000000 0.000000 -1.000000
vn 0.810518 0.000000 -0.585713
vn 0.455116 0.000000 -0.890432
vn 0.810518 0.000000 -0.585713
vn 0.455116 0.000000 -0.890432
vn 0.000100 0.000000 -1.000000
vn 0.000100 0.000000 -1.000000
vn 0.000100 0.000000 -1.000000
vn 0.368095 0.000000 -0.929788
vn 0.000100 0.000000 -1.000000
vn 0.368095 0.000000 -0.929788
vn 0.707107 0.000000 -0.707107
vn 0.926784 0.000000 -0.375594
vn 0.926750 0.000000 -0.375680
vn 0.707107 0.000000 -0.707107
vn 0.926784 0.000000 -0.375594
vn 0.000000 0.000000 -1.000000
vn 0.000000 0.000000 -1.000000
vn 0.000000 0.000000 -1.000000
vn 0.000000 0.000000 -1.000000
vn 0.999999 -0.000000 0.001600
vn 0.951709 0.000000 -0.307003
vn 0.999999 -0.000000 0.001600
vn 0.951709 0.000000 -0.307003
vn 0.810600 0.000000 -0.585600
vn 0.810600 0.000000 -0.585600
vn 0.999999 -0.000000 0.001700
vn 0.999999 -0.000000 0.001700
vn 0.999999 -0.000000 0.001700
vn 0.999999 -0.000000 0.001700
vn 0.000000 0.000000 -1.000000
vn 0.182096 0.000000 -0.983281
vn 0.000000 0.000000 -1.000000
vn 0.182096 0.000000 -0.983281
vn 0.368389 0.000000 -0.929672
vn 0.368389 0.000000 -0.929672
vn 0.547804 0.000000 -0.836607
vn 0.547804 0.000000 -0.836607
vn 0.707706 0.000000 -0.706507
vn 0.707706 0.000000 -0.706507
vn 0.837593 0.000000 -0.546295
vn 0.837593 0.000000 -0.546295
vn 0.930266 0.000000 -0.366887
vn 0.930266 0.000000 -0.366887
vn 0.983576 0.000000 -0.180496
vn 0.983576 0.000000 -0.180496
vn 0.999999 -0.000000 0.001600
vn 0.999999 -0.000000 0.001600
vn 1.000000 0.000000 0.000000
vn 1.000000 0.000000 0.000000
vn 1.000000 0.000000 0.000000
vn 1.000000 0.000000 0.000000
vn 0.000000 -0.000000 1.000000
vn 0.000000 -0.000000 1.000000
vn 0.000000 -0.000000 1.000000
vn 0.000000 -0.000000 1.000000
vn 0.999999 -0.000000 0.001700
vn 0.999999 -0.000000 0.001700
vn 0.999999 -0.000000 0.001700
vn 0.999999 -0.000000 0.001700
vn 0.000000 0.000000 -1.000000
vn 0.000000 0.000000 -1.000000
vn 0.000000 0.000000 -1.000000
vn 0.000000 0.000000 -1.000000
vn 0.810518 0.000000 -0.585713
vn 0.810553 0.000000 -0.585666
vn 0.810518 0.000000 -0.585713
vn 0.810553 0.000000 -0.585666
vn 0.810553 0.000000 -0.585666
vn 0.810553 0.000000 -0.585666
vn 0.833585 0.000000 -0.552390
vn 0.854594 0.000000 -0.519296
vn 0.833585 0.000000 -0.552390
vn 0.854594 0.000000 -0.519296
vn 0.833585 0.000000 -0.552390
vn 0.854594 0.000000 -0.519296
vn 0.833585 0.000000 -0.552390
vn 0.833585 0.000000 -0.552390
vn 0.854594 0.000000 -0.519296
vn 0.854594 0.000000 -0.519296
vn 0.854594 0.000000 -0.519296
vn 0.854638 0.000000 -0.519224
vn 0.833585 0.000000 -0.552390
vn 0.833585 0.000000 -0.552390
vn 0.833585 0.000000 -0.552390
vn 0.854638 0.000000 -0.519224
vn -1.000000 0.000000 0.000000
vn -1.000000 0.000000 0.000000
vn -1.000000 0.000000 0.000000
vn -1.000000 0.000000 0.000000
vn 0.000000 -1.000000 -0.000000
vn 0.000000 -1.000000 -0.000000
vn 0.000000 -1.000000 -0.000000
vn 0.000000 -1.000000 -0.000000
vn 0.000000 -1.000000 -0.000000
vn 0.000000 -1.000000 -0.000000
vn 0.000000 -1.000000 -0.000000
vn 0.000000 -1.000000 -0.000000
vn 0.000000 -1.000000 -0.000000
vn 0.000000 -1.000000 -0.000000
vn 0.000000 -1.000000 -0.000000
vn 0.000000 -1.000000 -0.000000
vn 0.000000 -1.000000 -0.000000
vn 0.000000 -1.000000 -0.000000
vn 0.000000 -1.000000 -0.000000
vn 0.000000 -1.000000 -0.000000
vn 0.000000 -1.000000 -0.000000
vn 0.000000 -1.000000 -0.000000
vn 0.000000 -1.000000 -0.000000
vn 0.000000 -1.000000 -0.000000
vn 0.000000 -1.000000 -0.000000
vn 0.000000 -1.000000 -0.000000
vn 0.000000 -1.000000 -0.000000
vn 0.000000 -1.000000 -0.000000
vn 0.000000 -1.000000 -0.000000
vn 0.000000 -1.000000 -0.000000
vn 0.000000 -1.000000 -0.000000
vn 0.000000 -1.000000 -0.000000
vn 0.000000 -1.000000 -0.000000
vn 0.000000 -1.000000 -0.000000
vn 0.000000 -1.000000 -0.000000
vn 0.000000 -1.000000 -0.000000
vn 0.000000 -1.000000 -0.000000
vn 0.000000 -1.000000 -0.000000
vn 0.000000 -1.000000 -0.000000
vn 0.000000 -1.000000 -0.000000
vn 0.000000 -1.000000 -0.000000
vn 0.000000 -1.000000 -0.000000
vn 0.000000 -1.000000 -0.000000
vn 0.000000 -1.000000 -0.000000
vn 0.000000 -1.000000 -0.000000
vn 0.000000 -1.000000 -0.000000
vn 0.000000 -1.000000 -0.000000
vn 0.000000 -1.000000 -0.000000
vn 0.000000 -1.000000 -0.000000
vn 0.000000 -1.000000 -0.000000
vn 0.000000 -1.000000 -0.000000
vn 0.000000 -1.000000 -0.000000
vn 0.000000 -1.000000 -0.000000
vn 0.000000 -1.000000 -0.000000
vn 0.000000 -1.000000 -0.000000
vn 0.000000 -1.000000 -0.000000
vn 0.000000 -1.000000 -0.000000
vn 0.000000 -1.000000 -0.000000
vn 0.000000 -1.000000 -0.000000
vn 0.000000 -1.000000 -0.000000
vn 0.000000 -1.000000 -0.000000
vn 0.000000 -1.000000 -0.000000
vn 0.000000 -1.000000 -0.000000
vn 0.000000 -1.000000 -0.000000
vn 0.000000 -1.000000 -0.000000
vn 0.000000 -1.000000 -0.000000
vn 0.000000 -1.000000 -0.000000
vn 0.000000 -1.000000 -0.000000
vn 0.000000 -1.000000 -0.000000
vn 0.000000 -1.000000 -0.000000
vn 0.000000 -1.000000 -0.000000
vn 0.000000 -1.000000 -0.000000
vn 0.000000 -1.000000 -0.000000
vn 0.000000 -1.000000 -0.000000
vn 0.000000 -1.000000 -0.000000
vn 0.000000 -1.000000 -0.000000
vn 0.000000 -1.000000 -0.000000
vn 0.000000 -1.000000 -0.000000
vn 0.000000 -1.000000 -0.000000
vn 0.000000 -1.000000 -0.000000
vn 0.000000 -1.000000 -0.000000
vn 0.000000 -1.000000 -0.000000
vn 0.000000 -1.000000 -0.000000
vn 0.000000 -1.000000 -0.000000
vn 0.000000 -1.000000 -0.000000
vn 0.000000 -1.000000 -0.000000
vn 0.000000 -1.000000 -0.000000
vn 0.000000 -1.000000 -0.000000
vn 0.000000 -1.000000 -0.000000
vn 0.000000 -1.000000 -0.000000
vn 0.000000 -1.000000 -0.000000
f 1//1 3//3 2//2
f 3//3 1//1 4//4
f 1//1 5//5 4//4
f 6//6 5//5 1//1
f 7//7 6//6 1//1
f 8//8 5//5 6//6
f 8//8 6//6 10//10
f 13//13 6//6 9//9
f 6//6 11//11 10//10
f 11//11 6//6 12//12
f 12//12 6//6 13//13
f 14//14 15//15 13//13
f 15//15 12//12 13//13
f 9//9 16//16 13//13
f 16//16 9//9 17//17
f 17//17 9//9 18//18
f 9//9 19//19 18//18
f 19//19 20//20 18//18
f 20//20 19//19 21//21
f 19//19 22//22 21//21
f 23//23 22//22 19//19
f 19//19 24//24 23//23
f 25//25 24//24 19//19
f 24//24 25//25 26//26
f 25//25 27//27 26//26
f 27//27 25//25 28//28
f 29//29 28//28 25//25
f 30//30 29//29 25//25
f 31//31 29//29 30//30
f 32//32 31//31 33//33
f 33//33 31//31 30//30
f 32//32 33//33 34//34
f 34//34 35//35 39//39
f 34//34 36//36 32//32
f 34//34 37//37 36//36
f 38//38 37//37 34//34
f 34//34 39//39 38//38
f 39//39 35//35 40//40
f 41//41 40//40 35//35
f 35//35 42//42 41//41
f 35//35 43//43 42//42
f 43//43 45//45 42//42
f 42//42 45//45 44//44
f 44//44 45//45 46//46
f 46//46 47//47 51//51
f 44//44 46//46 48//48
f 49//49 48//48 46//46
f 49//49 46//46 50//50
f 46//46 51//51 50//50
f 51//51 47//47 52//52
f 53//53 52//52 47//47
f 47//47 54//54 53//53
f 47//47 55//55 54//54
f 55//55 56//56 54//54
f 55//55 57//57 56//56
f 58//58 56//56 57//57
f 59//59 58//58 57//57
f 59//59 57//57 60//60
f 57//57 61//61 60//60
f 60//60 61//61 62//62
f 63//63 60//60 62//62
f 64//64 60//60 63//63
f 67//67 64//64 65//65
f 65//65 64//64 66//66
f 63//63 66//66 64//64
f 64//64 67//67 14//14
f 67//67 15//15 14//14
f 55//55 47//47 68//68
f 47//47 69//69 68//68
f 47//47 70//70 69//69
f 70//70 71//71 72//72
f 70//70 47//47 71//71
f 8//8 10//10 72//72
f 72//72 71//71 8//8
f 75//75 73//73 30//30
f 73//73 74//74 30//30
f 25//25 75//75 30//30
f 74//74 73//73 76//76
f 77//77 74//74 76//76
f 78//78 19//19 9//9
f 3//3 4//4 79//79
f 79//79 80//80 3//3
f 2//2 3//3 81//81
f 82//82 81//81 83//83
f 82//82 87//87 81//81
f 83//83 81//81 84//84
f 85//85 84//84 81//81
f 81//81 86//86 85//85
f 81//81 87//87 2//2
f 88//88 90//90 91//91
f 88//88 91//91 89//89
f 89//89 91//91 92//92
f 89//89 92//92 93//93
f 93//93 92//92 94//94
f 93//93 94//94 95//95
f 95//95 94//94 96//96
f 95//95 96//96 98//98
f 98//98 96//96 97//97
f 98//98 97//97 99//99
f 99//99 97//97 101//101
f 99//99 101//101 100//100
f 100//100 101//101 104//104
f 100//100 104//104 102//102
f 102//102 104//104 105//105
f 102//102 105//105 103//103
f 103//103 105//105 106//106
f 103//103 106//106 107//107
f 107//107 106//106 108//108
f 107//107 108//108 109//109
f 109//109 108//108 110//110
f 109//109 110//110 111//111
f 111//111 110//110 112//112
f 111//111 112//112 114//114
f 114//114 112//112 113//113
f 114//114 113//113 115//115
f 115//115 113//113 117//117
f 115//115 117//117 116//116
f 116//116 117//117 120//120
f 116//116 120//120 118//118
f 118//118 120//120 121//121
f 118//118 121//121 119//119
f 123//123 198//198 124//124
f 123//123 124//124 122//122
f 125//125 122//122 124//124
f 126//126 125//125 124//124
f 126//126 127//127 125//125
f 128//128 127//127 126//126
f 128//128 129//129 127//127
f 130//130 129//129 128//128
f 130//130 131//131 129//129
f 132//132 131//131 130//130
f 135//135 132//132 133//133
f 132//132 134//134 133//133
f 130//130 134//134 132//132
f 136//136 132//132 135//135
f 136//136 137//137 139//139
f 136//136 139//139 138//138
f 136//136 135//135 137//137
f 138//138 139//139 141//141
f 138//138 141//141 140//140
f 140//140 141//141 143//143
f 143//143 141//141 142//142
f 143//143 142//142 145//145
f 141//141 139//139 195//195
f 141//141 195//195 142//142
f 144//144 140//140 143//143
f 144//144 143//143 145//145
f 144//144 145//145 147//147
f 146//146 145//145 142//142
f 146//146 142//142 199//199
f 145//145 146//146 149//149
f 145//145 149//149 147//147
f 159//159 144//144 147//147
f 159//159 147//147 148//148
f 151//151 148//148 147//147
f 151//151 147//147 149//149
f 151//151 149//149 150//150
f 151//151 150//150 152//152
f 149//149 146//146 180//180
f 149//149 180//180 150//150
f 153//153 151//151 152//152
f 153//153 152//152 154//154
f 148//148 151//151 153//153
f 148//148 153//153 156//156
f 155//155 153//153 154//154
f 155//155 154//154 176//176
f 155//155 157//157 156//156
f 155//155 156//156 153//153
f 158//158 159//159 148//148
f 158//158 148//148 156//156
f 160//160 158//158 156//156
f 160//160 156//156 157//157
f 158//158 161//161 159//159
f 158//158 160//160 161//161
f 159//159 161//161 140//140
f 162//162 161//161 160//160
f 164//164 163//163 162//162
f 162//162 160//160 165//165
f 162//162 165//165 164//164
f 165//165 160//160 157//157
f 165//165 157//157 166//166
f 164//164 165//165 166//166
f 164//164 166//166 168//168
f 169//169 168//168 166//166
f 169//169 166//166 167//167
f 157//157 155//155 167//167
f 157//157 167//167 166//166
f 164//164 168//168 170//170
f 169//169 171//171 170//170
f 169//169 170//170 168//168
f 170//170 163//163 164//164
f 172//172 171//171 169//169
f 173//173 172//172 174//174
f 169//169 174//174 172//172
f 169//169 167//167 175//175
f 169//169 175//175 174//174
f 173//173 174//174 175//175
f 173//173 175//175 177//177
f 167//167 155//155 176//176
f 167//167 176//176 175//175
f 177//177 175//175 176//176
f 177//177 176//176 154//154
f 177//177 154//154 178//178
f 178//178 154//154 152//152
f 152//152 179//179 178//178
f 179//179 150//150 180//180
f 180//180 181//181 179//179
f 182//182 179//179 181//181
f 152//152 150//150 179//179
f 182//182 184//184 186//186
f 182//182 186//186 183//183
f 181//181 184//184 182//182
f 199//199 185//185 184//184
f 199//199 184//184 181//181
f 185//185 187//187 186//186
f 185//185 186//186 184//184
f 183//183 186//186 188//188
f 190//190 188//188 186//186
f 190//190 186//186 187//187
f 183//183 188//188 189//189
f 183//183 189//189 123//123
f 190//190 191//191 189//189
f 190//190 189//189 188//188
f 193//193 191//191 190//190
f 193//193 190//190 192//192
f 194//194 192//192 190//190
f 194//194 190//190 187//187
f 135//135 133//133 193//193
f 135//135 193//193 192//192
f 194//194 137//137 135//135
f 194//194 135//135 192//192
f 139//139 137//137 194//194
f 139//139 194//194 195//195
f 185//185 195//195 194//194
f 185//185 194//194 187//187
f 195//195 185//185 199//199
f 195//195 199//199 142//142
f 133//133 134//134 196//196
f 133//133 196//196 193//193
f 191//191 193//193 196//196
f 191//191 196//196 197//197
f 134//134 130//130 128//128
f 134//134 128//128 196//196
f 197//197 196//196 128//128
f 197//197 128//128 126//126
f 191//191 197//197 198//198
f 191//191 198//198 189//189
f 197//197 126//126 124//124
f 197//197 124//124 198//198
f 189//189 198//198 123//123
f 146//146 199//199 181//181
f 146//146 181//181 180//180
f 140//140 144//144 159//159
f 200//200 203//203 201//201
f 201//201 202//202 200//200
f 203//203 205//205 204//204
f 201//201 203//203 204//204
f 207//207 204//204 205//205
f 205//205 206//206 207//207
f 207//207 209//209 210//210
f 207//207 210//210 204//204
f 208//208 207//207 206//206
f 207//207 208//208 211//211
f 207//207 211//211 209//209
f 209//209 212//212 219//219
f 209//209 219//219 210//210
f 211//211 213//213 209//209
f 209//209 213//213 212//212
f 214//214 213//213 215//215
f 213//213 214//214 220//220
f 213//213 220//220 212//212
f 211//211 215//215 213//213
f 215//215 216//216 214//214
f 217//217 214//214 216//216
f 219//219 217//217 218//218
f 220//220 217//217 219//219
f 214//214 217//217 220//220
f 219//219 212//212 220//220
f 210//210 219//219 221//221
f 210//210 221//221 228//228
f 219//219 222//222 221//221
f 219//219 218//218 222//222
f 224//224 223//223 222//222
f 224//224 222//222 218//218
f 221//221 222//222 223//223
f 221//221 223//223 225//225
f 226//226 223//223 224//224
f 225//225 223//223 226//226
f 227//227 225//225 226//226
f 202//202 201//201 228//228
f 202//202 228//228 227//227
f 225//225 227//227 228//228
f 204//204 210//210 228//228
f 204//204 228//228 201//201
f 228//228 221//221 225//225
f 230//230 253//253 231//231
f 230//230 231//231 229//229
f 232//232 229//229 231//231
f 232//232 231//231 234//234
f 232//232 234//234 233//233
f 236//236 233//233 234//234
f 235//235 233//233 236//236
f 237//237 236//236 234//234
f 237//237 234//234 239//239
f 238//238 236//236 237//237
f 236//236 238//238 235//235
f 241//241 240//240 238//238
f 241//241 238//238 239//239
f 237//237 239//239 238//238
f 242//242 240//240 241//241
f 243//243 240//240 242//242
f 243//243 244//244 240//240
f 243//243 245//245 244//244
f 248//248 246//246 245//245
f 248//248 245//245 243//243
f 246//246 248//248 249//249
f 246//246 249//249 247//247
f 248//248 241//241 251//251
f 248//248 251//251 249//249
f 243//243 242//242 241//241
f 243//243 241//241 248//248
f 247//247 249//249 250//250
f 250//250 249//249 251//251
f 250//250 251//251 252//252
f 251//251 241//241 252//252
f 252//252 241//241 239//239
f 252//252 239//239 230//230
f 230//230 239//239 253//253
f 239//239 234//234 231//231
f 239//239 231//231 253//253
f 255//255 254//254 256//256
f 257//257 255//255 256//256
f 257//257 256//256 258//258
f 259//259 255//255 257//257
f 257//257 260//260 259//259
f 259//259 261//261 255//255
f 263//263 273//273 264//264
f 263//263 264//264 262//262
f 265//265 262//262 264//264
f 264//264 266//266 265//265
f 267//267 265//265 266//266
f 268//268 265//265 267//267
f 267//267 269//269 268//268
f 271//271 270//270 269//269
f 269//269 267//267 271//271
f 272//272 270//270 271//271
f 271//271 267//267 266//266
f 271//271 266//266 272//272
f 274//274 272//272 273//273
f 272//272 266//266 264//264
f 272//272 264//264 273//273
f 272//272 274//274 270//270
f 276//276 274//274 275//275
f 274//274 273//273 263//263
f 276//276 277//277 274//274
f 277//277 270//270 274//274
f 278//278 270//270 277//277
f 280//280 278//278 277//277
f 280//280 277//277 279//279
f 279//279 277//277 276//276
f 279//279 276//276 281//281
f 280//280 279//279 282//282
f 282//282 279//279 281//281
f 282//282 281//281 284//284
f 282//282 283//283 280//280
f 284//284 281//281 275//275
f 283//283 285//285 280//280
f 285//285 270//270 278//278
f 278//278 280//280 285//285
f 276//276 275//275 281//281
f 286//286 287//287 289//289
f 287//287 286//286 288//288
f 292//292 289//289 287//287
f 291//291 289//289 290//290
f 290//290 289//289 292//292
f 294//294 290//290 292//292
f 294//294 292//292 293//293
f 293//293 292//292 287//287
f 293//293 287//287 296//296
f 302//302 294//294 293//293
f 302//302 293//293 295//295
f 295//295 293//293 296//296
f 295//295 296//296 299//299
f 296//296 297//297 299//299
f 296//296 298//298 297//297
f 298//298 296//296 287//287
f 298//298 287//287 288//288
f 300//300 299//299 297//297
f 301//301 295//295 299//299
f 301//301 299//299 300//300
f 301//301 303//303 302//302
f 302//302 295//295 301//301
f 303//303 304//304 302//302
f 304//304 305//305 294//294
f 302//302 304//304 294//294
f 294//294 305//305 306//306
f 294//294 306//306 290//290
f 290//290 306//306 291//291
f 308//308 307//307 309//309
f 310//310 308//308 309//309
f 309//309 311//311 310//310
f 312//312 311//311 309//309
f 313//313 315//315 314//314
f 313//313 314//314 312//312
f 311//311 312//312 314//314
f 317//317 311//311 314//314
f 317//317 314//314 315//315
f 313//313 316//316 315//315
f 315//315 316//316 318//318
f 315//315 318//318 317//317
f 317//317 318//318 322//322
f 317//317 322//322 319//319
f 319//319 320//320 311//311
f 319//319 311//311 317//317
f 319//319 321//321 320//320
f 321//321 319//319 323//323
f 322//322 323//323 319//319
f 311//311 321//321 310//310
f 311//311 320//320 321//321
f 324//324 308//308 310//310
f 326//326 325//325 327//327
f 327//327 328//328 330//330
f 326//326 327//327 329//329
f 326//326 329//329 332//332
f 327//327 330//330 331//331
f 327//327 331//331 329//329
f 336//336 334//334 333//333
f 336//336 333//333 335//335
f 334//334 336//336 337//337
f 334//334 337//337 338//338
f 340//340 342//342 339//339
f 340//340 339//339 341//341
f 343//343 342//342 340//340
f 340//340 344//344 343//343
f 344//344 345//345 343//343
f 346//346 345//345 344//344
f 346//346 344//344 347//347
f 349//349 348//348 347//347
f 344//344 349//349 347//347
f 349//349 344//344 340//340
f 349//349 340//340 352//352
f 351//351 349//349 350//350
f 350//350 349//349 352//352
f 350//350 352//352 353//353
f 348//348 349//349 351//351
f 354//354 352//352 340//340
f 354//354 340//340 341//341
f 352//352 355//355 353//353
f 352//352 354//354 355//355
f 355//355 354//354 356//356
f 356//356 357//357 355//355
f 359//359 353//353 355//355
f 359//359 355//355 357//357
f 357//357 356//356 358//358
f 361//361 359//359 357//357
f 361//361 357//357 358//358
f 359//359 360//360 350//350
f 359//359 350//350 353//353
f 360//360 359//359 361//361
f 360//360 361//361 363//363
f 362//362 361//361 358//358
f 362//362 358//358 401//401
f 362//362 364//364 363//363
f 362//362 363//363 361//361
f 365//365 366//366 360//360
f 365//365 360//360 363//363
f 367//367 365//365 363//363
f 367//367 363//363 364//364
f 368//368 366//366 365//365
f 368//368 365//365 367//367
f 348//348 351//351 366//366
f 348//348 366//366 368//368
f 367//367 369//369 368//368
f 369//369 367//367 370//370
f 373//373 371//371 369//369
f 373//373 369//369 370//370
f 374//374 371//371 372//372
f 371//371 373//373 372//372
f 374//374 375//375 376//376
f 375//375 374//374 372//372
f 377//377 374//374 376//376
f 378//378 377//377 376//376
f 378//378 379//379 377//377
f 381//381 379//379 380//380
f 379//379 378//378 380//380
f 386//386 382//382 381//381
f 386//386 381//381 383//383
f 381//381 380//380 383//383
f 386//386 383//383 384//384
f 386//386 384//384 390//390
f 385//385 375//375 384//384
f 385//385 384//384 383//383
f 383//383 380//380 385//385
f 386//386 387//387 388//388
f 386//386 390//390 391//391
f 386//386 391//391 387//387
f 386//386 388//388 389//389
f 389//389 382//382 386//386
f 390//390 392//392 395//395
f 390//390 395//395 391//391
f 394//394 392//392 390//390
f 394//394 390//390 384//384
f 392//392 394//394 404//404
f 392//392 404//404 393//393
f 392//392 393//393 397//397
f 392//392 397//397 395//395
f 395//395 396//396 391//391
f 396//396 395//395 397//397
f 396//396 397//397 398//398
f 400//400 399//399 397//397
f 400//400 397//397 393//393
f 398//398 397//397 399//399
f 398//398 399//399 402//402
f 400//400 362//362 401//401
f 400//400 401//401 399//399
f 402//402 399//399 401//401
f 402//402 401//401 358//358
f 402//402 358//358 356//356
f 364//364 362//362 400//400
f 364//364 400//400 403//403
f 404//404 403//403 400//400
f 404//404 400//400 393//393
f 370//370 367//367 364//364
f 370//370 364//364 403//403
f 370//370 403//403 404//404
f 370//370 404//404 373//373
f 372//372 373//373 404//404
f 372//372 404//404 394//394
f 406//406 396//396 405//405
f 391//391 396//396 406//406
f 406//406 387//387 391//391
f 405//405 407//407 406//406
f 388//388 387//387 406//406
f 388//388 406//406 407//407
f 407//407 405//405 408//408
f 389//389 388//388 407//407
f 389//389 407//407 408//408
f 375//375 372//372 394//394
f 375//375 394//394 384//384
f 376//376 375//375 385//385
f 378//378 376//376 385//385
f 378//378 385//385 380//380
f 366//366 351//351 350//350
f 366//366 350//350 360//360
f 410//410 412//412 411//411
f 410//410 411//411 409//409
f 410//410 413//413 412//412
f 410//410 414//414 413//413
f 415//415 416//416 414//414
f 410//410 415//415 414//414
f 418//418 417//417 419//419
f 418//418 419//419 420//420
f 421//421 418//418 420//420
f 420//420 422//422 421//421
f 425//425 424//424 422//422
f 425//425 422//422 423//423
f 422//422 424//424 421//421
f 427//427 428//428 426//426
f 429//429 428//428 427//427
f 427//427 430//430 429//429
f 427//427 431//431 430//430
f 431//431 432//432 430//430
f 433//433 432//432 431//431
f 433//433 431//431 434//434
f 435//435 434//434 431//431
f 437//437 436//436 438//438
f 437//437 438//438 439//439
f 441//441 437//437 439//439
f 441//441 439//439 440//440
f 443//443 441//441 440//440
f 443//443 440//440 442//442
f 445//445 443//443 442//442
f 445//445 442//442 444//444
f 447//447 445//445 444//444
f 447//447 444//444 446//446
f 449//449 447//447 446//446
f 449//449 446//446 448//448
f 451//451 450//450 452//452
f 451//451 452//452 453//453
f 455//455 454//454 456//456
f 455//455 456//456 457//457
f 459//459 455//455 457//457
f 459//459 457//457 458//458
f 460//460 462//462 463//463
f 460//460 463//463 461//461
f 465//465 464//464 466//466
f 465//465 466//466 467//467
f 469//469 465//465 467//467
f 469//469 467//467 468//468
f 473//473 470//470 471//471
f 473//473 471//471 474//474
f 471//471 470//470 472//472
f 473//473 474//474 475//475
f 473//473 475//475 476//476
f 473//473 476//476 477//477
f 478//478 473//473 477//477
f 478//478 477//477 479//479
f 478//478 479//479 480//480
f 484//484 482//482 481//481
f 484//484 481//481 483//483
f 486//486 488//488 487//487
f 486//486 487//487 485//485
f 490//490 489//489 488//488
f 490//490 488//488 486//486
f 492//492 491//491 493//493
f 492//492 493//493 494//494
f 498//498 492//492 494//494
f 498//498 494//494 495//495
f 496//496 497//497 495//495
f 495//495 497//497 498//498
f 497//497 499//499 498//498
f 501//501 503//503 502//502
f 501//501 502//502 500//500
f 505//505 507//507 506//506
f 505//505 506//506 504//504
f 509//509 508//508 507//507
f 509//509 507//507 505//505
f 511//511 513//513 512//512
f 511//511 512//512 510//510
f 515//515 514//514 516//516
f 515//515 516//516 517//517
f 519//519 515//515 517//517
f 519//519 517//517 518//518
f 521//521 519//519 518//518
f 521//521 518//518 520//520
f 523//523 521//521 520//520
f 523//523 520//520 522//522
f 525//525 523//523 522//522
f 525//525 522//522 524//524
f 527//527 525//525 524//524
f 527//527 524//524 526//526
f 529//529 527//527 526//526
f 529//529 526//526 528//528
f 531//531 529//529 528//528
f 531//531 528//528 530//530
f 533//533 532//532 534//534
f 533//533 534//534 535//535
f 537//537 536//536 538//538
f 537//537 538//538 539//539
f 541//541 543//543 542//542
f 541//541 542//542 540//540
f 547//547 545//545 544//544
f 547//547 544//544 546//546
f 549//549 551//551 550//550
f 549//549 550//550 548//548
f 553//553 552//552 551//551
f 553//553 551//551 549//549
f 554//554 556//556 557//557
f 554//554 557//557 555//555
f 556//556 558//558 559//559
f 556//556 559//559 557//557
f 558//558 560//560 562//562
f 558//558 562//562 559//559
f 563//563 562//562 560//560
f 563//563 560//560 561//561
f 561//561 566//566 564//564
f 561//561 564//564 563//563
f 566//566 567//567 565//565
f 566//566 565//565 564//564
f 567//567 568//568 569//569
f 567//567 569//569 565//565
f 570//570 572//572 573//573
f 570//570 573//573 571//571
f 575//575 578//578 574//574
f 574//574 576//576 575//575
f 579//579 574//574 577//577
f 574//574 578//578 577//577
f 580//580 574//574 579//579
f 581//581 583//583 579//579
f 581//581 579//579 577//577
f 586//586 582//582 579//579
f 579//579 583//583 584//584
f 584//584 585//585 579//579
f 585//585 586//586 579//579
f 589//589 586//586 587//587
f 587//587 586//586 585//585
f 582//582 586//586 588//588
f 590//590 589//589 591//591
f 591//591 589//589 587//587
f 591//591 592//592 590//590
f 592//592 593//593 590//590
f 594//594 590//590 593//593
f 594//594 595//595 596//596
f 590//590 594//594 596//596
f 597//597 596//596 598//598
f 598//598 596//596 599//599
f 596//596 595//595 599//599
f 601//601 598//598 600//600
f 602//602 600//600 598//598
f 597//597 598//598 601//601
f 602//602 603//603 605//605
f 605//605 604//604 602//602
f 602//602 604//604 600//600
f 611//611 606//606 605//605
f 605//605 607//607 604//604
f 607//607 605//605 608//608
f 610//610 608//608 605//605
f 609//609 610//610 605//605
f 605//605 612//612 611//611
f 605//605 603//603 612//612
f 611//611 613//613 606//606
f 581//581 613//613 583//583
f 613//613 581//581 606//606
f 609//609 614//614 610//610
f 615//615 614//614 609//609
f 615//615 609//609 616//616
f 617//617 616//616 609//609
f 618//618 617//617 619//619
f 617//617 609//609 619//619
f 620//620 618//618 619//619
f 621//621 618//618 620//620
f 621//621 622//622 618//618
f 622//622 621//621 623//623
f 621//621 624//624 623//623
f 625//625 624//624 621//621
f 625//625 626//626 629//629
f 626//626 625//625 627//627
f 630//630 625//625 628//628
f 625//625 629//629 628//628
f 630//630 624//624 625//625
f 626//626 627//627 631//631
f 627//627 632//632 631//631
f 631//631 632//632 633//633
f 632//632 638//638 633//633
f 632//632 634//634 636//636
f 634//634 632//632 635//635
f 637//637 632//632 636//636
f 638//638 632//632 637//637
f 633//633 638//638 639//639
f 640//640 639//639 638//638
f 638//638 641//641 640//640
f 642//642 641//641 638//638
f 638//638 643//643 642//642
f 643//643 644//644 642//642
f 644//644 643//643 647//647
f 645//645 648//648 643//643
f 643//643 646//646 645//645
f 582//582 646//646 643//643
f 643//643 648//648 647//647
f 649//649 582//582 643//643
f 650//650 646//646 582//582
f 588//588 650//650 582//582
f 651//651 634//634 635//635
f 575//575 652//652 578//578
f 652//652 575//575 653//653
f 576//576 654//654 575//575
f 654//654 576//576 655//655
f 656//656 654//654 655//655
f 656//656 657//657 654//654
f 657//657 658//658 654//654
f 659//659 654//654 658//658
f 654//654 659//659 660//660
