# arm_32 exported from /models/landings/arm_32.glb
# units: meters
v -0.004105 0.001000 -0.004163
v 0.019406 0.001000 0.015455
v 0.020824 0.001000 0.020607
v -0.003656 0.001000 -0.007787
v -0.004499 0.001000 -0.004404
v -0.004756 0.001000 -0.004452
v -0.005025 0.001000 -0.004430
v -0.005279 0.001000 -0.004337
v -0.007581 0.001000 -0.006780
v -0.007519 0.001000 -0.007054
v -0.013867 0.001000 0.009709
v -0.005748 0.001000 -0.003800
v -0.005491 0.001000 -0.004185
v -0.014642 0.001000 0.020244
v -0.014785 0.001000 0.020504
v -0.013988 0.001000 0.009935
v -0.014195 0.001000 0.010148
v -0.014488 0.001000 0.010302
v -0.018132 0.001000 0.015898
v -0.018132 0.001000 0.020898
v -0.015580 0.001000 0.020898
v -0.015009 0.001000 0.020718
v -0.015288 0.001000 0.020854
v -0.020132 0.001000 0.015898
v -0.015181 0.001000 0.010277
v -0.014837 0.001000 0.010352
v -0.015463 0.001000 0.010102
v -0.015654 0.001000 0.009875
v -0.015758 0.001000 0.009641
v -0.017634 0.001000 -0.004042
v -0.015478 0.001000 -0.013521
v -0.023132 0.001000 -0.018102
v -0.023132 0.001000 0.019898
v -0.020132 0.001000 0.020898
v -0.022132 0.001000 0.020898
v -0.023061 0.001000 0.020266
v -0.022839 0.001000 0.020605
v -0.022500 0.001000 0.020827
v -0.022132 0.001000 -0.019102
v -0.023061 0.001000 -0.018471
v -0.015213 0.001000 -0.013890
v -0.015300 0.001000 -0.019102
v -0.014751 0.001000 -0.014117
v -0.014237 0.001000 -0.014085
v -0.014591 0.001000 -0.018807
v -0.007306 0.001000 -0.011466
v -0.014916 0.001000 -0.019026
v -0.013850 0.001000 -0.013846
v -0.007811 0.001000 -0.007845
v -0.003943 0.001000 -0.008568
v -0.007641 0.001000 -0.007621
v -0.006389 0.001000 -0.011192
v -0.003884 0.001000 -0.008838
v -0.006659 0.001000 -0.011172
v -0.006914 0.001000 -0.011222
v -0.006135 0.001000 -0.011283
v -0.003177 0.001000 -0.010749
v -0.005922 0.001000 -0.011432
v -0.003005 0.001000 -0.011046
v -0.005662 0.001000 -0.011814
v -0.003129 0.001000 -0.018459
v -0.002374 0.001000 -0.011393
v 0.000868 0.001000 -0.014458
v -0.002722 0.001000 -0.011278
v 0.002868 0.001000 -0.014458
v 0.000868 0.001000 -0.015573
v -0.002031 0.001000 -0.011380
v 0.005189 0.001000 -0.008234
v 0.009868 0.001000 -0.014458
v 0.011116 0.001000 -0.003292
v 0.007868 0.001000 -0.014458
v 0.007868 0.001000 -0.015573
v 0.002868 0.001000 -0.015573
v 0.007868 0.001000 -0.019102
v 0.002868 0.001000 -0.019102
v 0.017525 0.001000 -0.004361
v 0.016866 0.001000 0.003114
v 0.021116 0.001000 0.013458
v 0.029565 0.001000 0.010456
v 0.029868 0.001000 0.011173
v 0.029789 0.001000 0.010784
v 0.029868 0.001000 0.019898
v 0.024868 0.001000 0.015898
v 0.026868 0.001000 0.015898
v 0.026868 0.001000 0.020898
v 0.028868 0.001000 0.020898
v 0.029798 0.001000 0.020266
v 0.029236 0.001000 0.020827
v 0.029575 0.001000 0.020605
v 0.021528 0.001000 0.020898
v 0.024868 0.001000 0.020898
v 0.021085 0.001000 0.014997
v 0.020977 0.001000 0.015259
v 0.021116 0.001000 0.014750
v 0.020777 0.001000 0.015501
v 0.020497 0.001000 0.015675
v 0.020175 0.001000 0.015749
v 0.019863 0.001000 0.015718
v 0.019602 0.001000 0.015608
v 0.021147 0.001000 0.020822
v 0.012921 0.001000 -0.018169
v 0.011923 0.001000 -0.019102
v 0.012833 0.001000 -0.018518
v 0.009868 0.001000 -0.019102
v 0.009868 0.001000 -0.015573
v 0.012607 0.001000 -0.018833
v 0.012278 0.001000 -0.019037
v -0.002195 0.001000 -0.019102
v 0.000868 0.001000 -0.019102
v -0.002986 0.001000 -0.018715
v -0.002762 0.001000 -0.018926
v -0.002485 0.001000 -0.019059
v -0.007538 0.001000 -0.007347
v -0.003923 0.001000 -0.008279
v -0.003822 0.001000 -0.008009
v -0.022839 0.001000 -0.018810
v -0.022500 0.001000 -0.019032
v -0.010724 0.001000 0.001464
v -0.012295 0.000500 0.005587
v -0.012295 0.001000 0.005587
v -0.010724 0.000000 0.001464
v -0.009153 0.000500 -0.002658
v -0.009153 0.001000 -0.002658
v -0.008367 0.001000 -0.004719
v -0.008367 0.000500 -0.004719
v -0.007581 0.001000 -0.006780
v -0.007581 0.000000 -0.006780
v -0.008367 0.000000 -0.004719
v -0.008367 -0.000500 -0.004719
v -0.007581 -0.001000 -0.006780
v -0.008367 -0.001000 -0.004719
v -0.009153 -0.001000 -0.002658
v -0.010724 -0.001000 0.001464
v -0.009153 -0.000500 -0.002658
v -0.009153 0.000000 -0.002658
v -0.012295 -0.000500 0.005587
v -0.012295 -0.001000 0.005587
v -0.013081 -0.001000 0.007648
v -0.013081 -0.000500 0.007648
v -0.013867 -0.001000 0.009709
v -0.013867 0.000000 0.009709
v -0.013081 0.000500 0.007648
v -0.013867 0.001000 0.009709
v -0.013081 0.000000 0.007648
v -0.012295 0.000000 0.005587
v -0.013081 0.001000 0.007648
v -0.007811 -0.001000 -0.007845
v -0.013850 -0.001000 -0.013846
v -0.007811 0.000000 -0.007845
v -0.013850 0.001000 -0.013846
v -0.007811 0.001000 -0.007845
v -0.015478 -0.001000 -0.013521
v -0.017039 -0.001000 -0.008592
v -0.016573 -0.000500 -0.010446
v -0.015478 0.000000 -0.013521
v -0.015478 0.001000 -0.013521
v -0.016573 0.000000 -0.010446
v -0.017219 0.000000 -0.007650
v -0.016573 0.000500 -0.010446
v -0.017039 0.001000 -0.008592
v -0.017219 0.000500 -0.007650
v -0.017634 0.001000 -0.004042
v -0.017576 0.001000 0.001328
v -0.017392 0.000500 0.002732
v -0.017392 0.000000 0.002732
v -0.017634 -0.001000 -0.004042
v -0.016782 -0.000250 0.005844
v -0.016782 0.000000 0.005844
v -0.017392 -0.000500 0.002732
v -0.016782 0.000250 0.005844
v -0.016782 0.000500 0.005844
v -0.016328 0.000250 0.007648
v -0.015758 0.000333 0.009641
v -0.016328 0.000000 0.007648
v -0.016328 0.000500 0.007648
v -0.016328 0.000750 0.007648
v -0.016782 0.000750 0.005844
v -0.015758 0.001000 0.009641
v -0.016328 -0.000250 0.007648
v -0.015758 -0.000333 0.009641
v -0.015758 -0.001000 0.009641
v -0.016328 -0.000500 0.007648
v -0.016782 -0.000500 0.005844
v -0.016328 -0.000750 0.007648
v -0.016782 -0.000750 0.005844
v -0.017576 -0.001000 0.001328
v -0.017219 -0.000500 -0.007650
v -0.013850 -0.001000 -0.013846
v -0.014237 -0.001000 -0.014085
v -0.013850 0.001000 -0.013846
v -0.014237 0.001000 -0.014085
v -0.014751 0.001000 -0.014117
v -0.014751 -0.001000 -0.014117
v -0.015213 0.001000 -0.013890
v -0.015478 0.001000 -0.013521
v -0.015478 0.000000 -0.013521
v -0.015213 -0.001000 -0.013890
v -0.015478 -0.001000 -0.013521
v -0.007581 0.001000 -0.006780
v -0.007519 0.001000 -0.007054
v -0.007581 0.000000 -0.006780
v -0.007519 -0.001000 -0.007054
v -0.007581 -0.001000 -0.006780
v -0.007539 0.000000 -0.007350
v -0.007538 -0.001000 -0.007347
v -0.007641 -0.001000 -0.007621
v -0.007642 0.000000 -0.007623
v -0.007811 -0.001000 -0.007845
v -0.007811 0.000000 -0.007845
v -0.007811 0.001000 -0.007845
v -0.007641 0.001000 -0.007621
v -0.007538 0.001000 -0.007347
v -0.013867 0.001000 0.009709
v -0.013867 0.000000 0.009709
v -0.013988 0.001000 0.009935
v -0.013988 -0.001000 0.009935
v -0.014195 0.001000 0.010148
v -0.014244 0.000000 0.010183
v -0.014530 0.000000 0.010315
v -0.014195 -0.001000 0.010148
v -0.014488 -0.001000 0.010302
v -0.014837 -0.001000 0.010352
v -0.014837 0.000000 0.010352
v -0.015181 -0.001000 0.010277
v -0.015141 0.000000 0.010293
v -0.015463 -0.001000 0.010102
v -0.015413 0.000000 0.010143
v -0.015654 -0.001000 0.009875
v -0.015758 -0.000333 0.009641
v -0.015626 0.000000 0.009917
v -0.015758 -0.001000 0.009641
v -0.015758 0.000333 0.009641
v -0.015654 0.001000 0.009875
v -0.015463 0.001000 0.010102
v -0.015758 0.001000 0.009641
v -0.015181 0.001000 0.010277
v -0.014837 0.001000 0.010352
v -0.014488 0.001000 0.010302
v -0.013867 -0.001000 0.009709
v 0.021116 -0.001000 0.013458
v 0.021116 0.001000 0.013458
v 0.021116 0.000000 0.014750
v 0.021116 -0.001000 0.014750
v 0.021116 0.001000 0.014750
v 0.019406 -0.001000 0.015455
v 0.019406 0.000000 0.015455
v 0.019602 -0.001000 0.015608
v 0.019602 0.001000 0.015608
v 0.019863 -0.001000 0.015718
v 0.019913 0.000000 0.015730
v 0.019863 0.001000 0.015718
v 0.020224 0.000000 0.015745
v 0.020508 0.000000 0.015670
v 0.020175 0.001000 0.015749
v 0.020175 -0.001000 0.015749
v 0.020497 -0.001000 0.015675
v 0.020777 -0.001000 0.015501
v 0.020977 -0.001000 0.015259
v 0.020759 0.000000 0.015516
v 0.020954 0.000000 0.015295
v 0.020777 0.001000 0.015501
v 0.020497 0.001000 0.015675
v 0.020977 0.001000 0.015259
v 0.021085 0.001000 0.014997
v 0.021116 0.001000 0.014750
v 0.021077 0.000000 0.015028
v 0.021085 -0.001000 0.014997
v 0.021116 0.000000 0.014750
v 0.021116 -0.001000 0.014750
v 0.019406 0.001000 0.015455
v 0.021116 0.001000 0.013458
v 0.021116 -0.001000 0.013458
v 0.019272 0.001000 0.007571
v 0.016866 0.001000 0.003114
v 0.019272 -0.001000 0.007571
v 0.016866 -0.001000 0.003114
v 0.014085 -0.001000 -0.000358
v 0.011116 -0.001000 -0.003292
v 0.014085 0.001000 -0.000358
v 0.011116 0.001000 -0.003292
v 0.008233 0.001000 -0.005896
v 0.005189 0.001000 -0.008234
v 0.008233 -0.001000 -0.005896
v 0.005189 -0.001000 -0.008234
v 0.002259 -0.000500 -0.009920
v 0.002259 0.000000 -0.009920
v 0.001821 -0.001000 -0.010122
v -0.002031 -0.001000 -0.011380
v 0.000202 -0.000500 -0.010762
v 0.000202 0.000000 -0.010762
v -0.002031 0.000000 -0.011380
v -0.002031 0.001000 -0.011380
v 0.000202 0.000500 -0.010762
v 0.001821 0.001000 -0.010122
v 0.002259 0.000500 -0.009920
v -0.003177 -0.001000 -0.010749
v -0.003531 -0.001000 -0.009794
v -0.003177 0.001000 -0.010749
v -0.003531 0.001000 -0.009794
v -0.003884 0.001000 -0.008838
v -0.003884 0.000000 -0.008838
v -0.003884 -0.001000 -0.008838
v -0.003656 0.001000 -0.007787
v -0.003656 0.000000 -0.007787
v -0.000773 0.001000 -0.004882
v -0.000773 0.000500 -0.004882
v 0.002110 0.001000 -0.001977
v 0.002110 0.000500 -0.001977
v 0.007875 0.001000 0.003834
v 0.007875 0.000000 0.003834
v 0.013641 0.000500 0.009644
v 0.013641 0.001000 0.009644
v 0.016523 0.001000 0.012549
v 0.019406 0.001000 0.015455
v 0.016523 0.000500 0.012549
v 0.019406 0.000000 0.015455
v 0.016523 0.000000 0.012549
v 0.013641 0.000000 0.009644
v 0.016523 -0.000500 0.012549
v 0.019406 -0.001000 0.015455
v 0.016523 -0.001000 0.012549
v 0.013641 -0.000500 0.009644
v 0.013641 -0.001000 0.009644
v 0.007875 -0.001000 0.003834
v 0.002110 -0.000500 -0.001977
v 0.002110 -0.001000 -0.001977
v -0.000773 -0.001000 -0.004882
v -0.000773 -0.000500 -0.004882
v -0.003656 -0.001000 -0.007787
v -0.000773 0.000000 -0.004882
v 0.002110 0.000000 -0.001977
v -0.003177 0.001000 -0.010749
v -0.003005 0.001000 -0.011046
v -0.003177 -0.001000 -0.010749
v -0.003005 -0.001000 -0.011046
v -0.002722 -0.001000 -0.011278
v -0.002722 0.001000 -0.011278
v -0.002374 -0.001000 -0.011393
v -0.002031 -0.001000 -0.011380
v -0.002031 0.000000 -0.011380
v -0.002374 0.001000 -0.011393
v -0.002031 0.001000 -0.011380
v -0.003884 0.001000 -0.008838
v -0.003943 0.001000 -0.008568
v -0.003884 0.000000 -0.008838
v -0.003943 -0.001000 -0.008568
v -0.003884 -0.001000 -0.008838
v -0.003923 0.000000 -0.008276
v -0.003923 -0.001000 -0.008279
v -0.003822 -0.001000 -0.008009
v -0.003821 0.000000 -0.008007
v -0.003656 -0.001000 -0.007787
v -0.003656 0.000000 -0.007787
v -0.003656 0.001000 -0.007787
v -0.003822 0.001000 -0.008009
v -0.003923 0.001000 -0.008279
v -0.015580 0.001000 0.020898
v -0.018132 0.001000 0.020898
v -0.015580 0.000000 0.020898
v -0.015580 -0.001000 0.020898
v -0.018132 -0.001000 0.020898
v -0.023132 -0.001000 -0.018102
v -0.023132 0.001000 -0.018102
v -0.023132 -0.001000 0.019898
v -0.023132 0.001000 0.019898
v -0.022132 0.001000 -0.019102
v -0.022500 0.001000 -0.019032
v -0.022132 -0.001000 -0.019102
v -0.022500 -0.001000 -0.019032
v -0.022839 -0.001000 -0.018810
v -0.022839 0.001000 -0.018810
v -0.023061 -0.001000 -0.018471
v -0.023061 0.001000 -0.018471
v -0.023132 -0.001000 -0.018102
v -0.023132 0.001000 -0.018102
v -0.022132 -0.001000 0.020898
v -0.022132 0.001000 0.020898
v -0.020132 -0.001000 0.020898
v -0.020132 0.001000 0.020898
v -0.022132 -0.001000 0.020898
v -0.022500 -0.001000 0.020827
v -0.022132 0.001000 0.020898
v -0.022500 0.001000 0.020827
v -0.022839 0.001000 0.020605
v -0.023061 0.001000 0.020266
v -0.022839 -0.001000 0.020605
v -0.023061 -0.001000 0.020266
v -0.023132 -0.001000 0.019898
v -0.023132 0.001000 0.019898
v -0.018132 -0.001000 0.015898
v -0.020132 -0.001000 0.015898
v -0.018132 0.001000 0.015898
v -0.020132 0.001000 0.015898
v -0.020132 -0.001000 0.015898
v -0.020132 0.001000 0.015898
v -0.020132 -0.001000 0.020898
v -0.020132 0.001000 0.020898
v -0.018132 -0.001000 0.020898
v -0.018132 0.001000 0.015898
v -0.018132 0.001000 0.020898
v -0.018132 -0.001000 0.015898
v -0.015300 -0.001000 -0.019102
v -0.015300 0.001000 -0.019102
v -0.022132 -0.001000 -0.019102
v -0.022132 0.001000 -0.019102
v 0.012921 -0.001000 -0.018169
v 0.012921 0.000000 -0.018169
v 0.013238 -0.000500 -0.015538
v 0.014294 -0.001000 -0.011391
v 0.017525 -0.001000 -0.004361
v 0.013842 0.000000 -0.012868
v 0.013842 -0.000500 -0.012868
v 0.013842 0.000500 -0.012868
v 0.013238 0.000000 -0.015538
v 0.014294 0.001000 -0.011391
v 0.017525 0.001000 -0.004361
v 0.019838 0.001000 -0.000751
v 0.019838 -0.001000 -0.000751
v 0.025458 0.000000 0.006221
v 0.022616 0.001000 0.002922
v 0.025458 0.000500 0.006221
v 0.025858 0.001000 0.006657
v 0.027439 0.000500 0.008328
v 0.029565 0.001000 0.010456
v 0.029565 0.000000 0.010456
v 0.027439 -0.000500 0.008328
v 0.027439 0.000000 0.008328
v 0.029565 -0.001000 0.010456
v 0.025858 -0.001000 0.006657
v 0.025458 -0.000500 0.006221
v 0.022616 -0.001000 0.002922
v 0.012921 0.001000 -0.018169
v 0.013238 0.000500 -0.015538
v 0.011923 -0.001000 -0.019102
v 0.012278 -0.001000 -0.019037
v 0.011923 0.001000 -0.019102
v 0.012278 0.001000 -0.019037
v 0.012607 0.001000 -0.018833
v 0.012833 0.001000 -0.018518
v 0.012607 -0.001000 -0.018833
v 0.012833 -0.001000 -0.018518
v 0.012921 -0.001000 -0.018169
v 0.012921 0.000000 -0.018169
v 0.012921 0.001000 -0.018169
v 0.028868 0.001000 0.020898
v 0.029236 0.001000 0.020827
v 0.028868 -0.001000 0.020898
v 0.029236 -0.001000 0.020827
v 0.029575 -0.001000 0.020605
v 0.029575 0.001000 0.020605
v 0.029798 -0.001000 0.020266
v 0.029798 0.001000 0.020266
v 0.029868 -0.001000 0.019898
v 0.029868 0.001000 0.019898
v 0.029868 0.001000 0.019898
v 0.029868 0.001000 0.011173
v 0.029868 -0.001000 0.019898
v 0.029868 -0.001000 0.011173
v 0.029868 0.001000 0.011173
v 0.029789 0.001000 0.010784
v 0.029868 -0.001000 0.011173
v 0.029789 -0.001000 0.010784
v 0.029565 -0.001000 0.010456
v 0.029565 0.000000 0.010456
v 0.029565 0.001000 0.010456
v 0.007868 -0.001000 -0.014458
v 0.007868 0.001000 -0.014458
v 0.007868 -0.001000 -0.015573
v 0.007868 -0.001000 -0.019102
v 0.007868 0.001000 -0.015573
v 0.007868 0.001000 -0.019102
v 0.011923 -0.001000 -0.019102
v 0.011923 0.001000 -0.019102
v 0.009868 -0.001000 -0.019102
v 0.009868 0.001000 -0.019102
v 0.009868 -0.001000 -0.014458
v 0.009868 0.001000 -0.014458
v 0.009868 -0.001000 -0.015573
v 0.009868 -0.001000 -0.019102
v 0.009868 0.001000 -0.015573
v 0.009868 0.001000 -0.019102
v 0.009868 -0.001000 -0.014458
v 0.009868 0.001000 -0.014458
v 0.007868 -0.001000 -0.014458
v 0.007868 0.001000 -0.014458
v 0.000868 -0.001000 -0.014458
v 0.000868 0.001000 -0.014458
v 0.000868 -0.001000 -0.015573
v 0.000868 0.001000 -0.015573
v 0.000868 -0.001000 -0.019102
v 0.000868 0.001000 -0.019102
v 0.007868 -0.001000 -0.019102
v 0.007868 0.001000 -0.019102
v 0.002868 -0.001000 -0.019102
v 0.002868 0.001000 -0.019102
v 0.002868 0.001000 -0.019102
v 0.002868 -0.001000 -0.019102
v 0.002868 0.001000 -0.015573
v 0.002868 0.001000 -0.014458
v 0.002868 -0.001000 -0.015573
v 0.002868 -0.001000 -0.014458
v 0.002868 -0.001000 -0.014458
v 0.002868 0.001000 -0.014458
v 0.000868 -0.001000 -0.014458
v 0.000868 0.001000 -0.014458
v 0.024868 -0.001000 0.015898
v 0.024868 -0.001000 0.020898
v 0.024868 0.001000 0.015898
v 0.024868 0.001000 0.020898
v 0.026868 0.001000 0.020898
v 0.028868 0.001000 0.020898
v 0.026868 -0.001000 0.020898
v 0.028868 -0.001000 0.020898
v 0.026868 -0.001000 0.015898
v 0.026868 -0.001000 0.020898
v 0.026868 0.001000 0.015898
v 0.026868 0.001000 0.020898
v 0.026868 -0.001000 0.015898
v 0.024868 -0.001000 0.015898
v 0.026868 0.001000 0.015898
v 0.024868 0.001000 0.015898
v -0.002195 -0.001000 -0.019102
v 0.000868 -0.001000 -0.019102
v -0.002195 0.000000 -0.019102
v 0.000868 0.001000 -0.019102
v -0.002195 0.001000 -0.019102
v 0.021528 -0.001000 0.020898
v 0.021528 0.001000 0.020898
v 0.024868 -0.001000 0.020898
v 0.024868 0.001000 0.020898
v -0.005748 0.001000 -0.003800
v -0.006859 0.000500 -0.000795
v -0.006859 0.001000 -0.000795
v -0.005748 0.000000 -0.003800
v -0.005748 -0.001000 -0.003800
v -0.006859 0.000000 -0.000795
v -0.006859 -0.000500 -0.000795
v -0.006859 -0.001000 -0.000795
v -0.007971 -0.000500 0.002211
v -0.010195 0.000000 0.008222
v -0.010195 -0.001000 0.008222
v -0.007971 -0.001000 0.002211
v -0.007971 0.000000 0.002211
v -0.007971 0.000500 0.002211
v -0.010195 0.001000 0.008222
v -0.007971 0.001000 0.002211
v -0.012419 0.000500 0.014233
v -0.012419 0.001000 0.014233
v -0.013530 0.001000 0.017239
v -0.014642 0.001000 0.020244
v -0.013530 0.000500 0.017239
v -0.013530 0.000000 0.017239
v -0.014642 0.000000 0.020244
v -0.013530 -0.000500 0.017239
v -0.014642 -0.001000 0.020244
v -0.013530 -0.001000 0.017239
v -0.012419 -0.001000 0.014233
v -0.012419 -0.000500 0.014233
v -0.012419 0.000000 0.014233
v -0.014642 -0.001000 0.020244
v -0.014785 -0.001000 0.020504
v -0.014642 0.000000 0.020244
v -0.014785 0.001000 0.020504
v -0.014642 0.001000 0.020244
v -0.015013 0.000000 0.020721
v -0.015009 0.001000 0.020718
v -0.015288 0.001000 0.020854
v -0.015580 0.001000 0.020898
v -0.015290 0.000000 0.020854
v -0.015580 0.000000 0.020898
v -0.015288 -0.001000 0.020854
v -0.015009 -0.001000 0.020718
v -0.015580 -0.001000 0.020898
v 0.020824 0.001000 0.020607
v 0.021147 0.001000 0.020822
v 0.020824 -0.001000 0.020607
v 0.021147 -0.001000 0.020822
v 0.021528 -0.001000 0.020898
v 0.021528 0.001000 0.020898
v -0.005662 0.001000 -0.011814
v -0.005662 0.000000 -0.011814
v -0.004396 0.001000 -0.015136
v -0.004396 -0.001000 -0.015136
v -0.003129 0.001000 -0.018459
v -0.003129 0.000000 -0.018459
v -0.003129 -0.001000 -0.018459
v -0.005662 -0.001000 -0.011814
v -0.011095 0.001000 -0.015284
v -0.011095 0.000000 -0.015284
v -0.009201 0.001000 -0.013375
v -0.014591 0.001000 -0.018807
v -0.014591 -0.001000 -0.018807
v -0.011095 -0.001000 -0.015284
v -0.009201 -0.001000 -0.013375
v -0.007306 -0.001000 -0.011466
v -0.009201 0.000000 -0.013375
v -0.007306 0.000000 -0.011466
v -0.007306 0.001000 -0.011466
v -0.004105 -0.001000 -0.004163
v 0.020824 -0.001000 0.020607
v -0.004105 0.000000 -0.004163
v -0.004105 0.001000 -0.004163
v 0.020824 0.001000 0.020607
v -0.003129 -0.001000 -0.018459
v -0.002986 -0.001000 -0.018715
v -0.003129 0.000000 -0.018459
v -0.002986 0.001000 -0.018715
v -0.003129 0.001000 -0.018459
v -0.002759 0.000000 -0.018928
v -0.002762 0.001000 -0.018926
v -0.002485 0.001000 -0.019059
v -0.002483 0.000000 -0.019060
v -0.002195 0.001000 -0.019102
v -0.002195 0.000000 -0.019102
v -0.002195 -0.001000 -0.019102
v -0.002485 -0.001000 -0.019059
v -0.002762 -0.001000 -0.018926
v -0.014591 0.001000 -0.018807
v -0.014916 0.001000 -0.019026
v -0.014591 -0.001000 -0.018807
v -0.014916 -0.001000 -0.019026
v -0.015300 -0.001000 -0.019102
v -0.015300 0.001000 -0.019102
v -0.005662 -0.001000 -0.011814
v -0.005922 -0.001000 -0.011432
v -0.005662 0.000000 -0.011814
v -0.006084 0.000000 -0.011312
v -0.005662 0.001000 -0.011814
v -0.005922 0.001000 -0.011432
v -0.006135 0.001000 -0.011283
v -0.006389 0.001000 -0.011192
v -0.006392 0.000000 -0.011191
v -0.006659 0.001000 -0.011172
v -0.006723 0.000000 -0.011178
v -0.006914 0.001000 -0.011222
v -0.007306 0.001000 -0.011466
v -0.007041 0.000000 -0.011274
v -0.007306 0.000000 -0.011466
v -0.006914 -0.001000 -0.011222
v -0.006659 -0.001000 -0.011172
v -0.007306 -0.001000 -0.011466
v -0.006389 -0.001000 -0.011192
v -0.006135 -0.001000 -0.011283
v -0.005748 -0.001000 -0.003800
v -0.005491 -0.001000 -0.004185
v -0.005748 0.000000 -0.003800
v -0.005330 0.000000 -0.004307
v -0.005748 0.001000 -0.003800
v -0.005491 0.001000 -0.004185
v -0.005279 0.001000 -0.004337
v -0.005025 0.001000 -0.004430
v -0.005023 0.000000 -0.004431
v -0.004756 0.001000 -0.004452
v -0.004691 0.000000 -0.004446
v -0.004499 0.001000 -0.004404
v -0.004372 0.000000 -0.004353
v -0.004105 0.001000 -0.004163
v -0.004105 0.000000 -0.004163
v -0.004105 -0.001000 -0.004163
v -0.004499 -0.001000 -0.004404
v -0.004756 -0.001000 -0.004452
v -0.005025 -0.001000 -0.004430
v -0.005279 -0.001000 -0.004337
v -0.005748 -0.001000 -0.003800
v -0.005491 -0.001000 -0.004185
v -0.007581 -0.001000 -0.006780
v -0.013867 -0.001000 0.009709
v -0.014642 -0.001000 0.020244
v -0.014195 -0.001000 0.010148
v -0.014488 -0.001000 0.010302
v -0.013988 -0.001000 0.009935
v -0.018132 -0.001000 0.015898
v -0.014785 -0.001000 0.020504
v -0.015580 -0.001000 0.020898
v -0.018132 -0.001000 0.020898
v -0.015009 -0.001000 0.020718
v -0.015288 -0.001000 0.020854
v -0.015181 -0.001000 0.010277
v -0.015463 -0.001000 0.010102
v -0.014837 -0.001000 0.010352
v -0.020132 -0.001000 0.015898
v -0.015758 -0.001000 0.009641
v -0.017634 -0.001000 -0.004042
v -0.015654 -0.001000 0.009875
v -0.020132 -0.001000 0.020898
v -0.023132 -0.001000 0.019898
v -0.023061 -0.001000 0.020266
v -0.023132 -0.001000 -0.018102
v -0.022132 -0.001000 0.020898
v -0.022839 -0.001000 0.020605
v -0.022500 -0.001000 0.020827
v -0.022132 -0.001000 -0.019102
v -0.023061 -0.001000 -0.018471
v -0.015213 -0.001000 -0.013890
v -0.015478 -0.001000 -0.013521
v -0.015300 -0.001000 -0.019102
v -0.014751 -0.001000 -0.014117
v -0.014591 -0.001000 -0.018807
v -0.014237 -0.001000 -0.014085
v -0.013850 -0.001000 -0.013846
v -0.007306 -0.001000 -0.011466
v -0.007811 -0.001000 -0.007845
v -0.007641 -0.001000 -0.007621
v -0.003943 -0.001000 -0.008568
v -0.003884 -0.001000 -0.008838
v -0.006914 -0.001000 -0.011222
v -0.006659 -0.001000 -0.011172
v -0.006389 -0.001000 -0.011192
v -0.006135 -0.001000 -0.011283
v -0.003177 -0.001000 -0.010749
v -0.005922 -0.001000 -0.011432
v -0.005662 -0.001000 -0.011814
v 0.000868 -0.001000 -0.014458
v -0.003129 -0.001000 -0.018459
v -0.002374 -0.001000 -0.011393
v -0.002722 -0.001000 -0.011278
v -0.003005 -0.001000 -0.011046
v -0.002031 -0.001000 -0.011380
v 0.005189 -0.001000 -0.008234
v 0.002868 -0.001000 -0.014458
v 0.007868 -0.001000 -0.014458
v 0.002868 -0.001000 -0.015573
v 0.007868 -0.001000 -0.019102
v 0.002868 -0.001000 -0.019102
v 0.007868 -0.001000 -0.015573
v 0.009868 -0.001000 -0.014458
v 0.011116 -0.001000 -0.003292
v 0.012921 -0.001000 -0.018169
v 0.009868 -0.001000 -0.015573
v 0.017525 -0.001000 -0.004361
v 0.016866 -0.001000 0.003114
v 0.029565 -0.001000 0.010456
v 0.029868 -0.001000 0.011173
v 0.029789 -0.001000 0.010784
v 0.021116 -0.001000 0.013458
v 0.021116 -0.001000 0.014750
v 0.024868 -0.001000 0.015898
v 0.026868 -0.001000 0.015898
v 0.021085 -0.001000 0.014997
v 0.020977 -0.001000 0.015259
v 0.020777 -0.001000 0.015501
v 0.020497 -0.001000 0.015675
v 0.020824 -0.001000 0.020607
v 0.021528 -0.001000 0.020898
v 0.024868 -0.001000 0.020898
v 0.021147 -0.001000 0.020822
v -0.004105 -0.001000 -0.004163
v 0.019406 -0.001000 0.015455
v 0.019602 -0.001000 0.015608
v 0.020175 -0.001000 0.015749
v 0.019863 -0.001000 0.015718
v -0.003656 -0.001000 -0.007787
v -0.007519 -0.001000 -0.007054
v -0.004499 -0.001000 -0.004404
v -0.003822 -0.001000 -0.008009
v -0.004756 -0.001000 -0.004452
v -0.005025 -0.001000 -0.004430
v -0.005279 -0.001000 -0.004337
v -0.003923 -0.001000 -0.008279
v -0.007538 -0.001000 -0.007347
v 0.026868 -0.001000 0.020898
v 0.029868 -0.001000 0.019898
v 0.029798 -0.001000 0.020266
v 0.028868 -0.001000 0.020898
v 0.029236 -0.001000 0.020827
v 0.029575 -0.001000 0.020605
v 0.009868 -0.001000 -0.019102
v 0.011923 -0.001000 -0.019102
v 0.012833 -0.001000 -0.018518
v 0.012607 -0.001000 -0.018833
v 0.012278 -0.001000 -0.019037
v 0.000868 -0.001000 -0.015573
v -0.002195 -0.001000 -0.019102
v -0.002986 -0.001000 -0.018715
v -0.002762 -0.001000 -0.018926
v -0.002485 -0.001000 -0.019059
v 0.000868 -0.001000 -0.019102
v -0.014916 -0.001000 -0.019026
v -0.022839 -0.001000 -0.018810
v -0.022500 -0.001000 -0.019032
vn 0.000000 1.000000 0.000000
vn 0.000000 1.000000 0.000000
vn 0.000000 1.000000 0.000000
vn 0.000000 1.000000 0.000000
vn 0.000000 1.000000 0.000000
vn 0.000000 1.000000 0.000000
vn 0.000000 1.000000 0.000000
vn 0.000000 1.000000 0.000000
vn 0.000000 1.000000 0.000000
vn 0.000000 1.000000 0.000000
vn 0.000000 1.000000 0.000000
vn 0.000000 1.000000 0.000000
vn 0.000000 1.000000 0.000000
vn 0.000000 1.000000 0.000000
vn 0.000000 1.000000 0.000000
vn 0.000000 1.000000 0.000000
vn 0.000000 1.000000 0.000000
vn 0.000000 1.000000 0.000000
vn 0.000000 1.000000 0.000000
vn 0.000000 1.000000 0.000000
vn 0.000000 1.000000 0.000000
vn 0.000000 1.000000 0.000000
vn 0.000000 1.000000 0.000000
vn 0.000000 1.000000 0.000000
vn 0.000000 1.000000 0.000000
vn 0.000000 1.000000 0.000000
vn 0.000000 1.000000 0.000000
vn 0.000000 1.000000 0.000000
vn 0.000000 1.000000 0.000000
vn 0.000000 1.000000 0.000000
vn 0.000000 1.000000 0.000000
vn 0.000000 1.000000 0.000000
vn 0.000000 1.000000 0.000000
vn 0.000000 1.000000 0.000000
vn 0.000000 1.000000 0.000000
vn 0.000000 1.000000 0.000000
vn 0.000000 1.000000 0.000000
vn 0.000000 1.000000 0.000000
vn 0.000000 1.000000 0.000000
vn 0.000000 1.000000 0.000000
vn 0.000000 1.000000 0.000000
vn 0.000000 1.000000 0.000000
vn 0.000000 1.000000 0.000000
vn 0.000000 1.000000 0.000000
vn 0.000000 1.000000 0.000000
vn 0.000000 1.000000 0.000000
vn 0.000000 1.000000 0.000000
vn 0.000000 1.000000 0.000000
vn 0.000000 1.000000 0.000000
vn 0.000000 1.000000 0.000000
vn 0.000000 1.000000 0.000000
vn 0.000000 1.000000 0.000000
vn 0.000000 1.000000 0.000000
vn 0.000000 1.000000 0.000000
vn 0.000000 1.000000 0.000000
vn 0.000000 1.000000 0.000000
vn 0.000000 1.000000 0.000000
vn 0.000000 1.000000 0.000000
vn 0.000000 1.000000 0.000000
vn 0.000000 1.000000 0.000000
vn 0.000000 1.000000 0.000000
vn 0.000000 1.000000 0.000000
vn 0.000000 1.000000 0.000000
vn 0.000000 1.000000 0.000000
vn 0.000000 1.000000 0.000000
vn 0.000000 1.000000 0.000000
vn 0.000000 1.000000 0.000000
vn 0.000000 1.000000 0.000000
vn 0.000000 1.000000 0.000000
vn 0.000000 1.000000 0.000000
vn 0.000000 1.000000 0.000000
vn 0.000000 1.000000 0.000000
vn 0.000000 1.000000 0.000000
vn 0.000000 1.000000 0.000000
vn 0.000000 1.000000 0.000000
vn 0.000000 1.000000 0.000000
vn 0.000000 1.000000 0.000000
vn 0.000000 1.000000 0.000000
vn 0.000000 1.000000 0.000000
vn 0.000000 1.000000 0.000000
vn 0.000000 1.000000 0.000000
vn 0.000000 1.000000 0.000000
vn 0.000000 1.000000 0.000000
vn 0.000000 1.000000 0.000000
vn 0.000000 1.000000 0.000000
vn 0.000000 1.000000 0.000000
vn 0.000000 1.000000 0.000000
vn 0.000000 1.000000 0.000000
vn 0.000000 1.000000 0.000000
vn 0.000000 1.000000 0.000000
vn 0.000000 1.000000 0.000000
vn 0.000000 1.000000 0.000000
vn 0.000000 1.000000 0.000000
vn 0.000000 1.000000 0.000000
vn 0.000000 1.000000 0.000000
vn 0.000000 1.000000 0.000000
vn 0.000000 1.000000 0.000000
vn 0.000000 1.000000 0.000000
vn 0.000000 1.000000 0.000000
vn 0.000000 1.000000 0.000000
vn 0.000000 1.000000 0.000000
vn 0.000000 1.000000 0.000000
vn 0.000000 1.000000 0.000000
vn 0.000000 1.000000 0.000000
vn 0.000000 1.000000 0.000000
vn 0.000000 1.000000 0.000000
vn 0.000000 1.000000 0.000000
vn 0.000000 1.000000 0.000000
vn 0.000000 1.000000 0.000000
vn 0.000000 1.000000 0.000000
vn 0.000000 1.000000 0.000000
vn 0.000000 1.000000 0.000000
vn 0.000000 1.000000 0.000000
vn 0.000000 1.000000 0.000000
vn 0.000000 1.000000 0.000000
vn 0.000000 1.000000 0.000000
vn 0.000000 1.000000 0.000000
vn -0.934409 0.000000 -0.356203
vn -0.934409 0.000000 -0.356203
vn -0.934409 0.000000 -0.356203
vn -0.934409 0.000000 -0.356203
vn -0.934409 0.000000 -0.356203
vn -0.934409 0.000000 -0.356203
vn -0.934409 0.000000 -0.356203
vn -0.934409 0.000000 -0.356203
vn -0.934409 0.000000 -0.356203
vn -0.934409 0.000000 -0.356203
vn -0.934409 0.000000 -0.356203
vn -0.934409 0.000000 -0.356203
vn -0.934409 0.000000 -0.356203
vn -0.934409 0.000000 -0.356203
vn -0.934409 0.000000 -0.356203
vn -0.934409 0.000000 -0.356203
vn -0.934409 0.000000 -0.356203
vn -0.934409 0.000000 -0.356203
vn -0.934409 0.000000 -0.356203
vn -0.934409 0.000000 -0.356203
vn -0.934409 0.000000 -0.356203
vn -0.934409 0.000000 -0.356203
vn -0.934409 0.000000 -0.356203
vn -0.934409 0.000000 -0.356203
vn -0.934409 0.000000 -0.356203
vn -0.934409 0.000000 -0.356203
vn -0.934409 0.000000 -0.356203
vn -0.934409 0.000000 -0.356203
vn -0.934409 0.000000 -0.356203
vn -0.704803 0.000000 0.709403
vn -0.704803 0.000000 0.709403
vn -0.704803 0.000000 0.709403
vn -0.704803 0.000000 0.709403
vn -0.704803 0.000000 0.709403
vn 0.923293 0.000000 0.384097
vn 0.978404 -0.000200 0.206701
vn 0.959973 0.000100 0.280092
vn 0.923257 0.000000 0.384182
vn 0.923293 0.000000 0.384097
vn 0.959973 0.000000 0.280092
vn 0.985392 0.000000 0.170299
vn 0.959946 0.000000 0.280184
vn 0.978404 0.000200 0.206701
vn 0.985392 0.000100 0.170299
vn 0.997462 0.000100 0.071197
vn 0.994259 0.000000 -0.106996
vn 0.988441 0.000100 -0.151606
vn 0.988441 0.000000 -0.151606
vn 0.997462 -0.000100 0.071197
vn 0.973757 0.000000 -0.227590
vn 0.973779 0.000000 -0.227495
vn 0.988441 -0.000100 -0.151606
vn 0.973757 0.000000 -0.227590
vn 0.973779 0.000000 -0.227495
vn 0.965633 0.000000 -0.259909
vn 0.957482 0.000000 -0.288494
vn 0.965715 0.000000 -0.259604
vn 0.965633 0.000000 -0.259909
vn 0.965633 0.000000 -0.259909
vn 0.973779 -0.000100 -0.227495
vn 0.957509 0.000000 -0.288403
vn 0.965633 0.000000 -0.259909
vn 0.957482 0.000000 -0.288494
vn 0.957482 0.000000 -0.288494
vn 0.965715 0.000000 -0.259604
vn 0.973779 0.000000 -0.227495
vn 0.965633 0.000000 -0.259909
vn 0.973779 0.000100 -0.227495
vn 0.994259 0.000100 -0.106996
vn 0.985392 -0.000100 0.170299
vn -0.704803 0.000000 0.709403
vn -0.318087 0.000000 0.948061
vn -0.704803 0.000000 0.709403
vn -0.318087 0.000000 0.948061
vn 0.195905 0.000000 0.980623
vn 0.195905 0.000000 0.980623
vn 0.657903 0.000000 0.753103
vn 0.923207 0.000000 0.384303
vn 0.923207 0.000000 0.384303
vn 0.657903 0.000000 0.753103
vn 0.923207 0.000000 0.384303
vn -0.934442 0.000000 -0.356116
vn -0.996640 0.000000 -0.081903
vn -0.934442 0.000000 -0.356116
vn -0.996640 0.000000 -0.081903
vn -0.934442 0.000000 -0.356116
vn -0.976723 0.000000 0.214505
vn -0.977507 -0.000200 0.210902
vn -0.874468 0.000100 0.485082
vn -0.873510 0.000000 0.486806
vn -0.704903 0.000100 0.709303
vn -0.704903 0.000000 0.709303
vn -0.704903 0.000000 0.709303
vn -0.874445 0.000000 0.485125
vn -0.977507 0.000200 0.210902
vn -0.934375 0.000000 -0.356291
vn -0.934375 0.000000 -0.356291
vn -0.813145 0.000000 -0.582061
vn -0.813145 0.000000 -0.582061
vn -0.606429 0.000100 -0.795138
vn -0.557006 0.000000 -0.830509
vn -0.271206 0.000000 -0.962521
vn -0.606429 0.000000 -0.795138
vn -0.312896 0.000000 -0.949787
vn 0.035799 0.000000 -0.999359
vn 0.035998 0.000000 -0.999352
vn 0.380081 0.000000 -0.924953
vn 0.340394 0.000000 -0.940283
vn 0.661684 0.000000 -0.749782
vn 0.612423 0.000000 -0.790530
vn 0.852656 0.000000 -0.522473
vn 0.957482 0.000000 -0.288494
vn 0.825423 0.000000 -0.564515
vn 0.957454 0.000000 -0.288586
vn 0.957482 0.000000 -0.288494
vn 0.852656 0.000000 -0.522473
vn 0.661684 -0.000300 -0.749782
vn 0.957454 0.000000 -0.288586
vn 0.380081 0.000000 -0.924953
vn 0.035799 0.000000 -0.999359
vn -0.312896 0.000000 -0.949787
vn -0.934375 0.000000 -0.356291
vn -1.000000 0.000000 0.000000
vn -1.000000 0.000000 0.000000
vn -1.000000 0.000000 0.000000
vn -1.000000 0.000000 0.000000
vn -1.000000 0.000000 0.000000
vn 0.709802 0.000000 -0.704402
vn 0.709702 0.000000 -0.704502
vn 0.514187 0.000000 -0.857678
vn 0.514187 0.000000 -0.857678
vn 0.252593 0.000000 -0.967573
vn 0.202708 0.000000 -0.979239
vn 0.252593 0.000000 -0.967573
vn -0.107599 0.000000 -0.994194
vn -0.392024 0.000000 -0.919955
vn -0.058998 0.000000 -0.998258
vn -0.058998 0.000000 -0.998258
vn -0.380906 0.000000 -0.924614
vn -0.661261 0.000000 -0.750156
vn -0.860819 0.000300 -0.508911
vn -0.642983 0.000000 -0.765880
vn -0.838380 0.000000 -0.545087
vn -0.661261 0.000000 -0.750156
vn -0.380906 0.000000 -0.924614
vn -0.860819 0.000000 -0.508911
vn -0.969092 0.000000 -0.246698
vn -1.000000 0.000000 -0.000100
vn -0.960811 0.000000 -0.277203
vn -0.969092 0.000000 -0.246698
vn -1.000000 0.000000 -0.000100
vn -1.000000 0.000000 -0.000100
vn 0.709802 0.000000 -0.704402
vn -0.976194 0.000000 0.216899
vn -0.976194 0.000000 0.216899
vn -0.921073 0.000000 0.389389
vn -0.828976 0.000000 0.559284
vn -0.921073 0.000000 0.389389
vn -0.828976 0.000000 0.559284
vn -0.732676 0.000000 0.680578
vn -0.683938 0.000000 0.729540
vn -0.732676 0.000000 0.680578
vn -0.683938 0.000000 0.729540
vn -0.648400 0.000000 0.761300
vn -0.559031 0.000000 0.829147
vn -0.648400 0.000000 0.761300
vn -0.559031 0.000000 0.829147
vn -0.430213 0.000000 0.902727
vn -0.430295 0.000000 0.902689
vn -0.408484 -0.000100 0.912765
vn -0.207910 0.000000 0.978148
vn -0.324915 0.000000 0.945743
vn -0.324915 0.000000 0.945743
vn -0.208006 0.000000 0.978128
vn -0.207910 0.000000 0.978148
vn -0.324915 0.000000 0.945743
vn -0.408484 0.000100 0.912765
vn -0.430213 0.000000 0.902727
vn 0.937869 0.000000 0.346989
vn 0.937869 0.000000 0.346989
vn 0.937869 0.000000 0.346989
vn 0.937869 0.000000 0.346989
vn 0.937902 0.000000 0.346901
vn 0.937902 0.000000 0.346901
vn 0.937902 0.000000 0.346901
vn 0.709802 0.000000 -0.704402
vn 0.709802 0.000000 -0.704402
vn 0.709802 0.000000 -0.704402
vn 0.709802 0.000000 -0.704402
vn 0.709802 0.000000 -0.704402
vn 0.709802 0.000000 -0.704402
vn 0.709802 0.000000 -0.704402
vn 0.709802 0.000000 -0.704402
vn 0.709802 0.000000 -0.704402
vn 0.709802 0.000000 -0.704402
vn 0.709802 0.000000 -0.704402
vn 0.709802 0.000000 -0.704402
vn 0.709802 0.000000 -0.704402
vn 0.709802 0.000000 -0.704402
vn 0.709802 0.000000 -0.704402
vn 0.709802 0.000000 -0.704402
vn 0.709802 0.000000 -0.704402
vn 0.709802 0.000000 -0.704402
vn 0.709802 0.000000 -0.704402
vn 0.709802 0.000000 -0.704402
vn 0.709802 0.000000 -0.704402
vn 0.709802 0.000000 -0.704402
vn 0.709802 0.000000 -0.704402
vn 0.709802 0.000000 -0.704402
vn 0.709802 0.000000 -0.704402
vn 0.709802 0.000000 -0.704402
vn 0.709802 0.000000 -0.704402
vn 0.709802 0.000000 -0.704402
vn 0.709802 0.000000 -0.704402
vn 0.937869 0.000000 0.346989
vn 0.765427 0.000000 0.643523
vn 0.937869 0.000000 0.346989
vn 0.765427 0.000000 0.643523
vn 0.482498 0.000000 0.875897
vn 0.482498 0.000000 0.875897
vn 0.134895 0.000000 0.990860
vn -0.207794 0.000000 0.978173
vn -0.207794 0.000000 0.978173
vn 0.134895 0.000000 0.990860
vn -0.207794 0.000000 0.978173
vn 0.937902 0.000000 0.346901
vn 0.997100 0.000100 0.076100
vn 0.937902 0.000000 0.346901
vn 0.997100 0.000000 0.076100
vn 0.937902 0.000000 0.346901
vn 0.976483 0.000000 -0.215596
vn 0.977271 0.000000 -0.211994
vn 0.875962 0.000000 -0.482379
vn 0.875010 0.000000 -0.484105
vn 0.709901 0.000100 -0.704301
vn 0.709901 0.000000 -0.704301
vn 0.709901 0.000000 -0.704301
vn 0.875962 0.000000 -0.482379
vn 0.977204 0.000200 -0.212301
vn 0.000000 0.000000 1.000000
vn 0.000000 0.000000 1.000000
vn 0.000000 0.000000 1.000000
vn 0.000000 0.000000 1.000000
vn 0.000000 0.000000 1.000000
vn -1.000000 0.000000 0.000000
vn -1.000000 0.000000 0.000000
vn -1.000000 0.000000 0.000000
vn -1.000000 0.000000 0.000000
vn -0.000100 0.000000 -1.000000
vn -0.368095 0.000000 -0.929788
vn -0.000100 0.000100 -1.000000
vn -0.368095 0.000000 -0.929788
vn -0.707107 0.000000 -0.707107
vn -0.707107 0.000000 -0.707107
vn -0.929788 0.000000 -0.368095
vn -0.929788 0.000000 -0.368095
vn -1.000000 0.000000 -0.000100
vn -1.000000 -0.000100 -0.000100
vn 0.000000 0.000000 1.000000
vn 0.000000 0.000000 1.000000
vn 0.000000 0.000000 1.000000
vn 0.000000 0.000000 1.000000
vn -0.000100 0.000000 1.000000
vn -0.368095 0.000000 0.929788
vn -0.000100 0.000000 1.000000
vn -0.368095 0.000000 0.929788
vn -0.707107 0.000000 0.707107
vn -0.929788 0.000000 0.368095
vn -0.707107 0.000000 0.707107
vn -0.929788 0.000000 0.368095
vn -1.000000 0.000000 0.000100
vn -1.000000 0.000000 0.000100
vn 0.000000 0.000000 1.000000
vn 0.000000 0.000000 1.000000
vn 0.000000 0.000000 1.000000
vn 0.000000 0.000000 1.000000
vn 1.000000 0.000000 0.000000
vn 1.000000 0.000000 0.000000
vn 1.000000 0.000000 0.000000
vn 1.000000 0.000000 0.000000
vn -1.000000 0.000000 0.000000
vn -1.000000 0.000000 0.000000
vn -1.000000 0.000000 0.000000
vn -1.000000 0.000000 0.000000
vn 0.000000 0.000000 -1.000000
vn 0.000000 0.000000 -1.000000
vn 0.000000 0.000000 -1.000000
vn 0.000000 0.000000 -1.000000
vn 0.997786 0.000000 -0.066499
vn 0.997786 0.000000 -0.066499
vn 0.985235 0.000100 -0.171206
vn 0.948653 -0.000100 -0.316318
vn 0.864471 0.000000 -0.502683
vn 0.963528 0.000000 -0.267608
vn 0.963528 0.000200 -0.267608
vn 0.963528 -0.000100 -0.267608
vn 0.985272 0.000000 -0.170995
vn 0.948653 0.000100 -0.316318
vn 0.864471 0.000000 -0.502683
vn 0.819617 0.000000 -0.572912
vn 0.819617 0.000000 -0.572912
vn 0.739669 0.000000 -0.672971
vn 0.776056 0.000200 -0.630664
vn 0.739669 -0.000100 -0.672971
vn 0.734984 0.000000 -0.678085
vn 0.717873 0.000000 -0.696174
vn 0.697087 0.000000 -0.716987
vn 0.697087 0.000000 -0.716987
vn 0.717873 0.000000 -0.696174
vn 0.717726 0.000000 -0.696325
vn 0.697087 0.000000 -0.716987
vn 0.735033 0.000000 -0.678031
vn 0.739669 0.000100 -0.672971
vn 0.776105 -0.000100 -0.630604
vn 0.997786 0.000000 -0.066499
vn 0.985235 -0.000100 -0.171206
vn 0.000100 0.000000 -1.000000
vn 0.354398 0.000000 -0.935095
vn 0.000100 0.000000 -1.000000
vn 0.354398 0.000000 -0.935095
vn 0.683216 0.000000 -0.730217
vn 0.909464 0.000000 -0.415783
vn 0.683216 0.000000 -0.730217
vn 0.909464 0.000000 -0.415783
vn 0.997786 0.000000 -0.066499
vn 0.997786 0.000000 -0.066499
vn 0.997786 0.000000 -0.066499
vn 0.000100 0.000000 1.000000
vn 0.368095 0.000000 0.929788
vn 0.000100 0.000000 1.000000
vn 0.368095 0.000000 0.929788
vn 0.707107 0.000000 0.707107
vn 0.707107 0.000000 0.707107
vn 0.929788 0.000000 0.368095
vn 0.929788 0.000000 0.368095
vn 1.000000 0.000000 0.000100
vn 1.000000 0.000000 0.000100
vn 1.000000 0.000000 0.000000
vn 1.000000 0.000000 0.000000
vn 1.000000 0.000000 0.000000
vn 1.000000 0.000000 0.000000
vn 1.000000 0.000000 -0.000100
vn 0.921145 0.000000 -0.389219
vn 1.000000 0.000000 -0.000100
vn 0.921145 0.000000 -0.389219
vn 0.697137 0.000000 -0.716938
vn 0.697137 0.000000 -0.716938
vn 0.697137 0.000000 -0.716938
vn 1.000000 0.000000 0.000000
vn 1.000000 0.000000 0.000000
vn 1.000000 0.000000 0.000000
vn 1.000000 0.000000 0.000000
vn 1.000000 0.000000 0.000000
vn 1.000000 0.000000 0.000000
vn 0.000000 0.000000 -1.000000
vn 0.000000 0.000000 -1.000000
vn 0.000000 0.000000 -1.000000
vn 0.000000 0.000000 -1.000000
vn -1.000000 0.000000 0.000000
vn -1.000000 0.000000 0.000000
vn -1.000000 0.000000 0.000000
vn -1.000000 0.000000 0.000000
vn -1.000000 0.000000 0.000000
vn -1.000000 0.000000 0.000000
vn 0.000000 0.000000 -1.000000
vn 0.000000 0.000000 -1.000000
vn 0.000000 0.000000 -1.000000
vn 0.000000 0.000000 -1.000000
vn 1.000000 0.000000 0.000000
vn 1.000000 0.000000 0.000000
vn 1.000000 0.000000 0.000000
vn 1.000000 0.000000 0.000000
vn 1.000000 0.000000 0.000000
vn 1.000000 0.000000 0.000000
vn 0.000000 0.000000 -1.000000
vn 0.000000 0.000000 -1.000000
vn 0.000000 0.000000 -1.000000
vn 0.000000 0.000000 -1.000000
vn -1.000000 0.000000 0.000000
vn -1.000000 0.000000 0.000000
vn -1.000000 0.000000 0.000000
vn -1.000000 0.000000 0.000000
vn -1.000000 0.000000 0.000000
vn -1.000000 0.000000 0.000000
vn 0.000000 0.000000 -1.000000
vn 0.000000 0.000000 -1.000000
vn 0.000000 0.000000 -1.000000
vn 0.000000 0.000000 -1.000000
vn 1.000000 0.000000 0.000000
vn 1.000000 0.000000 0.000000
vn 1.000000 0.000000 0.000000
vn 1.000000 0.000000 0.000000
vn 0.000000 0.000000 1.000000
vn 0.000000 0.000000 1.000000
vn 0.000000 0.000000 1.000000
vn 0.000000 0.000000 1.000000
vn -1.000000 0.000000 0.000000
vn -1.000000 0.000000 0.000000
vn -1.000000 0.000000 0.000000
vn -1.000000 0.000000 0.000000
vn 0.000000 0.000000 1.000000
vn 0.000000 0.000000 1.000000
vn 0.000000 0.000000 1.000000
vn 0.000000 0.000000 1.000000
vn 0.000000 0.000000 -1.000000
vn 0.000000 0.000000 -1.000000
vn 0.000000 0.000000 -1.000000
vn 0.000000 0.000000 -1.000000
vn 0.000000 0.000000 -1.000000
vn 0.000000 0.000000 1.000000
vn 0.000000 0.000000 1.000000
vn 0.000000 0.000000 1.000000
vn 0.000000 0.000000 1.000000
vn 0.937869 0.000000 0.346989
vn 0.937902 0.000000 0.346901
vn 0.937902 0.000000 0.346901
vn 0.937869 0.000000 0.346989
vn 0.937869 0.000000 0.346989
vn 0.937902 0.000000 0.346901
vn 0.937902 0.000000 0.346901
vn 0.937902 0.000000 0.346901
vn 0.937902 0.000000 0.346901
vn 0.937902 0.000000 0.346901
vn 0.937902 0.000000 0.346901
vn 0.937902 0.000000 0.346901
vn 0.937902 0.000000 0.346901
vn 0.937902 0.000000 0.346901
vn 0.937902 0.000000 0.346901
vn 0.937902 0.000000 0.346901
vn 0.937902 0.000000 0.346901
vn 0.937902 0.000000 0.346901
vn 0.937902 0.000000 0.346901
vn 0.937869 0.000000 0.346989
vn 0.937902 0.000000 0.346901
vn 0.937902 0.000000 0.346901
vn 0.937869 0.000000 0.346989
vn 0.937902 0.000000 0.346901
vn 0.937869 0.000000 0.346989
vn 0.937902 0.000000 0.346901
vn 0.937902 0.000000 0.346901
vn 0.937902 0.000000 0.346901
vn 0.937902 0.000000 0.346901
vn 0.937902 0.000000 0.346901
vn 0.795393 0.000000 0.606094
vn 0.937869 0.000000 0.346989
vn 0.795393 0.000000 0.606094
vn 0.937902 0.000000 0.346901
vn 0.567602 0.000000 0.823303
vn 0.571501 0.000000 0.820601
vn 0.292610 0.000000 0.956232
vn 0.000100 0.000000 1.000000
vn 0.290401 0.000000 0.956905
vn 0.000100 0.000000 1.000000
vn 0.292610 0.000000 0.956232
vn 0.571091 0.000300 0.820887
vn 0.000100 0.000000 1.000000
vn -0.704803 0.000000 0.709403
vn -0.381197 0.000000 0.924494
vn -0.704803 0.000000 0.709403
vn -0.381197 0.000000 0.924494
vn -0.000100 0.000000 1.000000
vn -0.000100 0.000000 1.000000
vn -0.934409 0.000000 -0.356203
vn -0.934409 0.000000 -0.356203
vn -0.934409 0.000000 -0.356203
vn -0.934409 0.000000 -0.356203
vn -0.934409 0.000000 -0.356203
vn -0.934409 0.000000 -0.356203
vn -0.934409 0.000000 -0.356203
vn -0.934409 0.000000 -0.356203
vn 0.709802 0.000000 -0.704402
vn 0.709802 0.000000 -0.704402
vn 0.709802 0.000000 -0.704402
vn 0.709802 0.000000 -0.704402
vn 0.709802 0.000000 -0.704402
vn 0.709802 0.000000 -0.704402
vn 0.709802 0.000000 -0.704402
vn 0.709802 0.000000 -0.704402
vn 0.709802 0.000000 -0.704402
vn 0.709802 0.000000 -0.704402
vn 0.709802 0.000000 -0.704402
vn -0.704803 0.000000 0.709403
vn -0.704803 0.000000 0.709403
vn -0.704803 0.000000 0.709403
vn -0.704803 0.000000 0.709403
vn -0.704803 0.000000 0.709403
vn -0.934375 0.000000 -0.356291
vn -0.790702 0.000000 -0.612201
vn -0.934375 0.000000 -0.356291
vn -0.790702 0.000000 -0.612201
vn -0.934375 0.000000 -0.356291
vn -0.563691 0.000000 -0.825986
vn -0.567305 -0.000100 -0.823508
vn -0.290401 0.000000 -0.956905
vn -0.288283 0.000000 -0.957545
vn -0.000100 0.000000 -1.000000
vn -0.000100 0.000000 -1.000000
vn -0.000100 0.000000 -1.000000
vn -0.290401 0.000000 -0.956905
vn -0.567373 0.000000 -0.823461
vn 0.709802 0.000000 -0.704402
vn 0.384509 0.000000 -0.923121
vn 0.709802 0.000000 -0.704402
vn 0.384509 0.000000 -0.923121
vn 0.000100 0.000000 -1.000000
vn 0.000100 -0.000100 -1.000000
vn -0.934375 0.000000 -0.356291
vn -0.674905 0.000000 -0.737905
vn -0.934375 0.000000 -0.356291
vn -0.513113 0.000000 -0.858321
vn -0.934375 0.000000 -0.356291
vn -0.674905 0.000000 -0.737905
vn -0.461397 0.000000 -0.887194
vn -0.207104 0.000000 -0.978319
vn -0.204705 0.000000 -0.978824
vn 0.062098 0.000000 -0.998070
vn 0.126594 0.000000 -0.991955
vn 0.317787 0.000000 -0.948162
vn 0.709802 0.000000 -0.704402
vn 0.444091 0.000000 -0.895982
vn 0.709802 0.000000 -0.704402
vn 0.317787 0.000000 -0.948162
vn 0.062198 0.000000 -0.998064
vn 0.709802 0.000000 -0.704402
vn -0.207104 0.000000 -0.978319
vn -0.461397 0.000000 -0.887194
vn 0.937857 0.000000 0.347021
vn 0.681716 0.000000 0.731617
vn 0.937857 0.000000 0.347021
vn 0.520718 0.000000 0.853729
vn 0.937857 0.000000 0.347021
vn 0.681716 0.000000 0.731617
vn 0.469197 0.000100 0.883094
vn 0.215405 0.000000 0.976525
vn 0.212990 0.000000 0.977054
vn -0.054102 0.000000 0.998535
vn -0.118704 0.000000 0.992930
vn -0.310612 0.000000 0.950537
vn -0.437426 0.000000 0.899254
vn -0.704803 0.000000 0.709403
vn -0.704803 0.000000 0.709403
vn -0.704803 0.000000 0.709403
vn -0.310582 0.000000 0.950546
vn -0.054102 0.000000 0.998535
vn 0.215405 0.000000 0.976525
vn 0.469394 0.000100 0.882989
vn 0.000000 -1.000000 0.000000
vn 0.000000 -1.000000 0.000000
vn 0.000000 -1.000000 0.000000
vn 0.000000 -1.000000 0.000000
vn 0.000000 -1.000000 0.000000
vn 0.000000 -1.000000 0.000000
vn 0.000000 -1.000000 0.000000
vn 0.000000 -1.000000 0.000000
vn 0.000000 -1.000000 0.000000
vn 0.000000 -1.000000 0.000000
vn 0.000000 -1.000000 0.000000
vn 0.000000 -1.000000 0.000000
vn 0.000000 -1.000000 0.000000
vn 0.000000 -1.000000 0.000000
vn 0.000000 -1.000000 0.000000
vn 0.000000 -1.000000 0.000000
vn 0.000000 -1.000000 0.000000
vn 0.000000 -1.000000 0.000000
vn 0.000000 -1.000000 0.000000
vn 0.000000 -1.000000 0.000000
vn 0.000000 -1.000000 0.000000
vn 0.000000 -1.000000 0.000000
vn 0.000000 -1.000000 0.000000
vn 0.000000 -1.000000 0.000000
vn 0.000000 -1.000000 0.000000
vn 0.000000 -1.000000 0.000000
vn 0.000000 -1.000000 0.000000
vn 0.000000 -1.000000 0.000000
vn 0.000000 -1.000000 0.000000
vn 0.000000 -1.000000 0.000000
vn 0.000000 -1.000000 0.000000
vn 0.000000 -1.000000 0.000000
vn 0.000000 -1.000000 0.000000
vn 0.000000 -1.000000 0.000000
vn 0.000000 -1.000000 0.000000
vn 0.000000 -1.000000 0.000000
vn 0.000000 -1.000000 0.000000
vn 0.000000 -1.000000 0.000000
vn 0.000000 -1.000000 0.000000
vn 0.000000 -1.000000 0.000000
vn 0.000000 -1.000000 0.000000
vn 0.000000 -1.000000 0.000000
vn 0.000000 -1.000000 0.000000
vn 0.000000 -1.000000 0.000000
vn 0.000000 -1.000000 0.000000
vn 0.000000 -1.000000 0.000000
vn 0.000000 -1.000000 0.000000
vn 0.000000 -1.000000 0.000000
vn 0.000000 -1.000000 0.000000
vn 0.000000 -1.000000 0.000000
vn 0.000000 -1.000000 0.000000
vn 0.000000 -1.000000 0.000000
vn 0.000000 -1.000000 0.000000
vn 0.000000 -1.000000 0.000000
vn 0.000000 -1.000000 0.000000
vn 0.000000 -1.000000 0.000000
vn 0.000000 -1.000000 0.000000
vn 0.000000 -1.000000 0.000000
vn 0.000000 -1.000000 0.000000
vn 0.000000 -1.000000 0.000000
vn 0.000000 -1.000000 0.000000
vn 0.000000 -1.000000 0.000000
vn 0.000000 -1.000000 0.000000
vn 0.000000 -1.000000 0.000000
vn 0.000000 -1.000000 0.000000
vn 0.000000 -1.000000 0.000000
vn 0.000000 -1.000000 0.000000
vn 0.000000 -1.000000 0.000000
vn 0.000000 -1.000000 0.000000
vn 0.000000 -1.000000 0.000000
vn 0.000000 -1.000000 0.000000
vn 0.000000 -1.000000 0.000000
vn 0.000000 -1.000000 0.000000
vn 0.000000 -1.000000 0.000000
vn 0.000000 -1.000000 0.000000
vn 0.000000 -1.000000 0.000000
vn 0.000000 -1.000000 0.000000
vn 0.000000 -1.000000 0.000000
vn 0.000000 -1.000000 0.000000
vn 0.000000 -1.000000 0.000000
vn 0.000000 -1.000000 0.000000
vn 0.000000 -1.000000 0.000000
vn 0.000000 -1.000000 0.000000
vn 0.000000 -1.000000 0.000000
vn 0.000000 -1.000000 0.000000
vn 0.000000 -1.000000 0.000000
vn 0.000000 -1.000000 0.000000
vn 0.000000 -1.000000 0.000000
vn 0.000000 -1.000000 0.000000
vn 0.000000 -1.000000 0.000000
vn 0.000000 -1.000000 0.000000
vn 0.000000 -1.000000 0.000000
vn 0.000000 -1.000000 0.000000
vn 0.000000 -1.000000 0.000000
vn 0.000000 -1.000000 0.000000
vn 0.000000 -1.000000 0.000000
vn 0.000000 -1.000000 0.000000
vn 0.000000 -1.000000 0.000000
vn 0.000000 -1.000000 0.000000
vn 0.000000 -1.000000 0.000000
vn 0.000000 -1.000000 0.000000
vn 0.000000 -1.000000 0.000000
vn 0.000000 -1.000000 0.000000
vn 0.000000 -1.000000 0.000000
vn 0.000000 -1.000000 0.000000
vn 0.000000 -1.000000 0.000000
vn 0.000000 -1.000000 0.000000
vn 0.000000 -1.000000 0.000000
vn 0.000000 -1.000000 0.000000
vn 0.000000 -1.000000 0.000000
vn 0.000000 -1.000000 0.000000
vn 0.000000 -1.000000 0.000000
vn 0.000000 -1.000000 0.000000
vn 0.000000 -1.000000 0.000000
vn 0.000000 -1.000000 0.000000
vn 0.000000 -1.000000 0.000000
vn 0.000000 -1.000000 0.000000
f 2//2 4//4 1//1
f 1//1 3//3 2//2
f 5//5 1//1 4//4
f 4//4 6//6 5//5
f 7//7 6//6 4//4
f 7//7 9//9 8//8
f 4//4 9//9 7//7
f 9//9 4//4 10//10
f 11//11 12//12 9//9
f 12//12 13//13 9//9
f 13//13 8//8 9//9
f 11//11 14//14 12//12
f 15//15 14//14 21//21
f 14//14 11//11 16//16
f 14//14 16//16 17//17
f 17//17 18//18 14//14
f 18//18 19//19 14//14
f 20//20 14//14 19//19
f 14//14 20//20 21//21
f 21//21 22//22 15//15
f 22//22 21//21 23//23
f 19//19 27//27 24//24
f 19//19 18//18 26//26
f 27//27 19//19 25//25
f 25//25 19//19 26//26
f 24//24 27//27 28//28
f 24//24 28//28 29//29
f 30//30 24//24 29//29
f 31//31 32//32 30//30
f 30//30 33//33 24//24
f 33//33 30//30 32//32
f 33//33 34//34 24//24
f 33//33 35//35 34//34
f 36//36 35//35 33//33
f 35//35 36//36 37//37
f 37//37 38//38 35//35
f 39//39 32//32 41//41
f 39//39 40//40 32//32
f 32//32 31//31 41//41
f 43//43 42//42 41//41
f 41//41 42//42 39//39
f 42//42 43//43 45//45
f 45//45 43//43 44//44
f 46//46 45//45 48//48
f 42//42 45//45 47//47
f 45//45 44//44 48//48
f 48//48 49//49 46//46
f 49//49 51//51 50//50
f 53//53 49//49 50//50
f 54//54 49//49 52//52
f 49//49 53//53 52//52
f 55//55 49//49 54//54
f 46//46 49//49 55//55
f 53//53 56//56 52//52
f 57//57 56//56 53//53
f 60//60 58//58 57//57
f 58//58 56//56 57//57
f 60//60 57//57 59//59
f 61//61 60//60 63//63
f 60//60 64//64 62//62
f 62//62 63//63 60//60
f 59//59 64//64 60//60
f 67//67 65//65 63//63
f 63//63 66//66 61//61
f 63//63 62//62 67//67
f 65//65 67//67 68//68
f 68//68 70//70 69//69
f 69//69 71//71 68//68
f 71//71 65//65 68//68
f 71//71 72//72 73//73
f 71//71 73//73 65//65
f 75//75 73//73 72//72
f 75//75 72//72 74//74
f 76//76 69//69 70//70
f 76//76 70//70 77//77
f 77//77 79//79 76//76
f 79//79 77//77 78//78
f 79//79 80//80 81//81
f 78//78 80//80 79//79
f 80//80 84//84 82//82
f 83//83 84//84 80//80
f 83//83 80//80 78//78
f 85//85 82//82 84//84
f 82//82 85//85 86//86
f 86//86 87//87 82//82
f 86//86 89//89 87//87
f 88//88 89//89 86//86
f 96//96 3//3 83//83
f 3//3 90//90 83//83
f 90//90 91//91 83//83
f 83//83 78//78 94//94
f 94//94 92//92 83//83
f 92//92 93//93 83//83
f 95//95 83//83 93//93
f 95//95 96//96 83//83
f 97//97 3//3 96//96
f 3//3 97//97 98//98
f 98//98 99//99 3//3
f 3//3 99//99 2//2
f 90//90 3//3 100//100
f 69//69 76//76 101//101
f 104//104 101//101 102//102
f 101//101 103//103 102//102
f 105//105 101//101 104//104
f 69//69 101//101 105//105
f 106//106 102//102 103//103
f 107//107 102//102 106//106
f 61//61 66//66 108//108
f 66//66 109//109 108//108
f 110//110 61//61 108//108
f 108//108 111//111 110//110
f 111//111 108//108 112//112
f 50//50 51//51 114//114
f 51//51 113//113 114//114
f 113//113 115//115 114//114
f 4//4 115//115 10//10
f 10//10 115//115 113//113
f 39//39 116//116 40//40
f 116//116 39//39 117//117
f 118//118 121//121 119//119
f 119//119 120//120 118//118
f 121//121 118//118 122//122
f 118//118 123//123 122//122
f 125//125 122//122 123//123
f 125//125 123//123 124//124
f 126//126 125//125 124//124
f 126//126 127//127 128//128
f 126//126 128//128 125//125
f 127//127 129//129 128//128
f 129//129 127//127 130//130
f 130//130 131//131 129//129
f 131//131 132//132 134//134
f 131//131 134//134 129//129
f 134//134 132//132 133//133
f 121//121 135//135 134//134
f 129//129 134//134 135//135
f 129//129 135//135 128//128
f 133//133 121//121 134//134
f 128//128 135//135 122//122
f 128//128 122//122 125//125
f 122//122 135//135 121//121
f 121//121 133//133 136//136
f 133//133 137//137 136//136
f 137//137 138//138 139//139
f 137//137 139//139 136//136
f 140//140 139//139 138//138
f 140//140 141//141 139//139
f 144//144 141//141 142//142
f 142//142 141//141 143//143
f 144//144 139//139 141//141
f 136//136 139//139 144//144
f 136//136 144//144 145//145
f 145//145 144//144 142//142
f 145//145 142//142 119//119
f 121//121 145//145 119//119
f 136//136 145//145 121//121
f 143//143 146//146 142//142
f 119//119 142//142 146//146
f 119//119 146//146 120//120
f 147//147 149//149 148//148
f 150//150 148//148 149//149
f 150//150 149//149 151//151
f 152//152 154//154 153//153
f 155//155 154//154 152//152
f 156//156 159//159 157//157
f 156//156 157//157 155//155
f 154//154 155//155 157//157
f 157//157 159//159 161//161
f 157//157 161//161 158//158
f 154//154 157//157 158//158
f 154//154 158//158 187//187
f 159//159 156//156 160//160
f 160//160 161//161 159//159
f 161//161 162//162 158//158
f 161//161 160//160 162//162
f 163//163 164//164 162//162
f 164//164 165//165 162//162
f 165//165 158//158 162//162
f 169//169 166//166 165//165
f 166//166 158//158 165//165
f 165//165 167//167 169//169
f 167//167 165//165 168//168
f 165//165 170//170 168//168
f 164//164 170//170 165//165
f 170//170 164//164 171//171
f 168//168 170//170 172//172
f 168//168 172//172 174//174
f 170//170 171//171 175//175
f 170//170 175//175 172//172
f 174//174 172//172 173//173
f 172//172 175//175 173//173
f 173//173 175//175 176//176
f 173//173 176//176 178//178
f 171//171 177//177 176//176
f 171//171 176//176 175//175
f 177//177 178//178 176//176
f 163//163 178//178 177//177
f 163//163 177//177 164//164
f 164//164 177//177 171//171
f 173//173 180//180 174//174
f 180//180 179//179 174//174
f 167//167 168//168 174//174
f 167//167 174//174 179//179
f 181//181 184//184 182//182
f 181//181 182//182 180//180
f 182//182 179//179 180//180
f 183//183 167//167 179//179
f 183//183 179//179 182//182
f 185//185 183//183 182//182
f 185//185 182//182 184//184
f 181//181 185//185 184//184
f 185//185 186//186 169//169
f 186//186 185//185 181//181
f 169//169 183//183 185//185
f 169//169 186//186 166//166
f 169//169 167//167 183//183
f 166//166 187//187 158//158
f 166//166 153//153 187//187
f 154//154 187//187 153//153
f 189//189 188//188 190//190
f 189//189 190//190 191//191
f 193//193 189//189 191//191
f 193//193 191//191 192//192
f 197//197 193//193 192//192
f 197//197 192//192 194//194
f 195//195 196//196 194//194
f 194//194 196//196 197//197
f 196//196 198//198 197//197
f 200//200 201//201 199//199
f 202//202 201//201 200//200
f 203//203 201//201 202//202
f 202//202 200//200 204//204
f 202//202 204//204 205//205
f 205//205 204//204 207//207
f 205//205 207//207 206//206
f 209//209 208//208 206//206
f 209//209 206//206 207//207
f 210//210 209//209 207//207
f 210//210 207//207 211//211
f 211//211 207//207 204//204
f 211//211 204//204 212//212
f 204//204 200//200 212//212
f 214//214 215//215 213//213
f 214//214 216//216 215//215
f 215//215 216//216 218//218
f 218//218 217//217 215//215
f 219//219 218//218 220//220
f 219//219 220//220 221//221
f 238//238 217//217 218//218
f 238//238 218//218 219//219
f 220//220 218//218 216//216
f 223//223 219//219 221//221
f 223//223 221//221 222//222
f 225//225 223//223 222//222
f 225//225 222//222 224//224
f 224//224 226//226 227//227
f 224//224 227//227 225//225
f 230//230 227//227 226//226
f 230//230 226//226 228//228
f 229//229 228//228 231//231
f 229//229 230//230 228//228
f 232//232 230//230 229//229
f 232//232 233//233 230//230
f 233//233 234//234 227//227
f 233//233 227//227 230//230
f 233//233 232//232 235//235
f 234//234 236//236 225//225
f 234//234 225//225 227//227
f 236//236 237//237 223//223
f 236//236 223//223 225//225
f 219//219 223//223 237//237
f 219//219 237//237 238//238
f 239//239 216//216 214//214
f 240//240 242//242 244//244
f 240//240 244//244 241//241
f 240//240 243//243 242//242
f 246//246 247//247 245//245
f 246//246 248//248 247//247
f 247//247 248//248 250//250
f 250//250 249//249 247//247
f 250//250 248//248 251//251
f 252//252 250//250 251//251
f 252//252 251//251 254//254
f 255//255 249//249 250//250
f 255//255 250//250 252//252
f 252//252 253//253 256//256
f 252//252 256//256 255//255
f 253//253 252//252 254//254
f 253//253 254//254 262//262
f 257//257 256//256 253//253
f 257//257 253//253 259//259
f 258//258 257//257 259//259
f 258//258 259//259 260//260
f 259//259 253//253 262//262
f 259//259 262//262 261//261
f 261//261 263//263 260//260
f 261//261 260//260 259//259
f 266//266 260//260 263//263
f 266//266 263//263 264//264
f 268//268 266//266 264//264
f 268//268 264//264 265//265
f 269//269 267//267 266//266
f 269//269 266//266 268//268
f 267//267 258//258 260//260
f 267//267 260//260 266//266
f 270//270 248//248 246//246
f 272//272 271//271 273//273
f 272//272 273//273 275//275
f 274//274 276//276 275//275
f 274//274 275//275 273//273
f 279//279 277//277 276//276
f 279//279 276//276 274//274
f 280//280 278//278 277//277
f 280//280 277//277 279//279
f 281//281 283//283 278//278
f 281//281 278//278 280//280
f 283//283 281//281 282//282
f 283//283 282//282 284//284
f 286//286 284//284 282//282
f 287//287 284//284 285//285
f 285//285 284//284 286//286
f 287//287 289//289 288//288
f 285//285 289//289 287//287
f 285//285 286//286 290//290
f 285//285 290//290 289//289
f 289//289 290//290 291//291
f 289//289 291//291 288//288
f 291//291 293//293 292//292
f 290//290 293//293 291//291
f 294//294 293//293 295//295
f 294//294 292//292 293//293
f 286//286 295//295 293//293
f 286//286 293//293 290//290
f 295//295 286//286 282//282
f 282//282 294//294 295//295
f 296//296 298//298 299//299
f 296//296 299//299 297//297
f 297//297 299//299 300//300
f 297//297 300//300 301//301
f 301//301 302//302 297//297
f 304//304 303//303 305//305
f 304//304 305//305 306//306
f 308//308 306//306 305//305
f 308//308 305//305 307//307
f 308//308 307//307 309//309
f 309//309 310//310 308//308
f 310//310 309//309 311//311
f 309//309 312//312 311//311
f 315//315 311//311 312//312
f 315//315 312//312 313//313
f 314//314 315//315 313//313
f 317//317 318//318 311//311
f 317//317 311//311 315//315
f 315//315 314//314 316//316
f 317//317 315//315 316//316
f 319//319 317//317 316//316
f 319//319 322//322 318//318
f 319//319 318//318 317//317
f 319//319 316//316 320//320
f 319//319 320//320 321//321
f 321//321 323//323 322//322
f 321//321 322//322 319//319
f 322//322 323//323 324//324
f 324//324 310//310 322//322
f 310//310 318//318 322//322
f 310//310 324//324 325//325
f 324//324 326//326 325//325
f 326//326 327//327 328//328
f 326//326 328//328 325//325
f 329//329 328//328 327//327
f 329//329 304//304 330//330
f 329//329 330//330 328//328
f 325//325 328//328 330//330
f 325//325 330//330 331//331
f 331//331 330//330 306//306
f 331//331 306//306 308//308
f 330//330 304//304 306//306
f 325//325 331//331 310//310
f 310//310 331//331 308//308
f 311//311 318//318 310//310
f 333//333 332//332 334//334
f 333//333 334//334 335//335
f 337//337 333//333 335//335
f 337//337 335//335 336//336
f 341//341 337//337 336//336
f 341//341 336//336 338//338
f 339//339 340//340 338//338
f 338//338 340//340 341//341
f 340//340 342//342 341//341
f 344//344 345//345 343//343
f 346//346 345//345 344//344
f 347//347 345//345 346//346
f 346//346 344//344 348//348
f 346//346 348//348 349//349
f 349//349 348//348 351//351
f 349//349 351//351 350//350
f 353//353 352//352 350//350
f 353//353 350//350 351//351
f 354//354 353//353 351//351
f 354//354 351//351 355//355
f 355//355 351//351 348//348
f 355//355 348//348 356//356
f 348//348 344//344 356//356
f 358//358 359//359 357//357
f 360//360 359//359 361//361
f 358//358 361//361 359//359
f 363//363 362//362 364//364
f 363//363 364//364 365//365
f 367//367 366//366 368//368
f 367//367 368//368 369//369
f 371//371 367//367 369//369
f 371//371 369//369 370//370
f 373//373 371//371 370//370
f 373//373 370//370 372//372
f 375//375 373//373 372//372
f 375//375 372//372 374//374
f 377//377 376//376 378//378
f 377//377 378//378 379//379
f 381//381 380//380 382//382
f 381//381 382//382 383//383
f 386//386 381//381 383//383
f 386//386 383//383 384//384
f 387//387 386//386 384//384
f 387//387 384//384 385//385
f 388//388 387//387 385//385
f 388//388 385//385 389//389
f 390//390 392//392 393//393
f 390//390 393//393 391//391
f 395//395 397//397 396//396
f 395//395 396//396 394//394
f 398//398 399//399 401//401
f 399//399 398//398 400//400
f 403//403 402//402 404//404
f 403//403 404//404 405//405
f 407//407 408//408 406//406
f 406//406 408//408 409//409
f 409//409 411//411 410//410
f 412//412 411//411 409//409
f 408//408 412//412 409//409
f 414//414 411//411 412//412
f 414//414 412//412 408//408
f 416//416 410//410 411//411
f 413//413 415//415 411//411
f 433//433 413//413 411//411
f 433//433 411//411 414//414
f 415//415 416//416 411//411
f 416//416 417//417 418//418
f 416//416 418//418 410//410
f 417//417 419//419 418//418
f 417//417 420//420 419//419
f 420//420 421//421 419//419
f 421//421 420//420 422//422
f 423//423 421//421 422//422
f 422//422 424//424 423//423
f 424//424 425//425 423//423
f 427//427 425//425 426//426
f 426//426 425//425 428//428
f 423//423 425//425 427//427
f 429//429 426//426 428//428
f 426//426 429//429 430//430
f 430//430 429//429 431//431
f 430//430 431//431 419//419
f 431//431 418//418 419//419
f 419//419 427//427 426//426
f 419//419 426//426 430//430
f 421//421 423//423 427//427
f 421//421 427//427 419//419
f 432//432 415//415 413//413
f 432//432 413//413 433//433
f 433//433 407//407 432//432
f 407//407 433//433 414//414
f 407//407 414//414 408//408
f 435//435 434//434 436//436
f 435//435 436//436 437//437
f 440//440 435//435 437//437
f 440//440 437//437 438//438
f 441//441 440//440 438//438
f 441//441 438//438 439//439
f 443//443 442//442 441//441
f 439//439 443//443 441//441
f 444//444 443//443 439//439
f 446//446 445//445 447//447
f 446//446 447//447 448//448
f 450//450 446//446 448//448
f 450//450 448//448 449//449
f 452//452 450//450 449//449
f 452//452 449//449 451//451
f 454//454 452//452 451//451
f 454//454 451//451 453//453
f 455//455 457//457 458//458
f 455//455 458//458 456//456
f 460//460 459//459 461//461
f 460//460 461//461 462//462
f 462//462 463//463 464//464
f 460//460 462//462 464//464
f 464//464 465//465 460//460
f 470//470 467//467 466//466
f 470//470 466//466 468//468
f 468//468 469//469 471//471
f 468//468 471//471 470//470
f 473//473 472//472 474//474
f 473//473 474//474 475//475
f 477//477 480//480 478//478
f 477//477 478//478 476//476
f 479//479 478//478 480//480
f 479//479 480//480 481//481
f 483//483 482//482 484//484
f 483//483 484//484 485//485
f 489//489 487//487 486//486
f 489//489 486//486 488//488
f 488//488 490//490 491//491
f 488//488 491//491 489//489
f 493//493 492//492 494//494
f 493//493 494//494 495//495
f 497//497 500//500 498//498
f 497//497 498//498 496//496
f 499//499 498//498 500//500
f 499//499 500//500 501//501
f 503//503 502//502 504//504
f 503//503 504//504 505//505
f 506//506 508//508 509//509
f 506//506 509//509 507//507
f 510//510 512//512 513//513
f 510//510 513//513 511//511
f 515//515 517//517 516//516
f 515//515 516//516 514//514
f 518//518 520//520 521//521
f 518//518 521//521 519//519
f 523//523 522//522 524//524
f 525//525 524//524 526//526
f 524//524 525//525 523//523
f 528//528 527//527 529//529
f 528//528 529//529 530//530
f 534//534 531//531 532//532
f 534//534 532//532 536//536
f 532//532 531//531 533//533
f 535//535 534//534 537//537
f 535//535 537//537 538//538
f 537//537 534//534 536//536
f 542//542 538//538 537//537
f 542//542 537//537 539//539
f 539//539 537//537 536//536
f 539//539 536//536 543//543
f 540//540 541//541 539//539
f 539//539 543//543 540//540
f 541//541 542//542 539//539
f 540//540 543//543 544//544
f 543//543 536//536 532//532
f 543//543 532//532 544//544
f 545//545 540//540 544//544
f 544//544 546//546 545//545
f 544//544 532//532 533//533
f 544//544 533//533 546//546
f 540//540 545//545 547//547
f 545//545 548//548 547//547
f 551//551 547//547 548//548
f 551//551 548//548 549//549
f 550//550 551//551 549//549
f 552//552 551//551 553//553
f 552//552 559//559 547//547
f 552//552 547//547 551//551
f 550//550 553//553 551//551
f 553//553 554//554 552//552
f 554//554 553//553 555//555
f 555//555 556//556 554//554
f 556//556 557//557 558//558
f 556//556 558//558 554//554
f 558//558 557//557 541//541
f 554//554 558//558 559//559
f 554//554 559//559 552//552
f 541//541 540//540 558//558
f 540//540 559//559 558//558
f 547//547 559//559 540//540
f 561//561 560//560 562//562
f 563//563 561//561 562//562
f 564//564 563//563 562//562
f 563//563 565//565 561//561
f 563//563 566//566 565//565
f 566//566 567//567 569//569
f 566//566 569//569 565//565
f 570//570 569//569 567//567
f 570//570 567//567 568//568
f 573//573 571//571 569//569
f 573//573 569//569 570//570
f 571//571 572//572 565//565
f 571//571 565//565 569//569
f 565//565 572//572 561//561
f 575//575 574//574 576//576
f 575//575 576//576 577//577
f 579//579 575//575 577//577
f 579//579 577//577 578//578
f 581//581 580//580 582//582
f 583//583 581//581 582//582
f 583//583 582//582 584//584
f 583//583 584//584 585//585
f 585//585 586//586 583//583
f 581//581 583//583 587//587
f 589//589 591//591 588//588
f 596//596 589//589 588//588
f 596//596 588//588 590//590
f 591//591 589//589 592//592
f 593//593 592//592 589//589
f 594//594 593//593 589//589
f 594//594 589//589 596//596
f 594//594 596//596 597//597
f 594//594 597//597 595//595
f 598//598 597//597 596//596
f 598//598 596//596 590//590
f 600//600 601//601 599//599
f 603//603 602//602 601//601
f 601//601 600//600 603//603
f 605//605 604//604 606//606
f 607//607 605//605 606//606
f 608//608 607//607 606//606
f 607//607 609//609 605//605
f 607//607 610//610 609//609
f 610//610 611//611 612//612
f 610//610 612//612 609//609
f 614//614 612//612 611//611
f 614//614 611//611 613//613
f 615//615 616//616 612//612
f 615//615 612//612 614//614
f 616//616 617//617 609//609
f 616//616 609//609 612//612
f 609//609 617//617 605//605
f 619//619 618//618 620//620
f 619//619 620//620 621//621
f 623//623 619//619 621//621
f 623//623 621//621 622//622
f 625//625 627//627 626//626
f 625//625 626//626 624//624
f 627//627 629//629 628//628
f 627//627 628//628 626//626
f 629//629 627//627 630//630
f 632//632 631//631 630//630
f 632//632 630//630 627//627
f 631//631 632//632 634//634
f 631//631 634//634 633//633
f 637//637 635//635 633//633
f 637//637 633//633 634//634
f 638//638 636//636 635//635
f 638//638 635//635 637//637
f 639//639 637//637 634//634
f 641//641 638//638 637//637
f 641//641 637//637 639//639
f 639//639 634//634 640//640
f 640//640 634//634 632//632
f 640//640 632//632 642//642
f 627//627 643//643 642//642
f 627//627 642//642 632//632
f 643//643 627//627 625//625
f 645//645 647//647 646//646
f 645//645 646//646 644//644
f 647//647 649//649 648//648
f 647//647 648//648 646//646
f 649//649 647//647 650//650
f 652//652 651//651 650//650
f 652//652 650//650 647//647
f 651//651 652//652 654//654
f 651//651 654//654 653//653
f 656//656 655//655 653//653
f 656//656 653//653 654//654
f 658//658 657//657 655//655
f 658//658 655//655 656//656
f 659//659 658//658 656//656
f 659//659 656//656 660//660
f 660//660 656//656 654//654
f 660//660 654//654 661//661
f 661//661 654//654 652//652
f 661//661 652//652 662//662
f 647//647 663//663 662//662
f 647//647 662//662 652//652
f 663//663 647//647 645//645
f 665//665 664//664 666//666
f 664//664 667//667 666//666
f 668//668 667//667 664//664
f 671//671 667//667 668//668
f 669//669 671//671 668//668
f 668//668 670//670 669//669
f 668//668 672//672 670//670
f 675//675 672//672 668//668
f 673//673 674//674 668//668
f 674//674 675//675 668//668
f 676//676 674//674 673//673
f 674//674 676//676 677//677
f 680//680 672//672 678//678
f 672//672 679//679 678//678
f 672//672 681//681 679//679
f 670//670 672//672 680//680
f 682//682 684//684 681//681
f 681//681 683//683 682//682
f 683//683 681//681 686//686
f 681//681 684//684 679//679
f 685//685 686//686 681//681
f 686//686 689//689 687//687
f 688//688 683//683 686//686
f 685//685 689//689 686//686
f 687//687 689//689 690//690
f 689//689 691//691 690//690
f 688//688 692//692 694//694
f 692//692 688//688 693//693
f 694//694 695//695 688//688
f 683//683 688//688 695//695
f 694//694 692//692 696//696
f 697//697 694//694 696//696
f 698//698 697//697 696//696
f 699//699 697//697 698//698
f 698//698 700//700 699//699
f 698//698 701//701 700//700
f 700//700 701//701 702//702
f 703//703 702//702 704//704
f 704//704 702//702 705//705
f 702//702 708//708 705//705
f 706//706 702//702 701//701
f 702//702 706//706 707//707
f 707//707 708//708 702//702
f 705//705 708//708 709//709
f 710//710 705//705 709//709
f 709//709 711//711 710//710
f 711//711 712//712 710//710
f 715//715 712//712 713//713
f 712//712 714//714 713//713
f 712//712 715//715 716//716
f 717//717 712//712 716//716
f 710//710 712//712 717//717
f 713//713 718//718 715//715
f 718//718 720//720 719//719
f 713//713 720//720 718//718
f 721//721 719//719 720//720
f 720//720 722//722 725//725
f 720//720 725//725 721//721
f 723//723 725//725 722//722
f 722//722 724//724 723//723
f 719//719 721//721 726//726
f 727//727 719//719 726//726
f 727//727 726//726 730//730
f 730//730 726//726 728//728
f 726//726 729//729 728//728
f 732//732 731//731 730//730
f 731//731 727//727 730//730
f 735//735 732//732 733//733
f 733//733 732//732 734//734
f 731//731 732//732 735//735
f 737//737 735//735 733//733
f 735//735 737//737 736//736
f 738//738 737//737 733//733
f 737//737 739//739 736//736
f 739//739 737//737 740//740
f 741//741 740//740 737//737
f 737//737 742//742 741//741
f 743//743 742//742 737//737
f 737//737 744//744 743//743
f 745//745 744//744 737//737
f 744//744 746//746 743//743
f 747//747 748//748 743//743
f 748//748 749//749 743//743
f 749//749 751//751 743//743
f 743//743 750//750 742//742
f 743//743 751//751 750//750
f 747//747 752//752 748//748
f 753//753 752//752 666//666
f 666//666 752//752 757//757
f 753//753 755//755 752//752
f 754//754 752//752 747//747
f 754//754 756//756 752//752
f 756//756 757//757 752//752
f 757//757 758//758 666//666
f 758//758 665//665 666//666
f 755//755 760//760 759//759
f 760//760 755//755 753//753
f 760//760 703//703 759//759
f 703//703 704//704 759//759
f 762//762 761//761 738//738
f 733//733 762//762 738//738
f 764//764 761//761 762//762
f 763//763 764//764 762//762
f 764//764 766//766 765//765
f 766//766 764//764 763//763
f 767//767 728//728 729//729
f 728//728 767//767 768//768
f 769//769 728//728 768//768
f 768//768 770//770 769//769
f 768//768 771//771 770//770
f 714//714 772//772 713//713
f 714//714 773//773 772//772
f 774//774 773//773 714//714
f 774//774 775//775 773//773
f 775//775 776//776 773//773
f 773//773 777//777 772//772
f 778//778 698//698 696//696
f 692//692 693//693 779//779
f 779//779 780//780 692//692
