# arm_09 exported from /models/landings/arm_09.glb
# units: meters
v 0.042001 0.001000 -0.015962
v 0.042001 0.001000 -0.016237
v 0.045251 0.001000 -0.014715
v 0.040001 0.001000 -0.015962
v 0.036751 0.001000 -0.014715
v 0.040001 0.001000 -0.016237
v 0.036814 0.001000 -0.019528
v 0.040001 0.001000 -0.021715
v 0.037173 0.001000 -0.021114
v 0.037517 0.001000 -0.021558
v 0.038001 0.001000 -0.021715
v 0.037740 0.001000 -0.021675
v 0.036314 0.001000 -0.009903
v 0.045689 0.001000 -0.009903
v 0.046517 0.001000 -0.008317
v 0.047165 0.001000 -0.007872
v 0.035486 0.001000 -0.008317
v 0.034837 0.001000 -0.007872
v 0.030026 0.001000 -0.003329
v 0.034001 0.001000 -0.007715
v 0.028001 0.001000 -0.003715
v 0.028001 0.001000 -0.007715
v -0.000309 0.001000 -0.004262
v -0.027999 0.001000 -0.003715
v -0.027999 0.001000 -0.007715
v -0.000309 0.001000 -0.000262
v -0.033999 0.001000 -0.007715
v -0.030023 0.001000 -0.003329
v -0.034835 0.001000 -0.007872
v -0.041999 0.001000 -0.009194
v -0.039999 0.001000 -0.009194
v -0.047163 0.001000 -0.007872
v -0.035483 0.001000 -0.008317
v -0.036311 0.001000 -0.009903
v -0.036749 0.001000 -0.014715
v -0.036811 0.001000 -0.019528
v -0.039999 0.001000 -0.021715
v -0.037170 0.001000 -0.021114
v -0.037514 0.001000 -0.021558
v -0.037999 0.001000 -0.021715
v -0.037737 0.001000 -0.021675
v -0.046514 0.001000 -0.008317
v -0.047999 0.001000 -0.007715
v -0.031888 0.001000 -0.002104
v -0.054716 0.001000 -0.004933
v -0.051495 0.001000 -0.007048
v -0.056832 0.001000 -0.001712
v -0.033112 0.001000 -0.000240
v -0.057499 0.001000 0.001785
v -0.033499 0.001000 0.001785
v -0.033112 0.001000 0.003809
v -0.056832 0.001000 0.005282
v -0.054716 0.001000 0.008502
v -0.031888 0.001000 0.005674
v -0.047999 0.001000 0.011285
v -0.030023 0.001000 0.006899
v -0.027999 0.001000 0.011285
v -0.027999 0.001000 0.007285
v -0.000309 0.001000 0.010738
v 0.028001 0.001000 0.007285
v -0.000309 0.001000 0.014737
v 0.028001 0.001000 0.011285
v 0.030026 0.001000 0.006899
v 0.048001 0.001000 0.011285
v 0.031890 0.001000 0.005674
v 0.051637 0.001000 0.010562
v 0.054719 0.001000 0.008502
v 0.056778 0.001000 0.005420
v 0.033115 0.001000 0.003809
v 0.057501 0.001000 0.001785
v 0.033115 0.001000 -0.000240
v 0.056778 0.001000 -0.001851
v 0.033501 0.001000 0.001785
v 0.054719 0.001000 -0.004933
v 0.031890 0.001000 -0.002104
v 0.048001 0.001000 -0.007715
v 0.051637 0.001000 -0.006992
v -0.051495 0.001000 0.010618
v -0.045686 0.001000 -0.009903
v -0.045249 0.001000 -0.014715
v -0.041999 0.001000 -0.021715
v -0.045186 0.001000 -0.019528
v -0.044827 0.001000 -0.021114
v -0.044483 0.001000 -0.021558
v -0.043999 0.001000 -0.021715
v -0.044260 0.001000 -0.021675
v 0.045189 0.001000 -0.019528
v 0.042001 0.001000 -0.021715
v 0.044829 0.001000 -0.021114
v 0.044486 0.001000 -0.021558
v 0.044001 0.001000 -0.021715
v 0.044262 0.001000 -0.021675
v 0.028001 -0.001000 0.007285
v 0.028001 -0.000000 0.007285
v 0.030091 -0.001000 0.006872
v 0.031931 -0.001000 0.005633
v 0.030091 0.001000 0.006872
v 0.028001 0.001000 0.007285
v 0.031931 0.001000 0.005633
v 0.033125 0.001000 0.003784
v 0.033125 -0.001000 0.003784
v 0.033501 0.001000 0.001785
v 0.033501 -0.001000 0.001785
v 0.033089 0.001000 -0.000305
v 0.033089 -0.001000 -0.000305
v 0.031850 0.001000 -0.002145
v 0.031850 -0.001000 -0.002145
v 0.030000 0.001000 -0.003339
v 0.030000 -0.001000 -0.003339
v 0.028001 0.001000 -0.003715
v 0.028001 0.000000 -0.003715
v 0.028001 -0.001000 -0.003715
v -0.027999 -0.001000 0.007285
v -0.024937 -0.000500 0.007970
v -0.027999 -0.000000 0.007285
v -0.024937 -0.001000 0.007970
v -0.022056 -0.001000 0.008560
v -0.016785 -0.001000 0.009485
v -0.022056 -0.000500 0.008560
v -0.022056 -0.000000 0.008560
v -0.016785 -0.000000 0.009485
v -0.005497 -0.001000 0.010628
v -0.005497 0.001000 0.010628
v -0.022056 0.000500 0.008560
v -0.016785 0.001000 0.009485
v -0.022056 0.001000 0.008560
v -0.024937 0.001000 0.007970
v -0.024937 0.000500 0.007970
v -0.027999 0.001000 0.007285
v -0.024937 -0.000000 0.007970
v 0.005617 0.001000 0.010574
v 0.005617 -0.001000 0.010574
v 0.016509 -0.000000 0.009325
v 0.016509 0.001000 0.009325
v 0.021736 0.000500 0.008449
v 0.021736 0.001000 0.008449
v 0.024726 0.001000 0.007905
v 0.024726 0.000500 0.007905
v 0.028001 0.001000 0.007285
v 0.028001 -0.000000 0.007285
v 0.024726 -0.000500 0.007905
v 0.024726 -0.000000 0.007905
v 0.028001 -0.001000 0.007285
v 0.024726 -0.001000 0.007905
v 0.021736 -0.001000 0.008449
v 0.021736 -0.000500 0.008449
v 0.016509 -0.001000 0.009325
v 0.021736 -0.000000 0.008449
v -0.033499 -0.001000 0.001785
v -0.033499 -0.000000 0.001785
v -0.033086 -0.001000 0.003874
v -0.031847 -0.001000 0.005714
v -0.033086 0.001000 0.003874
v -0.033499 0.001000 0.001785
v -0.031847 0.001000 0.005714
v -0.029998 0.001000 0.006909
v -0.029998 -0.001000 0.006909
v -0.027999 0.001000 0.007285
v -0.027999 -0.000000 0.007285
v -0.027999 -0.001000 0.007285
v -0.027999 -0.001000 -0.003715
v -0.027999 0.000000 -0.003715
v -0.030088 -0.001000 -0.003303
v -0.031928 -0.001000 -0.002064
v -0.030088 0.001000 -0.003303
v -0.027999 0.001000 -0.003715
v -0.031928 0.001000 -0.002064
v -0.033123 0.001000 -0.000214
v -0.033123 -0.001000 -0.000214
v -0.033499 0.001000 0.001785
v -0.033499 -0.000000 0.001785
v -0.033499 -0.001000 0.001785
v 0.028001 -0.001000 -0.003715
v 0.024812 -0.000500 -0.003110
v 0.028001 0.000000 -0.003715
v 0.024812 -0.001000 -0.003110
v 0.021892 -0.001000 -0.002579
v 0.016771 -0.001000 -0.001716
v 0.021892 -0.000500 -0.002579
v 0.021892 0.000000 -0.002579
v 0.016771 0.000000 -0.001716
v 0.016771 0.001000 -0.001716
v 0.005568 -0.001000 -0.000423
v 0.021892 0.000500 -0.002579
v 0.005568 0.001000 -0.000423
v -0.005595 0.001000 -0.000377
v -0.005595 -0.001000 -0.000377
v -0.016752 0.000000 -0.001510
v -0.016752 0.001000 -0.001510
v -0.022037 0.000500 -0.002436
v -0.022037 0.001000 -0.002436
v -0.024927 0.001000 -0.003028
v -0.024927 0.000500 -0.003028
v -0.027999 0.001000 -0.003715
v -0.027999 0.000000 -0.003715
v -0.024927 0.000000 -0.003028
v -0.027999 -0.001000 -0.003715
v -0.024927 -0.000500 -0.003028
v -0.024927 -0.001000 -0.003028
v -0.022037 -0.001000 -0.002436
v -0.016752 -0.001000 -0.001510
v -0.022037 -0.000500 -0.002436
v -0.022037 0.000000 -0.002436
v 0.024812 0.000500 -0.003110
v 0.021892 0.001000 -0.002579
v 0.024812 0.001000 -0.003110
v 0.028001 0.001000 -0.003715
v 0.024812 0.000000 -0.003110
v 0.040001 -0.001000 -0.015962
v 0.040001 0.001000 -0.015962
v 0.042001 -0.001000 -0.015962
v 0.042001 0.001000 -0.015962
v 0.040001 -0.001000 -0.021715
v 0.040001 0.001000 -0.021715
v 0.040001 -0.001000 -0.015962
v 0.040001 0.001000 -0.015962
v 0.038001 -0.001000 -0.021715
v 0.040001 -0.001000 -0.021715
v 0.038001 0.000000 -0.021715
v 0.038001 0.001000 -0.021715
v 0.040001 0.001000 -0.021715
v 0.034001 -0.001000 -0.007715
v 0.034001 0.000000 -0.007715
v 0.035548 -0.001000 -0.008384
v 0.036325 -0.001000 -0.009942
v 0.035548 0.001000 -0.008384
v 0.034001 0.001000 -0.007715
v 0.036325 0.001000 -0.009942
v 0.036630 0.001000 -0.011662
v 0.036737 0.001000 -0.013461
v 0.036630 -0.001000 -0.011662
v 0.036737 -0.001000 -0.013461
v 0.036750 -0.001000 -0.015221
v 0.036750 0.001000 -0.015221
v 0.036736 -0.001000 -0.016983
v 0.036736 0.001000 -0.016983
v 0.036764 -0.001000 -0.018803
v 0.036764 0.001000 -0.018803
v 0.036963 -0.001000 -0.020495
v 0.036963 0.001000 -0.020495
v 0.038001 0.000000 -0.021715
v 0.038001 -0.001000 -0.021715
v 0.038001 0.001000 -0.021715
v 0.028001 -0.001000 -0.007715
v 0.028001 0.001000 -0.007715
v 0.031001 -0.001000 -0.007715
v 0.034001 -0.001000 -0.007715
v 0.034001 0.000000 -0.007715
v 0.031001 0.001000 -0.007715
v 0.034001 0.001000 -0.007715
v -0.027999 -0.001000 -0.007715
v -0.022056 0.000000 -0.006440
v -0.022056 -0.001000 -0.006440
v -0.027999 0.001000 -0.007715
v -0.022056 0.001000 -0.006440
v -0.016785 0.001000 -0.005515
v -0.016785 0.000000 -0.005515
v -0.005497 0.001000 -0.004372
v -0.005497 -0.001000 -0.004372
v 0.005617 0.001000 -0.004426
v 0.005617 -0.001000 -0.004426
v 0.016509 0.000000 -0.005675
v 0.016509 0.001000 -0.005675
v 0.021736 0.001000 -0.006551
v 0.028001 0.001000 -0.007715
v 0.021736 0.000000 -0.006551
v 0.028001 -0.001000 -0.007715
v 0.021736 -0.001000 -0.006551
v 0.016509 -0.001000 -0.005675
v -0.016785 -0.001000 -0.005515
v -0.033999 -0.001000 -0.007715
v -0.030999 -0.001000 -0.007715
v -0.033999 0.000000 -0.007715
v -0.033999 0.001000 -0.007715
v -0.030999 0.001000 -0.007715
v -0.027999 0.001000 -0.007715
v -0.027999 -0.001000 -0.007715
v -0.037999 -0.001000 -0.021715
v -0.037999 0.000000 -0.021715
v -0.036959 -0.001000 -0.020490
v -0.036759 -0.001000 -0.018750
v -0.036959 0.001000 -0.020490
v -0.037999 0.001000 -0.021715
v -0.036759 0.001000 -0.018750
v -0.036734 0.001000 -0.016994
v -0.036747 0.001000 -0.015237
v -0.036734 -0.001000 -0.016994
v -0.036747 -0.001000 -0.015237
v -0.036733 -0.001000 -0.013393
v -0.036733 0.001000 -0.013393
v -0.036623 -0.001000 -0.011624
v -0.036623 0.001000 -0.011624
v -0.036304 -0.001000 -0.009879
v -0.036304 0.001000 -0.009879
v -0.035476 -0.001000 -0.008310
v -0.035476 0.001000 -0.008310
v -0.033999 0.000000 -0.007715
v -0.033999 -0.001000 -0.007715
v -0.033999 0.001000 -0.007715
v -0.039999 -0.001000 -0.021715
v -0.039999 0.001000 -0.021715
v -0.037999 -0.001000 -0.021715
v -0.037999 0.000000 -0.021715
v -0.037999 0.001000 -0.021715
v -0.039999 -0.001000 -0.009194
v -0.039999 0.001000 -0.009194
v -0.039999 -0.001000 -0.021715
v -0.039999 0.001000 -0.021715
v -0.041999 -0.001000 -0.009194
v -0.041999 0.001000 -0.009194
v -0.039999 -0.001000 -0.009194
v -0.039999 0.001000 -0.009194
v -0.041999 -0.001000 -0.021715
v -0.041999 0.001000 -0.021715
v -0.041999 -0.001000 -0.009194
v -0.041999 0.001000 -0.009194
v -0.043999 -0.001000 -0.021715
v -0.041999 -0.001000 -0.021715
v -0.043999 0.000000 -0.021715
v -0.043999 0.001000 -0.021715
v -0.041999 0.001000 -0.021715
v -0.047999 -0.001000 -0.007715
v -0.047999 -0.000333 -0.007715
v -0.046451 -0.001000 -0.008384
v -0.045675 -0.001000 -0.009942
v -0.046451 0.001000 -0.008384
v -0.047999 0.000333 -0.007715
v -0.047999 0.001000 -0.007715
v -0.045675 0.001000 -0.009942
v -0.045370 0.001000 -0.011662
v -0.045370 -0.001000 -0.011662
v -0.045263 0.001000 -0.013461
v -0.045263 -0.001000 -0.013461
v -0.045250 0.001000 -0.015221
v -0.045264 0.001000 -0.016983
v -0.045250 -0.001000 -0.015221
v -0.045264 -0.001000 -0.016983
v -0.045236 -0.001000 -0.018803
v -0.045236 0.001000 -0.018803
v -0.045037 -0.001000 -0.020495
v -0.045037 0.001000 -0.020495
v -0.043999 0.000000 -0.021715
v -0.043999 -0.001000 -0.021715
v -0.043999 0.001000 -0.021715
v -0.047999 -0.001000 0.011285
v -0.051608 -0.001000 0.010572
v -0.047999 0.001000 0.011285
v -0.051608 0.001000 0.010572
v -0.054786 0.001000 0.008432
v -0.054786 -0.001000 0.008432
v -0.056849 0.001000 0.005237
v -0.056849 -0.001000 0.005237
v -0.057499 0.001000 0.001785
v -0.057499 -0.001000 0.001785
v -0.056786 0.001000 -0.001824
v -0.056786 -0.001000 -0.001824
v -0.054646 0.001000 -0.005002
v -0.054646 -0.001000 -0.005002
v -0.051451 0.000000 -0.007066
v -0.051451 0.001000 -0.007066
v -0.049705 0.001000 -0.007561
v -0.049705 0.000000 -0.007561
v -0.047999 0.001000 -0.007715
v -0.047999 0.000333 -0.007715
v -0.047999 -0.000333 -0.007715
v -0.047999 -0.001000 -0.007715
v -0.049705 -0.001000 -0.007561
v -0.051451 -0.001000 -0.007066
v -0.027999 -0.001000 0.011285
v -0.032999 -0.000000 0.011285
v -0.032999 -0.001000 0.011285
v -0.027999 0.001000 0.011285
v -0.032999 0.001000 0.011285
v -0.037999 0.001000 0.011285
v -0.037999 -0.000000 0.011285
v -0.042999 0.001000 0.011285
v -0.047999 0.001000 0.011285
v -0.042999 -0.000000 0.011285
v -0.047999 -0.001000 0.011285
v -0.042999 -0.001000 0.011285
v -0.037999 -0.001000 0.011285
v 0.028001 -0.001000 0.011285
v 0.021892 -0.000000 0.012421
v 0.021892 -0.001000 0.012421
v 0.028001 0.001000 0.011285
v 0.021892 0.001000 0.012421
v 0.016771 0.001000 0.013284
v 0.016771 -0.000000 0.013284
v 0.005568 0.001000 0.014577
v 0.005568 -0.001000 0.014577
v -0.005595 0.001000 0.014623
v -0.016752 -0.000000 0.013490
v -0.016752 0.001000 0.013490
v -0.005595 -0.001000 0.014623
v -0.016752 -0.001000 0.013490
v -0.022037 -0.001000 0.012564
v -0.027999 -0.001000 0.011285
v -0.022037 -0.000000 0.012564
v -0.027999 0.001000 0.011285
v -0.022037 0.001000 0.012564
v 0.016771 -0.001000 0.013284
v 0.048001 -0.001000 0.011285
v 0.043001 -0.000000 0.011285
v 0.043001 -0.001000 0.011285
v 0.048001 0.001000 0.011285
v 0.043001 0.001000 0.011285
v 0.038001 0.001000 0.011285
v 0.038001 -0.000000 0.011285
v 0.033001 0.001000 0.011285
v 0.028001 0.001000 0.011285
v 0.033001 -0.000000 0.011285
v 0.028001 -0.001000 0.011285
v 0.033001 -0.001000 0.011285
v 0.038001 -0.001000 0.011285
v 0.048001 -0.001000 -0.007715
v 0.048001 0.000000 -0.007715
v 0.051647 -0.001000 -0.006988
v 0.054719 -0.001000 -0.004933
v 0.051647 0.001000 -0.006988
v 0.048001 0.001000 -0.007715
v 0.054719 0.001000 -0.004933
v 0.056782 0.001000 -0.001840
v 0.056782 -0.001000 -0.001840
v 0.057501 0.001000 0.001785
v 0.057501 -0.001000 0.001785
v 0.056774 0.001000 0.005431
v 0.056774 -0.001000 0.005431
v 0.054719 0.001000 0.008502
v 0.054719 -0.001000 0.008502
v 0.051626 0.001000 0.010566
v 0.051626 -0.001000 0.010566
v 0.048001 0.001000 0.011285
v 0.048001 -0.001000 0.011285
v 0.044001 -0.001000 -0.021715
v 0.044001 0.000000 -0.021715
v 0.045041 -0.001000 -0.020490
v 0.045241 -0.001000 -0.018750
v 0.045041 0.001000 -0.020490
v 0.045241 0.001000 -0.018750
v 0.044001 0.001000 -0.021715
v 0.045266 0.001000 -0.016994
v 0.045266 -0.001000 -0.016994
v 0.045253 0.001000 -0.015237
v 0.045253 -0.001000 -0.015237
v 0.045267 0.001000 -0.013393
v 0.045376 0.001000 -0.011624
v 0.045267 -0.001000 -0.013393
v 0.045376 -0.001000 -0.011624
v 0.045695 -0.001000 -0.009879
v 0.045695 0.001000 -0.009879
v 0.046523 -0.001000 -0.008310
v 0.046523 0.001000 -0.008310
v 0.048001 0.000000 -0.007715
v 0.048001 -0.001000 -0.007715
v 0.048001 0.001000 -0.007715
v 0.042001 -0.001000 -0.021715
v 0.042001 0.001000 -0.021715
v 0.044001 0.000000 -0.021715
v 0.044001 -0.001000 -0.021715
v 0.044001 0.001000 -0.021715
v 0.042001 -0.001000 -0.015962
v 0.042001 0.001000 -0.015962
v 0.042001 -0.001000 -0.021715
v 0.042001 0.001000 -0.021715
v 0.042001 -0.001000 -0.015962
v 0.045251 -0.001000 -0.014715
v 0.042001 -0.001000 -0.016237
v 0.040001 -0.001000 -0.015962
v 0.036751 -0.001000 -0.014715
v 0.040001 -0.001000 -0.016237
v 0.036814 -0.001000 -0.019528
v 0.040001 -0.001000 -0.021715
v 0.037173 -0.001000 -0.021114
v 0.037517 -0.001000 -0.021558
v 0.038001 -0.001000 -0.021715
v 0.037740 -0.001000 -0.021675
v 0.036314 -0.001000 -0.009903
v 0.045689 -0.001000 -0.009903
v 0.046517 -0.001000 -0.008317
v 0.035486 -0.001000 -0.008317
v 0.047165 -0.001000 -0.007872
v 0.034837 -0.001000 -0.007872
v 0.048001 -0.001000 -0.007715
v 0.030026 -0.001000 -0.003329
v 0.028001 -0.001000 -0.003715
v 0.031890 -0.001000 -0.002104
v 0.034001 -0.001000 -0.007715
v 0.028001 -0.001000 -0.007715
v -0.000309 -0.001000 -0.004262
v -0.027999 -0.001000 -0.003715
v -0.027999 -0.001000 -0.007715
v -0.000309 -0.001000 -0.000262
v -0.033999 -0.001000 -0.007715
v -0.030023 -0.001000 -0.003329
v -0.034835 -0.001000 -0.007872
v -0.039999 -0.001000 -0.009194
v -0.041999 -0.001000 -0.009194
v -0.047163 -0.001000 -0.007872
v -0.035483 -0.001000 -0.008317
v -0.036311 -0.001000 -0.009903
v -0.036749 -0.001000 -0.014715
v -0.036811 -0.001000 -0.019528
v -0.039999 -0.001000 -0.021715
v -0.037514 -0.001000 -0.021558
v -0.037999 -0.001000 -0.021715
v -0.037170 -0.001000 -0.021114
v -0.037737 -0.001000 -0.021675
v -0.046514 -0.001000 -0.008317
v -0.047999 -0.001000 -0.007715
v -0.031888 -0.001000 -0.002104
v -0.054716 -0.001000 -0.004933
v -0.051495 -0.001000 -0.007048
v -0.056832 -0.001000 -0.001712
v -0.033112 -0.001000 -0.000240
v -0.057499 -0.001000 0.001785
v -0.033112 -0.001000 0.003809
v -0.033499 -0.001000 0.001785
v -0.056832 -0.001000 0.005282
v -0.054716 -0.001000 0.008502
v -0.031888 -0.001000 0.005674
v -0.047999 -0.001000 0.011285
v -0.030023 -0.001000 0.006899
v -0.027999 -0.001000 0.011285
v -0.027999 -0.001000 0.007285
v -0.000309 -0.001000 0.010738
v 0.028001 -0.001000 0.007285
v -0.000309 -0.001000 0.014737
v 0.028001 -0.001000 0.011285
v 0.030026 -0.001000 0.006899
v 0.048001 -0.001000 0.011285
v 0.031890 -0.001000 0.005674
v 0.051637 -0.001000 0.010562
v 0.054719 -0.001000 0.008502
v 0.056778 -0.001000 0.005420
v 0.033115 -0.001000 0.003809
v 0.057501 -0.001000 0.001785
v 0.056778 -0.001000 -0.001851
v 0.033115 -0.001000 -0.000240
v 0.033501 -0.001000 0.001785
v 0.054719 -0.001000 -0.004933
v 0.051637 -0.001000 -0.006992
v -0.051495 -0.001000 0.010618
v -0.045686 -0.001000 -0.009903
v -0.045249 -0.001000 -0.014715
v -0.045186 -0.001000 -0.019528
v -0.041999 -0.001000 -0.021715
v -0.044827 -0.001000 -0.021114
v -0.044483 -0.001000 -0.021558
v -0.043999 -0.001000 -0.021715
v -0.044260 -0.001000 -0.021675
v 0.045189 -0.001000 -0.019528
v 0.042001 -0.001000 -0.021715
v 0.044829 -0.001000 -0.021114
v 0.044486 -0.001000 -0.021558
v 0.044001 -0.001000 -0.021715
v 0.044262 -0.001000 -0.021675
vn 0.000000 1.000000 0.000000
vn 0.000000 1.000000 0.000000
vn 0.000000 1.000000 0.000000
vn 0.000000 1.000000 0.000000
vn 0.000000 1.000000 0.000000
vn 0.000000 1.000000 0.000000
vn 0.000000 1.000000 0.000000
vn 0.000000 1.000000 0.000000
vn 0.000000 1.000000 0.000000
vn 0.000000 1.000000 0.000000
vn 0.000000 1.000000 0.000000
vn 0.000000 1.000000 0.000000
vn 0.000000 1.000000 0.000000
vn 0.000000 1.000000 0.000000
vn 0.000000 1.000000 0.000000
vn 0.000000 1.000000 0.000000
vn 0.000000 1.000000 0.000000
vn 0.000000 1.000000 0.000000
vn 0.000000 1.000000 0.000000
vn 0.000000 1.000000 0.000000
vn 0.000000 1.000000 0.000000
vn 0.000000 1.000000 0.000000
vn 0.000000 1.000000 0.000000
vn 0.000000 1.000000 0.000000
vn 0.000000 1.000000 0.000000
vn 0.000000 1.000000 0.000000
vn 0.000000 1.000000 0.000000
vn 0.000000 1.000000 0.000000
vn 0.000000 1.000000 0.000000
vn 0.000000 1.000000 0.000000
vn 0.000000 1.000000 0.000000
vn 0.000000 1.000000 0.000000
vn 0.000000 1.000000 0.000000
vn 0.000000 1.000000 0.000000
vn 0.000000 1.000000 0.000000
vn 0.000000 1.000000 0.000000
vn 0.000000 1.000000 0.000000
vn 0.000000 1.000000 0.000000
vn 0.000000 1.000000 0.000000
vn 0.000000 1.000000 0.000000
vn 0.000000 1.000000 0.000000
vn 0.000000 1.000000 0.000000
vn 0.000000 1.000000 0.000000
vn 0.000000 1.000000 0.000000
vn 0.000000 1.000000 0.000000
vn 0.000000 1.000000 0.000000
vn 0.000000 1.000000 0.000000
vn 0.000000 1.000000 0.000000
vn 0.000000 1.000000 0.000000
vn 0.000000 1.000000 0.000000
vn 0.000000 1.000000 0.000000
vn 0.000000 1.000000 0.000000
vn 0.000000 1.000000 0.000000
vn 0.000000 1.000000 0.000000
vn 0.000000 1.000000 0.000000
vn 0.000000 1.000000 0.000000
vn 0.000000 1.000000 0.000000
vn 0.000000 1.000000 0.000000
vn 0.000000 1.000000 0.000000
vn 0.000000 1.000000 0.000000
vn 0.000000 1.000000 0.000000
vn 0.000000 1.000000 0.000000
vn 0.000000 1.000000 0.000000
vn 0.000000 1.000000 0.000000
vn 0.000000 1.000000 0.000000
vn 0.000000 1.000000 0.000000
vn 0.000000 1.000000 0.000000
vn 0.000000 1.000000 0.000000
vn 0.000000 1.000000 0.000000
vn 0.000000 1.000000 0.000000
vn 0.000000 1.000000 0.000000
vn 0.000000 1.000000 0.000000
vn 0.000000 1.000000 0.000000
vn 0.000000 1.000000 0.000000
vn 0.000000 1.000000 0.000000
vn 0.000000 1.000000 0.000000
vn 0.000000 1.000000 0.000000
vn 0.000000 1.000000 0.000000
vn 0.000000 1.000000 0.000000
vn 0.000000 1.000000 0.000000
vn 0.000000 1.000000 0.000000
vn 0.000000 1.000000 0.000000
vn 0.000000 1.000000 0.000000
vn 0.000000 1.000000 0.000000
vn 0.000000 1.000000 0.000000
vn 0.000000 1.000000 0.000000
vn 0.000000 1.000000 0.000000
vn 0.000000 1.000000 0.000000
vn 0.000000 1.000000 0.000000
vn 0.000000 1.000000 0.000000
vn 0.000000 1.000000 0.000000
vn 0.000000 1.000000 0.000000
vn -0.000100 0.000000 -1.000000
vn -0.000100 0.000000 -1.000000
vn -0.379995 0.000000 -0.924988
vn -0.714369 0.000000 -0.699769
vn -0.379995 0.000000 -0.924988
vn -0.000100 0.000000 -1.000000
vn -0.714369 0.000000 -0.699769
vn -0.931595 0.000000 -0.363498
vn -0.931595 0.000000 -0.363498
vn -1.000000 0.000000 0.000000
vn -1.000000 0.000000 0.000000
vn -0.925024 -0.000000 0.379910
vn -0.925024 -0.000000 0.379910
vn -0.699819 -0.000000 0.714320
vn -0.699819 -0.000000 0.714320
vn -0.363411 -0.000000 0.931629
vn -0.363411 -0.000000 0.931629
vn -0.000100 -0.000000 1.000000
vn -0.000100 -0.000000 1.000000
vn -0.000100 -0.000000 1.000000
vn 0.226597 0.000000 -0.973989
vn 0.209597 0.000000 -0.977788
vn 0.226597 0.000000 -0.973989
vn 0.209597 0.000000 -0.977788
vn 0.191595 0.000000 -0.981474
vn 0.152501 0.000000 -0.988303
vn 0.191595 0.000000 -0.981474
vn 0.191595 0.000000 -0.981474
vn 0.152501 0.000000 -0.988303
vn 0.045099 0.000000 -0.998983
vn 0.044999 0.000000 -0.998987
vn 0.191595 0.000000 -0.981474
vn 0.152501 0.000000 -0.988303
vn 0.191595 0.000000 -0.981474
vn 0.209597 0.000000 -0.977788
vn 0.209597 0.000000 -0.977788
vn 0.226597 0.000000 -0.973989
vn 0.209597 0.000000 -0.977788
vn -0.060299 0.000000 -0.998180
vn -0.060299 0.000000 -0.998180
vn -0.153996 0.000000 -0.988072
vn -0.153996 0.000000 -0.988072
vn -0.174607 0.000000 -0.984638
vn -0.174704 0.000000 -0.984621
vn -0.182501 0.000000 -0.983206
vn -0.182501 0.000000 -0.983206
vn -0.189400 0.000000 -0.981900
vn -0.189400 0.000000 -0.981900
vn -0.182501 0.000000 -0.983206
vn -0.182501 0.000000 -0.983206
vn -0.189400 0.000000 -0.981900
vn -0.182501 0.000000 -0.983206
vn -0.174704 0.000000 -0.984621
vn -0.174704 0.000000 -0.984621
vn -0.153996 0.000000 -0.988072
vn -0.174704 0.000000 -0.984621
vn 1.000000 0.000000 -0.000100
vn 1.000000 0.000000 -0.000100
vn 0.925024 0.000000 -0.379910
vn 0.699668 0.000000 -0.714468
vn 0.924988 0.000000 -0.379995
vn 1.000000 0.000000 -0.000100
vn 0.699668 0.000000 -0.714468
vn 0.363411 0.000000 -0.931629
vn 0.363411 0.000000 -0.931629
vn 0.000100 0.000000 -1.000000
vn 0.000100 0.000000 -1.000000
vn 0.000100 0.000000 -1.000000
vn 0.000100 -0.000000 1.000000
vn 0.000100 -0.000000 1.000000
vn 0.379995 -0.000000 0.924988
vn 0.714369 -0.000000 0.699769
vn 0.379995 -0.000000 0.924988
vn 0.000100 -0.000000 1.000000
vn 0.714369 -0.000000 0.699769
vn 0.931629 -0.000000 0.363411
vn 0.931629 -0.000000 0.363411
vn 1.000000 -0.000000 0.000100
vn 1.000000 -0.000000 0.000100
vn 1.000000 -0.000000 0.000100
vn 0.189400 -0.000000 0.981900
vn 0.182791 -0.000000 0.983152
vn 0.189400 -0.000000 0.981900
vn 0.182791 -0.000000 0.983152
vn 0.175206 -0.000000 0.984532
vn 0.155295 -0.000000 0.987868
vn 0.175206 -0.000000 0.984532
vn 0.175206 -0.000000 0.984532
vn 0.155295 -0.000000 0.987868
vn 0.155295 -0.000000 0.987868
vn 0.059502 -0.000000 0.998228
vn 0.175206 -0.000000 0.984532
vn 0.059502 -0.000000 0.998228
vn -0.046002 -0.000000 0.998941
vn -0.046002 -0.000000 0.998941
vn -0.152207 -0.000000 0.988349
vn -0.152207 -0.000000 0.988349
vn -0.191402 -0.000000 0.981512
vn -0.191402 -0.000000 0.981512
vn -0.209502 -0.000000 0.977808
vn -0.209502 -0.000000 0.977808
vn -0.226597 -0.000000 0.973989
vn -0.226597 -0.000000 0.973989
vn -0.209502 -0.000000 0.977808
vn -0.226597 -0.000000 0.973989
vn -0.209502 -0.000000 0.977808
vn -0.209502 -0.000000 0.977808
vn -0.191402 -0.000000 0.981512
vn -0.152207 -0.000000 0.988349
vn -0.191402 -0.000000 0.981512
vn -0.191402 -0.000000 0.981512
vn 0.182791 -0.000000 0.983152
vn 0.175206 -0.000000 0.984532
vn 0.182791 -0.000000 0.983152
vn 0.189400 -0.000000 0.981900
vn 0.182791 -0.000000 0.983152
vn 0.000000 0.000000 -1.000000
vn 0.000000 0.000000 -1.000000
vn 0.000000 0.000000 -1.000000
vn 0.000000 0.000000 -1.000000
vn 1.000000 0.000000 0.000000
vn 1.000000 0.000000 0.000000
vn 1.000000 0.000000 0.000000
vn 1.000000 0.000000 0.000000
vn 0.000000 0.000000 -1.000000
vn 0.000000 0.000000 -1.000000
vn 0.000000 0.000000 -1.000000
vn 0.000000 0.000000 -1.000000
vn 0.000000 0.000000 -1.000000
vn -0.000100 0.000000 -1.000000
vn -0.000100 0.000000 -1.000000
vn -0.741810 0.000000 -0.670610
vn -0.963170 0.000000 -0.268892
vn -0.741810 0.000000 -0.670610
vn -0.000100 0.000000 -1.000000
vn -0.963170 0.000000 -0.268892
vn -0.994692 0.000000 -0.102899
vn -0.999670 0.000000 -0.025699
vn -0.994692 0.000000 -0.102899
vn -0.999670 0.000000 -0.025699
vn -0.999985 -0.000000 0.005500
vn -0.999985 -0.000000 0.005500
vn -0.999992 -0.000000 0.004000
vn -0.999992 -0.000000 0.004000
vn -0.998932 0.000000 -0.046201
vn -0.998932 0.000000 -0.046201
vn -0.973236 0.000000 -0.229809
vn -0.973236 -0.000100 -0.229808
vn 0.000100 0.000000 -1.000000
vn 0.000000 0.000000 -1.000000
vn 0.000000 0.000000 -1.000000
vn 0.000000 0.000000 -1.000000
vn 0.000000 0.000000 -1.000000
vn 0.000000 0.000000 -1.000000
vn 0.000000 0.000000 -1.000000
vn 0.000000 0.000000 -1.000000
vn 0.000000 0.000000 -1.000000
vn 0.000000 0.000000 -1.000000
vn 0.226597 0.000000 -0.973989
vn 0.191306 0.000000 -0.981530
vn 0.191306 0.000000 -0.981530
vn 0.226597 0.000000 -0.973989
vn 0.191306 0.000000 -0.981530
vn 0.152501 0.000000 -0.988303
vn 0.152501 0.000000 -0.988303
vn 0.044999 0.000000 -0.998987
vn 0.045099 0.000000 -0.998983
vn -0.060299 0.000000 -0.998180
vn -0.060299 0.000000 -0.998180
vn -0.153898 0.000000 -0.988087
vn -0.153996 0.000000 -0.988072
vn -0.174607 0.000000 -0.984638
vn -0.189400 0.000000 -0.981900
vn -0.174607 0.000000 -0.984638
vn -0.189400 0.000000 -0.981900
vn -0.174607 0.000000 -0.984638
vn -0.153996 0.000000 -0.988072
vn 0.152501 0.000000 -0.988303
vn 0.000000 0.000000 -1.000000
vn 0.000000 0.000000 -1.000000
vn 0.000000 0.000000 -1.000000
vn 0.000000 0.000000 -1.000000
vn 0.000000 0.000000 -1.000000
vn 0.000000 0.000000 -1.000000
vn 0.000000 0.000000 -1.000000
vn -0.000100 0.000000 -1.000000
vn -0.000100 0.000000 -1.000000
vn 0.973497 -0.000100 -0.228699
vn 0.999049 0.000000 -0.043602
vn 0.973497 0.000000 -0.228699
vn -0.000100 0.000000 -1.000000
vn 0.999049 0.000000 -0.043602
vn 0.999992 -0.000000 0.003900
vn 0.999984 -0.000000 0.005700
vn 0.999992 -0.000000 0.003900
vn 0.999984 -0.000000 0.005700
vn 0.999616 0.000000 -0.027700
vn 0.999616 0.000000 -0.027700
vn 0.994440 0.000000 -0.105304
vn 0.994440 0.000000 -0.105304
vn 0.960495 0.000000 -0.278298
vn 0.960495 0.000000 -0.278298
vn 0.711344 0.000000 -0.702844
vn 0.711344 0.000000 -0.702844
vn 0.000100 0.000000 -1.000000
vn 0.000100 0.000000 -1.000000
vn 0.000100 0.000000 -1.000000
vn 0.000000 0.000000 -1.000000
vn 0.000000 0.000000 -1.000000
vn 0.000000 0.000000 -1.000000
vn 0.000000 0.000000 -1.000000
vn 0.000000 0.000000 -1.000000
vn -1.000000 0.000000 0.000000
vn -1.000000 0.000000 0.000000
vn -1.000000 0.000000 0.000000
vn -1.000000 0.000000 0.000000
vn 0.000000 0.000000 -1.000000
vn 0.000000 0.000000 -1.000000
vn 0.000000 0.000000 -1.000000
vn 0.000000 0.000000 -1.000000
vn 1.000000 0.000000 0.000000
vn 1.000000 0.000000 0.000000
vn 1.000000 0.000000 0.000000
vn 1.000000 0.000000 0.000000
vn 0.000000 0.000000 -1.000000
vn 0.000000 0.000000 -1.000000
vn 0.000000 0.000000 -1.000000
vn 0.000000 0.000000 -1.000000
vn 0.000000 0.000000 -1.000000
vn -0.000100 0.000000 -1.000000
vn -0.000100 0.000000 -1.000000
vn -0.741810 0.000000 -0.670610
vn -0.963170 0.000000 -0.268892
vn -0.741810 0.000000 -0.670610
vn -0.000100 0.000000 -1.000000
vn -0.000100 0.000000 -1.000000
vn -0.963170 0.000000 -0.268892
vn -0.994692 0.000000 -0.102899
vn -0.994692 0.000000 -0.102899
vn -0.999670 0.000000 -0.025699
vn -0.999670 0.000000 -0.025699
vn -0.999984 -0.000000 0.005600
vn -0.999992 -0.000000 0.004000
vn -0.999984 -0.000000 0.005600
vn -0.999992 -0.000000 0.004000
vn -0.998932 0.000000 -0.046201
vn -0.998932 0.000000 -0.046201
vn -0.973213 0.000000 -0.229903
vn -0.973213 0.000000 -0.229903
vn 0.000100 0.000000 -1.000000
vn 0.000000 0.000000 -1.000000
vn 0.000000 0.000000 -1.000000
vn -0.000100 -0.000000 1.000000
vn -0.379910 -0.000000 0.925024
vn -0.000100 -0.000000 1.000000
vn -0.379910 -0.000000 0.925024
vn -0.714419 -0.000000 0.699718
vn -0.714419 -0.000000 0.699718
vn -0.931629 -0.000000 0.363411
vn -0.931629 -0.000000 0.363411
vn -1.000000 0.000000 0.000000
vn -1.000000 0.000000 0.000000
vn -0.925024 0.000000 -0.379910
vn -0.925024 0.000000 -0.379910
vn -0.700274 0.000000 -0.713874
vn -0.699819 0.000000 -0.714320
vn -0.363498 0.000000 -0.931595
vn -0.363498 0.000000 -0.931595
vn -0.179607 0.000000 -0.983738
vn -0.179607 0.000000 -0.983738
vn 0.000000 0.000000 -1.000000
vn 0.000000 0.000000 -1.000000
vn 0.000000 0.000000 -1.000000
vn 0.000000 0.000000 -1.000000
vn -0.179607 0.000000 -0.983738
vn -0.363498 0.000000 -0.931595
vn 0.000000 -0.000000 1.000000
vn 0.000000 -0.000000 1.000000
vn 0.000000 -0.000000 1.000000
vn 0.000000 -0.000000 1.000000
vn 0.000000 -0.000000 1.000000
vn 0.000000 -0.000000 1.000000
vn 0.000000 -0.000000 1.000000
vn 0.000000 -0.000000 1.000000
vn 0.000000 -0.000000 1.000000
vn 0.000000 -0.000000 1.000000
vn 0.000000 -0.000000 1.000000
vn 0.000000 -0.000000 1.000000
vn 0.000000 -0.000000 1.000000
vn 0.189400 -0.000000 0.981900
vn 0.175303 -0.000000 0.984515
vn 0.175091 -0.000000 0.984552
vn 0.189400 -0.000000 0.981900
vn 0.175303 -0.000000 0.984515
vn 0.155295 -0.000000 0.987868
vn 0.155197 -0.000000 0.987883
vn 0.059502 -0.000000 0.998228
vn 0.059502 -0.000000 0.998228
vn -0.046002 -0.000000 0.998941
vn -0.152192 -0.000000 0.988351
vn -0.152207 -0.000000 0.988349
vn -0.046002 -0.000000 0.998941
vn -0.152207 -0.000000 0.988349
vn -0.191191 -0.000000 0.981553
vn -0.226597 -0.000000 0.973989
vn -0.191191 -0.000000 0.981553
vn -0.226597 -0.000000 0.973989
vn -0.191191 -0.000000 0.981553
vn 0.155295 -0.000000 0.987868
vn 0.000000 -0.000000 1.000000
vn 0.000000 -0.000000 1.000000
vn 0.000000 -0.000000 1.000000
vn 0.000000 -0.000000 1.000000
vn 0.000000 -0.000000 1.000000
vn 0.000000 -0.000000 1.000000
vn 0.000000 -0.000000 1.000000
vn 0.000000 -0.000000 1.000000
vn 0.000000 -0.000000 1.000000
vn 0.000000 -0.000000 1.000000
vn 0.000000 -0.000000 1.000000
vn 0.000000 -0.000000 1.000000
vn 0.000000 -0.000000 1.000000
vn 0.000100 0.000000 -1.000000
vn 0.000100 0.000000 -1.000000
vn 0.383223 0.000000 -0.923656
vn 0.707107 0.000000 -0.707107
vn 0.383600 0.000000 -0.923499
vn 0.000100 0.000000 -1.000000
vn 0.707107 0.000000 -0.707107
vn 0.924288 0.000000 -0.381695
vn 0.924288 0.000000 -0.381695
vn 1.000000 0.000000 -0.000200
vn 1.000000 0.000000 -0.000200
vn 0.923656 -0.000000 0.383223
vn 0.923656 -0.000000 0.383223
vn 0.706907 -0.000000 0.707307
vn 0.706907 -0.000000 0.707307
vn 0.381781 -0.000000 0.924253
vn 0.381781 -0.000000 0.924253
vn 0.000100 -0.000000 1.000000
vn 0.000100 -0.000000 1.000000
vn -0.000100 0.000000 -1.000000
vn -0.000100 0.000000 -1.000000
vn 0.973497 -0.000100 -0.228699
vn 0.999049 0.000000 -0.043602
vn 0.973497 0.000000 -0.228699
vn 0.999049 0.000000 -0.043602
vn -0.000100 0.000000 -1.000000
vn 0.999992 -0.000000 0.003900
vn 0.999992 -0.000000 0.003900
vn 0.999984 -0.000000 0.005700
vn 0.999984 -0.000000 0.005700
vn 0.999616 0.000000 -0.027700
vn 0.994440 0.000000 -0.105304
vn 0.999616 0.000000 -0.027700
vn 0.994440 0.000000 -0.105304
vn 0.960495 0.000000 -0.278298
vn 0.960495 0.000000 -0.278298
vn 0.711344 0.000000 -0.702844
vn 0.711344 0.000000 -0.702844
vn 0.000100 0.000000 -1.000000
vn 0.000100 0.000000 -1.000000
vn 0.000100 0.000000 -1.000000
vn 0.000000 0.000000 -1.000000
vn 0.000000 0.000000 -1.000000
vn 0.000000 0.000000 -1.000000
vn 0.000000 0.000000 -1.000000
vn 0.000000 0.000000 -1.000000
vn -1.000000 0.000000 0.000000
vn -1.000000 0.000000 0.000000
vn -1.000000 0.000000 0.000000
vn -1.000000 0.000000 0.000000
vn 0.000000 -1.000000 -0.000000
vn 0.000000 -1.000000 -0.000000
vn 0.000000 -1.000000 -0.000000
vn 0.000000 -1.000000 -0.000000
vn 0.000000 -1.000000 -0.000000
vn 0.000000 -1.000000 -0.000000
vn 0.000000 -1.000000 -0.000000
vn 0.000000 -1.000000 -0.000000
vn 0.000000 -1.000000 -0.000000
vn 0.000000 -1.000000 -0.000000
vn 0.000000 -1.000000 -0.000000
vn 0.000000 -1.000000 -0.000000
vn 0.000000 -1.000000 -0.000000
vn 0.000000 -1.000000 -0.000000
vn 0.000000 -1.000000 -0.000000
vn 0.000000 -1.000000 -0.000000
vn 0.000000 -1.000000 -0.000000
vn 0.000000 -1.000000 -0.000000
vn 0.000000 -1.000000 -0.000000
vn 0.000000 -1.000000 -0.000000
vn 0.000000 -1.000000 -0.000000
vn 0.000000 -1.000000 -0.000000
vn 0.000000 -1.000000 -0.000000
vn 0.000000 -1.000000 -0.000000
vn 0.000000 -1.000000 -0.000000
vn 0.000000 -1.000000 -0.000000
vn 0.000000 -1.000000 -0.000000
vn 0.000000 -1.000000 -0.000000
vn 0.000000 -1.000000 -0.000000
vn 0.000000 -1.000000 -0.000000
vn 0.000000 -1.000000 -0.000000
vn 0.000000 -1.000000 -0.000000
vn 0.000000 -1.000000 -0.000000
vn 0.000000 -1.000000 -0.000000
vn 0.000000 -1.000000 -0.000000
vn 0.000000 -1.000000 -0.000000
vn 0.000000 -1.000000 -0.000000
vn 0.000000 -1.000000 -0.000000
vn 0.000000 -1.000000 -0.000000
vn 0.000000 -1.000000 -0.000000
vn 0.000000 -1.000000 -0.000000
vn 0.000000 -1.000000 -0.000000
vn 0.000000 -1.000000 -0.000000
vn 0.000000 -1.000000 -0.000000
vn 0.000000 -1.000000 -0.000000
vn 0.000000 -1.000000 -0.000000
vn 0.000000 -1.000000 -0.000000
vn 0.000000 -1.000000 -0.000000
vn 0.000000 -1.000000 -0.000000
vn 0.000000 -1.000000 -0.000000
vn 0.000000 -1.000000 -0.000000
vn 0.000000 -1.000000 -0.000000
vn 0.000000 -1.000000 -0.000000
vn 0.000000 -1.000000 -0.000000
vn 0.000000 -1.000000 -0.000000
vn 0.000000 -1.000000 -0.000000
vn 0.000000 -1.000000 -0.000000
vn 0.000000 -1.000000 -0.000000
vn 0.000000 -1.000000 -0.000000
vn 0.000000 -1.000000 -0.000000
vn 0.000000 -1.000000 -0.000000
vn 0.000000 -1.000000 -0.000000
vn 0.000000 -1.000000 -0.000000
vn 0.000000 -1.000000 -0.000000
vn 0.000000 -1.000000 -0.000000
vn 0.000000 -1.000000 -0.000000
vn 0.000000 -1.000000 -0.000000
vn 0.000000 -1.000000 -0.000000
vn 0.000000 -1.000000 -0.000000
vn 0.000000 -1.000000 -0.000000
vn 0.000000 -1.000000 -0.000000
vn 0.000000 -1.000000 -0.000000
vn 0.000000 -1.000000 -0.000000
vn 0.000000 -1.000000 -0.000000
vn 0.000000 -1.000000 -0.000000
vn 0.000000 -1.000000 -0.000000
vn 0.000000 -1.000000 -0.000000
vn 0.000000 -1.000000 -0.000000
vn 0.000000 -1.000000 -0.000000
vn 0.000000 -1.000000 -0.000000
vn 0.000000 -1.000000 -0.000000
vn 0.000000 -1.000000 -0.000000
vn 0.000000 -1.000000 -0.000000
vn 0.000000 -1.000000 -0.000000
vn 0.000000 -1.000000 -0.000000
vn 0.000000 -1.000000 -0.000000
vn 0.000000 -1.000000 -0.000000
vn 0.000000 -1.000000 -0.000000
vn 0.000000 -1.000000 -0.000000
vn 0.000000 -1.000000 -0.000000
vn 0.000000 -1.000000 -0.000000
vn 0.000000 -1.000000 -0.000000
f 1//1 3//3 2//2
f 3//3 1//1 4//4
f 5//5 3//3 4//4
f 5//5 4//4 6//6
f 5//5 6//6 7//7
f 7//7 6//6 8//8
f 9//9 7//7 8//8
f 9//9 8//8 10//10
f 11//11 10//10 8//8
f 10//10 11//11 12//12
f 13//13 14//14 5//5
f 14//14 3//3 5//5
f 14//14 13//13 15//15
f 17//17 16//16 15//15
f 17//17 15//15 13//13
f 16//16 17//17 18//18
f 20//20 19//19 18//18
f 19//19 16//16 18//18
f 19//19 20//20 21//21
f 21//21 20//20 22//22
f 21//21 22//22 23//23
f 26//26 23//23 24//24
f 24//24 23//23 25//25
f 26//26 21//21 23//23
f 25//25 27//27 24//24
f 28//28 24//24 27//27
f 28//28 27//27 29//29
f 32//32 29//29 30//30
f 29//29 31//31 30//30
f 31//31 29//29 33//33
f 29//29 32//32 28//28
f 33//33 34//34 31//31
f 34//34 35//35 31//31
f 35//35 37//37 31//31
f 36//36 37//37 35//35
f 36//36 38//38 37//37
f 38//38 39//39 37//37
f 39//39 40//40 37//37
f 41//41 40//40 39//39
f 42//42 32//32 30//30
f 32//32 43//43 28//28
f 44//44 28//28 43//43
f 44//44 43//43 45//45
f 46//46 45//45 43//43
f 47//47 44//44 45//45
f 44//44 47//47 48//48
f 48//48 47//47 49//49
f 48//48 49//49 50//50
f 49//49 51//51 50//50
f 49//49 52//52 51//51
f 52//52 54//54 51//51
f 53//53 54//54 52//52
f 55//55 54//54 53//53
f 56//56 54//54 55//55
f 56//56 55//55 57//57
f 56//56 57//57 58//58
f 57//57 59//59 58//58
f 62//62 60//60 59//59
f 59//59 57//57 61//61
f 61//61 62//62 59//59
f 63//63 60//60 62//62
f 62//62 64//64 63//63
f 63//63 64//64 65//65
f 67//67 65//65 64//64
f 66//66 67//67 64//64
f 67//67 68//68 65//65
f 68//68 69//69 65//65
f 70//70 69//69 68//68
f 71//71 73//73 70//70
f 70//70 72//72 71//71
f 70//70 73//73 69//69
f 74//74 75//75 72//72
f 71//71 72//72 75//75
f 75//75 74//74 76//76
f 75//75 76//76 19//19
f 76//76 16//16 19//19
f 77//77 76//76 74//74
f 55//55 53//53 78//78
f 42//42 30//30 79//79
f 30//30 80//80 79//79
f 81//81 80//80 30//30
f 82//82 80//80 81//81
f 83//83 82//82 81//81
f 83//83 81//81 84//84
f 85//85 84//84 81//81
f 84//84 85//85 86//86
f 87//87 2//2 3//3
f 87//87 89//89 88//88
f 88//88 2//2 87//87
f 89//89 90//90 88//88
f 90//90 91//91 88//88
f 92//92 91//91 90//90
f 94//94 95//95 93//93
f 99//99 96//96 95//95
f 99//99 95//95 97//97
f 95//95 94//94 97//97
f 98//98 97//97 94//94
f 100//100 101//101 96//96
f 100//100 96//96 99//99
f 102//102 103//103 101//101
f 102//102 101//101 100//100
f 104//104 105//105 103//103
f 104//104 103//103 102//102
f 106//106 107//107 105//105
f 106//106 105//105 104//104
f 108//108 109//109 107//107
f 108//108 107//107 106//106
f 109//109 108//108 111//111
f 110//110 111//111 108//108
f 111//111 112//112 109//109
f 113//113 114//114 116//116
f 114//114 113//113 115//115
f 119//119 117//117 116//116
f 119//119 116//116 114//114
f 119//119 118//118 117//117
f 121//121 119//119 120//120
f 120//120 119//119 114//114
f 120//120 114//114 130//130
f 118//118 119//119 121//121
f 122//122 121//121 123//123
f 121//121 122//122 118//118
f 123//123 121//121 125//125
f 121//121 124//124 125//125
f 124//124 121//121 120//120
f 125//125 124//124 126//126
f 126//126 124//124 128//128
f 126//126 128//128 127//127
f 129//129 127//127 128//128
f 129//129 128//128 115//115
f 124//124 120//120 130//130
f 124//124 130//130 128//128
f 130//130 115//115 128//128
f 130//130 114//114 115//115
f 131//131 132//132 122//122
f 131//131 122//122 123//123
f 131//131 133//133 132//132
f 133//133 131//131 134//134
f 134//134 135//135 133//133
f 135//135 134//134 136//136
f 137//137 138//138 135//135
f 137//137 135//135 136//136
f 139//139 138//138 137//137
f 138//138 139//139 140//140
f 142//142 140//140 141//141
f 143//143 141//141 140//140
f 140//140 142//142 138//138
f 143//143 144//144 141//141
f 141//141 144//144 145//145
f 141//141 145//145 146//146
f 147//147 146//146 145//145
f 132//132 133//133 147//147
f 133//133 146//146 147//147
f 146//146 133//133 148//148
f 142//142 141//141 146//146
f 142//142 146//146 148//148
f 133//133 135//135 148//148
f 138//138 142//142 148//148
f 138//138 148//148 135//135
f 150//150 151//151 149//149
f 155//155 152//152 151//151
f 155//155 151//151 153//153
f 151//151 150//150 153//153
f 154//154 153//153 150//150
f 156//156 157//157 152//152
f 156//156 152//152 155//155
f 157//157 156//156 159//159
f 158//158 159//159 156//156
f 159//159 160//160 157//157
f 162//162 163//163 161//161
f 167//167 164//164 163//163
f 167//167 163//163 165//165
f 163//163 162//162 165//165
f 166//166 165//165 162//162
f 168//168 169//169 164//164
f 168//168 164//164 167//167
f 169//169 168//168 171//171
f 170//170 171//171 168//168
f 171//171 172//172 169//169
f 173//173 174//174 176//176
f 174//174 173//173 175//175
f 179//179 177//177 176//176
f 179//179 176//176 174//174
f 179//179 178//178 177//177
f 181//181 179//179 180//180
f 180//180 179//179 174//174
f 180//180 174//174 208//208
f 178//178 179//179 181//181
f 181//181 183//183 178//178
f 185//185 181//181 182//182
f 181//181 184//184 182//182
f 183//183 181//181 185//185
f 184//184 181//181 180//180
f 186//186 187//187 183//183
f 186//186 183//183 185//185
f 186//186 188//188 187//187
f 188//188 186//186 189//189
f 189//189 190//190 188//188
f 190//190 189//189 191//191
f 192//192 193//193 190//190
f 192//192 190//190 191//191
f 194//194 193//193 192//192
f 193//193 194//194 195//195
f 195//195 196//196 193//193
f 197//197 198//198 196//196
f 197//197 196//196 195//195
f 197//197 199//199 198//198
f 198//198 199//199 200//200
f 198//198 200//200 202//202
f 201//201 202//202 200//200
f 188//188 202//202 201//201
f 202//202 188//188 203//203
f 196//196 198//198 202//202
f 196//196 202//202 203//203
f 188//188 190//190 203//203
f 193//193 196//196 203//203
f 193//193 203//203 190//190
f 187//187 188//188 201//201
f 184//184 180//180 208//208
f 184//184 208//208 204//204
f 205//205 184//184 204//204
f 205//205 204//204 206//206
f 182//182 184//184 205//205
f 207//207 206//206 204//204
f 207//207 204//204 175//175
f 208//208 175//175 204//204
f 208//208 174//174 175//175
f 210//210 212//212 211//211
f 210//210 211//211 209//209
f 214//214 216//216 215//215
f 214//214 215//215 213//213
f 218//218 217//217 219//219
f 220//220 221//221 219//219
f 218//218 219//219 221//221
f 223//223 224//224 222//222
f 228//228 225//225 224//224
f 228//228 224//224 226//226
f 224//224 223//223 226//226
f 227//227 226//226 223//223
f 229//229 231//231 225//225
f 229//229 225//225 228//228
f 230//230 232//232 231//231
f 230//230 231//231 229//229
f 234//234 233//233 232//232
f 234//234 232//232 230//230
f 236//236 235//235 233//233
f 236//236 233//233 234//234
f 238//238 237//237 235//235
f 238//238 235//235 236//236
f 240//240 239//239 237//237
f 240//240 237//237 238//238
f 239//239 240//240 241//241
f 241//241 242//242 239//239
f 243//243 241//241 240//240
f 245//245 249//249 246//246
f 245//245 246//246 244//244
f 247//247 246//246 248//248
f 246//246 249//249 248//248
f 248//248 249//249 250//250
f 251//251 254//254 252//252
f 252//252 253//253 251//251
f 255//255 252//252 254//254
f 256//256 257//257 252//252
f 256//256 252//252 255//255
f 258//258 257//257 256//256
f 260//260 261//261 259//259
f 260//260 259//259 258//258
f 259//259 257//257 258//258
f 260//260 262//262 261//261
f 262//262 260//260 263//263
f 264//264 266//266 262//262
f 264//264 262//262 263//263
f 264//264 265//265 266//266
f 267//267 266//266 265//265
f 266//266 267//267 268//268
f 266//266 268//268 269//269
f 266//266 269//269 262//262
f 261//261 262//262 269//269
f 257//257 259//259 270//270
f 257//257 270//270 253//253
f 257//257 253//253 252//252
f 272//272 271//271 273//273
f 275//275 273//273 274//274
f 273//273 275//275 272//272
f 277//277 272//272 275//275
f 277//277 275//275 276//276
f 279//279 280//280 278//278
f 284//284 281//281 280//280
f 284//284 280//280 282//282
f 280//280 279//279 282//282
f 283//283 282//282 279//279
f 285//285 287//287 281//281
f 285//285 281//281 284//284
f 286//286 288//288 287//287
f 286//286 287//287 285//285
f 290//290 289//289 288//288
f 290//290 288//288 286//286
f 292//292 291//291 289//289
f 292//292 289//289 290//290
f 294//294 293//293 291//291
f 294//294 291//291 292//292
f 296//296 295//295 293//293
f 296//296 293//293 294//294
f 295//295 296//296 297//297
f 297//297 298//298 295//295
f 299//299 297//297 296//296
f 301//301 303//303 302//302
f 301//301 302//302 300//300
f 301//301 304//304 303//303
f 306//306 308//308 307//307
f 306//306 307//307 305//305
f 310//310 312//312 311//311
f 310//310 311//311 309//309
f 314//314 316//316 315//315
f 314//314 315//315 313//313
f 318//318 317//317 319//319
f 320//320 321//321 319//319
f 318//318 319//319 321//321
f 323//323 324//324 322//322
f 329//329 325//325 324//324
f 329//329 324//324 326//326
f 326//326 324//324 327//327
f 324//324 323//323 327//327
f 327//327 328//328 326//326
f 330//330 331//331 325//325
f 330//330 325//325 329//329
f 332//332 333//333 331//331
f 332//332 331//331 330//330
f 334//334 336//336 333//333
f 334//334 333//333 332//332
f 335//335 337//337 336//336
f 335//335 336//336 334//334
f 339//339 338//338 337//337
f 339//339 337//337 335//335
f 341//341 340//340 338//338
f 341//341 338//338 339//339
f 341//341 342//342 340//340
f 342//342 343//343 340//340
f 342//342 341//341 344//344
f 346//346 345//345 347//347
f 346//346 347//347 348//348
f 349//349 350//350 346//346
f 349//349 346//346 348//348
f 351//351 352//352 350//350
f 351//351 350//350 349//349
f 353//353 354//354 352//352
f 353//353 352//352 351//351
f 355//355 356//356 354//354
f 355//355 354//354 353//353
f 357//357 358//358 356//356
f 357//357 356//356 355//355
f 357//357 359//359 358//358
f 359//359 357//357 360//360
f 361//361 362//362 359//359
f 361//361 359//359 360//360
f 364//364 362//362 361//361
f 364//364 361//361 363//363
f 364//364 365//365 362//362
f 362//362 365//365 366//366
f 362//362 366//366 367//367
f 362//362 367//367 368//368
f 362//362 368//368 359//359
f 358//358 359//359 368//368
f 369//369 372//372 370//370
f 370//370 371//371 369//369
f 373//373 370//370 372//372
f 374//374 375//375 370//370
f 374//374 370//370 373//373
f 376//376 378//378 375//375
f 376//376 375//375 374//374
f 376//376 377//377 378//378
f 379//379 378//378 377//377
f 378//378 379//379 380//380
f 378//378 380//380 381//381
f 378//378 381//381 375//375
f 375//375 381//381 371//371
f 375//375 371//371 370//370
f 382//382 385//385 383//383
f 383//383 384//384 382//382
f 386//386 383//383 385//385
f 387//387 388//388 383//383
f 387//387 383//383 386//386
f 389//389 388//388 387//387
f 391//391 394//394 390//390
f 391//391 390//390 389//389
f 390//390 388//388 389//389
f 391//391 392//392 394//394
f 392//392 391//391 393//393
f 394//394 392//392 395//395
f 398//398 396//396 395//395
f 398//398 395//395 392//392
f 398//398 397//397 396//396
f 397//397 398//398 399//399
f 400//400 399//399 398//398
f 400//400 398//398 392//392
f 400//400 392//392 393//393
f 388//388 390//390 401//401
f 388//388 401//401 384//384
f 388//388 384//384 383//383
f 402//402 405//405 403//403
f 403//403 404//404 402//402
f 406//406 403//403 405//405
f 407//407 408//408 403//403
f 407//407 403//403 406//406
f 409//409 411//411 408//408
f 409//409 408//408 407//407
f 409//409 410//410 411//411
f 412//412 411//411 410//410
f 411//411 412//412 413//413
f 411//411 413//413 414//414
f 411//411 414//414 408//408
f 408//408 414//414 404//404
f 408//408 404//404 403//403
f 416//416 417//417 415//415
f 421//421 418//418 417//417
f 421//421 417//417 419//419
f 419//419 417//417 416//416
f 416//416 420//420 419//419
f 422//422 423//423 418//418
f 422//422 418//418 421//421
f 424//424 425//425 423//423
f 424//424 423//423 422//422
f 426//426 427//427 425//425
f 426//426 425//425 424//424
f 428//428 429//429 427//427
f 428//428 427//427 426//426
f 430//430 431//431 429//429
f 430//430 429//429 428//428
f 433//433 431//431 430//430
f 433//433 430//430 432//432
f 435//435 436//436 434//434
f 439//439 437//437 436//436
f 439//439 436//436 438//438
f 436//436 435//435 438//438
f 440//440 438//438 435//435
f 441//441 442//442 437//437
f 441//441 437//437 439//439
f 443//443 444//444 442//442
f 443//443 442//442 441//441
f 445//445 447//447 444//444
f 445//445 444//444 443//443
f 446//446 448//448 447//447
f 446//446 447//447 445//445
f 450//450 449//449 448//448
f 450//450 448//448 446//446
f 452//452 451//451 449//449
f 452//452 449//449 450//450
f 451//451 452//452 453//453
f 453//453 454//454 451//451
f 455//455 453//453 452//452
f 457//457 460//460 458//458
f 457//457 458//458 456//456
f 456//456 458//458 459//459
f 462//462 464//464 463//463
f 462//462 463//463 461//461
f 466//466 468//468 465//465
f 465//465 467//467 466//466
f 469//469 468//468 466//466
f 469//469 470//470 468//468
f 469//469 471//471 470//470
f 471//471 472//472 470//470
f 473//473 472//472 471//471
f 473//473 474//474 472//472
f 475//475 472//472 474//474
f 474//474 476//476 475//475
f 477//477 469//469 478//478
f 478//478 469//469 466//466
f 478//478 479//479 477//477
f 480//480 477//477 479//479
f 480//480 479//479 481//481
f 481//481 482//482 480//480
f 484//484 482//482 481//481
f 483//483 484//484 481//481
f 484//484 485//485 487//487
f 486//486 484//484 483//483
f 487//487 482//482 484//484
f 485//485 488//488 487//487
f 485//485 489//489 488//488
f 492//492 490//490 489//489
f 490//490 491//491 489//489
f 492//492 489//489 485//485
f 491//491 490//490 493//493
f 494//494 493//493 490//490
f 494//494 495//495 493//493
f 496//496 499//499 495//495
f 495//495 497//497 496//496
f 498//498 497//497 495//495
f 495//495 494//494 498//498
f 499//499 496//496 500//500
f 500//500 496//496 501//501
f 501//501 496//496 503//503
f 502//502 501//501 503//503
f 506//506 503//503 504//504
f 504//504 503//503 505//505
f 502//502 503//503 506//506
f 507//507 504//504 505//505
f 508//508 497//497 498//498
f 498//498 494//494 509//509
f 510//510 509//509 494//494
f 510//510 511//511 509//509
f 512//512 509//509 511//511
f 513//513 511//511 510//510
f 510//510 514//514 513//513
f 514//514 515//515 513//513
f 514//514 517//517 515//515
f 515//515 516//516 518//518
f 515//515 517//517 516//516
f 518//518 516//516 520//520
f 519//519 518//518 520//520
f 522//522 521//521 520//520
f 521//521 519//519 520//520
f 522//522 523//523 521//521
f 522//522 524//524 523//523
f 523//523 524//524 525//525
f 528//528 525//525 526//526
f 525//525 527//527 523//523
f 527//527 525//525 528//528
f 529//529 528//528 526//526
f 528//528 529//529 530//530
f 529//529 531//531 530//530
f 533//533 530//530 531//531
f 532//532 530//530 533//533
f 533//533 531//531 534//534
f 536//536 534//534 535//535
f 534//534 531//531 535//535
f 536//536 538//538 537//537
f 538//538 536//536 539//539
f 536//536 535//535 539//539
f 538//538 486//486 537//537
f 540//540 537//537 486//486
f 541//541 540//540 483//483
f 486//486 483//483 540//540
f 521//521 542//542 519//519
f 508//508 543//543 497//497
f 497//497 543//543 544//544
f 545//545 546//546 544//544
f 546//546 497//497 544//544
f 547//547 546//546 545//545
f 547//547 548//548 546//546
f 549//549 546//546 548//548
f 548//548 550//550 549//549
f 551//551 466//466 467//467
f 552//552 551//551 467//467
f 551//551 552//552 553//553
f 553//553 552//552 554//554
f 554//554 552//552 555//555
f 556//556 554//554 555//555
