# arm_18 exported from /models/landings/arm_18.glb
# units: meters
v -0.019238 0.001000 0.005423
v -0.009176 0.001000 0.003079
v -0.019238 0.001000 0.007242
v -0.008259 0.001000 0.011353
v 0.001762 0.001000 0.012242
v -0.000188 0.001000 0.003893
v -0.000027 0.001000 0.004079
v 0.001762 0.001000 0.006242
v 0.000641 0.001000 0.004418
v 0.002762 0.001000 0.004711
v 0.003762 0.001000 0.006242
v 0.004884 0.001000 0.004418
v 0.005552 0.001000 0.004079
v 0.005712 0.001000 0.003893
v 0.007762 0.001000 0.003242
v 0.007762 0.001000 -0.006758
v 0.010991 0.001000 0.002103
v 0.009762 0.001000 0.003242
v 0.005762 0.001000 0.003711
v 0.007762 0.001000 0.019242
v 0.005762 0.001000 0.020242
v 0.003762 0.001000 0.019242
v 0.007176 0.001000 0.019949
v 0.007622 0.001000 0.019610
v 0.007729 0.001000 0.019424
v 0.004348 0.001000 0.019949
v 0.003903 0.001000 0.019610
v 0.003796 0.001000 0.019424
v 0.005762 0.001000 -0.010789
v 0.007762 0.001000 -0.014758
v 0.007762 0.001000 -0.007000
v 0.007762 0.001000 -0.006941
v 0.005712 0.001000 -0.010971
v 0.005552 0.001000 -0.011157
v 0.004884 0.001000 -0.011496
v 0.002762 0.001000 -0.011789
v 0.002762 0.001000 -0.016758
v 0.006298 0.001000 -0.016172
v 0.007411 0.001000 -0.015494
v 0.007679 0.001000 -0.015121
v -0.000773 0.001000 -0.016172
v 0.000641 0.001000 -0.011496
v -0.002238 0.001000 -0.014758
v -0.000027 0.001000 -0.011157
v -0.000188 0.001000 -0.010971
v -0.000238 0.001000 -0.010789
v -0.002238 0.001000 -0.006941
v -0.000238 0.001000 0.003711
v -0.002238 0.001000 -0.006758
v -0.005009 0.001000 -0.002577
v -0.005246 0.001000 -0.004033
v -0.004238 0.001000 -0.006758
v -0.006008 0.001000 -0.005522
v -0.004238 0.001000 -0.006941
v -0.009176 0.001000 -0.008234
v -0.004238 0.001000 -0.014758
v -0.005186 0.001000 -0.015687
v -0.004677 0.001000 -0.015465
v -0.004343 0.001000 -0.015126
v -0.004263 0.001000 -0.014940
v -0.006103 0.001000 -0.015728
v -0.005738 0.001000 -0.015758
v -0.019238 0.001000 -0.012397
v -0.019238 0.001000 -0.010577
v -0.005246 0.001000 -0.001122
v -0.006008 0.001000 0.000367
v -0.001887 0.001000 -0.015494
v -0.002154 0.001000 -0.015121
v 0.009762 0.001000 0.012242
v 0.011576 0.001000 0.013077
v 0.009762 0.001000 0.020603
v 0.013191 0.001000 0.019933
v 0.013242 0.001000 0.020603
v 0.013268 0.001000 0.020058
v 0.013321 0.001000 0.020334
v 0.011576 0.001000 -0.008871
v 0.009762 0.001000 -0.006758
v 0.009762 0.001000 -0.011758
v 0.009762 0.001000 -0.016397
v 0.013191 0.001000 -0.015727
v 0.013242 0.001000 -0.016397
v 0.013268 0.001000 -0.015852
v 0.013321 0.001000 -0.016128
v 0.005762 -0.001000 -0.010789
v 0.005762 0.001000 -0.010789
v 0.005762 -0.000000 0.003711
v 0.005762 -0.001000 0.003711
v 0.005762 0.001000 0.003711
v -0.000238 -0.001000 0.003711
v -0.000238 -0.000000 0.003711
v -0.000238 -0.001000 -0.010789
v -0.000238 0.000000 -0.010789
v -0.000238 0.001000 -0.010789
v -0.000238 0.001000 0.003711
v -0.000238 -0.001000 -0.010789
v -0.000238 0.000000 -0.010789
v -0.000208 -0.000500 -0.010930
v -0.000188 -0.001000 -0.010971
v -0.000027 -0.001000 -0.011157
v -0.000112 -0.000500 -0.011076
v -0.000112 0.000000 -0.011076
v 0.000055 -0.000500 -0.011220
v 0.000055 0.000000 -0.011220
v 0.000293 -0.000500 -0.011357
v 0.000641 -0.001000 -0.011496
v 0.000293 0.000000 -0.011357
v 0.000293 0.000500 -0.011357
v 0.000641 0.001000 -0.011496
v -0.000027 0.001000 -0.011157
v 0.001658 0.001000 -0.011719
v 0.001658 -0.001000 -0.011719
v 0.002762 0.001000 -0.011789
v 0.003867 0.001000 -0.011719
v 0.002762 -0.001000 -0.011789
v 0.003867 -0.001000 -0.011719
v 0.004884 -0.001000 -0.011496
v 0.005552 -0.001000 -0.011157
v 0.004884 0.001000 -0.011496
v 0.005244 0.000000 -0.011351
v 0.005244 -0.000500 -0.011351
v 0.005477 -0.000500 -0.011215
v 0.005477 0.000000 -0.011215
v 0.005639 -0.000500 -0.011072
v 0.005712 -0.001000 -0.010971
v 0.005639 0.000000 -0.011072
v 0.005733 -0.000500 -0.010929
v 0.005762 -0.001000 -0.010789
v 0.005733 0.000000 -0.010929
v 0.005762 0.001000 -0.010789
v 0.005733 0.000500 -0.010929
v 0.005639 0.000500 -0.011072
v 0.005712 0.001000 -0.010971
v 0.005552 0.001000 -0.011157
v 0.005477 0.000500 -0.011215
v 0.005244 0.000500 -0.011351
v -0.000188 0.001000 -0.010971
v -0.000112 0.000500 -0.011076
v 0.000055 0.000500 -0.011220
v -0.000208 0.000500 -0.010930
v -0.000208 0.000000 -0.010930
v -0.000238 0.001000 -0.010789
v -0.000238 0.001000 0.003711
v -0.000208 0.000500 0.003851
v -0.000188 0.001000 0.003893
v -0.000238 -0.000000 0.003711
v -0.000208 -0.000000 0.003851
v -0.000208 -0.000500 0.003851
v -0.000238 -0.001000 0.003711
v -0.000188 -0.001000 0.003893
v -0.000115 -0.000500 0.003994
v -0.000027 -0.001000 0.004079
v 0.000641 -0.001000 0.004418
v 0.000048 -0.000500 0.004137
v 0.000281 -0.000500 0.004273
v 0.000048 -0.000000 0.004137
v 0.000048 0.000500 0.004137
v 0.000281 -0.000000 0.004273
v -0.000115 -0.000000 0.003994
v -0.000115 0.000500 0.003994
v -0.000027 0.001000 0.004079
v 0.000641 0.001000 0.004418
v 0.000281 0.000500 0.004273
v 0.001658 0.001000 0.004641
v 0.002762 0.001000 0.004711
v 0.001658 -0.001000 0.004641
v 0.002762 -0.001000 0.004711
v 0.003867 -0.001000 0.004641
v 0.004884 -0.001000 0.004418
v 0.003867 0.001000 0.004641
v 0.004884 0.001000 0.004418
v 0.005231 -0.000000 0.004279
v 0.005552 0.001000 0.004079
v 0.005231 0.000500 0.004279
v 0.005470 0.000500 0.004142
v 0.005470 -0.000000 0.004142
v 0.005636 0.000500 0.003998
v 0.005636 -0.000000 0.003998
v 0.005712 0.001000 0.003893
v 0.005732 0.000500 0.003852
v 0.005762 -0.000000 0.003711
v 0.005732 -0.000000 0.003852
v 0.005762 0.001000 0.003711
v 0.005732 -0.000500 0.003852
v 0.005762 -0.001000 0.003711
v 0.005712 -0.001000 0.003893
v 0.005636 -0.000500 0.003998
v 0.005552 -0.001000 0.004079
v 0.005470 -0.000500 0.004142
v 0.005231 -0.000500 0.004279
v -0.019238 0.001000 -0.012397
v -0.012766 0.000000 -0.014936
v -0.012766 0.001000 -0.014936
v -0.019238 -0.001000 -0.012397
v -0.012766 -0.001000 -0.014936
v -0.009402 -0.001000 -0.015455
v -0.006103 -0.001000 -0.015728
v -0.009402 0.000000 -0.015455
v -0.006103 0.000000 -0.015728
v -0.009402 0.001000 -0.015455
v -0.006103 0.001000 -0.015728
v 0.009762 0.001000 0.020603
v 0.009762 -0.001000 0.020603
v 0.009762 0.001000 0.003242
v 0.009762 -0.001000 0.003242
v 0.001762 0.001000 0.012242
v -0.003187 -0.000000 0.012181
v -0.003187 0.001000 0.012181
v 0.001762 -0.001000 0.012242
v -0.003187 -0.001000 0.012181
v -0.008936 -0.001000 0.011215
v -0.008936 -0.000000 0.011215
v -0.014280 -0.001000 0.009784
v -0.019238 -0.001000 0.007242
v -0.014280 -0.000000 0.009784
v -0.019238 0.001000 0.007242
v -0.014280 0.001000 0.009784
v -0.008936 0.001000 0.011215
v 0.007762 0.001000 0.019242
v 0.007494 0.001000 0.019742
v 0.007762 -0.001000 0.019242
v 0.007494 -0.001000 0.019742
v 0.006972 -0.001000 0.020039
v 0.006972 0.001000 0.020039
v 0.006376 -0.001000 0.020194
v 0.006376 0.001000 0.020194
v 0.005762 -0.001000 0.020242
v 0.005762 0.001000 0.020242
v 0.005160 -0.001000 0.020196
v 0.005160 0.001000 0.020196
v 0.004571 -0.001000 0.020046
v 0.004571 0.001000 0.020046
v 0.004035 -0.001000 0.019746
v 0.004035 0.001000 0.019746
v 0.003762 -0.001000 0.019242
v 0.003762 -0.000000 0.019242
v 0.003762 0.001000 0.019242
v -0.002238 0.001000 -0.014758
v -0.002238 0.000000 -0.014758
v -0.001430 0.001000 -0.015847
v -0.001430 -0.001000 -0.015847
v -0.000113 0.001000 -0.016394
v -0.000113 -0.001000 -0.016394
v 0.001311 0.001000 -0.016671
v 0.001311 -0.001000 -0.016671
v 0.002762 0.001000 -0.016758
v 0.002762 -0.001000 -0.016758
v 0.004197 0.001000 -0.016673
v 0.004197 -0.001000 -0.016673
v 0.005614 0.001000 -0.016400
v 0.005614 -0.001000 -0.016400
v 0.006976 0.001000 -0.015834
v 0.006976 -0.001000 -0.015834
v 0.007762 0.001000 -0.014758
v 0.007762 -0.001000 -0.014758
v -0.002238 -0.001000 -0.014758
v 0.001762 -0.001000 0.012242
v 0.001762 0.001000 0.012242
v 0.001762 -0.001000 0.006242
v 0.001762 0.001000 0.006242
v 0.001762 -0.001000 0.006242
v 0.001762 0.001000 0.006242
v 0.003762 -0.001000 0.006242
v 0.003762 0.001000 0.006242
v 0.007762 -0.001000 0.019242
v 0.007762 0.001000 0.019242
v 0.007762 -0.001000 0.003242
v 0.007762 0.001000 0.003242
v 0.007762 -0.001000 0.003242
v 0.007762 0.001000 0.003242
v 0.009762 -0.001000 0.003242
v 0.009762 0.001000 0.003242
v 0.009762 -0.001000 -0.006758
v 0.009762 0.001000 -0.006758
v 0.007762 -0.001000 -0.006758
v 0.007762 0.001000 -0.006758
v 0.007762 -0.001000 -0.006758
v 0.007762 0.001000 -0.006758
v 0.007762 -0.001000 -0.014758
v 0.007762 0.001000 -0.014758
v -0.002238 -0.001000 -0.014758
v -0.002238 -0.001000 -0.006758
v -0.002238 0.000000 -0.014758
v -0.002238 0.001000 -0.014758
v -0.002238 0.001000 -0.006758
v -0.002238 -0.001000 -0.006758
v -0.002238 0.001000 -0.006758
v -0.004238 -0.001000 -0.006758
v -0.004238 0.001000 -0.006758
v -0.004238 -0.001000 -0.006758
v -0.004238 0.001000 -0.006758
v -0.004238 -0.001000 -0.014758
v -0.004238 0.001000 -0.014758
v 0.003762 0.001000 0.019242
v 0.003762 0.001000 0.006242
v 0.003762 -0.000000 0.019242
v 0.003762 -0.001000 0.006242
v 0.003762 -0.001000 0.019242
v 0.009762 0.001000 -0.006758
v 0.009762 -0.001000 -0.006758
v 0.009762 0.001000 -0.016397
v 0.009762 -0.001000 -0.016397
v 0.013191 -0.001000 0.019933
v 0.012303 -0.001000 0.017395
v 0.012654 -0.000500 0.018664
v 0.013191 -0.000500 0.019933
v 0.013191 -0.000000 0.019933
v 0.013191 0.000500 0.019933
v 0.012654 -0.000000 0.018664
v 0.012151 -0.000000 0.016716
v 0.012654 0.000500 0.018664
v 0.012151 0.000500 0.016716
v 0.013191 0.001000 0.019933
v 0.012303 0.001000 0.017395
v 0.011576 0.001000 0.013077
v 0.011130 0.001000 0.007664
v 0.011576 -0.001000 0.013077
v 0.011130 -0.001000 0.007664
v 0.012151 -0.000500 0.016716
v 0.010991 -0.001000 0.002103
v 0.011130 -0.001000 -0.003458
v 0.010991 0.001000 0.002103
v 0.011130 0.001000 -0.003458
v 0.011576 0.001000 -0.008871
v 0.011576 -0.001000 -0.008872
v 0.012151 0.000000 -0.012508
v 0.012151 0.000500 -0.012508
v 0.012303 0.001000 -0.013190
v 0.012654 0.000500 -0.014457
v 0.013191 0.001000 -0.015727
v 0.013191 0.000500 -0.015727
v 0.013191 0.000000 -0.015727
v 0.012654 0.000000 -0.014457
v 0.013191 -0.000500 -0.015727
v 0.012654 -0.000500 -0.014457
v 0.013191 -0.001000 -0.015727
v 0.012303 -0.001000 -0.013190
v 0.012151 -0.000500 -0.012508
v 0.013191 -0.001000 -0.015727
v 0.013191 -0.000500 -0.015727
v 0.013268 -0.001000 -0.015852
v 0.013268 -0.000500 -0.015852
v 0.013268 0.000000 -0.015852
v 0.013191 0.000000 -0.015727
v 0.013268 0.000500 -0.015852
v 0.013268 0.001000 -0.015852
v 0.013191 0.000500 -0.015727
v 0.013191 0.001000 -0.015727
v 0.013242 -0.001000 -0.016397
v 0.013242 -0.000333 -0.016397
v 0.013321 -0.001000 -0.016128
v 0.013268 -0.000500 -0.015852
v 0.013268 -0.001000 -0.015852
v 0.013321 0.001000 -0.016128
v 0.013268 0.000000 -0.015852
v 0.013268 0.000500 -0.015852
v 0.013268 0.001000 -0.015852
v 0.013242 0.000333 -0.016397
v 0.013242 0.001000 -0.016397
v 0.013191 0.001000 0.019933
v 0.013191 0.000500 0.019933
v 0.013268 0.001000 0.020058
v 0.013268 0.000500 0.020058
v 0.013268 -0.000000 0.020058
v 0.013191 -0.000000 0.019933
v 0.013268 -0.000500 0.020058
v 0.013191 -0.000500 0.019933
v 0.013268 -0.001000 0.020058
v 0.013191 -0.001000 0.019933
v 0.013242 -0.001000 0.020603
v 0.013242 -0.000333 0.020603
v 0.013321 -0.001000 0.020334
v 0.013321 0.001000 0.020334
v 0.013268 -0.001000 0.020058
v 0.013268 -0.000500 0.020058
v 0.013268 -0.000000 0.020058
v 0.013268 0.000500 0.020058
v 0.013268 0.001000 0.020058
v 0.013242 0.001000 0.020603
v 0.013242 0.000333 0.020603
v 0.009762 0.001000 -0.016397
v 0.009762 -0.001000 -0.016397
v 0.013242 0.000333 -0.016397
v 0.013242 0.001000 -0.016397
v 0.013242 -0.000333 -0.016397
v 0.013242 -0.001000 -0.016397
v 0.013242 0.001000 0.020603
v 0.009762 0.001000 0.020603
v 0.013242 0.000333 0.020603
v 0.013242 -0.000333 0.020603
v 0.013242 -0.001000 0.020603
v 0.009762 -0.001000 0.020603
v -0.006103 0.001000 -0.015728
v -0.006103 0.000000 -0.015728
v -0.005635 0.001000 -0.015755
v -0.005635 -0.001000 -0.015755
v -0.005172 0.001000 -0.015684
v -0.005172 -0.001000 -0.015684
v -0.004737 0.001000 -0.015502
v -0.004737 -0.001000 -0.015502
v -0.004385 0.001000 -0.015190
v -0.004385 -0.001000 -0.015190
v -0.004238 0.001000 -0.014758
v -0.004238 -0.001000 -0.014758
v -0.006103 -0.001000 -0.015728
v -0.019238 0.001000 -0.010577
v -0.019238 0.001000 -0.012397
v -0.019238 0.000000 -0.010577
v -0.019238 -0.001000 -0.012397
v -0.019238 -0.001000 -0.010577
v -0.005009 -0.001000 -0.002577
v -0.005009 0.001000 -0.002577
v -0.005246 -0.001000 -0.001122
v -0.006008 -0.001000 0.000367
v -0.005246 0.001000 -0.001122
v -0.006008 0.001000 0.000367
v -0.007328 0.001000 0.001800
v -0.009176 0.001000 0.003079
v -0.007328 -0.001000 0.001800
v -0.009176 -0.001000 0.003079
v -0.011452 -0.001000 0.004119
v -0.011452 0.001000 0.004119
v -0.014000 -0.001000 0.004861
v -0.016649 -0.001000 0.005289
v -0.014000 0.001000 0.004861
v -0.016649 0.001000 0.005289
v -0.019238 0.001000 0.005423
v -0.019238 -0.000000 0.005423
v -0.019238 -0.001000 0.005423
v -0.019238 0.001000 0.007242
v -0.019238 -0.001000 0.007242
v -0.019238 0.001000 0.005423
v -0.019238 -0.000000 0.005423
v -0.019238 -0.001000 0.005423
v -0.019238 0.001000 -0.010577
v -0.019238 0.000000 -0.010577
v -0.016649 0.001000 -0.010444
v -0.016649 -0.001000 -0.010444
v -0.014000 0.001000 -0.010016
v -0.014000 -0.001000 -0.010016
v -0.011452 0.001000 -0.009273
v -0.009176 0.001000 -0.008234
v -0.011452 -0.001000 -0.009273
v -0.009176 -0.001000 -0.008234
v -0.007328 -0.001000 -0.006955
v -0.006008 -0.001000 -0.005522
v -0.007328 0.001000 -0.006955
v -0.006008 0.001000 -0.005522
v -0.005246 0.001000 -0.004033
v -0.005009 0.001000 -0.002577
v -0.005246 -0.001000 -0.004033
v -0.005009 -0.001000 -0.002577
v -0.019238 -0.001000 -0.010577
v -0.005009 -0.001000 -0.002577
v -0.000238 -0.001000 0.003711
v -0.005246 -0.001000 -0.001122
v -0.002238 -0.001000 -0.006758
v -0.005246 -0.001000 -0.004033
v -0.004238 -0.001000 -0.006758
v -0.006008 -0.001000 -0.005522
v -0.004238 -0.001000 -0.006941
v -0.009176 -0.001000 -0.008234
v -0.019238 -0.001000 -0.010577
v -0.019238 -0.001000 -0.012397
v -0.006103 -0.001000 -0.015728
v -0.004238 -0.001000 -0.014758
v -0.004677 -0.001000 -0.015465
v -0.004343 -0.001000 -0.015126
v -0.004263 -0.001000 -0.014940
v -0.005738 -0.001000 -0.015758
v -0.005186 -0.001000 -0.015687
v -0.002238 -0.001000 -0.006941
v -0.000238 -0.001000 -0.010789
v -0.002238 -0.001000 -0.014758
v -0.000188 -0.001000 -0.010971
v -0.000027 -0.001000 -0.011157
v 0.000641 -0.001000 -0.011496
v -0.000773 -0.001000 -0.016172
v 0.002762 -0.001000 -0.016758
v 0.002762 -0.001000 -0.011789
v 0.004884 -0.001000 -0.011496
v 0.007762 -0.001000 -0.014758
v 0.005552 -0.001000 -0.011157
v 0.006298 -0.001000 -0.016172
v 0.007411 -0.001000 -0.015494
v 0.007679 -0.001000 -0.015121
v 0.005712 -0.001000 -0.010971
v 0.005762 -0.001000 -0.010789
v 0.005762 -0.001000 0.003711
v 0.007762 -0.001000 -0.007000
v 0.007762 -0.001000 -0.006941
v 0.007762 -0.001000 -0.006758
v 0.007762 -0.001000 0.003242
v 0.010991 -0.001000 0.002103
v 0.009762 -0.001000 -0.006758
v 0.011576 -0.001000 -0.008872
v 0.009762 -0.001000 -0.011758
v 0.013191 -0.001000 -0.015727
v 0.009762 -0.001000 -0.016397
v 0.013242 -0.001000 -0.016397
v 0.013268 -0.001000 -0.015852
v 0.013321 -0.001000 -0.016128
v 0.009762 -0.001000 0.003242
v 0.011576 -0.001000 0.013077
v 0.009762 -0.001000 0.012242
v 0.009762 -0.001000 0.020603
v 0.013191 -0.001000 0.019933
v 0.013242 -0.001000 0.020603
v 0.013268 -0.001000 0.020058
v 0.013321 -0.001000 0.020334
v 0.005712 -0.001000 0.003893
v 0.005552 -0.001000 0.004079
v 0.003762 -0.001000 0.006242
v 0.007762 -0.001000 0.019242
v 0.005762 -0.001000 0.020242
v 0.003762 -0.001000 0.019242
v 0.007176 -0.001000 0.019949
v 0.007622 -0.001000 0.019610
v 0.007729 -0.001000 0.019424
v 0.004348 -0.001000 0.019949
v 0.003903 -0.001000 0.019610
v 0.003796 -0.001000 0.019424
v 0.004884 -0.001000 0.004418
v 0.001762 -0.001000 0.006242
v 0.002762 -0.001000 0.004711
v 0.000641 -0.001000 0.004418
v -0.000027 -0.001000 0.004079
v -0.000188 -0.001000 0.003893
v 0.001762 -0.001000 0.012242
v -0.008259 -0.001000 0.011353
v -0.009176 -0.001000 0.003079
v -0.019238 -0.001000 0.007242
v -0.019238 -0.001000 0.005423
v -0.006008 -0.001000 0.000367
v -0.001887 -0.001000 -0.015494
v -0.002154 -0.001000 -0.015121
vn 0.000000 1.000000 0.000000
vn 0.000000 1.000000 0.000000
vn 0.000000 1.000000 0.000000
vn 0.000000 1.000000 0.000000
vn 0.000000 1.000000 0.000000
vn 0.000000 1.000000 0.000000
vn 0.000000 1.000000 0.000000
vn 0.000000 1.000000 0.000000
vn 0.000000 1.000000 0.000000
vn 0.000000 1.000000 0.000000
vn 0.000000 1.000000 0.000000
vn 0.000000 1.000000 0.000000
vn 0.000000 1.000000 0.000000
vn 0.000000 1.000000 0.000000
vn 0.000000 1.000000 0.000000
vn 0.000000 1.000000 0.000000
vn 0.000000 1.000000 0.000000
vn 0.000000 1.000000 0.000000
vn 0.000000 1.000000 0.000000
vn 0.000000 1.000000 0.000000
vn 0.000000 1.000000 0.000000
vn 0.000000 1.000000 0.000000
vn 0.000000 1.000000 0.000000
vn 0.000000 1.000000 0.000000
vn 0.000000 1.000000 0.000000
vn 0.000000 1.000000 0.000000
vn 0.000000 1.000000 0.000000
vn 0.000000 1.000000 0.000000
vn 0.000000 1.000000 0.000000
vn 0.000000 1.000000 0.000000
vn 0.000000 1.000000 0.000000
vn 0.000000 1.000000 0.000000
vn 0.000000 1.000000 0.000000
vn 0.000000 1.000000 0.000000
vn 0.000000 1.000000 0.000000
vn 0.000000 1.000000 0.000000
vn 0.000000 1.000000 0.000000
vn 0.000000 1.000000 0.000000
vn 0.000000 1.000000 0.000000
vn 0.000000 1.000000 0.000000
vn 0.000000 1.000000 0.000000
vn 0.000000 1.000000 0.000000
vn 0.000000 1.000000 0.000000
vn 0.000000 1.000000 0.000000
vn 0.000000 1.000000 0.000000
vn 0.000000 1.000000 0.000000
vn 0.000000 1.000000 0.000000
vn 0.000000 1.000000 0.000000
vn 0.000000 1.000000 0.000000
vn 0.000000 1.000000 0.000000
vn 0.000000 1.000000 0.000000
vn 0.000000 1.000000 0.000000
vn 0.000000 1.000000 0.000000
vn 0.000000 1.000000 0.000000
vn 0.000000 1.000000 0.000000
vn 0.000000 1.000000 0.000000
vn 0.000000 1.000000 0.000000
vn 0.000000 1.000000 0.000000
vn 0.000000 1.000000 0.000000
vn 0.000000 1.000000 0.000000
vn 0.000000 1.000000 0.000000
vn 0.000000 1.000000 0.000000
vn 0.000000 1.000000 0.000000
vn 0.000000 1.000000 0.000000
vn 0.000000 1.000000 0.000000
vn 0.000000 1.000000 0.000000
vn 0.000000 1.000000 0.000000
vn 0.000000 1.000000 0.000000
vn 0.000000 1.000000 0.000000
vn 0.000000 1.000000 0.000000
vn 0.000000 1.000000 0.000000
vn 0.000000 1.000000 0.000000
vn 0.000000 1.000000 0.000000
vn 0.000000 1.000000 0.000000
vn 0.000000 1.000000 0.000000
vn 0.000000 1.000000 0.000000
vn 0.000000 1.000000 0.000000
vn 0.000000 1.000000 0.000000
vn 0.000000 1.000000 0.000000
vn 0.000000 1.000000 0.000000
vn 0.000000 1.000000 0.000000
vn 0.000000 1.000000 0.000000
vn 0.000000 1.000000 0.000000
vn -1.000000 0.000000 0.000000
vn -1.000000 0.000000 0.000000
vn -1.000000 0.000000 0.000000
vn -1.000000 0.000000 0.000000
vn -1.000000 0.000000 0.000000
vn 1.000000 0.000000 0.000000
vn 1.000000 0.000000 0.000000
vn 1.000000 0.000000 0.000000
vn 1.000000 0.000000 0.000000
vn 1.000000 0.000000 0.000000
vn 1.000000 0.000000 0.000000
vn 1.000000 -0.000000 0.000100
vn 1.000000 -0.000000 0.000100
vn 0.919197 -0.000000 0.393799
vn 0.874294 -0.000000 0.485397
vn 0.644120 -0.000000 0.764924
vn 0.744228 -0.000000 0.667925
vn 0.744228 -0.000000 0.667925
vn 0.572502 -0.000000 0.819903
vn 0.572502 -0.000000 0.819903
vn 0.434811 -0.000000 0.900522
vn 0.316198 -0.000000 0.948693
vn 0.434811 -0.000000 0.900522
vn 0.434811 -0.000000 0.900522
vn 0.316198 -0.000000 0.948693
vn 0.644120 -0.000000 0.764924
vn 0.130801 -0.000000 0.991409
vn 0.130801 -0.000000 0.991409
vn 0.000000 -0.000000 1.000000
vn -0.130801 -0.000000 0.991409
vn 0.000000 -0.000000 1.000000
vn -0.130801 -0.000000 0.991409
vn -0.316198 -0.000000 0.948693
vn -0.644071 -0.000000 0.764966
vn -0.316198 -0.000000 0.948693
vn -0.440320 -0.000000 0.897841
vn -0.440481 -0.000000 0.897762
vn -0.578017 -0.000000 0.816024
vn -0.577970 -0.000000 0.816058
vn -0.748517 -0.000000 0.663115
vn -0.874294 -0.000000 0.485397
vn -0.748517 -0.000000 0.663115
vn -0.920935 -0.000000 0.389715
vn -1.000000 0.000100 0.000100
vn -0.920935 -0.000000 0.389715
vn -1.000000 -0.000100 0.000100
vn -0.920900 -0.000000 0.389800
vn -0.748424 -0.000000 0.663221
vn -0.874294 -0.000000 0.485397
vn -0.644071 -0.000000 0.764966
vn -0.578017 -0.000000 0.816024
vn -0.440481 -0.000000 0.897762
vn 0.874294 -0.000100 0.485397
vn 0.744228 -0.000000 0.667925
vn 0.572569 -0.000000 0.819856
vn 0.919233 -0.000000 0.393714
vn 0.919197 -0.000000 0.393799
vn 1.000000 -0.000100 0.000100
vn 1.000000 -0.000100 -0.000200
vn 0.920900 0.000000 -0.389800
vn 0.874294 0.000000 -0.485397
vn 1.000000 0.000000 -0.000100
vn 0.920900 0.000000 -0.389800
vn 0.920935 0.000000 -0.389715
vn 1.000000 0.000100 -0.000200
vn 0.874294 0.000000 -0.485397
vn 0.748517 0.000000 -0.663115
vn 0.644120 0.000000 -0.764924
vn 0.316198 0.000000 -0.948693
vn 0.578017 0.000000 -0.816024
vn 0.440481 0.000000 -0.897762
vn 0.577970 0.000000 -0.816058
vn 0.578017 0.000000 -0.816024
vn 0.440320 0.000000 -0.897841
vn 0.748517 0.000000 -0.663115
vn 0.748424 0.000000 -0.663221
vn 0.644120 0.000000 -0.764924
vn 0.316198 0.000000 -0.948693
vn 0.440481 0.000000 -0.897762
vn 0.130801 0.000000 -0.991409
vn 0.000000 0.000000 -1.000000
vn 0.130801 0.000000 -0.991409
vn 0.000000 0.000000 -1.000000
vn -0.130801 0.000000 -0.991409
vn -0.316198 0.000000 -0.948693
vn -0.130801 0.000000 -0.991409
vn -0.316198 0.000000 -0.948693
vn -0.434811 0.000000 -0.900522
vn -0.644071 0.000000 -0.764966
vn -0.434811 0.000000 -0.900522
vn -0.572502 0.000000 -0.819903
vn -0.572502 0.000000 -0.819903
vn -0.744273 0.000000 -0.667876
vn -0.744228 0.000000 -0.667925
vn -0.874294 -0.000100 -0.485397
vn -0.919233 0.000000 -0.393714
vn -1.000000 0.000000 -0.000100
vn -0.919197 0.000000 -0.393799
vn -1.000000 -0.000100 -0.000100
vn -0.919197 0.000000 -0.393799
vn -1.000000 0.000100 -0.000100
vn -0.874336 0.000100 -0.485320
vn -0.744273 0.000000 -0.667876
vn -0.644071 0.000000 -0.764966
vn -0.572502 0.000000 -0.819903
vn -0.434811 0.000000 -0.900522
vn -0.497603 0.000000 -0.867405
vn -0.215289 0.000000 -0.976550
vn -0.215310 0.000000 -0.976546
vn -0.497603 0.000000 -0.867405
vn -0.215310 0.000000 -0.976546
vn -0.101405 0.000000 -0.994845
vn -0.080298 0.000000 -0.996771
vn -0.101405 0.000000 -0.994845
vn -0.080298 0.000000 -0.996771
vn -0.101405 0.000000 -0.994845
vn -0.080298 0.000000 -0.996771
vn -1.000000 0.000000 0.000000
vn -1.000000 0.000000 0.000000
vn -1.000000 0.000000 0.000000
vn -1.000000 0.000000 0.000000
vn 0.128895 -0.000000 0.991658
vn -0.110805 -0.000000 0.993842
vn -0.110805 -0.000000 0.993842
vn 0.128895 -0.000000 0.991658
vn -0.110805 -0.000000 0.993842
vn -0.203303 -0.000000 0.979116
vn -0.203303 -0.000000 0.979116
vn -0.335304 -0.000000 0.942110
vn -0.590114 -0.000000 0.807320
vn -0.335304 -0.000000 0.942110
vn -0.590114 -0.000000 0.807320
vn -0.335304 -0.000000 0.942110
vn -0.203303 -0.000000 0.979116
vn 1.000000 0.000000 0.000000
vn 0.654588 -0.000000 0.755986
vn 1.000000 0.000000 0.000000
vn 0.654588 -0.000000 0.755986
vn 0.355109 -0.000000 0.934825
vn 0.355109 -0.000000 0.934825
vn 0.159207 -0.000000 0.987245
vn 0.159207 -0.000000 0.987245
vn -0.000100 -0.000000 1.000000
vn -0.000100 -0.000000 1.000000
vn -0.155993 -0.000000 0.987758
vn -0.155993 -0.000000 0.987758
vn -0.347702 -0.000000 0.937605
vn -0.347702 -0.000000 0.937605
vn -0.650717 -0.000000 0.759320
vn -0.650717 -0.000000 0.759320
vn -1.000000 -0.000000 0.000100
vn -1.000000 0.000000 0.000000
vn -1.000000 -0.000000 0.000100
vn -1.000000 -0.000000 0.000100
vn -1.000000 -0.000000 0.000100
vn -0.524198 0.000000 -0.851597
vn -0.524198 0.000000 -0.851597
vn -0.270598 0.000000 -0.962692
vn -0.270598 0.000000 -0.962692
vn -0.120403 0.000000 -0.992725
vn -0.120403 0.000000 -0.992725
vn -0.000400 0.000000 -1.000000
vn -0.000400 0.000000 -1.000000
vn 0.118999 0.000000 -0.992894
vn 0.118999 0.000000 -0.992894
vn 0.267608 0.000000 -0.963528
vn 0.267608 0.000000 -0.963528
vn 0.530682 0.000000 -0.847571
vn 0.530682 0.000000 -0.847571
vn 1.000000 -0.000000 0.000100
vn 1.000000 -0.000000 0.000100
vn -1.000000 -0.000000 0.000100
vn 1.000000 0.000000 0.000000
vn 1.000000 0.000000 0.000000
vn 1.000000 0.000000 0.000000
vn 1.000000 0.000000 0.000000
vn 0.000000 -0.000000 1.000000
vn 0.000000 -0.000000 1.000000
vn 0.000000 -0.000000 1.000000
vn 0.000000 -0.000000 1.000000
vn 1.000000 0.000000 0.000000
vn 1.000000 0.000000 0.000000
vn 1.000000 0.000000 0.000000
vn 1.000000 0.000000 0.000000
vn 0.000000 -0.000000 1.000000
vn 0.000000 -0.000000 1.000000
vn 0.000000 -0.000000 1.000000
vn 0.000000 -0.000000 1.000000
vn 0.000000 0.000000 -1.000000
vn 0.000000 0.000000 -1.000000
vn 0.000000 0.000000 -1.000000
vn 0.000000 0.000000 -1.000000
vn 1.000000 0.000000 0.000000
vn 1.000000 0.000000 0.000000
vn 1.000000 0.000000 0.000000
vn 1.000000 0.000000 0.000000
vn -1.000000 0.000000 0.000000
vn -1.000000 0.000000 0.000000
vn -1.000000 0.000000 0.000000
vn -1.000000 0.000000 0.000000
vn -1.000000 0.000000 0.000000
vn 0.000000 0.000000 -1.000000
vn 0.000000 0.000000 -1.000000
vn 0.000000 0.000000 -1.000000
vn 0.000000 0.000000 -1.000000
vn 1.000000 0.000000 0.000000
vn 1.000000 0.000000 0.000000
vn 1.000000 0.000000 0.000000
vn 1.000000 0.000000 0.000000
vn -1.000000 0.000000 0.000000
vn -1.000000 0.000000 0.000000
vn -1.000000 0.000000 0.000000
vn -1.000000 0.000000 0.000000
vn -1.000000 0.000000 0.000000
vn -1.000000 0.000000 0.000000
vn -1.000000 0.000000 0.000000
vn -1.000000 0.000000 0.000000
vn -1.000000 0.000000 0.000000
vn 0.862820 0.000000 -0.505512
vn 0.972788 0.000000 -0.231697
vn 0.950831 0.000000 -0.309710
vn 0.862820 0.000000 -0.505512
vn 0.862820 0.000000 -0.505512
vn 0.862820 0.000000 -0.505512
vn 0.950831 0.000000 -0.309710
vn 0.978888 0.000000 -0.204398
vn 0.950831 0.000000 -0.309710
vn 0.978868 0.000000 -0.204493
vn 0.862820 0.000000 -0.505512
vn 0.972788 0.000000 -0.231697
vn 0.992942 0.000000 -0.118605
vn 0.998699 0.000000 -0.051000
vn 0.992930 0.000000 -0.118704
vn 0.998699 0.000000 -0.051000
vn 0.978868 0.000000 -0.204493
vn 1.000000 0.000000 0.000000
vn 0.998694 -0.000000 0.051100
vn 1.000000 0.000000 0.000000
vn 0.998694 -0.000000 0.051100
vn 0.992942 -0.000000 0.118605
vn 0.992942 -0.000100 0.118605
vn 0.978908 -0.000000 0.204302
vn 0.978888 -0.000000 0.204398
vn 0.972765 -0.000100 0.231792
vn 0.950870 -0.000000 0.309590
vn 0.862820 -0.000000 0.505512
vn 0.862820 -0.000000 0.505512
vn 0.862820 -0.000000 0.505512
vn 0.950870 -0.000000 0.309590
vn 0.862820 -0.000000 0.505512
vn 0.950870 -0.000000 0.309590
vn 0.862820 -0.000000 0.505512
vn 0.972788 0.000100 0.231697
vn 0.978888 -0.000000 0.204398
vn 0.862776 -0.000000 0.505586
vn 0.862776 -0.000000 0.505586
vn 0.837199 -0.000000 0.546899
vn 0.837199 -0.000000 0.546899
vn 0.837199 -0.000000 0.546899
vn 0.862776 -0.000000 0.505586
vn 0.837199 -0.000000 0.546899
vn 0.837199 -0.000000 0.546899
vn 0.862776 -0.000000 0.505586
vn 0.862776 -0.000000 0.505586
vn 0.865168 0.000000 -0.501482
vn 0.865212 0.000000 -0.501407
vn 0.998842 0.000000 -0.048102
vn 0.909371 -0.000000 0.415987
vn 0.909371 -0.000000 0.415987
vn 0.998842 0.000000 -0.048102
vn 0.909353 -0.000000 0.416024
vn 0.909353 -0.000000 0.416024
vn 0.909371 -0.000000 0.415987
vn 0.865168 0.000000 -0.501482
vn 0.865168 -0.000100 -0.501482
vn 0.862776 0.000000 -0.505586
vn 0.862776 0.000000 -0.505586
vn 0.837199 0.000000 -0.546899
vn 0.837199 0.000000 -0.546899
vn 0.837199 0.000000 -0.546899
vn 0.862776 0.000000 -0.505586
vn 0.837199 0.000000 -0.546899
vn 0.862776 0.000000 -0.505586
vn 0.837199 0.000000 -0.546899
vn 0.862776 0.000000 -0.505586
vn 0.865212 -0.000000 0.501407
vn 0.865168 -0.000000 0.501482
vn 0.998842 -0.000000 0.048102
vn 0.998842 -0.000000 0.048102
vn 0.909353 0.000000 -0.416024
vn 0.909353 0.000000 -0.416024
vn 0.909371 0.000000 -0.415987
vn 0.909353 0.000000 -0.416024
vn 0.909353 0.000000 -0.416024
vn 0.865212 -0.000000 0.501407
vn 0.865168 -0.000000 0.501482
vn 0.000000 0.000000 -1.000000
vn 0.000000 0.000000 -1.000000
vn 0.000000 0.000000 -1.000000
vn 0.000000 0.000000 -1.000000
vn 0.000000 0.000000 -1.000000
vn 0.000000 0.000000 -1.000000
vn 0.000000 -0.000000 1.000000
vn 0.000000 -0.000000 1.000000
vn 0.000000 -0.000000 1.000000
vn 0.000000 -0.000000 1.000000
vn 0.000000 -0.000000 1.000000
vn 0.000000 -0.000000 1.000000
vn -0.164804 0.000000 -0.986326
vn -0.164902 0.000000 -0.986310
vn 0.045902 0.000000 -0.998946
vn 0.045902 0.000000 -0.998946
vn 0.261992 0.000000 -0.965070
vn 0.261992 0.000000 -0.965070
vn 0.512804 0.000000 -0.858506
vn 0.512804 0.000000 -0.858506
vn 0.811817 0.000000 -0.583912
vn 0.811817 0.000000 -0.583912
vn 1.000000 0.000000 -0.000100
vn 1.000000 0.000000 -0.000100
vn -0.164804 0.000000 -0.986326
vn -1.000000 0.000000 0.000000
vn -1.000000 0.000000 0.000000
vn -1.000000 0.000000 0.000000
vn -1.000000 0.000000 0.000000
vn -1.000000 0.000000 0.000000
vn -1.000000 0.000000 -0.000100
vn -1.000000 0.000000 -0.000100
vn -0.949886 0.000000 -0.312596
vn -0.817641 0.000000 -0.575729
vn -0.949886 0.000000 -0.312596
vn -0.817641 0.000000 -0.575729
vn -0.652067 0.000000 -0.758162
vn -0.490086 0.000000 -0.871674
vn -0.652067 0.000000 -0.758162
vn -0.490086 0.000000 -0.871674
vn -0.345001 0.000000 -0.938602
vn -0.345001 0.000000 -0.938602
vn -0.217301 0.000000 -0.976105
vn -0.103503 0.000000 -0.994629
vn -0.217301 0.000000 -0.976105
vn -0.103503 0.000000 -0.994629
vn 0.000000 0.000000 -1.000000
vn 0.000000 0.000000 -1.000000
vn 0.000000 0.000000 -1.000000
vn -1.000000 0.000000 0.000000
vn -1.000000 0.000000 0.000000
vn -1.000000 0.000000 0.000000
vn -1.000000 0.000000 0.000000
vn -1.000000 0.000000 0.000000
vn 0.000000 -0.000000 1.000000
vn 0.000000 -0.000000 1.000000
vn -0.103602 -0.000000 0.994619
vn -0.103602 -0.000000 0.994619
vn -0.217301 -0.000000 0.976105
vn -0.217301 -0.000000 0.976105
vn -0.345001 -0.000000 0.938602
vn -0.490086 -0.000000 0.871674
vn -0.345001 -0.000000 0.938602
vn -0.490086 -0.000000 0.871674
vn -0.652009 -0.000000 0.758211
vn -0.817641 -0.000000 0.575729
vn -0.652009 -0.000000 0.758211
vn -0.817641 -0.000000 0.575729
vn -0.949916 -0.000000 0.312505
vn -1.000000 -0.000000 0.000100
vn -0.949916 -0.000000 0.312505
vn -1.000000 -0.000000 0.000100
vn 0.000000 -0.000000 1.000000
vn 0.000000 -1.000000 -0.000000
vn 0.000000 -1.000000 -0.000000
vn 0.000000 -1.000000 -0.000000
vn 0.000000 -1.000000 -0.000000
vn 0.000000 -1.000000 -0.000000
vn 0.000000 -1.000000 -0.000000
vn 0.000000 -1.000000 -0.000000
vn 0.000000 -1.000000 -0.000000
vn 0.000000 -1.000000 -0.000000
vn 0.000000 -1.000000 -0.000000
vn 0.000000 -1.000000 -0.000000
vn 0.000000 -1.000000 -0.000000
vn 0.000000 -1.000000 -0.000000
vn 0.000000 -1.000000 -0.000000
vn 0.000000 -1.000000 -0.000000
vn 0.000000 -1.000000 -0.000000
vn 0.000000 -1.000000 -0.000000
vn 0.000000 -1.000000 -0.000000
vn 0.000000 -1.000000 -0.000000
vn 0.000000 -1.000000 -0.000000
vn 0.000000 -1.000000 -0.000000
vn 0.000000 -1.000000 -0.000000
vn 0.000000 -1.000000 -0.000000
vn 0.000000 -1.000000 -0.000000
vn 0.000000 -1.000000 -0.000000
vn 0.000000 -1.000000 -0.000000
vn 0.000000 -1.000000 -0.000000
vn 0.000000 -1.000000 -0.000000
vn 0.000000 -1.000000 -0.000000
vn 0.000000 -1.000000 -0.000000
vn 0.000000 -1.000000 -0.000000
vn 0.000000 -1.000000 -0.000000
vn 0.000000 -1.000000 -0.000000
vn 0.000000 -1.000000 -0.000000
vn 0.000000 -1.000000 -0.000000
vn 0.000000 -1.000000 -0.000000
vn 0.000000 -1.000000 -0.000000
vn 0.000000 -1.000000 -0.000000
vn 0.000000 -1.000000 -0.000000
vn 0.000000 -1.000000 -0.000000
vn 0.000000 -1.000000 -0.000000
vn 0.000000 -1.000000 -0.000000
vn 0.000000 -1.000000 -0.000000
vn 0.000000 -1.000000 -0.000000
vn 0.000000 -1.000000 -0.000000
vn 0.000000 -1.000000 -0.000000
vn 0.000000 -1.000000 -0.000000
vn 0.000000 -1.000000 -0.000000
vn 0.000000 -1.000000 -0.000000
vn 0.000000 -1.000000 -0.000000
vn 0.000000 -1.000000 -0.000000
vn 0.000000 -1.000000 -0.000000
vn 0.000000 -1.000000 -0.000000
vn 0.000000 -1.000000 -0.000000
vn 0.000000 -1.000000 -0.000000
vn 0.000000 -1.000000 -0.000000
vn 0.000000 -1.000000 -0.000000
vn 0.000000 -1.000000 -0.000000
vn 0.000000 -1.000000 -0.000000
vn 0.000000 -1.000000 -0.000000
vn 0.000000 -1.000000 -0.000000
vn 0.000000 -1.000000 -0.000000
vn 0.000000 -1.000000 -0.000000
vn 0.000000 -1.000000 -0.000000
vn 0.000000 -1.000000 -0.000000
vn 0.000000 -1.000000 -0.000000
vn 0.000000 -1.000000 -0.000000
vn 0.000000 -1.000000 -0.000000
vn 0.000000 -1.000000 -0.000000
vn 0.000000 -1.000000 -0.000000
vn 0.000000 -1.000000 -0.000000
vn 0.000000 -1.000000 -0.000000
vn 0.000000 -1.000000 -0.000000
vn 0.000000 -1.000000 -0.000000
vn 0.000000 -1.000000 -0.000000
vn 0.000000 -1.000000 -0.000000
vn 0.000000 -1.000000 -0.000000
vn 0.000000 -1.000000 -0.000000
vn 0.000000 -1.000000 -0.000000
vn 0.000000 -1.000000 -0.000000
vn 0.000000 -1.000000 -0.000000
vn 0.000000 -1.000000 -0.000000
vn 0.000000 -1.000000 -0.000000
f 1//1 3//3 2//2
f 2//2 3//3 4//4
f 5//5 7//7 4//4
f 7//7 6//6 4//4
f 2//2 4//4 6//6
f 7//7 5//5 8//8
f 8//8 9//9 7//7
f 9//9 8//8 10//10
f 10//10 11//11 12//12
f 8//8 11//11 10//10
f 12//12 11//11 13//13
f 13//13 11//11 15//15
f 15//15 14//14 13//13
f 17//17 16//16 15//15
f 19//19 15//15 16//16
f 19//19 16//16 29//29
f 15//15 18//18 17//17
f 14//14 15//15 19//19
f 22//22 20//20 15//15
f 22//22 15//15 11//11
f 21//21 23//23 20//20
f 21//21 20//20 22//22
f 23//23 24//24 20//20
f 20//20 24//24 25//25
f 26//26 21//21 22//22
f 27//27 26//26 22//22
f 22//22 28//28 27//27
f 30//30 33//33 29//29
f 30//30 29//29 31//31
f 29//29 32//32 31//31
f 16//16 32//32 29//29
f 34//34 33//33 30//30
f 34//34 30//30 35//35
f 30//30 38//38 35//35
f 36//36 35//35 37//37
f 38//38 37//37 35//35
f 38//38 30//30 39//39
f 30//30 40//40 39//39
f 42//42 37//37 41//41
f 42//42 36//36 37//37
f 42//42 43//43 44//44
f 43//43 42//42 41//41
f 44//44 43//43 45//45
f 45//45 43//43 46//46
f 47//47 49//49 46//46
f 46//46 43//43 47//47
f 49//49 48//48 46//46
f 50//50 49//49 51//51
f 49//49 50//50 48//48
f 49//49 52//52 51//51
f 52//52 53//53 51//51
f 54//54 53//53 52//52
f 54//54 55//55 53//53
f 55//55 54//54 56//56
f 57//57 56//56 58//58
f 56//56 57//57 62//62
f 59//59 58//58 56//56
f 56//56 60//60 59//59
f 56//56 61//61 55//55
f 56//56 62//62 61//61
f 55//55 61//61 63//63
f 64//64 55//55 63//63
f 48//48 50//50 65//65
f 48//48 65//65 66//66
f 6//6 66//66 2//2
f 6//6 48//48 66//66
f 67//67 68//68 43//43
f 43//43 41//41 67//67
f 70//70 18//18 69//69
f 70//70 17//17 18//18
f 69//69 71//71 70//70
f 72//72 70//70 71//71
f 72//72 71//71 73//73
f 73//73 74//74 72//72
f 75//75 74//74 73//73
f 77//77 17//17 76//76
f 16//16 17//17 77//77
f 77//77 76//76 78//78
f 78//78 80//80 79//79
f 80//80 78//78 76//76
f 81//81 80//80 82//82
f 80//80 81//81 79//79
f 83//83 81//81 82//82
f 85//85 84//84 86//86
f 85//85 86//86 88//88
f 84//84 87//87 86//86
f 90//90 89//89 91//91
f 90//90 91//91 92//92
f 94//94 90//90 92//92
f 94//94 92//92 93//93
f 95//95 97//97 140//140
f 95//95 140//140 96//96
f 95//95 98//98 97//97
f 99//99 100//100 98//98
f 100//100 97//97 98//98
f 100//100 99//99 102//102
f 100//100 101//101 140//140
f 100//100 140//140 97//97
f 102//102 103//103 101//101
f 102//102 101//101 100//100
f 104//104 106//106 103//103
f 104//104 103//103 102//102
f 99//99 104//104 102//102
f 104//104 99//99 105//105
f 105//105 106//106 104//104
f 108//108 106//106 105//105
f 106//106 107//107 138//138
f 106//106 138//138 103//103
f 108//108 107//107 106//106
f 108//108 105//105 111//111
f 108//108 111//111 110//110
f 109//109 138//138 107//107
f 109//109 107//107 108//108
f 114//114 112//112 110//110
f 114//114 110//110 111//111
f 112//112 114//114 115//115
f 112//112 115//115 113//113
f 113//113 115//115 116//116
f 113//113 116//116 118//118
f 117//117 121//121 120//120
f 117//117 120//120 116//116
f 118//118 116//116 119//119
f 119//119 116//116 120//120
f 121//121 122//122 119//119
f 121//121 119//119 120//120
f 123//123 125//125 122//122
f 123//123 122//122 121//121
f 121//121 117//117 123//123
f 123//123 117//117 124//124
f 124//124 126//126 123//123
f 126//126 128//128 125//125
f 126//126 125//125 123//123
f 126//126 124//124 127//127
f 127//127 128//128 126//126
f 127//127 129//129 128//128
f 130//130 128//128 129//129
f 128//128 130//130 131//131
f 128//128 131//131 125//125
f 130//130 129//129 132//132
f 133//133 131//131 130//130
f 133//133 130//130 132//132
f 118//118 135//135 134//134
f 118//118 134//134 133//133
f 133//133 134//134 131//131
f 125//125 131//131 134//134
f 125//125 134//134 122//122
f 122//122 134//134 135//135
f 122//122 135//135 119//119
f 119//119 135//135 118//118
f 137//137 109//109 136//136
f 137//137 138//138 109//109
f 103//103 138//138 137//137
f 103//103 137//137 101//101
f 101//101 137//137 139//139
f 101//101 139//139 140//140
f 136//136 139//139 137//137
f 141//141 96//96 139//139
f 139//139 96//96 140//140
f 139//139 136//136 141//141
f 142//142 143//143 145//145
f 143//143 142//142 144//144
f 143//143 146//146 145//145
f 147//147 145//145 146//146
f 147//147 148//148 145//145
f 147//147 149//149 148//148
f 150//150 151//151 149//149
f 149//149 147//147 150//150
f 151//151 153//153 154//154
f 151//151 154//154 152//152
f 153//153 151//151 150//150
f 153//153 155//155 157//157
f 153//153 157//157 154//154
f 150//150 158//158 155//155
f 150//150 155//155 153//153
f 155//155 156//156 162//162
f 155//155 162//162 157//157
f 158//158 159//159 156//156
f 158//158 156//156 155//155
f 146//146 143//143 159//159
f 146//146 159//159 158//158
f 147//147 146//146 158//158
f 147//147 158//158 150//150
f 156//156 159//159 160//160
f 160//160 159//159 143//143
f 160//160 143//143 144//144
f 160//160 161//161 162//162
f 162//162 156//156 160//160
f 161//161 157//157 162//162
f 163//163 165//165 152//152
f 163//163 152//152 161//161
f 157//157 161//161 152//152
f 163//163 164//164 166//166
f 163//163 166//166 165//165
f 169//169 167//167 166//166
f 169//169 166//166 164//164
f 170//170 168//168 167//167
f 170//170 167//167 169//169
f 170//170 171//171 168//168
f 171//171 170//170 173//173
f 172//172 174//174 173//173
f 172//172 173//173 170//170
f 171//171 173//173 174//174
f 171//171 174//174 175//175
f 175//175 174//174 176//176
f 175//175 176//176 177//177
f 176//176 174//174 172//172
f 177//177 176//176 179//179
f 177//177 179//179 181//181
f 176//176 172//172 178//178
f 178//178 179//179 176//176
f 182//182 180//180 179//179
f 179//179 180//180 181//181
f 179//179 178//178 182//182
f 184//184 183//183 181//181
f 184//184 181//181 180//180
f 186//186 177//177 181//181
f 186//186 181//181 183//183
f 184//184 185//185 183//183
f 186//186 183//183 185//185
f 186//186 187//187 188//188
f 187//187 186//186 185//185
f 188//188 175//175 177//177
f 188//188 177//177 186//186
f 189//189 171//171 175//175
f 189//189 175//175 188//188
f 187//187 189//189 188//188
f 189//189 187//187 168//168
f 168//168 171//171 189//189
f 157//157 152//152 154//154
f 190//190 191//191 193//193
f 191//191 190//190 192//192
f 194//194 193//193 191//191
f 195//195 194//194 191//191
f 195//195 191//191 197//197
f 195//195 197//197 198//198
f 195//195 198//198 196//196
f 200//200 198//198 197//197
f 200//200 197//197 199//199
f 197//197 191//191 192//192
f 197//197 192//192 199//199
f 202//202 201//201 203//203
f 202//202 203//203 204//204
f 205//205 206//206 208//208
f 206//206 205//205 207//207
f 209//209 208//208 206//206
f 210//210 209//209 206//206
f 210//210 206//206 211//211
f 212//212 210//210 211//211
f 212//212 211//211 214//214
f 212//212 214//214 213//213
f 215//215 213//213 214//214
f 214//214 216//216 215//215
f 214//214 211//211 217//217
f 214//214 217//217 216//216
f 211//211 206//206 207//207
f 211//211 207//207 217//217
f 219//219 221//221 220//220
f 219//219 220//220 218//218
f 222//222 221//221 219//219
f 222//222 219//219 223//223
f 224//224 222//222 223//223
f 224//224 223//223 225//225
f 226//226 224//224 225//225
f 226//226 225//225 227//227
f 228//228 226//226 227//227
f 228//228 227//227 229//229
f 230//230 228//228 229//229
f 230//230 229//229 231//231
f 232//232 230//230 231//231
f 232//232 231//231 233//233
f 233//233 235//235 232//232
f 234//234 232//232 235//235
f 235//235 233//233 236//236
f 238//238 237//237 239//239
f 240//240 238//238 239//239
f 242//242 240//240 239//239
f 242//242 239//239 241//241
f 244//244 242//242 241//241
f 244//244 241//241 243//243
f 246//246 244//244 243//243
f 246//246 243//243 245//245
f 248//248 246//246 245//245
f 248//248 245//245 247//247
f 250//250 248//248 247//247
f 250//250 247//247 249//249
f 252//252 250//250 249//249
f 252//252 249//249 251//251
f 253//253 254//254 252//252
f 253//253 252//252 251//251
f 238//238 240//240 255//255
f 257//257 256//256 258//258
f 257//257 258//258 259//259
f 261//261 260//260 262//262
f 261//261 262//262 263//263
f 265//265 264//264 266//266
f 265//265 266//266 267//267
f 269//269 268//268 270//270
f 269//269 270//270 271//271
f 273//273 272//272 274//274
f 273//273 274//274 275//275
f 277//277 276//276 278//278
f 277//277 278//278 279//279
f 281//281 282//282 280//280
f 283//283 282//282 284//284
f 281//281 284//284 282//282
f 286//286 285//285 287//287
f 286//286 287//287 288//288
f 290//290 289//289 291//291
f 290//290 291//291 292//292
f 294//294 295//295 293//293
f 294//294 296//296 295//295
f 297//297 295//295 296//296
f 299//299 298//298 300//300
f 299//299 300//300 301//301
f 303//303 304//304 302//302
f 305//305 302//302 304//304
f 308//308 306//306 305//305
f 308//308 305//305 304//304
f 310//310 307//307 306//306
f 310//310 306//306 308//308
f 309//309 311//311 310//310
f 309//309 310//310 308//308
f 318//318 309//309 308//308
f 318//318 308//308 304//304
f 310//310 311//311 313//313
f 310//310 313//313 312//312
f 310//310 312//312 307//307
f 311//311 314//314 313//313
f 311//311 309//309 314//314
f 314//314 316//316 317//317
f 314//314 317//317 315//315
f 314//314 309//309 316//316
f 318//318 303//303 316//316
f 316//316 309//309 318//318
f 304//304 303//303 318//318
f 315//315 317//317 319//319
f 315//315 319//319 321//321
f 320//320 322//322 321//321
f 320//320 321//321 319//319
f 322//322 320//320 324//324
f 322//322 324//324 323//323
f 325//325 323//323 324//324
f 323//323 325//325 326//326
f 326//326 327//327 323//323
f 326//326 328//328 327//327
f 328//328 329//329 327//327
f 329//329 328//328 330//330
f 330//330 328//328 332//332
f 330//330 332//332 331//331
f 334//334 333//333 331//331
f 334//334 331//331 332//332
f 333//333 334//334 335//335
f 335//335 334//334 336//336
f 334//334 337//337 336//336
f 324//324 336//336 337//337
f 325//325 324//324 337//337
f 334//334 332//332 325//325
f 334//334 325//325 337//337
f 332//332 328//328 326//326
f 332//332 326//326 325//325
f 338//338 340//340 341//341
f 338//338 341//341 339//339
f 339//339 341//341 342//342
f 339//339 342//342 343//343
f 343//343 342//342 344//344
f 343//343 344//344 346//346
f 346//346 344//344 345//345
f 346//346 345//345 347//347
f 349//349 350//350 348//348
f 354//354 351//351 350//350
f 352//352 350//350 351//351
f 350//350 349//349 353//353
f 353//353 354//354 350//350
f 355//355 354//354 353//353
f 356//356 355//355 353//353
f 353//353 349//349 357//357
f 357//357 358//358 353//353
f 362//362 360//360 359//359
f 362//362 359//359 361//361
f 363//363 364//364 360//360
f 363//363 360//360 362//362
f 365//365 366//366 364//364
f 365//365 364//364 363//363
f 367//367 368//368 366//366
f 367//367 366//366 365//365
f 369//369 371//371 370//370
f 372//372 370//370 371//371
f 375//375 372//372 371//371
f 371//371 373//373 374//374
f 371//371 374//374 375//375
f 375//375 376//376 372//372
f 372//372 376//376 377//377
f 370//370 372//372 379//379
f 379//379 372//372 378//378
f 381//381 380//380 382//382
f 381//381 382//382 384//384
f 383//383 382//382 380//380
f 381//381 384//384 385//385
f 387//387 388//388 386//386
f 387//387 389//389 388//388
f 390//390 389//389 391//391
f 387//387 391//391 389//389
f 393//393 392//392 394//394
f 395//395 393//393 394//394
f 397//397 395//395 394//394
f 397//397 394//394 396//396
f 399//399 397//397 396//396
f 399//399 396//396 398//398
f 401//401 399//399 398//398
f 401//401 398//398 400//400
f 402//402 403//403 401//401
f 402//402 401//401 400//400
f 393//393 395//395 404//404
f 406//406 407//407 405//405
f 406//406 408//408 407//407
f 409//409 407//407 408//408
f 411//411 410//410 412//412
f 411//411 412//412 414//414
f 414//414 412//412 413//413
f 414//414 413//413 415//415
f 416//416 415//415 413//413
f 416//416 413//413 418//418
f 417//417 416//416 418//418
f 417//417 418//418 419//419
f 420//420 421//421 417//417
f 420//420 417//417 419//419
f 421//421 420//420 422//422
f 421//421 422//422 424//424
f 424//424 422//422 423//423
f 424//424 423//423 425//425
f 427//427 426//426 425//425
f 425//425 423//423 427//427
f 427//427 423//423 428//428
f 430//430 429//429 431//431
f 430//430 431//431 432//432
f 430//430 432//432 433//433
f 435//435 436//436 434//434
f 436//436 435//435 437//437
f 436//436 437//437 439//439
f 436//436 439//439 438//438
f 438//438 439//439 442//442
f 438//438 442//442 440//440
f 440//440 442//442 443//443
f 440//440 443//443 441//441
f 441//441 443//443 444//444
f 441//441 444//444 446//446
f 446//446 444//444 445//445
f 446//446 445//445 447//447
f 447//447 445//445 450//450
f 447//447 450//450 448//448
f 448//448 450//450 451//451
f 448//448 451//451 449//449
f 437//437 435//435 452//452
f 456//456 454//454 453//453
f 454//454 455//455 453//453
f 453//453 457//457 456//456
f 456//456 457//457 458//458
f 458//458 457//457 459//459
f 460//460 458//458 459//459
f 460//460 459//459 461//461
f 462//462 463//463 461//461
f 461//461 463//463 464//464
f 465//465 461//461 464//464
f 461//461 465//465 460//460
f 470//470 466//466 465//465
f 467//467 465//465 466//466
f 465//465 467//467 468//468
f 465//465 464//464 469//469
f 465//465 469//469 470//470
f 471//471 472//472 456//456
f 456//456 472//472 454//454
f 474//474 472//472 473//473
f 472//472 471//471 473//473
f 475//475 474//474 473//473
f 476//476 475//475 473//473
f 473//473 477//477 476//476
f 476//476 477//477 478//478
f 476//476 478//478 479//479
f 479//479 478//478 480//480
f 482//482 480//480 481//481
f 481//481 480//480 483//483
f 483//483 480//480 478//478
f 483//483 484//484 481//481
f 481//481 484//484 485//485
f 482//482 481//481 486//486
f 481//481 487//487 486//486
f 481//481 489//489 487//487
f 488//488 487//487 491//491
f 488//488 491//491 492//492
f 487//487 489//489 490//490
f 491//491 487//487 490//490
f 493//493 492//492 491//491
f 491//491 494//494 493//493
f 494//494 495//495 493//493
f 494//494 496//496 495//495
f 497//497 495//495 496//496
f 496//496 498//498 497//497
f 497//497 498//498 499//499
f 499//499 500//500 497//497
f 501//501 500//500 499//499
f 492//492 493//493 502//502
f 503//503 502//502 493//493
f 503//503 504//504 502//502
f 504//504 503//503 505//505
f 506//506 505//505 503//503
f 506//506 507//507 505//505
f 507//507 506//506 508//508
f 509//509 507//507 508//508
f 510//510 488//488 492//492
f 492//492 511//511 510//510
f 511//511 492//492 512//512
f 515//515 512//512 492//492
f 515//515 492//492 513//513
f 514//514 513//513 516//516
f 514//514 515//515 513//513
f 516//516 513//513 517//517
f 513//513 518//518 517//517
f 514//514 519//519 515//515
f 520//520 515//515 519//519
f 515//515 520//520 521//521
f 524//524 522//522 512//512
f 522//522 511//511 512//512
f 523//523 524//524 512//512
f 525//525 524//524 523//523
f 523//523 526//526 525//525
f 526//526 523//523 528//528
f 526//526 529//529 527//527
f 528//528 529//529 526//526
f 530//530 529//529 531//531
f 530//530 527//527 529//529
f 532//532 530//530 531//531
f 527//527 530//530 533//533
f 527//527 533//533 454//454
f 454//454 533//533 455//455
f 473//473 534//534 477//477
f 534//534 473//473 535//535
