# arm_23 exported from /models/landings/arm_23.glb
# units: meters
v -0.016313 0.001000 0.029860
v -0.015629 0.001000 0.029395
v -0.016089 0.001000 0.029893
v -0.016837 0.001000 0.029553
v -0.017251 0.001000 0.029094
v -0.017500 0.001000 0.028550
v -0.017577 0.001000 0.028000
v -0.017577 0.001000 0.027009
v -0.015629 0.001000 0.021657
v -0.017577 0.001000 0.023000
v -0.017577 0.001000 0.021314
v -0.015629 0.001000 0.015962
v -0.015629 0.001000 -0.015962
v -0.017577 0.001000 -0.021314
v -0.017577 0.001000 -0.023000
v -0.015629 0.001000 -0.021657
v -0.008783 0.001000 -0.002848
v -0.017577 0.001000 -0.027009
v -0.015629 0.001000 -0.029395
v -0.017500 0.001000 -0.028550
v -0.017251 0.001000 -0.029094
v -0.016837 0.001000 -0.029553
v -0.016313 0.001000 -0.029860
v -0.016089 0.001000 -0.029893
v -0.015848 0.001000 -0.029808
v -0.015680 0.001000 -0.029615
v -0.017577 0.001000 -0.028000
v -0.009819 0.001000 0.000000
v -0.007746 0.001000 0.000000
v -0.002577 0.001000 -0.019898
v -0.002577 0.001000 -0.014203
v 0.004423 0.001000 -0.010000
v -0.002577 0.001000 0.014203
v 0.000423 0.001000 -0.020000
v 0.002423 0.001000 -0.020000
v 0.009423 0.001000 -0.027000
v 0.009423 0.001000 -0.020000
v 0.002423 0.001000 -0.027000
v 0.006423 0.001000 -0.010000
v 0.009423 0.001000 -0.012000
v 0.011423 0.001000 -0.020000
v 0.011423 0.001000 -0.012000
v 0.012423 0.001000 -0.027000
v 0.014423 0.001000 -0.025000
v 0.011423 0.001000 -0.027000
v 0.013159 0.001000 -0.026859
v 0.013837 0.001000 -0.026414
v 0.014283 0.001000 -0.025736
v 0.014423 0.001000 0.025000
v 0.011423 0.001000 0.012000
v 0.009423 0.001000 0.012000
v 0.011423 0.001000 0.020000
v 0.009423 0.001000 0.020000
v 0.009423 0.001000 0.027000
v 0.002423 0.001000 0.027000
v 0.002423 0.001000 0.020000
v 0.004423 0.001000 0.010000
v 0.000423 0.001000 0.020000
v 0.006423 0.001000 0.010000
v -0.002577 0.001000 0.019898
v 0.000423 0.001000 0.022445
v -0.002577 0.001000 0.025000
v -0.001991 0.001000 0.026414
v -0.000577 0.001000 0.027000
v -0.001313 0.001000 0.026859
v 0.000423 0.001000 0.026677
v 0.000423 0.001000 0.027000
v -0.002436 0.001000 0.025736
v -0.008783 0.001000 0.002848
v 0.011423 0.001000 0.027000
v 0.012423 0.001000 0.027000
v 0.013159 0.001000 0.026859
v 0.013837 0.001000 0.026414
v 0.014283 0.001000 0.025736
v 0.000423 0.001000 -0.022445
v 0.000423 0.001000 -0.026677
v -0.002577 0.001000 -0.025000
v -0.001991 0.001000 -0.026414
v -0.002436 0.001000 -0.025736
v -0.001313 0.001000 -0.026859
v -0.000577 0.001000 -0.027000
v 0.000423 0.001000 -0.027000
v -0.015848 0.001000 0.029808
v -0.015680 0.001000 0.029615
v -0.015629 0.001000 -0.015962
v -0.014176 0.001000 -0.011971
v -0.014176 0.000000 -0.011971
v -0.015629 -0.001000 -0.015962
v -0.014176 -0.001000 -0.011971
v -0.012724 -0.001000 -0.007981
v -0.012724 0.000000 -0.007981
v -0.011272 -0.001000 -0.003990
v -0.011272 0.000000 -0.003990
v -0.009819 -0.001000 0.000000
v -0.009819 0.001000 0.000000
v -0.011272 0.001000 -0.003990
v -0.012724 0.001000 -0.007981
v -0.015629 0.001000 0.015962
v -0.014176 0.001000 0.011971
v -0.014176 -0.000000 0.011971
v -0.015629 -0.001000 0.015962
v -0.014176 -0.001000 0.011971
v -0.012724 -0.001000 0.007981
v -0.012724 -0.000000 0.007981
v -0.011272 -0.001000 0.003990
v -0.011272 -0.000000 0.003990
v -0.009819 -0.001000 0.000000
v -0.009819 0.001000 0.000000
v -0.011272 0.001000 0.003990
v -0.012724 0.001000 0.007981
v -0.015629 0.001000 0.015962
v -0.015629 -0.001000 0.015962
v -0.015629 0.001000 -0.015962
v -0.015629 -0.001000 -0.015962
v 0.011423 -0.001000 -0.012000
v 0.011423 0.001000 -0.012000
v 0.011423 -0.001000 0.012000
v 0.011423 0.001000 0.012000
v 0.011423 -0.001000 0.012000
v 0.011423 0.001000 0.012000
v 0.009423 -0.001000 0.012000
v 0.009423 0.001000 0.012000
v 0.009423 -0.001000 0.012000
v 0.009423 0.001000 0.012000
v 0.009423 -0.001000 -0.012000
v 0.009423 0.001000 -0.012000
v 0.009423 -0.001000 -0.012000
v 0.009423 0.001000 -0.012000
v 0.011423 -0.001000 -0.012000
v 0.011423 0.001000 -0.012000
v 0.006423 -0.001000 -0.010000
v 0.006423 0.001000 -0.010000
v 0.006423 -0.001000 0.010000
v 0.006423 0.001000 0.010000
v 0.006423 -0.001000 0.010000
v 0.006423 0.001000 0.010000
v 0.004423 -0.001000 0.010000
v 0.004423 0.001000 0.010000
v 0.004423 -0.001000 0.010000
v 0.004423 0.001000 0.010000
v 0.004423 -0.001000 -0.010000
v 0.004423 0.001000 -0.010000
v 0.004423 -0.001000 -0.010000
v 0.004423 0.001000 -0.010000
v 0.006423 -0.001000 -0.010000
v 0.006423 0.001000 -0.010000
v -0.002577 0.001000 0.014203
v -0.002577 -0.001000 0.014203
v -0.007746 0.001000 0.000000
v -0.007746 -0.001000 0.000000
v -0.002577 0.001000 -0.014203
v -0.002577 -0.001000 -0.014203
v -0.007746 0.001000 0.000000
v -0.007746 -0.001000 0.000000
v -0.002577 0.001000 -0.014203
v -0.002577 -0.001000 -0.014203
v -0.002577 0.001000 0.014203
v -0.002577 -0.001000 0.014203
v -0.008783 -0.001000 0.002848
v -0.007231 -0.000000 0.007110
v -0.007231 -0.001000 0.007110
v -0.008783 0.001000 0.002848
v -0.007231 0.001000 0.007110
v -0.005680 0.001000 0.011373
v -0.005680 -0.000000 0.011373
v -0.004128 0.001000 0.015636
v -0.002577 0.001000 0.019898
v -0.004128 -0.000000 0.015636
v -0.002577 -0.001000 0.019898
v -0.004128 -0.001000 0.015636
v -0.005680 -0.001000 0.011373
v -0.008783 -0.001000 -0.002848
v -0.007231 0.000000 -0.007110
v -0.007231 -0.001000 -0.007110
v -0.008783 0.001000 -0.002848
v -0.007231 0.001000 -0.007110
v -0.005680 0.001000 -0.011373
v -0.005680 0.000000 -0.011373
v -0.004128 0.001000 -0.015636
v -0.004128 0.000000 -0.015636
v -0.002577 0.001000 -0.019898
v -0.002577 -0.001000 -0.019898
v -0.004128 -0.001000 -0.015636
v -0.005680 -0.001000 -0.011373
v -0.016313 0.001000 -0.029860
v -0.016313 0.000333 -0.029860
v -0.016826 0.001000 -0.029562
v -0.016826 -0.001000 -0.029562
v -0.017243 0.001000 -0.029106
v -0.017243 -0.001000 -0.029106
v -0.017498 0.001000 -0.028557
v -0.017498 -0.001000 -0.028557
v -0.017577 0.001000 -0.028000
v -0.017577 -0.001000 -0.028000
v -0.016313 -0.000333 -0.029860
v -0.016313 -0.001000 -0.029860
v -0.017577 -0.001000 0.028000
v -0.017489 -0.001000 0.028585
v -0.017577 0.001000 0.028000
v -0.017489 0.001000 0.028585
v -0.017234 0.001000 0.029120
v -0.017234 -0.001000 0.029120
v -0.016825 0.001000 0.029562
v -0.016825 -0.001000 0.029562
v -0.016313 0.001000 0.029860
v -0.016313 0.000333 0.029860
v -0.016313 -0.000333 0.029860
v -0.016313 -0.001000 0.029860
v -0.017577 -0.001000 -0.028000
v -0.017577 0.000000 -0.020900
v -0.017577 -0.001000 -0.020900
v -0.017577 0.001000 -0.028000
v -0.017577 0.001000 -0.020900
v -0.017577 0.001000 -0.016800
v -0.017577 0.000000 -0.016800
v -0.017577 0.001000 -0.005600
v -0.017577 -0.001000 -0.005600
v -0.017577 0.001000 0.005600
v -0.017577 -0.000000 0.016800
v -0.017577 0.001000 0.016800
v -0.017577 -0.001000 0.005600
v -0.017577 -0.001000 0.016800
v -0.017577 -0.001000 0.020900
v -0.017577 -0.000000 0.020900
v -0.017577 -0.001000 0.028000
v -0.017577 0.001000 0.028000
v -0.017577 0.001000 0.020900
v -0.017577 -0.001000 -0.016800
v -0.015629 -0.001000 -0.029395
v -0.015629 -0.001000 -0.021657
v -0.015629 0.000000 -0.029395
v -0.015629 0.001000 -0.029395
v -0.015629 0.001000 -0.021657
v -0.015629 0.001000 0.029395
v -0.015629 0.001000 0.021657
v -0.015629 -0.000000 0.029395
v -0.015629 -0.001000 0.021657
v -0.015629 -0.001000 0.029395
v -0.002577 -0.001000 0.025000
v -0.002427 -0.001000 0.025760
v -0.002577 0.001000 0.025000
v -0.002427 0.001000 0.025760
v -0.001976 0.001000 0.026429
v -0.001976 -0.001000 0.026429
v -0.001304 0.001000 0.026863
v -0.001304 -0.001000 0.026863
v -0.000577 0.001000 0.027000
v -0.000577 -0.001000 0.027000
v -0.000577 -0.001000 0.027000
v -0.000577 0.001000 0.027000
v 0.000423 -0.001000 0.027000
v 0.000423 0.001000 0.027000
v 0.000423 -0.001000 0.027000
v 0.000423 0.001000 0.027000
v 0.000423 -0.001000 0.020000
v 0.000423 0.001000 0.020000
v 0.000423 -0.001000 0.020000
v 0.000423 0.001000 0.020000
v 0.002423 -0.001000 0.020000
v 0.002423 0.001000 0.020000
v 0.002423 -0.001000 0.020000
v 0.002423 0.001000 0.020000
v 0.002423 -0.001000 0.027000
v 0.002423 0.001000 0.027000
v 0.002423 -0.001000 0.027000
v 0.002423 0.001000 0.027000
v 0.009423 -0.001000 0.027000
v 0.009423 0.001000 0.027000
v 0.009423 -0.001000 0.027000
v 0.009423 0.001000 0.027000
v 0.009423 -0.001000 0.020000
v 0.009423 0.001000 0.020000
v 0.009423 -0.001000 0.020000
v 0.009423 0.001000 0.020000
v 0.011423 -0.001000 0.020000
v 0.011423 0.001000 0.020000
v 0.011423 -0.001000 0.020000
v 0.011423 0.001000 0.020000
v 0.011423 -0.001000 0.027000
v 0.011423 0.001000 0.027000
v 0.011423 -0.001000 0.027000
v 0.011423 0.001000 0.027000
v 0.012423 -0.001000 0.027000
v 0.012423 0.001000 0.027000
v 0.012423 -0.001000 0.027000
v 0.013183 -0.001000 0.026850
v 0.012423 0.001000 0.027000
v 0.013183 0.001000 0.026850
v 0.013852 0.001000 0.026399
v 0.013852 -0.001000 0.026399
v 0.014286 0.001000 0.025727
v 0.014286 -0.001000 0.025727
v 0.014423 0.001000 0.025000
v 0.014423 -0.001000 0.025000
v 0.014423 -0.001000 0.025000
v 0.014423 -0.000000 0.020000
v 0.014423 -0.001000 0.020000
v 0.014423 0.001000 0.025000
v 0.014423 0.001000 0.020000
v 0.014423 0.001000 0.015000
v 0.014423 -0.000000 0.015000
v 0.014423 0.001000 0.005000
v 0.014423 -0.001000 0.005000
v 0.014423 0.001000 -0.005000
v 0.014423 -0.001000 -0.005000
v 0.014423 0.000000 -0.015000
v 0.014423 0.001000 -0.015000
v 0.014423 0.001000 -0.020000
v 0.014423 0.001000 -0.025000
v 0.014423 0.000000 -0.020000
v 0.014423 -0.001000 -0.020000
v 0.014423 -0.001000 -0.025000
v 0.014423 -0.001000 -0.015000
v 0.014423 -0.001000 0.015000
v 0.014423 -0.001000 -0.025000
v 0.014273 -0.001000 -0.025760
v 0.014423 0.001000 -0.025000
v 0.014273 0.001000 -0.025760
v 0.013823 0.001000 -0.026429
v 0.013150 0.001000 -0.026863
v 0.013823 -0.001000 -0.026429
v 0.013150 -0.001000 -0.026863
v 0.012423 -0.001000 -0.027000
v 0.012423 0.001000 -0.027000
v 0.012423 -0.001000 -0.027000
v 0.012423 0.001000 -0.027000
v 0.011423 -0.001000 -0.027000
v 0.011423 0.001000 -0.027000
v 0.011423 -0.001000 -0.027000
v 0.011423 0.001000 -0.027000
v 0.011423 -0.001000 -0.020000
v 0.011423 0.001000 -0.020000
v 0.011423 -0.001000 -0.020000
v 0.011423 0.001000 -0.020000
v 0.009423 -0.001000 -0.020000
v 0.009423 0.001000 -0.020000
v 0.009423 -0.001000 -0.020000
v 0.009423 0.001000 -0.020000
v 0.009423 -0.001000 -0.027000
v 0.009423 0.001000 -0.027000
v 0.009423 -0.001000 -0.027000
v 0.009423 0.001000 -0.027000
v 0.002423 -0.001000 -0.027000
v 0.002423 0.001000 -0.027000
v 0.002423 -0.001000 -0.027000
v 0.002423 0.001000 -0.027000
v 0.002423 -0.001000 -0.020000
v 0.002423 0.001000 -0.020000
v 0.002423 -0.001000 -0.020000
v 0.002423 0.001000 -0.020000
v 0.000423 -0.001000 -0.020000
v 0.000423 0.001000 -0.020000
v 0.000423 -0.001000 -0.020000
v 0.000423 0.001000 -0.020000
v 0.000423 -0.001000 -0.027000
v 0.000423 0.001000 -0.027000
v 0.000423 -0.001000 -0.027000
v 0.000423 0.001000 -0.027000
v -0.000577 -0.001000 -0.027000
v -0.000577 0.001000 -0.027000
v -0.000577 -0.001000 -0.027000
v -0.001337 -0.001000 -0.026850
v -0.000577 0.001000 -0.027000
v -0.001337 0.001000 -0.026850
v -0.002006 0.001000 -0.026399
v -0.002006 -0.001000 -0.026399
v -0.002440 0.001000 -0.025727
v -0.002577 0.001000 -0.025000
v -0.002440 -0.001000 -0.025727
v -0.002577 -0.001000 -0.025000
v -0.002577 0.001000 -0.025000
v -0.002577 -0.001000 -0.025000
v -0.002577 0.001000 -0.019898
v -0.002577 -0.001000 -0.019898
v -0.008783 -0.001000 -0.002848
v -0.008783 0.001000 -0.002848
v -0.015629 -0.001000 -0.021657
v -0.015629 0.001000 -0.021657
v -0.008783 0.001000 0.002848
v -0.008783 -0.001000 0.002848
v -0.015629 0.001000 0.021657
v -0.015629 -0.001000 0.021657
v -0.002577 0.001000 0.025000
v -0.002577 -0.001000 0.025000
v -0.002577 0.001000 0.019898
v -0.002577 -0.001000 0.019898
v -0.016313 0.001000 -0.029860
v -0.016089 0.001000 -0.029893
v -0.016202 0.000500 -0.029889
v -0.016313 0.000333 -0.029860
v -0.016202 0.000000 -0.029889
v -0.016313 -0.000333 -0.029860
v -0.016313 -0.001000 -0.029860
v -0.016202 -0.000500 -0.029889
v -0.016077 -0.000500 -0.029892
v -0.016089 -0.001000 -0.029893
v -0.015848 -0.001000 -0.029808
v -0.016077 0.000000 -0.029892
v -0.015687 0.000000 -0.029628
v -0.015680 -0.001000 -0.029615
v -0.015687 -0.000500 -0.029628
v -0.015642 -0.000500 -0.029509
v -0.015629 -0.001000 -0.029395
v -0.015642 0.000000 -0.029509
v -0.015629 0.000000 -0.029395
v -0.015629 0.001000 -0.029395
v -0.015642 0.000500 -0.029509
v -0.015687 0.000500 -0.029628
v -0.015680 0.001000 -0.029615
v -0.015848 0.001000 -0.029808
v -0.016077 0.000500 -0.029892
v -0.016313 -0.001000 0.029860
v -0.016089 -0.001000 0.029893
v -0.016202 -0.000500 0.029889
v -0.016313 -0.000333 0.029860
v -0.016202 -0.000000 0.029889
v -0.016313 0.000333 0.029860
v -0.016313 0.001000 0.029860
v -0.016202 0.000500 0.029889
v -0.016077 0.000500 0.029892
v -0.016089 0.001000 0.029893
v -0.015848 0.001000 0.029808
v -0.016077 -0.000000 0.029892
v -0.015687 -0.000000 0.029628
v -0.015680 0.001000 0.029615
v -0.015687 0.000500 0.029628
v -0.015642 0.000500 0.029509
v -0.015642 -0.000000 0.029509
v -0.015629 -0.000000 0.029395
v -0.015629 0.001000 0.029395
v -0.015642 -0.000500 0.029509
v -0.015629 -0.001000 0.029395
v -0.015680 -0.001000 0.029615
v -0.015687 -0.000500 0.029628
v -0.015848 -0.001000 0.029808
v -0.016077 -0.000500 0.029892
v -0.015629 -0.001000 0.029395
v -0.017577 -0.001000 0.027009
v -0.016837 -0.001000 0.029553
v -0.015848 -0.001000 0.029808
v -0.015680 -0.001000 0.029615
v -0.016089 -0.001000 0.029893
v -0.016313 -0.001000 0.029860
v -0.015629 -0.001000 0.021657
v -0.017577 -0.001000 0.021314
v -0.017577 -0.001000 0.023000
v -0.015629 -0.001000 0.015962
v -0.008783 -0.001000 0.002848
v -0.009819 -0.001000 0.000000
v -0.002577 -0.001000 0.014203
v -0.002577 -0.001000 0.019898
v -0.007746 -0.001000 0.000000
v -0.008783 -0.001000 -0.002848
v -0.002577 -0.001000 -0.014203
v 0.004423 -0.001000 -0.010000
v 0.004423 -0.001000 0.010000
v 0.000423 -0.001000 -0.020000
v -0.002577 -0.001000 -0.019898
v -0.002577 -0.001000 -0.025000
v 0.000423 -0.001000 -0.022445
v -0.000577 -0.001000 -0.027000
v 0.000423 -0.001000 -0.026677
v -0.001313 -0.001000 -0.026859
v -0.001991 -0.001000 -0.026414
v -0.002436 -0.001000 -0.025736
v 0.000423 -0.001000 -0.027000
v 0.002423 -0.001000 -0.020000
v 0.002423 -0.001000 -0.027000
v 0.006423 -0.001000 -0.010000
v 0.009423 -0.001000 -0.020000
v 0.011423 -0.001000 -0.020000
v 0.009423 -0.001000 -0.027000
v 0.009423 -0.001000 -0.012000
v 0.011423 -0.001000 -0.012000
v 0.009423 -0.001000 0.012000
v 0.009423 -0.001000 0.020000
v 0.011423 -0.001000 0.012000
v 0.006423 -0.001000 0.010000
v 0.002423 -0.001000 0.020000
v 0.000423 -0.001000 0.020000
v 0.002423 -0.001000 0.027000
v 0.009423 -0.001000 0.027000
v 0.000423 -0.001000 0.022445
v -0.000577 -0.001000 0.027000
v 0.000423 -0.001000 0.026677
v -0.002577 -0.001000 0.025000
v -0.001313 -0.001000 0.026859
v -0.001991 -0.001000 0.026414
v -0.002436 -0.001000 0.025736
v 0.000423 -0.001000 0.027000
v 0.014423 -0.001000 -0.025000
v 0.011423 -0.001000 0.020000
v 0.014423 -0.001000 0.025000
v 0.013159 -0.001000 0.026859
v 0.013837 -0.001000 0.026414
v 0.014283 -0.001000 0.025736
v 0.012423 -0.001000 0.027000
v 0.011423 -0.001000 0.027000
v 0.013837 -0.001000 -0.026414
v 0.013159 -0.001000 -0.026859
v 0.014283 -0.001000 -0.025736
v 0.012423 -0.001000 -0.027000
v 0.011423 -0.001000 -0.027000
v -0.015629 -0.001000 -0.021657
v -0.015629 -0.001000 -0.015962
v -0.017577 -0.001000 -0.021314
v -0.017577 -0.001000 -0.023000
v -0.017577 -0.001000 -0.027009
v -0.016837 -0.001000 -0.029553
v -0.017577 -0.001000 -0.028000
v -0.015629 -0.001000 -0.029395
v -0.016089 -0.001000 -0.029893
v -0.016313 -0.001000 -0.029860
v -0.015680 -0.001000 -0.029615
v -0.015848 -0.001000 -0.029808
v -0.017251 -0.001000 -0.029094
v -0.017500 -0.001000 -0.028550
v -0.017251 -0.001000 0.029094
v -0.017577 -0.001000 0.028000
v -0.017500 -0.001000 0.028550
vn 0.000000 1.000000 0.000000
vn 0.000000 1.000000 0.000000
vn 0.000000 1.000000 0.000000
vn 0.000000 1.000000 0.000000
vn 0.000000 1.000000 0.000000
vn 0.000000 1.000000 0.000000
vn 0.000000 1.000000 0.000000
vn 0.000000 1.000000 0.000000
vn 0.000000 1.000000 0.000000
vn 0.000000 1.000000 0.000000
vn 0.000000 1.000000 0.000000
vn 0.000000 1.000000 0.000000
vn 0.000000 1.000000 0.000000
vn 0.000000 1.000000 0.000000
vn 0.000000 1.000000 0.000000
vn 0.000000 1.000000 0.000000
vn 0.000000 1.000000 0.000000
vn 0.000000 1.000000 0.000000
vn 0.000000 1.000000 0.000000
vn 0.000000 1.000000 0.000000
vn 0.000000 1.000000 0.000000
vn 0.000000 1.000000 0.000000
vn 0.000000 1.000000 0.000000
vn 0.000000 1.000000 0.000000
vn 0.000000 1.000000 0.000000
vn 0.000000 1.000000 0.000000
vn 0.000000 1.000000 0.000000
vn 0.000000 1.000000 0.000000
vn 0.000000 1.000000 0.000000
vn 0.000000 1.000000 0.000000
vn 0.000000 1.000000 0.000000
vn 0.000000 1.000000 0.000000
vn 0.000000 1.000000 0.000000
vn 0.000000 1.000000 0.000000
vn 0.000000 1.000000 0.000000
vn 0.000000 1.000000 0.000000
vn 0.000000 1.000000 0.000000
vn 0.000000 1.000000 0.000000
vn 0.000000 1.000000 0.000000
vn 0.000000 1.000000 0.000000
vn 0.000000 1.000000 0.000000
vn 0.000000 1.000000 0.000000
vn 0.000000 1.000000 0.000000
vn 0.000000 1.000000 0.000000
vn 0.000000 1.000000 0.000000
vn 0.000000 1.000000 0.000000
vn 0.000000 1.000000 0.000000
vn 0.000000 1.000000 0.000000
vn 0.000000 1.000000 0.000000
vn 0.000000 1.000000 0.000000
vn 0.000000 1.000000 0.000000
vn 0.000000 1.000000 0.000000
vn 0.000000 1.000000 0.000000
vn 0.000000 1.000000 0.000000
vn 0.000000 1.000000 0.000000
vn 0.000000 1.000000 0.000000
vn 0.000000 1.000000 0.000000
vn 0.000000 1.000000 0.000000
vn 0.000000 1.000000 0.000000
vn 0.000000 1.000000 0.000000
vn 0.000000 1.000000 0.000000
vn 0.000000 1.000000 0.000000
vn 0.000000 1.000000 0.000000
vn 0.000000 1.000000 0.000000
vn 0.000000 1.000000 0.000000
vn 0.000000 1.000000 0.000000
vn 0.000000 1.000000 0.000000
vn 0.000000 1.000000 0.000000
vn 0.000000 1.000000 0.000000
vn 0.000000 1.000000 0.000000
vn 0.000000 1.000000 0.000000
vn 0.000000 1.000000 0.000000
vn 0.000000 1.000000 0.000000
vn 0.000000 1.000000 0.000000
vn 0.000000 1.000000 0.000000
vn 0.000000 1.000000 0.000000
vn 0.000000 1.000000 0.000000
vn 0.000000 1.000000 0.000000
vn 0.000000 1.000000 0.000000
vn 0.000000 1.000000 0.000000
vn 0.000000 1.000000 0.000000
vn 0.000000 1.000000 0.000000
vn 0.000000 1.000000 0.000000
vn 0.000000 1.000000 0.000000
vn -0.939700 -0.000000 0.342000
vn -0.939700 -0.000000 0.342000
vn -0.939700 -0.000000 0.342000
vn -0.939700 -0.000000 0.342000
vn -0.939700 -0.000000 0.342000
vn -0.939700 -0.000000 0.342000
vn -0.939700 -0.000000 0.342000
vn -0.939700 -0.000000 0.342000
vn -0.939700 -0.000000 0.342000
vn -0.939700 -0.000000 0.342000
vn -0.939700 -0.000000 0.342000
vn -0.939700 -0.000000 0.342000
vn -0.939700 -0.000000 0.342000
vn -0.939700 0.000000 -0.342000
vn -0.939700 0.000000 -0.342000
vn -0.939700 0.000000 -0.342000
vn -0.939700 0.000000 -0.342000
vn -0.939700 0.000000 -0.342000
vn -0.939700 0.000000 -0.342000
vn -0.939700 0.000000 -0.342000
vn -0.939700 0.000000 -0.342000
vn -0.939700 0.000000 -0.342000
vn -0.939700 0.000000 -0.342000
vn -0.939700 0.000000 -0.342000
vn -0.939700 0.000000 -0.342000
vn -0.939700 0.000000 -0.342000
vn 1.000000 0.000000 0.000000
vn 1.000000 0.000000 0.000000
vn 1.000000 0.000000 0.000000
vn 1.000000 0.000000 0.000000
vn -1.000000 0.000000 0.000000
vn -1.000000 0.000000 0.000000
vn -1.000000 0.000000 0.000000
vn -1.000000 0.000000 0.000000
vn 0.000000 0.000000 -1.000000
vn 0.000000 0.000000 -1.000000
vn 0.000000 0.000000 -1.000000
vn 0.000000 0.000000 -1.000000
vn 1.000000 0.000000 0.000000
vn 1.000000 0.000000 0.000000
vn 1.000000 0.000000 0.000000
vn 1.000000 0.000000 0.000000
vn 0.000000 -0.000000 1.000000
vn 0.000000 -0.000000 1.000000
vn 0.000000 -0.000000 1.000000
vn 0.000000 -0.000000 1.000000
vn -1.000000 0.000000 0.000000
vn -1.000000 0.000000 0.000000
vn -1.000000 0.000000 0.000000
vn -1.000000 0.000000 0.000000
vn 0.000000 0.000000 -1.000000
vn 0.000000 0.000000 -1.000000
vn 0.000000 0.000000 -1.000000
vn 0.000000 0.000000 -1.000000
vn 1.000000 0.000000 0.000000
vn 1.000000 0.000000 0.000000
vn 1.000000 0.000000 0.000000
vn 1.000000 0.000000 0.000000
vn 0.000000 -0.000000 1.000000
vn 0.000000 -0.000000 1.000000
vn 0.000000 -0.000000 1.000000
vn 0.000000 -0.000000 1.000000
vn 0.939700 0.000000 -0.342000
vn 0.939700 0.000000 -0.342000
vn 0.939700 0.000000 -0.342000
vn 0.939700 0.000000 -0.342000
vn 0.939700 -0.000000 0.342000
vn 0.939700 -0.000000 0.342000
vn 0.939700 -0.000000 0.342000
vn 0.939700 -0.000000 0.342000
vn -1.000000 0.000000 0.000000
vn -1.000000 0.000000 0.000000
vn -1.000000 0.000000 0.000000
vn -1.000000 0.000000 0.000000
vn -0.939700 -0.000000 0.342000
vn -0.939700 -0.000000 0.342000
vn -0.939700 -0.000000 0.342000
vn -0.939700 -0.000000 0.342000
vn -0.939700 -0.000000 0.342000
vn -0.939700 -0.000000 0.342000
vn -0.939700 -0.000000 0.342000
vn -0.939700 -0.000000 0.342000
vn -0.939700 -0.000000 0.342000
vn -0.939700 -0.000000 0.342000
vn -0.939700 -0.000000 0.342000
vn -0.939700 -0.000000 0.342000
vn -0.939700 -0.000000 0.342000
vn -0.939700 0.000000 -0.342000
vn -0.939700 0.000000 -0.342000
vn -0.939700 0.000000 -0.342000
vn -0.939700 0.000000 -0.342000
vn -0.939700 0.000000 -0.342000
vn -0.939700 0.000000 -0.342000
vn -0.939700 0.000000 -0.342000
vn -0.939700 0.000000 -0.342000
vn -0.939700 0.000000 -0.342000
vn -0.939700 0.000000 -0.342000
vn -0.939700 0.000000 -0.342000
vn -0.939700 0.000000 -0.342000
vn -0.939700 0.000000 -0.342000
vn -0.368095 0.000000 -0.929788
vn -0.368095 0.000000 -0.929788
vn -0.624622 0.000000 -0.780927
vn -0.624622 0.000000 -0.780927
vn -0.833110 0.000000 -0.553107
vn -0.833110 0.000000 -0.553107
vn -0.960468 0.000000 -0.278391
vn -0.960468 0.000000 -0.278391
vn -1.000000 0.000000 -0.000100
vn -1.000000 0.000000 -0.000100
vn -0.368095 0.000000 -0.929788
vn -0.368095 0.000000 -0.929788
vn -1.000000 -0.000000 0.000100
vn -0.956232 -0.000000 0.292610
vn -1.000000 -0.000000 0.000100
vn -0.956232 -0.000000 0.292610
vn -0.828495 -0.000000 0.559997
vn -0.828495 -0.000000 0.559997
vn -0.624402 -0.000000 0.781103
vn -0.624292 -0.000000 0.781191
vn -0.368095 -0.000000 0.929788
vn -0.368095 -0.000000 0.929788
vn -0.368095 -0.000000 0.929788
vn -0.368095 -0.000000 0.929788
vn -1.000000 0.000000 0.000000
vn -1.000000 0.000000 0.000000
vn -1.000000 0.000000 0.000000
vn -1.000000 0.000000 0.000000
vn -1.000000 0.000000 0.000000
vn -1.000000 0.000000 0.000000
vn -1.000000 0.000000 0.000000
vn -1.000000 0.000000 0.000000
vn -1.000000 0.000000 0.000000
vn -1.000000 0.000000 0.000000
vn -1.000000 0.000000 0.000000
vn -1.000000 0.000000 0.000000
vn -1.000000 0.000000 0.000000
vn -1.000000 0.000000 0.000000
vn -1.000000 0.000000 0.000000
vn -1.000000 0.000000 0.000000
vn -1.000000 0.000000 0.000000
vn -1.000000 0.000000 0.000000
vn -1.000000 0.000000 0.000000
vn -1.000000 0.000000 0.000000
vn 1.000000 0.000000 0.000000
vn 1.000000 0.000000 0.000000
vn 1.000000 0.000000 0.000000
vn 1.000000 0.000000 0.000000
vn 1.000000 0.000000 0.000000
vn 1.000000 0.000000 0.000000
vn 1.000000 0.000000 0.000000
vn 1.000000 0.000000 0.000000
vn 1.000000 0.000000 0.000000
vn 1.000000 0.000000 0.000000
vn -1.000000 -0.000000 0.000100
vn -0.925024 -0.000000 0.379910
vn -1.000000 -0.000000 0.000100
vn -0.925024 -0.000000 0.379910
vn -0.699668 -0.000000 0.714468
vn -0.699668 -0.000000 0.714468
vn -0.363498 -0.000000 0.931595
vn -0.363498 -0.000000 0.931595
vn -0.000100 -0.000100 1.000000
vn -0.000100 -0.000000 1.000000
vn 0.000000 -0.000000 1.000000
vn 0.000000 -0.000000 1.000000
vn 0.000000 -0.000000 1.000000
vn 0.000000 -0.000000 1.000000
vn 1.000000 0.000000 0.000000
vn 1.000000 0.000000 0.000000
vn 1.000000 0.000000 0.000000
vn 1.000000 0.000000 0.000000
vn 0.000000 -0.000000 1.000000
vn 0.000000 -0.000000 1.000000
vn 0.000000 -0.000000 1.000000
vn 0.000000 -0.000000 1.000000
vn -1.000000 0.000000 0.000000
vn -1.000000 0.000000 0.000000
vn -1.000000 0.000000 0.000000
vn -1.000000 0.000000 0.000000
vn 0.000000 -0.000000 1.000000
vn 0.000000 -0.000000 1.000000
vn 0.000000 -0.000000 1.000000
vn 0.000000 -0.000000 1.000000
vn 1.000000 0.000000 0.000000
vn 1.000000 0.000000 0.000000
vn 1.000000 0.000000 0.000000
vn 1.000000 0.000000 0.000000
vn 0.000000 -0.000000 1.000000
vn 0.000000 -0.000000 1.000000
vn 0.000000 -0.000000 1.000000
vn 0.000000 -0.000000 1.000000
vn -1.000000 0.000000 0.000000
vn -1.000000 0.000000 0.000000
vn -1.000000 0.000000 0.000000
vn -1.000000 0.000000 0.000000
vn 0.000000 -0.000000 1.000000
vn 0.000000 -0.000000 1.000000
vn 0.000000 -0.000000 1.000000
vn 0.000000 -0.000000 1.000000
vn 0.000100 -0.000000 1.000000
vn 0.379910 -0.000000 0.925024
vn 0.000100 -0.000000 1.000000
vn 0.379910 -0.000000 0.925024
vn 0.714419 -0.000000 0.699718
vn 0.714419 -0.000000 0.699718
vn 0.931595 -0.000000 0.363498
vn 0.931595 -0.000000 0.363498
vn 1.000000 -0.000100 0.000100
vn 1.000000 -0.000000 0.000100
vn 1.000000 0.000000 0.000000
vn 1.000000 0.000000 0.000000
vn 1.000000 0.000000 0.000000
vn 1.000000 0.000000 0.000000
vn 1.000000 0.000000 0.000000
vn 1.000000 0.000000 0.000000
vn 1.000000 0.000000 0.000000
vn 1.000000 0.000000 0.000000
vn 1.000000 0.000000 0.000000
vn 1.000000 0.000000 0.000000
vn 1.000000 0.000000 0.000000
vn 1.000000 0.000000 0.000000
vn 1.000000 0.000000 0.000000
vn 1.000000 0.000000 0.000000
vn 1.000000 0.000000 0.000000
vn 1.000000 0.000000 0.000000
vn 1.000000 0.000000 0.000000
vn 1.000000 0.000000 0.000000
vn 1.000000 0.000000 0.000000
vn 1.000000 0.000000 0.000000
vn 1.000000 0.000000 -0.000100
vn 0.925024 0.000000 -0.379910
vn 1.000000 0.000000 -0.000100
vn 0.925024 0.000000 -0.379910
vn 0.699668 0.000000 -0.714468
vn 0.363411 0.000000 -0.931629
vn 0.699668 0.000000 -0.714468
vn 0.363411 0.000000 -0.931629
vn 0.000100 0.000000 -1.000000
vn 0.000100 0.000000 -1.000000
vn 0.000000 0.000000 -1.000000
vn 0.000000 0.000000 -1.000000
vn 0.000000 0.000000 -1.000000
vn 0.000000 0.000000 -1.000000
vn -1.000000 0.000000 0.000000
vn -1.000000 0.000000 0.000000
vn -1.000000 0.000000 0.000000
vn -1.000000 0.000000 0.000000
vn 0.000000 0.000000 -1.000000
vn 0.000000 0.000000 -1.000000
vn 0.000000 0.000000 -1.000000
vn 0.000000 0.000000 -1.000000
vn 1.000000 0.000000 0.000000
vn 1.000000 0.000000 0.000000
vn 1.000000 0.000000 0.000000
vn 1.000000 0.000000 0.000000
vn 0.000000 0.000000 -1.000000
vn 0.000000 0.000000 -1.000000
vn 0.000000 0.000000 -1.000000
vn 0.000000 0.000000 -1.000000
vn -1.000000 0.000000 0.000000
vn -1.000000 0.000000 0.000000
vn -1.000000 0.000000 0.000000
vn -1.000000 0.000000 0.000000
vn 0.000000 0.000000 -1.000000
vn 0.000000 0.000000 -1.000000
vn 0.000000 0.000000 -1.000000
vn 0.000000 0.000000 -1.000000
vn 1.000000 0.000000 0.000000
vn 1.000000 0.000000 0.000000
vn 1.000000 0.000000 0.000000
vn 1.000000 0.000000 0.000000
vn 0.000000 0.000000 -1.000000
vn 0.000000 0.000000 -1.000000
vn 0.000000 0.000000 -1.000000
vn 0.000000 0.000000 -1.000000
vn -0.000100 0.000000 -1.000000
vn -0.379910 0.000000 -0.925024
vn -0.000100 0.000000 -1.000000
vn -0.379910 0.000000 -0.925024
vn -0.714369 0.000000 -0.699769
vn -0.714369 0.000000 -0.699769
vn -0.931595 0.000000 -0.363498
vn -1.000000 -0.000100 -0.000100
vn -0.931595 0.000000 -0.363498
vn -1.000000 0.000000 -0.000100
vn -1.000000 0.000000 0.000000
vn -1.000000 0.000000 0.000000
vn -1.000000 0.000000 0.000000
vn -1.000000 0.000000 0.000000
vn 0.939700 0.000000 -0.342000
vn 0.939700 0.000000 -0.342000
vn 0.939700 0.000000 -0.342000
vn 0.939700 0.000000 -0.342000
vn 0.939700 -0.000000 0.342000
vn 0.939700 -0.000000 0.342000
vn 0.939700 -0.000000 0.342000
vn 0.939700 -0.000000 0.342000
vn -1.000000 0.000000 0.000000
vn -1.000000 0.000000 0.000000
vn -1.000000 0.000000 0.000000
vn -1.000000 0.000000 0.000000
vn -0.367888 0.000000 -0.929870
vn 0.079296 0.000000 -0.996851
vn -0.146697 0.000000 -0.989181
vn -0.368009 0.000000 -0.929822
vn -0.146795 0.000000 -0.989167
vn -0.367802 0.000000 -0.929904
vn -0.367888 0.000000 -0.929870
vn -0.146697 0.000000 -0.989181
vn 0.104503 0.000200 -0.994525
vn 0.079296 0.000000 -0.996851
vn 0.562132 -0.000100 -0.827047
vn 0.104503 0.000000 -0.994525
vn 0.884203 0.000000 -0.467102
vn 0.897703 -0.000100 -0.440601
vn 0.884245 0.000000 -0.467024
vn 0.973308 0.000000 -0.229502
vn 1.000000 0.000000 -0.000100
vn 0.973308 0.000000 -0.229502
vn 1.000000 0.000000 -0.000100
vn 1.000000 0.000000 -0.000100
vn 0.973308 0.000000 -0.229502
vn 0.884245 -0.000300 -0.467024
vn 0.897703 0.000100 -0.440601
vn 0.562132 0.000100 -0.827047
vn 0.104503 0.000000 -0.994525
vn -0.368009 -0.000000 0.929822
vn 0.079296 -0.000000 0.996851
vn -0.146795 -0.000000 0.989167
vn -0.367922 -0.000000 0.929857
vn -0.146795 -0.000000 0.989167
vn -0.367888 -0.000000 0.929870
vn -0.368009 -0.000000 0.929822
vn -0.146795 -0.000000 0.989167
vn 0.104503 -0.000200 0.994525
vn 0.079296 -0.000000 0.996851
vn 0.562132 0.000100 0.827047
vn 0.104601 -0.000000 0.994514
vn 0.884203 -0.000000 0.467102
vn 0.897703 0.000100 0.440601
vn 0.884245 -0.000000 0.467024
vn 0.973308 -0.000000 0.229502
vn 0.973308 -0.000000 0.229502
vn 1.000000 0.000000 0.000000
vn 1.000000 -0.000000 0.000100
vn 0.973308 -0.000000 0.229502
vn 1.000000 -0.000000 0.000100
vn 0.897703 -0.000100 0.440601
vn 0.884245 0.000300 0.467024
vn 0.562086 -0.000100 0.827079
vn 0.104503 -0.000000 0.994525
vn 0.000000 -1.000000 -0.000000
vn 0.000000 -1.000000 -0.000000
vn 0.000000 -1.000000 -0.000000
vn 0.000000 -1.000000 -0.000000
vn 0.000000 -1.000000 -0.000000
vn 0.000000 -1.000000 -0.000000
vn 0.000000 -1.000000 -0.000000
vn 0.000000 -1.000000 -0.000000
vn 0.000000 -1.000000 -0.000000
vn 0.000000 -1.000000 -0.000000
vn 0.000000 -1.000000 -0.000000
vn 0.000000 -1.000000 -0.000000
vn 0.000000 -1.000000 -0.000000
vn 0.000000 -1.000000 -0.000000
vn 0.000000 -1.000000 -0.000000
vn 0.000000 -1.000000 -0.000000
vn 0.000000 -1.000000 -0.000000
vn 0.000000 -1.000000 -0.000000
vn 0.000000 -1.000000 -0.000000
vn 0.000000 -1.000000 -0.000000
vn 0.000000 -1.000000 -0.000000
vn 0.000000 -1.000000 -0.000000
vn 0.000000 -1.000000 -0.000000
vn 0.000000 -1.000000 -0.000000
vn 0.000000 -1.000000 -0.000000
vn 0.000000 -1.000000 -0.000000
vn 0.000000 -1.000000 -0.000000
vn 0.000000 -1.000000 -0.000000
vn 0.000000 -1.000000 -0.000000
vn 0.000000 -1.000000 -0.000000
vn 0.000000 -1.000000 -0.000000
vn 0.000000 -1.000000 -0.000000
vn 0.000000 -1.000000 -0.000000
vn 0.000000 -1.000000 -0.000000
vn 0.000000 -1.000000 -0.000000
vn 0.000000 -1.000000 -0.000000
vn 0.000000 -1.000000 -0.000000
vn 0.000000 -1.000000 -0.000000
vn 0.000000 -1.000000 -0.000000
vn 0.000000 -1.000000 -0.000000
vn 0.000000 -1.000000 -0.000000
vn 0.000000 -1.000000 -0.000000
vn 0.000000 -1.000000 -0.000000
vn 0.000000 -1.000000 -0.000000
vn 0.000000 -1.000000 -0.000000
vn 0.000000 -1.000000 -0.000000
vn 0.000000 -1.000000 -0.000000
vn 0.000000 -1.000000 -0.000000
vn 0.000000 -1.000000 -0.000000
vn 0.000000 -1.000000 -0.000000
vn 0.000000 -1.000000 -0.000000
vn 0.000000 -1.000000 -0.000000
vn 0.000000 -1.000000 -0.000000
vn 0.000000 -1.000000 -0.000000
vn 0.000000 -1.000000 -0.000000
vn 0.000000 -1.000000 -0.000000
vn 0.000000 -1.000000 -0.000000
vn 0.000000 -1.000000 -0.000000
vn 0.000000 -1.000000 -0.000000
vn 0.000000 -1.000000 -0.000000
vn 0.000000 -1.000000 -0.000000
vn 0.000000 -1.000000 -0.000000
vn 0.000000 -1.000000 -0.000000
vn 0.000000 -1.000000 -0.000000
vn 0.000000 -1.000000 -0.000000
vn 0.000000 -1.000000 -0.000000
vn 0.000000 -1.000000 -0.000000
vn 0.000000 -1.000000 -0.000000
vn 0.000000 -1.000000 -0.000000
vn 0.000000 -1.000000 -0.000000
vn 0.000000 -1.000000 -0.000000
vn 0.000000 -1.000000 -0.000000
vn 0.000000 -1.000000 -0.000000
vn 0.000000 -1.000000 -0.000000
vn 0.000000 -1.000000 -0.000000
vn 0.000000 -1.000000 -0.000000
vn 0.000000 -1.000000 -0.000000
vn 0.000000 -1.000000 -0.000000
vn 0.000000 -1.000000 -0.000000
vn 0.000000 -1.000000 -0.000000
vn 0.000000 -1.000000 -0.000000
vn 0.000000 -1.000000 -0.000000
vn 0.000000 -1.000000 -0.000000
vn 0.000000 -1.000000 -0.000000
f 2//2 4//4 1//1
f 2//2 1//1 3//3
f 5//5 4//4 2//2
f 5//5 2//2 6//6
f 6//6 2//2 7//7
f 8//8 7//7 2//2
f 2//2 9//9 8//8
f 9//9 10//10 8//8
f 11//11 10//10 9//9
f 12//12 11//11 9//9
f 13//13 11//11 12//12
f 14//14 11//11 13//13
f 15//15 14//14 16//16
f 14//14 13//13 16//16
f 16//16 13//13 17//17
f 18//18 15//15 16//16
f 18//18 16//16 19//19
f 19//19 21//21 20//20
f 20//20 27//27 19//19
f 22//22 21//21 19//19
f 22//22 19//19 23//23
f 19//19 24//24 23//23
f 25//25 24//24 19//19
f 19//19 26//26 25//25
f 19//19 27//27 18//18
f 13//13 28//28 17//17
f 28//28 29//29 17//17
f 29//29 31//31 17//17
f 30//30 17//17 31//31
f 30//30 31//31 34//34
f 35//35 31//31 32//32
f 31//31 33//33 32//32
f 31//31 35//35 34//34
f 36//36 38//38 35//35
f 36//36 35//35 37//37
f 37//37 35//35 32//32
f 39//39 40//40 37//37
f 37//37 32//32 39//39
f 37//37 40//40 41//41
f 42//42 44//44 41//41
f 41//41 40//40 42//42
f 43//43 45//45 41//41
f 41//41 44//44 43//43
f 43//43 44//44 46//46
f 47//47 46//46 44//44
f 48//48 47//47 44//44
f 44//44 50//50 49//49
f 50//50 44//44 42//42
f 51//51 53//53 50//50
f 49//49 50//50 52//52
f 52//52 50//50 53//53
f 53//53 55//55 54//54
f 56//56 55//55 53//53
f 53//53 51//51 56//56
f 57//57 56//56 59//59
f 57//57 58//58 56//56
f 51//51 59//59 56//56
f 51//51 40//40 59//59
f 40//40 39//39 59//59
f 57//57 33//33 58//58
f 33//33 60//60 58//58
f 61//61 58//58 60//60
f 60//60 62//62 61//61
f 63//63 61//61 62//62
f 65//65 61//61 63//63
f 61//61 64//64 66//66
f 61//61 65//65 64//64
f 67//67 66//66 64//64
f 62//62 68//68 63//63
f 33//33 69//69 60//60
f 69//69 12//12 9//9
f 69//69 28//28 12//12
f 69//69 29//29 28//28
f 33//33 29//29 69//69
f 57//57 32//32 33//33
f 52//52 70//70 49//49
f 71//71 49//49 70//70
f 72//72 49//49 71//71
f 49//49 72//72 73//73
f 74//74 49//49 73//73
f 30//30 34//34 75//75
f 76//76 77//77 75//75
f 75//75 77//77 30//30
f 78//78 77//77 80//80
f 78//78 79//79 77//77
f 77//77 81//81 80//80
f 81//81 77//77 76//76
f 81//81 76//76 82//82
f 3//3 83//83 2//2
f 84//84 2//2 83//83
f 86//86 85//85 87//87
f 88//88 87//87 85//85
f 87//87 88//88 89//89
f 91//91 87//87 89//89
f 91//91 89//89 90//90
f 93//93 91//91 90//90
f 93//93 90//90 92//92
f 93//93 92//92 94//94
f 94//94 95//95 93//93
f 96//96 93//93 95//95
f 96//96 97//97 91//91
f 96//96 91//91 93//93
f 97//97 86//86 87//87
f 97//97 87//87 91//91
f 99//99 100//100 98//98
f 101//101 98//98 100//100
f 100//100 102//102 101//101
f 104//104 103//103 102//102
f 104//104 102//102 100//100
f 106//106 105//105 103//103
f 106//106 103//103 104//104
f 106//106 107//107 105//105
f 107//107 106//106 108//108
f 109//109 108//108 106//106
f 109//109 106//106 104//104
f 109//109 104//104 110//110
f 110//110 104//104 100//100
f 110//110 100//100 99//99
f 112//112 114//114 113//113
f 112//112 113//113 111//111
f 116//116 115//115 117//117
f 116//116 117//117 118//118
f 120//120 119//119 121//121
f 120//120 121//121 122//122
f 124//124 123//123 125//125
f 124//124 125//125 126//126
f 128//128 127//127 129//129
f 128//128 129//129 130//130
f 132//132 131//131 133//133
f 132//132 133//133 134//134
f 136//136 135//135 137//137
f 136//136 137//137 138//138
f 140//140 139//139 141//141
f 140//140 141//141 142//142
f 144//144 143//143 145//145
f 144//144 145//145 146//146
f 148//148 150//150 149//149
f 148//148 149//149 147//147
f 152//152 151//151 153//153
f 152//152 153//153 154//154
f 156//156 158//158 157//157
f 156//156 157//157 155//155
f 159//159 160//160 162//162
f 160//160 159//159 161//161
f 163//163 162//162 160//160
f 164//164 163//163 160//160
f 164//164 160//160 165//165
f 166//166 164//164 165//165
f 166//166 165//165 168//168
f 166//166 168//168 167//167
f 169//169 167//167 168//168
f 168//168 170//170 169//169
f 168//168 165//165 171//171
f 168//168 171//171 170//170
f 165//165 160//160 161//161
f 165//165 161//161 171//171
f 172//172 175//175 173//173
f 173//173 174//174 172//172
f 176//176 173//173 175//175
f 177//177 178//178 173//173
f 177//177 173//173 176//176
f 179//179 180//180 178//178
f 179//179 178//178 177//177
f 179//179 181//181 180//180
f 182//182 180//180 181//181
f 180//180 182//182 183//183
f 180//180 183//183 184//184
f 180//180 184//184 178//178
f 178//178 184//184 174//174
f 178//178 174//174 173//173
f 186//186 187//187 185//185
f 187//187 186//186 188//188
f 189//189 187//187 188//188
f 189//189 188//188 190//190
f 191//191 189//189 190//190
f 191//191 190//190 192//192
f 194//194 193//193 191//191
f 194//194 191//191 192//192
f 188//188 186//186 195//195
f 195//195 196//196 188//188
f 198//198 200//200 199//199
f 198//198 199//199 197//197
f 201//201 200//200 198//198
f 201//201 198//198 202//202
f 203//203 201//201 202//202
f 203//203 202//202 204//204
f 206//206 203//203 204//204
f 205//205 203//203 206//206
f 207//207 206//206 204//204
f 208//208 207//207 204//204
f 209//209 210//210 212//212
f 210//210 209//209 211//211
f 213//213 212//212 210//210
f 214//214 213//213 210//210
f 214//214 210//210 215//215
f 216//216 214//214 215//215
f 218//218 216//216 217//217
f 218//218 217//217 221//221
f 217//217 216//216 215//215
f 218//218 221//221 219//219
f 219//219 220//220 218//218
f 221//221 222//222 219//219
f 224//224 219//219 222//222
f 224//224 222//222 223//223
f 224//224 223//223 225//225
f 225//225 226//226 224//224
f 227//227 224//224 226//226
f 227//227 220//220 219//219
f 227//227 219//219 224//224
f 215//215 228//228 217//217
f 215//215 210//210 211//211
f 215//215 211//211 228//228
f 230//230 229//229 231//231
f 230//230 231//231 233//233
f 233//233 231//231 232//232
f 235//235 234//234 236//236
f 235//235 236//236 237//237
f 238//238 237//237 236//236
f 240//240 242//242 241//241
f 240//240 241//241 239//239
f 243//243 242//242 240//240
f 243//243 240//240 244//244
f 245//245 243//243 244//244
f 245//245 244//244 246//246
f 248//248 247//247 245//245
f 248//248 245//245 246//246
f 250//250 249//249 251//251
f 250//250 251//251 252//252
f 254//254 253//253 255//255
f 254//254 255//255 256//256
f 258//258 257//257 259//259
f 258//258 259//259 260//260
f 262//262 261//261 263//263
f 262//262 263//263 264//264
f 266//266 265//265 267//267
f 266//266 267//267 268//268
f 270//270 269//269 271//271
f 270//270 271//271 272//272
f 274//274 273//273 275//275
f 274//274 275//275 276//276
f 278//278 277//277 279//279
f 278//278 279//279 280//280
f 282//282 281//281 283//283
f 282//282 283//283 284//284
f 286//286 288//288 287//287
f 286//286 287//287 285//285
f 289//289 288//288 286//286
f 289//289 286//286 290//290
f 291//291 289//289 290//290
f 291//291 290//290 292//292
f 294//294 293//293 291//291
f 294//294 291//291 292//292
f 295//295 296//296 298//298
f 296//296 295//295 297//297
f 299//299 298//298 296//296
f 300//300 299//299 296//296
f 300//300 296//296 301//301
f 302//302 300//300 301//301
f 304//304 302//302 303//303
f 304//304 303//303 305//305
f 303//303 302//302 301//301
f 304//304 305//305 306//306
f 306//306 307//307 304//304
f 308//308 307//307 306//306
f 308//308 306//306 310//310
f 308//308 310//310 309//309
f 310//310 306//306 313//313
f 310//310 313//313 311//311
f 310//310 311//311 312//312
f 312//312 309//309 310//310
f 305//305 313//313 306//306
f 301//301 314//314 303//303
f 301//301 296//296 297//297
f 301//301 297//297 314//314
f 316//316 318//318 317//317
f 316//316 317//317 315//315
f 319//319 318//318 316//316
f 319//319 316//316 321//321
f 320//320 319//319 321//321
f 320//320 321//321 322//322
f 323//323 324//324 320//320
f 323//323 320//320 322//322
f 326//326 325//325 327//327
f 326//326 327//327 328//328
f 330//330 329//329 331//331
f 330//330 331//331 332//332
f 334//334 333//333 335//335
f 334//334 335//335 336//336
f 338//338 337//337 339//339
f 338//338 339//339 340//340
f 342//342 341//341 343//343
f 342//342 343//343 344//344
f 346//346 345//345 347//347
f 346//346 347//347 348//348
f 350//350 349//349 351//351
f 350//350 351//351 352//352
f 354//354 353//353 355//355
f 354//354 355//355 356//356
f 358//358 357//357 359//359
f 358//358 359//359 360//360
f 362//362 364//364 363//363
f 362//362 363//363 361//361
f 365//365 364//364 362//362
f 365//365 362//362 366//366
f 367//367 365//365 366//366
f 367//367 366//366 369//369
f 370//370 368//368 367//367
f 370//370 367//367 369//369
f 372//372 374//374 373//373
f 372//372 373//373 371//371
f 375//375 377//377 378//378
f 375//375 378//378 376//376
f 380//380 379//379 381//381
f 380//380 381//381 382//382
f 386//386 384//384 383//383
f 386//386 383//383 385//385
f 388//388 389//389 387//387
f 390//390 387//387 389//389
f 390//390 389//389 391//391
f 390//390 391//391 394//394
f 390//390 394//394 392//392
f 393//393 392//392 394//394
f 396//396 394//394 395//395
f 395//395 394//394 391//391
f 395//395 391//391 398//398
f 394//394 396//396 393//393
f 395//395 397//397 396//396
f 398//398 399//399 397//397
f 395//395 398//398 397//397
f 401//401 397//397 399//399
f 397//397 401//401 400//400
f 402//402 400//400 401//401
f 402//402 401//401 399//399
f 402//402 399//399 404//404
f 400//400 402//402 403//403
f 405//405 403//403 402//402
f 402//402 404//404 405//405
f 405//405 407//407 406//406
f 407//407 405//405 404//404
f 409//409 407//407 408//408
f 404//404 399//399 408//408
f 404//404 408//408 407//407
f 407//407 409//409 406//406
f 408//408 410//410 409//409
f 410//410 411//411 388//388
f 398//398 411//411 410//410
f 408//408 399//399 410//410
f 410//410 399//399 398//398
f 411//411 389//389 388//388
f 398//398 391//391 389//389
f 398//398 389//389 411//411
f 413//413 414//414 412//412
f 415//415 412//412 414//414
f 415//415 414//414 416//416
f 417//417 415//415 416//416
f 418//418 417//417 419//419
f 419//419 417//417 416//416
f 421//421 419//419 420//420
f 420//420 419//419 416//416
f 420//420 416//416 423//423
f 419//419 421//421 418//418
f 420//420 422//422 421//421
f 423//423 424//424 422//422
f 420//420 423//423 422//422
f 426//426 422//422 424//424
f 422//422 426//426 425//425
f 427//427 425//425 426//426
f 427//427 426//426 424//424
f 427//427 424//424 428//428
f 427//427 428//428 429//429
f 429//429 430//430 427//427
f 425//425 427//427 430//430
f 431//431 429//429 428//428
f 429//429 431//431 432//432
f 431//431 433//433 432//432
f 433//433 431//431 434//434
f 434//434 435//435 433//433
f 435//435 436//436 413//413
f 423//423 436//436 435//435
f 434//434 424//424 435//435
f 435//435 424//424 423//423
f 436//436 414//414 413//413
f 423//423 416//416 414//414
f 423//423 414//414 436//436
f 428//428 424//424 434//434
f 428//428 434//434 431//431
f 438//438 444//444 437//437
f 437//437 439//439 438//438
f 443//443 439//439 437//437
f 440//440 442//442 437//437
f 440//440 437//437 441//441
f 443//443 437//437 442//442
f 447//447 444//444 445//445
f 444//444 446//446 445//445
f 438//438 446//446 444//444
f 448//448 444//444 447//447
f 447//447 449//449 448//448
f 452//452 448//448 449//449
f 448//448 452//452 450//450
f 450//450 451//451 448//448
f 452//452 453//453 454//454
f 449//449 453//453 452//452
f 456//456 454//454 455//455
f 455//455 454//454 457//457
f 454//454 456//456 450//450
f 454//454 458//458 457//457
f 454//454 453//453 458//458
f 458//458 459//459 460//460
f 460//460 457//457 458//458
f 459//459 463//463 460//460
f 463//463 461//461 460//460
f 461//461 462//462 460//460
f 459//459 464//464 463//463
f 459//459 465//465 464//464
f 462//462 461//461 466//466
f 457//457 467//467 455//455
f 472//472 470//470 467//467
f 472//472 467//467 468//468
f 470//470 469//469 467//467
f 469//469 455//455 467//467
f 473//473 470//470 471//471
f 473//473 471//471 474//474
f 473//473 469//469 470//470
f 469//469 473//473 475//475
f 469//469 475//475 478//478
f 476//476 478//478 475//475
f 477//477 492//492 476//476
f 477//477 476//476 475//475
f 476//476 479//479 478//478
f 479//479 456//456 478//478
f 456//456 479//479 480//480
f 476//476 482//482 481//481
f 476//476 481//481 479//479
f 483//483 451//451 480//480
f 451//451 450//450 480//480
f 480//480 450//450 456//456
f 487//487 483//483 484//484
f 485//485 484//484 483//483
f 451//451 483//483 486//486
f 483//483 487//487 486//486
f 486//486 487//487 488//488
f 486//486 488//488 489//489
f 485//485 490//490 484//484
f 491//491 493//493 477//477
f 477//477 474//474 491//491
f 477//477 493//493 492//492
f 493//493 494//494 492//492
f 495//495 494//494 493//493
f 496//496 495//495 493//493
f 497//497 492//492 494//494
f 498//498 492//492 497//497
f 491//491 499//499 501//501
f 499//499 491//491 500//500
f 491//491 471//471 500//500
f 491//491 474//474 471//471
f 500//500 471//471 502//502
f 503//503 502//502 471//471
f 504//504 453//453 505//505
f 449//449 505//505 453//453
f 445//445 505//505 447//447
f 506//506 504//504 505//505
f 445//445 506//506 505//505
f 506//506 507//507 504//504
f 507//507 508//508 504//504
f 511//511 508//508 509//509
f 509//509 508//508 510//510
f 511//511 504//504 508//508
f 511//511 509//509 513//513
f 512//512 515//515 511//511
f 511//511 513//513 512//512
f 514//514 511//511 515//515
f 510//510 516//516 509//509
f 517//517 516//516 510//510
f 519//519 439//439 518//518
f 439//439 519//519 438//438
f 520//520 519//519 518//518
