# arm_17 exported from /models/landings/arm_17.glb
# units: meters
v 0.011549 0.001000 -0.012981
v 0.008549 0.001000 -0.004981
v 0.008549 0.001000 -0.012981
v 0.008549 0.001000 0.005019
v 0.011549 0.001000 0.021019
v 0.008549 0.001000 0.021019
v 0.006549 0.001000 0.005019
v 0.006549 0.001000 0.021019
v 0.002549 0.001000 0.016342
v 0.004013 0.001000 0.006786
v 0.006549 0.001000 -0.004981
v 0.006549 0.001000 -0.005165
v 0.004013 0.001000 -0.009012
v 0.006549 0.001000 -0.012981
v 0.006549 0.001000 -0.005224
v -0.000915 0.001000 -0.009012
v -0.003451 0.001000 -0.004981
v -0.003451 0.001000 -0.005165
v -0.003451 0.001000 -0.012981
v -0.000915 0.001000 0.001189
v 0.000549 0.001000 0.008019
v -0.008222 0.001000 -0.000621
v -0.005451 0.001000 -0.004981
v -0.015681 0.001000 -0.009012
v -0.008222 0.001000 -0.009012
v 0.000549 0.001000 0.014004
v -0.020451 0.001000 -0.010550
v -0.020451 0.001000 -0.012981
v -0.005451 0.001000 -0.012981
v -0.005451 0.001000 -0.005165
v 0.002549 0.001000 0.008019
v -0.008222 0.001000 -0.009012
v -0.008222 -0.001000 -0.009012
v -0.008222 0.001000 -0.000621
v -0.008222 -0.001000 -0.000621
v -0.008222 0.001000 -0.000621
v -0.008222 -0.001000 -0.000621
v -0.015681 0.001000 -0.009012
v -0.015681 -0.001000 -0.009012
v -0.015681 -0.001000 -0.009012
v -0.015681 0.001000 -0.009012
v -0.008222 -0.001000 -0.009012
v -0.008222 0.001000 -0.009012
v -0.005451 0.001000 -0.012981
v -0.005451 -0.001000 -0.012981
v -0.005451 0.001000 -0.004981
v -0.005451 -0.001000 -0.004981
v -0.005451 0.001000 -0.004981
v -0.005451 -0.001000 -0.004981
v -0.003451 0.001000 -0.004981
v -0.003451 -0.001000 -0.004981
v -0.003451 0.001000 -0.004981
v -0.003451 -0.001000 -0.004981
v -0.003451 0.001000 -0.012981
v -0.003451 -0.001000 -0.012981
v -0.003451 0.001000 -0.012981
v -0.003451 -0.001000 -0.012981
v 0.006549 0.001000 -0.012981
v 0.006549 -0.001000 -0.012981
v 0.006549 0.001000 -0.012981
v 0.006549 -0.001000 -0.012981
v 0.006549 0.001000 -0.004981
v 0.006549 -0.001000 -0.004981
v 0.006549 0.001000 -0.004981
v 0.006549 -0.001000 -0.004981
v 0.008549 0.001000 -0.004981
v 0.008549 -0.001000 -0.004981
v 0.008549 0.001000 -0.004981
v 0.008549 -0.001000 -0.004981
v 0.008549 0.001000 -0.012981
v 0.008549 -0.001000 -0.012981
v 0.008549 0.001000 -0.012981
v 0.008549 -0.001000 -0.012981
v 0.011549 0.001000 -0.012981
v 0.011549 -0.001000 -0.012981
v 0.011549 0.001000 -0.012981
v 0.011549 -0.001000 -0.012981
v 0.011549 0.001000 0.021019
v 0.011549 -0.001000 0.021019
v 0.011549 0.001000 0.021019
v 0.011549 -0.001000 0.021019
v 0.008549 0.001000 0.021019
v 0.008549 -0.001000 0.021019
v 0.008549 0.001000 0.021019
v 0.008549 -0.001000 0.021019
v 0.008549 0.001000 0.005019
v 0.008549 -0.001000 0.005019
v 0.008549 0.001000 0.005019
v 0.008549 -0.001000 0.005019
v 0.006549 0.001000 0.005019
v 0.006549 -0.001000 0.005019
v 0.006549 0.001000 0.005019
v 0.006549 -0.001000 0.005019
v 0.006549 0.001000 0.021019
v 0.006549 -0.001000 0.021019
v 0.002549 0.001000 0.008019
v 0.002549 -0.001000 0.008019
v 0.000549 0.001000 0.008019
v 0.000549 -0.001000 0.008019
v 0.000549 0.001000 0.008019
v 0.000549 -0.001000 0.008019
v 0.000549 0.001000 0.014004
v 0.000549 -0.001000 0.014004
v -0.020451 0.001000 -0.012981
v -0.020451 -0.001000 -0.012981
v -0.005451 0.001000 -0.012981
v -0.005451 -0.001000 -0.012981
v -0.020451 0.001000 -0.010550
v -0.020451 -0.001000 -0.010550
v -0.020451 0.001000 -0.012981
v -0.020451 -0.001000 -0.012981
v 0.002549 0.001000 0.016342
v 0.002549 -0.001000 0.016342
v 0.002549 0.001000 0.008019
v 0.002549 -0.001000 0.008019
v 0.002549 0.001000 0.016342
v 0.002549 -0.001000 0.016342
v 0.006549 0.001000 0.021019
v 0.006549 -0.001000 0.021019
v -0.020451 0.001000 -0.010550
v -0.015201 0.000000 -0.004411
v -0.015201 0.001000 -0.004411
v -0.020451 -0.001000 -0.010550
v -0.015201 -0.001000 -0.004411
v -0.009951 -0.001000 0.001727
v -0.009951 -0.000000 0.001727
v -0.004701 -0.001000 0.007865
v 0.000549 -0.001000 0.014004
v -0.004701 -0.000000 0.007865
v 0.000549 0.001000 0.014004
v -0.004701 0.001000 0.007865
v -0.009951 0.001000 0.001727
v 0.004013 0.001000 -0.009012
v 0.004013 -0.001000 -0.009012
v -0.000915 0.001000 -0.009012
v -0.000915 -0.001000 -0.009012
v -0.000915 0.001000 -0.009012
v -0.000915 -0.001000 -0.009012
v -0.000915 0.001000 0.001189
v -0.000915 -0.001000 0.001189
v 0.004013 0.001000 0.006786
v 0.004013 -0.001000 0.006786
v 0.004013 0.001000 -0.009012
v 0.004013 -0.001000 -0.009012
v -0.000915 0.001000 0.001189
v -0.000915 -0.001000 0.001189
v 0.004013 0.001000 0.006786
v 0.004013 -0.001000 0.006786
v 0.011549 -0.001000 -0.012981
v 0.008549 -0.001000 -0.012981
v 0.008549 -0.001000 -0.004981
v 0.008549 -0.001000 0.005019
v 0.011549 -0.001000 0.021019
v 0.008549 -0.001000 0.021019
v 0.006549 -0.001000 0.005019
v 0.006549 -0.001000 -0.004981
v 0.006549 -0.001000 0.021019
v 0.002549 -0.001000 0.016342
v 0.004013 -0.001000 0.006786
v -0.000915 -0.001000 0.001189
v 0.002549 -0.001000 0.008019
v 0.000549 -0.001000 0.008019
v 0.004013 -0.001000 -0.009012
v 0.006549 -0.001000 -0.012981
v 0.006549 -0.001000 -0.005224
v -0.000915 -0.001000 -0.009012
v 0.006549 -0.001000 -0.005165
v -0.003451 -0.001000 -0.004981
v -0.003451 -0.001000 -0.005165
v -0.003451 -0.001000 -0.012981
v -0.005451 -0.001000 -0.004981
v -0.008222 -0.001000 -0.000621
v -0.015681 -0.001000 -0.009012
v -0.008222 -0.001000 -0.009012
v 0.000549 -0.001000 0.014004
v -0.020451 -0.001000 -0.010550
v -0.020451 -0.001000 -0.012981
v -0.005451 -0.001000 -0.012981
v -0.005451 -0.001000 -0.005165
vn 0.000000 1.000000 0.000000
vn 0.000000 1.000000 0.000000
vn 0.000000 1.000000 0.000000
vn 0.000000 1.000000 0.000000
vn 0.000000 1.000000 0.000000
vn 0.000000 1.000000 0.000000
vn 0.000000 1.000000 0.000000
vn 0.000000 1.000000 0.000000
vn 0.000000 1.000000 0.000000
vn 0.000000 1.000000 0.000000
vn 0.000000 1.000000 0.000000
vn 0.000000 1.000000 0.000000
vn 0.000000 1.000000 0.000000
vn 0.000000 1.000000 0.000000
vn 0.000000 1.000000 0.000000
vn 0.000000 1.000000 0.000000
vn 0.000000 1.000000 0.000000
vn 0.000000 1.000000 0.000000
vn 0.000000 1.000000 0.000000
vn 0.000000 1.000000 0.000000
vn 0.000000 1.000000 0.000000
vn 0.000000 1.000000 0.000000
vn 0.000000 1.000000 0.000000
vn 0.000000 1.000000 0.000000
vn 0.000000 1.000000 0.000000
vn 0.000000 1.000000 0.000000
vn 0.000000 1.000000 0.000000
vn 0.000000 1.000000 0.000000
vn 0.000000 1.000000 0.000000
vn 0.000000 1.000000 0.000000
vn 0.000000 1.000000 0.000000
vn -1.000000 0.000000 0.000000
vn -1.000000 0.000000 0.000000
vn -1.000000 0.000000 0.000000
vn -1.000000 0.000000 0.000000
vn 0.747387 0.000000 -0.664389
vn 0.747387 0.000000 -0.664389
vn 0.747387 0.000000 -0.664389
vn 0.747387 0.000000 -0.664389
vn 0.000000 -0.000000 1.000000
vn 0.000000 -0.000000 1.000000
vn 0.000000 -0.000000 1.000000
vn 0.000000 -0.000000 1.000000
vn 1.000000 0.000000 0.000000
vn 1.000000 0.000000 0.000000
vn 1.000000 0.000000 0.000000
vn 1.000000 0.000000 0.000000
vn 0.000000 0.000000 -1.000000
vn 0.000000 0.000000 -1.000000
vn 0.000000 0.000000 -1.000000
vn 0.000000 0.000000 -1.000000
vn -1.000000 0.000000 0.000000
vn -1.000000 0.000000 0.000000
vn -1.000000 0.000000 0.000000
vn -1.000000 0.000000 0.000000
vn 0.000000 0.000000 -1.000000
vn 0.000000 0.000000 -1.000000
vn 0.000000 0.000000 -1.000000
vn 0.000000 0.000000 -1.000000
vn 1.000000 0.000000 0.000000
vn 1.000000 0.000000 0.000000
vn 1.000000 0.000000 0.000000
vn 1.000000 0.000000 0.000000
vn 0.000000 0.000000 -1.000000
vn 0.000000 0.000000 -1.000000
vn 0.000000 0.000000 -1.000000
vn 0.000000 0.000000 -1.000000
vn -1.000000 0.000000 0.000000
vn -1.000000 0.000000 0.000000
vn -1.000000 0.000000 0.000000
vn -1.000000 0.000000 0.000000
vn 0.000000 0.000000 -1.000000
vn 0.000000 0.000000 -1.000000
vn 0.000000 0.000000 -1.000000
vn 0.000000 0.000000 -1.000000
vn 1.000000 0.000000 0.000000
vn 1.000000 0.000000 0.000000
vn 1.000000 0.000000 0.000000
vn 1.000000 0.000000 0.000000
vn 0.000000 -0.000000 1.000000
vn 0.000000 -0.000000 1.000000
vn 0.000000 -0.000000 1.000000
vn 0.000000 -0.000000 1.000000
vn -1.000000 0.000000 0.000000
vn -1.000000 0.000000 0.000000
vn -1.000000 0.000000 0.000000
vn -1.000000 0.000000 0.000000
vn 0.000000 -0.000000 1.000000
vn 0.000000 -0.000000 1.000000
vn 0.000000 -0.000000 1.000000
vn 0.000000 -0.000000 1.000000
vn 1.000000 0.000000 0.000000
vn 1.000000 0.000000 0.000000
vn 1.000000 0.000000 0.000000
vn 1.000000 0.000000 0.000000
vn 0.000000 -0.000000 1.000000
vn 0.000000 -0.000000 1.000000
vn 0.000000 -0.000000 1.000000
vn 0.000000 -0.000000 1.000000
vn 1.000000 0.000000 0.000000
vn 1.000000 0.000000 0.000000
vn 1.000000 0.000000 0.000000
vn 1.000000 0.000000 0.000000
vn 0.000000 0.000000 -1.000000
vn 0.000000 0.000000 -1.000000
vn 0.000000 0.000000 -1.000000
vn 0.000000 0.000000 -1.000000
vn -1.000000 0.000000 0.000000
vn -1.000000 0.000000 0.000000
vn -1.000000 0.000000 0.000000
vn -1.000000 0.000000 0.000000
vn -1.000000 0.000000 0.000000
vn -1.000000 0.000000 0.000000
vn -1.000000 0.000000 0.000000
vn -1.000000 0.000000 0.000000
vn -0.759962 -0.000000 0.649968
vn -0.759962 -0.000000 0.649968
vn -0.759962 -0.000000 0.649968
vn -0.759962 -0.000000 0.649968
vn -0.759962 -0.000000 0.649968
vn -0.759962 -0.000000 0.649968
vn -0.759962 -0.000000 0.649968
vn -0.759962 -0.000000 0.649968
vn -0.759962 -0.000000 0.649968
vn -0.759962 -0.000000 0.649968
vn -0.759962 -0.000000 0.649968
vn -0.759962 -0.000000 0.649968
vn -0.759962 -0.000000 0.649968
vn -0.759962 -0.000000 0.649968
vn -0.759962 -0.000000 0.649968
vn -0.759962 -0.000000 0.649968
vn -0.759962 -0.000000 0.649968
vn 0.000000 -0.000000 1.000000
vn 0.000000 -0.000000 1.000000
vn 0.000000 -0.000000 1.000000
vn 0.000000 -0.000000 1.000000
vn 1.000000 0.000000 0.000000
vn 1.000000 0.000000 0.000000
vn 1.000000 0.000000 0.000000
vn 1.000000 0.000000 0.000000
vn -1.000000 0.000000 0.000000
vn -1.000000 0.000000 0.000000
vn -1.000000 0.000000 0.000000
vn -1.000000 0.000000 0.000000
vn 0.750485 0.000000 -0.660887
vn 0.750485 0.000000 -0.660887
vn 0.750485 0.000000 -0.660887
vn 0.750485 0.000000 -0.660887
vn 0.000000 -1.000000 -0.000000
vn 0.000000 -1.000000 -0.000000
vn 0.000000 -1.000000 -0.000000
vn 0.000000 -1.000000 -0.000000
vn 0.000000 -1.000000 -0.000000
vn 0.000000 -1.000000 -0.000000
vn 0.000000 -1.000000 -0.000000
vn 0.000000 -1.000000 -0.000000
vn 0.000000 -1.000000 -0.000000
vn 0.000000 -1.000000 -0.000000
vn 0.000000 -1.000000 -0.000000
vn 0.000000 -1.000000 -0.000000
vn 0.000000 -1.000000 -0.000000
vn 0.000000 -1.000000 -0.000000
vn 0.000000 -1.000000 -0.000000
vn 0.000000 -1.000000 -0.000000
vn 0.000000 -1.000000 -0.000000
vn 0.000000 -1.000000 -0.000000
vn 0.000000 -1.000000 -0.000000
vn 0.000000 -1.000000 -0.000000
vn 0.000000 -1.000000 -0.000000
vn 0.000000 -1.000000 -0.000000
vn 0.000000 -1.000000 -0.000000
vn 0.000000 -1.000000 -0.000000
vn 0.000000 -1.000000 -0.000000
vn 0.000000 -1.000000 -0.000000
vn 0.000000 -1.000000 -0.000000
vn 0.000000 -1.000000 -0.000000
vn 0.000000 -1.000000 -0.000000
vn 0.000000 -1.000000 -0.000000
vn 0.000000 -1.000000 -0.000000
f 4//4 1//1 2//2
f 1//1 3//3 2//2
f 4//4 5//5 1//1
f 5//5 4//4 6//6
f 4//4 2//2 11//11
f 4//4 11//11 7//7
f 9//9 8//8 7//7
f 7//7 10//10 9//9
f 10//10 7//7 11//11
f 10//10 11//11 13//13
f 11//11 12//12 13//13
f 15//15 14//14 13//13
f 19//19 16//16 13//13
f 19//19 13//13 14//14
f 13//13 12//12 15//15
f 17//17 20//20 16//16
f 16//16 18//18 17//17
f 19//19 18//18 16//16
f 22//22 20//20 17//17
f 10//10 20//20 21//21
f 22//22 21//21 20//20
f 17//17 23//23 22//22
f 25//25 22//22 23//23
f 27//27 22//22 24//24
f 22//22 26//26 21//21
f 27//27 26//26 22//22
f 28//28 27//27 24//24
f 28//28 24//24 25//25
f 28//28 25//25 29//29
f 30//30 29//29 25//25
f 25//25 23//23 30//30
f 10//10 21//21 31//31
f 10//10 31//31 9//9
f 33//33 35//35 34//34
f 33//33 34//34 32//32
f 37//37 39//39 38//38
f 37//37 38//38 36//36
f 40//40 42//42 43//43
f 40//40 43//43 41//41
f 45//45 44//44 46//46
f 45//45 46//46 47//47
f 49//49 48//48 50//50
f 49//49 50//50 51//51
f 53//53 52//52 54//54
f 53//53 54//54 55//55
f 57//57 56//56 58//58
f 57//57 58//58 59//59
f 61//61 60//60 62//62
f 61//61 62//62 63//63
f 65//65 64//64 66//66
f 65//65 66//66 67//67
f 69//69 68//68 70//70
f 69//69 70//70 71//71
f 73//73 72//72 74//74
f 73//73 74//74 75//75
f 77//77 76//76 78//78
f 77//77 78//78 79//79
f 81//81 80//80 82//82
f 81//81 82//82 83//83
f 85//85 84//84 86//86
f 85//85 86//86 87//87
f 89//89 88//88 90//90
f 89//89 90//90 91//91
f 93//93 92//92 94//94
f 93//93 94//94 95//95
f 97//97 96//96 98//98
f 97//97 98//98 99//99
f 101//101 100//100 102//102
f 101//101 102//102 103//103
f 105//105 104//104 106//106
f 105//105 106//106 107//107
f 109//109 108//108 110//110
f 109//109 110//110 111//111
f 113//113 112//112 114//114
f 113//113 114//114 115//115
f 117//117 119//119 118//118
f 117//117 118//118 116//116
f 120//120 123//123 121//121
f 121//121 122//122 120//120
f 124//124 121//121 123//123
f 125//125 126//126 121//121
f 125//125 121//121 124//124
f 127//127 129//129 126//126
f 127//127 126//126 125//125
f 127//127 128//128 129//129
f 130//130 129//129 128//128
f 129//129 130//130 131//131
f 129//129 131//131 132//132
f 129//129 132//132 126//126
f 126//126 132//132 122//122
f 126//126 122//122 121//121
f 134//134 133//133 135//135
f 134//134 135//135 136//136
f 138//138 137//137 139//139
f 138//138 139//139 140//140
f 142//142 141//141 143//143
f 142//142 143//143 144//144
f 146//146 145//145 147//147
f 146//146 147//147 148//148
f 149//149 151//151 150//150
f 152//152 151//151 149//149
f 152//152 149//149 153//153
f 153//153 154//154 152//152
f 152//152 155//155 156//156
f 152//152 156//156 151//151
f 159//159 163//163 156//156
f 159//159 156//156 155//155
f 158//158 155//155 157//157
f 155//155 158//158 159//159
f 159//159 162//162 160//160
f 159//159 158//158 161//161
f 159//159 161//161 162//162
f 156//156 163//163 167//167
f 165//165 163//163 164//164
f 170//170 164//164 163//163
f 170//170 163//163 166//166
f 163//163 165//165 167//167
f 168//168 166//166 160//160
f 166//166 168//168 169//169
f 170//170 166//166 169//169
f 168//168 172//172 171//171
f 172//172 168//168 160//160
f 172//172 160//160 162//162
f 174//174 171//171 172//172
f 176//176 173//173 172//172
f 172//172 162//162 175//175
f 176//176 172//172 175//175
f 177//177 173//173 176//176
f 178//178 173//173 177//177
f 178//178 174//174 173//173
f 179//179 174//174 178//178
f 174//174 179//179 171//171
