# arm_37 exported from /models/landings/arm_37.glb
# units: meters
v -0.018036 0.001000 0.028675
v -0.018041 0.001000 0.025717
v -0.018046 0.001000 0.022695
v -0.018051 0.001000 0.019802
v -0.018036 -0.001000 0.028675
v -0.018041 -0.001000 0.025717
v -0.018046 -0.001000 0.022695
v -0.018051 -0.001000 0.019802
v -0.018051 -0.000000 0.019802
v -0.018036 -0.000000 0.028675
v -0.010668 0.001000 0.010348
v -0.004398 0.001000 0.010348
v -0.010668 -0.001000 0.010348
v -0.004398 -0.001000 0.010348
v -0.010668 -0.000000 0.010348
v -0.004398 0.001000 0.010348
v -0.004398 0.001000 0.007378
v -0.004398 -0.001000 0.010348
v -0.004398 -0.001000 0.007378
v -0.004398 -0.000000 0.007378
v -0.004398 0.001000 0.007378
v -0.002398 0.001000 0.007378
v -0.004398 -0.001000 0.007378
v -0.002398 -0.001000 0.007378
v -0.004398 -0.000000 0.007378
v -0.002398 -0.000000 0.007378
v -0.002398 0.001000 0.007378
v -0.002398 0.001000 0.010348
v -0.002398 -0.001000 0.007378
v -0.002398 -0.001000 0.010348
v -0.002398 -0.000000 0.007378
v -0.002398 0.001000 0.010348
v 0.007069 0.001000 0.010348
v -0.002398 -0.001000 0.010348
v 0.007069 -0.001000 0.010348
v 0.007069 0.001000 0.010348
v 0.007069 0.001000 0.007378
v 0.007069 -0.001000 0.010348
v 0.007069 -0.001000 0.007378
v 0.007069 -0.000000 0.007378
v 0.007069 0.001000 0.007378
v 0.009069 0.001000 0.007378
v 0.007069 -0.001000 0.007378
v 0.009069 -0.001000 0.007378
v 0.007069 -0.000000 0.007378
v 0.009069 -0.000000 0.007378
v 0.009069 0.001000 0.007378
v 0.009069 0.001000 0.010348
v 0.009069 -0.001000 0.007378
v 0.009069 -0.001000 0.010348
v 0.009069 -0.000000 0.007378
v 0.011929 0.001000 0.001973
v 0.005615 0.001000 0.001973
v -0.000698 0.001000 0.001973
v 0.011929 -0.001000 0.001973
v 0.005615 -0.001000 0.001973
v -0.000698 -0.001000 0.001973
v 0.011929 -0.000000 0.001973
v 0.007390 0.001000 -0.022842
v 0.000795 0.001000 -0.014785
v -0.005800 0.001000 -0.006729
v -0.012524 0.001000 0.001485
v -0.018990 0.001000 0.009385
v -0.025585 0.001000 0.017441
v 0.007390 -0.001000 -0.022842
v 0.000795 -0.001000 -0.014785
v -0.005800 -0.001000 -0.006729
v -0.012524 -0.001000 0.001485
v -0.018990 -0.001000 0.009385
v -0.025585 -0.001000 0.017441
v 0.007390 0.000000 -0.022842
v 0.004092 0.000000 -0.018813
v 0.005741 0.000000 -0.020827
v 0.004092 0.000500 -0.018813
v 0.005741 0.000500 -0.020827
v 0.004092 -0.000500 -0.018813
v 0.005741 -0.000500 -0.020827
v -0.025585 0.001000 0.017441
v -0.025585 0.001000 0.020928
v -0.025585 -0.001000 0.017441
v -0.025585 -0.001000 0.020928
v -0.025585 0.001000 0.032682
v -0.022036 0.001000 0.032682
v -0.025585 -0.001000 0.032682
v -0.022036 -0.001000 0.032682
v -0.022036 -0.000000 0.032682
v -0.022036 0.001000 0.032682
v -0.020515 0.001000 0.032381
v -0.019176 0.001000 0.031478
v -0.018308 0.001000 0.030131
v -0.018036 0.001000 0.028675
v -0.022036 -0.001000 0.032682
v -0.020515 -0.001000 0.032381
v -0.019176 -0.001000 0.031478
v -0.018308 -0.001000 0.030131
v -0.018036 -0.001000 0.028675
v -0.022036 -0.000000 0.032682
v -0.018036 -0.000000 0.028675
v -0.018051 0.001000 0.019802
v -0.017954 0.001000 0.019183
v -0.017672 0.001000 0.018627
v -0.018051 -0.001000 0.019802
v -0.017954 -0.001000 0.019183
v -0.017672 -0.001000 0.018627
v -0.018051 -0.000000 0.019802
v -0.017672 -0.000000 0.018627
v -0.017672 0.001000 0.018627
v -0.014981 0.001000 0.014902
v -0.012289 0.001000 0.011177
v -0.017672 -0.001000 0.018627
v -0.014981 -0.001000 0.014902
v -0.012289 -0.001000 0.011177
v -0.017672 -0.000000 0.018627
v -0.012289 -0.000000 0.011177
v -0.012289 0.001000 0.011177
v -0.011574 0.001000 0.010566
v -0.010668 0.001000 0.010348
v -0.012289 -0.001000 0.011177
v -0.011574 -0.001000 0.010566
v -0.010668 -0.001000 0.010348
v -0.012289 -0.000000 0.011177
v -0.010668 -0.000000 0.010348
v 0.009069 0.001000 0.010348
v 0.011929 0.001000 0.010348
v 0.009069 -0.001000 0.010348
v 0.011929 -0.001000 0.010348
v 0.011929 -0.000000 0.010348
v 0.011929 0.001000 0.010348
v 0.012689 0.001000 0.010198
v 0.013358 0.001000 0.009748
v 0.013792 0.001000 0.009075
v 0.013929 0.001000 0.008348
v 0.011929 -0.001000 0.010348
v 0.012689 -0.001000 0.010198
v 0.013358 -0.001000 0.009748
v 0.013792 -0.001000 0.009075
v 0.013929 -0.001000 0.008348
v 0.011929 -0.000000 0.010348
v 0.013929 -0.000000 0.008348
v 0.013929 0.001000 0.008348
v 0.013929 0.001000 0.003973
v 0.013929 -0.001000 0.008348
v 0.013929 -0.001000 0.003973
v 0.013929 -0.000000 0.008348
v 0.013929 -0.000000 0.003973
v 0.013929 0.001000 0.003973
v 0.013779 0.001000 0.003214
v 0.013328 0.001000 0.002545
v 0.012656 0.001000 0.002110
v 0.011929 0.001000 0.001973
v 0.013929 -0.001000 0.003973
v 0.013779 -0.001000 0.003214
v 0.013328 -0.001000 0.002545
v 0.012656 -0.001000 0.002110
v 0.011929 -0.001000 0.001973
v 0.013929 -0.000000 0.003973
v 0.011929 -0.000000 0.001973
v -0.000698 0.001000 0.001973
v 0.004489 0.001000 -0.005318
v 0.009675 0.001000 -0.012609
v -0.000698 -0.001000 0.001973
v 0.004489 -0.001000 -0.005318
v 0.009675 -0.001000 -0.012609
v 0.009675 0.000000 -0.012609
v 0.007082 0.000000 -0.008964
v 0.008379 0.000000 -0.010786
v 0.007082 -0.000500 -0.008964
v 0.008379 -0.000500 -0.010786
v 0.007082 0.000500 -0.008964
v 0.008379 0.000500 -0.010786
v 0.009675 0.001000 -0.012609
v 0.010384 0.001000 -0.013225
v 0.011286 0.001000 -0.013450
v 0.009675 -0.001000 -0.012609
v 0.010384 -0.001000 -0.013225
v 0.011286 -0.001000 -0.013450
v 0.009675 0.000000 -0.012609
v 0.011286 0.000000 -0.013450
v 0.011286 0.001000 -0.013450
v 0.017628 0.001000 -0.013510
v 0.023970 0.001000 -0.013569
v 0.011286 -0.001000 -0.013450
v 0.017628 -0.001000 -0.013510
v 0.023970 -0.001000 -0.013569
v 0.011286 0.000000 -0.013450
v 0.023970 0.000000 -0.013569
v 0.023970 0.001000 -0.013569
v 0.024568 0.001000 -0.013667
v 0.025107 0.001000 -0.013937
v 0.023970 -0.001000 -0.013569
v 0.024568 -0.001000 -0.013667
v 0.025107 -0.001000 -0.013937
v 0.023970 0.000000 -0.013569
v 0.025107 0.000000 -0.013937
v 0.025107 0.001000 -0.013937
v 0.028668 0.001000 -0.016461
v 0.032230 0.001000 -0.018984
v 0.025107 -0.001000 -0.013937
v 0.028668 -0.001000 -0.016461
v 0.032230 -0.001000 -0.018984
v 0.025107 0.000000 -0.013937
v 0.032230 0.000000 -0.018984
v 0.032230 0.001000 -0.018984
v 0.032858 0.001000 -0.019712
v 0.033073 0.001000 -0.020640
v 0.032230 -0.001000 -0.018984
v 0.032858 -0.001000 -0.019712
v 0.033073 -0.001000 -0.020640
v 0.032230 0.000000 -0.018984
v 0.033073 0.000000 -0.020640
v 0.033073 0.001000 -0.020640
v 0.033062 0.001000 -0.021563
v 0.033073 -0.001000 -0.020640
v 0.033062 -0.001000 -0.021563
v 0.033073 0.000000 -0.020640
v 0.033062 0.000000 -0.021563
v 0.033062 0.001000 -0.021563
v 0.032905 0.001000 -0.022314
v 0.032454 0.001000 -0.022974
v 0.031787 0.001000 -0.023402
v 0.031065 0.001000 -0.023538
v 0.033062 -0.001000 -0.021563
v 0.032905 -0.001000 -0.022314
v 0.032454 -0.001000 -0.022974
v 0.031787 -0.001000 -0.023402
v 0.031065 -0.001000 -0.023538
v 0.033062 0.000000 -0.021563
v 0.031065 0.000000 -0.023538
v 0.031065 0.001000 -0.023538
v 0.020003 0.001000 -0.023556
v 0.008940 0.001000 -0.023575
v 0.031065 -0.001000 -0.023538
v 0.020003 -0.001000 -0.023556
v 0.008940 -0.001000 -0.023575
v 0.031065 0.000000 -0.023538
v 0.025534 0.000000 -0.023547
v 0.028300 0.000000 -0.023543
v 0.025534 0.000500 -0.023547
v 0.028300 0.000500 -0.023543
v 0.025534 -0.000500 -0.023547
v 0.028300 -0.000500 -0.023543
v 0.008940 0.000000 -0.023575
v 0.014472 0.000000 -0.023566
v 0.011706 0.000000 -0.023570
v 0.014472 -0.000500 -0.023566
v 0.011706 -0.000500 -0.023570
v 0.014472 0.000500 -0.023566
v 0.011706 0.000500 -0.023570
v 0.008940 0.001000 -0.023575
v 0.008079 0.001000 -0.023381
v 0.007390 0.001000 -0.022842
v 0.008940 -0.001000 -0.023575
v 0.008079 -0.001000 -0.023381
v 0.007390 -0.001000 -0.022842
v 0.008940 0.000000 -0.023575
v 0.007390 0.000000 -0.022842
v -0.018051 -0.001000 0.019802
v -0.017954 -0.001000 0.019183
v -0.025585 -0.001000 0.032682
v -0.022036 -0.001000 0.032682
v -0.025585 -0.001000 0.017441
v -0.025585 -0.001000 0.020928
v -0.000698 -0.001000 0.001973
v 0.004489 -0.001000 -0.005318
v 0.009675 -0.001000 -0.012609
v 0.009069 -0.001000 0.010348
v 0.011929 -0.001000 0.010348
v 0.009069 -0.001000 0.007378
v 0.007069 -0.001000 0.007378
v 0.007069 -0.001000 0.010348
v -0.002398 -0.001000 0.010348
v -0.002398 -0.001000 0.007378
v -0.004398 -0.001000 0.007378
v -0.004398 -0.001000 0.010348
v -0.020515 -0.001000 0.032381
v -0.019176 -0.001000 0.031478
v -0.018308 -0.001000 0.030131
v -0.018036 -0.001000 0.028675
v -0.018041 -0.001000 0.025717
v -0.018046 -0.001000 0.022695
v -0.017672 -0.001000 0.018627
v -0.014981 -0.001000 0.014902
v -0.012289 -0.001000 0.011177
v -0.011574 -0.001000 0.010566
v -0.010668 -0.001000 0.010348
v 0.012689 -0.001000 0.010198
v 0.013358 -0.001000 0.009748
v 0.013792 -0.001000 0.009075
v 0.013929 -0.001000 0.008348
v 0.013929 -0.001000 0.003973
v 0.013779 -0.001000 0.003214
v 0.013328 -0.001000 0.002545
v 0.012656 -0.001000 0.002110
v 0.011929 -0.001000 0.001973
v 0.005615 -0.001000 0.001973
v 0.010384 -0.001000 -0.013225
v 0.011286 -0.001000 -0.013450
v 0.017628 -0.001000 -0.013510
v 0.023970 -0.001000 -0.013569
v 0.024568 -0.001000 -0.013667
v 0.025107 -0.001000 -0.013937
v 0.028668 -0.001000 -0.016461
v 0.032230 -0.001000 -0.018984
v 0.032858 -0.001000 -0.019712
v 0.033073 -0.001000 -0.020640
v 0.033062 -0.001000 -0.021563
v 0.032905 -0.001000 -0.022314
v 0.032454 -0.001000 -0.022974
v 0.031787 -0.001000 -0.023402
v 0.031065 -0.001000 -0.023538
v 0.020003 -0.001000 -0.023556
v 0.008940 -0.001000 -0.023575
v 0.008079 -0.001000 -0.023381
v 0.007390 -0.001000 -0.022842
v 0.000795 -0.001000 -0.014785
v -0.005800 -0.001000 -0.006729
v -0.012524 -0.001000 0.001485
v -0.018990 -0.001000 0.009385
v 0.029099 -0.001000 -0.020067
v 0.026191 -0.001000 -0.018092
v 0.023282 -0.001000 -0.016117
v 0.023086 -0.001000 -0.016025
v 0.022856 -0.001000 -0.015992
v 0.018672 -0.001000 -0.015992
v 0.014489 -0.001000 -0.015992
v 0.014100 -0.001000 -0.016024
v 0.013904 -0.001000 -0.016066
v 0.013714 -0.001000 -0.016126
v 0.013537 -0.001000 -0.016203
v 0.013378 -0.001000 -0.016293
v 0.013217 -0.001000 -0.016414
v 0.013031 -0.001000 -0.016627
v 0.012954 -0.001000 -0.016790
v 0.012931 -0.001000 -0.016884
v 0.012924 -0.001000 -0.016973
v 0.012924 -0.001000 -0.018467
v 0.012924 -0.001000 -0.019960
v 0.012931 -0.001000 -0.020049
v 0.012954 -0.001000 -0.020144
v 0.013031 -0.001000 -0.020306
v 0.013217 -0.001000 -0.020519
v 0.013378 -0.001000 -0.020641
v 0.013714 -0.001000 -0.020807
v 0.013904 -0.001000 -0.020867
v 0.014100 -0.001000 -0.020909
v 0.014489 -0.001000 -0.020942
v 0.018035 -0.001000 -0.020942
v 0.021581 -0.001000 -0.020942
v 0.025127 -0.001000 -0.020942
v 0.028673 -0.001000 -0.020942
v 0.028858 -0.001000 -0.020920
v 0.029033 -0.001000 -0.020856
v 0.029172 -0.001000 -0.020759
v 0.029264 -0.001000 -0.020647
v 0.029320 -0.001000 -0.020487
v 0.029316 -0.001000 -0.020370
v 0.029288 -0.001000 -0.020284
v 0.029213 -0.001000 -0.020168
v -0.004968 -0.001000 -0.001926
v -0.002296 -0.001000 -0.005531
v 0.000376 -0.001000 -0.009135
v 0.003048 -0.001000 -0.012740
v 0.005720 -0.001000 -0.016344
v 0.006090 -0.001000 -0.016685
v 0.006602 -0.001000 -0.016873
v 0.007146 -0.001000 -0.016842
v 0.007599 -0.001000 -0.016623
v 0.007940 -0.001000 -0.016253
v 0.008128 -0.001000 -0.015742
v 0.008097 -0.001000 -0.015198
v 0.007878 -0.001000 -0.014744
v 0.005206 -0.001000 -0.011140
v 0.002535 -0.001000 -0.007535
v -0.000137 -0.001000 -0.003931
v -0.002809 -0.001000 -0.000326
v -0.003180 -0.001000 0.000015
v -0.003691 -0.001000 0.000203
v -0.004235 -0.001000 0.000172
v -0.004689 -0.001000 -0.000047
v -0.005030 -0.001000 -0.000417
v -0.005217 -0.001000 -0.000929
v -0.005187 -0.001000 -0.001473
v -0.008685 -0.001000 0.003260
v -0.007859 -0.001000 0.003418
v -0.007099 -0.001000 0.003917
v -0.006600 -0.001000 0.004677
v -0.006442 -0.001000 0.005502
v -0.006600 -0.001000 0.006328
v -0.007099 -0.001000 0.007088
v -0.007859 -0.001000 0.007587
v -0.008685 -0.001000 0.007745
v -0.009510 -0.001000 0.007587
v -0.010270 -0.001000 0.007088
v -0.010769 -0.001000 0.006328
v -0.010927 -0.001000 0.005502
v -0.010769 -0.001000 0.004677
v -0.010270 -0.001000 0.003917
v -0.009510 -0.001000 0.003418
v -0.021806 -0.001000 0.020928
v -0.021806 -0.001000 0.021928
v -0.021806 -0.001000 0.022928
v -0.025578 -0.001000 0.020928
v -0.025081 -0.001000 0.020928
v -0.025578 -0.001000 0.022928
v -0.025585 -0.001000 0.022928
v -0.025585 -0.001000 0.027805
v -0.018051 0.001000 0.019802
v -0.018046 0.001000 0.022695
v -0.018041 0.001000 0.025717
v -0.018036 0.001000 0.028675
v -0.004398 0.001000 0.010348
v -0.010668 0.001000 0.010348
v -0.004398 0.001000 0.007378
v -0.002398 0.001000 0.007378
v -0.002398 0.001000 0.010348
v 0.007069 0.001000 0.010348
v 0.007069 0.001000 0.007378
v 0.009069 0.001000 0.007378
v 0.009069 0.001000 0.010348
v -0.000698 0.001000 0.001973
v 0.005615 0.001000 0.001973
v 0.011929 0.001000 0.001973
v -0.025585 0.001000 0.017441
v -0.018990 0.001000 0.009385
v -0.012524 0.001000 0.001485
v -0.005800 0.001000 -0.006729
v 0.000795 0.001000 -0.014785
v 0.007390 0.001000 -0.022842
v -0.025585 0.001000 0.032682
v -0.025585 0.001000 0.022928
v -0.022036 0.001000 0.032682
v -0.018308 0.001000 0.030131
v -0.019176 0.001000 0.031478
v -0.020515 0.001000 0.032381
v -0.017672 0.001000 0.018627
v -0.017954 0.001000 0.019183
v -0.012289 0.001000 0.011177
v -0.014981 0.001000 0.014902
v -0.011574 0.001000 0.010566
v 0.011929 0.001000 0.010348
v 0.013929 0.001000 0.008348
v 0.013792 0.001000 0.009075
v 0.013358 0.001000 0.009748
v 0.012689 0.001000 0.010198
v 0.013929 0.001000 0.003973
v 0.012656 0.001000 0.002110
v 0.013328 0.001000 0.002545
v 0.013779 0.001000 0.003214
v 0.009675 0.001000 -0.012609
v 0.004489 0.001000 -0.005318
v 0.011286 0.001000 -0.013450
v 0.010384 0.001000 -0.013225
v 0.023970 0.001000 -0.013569
v 0.017628 0.001000 -0.013510
v 0.025107 0.001000 -0.013937
v 0.024568 0.001000 -0.013667
v 0.032230 0.001000 -0.018984
v 0.028668 0.001000 -0.016461
v 0.033073 0.001000 -0.020640
v 0.032858 0.001000 -0.019712
v 0.033062 0.001000 -0.021563
v 0.031065 0.001000 -0.023538
v 0.031787 0.001000 -0.023402
v 0.032454 0.001000 -0.022974
v 0.032905 0.001000 -0.022314
v 0.008940 0.001000 -0.023575
v 0.020003 0.001000 -0.023556
v 0.008079 0.001000 -0.023381
v 0.023282 0.001000 -0.016117
v 0.026191 0.001000 -0.018092
v 0.029099 0.001000 -0.020067
v 0.022856 0.001000 -0.015992
v 0.023086 0.001000 -0.016025
v 0.014489 0.001000 -0.015992
v 0.018672 0.001000 -0.015992
v 0.012924 0.001000 -0.016973
v 0.012931 0.001000 -0.016884
v 0.012954 0.001000 -0.016790
v 0.013031 0.001000 -0.016627
v 0.013217 0.001000 -0.016414
v 0.013378 0.001000 -0.016293
v 0.013537 0.001000 -0.016203
v 0.013714 0.001000 -0.016126
v 0.013904 0.001000 -0.016066
v 0.014100 0.001000 -0.016024
v 0.012924 0.001000 -0.019960
v 0.012924 0.001000 -0.018467
v 0.014489 0.001000 -0.020942
v 0.014100 0.001000 -0.020909
v 0.013904 0.001000 -0.020867
v 0.013714 0.001000 -0.020807
v 0.013378 0.001000 -0.020641
v 0.013217 0.001000 -0.020519
v 0.013031 0.001000 -0.020306
v 0.012954 0.001000 -0.020144
v 0.012931 0.001000 -0.020049
v 0.028673 0.001000 -0.020942
v 0.025127 0.001000 -0.020942
v 0.021581 0.001000 -0.020942
v 0.018035 0.001000 -0.020942
v 0.029213 0.001000 -0.020168
v 0.029288 0.001000 -0.020284
v 0.029316 0.001000 -0.020370
v 0.029320 0.001000 -0.020487
v 0.029264 0.001000 -0.020647
v 0.029172 0.001000 -0.020759
v 0.029033 0.001000 -0.020856
v 0.028858 0.001000 -0.020920
v 0.005720 0.001000 -0.016344
v 0.003048 0.001000 -0.012740
v 0.000376 0.001000 -0.009135
v -0.002296 0.001000 -0.005531
v -0.004968 0.001000 -0.001926
v 0.007878 0.001000 -0.014744
v 0.008097 0.001000 -0.015198
v 0.008128 0.001000 -0.015742
v 0.007940 0.001000 -0.016253
v 0.007599 0.001000 -0.016623
v 0.007146 0.001000 -0.016842
v 0.006602 0.001000 -0.016873
v 0.006090 0.001000 -0.016685
v -0.002809 0.001000 -0.000326
v -0.000137 0.001000 -0.003931
v 0.002535 0.001000 -0.007535
v 0.005206 0.001000 -0.011140
v -0.005187 0.001000 -0.001473
v -0.005217 0.001000 -0.000929
v -0.005030 0.001000 -0.000417
v -0.004689 0.001000 -0.000047
v -0.004235 0.001000 0.000172
v -0.003691 0.001000 0.000203
v -0.003180 0.001000 0.000015
v -0.008685 0.001000 0.003260
v -0.009510 0.001000 0.003418
v -0.010270 0.001000 0.003917
v -0.010769 0.001000 0.004677
v -0.010927 0.001000 0.005502
v -0.010769 0.001000 0.006328
v -0.010270 0.001000 0.007088
v -0.009510 0.001000 0.007587
v -0.008685 0.001000 0.007745
v -0.007859 0.001000 0.007587
v -0.007099 0.001000 0.007088
v -0.006600 0.001000 0.006328
v -0.006442 0.001000 0.005502
v -0.006600 0.001000 0.004677
v -0.007099 0.001000 0.003917
v -0.007859 0.001000 0.003418
v -0.021808 0.001000 0.022928
v -0.021808 0.001000 0.021928
v -0.021808 0.001000 0.020928
v -0.025081 0.001000 0.020928
v -0.025578 0.001000 0.022928
v -0.025578 0.001000 0.020928
v -0.025585 0.001000 0.020928
v 0.029099 0.001000 -0.020067
v 0.023282 -0.001000 -0.016117
v 0.029099 -0.001000 -0.020067
v 0.026191 -0.001000 -0.018092
v 0.023282 0.001000 -0.016117
v 0.026191 0.001000 -0.018092
v 0.023282 -0.000333 -0.016117
v 0.023282 0.000333 -0.016117
v 0.026191 0.000000 -0.018092
v 0.024736 0.000000 -0.017104
v 0.026191 -0.000500 -0.018092
v 0.024736 -0.000500 -0.017104
v 0.026191 0.000500 -0.018092
v 0.024736 0.000500 -0.017104
v 0.029099 0.000500 -0.020067
v 0.029099 0.000000 -0.020067
v 0.029099 -0.000500 -0.020067
v 0.027645 0.000000 -0.019080
v 0.027645 0.000500 -0.019080
v 0.027645 -0.000500 -0.019080
v 0.023282 0.001000 -0.016117
v 0.023078 0.000000 -0.016023
v 0.022856 -0.001000 -0.015992
v 0.023282 -0.001000 -0.016117
v 0.023086 -0.001000 -0.016025
v 0.023078 -0.000500 -0.016023
v 0.023188 0.000000 -0.016063
v 0.023188 -0.000500 -0.016063
v 0.022969 0.000000 -0.015999
v 0.022969 -0.000500 -0.015999
v 0.022856 0.001000 -0.015992
v 0.023086 0.001000 -0.016025
v 0.023078 0.000500 -0.016023
v 0.022969 0.000500 -0.015999
v 0.023188 0.000500 -0.016063
v 0.023282 0.000333 -0.016117
v 0.023282 -0.000333 -0.016117
v 0.022856 -0.000333 -0.015992
v 0.022856 0.000333 -0.015992
v 0.022856 0.001000 -0.015992
v 0.014489 -0.001000 -0.015992
v 0.022856 -0.001000 -0.015992
v 0.018672 -0.001000 -0.015992
v 0.014489 0.001000 -0.015992
v 0.018672 0.001000 -0.015992
v 0.022856 0.000333 -0.015992
v 0.022856 -0.000333 -0.015992
v 0.018672 0.000000 -0.015992
v 0.020764 0.000000 -0.015992
v 0.018672 0.000500 -0.015992
v 0.020764 0.000500 -0.015992
v 0.018672 -0.000500 -0.015992
v 0.020764 -0.000500 -0.015992
v 0.014489 -0.000333 -0.015992
v 0.014489 0.000333 -0.015992
v 0.016581 0.000000 -0.015992
v 0.016581 -0.000500 -0.015992
v 0.016581 0.000500 -0.015992
v 0.014489 0.001000 -0.015992
v 0.014287 0.000000 -0.016000
v 0.014088 0.000000 -0.016026
v 0.013892 0.000000 -0.016069
v 0.013704 0.000000 -0.016130
v 0.013514 0.000000 -0.016214
v 0.013340 0.000000 -0.016318
v 0.013184 0.000000 -0.016444
v 0.013052 0.000000 -0.016597
v 0.012958 0.000000 -0.016775
v 0.012924 -0.001000 -0.016973
v 0.014489 -0.001000 -0.015992
v 0.014100 -0.001000 -0.016024
v 0.013904 -0.001000 -0.016066
v 0.013714 -0.001000 -0.016126
v 0.013537 -0.001000 -0.016203
v 0.013378 -0.001000 -0.016293
v 0.013217 -0.001000 -0.016414
v 0.013031 -0.001000 -0.016627
v 0.012954 -0.001000 -0.016790
v 0.012931 -0.001000 -0.016884
v 0.014088 -0.000500 -0.016026
v 0.014187 0.000000 -0.016011
v 0.014287 -0.000500 -0.016000
v 0.014187 -0.000500 -0.016011
v 0.013892 -0.000500 -0.016069
v 0.013990 0.000000 -0.016045
v 0.013990 -0.000500 -0.016045
v 0.013704 -0.000500 -0.016130
v 0.013797 0.000000 -0.016097
v 0.013797 -0.000500 -0.016097
v 0.013514 -0.000500 -0.016214
v 0.013608 0.000000 -0.016170
v 0.013608 -0.000500 -0.016170
v 0.013340 -0.000500 -0.016318
v 0.013425 0.000000 -0.016263
v 0.013425 -0.000500 -0.016263
v 0.013184 -0.000500 -0.016444
v 0.013260 0.000000 -0.016378
v 0.013260 -0.000500 -0.016378
v 0.012958 -0.000500 -0.016775
v 0.012999 0.000000 -0.016683
v 0.013052 -0.000500 -0.016597
v 0.012999 -0.000500 -0.016683
v 0.012933 0.000000 -0.016873
v 0.012933 -0.000500 -0.016873
v 0.012933 -0.000750 -0.016873
v 0.012943 -0.000500 -0.016823
v 0.012958 -0.000750 -0.016775
v 0.012943 -0.000750 -0.016823
v 0.012926 -0.000500 -0.016923
v 0.012926 -0.000750 -0.016923
v 0.012924 0.001000 -0.016973
v 0.012931 0.001000 -0.016884
v 0.012954 0.001000 -0.016790
v 0.013031 0.001000 -0.016627
v 0.013217 0.001000 -0.016414
v 0.013378 0.001000 -0.016293
v 0.013537 0.001000 -0.016203
v 0.013714 0.001000 -0.016126
v 0.013904 0.001000 -0.016066
v 0.014100 0.001000 -0.016024
v 0.012958 0.000500 -0.016775
v 0.012933 0.000500 -0.016873
v 0.012926 0.000500 -0.016923
v 0.012933 0.000750 -0.016873
v 0.012926 0.000750 -0.016923
v 0.012943 0.000500 -0.016823
v 0.012958 0.000750 -0.016775
v 0.012943 0.000750 -0.016823
v 0.013052 0.000500 -0.016597
v 0.012999 0.000500 -0.016683
v 0.013184 0.000500 -0.016444
v 0.013340 0.000500 -0.016318
v 0.013260 0.000500 -0.016378
v 0.013514 0.000500 -0.016214
v 0.013425 0.000500 -0.016263
v 0.013704 0.000500 -0.016130
v 0.013608 0.000500 -0.016170
v 0.013892 0.000500 -0.016069
v 0.013797 0.000500 -0.016097
v 0.014088 0.000500 -0.016026
v 0.013990 0.000500 -0.016045
v 0.014287 0.000500 -0.016000
v 0.014187 0.000500 -0.016011
v 0.014489 0.000333 -0.015992
v 0.014489 -0.000333 -0.015992
v 0.012924 -0.000333 -0.016973
v 0.012924 0.000333 -0.016973
v 0.012924 0.001000 -0.016973
v 0.012924 0.001000 -0.019960
v 0.012924 -0.001000 -0.016973
v 0.012924 -0.001000 -0.018467
v 0.012924 0.001000 -0.018467
v 0.012924 0.000333 -0.016973
v 0.012924 -0.000333 -0.016973
v 0.012924 -0.001000 -0.019960
v 0.012924 -0.000333 -0.019960
v 0.012924 0.000333 -0.019960
v 0.014489 0.001000 -0.020942
v 0.012966 0.000000 -0.020179
v 0.013082 0.000000 -0.020378
v 0.013234 0.000000 -0.020534
v 0.013416 0.000000 -0.020664
v 0.013615 0.000000 -0.020767
v 0.013825 0.000000 -0.020845
v 0.014043 0.000000 -0.020899
v 0.014265 0.000000 -0.020931
v 0.012924 -0.001000 -0.019960
v 0.012931 -0.001000 -0.020049
v 0.012954 -0.001000 -0.020144
v 0.013031 -0.001000 -0.020306
v 0.013217 -0.001000 -0.020519
v 0.013378 -0.001000 -0.020641
v 0.013714 -0.001000 -0.020807
v 0.013904 -0.001000 -0.020867
v 0.014100 -0.001000 -0.020909
v 0.012966 -0.000500 -0.020179
v 0.012935 0.000000 -0.020072
v 0.012935 -0.000500 -0.020072
v 0.012935 -0.000750 -0.020072
v 0.012926 -0.000500 -0.020016
v 0.012926 -0.000750 -0.020016
v 0.012966 -0.000750 -0.020179
v 0.012948 -0.000500 -0.020126
v 0.012948 -0.000750 -0.020126
v 0.013082 -0.000500 -0.020378
v 0.013017 0.000000 -0.020282
v 0.013017 -0.000500 -0.020282
v 0.013234 -0.000500 -0.020534
v 0.013154 0.000000 -0.020460
v 0.013154 -0.000500 -0.020460
v 0.013416 -0.000500 -0.020664
v 0.013322 0.000000 -0.020603
v 0.013322 -0.000500 -0.020603
v 0.013825 -0.000500 -0.020845
v 0.013719 0.000000 -0.020809
v 0.013615 -0.000500 -0.020767
v 0.013719 -0.000500 -0.020809
v 0.014043 -0.000500 -0.020899
v 0.013933 0.000000 -0.020875
v 0.013933 -0.000500 -0.020875
v 0.014265 -0.000500 -0.020931
v 0.014154 0.000000 -0.020918
v 0.014154 -0.000500 -0.020918
v 0.014100 0.001000 -0.020909
v 0.013904 0.001000 -0.020867
v 0.013714 0.001000 -0.020807
v 0.013378 0.001000 -0.020641
v 0.013217 0.001000 -0.020519
v 0.013031 0.001000 -0.020306
v 0.012954 0.001000 -0.020144
v 0.012931 0.001000 -0.020049
v 0.014265 0.000500 -0.020931
v 0.014043 0.000500 -0.020899
v 0.014154 0.000500 -0.020918
v 0.013825 0.000500 -0.020845
v 0.013933 0.000500 -0.020875
v 0.013615 0.000500 -0.020767
v 0.013719 0.000500 -0.020809
v 0.013416 0.000500 -0.020664
v 0.013234 0.000500 -0.020534
v 0.013322 0.000500 -0.020603
v 0.013082 0.000500 -0.020378
v 0.013154 0.000500 -0.020460
v 0.012966 0.000500 -0.020179
v 0.013017 0.000500 -0.020282
v 0.012935 0.000500 -0.020072
v 0.012948 0.000500 -0.020126
v 0.012966 0.000750 -0.020179
v 0.012935 0.000750 -0.020072
v 0.012948 0.000750 -0.020126
v 0.012926 0.000500 -0.020016
v 0.012926 0.000750 -0.020016
v 0.012924 0.001000 -0.019960
v 0.012924 0.000333 -0.019960
v 0.012924 -0.000333 -0.019960
v 0.014489 -0.001000 -0.020942
v 0.014489 -0.000333 -0.020942
v 0.014489 0.000333 -0.020942
v 0.028673 0.001000 -0.020942
v 0.014489 -0.001000 -0.020942
v 0.018035 -0.001000 -0.020942
v 0.021581 -0.001000 -0.020942
v 0.025127 -0.001000 -0.020942
v 0.025127 0.001000 -0.020942
v 0.021581 0.001000 -0.020942
v 0.018035 0.001000 -0.020942
v 0.014489 0.001000 -0.020942
v 0.014489 0.000333 -0.020942
v 0.014489 -0.000333 -0.020942
v 0.018035 0.000000 -0.020942
v 0.016262 0.000000 -0.020942
v 0.018035 0.000500 -0.020942
v 0.016262 0.000500 -0.020942
v 0.018035 -0.000500 -0.020942
v 0.016262 -0.000500 -0.020942
v 0.028673 -0.001000 -0.020942
v 0.028673 -0.000500 -0.020942
v 0.028673 0.000000 -0.020942
v 0.028673 0.000500 -0.020942
v 0.025127 0.000000 -0.020942
v 0.026900 0.000000 -0.020942
v 0.025127 -0.000500 -0.020942
v 0.026900 -0.000500 -0.020942
v 0.025127 0.000500 -0.020942
v 0.026900 0.000500 -0.020942
v 0.029099 0.001000 -0.020067
v 0.028823 0.000333 -0.020928
v 0.028968 0.000333 -0.020886
v 0.029101 0.000333 -0.020815
v 0.029214 0.000333 -0.020715
v 0.029293 0.000333 -0.020588
v 0.029323 0.000333 -0.020441
v 0.029292 0.000333 -0.020294
v 0.029213 0.000333 -0.020168
v 0.028823 -0.000333 -0.020928
v 0.028968 -0.000333 -0.020886
v 0.029101 -0.000333 -0.020815
v 0.029214 -0.000333 -0.020715
v 0.029293 -0.000333 -0.020588
v 0.029323 -0.000333 -0.020441
v 0.029292 -0.000333 -0.020294
v 0.029213 -0.000333 -0.020168
v 0.028673 -0.001000 -0.020942
v 0.028858 -0.001000 -0.020920
v 0.029033 -0.001000 -0.020856
v 0.029172 -0.001000 -0.020759
v 0.029264 -0.001000 -0.020647
v 0.029320 -0.001000 -0.020487
v 0.029316 -0.001000 -0.020370
v 0.029288 -0.001000 -0.020284
v 0.029213 -0.001000 -0.020168
v 0.029214 -0.000667 -0.020715
v 0.029161 -0.000333 -0.020769
v 0.029101 -0.000667 -0.020815
v 0.029161 -0.000667 -0.020769
v 0.029293 -0.000667 -0.020588
v 0.029259 -0.000333 -0.020655
v 0.029259 -0.000667 -0.020655
v 0.029323 -0.000667 -0.020441
v 0.029315 -0.000333 -0.020516
v 0.029315 -0.000667 -0.020516
v 0.029292 -0.000667 -0.020294
v 0.029315 -0.000333 -0.020366
v 0.029315 -0.000667 -0.020366
v 0.029213 -0.000667 -0.020168
v 0.029258 -0.000333 -0.020228
v 0.029258 -0.000667 -0.020228
v 0.029160 -0.000333 -0.020114
v 0.029160 -0.000667 -0.020114
v 0.029213 0.001000 -0.020168
v 0.029288 0.001000 -0.020284
v 0.029316 0.001000 -0.020370
v 0.029320 0.001000 -0.020487
v 0.029264 0.001000 -0.020647
v 0.029172 0.001000 -0.020759
v 0.029033 0.001000 -0.020856
v 0.028858 0.001000 -0.020920
v 0.029160 0.000333 -0.020114
v 0.029213 0.000667 -0.020168
v 0.029160 0.000667 -0.020114
v 0.029258 0.000333 -0.020228
v 0.029292 0.000667 -0.020294
v 0.029258 0.000667 -0.020228
v 0.029315 0.000333 -0.020366
v 0.029323 0.000667 -0.020441
v 0.029315 0.000667 -0.020366
v 0.029315 0.000333 -0.020516
v 0.029293 0.000667 -0.020588
v 0.029315 0.000667 -0.020516
v 0.029259 0.000333 -0.020655
v 0.029214 0.000667 -0.020715
v 0.029259 0.000667 -0.020655
v 0.029161 0.000333 -0.020769
v 0.029101 0.000667 -0.020815
v 0.029161 0.000667 -0.020769
v 0.028673 0.001000 -0.020942
v 0.028673 0.000500 -0.020942
v 0.028673 0.000000 -0.020942
v 0.028673 -0.000500 -0.020942
v 0.029099 -0.001000 -0.020067
v 0.029099 -0.000500 -0.020067
v 0.029099 0.000000 -0.020067
v 0.029099 0.000500 -0.020067
v 0.005720 0.001000 -0.016344
v -0.004968 -0.001000 -0.001926
v -0.002296 -0.001000 -0.005531
v 0.000376 -0.001000 -0.009135
v 0.003048 -0.001000 -0.012740
v 0.003048 0.001000 -0.012740
v 0.000376 0.001000 -0.009135
v -0.002296 0.001000 -0.005531
v 0.005720 -0.001000 -0.016344
v 0.005720 0.000000 -0.016344
v 0.003048 0.000000 -0.012740
v 0.004384 0.000000 -0.014542
v 0.003048 -0.000500 -0.012740
v 0.004384 -0.000500 -0.014542
v 0.003048 0.000500 -0.012740
v 0.004384 0.000500 -0.014542
v -0.004968 0.001000 -0.001926
v -0.004968 -0.000000 -0.001926
v -0.002296 -0.000000 -0.005531
v -0.003632 -0.000000 -0.003729
v -0.002296 0.000500 -0.005531
v -0.003632 0.000500 -0.003729
v -0.002296 -0.000500 -0.005531
v -0.003632 -0.000500 -0.003729
v 0.007878 0.001000 -0.014744
v 0.005720 -0.001000 -0.016344
v 0.006090 -0.001000 -0.016685
v 0.006602 -0.001000 -0.016873
v 0.007146 -0.001000 -0.016842
v 0.007599 -0.001000 -0.016623
v 0.007940 -0.001000 -0.016253
v 0.008128 -0.001000 -0.015742
v 0.008097 -0.001000 -0.015198
v 0.008097 0.001000 -0.015198
v 0.008128 0.001000 -0.015742
v 0.007940 0.001000 -0.016253
v 0.007599 0.001000 -0.016623
v 0.007146 0.001000 -0.016842
v 0.006602 0.001000 -0.016873
v 0.006090 0.001000 -0.016685
v 0.005720 0.001000 -0.016344
v 0.005720 0.000000 -0.016344
v 0.007878 -0.001000 -0.014744
v 0.007878 0.000000 -0.014744
v 0.007878 0.001000 -0.014744
v -0.002809 -0.001000 -0.000326
v 0.007878 -0.001000 -0.014744
v 0.005206 -0.001000 -0.011140
v 0.002535 -0.001000 -0.007535
v -0.000137 -0.001000 -0.003931
v -0.002809 0.001000 -0.000326
v -0.000137 0.001000 -0.003931
v 0.002535 0.001000 -0.007535
v 0.005206 0.001000 -0.011140
v 0.007878 0.000000 -0.014744
v 0.005206 0.000000 -0.011140
v 0.006542 0.000000 -0.012942
v 0.005206 0.000500 -0.011140
v 0.006542 0.000500 -0.012942
v 0.005206 -0.000500 -0.011140
v 0.006542 -0.000500 -0.012942
v -0.002809 -0.000000 -0.000326
v -0.000137 -0.000000 -0.003931
v -0.001473 -0.000000 -0.002128
v -0.000137 -0.000500 -0.003931
v -0.001473 -0.000500 -0.002128
v -0.000137 0.000500 -0.003931
v -0.001473 0.000500 -0.002128
v -0.002809 0.001000 -0.000326
v -0.004968 -0.001000 -0.001926
v -0.002809 -0.001000 -0.000326
v -0.003180 -0.001000 0.000015
v -0.003691 -0.001000 0.000203
v -0.004235 -0.001000 0.000172
v -0.004689 -0.001000 -0.000047
v -0.005030 -0.001000 -0.000417
v -0.005217 -0.001000 -0.000929
v -0.005187 -0.001000 -0.001473
v -0.004968 0.001000 -0.001926
v -0.005187 0.001000 -0.001473
v -0.005217 0.001000 -0.000929
v -0.005030 0.001000 -0.000417
v -0.004689 0.001000 -0.000047
v -0.004235 0.001000 0.000172
v -0.003691 0.001000 0.000203
v -0.003180 0.001000 0.000015
v -0.002809 -0.000000 -0.000326
v -0.004968 -0.000000 -0.001926
v -0.008685 0.001000 0.007745
v -0.008685 0.001000 0.003260
v -0.008685 -0.001000 0.003260
v -0.006442 -0.001000 0.005502
v -0.007859 -0.001000 0.003418
v -0.007099 -0.001000 0.003917
v -0.006600 -0.001000 0.004677
v -0.006600 -0.001000 0.006328
v -0.007099 -0.001000 0.007088
v -0.007859 -0.001000 0.007587
v -0.008685 -0.001000 0.007745
v -0.009510 -0.001000 0.007587
v -0.010270 -0.001000 0.007088
v -0.010769 -0.001000 0.006328
v -0.010927 -0.001000 0.005502
v -0.010769 -0.001000 0.004677
v -0.010270 -0.001000 0.003917
v -0.009510 -0.001000 0.003418
v -0.008685 -0.001000 0.003260
v -0.009510 0.001000 0.003418
v -0.010270 0.001000 0.003917
v -0.010769 0.001000 0.004677
v -0.010927 0.001000 0.005502
v -0.010769 0.001000 0.006328
v -0.010270 0.001000 0.007088
v -0.009510 0.001000 0.007587
v -0.007859 0.001000 0.007587
v -0.007099 0.001000 0.007088
v -0.006600 0.001000 0.006328
v -0.006442 0.001000 0.005502
v -0.006600 0.001000 0.004677
v -0.007099 0.001000 0.003917
v -0.007859 0.001000 0.003418
v -0.008685 0.001000 0.003260
v -0.021806 -0.001000 0.020928
v -0.021808 0.001000 0.020928
v -0.021806 -0.001000 0.022928
v -0.021806 -0.001000 0.021928
v -0.021808 0.001000 0.021928
v -0.021808 0.001000 0.022928
v -0.021807 -0.000000 0.022928
v -0.021808 0.001000 0.020928
v -0.021806 -0.001000 0.020928
v -0.025081 0.001000 0.020928
v -0.025081 -0.001000 0.020928
v -0.025578 -0.001000 0.022928
v -0.021806 -0.001000 0.022928
v -0.025578 0.001000 0.022928
v -0.021808 0.001000 0.022928
v -0.021807 -0.000000 0.022928
v -0.025585 0.001000 0.022928
v -0.025585 0.001000 0.032682
v -0.025585 -0.001000 0.032682
v -0.025585 -0.001000 0.022928
v -0.025585 -0.001000 0.027805
vn 0.999999 0.000000 -0.001700
vn 0.999999 0.000000 -0.001700
vn 0.999999 0.000000 -0.001700
vn 0.999999 0.000000 -0.001700
vn 0.999999 0.000000 -0.001700
vn 0.999999 0.000000 -0.001700
vn 0.999999 0.000000 -0.001700
vn 0.999999 0.000000 -0.001700
vn 0.999999 0.000000 -0.001700
vn 0.999999 0.000000 -0.001700
vn 0.000000 -0.000000 1.000000
vn 0.000000 -0.000000 1.000000
vn 0.000000 -0.000000 1.000000
vn 0.000000 -0.000000 1.000000
vn 0.000000 -0.000000 1.000000
vn 1.000000 0.000000 0.000000
vn 1.000000 0.000000 0.000000
vn 1.000000 0.000000 0.000000
vn 1.000000 0.000000 0.000000
vn 1.000000 0.000000 0.000000
vn 0.000000 -0.000000 1.000000
vn 0.000000 -0.000000 1.000000
vn 0.000000 -0.000000 1.000000
vn 0.000000 -0.000000 1.000000
vn 0.000000 -0.000000 1.000000
vn 0.000000 -0.000000 1.000000
vn -1.000000 0.000000 0.000000
vn -1.000000 0.000000 0.000000
vn -1.000000 0.000000 0.000000
vn -1.000000 0.000000 0.000000
vn -1.000000 0.000000 0.000000
vn 0.000000 -0.000000 1.000000
vn 0.000000 -0.000000 1.000000
vn 0.000000 -0.000000 1.000000
vn 0.000000 -0.000000 1.000000
vn 1.000000 0.000000 0.000000
vn 1.000000 0.000000 0.000000
vn 1.000000 0.000000 0.000000
vn 1.000000 0.000000 0.000000
vn 1.000000 0.000000 0.000000
vn 0.000000 -0.000000 1.000000
vn 0.000000 -0.000000 1.000000
vn 0.000000 -0.000000 1.000000
vn 0.000000 -0.000000 1.000000
vn 0.000000 -0.000000 1.000000
vn 0.000000 -0.000000 1.000000
vn -1.000000 0.000000 0.000000
vn -1.000000 0.000000 0.000000
vn -1.000000 0.000000 0.000000
vn -1.000000 0.000000 0.000000
vn -1.000000 0.000000 0.000000
vn 0.000000 0.000000 -1.000000
vn 0.000000 0.000000 -1.000000
vn 0.000000 0.000000 -1.000000
vn 0.000000 0.000000 -1.000000
vn 0.000000 0.000000 -1.000000
vn 0.000000 0.000000 -1.000000
vn 0.000000 0.000000 -1.000000
vn -0.773815 0.000000 -0.633412
vn -0.773815 0.000000 -0.633412
vn -0.773815 0.000000 -0.633412
vn -0.773815 0.000000 -0.633412
vn -0.773815 0.000000 -0.633412
vn -0.773815 0.000000 -0.633412
vn -0.773815 0.000000 -0.633412
vn -0.773815 0.000000 -0.633412
vn -0.773815 0.000000 -0.633412
vn -0.773815 0.000000 -0.633412
vn -0.773815 0.000000 -0.633412
vn -0.773815 0.000000 -0.633412
vn -0.773815 0.000000 -0.633412
vn -0.773815 0.000000 -0.633412
vn -0.773815 0.000000 -0.633412
vn -0.773815 0.000000 -0.633412
vn -0.773815 0.000000 -0.633412
vn -0.773815 0.000000 -0.633412
vn -0.773815 0.000000 -0.633412
vn -1.000000 0.000000 0.000000
vn -1.000000 0.000000 0.000000
vn -1.000000 0.000000 0.000000
vn -1.000000 0.000000 0.000000
vn 0.000000 -0.000000 1.000000
vn 0.000000 -0.000000 1.000000
vn 0.000000 -0.000000 1.000000
vn 0.000000 -0.000000 1.000000
vn 0.000000 -0.000000 1.000000
vn 0.000000 -0.000000 1.000000
vn 0.380287 -0.000000 0.924869
vn 0.715012 -0.000000 0.699112
vn 0.932100 -0.000000 0.362200
vn 0.999999 0.000000 -0.001600
vn 0.000000 -0.000000 1.000000
vn 0.380287 -0.000000 0.924869
vn 0.715012 -0.000000 0.699112
vn 0.932100 -0.000000 0.362200
vn 0.999999 0.000000 -0.001600
vn 0.000000 -0.000000 1.000000
vn 0.999999 0.000000 -0.001600
vn 0.999999 0.000000 -0.001700
vn 0.951514 -0.000000 0.307605
vn 0.810600 -0.000000 0.585600
vn 0.999999 0.000000 -0.001700
vn 0.951611 -0.000000 0.307304
vn 0.810600 -0.000000 0.585600
vn 0.999999 0.000000 -0.001700
vn 0.810600 -0.000000 0.585600
vn 0.810518 -0.000000 0.585713
vn 0.810518 -0.000000 0.585713
vn 0.810518 -0.000000 0.585713
vn 0.810518 -0.000000 0.585713
vn 0.810518 -0.000000 0.585713
vn 0.810518 -0.000000 0.585713
vn 0.810518 -0.000000 0.585713
vn 0.810518 -0.000000 0.585713
vn 0.810518 -0.000000 0.585713
vn 0.453204 -0.000000 0.891407
vn 0.000100 -0.000000 1.000000
vn 0.810518 -0.000000 0.585713
vn 0.453204 -0.000000 0.891407
vn 0.000100 -0.000000 1.000000
vn 0.810518 -0.000000 0.585713
vn 0.000100 -0.000000 1.000000
vn 0.000000 -0.000000 1.000000
vn 0.000000 -0.000000 1.000000
vn 0.000000 -0.000000 1.000000
vn 0.000000 -0.000000 1.000000
vn 0.000000 -0.000000 1.000000
vn 0.000100 -0.000000 1.000000
vn 0.379910 -0.000000 0.925024
vn 0.714468 -0.000000 0.699668
vn 0.931629 -0.000000 0.363411
vn 1.000000 0.000000 0.000000
vn 0.000100 -0.000000 1.000000
vn 0.379910 -0.000000 0.925024
vn 0.714468 -0.000000 0.699668
vn 0.931629 -0.000000 0.363411
vn 1.000000 0.000000 0.000000
vn 0.000000 -0.000000 1.000000
vn 1.000000 0.000000 0.000000
vn 1.000000 0.000000 0.000000
vn 1.000000 0.000000 0.000000
vn 1.000000 0.000000 0.000000
vn 1.000000 0.000000 0.000000
vn 1.000000 0.000000 0.000000
vn 1.000000 0.000000 0.000000
vn 1.000000 0.000000 0.000000
vn 0.925024 0.000000 -0.379910
vn 0.699718 0.000000 -0.714419
vn 0.363411 0.000000 -0.931629
vn 0.000000 -0.000100 -1.000000
vn 1.000000 0.000000 0.000000
vn 0.925024 0.000000 -0.379910
vn 0.699718 0.000000 -0.714419
vn 0.363411 0.000000 -0.931629
vn 0.000000 0.000000 -1.000000
vn 1.000000 0.000000 0.000000
vn 0.000000 0.000000 -1.000000
vn 0.814853 -0.000000 0.579667
vn 0.814853 -0.000000 0.579667
vn 0.814853 -0.000000 0.579667
vn 0.814853 -0.000000 0.579667
vn 0.814853 -0.000000 0.579667
vn 0.814853 -0.000000 0.579667
vn 0.814853 -0.000000 0.579667
vn 0.814853 -0.000000 0.579667
vn 0.814853 -0.000000 0.579667
vn 0.814853 -0.000000 0.579667
vn 0.814853 -0.000000 0.579667
vn 0.814853 -0.000000 0.579667
vn 0.814853 -0.000000 0.579667
vn 0.814820 -0.000000 0.579714
vn 0.460723 -0.000000 0.887544
vn 0.009500 -0.000000 0.999955
vn 0.814820 -0.000000 0.579714
vn 0.460723 -0.000000 0.887544
vn 0.009500 -0.000000 0.999955
vn 0.814820 -0.000000 0.579714
vn 0.009500 -0.000000 0.999955
vn 0.009400 -0.000000 0.999956
vn 0.009400 -0.000000 0.999956
vn 0.009400 -0.000000 0.999956
vn 0.009400 -0.000000 0.999956
vn 0.009400 -0.000000 0.999956
vn 0.009400 -0.000000 0.999956
vn 0.009400 -0.000000 0.999956
vn 0.009400 -0.000000 0.999956
vn 0.009500 -0.000000 0.999955
vn 0.308417 -0.000000 0.951251
vn 0.578084 -0.000000 0.815977
vn 0.009500 -0.000000 0.999955
vn 0.308417 -0.000000 0.951251
vn 0.578084 -0.000000 0.815977
vn 0.009500 -0.000000 0.999955
vn 0.578084 -0.000000 0.815977
vn 0.578084 -0.000000 0.815977
vn 0.578084 -0.000000 0.815977
vn 0.578084 -0.000000 0.815977
vn 0.578084 -0.000000 0.815977
vn 0.578084 -0.000000 0.815977
vn 0.578084 -0.000000 0.815977
vn 0.578084 -0.000000 0.815977
vn 0.578084 -0.000000 0.815977
vn 0.578084 -0.000000 0.815977
vn 0.892115 -0.000000 0.451808
vn 0.999924 0.000000 -0.012300
vn 0.578084 -0.000000 0.815977
vn 0.892115 -0.000000 0.451808
vn 0.999924 0.000000 -0.012300
vn 0.578084 -0.000000 0.815977
vn 0.999924 0.000000 -0.012300
vn 0.999923 0.000000 -0.012400
vn 0.999923 0.000000 -0.012400
vn 0.999923 0.000000 -0.012400
vn 0.999923 0.000000 -0.012400
vn 0.999923 0.000000 -0.012400
vn 0.999923 0.000000 -0.012400
vn 0.999923 0.000000 -0.012400
vn 0.921579 0.000000 -0.388191
vn 0.696122 0.000000 -0.717923
vn 0.362287 0.000000 -0.932067
vn 0.001700 0.000000 -0.999999
vn 0.999923 0.000000 -0.012400
vn 0.921579 0.000000 -0.388191
vn 0.696122 0.000000 -0.717923
vn 0.362200 0.000000 -0.932100
vn 0.001700 0.000000 -0.999999
vn 0.999923 0.000000 -0.012400
vn 0.001700 0.000000 -0.999999
vn 0.001700 0.000000 -0.999999
vn 0.001700 0.000000 -0.999999
vn 0.001700 0.000000 -0.999999
vn 0.001700 0.000000 -0.999999
vn 0.001700 0.000000 -0.999999
vn 0.001700 0.000000 -0.999999
vn 0.001700 0.000000 -0.999999
vn 0.001700 0.000000 -0.999999
vn 0.001700 0.000000 -0.999999
vn 0.001700 0.000000 -0.999999
vn 0.001700 0.000000 -0.999999
vn 0.001700 0.000000 -0.999999
vn 0.001700 0.000000 -0.999999
vn 0.001700 0.000000 -0.999999
vn 0.001700 0.000000 -0.999999
vn 0.001700 0.000000 -0.999999
vn 0.001700 0.000000 -0.999999
vn 0.001700 0.000000 -0.999999
vn 0.001700 0.000000 -0.999999
vn 0.001700 0.000000 -0.999999
vn 0.001600 0.000000 -0.999999
vn -0.429002 0.000000 -0.903304
vn -0.773766 0.000000 -0.633472
vn 0.001600 0.000000 -0.999999
vn -0.428920 0.000000 -0.903342
vn -0.773766 0.000000 -0.633472
vn 0.001600 0.000000 -0.999999
vn -0.773815 0.000000 -0.633412
vn 0.000000 -1.000000 -0.000000
vn 0.000000 -1.000000 -0.000000
vn 0.000000 -1.000000 -0.000000
vn 0.000000 -1.000000 -0.000000
vn 0.000000 -1.000000 -0.000000
vn 0.000000 -1.000000 -0.000000
vn 0.000000 -1.000000 -0.000000
vn 0.000000 -1.000000 -0.000000
vn 0.000000 -1.000000 -0.000000
vn 0.000000 -1.000000 -0.000000
vn 0.000000 -1.000000 -0.000000
vn 0.000000 -1.000000 -0.000000
vn 0.000000 -1.000000 -0.000000
vn 0.000000 -1.000000 -0.000000
vn 0.000000 -1.000000 -0.000000
vn 0.000000 -1.000000 -0.000000
vn 0.000000 -1.000000 -0.000000
vn 0.000000 -1.000000 -0.000000
vn 0.000000 -1.000000 -0.000000
vn 0.000000 -1.000000 -0.000000
vn 0.000000 -1.000000 -0.000000
vn 0.000000 -1.000000 -0.000000
vn 0.000000 -1.000000 -0.000000
vn 0.000000 -1.000000 -0.000000
vn 0.000000 -1.000000 -0.000000
vn 0.000000 -1.000000 -0.000000
vn 0.000000 -1.000000 -0.000000
vn 0.000000 -1.000000 -0.000000
vn 0.000000 -1.000000 -0.000000
vn 0.000000 -1.000000 -0.000000
vn 0.000000 -1.000000 -0.000000
vn 0.000000 -1.000000 -0.000000
vn 0.000000 -1.000000 -0.000000
vn 0.000000 -1.000000 -0.000000
vn 0.000000 -1.000000 -0.000000
vn 0.000000 -1.000000 -0.000000
vn 0.000000 -1.000000 -0.000000
vn 0.000000 -1.000000 -0.000000
vn 0.000000 -1.000000 -0.000000
vn 0.000000 -1.000000 -0.000000
vn 0.000000 -1.000000 -0.000000
vn 0.000000 -1.000000 -0.000000
vn 0.000000 -1.000000 -0.000000
vn 0.000000 -1.000000 -0.000000
vn 0.000000 -1.000000 -0.000000
vn 0.000000 -1.000000 -0.000000
vn 0.000000 -1.000000 -0.000000
vn 0.000000 -1.000000 -0.000000
vn 0.000000 -1.000000 -0.000000
vn 0.000000 -1.000000 -0.000000
vn 0.000000 -1.000000 -0.000000
vn 0.000000 -1.000000 -0.000000
vn 0.000000 -1.000000 -0.000000
vn 0.000000 -1.000000 -0.000000
vn 0.000000 -1.000000 -0.000000
vn 0.000000 -1.000000 -0.000000
vn 0.000000 -1.000000 -0.000000
vn 0.000000 -1.000000 -0.000000
vn 0.000000 -1.000000 -0.000000
vn 0.000000 -1.000000 -0.000000
vn 0.000000 -1.000000 -0.000000
vn 0.000000 -1.000000 -0.000000
vn 0.000000 -1.000000 -0.000000
vn 0.000000 -1.000000 -0.000000
vn 0.000000 -1.000000 -0.000000
vn 0.000000 -1.000000 -0.000000
vn 0.000000 -1.000000 -0.000000
vn 0.000000 -1.000000 -0.000000
vn 0.000000 -1.000000 -0.000000
vn 0.000000 -1.000000 -0.000000
vn 0.000000 -1.000000 -0.000000
vn 0.000000 -1.000000 -0.000000
vn 0.000000 -1.000000 -0.000000
vn 0.000000 -1.000000 -0.000000
vn 0.000000 -1.000000 -0.000000
vn 0.000000 -1.000000 -0.000000
vn 0.000000 -1.000000 -0.000000
vn 0.000000 -1.000000 -0.000000
vn 0.000000 -1.000000 -0.000000
vn 0.000000 -1.000000 -0.000000
vn 0.000000 -1.000000 -0.000000
vn 0.000000 -1.000000 -0.000000
vn 0.000000 -1.000000 -0.000000
vn 0.000000 -1.000000 -0.000000
vn 0.000000 -1.000000 -0.000000
vn 0.000000 -1.000000 -0.000000
vn 0.000000 -1.000000 -0.000000
vn 0.000000 -1.000000 -0.000000
vn 0.000000 -1.000000 -0.000000
vn 0.000000 -1.000000 -0.000000
vn 0.000000 -1.000000 -0.000000
vn 0.000000 -1.000000 -0.000000
vn 0.000000 -1.000000 -0.000000
vn 0.000000 -1.000000 -0.000000
vn 0.000000 -1.000000 -0.000000
vn 0.000000 -1.000000 -0.000000
vn 0.000000 -1.000000 -0.000000
vn 0.000000 -1.000000 -0.000000
vn 0.000000 -1.000000 -0.000000
vn 0.000000 -1.000000 -0.000000
vn 0.000000 -1.000000 -0.000000
vn 0.000000 -1.000000 -0.000000
vn 0.000000 -1.000000 -0.000000
vn 0.000000 -1.000000 -0.000000
vn 0.000000 -1.000000 -0.000000
vn 0.000000 -1.000000 -0.000000
vn 0.000000 -1.000000 -0.000000
vn 0.000000 -1.000000 -0.000000
vn 0.000000 -1.000000 -0.000000
vn 0.000000 -1.000000 -0.000000
vn 0.000000 -1.000000 -0.000000
vn 0.000000 -1.000000 -0.000000
vn 0.000000 -1.000000 -0.000000
vn 0.000000 -1.000000 -0.000000
vn 0.000000 -1.000000 -0.000000
vn 0.000000 -1.000000 -0.000000
vn 0.000000 -1.000000 -0.000000
vn 0.000000 -1.000000 -0.000000
vn 0.000000 -1.000000 -0.000000
vn 0.000000 -1.000000 -0.000000
vn 0.000000 -1.000000 -0.000000
vn 0.000000 -1.000000 -0.000000
vn 0.000000 -1.000000 -0.000000
vn 0.000000 -1.000000 -0.000000
vn 0.000000 -1.000000 -0.000000
vn 0.000000 -1.000000 -0.000000
vn 0.000000 -1.000000 -0.000000
vn 0.000000 -1.000000 -0.000000
vn 0.000000 -1.000000 -0.000000
vn 0.000000 -1.000000 -0.000000
vn 0.000000 -1.000000 -0.000000
vn 0.000000 -1.000000 -0.000000
vn 0.000000 -1.000000 -0.000000
vn 0.000000 -1.000000 -0.000000
vn 0.000000 -1.000000 -0.000000
vn 0.000000 -1.000000 -0.000000
vn 0.000000 -1.000000 -0.000000
vn 0.000000 -1.000000 -0.000000
vn 0.000000 -1.000000 -0.000000
vn 0.000000 -1.000000 -0.000000
vn 0.000000 -1.000000 -0.000000
vn 0.000000 -1.000000 -0.000000
vn 0.000000 -1.000000 -0.000000
vn 0.000000 -1.000000 -0.000000
vn 0.000000 -1.000000 -0.000000
vn 0.000000 -1.000000 -0.000000
vn 0.000000 -1.000000 -0.000000
vn 0.000000 -1.000000 -0.000000
vn 0.000000 -1.000000 -0.000000
vn 0.000000 -1.000000 -0.000000
vn 0.000000 1.000000 0.000000
vn 0.000000 1.000000 0.000000
vn 0.000000 1.000000 0.000000
vn 0.000000 1.000000 0.000000
vn 0.000000 1.000000 0.000000
vn 0.000000 1.000000 0.000000
vn 0.000000 1.000000 0.000000
vn 0.000000 1.000000 0.000000
vn 0.000000 1.000000 0.000000
vn 0.000000 1.000000 0.000000
vn 0.000000 1.000000 0.000000
vn 0.000000 1.000000 0.000000
vn 0.000000 1.000000 0.000000
vn 0.000000 1.000000 0.000000
vn 0.000000 1.000000 0.000000
vn 0.000000 1.000000 0.000000
vn 0.000000 1.000000 0.000000
vn 0.000000 1.000000 0.000000
vn 0.000000 1.000000 0.000000
vn 0.000000 1.000000 0.000000
vn 0.000000 1.000000 0.000000
vn 0.000000 1.000000 0.000000
vn 0.000000 1.000000 0.000000
vn 0.000000 1.000000 0.000000
vn 0.000000 1.000000 0.000000
vn 0.000000 1.000000 0.000000
vn 0.000000 1.000000 0.000000
vn 0.000000 1.000000 0.000000
vn 0.000000 1.000000 0.000000
vn 0.000000 1.000000 0.000000
vn 0.000000 1.000000 0.000000
vn 0.000000 1.000000 0.000000
vn 0.000000 1.000000 0.000000
vn 0.000000 1.000000 0.000000
vn 0.000000 1.000000 0.000000
vn 0.000000 1.000000 0.000000
vn 0.000000 1.000000 0.000000
vn 0.000000 1.000000 0.000000
vn 0.000000 1.000000 0.000000
vn 0.000000 1.000000 0.000000
vn 0.000000 1.000000 0.000000
vn 0.000000 1.000000 0.000000
vn 0.000000 1.000000 0.000000
vn 0.000000 1.000000 0.000000
vn 0.000000 1.000000 0.000000
vn 0.000000 1.000000 0.000000
vn 0.000000 1.000000 0.000000
vn 0.000000 1.000000 0.000000
vn 0.000000 1.000000 0.000000
vn 0.000000 1.000000 0.000000
vn 0.000000 1.000000 0.000000
vn 0.000000 1.000000 0.000000
vn 0.000000 1.000000 0.000000
vn 0.000000 1.000000 0.000000
vn 0.000000 1.000000 0.000000
vn 0.000000 1.000000 0.000000
vn 0.000000 1.000000 0.000000
vn 0.000000 1.000000 0.000000
vn 0.000000 1.000000 0.000000
vn 0.000000 1.000000 0.000000
vn 0.000000 1.000000 0.000000
vn 0.000000 1.000000 0.000000
vn 0.000000 1.000000 0.000000
vn 0.000000 1.000000 0.000000
vn 0.000000 1.000000 0.000000
vn 0.000000 1.000000 0.000000
vn 0.000000 1.000000 0.000000
vn 0.000000 1.000000 0.000000
vn 0.000000 1.000000 0.000000
vn 0.000000 1.000000 0.000000
vn 0.000000 1.000000 0.000000
vn 0.000000 1.000000 0.000000
vn 0.000000 1.000000 0.000000
vn 0.000000 1.000000 0.000000
vn 0.000000 1.000000 0.000000
vn 0.000000 1.000000 0.000000
vn 0.000000 1.000000 0.000000
vn 0.000000 1.000000 0.000000
vn 0.000000 1.000000 0.000000
vn 0.000000 1.000000 0.000000
vn 0.000000 1.000000 0.000000
vn 0.000000 1.000000 0.000000
vn 0.000000 1.000000 0.000000
vn 0.000000 1.000000 0.000000
vn 0.000000 1.000000 0.000000
vn 0.000000 1.000000 0.000000
vn 0.000000 1.000000 0.000000
vn 0.000000 1.000000 0.000000
vn 0.000000 1.000000 0.000000
vn 0.000000 1.000000 0.000000
vn 0.000000 1.000000 0.000000
vn 0.000000 1.000000 0.000000
vn 0.000000 1.000000 0.000000
vn 0.000000 1.000000 0.000000
vn 0.000000 1.000000 0.000000
vn 0.000000 1.000000 0.000000
vn 0.000000 1.000000 0.000000
vn 0.000000 1.000000 0.000000
vn 0.000000 1.000000 0.000000
vn 0.000000 1.000000 0.000000
vn 0.000000 1.000000 0.000000
vn 0.000000 1.000000 0.000000
vn 0.000000 1.000000 0.000000
vn 0.000000 1.000000 0.000000
vn 0.000000 1.000000 0.000000
vn 0.000000 1.000000 0.000000
vn 0.000000 1.000000 0.000000
vn 0.000000 1.000000 0.000000
vn 0.000000 1.000000 0.000000
vn 0.000000 1.000000 0.000000
vn 0.000000 1.000000 0.000000
vn 0.000000 1.000000 0.000000
vn 0.000000 1.000000 0.000000
vn 0.000000 1.000000 0.000000
vn 0.000000 1.000000 0.000000
vn 0.000000 1.000000 0.000000
vn 0.000000 1.000000 0.000000
vn 0.000000 1.000000 0.000000
vn 0.000000 1.000000 0.000000
vn 0.000000 1.000000 0.000000
vn 0.000000 1.000000 0.000000
vn 0.000000 1.000000 0.000000
vn 0.000000 1.000000 0.000000
vn 0.000000 1.000000 0.000000
vn 0.000000 1.000000 0.000000
vn 0.000000 1.000000 0.000000
vn 0.000000 1.000000 0.000000
vn 0.000000 1.000000 0.000000
vn 0.000000 1.000000 0.000000
vn 0.000000 1.000000 0.000000
vn 0.000000 1.000000 0.000000
vn 0.000000 1.000000 0.000000
vn 0.000000 1.000000 0.000000
vn 0.000000 1.000000 0.000000
vn 0.000000 1.000000 0.000000
vn 0.000000 1.000000 0.000000
vn 0.000000 1.000000 0.000000
vn 0.000000 1.000000 0.000000
vn 0.000000 1.000000 0.000000
vn 0.000000 1.000000 0.000000
vn 0.000000 1.000000 0.000000
vn 0.000000 1.000000 0.000000
vn 0.000000 1.000000 0.000000
vn 0.000000 1.000000 0.000000
vn 0.000000 1.000000 0.000000
vn 0.000000 1.000000 0.000000
vn 0.000000 1.000000 0.000000
vn 0.000000 1.000000 0.000000
vn 0.000000 1.000000 0.000000
vn -0.561787 0.000000 -0.827282
vn -0.561787 0.000000 -0.827282
vn -0.561787 0.000000 -0.827282
vn -0.561787 0.000000 -0.827282
vn -0.561787 0.000000 -0.827282
vn -0.561787 0.000000 -0.827282
vn -0.561787 0.000000 -0.827282
vn -0.561787 0.000000 -0.827282
vn -0.561787 0.000000 -0.827282
vn -0.561787 0.000000 -0.827282
vn -0.561787 0.000000 -0.827282
vn -0.561787 0.000000 -0.827282
vn -0.561787 0.000000 -0.827282
vn -0.561787 0.000000 -0.827282
vn -0.561787 0.000000 -0.827282
vn -0.561787 0.000000 -0.827282
vn -0.561787 0.000000 -0.827282
vn -0.561787 0.000000 -0.827282
vn -0.561787 0.000000 -0.827282
vn -0.561787 0.000000 -0.827282
vn -0.561719 0.000000 -0.827328
vn -0.276108 0.000000 -0.961127
vn 0.000000 0.000000 -1.000000
vn -0.561719 0.000000 -0.827328
vn -0.286797 0.000000 -0.957991
vn -0.276108 0.000000 -0.961127
vn -0.422809 0.000000 -0.906219
vn -0.422809 0.000000 -0.906219
vn -0.137696 0.000000 -0.990474
vn -0.137893 0.000000 -0.990447
vn 0.000000 0.000000 -1.000000
vn -0.286797 0.000000 -0.957991
vn -0.276108 0.000000 -0.961127
vn -0.137795 0.000000 -0.990461
vn -0.422809 0.000000 -0.906219
vn -0.561719 0.000000 -0.827328
vn -0.561787 0.000000 -0.827282
vn 0.000000 0.000000 -1.000000
vn 0.000000 0.000000 -1.000000
vn 0.000000 0.000000 -1.000000
vn 0.000000 0.000000 -1.000000
vn 0.000000 0.000000 -1.000000
vn 0.000000 0.000000 -1.000000
vn 0.000000 0.000000 -1.000000
vn 0.000000 0.000000 -1.000000
vn 0.000000 0.000000 -1.000000
vn 0.000000 0.000000 -1.000000
vn 0.000000 0.000000 -1.000000
vn 0.000000 0.000000 -1.000000
vn 0.000000 0.000000 -1.000000
vn 0.000000 0.000000 -1.000000
vn 0.000000 0.000000 -1.000000
vn 0.000000 0.000000 -1.000000
vn 0.000000 0.000000 -1.000000
vn 0.000000 0.000000 -1.000000
vn 0.000000 0.000000 -1.000000
vn 0.000000 0.000000 -1.000000
vn 0.000000 0.000000 -1.000000
vn 0.000100 0.000000 -1.000000
vn 0.086099 0.000000 -0.996287
vn 0.170493 0.000000 -0.985359
vn 0.260587 0.000000 -0.965450
vn 0.354989 0.000000 -0.934871
vn 0.456708 0.000000 -0.889616
vn 0.568013 0.000000 -0.823019
vn 0.690107 0.000000 -0.723707
vn 0.820887 0.000000 -0.571091
vn 0.942290 0.000000 -0.334797
vn 1.000000 0.000000 0.000000
vn 0.000100 0.000000 -1.000000
vn 0.165502 0.000000 -0.986210
vn 0.254705 0.000000 -0.967019
vn 0.349512 0.000000 -0.936932
vn 0.443490 0.000000 -0.896279
vn 0.541803 0.000000 -0.840505
vn 0.662164 0.000000 -0.749359
vn 0.844406 0.000000 -0.535704
vn 0.950015 0.000000 -0.312205
vn 0.987993 0.000000 -0.154499
vn 0.170493 0.000000 -0.985359
vn 0.128501 0.000000 -0.991709
vn 0.086099 0.000000 -0.996287
vn 0.128501 0.000000 -0.991709
vn 0.260400 0.000000 -0.965501
vn 0.214102 0.000000 -0.976811
vn 0.214007 0.000000 -0.976832
vn 0.355109 0.000000 -0.934825
vn 0.307485 0.000000 -0.951553
vn 0.307605 0.000300 -0.951514
vn 0.456708 0.000000 -0.889616
vn 0.405415 0.000000 -0.914133
vn 0.405498 0.000200 -0.914096
vn 0.568013 0.000000 -0.823019
vn 0.510107 0.000000 -0.860111
vn 0.510181 0.000000 -0.860067
vn 0.690107 0.000000 -0.723707
vn 0.628225 0.000000 -0.778031
vn 0.628286 0.000000 -0.777983
vn 0.942259 0.000000 -0.334885
vn 0.884558 0.000000 -0.466431
vn 0.820887 0.000000 -0.571091
vn 0.884580 0.000000 -0.466389
vn 0.984676 0.000000 -0.174396
vn 0.984658 0.000000 -0.174493
vn 0.984676 0.000000 -0.174396
vn 0.966149 0.000000 -0.257986
vn 0.942259 0.000000 -0.334885
vn 0.966149 0.000100 -0.257986
vn 0.996243 0.000000 -0.086604
vn 0.996243 0.000000 -0.086604
vn 1.000000 -0.000100 -0.000000
vn 0.987993 0.000000 -0.154499
vn 0.950015 0.000000 -0.312205
vn 0.844406 0.000000 -0.535704
vn 0.662213 0.000000 -0.749315
vn 0.541803 0.000000 -0.840505
vn 0.443490 0.000000 -0.896279
vn 0.349512 0.000000 -0.936932
vn 0.254705 0.000000 -0.967019
vn 0.165502 0.000000 -0.986210
vn 0.942259 0.000000 -0.334885
vn 0.984658 0.000000 -0.174493
vn 0.996243 0.000000 -0.086604
vn 0.984676 0.000100 -0.174396
vn 0.996243 0.000000 -0.086604
vn 0.966173 0.000000 -0.257893
vn 0.942259 0.000000 -0.334885
vn 0.966173 0.000000 -0.257893
vn 0.820887 0.000000 -0.571091
vn 0.884580 0.000000 -0.466389
vn 0.690107 0.000000 -0.723707
vn 0.567899 0.000000 -0.823098
vn 0.628225 0.000000 -0.778031
vn 0.456708 0.000000 -0.889616
vn 0.510181 0.000000 -0.860067
vn 0.354989 0.000000 -0.934871
vn 0.405415 0.000000 -0.914133
vn 0.260400 0.000000 -0.965501
vn 0.307514 0.000000 -0.951544
vn 0.170493 0.000000 -0.985359
vn 0.213891 0.000100 -0.976858
vn 0.086099 0.000000 -0.996287
vn 0.128501 0.000000 -0.991709
vn -0.000100 0.000000 -1.000000
vn 0.000000 0.000000 -1.000000
vn 1.000000 0.000000 0.000000
vn 1.000000 0.000000 0.000000
vn 1.000000 0.000000 0.000000
vn 1.000000 0.000000 0.000000
vn 1.000000 0.000000 0.000000
vn 1.000000 0.000000 0.000000
vn 1.000000 0.000000 0.000000
vn 1.000000 0.000000 0.000000
vn 1.000000 0.000000 0.000000
vn 1.000000 0.000000 0.000000
vn 1.000000 0.000000 0.000000
vn 1.000000 0.000000 0.000000
vn 0.000000 -0.000000 1.000000
vn 0.930300 -0.000000 0.366800
vn 0.787680 -0.000000 0.616085
vn 0.648185 -0.000000 0.761483
vn 0.517419 -0.000000 0.855732
vn 0.400090 -0.000000 0.916476
vn 0.294304 -0.000000 0.955712
vn 0.189708 -0.000000 0.981841
vn 0.095701 -0.000000 0.995410
vn 1.000000 0.000000 0.000000
vn 0.987993 -0.000000 0.154499
vn 0.950044 0.000100 0.312115
vn 0.844406 -0.000000 0.535704
vn 0.661896 -0.000000 0.749596
vn 0.542293 -0.000000 0.840189
vn 0.349095 -0.000000 0.937087
vn 0.255197 -0.000000 0.966889
vn 0.165193 -0.000000 0.986261
vn 0.930300 -0.000000 0.366800
vn 0.981138 -0.000000 0.193308
vn 0.981138 -0.000000 0.193308
vn 0.981138 -0.000100 0.193308
vn 0.995342 -0.000000 0.096404
vn 0.995342 0.000100 0.096404
vn 0.930300 -0.000000 0.366800
vn 0.958822 -0.000000 0.284007
vn 0.958822 -0.000000 0.284007
vn 0.787680 -0.000000 0.616085
vn 0.861595 -0.000000 0.507597
vn 0.861595 -0.000000 0.507597
vn 0.648127 -0.000000 0.761532
vn 0.716691 -0.000000 0.697391
vn 0.716691 -0.000000 0.697391
vn 0.517419 -0.000000 0.855732
vn 0.580888 -0.000000 0.813983
vn 0.580822 -0.000000 0.814031
vn 0.294514 0.000100 0.955647
vn 0.346692 -0.000000 0.937979
vn 0.400090 -0.000000 0.916476
vn 0.346604 -0.000000 0.938011
vn 0.189708 -0.000000 0.981841
vn 0.240700 -0.000000 0.970600
vn 0.240700 0.000200 0.970600
vn 0.095701 -0.000000 0.995410
vn 0.142695 -0.000000 0.989767
vn 0.142695 -0.000000 0.989767
vn 0.165193 -0.000000 0.986261
vn 0.255197 -0.000000 0.966889
vn 0.349095 -0.000000 0.937087
vn 0.542293 -0.000000 0.840189
vn 0.661896 -0.000000 0.749596
vn 0.844406 -0.000000 0.535704
vn 0.950044 -0.000000 0.312115
vn 0.987993 -0.000000 0.154499
vn 0.095701 -0.000000 0.995410
vn 0.189708 -0.000000 0.981841
vn 0.142695 -0.000000 0.989767
vn 0.294395 -0.000000 0.955684
vn 0.240511 -0.000000 0.970646
vn 0.400090 -0.000000 0.916476
vn 0.346813 -0.000000 0.937934
vn 0.517419 -0.000000 0.855732
vn 0.648185 -0.000000 0.761483
vn 0.580822 -0.000000 0.814031
vn 0.787680 -0.000000 0.616085
vn 0.716691 -0.000000 0.697391
vn 0.930300 -0.000000 0.366800
vn 0.861595 -0.000000 0.507597
vn 0.981138 -0.000000 0.193308
vn 0.958822 -0.000000 0.284007
vn 0.930300 -0.000000 0.366800
vn 0.981138 0.000100 0.193308
vn 0.958822 -0.000000 0.284007
vn 0.995342 -0.000000 0.096404
vn 0.995333 -0.000200 0.096503
vn 1.000000 0.000000 0.000000
vn 1.000000 0.000000 0.000000
vn 1.000000 0.000000 0.000000
vn 0.000000 -0.000000 1.000000
vn 0.000000 -0.000000 1.000000
vn 0.000000 -0.000000 1.000000
vn 0.000000 -0.000000 1.000000
vn 0.000000 -0.000000 1.000000
vn 0.000000 -0.000000 1.000000
vn 0.000000 -0.000000 1.000000
vn 0.000000 -0.000000 1.000000
vn 0.000000 -0.000000 1.000000
vn 0.000000 -0.000000 1.000000
vn 0.000000 -0.000000 1.000000
vn 0.000000 -0.000000 1.000000
vn 0.000000 -0.000000 1.000000
vn 0.000000 -0.000000 1.000000
vn 0.000000 -0.000000 1.000000
vn 0.000000 -0.000000 1.000000
vn 0.000000 -0.000000 1.000000
vn 0.000000 -0.000000 1.000000
vn 0.000000 -0.000000 1.000000
vn 0.000000 -0.000000 1.000000
vn 0.000000 -0.000000 1.000000
vn 0.000000 -0.000000 1.000000
vn 0.000000 -0.000000 1.000000
vn 0.000000 -0.000000 1.000000
vn 0.000000 -0.000000 1.000000
vn 0.000000 -0.000000 1.000000
vn 0.000000 -0.000000 1.000000
vn 0.000000 -0.000000 1.000000
vn 0.000000 -0.000000 1.000000
vn 0.000000 -0.000000 1.000000
vn -0.561787 0.000000 -0.827282
vn -0.184796 -0.000000 0.982777
vn -0.372011 -0.000000 0.928228
vn -0.564583 -0.000000 0.825376
vn -0.756823 -0.000000 0.653620
vn -0.925447 -0.000000 0.378878
vn -0.999993 0.000000 -0.003800
vn -0.923328 0.000000 -0.384012
vn -0.756958 0.000000 -0.653464
vn -0.184796 -0.000000 0.982777
vn -0.372011 -0.000000 0.928228
vn -0.564583 -0.000000 0.825376
vn -0.756823 -0.000000 0.653620
vn -0.925447 -0.000000 0.378878
vn -0.999993 0.000000 -0.003800
vn -0.923328 0.000000 -0.384012
vn -0.756958 0.000000 -0.653464
vn 0.000000 -0.000000 1.000000
vn -0.228488 -0.000000 0.973547
vn -0.462310 -0.000000 0.886719
vn -0.681095 -0.000000 0.732195
vn -0.858506 -0.000000 0.512804
vn -0.992469 -0.000000 0.122496
vn -0.981357 0.000000 -0.192192
vn -0.913787 0.000000 -0.406194
vn -0.756915 0.000000 -0.653513
vn -0.756823 -0.000000 0.653620
vn -0.661522 -0.000000 0.749925
vn -0.564583 -0.000000 0.825376
vn -0.661579 -0.000000 0.749876
vn -0.925432 -0.000000 0.378913
vn -0.847807 -0.000000 0.530305
vn -0.847807 -0.000000 0.530305
vn -0.999993 -0.000100 -0.003800
vn -0.979960 -0.000000 0.199192
vn -0.979960 -0.000000 0.199192
vn -0.923328 0.000000 -0.384012
vn -0.979116 0.000000 -0.203303
vn -0.979116 0.000000 -0.203303
vn -0.756915 0.000000 -0.653513
vn -0.846037 0.000000 -0.533124
vn -0.846037 0.000000 -0.533124
vn -0.659983 0.000000 -0.751281
vn -0.659926 0.000000 -0.751330
vn -0.756915 0.000000 -0.653513
vn -0.913787 0.000000 -0.406194
vn -0.981357 0.000000 -0.192192
vn -0.992481 -0.000000 0.122398
vn -0.858506 -0.000000 0.512804
vn -0.681095 -0.000000 0.732195
vn -0.462310 -0.000000 0.886719
vn -0.228488 -0.000000 0.973547
vn -0.659926 0.000000 -0.751330
vn -0.756915 0.000000 -0.653513
vn -0.659926 0.000000 -0.751330
vn -0.846037 0.000000 -0.533124
vn -0.923378 0.000000 -0.383891
vn -0.846037 0.000000 -0.533124
vn -0.979116 0.000000 -0.203303
vn -0.999993 0.000000 -0.003800
vn -0.979096 0.000000 -0.203399
vn -0.979960 -0.000000 0.199192
vn -0.925432 -0.000000 0.378913
vn -0.979960 -0.000000 0.199192
vn -0.847807 -0.000000 0.530305
vn -0.756823 -0.000000 0.653620
vn -0.847807 -0.000000 0.530305
vn -0.661522 -0.000000 0.749925
vn -0.564583 -0.000000 0.825376
vn -0.661579 -0.000000 0.749876
vn 0.000000 -0.000000 1.000000
vn -0.000100 -0.000000 1.000000
vn 0.000000 -0.000000 1.000000
vn -0.000100 -0.000000 1.000000
vn -0.561787 0.000000 -0.827282
vn -0.561971 0.000000 -0.827157
vn -0.561787 0.000000 -0.827282
vn -0.561971 0.000000 -0.827157
vn 0.803371 -0.000000 0.595479
vn 0.803371 -0.000000 0.595479
vn 0.803371 -0.000000 0.595479
vn 0.803371 -0.000000 0.595479
vn 0.803371 -0.000000 0.595479
vn 0.803371 -0.000000 0.595479
vn 0.803371 -0.000000 0.595479
vn 0.803371 -0.000000 0.595479
vn 0.803371 -0.000000 0.595479
vn 0.803371 -0.000000 0.595479
vn 0.803371 -0.000000 0.595479
vn 0.803371 -0.000000 0.595479
vn 0.803371 -0.000000 0.595479
vn 0.803371 -0.000000 0.595479
vn 0.803371 -0.000000 0.595479
vn 0.803371 -0.000000 0.595479
vn 0.803371 -0.000000 0.595479
vn 0.803371 -0.000000 0.595479
vn 0.803371 -0.000000 0.595479
vn 0.803371 -0.000000 0.595479
vn 0.803371 -0.000000 0.595479
vn 0.803371 -0.000000 0.595479
vn 0.803371 -0.000000 0.595479
vn 0.803371 -0.000000 0.595479
vn -0.803371 0.000000 -0.595479
vn 0.803336 -0.000000 0.595527
vn 0.527786 -0.000000 0.849377
vn 0.147005 -0.000000 0.989136
vn -0.257986 -0.000000 0.966149
vn -0.595479 -0.000000 0.803371
vn -0.849422 -0.000000 0.527714
vn -0.989136 -0.000000 0.147005
vn -0.966173 0.000000 -0.257893
vn -0.966173 0.000000 -0.257893
vn -0.989136 -0.000000 0.147005
vn -0.849422 -0.000000 0.527714
vn -0.595479 -0.000000 0.803371
vn -0.257986 -0.000000 0.966149
vn 0.147005 -0.000000 0.989136
vn 0.527786 -0.000000 0.849377
vn 0.803336 -0.000000 0.595527
vn 0.803336 -0.000000 0.595527
vn -0.803371 0.000000 -0.595479
vn -0.803371 0.000000 -0.595479
vn -0.803371 0.000000 -0.595479
vn -0.803371 0.000000 -0.595479
vn -0.803371 0.000000 -0.595479
vn -0.803371 0.000000 -0.595479
vn -0.803371 0.000000 -0.595479
vn -0.803371 0.000000 -0.595479
vn -0.803371 0.000000 -0.595479
vn -0.803371 0.000000 -0.595479
vn -0.803371 0.000000 -0.595479
vn -0.803371 0.000000 -0.595479
vn -0.803371 0.000000 -0.595479
vn -0.803371 0.000000 -0.595479
vn -0.803371 0.000000 -0.595479
vn -0.803371 0.000000 -0.595479
vn -0.803371 0.000000 -0.595479
vn -0.803371 0.000000 -0.595479
vn -0.803371 0.000000 -0.595479
vn -0.803371 0.000000 -0.595479
vn -0.803371 0.000000 -0.595479
vn -0.803371 0.000000 -0.595479
vn -0.803371 0.000000 -0.595479
vn -0.803371 0.000000 -0.595479
vn -0.803371 0.000000 -0.595479
vn -0.803371 0.000000 -0.595479
vn -0.803336 0.000000 -0.595527
vn 0.803371 -0.000000 0.595479
vn -0.803336 0.000000 -0.595527
vn -0.527786 0.000000 -0.849377
vn -0.147005 0.000000 -0.989136
vn 0.258011 0.000000 -0.966142
vn 0.595479 0.000000 -0.803371
vn 0.849422 0.000000 -0.527714
vn 0.989136 0.000000 -0.147005
vn 0.966149 -0.000000 0.257986
vn 0.803371 -0.000000 0.595479
vn 0.966149 -0.000000 0.257986
vn 0.989136 0.000000 -0.147005
vn 0.849422 0.000000 -0.527714
vn 0.595479 0.000000 -0.803371
vn 0.258011 0.000000 -0.966142
vn -0.147005 0.000000 -0.989136
vn -0.527786 0.000000 -0.849377
vn -0.803336 0.000000 -0.595527
vn 0.803371 -0.000000 0.595479
vn 0.000000 0.000000 -1.000000
vn 0.000000 -0.000000 1.000000
vn 0.000000 -0.000000 1.000000
vn -1.000000 0.000000 0.000000
vn -0.368095 -0.000000 0.929788
vn -0.707107 -0.000000 0.707107
vn -0.929788 -0.000000 0.368095
vn -0.929788 0.000000 -0.368095
vn -0.707107 0.000000 -0.707107
vn -0.368095 0.000000 -0.929788
vn 0.000000 0.000000 -1.000000
vn 0.368095 0.000000 -0.929788
vn 0.707107 0.000000 -0.707107
vn 0.929788 0.000000 -0.368095
vn 1.000000 0.000000 0.000000
vn 0.929788 -0.000000 0.368095
vn 0.707107 -0.000000 0.707107
vn 0.368095 -0.000000 0.929788
vn 0.000000 -0.000000 1.000000
vn 0.368095 -0.000000 0.929788
vn 0.707107 -0.000000 0.707107
vn 0.929788 -0.000000 0.368095
vn 1.000000 0.000000 0.000000
vn 0.929788 0.000000 -0.368095
vn 0.707107 0.000000 -0.707107
vn 0.368095 0.000000 -0.929788
vn -0.368095 0.000000 -0.929788
vn -0.707107 0.000000 -0.707107
vn -0.929788 0.000000 -0.368095
vn -1.000000 0.000000 0.000000
vn -0.929788 -0.000000 0.368095
vn -0.707107 -0.000000 0.707107
vn -0.368095 -0.000000 0.929788
vn 0.000000 -0.000000 1.000000
vn -1.000000 -0.000900 -0.000000
vn -1.000000 -0.000900 -0.000000
vn -1.000000 -0.000900 -0.000000
vn -1.000000 -0.000900 -0.000000
vn -1.000000 -0.000900 -0.000000
vn -1.000000 -0.000900 -0.000000
vn -1.000000 -0.000900 -0.000000
vn 0.000000 -0.000000 1.000000
vn 0.000000 -0.000000 1.000000
vn 0.000000 -0.000000 1.000000
vn 0.000000 -0.000000 1.000000
vn 0.000000 0.000000 -1.000000
vn 0.000000 0.000000 -1.000000
vn 0.000000 0.000000 -1.000000
vn 0.000000 0.000000 -1.000000
vn 0.000000 0.000000 -1.000000
vn -1.000000 0.000000 0.000000
vn -1.000000 0.000000 0.000000
vn -1.000000 0.000000 0.000000
vn -1.000000 0.000000 0.000000
vn -1.000000 0.000000 0.000000
f 3//3 2//2 6//6
f 3//3 6//6 7//7
f 4//4 3//3 9//9
f 3//3 7//7 9//9
f 10//10 2//2 1//1
f 6//6 10//10 5//5
f 7//7 8//8 9//9
f 6//6 2//2 10//10
f 15//15 12//12 11//11
f 14//14 15//15 13//13
f 12//12 15//15 14//14
f 20//20 17//17 16//16
f 19//19 20//20 18//18
f 16//16 18//18 20//20
f 21//21 25//25 26//26
f 21//21 26//26 22//22
f 24//24 26//26 25//25
f 24//24 25//25 23//23
f 31//31 28//28 27//27
f 30//30 31//31 29//29
f 28//28 31//31 30//30
f 33//33 32//32 34//34
f 33//33 34//34 35//35
f 40//40 37//37 36//36
f 39//39 40//40 38//38
f 36//36 38//38 40//40
f 41//41 45//45 46//46
f 41//41 46//46 42//42
f 44//44 46//46 45//45
f 44//44 45//45 43//43
f 51//51 48//48 47//47
f 50//50 51//51 49//49
f 48//48 51//51 50//50
f 58//58 53//53 52//52
f 54//54 53//53 56//56
f 54//54 56//56 57//57
f 56//56 58//58 55//55
f 58//58 56//56 53//53
f 72//72 74//74 75//75
f 72//72 75//75 73//73
f 76//76 72//72 73//73
f 76//76 73//73 77//77
f 74//74 59//59 75//75
f 71//71 73//73 75//75
f 72//72 60//60 74//74
f 71//71 75//75 59//59
f 60//60 59//59 74//74
f 61//61 60//60 66//66
f 61//61 66//66 67//67
f 63//63 62//62 68//68
f 63//63 68//68 69//69
f 64//64 63//63 69//69
f 64//64 69//69 70//70
f 62//62 61//61 67//67
f 62//62 67//67 68//68
f 71//71 77//77 73//73
f 76//76 77//77 65//65
f 71//71 65//65 77//77
f 66//66 76//76 65//65
f 66//66 72//72 76//76
f 72//72 66//66 60//60
f 79//79 78//78 80//80
f 79//79 80//80 81//81
f 86//86 83//83 82//82
f 85//85 86//86 84//84
f 82//82 84//84 86//86
f 88//88 87//87 97//97
f 89//89 88//88 93//93
f 89//89 93//93 94//94
f 90//90 89//89 94//94
f 90//90 94//94 95//95
f 90//90 98//98 91//91
f 88//88 97//97 93//93
f 96//96 98//98 95//95
f 95//95 98//98 90//90
f 92//92 93//93 97//97
f 100//100 103//103 104//104
f 100//100 104//104 106//106
f 100//100 106//106 101//101
f 105//105 100//100 99//99
f 103//103 105//105 102//102
f 105//105 103//103 100//100
f 108//108 107//107 113//113
f 108//108 114//114 109//109
f 111//111 108//108 113//113
f 111//111 113//113 110//110
f 108//108 111//111 112//112
f 108//108 112//112 114//114
f 116//116 115//115 121//121
f 116//116 122//122 117//117
f 119//119 116//116 121//121
f 119//119 121//121 118//118
f 116//116 119//119 120//120
f 116//116 120//120 122//122
f 127//127 124//124 123//123
f 126//126 127//127 125//125
f 123//123 125//125 127//127
f 130//130 129//129 134//134
f 130//130 134//134 135//135
f 131//131 130//130 135//135
f 131//131 135//135 136//136
f 132//132 131//131 139//139
f 131//131 136//136 137//137
f 131//131 137//137 139//139
f 138//138 129//129 128//128
f 134//134 138//138 133//133
f 129//129 138//138 134//134
f 145//145 141//141 140//140
f 145//145 140//140 144//144
f 144//144 142//142 143//143
f 144//144 143//143 145//145
f 147//147 146//146 156//156
f 148//148 147//147 152//152
f 148//148 152//152 153//153
f 149//149 148//148 153//153
f 149//149 153//153 154//154
f 149//149 157//157 150//150
f 152//152 147//147 156//156
f 152//152 156//156 151//151
f 155//155 157//157 154//154
f 154//154 157//157 149//149
f 168//168 166//166 165//165
f 168//168 165//165 167//167
f 166//166 170//170 169//169
f 166//166 169//169 165//165
f 169//169 159//159 165//165
f 160//160 159//159 169//169
f 164//164 160//160 170//170
f 169//169 170//170 160//160
f 170//170 166//166 164//164
f 159//159 158//158 161//161
f 159//159 161//161 162//162
f 165//165 159//159 162//162
f 167//167 165//165 162//162
f 163//163 164//164 166//166
f 163//163 166//166 168//168
f 167//167 163//163 168//168
f 163//163 167//167 162//162
f 172//172 171//171 177//177
f 172//172 178//178 173//173
f 175//175 172//172 177//177
f 175//175 177//177 174//174
f 172//172 175//175 178//178
f 175//175 176//176 178//178
f 180//180 183//183 186//186
f 180//180 186//186 181//181
f 185//185 180//180 179//179
f 183//183 185//185 182//182
f 183//183 184//184 186//186
f 185//185 183//183 180//180
f 188//188 187//187 193//193
f 188//188 194//194 189//189
f 191//191 188//188 193//193
f 188//188 191//191 194//194
f 191//191 192//192 194//194
f 190//190 191//191 193//193
f 196//196 199//199 200//200
f 196//196 200//200 202//202
f 196//196 202//202 197//197
f 201//201 196//196 195//195
f 199//199 201//201 198//198
f 201//201 199//199 196//196
f 204//204 207//207 208//208
f 204//204 208//208 210//210
f 204//204 210//210 205//205
f 209//209 204//204 203//203
f 207//207 209//209 206//206
f 209//209 207//207 204//204
f 211//211 215//215 216//216
f 211//211 216//216 212//212
f 214//214 216//216 215//215
f 214//214 215//215 213//213
f 219//219 218//218 223//223
f 219//219 223//223 224//224
f 220//220 219//219 224//224
f 220//220 224//224 225//225
f 221//221 220//220 228//228
f 220//220 225//225 226//226
f 220//220 226//226 228//228
f 227//227 218//218 217//217
f 223//223 227//227 222//222
f 218//218 227//227 223//223
f 236//236 238//238 239//239
f 236//236 239//239 237//237
f 240//240 236//236 237//237
f 240//240 237//237 241//241
f 246//246 244//244 243//243
f 246//246 243//243 245//245
f 244//244 248//248 247//247
f 244//244 247//247 243//243
f 238//238 229//229 239//239
f 235//235 239//239 229//229
f 235//235 237//237 239//239
f 241//241 237//237 235//235
f 238//238 236//236 230//230
f 230//230 229//229 238//238
f 247//247 231//231 230//230
f 242//242 248//248 244//244
f 231//231 248//248 242//242
f 231//231 247//247 248//248
f 243//243 247//247 230//230
f 233//233 240//240 232//232
f 241//241 232//232 240//240
f 236//236 240//240 233//233
f 232//232 241//241 235//235
f 243//243 236//236 233//233
f 246//246 245//245 234//234
f 233//233 234//234 245//245
f 234//234 242//242 244//244
f 234//234 244//244 246//246
f 245//245 243//243 233//233
f 230//230 236//236 243//243
f 250//250 249//249 255//255
f 250//250 256//256 251//251
f 253//253 250//250 255//255
f 250//250 253//253 256//256
f 253//253 254//254 256//256
f 252//252 253//253 255//255
f 268//268 267//267 266//266
f 286//286 267//267 287//287
f 268//268 290//290 289//289
f 288//288 267//267 289//289
f 267//267 268//268 289//289
f 288//288 287//287 267//267
f 269//269 295//295 268//268
f 269//269 270//270 271//271
f 269//269 271//271 272//272
f 263//263 272//272 386//386
f 388//388 387//387 273//273
f 386//386 273//273 387//387
f 273//273 389//389 388//388
f 386//386 272//272 273//273
f 274//274 389//389 273//273
f 272//272 263//263 295//295
f 272//272 295//295 269//269
f 390//390 389//389 274//274
f 290//290 268//268 294//294
f 290//290 294//294 292//292
f 292//292 294//294 293//293
f 268//268 295//295 294//294
f 263//263 374//374 264//264
f 374//374 263//263 375//375
f 373//373 264//264 374//374
f 386//386 377//377 263//263
f 378//378 377//377 386//386
f 379//379 378//378 385//385
f 378//378 386//386 385//385
f 379//379 385//385 384//384
f 377//377 376//376 263//263
f 381//381 380//380 383//383
f 380//380 379//379 384//384
f 317//317 316//316 382//382
f 376//376 375//375 263//263
f 382//382 381//381 317//317
f 316//316 359//359 382//382
f 290//290 292//292 291//291
f 277//277 276//276 406//406
f 276//276 275//275 406//406
f 278//278 277//277 406//406
f 399//399 257//257 280//280
f 258//258 257//257 399//399
f 401//401 280//280 279//279
f 403//403 261//261 399//399
f 279//279 278//278 406//406
f 280//280 400//400 399//399
f 260//260 406//406 275//275
f 401//401 279//279 406//406
f 260//260 259//259 406//406
f 406//406 405//405 404//404
f 404//404 401//401 406//406
f 403//403 402//402 261//261
f 262//262 261//261 402//402
f 400//400 280//280 401//401
f 399//399 281//281 258//258
f 285//285 391//391 390//390
f 393//393 392//392 285//285
f 391//391 285//285 392//392
f 383//383 380//380 384//384
f 317//317 398//398 397//397
f 284//284 393//393 285//285
f 398//398 317//317 383//383
f 283//283 282//282 318//318
f 318//318 281//281 261//261
f 281//281 318//318 282//282
f 399//399 261//261 281//281
f 394//394 284//284 283//283
f 317//317 395//395 318//318
f 394//394 318//318 395//395
f 396//396 395//395 317//317
f 317//317 397//397 396//396
f 283//283 318//318 394//394
f 394//394 393//393 284//284
f 383//383 317//317 381//381
f 274//274 285//285 390//390
f 316//316 360//360 359//359
f 301//301 320//320 302//302
f 319//319 302//302 320//320
f 301//301 300//300 321//321
f 321//321 320//320 301//301
f 356//356 303//303 357//357
f 303//303 319//319 358//358
f 303//303 358//358 357//357
f 355//355 304//304 303//303
f 302//302 319//319 303//303
f 298//298 323//323 299//299
f 322//322 299//299 323//323
f 325//325 324//324 298//298
f 323//323 298//298 324//324
f 299//299 322//322 321//321
f 326//326 325//325 297//297
f 297//297 325//325 298//298
f 321//321 300//300 299//299
f 327//327 326//326 297//297
f 306//306 355//355 354//354
f 303//303 356//356 355//355
f 306//306 305//305 355//355
f 305//305 304//304 355//355
f 308//308 307//307 306//306
f 306//306 310//310 309//309
f 308//308 306//306 309//309
f 354//354 310//310 306//306
f 353//353 310//310 354//354
f 310//310 353//353 352//352
f 350//350 310//310 351//351
f 351//351 310//310 352//352
f 311//311 349//349 348//348
f 346//346 311//311 347//347
f 348//348 347//347 311//311
f 312//312 346//346 345//345
f 349//349 310//310 350//350
f 310//310 349//349 311//311
f 311//311 346//346 312//312
f 369//369 296//296 370//370
f 370//370 296//296 371//371
f 265//265 371//371 296//296
f 369//369 297//297 296//296
f 372//372 265//265 264//264
f 329//329 297//297 330//330
f 333//333 297//297 369//369
f 331//331 330//330 297//297
f 335//335 369//369 368//368
f 328//328 297//297 329//329
f 328//328 327//327 297//297
f 316//316 361//361 360//360
f 361//361 316//316 315//315
f 315//315 362//362 361//361
f 373//373 372//372 264//264
f 362//362 315//315 363//363
f 314//314 363//363 315//315
f 336//336 368//368 367//367
f 372//372 371//371 265//265
f 297//297 332//332 331//331
f 333//333 369//369 334//334
f 312//312 339//339 338//338
f 312//312 344//344 343//343
f 312//312 342//342 341//341
f 312//312 341//341 340//340
f 342//342 312//312 343//343
f 312//312 340//340 339//339
f 335//335 368//368 336//336
f 366//366 365//365 314//314
f 314//314 365//365 364//364
f 367//367 337//337 336//336
f 369//369 335//335 334//334
f 367//367 366//366 314//314
f 313//313 312//312 314//314
f 337//337 314//314 312//312
f 312//312 338//338 337//337
f 314//314 337//337 367//367
f 363//363 314//314 364//364
f 312//312 345//345 344//344
f 333//333 332//332 297//297
f 431//431 553//553 429//429
f 430//430 429//429 553//553
f 410//410 549//549 431//431
f 553//553 431//431 549//549
f 551//551 423//423 552//552
f 554//554 552//552 423//423
f 408//408 550//550 549//549
f 433//433 431//431 434//434
f 432//432 431//431 433//433
f 431//431 432//432 410//410
f 408//408 407//407 551//551
f 436//436 551//551 407//407
f 408//408 549//549 409//409
f 435//435 551//551 436//436
f 409//409 549//549 410//410
f 550//550 408//408 551//551
f 423//423 555//555 554//554
f 424//424 435//435 438//438
f 551//551 435//435 423//423
f 438//438 437//437 424//424
f 423//423 435//435 424//424
f 537//537 425//425 424//424
f 424//424 538//538 537//537
f 538//538 424//424 437//437
f 425//425 537//537 536//536
f 536//536 535//535 425//425
f 439//439 538//538 437//437
f 540//540 539//539 412//412
f 539//539 439//439 412//412
f 412//412 541//541 540//540
f 412//412 542//542 541//541
f 425//425 534//534 533//533
f 533//533 548//548 528//528
f 534//534 425//425 535//535
f 539//539 538//538 439//439
f 527//527 425//425 533//533
f 412//412 411//411 542//542
f 414//414 415//415 416//416
f 414//414 416//416 417//417
f 417//417 421//421 420//420
f 417//417 420//420 414//414
f 413//413 544//544 543//543
f 546//546 545//545 413//413
f 544//544 413//413 545//545
f 414//414 546//546 413//413
f 411//411 413//413 543//543
f 543//543 542//542 411//411
f 417//417 418//418 421//421
f 419//419 440//440 418//418
f 440//440 444//444 443//443
f 440//440 442//442 441//441
f 418//418 440//440 441//441
f 443//443 442//442 440//440
f 445//445 418//418 441//441
f 422//422 418//418 445//445
f 546//546 414//414 420//420
f 546//546 531//531 530//530
f 529//529 547//547 530//530
f 546//546 420//420 531//531
f 532//532 531//531 420//420
f 527//527 533//533 528//528
f 548//548 547//547 529//529
f 426//426 526//526 513//513
f 528//528 548//548 529//529
f 527//527 526//526 425//425
f 422//422 421//421 418//418
f 450//450 523//523 420//420
f 446//446 422//422 447//447
f 447//447 422//422 448//448
f 448//448 422//422 445//445
f 523//523 450//450 524//524
f 523//523 522//522 420//420
f 522//522 532//532 420//420
f 426//426 513//513 512//512
f 547//547 546//546 530//530
f 425//425 526//526 426//426
f 449//449 525//525 450//450
f 427//427 426//426 511//511
f 426//426 512//512 511//511
f 509//509 427//427 510//510
f 511//511 510//510 427//427
f 517//517 516//516 476//476
f 509//509 428//428 427//427
f 514//514 525//525 449//449
f 449//449 452//452 514//514
f 515//515 514//514 452//452
f 515//515 452//452 451//451
f 451//451 516//516 515//515
f 451//451 481//481 480//480
f 451//451 478//478 516//516
f 482//482 451//451 483//483
f 481//481 451//451 482//482
f 480//480 479//479 451//451
f 484//484 483//483 451//451
f 428//428 521//521 520//520
f 428//428 519//519 518//518
f 519//519 428//428 520//520
f 466//466 468//468 428//428
f 518//518 487//487 486//486
f 428//428 486//486 496//496
f 466//466 428//428 496//496
f 428//428 518//518 486//486
f 428//428 509//509 521//521
f 517//517 476//476 487//487
f 476//476 516//516 477//477
f 478//478 451//451 479//479
f 477//477 516//516 478//478
f 466//466 495//495 494//494
f 466//466 493//493 492//492
f 466//466 492//492 491//491
f 493//493 466//466 494//494
f 495//495 466//466 496//496
f 491//491 490//490 466//466
f 518//518 517//517 487//487
f 475//475 474//474 454//454
f 474//474 451//451 454//454
f 475//475 454//454 472//472
f 453//453 472//472 454//454
f 485//485 451//451 474//474
f 453//453 469//469 473//473
f 453//453 473//473 472//472
f 485//485 484//484 451//451
f 456//456 469//469 453//453
f 455//455 469//469 456//456
f 471//471 458//458 457//457
f 455//455 458//458 470//470
f 470//470 458//458 471//471
f 455//455 470//470 469//469
f 501//501 457//457 502//502
f 504//504 457//457 460//460
f 503//503 502//502 457//457
f 503//503 457//457 504//504
f 471//471 457//457 501//501
f 489//489 466//466 490//490
f 497//497 508//508 462//462
f 467//467 488//488 500//500
f 467//467 499//499 498//498
f 500//500 499//499 467//467
f 462//462 498//498 497//497
f 488//488 466//466 489//489
f 466//466 488//488 467//467
f 498//498 462//462 467//467
f 506//506 505//505 462//462
f 461//461 504//504 459//459
f 504//504 461//461 505//505
f 460//460 459//459 504//504
f 462//462 507//507 506//506
f 464//464 463//463 462//462
f 505//505 461//461 465//465
f 464//464 462//462 465//465
f 462//462 505//505 465//465
f 462//462 508//508 507//507
f 524//524 450//450 525//525
f 567//567 565//565 564//564
f 567//567 564//564 566//566
f 565//565 569//569 568//568
f 565//565 568//568 564//564
f 564//564 568//568 574//574
f 564//564 574//574 573//573
f 566//566 564//564 573//573
f 566//566 573//573 575//575
f 574//574 556//556 570//570
f 570//570 571//571 573//573
f 570//570 573//573 574//574
f 561//561 556//556 574//574
f 561//561 574//574 568//568
f 569//569 560//560 561//561
f 563//563 569//569 565//565
f 560//560 569//569 563//563
f 561//561 568//568 569//569
f 575//575 573//573 571//571
f 575//575 571//571 572//572
f 559//559 566//566 575//575
f 572//572 558//558 575//575
f 558//558 559//559 575//575
f 562//562 563//563 565//565
f 562//562 565//565 567//567
f 557//557 567//567 559//559
f 562//562 567//567 557//557
f 567//567 566//566 559//559
f 577//577 588//588 590//590
f 577//577 590//590 582//582
f 584//584 589//589 588//588
f 584//584 588//588 577//577
f 581//581 577//577 582//582
f 581//581 582//582 583//583
f 585//585 584//584 577//577
f 585//585 577//577 581//581
f 587//587 576//576 590//590
f 591//591 590//590 576//576
f 590//590 591//591 582//582
f 592//592 582//582 591//591
f 586//586 587//587 588//588
f 586//586 588//588 589//589
f 584//584 594//594 589//589
f 586//586 589//589 594//594
f 588//588 587//587 590//590
f 579//579 583//583 592//592
f 583//583 579//579 580//580
f 581//581 583//583 580//580
f 593//593 594//594 584//584
f 593//593 584//584 585//585
f 581//581 580//580 585//585
f 578//578 585//585 580//580
f 593//593 585//585 578//578
f 592//592 583//583 582//582
f 612//612 611//611 603//603
f 612//612 603//603 607//607
f 611//611 613//613 605//605
f 611//611 605//605 603//603
f 603//603 605//605 606//606
f 603//603 606//606 604//604
f 607//607 603//603 604//604
f 607//607 604//604 608//608
f 600//600 595//595 606//606
f 601//601 606//606 595//595
f 606//606 601//601 604//604
f 602//602 604//604 601//601
f 613//613 599//599 600//600
f 611//611 610//610 613//613
f 599//599 613//613 610//610
f 600//600 605//605 613//613
f 605//605 600//600 606//606
f 597//597 608//608 602//602
f 608//608 597//597 598//598
f 607//607 608//608 598//598
f 609//609 610//610 611//611
f 609//609 611//611 612//612
f 607//607 598//598 612//612
f 596//596 612//612 598//598
f 609//609 612//612 596//596
f 602//602 608//608 604//604
f 616//616 695//695 698//698
f 616//616 698//698 636//636
f 636//636 698//698 697//697
f 636//636 697//697 615//615
f 617//617 693//693 696//696
f 617//617 696//696 640//640
f 640//640 696//696 695//695
f 640//640 695//695 616//616
f 618//618 691//691 694//694
f 618//618 694//694 643//643
f 643//643 694//694 693//693
f 643//643 693//693 617//617
f 619//619 689//689 692//692
f 619//619 692//692 646//646
f 646//646 692//692 691//691
f 646//646 691//691 618//618
f 620//620 687//687 690//690
f 620//620 690//690 649//649
f 649//649 690//690 689//689
f 649//649 689//689 619//619
f 621//621 686//686 688//688
f 621//621 688//688 652//652
f 652//652 688//688 687//687
f 652//652 687//687 620//620
f 623//623 676//676 685//685
f 623//623 685//685 655//655
f 655//655 685//685 684//684
f 655//655 684//684 622//622
f 678//678 680//680 679//679
f 678//678 679//679 677//677
f 677//677 679//679 683//683
f 677//677 683//683 681//681
f 681//681 683//683 682//682
f 681//681 682//682 676//676
f 681//681 676//676 623//623
f 658//658 677//677 681//681
f 623//623 658//658 681//681
f 635//635 616//616 636//636
f 635//635 636//636 638//638
f 638//638 636//636 615//615
f 638//638 615//615 637//637
f 639//639 617//617 640//640
f 639//639 640//640 641//641
f 641//641 640//640 616//616
f 641//641 616//616 635//635
f 642//642 618//618 643//643
f 642//642 643//643 644//644
f 644//644 643//643 617//617
f 644//644 617//617 639//639
f 645//645 619//619 646//646
f 645//645 646//646 647//647
f 647//647 646//646 618//618
f 647//647 618//618 642//642
f 648//648 620//620 649//649
f 648//648 649//649 650//650
f 650//650 649//649 619//619
f 650//650 619//619 645//645
f 651//651 621//621 652//652
f 651//651 652//652 653//653
f 653//653 652//652 620//620
f 653//653 620//620 648//648
f 654//654 623//623 655//655
f 654//654 655//655 657//657
f 657//657 655//655 622//622
f 657//657 622//622 656//656
f 665//665 664//664 659//659
f 665//665 659//659 660//660
f 661//661 659//659 658//658
f 623//623 654//654 661//661
f 658//658 623//623 661//661
f 660//660 659//659 661//661
f 660//660 661//661 663//663
f 663//663 661//661 654//654
f 663//663 654//654 662//662
f 697//697 675//675 614//614
f 675//675 697//697 698//698
f 697//697 614//614 699//699
f 695//695 675//675 698//698
f 673//673 674//674 693//693
f 673//673 693//693 694//694
f 671//671 672//672 689//689
f 671//671 689//689 690//690
f 672//672 673//673 691//691
f 672//672 691//691 692//692
f 695//695 696//696 675//675
f 675//675 696//696 674//674
f 674//674 696//696 693//693
f 699//699 700//700 615//615
f 699//699 615//615 697//697
f 673//673 694//694 691//691
f 672//672 692//692 689//689
f 687//687 671//671 690//690
f 685//685 682//682 669//669
f 683//683 668//668 682//682
f 669//669 682//682 668//668
f 669//669 670//670 686//686
f 669//669 686//686 684//684
f 680//680 666//666 667//667
f 667//667 683//683 679//679
f 667//667 679//679 680//680
f 683//683 667//667 668//668
f 702//702 666//666 680//680
f 702//702 680//680 678//678
f 670//670 671//671 687//687
f 670//670 687//687 688//688
f 684//684 686//686 621//621
f 684//684 621//621 622//622
f 670//670 688//688 686//686
f 682//682 685//685 676//676
f 702//702 678//678 658//658
f 678//678 677//677 658//658
f 669//669 684//684 685//685
f 625//625 637//637 700//700
f 626//626 635//635 638//638
f 638//638 637//637 626//626
f 627//627 639//639 641//641
f 628//628 642//642 644//644
f 628//628 647//647 642//642
f 644//644 639//639 627//627
f 641//641 635//635 626//626
f 626//626 627//627 641//641
f 628//628 629//629 647//647
f 627//627 628//628 644//644
f 629//629 650//650 645//645
f 648//648 650//650 630//630
f 629//629 630//630 650//650
f 653//653 648//648 630//630
f 645//645 647//647 629//629
f 625//625 626//626 637//637
f 622//622 621//621 651//651
f 622//622 651//651 656//656
f 656//656 651//651 631//631
f 656//656 631//631 632//632
f 651//651 653//653 631//631
f 702//702 658//658 701//701
f 658//658 664//664 701//701
f 662//662 654//654 657//657
f 659//659 664//664 658//658
f 657//657 656//656 632//632
f 633//633 663//663 662//662
f 657//657 632//632 662//662
f 662//662 632//632 633//633
f 633//633 634//634 660//660
f 633//633 660//660 663//663
f 624//624 665//665 634//634
f 660//660 634//634 665//665
f 624//624 701//701 664//664
f 624//624 664//664 665//665
f 631//631 653//653 630//630
f 637//637 615//615 700//700
f 707//707 703//703 708//708
f 704//704 707//707 712//712
f 707//707 711//711 712//712
f 706//706 707//707 708//708
f 706//706 709//709 705//705
f 710//710 711//711 706//706
f 706//706 711//711 707//707
f 709//709 706//706 708//708
f 782//782 781//781 732//732
f 714//714 779//779 782//782
f 732//732 714//714 782//782
f 779//779 783//783 785//785
f 779//779 785//785 782//782
f 782//782 785//785 784//784
f 782//782 784//784 781//781
f 781//781 784//784 787//787
f 781//781 787//787 786//786
f 715//715 777//777 780//780
f 715//715 780//780 741//741
f 741//741 780//780 779//779
f 741//741 779//779 714//714
f 716//716 775//775 778//778
f 716//716 778//778 744//744
f 744//744 778//778 777//777
f 744//744 777//777 715//715
f 717//717 774//774 776//776
f 717//717 776//776 747//747
f 747//747 776//776 775//775
f 747//747 775//775 716//716
f 719//719 770//770 773//773
f 719//719 773//773 750//750
f 750//750 773//773 772//772
f 750//750 772//772 718//718
f 720//720 768//768 771//771
f 720//720 771//771 754//754
f 754//754 771//771 770//770
f 754//754 770//770 719//719
f 721//721 767//767 769//769
f 721//721 769//769 757//757
f 757//757 769//769 768//768
f 757//757 768//768 720//720
f 737//737 731//731 738//738
f 737//737 738//738 739//739
f 739//739 738//738 733//733
f 739//739 733//733 734//734
f 738//738 731//731 714//714
f 732//732 733//733 738//738
f 714//714 732//732 738//738
f 734//734 733//733 735//735
f 734//734 735//735 736//736
f 740//740 715//715 741//741
f 740//740 741//741 742//742
f 742//742 741//741 714//714
f 742//742 714//714 731//731
f 743//743 716//716 744//744
f 743//743 744//744 745//745
f 745//745 744//744 715//715
f 745//745 715//715 740//740
f 746//746 717//717 747//747
f 746//746 747//747 748//748
f 748//748 747//747 716//716
f 748//748 716//716 743//743
f 749//749 719//719 750//750
f 749//749 750//750 752//752
f 752//752 750//750 718//718
f 752//752 718//718 751//751
f 753//753 720//720 754//754
f 753//753 754//754 755//755
f 755//755 754//754 719//719
f 755//755 719//719 749//749
f 756//756 721//721 757//757
f 756//756 757//757 758//758
f 758//758 757//757 720//720
f 758//758 720//720 753//753
f 787//787 766//766 788//788
f 766//766 787//787 784//784
f 788//788 789//789 786//786
f 788//788 786//786 787//787
f 765//765 766//766 784//784
f 765//765 784//784 785//785
f 765//765 783//783 764//764
f 765//765 785//785 783//783
f 763//763 764//764 777//777
f 763//763 777//777 778//778
f 732//732 781//781 786//786
f 786//786 789//789 732//732
f 790//790 732//732 789//789
f 780//780 783//783 779//779
f 780//780 777//777 764//764
f 780//780 764//764 783//783
f 775//775 763//763 778//778
f 762//762 763//763 775//775
f 762//762 775//775 776//776
f 762//762 776//776 774//774
f 761//761 762//762 774//774
f 761//761 774//774 772//772
f 760//760 761//761 773//773
f 760//760 773//773 770//770
f 759//759 767//767 713//713
f 759//759 760//760 771//771
f 759//759 771//771 768//768
f 761//761 772//772 773//773
f 772//772 774//774 717//717
f 772//772 717//717 718//718
f 793//793 767//767 721//721
f 713//713 767//767 793//793
f 759//759 769//769 767//767
f 759//759 768//768 769//769
f 760//760 770//770 771//771
f 732//732 735//735 733//733
f 736//736 735//735 790//790
f 725//725 740//740 742//742
f 726//726 743//743 745//745
f 745//745 740//740 726//726
f 742//742 731//731 737//737
f 723//723 734//734 736//736
f 736//736 722//722 723//723
f 722//722 736//736 790//790
f 723//723 724//724 739//739
f 723//723 739//739 734//734
f 724//724 737//737 739//739
f 737//737 724//724 725//725
f 725//725 726//726 740//740
f 737//737 725//725 742//742
f 748//748 743//743 726//726
f 718//718 717//717 746//746
f 718//718 746//746 751//751
f 751//751 746//746 727//727
f 751//751 727//727 728//728
f 746//746 748//748 727//727
f 793//793 721//721 792//792
f 721//721 756//756 792//792
f 728//728 749//749 752//752
f 752//752 751//751 728//728
f 749//749 728//728 729//729
f 749//749 729//729 755//755
f 753//753 755//755 729//729
f 730//730 758//758 753//753
f 791//791 756//756 730//730
f 758//758 730//730 756//756
f 792//792 756//756 791//791
f 730//730 753//753 729//729
f 727//727 748//748 726//726
f 735//735 732//732 790//790
f 805//805 807//807 808//808
f 805//805 808//808 806//806
f 809//809 805//805 806//806
f 809//809 806//806 810//810
f 818//818 816//816 815//815
f 818//818 815//815 817//817
f 816//816 820//820 819//819
f 816//816 819//819 815//815
f 801//801 802//802 808//808
f 801//801 808//808 807//807
f 803//803 808//808 802//802
f 803//803 806//806 808//808
f 803//803 804//804 810//810
f 803//803 810//810 806//806
f 807//807 805//805 800//800
f 800//800 801//801 807//807
f 819//819 799//799 800//800
f 820//820 794//794 799//799
f 794//794 820//820 814//814
f 820//820 816//816 813//813
f 820//820 813//813 814//814
f 819//819 820//820 799//799
f 815//815 819//819 800//800
f 795//795 810//810 804//804
f 809//809 810//810 796//796
f 795//795 796//796 810//810
f 809//809 796//796 797//797
f 805//805 809//809 797//797
f 800//800 797//797 815//815
f 816//816 818//818 812//812
f 816//816 812//812 813//813
f 818//818 817//817 798//798
f 797//797 798//798 817//817
f 812//812 818//818 811//811
f 798//798 811//811 818//818
f 817//817 815//815 797//797
f 805//805 797//797 800//800
f 825//825 886//886 890//890
f 825//825 890//890 888//888
f 888//888 890//890 889//889
f 888//888 889//889 824//824
f 826//826 883//883 887//887
f 826//826 887//887 885//885
f 885//885 887//887 886//886
f 885//885 886//886 825//825
f 827//827 880//880 884//884
f 827//827 884//884 882//882
f 882//882 884//884 883//883
f 882//882 883//883 826//826
f 828//828 877//877 881//881
f 828//828 881//881 879//879
f 879//879 881//881 880//880
f 879//879 880//880 827//827
f 829//829 874//874 878//878
f 829//829 878//878 876//876
f 876//876 878//878 877//877
f 876//876 877//877 828//828
f 873//873 875//875 874//874
f 873//873 874//874 829//829
f 831//831 823//823 822//822
f 831//831 822//822 830//830
f 832//832 824//824 823//823
f 832//832 823//823 831//831
f 848//848 833//833 825//825
f 848//848 825//825 888//888
f 888//888 824//824 832//832
f 888//888 832//832 848//848
f 852//852 834//834 826//826
f 852//852 826//826 885//885
f 885//885 825//825 833//833
f 885//885 833//833 852//852
f 855//855 835//835 827//827
f 855//855 827//827 882//882
f 882//882 826//826 834//834
f 882//882 834//834 855//855
f 858//858 836//836 828//828
f 858//858 828//828 879//879
f 879//879 827//827 835//835
f 879//879 835//835 858//858
f 861//861 837//837 829//829
f 861//861 829//829 876//876
f 876//876 828//828 836//836
f 876//876 836//836 861//861
f 847//847 833//833 848//848
f 847//847 848//848 850//850
f 850//850 848//848 832//832
f 850//850 832//832 849//849
f 851//851 834//834 852//852
f 851//851 852//852 853//853
f 853//853 852//852 833//833
f 853//853 833//833 847//847
f 854//854 835//835 855//855
f 854//854 855//855 856//856
f 856//856 855//855 834//834
f 856//856 834//834 851//851
f 857//857 836//836 858//858
f 857//857 858//858 859//859
f 859//859 858//858 835//835
f 859//859 835//835 854//854
f 860//860 837//837 861//861
f 860//860 861//861 862//862
f 862//862 861//861 836//836
f 862//862 836//836 857//857
f 864//864 863//863 837//837
f 864//864 837//837 860//860
f 871//871 872//872 822//822
f 871//871 822//822 823//823
f 823//823 889//889 871//871
f 869//869 870//870 886//886
f 869//869 886//886 887//887
f 870//870 889//889 890//890
f 889//889 870//870 871//871
f 890//890 886//886 870//870
f 892//892 872//872 891//891
f 893//893 822//822 892//892
f 823//823 824//824 889//889
f 868//868 869//869 883//883
f 868//868 883//883 884//884
f 869//869 887//887 883//883
f 822//822 872//872 892//892
f 867//867 868//868 880//880
f 867//867 880//880 881//881
f 884//884 880//880 868//868
f 865//865 866//866 878//878
f 865//865 878//878 874//874
f 881//881 877//877 866//866
f 881//881 866//866 867//867
f 821//821 865//865 875//875
f 866//866 877//877 878//878
f 821//821 875//875 898//898
f 873//873 898//898 875//875
f 898//898 873//873 897//897
f 873//873 863//863 896//896
f 873//873 896//896 897//897
f 865//865 874//874 875//875
f 873//873 829//829 837//837
f 873//873 837//837 863//863
f 830//830 893//893 894//894
f 831//831 830//830 839//839
f 831//831 839//839 840//840
f 849//849 832//832 831//831
f 841//841 850//850 849//849
f 840//840 849//849 831//831
f 839//839 830//830 894//894
f 850//850 841//841 847//847
f 840//840 841//841 849//849
f 842//842 853//853 847//847
f 842//842 843//843 856//856
f 842//842 856//856 851//851
f 853//853 842//842 851//851
f 842//842 847//847 841//841
f 838//838 839//839 894//894
f 843//843 854//854 856//856
f 844//844 859//859 854//854
f 864//864 896//896 863//863
f 857//857 859//859 844//844
f 857//857 844//844 845//845
f 843//843 844//844 854//854
f 857//857 845//845 862//862
f 845//845 846//846 860//860
f 845//845 860//860 862//862
f 846//846 864//864 860//860
f 864//864 846//846 895//895
f 896//896 864//864 895//895
f 893//893 830//830 822//822
f 917//917 919//919 920//920
f 917//917 920//920 918//918
f 921//921 917//917 918//918
f 921//921 918//918 922//922
f 912//912 910//910 909//909
f 912//912 909//909 911//911
f 910//910 914//914 913//913
f 910//910 913//913 909//909
f 906//906 915//915 920//920
f 916//916 918//918 920//920
f 919//919 906//906 920//920
f 905//905 919//919 917//917
f 916//916 920//920 915//915
f 905//905 906//906 919//919
f 913//913 904//904 905//905
f 899//899 904//904 913//913
f 899//899 913//913 914//914
f 908//908 914//914 910//910
f 899//899 914//914 908//908
f 909//909 913//913 905//905
f 917//917 909//909 905//905
f 900//900 922//922 916//916
f 901//901 921//921 922//922
f 921//921 902//902 917//917
f 922//922 900//900 901//901
f 921//921 901//901 902//902
f 917//917 902//902 909//909
f 902//902 911//911 909//909
f 907//907 912//912 903//903
f 911//911 903//903 912//912
f 907//907 908//908 910//910
f 907//907 910//910 912//912
f 903//903 911//911 902//902
f 922//922 918//918 916//916
f 937//937 938//938 925//925
f 937//937 925//925 926//926
f 935//935 936//936 927//927
f 935//935 927//927 928//928
f 934//934 935//935 928//928
f 934//934 928//928 929//929
f 936//936 937//937 926//926
f 936//936 926//926 927//927
f 932//932 933//933 930//930
f 932//932 930//930 931//931
f 923//923 932//932 942//942
f 932//932 931//931 942//942
f 933//933 934//934 929//929
f 933//933 929//929 930//930
f 940//940 938//938 939//939
f 925//925 940//940 924//924
f 931//931 941//941 942//942
f 940//940 925//925 938//938
f 954//954 956//956 957//957
f 954//954 957//957 955//955
f 958//958 954//954 955//955
f 958//958 955//955 959//959
f 964//964 962//962 961//961
f 964//964 961//961 963//963
f 962//962 966//966 965//965
f 962//962 965//965 961//961
f 952//952 943//943 957//957
f 952//952 957//957 956//956
f 953//953 957//957 943//943
f 959//959 955//955 953//953
f 953//953 955//955 957//957
f 951//951 956//956 954//954
f 951//951 952//952 956//956
f 965//965 950//950 951//951
f 949//949 950//950 966//966
f 965//965 966//966 950//950
f 960//960 949//949 966//966
f 960//960 966//966 962//962
f 965//965 951//951 961//961
f 954//954 947//947 951//951
f 954//954 958//958 947//947
f 946//946 958//958 959//959
f 961//961 951//951 947//947
f 959//959 945//945 946//946
f 958//958 946//946 947//947
f 945//945 959//959 953//953
f 963//963 961//961 947//947
f 964//964 960//960 962//962
f 944//944 964//964 948//948
f 963//963 948//948 964//964
f 960//960 964//964 944//944
f 948//948 963//963 947//947
f 985//985 984//984 967//967
f 982//982 983//983 971//971
f 982//982 971//971 972//972
f 983//983 984//984 970//970
f 983//983 970//970 971//971
f 981//981 982//982 972//972
f 981//981 972//972 973//973
f 980//980 981//981 973//973
f 980//980 973//973 974//974
f 978//978 979//979 975//975
f 978//978 975//975 976//976
f 978//978 986//986 977//977
f 979//979 980//980 974//974
f 979//979 974//974 975//975
f 970//970 984//984 985//985
f 978//978 976//976 986//986
f 986//986 976//976 968//968
f 969//969 970//970 985//985
f 1019//1019 1020//1020 989//989
f 1019//1019 989//989 991//991
f 1017//1017 1018//1018 992//992
f 1017//1017 992//992 993//993
f 1018//1018 1019//1019 991//991
f 1018//1018 991//991 992//992
f 1015//1015 1016//1016 990//990
f 1015//1015 990//990 994//994
f 1013//1013 1014//1014 995//995
f 1013//1013 995//995 996//996
f 1014//1014 1015//1015 994//994
f 1014//1014 994//994 995//995
f 1016//1016 1017//1017 993//993
f 1016//1016 993//993 990//990
f 1012//1012 987//987 997//997
f 1012//1012 997//997 998//998
f 1010//1010 1011//1011 999//999
f 1010//1010 999//999 1000//1000
f 1011//1011 1012//1012 998//998
f 1011//1011 998//998 999//999
f 1008//1008 1009//1009 1001//1001
f 1008//1008 1001//1001 1002//1002
f 1006//1006 1007//1007 1003//1003
f 1006//1006 1003//1003 1004//1004
f 988//988 1006//1006 1004//1004
f 988//988 1004//1004 1005//1005
f 1007//1007 1008//1008 1002//1002
f 1007//1007 1002//1002 1003//1003
f 1009//1009 1010//1010 1000//1000
f 1009//1009 1000//1000 1001//1001
f 987//987 1013//1013 996//996
f 987//987 996//996 997//997
f 1024//1024 1023//1023 1027//1027
f 1025//1025 1027//1027 1026//1026
f 1024//1024 1025//1025 1022//1022
f 1024//1024 1022//1022 1021//1021
f 1027//1027 1025//1025 1024//1024
f 1031//1031 1029//1029 1028//1028
f 1031//1031 1028//1028 1030//1030
f 1036//1036 1033//1033 1032//1032
f 1035//1035 1036//1036 1034//1034
f 1032//1032 1034//1034 1036//1036
f 1038//1038 1037//1037 1040//1040
f 1038//1038 1040//1040 1041//1041
f 1038//1038 1041//1041 1039//1039
