# arm_33 exported from /models/landings/arm_33.glb
# units: meters
v -0.005247 0.001000 -0.019376
v -0.002198 0.001000 -0.020343
v -0.002198 0.001000 -0.016814
v -0.002198 0.001000 -0.015699
v -0.004248 0.001000 -0.020343
v -0.005168 0.001000 -0.019735
v -0.006852 0.001000 -0.012038
v -0.000198 0.001000 -0.015699
v 0.000302 0.001000 0.000574
v -0.010951 0.001000 -0.005783
v -0.017907 0.001000 -0.000992
v -0.006477 0.001000 0.001818
v -0.012797 0.001000 0.005779
v -0.017133 0.001000 0.011898
v -0.026198 0.001000 0.000617
v -0.026198 0.001000 0.018657
v -0.023198 0.001000 0.014657
v -0.023198 0.001000 0.019657
v -0.021198 0.001000 0.014657
v -0.018758 0.001000 0.018706
v -0.021198 0.001000 0.019657
v -0.019756 0.001000 0.019657
v -0.018842 0.001000 0.019061
v -0.019067 0.001000 0.019381
v -0.019398 0.001000 0.019590
v -0.025198 0.001000 0.019657
v -0.026128 0.001000 0.019025
v -0.025906 0.001000 0.019364
v -0.025567 0.001000 0.019586
v 0.014458 0.001000 -0.005601
v 0.007080 0.001000 0.001818
v 0.004802 0.001000 -0.015699
v 0.006802 0.001000 -0.015699
v 0.004802 0.001000 -0.016814
v -0.000198 0.001000 -0.016814
v 0.004802 0.001000 -0.020343
v -0.000198 0.001000 -0.020343
v 0.006802 0.001000 -0.016814
v 0.009854 0.001000 -0.019410
v 0.009766 0.001000 -0.019759
v 0.008857 0.001000 -0.020343
v 0.006802 0.001000 -0.020343
v 0.009540 0.001000 -0.020074
v 0.009211 0.001000 -0.020278
v 0.013400 0.001000 0.005779
v 0.026499 0.001000 0.009215
v 0.017736 0.001000 0.011898
v 0.021802 0.001000 0.014657
v 0.019361 0.001000 0.018706
v 0.026802 0.001000 0.009932
v 0.026802 0.001000 0.018657
v 0.026723 0.001000 0.009543
v 0.023802 0.001000 0.014657
v 0.023802 0.001000 0.019657
v 0.025802 0.001000 0.019657
v 0.026731 0.001000 0.019025
v 0.026509 0.001000 0.019364
v 0.026170 0.001000 0.019586
v 0.019445 0.001000 0.019061
v 0.020359 0.001000 0.019657
v 0.021802 0.001000 0.019657
v 0.019670 0.001000 0.019381
v 0.020002 0.001000 0.019590
v -0.004943 0.001000 -0.020062
v -0.004609 0.001000 -0.020276
v -0.026198 0.001000 0.000617
v -0.026198 0.001000 0.018657
v -0.026198 -0.001000 0.000617
v -0.026198 -0.001000 0.018657
v 0.009854 -0.001000 -0.019410
v 0.011227 -0.001000 -0.012632
v 0.010171 -0.000500 -0.016779
v 0.009854 0.000000 -0.019410
v 0.010171 0.000000 -0.016779
v 0.010171 0.000500 -0.016779
v 0.009854 0.001000 -0.019410
v 0.011227 0.001000 -0.012632
v 0.010775 0.000000 -0.014109
v 0.014458 0.001000 -0.005601
v 0.010775 0.000500 -0.014109
v 0.016771 0.001000 -0.001992
v 0.014458 -0.001000 -0.005601
v 0.016771 -0.001000 -0.001992
v 0.019549 -0.001000 0.001681
v 0.022391 0.000000 0.004980
v 0.019549 0.001000 0.001681
v 0.022391 0.000500 0.004980
v 0.024373 0.000000 0.007087
v 0.022391 -0.000500 0.004980
v 0.024373 -0.000500 0.007087
v 0.022791 -0.001000 0.005416
v 0.026499 -0.001000 0.009215
v 0.026499 0.000000 0.009215
v 0.026499 0.001000 0.009215
v 0.024373 0.000500 0.007087
v 0.022791 0.001000 0.005416
v 0.010775 -0.000500 -0.014109
v 0.008857 -0.001000 -0.020343
v 0.009211 -0.001000 -0.020278
v 0.008857 0.001000 -0.020343
v 0.009211 0.001000 -0.020278
v 0.009540 0.001000 -0.020074
v 0.009540 -0.001000 -0.020074
v 0.009766 0.001000 -0.019759
v 0.009854 0.000000 -0.019410
v 0.009766 -0.001000 -0.019759
v 0.009854 0.001000 -0.019410
v 0.009854 -0.001000 -0.019410
v 0.025802 0.001000 0.019657
v 0.026170 0.001000 0.019586
v 0.025802 -0.001000 0.019657
v 0.026170 -0.001000 0.019586
v 0.026509 -0.001000 0.019364
v 0.026509 0.001000 0.019364
v 0.026731 -0.001000 0.019025
v 0.026802 -0.001000 0.018657
v 0.026731 0.001000 0.019025
v 0.026802 0.001000 0.018657
v 0.026802 0.001000 0.018657
v 0.026802 0.001000 0.009932
v 0.026802 -0.001000 0.018657
v 0.026802 -0.001000 0.009932
v 0.026802 0.001000 0.009932
v 0.026723 0.001000 0.009543
v 0.026802 -0.001000 0.009932
v 0.026723 -0.001000 0.009543
v 0.026499 -0.001000 0.009215
v 0.026499 0.000000 0.009215
v 0.026499 0.001000 0.009215
v -0.025198 -0.001000 0.019657
v -0.025198 0.001000 0.019657
v -0.023198 -0.001000 0.019657
v -0.023198 0.001000 0.019657
v -0.025198 -0.001000 0.019657
v -0.025567 -0.001000 0.019586
v -0.025198 0.001000 0.019657
v -0.025567 0.001000 0.019586
v -0.025906 0.001000 0.019364
v -0.026128 0.001000 0.019025
v -0.025906 -0.001000 0.019364
v -0.026128 -0.001000 0.019025
v -0.026198 -0.001000 0.018657
v -0.026198 0.001000 0.018657
v 0.004802 -0.001000 -0.015699
v 0.004802 0.001000 -0.015699
v 0.004802 -0.001000 -0.016814
v 0.004802 -0.001000 -0.020343
v 0.004802 0.001000 -0.016814
v 0.004802 0.001000 -0.020343
v 0.008857 -0.001000 -0.020343
v 0.008857 0.001000 -0.020343
v 0.006802 -0.001000 -0.020343
v 0.006802 0.001000 -0.020343
v 0.006802 -0.001000 -0.015699
v 0.006802 0.001000 -0.015699
v 0.006802 -0.001000 -0.016814
v 0.006802 0.001000 -0.016814
v 0.006802 -0.001000 -0.020343
v 0.006802 0.001000 -0.020343
v 0.006802 -0.001000 -0.015699
v 0.006802 0.001000 -0.015699
v 0.004802 -0.001000 -0.015699
v 0.004802 0.001000 -0.015699
v -0.002198 -0.001000 -0.015699
v -0.002198 0.001000 -0.015699
v -0.002198 -0.001000 -0.016814
v -0.002198 -0.001000 -0.020343
v -0.002198 0.001000 -0.016814
v -0.002198 0.001000 -0.020343
v 0.004802 -0.001000 -0.020343
v 0.004802 0.001000 -0.020343
v -0.000198 -0.001000 -0.020343
v -0.000198 0.001000 -0.020343
v -0.000198 0.001000 -0.020343
v -0.000198 -0.001000 -0.020343
v -0.000198 0.001000 -0.016814
v -0.000198 0.001000 -0.015699
v -0.000198 -0.001000 -0.016814
v -0.000198 -0.001000 -0.015699
v -0.000198 -0.001000 -0.015699
v -0.000198 0.001000 -0.015699
v -0.002198 -0.001000 -0.015699
v -0.002198 0.001000 -0.015699
v 0.021802 -0.001000 0.014657
v 0.021802 -0.001000 0.019657
v 0.021802 0.001000 0.014657
v 0.021802 0.001000 0.019657
v 0.023802 0.001000 0.019657
v 0.025802 0.001000 0.019657
v 0.023802 -0.001000 0.019657
v 0.025802 -0.001000 0.019657
v 0.023802 -0.001000 0.014657
v 0.023802 -0.001000 0.019657
v 0.023802 0.001000 0.014657
v 0.023802 0.001000 0.019657
v 0.023802 -0.001000 0.014657
v 0.021802 -0.001000 0.014657
v 0.023802 0.001000 0.014657
v 0.021802 0.001000 0.014657
v -0.021198 -0.001000 0.014657
v -0.023198 -0.001000 0.014657
v -0.021198 0.001000 0.014657
v -0.023198 0.001000 0.014657
v -0.023198 -0.001000 0.014657
v -0.023198 0.001000 0.014657
v -0.023198 -0.001000 0.019657
v -0.023198 0.001000 0.019657
v -0.021198 0.001000 0.014657
v -0.021198 0.001000 0.019657
v -0.021198 -0.001000 0.014657
v -0.021198 -0.001000 0.019657
v -0.004248 0.001000 -0.020343
v -0.004248 -0.001000 -0.020343
v -0.002198 0.001000 -0.020343
v -0.002198 -0.001000 -0.020343
v -0.019756 0.001000 0.019657
v -0.021198 0.001000 0.019657
v -0.019756 -0.001000 0.019657
v -0.021198 -0.001000 0.019657
v 0.020359 -0.001000 0.019657
v 0.020359 0.001000 0.019657
v 0.021802 -0.001000 0.019657
v 0.021802 0.001000 0.019657
v -0.018758 0.001000 0.018706
v -0.018758 0.000000 0.018706
v -0.018281 0.001000 0.015317
v -0.017133 0.001000 0.011898
v -0.018281 -0.001000 0.015317
v -0.017133 -0.001000 0.011898
v -0.018758 -0.001000 0.018706
v -0.015287 -0.001000 0.008649
v -0.015287 0.001000 0.008649
v -0.012797 -0.001000 0.005779
v -0.009796 -0.001000 0.003464
v -0.012797 0.001000 0.005779
v -0.009796 0.001000 0.003464
v -0.006477 0.001000 0.001818
v -0.003047 0.001000 0.000870
v -0.006477 -0.001000 0.001818
v -0.003047 -0.001000 0.000870
v 0.000302 -0.001000 0.000574
v 0.003650 -0.001000 0.000870
v 0.000302 0.001000 0.000574
v 0.003650 0.001000 0.000870
v 0.007080 0.001000 0.001818
v 0.007080 -0.001000 0.001818
v 0.010400 0.001000 0.003464
v 0.013400 0.001000 0.005779
v 0.010400 -0.001000 0.003464
v 0.013400 -0.001000 0.005779
v 0.015890 -0.001000 0.008649
v 0.017736 -0.001000 0.011898
v 0.015890 0.001000 0.008649
v 0.017736 0.001000 0.011898
v 0.018884 0.001000 0.015317
v 0.019361 0.000000 0.018706
v 0.019361 0.001000 0.018706
v 0.018884 -0.001000 0.015317
v 0.019361 -0.001000 0.018706
v -0.010951 -0.001000 -0.005783
v -0.010951 0.001000 -0.005783
v -0.014144 -0.001000 -0.003054
v -0.014144 0.001000 -0.003054
v -0.017907 -0.001000 -0.000992
v -0.017907 0.001000 -0.000992
v -0.022014 -0.001000 0.000249
v -0.022014 0.001000 0.000249
v -0.026198 -0.001000 0.000617
v -0.026198 0.001000 0.000617
v -0.010951 -0.001000 -0.005783
v -0.008636 -0.001000 -0.008694
v -0.010951 0.001000 -0.005783
v -0.008636 0.001000 -0.008694
v -0.006852 0.001000 -0.012038
v -0.005708 0.001000 -0.015661
v -0.006852 -0.001000 -0.012038
v -0.005708 -0.001000 -0.015661
v -0.005247 -0.001000 -0.019376
v -0.005247 0.000000 -0.019376
v -0.005247 0.001000 -0.019376
v -0.019756 -0.001000 0.019657
v -0.019398 -0.001000 0.019590
v -0.019756 0.001000 0.019657
v -0.019398 0.001000 0.019590
v -0.019067 0.001000 0.019381
v -0.019067 -0.001000 0.019381
v -0.018842 0.001000 0.019061
v -0.018842 -0.001000 0.019061
v -0.018758 0.001000 0.018706
v -0.018758 0.000000 0.018706
v -0.018758 -0.001000 0.018706
v 0.020359 0.001000 0.019657
v 0.020002 0.001000 0.019590
v 0.020359 -0.001000 0.019657
v 0.020002 -0.001000 0.019590
v 0.019670 -0.001000 0.019381
v 0.019670 0.001000 0.019381
v 0.019445 -0.001000 0.019061
v 0.019361 -0.001000 0.018706
v 0.019361 0.000000 0.018706
v 0.019445 0.001000 0.019061
v 0.019361 0.001000 0.018706
v -0.004248 -0.001000 -0.020343
v -0.004609 -0.001000 -0.020276
v -0.004248 0.001000 -0.020343
v -0.004609 0.001000 -0.020276
v -0.004943 0.001000 -0.020062
v -0.005168 0.001000 -0.019735
v -0.004943 -0.001000 -0.020062
v -0.005168 -0.001000 -0.019735
v -0.005247 -0.001000 -0.019376
v -0.005247 0.000000 -0.019376
v -0.005247 0.001000 -0.019376
v -0.005247 -0.001000 -0.019376
v -0.002198 -0.001000 -0.020343
v -0.002198 -0.001000 -0.016814
v -0.002198 -0.001000 -0.015699
v -0.004248 -0.001000 -0.020343
v -0.005168 -0.001000 -0.019735
v -0.006852 -0.001000 -0.012038
v -0.000198 -0.001000 -0.015699
v 0.000302 -0.001000 0.000574
v -0.010951 -0.001000 -0.005783
v -0.017907 -0.001000 -0.000992
v -0.006477 -0.001000 0.001818
v -0.012797 -0.001000 0.005779
v -0.017133 -0.001000 0.011898
v -0.026198 -0.001000 0.000617
v -0.026198 -0.001000 0.018657
v -0.023198 -0.001000 0.014657
v -0.023198 -0.001000 0.019657
v -0.021198 -0.001000 0.014657
v -0.018758 -0.001000 0.018706
v -0.021198 -0.001000 0.019657
v -0.019756 -0.001000 0.019657
v -0.019067 -0.001000 0.019381
v -0.018842 -0.001000 0.019061
v -0.019398 -0.001000 0.019590
v -0.025198 -0.001000 0.019657
v -0.026128 -0.001000 0.019025
v -0.025906 -0.001000 0.019364
v -0.025567 -0.001000 0.019586
v 0.007080 -0.001000 0.001818
v 0.014458 -0.001000 -0.005601
v 0.004802 -0.001000 -0.015699
v 0.006802 -0.001000 -0.015699
v 0.004802 -0.001000 -0.016814
v -0.000198 -0.001000 -0.016814
v 0.004802 -0.001000 -0.020343
v -0.000198 -0.001000 -0.020343
v 0.006802 -0.001000 -0.016814
v 0.009854 -0.001000 -0.019410
v 0.009766 -0.001000 -0.019759
v 0.008857 -0.001000 -0.020343
v 0.006802 -0.001000 -0.020343
v 0.009540 -0.001000 -0.020074
v 0.009211 -0.001000 -0.020278
v 0.026499 -0.001000 0.009215
v 0.013400 -0.001000 0.005779
v 0.017736 -0.001000 0.011898
v 0.021802 -0.001000 0.014657
v 0.019361 -0.001000 0.018706
v 0.026802 -0.001000 0.009932
v 0.023802 -0.001000 0.014657
v 0.026802 -0.001000 0.018657
v 0.026723 -0.001000 0.009543
v 0.023802 -0.001000 0.019657
v 0.025802 -0.001000 0.019657
v 0.026731 -0.001000 0.019025
v 0.026509 -0.001000 0.019364
v 0.026170 -0.001000 0.019586
v 0.019445 -0.001000 0.019061
v 0.020359 -0.001000 0.019657
v 0.021802 -0.001000 0.019657
v 0.019670 -0.001000 0.019381
v 0.020002 -0.001000 0.019590
v -0.004943 -0.001000 -0.020062
v -0.004609 -0.001000 -0.020276
vn 0.000000 1.000000 0.000000
vn 0.000000 1.000000 0.000000
vn 0.000000 1.000000 0.000000
vn 0.000000 1.000000 0.000000
vn 0.000000 1.000000 0.000000
vn 0.000000 1.000000 0.000000
vn 0.000000 1.000000 0.000000
vn 0.000000 1.000000 0.000000
vn 0.000000 1.000000 0.000000
vn 0.000000 1.000000 0.000000
vn 0.000000 1.000000 0.000000
vn 0.000000 1.000000 0.000000
vn 0.000000 1.000000 0.000000
vn 0.000000 1.000000 0.000000
vn 0.000000 1.000000 0.000000
vn 0.000000 1.000000 0.000000
vn 0.000000 1.000000 0.000000
vn 0.000000 1.000000 0.000000
vn 0.000000 1.000000 0.000000
vn 0.000000 1.000000 0.000000
vn 0.000000 1.000000 0.000000
vn 0.000000 1.000000 0.000000
vn 0.000000 1.000000 0.000000
vn 0.000000 1.000000 0.000000
vn 0.000000 1.000000 0.000000
vn 0.000000 1.000000 0.000000
vn 0.000000 1.000000 0.000000
vn 0.000000 1.000000 0.000000
vn 0.000000 1.000000 0.000000
vn 0.000000 1.000000 0.000000
vn 0.000000 1.000000 0.000000
vn 0.000000 1.000000 0.000000
vn 0.000000 1.000000 0.000000
vn 0.000000 1.000000 0.000000
vn 0.000000 1.000000 0.000000
vn 0.000000 1.000000 0.000000
vn 0.000000 1.000000 0.000000
vn 0.000000 1.000000 0.000000
vn 0.000000 1.000000 0.000000
vn 0.000000 1.000000 0.000000
vn 0.000000 1.000000 0.000000
vn 0.000000 1.000000 0.000000
vn 0.000000 1.000000 0.000000
vn 0.000000 1.000000 0.000000
vn 0.000000 1.000000 0.000000
vn 0.000000 1.000000 0.000000
vn 0.000000 1.000000 0.000000
vn 0.000000 1.000000 0.000000
vn 0.000000 1.000000 0.000000
vn 0.000000 1.000000 0.000000
vn 0.000000 1.000000 0.000000
vn 0.000000 1.000000 0.000000
vn 0.000000 1.000000 0.000000
vn 0.000000 1.000000 0.000000
vn 0.000000 1.000000 0.000000
vn 0.000000 1.000000 0.000000
vn 0.000000 1.000000 0.000000
vn 0.000000 1.000000 0.000000
vn 0.000000 1.000000 0.000000
vn 0.000000 1.000000 0.000000
vn 0.000000 1.000000 0.000000
vn 0.000000 1.000000 0.000000
vn 0.000000 1.000000 0.000000
vn 0.000000 1.000000 0.000000
vn 0.000000 1.000000 0.000000
vn -1.000000 0.000000 0.000000
vn -1.000000 0.000000 0.000000
vn -1.000000 0.000000 0.000000
vn -1.000000 0.000000 0.000000
vn 0.997786 0.000000 -0.066499
vn 0.948653 -0.000100 -0.316318
vn 0.985235 0.000000 -0.171206
vn 0.997786 0.000000 -0.066499
vn 0.985272 0.000000 -0.170995
vn 0.985235 0.000000 -0.171206
vn 0.997786 0.000000 -0.066499
vn 0.948653 0.000100 -0.316318
vn 0.963528 0.000000 -0.267608
vn 0.864471 0.000000 -0.502683
vn 0.963528 0.000000 -0.267608
vn 0.819617 0.000000 -0.572912
vn 0.864471 0.000000 -0.502683
vn 0.819617 0.000000 -0.572912
vn 0.776105 0.000000 -0.630604
vn 0.739669 0.000000 -0.672971
vn 0.776105 0.000000 -0.630604
vn 0.739669 0.000000 -0.672971
vn 0.717726 0.000000 -0.696325
vn 0.739669 0.000000 -0.672971
vn 0.717873 0.000100 -0.696174
vn 0.734984 0.000100 -0.678085
vn 0.697087 0.000000 -0.716987
vn 0.697087 0.000000 -0.716987
vn 0.697087 0.000000 -0.716987
vn 0.717873 -0.000100 -0.696174
vn 0.735033 -0.000100 -0.678031
vn 0.963528 0.000100 -0.267608
vn 0.000100 0.000000 -1.000000
vn 0.354398 0.000000 -0.935095
vn 0.000100 0.000000 -1.000000
vn 0.354398 0.000000 -0.935095
vn 0.683216 0.000000 -0.730217
vn 0.683216 0.000000 -0.730217
vn 0.909464 0.000000 -0.415783
vn 0.997786 0.000000 -0.066499
vn 0.909464 0.000000 -0.415783
vn 0.997786 0.000000 -0.066499
vn 0.997786 0.000000 -0.066499
vn 0.000100 0.000000 1.000000
vn 0.368095 0.000000 0.929788
vn 0.000100 0.000000 1.000000
vn 0.368095 0.000000 0.929788
vn 0.707107 0.000000 0.707107
vn 0.707107 0.000000 0.707107
vn 0.929788 0.000000 0.368095
vn 1.000000 0.000000 0.000100
vn 0.929788 0.000000 0.368095
vn 1.000000 0.000000 0.000100
vn 1.000000 0.000000 0.000000
vn 1.000000 0.000000 0.000000
vn 1.000000 0.000000 0.000000
vn 1.000000 0.000000 0.000000
vn 1.000000 0.000000 -0.000100
vn 0.921160 0.000000 -0.389183
vn 1.000000 0.000000 -0.000100
vn 0.921160 0.000000 -0.389183
vn 0.697137 0.000000 -0.716938
vn 0.697137 0.000000 -0.716938
vn 0.697137 0.000000 -0.716938
vn 0.000000 0.000000 1.000000
vn 0.000000 0.000000 1.000000
vn 0.000000 0.000000 1.000000
vn 0.000000 0.000000 1.000000
vn -0.000100 0.000000 1.000000
vn -0.368095 0.000000 0.929788
vn -0.000100 0.000000 1.000000
vn -0.368095 0.000000 0.929788
vn -0.707107 0.000000 0.707107
vn -0.929788 0.000000 0.368095
vn -0.707107 0.000000 0.707107
vn -0.929788 0.000000 0.368095
vn -1.000000 0.000000 0.000100
vn -1.000000 0.000000 0.000100
vn 1.000000 0.000000 0.000000
vn 1.000000 0.000000 0.000000
vn 1.000000 0.000000 0.000000
vn 1.000000 0.000000 0.000000
vn 1.000000 0.000000 0.000000
vn 1.000000 0.000000 0.000000
vn 0.000000 0.000000 -1.000000
vn 0.000000 0.000000 -1.000000
vn 0.000000 0.000000 -1.000000
vn 0.000000 0.000000 -1.000000
vn -1.000000 0.000000 0.000000
vn -1.000000 0.000000 0.000000
vn -1.000000 0.000000 0.000000
vn -1.000000 0.000000 0.000000
vn -1.000000 0.000000 0.000000
vn -1.000000 0.000000 0.000000
vn 0.000000 0.000000 -1.000000
vn 0.000000 0.000000 -1.000000
vn 0.000000 0.000000 -1.000000
vn 0.000000 0.000000 -1.000000
vn 1.000000 0.000000 0.000000
vn 1.000000 0.000000 0.000000
vn 1.000000 0.000000 0.000000
vn 1.000000 0.000000 0.000000
vn 1.000000 0.000000 0.000000
vn 1.000000 0.000000 0.000000
vn 0.000000 0.000000 -1.000000
vn 0.000000 0.000000 -1.000000
vn 0.000000 0.000000 -1.000000
vn 0.000000 0.000000 -1.000000
vn -1.000000 0.000000 0.000000
vn -1.000000 0.000000 0.000000
vn -1.000000 0.000000 0.000000
vn -1.000000 0.000000 0.000000
vn -1.000000 0.000000 0.000000
vn -1.000000 0.000000 0.000000
vn 0.000000 0.000000 -1.000000
vn 0.000000 0.000000 -1.000000
vn 0.000000 0.000000 -1.000000
vn 0.000000 0.000000 -1.000000
vn 1.000000 0.000000 0.000000
vn 1.000000 0.000000 0.000000
vn 1.000000 0.000000 0.000000
vn 1.000000 0.000000 0.000000
vn 0.000000 0.000000 1.000000
vn 0.000000 0.000000 1.000000
vn 0.000000 0.000000 1.000000
vn 0.000000 0.000000 1.000000
vn -1.000000 0.000000 0.000000
vn -1.000000 0.000000 0.000000
vn -1.000000 0.000000 0.000000
vn -1.000000 0.000000 0.000000
vn 0.000000 0.000000 1.000000
vn 0.000000 0.000000 1.000000
vn 0.000000 0.000000 1.000000
vn 0.000000 0.000000 1.000000
vn 0.000000 0.000000 1.000000
vn 0.000000 0.000000 1.000000
vn 0.000000 0.000000 1.000000
vn 0.000000 0.000000 1.000000
vn 1.000000 0.000000 0.000000
vn 1.000000 0.000000 0.000000
vn 1.000000 0.000000 0.000000
vn 1.000000 0.000000 0.000000
vn -1.000000 0.000000 0.000000
vn -1.000000 0.000000 0.000000
vn -1.000000 0.000000 0.000000
vn -1.000000 0.000000 0.000000
vn 0.000000 0.000000 -1.000000
vn 0.000000 0.000000 -1.000000
vn 0.000000 0.000000 -1.000000
vn 0.000000 0.000000 -1.000000
vn 0.000000 0.000000 1.000000
vn 0.000000 0.000000 1.000000
vn 0.000000 0.000000 1.000000
vn 0.000000 0.000000 1.000000
vn 0.000000 0.000000 1.000000
vn 0.000000 0.000000 1.000000
vn 0.000000 0.000000 1.000000
vn 0.000000 0.000000 1.000000
vn 0.998759 0.000000 0.049798
vn 0.998759 0.000000 0.049798
vn 0.973801 0.000000 0.227400
vn 0.913605 0.000000 0.406602
vn 0.973801 0.000000 0.227400
vn 0.913605 0.000000 0.406602
vn 0.998759 0.000000 0.049798
vn 0.816890 0.000000 0.576793
vn 0.816890 0.000000 0.576793
vn 0.686515 0.000000 0.727116
vn 0.529127 0.000000 0.848543
vn 0.686515 0.000000 0.727116
vn 0.529127 0.000000 0.848543
vn 0.355284 0.000000 0.934758
vn 0.175400 0.000000 0.984497
vn 0.355284 0.000000 0.934758
vn 0.175400 0.000000 0.984497
vn 0.000000 0.000000 1.000000
vn -0.175400 0.000000 0.984497
vn 0.000000 0.000000 1.000000
vn -0.175400 0.000000 0.984497
vn -0.355284 0.000000 0.934758
vn -0.355284 0.000000 0.934758
vn -0.529127 0.000000 0.848543
vn -0.686515 0.000000 0.727116
vn -0.529127 0.000000 0.848543
vn -0.686515 0.000000 0.727116
vn -0.816890 0.000000 0.576793
vn -0.913605 0.000000 0.406602
vn -0.816890 0.000000 0.576793
vn -0.913605 0.000000 0.406602
vn -0.973801 0.000000 0.227400
vn -0.998759 0.000000 0.049798
vn -0.998759 0.000000 0.049798
vn -0.973801 0.000000 0.227400
vn -0.998759 0.000000 0.049798
vn -0.723512 0.000000 -0.690312
vn -0.723512 0.000000 -0.690312
vn -0.569018 0.000000 -0.822325
vn -0.569018 0.000000 -0.822325
vn -0.386993 0.000000 -0.922083
vn -0.386993 0.000000 -0.922083
vn -0.188302 0.000000 -0.982111
vn -0.188302 0.000000 -0.982111
vn 0.014100 0.000000 -0.999901
vn 0.014100 0.000000 -0.999901
vn -0.723512 0.000000 -0.690312
vn -0.835618 0.000000 -0.549312
vn -0.723512 0.000000 -0.690312
vn -0.835618 0.000000 -0.549312
vn -0.921874 0.000000 -0.387489
vn -0.977163 0.000000 -0.212492
vn -0.921874 0.000000 -0.387489
vn -0.977163 0.000000 -0.212492
vn -0.999465 0.000000 -0.032699
vn -0.999465 0.000000 -0.032699
vn -0.999465 0.000000 -0.032699
vn 0.000100 0.000000 1.000000
vn 0.357887 0.000000 0.933765
vn 0.000100 0.000000 1.000000
vn 0.357887 0.000000 0.933765
vn 0.689236 0.000000 0.724537
vn 0.689236 0.000000 0.724537
vn 0.914766 0.000000 0.403985
vn 0.914766 0.000000 0.403985
vn 0.998754 0.000000 0.049898
vn 0.998754 0.000000 0.049898
vn 0.998759 0.000000 0.049798
vn -0.000100 0.000000 1.000000
vn -0.357887 0.000000 0.933765
vn -0.000100 0.000000 1.000000
vn -0.357887 0.000000 0.933765
vn -0.689236 0.000000 0.724537
vn -0.689236 0.000000 0.724537
vn -0.914766 0.000000 0.403985
vn -0.998759 0.000000 0.049798
vn -0.998754 0.000000 0.049898
vn -0.914766 0.000000 0.403985
vn -0.998759 0.000000 0.049798
vn -0.000100 0.000000 -1.000000
vn -0.361404 0.000000 -0.932409
vn -0.000100 0.000000 -1.000000
vn -0.361404 0.000000 -0.932409
vn -0.695513 0.000000 -0.718513
vn -0.920130 0.000000 -0.391613
vn -0.695513 0.000000 -0.718513
vn -0.920130 0.000000 -0.391613
vn -0.999465 0.000000 -0.032699
vn -0.999465 0.000000 -0.032699
vn -0.999465 0.000000 -0.032699
vn 0.000000 -1.000000 0.000000
vn 0.000000 -1.000000 0.000000
vn 0.000000 -1.000000 0.000000
vn 0.000000 -1.000000 0.000000
vn 0.000000 -1.000000 0.000000
vn 0.000000 -1.000000 0.000000
vn 0.000000 -1.000000 0.000000
vn 0.000000 -1.000000 0.000000
vn 0.000000 -1.000000 0.000000
vn 0.000000 -1.000000 0.000000
vn 0.000000 -1.000000 0.000000
vn 0.000000 -1.000000 0.000000
vn 0.000000 -1.000000 0.000000
vn 0.000000 -1.000000 0.000000
vn 0.000000 -1.000000 0.000000
vn 0.000000 -1.000000 0.000000
vn 0.000000 -1.000000 0.000000
vn 0.000000 -1.000000 0.000000
vn 0.000000 -1.000000 0.000000
vn 0.000000 -1.000000 0.000000
vn 0.000000 -1.000000 0.000000
vn 0.000000 -1.000000 0.000000
vn 0.000000 -1.000000 0.000000
vn 0.000000 -1.000000 0.000000
vn 0.000000 -1.000000 0.000000
vn 0.000000 -1.000000 0.000000
vn 0.000000 -1.000000 0.000000
vn 0.000000 -1.000000 0.000000
vn 0.000000 -1.000000 0.000000
vn 0.000000 -1.000000 0.000000
vn 0.000000 -1.000000 0.000000
vn 0.000000 -1.000000 0.000000
vn 0.000000 -1.000000 0.000000
vn 0.000000 -1.000000 0.000000
vn 0.000000 -1.000000 0.000000
vn 0.000000 -1.000000 0.000000
vn 0.000000 -1.000000 0.000000
vn 0.000000 -1.000000 0.000000
vn 0.000000 -1.000000 0.000000
vn 0.000000 -1.000000 0.000000
vn 0.000000 -1.000000 0.000000
vn 0.000000 -1.000000 0.000000
vn 0.000000 -1.000000 0.000000
vn 0.000000 -1.000000 0.000000
vn 0.000000 -1.000000 0.000000
vn 0.000000 -1.000000 0.000000
vn 0.000000 -1.000000 0.000000
vn 0.000000 -1.000000 0.000000
vn 0.000000 -1.000000 0.000000
vn 0.000000 -1.000000 0.000000
vn 0.000000 -1.000000 0.000000
vn 0.000000 -1.000000 0.000000
vn 0.000000 -1.000000 0.000000
vn 0.000000 -1.000000 0.000000
vn 0.000000 -1.000000 0.000000
vn 0.000000 -1.000000 0.000000
vn 0.000000 -1.000000 0.000000
vn 0.000000 -1.000000 0.000000
vn 0.000000 -1.000000 0.000000
vn 0.000000 -1.000000 0.000000
vn 0.000000 -1.000000 0.000000
vn 0.000000 -1.000000 0.000000
vn 0.000000 -1.000000 0.000000
vn 0.000000 -1.000000 0.000000
vn 0.000000 -1.000000 0.000000
f 2//2 5//5 1//1
f 2//2 1//1 3//3
f 3//3 1//1 4//4
f 4//4 1//1 7//7
f 6//6 1//1 5//5
f 8//8 4//4 7//7
f 8//8 7//7 9//9
f 9//9 7//7 10//10
f 12//12 9//9 10//10
f 11//11 12//12 10//10
f 11//11 13//13 12//12
f 15//15 13//13 11//11
f 13//13 15//15 14//14
f 14//14 15//15 17//17
f 16//16 17//17 15//15
f 16//16 18//18 17//17
f 14//14 17//17 19//19
f 19//19 20//20 14//14
f 20//20 19//19 21//21
f 21//21 22//22 20//20
f 22//22 23//23 20//20
f 22//22 24//24 23//23
f 24//24 22//22 25//25
f 16//16 26//26 18//18
f 27//27 28//28 26//26
f 27//27 26//26 16//16
f 29//29 26//26 28//28
f 32//32 9//9 30//30
f 9//9 31//31 30//30
f 8//8 9//9 32//32
f 32//32 30//30 33//33
f 32//32 34//34 35//35
f 32//32 35//35 8//8
f 34//34 36//36 37//37
f 34//34 37//37 35//35
f 39//39 38//38 33//33
f 33//33 30//30 39//39
f 40//40 41//41 39//39
f 39//39 41//41 42//42
f 39//39 42//42 38//38
f 41//41 43//43 44//44
f 41//41 40//40 43//43
f 30//30 31//31 45//45
f 45//45 47//47 46//46
f 46//46 30//30 45//45
f 47//47 50//50 46//46
f 47//47 48//48 50//50
f 48//48 47//47 49//49
f 53//53 51//51 50//50
f 46//46 50//50 52//52
f 53//53 50//50 48//48
f 53//53 54//54 51//51
f 55//55 51//51 54//54
f 56//56 55//55 57//57
f 56//56 51//51 55//55
f 55//55 58//58 57//57
f 59//59 60//60 49//49
f 60//60 61//61 49//49
f 48//48 49//49 61//61
f 60//60 59//59 62//62
f 60//60 62//62 63//63
f 5//5 64//64 6//6
f 5//5 65//65 64//64
f 66//66 68//68 69//69
f 66//66 69//69 67//67
f 70//70 72//72 71//71
f 70//70 73//73 72//72
f 72//72 73//73 74//74
f 73//73 75//75 74//74
f 75//75 73//73 76//76
f 76//76 77//77 80//80
f 76//76 80//80 75//75
f 80//80 77//77 78//78
f 77//77 79//79 78//78
f 75//75 80//80 78//78
f 75//75 78//78 74//74
f 83//83 82//82 79//79
f 83//83 79//79 81//81
f 82//82 78//78 79//79
f 71//71 78//78 82//82
f 83//83 85//85 84//84
f 81//81 85//85 83//83
f 85//85 81//81 86//86
f 84//84 85//85 89//89
f 85//85 86//86 87//87
f 87//87 95//95 88//88
f 87//87 88//88 85//85
f 85//85 88//88 90//90
f 85//85 90//90 89//89
f 91//91 89//89 90//90
f 89//89 91//91 84//84
f 91//91 90//90 92//92
f 93//93 92//92 90//90
f 93//93 90//90 88//88
f 94//94 93//93 95//95
f 95//95 93//93 88//88
f 96//96 94//94 95//95
f 95//95 87//87 96//96
f 86//86 96//96 87//87
f 74//74 78//78 97//97
f 74//74 97//97 72//72
f 71//71 97//97 78//78
f 97//97 71//71 72//72
f 99//99 98//98 100//100
f 99//99 100//100 101//101
f 103//103 99//99 101//101
f 103//103 101//101 102//102
f 106//106 103//103 102//102
f 106//106 102//102 104//104
f 104//104 105//105 106//106
f 107//107 105//105 104//104
f 105//105 108//108 106//106
f 110//110 109//109 111//111
f 110//110 111//111 112//112
f 114//114 110//110 112//112
f 114//114 112//112 113//113
f 117//117 114//114 113//113
f 117//117 113//113 115//115
f 118//118 117//117 115//115
f 118//118 115//115 116//116
f 119//119 121//121 122//122
f 119//119 122//122 120//120
f 124//124 123//123 125//125
f 124//124 125//125 126//126
f 126//126 127//127 128//128
f 124//124 126//126 128//128
f 128//128 129//129 124//124
f 131//131 130//130 132//132
f 131//131 132//132 133//133
f 135//135 134//134 136//136
f 135//135 136//136 137//137
f 140//140 135//135 137//137
f 140//140 137//137 138//138
f 141//141 140//140 138//138
f 141//141 138//138 139//139
f 142//142 141//141 139//139
f 142//142 139//139 143//143
f 148//148 145//145 144//144
f 148//148 144//144 146//146
f 146//146 147//147 149//149
f 146//146 149//149 148//148
f 151//151 150//150 152//152
f 151//151 152//152 153//153
f 155//155 157//157 156//156
f 155//155 156//156 154//154
f 158//158 156//156 157//157
f 158//158 157//157 159//159
f 161//161 160//160 162//162
f 161//161 162//162 163//163
f 168//168 165//165 164//164
f 168//168 164//164 166//166
f 166//166 167//167 169//169
f 166//166 169//169 168//168
f 171//171 170//170 172//172
f 171//171 172//172 173//173
f 175//175 178//178 176//176
f 175//175 176//176 174//174
f 177//177 176//176 178//178
f 177//177 178//178 179//179
f 181//181 180//180 182//182
f 181//181 182//182 183//183
f 184//184 186//186 187//187
f 184//184 187//187 185//185
f 188//188 190//190 191//191
f 188//188 191//191 189//189
f 193//193 195//195 194//194
f 193//193 194//194 192//192
f 196//196 198//198 199//199
f 196//196 199//199 197//197
f 200//200 202//202 203//203
f 200//200 203//203 201//201
f 205//205 207//207 206//206
f 205//205 206//206 204//204
f 209//209 208//208 210//210
f 210//210 211//211 209//209
f 215//215 213//213 212//212
f 215//215 212//212 214//214
f 217//217 219//219 218//218
f 217//217 218//218 216//216
f 221//221 220//220 222//222
f 221//221 222//222 223//223
f 225//225 226//226 224//224
f 226//226 225//225 228//228
f 226//226 228//228 229//229
f 226//226 229//229 227//227
f 228//228 225//225 230//230
f 227//227 229//229 231//231
f 227//227 231//231 232//232
f 232//232 231//231 233//233
f 232//232 233//233 235//235
f 235//235 233//233 234//234
f 235//235 234//234 236//236
f 236//236 234//234 239//239
f 236//236 239//239 237//237
f 237//237 239//239 240//240
f 237//237 240//240 238//238
f 238//238 240//240 241//241
f 238//238 241//241 243//243
f 242//242 244//244 243//243
f 242//242 243//243 241//241
f 244//244 242//242 246//246
f 244//244 246//246 245//245
f 245//245 246//246 249//249
f 245//245 249//249 247//247
f 247//247 249//249 250//250
f 247//247 250//250 248//248
f 248//248 250//250 251//251
f 248//248 251//251 253//253
f 253//253 251//251 252//252
f 253//253 252//252 254//254
f 254//254 252//252 258//258
f 254//254 258//258 255//255
f 258//258 256//256 255//255
f 256//256 257//257 255//255
f 256//256 258//258 259//259
f 261//261 260//260 262//262
f 261//261 262//262 263//263
f 263//263 262//262 264//264
f 263//263 264//264 265//265
f 266//266 267//267 265//265
f 266//266 265//265 264//264
f 267//267 266//266 268//268
f 267//267 268//268 269//269
f 273//273 271//271 270//270
f 273//273 270//270 272//272
f 274//274 276//276 271//271
f 274//274 271//271 273//273
f 276//276 274//274 275//275
f 276//276 275//275 277//277
f 278//278 277//277 279//279
f 275//275 279//279 277//277
f 279//279 275//275 280//280
f 282//282 284//284 283//283
f 282//282 283//283 281//281
f 286//286 285//285 284//284
f 286//286 284//284 282//282
f 288//288 287//287 285//285
f 288//288 285//285 286//286
f 287//287 288//288 290//290
f 289//289 287//287 290//290
f 290//290 288//288 291//291
f 293//293 295//295 294//294
f 293//293 294//294 292//292
f 297//297 296//296 295//295
f 297//297 295//295 293//293
f 301//301 298//298 296//296
f 301//301 296//296 297//297
f 299//299 298//298 300//300
f 298//298 301//301 300//300
f 300//300 301//301 302//302
f 304//304 306//306 305//305
f 304//304 305//305 303//303
f 309//309 307//307 306//306
f 309//309 306//306 304//304
f 310//310 308//308 307//307
f 310//310 307//307 309//309
f 312//312 310//310 311//311
f 308//308 310//310 312//312
f 313//313 308//308 312//312
f 315//315 314//314 318//318
f 315//315 316//316 314//314
f 316//316 317//317 314//314
f 317//317 320//320 314//314
f 319//319 318//318 314//314
f 321//321 320//320 317//317
f 321//321 322//322 320//320
f 322//322 323//323 320//320
f 325//325 323//323 322//322
f 324//324 323//323 325//325
f 324//324 325//325 326//326
f 328//328 324//324 326//326
f 326//326 327//327 328//328
f 327//327 330//330 328//328
f 329//329 328//328 330//330
f 329//329 330//330 331//331
f 327//327 332//332 330//330
f 333//333 334//334 332//332
f 332//332 327//327 333//333
f 334//334 333//333 335//335
f 335//335 333//333 337//337
f 336//336 338//338 335//335
f 335//335 337//337 336//336
f 329//329 331//331 339//339
f 340//340 329//329 339//339
f 340//340 339//339 341//341
f 342//342 341//341 339//339
f 322//322 344//344 343//343
f 345//345 344//344 322//322
f 321//321 345//345 322//322
f 345//345 346//346 344//344
f 345//345 321//321 348//348
f 345//345 348//348 347//347
f 347//347 348//348 349//349
f 350//350 349//349 348//348
f 352//352 346//346 351//351
f 346//346 352//352 344//344
f 353//353 352//352 354//354
f 352//352 355//355 354//354
f 352//352 351//351 355//355
f 354//354 356//356 353//353
f 354//354 357//357 356//356
f 358//358 359//359 344//344
f 344//344 359//359 343//343
f 359//359 358//358 360//360
f 360//360 358//358 363//363
f 360//360 363//363 361//361
f 361//361 362//362 360//360
f 364//364 361//361 363//363
f 364//364 363//363 365//365
f 358//358 366//366 363//363
f 364//364 365//365 367//367
f 368//368 367//367 365//365
f 369//369 368//368 365//365
f 369//369 370//370 368//368
f 368//368 370//370 371//371
f 372//372 362//362 373//373
f 373//373 362//362 374//374
f 361//361 374//374 362//362
f 373//373 375//375 372//372
f 373//373 376//376 375//375
f 318//318 319//319 377//377
f 318//318 377//377 378//378
