# arm_13 exported from /models/landings/arm_13.glb
# units: meters
v -0.022200 0.001000 -0.012336
v -0.007665 0.001000 -0.008448
v -0.022200 0.001000 -0.001523
v -0.021890 0.001000 0.000221
v -0.003500 0.001000 -0.005058
v -0.002510 0.001000 -0.003268
v -0.002200 0.001000 -0.001523
v -0.002200 0.001000 0.001476
v 0.001799 0.001000 0.004476
v -0.000200 0.001000 0.001476
v -0.020901 0.001000 0.002011
v -0.016735 0.001000 0.005402
v 0.000945 0.001000 0.005227
v 0.000675 0.001000 0.005779
v 0.000565 0.001000 0.006384
v 0.000565 0.001000 0.006568
v -0.002200 0.001000 0.009289
v 0.000565 0.001000 0.009449
v -0.000200 0.001000 -0.001523
v 0.027799 0.001000 0.001476
v 0.002880 0.001000 0.004242
v 0.024718 0.001000 0.004242
v 0.025799 0.001000 0.004476
v 0.026653 0.001000 0.005227
v 0.031961 0.001000 0.002686
v 0.029799 0.001000 0.001476
v 0.032799 0.001000 -0.001523
v 0.029577 0.001000 0.006255
v 0.026924 0.001000 0.005779
v 0.027035 0.001000 0.006384
v 0.027035 0.001000 0.008150
v 0.027033 0.001000 0.006384
v 0.029799 0.001000 -0.001523
v 0.027799 0.001000 -0.001523
v -0.002200 -0.001000 0.009289
v -0.002200 -0.000000 0.009289
v -0.005266 -0.001000 0.008939
v -0.005266 -0.000000 0.008939
v -0.008296 -0.001000 0.008394
v -0.008296 -0.000000 0.008394
v -0.014085 -0.001000 0.006654
v -0.014085 0.001000 0.006654
v -0.019450 -0.001000 0.003540
v -0.019450 0.001000 0.003540
v -0.022200 -0.001000 -0.001523
v -0.022200 0.001000 -0.001523
v -0.008296 0.001000 0.008394
v -0.005266 0.001000 0.008939
v -0.002200 0.001000 0.009289
v -0.002200 0.001000 -0.001523
v -0.002200 -0.001000 -0.001523
v -0.002200 0.001000 0.001476
v -0.002200 -0.001000 0.001476
v 0.000565 -0.001000 0.006568
v 0.000630 -0.001000 0.005933
v 0.000565 0.001000 0.006568
v 0.000630 0.001000 0.005933
v 0.000886 0.001000 0.005320
v 0.000886 -0.001000 0.005320
v 0.001300 0.001000 0.004818
v 0.001300 -0.001000 0.004818
v 0.001799 0.001000 0.004476
v 0.001799 -0.000000 0.004476
v 0.001799 -0.001000 0.004476
v 0.024718 -0.001000 0.004242
v 0.024718 0.001000 0.004242
v 0.025799 -0.001000 0.004476
v 0.025799 -0.000000 0.004476
v 0.025799 0.001000 0.004476
v 0.032799 -0.001000 -0.001523
v 0.032097 -0.001000 0.002342
v 0.032799 0.001000 -0.001523
v 0.032097 0.001000 0.002342
v 0.030083 0.001000 0.005713
v 0.030083 -0.001000 0.005713
v 0.027035 0.001000 0.008150
v 0.027035 -0.001000 0.008150
v 0.000565 -0.001000 0.009449
v 0.000565 0.001000 0.009449
v -0.000815 -0.001000 0.009387
v -0.000815 0.001000 0.009387
v -0.002200 -0.000000 0.009289
v -0.002200 -0.001000 0.009289
v -0.002200 0.001000 0.009289
v 0.029799 -0.001000 0.001476
v 0.027799 -0.001000 0.001476
v 0.029799 0.001000 0.001476
v 0.027799 0.001000 0.001476
v 0.029799 -0.001000 -0.001523
v 0.029799 0.001000 -0.001523
v 0.032799 -0.001000 -0.001523
v 0.032799 0.001000 -0.001523
v 0.027799 0.001000 0.001476
v 0.027799 -0.001000 0.001476
v 0.027799 0.001000 -0.001523
v 0.027799 -0.001000 -0.001523
v 0.029799 0.001000 0.001476
v 0.029799 -0.001000 0.001476
v 0.029799 0.001000 -0.001523
v 0.029799 -0.001000 -0.001523
v -0.002200 -0.001000 0.001476
v -0.000200 -0.001000 0.001476
v -0.002200 0.001000 0.001476
v -0.000200 0.001000 0.001476
v -0.000200 -0.001000 -0.001523
v -0.000200 0.001000 -0.001523
v -0.000200 -0.001000 0.001476
v -0.000200 0.001000 0.001476
v -0.000200 -0.001000 -0.001523
v -0.000200 0.001000 -0.001523
v 0.003552 -0.001000 -0.001523
v 0.024046 -0.001000 -0.001523
v 0.027799 0.001000 -0.001523
v 0.027799 -0.001000 -0.001523
v 0.001799 -0.001000 0.004476
v 0.002318 -0.001000 0.004293
v 0.001799 -0.000000 0.004476
v 0.002318 0.001000 0.004293
v 0.001799 0.001000 0.004476
v 0.002880 0.001000 0.004242
v 0.002880 -0.001000 0.004242
v 0.025799 -0.001000 0.004476
v 0.025799 -0.000000 0.004476
v 0.026430 -0.001000 0.004947
v 0.026430 0.001000 0.004947
v 0.026859 -0.001000 0.005606
v 0.026859 0.001000 0.005606
v 0.027033 -0.001000 0.006384
v 0.027033 0.001000 0.006384
v 0.025799 0.001000 0.004476
v 0.002880 0.001000 0.004242
v 0.002880 -0.001000 0.004242
v 0.024718 0.001000 0.004242
v 0.024718 -0.001000 0.004242
v 0.027035 -0.001000 0.006384
v 0.027035 0.001000 0.006384
v 0.027033 -0.001000 0.006384
v 0.027033 0.001000 0.006384
v 0.027035 0.001000 0.006384
v 0.027035 -0.001000 0.006384
v 0.027035 0.001000 0.008150
v 0.027035 -0.001000 0.008150
v 0.000565 0.001000 0.009449
v 0.000565 -0.001000 0.009449
v 0.000565 0.001000 0.006568
v 0.000565 -0.001000 0.006568
v -0.022200 -0.001000 -0.012336
v -0.016105 -0.001000 -0.011441
v -0.022200 0.001000 -0.012336
v -0.016105 0.001000 -0.011441
v -0.010315 0.001000 -0.009701
v -0.010315 -0.001000 -0.009701
v -0.004951 0.001000 -0.006587
v -0.004951 -0.001000 -0.006587
v -0.002200 0.001000 -0.001523
v -0.002200 -0.001000 -0.001523
v -0.022200 0.001000 -0.001523
v -0.022200 -0.001000 -0.001523
v -0.022200 0.001000 -0.012336
v -0.022200 -0.001000 -0.012336
v -0.022200 -0.001000 -0.012336
v -0.007665 -0.001000 -0.008448
v -0.022200 -0.001000 -0.001523
v -0.021890 -0.001000 0.000221
v -0.003500 -0.001000 -0.005058
v -0.002510 -0.001000 -0.003268
v -0.002200 -0.001000 -0.001523
v -0.002200 -0.001000 0.001476
v 0.001799 -0.001000 0.004476
v -0.000200 -0.001000 0.001476
v -0.020901 -0.001000 0.002011
v -0.016735 -0.001000 0.005402
v 0.000945 -0.001000 0.005227
v 0.000675 -0.001000 0.005779
v 0.000565 -0.001000 0.006384
v 0.000565 -0.001000 0.006568
v -0.002200 -0.001000 0.009289
v 0.000565 -0.001000 0.009449
v -0.000200 -0.001000 -0.001523
v 0.003552 -0.001000 -0.001523
v 0.002880 -0.001000 0.004242
v 0.024718 -0.001000 0.004242
v 0.024046 -0.001000 -0.001523
v 0.027799 -0.001000 -0.001523
v 0.027799 -0.001000 0.001476
v 0.031961 -0.001000 0.002686
v 0.029799 -0.001000 0.001476
v 0.025799 -0.001000 0.004476
v 0.026653 -0.001000 0.005227
v 0.029577 -0.001000 0.006255
v 0.026924 -0.001000 0.005779
v 0.027035 -0.001000 0.006384
v 0.027033 -0.001000 0.006384
v 0.027035 -0.001000 0.008150
v 0.032799 -0.001000 -0.001523
v 0.029799 -0.001000 -0.001523
vn 0.000000 1.000000 0.000000
vn 0.000000 1.000000 0.000000
vn 0.000000 1.000000 0.000000
vn 0.000000 1.000000 0.000000
vn 0.000000 1.000000 0.000000
vn 0.000000 1.000000 0.000000
vn 0.000000 1.000000 0.000000
vn 0.000000 1.000000 0.000000
vn 0.000000 1.000000 0.000000
vn 0.000000 1.000000 0.000000
vn 0.000000 1.000000 0.000000
vn 0.000000 1.000000 0.000000
vn 0.000000 1.000000 0.000000
vn 0.000000 1.000000 0.000000
vn 0.000000 1.000000 0.000000
vn 0.000000 1.000000 0.000000
vn 0.000000 1.000000 0.000000
vn 0.000000 1.000000 0.000000
vn 0.000000 1.000000 0.000000
vn 0.000000 1.000000 0.000000
vn 0.000000 1.000000 0.000000
vn 0.000000 1.000000 0.000000
vn 0.000000 1.000000 0.000000
vn 0.000000 1.000000 0.000000
vn 0.000000 1.000000 0.000000
vn 0.000000 1.000000 0.000000
vn 0.000000 1.000000 0.000000
vn 0.000000 1.000000 0.000000
vn 0.000000 1.000000 0.000000
vn 0.000000 1.000000 0.000000
vn 0.000000 1.000000 0.000000
vn 0.000000 1.000000 0.000000
vn 0.000000 1.000000 0.000000
vn 0.000000 1.000000 0.000000
vn -0.083600 -0.000000 0.996499
vn -0.083600 -0.000000 0.996499
vn -0.144305 -0.000000 0.989533
vn -0.144305 -0.000000 0.989533
vn -0.210499 -0.000000 0.977594
vn -0.210499 -0.000000 0.977594
vn -0.374509 -0.000000 0.927223
vn -0.374509 -0.000000 0.927223
vn -0.654588 -0.000000 0.755986
vn -0.654588 -0.000000 0.755986
vn -1.000000 0.000000 0.000000
vn -1.000000 0.000000 0.000000
vn -0.210499 -0.000000 0.977594
vn -0.144305 -0.000000 0.989533
vn -0.083600 -0.000000 0.996499
vn 1.000000 0.000000 0.000000
vn 1.000000 0.000000 0.000000
vn 1.000000 0.000000 0.000000
vn 1.000000 0.000000 0.000000
vn 0.999155 0.000000 -0.041098
vn 0.970025 -0.000000 0.243006
vn 0.999155 0.000000 -0.041098
vn 0.970025 -0.000000 0.243006
vn 0.855918 -0.000000 0.517111
vn 0.855918 -0.000000 0.517111
vn 0.670664 -0.000000 0.741761
vn 0.670664 -0.000000 0.741761
vn 0.447294 -0.000000 0.894387
vn 0.447294 -0.000000 0.894387
vn 0.447294 -0.000000 0.894387
vn 0.036102 -0.000000 0.999348
vn 0.036102 -0.000000 0.999348
vn -0.447094 -0.000000 0.894487
vn -0.447094 -0.000000 0.894487
vn -0.447094 -0.000000 0.894487
vn 1.000000 -0.000000 0.000100
vn 0.936222 -0.000000 0.351408
vn 1.000000 -0.000000 0.000100
vn 0.936222 -0.000000 0.351408
vn 0.753196 -0.000000 0.657796
vn 0.753196 -0.000000 0.657796
vn 0.476096 -0.000000 0.879393
vn 0.476096 -0.000000 0.879393
vn -0.031800 -0.000000 0.999494
vn -0.031800 -0.000000 0.999494
vn -0.057602 -0.000000 0.998340
vn -0.057602 -0.000000 0.998340
vn -0.083600 -0.000000 0.996499
vn -0.083600 -0.000000 0.996499
vn -0.083600 -0.000000 0.996499
vn 0.000000 0.000000 -1.000000
vn 0.000000 0.000000 -1.000000
vn 0.000000 0.000000 -1.000000
vn 0.000000 0.000000 -1.000000
vn 0.000000 0.000000 -1.000000
vn 0.000000 0.000000 -1.000000
vn 0.000000 0.000000 -1.000000
vn 0.000000 0.000000 -1.000000
vn 1.000000 0.000000 0.000000
vn 1.000000 0.000000 0.000000
vn 1.000000 0.000000 0.000000
vn 1.000000 0.000000 0.000000
vn -1.000000 0.000000 0.000000
vn -1.000000 0.000000 0.000000
vn -1.000000 0.000000 0.000000
vn -1.000000 0.000000 0.000000
vn 0.000000 0.000000 -1.000000
vn 0.000000 0.000000 -1.000000
vn 0.000000 0.000000 -1.000000
vn 0.000000 0.000000 -1.000000
vn -1.000000 0.000000 0.000000
vn -1.000000 0.000000 0.000000
vn -1.000000 0.000000 0.000000
vn -1.000000 0.000000 0.000000
vn 0.000000 0.000000 -1.000000
vn 0.000000 0.000000 -1.000000
vn 0.000000 0.000000 -1.000000
vn 0.000000 0.000000 -1.000000
vn 0.000000 0.000000 -1.000000
vn 0.000000 0.000000 -1.000000
vn 0.447094 -0.000000 0.894487
vn 0.215194 -0.000000 0.976571
vn 0.447094 -0.000000 0.894487
vn 0.215194 -0.000000 0.976571
vn 0.447094 -0.000000 0.894487
vn -0.036102 -0.000000 0.999348
vn -0.036102 -0.000000 0.999348
vn -0.447294 -0.000000 0.894387
vn -0.447294 -0.000000 0.894387
vn -0.729297 -0.000000 0.684197
vn -0.729297 -0.000000 0.684197
vn -0.921160 -0.000000 0.389183
vn -0.921160 -0.000000 0.389183
vn -0.999147 -0.000000 0.041302
vn -0.999147 -0.000000 0.041302
vn -0.447294 -0.000000 0.894387
vn 0.000000 -0.000000 1.000000
vn 0.000000 -0.000000 1.000000
vn 0.000000 -0.000000 1.000000
vn 0.000000 -0.000000 1.000000
vn 0.000000 -0.000000 1.000000
vn 0.000000 -0.000000 1.000000
vn 0.000000 -0.000000 1.000000
vn 0.000000 -0.000000 1.000000
vn -1.000000 0.000000 0.000000
vn -1.000000 0.000000 0.000000
vn -1.000000 0.000000 0.000000
vn -1.000000 0.000000 0.000000
vn 1.000000 0.000000 0.000000
vn 1.000000 0.000000 0.000000
vn 1.000000 0.000000 0.000000
vn 1.000000 0.000000 0.000000
vn 0.083600 0.000000 -0.996499
vn 0.210499 0.000000 -0.977594
vn 0.083600 0.000000 -0.996499
vn 0.210499 0.000000 -0.977594
vn 0.374509 0.000000 -0.927223
vn 0.374509 0.000000 -0.927223
vn 0.654588 0.000000 -0.755986
vn 0.654588 0.000000 -0.755986
vn 1.000000 0.000000 0.000000
vn 1.000000 0.000000 0.000000
vn -1.000000 0.000000 0.000000
vn -1.000000 0.000000 0.000000
vn -1.000000 0.000000 0.000000
vn -1.000000 0.000000 0.000000
vn 0.000000 -1.000000 -0.000000
vn 0.000000 -1.000000 -0.000000
vn 0.000000 -1.000000 -0.000000
vn 0.000000 -1.000000 -0.000000
vn 0.000000 -1.000000 -0.000000
vn 0.000000 -1.000000 -0.000000
vn 0.000000 -1.000000 -0.000000
vn 0.000000 -1.000000 -0.000000
vn 0.000000 -1.000000 -0.000000
vn 0.000000 -1.000000 -0.000000
vn 0.000000 -1.000000 -0.000000
vn 0.000000 -1.000000 -0.000000
vn 0.000000 -1.000000 -0.000000
vn 0.000000 -1.000000 -0.000000
vn 0.000000 -1.000000 -0.000000
vn 0.000000 -1.000000 -0.000000
vn 0.000000 -1.000000 -0.000000
vn 0.000000 -1.000000 -0.000000
vn 0.000000 -1.000000 -0.000000
vn 0.000000 -1.000000 -0.000000
vn 0.000000 -1.000000 -0.000000
vn 0.000000 -1.000000 -0.000000
vn 0.000000 -1.000000 -0.000000
vn 0.000000 -1.000000 -0.000000
vn 0.000000 -1.000000 -0.000000
vn 0.000000 -1.000000 -0.000000
vn 0.000000 -1.000000 -0.000000
vn 0.000000 -1.000000 -0.000000
vn 0.000000 -1.000000 -0.000000
vn 0.000000 -1.000000 -0.000000
vn 0.000000 -1.000000 -0.000000
vn 0.000000 -1.000000 -0.000000
vn 0.000000 -1.000000 -0.000000
vn 0.000000 -1.000000 -0.000000
vn 0.000000 -1.000000 -0.000000
vn 0.000000 -1.000000 -0.000000
f 2//2 1//1 3//3
f 3//3 4//4 7//7
f 3//3 6//6 5//5
f 5//5 2//2 3//3
f 6//6 3//3 7//7
f 4//4 8//8 7//7
f 9//9 8//8 13//13
f 9//9 10//10 8//8
f 11//11 8//8 4//4
f 12//12 8//8 11//11
f 13//13 8//8 12//12
f 14//14 13//13 12//12
f 14//14 12//12 15//15
f 16//16 15//15 12//12
f 18//18 16//16 17//17
f 16//16 12//12 17//17
f 34//34 19//19 10//10
f 34//34 10//10 20//20
f 20//20 10//10 21//21
f 21//21 10//10 9//9
f 20//20 21//21 22//22
f 20//20 22//22 23//23
f 24//24 25//25 23//23
f 25//25 20//20 23//23
f 27//27 26//26 25//25
f 20//20 25//25 26//26
f 24//24 28//28 25//25
f 28//28 29//29 30//30
f 28//28 24//24 29//29
f 30//30 31//31 28//28
f 30//30 29//29 32//32
f 27//27 33//33 26//26
f 36//36 38//38 37//37
f 36//36 37//37 35//35
f 40//40 39//39 37//37
f 40//40 37//37 38//38
f 40//40 41//41 39//39
f 41//41 40//40 42//42
f 44//44 43//43 41//41
f 44//44 41//41 42//42
f 45//45 43//43 44//44
f 45//45 44//44 46//46
f 42//42 40//40 47//47
f 47//47 40//40 38//38
f 47//47 38//38 48//48
f 49//49 48//48 38//38
f 49//49 38//38 36//36
f 51//51 50//50 52//52
f 51//51 52//52 53//53
f 55//55 57//57 56//56
f 55//55 56//56 54//54
f 58//58 57//57 55//55
f 58//58 55//55 59//59
f 60//60 58//58 59//59
f 60//60 59//59 61//61
f 61//61 63//63 60//60
f 62//62 60//60 63//63
f 63//63 61//61 64//64
f 66//66 65//65 67//67
f 66//66 67//67 68//68
f 66//66 68//68 69//69
f 71//71 70//70 72//72
f 71//71 72//72 73//73
f 74//74 75//75 71//71
f 74//74 71//71 73//73
f 77//77 75//75 74//74
f 77//77 74//74 76//76
f 79//79 81//81 80//80
f 79//79 80//80 78//78
f 81//81 84//84 82//82
f 81//81 82//82 80//80
f 83//83 80//80 82//82
f 86//86 88//88 87//87
f 86//86 87//87 85//85
f 90//90 92//92 91//91
f 90//90 91//91 89//89
f 94//94 96//96 95//95
f 94//94 95//95 93//93
f 98//98 97//97 99//99
f 98//98 99//99 100//100
f 102//102 101//101 103//103
f 102//102 103//103 104//104
f 106//106 105//105 107//107
f 106//106 107//107 108//108
f 110//110 111//111 109//109
f 113//113 112//112 111//111
f 113//113 111//111 110//110
f 113//113 114//114 112//112
f 116//116 117//117 115//115
f 117//117 116//116 118//118
f 118//118 119//119 117//117
f 121//121 120//120 118//118
f 121//121 118//118 116//116
f 123//123 122//122 124//124
f 125//125 123//123 124//124
f 127//127 125//125 124//124
f 127//127 124//124 126//126
f 128//128 129//129 127//127
f 128//128 127//127 126//126
f 123//123 125//125 130//130
f 132//132 134//134 133//133
f 132//132 133//133 131//131
f 136//136 138//138 137//137
f 136//136 137//137 135//135
f 140//140 142//142 141//141
f 140//140 141//141 139//139
f 144//144 146//146 145//145
f 144//144 145//145 143//143
f 148//148 147//147 149//149
f 148//148 149//149 150//150
f 151//151 152//152 148//148
f 151//151 148//148 150//150
f 153//153 154//154 152//152
f 153//153 152//152 151//151
f 156//156 154//154 153//153
f 156//156 153//153 155//155
f 158//158 157//157 159//159
f 158//158 159//159 160//160
f 162//162 163//163 161//161
f 163//163 167//167 164//164
f 163//163 165//165 166//166
f 165//165 163//163 162//162
f 166//166 167//167 163//163
f 164//164 167//167 168//168
f 169//169 173//173 168//168
f 168//168 170//170 169//169
f 171//171 164//164 168//168
f 172//172 171//171 168//168
f 173//173 172//172 168//168
f 174//174 172//172 173//173
f 174//174 175//175 172//172
f 176//176 172//172 175//175
f 176//176 177//177 172//172
f 178//178 177//177 176//176
f 179//179 180//180 170//170
f 181//181 170//170 180//180
f 181//181 169//169 170//170
f 183//183 182//182 181//181
f 180//180 183//183 181//181
f 184//184 185//185 183//183
f 182//182 183//183 185//185
f 188//188 182//182 185//185
f 188//188 185//185 186//186
f 186//186 185//185 187//187
f 188//188 186//186 189//189
f 190//190 189//189 186//186
f 189//189 190//190 191//191
f 190//190 192//192 191//191
f 193//193 191//191 192//192
f 192//192 190//190 194//194
f 186//186 187//187 195//195
f 187//187 196//196 195//195
