# arm_34 exported from /models/landings/arm_34.glb
# units: meters
v 0.008160 0.001002 -0.017880
v 0.006198 0.001002 -0.019981
v 0.008198 0.001002 -0.019981
v 0.004982 0.001002 -0.017197
v 0.010240 0.001002 -0.017979
v 0.010596 0.001002 -0.018061
v 0.011198 0.001002 -0.018978
v 0.011198 0.001002 -0.024981
v 0.010920 0.001002 -0.018286
v 0.011131 0.001002 -0.018619
v 0.009934 0.001002 -0.026840
v 0.010612 0.001002 -0.026395
v 0.011058 0.001002 -0.025717
v 0.009198 0.001002 -0.026981
v 0.008198 0.001002 -0.026981
v 0.004125 0.001002 -0.016690
v -0.000802 0.001002 -0.019981
v -0.000802 0.001002 -0.026981
v 0.003923 0.001002 -0.016429
v 0.006198 0.001002 -0.026981
v 0.003859 0.001002 -0.016175
v 0.001198 0.001002 -0.009981
v 0.003923 0.001002 -0.015921
v 0.004125 0.001002 -0.015659
v 0.003198 0.001002 -0.009981
v 0.006198 0.001002 -0.011981
v 0.003198 0.001002 0.010019
v 0.004982 0.001002 -0.015153
v 0.008160 0.001002 -0.014469
v 0.008198 0.001002 -0.011981
v 0.010240 0.001002 -0.014371
v 0.010596 0.001002 -0.014289
v 0.011198 0.001002 -0.013372
v 0.010920 0.001002 -0.014064
v 0.011131 0.001002 -0.013731
v 0.011198 0.001002 0.013410
v 0.008198 0.001002 0.012019
v 0.010596 0.001002 0.014327
v 0.010240 0.001002 0.014409
v 0.010920 0.001002 0.014102
v 0.011131 0.001002 0.013770
v 0.008160 0.001002 0.014508
v 0.006198 0.001002 0.012019
v 0.004982 0.001002 0.015191
v 0.004125 0.001002 0.015698
v 0.003923 0.001002 0.015959
v 0.001198 0.001002 0.010019
v 0.003859 0.001002 0.016213
v 0.003923 0.001002 0.016468
v -0.000802 0.001002 0.020019
v -0.000802 0.001002 0.027019
v -0.002802 0.001002 0.020019
v -0.002970 0.001002 0.007322
v 0.004125 0.001002 0.016729
v 0.006198 0.001002 0.020019
v 0.004982 0.001002 0.017235
v 0.006198 0.001002 0.027019
v 0.008160 0.001002 0.017919
v 0.008198 0.001002 0.020019
v 0.010240 0.001002 0.018017
v 0.010596 0.001002 0.018099
v 0.011198 0.001002 0.019016
v 0.010920 0.001002 0.018324
v 0.011131 0.001002 0.018657
v 0.011198 0.001002 0.025019
v 0.009934 0.001002 0.026879
v 0.010612 0.001002 0.026433
v 0.011058 0.001002 0.025755
v 0.009198 0.001002 0.027019
v 0.008198 0.001002 0.027019
v -0.006447 0.001002 0.012553
v -0.001830 0.001002 0.000575
v -0.002970 0.001002 -0.006454
v -0.006447 0.001002 -0.012160
v -0.002802 0.001002 -0.019981
v -0.003802 0.001002 -0.026981
v -0.002802 0.001002 -0.026981
v -0.005934 0.001002 -0.017260
v -0.005802 0.001002 -0.017757
v -0.005802 0.001002 -0.018981
v -0.005802 0.001002 -0.024981
v -0.004538 0.001002 -0.026840
v -0.005216 0.001002 -0.026395
v -0.005661 0.001002 -0.025717
v -0.006122 0.001002 -0.017024
v -0.006386 0.001002 -0.016848
v -0.006692 0.001002 -0.016763
v -0.006994 0.001002 -0.016776
v -0.007456 0.001002 -0.017001
v -0.020456 0.001002 -0.024287
v -0.018456 0.001002 -0.026523
v -0.018711 0.001002 -0.026864
v -0.018802 0.001002 -0.027279
v -0.020802 0.001002 -0.025043
v -0.020711 0.001002 -0.024627
v -0.020802 0.001002 -0.027981
v -0.020216 0.001002 -0.029395
v -0.020661 0.001002 -0.028717
v -0.019538 0.001002 -0.029840
v -0.018802 0.001002 -0.029981
v -0.007456 0.001002 0.017394
v -0.020456 0.001002 0.024680
v -0.005934 0.001002 0.017653
v -0.006122 0.001002 0.017417
v -0.006386 0.001002 0.017241
v -0.006692 0.001002 0.017156
v -0.006994 0.001002 0.017169
v -0.005802 0.001002 0.018150
v -0.005802 0.001002 0.019019
v -0.005802 0.001002 0.025019
v -0.004538 0.001002 0.026879
v -0.005216 0.001002 0.026433
v -0.005661 0.001002 0.025755
v -0.003802 0.001002 0.027019
v -0.002802 0.001002 0.027019
v -0.020802 0.001002 0.025436
v -0.018456 0.001002 0.026917
v -0.020711 0.001002 0.025020
v -0.018711 0.001002 0.027257
v -0.018802 0.001002 0.027673
v -0.020216 0.001002 0.029433
v -0.019538 0.001002 0.029879
v -0.020802 0.001002 0.028019
v -0.018802 0.001002 0.030019
v -0.020661 0.001002 0.028755
v 0.008198 -0.000998 -0.011981
v 0.008198 0.001002 -0.011981
v 0.008198 -0.000998 0.012019
v 0.008198 0.001002 0.012019
v 0.008198 -0.000998 0.012019
v 0.008198 0.001002 0.012019
v 0.006198 -0.000998 0.012019
v 0.006198 0.001002 0.012019
v 0.006198 -0.000998 0.012019
v 0.006198 0.001002 0.012019
v 0.006198 -0.000998 -0.011981
v 0.006198 0.001002 -0.011981
v 0.006198 -0.000998 -0.011981
v 0.006198 0.001002 -0.011981
v 0.008198 -0.000998 -0.011981
v 0.008198 0.001002 -0.011981
v 0.003198 -0.000998 -0.009981
v 0.003198 0.001002 -0.009981
v 0.003198 -0.000998 0.010019
v 0.003198 0.001002 0.010019
v 0.003198 -0.000998 0.010019
v 0.003198 0.001002 0.010019
v 0.001198 -0.000998 0.010019
v 0.001198 0.001002 0.010019
v 0.001198 -0.000998 0.010019
v 0.001198 0.001002 0.010019
v 0.001198 -0.000998 -0.009981
v 0.001198 0.001002 -0.009981
v 0.001198 -0.000998 -0.009981
v 0.001198 0.001002 -0.009981
v 0.003198 -0.000998 -0.009981
v 0.003198 0.001002 -0.009981
v -0.006447 0.001002 -0.012160
v -0.002978 0.001002 -0.006478
v -0.006447 -0.000998 -0.012160
v -0.002978 -0.000998 -0.006478
v -0.001833 -0.000998 0.000237
v -0.002854 -0.000998 0.006999
v -0.001833 0.001002 0.000237
v -0.002854 0.001002 0.006999
v -0.006447 0.001002 0.012553
v -0.006447 -0.000998 0.012553
v -0.020802 -0.000998 0.028019
v -0.020652 -0.000998 0.028779
v -0.020802 0.001002 0.028019
v -0.020652 0.001002 0.028779
v -0.020201 0.001002 0.029448
v -0.020201 -0.000998 0.029448
v -0.019529 0.001002 0.029882
v -0.019529 -0.000998 0.029882
v -0.018802 0.001002 0.030019
v -0.018802 -0.000998 0.030019
v -0.018802 0.001002 0.030019
v -0.018802 -0.000998 0.030019
v -0.018802 0.001002 0.027673
v -0.018802 -0.000998 0.027673
v -0.018802 -0.000998 -0.029981
v -0.019562 -0.000998 -0.029831
v -0.018802 0.001002 -0.029981
v -0.019562 0.001002 -0.029831
v -0.020231 0.001002 -0.029380
v -0.020231 -0.000998 -0.029380
v -0.020665 0.001002 -0.028708
v -0.020665 -0.000998 -0.028708
v -0.020802 0.001002 -0.027981
v -0.020802 -0.000998 -0.027981
v -0.018802 0.001002 -0.029981
v -0.018802 -0.000998 -0.029981
v -0.018802 0.001002 -0.027279
v -0.018802 -0.000998 -0.027279
v -0.005802 -0.000998 0.025019
v -0.005652 -0.000998 0.025779
v -0.005802 0.001002 0.025019
v -0.005652 0.001002 0.025779
v -0.005201 0.001002 0.026448
v -0.005201 -0.000998 0.026448
v -0.004529 0.001002 0.026882
v -0.004529 -0.000998 0.026882
v -0.003802 0.001002 0.027019
v -0.003802 -0.000998 0.027019
v -0.003802 -0.000998 0.027019
v -0.003802 0.001002 0.027019
v -0.002802 -0.000998 0.027019
v -0.002802 0.001002 0.027019
v -0.002802 -0.000998 0.027019
v -0.002802 0.001002 0.027019
v -0.002802 -0.000998 0.020019
v -0.002802 0.001002 0.020019
v -0.002802 -0.000998 0.020019
v -0.002802 0.001002 0.020019
v -0.000802 -0.000998 0.020019
v -0.000802 0.001002 0.020019
v -0.000802 -0.000998 0.020019
v -0.000802 0.001002 0.020019
v -0.000802 -0.000998 0.027019
v -0.000802 0.001002 0.027019
v -0.000802 -0.000998 0.027019
v -0.000802 0.001002 0.027019
v 0.006198 -0.000998 0.027019
v 0.006198 0.001002 0.027019
v 0.006198 -0.000998 0.027019
v 0.006198 0.001002 0.027019
v 0.006198 -0.000998 0.020019
v 0.006198 0.001002 0.020019
v 0.006198 -0.000998 0.020019
v 0.006198 0.001002 0.020019
v 0.008198 -0.000998 0.020019
v 0.008198 0.001002 0.020019
v 0.008198 -0.000998 0.020019
v 0.008198 0.001002 0.020019
v 0.008198 -0.000998 0.027019
v 0.008198 0.001002 0.027019
v 0.008198 -0.000998 0.027019
v 0.008198 0.001002 0.027019
v 0.009198 -0.000998 0.027019
v 0.009198 0.001002 0.027019
v 0.009198 -0.000998 0.027019
v 0.009958 -0.000998 0.026869
v 0.009198 0.001002 0.027019
v 0.009958 0.001002 0.026869
v 0.010627 0.001002 0.026419
v 0.010627 -0.000998 0.026419
v 0.011061 0.001002 0.025746
v 0.011061 -0.000998 0.025746
v 0.011198 0.001002 0.025019
v 0.011198 -0.000998 0.025019
v 0.011198 -0.000998 0.025019
v 0.011198 0.001002 0.025019
v 0.011198 -0.000998 0.019016
v 0.011198 0.001002 0.019016
v 0.011198 -0.000998 -0.024981
v 0.011048 -0.000998 -0.025741
v 0.011198 0.001002 -0.024981
v 0.011048 0.001002 -0.025741
v 0.010598 0.001002 -0.026410
v 0.010598 -0.000998 -0.026410
v 0.009925 0.001002 -0.026844
v 0.009925 -0.000998 -0.026844
v 0.009198 0.001002 -0.026981
v 0.009198 -0.000998 -0.026981
v 0.009198 -0.000998 -0.026981
v 0.009198 0.001002 -0.026981
v 0.008198 -0.000998 -0.026981
v 0.008198 0.001002 -0.026981
v 0.008198 -0.000998 -0.026981
v 0.008198 0.001002 -0.026981
v 0.008198 -0.000998 -0.019981
v 0.008198 0.001002 -0.019981
v 0.008198 -0.000998 -0.019981
v 0.008198 0.001002 -0.019981
v 0.006198 -0.000998 -0.019981
v 0.006198 0.001002 -0.019981
v 0.006198 -0.000998 -0.019981
v 0.006198 0.001002 -0.019981
v 0.006198 -0.000998 -0.026981
v 0.006198 0.001002 -0.026981
v 0.006198 -0.000998 -0.026981
v 0.006198 0.001002 -0.026981
v -0.000802 -0.000998 -0.026981
v -0.000802 0.001002 -0.026981
v -0.000802 -0.000998 -0.026981
v -0.000802 0.001002 -0.026981
v -0.000802 -0.000998 -0.019981
v -0.000802 0.001002 -0.019981
v -0.000802 -0.000998 -0.019981
v -0.000802 0.001002 -0.019981
v -0.002802 -0.000998 -0.019981
v -0.002802 0.001002 -0.019981
v -0.002802 -0.000998 -0.019981
v -0.002802 0.001002 -0.019981
v -0.002802 -0.000998 -0.026981
v -0.002802 0.001002 -0.026981
v -0.002802 -0.000998 -0.026981
v -0.002802 0.001002 -0.026981
v -0.003802 -0.000998 -0.026981
v -0.003802 0.001002 -0.026981
v -0.003802 -0.000998 -0.026981
v -0.004562 -0.000998 -0.026831
v -0.003802 0.001002 -0.026981
v -0.004562 0.001002 -0.026831
v -0.005231 0.001002 -0.026380
v -0.005231 -0.000998 -0.026380
v -0.005665 0.001002 -0.025708
v -0.005665 -0.000998 -0.025708
v -0.005802 0.001002 -0.024981
v -0.005802 -0.000998 -0.024981
v 0.011198 -0.000998 0.013410
v 0.011198 0.000002 0.008947
v 0.011198 -0.000998 0.008947
v 0.011198 0.001002 0.013410
v 0.011198 0.001002 0.008947
v 0.011198 0.001002 0.004483
v 0.011198 0.000002 0.004483
v 0.011198 0.001002 -0.004444
v 0.011198 0.000002 -0.004444
v 0.011198 0.001002 -0.008908
v 0.011198 0.001002 -0.013372
v 0.011198 0.000002 -0.008908
v 0.011198 -0.000998 -0.013372
v 0.011198 -0.000998 -0.008908
v 0.011198 -0.000998 -0.004444
v 0.011198 -0.000998 0.004483
v 0.011198 -0.000998 -0.018978
v 0.011198 0.001002 -0.018978
v 0.011198 -0.000998 -0.024981
v 0.011198 0.001002 -0.024981
v 0.011198 0.001002 -0.018978
v 0.011131 0.001002 -0.018619
v 0.011198 -0.000998 -0.018978
v 0.011131 -0.000998 -0.018619
v 0.010920 -0.000998 -0.018286
v 0.010920 0.001002 -0.018286
v 0.010596 -0.000998 -0.018061
v 0.010596 0.001002 -0.018061
v 0.010415 -0.000498 -0.018002
v 0.010415 0.000002 -0.018002
v 0.010326 -0.000748 -0.017986
v 0.010283 -0.000873 -0.017982
v 0.010261 -0.000936 -0.017980
v 0.010240 -0.000998 -0.017979
v 0.010250 -0.000936 -0.017979
v 0.010240 -0.000980 -0.017979
v 0.010240 0.000011 -0.017979
v 0.010250 -0.000873 -0.017979
v 0.010261 -0.000748 -0.017980
v 0.010261 -0.000873 -0.017980
v 0.010283 -0.000498 -0.017982
v 0.010283 -0.000748 -0.017982
v 0.010326 -0.000498 -0.017986
v 0.010326 0.000002 -0.017986
v 0.010240 0.001002 -0.017979
v 0.011198 -0.000998 -0.013372
v 0.011131 -0.000998 -0.013731
v 0.011198 0.001002 -0.013372
v 0.011131 0.001002 -0.013731
v 0.010920 0.001002 -0.014064
v 0.010920 -0.000998 -0.014064
v 0.010596 0.001002 -0.014289
v 0.010415 0.000002 -0.014348
v 0.010240 0.001002 -0.014371
v 0.010596 -0.000998 -0.014289
v 0.010240 -0.000998 -0.014371
v 0.010283 -0.000873 -0.014368
v 0.010326 -0.000748 -0.014363
v 0.010415 -0.000498 -0.014348
v 0.010261 -0.000936 -0.014370
v 0.010261 -0.000873 -0.014370
v 0.010250 -0.000936 -0.014370
v 0.010250 -0.000873 -0.014370
v 0.010240 -0.000980 -0.014371
v 0.010240 0.000011 -0.014371
v 0.010283 -0.000498 -0.014368
v 0.010326 0.000002 -0.014363
v 0.010261 -0.000748 -0.014370
v 0.010283 -0.000748 -0.014368
v 0.010326 -0.000498 -0.014363
v 0.011198 -0.000998 0.019016
v 0.011131 -0.000998 0.018657
v 0.011198 0.001002 0.019016
v 0.011131 0.001002 0.018657
v 0.010920 0.001002 0.018324
v 0.010920 -0.000998 0.018324
v 0.010596 0.001002 0.018099
v 0.010596 -0.000998 0.018099
v 0.010415 0.000002 0.018040
v 0.010240 0.001002 0.018017
v 0.010326 0.000002 0.018025
v 0.010240 0.000011 0.018017
v 0.010240 -0.000980 0.018017
v 0.010250 -0.000873 0.018018
v 0.010283 -0.000498 0.018020
v 0.010261 -0.000748 0.018019
v 0.010283 -0.000748 0.018020
v 0.010261 -0.000873 0.018019
v 0.010283 -0.000873 0.018020
v 0.010261 -0.000936 0.018019
v 0.010250 -0.000936 0.018018
v 0.010240 -0.000998 0.018017
v 0.010326 -0.000748 0.018025
v 0.010415 -0.000498 0.018040
v 0.010326 -0.000498 0.018025
v 0.011198 0.001002 0.013410
v 0.011131 0.001002 0.013770
v 0.011198 -0.000998 0.013410
v 0.011131 -0.000998 0.013770
v 0.010920 -0.000998 0.014102
v 0.010920 0.001002 0.014102
v 0.010596 -0.000998 0.014327
v 0.010240 -0.000998 0.014409
v 0.010596 0.001002 0.014327
v 0.010415 0.000002 0.014386
v 0.010415 -0.000498 0.014386
v 0.010326 -0.000748 0.014402
v 0.010283 -0.000873 0.014407
v 0.010261 -0.000936 0.014408
v 0.010261 -0.000873 0.014408
v 0.010250 -0.000936 0.014409
v 0.010240 -0.000980 0.014409
v 0.010250 -0.000873 0.014409
v 0.010261 -0.000748 0.014408
v 0.010240 0.000011 0.014409
v 0.010326 0.000002 0.014402
v 0.010283 -0.000498 0.014407
v 0.010240 0.001002 0.014409
v 0.010326 -0.000498 0.014402
v 0.010283 -0.000748 0.014407
v -0.013452 0.001002 -0.018223
v -0.013452 0.000002 -0.018223
v -0.009950 0.001002 -0.015191
v -0.016954 0.001002 -0.021255
v -0.020456 0.001002 -0.024287
v -0.016954 0.000002 -0.021255
v -0.016954 -0.000998 -0.021255
v -0.020456 -0.000998 -0.024287
v -0.013452 -0.000998 -0.018223
v -0.009950 -0.000998 -0.015191
v -0.006447 -0.000998 -0.012160
v -0.009950 0.000002 -0.015191
v -0.006447 0.001002 -0.012160
v -0.006447 -0.000998 0.012553
v -0.020456 -0.000998 0.024680
v -0.006447 0.001002 0.012553
v -0.020456 0.001002 0.024680
v -0.007456 -0.000998 0.017394
v -0.018456 -0.000998 0.026917
v -0.007456 0.001002 0.017394
v -0.018456 0.001002 0.026917
v -0.005802 0.001002 0.025019
v -0.005802 0.001002 0.019019
v -0.005802 -0.000998 0.025019
v -0.005802 -0.000998 0.019019
v -0.005802 -0.000998 0.018150
v -0.005802 0.001002 0.018150
v -0.007456 0.001002 0.017394
v -0.006994 0.001002 0.017169
v -0.007456 -0.000998 0.017394
v -0.006994 -0.000998 0.017169
v -0.006692 -0.000998 0.017156
v -0.006692 0.001002 0.017156
v -0.006386 -0.000998 0.017241
v -0.006122 -0.000998 0.017417
v -0.006386 0.001002 0.017241
v -0.006122 0.001002 0.017417
v -0.005934 0.001002 0.017653
v -0.005802 0.001002 0.018150
v -0.005934 -0.000998 0.017653
v -0.005802 -0.000998 0.018150
v -0.018802 0.001002 0.027673
v -0.018711 0.001002 0.027257
v -0.018802 -0.000998 0.027673
v -0.018711 -0.000998 0.027257
v -0.018456 -0.000998 0.026917
v -0.018456 0.001002 0.026917
v -0.020802 0.001002 0.025436
v -0.020802 0.001002 0.028019
v -0.020802 -0.000998 0.025436
v -0.020802 -0.000998 0.028019
v -0.020802 -0.000998 0.025436
v -0.020711 -0.000998 0.025020
v -0.020802 0.001002 0.025436
v -0.020711 0.001002 0.025020
v -0.020456 0.001002 0.024680
v -0.020456 -0.000998 0.024680
v -0.018456 0.001002 -0.026523
v -0.018456 -0.000998 -0.026523
v -0.007456 0.001002 -0.017001
v -0.007456 -0.000998 -0.017001
v -0.005802 -0.000998 -0.024981
v -0.005802 -0.000998 -0.018981
v -0.005802 0.001002 -0.024981
v -0.005802 0.001002 -0.018981
v -0.005802 0.001002 -0.017757
v -0.005802 -0.000998 -0.017757
v -0.020802 -0.000998 -0.027981
v -0.020802 0.001002 -0.027981
v -0.020802 -0.000998 -0.025043
v -0.020802 0.001002 -0.025043
v -0.018802 -0.000998 -0.027279
v -0.018711 -0.000998 -0.026864
v -0.018802 0.001002 -0.027279
v -0.018711 0.001002 -0.026864
v -0.018456 0.001002 -0.026523
v -0.018456 -0.000998 -0.026523
v -0.020802 0.001002 -0.025043
v -0.020711 0.001002 -0.024627
v -0.020802 -0.000998 -0.025043
v -0.020711 -0.000998 -0.024627
v -0.020456 -0.000998 -0.024287
v -0.020456 0.001002 -0.024287
v -0.007456 -0.000998 -0.017001
v -0.006994 -0.000998 -0.016776
v -0.007456 0.001002 -0.017001
v -0.006994 0.001002 -0.016776
v -0.006692 0.001002 -0.016763
v -0.006692 -0.000998 -0.016763
v -0.006386 0.001002 -0.016848
v -0.006386 -0.000998 -0.016848
v -0.006122 0.001002 -0.017024
v -0.006122 -0.000998 -0.017024
v -0.005934 0.001002 -0.017260
v -0.005934 -0.000998 -0.017260
v -0.005802 0.001002 -0.017757
v -0.005802 -0.000998 -0.017757
v 0.008160 0.001002 -0.014469
v 0.008160 0.000011 -0.014469
v 0.006926 0.001002 -0.014633
v 0.007250 -0.000980 -0.014581
v 0.005768 0.001002 -0.014888
v 0.006395 -0.000980 -0.014735
v 0.004982 -0.000980 -0.015153
v 0.004125 -0.000980 -0.015659
v 0.004592 0.000002 -0.015336
v 0.004592 0.001002 -0.015336
v 0.004033 0.000002 -0.015757
v 0.003859 0.000002 -0.016175
v 0.003923 -0.000980 -0.015921
v 0.004033 0.001002 -0.015757
v 0.003859 0.001002 -0.016175
v 0.004032 0.001002 -0.016592
v 0.004032 0.000002 -0.016592
v 0.004590 0.001002 -0.017014
v 0.004590 0.000002 -0.017014
v 0.005697 0.001002 -0.017442
v 0.006855 0.001002 -0.017704
v 0.006395 -0.000980 -0.017615
v 0.004982 -0.000980 -0.017197
v 0.004125 -0.000980 -0.016690
v 0.003923 -0.000980 -0.016429
v 0.003859 -0.000980 -0.016175
v 0.007250 -0.000980 -0.017769
v 0.008160 0.000011 -0.017880
v 0.008160 -0.000980 -0.017880
v 0.008160 0.001002 -0.017880
v 0.008160 -0.000980 -0.014469
v 0.010240 0.001002 -0.017979
v 0.010240 0.000011 -0.017979
v 0.008160 0.001002 -0.017880
v 0.008160 0.000011 -0.017880
v 0.009222 -0.000498 -0.017934
v 0.008160 -0.000980 -0.017880
v 0.005685 -0.000980 -0.017728
v 0.007378 -0.000998 -0.017837
v 0.008786 -0.000998 -0.017913
v 0.009222 -0.000748 -0.017934
v 0.009729 -0.000748 -0.017957
v 0.009729 -0.000873 -0.017957
v 0.009984 -0.000873 -0.017968
v 0.009984 -0.000936 -0.017968
v 0.010112 -0.000936 -0.017974
v 0.010112 -0.000967 -0.017974
v 0.010176 -0.000967 -0.017976
v 0.010240 -0.000998 -0.017979
v 0.010240 -0.000980 -0.017979
v 0.010112 -0.000873 -0.017974
v 0.010176 -0.000936 -0.017976
v 0.009984 -0.000748 -0.017968
v 0.009729 -0.000498 -0.017957
v 0.004744 -0.000998 -0.017658
v 0.003449 -0.000980 -0.017547
v 0.002430 -0.000998 -0.017446
v 0.001512 -0.000980 -0.017342
v 0.000505 -0.000998 -0.017209
v -0.002019 -0.000998 -0.016693
v -0.000083 -0.000980 -0.017119
v -0.002158 -0.000980 -0.016645
v -0.002614 -0.000998 -0.016430
v -0.002647 -0.000980 -0.016407
v -0.002756 -0.000998 -0.016301
v -0.002764 -0.000980 -0.016290
v -0.002793 -0.000980 -0.016232
v -0.002802 -0.000980 -0.016175
v -0.002791 -0.000998 -0.016238
v -0.002802 -0.000998 -0.016175
v -0.002791 -0.000998 -0.016112
v -0.002793 -0.000980 -0.016118
v -0.002756 -0.000998 -0.016049
v -0.002764 -0.000980 -0.016060
v -0.002647 -0.000980 -0.015943
v -0.002614 -0.000998 -0.015920
v -0.002158 -0.000980 -0.015705
v -0.002019 -0.000998 -0.015657
v -0.000083 -0.000980 -0.015231
v 0.000505 -0.000998 -0.015141
v 0.001512 -0.000980 -0.015008
v 0.003449 -0.000980 -0.014803
v 0.002430 -0.000998 -0.014904
v 0.004744 -0.000998 -0.014692
v 0.005685 -0.000980 -0.014622
v 0.007378 -0.000998 -0.014513
v 0.008160 -0.000980 -0.014469
v 0.008786 -0.000998 -0.014437
v 0.009984 -0.000936 -0.014382
v 0.009222 -0.000748 -0.014416
v 0.010112 -0.000967 -0.014376
v 0.009729 -0.000873 -0.014393
v 0.010240 -0.000998 -0.014371
v 0.010176 -0.000967 -0.014374
v 0.010240 -0.000980 -0.014371
v 0.010112 -0.000873 -0.014376
v 0.010240 0.000011 -0.014371
v 0.010176 -0.000936 -0.014374
v 0.010112 -0.000936 -0.014376
v 0.009729 -0.000498 -0.014393
v 0.009984 -0.000748 -0.014382
v 0.008160 0.001002 -0.014469
v 0.010240 0.001002 -0.014371
v 0.009222 -0.000498 -0.014416
v 0.008160 0.000011 -0.014469
v 0.009729 -0.000748 -0.014393
v 0.009984 -0.000873 -0.014382
v 0.006926 0.001002 0.017755
v 0.008160 0.000011 0.017919
v 0.008160 0.001002 0.017919
v 0.007250 -0.000980 0.017807
v 0.005768 0.001002 0.017500
v 0.006395 -0.000980 0.017653
v 0.004982 -0.000980 0.017235
v 0.004125 -0.000980 0.016729
v 0.004592 0.000002 0.017053
v 0.004592 0.001002 0.017053
v 0.004033 0.000002 0.016631
v 0.003859 0.000002 0.016213
v 0.003923 -0.000980 0.016468
v 0.004033 0.001002 0.016631
v 0.003859 0.001002 0.016213
v 0.004032 0.001002 0.015796
v 0.004032 0.000002 0.015796
v 0.004590 0.001002 0.015375
v 0.004590 0.000002 0.015375
v 0.005697 0.001002 0.014947
v 0.006855 0.001002 0.014684
v 0.006395 -0.000980 0.014774
v 0.004982 -0.000980 0.015191
v 0.004125 -0.000980 0.015698
v 0.003923 -0.000980 0.015959
v 0.003859 -0.000980 0.016213
v 0.007250 -0.000980 0.014620
v 0.008160 0.000011 0.014508
v 0.008160 -0.000980 0.014508
v 0.008160 0.001002 0.014508
v 0.008160 -0.000980 0.017919
v 0.010240 -0.000998 0.018017
v 0.010112 -0.000967 0.018012
v 0.010176 -0.000967 0.018015
v 0.008786 -0.000998 0.017951
v 0.010240 -0.000980 0.018017
v 0.010112 -0.000873 0.018012
v 0.010240 0.000011 0.018017
v 0.010176 -0.000936 0.018015
v 0.010112 -0.000936 0.018012
v 0.009984 -0.000936 0.018007
v 0.009729 -0.000873 0.017995
v 0.009984 -0.000873 0.018007
v 0.009984 -0.000748 0.018007
v 0.009729 -0.000498 0.017995
v 0.009729 -0.000748 0.017995
v 0.009222 -0.000748 0.017972
v 0.009222 -0.000498 0.017972
v 0.008160 -0.000980 0.017919
v 0.008160 0.000011 0.017919
v 0.007378 -0.000998 0.017875
v 0.005685 -0.000980 0.017766
v 0.003449 -0.000980 0.017585
v 0.004744 -0.000998 0.017696
v 0.002430 -0.000998 0.017485
v 0.000505 -0.000998 0.017248
v 0.001512 -0.000980 0.017381
v -0.000083 -0.000980 0.017158
v -0.002019 -0.000998 0.016731
v -0.002158 -0.000980 0.016684
v -0.002647 -0.000980 0.016445
v -0.002614 -0.000998 0.016469
v -0.002756 -0.000998 0.016340
v -0.002791 -0.000998 0.016276
v -0.002764 -0.000980 0.016328
v -0.002793 -0.000980 0.016270
v -0.002802 -0.000980 0.016213
v -0.002802 -0.000998 0.016213
v -0.002793 -0.000980 0.016156
v -0.002764 -0.000980 0.016098
v -0.002791 -0.000998 0.016150
v -0.002756 -0.000998 0.016087
v -0.002614 -0.000998 0.015958
v -0.002647 -0.000980 0.015981
v -0.002158 -0.000980 0.015743
v -0.000083 -0.000980 0.015269
v -0.002019 -0.000998 0.015695
v 0.000505 -0.000998 0.015179
v 0.002430 -0.000998 0.014942
v 0.001512 -0.000980 0.015046
v 0.003449 -0.000980 0.014841
v 0.004744 -0.000998 0.014731
v 0.005685 -0.000980 0.014660
v 0.007378 -0.000998 0.014552
v 0.008160 -0.000980 0.014508
v 0.008160 0.000011 0.014508
v 0.009222 -0.000498 0.014455
v 0.008786 -0.000998 0.014476
v 0.009222 -0.000748 0.014455
v 0.009729 -0.000748 0.014431
v 0.009729 -0.000873 0.014431
v 0.009984 -0.000873 0.014420
v 0.009984 -0.000936 0.014420
v 0.010112 -0.000936 0.014415
v 0.010112 -0.000967 0.014415
v 0.010176 -0.000967 0.014412
v 0.010240 -0.000998 0.014409
v 0.010240 -0.000980 0.014409
v 0.010240 0.000011 0.014409
v 0.010176 -0.000936 0.014412
v 0.010112 -0.000873 0.014415
v 0.009984 -0.000748 0.014420
v 0.009729 -0.000498 0.014431
v 0.010240 0.001002 0.014409
v 0.008160 0.001002 0.014508
v 0.008160 0.001002 0.017919
v 0.010240 0.001002 0.018017
v 0.008160 -0.000980 0.017919
v -0.000083 -0.000980 0.017158
v 0.004982 -0.000980 0.017235
v 0.004125 -0.000980 0.016729
v 0.003923 -0.000980 0.016468
v 0.003859 -0.000980 0.016213
v -0.000083 -0.000980 0.015269
v 0.003923 -0.000980 0.015959
v 0.004125 -0.000980 0.015698
v 0.004982 -0.000980 0.015191
v 0.008160 -0.000980 0.014508
v -0.002158 -0.000980 0.015743
v -0.002158 -0.000980 0.016684
v -0.002647 -0.000980 0.016445
v -0.002647 -0.000980 0.015981
v -0.002764 -0.000980 0.016098
v -0.002764 -0.000980 0.016328
v -0.002793 -0.000980 0.016270
v -0.002793 -0.000980 0.016156
v -0.002802 -0.000980 0.016213
v 0.008160 -0.000980 -0.017880
v -0.000083 -0.000980 -0.017119
v 0.004982 -0.000980 -0.017197
v 0.004125 -0.000980 -0.016690
v 0.003923 -0.000980 -0.016429
v 0.003859 -0.000980 -0.016175
v -0.000083 -0.000980 -0.015231
v 0.003923 -0.000980 -0.015921
v 0.004125 -0.000980 -0.015659
v 0.004982 -0.000980 -0.015153
v 0.008160 -0.000980 -0.014469
v -0.002158 -0.000980 -0.015705
v -0.002158 -0.000980 -0.016645
v -0.002647 -0.000980 -0.016407
v -0.002647 -0.000980 -0.015943
v -0.002764 -0.000980 -0.016290
v -0.002764 -0.000980 -0.016060
v -0.002793 -0.000980 -0.016118
v -0.002793 -0.000980 -0.016232
v -0.002802 -0.000980 -0.016175
v -0.006447 -0.000998 -0.012160
v -0.007456 -0.000998 -0.017001
v -0.020456 -0.000998 -0.024287
v -0.006692 -0.000998 -0.016763
v -0.006994 -0.000998 -0.016776
v -0.006122 -0.000998 -0.017024
v -0.006386 -0.000998 -0.016848
v -0.005934 -0.000998 -0.017260
v -0.002791 -0.000998 -0.016112
v -0.002614 -0.000998 -0.015920
v -0.002970 -0.000998 -0.006454
v -0.002756 -0.000998 -0.016049
v -0.002019 -0.000998 -0.015657
v 0.001198 -0.000998 -0.009981
v -0.001830 -0.000998 0.000575
v 0.001198 -0.000998 0.010019
v -0.002970 -0.000998 0.007322
v -0.006447 -0.000998 0.012553
v -0.002756 -0.000998 0.016087
v -0.002614 -0.000998 0.015958
v 0.000505 -0.000998 0.015179
v 0.003198 -0.000998 0.010019
v 0.010240 -0.000998 0.014409
v 0.006198 -0.000998 0.012019
v 0.008198 -0.000998 0.012019
v 0.006198 -0.000998 -0.011981
v 0.003198 -0.000998 -0.009981
v 0.010240 -0.000998 -0.014371
v 0.008198 -0.000998 -0.011981
v 0.011198 -0.000998 -0.013372
v 0.010596 -0.000998 -0.014289
v 0.010920 -0.000998 -0.014064
v 0.011131 -0.000998 -0.013731
v 0.011198 -0.000998 0.013410
v 0.010596 -0.000998 0.014327
v 0.010920 -0.000998 0.014102
v 0.011131 -0.000998 0.013770
v -0.002791 -0.000998 0.016150
v -0.005934 -0.000998 0.017653
v -0.002802 -0.000998 0.016213
v -0.005802 -0.000998 0.018150
v -0.002791 -0.000998 0.016276
v -0.002802 -0.000998 0.020019
v -0.002756 -0.000998 0.016340
v -0.002614 -0.000998 0.016469
v -0.002019 -0.000998 0.016731
v 0.010240 -0.000998 0.018017
v -0.000802 -0.000998 0.020019
v 0.006198 -0.000998 0.020019
v 0.006198 -0.000998 0.027019
v 0.008198 -0.000998 0.020019
v 0.011198 -0.000998 0.025019
v 0.009934 -0.000998 0.026879
v 0.009198 -0.000998 0.027019
v 0.008198 -0.000998 0.027019
v 0.011198 -0.000998 0.019016
v 0.010596 -0.000998 0.018099
v 0.010920 -0.000998 0.018324
v 0.011131 -0.000998 0.018657
v 0.010612 -0.000998 0.026433
v 0.011058 -0.000998 0.025755
v -0.000802 -0.000998 0.027019
v -0.002802 -0.000998 0.027019
v -0.005802 -0.000998 0.019019
v -0.005802 -0.000998 0.025019
v -0.004538 -0.000998 0.026879
v -0.003802 -0.000998 0.027019
v -0.005216 -0.000998 0.026433
v -0.005661 -0.000998 0.025755
v -0.006122 -0.000998 0.017417
v -0.006386 -0.000998 0.017241
v -0.006692 -0.000998 0.017156
v -0.006994 -0.000998 0.017169
v -0.007456 -0.000998 0.017394
v -0.020456 -0.000998 0.024680
v -0.018456 -0.000998 0.026917
v -0.018711 -0.000998 0.027257
v -0.018802 -0.000998 0.027673
v -0.020802 -0.000998 0.025436
v -0.020711 -0.000998 0.025020
v -0.020802 -0.000998 0.028019
v -0.020216 -0.000998 0.029433
v -0.020661 -0.000998 0.028755
v -0.019538 -0.000998 0.029879
v -0.018802 -0.000998 0.030019
v -0.002802 -0.000998 -0.016175
v -0.005802 -0.000998 -0.017757
v -0.002791 -0.000998 -0.016238
v -0.002802 -0.000998 -0.019981
v -0.002756 -0.000998 -0.016301
v -0.002614 -0.000998 -0.016430
v 0.000505 -0.000998 -0.017209
v -0.000802 -0.000998 -0.019981
v 0.006198 -0.000998 -0.019981
v -0.000802 -0.000998 -0.026981
v 0.006198 -0.000998 -0.026981
v 0.008198 -0.000998 -0.019981
v 0.010240 -0.000998 -0.017979
v 0.011198 -0.000998 -0.018978
v 0.010596 -0.000998 -0.018061
v 0.010920 -0.000998 -0.018286
v 0.011131 -0.000998 -0.018619
v 0.011198 -0.000998 -0.024981
v 0.010612 -0.000998 -0.026395
v 0.009934 -0.000998 -0.026840
v 0.011058 -0.000998 -0.025717
v 0.009198 -0.000998 -0.026981
v 0.008198 -0.000998 -0.026981
v -0.002802 -0.000998 -0.026981
v -0.003802 -0.000998 -0.026981
v -0.004538 -0.000998 -0.026840
v -0.005802 -0.000998 -0.024981
v -0.005802 -0.000998 -0.018981
v -0.005216 -0.000998 -0.026395
v -0.005661 -0.000998 -0.025717
v -0.018456 -0.000998 -0.026523
v -0.020802 -0.000998 -0.025043
v -0.018711 -0.000998 -0.026864
v -0.020711 -0.000998 -0.024627
v -0.018802 -0.000998 -0.027279
v -0.019538 -0.000998 -0.029840
v -0.018802 -0.000998 -0.029981
v -0.020216 -0.000998 -0.029395
v -0.020802 -0.000998 -0.027981
v -0.020661 -0.000998 -0.028717
vn 0.000000 1.000000 0.000000
vn 0.000000 1.000000 0.000000
vn 0.000000 1.000000 0.000000
vn 0.000000 1.000000 0.000000
vn 0.000000 1.000000 0.000000
vn 0.000000 1.000000 0.000000
vn 0.000000 1.000000 0.000000
vn 0.000000 1.000000 0.000000
vn 0.000000 1.000000 0.000000
vn 0.000000 1.000000 0.000000
vn 0.000000 1.000000 0.000000
vn 0.000000 1.000000 0.000000
vn 0.000000 1.000000 0.000000
vn 0.000000 1.000000 0.000000
vn 0.000000 1.000000 0.000000
vn 0.000000 1.000000 0.000000
vn 0.000000 1.000000 0.000000
vn 0.000000 1.000000 0.000000
vn 0.000000 1.000000 0.000000
vn 0.000000 1.000000 0.000000
vn 0.000000 1.000000 0.000000
vn 0.000000 1.000000 0.000000
vn 0.000000 1.000000 0.000000
vn 0.000000 1.000000 0.000000
vn 0.000000 1.000000 0.000000
vn 0.000000 1.000000 0.000000
vn 0.000000 1.000000 0.000000
vn 0.000000 1.000000 0.000000
vn 0.000000 1.000000 0.000000
vn 0.000000 1.000000 0.000000
vn 0.000000 1.000000 0.000000
vn 0.000000 1.000000 0.000000
vn 0.000000 1.000000 0.000000
vn 0.000000 1.000000 0.000000
vn 0.000000 1.000000 0.000000
vn 0.000000 1.000000 0.000000
vn 0.000000 1.000000 0.000000
vn 0.000000 1.000000 0.000000
vn 0.000000 1.000000 0.000000
vn 0.000000 1.000000 0.000000
vn 0.000000 1.000000 0.000000
vn 0.000000 1.000000 0.000000
vn 0.000000 1.000000 0.000000
vn 0.000000 1.000000 0.000000
vn 0.000000 1.000000 0.000000
vn 0.000000 1.000000 0.000000
vn 0.000000 1.000000 0.000000
vn 0.000000 1.000000 0.000000
vn 0.000000 1.000000 0.000000
vn 0.000000 1.000000 0.000000
vn 0.000000 1.000000 0.000000
vn 0.000000 1.000000 0.000000
vn 0.000000 1.000000 0.000000
vn 0.000000 1.000000 0.000000
vn 0.000000 1.000000 0.000000
vn 0.000000 1.000000 0.000000
vn 0.000000 1.000000 0.000000
vn 0.000000 1.000000 0.000000
vn 0.000000 1.000000 0.000000
vn 0.000000 1.000000 0.000000
vn 0.000000 1.000000 0.000000
vn 0.000000 1.000000 0.000000
vn 0.000000 1.000000 0.000000
vn 0.000000 1.000000 0.000000
vn 0.000000 1.000000 0.000000
vn 0.000000 1.000000 0.000000
vn 0.000000 1.000000 0.000000
vn 0.000000 1.000000 0.000000
vn 0.000000 1.000000 0.000000
vn 0.000000 1.000000 0.000000
vn 0.000000 1.000000 0.000000
vn 0.000000 1.000000 0.000000
vn 0.000000 1.000000 0.000000
vn 0.000000 1.000000 0.000000
vn 0.000000 1.000000 0.000000
vn 0.000000 1.000000 0.000000
vn 0.000000 1.000000 0.000000
vn 0.000000 1.000000 0.000000
vn 0.000000 1.000000 0.000000
vn 0.000000 1.000000 0.000000
vn 0.000000 1.000000 0.000000
vn 0.000000 1.000000 0.000000
vn 0.000000 1.000000 0.000000
vn 0.000000 1.000000 0.000000
vn 0.000000 1.000000 0.000000
vn 0.000000 1.000000 0.000000
vn 0.000000 1.000000 0.000000
vn 0.000000 1.000000 0.000000
vn 0.000000 1.000000 0.000000
vn 0.000000 1.000000 0.000000
vn 0.000000 1.000000 0.000000
vn 0.000000 1.000000 0.000000
vn 0.000000 1.000000 0.000000
vn 0.000000 1.000000 0.000000
vn 0.000000 1.000000 0.000000
vn 0.000000 1.000000 0.000000
vn 0.000000 1.000000 0.000000
vn 0.000000 1.000000 0.000000
vn 0.000000 1.000000 0.000000
vn 0.000000 1.000000 0.000000
vn 0.000000 1.000000 0.000000
vn 0.000000 1.000000 0.000000
vn 0.000000 1.000000 0.000000
vn 0.000000 1.000000 0.000000
vn 0.000000 1.000000 0.000000
vn 0.000000 1.000000 0.000000
vn 0.000000 1.000000 0.000000
vn 0.000000 1.000000 0.000000
vn 0.000000 1.000000 0.000000
vn 0.000000 1.000000 0.000000
vn 0.000000 1.000000 0.000000
vn 0.000000 1.000000 0.000000
vn 0.000000 1.000000 0.000000
vn 0.000000 1.000000 0.000000
vn 0.000000 1.000000 0.000000
vn 0.000000 1.000000 0.000000
vn 0.000000 1.000000 0.000000
vn 0.000000 1.000000 0.000000
vn 0.000000 1.000000 0.000000
vn 0.000000 1.000000 0.000000
vn 0.000000 1.000000 0.000000
vn 0.000000 1.000000 0.000000
vn 0.000000 1.000000 0.000000
vn 0.000000 1.000000 0.000000
vn 0.000000 1.000000 0.000000
vn -1.000000 0.000000 0.000000
vn -1.000000 0.000000 0.000000
vn -1.000000 0.000000 0.000000
vn -1.000000 0.000000 0.000000
vn 0.000000 0.000000 -1.000000
vn 0.000000 0.000000 -1.000000
vn 0.000000 0.000000 -1.000000
vn 0.000000 0.000000 -1.000000
vn 1.000000 0.000000 0.000000
vn 1.000000 0.000000 0.000000
vn 1.000000 0.000000 0.000000
vn 1.000000 0.000000 0.000000
vn 0.000000 -0.000000 1.000000
vn 0.000000 -0.000000 1.000000
vn 0.000000 -0.000000 1.000000
vn 0.000000 -0.000000 1.000000
vn -1.000000 0.000000 0.000000
vn -1.000000 0.000000 0.000000
vn -1.000000 0.000000 0.000000
vn -1.000000 0.000000 0.000000
vn 0.000000 0.000000 -1.000000
vn 0.000000 0.000000 -1.000000
vn 0.000000 0.000000 -1.000000
vn 0.000000 0.000000 -1.000000
vn 1.000000 0.000000 0.000000
vn 1.000000 0.000000 0.000000
vn 1.000000 0.000000 0.000000
vn 1.000000 0.000000 0.000000
vn 0.000000 -0.000000 1.000000
vn 0.000000 -0.000000 1.000000
vn 0.000000 -0.000000 1.000000
vn 0.000000 -0.000000 1.000000
vn -0.691692 -0.000000 0.722192
vn -0.944918 -0.000000 0.327306
vn -0.691692 -0.000000 0.722192
vn -0.944918 -0.000000 0.327306
vn -0.999889 -0.000000 0.014900
vn -0.944649 0.000000 -0.328082
vn -0.999889 -0.000000 0.014900
vn -0.944649 0.000000 -0.328082
vn -0.658597 0.000000 -0.752496
vn -0.658597 0.000000 -0.752496
vn -1.000000 -0.000000 0.000100
vn -0.925024 -0.000000 0.379910
vn -1.000000 -0.000000 0.000100
vn -0.925024 -0.000000 0.379910
vn -0.699769 -0.000000 0.714369
vn -0.699769 -0.000000 0.714369
vn -0.363411 -0.000000 0.931629
vn -0.363411 -0.000000 0.931629
vn -0.000100 -0.000000 1.000000
vn -0.000100 -0.000000 1.000000
vn 1.000000 0.000000 0.000000
vn 1.000000 0.000000 0.000000
vn 1.000000 0.000000 0.000000
vn 1.000000 0.000000 0.000000
vn -0.000100 0.000000 -1.000000
vn -0.379910 0.000000 -0.925024
vn -0.000100 0.000000 -1.000000
vn -0.379910 0.000000 -0.925024
vn -0.714369 0.000000 -0.699769
vn -0.714369 0.000000 -0.699769
vn -0.931595 0.000000 -0.363498
vn -0.931595 0.000000 -0.363498
vn -1.000000 -0.000100 -0.000100
vn -1.000000 0.000000 -0.000100
vn 1.000000 0.000000 0.000000
vn 1.000000 0.000000 0.000000
vn 1.000000 0.000000 0.000000
vn 1.000000 0.000000 0.000000
vn -1.000000 -0.000000 0.000100
vn -0.925024 -0.000000 0.379910
vn -1.000000 -0.000000 0.000100
vn -0.925024 -0.000000 0.379910
vn -0.699769 -0.000000 0.714369
vn -0.699769 -0.000000 0.714369
vn -0.363411 -0.000000 0.931629
vn -0.363411 -0.000000 0.931629
vn -0.000100 -0.000000 1.000000
vn -0.000100 -0.000000 1.000000
vn 0.000000 -0.000000 1.000000
vn 0.000000 -0.000000 1.000000
vn 0.000000 -0.000000 1.000000
vn 0.000000 -0.000000 1.000000
vn 1.000000 0.000000 0.000000
vn 1.000000 0.000000 0.000000
vn 1.000000 0.000000 0.000000
vn 1.000000 0.000000 0.000000
vn 0.000000 -0.000000 1.000000
vn 0.000000 -0.000000 1.000000
vn 0.000000 -0.000000 1.000000
vn 0.000000 -0.000000 1.000000
vn -1.000000 0.000000 0.000000
vn -1.000000 0.000000 0.000000
vn -1.000000 0.000000 0.000000
vn -1.000000 0.000000 0.000000
vn 0.000000 -0.000000 1.000000
vn 0.000000 -0.000000 1.000000
vn 0.000000 -0.000000 1.000000
vn 0.000000 -0.000000 1.000000
vn 1.000000 0.000000 0.000000
vn 1.000000 0.000000 0.000000
vn 1.000000 0.000000 0.000000
vn 1.000000 0.000000 0.000000
vn 0.000000 -0.000000 1.000000
vn 0.000000 -0.000000 1.000000
vn 0.000000 -0.000000 1.000000
vn 0.000000 -0.000000 1.000000
vn -1.000000 0.000000 0.000000
vn -1.000000 0.000000 0.000000
vn -1.000000 0.000000 0.000000
vn -1.000000 0.000000 0.000000
vn 0.000000 -0.000000 1.000000
vn 0.000000 -0.000000 1.000000
vn 0.000000 -0.000000 1.000000
vn 0.000000 -0.000000 1.000000
vn 0.000100 -0.000000 1.000000
vn 0.379910 -0.000000 0.925024
vn 0.000100 -0.000000 1.000000
vn 0.379910 -0.000000 0.925024
vn 0.714468 -0.000000 0.699668
vn 0.714468 -0.000000 0.699668
vn 0.931629 -0.000000 0.363411
vn 0.931629 -0.000000 0.363411
vn 1.000000 -0.000100 0.000100
vn 1.000000 -0.000000 0.000100
vn 1.000000 0.000000 0.000000
vn 1.000000 0.000000 0.000000
vn 1.000000 0.000000 0.000000
vn 1.000000 0.000000 0.000000
vn 1.000000 0.000000 -0.000100
vn 0.925024 0.000000 -0.379910
vn 1.000000 0.000000 -0.000100
vn 0.925024 0.000000 -0.379910
vn 0.699769 0.000000 -0.714369
vn 0.699769 0.000000 -0.714369
vn 0.363498 0.000000 -0.931595
vn 0.363498 0.000000 -0.931595
vn 0.000100 0.000000 -1.000000
vn 0.000100 0.000000 -1.000000
vn 0.000000 0.000000 -1.000000
vn 0.000000 0.000000 -1.000000
vn 0.000000 0.000000 -1.000000
vn 0.000000 0.000000 -1.000000
vn -1.000000 0.000000 0.000000
vn -1.000000 0.000000 0.000000
vn -1.000000 0.000000 0.000000
vn -1.000000 0.000000 0.000000
vn 0.000000 0.000000 -1.000000
vn 0.000000 0.000000 -1.000000
vn 0.000000 0.000000 -1.000000
vn 0.000000 0.000000 -1.000000
vn 1.000000 0.000000 0.000000
vn 1.000000 0.000000 0.000000
vn 1.000000 0.000000 0.000000
vn 1.000000 0.000000 0.000000
vn 0.000000 0.000000 -1.000000
vn 0.000000 0.000000 -1.000000
vn 0.000000 0.000000 -1.000000
vn 0.000000 0.000000 -1.000000
vn -1.000000 0.000000 0.000000
vn -1.000000 0.000000 0.000000
vn -1.000000 0.000000 0.000000
vn -1.000000 0.000000 0.000000
vn 0.000000 0.000000 -1.000000
vn 0.000000 0.000000 -1.000000
vn 0.000000 0.000000 -1.000000
vn 0.000000 0.000000 -1.000000
vn 1.000000 0.000000 0.000000
vn 1.000000 0.000000 0.000000
vn 1.000000 0.000000 0.000000
vn 1.000000 0.000000 0.000000
vn 0.000000 0.000000 -1.000000
vn 0.000000 0.000000 -1.000000
vn 0.000000 0.000000 -1.000000
vn 0.000000 0.000000 -1.000000
vn -0.000100 0.000000 -1.000000
vn -0.379910 0.000000 -0.925024
vn -0.000100 0.000000 -1.000000
vn -0.379910 0.000000 -0.925024
vn -0.714369 0.000000 -0.699769
vn -0.714369 0.000000 -0.699769
vn -0.931595 0.000000 -0.363498
vn -0.931595 0.000000 -0.363498
vn -1.000000 -0.000100 -0.000100
vn -1.000000 0.000000 -0.000100
vn 1.000000 0.000000 0.000000
vn 1.000000 0.000000 0.000000
vn 1.000000 0.000000 0.000000
vn 1.000000 0.000000 0.000000
vn 1.000000 0.000000 0.000000
vn 1.000000 0.000000 0.000000
vn 1.000000 0.000000 0.000000
vn 1.000000 0.000000 0.000000
vn 1.000000 0.000000 0.000000
vn 1.000000 0.000000 0.000000
vn 1.000000 0.000000 0.000000
vn 1.000000 0.000000 0.000000
vn 1.000000 0.000000 0.000000
vn 1.000000 0.000000 0.000000
vn 1.000000 0.000000 0.000000
vn 1.000000 0.000000 0.000000
vn 1.000000 0.000000 0.000000
vn 1.000000 0.000000 0.000000
vn 1.000000 0.000000 0.000000
vn 1.000000 0.000000 0.000000
vn 1.000000 -0.000000 0.000100
vn 0.933106 -0.000000 0.359602
vn 1.000000 -0.000000 0.000100
vn 0.933106 -0.000000 0.359602
vn 0.721703 -0.000000 0.692203
vn 0.721703 -0.000000 0.692203
vn 0.398115 -0.000000 0.917335
vn 0.398115 -0.000000 0.917335
vn 0.216592 -0.000000 0.976262
vn 0.216708 -0.000000 0.976236
vn 0.128206 -0.000000 0.991748
vn 0.084601 -0.000000 0.996415
vn 0.063399 0.000100 0.997988
vn 0.041901 -0.000000 0.999122
vn 0.052800 -0.000500 0.998605
vn 0.041701 -0.000000 0.999130
vn 0.041502 -0.000000 0.999138
vn 0.052701 -0.000000 0.998610
vn 0.063499 -0.000000 0.997982
vn 0.062602 -0.000000 0.998039
vn 0.084701 -0.000000 0.996406
vn 0.084899 -0.000000 0.996390
vn 0.128304 -0.000000 0.991735
vn 0.128304 -0.000000 0.991735
vn 0.041701 -0.000000 0.999130
vn 1.000000 0.000000 -0.000100
vn 0.933106 0.000000 -0.359602
vn 1.000000 0.000000 -0.000100
vn 0.933106 0.000000 -0.359602
vn 0.721703 0.000000 -0.692203
vn 0.721703 0.000000 -0.692203
vn 0.398115 0.000000 -0.917335
vn 0.216708 0.000000 -0.976236
vn 0.041701 0.000000 -0.999130
vn 0.398115 0.000000 -0.917335
vn 0.041901 -0.000100 -0.999122
vn 0.084601 0.000000 -0.996415
vn 0.128304 0.000000 -0.991735
vn 0.216592 0.000000 -0.976262
vn 0.063399 0.000000 -0.997988
vn 0.062602 0.000000 -0.998039
vn 0.052202 0.000000 -0.998637
vn 0.052701 0.000000 -0.998610
vn 0.041302 0.000000 -0.999147
vn 0.041502 0.000000 -0.999138
vn 0.084800 0.000000 -0.996398
vn 0.128206 0.000000 -0.991748
vn 0.063598 0.000000 -0.997976
vn 0.084899 0.000000 -0.996390
vn 0.128304 0.000000 -0.991735
vn 1.000000 0.000000 -0.000100
vn 0.933106 0.000000 -0.359602
vn 1.000000 0.000000 -0.000100
vn 0.933106 0.000000 -0.359602
vn 0.721703 0.000000 -0.692203
vn 0.721703 0.000000 -0.692203
vn 0.398115 0.000000 -0.917335
vn 0.398199 0.000000 -0.917299
vn 0.216592 0.000000 -0.976262
vn 0.041701 0.000000 -0.999130
vn 0.128304 0.000100 -0.991735
vn 0.041701 0.000000 -0.999130
vn 0.039700 0.000000 -0.999212
vn 0.052701 0.000000 -0.998610
vn 0.084601 0.000000 -0.996415
vn 0.063399 0.000000 -0.997988
vn 0.084601 0.000000 -0.996415
vn 0.063200 0.000000 -0.998001
vn 0.084800 0.000100 -0.996398
vn 0.063200 0.000100 -0.998001
vn 0.052401 -0.000100 -0.998626
vn 0.041502 -0.000100 -0.999138
vn 0.128304 0.000000 -0.991735
vn 0.216592 0.000000 -0.976262
vn 0.128304 0.000000 -0.991735
vn 1.000000 -0.000000 0.000100
vn 0.933106 -0.000000 0.359602
vn 1.000000 -0.000000 0.000100
vn 0.933106 -0.000000 0.359602
vn 0.721703 -0.000000 0.692203
vn 0.721703 -0.000000 0.692203
vn 0.398115 -0.000000 0.917335
vn 0.041601 -0.000000 0.999134
vn 0.398115 -0.000000 0.917335
vn 0.216708 -0.000000 0.976236
vn 0.216592 -0.000000 0.976262
vn 0.128206 -0.000000 0.991748
vn 0.084601 -0.000000 0.996415
vn 0.063399 0.000100 0.997988
vn 0.062602 -0.000000 0.998039
vn 0.053299 -0.000200 0.998579
vn 0.039101 -0.000000 0.999235
vn 0.051299 -0.000000 0.998683
vn 0.063399 -0.000000 0.997988
vn 0.041601 -0.000000 0.999134
vn 0.128304 -0.000000 0.991735
vn 0.084800 -0.000000 0.996398
vn 0.041701 -0.000000 0.999130
vn 0.128304 -0.000000 0.991735
vn 0.084899 -0.000000 0.996390
vn -0.654481 -0.000000 0.756078
vn -0.654481 -0.000000 0.756078
vn -0.654481 -0.000000 0.756078
vn -0.654481 -0.000000 0.756078
vn -0.654481 -0.000000 0.756078
vn -0.654481 -0.000000 0.756078
vn -0.654481 -0.000000 0.756078
vn -0.654481 -0.000000 0.756078
vn -0.654481 -0.000000 0.756078
vn -0.654481 -0.000000 0.756078
vn -0.654481 -0.000000 0.756078
vn -0.654481 -0.000000 0.756078
vn -0.654481 -0.000000 0.756078
vn -0.654481 0.000000 -0.756078
vn -0.654481 0.000000 -0.756078
vn -0.654481 0.000000 -0.756078
vn -0.654481 0.000000 -0.756078
vn 0.654481 -0.000000 0.756078
vn 0.654481 -0.000000 0.756078
vn 0.654481 -0.000000 0.756078
vn 0.654481 -0.000000 0.756078
vn -1.000000 0.000000 0.000000
vn -1.000000 0.000000 0.000000
vn -1.000000 0.000000 0.000000
vn -1.000000 0.000000 0.000000
vn -1.000000 0.000000 0.000000
vn -1.000000 0.000000 0.000000
vn 0.654424 -0.000000 0.756128
vn 0.191806 -0.000000 0.981433
vn 0.654424 -0.000000 0.756128
vn 0.191806 -0.000000 0.981433
vn -0.109905 -0.000000 0.993942
vn -0.109905 -0.000000 0.993942
vn -0.415618 -0.000000 0.909539
vn -0.679538 -0.000000 0.733641
vn -0.415618 -0.000000 0.909539
vn -0.679538 -0.000000 0.733641
vn -0.867584 -0.000000 0.497291
vn -1.000000 -0.000000 0.000100
vn -0.867584 -0.000000 0.497291
vn -1.000000 -0.000000 0.000100
vn 1.000000 -0.000000 0.000100
vn 0.909539 -0.000000 0.415618
vn 1.000000 -0.000000 0.000100
vn 0.909539 -0.000000 0.415618
vn 0.654588 -0.000000 0.755986
vn 0.654588 -0.000000 0.755986
vn -1.000000 0.000000 0.000000
vn -1.000000 0.000000 0.000000
vn -1.000000 0.000000 0.000000
vn -1.000000 0.000000 0.000000
vn -1.000000 0.000000 -0.000100
vn -0.909539 0.000000 -0.415618
vn -1.000000 0.000000 -0.000100
vn -0.909539 0.000000 -0.415618
vn -0.654588 0.000000 -0.755986
vn -0.654588 0.000000 -0.755986
vn 0.654481 0.000000 -0.756078
vn 0.654481 0.000000 -0.756078
vn 0.654481 0.000000 -0.756078
vn 0.654481 0.000000 -0.756078
vn -1.000000 0.000000 0.000000
vn -1.000000 0.000000 0.000000
vn -1.000000 0.000000 0.000000
vn -1.000000 0.000000 0.000000
vn -1.000000 0.000000 0.000000
vn -1.000000 0.000000 0.000000
vn -1.000000 0.000000 0.000000
vn -1.000000 0.000000 0.000000
vn -1.000000 0.000000 0.000000
vn -1.000000 0.000000 0.000000
vn 1.000000 0.000000 -0.000100
vn 0.909501 0.000000 -0.415701
vn 1.000000 0.000000 -0.000100
vn 0.909501 0.000000 -0.415701
vn 0.654588 0.000000 -0.755986
vn 0.654588 0.000000 -0.755986
vn -1.000000 -0.000000 0.000100
vn -0.909501 -0.000000 0.415701
vn -1.000000 -0.000000 0.000100
vn -0.909501 -0.000000 0.415701
vn -0.654588 -0.000000 0.755986
vn -0.654588 -0.000100 0.755986
vn 0.654424 0.000000 -0.756128
vn 0.191806 0.000000 -0.981433
vn 0.654424 0.000000 -0.756128
vn 0.191806 0.000000 -0.981433
vn -0.110003 0.000000 -0.993931
vn -0.110003 0.000000 -0.993931
vn -0.415618 0.000000 -0.909539
vn -0.415618 0.000000 -0.909539
vn -0.679591 0.000000 -0.733591
vn -0.679591 0.000000 -0.733591
vn -0.867584 0.000000 -0.497291
vn -0.867584 0.000000 -0.497291
vn -1.000000 0.000000 -0.000100
vn -1.000000 0.000000 -0.000100
vn 0.096998 0.000000 -0.995285
vn 0.097098 0.000000 -0.995275
vn 0.169391 0.000000 -0.985549
vn 0.148404 -0.000100 -0.988927
vn 0.267608 0.000000 -0.963528
vn 0.208791 0.000000 -0.977960
vn 0.380322 0.000000 -0.924854
vn 0.688108 0.000000 -0.725608
vn 0.473814 0.000000 -0.880625
vn 0.473814 0.000000 -0.880625
vn 0.765015 -0.000100 -0.644013
vn 1.000000 -0.000100 -0.000100
vn 0.893184 0.000000 -0.449692
vn 0.765015 0.000000 -0.644013
vn 1.000000 0.000000 -0.000100
vn 0.765246 -0.000000 0.643738
vn 0.765287 -0.000100 0.643689
vn 0.474130 -0.000000 0.880455
vn 0.474088 -0.000000 0.880478
vn 0.275593 -0.000000 0.961275
vn 0.174202 -0.000000 0.984710
vn 0.208791 -0.000000 0.977960
vn 0.380287 -0.000000 0.924869
vn 0.688108 -0.000000 0.725608
vn 0.893184 -0.000000 0.449692
vn 1.000000 0.000000 0.000000
vn 0.148194 -0.000500 0.988958
vn 0.097098 -0.000000 0.995275
vn 0.097098 -0.000000 0.995275
vn 0.096998 -0.000000 0.995285
vn 0.096998 0.000000 -0.995285
vn 0.041701 -0.000000 0.999130
vn 0.041701 -0.000000 0.999130
vn 0.053299 -0.000000 0.998579
vn 0.053299 -0.000000 0.998579
vn 0.047100 -0.000000 0.998890
vn 0.053299 -0.000000 0.998579
vn 0.070501 -0.000300 0.997512
vn 0.058300 -0.000200 0.998299
vn 0.049598 -0.000100 0.998769
vn 0.047100 -0.000100 0.998890
vn 0.044401 -0.000000 0.999014
vn 0.044401 -0.000000 0.999014
vn 0.042699 -0.000000 0.999088
vn 0.042999 0.000100 0.999075
vn 0.042400 -0.000000 0.999101
vn 0.042300 -0.000000 0.999105
vn 0.042001 0.000200 0.999118
vn 0.041701 0.000100 0.999130
vn 0.041801 -0.000000 0.999126
vn 0.042300 -0.000000 0.999105
vn 0.042200 -0.000300 0.999109
vn 0.043099 -0.000100 0.999071
vn 0.044401 -0.000100 0.999014
vn 0.078700 0.000100 0.996898
vn 0.091996 0.000300 0.995759
vn 0.105304 -0.000100 0.994440
vn 0.120403 -0.000300 0.992725
vn 0.142793 -0.000100 0.989753
vn 0.309199 -0.000100 0.950997
vn 0.160603 0.000100 0.987019
vn 0.338698 0.000500 0.940895
vn 0.560594 0.000700 0.828091
vn 0.597997 0.001700 0.801496
vn 0.809083 -0.002600 0.587688
vn 0.834503 -0.001100 0.551002
vn 0.950178 -0.002900 0.311693
vn 1.000000 -0.000700 -0.000100
vn 0.940646 -0.002300 0.339381
vn 0.999999 -0.001200 -0.000000
vn 0.940681 -0.000400 -0.339293
vn 0.950212 -0.000900 -0.311604
vn 0.809003 -0.001600 -0.587802
vn 0.834381 0.001000 -0.551187
vn 0.597997 0.001800 -0.801496
vn 0.560593 -0.001000 -0.828091
vn 0.338698 0.000600 -0.940895
vn 0.309199 -0.000100 -0.950997
vn 0.160603 0.000400 -0.987019
vn 0.142793 -0.000100 -0.989753
vn 0.120403 0.000000 -0.992725
vn 0.091996 0.000300 -0.995759
vn 0.105304 -0.000100 -0.994440
vn 0.078700 0.000100 -0.996898
vn 0.070501 -0.000300 -0.997512
vn 0.058300 -0.000200 -0.998299
vn 0.053299 0.000100 -0.998579
vn 0.049598 -0.000100 -0.998769
vn 0.042999 0.000000 -0.999075
vn 0.047100 0.000000 -0.998890
vn 0.042300 0.000000 -0.999105
vn 0.044401 0.000000 -0.999014
vn 0.041701 0.000100 -0.999130
vn 0.041801 0.000000 -0.999126
vn 0.041801 0.000000 -0.999126
vn 0.042300 0.000000 -0.999105
vn 0.041701 0.000000 -0.999130
vn 0.042799 -0.000300 -0.999084
vn 0.042400 0.000000 -0.999101
vn 0.044401 -0.000100 -0.999014
vn 0.043199 -0.000100 -0.999067
vn 0.053299 0.000000 -0.998579
vn 0.041701 0.000000 -0.999130
vn 0.047100 0.000000 -0.998890
vn 0.053299 0.000000 -0.998579
vn 0.044700 0.000000 -0.999000
vn 0.043199 0.000000 -0.999067
vn 0.169391 0.000000 -0.985549
vn 0.096998 0.000000 -0.995285
vn 0.097098 0.000000 -0.995275
vn 0.148404 -0.000100 -0.988927
vn 0.267608 0.000000 -0.963528
vn 0.208791 0.000000 -0.977960
vn 0.380287 0.000000 -0.924869
vn 0.688108 0.000000 -0.725608
vn 0.473814 0.000000 -0.880625
vn 0.473814 0.000000 -0.880625
vn 0.765015 -0.000100 -0.644013
vn 1.000000 -0.000100 -0.000100
vn 0.893184 0.000000 -0.449692
vn 0.765015 0.000000 -0.644013
vn 1.000000 0.000000 -0.000100
vn 0.765246 -0.000000 0.643738
vn 0.765196 -0.000000 0.643797
vn 0.474130 -0.000000 0.880455
vn 0.474088 -0.000000 0.880478
vn 0.275593 -0.000000 0.961275
vn 0.174202 -0.000000 0.984710
vn 0.208791 -0.000000 0.977960
vn 0.380322 -0.000000 0.924854
vn 0.688058 -0.000000 0.725656
vn 0.893184 -0.000000 0.449692
vn 1.000000 0.000000 0.000000
vn 0.148194 -0.000500 0.988958
vn 0.097098 -0.000000 0.995275
vn 0.097098 -0.000000 0.995275
vn 0.096998 -0.000000 0.995285
vn 0.096998 0.000000 -0.995285
vn 0.042001 0.000100 -0.999118
vn 0.042300 0.000000 -0.999105
vn 0.042001 0.000300 -0.999118
vn 0.049598 -0.000100 -0.998769
vn 0.041901 0.000000 -0.999122
vn 0.042300 0.000000 -0.999105
vn 0.041701 0.000000 -0.999130
vn 0.041901 -0.000400 -0.999122
vn 0.042400 0.000000 -0.999101
vn 0.042999 0.000100 -0.999075
vn 0.044401 0.000000 -0.999014
vn 0.043199 0.000000 -0.999067
vn 0.043099 -0.000100 -0.999071
vn 0.044301 0.000000 -0.999018
vn 0.044700 0.000000 -0.999000
vn 0.047100 0.000000 -0.998890
vn 0.047100 0.000000 -0.998890
vn 0.053299 0.000100 -0.998579
vn 0.053299 0.000000 -0.998579
vn 0.058300 -0.000200 -0.998299
vn 0.070501 -0.000200 -0.997512
vn 0.091996 0.000300 -0.995759
vn 0.078700 0.000200 -0.996898
vn 0.105304 0.000300 -0.994440
vn 0.142695 0.000000 -0.989767
vn 0.120403 -0.000100 -0.992725
vn 0.160603 -0.000100 -0.987019
vn 0.309199 0.000100 -0.950997
vn 0.338698 0.000700 -0.940895
vn 0.597997 0.002100 -0.801496
vn 0.560525 0.001100 -0.828137
vn 0.808921 0.001100 -0.587916
vn 0.940649 0.000000 -0.339382
vn 0.834456 0.001700 -0.551071
vn 0.950182 -0.001000 -0.311694
vn 0.999996 -0.003000 -0.000000
vn 0.999995 -0.003100 -0.000000
vn 0.950202 -0.004600 0.311601
vn 0.834458 -0.000100 0.551072
vn 0.940671 -0.004500 0.339290
vn 0.809002 -0.002100 0.587802
vn 0.560705 -0.003600 0.828008
vn 0.598110 0.001100 0.801413
vn 0.338698 0.000800 0.940895
vn 0.160700 -0.000000 0.987003
vn 0.309109 0.000100 0.951027
vn 0.142695 -0.000400 0.989767
vn 0.105304 -0.000100 0.994440
vn 0.120403 -0.000500 0.992725
vn 0.091996 0.000300 0.995759
vn 0.078700 0.000100 0.996898
vn 0.070501 -0.000300 0.997512
vn 0.058300 -0.000200 0.998299
vn 0.053299 -0.000000 0.998579
vn 0.053299 -0.000000 0.998579
vn 0.047100 -0.000000 0.998890
vn 0.049598 -0.000200 0.998769
vn 0.047100 -0.000000 0.998890
vn 0.044401 -0.000000 0.999014
vn 0.044401 -0.000000 0.999014
vn 0.042699 -0.000000 0.999088
vn 0.042999 0.000100 0.999075
vn 0.042400 -0.000000 0.999101
vn 0.042300 -0.000000 0.999105
vn 0.042001 0.000200 0.999118
vn 0.041402 0.000100 0.999143
vn 0.041502 -0.000000 0.999138
vn 0.041701 -0.000000 0.999130
vn 0.041601 -0.000500 0.999134
vn 0.042300 -0.000000 0.999105
vn 0.043099 -0.000100 0.999071
vn 0.044401 -0.000100 0.999014
vn 0.041701 -0.000000 0.999130
vn 0.053299 -0.000000 0.998579
vn 0.053299 0.000000 -0.998579
vn 0.041701 0.000000 -0.999130
vn 0.000000 -1.000000 -0.000000
vn 0.000000 -1.000000 -0.000000
vn 0.000000 -1.000000 -0.000000
vn 0.000000 -1.000000 -0.000000
vn 0.000000 -1.000000 -0.000000
vn 0.000000 -1.000000 -0.000000
vn 0.000000 -1.000000 -0.000000
vn 0.000000 -1.000000 -0.000000
vn 0.000000 -1.000000 -0.000000
vn 0.000000 -1.000000 -0.000000
vn 0.000000 -1.000000 -0.000000
vn 0.000000 -1.000000 -0.000000
vn 0.000000 -1.000000 -0.000000
vn 0.000000 -1.000000 -0.000000
vn 0.000000 -1.000000 -0.000000
vn 0.000000 -1.000000 -0.000000
vn 0.000000 -1.000000 -0.000000
vn 0.000000 -1.000000 -0.000000
vn 0.000000 -1.000000 -0.000000
vn 0.000000 -1.000000 -0.000000
vn 0.000000 -1.000000 -0.000000
vn 0.000000 -1.000000 -0.000000
vn 0.000000 -1.000000 -0.000000
vn 0.000000 -1.000000 -0.000000
vn 0.000000 -1.000000 -0.000000
vn 0.000000 -1.000000 -0.000000
vn 0.000000 -1.000000 -0.000000
vn 0.000000 -1.000000 -0.000000
vn 0.000000 -1.000000 -0.000000
vn 0.000000 -1.000000 -0.000000
vn 0.000000 -1.000000 -0.000000
vn 0.000000 -1.000000 -0.000000
vn 0.000000 -1.000000 -0.000000
vn 0.000000 -1.000000 -0.000000
vn 0.000000 -1.000000 -0.000000
vn 0.000000 -1.000000 -0.000000
vn 0.000000 -1.000000 -0.000000
vn 0.000000 -1.000000 -0.000000
vn 0.000000 -1.000000 -0.000000
vn 0.000000 -1.000000 -0.000000
vn 0.000000 -1.000000 -0.000000
vn 0.000000 -1.000000 -0.000000
vn 0.000000 -1.000000 -0.000000
vn 0.000000 -1.000000 -0.000000
vn 0.000000 -1.000000 -0.000000
vn 0.000000 -1.000000 -0.000000
vn 0.000000 -1.000000 -0.000000
vn 0.000000 -1.000000 -0.000000
vn 0.000000 -1.000000 -0.000000
vn 0.000000 -1.000000 -0.000000
vn 0.000000 -1.000000 -0.000000
vn 0.000000 -1.000000 -0.000000
vn 0.000000 -1.000000 -0.000000
vn 0.000000 -1.000000 -0.000000
vn 0.000000 -1.000000 -0.000000
vn 0.000000 -1.000000 -0.000000
vn 0.000000 -1.000000 -0.000000
vn 0.000000 -1.000000 -0.000000
vn 0.000000 -1.000000 -0.000000
vn 0.000000 -1.000000 -0.000000
vn 0.000000 -1.000000 -0.000000
vn 0.000000 -1.000000 -0.000000
vn 0.000000 -1.000000 -0.000000
vn 0.000000 -1.000000 -0.000000
vn 0.000000 -1.000000 -0.000000
vn 0.000000 -1.000000 -0.000000
vn 0.000000 -1.000000 -0.000000
vn 0.000000 -1.000000 -0.000000
vn 0.000000 -1.000000 -0.000000
vn 0.000000 -1.000000 -0.000000
vn 0.000000 -1.000000 -0.000000
vn 0.000000 -1.000000 -0.000000
vn 0.000000 -1.000000 -0.000000
vn 0.000000 -1.000000 -0.000000
vn 0.000000 -1.000000 -0.000000
vn 0.000000 -1.000000 -0.000000
vn 0.000000 -1.000000 -0.000000
vn 0.000000 -1.000000 -0.000000
vn 0.000000 -1.000000 -0.000000
vn 0.000000 -1.000000 -0.000000
vn 0.000000 -1.000000 -0.000000
vn 0.000000 -1.000000 -0.000000
vn 0.000000 -1.000000 -0.000000
vn 0.000000 -1.000000 -0.000000
vn 0.000000 -1.000000 -0.000000
vn 0.000000 -1.000000 -0.000000
vn 0.000000 -1.000000 -0.000000
vn 0.000000 -1.000000 -0.000000
vn 0.000000 -1.000000 -0.000000
vn 0.000000 -1.000000 -0.000000
vn 0.000000 -1.000000 -0.000000
vn 0.000000 -1.000000 -0.000000
vn 0.000000 -1.000000 -0.000000
vn 0.000000 -1.000000 -0.000000
vn 0.000000 -1.000000 -0.000000
vn 0.000000 -1.000000 -0.000000
vn 0.000000 -1.000000 -0.000000
vn 0.000000 -1.000000 -0.000000
vn 0.000000 -1.000000 -0.000000
vn 0.000000 -1.000000 -0.000000
vn 0.000000 -1.000000 -0.000000
vn 0.000000 -1.000000 -0.000000
vn 0.000000 -1.000000 -0.000000
vn 0.000000 -1.000000 -0.000000
vn 0.000000 -1.000000 -0.000000
vn 0.000000 -1.000000 -0.000000
vn 0.000000 -1.000000 -0.000000
vn 0.000000 -1.000000 -0.000000
vn 0.000000 -1.000000 -0.000000
vn 0.000000 -1.000000 -0.000000
vn 0.000000 -1.000000 -0.000000
vn 0.000000 -1.000000 -0.000000
vn 0.000000 -1.000000 -0.000000
vn 0.000000 -1.000000 -0.000000
vn 0.000000 -1.000000 -0.000000
vn 0.000000 -1.000000 -0.000000
vn 0.000000 -1.000000 -0.000000
vn 0.000000 -1.000000 -0.000000
vn 0.000000 -1.000000 -0.000000
vn 0.000000 -1.000000 -0.000000
vn 0.000000 -1.000000 -0.000000
vn 0.000000 -1.000000 -0.000000
vn 0.000000 -1.000000 -0.000000
vn 0.000000 -1.000000 -0.000000
vn 0.000000 -1.000000 -0.000000
vn 0.000000 -1.000000 -0.000000
vn 0.000000 -1.000000 -0.000000
vn 0.000000 -1.000000 -0.000000
vn 0.000000 -1.000000 -0.000000
vn 0.000000 -1.000000 -0.000000
vn 0.000000 -1.000000 -0.000000
vn 0.000000 -1.000000 -0.000000
vn 0.000000 -1.000000 -0.000000
vn 0.000000 -1.000000 -0.000000
vn 0.000000 -1.000000 -0.000000
vn 0.000000 -1.000000 -0.000000
vn 0.000000 -1.000000 -0.000000
vn 0.000000 -1.000000 -0.000000
vn 0.000000 -1.000000 -0.000000
vn 0.000000 -1.000000 -0.000000
vn 0.000000 -1.000000 -0.000000
vn 0.000000 -1.000000 -0.000000
vn 0.000000 -1.000000 -0.000000
vn 0.000000 -1.000000 -0.000000
vn 0.000000 -1.000000 -0.000000
vn 0.000000 -1.000000 -0.000000
vn 0.000000 -1.000000 -0.000000
vn 0.000000 -1.000000 -0.000000
vn 0.000000 -1.000000 -0.000000
vn 0.000000 -1.000000 -0.000000
vn 0.000000 -1.000000 -0.000000
vn 0.000000 -1.000000 -0.000000
vn 0.000000 -1.000000 -0.000000
vn 0.000000 -1.000000 -0.000000
vn 0.000000 -1.000000 -0.000000
vn 0.000000 -1.000000 -0.000000
vn 0.000000 -1.000000 -0.000000
vn 0.000000 -1.000000 -0.000000
vn 0.000000 -1.000000 -0.000000
vn 0.000000 -1.000000 -0.000000
vn 0.000000 -1.000000 -0.000000
vn 0.000000 -1.000000 -0.000000
vn 0.000000 -1.000000 -0.000000
vn 0.000000 -1.000000 -0.000000
vn 0.000000 -1.000000 -0.000000
f 4//4 1//1 2//2
f 2//2 1//1 3//3
f 5//5 3//3 1//1
f 6//6 7//7 5//5
f 3//3 5//5 7//7
f 7//7 8//8 3//3
f 7//7 9//9 10//10
f 9//9 7//7 6//6
f 12//12 11//11 8//8
f 3//3 8//8 11//11
f 13//13 12//12 8//8
f 3//3 11//11 14//14
f 3//3 14//14 15//15
f 2//2 16//16 4//4
f 17//17 19//19 16//16
f 16//16 18//18 17//17
f 16//16 20//20 18//18
f 20//20 16//16 2//2
f 19//19 17//17 21//21
f 21//21 22//22 23//23
f 21//21 17//17 22//22
f 24//24 23//23 25//25
f 23//23 22//22 25//25
f 26//26 25//25 27//27
f 26//26 27//27 43//43
f 25//25 26//26 28//28
f 24//24 25//25 28//28
f 28//28 26//26 29//29
f 29//29 30//30 31//31
f 30//30 29//29 26//26
f 30//30 33//33 31//31
f 32//32 31//31 33//33
f 32//32 33//33 34//34
f 34//34 33//33 35//35
f 37//37 36//36 33//33
f 37//37 33//33 30//30
f 36//36 37//37 39//39
f 38//38 40//40 36//36
f 36//36 39//39 38//38
f 40//40 41//41 36//36
f 39//39 37//37 42//42
f 43//43 44//44 42//42
f 42//42 37//37 43//43
f 45//45 44//44 27//27
f 27//27 44//44 43//43
f 27//27 46//46 45//45
f 48//48 46//46 47//47
f 46//46 27//27 47//47
f 48//48 47//47 50//50
f 49//49 48//48 50//50
f 54//54 50//50 51//51
f 50//50 53//53 52//52
f 47//47 53//53 50//50
f 54//54 49//49 50//50
f 51//51 57//57 54//54
f 54//54 57//57 55//55
f 55//55 56//56 54//54
f 56//56 55//55 58//58
f 60//60 58//58 59//59
f 59//59 58//58 55//55
f 59//59 62//62 60//60
f 61//61 60//60 62//62
f 63//63 61//61 62//62
f 62//62 64//64 63//63
f 65//65 62//62 59//59
f 66//66 65//65 59//59
f 66//66 67//67 65//65
f 65//65 67//67 68//68
f 59//59 69//69 66//66
f 69//69 59//59 70//70
f 53//53 71//71 52//52
f 72//72 53//53 47//47
f 72//72 22//22 73//73
f 47//47 22//22 72//72
f 73//73 75//75 74//74
f 22//22 75//75 73//73
f 82//82 75//75 76//76
f 75//75 77//77 76//76
f 75//75 78//78 74//74
f 75//75 79//79 78//78
f 75//75 80//80 79//79
f 22//22 17//17 75//75
f 80//80 75//75 81//81
f 81//81 75//75 82//82
f 81//81 82//82 83//83
f 83//83 84//84 81//81
f 85//85 74//74 78//78
f 86//86 74//74 85//85
f 86//86 87//87 74//74
f 88//88 74//74 87//87
f 74//74 88//88 89//89
f 90//90 74//74 89//89
f 90//90 89//89 91//91
f 91//91 92//92 90//90
f 92//92 93//93 94//94
f 94//94 90//90 92//92
f 94//94 95//95 90//90
f 96//96 94//94 93//93
f 93//93 97//97 96//96
f 97//97 98//98 96//96
f 99//99 97//97 93//93
f 93//93 100//100 99//99
f 102//102 101//101 71//71
f 71//71 101//101 107//107
f 52//52 71//71 103//103
f 104//104 103//103 71//71
f 104//104 71//71 105//105
f 105//105 71//71 106//106
f 107//107 106//106 71//71
f 52//52 103//103 108//108
f 52//52 108//108 109//109
f 110//110 52//52 109//109
f 110//110 111//111 52//52
f 110//110 112//112 111//111
f 112//112 110//110 113//113
f 114//114 52//52 111//111
f 114//114 115//115 52//52
f 117//117 101//101 102//102
f 102//102 116//116 119//119
f 102//102 118//118 116//116
f 119//119 117//117 102//102
f 119//119 116//116 120//120
f 120//120 123//123 121//121
f 121//121 122//122 120//120
f 122//122 124//124 120//120
f 116//116 123//123 120//120
f 121//121 123//123 125//125
f 127//127 126//126 128//128
f 127//127 128//128 129//129
f 131//131 130//130 132//132
f 131//131 132//132 133//133
f 135//135 134//134 136//136
f 135//135 136//136 137//137
f 139//139 138//138 140//140
f 139//139 140//140 141//141
f 143//143 142//142 144//144
f 143//143 144//144 145//145
f 147//147 146//146 148//148
f 147//147 148//148 149//149
f 151//151 150//150 152//152
f 151//151 152//152 153//153
f 155//155 154//154 156//156
f 155//155 156//156 157//157
f 159//159 158//158 160//160
f 159//159 160//160 161//161
f 162//162 164//164 159//159
f 162//162 159//159 161//161
f 163//163 165//165 164//164
f 163//163 164//164 162//162
f 166//166 165//165 163//163
f 166//166 163//163 167//167
f 169//169 171//171 170//170
f 169//169 170//170 168//168
f 172//172 171//171 169//169
f 172//172 169//169 173//173
f 174//174 172//172 173//173
f 174//174 173//173 175//175
f 177//177 176//176 174//174
f 177//177 174//174 175//175
f 179//179 181//181 180//180
f 179//179 180//180 178//178
f 183//183 185//185 184//184
f 183//183 184//184 182//182
f 186//186 185//185 183//183
f 186//186 183//183 187//187
f 188//188 186//186 187//187
f 188//188 187//187 189//189
f 191//191 190//190 188//188
f 191//191 188//188 189//189
f 195//195 193//193 192//192
f 195//195 192//192 194//194
f 197//197 199//199 198//198
f 197//197 198//198 196//196
f 200//200 199//199 197//197
f 200//200 197//197 201//201
f 202//202 200//200 201//201
f 202//202 201//201 203//203
f 205//205 204//204 202//202
f 205//205 202//202 203//203
f 207//207 206//206 208//208
f 207//207 208//208 209//209
f 211//211 210//210 212//212
f 211//211 212//212 213//213
f 215//215 214//214 216//216
f 215//215 216//216 217//217
f 219//219 218//218 220//220
f 219//219 220//220 221//221
f 223//223 222//222 224//224
f 223//223 224//224 225//225
f 227//227 226//226 228//228
f 227//227 228//228 229//229
f 231//231 230//230 232//232
f 231//231 232//232 233//233
f 235//235 234//234 236//236
f 235//235 236//236 237//237
f 239//239 238//238 240//240
f 239//239 240//240 241//241
f 243//243 245//245 244//244
f 243//243 244//244 242//242
f 246//246 245//245 243//243
f 246//246 243//243 247//247
f 248//248 246//246 247//247
f 248//248 247//247 249//249
f 251//251 250//250 248//248
f 251//251 248//248 249//249
f 253//253 252//252 254//254
f 253//253 254//254 255//255
f 257//257 259//259 258//258
f 257//257 258//258 256//256
f 260//260 259//259 257//257
f 260//260 257//257 261//261
f 262//262 260//260 261//261
f 262//262 261//261 263//263
f 265//265 264//264 262//262
f 265//265 262//262 263//263
f 267//267 266//266 268//268
f 267//267 268//268 269//269
f 271//271 270//270 272//272
f 271//271 272//272 273//273
f 275//275 274//274 276//276
f 275//275 276//276 277//277
f 279//279 278//278 280//280
f 279//279 280//280 281//281
f 283//283 282//282 284//284
f 283//283 284//284 285//285
f 287//287 286//286 288//288
f 287//287 288//288 289//289
f 291//291 290//290 292//292
f 291//291 292//292 293//293
f 295//295 294//294 296//296
f 295//295 296//296 297//297
f 299//299 298//298 300//300
f 299//299 300//300 301//301
f 303//303 305//305 304//304
f 303//303 304//304 302//302
f 306//306 305//305 303//303
f 306//306 303//303 307//307
f 308//308 306//306 307//307
f 308//308 307//307 309//309
f 311//311 310//310 308//308
f 311//311 308//308 309//309
f 312//312 313//313 315//315
f 313//313 312//312 314//314
f 316//316 315//315 313//313
f 317//317 316//316 313//313
f 317//317 313//313 318//318
f 320//320 319//319 317//317
f 320//320 317//317 318//318
f 321//321 319//319 320//320
f 321//321 320//320 323//323
f 321//321 323//323 322//322
f 324//324 322//322 323//323
f 323//323 325//325 324//324
f 323//323 320//320 326//326
f 323//323 326//326 325//325
f 318//318 327//327 326//326
f 318//318 326//326 320//320
f 318//318 313//313 314//314
f 318//318 314//314 327//327
f 329//329 328//328 330//330
f 329//329 330//330 331//331
f 333//333 335//335 334//334
f 333//333 334//334 332//332
f 337//337 336//336 335//335
f 337//337 335//335 333//333
f 339//339 338//338 336//336
f 339//339 336//336 337//337
f 341//341 338//338 339//339
f 342//342 338//338 340//340
f 340//340 338//338 341//341
f 338//338 342//342 343//343
f 344//344 338//338 343//343
f 345//345 338//338 344//344
f 346//346 347//347 345//345
f 345//345 344//344 346//346
f 348//348 347//347 349//349
f 349//349 347//347 346//346
f 346//346 344//344 351//351
f 346//346 351//351 349//349
f 350//350 348//348 349//349
f 349//349 351//351 350//350
f 351//351 343//343 353//353
f 351//351 353//353 350//350
f 344//344 343//343 351//351
f 352//352 350//350 353//353
f 350//350 352//352 348//348
f 353//353 342//342 354//354
f 353//353 354//354 352//352
f 343//343 342//342 353//353
f 355//355 352//352 354//354
f 352//352 355//355 348//348
f 341//341 356//356 355//355
f 354//354 340//340 341//341
f 354//354 341//341 355//355
f 348//348 355//355 356//356
f 356//356 341//341 339//339
f 340//340 354//354 342//342
f 358//358 360//360 359//359
f 358//358 359//359 357//357
f 362//362 361//361 360//360
f 362//362 360//360 358//358
f 366//366 363//363 361//361
f 366//366 361//361 362//362
f 365//365 363//363 364//364
f 363//363 366//366 364//364
f 366//366 367//367 371//371
f 371//371 368//368 366//366
f 368//368 369//369 366//366
f 366//366 369//369 370//370
f 364//364 366//366 370//370
f 372//372 368//368 371//371
f 374//374 372//372 371//371
f 374//374 371//371 373//373
f 371//371 367//367 373//373
f 375//375 374//374 373//373
f 373//373 367//367 375//375
f 376//376 374//374 375//375
f 374//374 376//376 379//379
f 379//379 376//376 377//377
f 376//376 378//378 377//377
f 378//378 376//376 365//365
f 377//377 380//380 379//379
f 379//379 380//380 368//368
f 379//379 368//368 372//372
f 372//372 374//374 379//379
f 377//377 381//381 369//369
f 377//377 369//369 380//380
f 369//369 368//368 380//380
f 381//381 377//377 378//378
f 378//378 364//364 370//370
f 378//378 370//370 381//381
f 365//365 364//364 378//378
f 370//370 369//369 381//381
f 383//383 385//385 384//384
f 383//383 384//384 382//382
f 387//387 386//386 385//385
f 387//387 385//385 383//383
f 389//389 388//388 386//386
f 389//389 386//386 387//387
f 388//388 389//389 390//390
f 391//391 388//388 390//390
f 391//391 390//390 392//392
f 392//392 393//393 391//391
f 393//393 395//395 394//394
f 395//395 393//393 397//397
f 397//397 393//393 396//396
f 393//393 392//392 396//396
f 396//396 398//398 397//397
f 397//397 398//398 400//400
f 397//397 400//400 399//399
f 399//399 395//395 397//397
f 399//399 400//400 401//401
f 395//395 399//399 401//401
f 395//395 401//401 402//402
f 389//389 403//403 401//401
f 401//401 400//400 389//389
f 401//401 403//403 402//402
f 402//402 403//403 394//394
f 394//394 395//395 402//402
f 400//400 404//404 389//389
f 404//404 400//400 398//398
f 389//389 404//404 405//405
f 405//405 404//404 406//406
f 396//396 406//406 404//404
f 396//396 404//404 398//398
f 406//406 396//396 392//392
f 392//392 390//390 405//405
f 392//392 405//405 406//406
f 390//390 389//389 405//405
f 408//408 410//410 409//409
f 408//408 409//409 407//407
f 412//412 411//411 410//410
f 412//412 410//410 408//408
f 415//415 413//413 411//411
f 415//415 411//411 412//412
f 414//414 413//413 420//420
f 416//416 413//413 415//415
f 417//417 413//413 416//416
f 418//418 413//413 417//417
f 413//413 418//418 419//419
f 420//420 413//413 419//419
f 414//414 420//420 422//422
f 420//420 419//419 421//421
f 422//422 420//420 421//421
f 422//422 421//421 424//424
f 422//422 423//423 414//414
f 424//424 423//423 422//422
f 425//425 426//426 424//424
f 424//424 421//421 425//425
f 426//426 423//423 424//424
f 428//428 427//427 426//426
f 426//426 427//427 429//429
f 425//425 428//428 426//426
f 429//429 416//416 415//415
f 416//416 429//429 427//427
f 427//427 428//428 430//430
f 431//431 418//418 430//430
f 431//431 430//430 428//428
f 428//428 425//425 431//431
f 419//419 418//418 431//431
f 421//421 419//419 431//431
f 421//421 431//431 425//425
f 430//430 417//417 416//416
f 430//430 416//416 427//427
f 417//417 430//430 418//418
f 437//437 433//433 432//432
f 437//437 432//432 435//435
f 433//433 443//443 434//434
f 433//433 434//434 432//432
f 437//437 435//435 436//436
f 438//438 437//437 439//439
f 438//438 440//440 433//433
f 438//438 433//433 437//437
f 436//436 439//439 437//437
f 440//440 441//441 443//443
f 440//440 443//443 433//433
f 441//441 442//442 443//443
f 444//444 443//443 442//442
f 443//443 444//444 434//434
f 446//446 448//448 447//447
f 446//446 447//447 445//445
f 449//449 451//451 452//452
f 449//449 452//452 450//450
f 454//454 456//456 455//455
f 454//454 455//455 453//453
f 456//456 454//454 458//458
f 456//456 458//458 457//457
f 460//460 459//459 461//461
f 460//460 461//461 462//462
f 464//464 460//460 462//462
f 464//464 462//462 463//463
f 467//467 464//464 463//463
f 467//467 463//463 465//465
f 468//468 467//467 465//465
f 468//468 465//465 466//466
f 469//469 468//468 466//466
f 469//469 466//466 471//471
f 470//470 469//469 471//471
f 470//470 471//471 472//472
f 474//474 473//473 475//475
f 474//474 475//475 476//476
f 478//478 474//474 476//476
f 478//478 476//476 477//477
f 479//479 481//481 482//482
f 479//479 482//482 480//480
f 484//484 483//483 485//485
f 484//484 485//485 486//486
f 488//488 484//484 486//486
f 488//488 486//486 487//487
f 490//490 489//489 491//491
f 490//490 491//491 492//492
f 494//494 496//496 495//495
f 494//494 495//495 493//493
f 496//496 494//494 498//498
f 496//496 498//498 497//497
f 500//500 499//499 501//501
f 500//500 501//501 502//502
f 504//504 503//503 505//505
f 504//504 505//505 506//506
f 508//508 504//504 506//506
f 508//508 506//506 507//507
f 510//510 509//509 511//511
f 510//510 511//511 512//512
f 514//514 510//510 512//512
f 514//514 512//512 513//513
f 516//516 515//515 517//517
f 516//516 517//517 518//518
f 520//520 516//516 518//518
f 520//520 518//518 519//519
f 522//522 520//520 519//519
f 522//522 519//519 521//521
f 524//524 522//522 521//521
f 524//524 521//521 523//523
f 526//526 524//524 523//523
f 526//526 523//523 525//525
f 528//528 526//526 525//525
f 528//528 525//525 527//527
f 530//530 531//531 529//529
f 531//531 530//530 532//532
f 532//532 534//534 531//531
f 533//533 531//531 534//534
f 533//533 534//534 535//535
f 537//537 533//533 535//535
f 536//536 537//537 535//535
f 537//537 538//538 533//533
f 539//539 542//542 538//538
f 539//539 538//538 537//537
f 536//536 539//539 537//537
f 539//539 541//541 540//540
f 540//540 543//543 542//542
f 540//540 542//542 539//539
f 539//539 536//536 541//541
f 545//545 544//544 543//543
f 545//545 543//543 540//540
f 547//547 546//546 544//544
f 547//547 544//544 545//545
f 548//548 546//546 547//547
f 551//551 548//548 547//547
f 549//549 548//548 550//550
f 550//550 548//548 551//551
f 552//552 551//551 547//547
f 553//553 552//552 545//545
f 552//552 547//547 545//545
f 545//545 540//540 553//553
f 540//540 554//554 553//553
f 554//554 540//540 541//541
f 555//555 549//549 550//550
f 556//556 555//555 557//557
f 549//549 555//555 556//556
f 549//549 556//556 558//558
f 530//530 559//559 532//532
f 561//561 560//560 562//562
f 561//561 562//562 563//563
f 565//565 564//564 563//563
f 563//563 564//564 561//561
f 565//565 569//569 564//564
f 566//566 567//567 565//565
f 565//565 567//567 568//568
f 569//569 565//565 568//568
f 570//570 582//582 564//564
f 570//570 564//564 569//569
f 569//569 571//571 570//570
f 569//569 568//568 571//571
f 572//572 581//581 570//570
f 572//572 570//570 571//571
f 571//571 573//573 572//572
f 573//573 571//571 568//568
f 573//573 575//575 574//574
f 574//574 579//579 572//572
f 574//574 572//572 573//573
f 575//575 573//573 568//568
f 576//576 580//580 574//574
f 576//576 574//574 575//575
f 577//577 576//576 575//575
f 568//568 577//577 575//575
f 576//576 577//577 578//578
f 579//579 580//580 578//578
f 578//578 561//561 579//579
f 576//576 578//578 580//580
f 580//580 579//579 574//574
f 579//579 561//561 581//581
f 572//572 579//579 581//581
f 581//581 561//561 582//582
f 582//582 570//570 581//581
f 564//564 582//582 561//561
f 567//567 566//566 583//583
f 566//566 584//584 583//583
f 584//584 585//585 583//583
f 585//585 584//584 586//586
f 586//586 587//587 585//585
f 588//588 587//587 589//589
f 586//586 589//589 587//587
f 590//590 588//588 589//589
f 590//590 591//591 588//588
f 591//591 590//590 592//592
f 592//592 593//593 591//591
f 593//593 592//592 594//594
f 593//593 594//594 595//595
f 593//593 595//595 597//597
f 596//596 598//598 595//595
f 597//597 595//595 598//598
f 598//598 596//596 600//600
f 598//598 600//600 599//599
f 600//600 602//602 599//599
f 599//599 602//602 601//601
f 603//603 601//601 602//602
f 603//603 604//604 601//601
f 604//604 603//603 605//605
f 604//604 605//605 606//606
f 606//606 605//605 607//607
f 608//608 606//606 607//607
f 609//609 608//608 607//607
f 611//611 609//609 610//610
f 609//609 611//611 608//608
f 610//610 612//612 611//611
f 610//610 613//613 612//612
f 614//614 612//612 613//613
f 616//616 614//614 615//615
f 614//614 613//613 615//615
f 616//616 617//617 619//619
f 620//620 617//617 616//616
f 615//615 618//618 616//616
f 616//616 618//618 620//620
f 616//616 619//619 621//621
f 619//619 622//622 621//621
f 622//622 623//623 621//621
f 626//626 624//624 623//623
f 624//624 625//625 623//623
f 622//622 626//626 623//623
f 624//624 626//626 627//627
f 619//619 627//627 626//626
f 619//619 626//626 622//622
f 617//617 627//627 619//619
f 617//617 635//635 624//624
f 617//617 624//624 627//627
f 628//628 632//632 625//625
f 628//628 625//625 629//629
f 625//625 624//624 629//629
f 633//633 630//630 625//625
f 630//630 631//631 625//625
f 632//632 633//633 625//625
f 633//633 632//632 615//615
f 618//618 615//615 632//632
f 618//618 632//632 628//628
f 618//618 628//628 634//634
f 628//628 629//629 634//634
f 620//620 634//634 629//629
f 620//620 629//629 635//635
f 635//635 629//629 624//624
f 617//617 620//620 635//635
f 620//620 618//618 634//634
f 636//636 637//637 639//639
f 637//637 636//636 638//638
f 639//639 641//641 636//636
f 640//640 636//636 641//641
f 640//640 641//641 642//642
f 644//644 640//640 642//642
f 642//642 643//643 644//644
f 644//644 645//645 640//640
f 646//646 649//649 645//645
f 646//646 645//645 644//644
f 643//643 646//646 644//644
f 646//646 648//648 647//647
f 647//647 650//650 649//649
f 647//647 649//649 646//646
f 648//648 646//646 643//643
f 652//652 651//651 650//650
f 652//652 650//650 647//647
f 654//654 653//653 651//651
f 654//654 651//651 652//652
f 655//655 653//653 654//654
f 658//658 655//655 654//654
f 656//656 655//655 657//657
f 657//657 655//655 658//658
f 659//659 658//658 654//654
f 659//659 652//652 660//660
f 659//659 654//654 652//652
f 652//652 647//647 660//660
f 660//660 647//647 661//661
f 648//648 661//661 647//647
f 662//662 656//656 657//657
f 656//656 662//662 663//663
f 662//662 664//664 663//663
f 656//656 663//663 665//665
f 637//637 666//666 639//639
f 667//667 670//670 668//668
f 668//668 669//669 667//667
f 669//669 671//671 667//667
f 674//674 672//672 671//671
f 672//672 673//673 671//671
f 669//669 674//674 671//671
f 672//672 674//674 675//675
f 668//668 675//675 674//674
f 668//668 674//674 669//669
f 676//676 675//675 668//668
f 676//676 678//678 672//672
f 676//676 672//672 675//675
f 677//677 678//678 676//676
f 677//677 676//676 670//670
f 670//670 676//676 668//668
f 677//677 681//681 679//679
f 677//677 679//679 678//678
f 678//678 679//679 672//672
f 673//673 672//672 679//679
f 680//680 673//673 679//679
f 680//680 679//679 681//681
f 682//682 681//681 677//677
f 682//682 683//683 680//680
f 682//682 680//680 681//681
f 683//683 682//682 684//684
f 684//684 682//682 670//670
f 670//670 682//682 677//677
f 684//684 685//685 683//683
f 686//686 684//684 670//670
f 686//686 687//687 684//684
f 687//687 686//686 689//689
f 689//689 688//688 687//687
f 688//688 689//689 690//690
f 691//691 693//693 692//692
f 691//691 692//692 690//690
f 692//692 688//688 690//690
f 695//695 693//693 694//694
f 691//691 694//694 693//693
f 696//696 695//695 697//697
f 695//695 694//694 697//697
f 698//698 696//696 697//697
f 700//700 698//698 699//699
f 700//700 699//699 701//701
f 700//700 696//696 698//698
f 701//701 699//699 703//703
f 701//701 703//703 702//702
f 706//706 704//704 702//702
f 706//706 702//702 703//703
f 704//704 706//706 705//705
f 705//705 706//706 707//707
f 708//708 709//709 707//707
f 707//707 709//709 705//705
f 708//708 710//710 709//709
f 710//710 712//712 711//711
f 710//710 708//708 712//712
f 711//711 712//712 713//713
f 713//713 714//714 715//715
f 711//711 713//713 715//715
f 715//715 714//714 716//716
f 716//716 714//714 717//717
f 717//717 718//718 716//716
f 719//719 718//718 717//717
f 719//719 720//720 718//718
f 720//720 722//722 721//721
f 722//722 720//720 724//724
f 720//720 719//719 723//723
f 720//720 723//723 724//724
f 725//725 738//738 722//722
f 725//725 722//722 724//724
f 726//726 725//725 724//724
f 724//724 723//723 726//726
f 726//726 728//728 727//727
f 727//727 737//737 725//725
f 727//727 725//725 726//726
f 728//728 726//726 723//723
f 729//729 736//736 727//727
f 729//729 727//727 728//728
f 730//730 729//729 728//728
f 730//730 728//728 723//723
f 731//731 735//735 729//729
f 731//731 729//729 730//730
f 731//731 730//730 732//732
f 732//732 730//730 723//723
f 733//733 731//731 732//732
f 734//734 736//736 733//733
f 735//735 731//731 733//733
f 733//733 736//736 735//735
f 736//736 734//734 737//737
f 736//736 737//737 727//727
f 735//735 736//736 729//729
f 734//734 738//738 737//737
f 725//725 737//737 738//738
f 722//722 738//738 734//734
f 734//734 739//739 721//721
f 721//721 722//722 734//734
f 739//739 740//740 721//721
f 685//685 741//741 742//742
f 685//685 742//742 673//673
f 683//683 685//685 673//673
f 680//680 683//683 673//673
f 744//744 745//745 743//743
f 745//745 744//744 746//746
f 747//747 746//746 744//744
f 748//748 747//747 744//744
f 748//748 744//744 749//749
f 748//748 749//749 750//750
f 750//750 749//749 751//751
f 751//751 749//749 752//752
f 749//749 753//753 752//752
f 744//744 755//755 749//749
f 754//754 749//749 755//755
f 756//756 757//757 755//755
f 755//755 757//757 754//754
f 757//757 759//759 758//758
f 757//757 756//756 759//759
f 760//760 758//758 759//759
f 761//761 758//758 760//760
f 761//761 760//760 762//762
f 764//764 763//763 765//765
f 764//764 765//765 766//766
f 766//766 767//767 764//764
f 768//768 764//764 767//767
f 769//769 764//764 768//768
f 768//768 770//770 769//769
f 770//770 771//771 769//769
f 771//771 772//772 769//769
f 769//769 772//772 773//773
f 774//774 775//775 769//769
f 769//769 775//775 764//764
f 775//775 777//777 776//776
f 777//777 775//775 774//774
f 776//776 777//777 778//778
f 778//778 777//777 779//779
f 779//779 780//780 778//778
f 780//780 781//781 778//778
f 781//781 780//780 782//782
f 783//783 784//784 787//787
f 784//784 783//783 785//785
f 786//786 789//789 783//783
f 783//783 787//787 786//786
f 790//790 783//783 788//788
f 788//788 783//783 789//789
f 791//791 783//783 790//790
f 794//794 783//783 791//791
f 792//792 783//783 794//794
f 792//792 793//793 783//783
f 795//795 793//793 792//792
f 793//793 795//795 796//796
f 796//796 797//797 793//793
f 797//797 798//798 799//799
f 797//797 796//796 798//798
f 799//799 801//801 800//800
f 802//802 801//801 799//799
f 798//798 802//802 799//799
f 802//802 798//798 803//803
f 806//806 803//803 804//804
f 804//804 803//803 798//798
f 805//805 803//803 806//806
f 809//809 808//808 806//806
f 809//809 806//806 804//804
f 805//805 806//806 807//807
f 795//795 808//808 809//809
f 808//808 810//810 811//811
f 810//810 808//808 795//795
f 811//811 812//812 816//816
f 811//811 816//816 807//807
f 811//811 810//810 812//812
f 812//812 810//810 813//813
f 813//813 814//814 812//812
f 812//812 814//814 815//815
f 805//805 816//816 817//817
f 807//807 816//816 805//805
f 817//817 816//816 818//818
f 818//818 816//816 819//819
f 795//795 809//809 796//796
f 820//820 800//800 801//801
f 820//820 821//821 800//800
f 822//822 821//821 820//820
f 821//821 822//822 823//823
f 824//824 823//823 822//822
f 824//824 825//825 823//823
f 825//825 824//824 826//826
f 826//826 827//827 825//825
f 828//828 825//825 827//827
f 825//825 828//828 830//830
f 829//829 831//831 828//828
f 828//828 831//831 830//830
f 831//831 832//832 844//844
f 831//831 844//844 830//830
f 833//833 831//831 829//829
f 838//838 833//833 829//829
f 838//838 834//834 833//833
f 834//834 835//835 833//833
f 833//833 835//835 836//836
f 833//833 836//836 837//837
f 838//838 829//829 839//839
f 839//839 840//840 838//838
f 840//840 841//841 838//838
f 834//834 842//842 835//835
f 834//834 843//843 842//842
f 845//845 849//849 825//825
f 823//823 825//825 846//846
f 846//846 825//825 847//847
f 848//848 847//847 825//825
f 825//825 849//849 848//848
f 847//847 848//848 850//850
f 850//850 851//851 847//847
f 821//821 852//852 800//800
f 800//800 852//852 853//853
f 853//853 854//854 800//800
f 854//854 855//855 800//800
f 856//856 800//800 855//855
f 857//857 856//856 858//858
f 800//800 856//856 857//857
f 859//859 857//857 858//858
f 860//860 861//861 859//859
f 861//861 857//857 859//859
f 857//857 861//861 862//862
f 860//860 863//863 861//861
f 860//860 864//864 863//863
f 864//864 865//865 863//863
f 860//860 866//866 864//864
f 866//866 860//860 867//867
f 868//868 791//791 790//790
f 869//869 870//870 868//868
f 868//868 790//790 869//869
f 869//869 871//871 870//870
f 870//870 871//871 872//872
f 871//871 873//873 872//872
f 874//874 873//873 875//875
f 871//871 875//875 873//873
f 874//874 875//875 876//876
f 878//878 876//876 875//875
f 878//878 875//875 877//877
f 879//879 880//880 876//876
f 880//880 874//874 876//876
f 881//881 882//882 880//880
f 880//880 879//879 881//881
f 881//881 883//883 882//882
f 883//883 881//881 884//884
f 879//879 885//885 881//881
f 886//886 888//888 885//885
f 885//885 887//887 886//886
f 887//887 885//885 879//879
f 887//887 879//879 889//889
f 879//879 890//890 889//889
f 891//891 871//871 892//892
f 893//893 892//892 871//871
f 893//893 871//871 894//894
f 895//895 894//894 871//871
f 895//895 871//871 869//869
f 896//896 893//893 894//894
f 894//894 897//897 896//896
f 898//898 784//784 785//785
f 785//785 900//900 898//898
f 785//785 901//901 899//899
f 899//899 900//900 785//785
f 902//902 900//900 899//899
f 905//905 903//903 902//902
f 903//903 904//904 902//902
f 902//902 906//906 905//905
f 902//902 899//899 906//906
f 907//907 905//905 906//906
