# arm_10 exported from /models/landings/arm_10.glb
# units: meters
v 0.023000 0.001000 0.007894
v 0.028000 0.001000 0.007894
v 0.023000 0.001000 0.011894
v 0.030024 0.001000 0.007507
v 0.048000 0.001000 0.011894
v 0.031889 0.001000 0.006283
v 0.033114 0.001000 0.004418
v 0.047164 0.001000 -0.007264
v 0.048000 0.001000 -0.007106
v 0.051635 0.001000 0.011170
v 0.033500 0.001000 0.002394
v 0.042000 0.001000 -0.008628
v 0.033114 0.001000 0.000369
v 0.034836 0.001000 -0.007264
v 0.040000 0.001000 -0.008628
v 0.031889 0.001000 -0.001496
v 0.035484 0.001000 -0.007708
v 0.036312 0.001000 -0.009294
v 0.036750 0.001000 -0.014106
v 0.036812 0.001000 -0.018919
v 0.040000 0.001000 -0.015353
v 0.040000 0.001000 -0.015628
v 0.040000 0.001000 -0.021106
v 0.038000 0.001000 -0.021106
v 0.037172 0.001000 -0.020505
v 0.037515 0.001000 -0.020949
v 0.037739 0.001000 -0.021066
v 0.034000 0.001000 -0.007106
v 0.030024 0.001000 -0.002720
v 0.028000 0.001000 -0.003106
v 0.023000 0.001000 -0.007106
v 0.023000 0.001000 -0.003106
v 0.046515 0.001000 -0.007708
v 0.045687 0.001000 -0.009294
v 0.045250 0.001000 -0.014106
v 0.042000 0.001000 -0.015353
v 0.042000 0.001000 -0.015628
v 0.042000 0.001000 -0.021106
v 0.045187 0.001000 -0.018919
v 0.044000 0.001000 -0.021106
v 0.044828 0.001000 -0.020505
v 0.044484 0.001000 -0.020949
v 0.044261 0.001000 -0.021066
v 0.054717 0.001000 -0.004324
v 0.051635 0.001000 -0.006383
v 0.056777 0.001000 0.006029
v 0.054717 0.001000 0.009111
v 0.057500 0.001000 0.002394
v 0.056777 0.001000 -0.001242
v -0.007000 -0.001000 -0.003106
v -0.007000 0.001000 -0.003106
v 0.000500 -0.001000 -0.003106
v 0.000500 0.001000 -0.003106
v 0.008000 -0.001000 -0.003106
v 0.008000 0.001000 -0.003106
v 0.008000 -0.001000 -0.003106
v 0.008000 0.001000 -0.003106
v 0.015500 -0.001000 -0.003106
v 0.015500 0.001000 -0.003106
v 0.023000 -0.001000 -0.003106
v 0.023000 0.001000 -0.003106
v -0.007000 -0.001000 0.007894
v -0.027000 -0.000000 0.007894
v -0.027000 -0.001000 0.007894
v -0.007000 0.001000 0.007894
v -0.027000 0.001000 0.007894
v 0.008000 -0.001000 0.007894
v 0.008000 0.001000 0.007894
v 0.000500 -0.001000 0.007894
v 0.000500 0.001000 0.007894
v -0.007000 -0.001000 0.007894
v -0.007000 0.001000 0.007894
v 0.023000 -0.001000 0.007894
v 0.023000 0.001000 0.007894
v 0.015500 -0.001000 0.007894
v 0.015500 0.001000 0.007894
v 0.008000 -0.001000 0.007894
v 0.008000 0.001000 0.007894
v -0.033500 -0.001000 0.002394
v -0.033500 -0.000000 0.002394
v -0.033088 -0.001000 0.000304
v -0.033088 0.001000 0.000304
v -0.031848 -0.001000 -0.001536
v -0.031848 0.001000 -0.001536
v -0.029999 -0.001000 -0.002730
v -0.029999 0.001000 -0.002730
v -0.028000 0.000000 -0.003106
v -0.028000 -0.001000 -0.003106
v -0.028000 0.001000 -0.003106
v -0.033500 0.001000 0.002394
v -0.027000 -0.001000 0.007894
v -0.027000 -0.000000 0.007894
v -0.028000 -0.001000 0.007894
v -0.028000 -0.000000 0.007894
v -0.028000 0.001000 0.007894
v -0.027000 0.001000 0.007894
v -0.028000 -0.001000 0.007894
v -0.028000 -0.000000 0.007894
v -0.030090 -0.001000 0.007481
v -0.030090 0.001000 0.007481
v -0.031929 -0.001000 0.006242
v -0.031929 0.001000 0.006242
v -0.033124 -0.001000 0.004393
v -0.033124 0.001000 0.004393
v -0.033500 -0.000000 0.002394
v -0.033500 -0.001000 0.002394
v -0.033500 0.001000 0.002394
v -0.028000 0.001000 0.007894
v -0.028000 -0.001000 -0.003106
v -0.028000 0.000000 -0.003106
v -0.027000 -0.001000 -0.003106
v -0.027000 0.000000 -0.003106
v -0.027000 0.001000 -0.003106
v -0.028000 0.001000 -0.003106
v 0.023000 -0.001000 -0.003106
v 0.023000 0.001000 -0.003106
v 0.025500 -0.001000 -0.003106
v 0.025500 0.001000 -0.003106
v 0.028000 -0.001000 -0.003106
v 0.028000 0.000000 -0.003106
v 0.028000 0.001000 -0.003106
v 0.028000 -0.001000 -0.003106
v 0.028000 0.000000 -0.003106
v 0.030089 -0.001000 -0.002694
v 0.030089 0.001000 -0.002694
v 0.031929 -0.001000 -0.001455
v 0.031929 0.001000 -0.001455
v 0.033124 -0.001000 0.000395
v 0.033124 0.001000 0.000395
v 0.033500 -0.001000 0.002394
v 0.033500 0.001000 0.002394
v 0.033087 -0.001000 0.004483
v 0.033087 0.001000 0.004483
v 0.031848 -0.001000 0.006323
v 0.031848 0.001000 0.006323
v 0.029999 -0.001000 0.007517
v 0.029999 0.001000 0.007517
v 0.028000 -0.000000 0.007894
v 0.028000 -0.001000 0.007894
v 0.028000 0.001000 0.007894
v 0.028000 0.001000 -0.003106
v 0.028000 -0.001000 0.007894
v 0.025500 -0.001000 0.007894
v 0.028000 -0.000000 0.007894
v 0.028000 0.001000 0.007894
v 0.025500 0.001000 0.007894
v 0.023000 0.001000 0.007894
v 0.023000 -0.001000 0.007894
v -0.007000 0.001000 -0.003106
v -0.027000 0.000000 -0.003106
v -0.027000 0.001000 -0.003106
v -0.007000 -0.001000 -0.003106
v -0.027000 -0.001000 -0.003106
v -0.007000 -0.001000 -0.007106
v -0.027000 -0.001000 -0.007106
v -0.007000 0.001000 -0.007106
v -0.027000 0.001000 -0.007106
v 0.008000 -0.001000 -0.007106
v 0.008000 0.001000 -0.007106
v 0.000500 -0.001000 -0.007106
v 0.000500 0.001000 -0.007106
v -0.007000 -0.001000 -0.007106
v -0.007000 0.001000 -0.007106
v 0.023000 0.001000 -0.007106
v 0.015500 0.001000 -0.007106
v 0.023000 -0.001000 -0.007106
v 0.015500 -0.001000 -0.007106
v 0.008000 -0.001000 -0.007106
v 0.008000 0.001000 -0.007106
v -0.007000 -0.001000 0.011894
v -0.007000 0.001000 0.011894
v 0.000500 -0.001000 0.011894
v 0.000500 0.001000 0.011894
v 0.008000 -0.001000 0.011894
v 0.008000 0.001000 0.011894
v 0.008000 -0.001000 0.011894
v 0.008000 0.001000 0.011894
v 0.015500 -0.001000 0.011894
v 0.015500 0.001000 0.011894
v 0.023000 -0.001000 0.011894
v 0.023000 0.001000 0.011894
v -0.044000 -0.001000 -0.021106
v -0.044000 0.000000 -0.021106
v -0.045040 -0.001000 -0.019881
v -0.045040 0.001000 -0.019881
v -0.045239 -0.001000 -0.018142
v -0.045239 0.001000 -0.018142
v -0.045265 -0.001000 -0.016385
v -0.045265 0.001000 -0.016385
v -0.045252 -0.001000 -0.014628
v -0.045252 0.001000 -0.014628
v -0.045266 -0.001000 -0.012784
v -0.045266 0.001000 -0.012784
v -0.045375 -0.001000 -0.011016
v -0.045375 0.001000 -0.011016
v -0.045694 -0.001000 -0.009271
v -0.045694 0.001000 -0.009271
v -0.046522 -0.001000 -0.007701
v -0.046522 0.001000 -0.007701
v -0.048000 -0.000333 -0.007106
v -0.048000 -0.001000 -0.007106
v -0.048000 0.000333 -0.007106
v -0.048000 0.001000 -0.007106
v -0.044000 0.001000 -0.021106
v -0.048000 -0.001000 -0.007106
v -0.048000 -0.000333 -0.007106
v -0.049785 -0.001000 -0.006937
v -0.051609 -0.001000 -0.006394
v -0.049785 0.000000 -0.006937
v -0.048000 0.000333 -0.007106
v -0.051609 0.000000 -0.006394
v -0.049785 0.001000 -0.006937
v -0.048000 0.001000 -0.007106
v -0.051609 0.001000 -0.006394
v -0.054787 0.001000 -0.004254
v -0.054787 -0.001000 -0.004254
v -0.056850 0.001000 -0.001059
v -0.056850 -0.001000 -0.001059
v -0.057500 0.001000 0.002394
v -0.056788 0.001000 0.006003
v -0.057500 -0.001000 0.002394
v -0.056788 -0.001000 0.006003
v -0.054647 -0.001000 0.009181
v -0.054647 0.001000 0.009181
v -0.051453 -0.001000 0.011244
v -0.051453 0.001000 0.011244
v -0.048000 -0.001000 0.011894
v -0.048000 0.001000 0.011894
v -0.034000 -0.001000 -0.007106
v -0.034000 0.000000 -0.007106
v -0.035547 -0.001000 -0.007775
v -0.035547 0.001000 -0.007775
v -0.036324 -0.001000 -0.009333
v -0.036324 0.001000 -0.009333
v -0.036629 -0.001000 -0.011053
v -0.036629 0.001000 -0.011053
v -0.036736 -0.001000 -0.012852
v -0.036736 0.001000 -0.012852
v -0.036748 -0.001000 -0.014612
v -0.036748 0.001000 -0.014612
v -0.036735 -0.001000 -0.016374
v -0.036735 0.001000 -0.016374
v -0.036763 -0.001000 -0.018194
v -0.036763 0.001000 -0.018194
v -0.036962 -0.001000 -0.019886
v -0.036962 0.001000 -0.019886
v -0.038000 0.000000 -0.021106
v -0.038000 -0.001000 -0.021106
v -0.038000 0.001000 -0.021106
v -0.034000 0.001000 -0.007106
v -0.038000 -0.001000 -0.021106
v -0.038000 0.000000 -0.021106
v -0.040000 -0.001000 -0.021106
v -0.040000 0.000000 -0.021106
v -0.040000 0.001000 -0.021106
v -0.038000 0.001000 -0.021106
v -0.042000 0.001000 -0.021106
v -0.044000 0.001000 -0.021106
v -0.042000 0.000000 -0.021106
v -0.044000 0.000000 -0.021106
v -0.042000 -0.001000 -0.021106
v -0.044000 -0.001000 -0.021106
v -0.042000 -0.001000 -0.008586
v -0.042000 0.000000 -0.021106
v -0.042000 -0.001000 -0.021106
v -0.042000 0.001000 -0.008586
v -0.042000 0.001000 -0.021106
v -0.040000 -0.001000 -0.008586
v -0.040000 0.000000 -0.021106
v -0.040000 -0.001000 -0.021106
v -0.040000 0.001000 -0.008586
v -0.040000 0.001000 -0.021106
v -0.042000 0.001000 -0.008586
v -0.040000 0.001000 -0.008586
v -0.042000 -0.001000 -0.008586
v -0.040000 -0.001000 -0.008586
v -0.048000 -0.001000 0.011894
v -0.042750 -0.000000 0.011894
v -0.042750 -0.001000 0.011894
v -0.048000 0.001000 0.011894
v -0.042750 0.001000 0.011894
v -0.037500 0.001000 0.011894
v -0.037500 -0.000000 0.011894
v -0.032250 0.001000 0.011894
v -0.032250 -0.000000 0.011894
v -0.027000 0.001000 0.011894
v -0.027000 -0.001000 0.011894
v -0.032250 -0.001000 0.011894
v -0.037500 -0.001000 0.011894
v -0.027000 -0.001000 -0.007106
v -0.027000 0.001000 -0.007106
v -0.030500 -0.001000 -0.007106
v -0.034000 0.000000 -0.007106
v -0.030500 0.001000 -0.007106
v -0.034000 -0.001000 -0.007106
v -0.034000 0.001000 -0.007106
v -0.007000 0.001000 0.011894
v -0.027000 0.001000 0.011894
v -0.007000 -0.001000 0.011894
v -0.027000 -0.001000 0.011894
v 0.023000 -0.001000 0.011894
v 0.027167 -0.000000 0.011894
v 0.027167 -0.001000 0.011894
v 0.023000 0.001000 0.011894
v 0.027167 0.001000 0.011894
v 0.031333 0.001000 0.011894
v 0.031333 -0.000000 0.011894
v 0.039667 0.001000 0.011894
v 0.039667 -0.000000 0.011894
v 0.043833 0.001000 0.011894
v 0.043833 -0.000000 0.011894
v 0.048000 0.001000 0.011894
v 0.048000 -0.001000 0.011894
v 0.043833 -0.001000 0.011894
v 0.039667 -0.001000 0.011894
v 0.031333 -0.001000 0.011894
v 0.048000 -0.001000 0.011894
v 0.051646 -0.001000 0.011166
v 0.048000 0.001000 0.011894
v 0.051646 0.001000 0.011166
v 0.054717 0.001000 0.009111
v 0.054717 -0.001000 0.009111
v 0.056781 0.001000 0.006018
v 0.056781 -0.001000 0.006018
v 0.057500 0.001000 0.002394
v 0.056772 0.001000 -0.001253
v 0.057500 -0.001000 0.002394
v 0.056772 -0.001000 -0.001253
v 0.054717 -0.001000 -0.004324
v 0.054717 0.001000 -0.004324
v 0.051625 -0.001000 -0.006388
v 0.051625 0.001000 -0.006388
v 0.048000 0.000000 -0.007106
v 0.048000 -0.001000 -0.007106
v 0.048000 0.001000 -0.007106
v 0.048000 -0.001000 -0.007106
v 0.048000 0.000000 -0.007106
v 0.046453 -0.001000 -0.007775
v 0.046453 0.001000 -0.007775
v 0.045676 -0.001000 -0.009333
v 0.045676 0.001000 -0.009333
v 0.045371 -0.001000 -0.011053
v 0.045371 0.001000 -0.011053
v 0.045264 -0.001000 -0.012852
v 0.045264 0.001000 -0.012852
v 0.045251 -0.001000 -0.014612
v 0.045251 0.001000 -0.014612
v 0.045265 -0.001000 -0.016374
v 0.045265 0.001000 -0.016374
v 0.045237 -0.001000 -0.018194
v 0.045237 0.001000 -0.018194
v 0.045038 -0.001000 -0.019886
v 0.045038 0.001000 -0.019886
v 0.044000 0.000000 -0.021106
v 0.044000 -0.001000 -0.021106
v 0.044000 0.001000 -0.021106
v 0.048000 0.001000 -0.007106
v 0.044000 -0.001000 -0.021106
v 0.044000 0.000000 -0.021106
v 0.042000 -0.001000 -0.021106
v 0.042000 0.000000 -0.021106
v 0.042000 0.001000 -0.021106
v 0.044000 0.001000 -0.021106
v 0.038000 -0.001000 -0.021106
v 0.038000 0.000000 -0.021106
v 0.036960 -0.001000 -0.019881
v 0.036960 0.001000 -0.019881
v 0.036760 -0.001000 -0.018142
v 0.036760 0.001000 -0.018142
v 0.036735 -0.001000 -0.016385
v 0.036735 0.001000 -0.016385
v 0.036748 -0.001000 -0.014628
v 0.036748 0.001000 -0.014628
v 0.036734 -0.001000 -0.012784
v 0.036734 0.001000 -0.012784
v 0.036625 -0.001000 -0.011016
v 0.036625 0.001000 -0.011016
v 0.036306 -0.001000 -0.009271
v 0.036306 0.001000 -0.009271
v 0.035477 -0.001000 -0.007701
v 0.035477 0.001000 -0.007701
v 0.034000 0.000000 -0.007106
v 0.034000 -0.001000 -0.007106
v 0.034000 0.001000 -0.007106
v 0.038000 0.001000 -0.021106
v 0.034000 -0.001000 -0.007106
v 0.031250 -0.000500 -0.007106
v 0.031250 -0.001000 -0.007106
v 0.034000 0.000000 -0.007106
v 0.031250 0.000500 -0.007106
v 0.031250 0.000000 -0.007106
v 0.034000 0.001000 -0.007106
v 0.031250 0.001000 -0.007106
v 0.028500 0.001000 -0.007106
v 0.028500 0.000500 -0.007106
v 0.023000 0.001000 -0.007106
v 0.023000 -0.001000 -0.007106
v 0.028500 0.000000 -0.007106
v 0.028500 -0.000500 -0.007106
v 0.028500 -0.001000 -0.007106
v 0.040000 0.001000 -0.015353
v 0.042000 0.001000 -0.015353
v 0.040000 -0.001000 -0.015353
v 0.042000 -0.001000 -0.015353
v 0.040000 -0.001000 -0.021106
v 0.040000 0.000000 -0.021106
v 0.040000 -0.001000 -0.015628
v 0.040000 -0.001000 -0.015353
v 0.040000 0.001000 -0.015628
v 0.040000 0.001000 -0.015353
v 0.040000 0.001000 -0.021106
v 0.042000 -0.001000 -0.021106
v 0.042000 0.000000 -0.021106
v 0.042000 -0.001000 -0.015628
v 0.042000 -0.001000 -0.015353
v 0.042000 0.001000 -0.015628
v 0.042000 0.001000 -0.015353
v 0.042000 0.001000 -0.021106
v 0.040000 -0.001000 -0.021106
v 0.040000 0.000000 -0.021106
v 0.038000 -0.001000 -0.021106
v 0.038000 0.000000 -0.021106
v 0.038000 0.001000 -0.021106
v 0.040000 0.001000 -0.021106
v -0.027000 -0.001000 -0.007106
v -0.034000 -0.001000 -0.007106
v -0.030025 -0.001000 -0.002720
v -0.027000 -0.001000 -0.003106
v -0.028000 -0.001000 -0.003106
v -0.031889 -0.001000 -0.001496
v -0.034836 -0.001000 -0.007264
v -0.033114 -0.001000 0.000369
v -0.035484 -0.001000 -0.007708
v -0.040000 -0.001000 -0.008586
v -0.033500 -0.001000 0.002394
v -0.042000 -0.001000 -0.008586
v -0.047164 -0.001000 -0.007264
v -0.033114 -0.001000 0.004418
v -0.048000 -0.001000 0.011894
v -0.048000 -0.001000 -0.007106
v -0.051497 -0.001000 0.011227
v -0.048000 -0.001000 -0.007106
v -0.031889 -0.001000 0.006283
v -0.027000 -0.001000 0.011894
v -0.030025 -0.001000 0.007507
v -0.027000 -0.001000 0.007894
v -0.028000 -0.001000 0.007894
v -0.051497 -0.001000 -0.006439
v -0.054717 -0.001000 0.009111
v -0.054717 -0.001000 -0.004324
v -0.056833 -0.001000 -0.001103
v -0.056833 -0.001000 0.005890
v -0.057500 -0.001000 0.002394
v -0.046516 -0.001000 -0.007708
v -0.045687 -0.001000 -0.009294
v -0.045250 -0.001000 -0.014106
v -0.045187 -0.001000 -0.018919
v -0.042000 -0.001000 -0.021106
v -0.044000 -0.001000 -0.021106
v -0.044484 -0.001000 -0.020949
v -0.044828 -0.001000 -0.020505
v -0.044261 -0.001000 -0.021066
v -0.040000 -0.001000 -0.021106
v -0.036312 -0.001000 -0.009294
v -0.036750 -0.001000 -0.014106
v -0.036812 -0.001000 -0.018919
v -0.038000 -0.001000 -0.021106
v -0.037172 -0.001000 -0.020505
v -0.037516 -0.001000 -0.020949
v -0.037739 -0.001000 -0.021066
v 0.040000 0.001000 -0.015353
v 0.042000 0.001000 -0.015353
v 0.040000 0.001000 -0.008628
v 0.042000 0.001000 -0.008628
v 0.023000 -0.001000 0.007894
v 0.028000 -0.001000 0.007894
v 0.023000 -0.001000 0.011894
v 0.030024 -0.001000 0.007507
v 0.048000 -0.001000 0.011894
v 0.031889 -0.001000 0.006283
v 0.033114 -0.001000 0.004418
v 0.047164 -0.001000 -0.007264
v 0.048000 -0.001000 -0.007106
v 0.051635 -0.001000 0.011170
v 0.033500 -0.001000 0.002394
v 0.042000 -0.001000 -0.008628
v 0.033114 -0.001000 0.000369
v 0.040000 -0.001000 -0.008628
v 0.031889 -0.001000 -0.001496
v 0.035484 -0.001000 -0.007708
v 0.034836 -0.001000 -0.007264
v 0.034000 -0.001000 -0.007106
v 0.028000 -0.001000 -0.003106
v 0.023000 -0.001000 -0.007106
v 0.030024 -0.001000 -0.002720
v 0.023000 -0.001000 -0.003106
v 0.036312 -0.001000 -0.009294
v 0.036750 -0.001000 -0.014106
v 0.036812 -0.001000 -0.018919
v 0.040000 -0.001000 -0.015353
v 0.040000 -0.001000 -0.015628
v 0.040000 -0.001000 -0.021106
v 0.038000 -0.001000 -0.021106
v 0.037172 -0.001000 -0.020505
v 0.037515 -0.001000 -0.020949
v 0.037739 -0.001000 -0.021066
v 0.046515 -0.001000 -0.007708
v 0.045687 -0.001000 -0.009294
v 0.045250 -0.001000 -0.014106
v 0.042000 -0.001000 -0.015353
v 0.042000 -0.001000 -0.015628
v 0.045187 -0.001000 -0.018919
v 0.042000 -0.001000 -0.021106
v 0.044000 -0.001000 -0.021106
v 0.044828 -0.001000 -0.020505
v 0.044484 -0.001000 -0.020949
v 0.044261 -0.001000 -0.021066
v 0.054717 -0.001000 -0.004324
v 0.051635 -0.001000 -0.006383
v 0.056777 -0.001000 0.006029
v 0.054717 -0.001000 0.009111
v 0.057500 -0.001000 0.002394
v 0.056777 -0.001000 -0.001242
v 0.040000 -0.001000 -0.015353
v 0.042000 -0.001000 -0.015353
v 0.040000 -0.001000 -0.008628
v 0.042000 -0.001000 -0.008628
v -0.027000 0.001000 -0.003106
v -0.028000 0.001000 -0.003106
v -0.027000 0.001000 -0.007106
v -0.034000 0.001000 -0.007106
v -0.030025 0.001000 -0.002720
v -0.031889 0.001000 -0.001496
v -0.033114 0.001000 0.000369
v -0.034836 0.001000 -0.007264
v -0.035484 0.001000 -0.007708
v -0.040000 0.001000 -0.008586
v -0.036312 0.001000 -0.009294
v -0.036750 0.001000 -0.014106
v -0.036812 0.001000 -0.018919
v -0.040000 0.001000 -0.021106
v -0.038000 0.001000 -0.021106
v -0.037739 0.001000 -0.021066
v -0.037172 0.001000 -0.020505
v -0.037516 0.001000 -0.020949
v -0.033500 0.001000 0.002394
v -0.042000 0.001000 -0.008586
v -0.047164 0.001000 -0.007264
v -0.046516 0.001000 -0.007708
v -0.045687 0.001000 -0.009294
v -0.045250 0.001000 -0.014106
v -0.042000 0.001000 -0.021106
v -0.045187 0.001000 -0.018919
v -0.044000 0.001000 -0.021106
v -0.044828 0.001000 -0.020505
v -0.044484 0.001000 -0.020949
v -0.044261 0.001000 -0.021066
v -0.048000 0.001000 0.011894
v -0.048000 0.001000 -0.007106
v -0.048000 0.001000 -0.007106
v -0.033114 0.001000 0.004418
v -0.031889 0.001000 0.006283
v -0.027000 0.001000 0.011894
v -0.051497 0.001000 0.011227
v -0.051497 0.001000 -0.006439
v -0.054717 0.001000 0.009111
v -0.054717 0.001000 -0.004324
v -0.056833 0.001000 0.005890
v -0.056833 0.001000 -0.001103
v -0.057500 0.001000 0.002394
v -0.030025 0.001000 0.007507
v -0.027000 0.001000 0.007894
v -0.028000 0.001000 0.007894
v 0.023000 0.001000 0.007894
v 0.023000 0.001000 0.011894
v 0.008000 0.001000 0.007894
v 0.008000 0.001000 0.011894
v 0.008000 0.001000 0.007894
v 0.008000 0.001000 0.011894
v -0.007000 0.001000 0.007894
v -0.007000 0.001000 0.011894
v 0.023000 -0.001000 0.007894
v 0.008000 -0.001000 0.007894
v 0.023000 -0.001000 0.011894
v 0.008000 -0.001000 0.011894
v 0.008000 -0.001000 0.007894
v -0.007000 -0.001000 0.007894
v 0.008000 -0.001000 0.011894
v -0.007000 -0.001000 0.011894
v -0.007000 0.001000 0.007894
v -0.007000 0.001000 0.011894
v -0.027000 0.001000 0.007894
v -0.027000 0.001000 0.011894
v -0.007000 -0.001000 0.011894
v -0.007000 -0.001000 0.007894
v -0.027000 -0.001000 0.011894
v -0.027000 -0.001000 0.007894
v 0.023000 0.001000 -0.007106
v 0.023000 0.001000 -0.003106
v 0.008000 0.001000 -0.007106
v 0.008000 0.001000 -0.003106
v 0.008000 0.001000 -0.003106
v 0.008000 0.001000 -0.007106
v -0.007000 0.001000 -0.003106
v -0.007000 0.001000 -0.007106
v 0.023000 -0.001000 -0.007106
v 0.008000 -0.001000 -0.007106
v 0.023000 -0.001000 -0.003106
v 0.008000 -0.001000 -0.003106
v 0.008000 -0.001000 -0.003106
v 0.008000 -0.001000 -0.007106
v -0.007000 -0.001000 -0.003106
v -0.007000 -0.001000 -0.007106
v -0.007000 0.001000 -0.007106
v -0.007000 0.001000 -0.003106
v -0.027000 0.001000 -0.007106
v -0.027000 0.001000 -0.003106
v -0.007000 -0.001000 -0.003106
v -0.007000 -0.001000 -0.007106
v -0.027000 -0.001000 -0.003106
v -0.027000 -0.001000 -0.007106
vn 0.000000 1.000000 0.000000
vn 0.000000 1.000000 0.000000
vn 0.000000 1.000000 0.000000
vn 0.000000 1.000000 0.000000
vn 0.000000 1.000000 0.000000
vn 0.000000 1.000000 0.000000
vn 0.000000 1.000000 0.000000
vn 0.000000 1.000000 0.000000
vn 0.000000 1.000000 0.000000
vn 0.000000 1.000000 0.000000
vn 0.000000 1.000000 0.000000
vn 0.000000 1.000000 0.000000
vn 0.000000 1.000000 0.000000
vn 0.000000 1.000000 0.000000
vn 0.000000 1.000000 0.000000
vn 0.000000 1.000000 0.000000
vn 0.000000 1.000000 0.000000
vn 0.000000 1.000000 0.000000
vn 0.000000 1.000000 0.000000
vn 0.000000 1.000000 0.000000
vn 0.000000 1.000000 0.000000
vn 0.000000 1.000000 0.000000
vn 0.000000 1.000000 0.000000
vn 0.000000 1.000000 0.000000
vn 0.000000 1.000000 0.000000
vn 0.000000 1.000000 0.000000
vn 0.000000 1.000000 0.000000
vn 0.000000 1.000000 0.000000
vn 0.000000 1.000000 0.000000
vn 0.000000 1.000000 0.000000
vn 0.000000 1.000000 0.000000
vn 0.000000 1.000000 0.000000
vn 0.000000 1.000000 0.000000
vn 0.000000 1.000000 0.000000
vn 0.000000 1.000000 0.000000
vn 0.000000 1.000000 0.000000
vn 0.000000 1.000000 0.000000
vn 0.000000 1.000000 0.000000
vn 0.000000 1.000000 0.000000
vn 0.000000 1.000000 0.000000
vn 0.000000 1.000000 0.000000
vn 0.000000 1.000000 0.000000
vn 0.000000 1.000000 0.000000
vn 0.000000 1.000000 0.000000
vn 0.000000 1.000000 0.000000
vn 0.000000 1.000000 0.000000
vn 0.000000 1.000000 0.000000
vn 0.000000 1.000000 0.000000
vn 0.000000 1.000000 0.000000
vn 0.000000 -0.000000 1.000000
vn 0.000000 -0.000000 1.000000
vn 0.000000 -0.000000 1.000000
vn 0.000000 -0.000000 1.000000
vn 0.000000 -0.000000 1.000000
vn 0.000000 -0.000000 1.000000
vn 0.000000 -0.000000 1.000000
vn 0.000000 -0.000000 1.000000
vn 0.000000 -0.000000 1.000000
vn 0.000000 -0.000000 1.000000
vn 0.000000 -0.000000 1.000000
vn 0.000000 -0.000000 1.000000
vn 0.000000 0.000000 -1.000000
vn 0.000000 0.000000 -1.000000
vn 0.000000 0.000000 -1.000000
vn 0.000000 0.000000 -1.000000
vn 0.000000 0.000000 -1.000000
vn 0.000000 0.000000 -1.000000
vn 0.000000 0.000000 -1.000000
vn 0.000000 0.000000 -1.000000
vn 0.000000 0.000000 -1.000000
vn 0.000000 0.000000 -1.000000
vn 0.000000 0.000000 -1.000000
vn 0.000000 0.000000 -1.000000
vn 0.000000 0.000000 -1.000000
vn 0.000000 0.000000 -1.000000
vn 0.000000 0.000000 -1.000000
vn 0.000000 0.000000 -1.000000
vn 0.000000 0.000000 -1.000000
vn 1.000000 -0.000000 0.000100
vn 1.000000 -0.000000 0.000100
vn 0.925024 -0.000000 0.379910
vn 0.924988 -0.000000 0.379995
vn 0.699819 -0.000000 0.714320
vn 0.699819 -0.000000 0.714320
vn 0.363411 -0.000000 0.931629
vn 0.363411 -0.000000 0.931629
vn 0.000100 -0.000000 1.000000
vn 0.000100 -0.000000 1.000000
vn 0.000100 -0.000000 1.000000
vn 1.000000 -0.000000 0.000100
vn 0.000000 0.000000 -1.000000
vn 0.000000 0.000000 -1.000000
vn 0.000000 0.000000 -1.000000
vn 0.000000 0.000000 -1.000000
vn 0.000000 0.000000 -1.000000
vn 0.000000 0.000000 -1.000000
vn 0.000000 0.000000 -1.000000
vn 0.000100 0.000000 -1.000000
vn 0.379995 0.000000 -0.924988
vn 0.379995 0.000000 -0.924988
vn 0.714468 0.000000 -0.699668
vn 0.714468 0.000000 -0.699668
vn 0.931629 0.000000 -0.363411
vn 0.931629 0.000000 -0.363411
vn 1.000000 0.000000 -0.000100
vn 1.000000 0.000000 -0.000100
vn 1.000000 0.000000 -0.000100
vn 0.000000 0.000000 -1.000000
vn 0.000000 -0.000000 1.000000
vn 0.000000 -0.000000 1.000000
vn 0.000000 -0.000000 1.000000
vn 0.000000 -0.000000 1.000000
vn 0.000000 -0.000000 1.000000
vn 0.000000 -0.000000 1.000000
vn 0.000000 -0.000000 1.000000
vn 0.000000 -0.000000 1.000000
vn 0.000000 -0.000000 1.000000
vn 0.000000 -0.000000 1.000000
vn 0.000000 -0.000000 1.000000
vn 0.000000 -0.000000 1.000000
vn 0.000000 -0.000000 1.000000
vn -0.000100 -0.000000 1.000000
vn -0.000100 -0.000000 1.000000
vn -0.379995 -0.000000 0.924988
vn -0.379995 -0.000000 0.924988
vn -0.714369 -0.000000 0.699769
vn -0.714369 -0.000000 0.699769
vn -0.931595 -0.000000 0.363498
vn -0.931595 -0.000000 0.363498
vn -1.000000 0.000000 0.000000
vn -1.000000 0.000000 0.000000
vn -0.925024 0.000000 -0.379910
vn -0.925024 0.000000 -0.379910
vn -0.699668 0.000000 -0.714468
vn -0.699668 0.000000 -0.714468
vn -0.363411 0.000000 -0.931629
vn -0.363411 0.000000 -0.931629
vn -0.000100 0.000000 -1.000000
vn -0.000100 0.000000 -1.000000
vn -0.000100 0.000000 -1.000000
vn -0.000100 -0.000000 1.000000
vn 0.000000 0.000000 -1.000000
vn 0.000000 0.000000 -1.000000
vn 0.000000 0.000000 -1.000000
vn 0.000000 0.000000 -1.000000
vn 0.000000 0.000000 -1.000000
vn 0.000000 0.000000 -1.000000
vn 0.000000 0.000000 -1.000000
vn 0.000000 -0.000000 1.000000
vn 0.000000 -0.000000 1.000000
vn 0.000000 -0.000000 1.000000
vn 0.000000 -0.000000 1.000000
vn 0.000000 -0.000000 1.000000
vn 0.000000 0.000000 -1.000000
vn 0.000000 0.000000 -1.000000
vn 0.000000 0.000000 -1.000000
vn 0.000000 0.000000 -1.000000
vn 0.000000 0.000000 -1.000000
vn 0.000000 0.000000 -1.000000
vn 0.000000 0.000000 -1.000000
vn 0.000000 0.000000 -1.000000
vn 0.000000 0.000000 -1.000000
vn 0.000000 0.000000 -1.000000
vn 0.000000 0.000000 -1.000000
vn 0.000000 0.000000 -1.000000
vn 0.000000 0.000000 -1.000000
vn 0.000000 0.000000 -1.000000
vn 0.000000 0.000000 -1.000000
vn 0.000000 0.000000 -1.000000
vn 0.000000 -0.000000 1.000000
vn 0.000000 -0.000000 1.000000
vn 0.000000 -0.000000 1.000000
vn 0.000000 -0.000000 1.000000
vn 0.000000 -0.000000 1.000000
vn 0.000000 -0.000000 1.000000
vn 0.000000 -0.000000 1.000000
vn 0.000000 -0.000000 1.000000
vn 0.000000 -0.000000 1.000000
vn 0.000000 -0.000000 1.000000
vn 0.000000 -0.000000 1.000000
vn 0.000000 -0.000000 1.000000
vn 0.000100 0.000000 -1.000000
vn 0.000100 0.000000 -1.000000
vn -0.973497 0.000000 -0.228699
vn -0.973497 0.000000 -0.228699
vn -0.999049 0.000000 -0.043602
vn -0.999049 0.000000 -0.043602
vn -0.999992 -0.000000 0.003900
vn -0.999992 -0.000000 0.003900
vn -0.999984 -0.000000 0.005700
vn -0.999984 -0.000000 0.005700
vn -0.999616 0.000000 -0.027700
vn -0.999616 0.000000 -0.027700
vn -0.994440 0.000000 -0.105304
vn -0.994440 0.000000 -0.105304
vn -0.960495 0.000000 -0.278298
vn -0.960495 0.000000 -0.278298
vn -0.711294 0.000000 -0.702894
vn -0.711294 0.000000 -0.702894
vn -0.000100 0.000000 -1.000000
vn -0.000100 0.000000 -1.000000
vn -0.000100 0.000000 -1.000000
vn -0.000100 0.000000 -1.000000
vn 0.000100 0.000000 -1.000000
vn 0.000000 0.000000 -1.000000
vn -0.000100 0.000000 -1.000000
vn -0.187898 0.000000 -0.982189
vn -0.379910 0.000000 -0.925024
vn -0.187994 0.000000 -0.982170
vn 0.000000 0.000000 -1.000000
vn -0.379910 0.000000 -0.925024
vn -0.187898 0.000000 -0.982189
vn -0.000100 0.000000 -1.000000
vn -0.379910 0.000000 -0.925024
vn -0.714221 0.000000 -0.699920
vn -0.714369 0.000000 -0.699769
vn -0.931629 0.000000 -0.363411
vn -0.931629 0.000000 -0.363411
vn -1.000000 0.000000 0.000000
vn -0.925024 -0.000000 0.379910
vn -1.000000 0.000000 0.000000
vn -0.925024 -0.000000 0.379910
vn -0.699668 -0.000000 0.714468
vn -0.699668 -0.000000 0.714468
vn -0.363498 -0.000000 0.931595
vn -0.363498 -0.000000 0.931595
vn -0.000100 -0.000000 1.000000
vn -0.000100 -0.000100 1.000000
vn 0.000000 0.000000 -1.000000
vn 0.000100 0.000000 -1.000000
vn 0.741810 0.000000 -0.670610
vn 0.741810 0.000000 -0.670610
vn 0.963170 0.000000 -0.268892
vn 0.963170 0.000000 -0.268892
vn 0.994692 0.000000 -0.102899
vn 0.994692 0.000000 -0.102899
vn 0.999670 0.000000 -0.025699
vn 0.999670 0.000000 -0.025699
vn 0.999985 -0.000000 0.005500
vn 0.999985 -0.000000 0.005500
vn 0.999992 -0.000000 0.004000
vn 0.999992 -0.000000 0.004000
vn 0.998932 0.000000 -0.046201
vn 0.998932 0.000000 -0.046201
vn 0.973236 0.000100 -0.229808
vn 0.973236 0.000000 -0.229809
vn -0.000100 0.000000 -1.000000
vn -0.000100 0.000000 -1.000000
vn -0.000100 0.000000 -1.000000
vn 0.000000 0.000000 -1.000000
vn 0.000000 0.000000 -1.000000
vn 0.000000 0.000000 -1.000000
vn 0.000000 0.000000 -1.000000
vn 0.000000 0.000000 -1.000000
vn 0.000000 0.000000 -1.000000
vn 0.000000 0.000000 -1.000000
vn 0.000000 0.000000 -1.000000
vn 0.000000 0.000000 -1.000000
vn 0.000000 0.000000 -1.000000
vn 0.000000 0.000000 -1.000000
vn 0.000000 0.000000 -1.000000
vn 0.000000 0.000000 -1.000000
vn 1.000000 0.000000 0.000000
vn 1.000000 0.000000 0.000000
vn 1.000000 0.000000 0.000000
vn 1.000000 0.000000 0.000000
vn 1.000000 0.000000 0.000000
vn -1.000000 0.000000 0.000000
vn -1.000000 0.000000 0.000000
vn -1.000000 0.000000 0.000000
vn -1.000000 0.000000 0.000000
vn -1.000000 0.000000 0.000000
vn 0.000000 0.000000 -1.000000
vn 0.000000 0.000000 -1.000000
vn 0.000000 0.000000 -1.000000
vn 0.000000 0.000000 -1.000000
vn 0.000000 -0.000000 1.000000
vn 0.000000 -0.000000 1.000000
vn 0.000000 -0.000000 1.000000
vn 0.000000 -0.000000 1.000000
vn 0.000000 -0.000000 1.000000
vn 0.000000 -0.000000 1.000000
vn 0.000000 -0.000000 1.000000
vn 0.000000 -0.000000 1.000000
vn 0.000000 -0.000000 1.000000
vn 0.000000 -0.000000 1.000000
vn 0.000000 -0.000000 1.000000
vn 0.000000 -0.000000 1.000000
vn 0.000000 -0.000000 1.000000
vn 0.000000 0.000000 -1.000000
vn 0.000000 0.000000 -1.000000
vn 0.000000 0.000000 -1.000000
vn 0.000000 0.000000 -1.000000
vn 0.000000 0.000000 -1.000000
vn 0.000000 0.000000 -1.000000
vn 0.000000 0.000000 -1.000000
vn 0.000000 -0.000000 1.000000
vn 0.000000 -0.000000 1.000000
vn 0.000000 -0.000000 1.000000
vn 0.000000 -0.000000 1.000000
vn 0.000000 -0.000000 1.000000
vn 0.000000 -0.000000 1.000000
vn 0.000000 -0.000000 1.000000
vn 0.000000 -0.000000 1.000000
vn 0.000000 -0.000000 1.000000
vn 0.000000 -0.000000 1.000000
vn 0.000000 -0.000000 1.000000
vn 0.000000 -0.000000 1.000000
vn 0.000000 -0.000000 1.000000
vn 0.000000 -0.000000 1.000000
vn 0.000000 -0.000000 1.000000
vn 0.000000 -0.000000 1.000000
vn 0.000000 -0.000000 1.000000
vn 0.000000 -0.000000 1.000000
vn 0.000000 -0.000000 1.000000
vn 0.000000 -0.000000 1.000000
vn 0.000100 -0.000000 1.000000
vn 0.383685 -0.000000 0.923464
vn 0.000100 -0.000000 1.000000
vn 0.383685 -0.000000 0.923464
vn 0.707207 -0.000000 0.707007
vn 0.707207 -0.000000 0.707007
vn 0.924409 -0.000000 0.381404
vn 0.924409 -0.000000 0.381404
vn 1.000000 -0.000000 0.000200
vn 0.923464 0.000000 -0.383685
vn 1.000000 -0.000000 0.000200
vn 0.923464 0.000000 -0.383685
vn 0.707107 0.000000 -0.707107
vn 0.707107 0.000000 -0.707107
vn 0.381781 0.000000 -0.924253
vn 0.381781 0.000000 -0.924253
vn 0.000100 0.000000 -1.000000
vn 0.000100 0.000000 -1.000000
vn 0.000100 0.000000 -1.000000
vn 0.000000 0.000000 -1.000000
vn 0.000100 0.000000 -1.000000
vn 0.741810 0.000000 -0.670610
vn 0.741810 0.000000 -0.670610
vn 0.963170 0.000000 -0.268892
vn 0.963170 0.000000 -0.268892
vn 0.994692 0.000000 -0.102899
vn 0.994692 0.000000 -0.102899
vn 0.999670 0.000000 -0.025699
vn 0.999670 0.000000 -0.025699
vn 0.999985 -0.000000 0.005500
vn 0.999985 -0.000000 0.005500
vn 0.999992 -0.000000 0.004000
vn 0.999992 -0.000000 0.004000
vn 0.998932 0.000000 -0.046201
vn 0.998932 0.000000 -0.046201
vn 0.973236 0.000100 -0.229808
vn 0.973236 0.000000 -0.229809
vn -0.000100 0.000000 -1.000000
vn -0.000100 0.000000 -1.000000
vn -0.000100 0.000000 -1.000000
vn 0.000000 0.000000 -1.000000
vn 0.000000 0.000000 -1.000000
vn 0.000000 0.000000 -1.000000
vn 0.000000 0.000000 -1.000000
vn 0.000000 0.000000 -1.000000
vn 0.000000 0.000000 -1.000000
vn 0.000000 0.000000 -1.000000
vn 0.000100 0.000000 -1.000000
vn 0.000100 0.000000 -1.000000
vn -0.973497 0.000000 -0.228699
vn -0.973497 0.000000 -0.228699
vn -0.999049 0.000000 -0.043602
vn -0.999049 0.000000 -0.043602
vn -0.999992 -0.000000 0.003900
vn -0.999992 -0.000000 0.003900
vn -0.999984 -0.000000 0.005700
vn -0.999984 -0.000000 0.005700
vn -0.999616 0.000000 -0.027700
vn -0.999616 0.000000 -0.027700
vn -0.994440 0.000000 -0.105304
vn -0.994440 0.000000 -0.105304
vn -0.960495 0.000000 -0.278298
vn -0.960495 0.000000 -0.278298
vn -0.711344 0.000000 -0.702844
vn -0.711344 0.000000 -0.702844
vn -0.000100 0.000000 -1.000000
vn -0.000100 0.000000 -1.000000
vn -0.000100 0.000000 -1.000000
vn 0.000100 0.000000 -1.000000
vn 0.000000 0.000000 -1.000000
vn 0.000000 0.000000 -1.000000
vn 0.000000 0.000000 -1.000000
vn 0.000000 0.000000 -1.000000
vn 0.000000 0.000000 -1.000000
vn 0.000000 0.000000 -1.000000
vn 0.000000 0.000000 -1.000000
vn 0.000000 0.000000 -1.000000
vn 0.000000 0.000000 -1.000000
vn 0.000000 0.000000 -1.000000
vn 0.000000 0.000000 -1.000000
vn 0.000000 0.000000 -1.000000
vn 0.000000 0.000000 -1.000000
vn 0.000000 0.000000 -1.000000
vn 0.000000 0.000000 -1.000000
vn 0.000000 0.000000 -1.000000
vn 0.000000 0.000000 -1.000000
vn 0.000000 0.000000 -1.000000
vn 0.000000 0.000000 -1.000000
vn 1.000000 0.000000 0.000000
vn 1.000000 0.000000 0.000000
vn 1.000000 0.000000 0.000000
vn 1.000000 0.000000 0.000000
vn 1.000000 0.000000 0.000000
vn 1.000000 0.000000 0.000000
vn 1.000000 0.000000 0.000000
vn -1.000000 0.000000 0.000000
vn -1.000000 0.000000 0.000000
vn -1.000000 0.000000 0.000000
vn -1.000000 0.000000 0.000000
vn -1.000000 0.000000 0.000000
vn -1.000000 0.000000 0.000000
vn -1.000000 0.000000 0.000000
vn 0.000000 0.000000 -1.000000
vn 0.000000 0.000000 -1.000000
vn 0.000000 0.000000 -1.000000
vn 0.000000 0.000000 -1.000000
vn 0.000000 0.000000 -1.000000
vn 0.000000 0.000000 -1.000000
vn 0.000000 -1.000000 -0.000000
vn 0.000000 -1.000000 -0.000000
vn 0.000000 -1.000000 -0.000000
vn 0.000000 -1.000000 -0.000000
vn 0.000000 -1.000000 -0.000000
vn 0.000000 -1.000000 -0.000000
vn 0.000000 -1.000000 -0.000000
vn 0.000000 -1.000000 -0.000000
vn 0.000000 -1.000000 -0.000000
vn 0.000000 -1.000000 -0.000000
vn 0.000000 -1.000000 -0.000000
vn 0.000000 -1.000000 -0.000000
vn 0.000000 -1.000000 -0.000000
vn 0.000000 -1.000000 -0.000000
vn 0.000000 -1.000000 -0.000000
vn 0.000000 -1.000000 -0.000000
vn 0.000000 -1.000000 -0.000000
vn 0.000000 -1.000000 -0.000000
vn 0.000000 -1.000000 -0.000000
vn 0.000000 -1.000000 -0.000000
vn 0.000000 -1.000000 -0.000000
vn 0.000000 -1.000000 -0.000000
vn 0.000000 -1.000000 -0.000000
vn 0.000000 -1.000000 -0.000000
vn 0.000000 -1.000000 -0.000000
vn 0.000000 -1.000000 -0.000000
vn 0.000000 -1.000000 -0.000000
vn 0.000000 -1.000000 -0.000000
vn 0.000000 -1.000000 -0.000000
vn 0.000000 -1.000000 -0.000000
vn 0.000000 -1.000000 -0.000000
vn 0.000000 -1.000000 -0.000000
vn 0.000000 -1.000000 -0.000000
vn 0.000000 -1.000000 -0.000000
vn 0.000000 -1.000000 -0.000000
vn 0.000000 -1.000000 -0.000000
vn 0.000000 -1.000000 -0.000000
vn 0.000000 -1.000000 -0.000000
vn 0.000000 -1.000000 -0.000000
vn 0.000000 -1.000000 -0.000000
vn 0.000000 -1.000000 -0.000000
vn 0.000000 -1.000000 -0.000000
vn 0.000000 -1.000000 -0.000000
vn 0.000000 -1.000000 -0.000000
vn 0.000000 -1.000000 -0.000000
vn 0.000000 -1.000000 -0.000000
vn 0.000000 1.000000 0.000000
vn 0.000000 1.000000 0.000000
vn 0.000000 1.000000 0.000000
vn 0.000000 1.000000 0.000000
vn 0.000000 -1.000000 -0.000000
vn 0.000000 -1.000000 -0.000000
vn 0.000000 -1.000000 -0.000000
vn 0.000000 -1.000000 -0.000000
vn 0.000000 -1.000000 -0.000000
vn 0.000000 -1.000000 -0.000000
vn 0.000000 -1.000000 -0.000000
vn 0.000000 -1.000000 -0.000000
vn 0.000000 -1.000000 -0.000000
vn 0.000000 -1.000000 -0.000000
vn 0.000000 -1.000000 -0.000000
vn 0.000000 -1.000000 -0.000000
vn 0.000000 -1.000000 -0.000000
vn 0.000000 -1.000000 -0.000000
vn 0.000000 -1.000000 -0.000000
vn 0.000000 -1.000000 -0.000000
vn 0.000000 -1.000000 -0.000000
vn 0.000000 -1.000000 -0.000000
vn 0.000000 -1.000000 -0.000000
vn 0.000000 -1.000000 -0.000000
vn 0.000000 -1.000000 -0.000000
vn 0.000000 -1.000000 -0.000000
vn 0.000000 -1.000000 -0.000000
vn 0.000000 -1.000000 -0.000000
vn 0.000000 -1.000000 -0.000000
vn 0.000000 -1.000000 -0.000000
vn 0.000000 -1.000000 -0.000000
vn 0.000000 -1.000000 -0.000000
vn 0.000000 -1.000000 -0.000000
vn 0.000000 -1.000000 -0.000000
vn 0.000000 -1.000000 -0.000000
vn 0.000000 -1.000000 -0.000000
vn 0.000000 -1.000000 -0.000000
vn 0.000000 -1.000000 -0.000000
vn 0.000000 -1.000000 -0.000000
vn 0.000000 -1.000000 -0.000000
vn 0.000000 -1.000000 -0.000000
vn 0.000000 -1.000000 -0.000000
vn 0.000000 -1.000000 -0.000000
vn 0.000000 -1.000000 -0.000000
vn 0.000000 -1.000000 -0.000000
vn 0.000000 -1.000000 -0.000000
vn 0.000000 -1.000000 -0.000000
vn 0.000000 -1.000000 -0.000000
vn 0.000000 -1.000000 -0.000000
vn 0.000000 -1.000000 -0.000000
vn 0.000000 -1.000000 -0.000000
vn 0.000000 -1.000000 -0.000000
vn 0.000000 -1.000000 -0.000000
vn 0.000000 -1.000000 -0.000000
vn 0.000000 -1.000000 -0.000000
vn 0.000000 -1.000000 -0.000000
vn 0.000000 -1.000000 -0.000000
vn 0.000000 1.000000 0.000000
vn 0.000000 1.000000 0.000000
vn 0.000000 1.000000 0.000000
vn 0.000000 1.000000 0.000000
vn 0.000000 1.000000 0.000000
vn 0.000000 1.000000 0.000000
vn 0.000000 1.000000 0.000000
vn 0.000000 1.000000 0.000000
vn 0.000000 1.000000 0.000000
vn 0.000000 1.000000 0.000000
vn 0.000000 1.000000 0.000000
vn 0.000000 1.000000 0.000000
vn 0.000000 1.000000 0.000000
vn 0.000000 1.000000 0.000000
vn 0.000000 1.000000 0.000000
vn 0.000000 1.000000 0.000000
vn 0.000000 1.000000 0.000000
vn 0.000000 1.000000 0.000000
vn 0.000000 1.000000 0.000000
vn 0.000000 1.000000 0.000000
vn 0.000000 1.000000 0.000000
vn 0.000000 1.000000 0.000000
vn 0.000000 1.000000 0.000000
vn 0.000000 1.000000 0.000000
vn 0.000000 1.000000 0.000000
vn 0.000000 1.000000 0.000000
vn 0.000000 1.000000 0.000000
vn 0.000000 1.000000 0.000000
vn 0.000000 1.000000 0.000000
vn 0.000000 1.000000 0.000000
vn 0.000000 1.000000 0.000000
vn 0.000000 1.000000 0.000000
vn 0.000000 1.000000 0.000000
vn 0.000000 1.000000 0.000000
vn 0.000000 1.000000 0.000000
vn 0.000000 1.000000 0.000000
vn 0.000000 1.000000 0.000000
vn 0.000000 1.000000 0.000000
vn 0.000000 1.000000 0.000000
vn 0.000000 1.000000 0.000000
vn 0.000000 1.000000 0.000000
vn 0.000000 1.000000 0.000000
vn 0.000000 1.000000 0.000000
vn 0.000000 1.000000 0.000000
vn 0.000000 1.000000 0.000000
vn 0.000000 1.000000 0.000000
vn 0.000000 1.000000 0.000000
vn 0.000000 1.000000 0.000000
vn 0.000000 1.000000 0.000000
vn 0.000000 1.000000 0.000000
vn 0.000000 1.000000 0.000000
vn 0.000000 1.000000 0.000000
vn 0.000000 1.000000 0.000000
vn 0.000000 1.000000 0.000000
vn 0.000000 -1.000000 -0.000000
vn 0.000000 -1.000000 -0.000000
vn 0.000000 -1.000000 -0.000000
vn 0.000000 -1.000000 -0.000000
vn 0.000000 -1.000000 -0.000000
vn 0.000000 -1.000000 -0.000000
vn 0.000000 -1.000000 -0.000000
vn 0.000000 -1.000000 -0.000000
vn 0.000000 1.000000 0.000000
vn 0.000000 1.000000 0.000000
vn 0.000000 1.000000 0.000000
vn 0.000000 1.000000 0.000000
vn 0.000000 -1.000000 -0.000000
vn 0.000000 -1.000000 -0.000000
vn 0.000000 -1.000000 -0.000000
vn 0.000000 -1.000000 -0.000000
vn 0.000000 1.000000 0.000000
vn 0.000000 1.000000 0.000000
vn 0.000000 1.000000 0.000000
vn 0.000000 1.000000 0.000000
vn 0.000000 1.000000 0.000000
vn 0.000000 1.000000 0.000000
vn 0.000000 1.000000 0.000000
vn 0.000000 1.000000 0.000000
vn 0.000000 -1.000000 -0.000000
vn 0.000000 -1.000000 -0.000000
vn 0.000000 -1.000000 -0.000000
vn 0.000000 -1.000000 -0.000000
vn 0.000000 -1.000000 -0.000000
vn 0.000000 -1.000000 -0.000000
vn 0.000000 -1.000000 -0.000000
vn 0.000000 -1.000000 -0.000000
vn 0.000000 1.000000 0.000000
vn 0.000000 1.000000 0.000000
vn 0.000000 1.000000 0.000000
vn 0.000000 1.000000 0.000000
vn 0.000000 -1.000000 -0.000000
vn 0.000000 -1.000000 -0.000000
vn 0.000000 -1.000000 -0.000000
vn 0.000000 -1.000000 -0.000000
f 2//2 1//1 3//3
f 4//4 2//2 3//3
f 4//4 3//3 5//5
f 5//5 6//6 4//4
f 5//5 7//7 6//6
f 7//7 5//5 11//11
f 11//11 5//5 8//8
f 8//8 5//5 9//9
f 9//9 5//5 10//10
f 11//11 8//8 12//12
f 11//11 12//12 13//13
f 14//14 13//13 17//17
f 14//14 16//16 13//13
f 13//13 12//12 15//15
f 13//13 15//15 17//17
f 15//15 18//18 17//17
f 15//15 19//19 18//18
f 19//19 15//15 21//21
f 20//20 19//19 22//22
f 19//19 21//21 22//22
f 23//23 20//20 22//22
f 23//23 24//24 20//20
f 20//20 24//24 25//25
f 25//25 24//24 26//26
f 24//24 27//27 26//26
f 14//14 28//28 16//16
f 28//28 29//29 16//16
f 29//29 28//28 30//30
f 30//30 28//28 31//31
f 30//30 31//31 32//32
f 8//8 33//33 12//12
f 12//12 33//33 34//34
f 12//12 34//34 35//35
f 35//35 36//36 12//12
f 35//35 37//37 36//36
f 39//39 38//38 37//37
f 39//39 37//37 35//35
f 38//38 39//39 40//40
f 39//39 41//41 40//40
f 42//42 40//40 41//41
f 43//43 40//40 42//42
f 10//10 46//46 44//44
f 44//44 45//45 10//10
f 45//45 9//9 10//10
f 46//46 10//10 47//47
f 48//48 44//44 46//46
f 49//49 44//44 48//48
f 51//51 50//50 52//52
f 51//51 52//52 53//53
f 54//54 55//55 53//53
f 54//54 53//53 52//52
f 57//57 56//56 58//58
f 57//57 58//58 59//59
f 60//60 61//61 59//59
f 60//60 59//59 58//58
f 62//62 63//63 65//65
f 63//63 62//62 64//64
f 66//66 65//65 63//63
f 68//68 67//67 69//69
f 68//68 69//69 70//70
f 71//71 72//72 70//70
f 71//71 70//70 69//69
f 74//74 73//73 75//75
f 74//74 75//75 76//76
f 77//77 78//78 76//76
f 77//77 76//76 75//75
f 80//80 79//79 81//81
f 81//81 82//82 80//80
f 84//84 82//82 81//81
f 84//84 81//81 83//83
f 86//86 84//84 83//83
f 86//86 83//83 85//85
f 85//85 87//87 86//86
f 87//87 85//85 88//88
f 89//89 86//86 87//87
f 90//90 80//80 82//82
f 92//92 91//91 93//93
f 92//92 93//93 94//94
f 96//96 92//92 94//94
f 96//96 94//94 95//95
f 98//98 97//97 99//99
f 99//99 100//100 98//98
f 102//102 100//100 99//99
f 102//102 99//99 101//101
f 104//104 102//102 101//101
f 104//104 101//101 103//103
f 103//103 105//105 104//104
f 105//105 103//103 106//106
f 107//107 104//104 105//105
f 108//108 98//98 100//100
f 110//110 109//109 111//111
f 110//110 111//111 112//112
f 114//114 110//110 112//112
f 114//114 112//112 113//113
f 116//116 115//115 117//117
f 116//116 117//117 118//118
f 118//118 117//117 119//119
f 118//118 119//119 120//120
f 120//120 121//121 118//118
f 123//123 122//122 124//124
f 124//124 125//125 123//123
f 127//127 125//125 124//124
f 127//127 124//124 126//126
f 129//129 127//127 126//126
f 129//129 126//126 128//128
f 131//131 129//129 128//128
f 131//131 128//128 130//130
f 133//133 131//131 130//130
f 133//133 130//130 132//132
f 135//135 133//133 132//132
f 135//135 132//132 134//134
f 137//137 135//135 134//134
f 137//137 134//134 136//136
f 136//136 138//138 137//137
f 138//138 136//136 139//139
f 140//140 137//137 138//138
f 141//141 123//123 125//125
f 143//143 144//144 142//142
f 146//146 145//145 144//144
f 144//144 143//143 146//146
f 148//148 147//147 146//146
f 148//148 146//146 143//143
f 149//149 150//150 152//152
f 150//150 149//149 151//151
f 153//153 152//152 150//150
f 155//155 157//157 156//156
f 155//155 156//156 154//154
f 159//159 158//158 160//160
f 159//159 160//160 161//161
f 162//162 163//163 161//161
f 162//162 161//161 160//160
f 164//164 166//166 167//167
f 164//164 167//167 165//165
f 168//168 169//169 165//165
f 168//168 165//165 167//167
f 171//171 170//170 172//172
f 171//171 172//172 173//173
f 174//174 175//175 173//173
f 174//174 173//173 172//172
f 177//177 176//176 178//178
f 177//177 178//178 179//179
f 180//180 181//181 179//179
f 180//180 179//179 178//178
f 183//183 182//182 184//184
f 184//184 185//185 183//183
f 187//187 185//185 184//184
f 187//187 184//184 186//186
f 189//189 187//187 186//186
f 189//189 186//186 188//188
f 191//191 189//189 188//188
f 191//191 188//188 190//190
f 193//193 191//191 190//190
f 193//193 190//190 192//192
f 195//195 193//193 192//192
f 195//195 192//192 194//194
f 197//197 195//195 194//194
f 197//197 194//194 196//196
f 199//199 197//197 196//196
f 199//199 196//196 198//198
f 198//198 202//202 199//199
f 202//202 198//198 200//200
f 200//200 198//198 201//201
f 203//203 199//199 202//202
f 204//204 183//183 185//185
f 206//206 205//205 207//207
f 206//206 207//207 209//209
f 211//211 209//209 207//207
f 211//211 207//207 208//208
f 213//213 210//210 209//209
f 213//213 209//209 212//212
f 206//206 209//209 210//210
f 214//214 212//212 209//209
f 214//214 209//209 211//211
f 215//215 214//214 211//211
f 217//217 215//215 216//216
f 217//217 216//216 218//218
f 216//216 215//215 211//211
f 219//219 217//217 218//218
f 219//219 218//218 221//221
f 220//220 219//219 221//221
f 220//220 221//221 222//222
f 224//224 220//220 222//222
f 224//224 222//222 223//223
f 226//226 224//224 223//223
f 226//226 223//223 225//225
f 227//227 228//228 226//226
f 227//227 226//226 225//225
f 211//211 208//208 216//216
f 230//230 229//229 231//231
f 231//231 232//232 230//230
f 234//234 232//232 231//231
f 234//234 231//231 233//233
f 236//236 234//234 233//233
f 236//236 233//233 235//235
f 238//238 236//236 235//235
f 238//238 235//235 237//237
f 240//240 238//238 237//237
f 240//240 237//237 239//239
f 242//242 240//240 239//239
f 242//242 239//239 241//241
f 244//244 242//242 241//241
f 244//244 241//241 243//243
f 246//246 244//244 243//243
f 246//246 243//243 245//245
f 245//245 247//247 246//246
f 247//247 245//245 248//248
f 249//249 246//246 247//247
f 250//250 230//230 232//232
f 252//252 251//251 253//253
f 252//252 253//253 254//254
f 256//256 252//252 254//254
f 256//256 254//254 255//255
f 257//257 259//259 260//260
f 257//257 260//260 258//258
f 259//259 261//261 262//262
f 259//259 262//262 260//260
f 263//263 264//264 266//266
f 264//264 263//263 265//265
f 266//266 264//264 267//267
f 268//268 271//271 269//269
f 269//269 270//270 268//268
f 271//271 272//272 269//269
f 274//274 276//276 275//275
f 274//274 275//275 273//273
f 277//277 278//278 280//280
f 278//278 277//277 279//279
f 281//281 280//280 278//278
f 282//282 281//281 278//278
f 282//282 278//278 283//283
f 284//284 282//282 283//283
f 284//284 283//283 285//285
f 284//284 285//285 286//286
f 287//287 286//286 285//285
f 285//285 288//288 287//287
f 285//285 283//283 289//289
f 285//285 289//289 288//288
f 283//283 278//278 279//279
f 283//283 279//279 289//289
f 291//291 290//290 292//292
f 291//291 292//292 294//294
f 295//295 293//293 292//292
f 292//292 293//293 294//294
f 293//293 296//296 294//294
f 298//298 300//300 299//299
f 298//298 299//299 297//297
f 301//301 302//302 304//304
f 302//302 301//301 303//303
f 305//305 304//304 302//302
f 306//306 305//305 302//302
f 306//306 302//302 307//307
f 309//309 308//308 306//306
f 309//309 306//306 307//307
f 310//310 308//308 309//309
f 310//310 309//309 311//311
f 310//310 311//311 312//312
f 313//313 312//312 311//311
f 311//311 314//314 313//313
f 311//311 309//309 315//315
f 311//311 315//315 314//314
f 307//307 316//316 315//315
f 307//307 315//315 309//309
f 307//307 302//302 303//303
f 307//307 303//303 316//316
f 318//318 320//320 319//319
f 318//318 319//319 317//317
f 321//321 320//320 318//318
f 321//321 318//318 322//322
f 323//323 321//321 322//322
f 323//323 322//322 324//324
f 325//325 323//323 324//324
f 325//325 324//324 327//327
f 326//326 325//325 327//327
f 326//326 327//327 328//328
f 330//330 326//326 328//328
f 330//330 328//328 329//329
f 332//332 330//330 329//329
f 332//332 329//329 331//331
f 331//331 333//333 332//332
f 333//333 331//331 334//334
f 335//335 332//332 333//333
f 337//337 336//336 338//338
f 338//338 339//339 337//337
f 341//341 339//339 338//338
f 341//341 338//338 340//340
f 343//343 341//341 340//340
f 343//343 340//340 342//342
f 345//345 343//343 342//342
f 345//345 342//342 344//344
f 347//347 345//345 344//344
f 347//347 344//344 346//346
f 349//349 347//347 346//346
f 349//349 346//346 348//348
f 351//351 349//349 348//348
f 351//351 348//348 350//350
f 353//353 351//351 350//350
f 353//353 350//350 352//352
f 352//352 354//354 353//353
f 354//354 352//352 355//355
f 356//356 353//353 354//354
f 357//357 337//337 339//339
f 359//359 358//358 360//360
f 359//359 360//360 361//361
f 363//363 359//359 361//361
f 363//363 361//361 362//362
f 365//365 364//364 366//366
f 366//366 367//367 365//365
f 369//369 367//367 366//366
f 369//369 366//366 368//368
f 371//371 369//369 368//368
f 371//371 368//368 370//370
f 373//373 371//371 370//370
f 373//373 370//370 372//372
f 375//375 373//373 372//372
f 375//375 372//372 374//374
f 377//377 375//375 374//374
f 377//377 374//374 376//376
f 379//379 377//377 376//376
f 379//379 376//376 378//378
f 381//381 379//379 378//378
f 381//381 378//378 380//380
f 380//380 382//382 381//381
f 382//382 380//380 383//383
f 384//384 381//381 382//382
f 385//385 365//365 367//367
f 389//389 386//386 387//387
f 387//387 386//386 388//388
f 391//391 389//389 387//387
f 389//389 391//391 390//390
f 390//390 392//392 389//389
f 393//393 392//392 390//390
f 394//394 393//393 390//390
f 394//394 390//390 395//395
f 395//395 396//396 394//394
f 396//396 398//398 397//397
f 396//396 395//395 398//398
f 395//395 390//390 391//391
f 395//395 391//391 398//398
f 398//398 391//391 387//387
f 398//398 387//387 399//399
f 399//399 397//397 398//398
f 399//399 387//387 388//388
f 399//399 388//388 400//400
f 397//397 399//399 400//400
f 402//402 404//404 403//403
f 402//402 403//403 401//401
f 406//406 407//407 405//405
f 406//406 409//409 407//407
f 408//408 407//407 409//409
f 408//408 409//409 410//410
f 409//409 406//406 411//411
f 413//413 412//412 414//414
f 415//415 417//417 416//416
f 415//415 416//416 414//414
f 413//413 414//414 416//416
f 416//416 418//418 413//413
f 420//420 419//419 421//421
f 420//420 421//421 422//422
f 424//424 420//420 422//422
f 424//424 422//422 423//423
f 426//426 425//425 427//427
f 427//427 425//425 429//429
f 428//428 429//429 425//425
f 430//430 426//426 427//427
f 431//431 426//426 430//430
f 430//430 432//432 431//431
f 433//433 431//431 432//432
f 434//434 433//433 432//432
f 432//432 435//435 434//434
f 436//436 434//434 435//435
f 437//437 436//436 435//435
f 439//439 437//437 435//435
f 438//438 439//439 435//435
f 439//439 440//440 437//437
f 439//439 441//441 442//442
f 439//439 438//438 443//443
f 444//444 439//439 443//443
f 445//445 447//447 444//444
f 444//444 443//443 445//445
f 446//446 444//444 447//447
f 441//441 448//448 442//442
f 448//448 441//441 449//449
f 449//449 450//450 448//448
f 450//450 449//449 452//452
f 450//450 452//452 451//451
f 453//453 451//451 452//452
f 436//436 437//437 454//454
f 455//455 436//436 454//454
f 455//455 456//456 436//436
f 458//458 456//456 457//457
f 436//436 456//456 458//458
f 457//457 459//459 458//458
f 459//459 460//460 462//462
f 459//459 461//461 460//460
f 457//457 461//461 459//459
f 465//465 434//434 463//463
f 434//434 464//464 433//433
f 464//464 434//434 465//465
f 466//466 465//465 463//463
f 463//463 467//467 466//466
f 466//466 467//467 468//468
f 469//469 468//468 467//467
f 470//470 469//469 467//467
f 472//472 471//471 473//473
f 472//472 473//473 474//474
f 476//476 477//477 475//475
f 478//478 477//477 476//476
f 478//478 479//479 477//477
f 479//479 480//480 481//481
f 479//479 478//478 480//480
f 481//481 485//485 479//479
f 485//485 482//482 479//479
f 482//482 483//483 479//479
f 483//483 484//484 479//479
f 485//485 486//486 482//482
f 485//485 487//487 486//486
f 487//487 488//488 486//486
f 487//487 490//490 488//488
f 491//491 487//487 489//489
f 491//491 490//490 487//487
f 491//491 489//489 492//492
f 495//495 493//493 492//492
f 493//493 494//494 492//492
f 492//492 489//489 495//495
f 493//493 496//496 494//494
f 488//488 490//490 497//497
f 488//488 497//497 498//498
f 488//488 498//498 500//500
f 499//499 501//501 498//498
f 501//501 500//500 498//498
f 502//502 501//501 499//499
f 502//502 499//499 503//503
f 499//499 504//504 503//503
f 504//504 505//505 503//503
f 503//503 505//505 506//506
f 482//482 486//486 507//507
f 486//486 508//508 507//507
f 486//486 509//509 508//508
f 509//509 486//486 510//510
f 509//509 510//510 511//511
f 512//512 509//509 511//511
f 512//512 511//511 513//513
f 513//513 514//514 512//512
f 512//512 514//514 515//515
f 516//516 515//515 514//514
f 517//517 516//516 514//514
f 484//484 518//518 520//520
f 518//518 484//484 519//519
f 519//519 484//484 483//483
f 520//520 521//521 484//484
f 522//522 520//520 518//518
f 523//523 522//522 518//518
f 525//525 527//527 526//526
f 525//525 526//526 524//524
f 528//528 530//530 529//529
f 531//531 532//532 530//530
f 532//532 529//529 530//530
f 533//533 532//532 531//531
f 533//533 535//535 534//534
f 535//535 533//533 531//531
f 536//536 534//534 535//535
f 537//537 534//534 536//536
f 537//537 536//536 538//538
f 538//538 539//539 537//537
f 540//540 541//541 539//539
f 541//541 537//537 539//539
f 541//541 540//540 542//542
f 543//543 542//542 545//545
f 540//540 544//544 542//542
f 544//544 545//545 542//542
f 534//534 537//537 546//546
f 546//546 537//537 547//547
f 547//547 549//549 548//548
f 548//548 546//546 547//547
f 549//549 547//547 550//550
f 547//547 551//551 550//550
f 552//552 551//551 547//547
f 551//551 552//552 553//553
f 552//552 554//554 553//553
f 554//554 555//555 553//553
f 555//555 554//554 556//556
f 556//556 554//554 557//557
f 558//558 546//546 548//548
f 558//558 548//548 559//559
f 561//561 546//546 558//558
f 558//558 560//560 564//564
f 558//558 562//562 561//561
f 563//563 562//562 558//558
f 564//564 560//560 565//565
f 565//565 566//566 564//564
f 566//566 565//565 567//567
f 567//567 568//568 566//566
f 567//567 569//569 568//568
f 570//570 568//568 569//569
f 563//563 571//571 562//562
f 571//571 563//563 573//573
f 572//572 573//573 563//563
f 574//574 576//576 577//577
f 574//574 577//577 575//575
f 578//578 580//580 581//581
f 578//578 581//581 579//579
f 582//582 584//584 585//585
f 582//582 585//585 583//583
f 586//586 588//588 589//589
f 586//586 589//589 587//587
f 593//593 591//591 590//590
f 593//593 590//590 592//592
f 597//597 595//595 594//594
f 597//597 594//594 596//596
f 598//598 600//600 601//601
f 598//598 601//601 599//599
f 603//603 605//605 604//604
f 603//603 604//604 602//602
f 606//606 608//608 609//609
f 606//606 609//609 607//607
f 611//611 610//610 612//612
f 611//611 612//612 613//613
f 617//617 615//615 614//614
f 617//617 614//614 616//616
f 621//621 619//619 618//618
f 621//621 618//618 620//620
