# arm_04 exported from /models/landings/arm_04.glb
# units: meters
v 0.034145 0.001000 0.019649
v 0.033455 0.001000 0.019135
v 0.033920 0.001000 0.019379
v 0.033143 0.001000 0.019571
v 0.033299 0.001000 0.019353
v 0.034535 0.001000 0.021055
v 0.032830 0.001000 0.020007
v 0.034442 0.001000 0.021878
v 0.034113 0.001000 0.022668
v 0.032205 0.001000 0.020879
v 0.032517 0.001000 0.020443
v 0.030401 0.001000 0.018925
v 0.030714 0.001000 0.018489
v 0.030089 0.001000 0.019361
v 0.028285 0.001000 0.017408
v 0.029031 0.001000 0.018602
v 0.027973 0.001000 0.017844
v 0.028874 0.001000 0.018820
v 0.028345 0.001000 0.018441
v 0.028267 0.001000 0.018550
v 0.027816 0.001000 0.018062
v 0.026758 0.001000 0.017303
v 0.027738 0.001000 0.018171
v 0.027131 0.001000 0.017900
v 0.027660 0.001000 0.018280
v 0.027924 0.001000 0.018469
v 0.028189 0.001000 0.018659
v 0.027885 0.001000 0.018524
v 0.027934 0.001000 0.018633
v 0.027621 0.001000 0.018334
v 0.028150 0.001000 0.018713
v 0.028640 0.001000 0.019147
v 0.028718 0.001000 0.019038
v 0.028111 0.001000 0.018768
v 0.028072 0.001000 0.018823
v 0.028562 0.001000 0.019256
v 0.028033 0.001000 0.018877
v 0.027862 0.001000 0.018700
v 0.013678 0.001000 0.018700
v 0.027955 0.001000 0.018986
v 0.027191 0.001000 0.018934
v 0.017247 0.001000 0.019395
v 0.027035 0.001000 0.019152
v 0.027876 0.001000 0.019095
v 0.028249 0.001000 0.019692
v 0.029307 0.001000 0.020451
v 0.028405 0.001000 0.019474
v 0.028093 0.001000 0.019910
v 0.026722 0.001000 0.019588
v 0.028838 0.001000 0.021105
v 0.029151 0.001000 0.020669
v 0.031267 0.001000 0.022187
v 0.031579 0.001000 0.021751
v 0.030954 0.001000 0.022623
v 0.033578 0.001000 0.023330
v 0.032912 0.001000 0.023797
v 0.031536 0.001000 0.024131
v 0.020541 0.001000 0.023738
v 0.020854 0.001000 0.023302
v 0.006083 0.001000 0.024131
v 0.021479 0.001000 0.022430
v 0.016934 0.001000 0.019831
v 0.018738 0.001000 0.021784
v 0.016622 0.001000 0.020267
v 0.018425 0.001000 0.022220
v 0.016153 0.001000 0.020921
v 0.016309 0.001000 0.020703
v 0.018112 0.001000 0.022656
v 0.014746 0.001000 0.022883
v 0.015996 0.001000 0.021139
v 0.015371 0.001000 0.022011
v 0.015684 0.001000 0.021575
v 0.014938 0.001000 0.020380
v 0.013568 0.001000 0.020057
v 0.013724 0.001000 0.019839
v 0.013351 0.001000 0.019242
v 0.012666 0.001000 0.019080
v 0.012744 0.001000 0.018971
v 0.013880 0.001000 0.019621
v 0.013958 0.001000 0.019512
v 0.014037 0.001000 0.019403
v 0.015095 0.001000 0.020162
v 0.013429 0.001000 0.019133
v 0.012900 0.001000 0.018753
v 0.012861 0.001000 0.018808
v 0.013508 0.001000 0.019024
v 0.012979 0.001000 0.018644
v 0.013586 0.001000 0.018915
v 0.013104 0.001000 0.018621
v 0.012813 0.001000 0.018555
v 0.013664 0.001000 0.018806
v 0.014193 0.001000 0.019185
v 0.014115 0.001000 0.019294
v 0.015251 0.001000 0.019944
v 0.012530 0.001000 0.018471
v 0.012597 0.001000 0.018618
v 0.012332 0.001000 0.018428
v 0.012225 0.001000 0.018356
v 0.012159 0.001000 0.018320
v 0.012313 0.001000 0.018456
v 0.012181 0.001000 0.018361
v 0.012048 0.001000 0.018266
v 0.012161 0.001000 0.018388
v 0.012029 0.001000 0.018293
v 0.012293 0.001000 0.018483
v 0.012254 0.001000 0.018537
v 0.011990 0.001000 0.018348
v 0.011725 0.001000 0.018158
v 0.011951 0.001000 0.018402
v 0.011686 0.001000 0.018212
v 0.011608 0.001000 0.018321
v 0.012137 0.001000 0.018701
v 0.012215 0.001000 0.018592
v 0.012510 0.001000 0.019298
v 0.011452 0.001000 0.018539
v 0.011139 0.001000 0.018975
v 0.011079 0.001000 0.017942
v 0.010393 0.001000 0.017781
v 0.009335 0.001000 0.017022
v 0.010550 0.001000 0.017563
v 0.009023 0.001000 0.017458
v 0.006907 0.001000 0.015940
v 0.007063 0.001000 0.015722
v 0.006750 0.001000 0.016158
v 0.008710 0.001000 0.017894
v 0.006594 0.001000 0.016376
v 0.010826 0.001000 0.019411
v 0.008397 0.001000 0.018330
v 0.006281 0.001000 0.016812
v 0.010514 0.001000 0.019847
v 0.009888 0.001000 0.020719
v 0.005656 0.001000 0.017684
v 0.004165 0.001000 0.015295
v 0.001424 0.001000 0.014649
v 0.005031 0.001000 0.018556
v 0.009263 0.001000 0.021591
v 0.000799 0.001000 0.015521
v 0.004527 0.001000 0.023388
v -0.003434 0.001000 0.012486
v -0.007040 0.001000 0.008579
v -0.002808 0.001000 0.011614
v -0.002183 0.001000 0.010742
v -0.000067 0.001000 0.012260
v 0.000246 0.001000 0.011824
v 0.002049 0.001000 0.013777
v 0.002362 0.001000 0.013341
v 0.003420 0.001000 0.014100
v 0.004478 0.001000 0.014859
v 0.003576 0.001000 0.013882
v 0.004105 0.001000 0.014261
v 0.004183 0.001000 0.014152
v 0.004634 0.001000 0.014641
v 0.004712 0.001000 0.014532
v 0.005692 0.001000 0.015399
v 0.005320 0.001000 0.014802
v 0.005849 0.001000 0.015182
v 0.005536 0.001000 0.015618
v 0.005927 0.001000 0.015073
v 0.005398 0.001000 0.014693
v 0.006005 0.001000 0.014964
v 0.006161 0.001000 0.014746
v 0.005476 0.001000 0.014584
v 0.004908 0.001000 0.014259
v 0.005025 0.001000 0.014096
v 0.004947 0.001000 0.014205
v 0.004682 0.001000 0.014015
v 0.004643 0.001000 0.014070
v 0.004511 0.001000 0.013975
v 0.005103 0.001000 0.013987
v 0.005260 0.001000 0.013769
v 0.005416 0.001000 0.013551
v 0.007532 0.001000 0.015068
v 0.009804 0.001000 0.016368
v 0.009648 0.001000 0.016586
v 0.007845 0.001000 0.014632
v 0.007219 0.001000 0.015504
v 0.009492 0.001000 0.016804
v 0.010628 0.001000 0.017454
v 0.010706 0.001000 0.017345
v 0.011157 0.001000 0.017833
v 0.011235 0.001000 0.017724
v 0.011764 0.001000 0.018103
v 0.011313 0.001000 0.017615
v 0.011803 0.001000 0.018049
v 0.012068 0.001000 0.018239
v 0.011842 0.001000 0.017994
v 0.011921 0.001000 0.017885
v 0.012107 0.001000 0.018184
v 0.012445 0.001000 0.007524
v 0.018018 0.001000 0.009384
v 0.010273 0.001000 0.015714
v 0.008157 0.001000 0.014196
v 0.006041 0.001000 0.012679
v 0.021312 0.001000 0.013727
v 0.012539 0.001000 0.003970
v 0.006578 0.001000 0.003317
v 0.017392 0.001000 0.010256
v 0.021624 0.001000 0.013291
v 0.022250 0.001000 0.012419
v 0.023740 0.001000 0.014808
v 0.026169 0.001000 0.015890
v 0.025857 0.001000 0.016326
v 0.023428 0.001000 0.015244
v 0.025700 0.001000 0.016544
v 0.025544 0.001000 0.016762
v 0.026602 0.001000 0.017521
v 0.026915 0.001000 0.017085
v 0.026482 0.001000 0.015454
v 0.026795 0.001000 0.015018
v 0.028598 0.001000 0.016972
v 0.028911 0.001000 0.016536
v 0.029223 0.001000 0.016100
v 0.030281 0.001000 0.016858
v 0.031027 0.001000 0.018053
v 0.031339 0.001000 0.017617
v 0.032397 0.001000 0.018376
v 0.032255 0.001000 0.017976
v 0.031988 0.001000 0.017750
v 0.031800 0.001000 0.017592
v 0.030700 0.001000 0.016876
v 0.026685 0.001000 0.014233
v 0.004454 0.001000 0.014012
v -0.008001 0.001000 -0.007955
v -0.012788 0.001000 -0.010572
v 0.007215 0.001000 0.000107
v -0.007375 0.001000 -0.008827
v -0.011607 0.001000 -0.011862
v -0.006750 0.001000 -0.009699
v -0.010982 0.001000 -0.012734
v -0.007789 0.001000 -0.010779
v -0.011479 0.001000 -0.013590
v -0.002789 0.001000 -0.010986
v 0.011117 0.001000 -0.013590
v 0.009483 0.001000 -0.011315
v 0.012971 0.001000 -0.012341
v 0.011854 0.001000 -0.013449
v 0.012532 0.001000 -0.013004
v -0.012389 0.001000 -0.013809
v -0.013100 0.001000 -0.014418
v -0.015214 0.001000 -0.015769
v -0.017330 0.001000 -0.017287
v -0.014902 0.001000 -0.016205
v -0.018484 0.001000 -0.021869
v -0.017018 0.001000 -0.017723
v -0.018508 0.001000 -0.020112
v -0.018196 0.001000 -0.020548
v -0.020312 0.001000 -0.022066
v -0.018941 0.001000 -0.021743
v -0.019999 0.001000 -0.022502
v -0.018785 0.001000 -0.021961
v -0.019687 0.001000 -0.022938
v -0.019843 0.001000 -0.022720
v -0.022115 0.001000 -0.024019
v -0.021803 0.001000 -0.024455
v -0.022641 0.001000 -0.027236
v -0.019530 0.001000 -0.023156
v -0.021490 0.001000 -0.024891
v -0.019374 0.001000 -0.023374
v -0.018862 0.001000 -0.023043
v -0.018855 0.001000 -0.027236
v -0.018766 0.001000 -0.022426
v -0.023053 0.001000 -0.022711
v -0.022641 0.001000 -0.029236
v -0.023366 0.001000 -0.022275
v -0.022428 0.001000 -0.023583
v -0.022741 0.001000 -0.023147
v -0.026396 0.001000 -0.035923
v -0.024304 0.001000 -0.020968
v -0.024617 0.001000 -0.020532
v -0.024929 0.001000 -0.020096
v -0.023679 0.001000 -0.021839
v -0.023991 0.001000 -0.021404
v -0.018852 0.001000 -0.029236
v -0.018848 0.001000 -0.031917
v -0.022848 0.001000 -0.035923
v -0.026396 0.001000 -0.015222
v -0.025555 0.001000 -0.019224
v -0.022813 0.001000 -0.018578
v -0.021322 0.001000 -0.016188
v -0.024689 0.001000 -0.015962
v -0.021948 0.001000 -0.015317
v -0.017716 0.001000 -0.012281
v -0.022573 0.001000 -0.014445
v -0.018341 0.001000 -0.011409
v -0.022886 0.001000 -0.014009
v -0.018966 0.001000 -0.010537
v -0.023199 0.001000 -0.013573
v -0.025002 0.001000 -0.015526
v -0.025315 0.001000 -0.015090
v -0.025471 0.001000 -0.014872
v -0.023511 0.001000 -0.013137
v -0.025627 0.001000 -0.014654
v -0.026174 0.001000 -0.014594
v -0.026339 0.001000 -0.014889
v -0.013629 0.001000 -0.000107
v -0.023824 0.001000 -0.012701
v -0.012378 0.001000 -0.001851
v -0.019592 0.001000 -0.009665
v -0.010621 0.001000 -0.004953
v -0.003914 0.001000 0.004219
v -0.013085 0.001000 -0.007970
v 0.004431 0.001000 0.013982
v 0.004406 0.001000 0.013982
v 0.004416 0.001000 0.013968
v 0.004247 0.001000 0.013785
v 0.004359 0.001000 0.013907
v 0.004227 0.001000 0.013812
v 0.004350 0.001000 0.013921
v 0.004340 0.001000 0.013934
v 0.004208 0.001000 0.013839
v 0.004036 0.001000 0.013799
v 0.004320 0.001000 0.013962
v 0.004075 0.001000 0.013745
v 0.003811 0.001000 0.013555
v 0.004095 0.001000 0.013717
v 0.004114 0.001000 0.013690
v 0.003850 0.001000 0.013500
v 0.003282 0.001000 0.013176
v 0.003360 0.001000 0.013067
v 0.003889 0.001000 0.013446
v 0.002987 0.001000 0.012469
v 0.001929 0.001000 0.011710
v 0.002831 0.001000 0.012687
v 0.001184 0.001000 0.010516
v -0.000932 0.001000 0.008998
v 0.000871 0.001000 0.010952
v -0.004539 0.001000 0.005091
v -0.005164 0.001000 0.005963
v -0.001245 0.001000 0.009434
v -0.005790 0.001000 0.006835
v -0.001558 0.001000 0.009870
v -0.001870 0.001000 0.010306
v -0.006415 0.001000 0.007707
v 0.000715 0.001000 0.011170
v 0.000558 0.001000 0.011388
v 0.001617 0.001000 0.012146
v 0.002675 0.001000 0.012905
v 0.002753 0.001000 0.012796
v 0.002518 0.001000 0.013123
v 0.001773 0.001000 0.011928
v 0.003654 0.001000 0.013773
v 0.003204 0.001000 0.013285
v 0.003772 0.001000 0.013609
v 0.003733 0.001000 0.013664
v 0.003997 0.001000 0.013854
v 0.004262 0.001000 0.014043
v 0.004301 0.001000 0.013989
v 0.004433 0.001000 0.014084
v 0.004526 0.001000 0.014233
v 0.004565 0.001000 0.014179
v 0.004791 0.001000 0.014423
v 0.004830 0.001000 0.014368
v 0.004869 0.001000 0.014314
v 0.004585 0.001000 0.014151
v 0.004604 0.001000 0.014124
v 0.004453 0.001000 0.014056
v 0.004472 0.001000 0.014029
v 0.004482 0.001000 0.014016
v 0.004624 0.001000 0.014097
v 0.004492 0.001000 0.014002
v -0.020782 0.001000 -0.018388
v -0.020384 0.001000 -0.017496
v -0.020697 0.001000 -0.017060
v -0.021443 0.001000 -0.018255
v -0.021286 0.001000 -0.018473
v -0.022344 0.001000 -0.019232
v -0.021130 0.001000 -0.018691
v -0.022188 0.001000 -0.019450
v -0.020986 0.001000 -0.018780
v -0.021042 0.001000 -0.019206
v -0.022032 0.001000 -0.019668
v -0.021875 0.001000 -0.019886
v -0.021719 0.001000 -0.020104
v -0.020948 0.001000 -0.019609
v -0.021563 0.001000 -0.020322
v -0.020724 0.001000 -0.019931
v -0.020411 0.001000 -0.020130
v -0.021406 0.001000 -0.020540
v -0.021250 0.001000 -0.020758
v -0.021094 0.001000 -0.020976
v -0.020063 0.001000 -0.020181
v -0.019739 0.001000 -0.020082
v -0.019495 0.001000 -0.019853
v -0.019879 0.001000 -0.020435
v -0.018821 0.001000 -0.019676
v -0.020625 0.001000 -0.021630
v -0.020937 0.001000 -0.021194
v -0.022501 0.001000 -0.019014
v -0.019126 0.001000 -0.033391
v -0.021374 0.001000 -0.035642
v -0.020017 0.001000 -0.034749
v -0.012233 0.001000 -0.010990
v 0.005729 0.001000 0.013115
v 0.009961 0.001000 0.016150
v 0.011019 0.001000 0.016909
v 0.010863 0.001000 0.017127
v 0.011392 0.001000 0.017506
v 0.010784 0.001000 0.017236
v 0.005221 0.001000 0.023936
v 0.013255 0.001000 0.020493
v 0.012558 0.001000 0.018673
v 0.012822 0.001000 0.018862
v 0.031892 0.001000 0.021315
v 0.029932 0.001000 0.019579
v 0.029620 0.001000 0.020015
v 0.029776 0.001000 0.019797
v 0.028796 0.001000 0.018929
v 0.029463 0.001000 0.020233
v 0.028483 0.001000 0.019365
v -0.012788 0.001000 -0.010572
v -0.012788 -0.001000 -0.010572
v 0.006578 0.001000 0.003317
v 0.006578 -0.001000 0.003317
v -0.019495 0.001000 -0.019853
v -0.019495 -0.001000 -0.019853
v -0.012788 0.001000 -0.010572
v -0.012788 -0.001000 -0.010572
v -0.020782 0.001000 -0.018388
v -0.020782 -0.001000 -0.018388
v -0.020986 0.001000 -0.018778
v -0.020986 -0.001000 -0.018778
v -0.021042 0.001000 -0.019206
v -0.021042 0.000000 -0.019206
v -0.021042 -0.001000 -0.019206
v -0.013085 0.001000 -0.007970
v -0.013085 -0.001000 -0.007970
v -0.020782 0.001000 -0.018388
v -0.020782 -0.001000 -0.018388
v -0.010621 0.001000 -0.004953
v -0.010621 -0.001000 -0.004953
v -0.011853 0.001000 -0.006462
v -0.011853 -0.001000 -0.006462
v -0.013085 0.001000 -0.007970
v -0.013085 -0.001000 -0.007970
v 0.004431 0.001000 0.013982
v -0.010621 0.001000 -0.004953
v 0.004431 0.000778 0.013982
v 0.004431 0.000556 0.013982
v 0.004431 0.000333 0.013982
v 0.004431 0.000111 0.013982
v 0.004431 -0.000111 0.013982
v -0.010621 -0.001000 -0.004953
v 0.004431 -0.000333 0.013982
v 0.004431 -0.000556 0.013982
v 0.004431 -0.000778 0.013982
v 0.004431 -0.001000 0.013982
v 0.004454 0.001000 0.014012
v 0.004454 0.000778 0.014012
v 0.004431 0.001000 0.013982
v 0.004431 0.000778 0.013982
v 0.004431 0.000556 0.013982
v 0.004431 0.000333 0.013982
v 0.004454 0.000556 0.014012
v 0.004454 0.000333 0.014012
v 0.004454 0.000111 0.014012
v 0.004431 0.000111 0.013982
v 0.004454 -0.000111 0.014012
v 0.004454 -0.000333 0.014012
v 0.004431 -0.000111 0.013982
v 0.004431 -0.000333 0.013982
v 0.004431 -0.000556 0.013982
v 0.004454 -0.000556 0.014012
v 0.004431 -0.000778 0.013982
v 0.004454 -0.000778 0.014012
v 0.004431 -0.001000 0.013982
v 0.004454 -0.001000 0.014012
v 0.006578 0.001000 0.003317
v 0.004454 0.000778 0.014012
v 0.004454 0.001000 0.014012
v 0.004454 0.000556 0.014012
v 0.006578 -0.001000 0.003317
v 0.004454 0.000111 0.014012
v 0.004454 0.000333 0.014012
v 0.004454 -0.000111 0.014012
v 0.004454 -0.000333 0.014012
v 0.004454 -0.000556 0.014012
v 0.004454 -0.000778 0.014012
v 0.004454 -0.001000 0.014012
v -0.021042 0.001000 -0.019206
v -0.021042 0.000000 -0.019206
v -0.020950 0.001000 -0.019604
v -0.020950 -0.001000 -0.019604
v -0.020724 0.001000 -0.019931
v -0.020724 0.000000 -0.019931
v -0.020724 -0.001000 -0.019931
v -0.021042 -0.001000 -0.019206
v -0.020724 0.001000 -0.019931
v -0.020724 0.000000 -0.019931
v -0.020416 0.001000 -0.020128
v -0.020416 -0.001000 -0.020128
v -0.020063 0.001000 -0.020181
v -0.020063 0.000000 -0.020181
v -0.020063 -0.001000 -0.020181
v -0.020724 -0.001000 -0.019931
v -0.020063 0.001000 -0.020181
v -0.019739 0.001000 -0.020082
v -0.020063 0.000000 -0.020181
v -0.019739 -0.001000 -0.020082
v -0.020063 -0.001000 -0.020181
v -0.019495 -0.001000 -0.019853
v -0.019495 0.001000 -0.019853
v 0.007215 0.001000 0.000107
v 0.007215 -0.001000 0.000107
v -0.007789 0.001000 -0.010779
v -0.007789 -0.001000 -0.010779
v 0.009483 0.001000 -0.011315
v 0.009483 -0.001000 -0.011315
v 0.008349 0.001000 -0.005604
v 0.008349 -0.001000 -0.005604
v 0.007215 0.001000 0.000107
v 0.007215 -0.001000 0.000107
v -0.002789 0.001000 -0.010986
v -0.002789 -0.001000 -0.010986
v 0.009483 0.001000 -0.011315
v 0.009483 -0.001000 -0.011315
v -0.007789 0.001000 -0.010779
v -0.007789 -0.001000 -0.010779
v -0.002789 0.001000 -0.010986
v -0.002789 -0.001000 -0.010986
v 0.012445 0.001000 0.007524
v 0.012445 -0.001000 0.007524
v 0.027934 0.000500 0.018633
v 0.027934 0.001000 0.018633
v 0.027934 -0.000000 0.018633
v 0.027934 -0.000500 0.018633
v 0.027934 -0.001000 0.018633
v 0.012159 0.001000 0.018320
v 0.012445 0.001000 0.007524
v 0.012159 0.000600 0.018320
v 0.012159 0.000200 0.018320
v 0.012159 -0.000200 0.018320
v 0.012445 -0.001000 0.007524
v 0.012159 -0.000600 0.018320
v 0.012159 -0.001000 0.018320
v 0.012225 0.001000 0.018356
v 0.012225 0.000714 0.018356
v 0.012159 0.001000 0.018320
v 0.012159 0.000600 0.018320
v 0.012225 0.000429 0.018356
v 0.012159 0.000200 0.018320
v 0.012159 -0.000200 0.018320
v 0.012225 0.000143 0.018356
v 0.012225 -0.000143 0.018356
v 0.012225 -0.000429 0.018356
v 0.012159 -0.000600 0.018320
v 0.012225 -0.000714 0.018356
v 0.012225 -0.001000 0.018356
v 0.012159 -0.001000 0.018320
v 0.013678 0.001000 0.018700
v 0.013306 0.001000 0.018656
v 0.013678 -0.001000 0.018700
v 0.013306 -0.001000 0.018656
v 0.012938 -0.001000 0.018586
v 0.012577 -0.000000 0.018486
v 0.012577 -0.001000 0.018486
v 0.012938 0.001000 0.018586
v 0.012577 0.001000 0.018486
v 0.012399 0.001000 0.018425
v 0.012225 0.001000 0.018356
v 0.012399 -0.000000 0.018425
v 0.012225 0.000714 0.018356
v 0.012225 0.000429 0.018356
v 0.012225 0.000143 0.018356
v 0.012225 -0.000143 0.018356
v 0.012225 -0.000429 0.018356
v 0.012225 -0.000714 0.018356
v 0.012399 -0.001000 0.018425
v 0.012225 -0.001000 0.018356
v 0.027862 0.001000 0.018700
v 0.013678 0.001000 0.018700
v 0.027862 0.000500 0.018700
v 0.027862 -0.000000 0.018700
v 0.013678 -0.001000 0.018700
v 0.027862 -0.000500 0.018700
v 0.027862 -0.001000 0.018700
v 0.027934 0.001000 0.018633
v 0.027934 0.000500 0.018633
v 0.027862 0.001000 0.018700
v 0.027862 0.000500 0.018700
v 0.027862 -0.000000 0.018700
v 0.027934 -0.000000 0.018633
v 0.027862 -0.000500 0.018700
v 0.027934 -0.000500 0.018633
v 0.027862 -0.001000 0.018700
v 0.027934 -0.001000 0.018633
v 0.031536 0.001000 0.024131
v 0.031536 -0.001000 0.024131
v 0.006083 0.001000 0.024131
v 0.006083 -0.001000 0.024131
v 0.006083 -0.001000 0.024131
v 0.005221 -0.001000 0.023936
v 0.006083 0.001000 0.024131
v 0.005221 0.001000 0.023936
v 0.004527 0.001000 0.023388
v 0.004527 -0.001000 0.023388
v 0.004527 0.001000 0.023388
v 0.004527 -0.001000 0.023388
v -0.026174 0.001000 -0.014594
v -0.026174 -0.001000 -0.014594
v -0.026174 -0.001000 -0.014594
v -0.026339 -0.001000 -0.014889
v -0.026174 0.001000 -0.014594
v -0.026339 0.001000 -0.014889
v -0.026396 0.001000 -0.015222
v -0.026396 -0.001000 -0.015222
v -0.022848 0.001000 -0.035923
v -0.022848 -0.001000 -0.035923
v -0.026396 0.001000 -0.035923
v -0.026396 -0.001000 -0.035923
v -0.018848 0.001000 -0.031917
v -0.019146 0.001000 -0.033438
v -0.018848 -0.001000 -0.031917
v -0.019146 -0.001000 -0.033438
v -0.020046 -0.001000 -0.034779
v -0.020046 0.001000 -0.034779
v -0.021392 -0.001000 -0.035649
v -0.021392 0.001000 -0.035649
v -0.022848 -0.001000 -0.035923
v -0.022848 0.001000 -0.035923
v -0.018852 0.001000 -0.029236
v -0.018852 -0.001000 -0.029236
v -0.018848 0.001000 -0.031917
v -0.018848 -0.001000 -0.031917
v -0.022641 0.001000 -0.029236
v -0.022641 -0.001000 -0.029236
v -0.018852 0.001000 -0.029236
v -0.018852 -0.001000 -0.029236
v -0.022641 0.001000 -0.027236
v -0.022641 -0.001000 -0.027236
v -0.022641 0.001000 -0.029236
v -0.022641 -0.001000 -0.029236
v -0.018855 0.001000 -0.027236
v -0.018855 -0.001000 -0.027236
v -0.022641 0.001000 -0.027236
v -0.022641 -0.001000 -0.027236
v -0.018862 0.001000 -0.023043
v -0.018862 -0.001000 -0.023043
v -0.018855 0.001000 -0.027236
v -0.018855 -0.001000 -0.027236
v -0.018484 0.001000 -0.021869
v -0.018484 -0.001000 -0.021869
v -0.018766 0.001000 -0.022427
v -0.018766 -0.001000 -0.022427
v -0.018862 0.001000 -0.023043
v -0.018862 -0.001000 -0.023043
v -0.013100 0.001000 -0.014418
v -0.013100 -0.001000 -0.014418
v -0.018484 0.001000 -0.021869
v -0.018484 -0.001000 -0.021869
v -0.011479 0.001000 -0.013590
v -0.011479 -0.001000 -0.013590
v -0.012393 0.001000 -0.013811
v -0.012393 -0.001000 -0.013811
v -0.013100 0.001000 -0.014418
v -0.013100 -0.001000 -0.014418
v 0.011117 0.001000 -0.013590
v 0.011117 -0.001000 -0.013590
v -0.011479 0.001000 -0.013590
v -0.011479 -0.001000 -0.013590
v 0.012971 0.001000 -0.012341
v 0.012532 0.001000 -0.013004
v 0.012971 -0.001000 -0.012341
v 0.012532 -0.001000 -0.013004
v 0.011875 -0.001000 -0.013441
v 0.011875 0.001000 -0.013441
v 0.011117 -0.001000 -0.013590
v 0.011117 0.001000 -0.013590
v 0.012539 0.001000 0.003970
v 0.012539 -0.001000 0.003970
v 0.012755 0.001000 -0.004186
v 0.012755 -0.001000 -0.004186
v 0.012971 0.001000 -0.012341
v 0.012971 -0.001000 -0.012341
v 0.026685 0.001000 0.014233
v 0.023149 -0.000000 0.011668
v 0.023149 0.001000 0.011668
v 0.026685 -0.001000 0.014233
v 0.023149 -0.001000 0.011668
v 0.019612 -0.001000 0.009102
v 0.019612 -0.000000 0.009102
v 0.016076 -0.001000 0.006536
v 0.012539 -0.001000 0.003970
v 0.016076 -0.000000 0.006536
v 0.016076 0.001000 0.006536
v 0.012539 0.001000 0.003970
v 0.019612 0.001000 0.009102
v 0.030700 0.001000 0.016876
v 0.030700 -0.001000 0.016876
v 0.026685 0.001000 0.014233
v 0.026685 -0.001000 0.014233
v 0.031800 0.001000 0.017592
v 0.031800 -0.001000 0.017592
v 0.030700 0.001000 0.016876
v 0.030700 -0.001000 0.016876
v -0.026396 -0.001000 -0.015222
v -0.026396 -0.001000 -0.035923
v -0.026396 0.001000 -0.015222
v -0.026396 0.001000 -0.035923
v 0.031988 -0.001000 0.017750
v 0.032255 -0.001000 0.017976
v 0.031988 0.001000 0.017750
v 0.032255 0.001000 0.017976
v 0.031800 -0.001000 0.017592
v 0.031988 -0.001000 0.017750
v 0.031800 0.001000 0.017592
v 0.031988 0.001000 0.017750
v 0.031536 -0.001000 0.024131
v 0.031536 0.001000 0.024131
v 0.032912 -0.001000 0.023797
v 0.032912 0.001000 0.023797
v 0.033578 -0.001000 0.023330
v 0.033578 0.001000 0.023330
v 0.034113 -0.001000 0.022668
v 0.034113 0.001000 0.022668
v 0.034442 -0.001000 0.021878
v 0.034535 -0.001000 0.021055
v 0.034442 0.001000 0.021878
v 0.034535 0.001000 0.021055
v 0.034145 -0.000000 0.019649
v 0.034145 0.001000 0.019649
v 0.034145 -0.001000 0.019649
v 0.034145 -0.001000 0.019649
v 0.034535 -0.001000 0.021055
v 0.033920 -0.001000 0.019379
v 0.032255 -0.001000 0.017976
v 0.031988 -0.001000 0.017750
v 0.027934 -0.001000 0.018633
v 0.030700 -0.001000 0.016876
v 0.026685 -0.001000 0.014233
v 0.031800 -0.001000 0.017592
v 0.012539 -0.001000 0.003970
v 0.012445 -0.001000 0.007524
v 0.004454 -0.001000 0.014012
v 0.012159 -0.001000 0.018320
v 0.006578 -0.001000 0.003317
v -0.012788 -0.001000 -0.010572
v -0.007789 -0.001000 -0.010779
v 0.007215 -0.001000 0.000107
v 0.009483 -0.001000 -0.011315
v 0.011117 -0.001000 -0.013590
v 0.012971 -0.001000 -0.012341
v -0.002789 -0.001000 -0.010986
v -0.011479 -0.001000 -0.013590
v -0.012389 -0.001000 -0.013809
v -0.013100 -0.001000 -0.014418
v -0.018484 -0.001000 -0.021869
v -0.019495 -0.001000 -0.019853
v -0.019739 -0.001000 -0.020082
v -0.020063 -0.001000 -0.020181
v -0.022641 -0.001000 -0.027236
v -0.018766 -0.001000 -0.022426
v -0.020411 -0.001000 -0.020130
v -0.020724 -0.001000 -0.019931
v -0.020948 -0.001000 -0.019609
v -0.026396 -0.001000 -0.015222
v -0.021042 -0.001000 -0.019206
v -0.020986 -0.001000 -0.018780
v -0.020782 -0.001000 -0.018388
v -0.013085 -0.001000 -0.007970
v -0.010621 -0.001000 -0.004953
v -0.026174 -0.001000 -0.014594
v 0.004527 -0.001000 0.023388
v 0.004431 -0.001000 0.013982
v -0.026339 -0.001000 -0.014889
v 0.006083 -0.001000 0.024131
v 0.005221 -0.001000 0.023936
v 0.031536 -0.001000 0.024131
v 0.013678 -0.001000 0.018700
v 0.013104 -0.001000 0.018621
v 0.012813 -0.001000 0.018555
v 0.012530 -0.001000 0.018471
v 0.012225 -0.001000 0.018356
v 0.027862 -0.001000 0.018700
v 0.033578 -0.001000 0.023330
v 0.032912 -0.001000 0.023797
v 0.034113 -0.001000 0.022668
v 0.034442 -0.001000 0.021878
v -0.026396 -0.001000 -0.035923
v -0.018852 -0.001000 -0.029236
v -0.022641 -0.001000 -0.029236
v -0.018848 -0.001000 -0.031917
v -0.022848 -0.001000 -0.035923
v -0.019126 -0.001000 -0.033391
v -0.021374 -0.001000 -0.035642
v -0.020017 -0.001000 -0.034749
v -0.018862 -0.001000 -0.023043
v -0.018855 -0.001000 -0.027236
v 0.011854 -0.001000 -0.013449
v 0.012532 -0.001000 -0.013004
vn 0.000000 1.000000 0.000000
vn 0.000000 1.000000 0.000000
vn 0.000000 1.000000 0.000000
vn 0.000000 1.000000 0.000000
vn 0.000000 1.000000 0.000000
vn 0.000000 1.000000 0.000000
vn 0.000000 1.000000 0.000000
vn 0.000000 1.000000 0.000000
vn 0.000000 1.000000 0.000000
vn 0.000000 1.000000 0.000000
vn 0.000000 1.000000 0.000000
vn 0.000000 1.000000 0.000000
vn 0.000000 1.000000 0.000000
vn 0.000000 1.000000 0.000000
vn 0.000000 1.000000 0.000000
vn 0.000000 1.000000 0.000000
vn 0.000000 1.000000 0.000000
vn 0.000000 1.000000 0.000000
vn 0.000000 1.000000 0.000000
vn 0.000000 1.000000 0.000000
vn 0.000000 1.000000 0.000000
vn 0.000000 1.000000 0.000000
vn 0.000000 1.000000 0.000000
vn 0.000000 1.000000 0.000000
vn 0.000000 1.000000 0.000000
vn 0.000000 1.000000 0.000000
vn 0.000000 1.000000 0.000000
vn 0.000000 1.000000 0.000000
vn 0.000000 1.000000 0.000000
vn 0.000000 1.000000 0.000000
vn 0.000000 1.000000 0.000000
vn 0.000000 1.000000 0.000000
vn 0.000000 1.000000 0.000000
vn 0.000000 1.000000 0.000000
vn 0.000000 1.000000 0.000000
vn 0.000000 1.000000 0.000000
vn 0.000000 1.000000 0.000000
vn 0.000000 1.000000 0.000000
vn 0.000000 1.000000 0.000000
vn 0.000000 1.000000 0.000000
vn 0.000000 1.000000 0.000000
vn 0.000000 1.000000 0.000000
vn 0.000000 1.000000 0.000000
vn 0.000000 1.000000 0.000000
vn 0.000000 1.000000 0.000000
vn 0.000000 1.000000 0.000000
vn 0.000000 1.000000 0.000000
vn 0.000000 1.000000 0.000000
vn 0.000000 1.000000 0.000000
vn 0.000000 1.000000 0.000000
vn 0.000000 1.000000 0.000000
vn 0.000000 1.000000 0.000000
vn 0.000000 1.000000 0.000000
vn 0.000000 1.000000 0.000000
vn 0.000000 1.000000 0.000000
vn 0.000000 1.000000 0.000000
vn 0.000000 1.000000 0.000000
vn 0.000000 1.000000 0.000000
vn 0.000000 1.000000 0.000000
vn 0.000000 1.000000 0.000000
vn 0.000000 1.000000 0.000000
vn 0.000000 1.000000 0.000000
vn 0.000000 1.000000 0.000000
vn 0.000000 1.000000 0.000000
vn 0.000000 1.000000 0.000000
vn 0.000000 1.000000 0.000000
vn 0.000000 1.000000 0.000000
vn 0.000000 1.000000 0.000000
vn 0.000000 1.000000 0.000000
vn 0.000000 1.000000 0.000000
vn 0.000000 1.000000 0.000000
vn 0.000000 1.000000 0.000000
vn 0.000000 1.000000 0.000000
vn 0.000000 1.000000 0.000000
vn 0.000000 1.000000 0.000000
vn 0.000000 1.000000 0.000000
vn 0.000000 1.000000 0.000000
vn 0.000000 1.000000 0.000000
vn 0.000000 1.000000 0.000000
vn 0.000000 1.000000 0.000000
vn 0.000000 1.000000 0.000000
vn 0.000000 1.000000 0.000000
vn 0.000000 1.000000 0.000000
vn 0.000000 1.000000 0.000000
vn 0.000000 1.000000 0.000000
vn 0.000000 1.000000 0.000000
vn 0.000000 1.000000 0.000000
vn 0.000000 1.000000 0.000000
vn 0.000000 1.000000 0.000000
vn 0.000000 1.000000 0.000000
vn 0.000000 1.000000 0.000000
vn 0.000000 1.000000 0.000000
vn 0.000000 1.000000 0.000000
vn 0.000000 1.000000 0.000000
vn 0.000000 1.000000 0.000000
vn 0.000000 1.000000 0.000000
vn 0.000000 1.000000 0.000000
vn 0.000000 1.000000 0.000000
vn 0.000000 1.000000 0.000000
vn 0.000000 1.000000 0.000000
vn 0.000000 1.000000 0.000000
vn 0.000000 1.000000 0.000000
vn 0.000000 1.000000 0.000000
vn 0.000000 1.000000 0.000000
vn 0.000000 1.000000 0.000000
vn 0.000000 1.000000 0.000000
vn 0.000000 1.000000 0.000000
vn 0.000000 1.000000 0.000000
vn 0.000000 1.000000 0.000000
vn 0.000000 1.000000 0.000000
vn 0.000000 1.000000 0.000000
vn 0.000000 1.000000 0.000000
vn 0.000000 1.000000 0.000000
vn 0.000000 1.000000 0.000000
vn 0.000000 1.000000 0.000000
vn 0.000000 1.000000 0.000000
vn 0.000000 1.000000 0.000000
vn 0.000000 1.000000 0.000000
vn 0.000000 1.000000 0.000000
vn 0.000000 1.000000 0.000000
vn 0.000000 1.000000 0.000000
vn 0.000000 1.000000 0.000000
vn 0.000000 1.000000 0.000000
vn 0.000000 1.000000 0.000000
vn 0.000000 1.000000 0.000000
vn 0.000000 1.000000 0.000000
vn 0.000000 1.000000 0.000000
vn 0.000000 1.000000 0.000000
vn 0.000000 1.000000 0.000000
vn 0.000000 1.000000 0.000000
vn 0.000000 1.000000 0.000000
vn 0.000000 1.000000 0.000000
vn 0.000000 1.000000 0.000000
vn 0.000000 1.000000 0.000000
vn 0.000000 1.000000 0.000000
vn 0.000000 1.000000 0.000000
vn 0.000000 1.000000 0.000000
vn 0.000000 1.000000 0.000000
vn 0.000000 1.000000 0.000000
vn 0.000000 1.000000 0.000000
vn 0.000000 1.000000 0.000000
vn 0.000000 1.000000 0.000000
vn 0.000000 1.000000 0.000000
vn 0.000000 1.000000 0.000000
vn 0.000000 1.000000 0.000000
vn 0.000000 1.000000 0.000000
vn 0.000000 1.000000 0.000000
vn 0.000000 1.000000 0.000000
vn 0.000000 1.000000 0.000000
vn 0.000000 1.000000 0.000000
vn 0.000000 1.000000 0.000000
vn 0.000000 1.000000 0.000000
vn 0.000000 1.000000 0.000000
vn 0.000000 1.000000 0.000000
vn 0.000000 1.000000 0.000000
vn 0.000000 1.000000 0.000000
vn 0.000000 1.000000 0.000000
vn 0.000000 1.000000 0.000000
vn 0.000000 1.000000 0.000000
vn 0.000000 1.000000 0.000000
vn 0.000000 1.000000 0.000000
vn 0.000000 1.000000 0.000000
vn 0.000000 1.000000 0.000000
vn 0.000000 1.000000 0.000000
vn 0.000000 1.000000 0.000000
vn 0.000000 1.000000 0.000000
vn 0.000000 1.000000 0.000000
vn 0.000000 1.000000 0.000000
vn 0.000000 1.000000 0.000000
vn 0.000000 1.000000 0.000000
vn 0.000000 1.000000 0.000000
vn 0.000000 1.000000 0.000000
vn 0.000000 1.000000 0.000000
vn 0.000000 1.000000 0.000000
vn 0.000000 1.000000 0.000000
vn 0.000000 1.000000 0.000000
vn 0.000000 1.000000 0.000000
vn 0.000000 1.000000 0.000000
vn 0.000000 1.000000 0.000000
vn 0.000000 1.000000 0.000000
vn 0.000000 1.000000 0.000000
vn 0.000000 1.000000 0.000000
vn 0.000000 1.000000 0.000000
vn 0.000000 1.000000 0.000000
vn 0.000000 1.000000 0.000000
vn 0.000000 1.000000 0.000000
vn 0.000000 1.000000 0.000000
vn 0.000000 1.000000 0.000000
vn 0.000000 1.000000 0.000000
vn 0.000000 1.000000 0.000000
vn 0.000000 1.000000 0.000000
vn 0.000000 1.000000 0.000000
vn 0.000000 1.000000 0.000000
vn 0.000000 1.000000 0.000000
vn 0.000000 1.000000 0.000000
vn 0.000000 1.000000 0.000000
vn 0.000000 1.000000 0.000000
vn 0.000000 1.000000 0.000000
vn 0.000000 1.000000 0.000000
vn 0.000000 1.000000 0.000000
vn 0.000000 1.000000 0.000000
vn 0.000000 1.000000 0.000000
vn 0.000000 1.000000 0.000000
vn 0.000000 1.000000 0.000000
vn 0.000000 1.000000 0.000000
vn 0.000000 1.000000 0.000000
vn 0.000000 1.000000 0.000000
vn 0.000000 1.000000 0.000000
vn 0.000000 1.000000 0.000000
vn 0.000000 1.000000 0.000000
vn 0.000000 1.000000 0.000000
vn 0.000000 1.000000 0.000000
vn 0.000000 1.000000 0.000000
vn 0.000000 1.000000 0.000000
vn 0.000000 1.000000 0.000000
vn 0.000000 1.000000 0.000000
vn 0.000000 1.000000 0.000000
vn 0.000000 1.000000 0.000000
vn 0.000000 1.000000 0.000000
vn 0.000000 1.000000 0.000000
vn 0.000000 1.000000 0.000000
vn 0.000000 1.000000 0.000000
vn 0.000000 1.000000 0.000000
vn 0.000000 1.000000 0.000000
vn 0.000000 1.000000 0.000000
vn 0.000000 1.000000 0.000000
vn 0.000000 1.000000 0.000000
vn 0.000000 1.000000 0.000000
vn 0.000000 1.000000 0.000000
vn 0.000000 1.000000 0.000000
vn 0.000000 1.000000 0.000000
vn 0.000000 1.000000 0.000000
vn 0.000000 1.000000 0.000000
vn 0.000000 1.000000 0.000000
vn 0.000000 1.000000 0.000000
vn 0.000000 1.000000 0.000000
vn 0.000000 1.000000 0.000000
vn 0.000000 1.000000 0.000000
vn 0.000000 1.000000 0.000000
vn 0.000000 1.000000 0.000000
vn 0.000000 1.000000 0.000000
vn 0.000000 1.000000 0.000000
vn 0.000000 1.000000 0.000000
vn 0.000000 1.000000 0.000000
vn 0.000000 1.000000 0.000000
vn 0.000000 1.000000 0.000000
vn 0.000000 1.000000 0.000000
vn 0.000000 1.000000 0.000000
vn 0.000000 1.000000 0.000000
vn 0.000000 1.000000 0.000000
vn 0.000000 1.000000 0.000000
vn 0.000000 1.000000 0.000000
vn 0.000000 1.000000 0.000000
vn 0.000000 1.000000 0.000000
vn 0.000000 1.000000 0.000000
vn 0.000000 1.000000 0.000000
vn 0.000000 1.000000 0.000000
vn 0.000000 1.000000 0.000000
vn 0.000000 1.000000 0.000000
vn 0.000000 1.000000 0.000000
vn 0.000000 1.000000 0.000000
vn 0.000000 1.000000 0.000000
vn 0.000000 1.000000 0.000000
vn 0.000000 1.000000 0.000000
vn 0.000000 1.000000 0.000000
vn 0.000000 1.000000 0.000000
vn 0.000000 1.000000 0.000000
vn 0.000000 1.000000 0.000000
vn 0.000000 1.000000 0.000000
vn 0.000000 1.000000 0.000000
vn 0.000000 1.000000 0.000000
vn 0.000000 1.000000 0.000000
vn 0.000000 1.000000 0.000000
vn 0.000000 1.000000 0.000000
vn 0.000000 1.000000 0.000000
vn 0.000000 1.000000 0.000000
vn 0.000000 1.000000 0.000000
vn 0.000000 1.000000 0.000000
vn 0.000000 1.000000 0.000000
vn 0.000000 1.000000 0.000000
vn 0.000000 1.000000 0.000000
vn 0.000000 1.000000 0.000000
vn 0.000000 1.000000 0.000000
vn 0.000000 1.000000 0.000000
vn 0.000000 1.000000 0.000000
vn 0.000000 1.000000 0.000000
vn 0.000000 1.000000 0.000000
vn 0.000000 1.000000 0.000000
vn 0.000000 1.000000 0.000000
vn 0.000000 1.000000 0.000000
vn 0.000000 1.000000 0.000000
vn 0.000000 1.000000 0.000000
vn 0.000000 1.000000 0.000000
vn 0.000000 1.000000 0.000000
vn 0.000000 1.000000 0.000000
vn 0.000000 1.000000 0.000000
vn 0.000000 1.000000 0.000000
vn 0.000000 1.000000 0.000000
vn 0.000000 1.000000 0.000000
vn 0.000000 1.000000 0.000000
vn 0.000000 1.000000 0.000000
vn 0.000000 1.000000 0.000000
vn 0.000000 1.000000 0.000000
vn 0.000000 1.000000 0.000800
vn 0.000000 1.000000 0.000000
vn 0.000000 1.000000 0.000000
vn 0.000000 1.000000 0.000000
vn 0.000000 1.000000 0.000000
vn 0.000000 1.000000 0.000000
vn 0.000000 1.000000 0.000000
vn 0.000000 1.000000 0.000000
vn 0.000000 1.000000 0.000000
vn 0.000000 1.000000 0.000000
vn 0.000000 1.000000 0.000000
vn 0.000000 1.000000 0.000000
vn 0.000000 1.000000 0.000000
vn 0.000000 1.000000 0.000000
vn 0.000000 1.000000 0.000000
vn 0.000000 1.000000 0.000000
vn 0.000000 1.000000 0.000000
vn 0.000000 1.000000 0.000000
vn 0.000000 1.000000 0.000000
vn 0.000000 1.000000 0.000000
vn 0.000000 1.000000 0.000000
vn 0.000000 1.000000 0.000000
vn 0.000000 1.000000 0.000000
vn 0.000000 1.000000 0.000000
vn 0.000000 1.000000 0.000000
vn 0.000000 1.000000 0.000000
vn 0.000000 1.000000 0.000000
vn 0.000000 1.000000 0.000000
vn 0.000000 1.000000 0.000000
vn 0.000000 1.000000 0.000000
vn 0.000000 1.000000 0.000000
vn 0.000000 1.000000 0.000000
vn 0.000000 1.000000 0.000000
vn 0.000000 1.000000 0.000000
vn 0.000000 1.000000 0.000000
vn 0.000000 1.000000 0.000000
vn 0.000000 1.000000 0.000000
vn 0.000000 1.000000 0.000000
vn 0.000000 1.000000 0.000000
vn 0.000000 1.000000 0.000000
vn 0.000000 1.000000 0.000000
vn 0.000000 1.000000 0.000000
vn 0.000000 1.000000 0.000000
vn 0.000000 1.000000 0.000000
vn 0.000000 1.000000 0.000000
vn 0.000000 1.000000 0.000000
vn 0.000000 1.000000 0.000000
vn 0.000000 1.000000 0.000000
vn 0.000000 1.000000 0.000000
vn 0.000000 1.000000 0.000000
vn 0.000000 1.000000 0.000000
vn 0.000000 1.000000 0.000000
vn 0.000000 1.000000 0.000000
vn 0.000000 1.000000 0.000000
vn 0.000000 1.000000 0.000000
vn 0.000000 1.000000 0.000000
vn 0.000000 1.000000 0.000000
vn 0.000000 1.000000 0.000000
vn 0.000000 1.000000 0.000000
vn 0.000000 1.000000 0.000000
vn 0.000000 1.000000 0.000000
vn 0.000000 1.000000 0.000000
vn 0.000000 1.000000 0.000000
vn 0.000000 1.000000 0.000000
vn 0.000000 1.000000 0.000000
vn 0.000000 1.000000 0.000000
vn 0.000000 1.000000 0.000000
vn 0.000000 1.000000 0.000000
vn 0.000000 1.000000 0.000000
vn 0.000000 1.000000 0.000000
vn 0.000000 1.000000 0.000000
vn 0.000000 1.000000 0.000000
vn 0.000000 1.000000 0.000000
vn 0.000000 1.000000 0.000000
vn 0.000000 1.000000 0.000000
vn 0.000000 1.000000 0.000000
vn 0.000000 1.000000 0.000000
vn 0.000000 1.000000 0.000000
vn 0.000000 1.000000 0.000000
vn 0.000000 1.000000 0.000000
vn 0.000000 1.000000 0.000000
vn 0.000000 1.000000 0.000000
vn 0.000000 1.000000 0.000000
vn 0.000000 1.000000 0.000000
vn 0.000000 1.000000 0.000000
vn 0.000000 1.000000 0.000000
vn 0.000000 1.000000 0.000000
vn 0.000000 1.000000 0.000000
vn 0.000000 1.000000 0.000000
vn 0.000000 1.000000 0.000000
vn 0.000000 1.000000 0.000000
vn 0.000000 1.000000 0.000000
vn 0.000000 1.000000 0.000000
vn 0.000000 1.000000 0.000000
vn 0.000000 1.000000 0.000000
vn 0.000000 1.000000 0.000000
vn 0.000000 1.000000 0.000000
vn 0.000000 1.000000 0.000000
vn 0.000000 1.000000 0.000000
vn 0.000000 1.000000 0.000000
vn 0.000000 1.000000 0.000000
vn 0.000000 1.000000 0.000000
vn 0.000000 1.000000 0.000000
vn 0.000000 1.000000 0.000000
vn 0.000000 1.000000 0.000000
vn 0.000000 1.000000 0.000000
vn -0.582807 -0.000000 0.812610
vn -0.582807 -0.000000 0.812610
vn -0.582807 -0.000000 0.812610
vn -0.582807 -0.000000 0.812610
vn -0.810518 -0.000000 0.585713
vn -0.810518 -0.000000 0.585713
vn -0.810518 -0.000000 0.585713
vn -0.810518 -0.000000 0.585713
vn 0.794919 0.000000 -0.606715
vn 0.794919 0.000000 -0.606715
vn 0.952636 0.000000 -0.304112
vn 0.952636 0.000000 -0.304112
vn 0.998535 -0.000000 0.054102
vn 0.998535 -0.000000 0.054102
vn 0.998530 -0.000000 0.054202
vn 0.804311 0.000000 -0.594208
vn 0.804311 0.000000 -0.594208
vn 0.804311 0.000000 -0.594208
vn 0.804311 0.000000 -0.594208
vn 0.774398 0.000000 -0.632699
vn 0.774398 0.000000 -0.632699
vn 0.774447 0.000000 -0.632639
vn 0.774447 0.000000 -0.632639
vn 0.774487 0.000000 -0.632590
vn 0.774487 0.000000 -0.632590
vn 0.782787 0.000000 -0.622290
vn 0.782787 0.000000 -0.622290
vn 0.782787 0.000000 -0.622290
vn 0.782787 0.000000 -0.622290
vn 0.782787 0.000000 -0.622290
vn 0.782787 0.000000 -0.622290
vn 0.782787 0.000000 -0.622290
vn 0.782787 0.000000 -0.622290
vn 0.782787 0.000000 -0.622290
vn 0.782787 0.000000 -0.622290
vn 0.782787 0.000000 -0.622290
vn 0.782787 0.000000 -0.622290
vn 0.786013 0.000000 -0.618210
vn 0.786051 0.000000 -0.618162
vn 0.803073 0.000000 -0.595880
vn 0.803073 0.000000 -0.595880
vn 0.803073 0.000000 -0.595880
vn 0.803073 0.000000 -0.595880
vn 0.786051 0.000000 -0.618162
vn 0.786051 0.000000 -0.618162
vn 0.786051 0.000000 -0.618162
vn 0.803073 0.000000 -0.595880
vn 0.786051 0.000000 -0.618162
vn 0.786051 0.000000 -0.618162
vn 0.803073 0.000000 -0.595880
vn 0.803073 0.000000 -0.595880
vn 0.803073 0.000000 -0.595880
vn 0.786051 0.000000 -0.618162
vn 0.803073 0.000000 -0.595880
vn 0.786013 0.000000 -0.618210
vn 0.803073 0.000000 -0.595880
vn 0.786013 0.000000 -0.618210
vn -0.980841 0.000000 -0.194808
vn -0.980841 0.000000 -0.194808
vn -0.980841 0.000000 -0.194808
vn -0.980841 0.000000 -0.194808
vn -0.980841 0.000000 -0.194808
vn -0.980841 0.000000 -0.194808
vn -0.980841 0.000000 -0.194808
vn -0.980841 0.000000 -0.194808
vn -0.980841 0.000000 -0.194808
vn -0.980841 0.000000 -0.194808
vn -0.980841 0.000000 -0.194808
vn -0.980841 0.000000 -0.194808
vn 0.998525 -0.000000 0.054301
vn 0.998525 -0.000000 0.054301
vn 0.917424 -0.000000 0.397911
vn 0.917424 -0.000000 0.397911
vn 0.688673 -0.000000 0.725072
vn 0.688621 -0.000000 0.725122
vn 0.688571 -0.000000 0.725169
vn 0.998525 -0.000000 0.054301
vn 0.688518 -0.000000 0.725219
vn 0.688518 -0.000000 0.725219
vn 0.359100 -0.000000 0.933299
vn 0.359100 -0.000000 0.933299
vn -0.079197 -0.000000 0.996859
vn -0.079197 -0.000000 0.996859
vn -0.079197 -0.000000 0.996859
vn 0.688518 -0.000000 0.725219
vn -0.079403 -0.000000 0.996843
vn -0.499313 -0.000000 0.866422
vn -0.079403 -0.000000 0.996843
vn -0.499313 -0.000000 0.866422
vn -0.079403 -0.000000 0.996843
vn -0.830029 -0.000000 0.557720
vn -0.830029 -0.000000 0.557720
vn 0.587285 0.000000 -0.809380
vn 0.587285 0.000000 -0.809380
vn 0.587285 0.000000 -0.809380
vn 0.587285 0.000000 -0.809380
vn -0.980841 0.000000 -0.194808
vn -0.980841 0.000000 -0.194808
vn -0.980841 0.000000 -0.194808
vn -0.980841 0.000000 -0.194808
vn -0.980841 0.000000 -0.194808
vn -0.980841 0.000000 -0.194808
vn 0.026801 -0.000000 0.999641
vn 0.026801 -0.000000 0.999641
vn 0.026801 -0.000000 0.999641
vn 0.026801 -0.000000 0.999641
vn 0.041402 -0.000000 0.999143
vn 0.041402 -0.000000 0.999143
vn 0.041402 -0.000000 0.999143
vn 0.041402 -0.000000 0.999143
vn -0.582807 -0.000000 0.812610
vn -0.582807 -0.000000 0.812610
vn -0.582807 -0.000000 0.812610
vn -0.582807 -0.000000 0.812610
vn -0.582807 -0.000000 0.812610
vn -0.582807 -0.000000 0.812610
vn -0.582807 -0.000000 0.812610
vn 0.999649 -0.000000 0.026501
vn 0.999649 -0.000000 0.026501
vn 0.999649 -0.000000 0.026501
vn 0.999649 -0.000000 0.026501
vn 0.999649 -0.000000 0.026501
vn 0.999649 -0.000000 0.026501
vn 0.999649 -0.000000 0.026501
vn 0.999649 -0.000000 0.026501
vn 0.457624 0.000000 -0.889146
vn 0.457583 0.000000 -0.889167
vn 0.497915 0.000000 -0.867226
vn 0.497721 0.000000 -0.867337
vn 0.457703 0.000000 -0.889105
vn 0.497484 0.000000 -0.867473
vn 0.497291 0.000000 -0.867584
vn 0.456986 0.000000 -0.889474
vn 0.456907 0.000000 -0.889514
vn 0.457703 0.000000 -0.889105
vn 0.497603 0.000000 -0.867405
vn 0.457185 0.000000 -0.889371
vn 0.457185 0.000000 -0.889371
vn 0.497484 0.000000 -0.867473
vn 0.081299 0.000000 -0.996690
vn 0.153297 0.000000 -0.988180
vn 0.081299 0.000000 -0.996690
vn 0.153297 0.000000 -0.988180
vn 0.225108 0.000000 -0.974334
vn 0.305407 0.000000 -0.952222
vn 0.305316 0.000000 -0.952251
vn 0.225108 0.000000 -0.974334
vn 0.305316 0.000000 -0.952251
vn 0.345891 0.000000 -0.938275
vn 0.390005 0.000000 -0.920813
vn 0.346187 0.000000 -0.938165
vn 0.390211 0.000000 -0.920726
vn 0.390211 0.000000 -0.920726
vn 0.390005 0.000000 -0.920813
vn 0.390296 0.000000 -0.920690
vn 0.390296 0.000000 -0.920690
vn 0.390211 0.000000 -0.920726
vn 0.346187 0.000000 -0.938165
vn 0.389920 0.000000 -0.920849
vn 0.000000 0.000000 -1.000000
vn 0.000000 0.000000 -1.000000
vn 0.000000 0.000000 -1.000000
vn 0.000000 0.000000 -1.000000
vn 0.000000 0.000000 -1.000000
vn 0.000000 0.000000 -1.000000
vn 0.000000 0.000000 -1.000000
vn -0.697796 0.000000 -0.716296
vn -0.697796 0.000000 -0.716296
vn -0.661205 0.000000 -0.750205
vn -0.661205 0.000000 -0.750205
vn -0.661205 0.000000 -0.750205
vn -0.697796 0.000000 -0.716296
vn -0.661205 0.000000 -0.750205
vn -0.697796 0.000000 -0.716296
vn -0.661205 0.000000 -0.750205
vn -0.697796 0.000000 -0.716296
vn 0.000000 -0.000000 1.000000
vn 0.000000 -0.000000 1.000000
vn 0.000000 -0.000000 1.000000
vn 0.000000 -0.000000 1.000000
vn -0.000100 -0.000000 1.000000
vn -0.430900 -0.000000 0.902400
vn -0.000100 -0.000000 1.000000
vn -0.430900 -0.000000 0.902400
vn -0.777668 -0.000000 0.628675
vn -0.777668 -0.000000 0.628675
vn -0.777717 -0.000000 0.628614
vn -0.777717 -0.000000 0.628614
vn -0.777717 -0.000000 0.628614
vn -0.777717 -0.000000 0.628614
vn -0.777757 -0.000000 0.628565
vn -0.942787 -0.000000 0.333395
vn -0.777757 -0.000000 0.628565
vn -0.942787 -0.000000 0.333395
vn -1.000000 -0.000000 0.000100
vn -1.000000 -0.000000 0.000100
vn 0.000000 0.000000 -1.000000
vn 0.000000 0.000000 -1.000000
vn 0.000000 0.000000 -1.000000
vn 0.000000 0.000000 -1.000000
vn 0.999999 -0.000000 0.001600
vn 0.925482 0.000000 -0.378793
vn 0.999999 -0.000000 0.001600
vn 0.925482 0.000000 -0.378793
vn 0.700425 0.000000 -0.713726
vn 0.700425 0.000000 -0.713726
vn 0.363792 0.000000 -0.931480
vn 0.363792 0.000000 -0.931480
vn 0.000100 0.000000 -1.000000
vn 0.000100 -0.000100 -1.000000
vn 0.999999 -0.000000 0.001700
vn 0.999999 -0.000000 0.001700
vn 0.999999 -0.000000 0.001700
vn 0.999999 -0.000000 0.001700
vn 0.000000 -0.000000 1.000000
vn 0.000000 -0.000000 1.000000
vn 0.000000 -0.000000 1.000000
vn 0.000000 -0.000000 1.000000
vn 1.000000 0.000000 0.000000
vn 1.000000 0.000000 0.000000
vn 1.000000 0.000000 0.000000
vn 1.000000 0.000000 0.000000
vn 0.000000 0.000000 -1.000000
vn 0.000000 0.000000 -1.000000
vn 0.000000 0.000000 -1.000000
vn 0.000000 0.000000 -1.000000
vn 0.999999 -0.000000 0.001700
vn 0.999999 -0.000000 0.001700
vn 0.999999 -0.000000 0.001700
vn 0.999999 -0.000000 0.001700
vn 0.810600 0.000000 -0.585600
vn 0.810600 0.000000 -0.585600
vn 0.951806 0.000000 -0.306702
vn 0.951806 0.000000 -0.306702
vn 0.999999 -0.000000 0.001600
vn 0.999999 -0.000000 0.001600
vn 0.810518 0.000000 -0.585713
vn 0.810518 0.000000 -0.585713
vn 0.810518 0.000000 -0.585713
vn 0.810518 0.000000 -0.585713
vn 0.000100 0.000000 -1.000000
vn 0.000100 0.000000 -1.000000
vn 0.456986 0.000000 -0.889474
vn 0.456986 0.000000 -0.889474
vn 0.810518 0.000000 -0.585713
vn 0.810518 0.000000 -0.585713
vn 0.000000 0.000000 -1.000000
vn 0.000000 0.000000 -1.000000
vn 0.000000 0.000000 -1.000000
vn 0.000000 0.000000 -1.000000
vn 0.926750 0.000000 -0.375680
vn 0.707107 0.000000 -0.707107
vn 0.926750 0.000000 -0.375680
vn 0.707107 0.000000 -0.707107
vn 0.378913 0.000000 -0.925432
vn 0.378913 0.000000 -0.925432
vn 0.000100 0.000000 -1.000000
vn 0.000100 -0.000100 -1.000000
vn 0.999649 -0.000000 0.026501
vn 0.999649 -0.000000 0.026501
vn 0.999649 -0.000000 0.026501
vn 0.999649 -0.000000 0.026501
vn 0.999649 -0.000000 0.026501
vn 0.999649 -0.000000 0.026501
vn 0.587220 0.000000 -0.809428
vn 0.587220 0.000000 -0.809428
vn 0.587220 0.000000 -0.809428
vn 0.587220 0.000000 -0.809428
vn 0.587220 0.000000 -0.809428
vn 0.587220 0.000000 -0.809428
vn 0.587220 0.000000 -0.809428
vn 0.587285 0.000000 -0.809380
vn 0.587285 0.000000 -0.809380
vn 0.587285 0.000000 -0.809380
vn 0.587285 0.000000 -0.809380
vn 0.587285 0.000000 -0.809380
vn 0.587220 0.000000 -0.809428
vn 0.549798 0.000000 -0.835298
vn 0.549798 0.000000 -0.835298
vn 0.549798 0.000000 -0.835298
vn 0.549798 0.000000 -0.835298
vn 0.545807 0.000000 -0.837911
vn 0.545807 0.000000 -0.837911
vn 0.545807 0.000000 -0.837911
vn 0.545807 0.000000 -0.837911
vn -1.000000 0.000000 0.000000
vn -1.000000 0.000000 0.000000
vn -1.000000 0.000000 0.000000
vn -1.000000 0.000000 0.000000
vn 0.644287 0.000000 -0.764784
vn 0.644287 0.000000 -0.764784
vn 0.644287 0.000000 -0.764784
vn 0.644287 0.000000 -0.764784
vn 0.644394 0.000000 -0.764693
vn 0.644394 0.000000 -0.764693
vn 0.644394 0.000000 -0.764693
vn 0.644394 0.000000 -0.764693
vn 0.000100 -0.000000 1.000000
vn 0.000100 -0.000000 1.000000
vn 0.458498 -0.000000 0.888696
vn 0.458498 -0.000000 0.888696
vn 0.680370 -0.000000 0.732868
vn 0.680370 -0.000000 0.732868
vn 0.858761 -0.000000 0.512377
vn 0.858761 -0.000000 0.512377
vn 0.968527 -0.000000 0.248907
vn 0.999680 0.000000 -0.025299
vn 0.968527 -0.000000 0.248907
vn 0.999680 0.000000 -0.025299
vn 0.869514 0.000000 -0.493908
vn 0.869514 -0.000100 -0.493908
vn 0.869514 0.000000 -0.493908
vn 0.000000 -1.000000 -0.000000
vn 0.000000 -1.000000 -0.000000
vn 0.000000 -1.000000 -0.000000
vn 0.000000 -1.000000 -0.000000
vn 0.000000 -1.000000 -0.000000
vn 0.000000 -1.000000 -0.000000
vn 0.000000 -1.000000 -0.000000
vn 0.000000 -1.000000 -0.000000
vn 0.000000 -1.000000 -0.000000
vn 0.000000 -1.000000 -0.000000
vn 0.000000 -1.000000 -0.000000
vn 0.000000 -1.000000 -0.000000
vn 0.000000 -1.000000 -0.000000
vn 0.000000 -1.000000 -0.000000
vn 0.000000 -1.000000 -0.000000
vn 0.000000 -1.000000 -0.000000
vn 0.000000 -1.000000 -0.000000
vn 0.000000 -1.000000 -0.000000
vn 0.000000 -1.000000 -0.000000
vn 0.000000 -1.000000 -0.000000
vn 0.000000 -1.000000 -0.000000
vn 0.000000 -1.000000 -0.000000
vn 0.000000 -1.000000 -0.000000
vn 0.000000 -1.000000 -0.000000
vn 0.000000 -1.000000 -0.000000
vn 0.000000 -1.000000 -0.000000
vn 0.000000 -1.000000 -0.000000
vn 0.000000 -1.000000 -0.000000
vn 0.000000 -1.000000 -0.000000
vn 0.000000 -1.000000 -0.000000
vn 0.000000 -1.000000 -0.000000
vn 0.000000 -1.000000 -0.000000
vn 0.000000 -1.000000 -0.000000
vn 0.000000 -1.000000 -0.000000
vn 0.000000 -1.000000 -0.000000
vn 0.000000 -1.000000 -0.000000
vn 0.000000 -1.000000 -0.000000
vn 0.000000 -1.000000 -0.000000
vn 0.000000 -1.000000 -0.000000
vn 0.000000 -1.000000 -0.000000
vn 0.000000 -1.000000 -0.000000
vn 0.000000 -1.000000 -0.000000
vn 0.000000 -1.000000 -0.000000
vn 0.000000 -1.000000 -0.000000
vn 0.000000 -1.000000 -0.000000
vn 0.000000 -1.000000 -0.000000
vn 0.000000 -1.000000 -0.000000
vn 0.000000 -1.000000 -0.000000
vn 0.000000 -1.000000 -0.000000
vn 0.000000 -1.000000 -0.000000
vn 0.000000 -1.000000 -0.000000
vn 0.000000 -1.000000 -0.000000
vn 0.000000 -1.000000 -0.000000
vn 0.000000 -1.000000 -0.000000
vn 0.000000 -1.000000 -0.000000
vn 0.000000 -1.000000 -0.000000
vn 0.000000 -1.000000 -0.000000
vn 0.000000 -1.000000 -0.000000
vn 0.000000 -1.000000 -0.000000
vn 0.000000 -1.000000 -0.000000
vn 0.000000 -1.000000 -0.000000
vn 0.000000 -1.000000 -0.000000
vn 0.000000 -1.000000 -0.000000
vn 0.000000 -1.000000 -0.000000
vn 0.000000 -1.000000 -0.000000
vn 0.000000 -1.000000 -0.000000
vn 0.000000 -1.000000 -0.000000
vn 0.000000 -1.000000 -0.000000
f 5//5 1//1 2//2
f 1//1 3//3 2//2
f 4//4 6//6 1//1
f 1//1 5//5 4//4
f 4//4 7//7 6//6
f 7//7 8//8 6//6
f 8//8 10//10 9//9
f 11//11 10//10 8//8
f 8//8 7//7 11//11
f 12//12 14//14 10//10
f 12//12 10//10 11//11
f 13//13 12//12 11//11
f 13//13 11//11 7//7
f 210//210 15//15 12//12
f 210//210 12//12 13//13
f 12//12 16//16 14//14
f 15//15 16//16 12//12
f 17//17 19//19 16//16
f 16//16 15//15 17//17
f 16//16 18//18 404//404
f 16//16 404//404 14//14
f 16//16 19//19 18//18
f 19//19 17//17 21//21
f 19//19 20//20 407//407
f 19//19 407//407 18//18
f 21//21 23//23 20//20
f 21//21 20//20 19//19
f 207//207 22//22 21//21
f 207//207 21//21 17//17
f 22//22 23//23 21//21
f 23//23 22//22 24//24
f 23//23 24//24 25//25
f 23//23 26//26 20//20
f 26//26 23//23 25//25
f 25//25 30//30 28//28
f 25//25 28//28 26//26
f 26//26 28//28 31//31
f 26//26 31//31 27//27
f 20//20 26//26 27//27
f 29//29 28//28 30//30
f 31//31 28//28 29//29
f 31//31 33//33 27//27
f 33//33 31//31 32//32
f 32//32 31//31 34//34
f 29//29 34//34 31//31
f 35//35 32//32 34//34
f 29//29 35//35 34//34
f 32//32 35//35 36//36
f 36//36 35//35 37//37
f 29//29 38//38 35//35
f 37//37 35//35 38//38
f 41//41 38//38 39//39
f 38//38 40//40 37//37
f 41//41 40//40 38//38
f 41//41 39//39 42//42
f 41//41 42//42 43//43
f 41//41 43//43 48//48
f 41//41 48//48 45//45
f 44//44 40//40 41//41
f 41//41 45//45 44//44
f 45//45 47//47 44//44
f 45//45 48//48 51//51
f 45//45 51//51 46//46
f 47//47 45//45 46//46
f 47//47 46//46 408//408
f 50//50 48//48 49//49
f 49//49 48//48 43//43
f 48//48 50//50 51//51
f 51//51 50//50 54//54
f 51//51 54//54 52//52
f 52//52 46//46 51//51
f 55//55 53//53 52//52
f 53//53 46//46 52//52
f 52//52 54//54 56//56
f 52//52 56//56 55//55
f 54//54 57//57 56//56
f 60//60 57//57 58//58
f 57//57 59//59 58//58
f 61//61 59//59 57//57
f 50//50 57//57 54//54
f 50//50 49//49 57//57
f 61//61 57//57 49//49
f 63//63 61//61 62//62
f 62//62 61//61 42//42
f 61//61 49//49 42//42
f 61//61 63//63 59//59
f 63//63 65//65 58//58
f 63//63 58//58 59//59
f 64//64 67//67 65//65
f 64//64 65//65 63//63
f 63//63 62//62 64//64
f 65//65 66//66 68//68
f 66//66 65//65 67//67
f 65//65 68//68 58//58
f 68//68 66//66 70//70
f 58//58 68//68 69//69
f 68//68 71//71 69//69
f 72//72 68//68 70//70
f 68//68 72//72 71//71
f 73//73 72//72 70//70
f 74//74 400//400 71//71
f 74//74 71//71 72//72
f 75//75 72//72 73//73
f 72//72 75//75 74//74
f 78//78 75//75 76//76
f 76//76 75//75 79//79
f 77//77 114//114 74//74
f 77//77 74//74 75//75
f 75//75 78//78 77//77
f 75//75 73//73 79//79
f 73//73 80//80 79//79
f 83//83 76//76 79//79
f 83//83 79//79 80//80
f 86//86 83//83 80//80
f 86//86 80//80 81//81
f 80//80 82//82 81//81
f 82//82 80//80 73//73
f 85//85 83//83 84//84
f 87//87 84//84 83//83
f 87//87 83//83 86//86
f 83//83 85//85 76//76
f 88//88 86//86 81//81
f 88//88 81//81 93//93
f 89//89 87//87 86//86
f 88//88 89//89 86//86
f 89//89 90//90 87//87
f 91//91 39//39 89//89
f 89//89 88//88 91//91
f 92//92 39//39 91//91
f 91//91 88//88 93//93
f 91//91 93//93 92//92
f 93//93 94//94 92//92
f 92//92 94//94 39//39
f 94//94 93//93 82//82
f 94//94 82//82 66//66
f 94//94 66//66 67//67
f 39//39 94//94 64//64
f 64//64 94//94 67//67
f 82//82 93//93 81//81
f 95//95 84//84 90//90
f 84//84 87//87 90//90
f 96//96 84//84 95//95
f 97//97 96//96 95//95
f 98//98 97//97 95//95
f 98//98 99//99 101//101
f 98//98 100//100 97//97
f 98//98 101//101 100//100
f 99//99 102//102 101//101
f 102//102 104//104 103//103
f 102//102 103//103 101//101
f 101//101 103//103 105//105
f 101//101 105//105 100//100
f 107//107 103//103 104//104
f 103//103 106//106 105//105
f 106//106 103//103 107//107
f 108//108 110//110 109//109
f 108//108 109//109 107//107
f 182//182 108//108 107//107
f 182//182 107//107 104//104
f 107//107 109//109 113//113
f 107//107 113//113 106//106
f 111//111 109//109 110//110
f 112//112 109//109 111//111
f 109//109 112//112 113//113
f 113//113 112//112 77//77
f 113//113 77//77 78//78
f 78//78 106//106 113//113
f 115//115 112//112 111//111
f 114//114 112//112 115//115
f 112//112 114//114 77//77
f 116//116 114//114 115//115
f 118//118 116//116 115//115
f 115//115 117//117 118//118
f 117//117 115//115 111//111
f 121//121 118//118 119//119
f 177//177 119//119 118//118
f 177//177 118//118 120//120
f 116//116 118//118 121//121
f 118//118 117//117 120//120
f 121//121 125//125 127//127
f 121//121 127//127 116//116
f 124//124 121//121 122//122
f 121//121 123//123 122//122
f 119//119 123//123 121//121
f 121//121 124//124 125//125
f 126//126 129//129 128//128
f 126//126 128//128 125//125
f 125//125 124//124 126//126
f 125//125 128//128 130//130
f 125//125 130//130 127//127
f 132//132 128//128 129//129
f 128//128 131//131 130//130
f 131//131 128//128 132//132
f 133//133 132//132 129//129
f 132//132 133//133 134//134
f 134//134 137//137 135//135
f 134//134 135//135 132//132
f 132//132 135//135 136//136
f 132//132 136//136 131//131
f 60//60 136//136 135//135
f 135//135 137//137 60//60
f 138//138 137//137 139//139
f 138//138 60//60 137//137
f 141//141 139//139 137//137
f 141//141 137//137 134//134
f 140//140 138//138 139//139
f 139//139 141//141 140//140
f 141//141 143//143 142//142
f 333//333 140//140 141//141
f 333//333 141//141 142//142
f 134//134 143//143 141//141
f 332//332 142//142 143//143
f 332//332 143//143 144//144
f 144//144 143//143 145//145
f 144//144 145//145 146//146
f 143//143 134//134 145//145
f 145//145 147//147 146//146
f 133//133 147//147 145//145
f 134//134 133//133 145//145
f 339//339 146//146 147//147
f 339//339 147//147 149//149
f 147//147 133//133 148//148
f 148//148 150//150 147//147
f 147//147 150//150 149//149
f 341//341 149//149 150//150
f 341//341 150//150 151//151
f 150//150 148//148 152//152
f 151//151 150//150 152//152
f 151//151 152//152 153//153
f 152//152 148//148 157//157
f 152//152 157//157 154//154
f 154//154 153//153 152//152
f 153//153 154//154 155//155
f 155//155 154//154 156//156
f 156//156 154//154 124//124
f 156//156 124//124 122//122
f 154//154 157//157 126//126
f 154//154 126//126 124//124
f 157//157 129//129 126//126
f 129//129 157//157 133//133
f 133//133 157//157 148//148
f 122//122 158//158 156//156
f 159//159 155//155 156//156
f 159//159 156//156 158//158
f 162//162 159//159 158//158
f 162//162 158//158 160//160
f 123//123 158//158 122//122
f 158//158 123//123 160//160
f 161//161 160//160 123//123
f 161//161 123//123 176//176
f 161//161 162//162 160//160
f 162//162 163//163 159//159
f 163//163 162//162 165//165
f 162//162 161//161 164//164
f 162//162 164//164 165//165
f 164//164 166//166 165//165
f 166//166 167//167 163//163
f 166//166 163//163 165//165
f 167//167 166//166 168//168
f 169//169 166//166 164//164
f 166//166 169//169 168//168
f 164//164 161//161 169//169
f 161//161 170//170 169//169
f 169//169 170//170 168//168
f 161//161 172//172 170//170
f 168//168 170//170 171//171
f 170//170 172//172 171//171
f 172//172 173//173 175//175
f 173//173 172//172 174//174
f 172//172 177//177 174//174
f 393//393 171//171 172//172
f 393//393 172//172 175//175
f 176//176 177//177 172//172
f 172//172 161//161 176//176
f 177//177 176//176 119//119
f 177//177 178//178 174//174
f 178//178 177//177 120//120
f 178//178 120//120 117//117
f 178//178 117//117 180//180
f 179//179 178//178 180//180
f 179//179 180//180 181//181
f 174//174 178//178 179//179
f 180//180 108//108 181//181
f 108//108 180//180 110//110
f 180//180 117//117 111//111
f 180//180 111//111 110//110
f 181//181 108//108 182//182
f 184//184 181//181 182//182
f 398//398 179//179 181//181
f 398//398 181//181 183//183
f 181//181 184//184 183//183
f 182//182 102//102 184//184
f 184//184 102//102 185//185
f 186//186 184//184 185//185
f 186//186 185//185 188//188
f 183//183 184//184 186//186
f 188//188 187//187 186//186
f 397//397 183//183 186//186
f 397//397 186//186 187//187
f 188//188 189//189 187//187
f 188//188 99//99 189//189
f 185//185 99//99 188//188
f 190//190 195//195 189//189
f 189//189 197//197 190//190
f 29//29 194//194 189//189
f 189//189 191//191 187//187
f 191//191 189//189 192//192
f 193//193 192//192 189//189
f 189//189 196//196 193//193
f 197//197 189//189 194//194
f 195//195 196//196 189//189
f 190//190 197//197 198//198
f 190//190 198//198 199//199
f 194//194 198//198 197//197
f 200//200 199//199 198//198
f 198//198 194//194 203//203
f 198//198 203//203 200//200
f 201//201 199//199 200//200
f 201//201 200//200 202//202
f 200//200 204//204 202//202
f 203//203 204//204 200//200
f 204//204 203//203 205//205
f 204//204 205//205 206//206
f 204//204 206//206 22//22
f 202//202 204//204 22//22
f 202//202 22//22 207//207
f 205//205 29//29 206//206
f 205//205 203//203 29//29
f 206//206 29//29 30//30
f 30//30 24//24 206//206
f 24//24 22//22 206//206
f 194//194 29//29 203//203
f 207//207 201//201 202//202
f 201//201 207//207 15//15
f 15//15 207//207 17//17
f 199//199 201//201 208//208
f 208//208 201//201 15//15
f 208//208 15//15 210//210
f 199//199 208//208 209//209
f 209//209 208//208 210//210
f 209//209 210//210 211//211
f 211//211 210//210 13//13
f 211//211 13//13 214//214
f 209//209 211//211 212//212
f 211//211 213//213 212//212
f 214//214 213//213 211//211
f 214//214 13//13 7//7
f 214//214 7//7 4//4
f 213//213 214//214 215//215
f 214//214 216//216 215//215
f 216//216 214//214 5//5
f 5//5 214//214 4//4
f 216//216 5//5 2//2
f 217//217 215//215 216//216
f 217//217 216//216 2//2
f 218//218 215//215 217//217
f 3//3 217//217 2//2
f 215//215 218//218 219//219
f 215//215 219//219 220//220
f 220//220 213//213 215//215
f 220//220 221//221 212//212
f 220//220 212//212 213//213
f 221//221 195//195 190//190
f 190//190 199//199 221//221
f 221//221 209//209 212//212
f 199//199 209//209 221//221
f 196//196 168//168 193//193
f 196//196 222//222 168//168
f 223//223 224//224 196//196
f 196//196 226//226 223//223
f 196//196 195//195 225//225
f 225//225 226//226 196//196
f 227//227 392//392 223//223
f 227//227 223//223 226//226
f 229//229 227//227 226//226
f 229//229 226//226 228//228
f 228//228 226//226 225//225
f 229//229 228//228 230//230
f 230//230 228//228 225//225
f 230//230 232//232 231//231
f 229//229 230//230 231//231
f 233//233 232//232 234//234
f 231//231 232//232 233//233
f 233//233 234//234 235//235
f 195//195 235//235 234//234
f 234//234 225//225 195//195
f 235//235 236//236 233//233
f 236//236 235//235 237//237
f 238//238 229//229 231//231
f 239//239 240//240 238//238
f 240//240 227//227 238//238
f 227//227 229//229 238//238
f 242//242 240//240 239//239
f 241//241 227//227 240//240
f 244//244 241//241 240//240
f 244//244 240//240 242//242
f 242//242 239//239 243//243
f 243//243 246//246 242//242
f 244//244 242//242 245//245
f 245//245 242//242 246//246
f 243//243 248//248 246//246
f 248//248 247//247 246//246
f 247//247 386//386 245//245
f 247//247 245//245 246//246
f 248//248 243//243 250//250
f 248//248 249//249 247//247
f 252//252 249//249 248//248
f 252//252 248//248 250//250
f 243//243 251//251 250//250
f 250//250 251//251 252//252
f 253//253 252//252 254//254
f 252//252 253//253 249//249
f 254//254 252//252 251//251
f 255//255 253//253 254//254
f 255//255 254//254 257//257
f 254//254 256//256 257//257
f 256//256 254//254 251//251
f 255//255 257//257 258//258
f 257//257 256//256 258//258
f 259//259 258//258 256//256
f 258//258 259//259 255//255
f 255//255 259//259 260//260
f 259//259 256//256 261//261
f 261//261 256//256 251//251
f 251//251 243//243 261//261
f 266//266 255//255 262//262
f 255//255 264//264 262//262
f 255//255 263//263 267//267
f 255//255 267//267 264//264
f 255//255 265//265 253//253
f 265//265 255//255 266//266
f 267//267 268//268 272//272
f 268//268 267//267 269//269
f 267//267 270//270 269//269
f 270//270 267//267 277//277
f 264//264 267//267 271//271
f 267//267 272//272 271//271
f 273//273 274//274 267//267
f 273//273 267//267 263//263
f 275//275 267//267 274//274
f 277//277 267//267 276//276
f 280//280 277//277 276//276
f 277//277 278//278 270//270
f 279//279 278//278 277//277
f 277//277 281//281 279//279
f 277//277 280//280 281//281
f 279//279 281//281 282//282
f 281//281 283//283 284//284
f 281//281 284//284 282//282
f 280//280 283//283 281//281
f 285//285 284//284 283//283
f 280//280 288//288 285//285
f 280//280 285//285 283//283
f 284//284 285//285 286//286
f 286//286 285//285 287//287
f 288//288 289//289 287//287
f 288//288 287//287 285//285
f 276//276 288//288 280//280
f 288//288 276//276 289//289
f 290//290 287//287 289//289
f 276//276 290//290 289//289
f 287//287 290//290 291//291
f 290//290 276//276 292//292
f 291//291 290//290 292//292
f 291//291 292//292 293//293
f 294//294 293//293 292//292
f 292//292 276//276 294//294
f 293//293 138//138 140//140
f 293//293 295//295 296//296
f 295//295 293//293 140//140
f 293//293 296//296 291//291
f 298//298 291//291 296//296
f 296//296 297//297 298//298
f 296//296 295//295 297//297
f 286//286 291//291 298//298
f 298//298 299//299 286//286
f 297//297 299//299 298//298
f 297//297 300//300 299//299
f 299//299 300//300 302//302
f 299//299 301//301 286//286
f 305//305 302//302 300//300
f 304//304 303//303 302//302
f 303//303 222//222 302//302
f 306//306 304//304 302//302
f 305//305 306//306 302//302
f 305//305 307//307 306//306
f 307//307 308//308 306//306
f 304//304 306//306 308//308
f 308//308 309//309 303//303
f 308//308 303//303 304//304
f 308//308 310//310 309//309
f 310//310 308//308 307//307
f 310//310 312//312 309//309
f 310//310 311//311 312//312
f 311//311 310//310 313//313
f 315//315 313//313 310//310
f 315//315 310//310 307//307
f 314//314 343//343 311//311
f 314//314 311//311 313//313
f 315//315 314//314 313//313
f 317//317 315//315 316//316
f 316//316 315//315 307//307
f 316//316 307//307 305//305
f 314//314 315//315 317//317
f 317//317 318//318 314//314
f 320//320 317//317 316//316
f 318//318 317//317 319//319
f 319//319 317//317 320//320
f 321//321 319//319 320//320
f 320//320 305//305 321//321
f 305//305 320//320 316//316
f 300//300 324//324 321//321
f 300//300 321//321 305//305
f 322//322 321//321 324//324
f 322//322 340//340 323//323
f 322//322 323//323 321//321
f 319//319 321//321 323//323
f 327//327 324//324 300//300
f 327//327 325//325 324//324
f 325//325 329//329 326//326
f 325//325 326//326 324//324
f 324//324 326//326 322//322
f 297//297 327//327 300//300
f 295//295 327//327 297//297
f 327//327 295//295 328//328
f 328//328 325//325 327//327
f 328//328 295//295 330//330
f 328//328 329//329 325//325
f 330//330 329//329 328//328
f 329//329 330//330 331//331
f 330//330 332//332 331//331
f 333//333 332//332 330//330
f 295//295 333//333 330//330
f 333//333 295//295 140//140
f 332//332 333//333 142//142
f 331//331 332//332 144//144
f 331//331 144//144 335//335
f 331//331 334//334 329//329
f 334//334 331//331 335//335
f 334//334 335//335 336//336
f 334//334 336//336 340//340
f 144//144 336//336 335//335
f 336//336 339//339 337//337
f 338//338 336//336 337//337
f 336//336 338//338 340//340
f 336//336 144//144 339//339
f 340//340 338//338 323//323
f 326//326 334//334 340//340
f 326//326 340//340 322//322
f 339//339 342//342 337//337
f 339//339 144//144 146//146
f 342//342 339//339 341//341
f 341//341 339//339 149//149
f 338//338 337//337 342//342
f 338//338 342//342 318//318
f 342//342 341//341 344//344
f 342//342 343//343 318//318
f 343//343 342//342 344//344
f 343//343 344//344 345//345
f 343//343 345//345 311//311
f 341//341 345//345 344//344
f 311//311 345//345 346//346
f 311//311 346//346 347//347
f 151//151 345//345 341//341
f 345//345 151//151 346//346
f 346//346 348//348 347//347
f 349//349 348//348 346//346
f 151//151 349//349 346//346
f 348//348 349//349 350//350
f 350//350 349//349 351//351
f 350//350 351//351 352//352
f 153//153 349//349 151//151
f 349//349 153//153 351//351
f 153//153 155//155 351//351
f 155//155 352//352 351//351
f 159//159 352//352 155//155
f 352//352 159//159 353//353
f 353//353 354//354 352//352
f 352//352 354//354 350//350
f 354//354 353//353 355//355
f 357//357 356//356 354//354
f 357//357 354//354 355//355
f 356//356 348//348 350//350
f 356//356 350//350 354//354
f 356//356 303//303 309//309
f 356//356 309//309 312//312
f 303//303 356//356 357//357
f 312//312 347//347 348//348
f 312//312 348//348 356//356
f 355//355 358//358 357//357
f 357//357 358//358 222//222
f 303//303 357//357 222//222
f 359//359 358//358 355//355
f 358//358 360//360 222//222
f 358//358 359//359 360//360
f 168//168 222//222 360//360
f 168//168 360//360 359//359
f 168//168 359//359 167//167
f 163//163 359//359 353//353
f 359//359 163//163 167//167
f 353//353 359//359 355//355
f 159//159 163//163 353//353
f 312//312 311//311 347//347
f 318//318 343//343 314//314
f 323//323 338//338 318//318
f 323//323 318//318 319//319
f 329//329 334//334 326//326
f 284//284 301//301 282//282
f 286//286 301//301 284//284
f 362//362 282//282 301//301
f 361//361 362//362 301//301
f 363//363 282//282 362//362
f 364//364 363//363 362//362
f 365//365 364//364 362//362
f 362//362 361//361 365//365
f 365//365 361//361 367//367
f 366//366 388//388 364//364
f 366//366 364//364 365//365
f 368//368 366//366 365//365
f 368//368 365//365 367//367
f 368//368 367//367 369//369
f 361//361 369//369 367//367
f 369//369 370//370 371//371
f 371//371 368//368 369//369
f 372//372 371//371 370//370
f 268//268 371//371 272//272
f 371//371 268//268 368//368
f 272//272 371//371 372//372
f 373//373 272//272 372//372
f 374//374 373//373 372//372
f 370//370 374//374 372//372
f 374//374 375//375 373//373
f 375//375 374//374 376//376
f 376//376 378//378 375//375
f 376//376 377//377 378//378
f 378//378 271//271 375//375
f 271//271 378//378 264//264
f 377//377 379//379 378//378
f 264//264 378//378 379//379
f 381//381 380//380 379//379
f 380//380 264//264 379//379
f 381//381 379//379 377//377
f 380//380 381//381 382//382
f 385//385 382//382 383//383
f 380//380 382//382 384//384
f 382//382 385//385 384//384
f 244//244 245//245 385//385
f 245//245 384//384 385//385
f 385//385 383//383 244//244
f 384//384 387//387 380//380
f 386//386 384//384 245//245
f 384//384 386//386 387//387
f 262//262 380//380 387//387
f 266//266 262//262 387//387
f 266//266 387//387 386//386
f 265//265 266//266 386//386
f 265//265 386//386 247//247
f 383//383 224//224 241//241
f 244//244 383//383 241//241
f 264//264 380//380 262//262
f 271//271 373//373 375//375
f 272//272 373//373 271//271
f 268//268 366//366 368//368
f 366//366 269//269 388//388
f 269//269 366//366 268//268
f 269//269 270//270 278//278
f 269//269 278//278 388//388
f 278//278 364//364 388//388
f 363//363 364//364 278//278
f 278//278 279//279 363//363
f 363//363 279//279 282//282
f 291//291 286//286 287//287
f 275//275 274//274 389//389
f 389//389 390//390 275//275
f 390//390 389//389 391//391
f 253//253 265//265 247//247
f 253//253 247//247 249//249
f 224//224 392//392 241//241
f 241//241 392//392 227//227
f 224//224 223//223 392//392
f 193//193 168//168 393//393
f 193//193 393//393 175//175
f 193//193 175//175 192//192
f 393//393 168//168 171//171
f 192//192 175//175 394//394
f 192//192 394//394 191//191
f 191//191 395//395 187//187
f 395//395 191//191 394//394
f 395//395 397//397 187//187
f 397//397 395//395 396//396
f 394//394 173//173 396//396
f 394//394 396//396 395//395
f 396//396 398//398 183//183
f 396//396 183//183 397//397
f 173//173 398//398 396//396
f 174//174 398//398 173//173
f 398//398 174//174 179//179
f 175//175 173//173 394//394
f 102//102 99//99 185//185
f 102//102 182//182 104//104
f 123//123 119//119 176//176
f 138//138 399//399 60//60
f 69//69 131//131 136//136
f 136//136 60//60 69//69
f 69//69 130//130 131//131
f 69//69 127//127 130//130
f 127//127 400//400 116//116
f 127//127 69//69 400//400
f 400//400 114//114 116//116
f 400//400 69//69 71//71
f 114//114 400//400 74//74
f 106//106 401//401 105//105
f 106//106 78//78 401//401
f 401//401 100//100 105//105
f 96//96 100//100 401//401
f 96//96 401//401 402//402
f 96//96 402//402 85//85
f 401//401 78//78 402//402
f 78//78 76//76 402//402
f 76//76 85//85 402//402
f 100//100 96//96 97//97
f 84//84 96//96 85//85
f 82//82 73//73 70//70
f 82//82 70//70 66//66
f 60//60 58//58 69//69
f 39//39 64//64 62//62
f 39//39 62//62 42//42
f 55//55 9//9 403//403
f 53//53 55//55 403//403
f 403//403 405//405 53//53
f 10//10 404//404 403//403
f 403//403 404//404 406//406
f 405//405 403//403 406//406
f 9//9 10//10 403//403
f 404//404 407//407 406//406
f 406//406 32//32 405//405
f 32//32 406//406 33//33
f 406//406 407//407 33//33
f 20//20 27//27 33//33
f 20//20 33//33 407//407
f 407//407 404//404 18//18
f 53//53 405//405 408//408
f 405//405 409//409 408//408
f 409//409 405//405 36//36
f 405//405 32//32 36//36
f 37//37 40//40 409//409
f 37//37 409//409 36//36
f 408//408 409//409 47//47
f 40//40 44//44 47//47
f 40//40 47//47 409//409
f 46//46 53//53 408//408
f 404//404 10//10 14//14
f 42//42 49//49 43//43
f 30//30 25//25 24//24
f 411//411 413//413 412//412
f 411//411 412//412 410//410
f 415//415 417//417 416//416
f 415//415 416//416 414//414
f 419//419 421//421 420//420
f 419//419 420//420 418//418
f 421//421 423//423 422//422
f 421//421 422//422 420//420
f 423//423 421//421 424//424
f 426//426 428//428 427//427
f 426//426 427//427 425//425
f 430//430 432//432 431//431
f 430//430 431//431 429//429
f 433//433 431//431 432//432
f 433//433 432//432 434//434
f 436//436 435//435 437//437
f 436//436 437//437 438//438
f 439//439 436//436 438//438
f 436//436 439//439 440//440
f 436//436 440//440 441//441
f 436//436 441//441 442//442
f 442//442 441//441 443//443
f 442//442 443//443 444//444
f 444//444 445//445 442//442
f 446//446 442//442 445//445
f 448//448 450//450 449//449
f 448//448 449//449 447//447
f 453//453 451//451 450//450
f 453//453 450//450 448//448
f 454//454 452//452 451//451
f 454//454 451//451 453//453
f 455//455 456//456 452//452
f 455//455 452//452 454//454
f 457//457 459//459 456//456
f 457//457 456//456 455//455
f 458//458 460//460 459//459
f 458//458 459//459 457//457
f 462//462 461//461 460//460
f 462//462 460//460 458//458
f 464//464 463//463 461//461
f 464//464 461//461 462//462
f 466//466 465//465 463//463
f 466//466 463//463 464//464
f 470//470 468//468 467//467
f 468//468 469//469 467//467
f 470//470 467//467 473//473
f 471//471 474//474 472//472
f 471//471 472//472 467//467
f 473//473 467//467 472//472
f 471//471 475//475 474//474
f 471//471 476//476 475//475
f 471//471 477//477 476//476
f 471//471 478//478 477//477
f 480//480 481//481 479//479
f 482//482 481//481 480//480
f 482//482 484//484 483//483
f 482//482 483//483 481//481
f 484//484 482//482 485//485
f 480//480 486//486 482//482
f 488//488 489//489 487//487
f 490//490 489//489 488//488
f 490//490 492//492 491//491
f 490//490 491//491 489//489
f 492//492 490//490 493//493
f 488//488 494//494 490//490
f 496//496 495//495 497//497
f 497//497 498//498 496//496
f 498//498 497//497 499//499
f 501//501 496//496 498//498
f 501//501 498//498 500//500
f 503//503 505//505 504//504
f 503//503 504//504 502//502
f 507//507 509//509 508//508
f 507//507 508//508 506//506
f 510//510 508//508 509//509
f 510//510 509//509 511//511
f 513//513 515//515 514//514
f 513//513 514//514 512//512
f 517//517 519//519 518//518
f 517//517 518//518 516//516
f 521//521 524//524 522//522
f 521//521 522//522 520//520
f 523//523 520//520 522//522
f 521//521 525//525 524//524
f 521//521 526//526 525//525
f 528//528 527//527 529//529
f 530//530 528//528 529//529
f 528//528 530//530 531//531
f 528//528 531//531 532//532
f 533//533 532//532 531//531
f 533//533 534//534 532//532
f 536//536 538//538 537//537
f 536//536 537//537 535//535
f 538//538 536//536 539//539
f 538//538 539//539 540//540
f 543//543 541//541 540//540
f 543//543 540//540 542//542
f 542//542 540//540 539//539
f 544//544 541//541 543//543
f 545//545 541//541 544//544
f 545//545 544//544 546//546
f 545//545 546//546 547//547
f 545//545 547//547 548//548
f 550//550 549//549 551//551
f 550//550 551//551 552//552
f 553//553 556//556 550//550
f 553//553 550//550 552//552
f 553//553 554//554 556//556
f 554//554 553//553 555//555
f 556//556 554//554 557//557
f 560//560 558//558 557//557
f 560//560 557//557 554//554
f 558//558 561//561 559//559
f 560//560 562//562 561//561
f 560//560 561//561 558//558
f 560//560 563//563 562//562
f 560//560 564//564 563//563
f 560//560 565//565 564//564
f 567//567 566//566 565//565
f 567//567 565//565 560//560
f 567//567 568//568 566//566
f 567//567 560//560 554//554
f 567//567 554//554 555//555
f 570//570 569//569 571//571
f 570//570 571//571 572//572
f 570//570 572//572 573//573
f 574//574 573//573 572//572
f 574//574 575//575 573//573
f 577//577 579//579 578//578
f 577//577 578//578 576//576
f 581//581 580//580 579//579
f 581//581 579//579 577//577
f 583//583 582//582 580//580
f 583//583 580//580 581//581
f 585//585 584//584 582//582
f 585//585 582//582 583//583
f 587//587 586//586 588//588
f 587//587 588//588 589//589
f 591//591 590//590 592//592
f 591//591 592//592 593//593
f 595//595 591//591 593//593
f 595//595 593//593 594//594
f 596//596 598//598 599//599
f 596//596 599//599 597//597
f 601//601 600//600 602//602
f 601//601 602//602 603//603
f 605//605 601//601 603//603
f 605//605 603//603 604//604
f 607//607 609//609 608//608
f 607//607 608//608 606//606
f 611//611 610//610 612//612
f 611//611 612//612 613//613
f 614//614 615//615 611//611
f 614//614 611//611 613//613
f 616//616 617//617 615//615
f 616//616 615//615 614//614
f 619//619 617//617 616//616
f 619//619 616//616 618//618
f 621//621 623//623 622//622
f 621//621 622//622 620//620
f 625//625 627//627 626//626
f 625//625 626//626 624//624
f 629//629 631//631 630//630
f 629//629 630//630 628//628
f 633//633 635//635 634//634
f 633//633 634//634 632//632
f 637//637 639//639 638//638
f 637//637 638//638 636//636
f 641//641 643//643 642//642
f 641//641 642//642 640//640
f 644//644 642//642 643//643
f 644//644 643//643 645//645
f 647//647 649//649 648//648
f 647//647 648//648 646//646
f 651//651 653//653 652//652
f 651//651 652//652 650//650
f 654//654 652//652 653//653
f 654//654 653//653 655//655
f 657//657 659//659 658//658
f 657//657 658//658 656//656
f 661//661 660//660 662//662
f 661//661 662//662 663//663
f 664//664 665//665 661//661
f 664//664 661//661 663//663
f 667//667 665//665 664//664
f 667//667 664//664 666//666
f 669//669 671//671 670//670
f 669//669 670//670 668//668
f 672//672 670//670 671//671
f 672//672 671//671 673//673
f 674//674 677//677 675//675
f 675//675 676//676 674//674
f 678//678 675//675 677//677
f 679//679 680//680 675//675
f 679//679 675//675 678//678
f 681//681 683//683 680//680
f 681//681 680//680 679//679
f 681//681 682//682 683//683
f 683//683 685//685 684//684
f 683//683 684//684 686//686
f 683//683 686//686 680//680
f 685//685 683//683 682//682
f 680//680 686//686 676//676
f 680//680 676//676 675//675
f 688//688 690//690 689//689
f 688//688 689//689 687//687
f 692//692 694//694 693//693
f 692//692 693//693 691//691
f 695//695 697//697 698//698
f 695//695 698//698 696//696
f 699//699 701//701 702//702
f 699//699 702//702 700//700
f 703//703 705//705 706//706
f 703//703 706//706 704//704
f 707//707 709//709 710//710
f 707//707 710//710 708//708
f 709//709 711//711 712//712
f 709//709 712//712 710//710
f 711//711 713//713 714//714
f 711//711 714//714 712//712
f 713//713 715//715 717//717
f 713//713 717//717 714//714
f 715//715 716//716 718//718
f 715//715 718//718 717//717
f 718//718 716//716 719//719
f 718//718 719//719 720//720
f 719//719 716//716 721//721
f 723//723 724//724 722//722
f 725//725 724//724 723//723
f 726//726 725//725 728//728
f 725//725 727//727 728//728
f 723//723 727//727 725//725
f 728//728 727//727 729//729
f 726//726 728//728 730//730
f 731//731 729//729 732//732
f 727//727 732//732 729//729
f 732//732 733//733 735//735
f 732//732 734//734 733//733
f 731//731 732//732 735//735
f 735//735 736//736 737//737
f 737//737 738//738 735//735
f 731//731 735//735 738//738
f 738//738 739//739 731//731
f 739//739 742//742 740//740
f 740//740 741//741 739//739
f 731//731 739//739 741//741
f 742//742 743//743 740//740
f 743//743 742//742 737//737
f 744//744 743//743 737//737
f 736//736 745//745 744//744
f 744//744 737//737 736//736
f 747//747 746//746 745//745
f 747//747 745//745 736//736
f 746//746 747//747 748//748
f 749//749 746//746 748//748
f 751//751 749//749 750//750
f 750//750 749//749 752//752
f 751//751 746//746 749//749
f 750//750 752//752 753//753
f 754//754 750//750 753//753
f 750//750 754//754 755//755
f 754//754 756//756 755//755
f 756//756 757//757 755//755
f 757//757 758//758 755//755
f 758//758 759//759 755//755
f 761//761 755//755 759//759
f 761//761 759//759 760//760
f 763//763 762//762 761//761
f 761//761 760//760 763//763
f 761//761 764//764 755//755
f 763//763 733//733 762//762
f 765//765 762//762 733//733
f 762//762 765//765 766//766
f 765//765 768//768 767//767
f 768//768 765//765 769//769
f 765//765 770//770 769//769
f 770//770 765//765 771//771
f 771//771 765//765 772//772
f 734//734 765//765 733//733
f 765//765 734//734 772//772
f 768//768 773//773 767//767
f 727//727 774//774 773//773
f 773//773 774//774 775//775
f 775//775 767//767 773//773
f 727//727 776//776 774//774
f 727//727 777//777 776//776
f 727//727 723//723 777//777
f 750//750 755//755 778//778
f 781//781 779//779 778//778
f 779//779 780//780 778//778
f 750//750 778//778 780//780
f 782//782 781//781 778//778
f 782//782 783//783 781//781
f 782//782 784//784 783//783
f 785//785 783//783 784//784
f 786//786 751//751 750//750
f 786//786 750//750 787//787
f 740//740 788//788 741//741
f 789//789 741//741 788//788
