# arm_39 exported from /models/landings/arm_39.glb
# units: meters
v -0.027861 0.001000 0.020379
v -0.027861 -0.001000 0.020379
v -0.027861 0.001000 0.018379
v -0.027861 -0.001000 0.018379
v -0.027861 0.001000 0.018379
v -0.027861 -0.001000 0.018379
v -0.027562 0.001000 0.016859
v -0.027562 -0.001000 0.016859
v -0.026660 0.001000 0.015521
v -0.026660 -0.001000 0.015521
v -0.025315 0.001000 0.014652
v -0.025315 -0.001000 0.014652
v -0.023861 0.001000 0.014379
v -0.023861 -0.001000 0.014379
v -0.023861 0.001000 0.014379
v -0.023861 -0.001000 0.014379
v -0.011861 0.001000 0.014379
v -0.011861 -0.001000 0.014379
v -0.011861 0.001000 0.014379
v -0.011861 -0.001000 0.014379
v -0.010342 0.001000 0.014079
v -0.010342 -0.001000 0.014079
v -0.009004 0.001000 0.013178
v -0.009004 -0.001000 0.013178
v -0.008135 0.001000 0.011832
v -0.008135 -0.001000 0.011832
v -0.007861 0.001000 0.010379
v -0.007861 -0.001000 0.010379
v -0.007861 0.001000 0.010379
v -0.007861 -0.001000 0.010379
v -0.007861 0.001000 -0.017203
v -0.007861 -0.001000 -0.017203
v -0.007861 0.001000 -0.017203
v -0.007861 -0.001000 -0.017203
v -0.007562 0.001000 -0.018722
v -0.007562 -0.001000 -0.018722
v -0.006660 0.001000 -0.020060
v -0.006660 -0.001000 -0.020060
v -0.005315 0.001000 -0.020929
v -0.005315 -0.001000 -0.020929
v -0.003861 0.001000 -0.021203
v -0.003861 -0.001000 -0.021203
v -0.003861 0.001000 -0.021203
v -0.003861 -0.001000 -0.021203
v -0.003568 0.001000 -0.021203
v -0.003568 -0.001000 -0.021203
v -0.003568 0.001000 -0.021203
v -0.003568 -0.001000 -0.021203
v -0.003568 0.001000 -0.015926
v -0.003568 -0.001000 -0.015926
v -0.003568 0.001000 -0.016203
v -0.003568 -0.001000 -0.016203
v -0.003568 0.001000 -0.015926
v -0.003568 -0.001000 -0.015926
v -0.001568 0.001000 -0.015926
v -0.001568 -0.001000 -0.015926
v -0.001568 0.001000 -0.015926
v -0.001568 -0.001000 -0.015926
v -0.001568 0.001000 -0.021203
v -0.001568 -0.001000 -0.021203
v -0.001568 0.001000 -0.016203
v -0.001568 -0.001000 -0.016203
v -0.001568 0.001000 -0.021203
v -0.001568 -0.001000 -0.021203
v 0.007730 0.001000 -0.021203
v 0.007730 -0.001000 -0.021203
v 0.007730 0.001000 -0.021203
v 0.007730 -0.001000 -0.021203
v 0.007730 0.001000 -0.015926
v 0.007730 -0.001000 -0.015926
v 0.007730 0.001000 -0.016203
v 0.007730 -0.001000 -0.016203
v 0.007730 0.001000 -0.015926
v 0.007730 -0.001000 -0.015926
v 0.009730 0.001000 -0.015926
v 0.009730 -0.001000 -0.015926
v 0.009730 0.001000 -0.015926
v 0.009730 -0.001000 -0.015926
v 0.009730 0.001000 -0.021203
v 0.009730 -0.001000 -0.021203
v 0.009730 0.001000 -0.016203
v 0.009730 -0.001000 -0.016203
v 0.009730 0.001000 -0.021203
v 0.009730 -0.001000 -0.021203
v 0.018138 0.001000 -0.021203
v 0.018138 -0.001000 -0.021203
v 0.018138 0.001000 -0.021203
v 0.018138 -0.001000 -0.021203
v 0.022778 0.001000 -0.019825
v 0.022778 -0.001000 -0.019825
v 0.026837 0.001000 -0.017203
v 0.026837 -0.001000 -0.017203
v 0.026837 0.001000 -0.017203
v 0.026837 -0.001000 -0.017203
v 0.026837 0.001000 -0.009718
v 0.026837 -0.001000 -0.009718
v 0.026837 0.001000 -0.009718
v 0.026837 -0.001000 -0.009718
v 0.022761 0.001000 -0.007087
v 0.022761 -0.001000 -0.007087
v 0.018138 0.001000 -0.005718
v 0.018138 -0.001000 -0.005718
v 0.018138 0.001000 -0.005718
v 0.018138 -0.001000 -0.005718
v 0.006139 0.001000 -0.005718
v 0.006139 -0.001000 -0.005718
v 0.006139 0.001000 -0.005718
v 0.006139 -0.001000 -0.005718
v 0.004619 0.001000 -0.005418
v 0.004619 -0.001000 -0.005418
v 0.003281 0.001000 -0.004516
v 0.003281 -0.001000 -0.004516
v 0.002412 0.001000 -0.003171
v 0.002412 -0.001000 -0.003171
v 0.002139 0.001000 -0.001718
v 0.002139 -0.001000 -0.001718
v 0.002139 0.001000 -0.001718
v 0.002139 -0.001000 -0.001718
v 0.002139 0.001000 0.020379
v 0.002139 -0.001000 0.020379
v 0.002139 0.001000 0.020379
v 0.002139 -0.001000 0.020379
v 0.001839 0.001000 0.021898
v 0.001839 -0.001000 0.021898
v 0.000937 0.001000 0.023236
v 0.000937 -0.001000 0.023236
v -0.000408 0.001000 0.024105
v -0.000408 -0.001000 0.024105
v -0.001861 0.001000 0.024379
v -0.001861 -0.001000 0.024379
v -0.001861 0.001000 0.024379
v -0.001861 -0.001000 0.024379
v -0.017861 0.001000 0.024379
v -0.017861 -0.001000 0.024379
v -0.017861 0.001000 0.024379
v -0.017861 -0.001000 0.024379
v -0.017861 0.001000 0.020862
v -0.017861 -0.001000 0.020862
v -0.017861 0.001000 0.021379
v -0.017861 -0.001000 0.021379
v -0.017861 0.001000 0.020862
v -0.017861 -0.001000 0.020862
v -0.019861 0.001000 0.020862
v -0.019861 -0.001000 0.020862
v -0.019861 0.001000 0.020862
v -0.019861 -0.001000 0.020862
v -0.019861 0.001000 0.024379
v -0.019861 -0.001000 0.024379
v -0.019861 0.001000 0.021379
v -0.019861 -0.001000 0.021379
v -0.019861 0.001000 0.024379
v -0.019861 -0.001000 0.024379
v -0.023861 0.001000 0.024379
v -0.023861 -0.001000 0.024379
v -0.023861 0.001000 0.024379
v -0.023861 -0.001000 0.024379
v -0.025381 0.001000 0.024079
v -0.025381 -0.001000 0.024079
v -0.026719 0.001000 0.023177
v -0.026719 -0.001000 0.023177
v -0.027588 0.001000 0.021832
v -0.027588 -0.001000 0.021832
v -0.027861 0.001000 0.020379
v -0.027861 -0.001000 0.020379
v -0.027861 -0.001000 0.020379
v -0.027861 -0.001000 0.018379
v -0.027562 -0.001000 0.016859
v -0.026660 -0.001000 0.015521
v -0.025315 -0.001000 0.014652
v -0.023861 -0.001000 0.014379
v -0.011861 -0.001000 0.014379
v -0.010342 -0.001000 0.014079
v -0.009004 -0.001000 0.013178
v -0.008135 -0.001000 0.011832
v -0.007861 -0.001000 0.010379
v -0.007861 -0.001000 -0.017203
v -0.007562 -0.001000 -0.018722
v -0.006660 -0.001000 -0.020060
v -0.005315 -0.001000 -0.020929
v -0.003861 -0.001000 -0.021203
v -0.003568 -0.001000 -0.015926
v -0.001568 -0.001000 -0.015926
v -0.001568 -0.001000 -0.021203
v 0.007730 -0.001000 -0.021203
v 0.007730 -0.001000 -0.015926
v 0.009730 -0.001000 -0.015926
v 0.009730 -0.001000 -0.021203
v 0.018138 -0.001000 -0.021203
v 0.022778 -0.001000 -0.019825
v 0.026837 -0.001000 -0.017203
v 0.026837 -0.001000 -0.009718
v 0.022761 -0.001000 -0.007087
v 0.018138 -0.001000 -0.005718
v 0.006139 -0.001000 -0.005718
v 0.004619 -0.001000 -0.005418
v 0.003281 -0.001000 -0.004516
v 0.002412 -0.001000 -0.003171
v 0.002139 -0.001000 -0.001718
v 0.002139 -0.001000 0.020379
v 0.001839 -0.001000 0.021898
v 0.000937 -0.001000 0.023236
v -0.000408 -0.001000 0.024105
v -0.001861 -0.001000 0.024379
v -0.017861 -0.001000 0.024379
v -0.017861 -0.001000 0.020862
v -0.019861 -0.001000 0.020862
v -0.019861 -0.001000 0.024379
v -0.023861 -0.001000 0.024379
v -0.025381 -0.001000 0.024079
v -0.026719 -0.001000 0.023177
v -0.027588 -0.001000 0.021832
v -0.003568 -0.001000 -0.021203
v -0.003568 -0.001000 -0.016203
v 0.007730 -0.001000 -0.016203
v -0.017861 -0.001000 0.021379
v -0.001568 -0.001000 -0.016203
v 0.009730 -0.001000 -0.016203
v -0.019861 -0.001000 0.021379
v -0.027861 0.001000 0.020379
v -0.027861 0.001000 0.018379
v -0.027562 0.001000 0.016859
v -0.026660 0.001000 0.015521
v -0.025315 0.001000 0.014652
v -0.023861 0.001000 0.014379
v -0.011861 0.001000 0.014379
v -0.010342 0.001000 0.014079
v -0.009004 0.001000 0.013178
v -0.008135 0.001000 0.011832
v -0.007861 0.001000 0.010379
v -0.007861 0.001000 -0.017203
v -0.007562 0.001000 -0.018722
v -0.006660 0.001000 -0.020060
v -0.005315 0.001000 -0.020929
v -0.003861 0.001000 -0.021203
v -0.003568 0.001000 -0.015926
v -0.001568 0.001000 -0.015926
v -0.001568 0.001000 -0.021203
v 0.007730 0.001000 -0.021203
v 0.007730 0.001000 -0.015926
v 0.009730 0.001000 -0.015926
v 0.009730 0.001000 -0.021203
v 0.018138 0.001000 -0.021203
v 0.022778 0.001000 -0.019825
v 0.026837 0.001000 -0.017203
v 0.026837 0.001000 -0.009718
v 0.022761 0.001000 -0.007087
v 0.018138 0.001000 -0.005718
v 0.006139 0.001000 -0.005718
v 0.004619 0.001000 -0.005418
v 0.003281 0.001000 -0.004516
v 0.002412 0.001000 -0.003171
v 0.002139 0.001000 -0.001718
v 0.002139 0.001000 0.020379
v 0.001839 0.001000 0.021898
v 0.000937 0.001000 0.023236
v -0.000408 0.001000 0.024105
v -0.001861 0.001000 0.024379
v -0.017861 0.001000 0.024379
v -0.017861 0.001000 0.020862
v -0.019861 0.001000 0.020862
v -0.019861 0.001000 0.024379
v -0.023861 0.001000 0.024379
v -0.025381 0.001000 0.024079
v -0.026719 0.001000 0.023177
v -0.027588 0.001000 0.021832
v -0.003568 0.001000 -0.021203
v -0.003568 0.001000 -0.016203
v 0.007730 0.001000 -0.016203
v -0.017861 0.001000 0.021379
v -0.001568 0.001000 -0.016203
v 0.009730 0.001000 -0.016203
v -0.019861 0.001000 0.021379
vn -1.000000 0.000000 0.000000
vn -1.000000 0.000000 0.000000
vn -1.000000 0.000000 0.000000
vn -1.000000 0.000000 0.000000
vn -1.000000 0.000000 0.000000
vn -1.000000 0.000000 0.000000
vn -0.925024 0.000000 -0.379910
vn -0.925024 0.000000 -0.379910
vn -0.699668 0.000000 -0.714468
vn -0.699668 0.000000 -0.714468
vn -0.363411 0.000000 -0.931629
vn -0.363411 0.000000 -0.931629
vn 0.000000 0.000000 -1.000000
vn 0.000000 0.000000 -1.000000
vn 0.000000 0.000000 -1.000000
vn 0.000000 0.000000 -1.000000
vn 0.000000 0.000000 -1.000000
vn 0.000000 0.000000 -1.000000
vn 0.000000 0.000000 -1.000000
vn 0.000000 0.000000 -1.000000
vn -0.379910 0.000000 -0.925024
vn -0.379910 0.000000 -0.925024
vn -0.714468 0.000000 -0.699668
vn -0.714468 0.000000 -0.699668
vn -0.931595 0.000000 -0.363498
vn -0.931595 0.000000 -0.363498
vn -1.000000 0.000000 0.000000
vn -1.000000 0.000000 0.000000
vn -1.000000 0.000000 0.000000
vn -1.000000 0.000000 0.000000
vn -1.000000 0.000000 0.000000
vn -1.000000 0.000000 0.000000
vn -1.000000 0.000000 0.000000
vn -1.000000 0.000000 0.000000
vn -0.925024 0.000000 -0.379910
vn -0.925024 0.000000 -0.379910
vn -0.699718 0.000000 -0.714419
vn -0.699718 0.000000 -0.714419
vn -0.363411 0.000000 -0.931629
vn -0.363411 0.000000 -0.931629
vn 0.000000 0.000000 -1.000000
vn 0.000000 0.000000 -1.000000
vn 0.000000 0.000000 -1.000000
vn 0.000000 0.000000 -1.000000
vn 0.000000 0.000000 -1.000000
vn 0.000000 0.000000 -1.000000
vn 1.000000 -0.000000 0.000000
vn 1.000000 -0.000000 0.000000
vn 1.000000 -0.000000 0.000000
vn 1.000000 -0.000000 0.000000
vn 1.000000 -0.000000 0.000000
vn 1.000000 -0.000000 0.000000
vn 0.000000 0.000000 -1.000000
vn 0.000000 0.000000 -1.000000
vn 0.000000 0.000000 -1.000000
vn 0.000000 0.000000 -1.000000
vn -1.000000 0.000000 0.000000
vn -1.000000 0.000000 0.000000
vn -1.000000 0.000000 0.000000
vn -1.000000 0.000000 0.000000
vn -1.000000 0.000000 0.000000
vn -1.000000 0.000000 0.000000
vn 0.000000 0.000000 -1.000000
vn 0.000000 0.000000 -1.000000
vn 0.000000 0.000000 -1.000000
vn 0.000000 0.000000 -1.000000
vn 1.000000 -0.000000 0.000000
vn 1.000000 -0.000000 0.000000
vn 1.000000 -0.000000 0.000000
vn 1.000000 -0.000000 0.000000
vn 1.000000 -0.000000 0.000000
vn 1.000000 -0.000000 0.000000
vn 0.000000 0.000000 -1.000000
vn 0.000000 0.000000 -1.000000
vn 0.000000 0.000000 -1.000000
vn 0.000000 0.000000 -1.000000
vn -1.000000 0.000000 0.000000
vn -1.000000 0.000000 0.000000
vn -1.000000 0.000000 0.000000
vn -1.000000 0.000000 0.000000
vn -1.000000 0.000000 0.000000
vn -1.000000 0.000000 0.000000
vn 0.000000 0.000000 -1.000000
vn 0.000000 0.000000 -1.000000
vn 0.000000 0.000000 -1.000000
vn 0.000000 0.000000 -1.000000
vn 0.000000 0.000000 -1.000000
vn 0.000000 0.000000 -1.000000
vn 0.439718 -0.000000 -0.898136
vn 0.439718 -0.000000 -0.898136
vn 0.648293 -0.000000 -0.761391
vn 0.648293 -0.000000 -0.761391
vn 1.000000 -0.000000 0.000000
vn 1.000000 -0.000000 0.000000
vn 1.000000 -0.000000 0.000000
vn 1.000000 -0.000000 0.000000
vn 0.648235 -0.000000 0.761441
vn 0.648235 -0.000000 0.761441
vn 0.438875 -0.000000 0.898548
vn 0.438875 -0.000000 0.898548
vn 0.000100 -0.000000 1.000000
vn 0.000100 -0.000000 1.000000
vn -0.000000 0.000000 1.000000
vn -0.000000 0.000000 1.000000
vn -0.000000 0.000000 1.000000
vn -0.000000 0.000000 1.000000
vn -0.000000 0.000000 1.000000
vn -0.000000 0.000000 1.000000
vn 0.379910 -0.000000 0.925024
vn 0.379910 -0.000000 0.925024
vn 0.714468 -0.000000 0.699668
vn 0.714468 -0.000000 0.699668
vn 0.931595 -0.000000 0.363498
vn 0.931595 -0.000000 0.363498
vn 1.000000 -0.000000 0.000000
vn 1.000000 -0.000000 0.000000
vn 1.000000 -0.000000 0.000000
vn 1.000000 -0.000000 0.000000
vn 1.000000 -0.000000 0.000000
vn 1.000000 -0.000000 0.000000
vn 1.000000 -0.000000 0.000000
vn 1.000000 -0.000000 0.000000
vn 0.925024 -0.000000 0.379910
vn 0.925024 -0.000000 0.379910
vn 0.699668 -0.000000 0.714468
vn 0.699668 -0.000000 0.714468
vn 0.363411 -0.000000 0.931629
vn 0.363411 -0.000000 0.931629
vn -0.000000 0.000000 1.000000
vn -0.000000 0.000000 1.000000
vn -0.000000 0.000000 1.000000
vn -0.000000 0.000000 1.000000
vn -0.000000 0.000000 1.000000
vn -0.000000 0.000000 1.000000
vn -1.000000 0.000000 0.000000
vn -1.000000 0.000000 0.000000
vn -1.000000 0.000000 0.000000
vn -1.000000 0.000000 0.000000
vn -1.000000 0.000000 0.000000
vn -1.000000 0.000000 0.000000
vn -0.000000 0.000000 1.000000
vn -0.000000 0.000000 1.000000
vn -0.000000 0.000000 1.000000
vn -0.000000 0.000000 1.000000
vn 1.000000 -0.000000 0.000000
vn 1.000000 -0.000000 0.000000
vn 1.000000 -0.000000 0.000000
vn 1.000000 -0.000000 0.000000
vn 1.000000 -0.000000 0.000000
vn 1.000000 -0.000000 0.000000
vn -0.000000 0.000000 1.000000
vn -0.000000 0.000000 1.000000
vn -0.000000 0.000000 1.000000
vn -0.000000 0.000000 1.000000
vn -0.000000 0.000000 1.000000
vn -0.000000 0.000000 1.000000
vn -0.379910 0.000000 0.925024
vn -0.379910 0.000000 0.925024
vn -0.714419 0.000000 0.699718
vn -0.714419 0.000000 0.699718
vn -0.931629 0.000000 0.363411
vn -0.931629 0.000000 0.363411
vn -1.000000 0.000000 0.000000
vn -1.000000 0.000000 0.000000
vn 0.000000 -1.000000 0.000000
vn 0.000000 -1.000000 0.000000
vn 0.000000 -1.000000 0.000000
vn 0.000000 -1.000000 0.000000
vn 0.000000 -1.000000 0.000000
vn 0.000000 -1.000000 0.000000
vn 0.000000 -1.000000 0.000000
vn 0.000000 -1.000000 0.000000
vn 0.000000 -1.000000 0.000000
vn 0.000000 -1.000000 0.000000
vn 0.000000 -1.000000 0.000000
vn 0.000000 -1.000000 0.000000
vn 0.000000 -1.000000 0.000000
vn 0.000000 -1.000000 0.000000
vn 0.000000 -1.000000 0.000000
vn 0.000000 -1.000000 0.000000
vn 0.000000 -1.000000 0.000000
vn 0.000000 -1.000000 0.000000
vn 0.000000 -1.000000 0.000000
vn 0.000000 -1.000000 0.000000
vn 0.000000 -1.000000 0.000000
vn 0.000000 -1.000000 0.000000
vn 0.000000 -1.000000 0.000000
vn 0.000000 -1.000000 0.000000
vn 0.000000 -1.000000 0.000000
vn 0.000000 -1.000000 0.000000
vn 0.000000 -1.000000 0.000000
vn 0.000000 -1.000000 0.000000
vn 0.000000 -1.000000 0.000000
vn 0.000000 -1.000000 0.000000
vn 0.000000 -1.000000 0.000000
vn 0.000000 -1.000000 0.000000
vn 0.000000 -1.000000 0.000000
vn 0.000000 -1.000000 0.000000
vn 0.000000 -1.000000 0.000000
vn 0.000000 -1.000000 0.000000
vn 0.000000 -1.000000 0.000000
vn 0.000000 -1.000000 0.000000
vn 0.000000 -1.000000 0.000000
vn 0.000000 -1.000000 0.000000
vn 0.000000 -1.000000 0.000000
vn 0.000000 -1.000000 0.000000
vn 0.000000 -1.000000 0.000000
vn 0.000000 -1.000000 0.000000
vn 0.000000 -1.000000 0.000000
vn 0.000000 -1.000000 0.000000
vn 0.000000 -1.000000 0.000000
vn 0.000000 -1.000000 0.000000
vn 0.000000 -1.000000 0.000000
vn 0.000000 -1.000000 0.000000
vn 0.000000 -1.000000 0.000000
vn 0.000000 -1.000000 0.000000
vn 0.000000 -1.000000 0.000000
vn 0.000000 -1.000000 0.000000
vn 0.000000 1.000000 -0.000000
vn 0.000000 1.000000 -0.000000
vn 0.000000 1.000000 -0.000000
vn 0.000000 1.000000 -0.000000
vn 0.000000 1.000000 -0.000000
vn 0.000000 1.000000 -0.000000
vn 0.000000 1.000000 -0.000000
vn 0.000000 1.000000 -0.000000
vn 0.000000 1.000000 -0.000000
vn 0.000000 1.000000 -0.000000
vn 0.000000 1.000000 -0.000000
vn 0.000000 1.000000 -0.000000
vn 0.000000 1.000000 -0.000000
vn 0.000000 1.000000 -0.000000
vn 0.000000 1.000000 -0.000000
vn 0.000000 1.000000 -0.000000
vn 0.000000 1.000000 -0.000000
vn 0.000000 1.000000 -0.000000
vn 0.000000 1.000000 -0.000000
vn 0.000000 1.000000 -0.000000
vn 0.000000 1.000000 -0.000000
vn 0.000000 1.000000 -0.000000
vn 0.000000 1.000000 -0.000000
vn 0.000000 1.000000 -0.000000
vn 0.000000 1.000000 -0.000000
vn 0.000000 1.000000 -0.000000
vn 0.000000 1.000000 -0.000000
vn 0.000000 1.000000 -0.000000
vn 0.000000 1.000000 -0.000000
vn 0.000000 1.000000 -0.000000
vn 0.000000 1.000000 -0.000000
vn 0.000000 1.000000 -0.000000
vn 0.000000 1.000000 -0.000000
vn 0.000000 1.000000 -0.000000
vn 0.000000 1.000000 -0.000000
vn 0.000000 1.000000 -0.000000
vn 0.000000 1.000000 -0.000000
vn 0.000000 1.000000 -0.000000
vn 0.000000 1.000000 -0.000000
vn 0.000000 1.000000 -0.000000
vn 0.000000 1.000000 -0.000000
vn 0.000000 1.000000 -0.000000
vn 0.000000 1.000000 -0.000000
vn 0.000000 1.000000 -0.000000
vn 0.000000 1.000000 -0.000000
vn 0.000000 1.000000 -0.000000
vn 0.000000 1.000000 -0.000000
vn 0.000000 1.000000 -0.000000
vn 0.000000 1.000000 -0.000000
vn 0.000000 1.000000 -0.000000
vn 0.000000 1.000000 -0.000000
vn 0.000000 1.000000 -0.000000
vn 0.000000 1.000000 -0.000000
vn 0.000000 1.000000 -0.000000
f 2//2 1//1 3//3
f 2//2 3//3 4//4
f 7//7 8//8 6//6
f 7//7 6//6 5//5
f 8//8 7//7 9//9
f 8//8 9//9 10//10
f 13//13 14//14 12//12
f 13//13 12//12 11//11
f 11//11 12//12 10//10
f 11//11 10//10 9//9
f 16//16 15//15 17//17
f 16//16 17//17 18//18
f 21//21 22//22 20//20
f 21//21 20//20 19//19
f 22//22 21//21 23//23
f 22//22 23//23 24//24
f 27//27 28//28 26//26
f 27//27 26//26 25//25
f 25//25 26//26 24//24
f 25//25 24//24 23//23
f 30//30 29//29 31//31
f 30//30 31//31 32//32
f 35//35 36//36 34//34
f 35//35 34//34 33//33
f 36//36 35//35 37//37
f 36//36 37//37 38//38
f 41//41 42//42 40//40
f 41//41 40//40 39//39
f 39//39 40//40 38//38
f 39//39 38//38 37//37
f 44//44 43//43 45//45
f 44//44 45//45 46//46
f 48//48 47//47 51//51
f 48//48 51//51 52//52
f 49//49 50//50 52//52
f 49//49 52//52 51//51
f 54//54 53//53 55//55
f 54//54 55//55 56//56
f 58//58 57//57 61//61
f 58//58 61//61 62//62
f 59//59 60//60 62//62
f 59//59 62//62 61//61
f 64//64 63//63 65//65
f 64//64 65//65 66//66
f 68//68 67//67 71//71
f 68//68 71//71 72//72
f 69//69 70//70 72//72
f 69//69 72//72 71//71
f 74//74 73//73 75//75
f 74//74 75//75 76//76
f 78//78 77//77 81//81
f 78//78 81//81 82//82
f 79//79 80//80 82//82
f 79//79 82//82 81//81
f 84//84 83//83 85//85
f 84//84 85//85 86//86
f 88//88 87//87 89//89
f 88//88 89//89 90//90
f 91//91 92//92 90//90
f 91//91 90//90 89//89
f 94//94 93//93 95//95
f 94//94 95//95 96//96
f 98//98 97//97 99//99
f 98//98 99//99 100//100
f 101//101 102//102 100//100
f 101//101 100//100 99//99
f 104//104 103//103 105//105
f 104//104 105//105 106//106
f 109//109 110//110 108//108
f 109//109 108//108 107//107
f 110//110 109//109 111//111
f 110//110 111//111 112//112
f 115//115 116//116 114//114
f 115//115 114//114 113//113
f 113//113 114//114 112//112
f 113//113 112//112 111//111
f 118//118 117//117 119//119
f 118//118 119//119 120//120
f 123//123 124//124 122//122
f 123//123 122//122 121//121
f 124//124 123//123 125//125
f 124//124 125//125 126//126
f 129//129 130//130 128//128
f 129//129 128//128 127//127
f 127//127 128//128 126//126
f 127//127 126//126 125//125
f 132//132 131//131 133//133
f 132//132 133//133 134//134
f 136//136 135//135 139//139
f 136//136 139//139 140//140
f 137//137 138//138 140//140
f 137//137 140//140 139//139
f 142//142 141//141 143//143
f 142//142 143//143 144//144
f 146//146 145//145 149//149
f 146//146 149//149 150//150
f 147//147 148//148 150//150
f 147//147 150//150 149//149
f 152//152 151//151 153//153
f 152//152 153//153 154//154
f 157//157 158//158 156//156
f 157//157 156//156 155//155
f 158//158 157//157 159//159
f 158//158 159//159 160//160
f 163//163 164//164 162//162
f 163//163 162//162 161//161
f 161//161 162//162 160//160
f 161//161 160//160 159//159
f 187//187 188//188 217//217
f 188//188 189//189 186//186
f 214//214 183//183 184//184
f 191//191 189//189 190//190
f 186//186 189//189 192//192
f 193//193 186//186 192//192
f 185//185 186//186 194//194
f 193//193 194//194 186//186
f 217//217 188//188 186//186
f 214//214 185//185 182//182
f 214//214 182//182 216//216
f 192//192 189//189 191//191
f 185//185 194//194 195//195
f 213//213 180//180 212//212
f 180//180 213//213 179//179
f 213//213 178//178 179//179
f 213//213 177//177 178//178
f 176//176 177//177 213//213
f 181//181 196//196 197//197
f 182//182 195//195 196//196
f 196//196 181//181 182//182
f 176//176 213//213 181//181
f 181//181 197//197 176//176
f 214//214 216//216 183//183
f 185//185 195//195 182//182
f 198//198 176//176 197//197
f 174//174 175//175 199//199
f 199//199 173//173 174//174
f 199//199 172//172 173//173
f 203//203 171//171 172//172
f 198//198 199//199 175//175
f 200//200 203//203 199//199
f 201//201 203//203 200//200
f 215//215 205//205 171//171
f 215//215 171//171 203//203
f 203//203 201//201 202//202
f 204//204 215//215 203//203
f 199//199 203//203 172//172
f 205//205 170//170 171//171
f 168//168 169//169 170//170
f 205//205 206//206 170//170
f 206//206 167//167 170//170
f 167//167 168//168 170//170
f 166//166 167//167 206//206
f 166//166 206//206 165//165
f 165//165 206//206 211//211
f 208//208 218//218 207//207
f 211//211 206//206 210//210
f 210//210 208//208 209//209
f 210//210 218//218 208//208
f 218//218 210//210 206//206
f 175//175 176//176 198//198
f 241//241 271//271 242//242
f 242//242 240//240 243//243
f 268//268 238//238 237//237
f 245//245 244//244 243//243
f 240//240 246//246 243//243
f 247//247 246//246 240//240
f 239//239 248//248 240//240
f 247//247 240//240 248//248
f 271//271 240//240 242//242
f 268//268 270//270 236//236
f 268//268 236//236 239//239
f 246//246 245//245 243//243
f 239//239 249//249 248//248
f 267//267 266//266 234//234
f 234//234 233//233 267//267
f 267//267 233//233 232//232
f 267//267 232//232 231//231
f 230//230 267//267 231//231
f 235//235 251//251 250//250
f 236//236 250//250 249//249
f 250//250 236//236 235//235
f 230//230 235//235 267//267
f 235//235 230//230 251//251
f 268//268 237//237 270//270
f 239//239 236//236 249//249
f 252//252 251//251 230//230
f 228//228 253//253 229//229
f 253//253 228//228 227//227
f 253//253 227//227 226//226
f 257//257 226//226 225//225
f 252//252 229//229 253//253
f 254//254 253//253 257//257
f 255//255 254//254 257//257
f 269//269 225//225 259//259
f 269//269 257//257 225//225
f 257//257 256//256 255//255
f 258//258 257//257 269//269
f 253//253 226//226 257//257
f 259//259 225//225 224//224
f 222//222 224//224 223//223
f 259//259 224//224 260//260
f 260//260 224//224 221//221
f 221//221 224//224 222//222
f 220//220 260//260 221//221
f 220//220 219//219 260//260
f 219//219 265//265 260//260
f 262//262 261//261 272//272
f 265//265 264//264 260//260
f 264//264 263//263 262//262
f 264//264 262//262 272//272
f 272//272 260//260 264//264
f 229//229 252//252 230//230
