# arm_14 exported from /models/landings/arm_14.glb
# units: meters
v -0.025384 0.001000 -0.004334
v -0.028733 0.001000 -0.002332
v -0.029142 0.001000 -0.004334
v -0.024945 0.001000 -0.002036
v -0.027422 0.001000 -0.000285
v -0.023555 0.001000 0.000080
v -0.021439 0.001000 0.001470
v -0.021966 0.001000 0.003444
v -0.019142 0.001000 0.001908
v -0.016844 0.001000 0.001470
v -0.001996 0.001000 0.003508
v 0.000321 0.001000 0.000775
v -0.004642 0.001000 0.006666
v -0.003192 0.001000 0.006666
v -0.014728 0.001000 0.000080
v 0.003438 0.001000 -0.000993
v -0.007142 0.001000 -0.001334
v -0.007648 0.001000 -0.001334
v 0.006763 0.001000 -0.001580
v -0.007142 0.001000 -0.004334
v 0.020857 0.001000 -0.004334
v 0.020857 0.001000 -0.001334
v 0.010098 0.001000 -0.001055
v 0.013247 0.001000 0.000656
v 0.015615 0.001000 0.003346
v 0.025020 0.001000 -0.000124
v 0.022635 0.001000 0.003444
v 0.020003 0.001000 0.005389
v 0.016869 0.001000 0.006481
v 0.022857 0.001000 -0.001334
v 0.025857 0.001000 -0.004334
v 0.022857 0.001000 -0.004334
v -0.009142 0.001000 -0.001334
v -0.013338 0.001000 -0.002036
v -0.009142 0.001000 -0.004334
v -0.012900 0.001000 -0.004334
v 0.025857 -0.001000 -0.004334
v 0.025650 -0.001000 -0.002208
v 0.025857 0.001000 -0.004334
v 0.025650 0.001000 -0.002208
v 0.025020 0.001000 -0.000124
v 0.023992 0.001000 0.001795
v 0.025020 -0.001000 -0.000124
v 0.023992 -0.001000 0.001795
v 0.022635 -0.001000 0.003444
v 0.022635 0.001000 0.003444
v 0.021404 -0.001000 0.004506
v 0.020003 -0.001000 0.005389
v 0.021404 0.001000 0.004506
v 0.020003 0.001000 0.005389
v 0.018474 0.001000 0.006055
v 0.018474 -0.001000 0.006055
v 0.016869 0.001000 0.006481
v 0.016869 -0.001000 0.006481
v -0.004642 -0.001000 0.006666
v -0.003192 -0.000000 0.006666
v -0.003192 -0.001000 0.006666
v -0.004642 0.001000 0.006666
v -0.003192 0.001000 0.006666
v -0.004642 -0.001000 0.006666
v -0.009100 -0.001000 0.006482
v -0.004642 0.001000 0.006666
v -0.009100 0.001000 0.006482
v -0.013660 0.001000 0.005894
v -0.018049 0.001000 0.004873
v -0.013660 -0.001000 0.005894
v -0.018049 -0.001000 0.004873
v -0.021966 -0.001000 0.003444
v -0.021966 0.001000 0.003444
v -0.025148 -0.001000 0.001686
v -0.027422 -0.001000 -0.000285
v -0.025148 0.001000 0.001686
v -0.027422 0.001000 -0.000285
v -0.028733 0.001000 -0.002332
v -0.028733 -0.001000 -0.002332
v -0.029142 0.001000 -0.004334
v -0.029142 -0.001000 -0.004334
v 0.022857 -0.001000 -0.001334
v 0.020857 -0.001000 -0.001334
v 0.022857 0.001000 -0.001334
v 0.020857 0.001000 -0.001334
v 0.022857 -0.001000 -0.004334
v 0.022857 0.001000 -0.004334
v 0.025857 -0.001000 -0.004334
v 0.025857 0.001000 -0.004334
v 0.020857 0.001000 -0.001334
v 0.020857 -0.001000 -0.001334
v 0.020857 0.001000 -0.004334
v 0.020857 -0.001000 -0.004334
v 0.022857 0.001000 -0.001334
v 0.022857 -0.001000 -0.001334
v 0.022857 0.001000 -0.004334
v 0.022857 -0.001000 -0.004334
v -0.009142 -0.001000 -0.004334
v -0.009142 0.001000 -0.004334
v -0.009142 -0.001000 -0.001334
v -0.009142 0.001000 -0.001334
v -0.029142 -0.001000 -0.004334
v -0.029142 0.001000 -0.004334
v -0.025384 -0.001000 -0.004334
v -0.025384 -0.000000 -0.004334
v -0.025384 0.001000 -0.004334
v -0.007142 -0.001000 -0.004334
v -0.007142 0.001000 -0.004334
v -0.007142 -0.001000 -0.001334
v -0.007142 0.001000 -0.001334
v 0.020857 -0.001000 -0.004334
v 0.020857 0.001000 -0.004334
v 0.017104 -0.001000 -0.004334
v -0.003389 -0.001000 -0.004334
v -0.007142 0.001000 -0.004334
v -0.007142 -0.001000 -0.004334
v -0.009142 -0.001000 -0.001334
v -0.007648 -0.001000 -0.001334
v -0.009142 0.001000 -0.001334
v -0.007648 0.001000 -0.001334
v -0.007142 0.001000 -0.001334
v -0.007142 -0.001000 -0.001334
v 0.016869 -0.001000 0.006481
v 0.016385 -0.001000 0.004896
v 0.016869 0.001000 0.006481
v 0.016385 0.001000 0.004896
v 0.015615 0.001000 0.003346
v 0.014559 0.001000 0.001907
v 0.015615 -0.001000 0.003346
v 0.014559 -0.001000 0.001907
v 0.013247 -0.001000 0.000656
v 0.011736 -0.001000 -0.000345
v 0.013247 0.001000 0.000656
v 0.011736 0.001000 -0.000345
v 0.010098 0.001000 -0.001055
v 0.008416 0.001000 -0.001461
v 0.010098 -0.001000 -0.001055
v 0.008416 -0.001000 -0.001461
v 0.006763 -0.001000 -0.001580
v 0.005113 -0.001000 -0.001431
v 0.006763 0.001000 -0.001580
v 0.005113 0.001000 -0.001431
v 0.003438 0.001000 -0.000993
v 0.001814 0.001000 -0.000253
v 0.003438 -0.001000 -0.000993
v 0.001814 -0.001000 -0.000253
v 0.000321 -0.001000 0.000775
v -0.000967 -0.001000 0.002050
v 0.000321 0.001000 0.000775
v -0.000967 0.001000 0.002050
v -0.001996 0.001000 0.003508
v -0.002738 0.001000 0.005073
v -0.001996 -0.001000 0.003508
v -0.002738 -0.001000 0.005073
v -0.003192 -0.000000 0.006666
v -0.003192 -0.001000 0.006666
v -0.003192 0.001000 0.006666
v -0.012900 0.001000 -0.004334
v -0.012900 -0.001000 -0.004334
v -0.009142 0.001000 -0.004334
v -0.009142 -0.001000 -0.004334
v -0.012900 0.001000 -0.004334
v -0.013004 0.001000 -0.003198
v -0.012900 -0.001000 -0.004334
v -0.013004 -0.001000 -0.003198
v -0.013338 -0.001000 -0.002036
v -0.013338 0.001000 -0.002036
v -0.013918 -0.001000 -0.000918
v -0.013918 0.001000 -0.000918
v -0.014728 0.001000 0.000080
v -0.014728 -0.001000 0.000080
v -0.015726 -0.001000 0.000891
v -0.015726 0.001000 0.000891
v -0.016844 0.001000 0.001470
v -0.016844 -0.001000 0.001470
v -0.018006 0.001000 0.001804
v -0.018006 -0.001000 0.001804
v -0.019142 0.001000 0.001908
v -0.019142 -0.001000 0.001908
v -0.020278 0.001000 0.001804
v -0.021439 0.001000 0.001470
v -0.020278 -0.001000 0.001804
v -0.021439 -0.001000 0.001470
v -0.022557 0.001000 0.000891
v -0.022557 -0.001000 0.000891
v -0.023555 0.001000 0.000080
v -0.023555 -0.001000 0.000080
v -0.024366 -0.001000 -0.000918
v -0.024366 0.001000 -0.000918
v -0.024945 0.001000 -0.002036
v -0.024945 -0.001000 -0.002036
v -0.025279 0.001000 -0.003198
v -0.025384 0.001000 -0.004334
v -0.025279 -0.001000 -0.003198
v -0.025384 -0.000000 -0.004334
v -0.025384 -0.001000 -0.004334
v -0.029142 -0.001000 -0.004334
v -0.028733 -0.001000 -0.002332
v -0.025384 -0.001000 -0.004334
v -0.024945 -0.001000 -0.002036
v -0.027422 -0.001000 -0.000285
v -0.023555 -0.001000 0.000080
v -0.021439 -0.001000 0.001470
v -0.021966 -0.001000 0.003444
v -0.019142 -0.001000 0.001908
v -0.001996 -0.001000 0.003508
v -0.016844 -0.001000 0.001470
v 0.000321 -0.001000 0.000775
v -0.014728 -0.001000 0.000080
v -0.007648 -0.001000 -0.001334
v -0.009142 -0.001000 -0.001334
v -0.013338 -0.001000 -0.002036
v -0.007142 -0.001000 -0.001334
v -0.003389 -0.001000 -0.004334
v -0.007142 -0.001000 -0.004334
v 0.006763 -0.001000 -0.001580
v 0.003438 -0.001000 -0.000993
v 0.010098 -0.001000 -0.001055
v 0.017104 -0.001000 -0.004334
v 0.020857 -0.001000 -0.001334
v 0.020857 -0.001000 -0.004334
v 0.025020 -0.001000 -0.000124
v 0.022857 -0.001000 -0.001334
v 0.013247 -0.001000 0.000656
v 0.022635 -0.001000 0.003444
v 0.015615 -0.001000 0.003346
v 0.020003 -0.001000 0.005389
v 0.016869 -0.001000 0.006481
v 0.025857 -0.001000 -0.004334
v 0.022857 -0.001000 -0.004334
v -0.009142 -0.001000 -0.004334
v -0.012900 -0.001000 -0.004334
v -0.004642 -0.001000 0.006666
v -0.003192 -0.001000 0.006666
vn 0.000000 1.000000 0.000000
vn 0.000000 1.000000 0.000000
vn 0.000000 1.000000 0.000000
vn 0.000000 1.000000 0.000000
vn 0.000000 1.000000 0.000000
vn 0.000000 1.000000 0.000000
vn 0.000000 1.000000 0.000000
vn 0.000000 1.000000 0.000000
vn 0.000000 1.000000 0.000000
vn 0.000000 1.000000 0.000000
vn 0.000000 1.000000 0.000000
vn 0.000000 1.000000 0.000000
vn 0.000000 1.000000 0.000000
vn 0.000000 1.000000 0.000000
vn 0.000000 1.000000 0.000000
vn 0.000000 1.000000 0.000000
vn 0.000000 1.000000 0.000000
vn 0.000000 1.000000 0.000000
vn 0.000000 1.000000 0.000000
vn 0.000000 1.000000 0.000000
vn 0.000000 1.000000 0.000000
vn 0.000000 1.000000 0.000000
vn 0.000000 1.000000 0.000000
vn 0.000000 1.000000 0.000000
vn 0.000000 1.000000 0.000000
vn 0.000000 1.000000 0.000000
vn 0.000000 1.000000 0.000000
vn 0.000000 1.000000 0.000000
vn 0.000000 1.000000 0.000000
vn 0.000000 1.000000 0.000000
vn 0.000000 1.000000 0.000000
vn 0.000000 1.000000 0.000000
vn 0.000000 1.000000 -0.000100
vn 0.000000 1.000000 0.000000
vn 0.000000 1.000000 0.000000
vn 0.000000 1.000000 0.000000
vn 1.000000 -0.000000 0.000100
vn 0.981138 -0.000000 0.193308
vn 1.000000 -0.000000 0.000100
vn 0.981138 -0.000000 0.193308
vn 0.923877 -0.000000 0.382690
vn 0.830385 -0.000000 0.557190
vn 0.923877 -0.000000 0.382690
vn 0.830385 -0.000000 0.557190
vn 0.707107 -0.000000 0.707107
vn 0.707107 -0.000000 0.707107
vn 0.595125 -0.000000 0.803633
vn 0.467497 -0.000000 0.883995
vn 0.595125 -0.000000 0.803633
vn 0.467497 -0.000000 0.883995
vn 0.328889 -0.000000 0.944369
vn 0.328889 -0.000000 0.944369
vn 0.182809 -0.000000 0.983148
vn 0.182809 -0.000000 0.983148
vn 0.000000 -0.000000 1.000000
vn 0.000000 -0.000000 1.000000
vn 0.000000 -0.000000 1.000000
vn 0.000000 -0.000000 1.000000
vn 0.000000 -0.000000 1.000000
vn 0.000000 -0.000000 1.000000
vn -0.082897 -0.000000 0.996558
vn 0.000000 -0.000000 1.000000
vn -0.082897 -0.000000 0.996558
vn -0.175091 -0.000000 0.984552
vn -0.281609 -0.000000 0.959529
vn -0.175091 -0.000000 0.984552
vn -0.281609 -0.000000 0.959529
vn -0.409587 -0.000000 0.912271
vn -0.409587 -0.000000 0.912271
vn -0.566117 -0.000000 0.824325
vn -0.750019 -0.000000 0.661417
vn -0.566117 -0.000000 0.824325
vn -0.750019 -0.000000 0.661417
vn -0.924529 -0.000000 0.381112
vn -0.924529 -0.000000 0.381112
vn -1.000000 -0.000000 0.000100
vn -1.000000 -0.000000 0.000100
vn 0.000000 0.000000 -1.000000
vn 0.000000 0.000000 -1.000000
vn 0.000000 0.000000 -1.000000
vn 0.000000 0.000000 -1.000000
vn 0.000000 0.000000 -1.000000
vn 0.000000 0.000000 -1.000000
vn 0.000000 0.000000 -1.000000
vn 0.000000 0.000000 -1.000000
vn 1.000000 0.000000 0.000000
vn 1.000000 0.000000 0.000000
vn 1.000000 0.000000 0.000000
vn 1.000000 0.000000 0.000000
vn -1.000000 0.000000 0.000000
vn -1.000000 0.000000 0.000000
vn -1.000000 0.000000 0.000000
vn -1.000000 0.000000 0.000000
vn 1.000000 0.000000 0.000000
vn 1.000000 0.000000 0.000000
vn 1.000000 0.000000 0.000000
vn 1.000000 0.000000 0.000000
vn 0.000000 0.000000 -1.000000
vn 0.000000 0.000000 -1.000000
vn 0.000000 0.000000 -1.000000
vn 0.000000 0.000000 -1.000000
vn 0.000000 0.000000 -1.000000
vn -1.000000 0.000000 0.000000
vn -1.000000 0.000000 0.000000
vn -1.000000 0.000000 0.000000
vn -1.000000 0.000000 0.000000
vn 0.000000 0.000000 -1.000000
vn 0.000000 0.000000 -1.000000
vn 0.000000 0.000000 -1.000000
vn 0.000000 0.000000 -1.000000
vn 0.000000 0.000000 -1.000000
vn 0.000000 0.000000 -1.000000
vn 0.000000 0.000000 -1.000000
vn 0.000000 0.000000 -1.000000
vn 0.000000 0.000000 -1.000000
vn 0.000000 0.000000 -1.000000
vn 0.000000 0.000000 -1.000000
vn 0.000000 0.000000 -1.000000
vn -0.976987 -0.000000 0.213297
vn -0.929822 -0.000000 0.368009
vn -0.976987 -0.000000 0.213297
vn -0.929822 -0.000000 0.368009
vn -0.854665 -0.000000 0.519179
vn -0.751609 -0.000000 0.659608
vn -0.854665 -0.000000 0.519179
vn -0.751609 -0.000000 0.659608
vn -0.623572 -0.000000 0.781766
vn -0.476215 -0.000000 0.879329
vn -0.623572 -0.000000 0.781766
vn -0.476215 -0.000000 0.879329
vn -0.316408 -0.000000 0.948623
vn -0.152095 -0.000000 0.988366
vn -0.316408 -0.000000 0.948623
vn -0.152095 -0.000000 0.988366
vn 0.009200 -0.000000 0.999958
vn 0.170396 -0.000000 0.985376
vn 0.009200 -0.000000 0.999958
vn 0.170396 -0.000000 0.985376
vn 0.333903 -0.000000 0.942608
vn 0.492311 -0.000000 0.870419
vn 0.333903 -0.000000 0.942608
vn 0.492311 -0.000000 0.870419
vn 0.637909 -0.000000 0.770111
vn 0.763777 -0.000000 0.645480
vn 0.637909 -0.000000 0.770111
vn 0.763777 -0.000000 0.645480
vn 0.864065 -0.000000 0.503380
vn 0.936411 -0.000000 0.350904
vn 0.864065 -0.000000 0.503380
vn 0.936411 -0.000000 0.350904
vn 0.980765 -0.000000 0.195193
vn 0.980765 -0.000000 0.195193
vn 0.980765 -0.000000 0.195193
vn 0.000000 0.000000 -1.000000
vn 0.000000 0.000000 -1.000000
vn 0.000000 0.000000 -1.000000
vn 0.000000 0.000000 -1.000000
vn -1.000000 0.000000 0.000000
vn -0.983299 0.000000 -0.182000
vn -1.000000 0.000000 0.000000
vn -0.983299 0.000000 -0.182000
vn -0.929788 0.000000 -0.368095
vn -0.929788 0.000000 -0.368095
vn -0.836926 0.000000 -0.547317
vn -0.837047 0.000000 -0.547131
vn -0.707107 0.000000 -0.707107
vn -0.707107 0.000000 -0.707107
vn -0.547317 0.000000 -0.836926
vn -0.547201 0.000000 -0.837001
vn -0.368182 0.000000 -0.929754
vn -0.368182 0.000000 -0.929754
vn -0.181903 0.000000 -0.983316
vn -0.182000 0.000000 -0.983299
vn 0.000000 0.000000 -1.000000
vn 0.000000 0.000000 -1.000000
vn 0.182000 0.000000 -0.983299
vn 0.368182 0.000000 -0.929754
vn 0.182000 0.000000 -0.983299
vn 0.368182 0.000000 -0.929754
vn 0.547317 0.000000 -0.836926
vn 0.547201 0.000000 -0.837001
vn 0.707107 0.000000 -0.707107
vn 0.707107 0.000000 -0.707107
vn 0.837001 0.000000 -0.547201
vn 0.837077 0.000000 -0.547085
vn 0.929788 0.000000 -0.368095
vn 0.929788 0.000000 -0.368095
vn 0.983299 0.000000 -0.182000
vn 1.000000 0.000000 0.000000
vn 0.983299 0.000000 -0.182000
vn 1.000000 0.000000 0.000000
vn 1.000000 0.000000 0.000000
vn 0.000000 -1.000000 -0.000000
vn 0.000000 -1.000000 -0.000000
vn 0.000000 -1.000000 -0.000000
vn 0.000000 -1.000000 -0.000000
vn 0.000000 -1.000000 -0.000000
vn 0.000000 -1.000000 -0.000000
vn 0.000000 -1.000000 -0.000000
vn 0.000000 -1.000000 -0.000000
vn 0.000000 -1.000000 -0.000000
vn 0.000000 -1.000000 -0.000000
vn 0.000000 -1.000000 -0.000000
vn 0.000000 -1.000000 -0.000000
vn 0.000000 -1.000000 -0.000000
vn 0.000000 -1.000000 -0.000000
vn 0.000000 -1.000000 0.000100
vn 0.000000 -1.000000 -0.000000
vn 0.000000 -1.000000 -0.000000
vn 0.000000 -1.000000 -0.000000
vn 0.000000 -1.000000 -0.000000
vn 0.000000 -1.000000 -0.000000
vn 0.000000 -1.000000 -0.000000
vn 0.000000 -1.000000 -0.000000
vn 0.000000 -1.000000 -0.000000
vn 0.000000 -1.000000 -0.000000
vn 0.000000 -1.000000 -0.000000
vn 0.000000 -1.000000 -0.000000
vn 0.000000 -1.000000 -0.000000
vn 0.000000 -1.000000 -0.000000
vn 0.000000 -1.000000 -0.000000
vn 0.000000 -1.000000 -0.000000
vn 0.000000 -1.000000 -0.000000
vn 0.000000 -1.000000 -0.000000
vn 0.000000 -1.000000 -0.000000
vn 0.000000 -1.000000 -0.000000
vn 0.000000 -1.000000 -0.000000
vn 0.000000 -1.000000 -0.000000
vn 0.000000 -1.000000 -0.000000
vn 0.000000 -1.000000 -0.000000
f 2//2 4//4 1//1
f 2//2 1//1 3//3
f 5//5 4//4 2//2
f 6//6 4//4 5//5
f 7//7 6//6 5//5
f 5//5 8//8 7//7
f 7//7 8//8 9//9
f 10//10 9//9 11//11
f 9//9 8//8 11//11
f 10//10 11//11 12//12
f 11//11 13//13 14//14
f 13//13 11//11 8//8
f 12//12 15//15 10//10
f 17//17 15//15 12//12
f 12//12 16//16 17//17
f 15//15 17//17 18//18
f 16//16 19//19 17//17
f 20//20 17//17 19//19
f 19//19 21//21 20//20
f 23//23 21//21 19//19
f 22//22 21//21 23//23
f 24//24 22//22 23//23
f 26//26 22//22 24//24
f 24//24 25//25 27//27
f 27//27 26//26 24//24
f 25//25 28//28 27//27
f 28//28 25//25 29//29
f 26//26 30//30 22//22
f 30//30 26//26 31//31
f 30//30 31//31 32//32
f 18//18 33//33 15//15
f 15//15 33//33 34//34
f 35//35 34//34 33//33
f 34//34 35//35 36//36
f 37//37 39//39 40//40
f 37//37 40//40 38//38
f 38//38 40//40 41//41
f 38//38 41//41 43//43
f 43//43 41//41 42//42
f 43//43 42//42 44//44
f 44//44 42//42 46//46
f 44//44 46//46 45//45
f 49//49 47//47 45//45
f 49//49 45//45 46//46
f 47//47 49//49 50//50
f 47//47 50//50 48//48
f 48//48 50//50 51//51
f 48//48 51//51 52//52
f 52//52 51//51 53//53
f 52//52 53//53 54//54
f 55//55 56//56 58//58
f 55//55 57//57 56//56
f 59//59 58//58 56//56
f 61//61 60//60 62//62
f 61//61 62//62 63//63
f 66//66 61//61 63//63
f 66//66 63//63 64//64
f 67//67 66//66 64//64
f 67//67 64//64 65//65
f 68//68 67//67 65//65
f 68//68 65//65 69//69
f 70//70 68//68 69//69
f 70//70 69//69 72//72
f 70//70 72//72 73//73
f 70//70 73//73 71//71
f 71//71 73//73 74//74
f 71//71 74//74 75//75
f 77//77 75//75 74//74
f 77//77 74//74 76//76
f 79//79 81//81 80//80
f 79//79 80//80 78//78
f 83//83 85//85 84//84
f 83//83 84//84 82//82
f 87//87 89//89 88//88
f 87//87 88//88 86//86
f 91//91 90//90 92//92
f 91//91 92//92 93//93
f 95//95 97//97 96//96
f 95//95 96//96 94//94
f 99//99 101//101 100//100
f 99//99 100//100 98//98
f 99//99 102//102 101//101
f 104//104 103//103 105//105
f 104//104 105//105 106//106
f 108//108 107//107 109//109
f 108//108 109//109 110//110
f 108//108 110//110 111//111
f 111//111 110//110 112//112
f 113//113 115//115 116//116
f 113//113 116//116 114//114
f 117//117 118//118 114//114
f 117//117 114//114 116//116
f 122//122 120//120 119//119
f 122//122 119//119 121//121
f 123//123 125//125 120//120
f 123//123 120//120 122//122
f 124//124 126//126 125//125
f 124//124 125//125 123//123
f 129//129 127//127 126//126
f 129//129 126//126 124//124
f 130//130 128//128 127//127
f 130//130 127//127 129//129
f 131//131 133//133 128//128
f 131//131 128//128 130//130
f 132//132 134//134 133//133
f 132//132 133//133 131//131
f 137//137 135//135 134//134
f 137//137 134//134 132//132
f 138//138 136//136 135//135
f 138//138 135//135 137//137
f 139//139 141//141 136//136
f 139//139 136//136 138//138
f 140//140 142//142 141//141
f 140//140 141//141 139//139
f 145//145 143//143 142//142
f 145//145 142//142 140//140
f 146//146 144//144 143//143
f 146//146 143//143 145//145
f 147//147 149//149 144//144
f 147//147 144//144 146//146
f 148//148 150//150 149//149
f 148//148 149//149 147//147
f 148//148 151//151 150//150
f 150//150 151//151 152//152
f 151//151 148//148 153//153
f 154//154 156//156 157//157
f 154//154 157//157 155//155
f 158//158 160//160 161//161
f 158//158 161//161 159//159
f 159//159 161//161 162//162
f 159//159 162//162 163//163
f 163//163 162//162 164//164
f 163//163 164//164 165//165
f 164//164 166//166 165//165
f 166//166 164//164 167//167
f 167//167 168//168 169//169
f 167//167 169//169 166//166
f 168//168 170//170 169//169
f 171//171 170//170 168//168
f 171//171 172//172 170//170
f 173//173 172//172 171//171
f 173//173 174//174 172//172
f 173//173 175//175 174//174
f 174//174 175//175 176//176
f 176//176 178//178 177//177
f 176//176 175//175 178//178
f 179//179 177//177 178//178
f 180//180 177//177 179//179
f 180//180 179//179 181//181
f 181//181 182//182 180//180
f 183//183 182//182 181//181
f 185//185 183//183 184//184
f 183//183 185//185 182//182
f 186//186 185//185 184//184
f 187//187 186//186 184//184
f 187//187 188//188 186//186
f 191//191 189//189 188//188
f 188//188 187//187 190//190
f 190//190 191//191 188//188
f 191//191 190//190 192//192
f 193//193 195//195 194//194
f 195//195 196//196 194//194
f 197//197 194//194 196//196
f 198//198 197//197 196//196
f 199//199 197//197 198//198
f 200//200 197//197 199//199
f 199//199 201//201 200//200
f 201//201 202//202 200//200
f 203//203 202//202 201//201
f 203//203 204//204 202//202
f 203//203 205//205 204//204
f 209//209 205//205 206//206
f 205//205 207//207 206//206
f 207//207 205//205 208//208
f 209//209 204//204 205//205
f 212//212 209//209 210//210
f 209//209 211//211 210//210
f 209//209 212//212 213//213
f 204//204 209//209 213//213
f 215//215 214//214 212//212
f 212//212 210//210 215//215
f 214//214 215//215 216//216
f 216//216 215//215 217//217
f 216//216 220//220 214//214
f 218//218 220//220 216//216
f 218//218 216//216 219//219
f 221//221 220//220 218//218
f 221//221 222//222 220//220
f 222//222 221//221 223//223
f 223//223 224//224 222//222
f 219//219 225//225 218//218
f 219//219 226//226 225//225
f 207//207 208//208 227//227
f 208//208 228//228 227//227
f 229//229 200//200 202//202
f 229//229 202//202 230//230
