# arm_30 exported from /models/landings/arm_30.glb
# units: meters
v 0.003478 0.000996 -0.018100
v 0.011183 0.000993 -0.010420
v -0.000168 0.000993 -0.011303
v -0.000688 0.000994 -0.014033
v 0.009719 0.000996 -0.018623
v 0.004851 0.000999 -0.025385
v 0.003478 0.000999 -0.026488
v 0.001500 0.000996 -0.018100
v 0.001500 0.001000 -0.027748
v -0.002340 0.000995 -0.016547
v -0.004854 0.000996 -0.018198
v -0.007584 0.000996 -0.018719
v -0.004524 0.001000 -0.029839
v -0.010782 0.001000 -0.029815
v -0.018474 0.000999 -0.026611
v -0.010313 0.000996 -0.018198
v -0.012827 0.000995 -0.016547
v -0.024023 0.000997 -0.020396
v -0.014479 0.000994 -0.014033
v -0.026339 0.000994 -0.012392
v -0.014999 0.000993 -0.011303
v -0.014479 0.000992 -0.008573
v -0.024966 0.000990 -0.004174
v -0.012827 0.000991 -0.006059
v -0.010313 0.000991 -0.004407
v -0.007584 0.000990 -0.003887
v -0.013617 0.000984 0.012821
v 0.003443 0.000979 0.024071
v 0.001778 0.000984 0.013648
v 0.002658 0.000983 0.014988
v 0.001500 0.000984 0.012192
v 0.001778 0.000985 0.010736
v 0.002658 0.000985 0.009395
v 0.003999 0.000986 0.008514
v -0.004854 0.000991 -0.004407
v -0.002340 0.000991 -0.006059
v 0.013192 0.000988 0.002418
v 0.005455 0.000986 0.008236
v -0.000688 0.000992 -0.008573
v 0.006911 0.000986 0.008514
v 0.008252 0.000985 0.009395
v 0.009133 0.000985 0.010736
v 0.020092 0.000984 0.013429
v 0.009410 0.000984 0.012192
v 0.009133 0.000984 0.013648
v 0.008252 0.000983 0.014988
v 0.006911 0.000983 0.015869
v 0.023535 0.000978 0.027807
v 0.031164 0.000981 0.021001
v 0.031164 0.000980 0.023068
v 0.033141 0.000980 0.023068
v 0.043499 0.000980 0.023442
v 0.033141 0.000980 0.021742
v 0.005455 0.000983 0.016147
v 0.003999 0.000983 0.015869
v -0.007584 0.000996 -0.018719
v -0.007584 0.000007 -0.018719
v -0.008933 0.000996 -0.018595
v -0.010313 0.000996 -0.018198
v -0.012882 0.000006 -0.016492
v -0.011642 0.000996 -0.017510
v -0.010313 -0.000982 -0.018199
v -0.011642 -0.000982 -0.017511
v -0.008933 -0.000982 -0.018596
v -0.007584 -0.000982 -0.018719
v -0.012827 -0.000982 -0.016547
v -0.013791 -0.000983 -0.015362
v -0.014479 -0.000983 -0.014033
v -0.014876 -0.000984 -0.012653
v -0.014492 0.000005 -0.013998
v -0.013791 0.000995 -0.015361
v -0.014479 0.000994 -0.014033
v -0.014876 0.000994 -0.012652
v -0.014999 0.000004 -0.011303
v -0.014876 0.000993 -0.009953
v -0.014999 -0.000984 -0.011304
v -0.014876 -0.000985 -0.009954
v -0.014999 0.000993 -0.011303
v -0.014443 0.000003 -0.008486
v -0.012772 0.000002 -0.006005
v -0.014479 0.000992 -0.008573
v -0.013791 0.000992 -0.007245
v -0.013791 -0.000986 -0.007245
v -0.014479 -0.000985 -0.008574
v -0.012827 -0.000986 -0.006060
v -0.011642 -0.000987 -0.005096
v -0.010313 -0.000987 -0.004408
v -0.010279 0.000002 -0.004394
v -0.008933 -0.000987 -0.004011
v -0.007584 -0.000987 -0.003888
v -0.007584 0.000002 -0.003887
v -0.006234 -0.000987 -0.004011
v -0.004854 -0.000987 -0.004408
v -0.003525 -0.000987 -0.005096
v -0.004766 0.000002 -0.004443
v -0.006234 0.000990 -0.004011
v -0.004854 0.000991 -0.004407
v -0.003525 0.000991 -0.005096
v -0.002285 0.000002 -0.006114
v -0.001376 -0.000986 -0.007245
v -0.002340 0.000991 -0.006059
v -0.002340 -0.000986 -0.006060
v -0.001376 0.000992 -0.007245
v -0.000675 0.000003 -0.008608
v -0.000291 -0.000985 -0.009954
v -0.000688 -0.000985 -0.008574
v -0.000688 0.000992 -0.008573
v -0.000291 0.000993 -0.009953
v -0.000168 0.000004 -0.011303
v -0.000291 0.000994 -0.012652
v -0.000291 -0.000984 -0.012653
v -0.000168 0.000993 -0.011303
v -0.000724 0.000005 -0.014120
v -0.000168 -0.000984 -0.011304
v -0.002395 0.000006 -0.016601
v -0.000688 0.000994 -0.014033
v -0.001376 0.000995 -0.015361
v -0.001376 -0.000983 -0.015362
v -0.000688 -0.000983 -0.014033
v -0.002340 -0.000982 -0.016547
v -0.003525 -0.000982 -0.017511
v -0.004854 -0.000982 -0.018199
v -0.006234 -0.000982 -0.018596
v -0.004888 0.000007 -0.018212
v -0.003525 0.000996 -0.017510
v -0.004854 0.000996 -0.018198
v -0.006234 0.000996 -0.018595
v -0.007584 0.000007 -0.018719
v -0.007584 0.000996 -0.018719
v -0.007584 -0.000982 -0.018719
v -0.002340 0.000995 -0.016547
v -0.007584 0.000990 -0.003887
v -0.008933 0.000990 -0.004011
v -0.010313 0.000991 -0.004407
v -0.011642 0.000991 -0.005096
v -0.012827 0.000991 -0.006059
v -0.012827 0.000995 -0.016547
v 0.003478 0.000999 -0.026488
v 0.006845 0.000009 -0.023335
v 0.004851 0.000999 -0.025385
v 0.003478 -0.000979 -0.026489
v 0.004851 -0.000979 -0.025386
v 0.006314 -0.000980 -0.023945
v 0.007634 -0.000980 -0.022321
v 0.008778 -0.000981 -0.020537
v 0.009719 -0.000982 -0.018624
v 0.010842 0.000006 -0.014969
v 0.010437 -0.000982 -0.016615
v 0.010920 -0.000983 -0.014552
v 0.011167 -0.000984 -0.012474
v 0.011183 -0.000985 -0.010421
v 0.011183 0.000993 -0.010420
v 0.011167 0.000994 -0.012474
v 0.010920 0.000994 -0.014551
v 0.010437 0.000995 -0.016615
v 0.009719 0.000996 -0.018623
v 0.008778 0.000997 -0.020537
v 0.007634 0.000997 -0.022320
v 0.006314 0.000998 -0.023944
v 0.011183 -0.000985 -0.010421
v 0.011526 -0.000987 -0.003967
v 0.011183 0.000993 -0.010420
v 0.011526 0.000990 -0.003966
v 0.013192 0.000988 0.002418
v 0.013192 -0.000990 0.002417
v 0.016119 0.000986 0.008330
v 0.016119 -0.000992 0.008330
v 0.020092 0.000984 0.013429
v 0.026716 -0.000007 0.018752
v 0.020092 -0.000994 0.013428
v 0.025173 0.000982 0.017756
v 0.031164 0.000981 0.021001
v 0.026716 0.000487 0.018752
v 0.028894 0.000487 0.019961
v 0.031164 -0.000008 0.021001
v 0.028894 -0.000008 0.019961
v 0.028894 -0.000502 0.019961
v 0.026716 -0.000502 0.018752
v 0.025173 -0.000996 0.017755
v 0.031164 -0.000997 0.021000
v 0.001500 -0.000982 -0.018101
v 0.001500 0.000996 -0.018100
v 0.001500 -0.000978 -0.027749
v 0.001500 0.001000 -0.027748
v 0.043499 -0.000998 0.023442
v 0.038056 -0.000010 0.025481
v 0.041173 -0.000998 0.024399
v 0.043499 0.000980 0.023442
v 0.041173 0.000979 0.024400
v 0.038782 0.000979 0.025249
v 0.036334 0.000979 0.025985
v 0.033836 0.000979 0.026602
v 0.031298 0.000978 0.027096
v 0.028729 0.000978 0.027463
v 0.026533 -0.000011 0.027672
v 0.031298 -0.000999 0.027095
v 0.028729 -0.000999 0.027462
v 0.020633 -0.000011 0.027770
v 0.026138 0.000978 0.027700
v 0.026138 -0.000999 0.027700
v 0.023535 -0.001000 0.027806
v 0.020929 -0.001000 0.027781
v 0.018332 -0.000999 0.027625
v 0.014780 -0.000011 0.027197
v 0.015752 -0.000999 0.027339
v 0.013200 -0.000999 0.026925
v 0.010685 -0.000999 0.026386
v 0.009085 -0.000010 0.025975
v 0.008215 -0.000999 0.025728
v 0.005798 -0.000998 0.024954
v 0.003443 -0.000009 0.024070
v 0.003443 -0.000998 0.024070
v 0.001134 -0.000998 0.023072
v -0.001143 -0.000997 0.021953
v -0.001615 -0.000008 0.021704
v -0.003379 0.000981 0.020714
v -0.003379 -0.000997 0.020714
v -0.006614 -0.000007 0.018648
v -0.001143 0.000980 0.021954
v 0.001134 0.000980 0.023073
v 0.003443 0.000979 0.024071
v 0.005798 0.000979 0.024955
v 0.008215 0.000979 0.025729
v 0.010685 0.000979 0.026387
v 0.013200 0.000978 0.026926
v 0.015752 0.000978 0.027339
v 0.018332 0.000978 0.027626
v 0.020929 0.000978 0.027782
v 0.023535 0.000978 0.027807
v -0.005564 -0.000996 0.019356
v -0.011255 -0.000006 0.015026
v -0.007689 -0.000996 0.017883
v -0.009745 -0.000995 0.016300
v -0.007689 0.000982 0.017884
v -0.005564 0.000981 0.019357
v -0.009745 0.000982 0.016300
v -0.011724 0.000983 0.014611
v -0.013617 0.000984 0.012821
v -0.015418 0.000985 0.010938
v -0.015462 -0.000004 0.010889
v -0.019158 -0.000002 0.006312
v -0.013617 -0.000994 0.012820
v -0.015418 -0.000993 0.010937
v -0.017119 -0.000992 0.008968
v -0.017119 0.000985 0.008969
v -0.018714 0.000986 0.006922
v -0.020199 0.000987 0.004805
v -0.021570 0.000988 0.002628
v -0.022822 0.000989 0.000400
v -0.022282 -0.000001 0.001393
v -0.020199 -0.000991 0.004805
v -0.021570 -0.000990 0.002628
v -0.022822 -0.000989 0.000399
v -0.023955 -0.000988 -0.001872
v -0.024795 0.000001 -0.003764
v -0.024966 0.000990 -0.004174
v -0.023955 0.000990 -0.001871
v -0.024966 -0.000987 -0.004175
v -0.026248 0.000004 -0.009159
v -0.026105 0.000992 -0.008154
v -0.026105 -0.000986 -0.008154
v -0.026339 -0.000984 -0.012393
v -0.025949 0.000006 -0.015259
v -0.025616 0.000995 -0.016575
v -0.025616 -0.000982 -0.016576
v -0.024023 0.000008 -0.020396
v -0.026339 0.000994 -0.012392
v -0.020244 0.000010 -0.025184
v -0.024023 -0.000981 -0.020397
v -0.024023 0.000997 -0.020396
v -0.021633 0.000998 -0.023776
v -0.018474 0.000999 -0.026611
v -0.014759 0.001000 -0.028666
v -0.010782 0.001000 -0.029815
v -0.015331 0.000011 -0.028418
v -0.018474 -0.000978 -0.026612
v -0.014759 -0.000978 -0.028666
v -0.010054 0.000012 -0.029927
v -0.007691 0.001000 -0.030089
v -0.010782 -0.000977 -0.029816
v -0.003978 0.000012 -0.029741
v -0.007691 -0.000977 -0.030090
v -0.004524 -0.000977 -0.029840
v -0.001415 -0.000978 -0.029049
v 0.001500 -0.000978 -0.027749
v 0.001500 0.001000 -0.027748
v -0.001415 0.001000 -0.029048
v -0.004524 0.001000 -0.029839
v -0.021633 -0.000980 -0.023776
v -0.018714 -0.000991 0.006921
v -0.011724 -0.000994 0.014610
v 0.033836 -0.000999 0.026601
v 0.036334 -0.000999 0.025984
v 0.038782 -0.000999 0.025248
v 0.003478 -0.000979 -0.026489
v 0.003478 0.000999 -0.026488
v 0.003478 -0.000982 -0.018101
v 0.003478 0.000996 -0.018100
v 0.003478 0.000996 -0.018100
v 0.001500 0.000996 -0.018100
v 0.003478 -0.000982 -0.018101
v 0.001500 -0.000982 -0.018101
v 0.003478 -0.000982 -0.018101
v -0.000168 -0.000984 -0.011304
v 0.011183 -0.000985 -0.010421
v -0.000688 -0.000983 -0.014033
v 0.001500 -0.000982 -0.018101
v 0.009719 -0.000982 -0.018624
v 0.004851 -0.000979 -0.025386
v 0.003478 -0.000979 -0.026489
v -0.002340 -0.000982 -0.016547
v -0.004854 -0.000982 -0.018199
v 0.001500 -0.000978 -0.027749
v -0.004524 -0.000977 -0.029840
v -0.010782 -0.000977 -0.029816
v -0.007584 -0.000982 -0.018719
v -0.010313 -0.000982 -0.018199
v -0.012827 -0.000982 -0.016547
v -0.018474 -0.000978 -0.026612
v -0.024023 -0.000981 -0.020397
v -0.026339 -0.000984 -0.012393
v -0.014479 -0.000983 -0.014033
v -0.014999 -0.000984 -0.011304
v -0.014479 -0.000985 -0.008574
v -0.024966 -0.000987 -0.004175
v -0.012827 -0.000986 -0.006060
v -0.010313 -0.000987 -0.004408
v -0.007584 -0.000987 -0.003888
v -0.013617 -0.000994 0.012820
v 0.001778 -0.000994 0.013647
v 0.002658 -0.000995 0.014988
v 0.001500 -0.000993 0.012191
v 0.001778 -0.000993 0.010735
v 0.002658 -0.000992 0.009394
v 0.003443 -0.000998 0.024070
v 0.023535 -0.001000 0.027806
v 0.005455 -0.000995 0.016146
v 0.003999 -0.000995 0.015868
v 0.006911 -0.000995 0.015868
v 0.008252 -0.000995 0.014988
v 0.020092 -0.000994 0.013428
v 0.009133 -0.000994 0.013647
v 0.009410 -0.000993 0.012191
v 0.009133 -0.000993 0.010735
v 0.008252 -0.000992 0.009394
v 0.013192 -0.000990 0.002417
v 0.005455 -0.000992 0.008236
v 0.006911 -0.000992 0.008513
v -0.002340 -0.000986 -0.006060
v 0.003999 -0.000992 0.008513
v -0.004854 -0.000987 -0.004408
v -0.000688 -0.000985 -0.008574
v 0.031164 -0.000997 0.021000
v 0.031164 -0.000998 0.023068
v 0.033141 -0.000998 0.023068
v 0.043499 -0.000998 0.023442
v 0.033141 -0.000997 0.021741
vn 0.000000 1.000000 0.000400
vn 0.000000 1.000000 0.000400
vn 0.000000 1.000000 0.000400
vn 0.000000 1.000000 0.000400
vn 0.000000 1.000000 0.000400
vn 0.000000 1.000000 0.000400
vn 0.000000 1.000000 0.000400
vn 0.000000 1.000000 0.000400
vn 0.000000 1.000000 0.000400
vn 0.000000 1.000000 0.000400
vn 0.000000 1.000000 0.000400
vn 0.000000 1.000000 0.000400
vn 0.000000 1.000000 0.000400
vn 0.000000 1.000000 0.000400
vn 0.000000 1.000000 0.000400
vn 0.000000 1.000000 0.000400
vn 0.000000 1.000000 0.000400
vn 0.000000 1.000000 0.000400
vn 0.000000 1.000000 0.000400
vn 0.000000 1.000000 0.000400
vn 0.000000 1.000000 0.000400
vn 0.000000 1.000000 0.000400
vn 0.000000 1.000000 0.000400
vn 0.000000 1.000000 0.000400
vn 0.000000 1.000000 0.000400
vn 0.000000 1.000000 0.000400
vn 0.000000 1.000000 0.000400
vn 0.000000 1.000000 0.000400
vn 0.000000 1.000000 0.000400
vn 0.000000 1.000000 0.000400
vn 0.000000 1.000000 0.000400
vn 0.000000 1.000000 0.000400
vn 0.000000 1.000000 0.000400
vn 0.000000 1.000000 0.000400
vn 0.000000 1.000000 0.000400
vn 0.000000 1.000000 0.000400
vn 0.000000 1.000000 0.000400
vn 0.000000 1.000000 0.000400
vn 0.000000 1.000000 0.000400
vn 0.000000 1.000000 0.000400
vn 0.000000 1.000000 0.000400
vn 0.000000 1.000000 0.000400
vn 0.000000 1.000000 0.000400
vn 0.000000 1.000000 0.000400
vn 0.000000 1.000000 0.000400
vn 0.000000 1.000000 0.000400
vn 0.000000 1.000000 0.000400
vn 0.000000 1.000000 0.000400
vn 0.000000 1.000000 0.000400
vn 0.000000 1.000000 0.000400
vn 0.000000 1.000000 0.000400
vn 0.000000 1.000000 0.000400
vn 0.000000 1.000000 0.000400
vn 0.000000 1.000000 0.000400
vn 0.000000 1.000000 0.000400
vn 0.000000 -0.000400 1.000000
vn 0.000100 -0.000400 1.000000
vn 0.182000 -0.000300 0.983299
vn 0.368095 -0.000400 0.929788
vn 0.714419 -0.000200 0.699718
vn 0.547201 -0.000300 0.837001
vn 0.368095 -0.000400 0.929788
vn 0.547201 -0.000400 0.837001
vn 0.182000 -0.000500 0.983298
vn 0.000100 -0.000400 1.000000
vn 0.707107 -0.000300 0.707107
vn 0.837001 -0.000300 0.547201
vn 0.929788 -0.000200 0.368095
vn 0.983299 -0.000100 0.182000
vn 0.931595 -0.000200 0.363498
vn 0.837001 -0.000100 0.547201
vn 0.929788 -0.000100 0.368095
vn 0.983299 0.000000 0.182000
vn 1.000000 0.000000 0.000000
vn 0.983299 0.000200 -0.182000
vn 1.000000 0.000000 0.000000
vn 0.983299 0.000000 -0.182000
vn 1.000000 0.000000 0.000000
vn 0.925024 0.000200 -0.379910
vn 0.699718 0.000200 -0.714419
vn 0.929822 0.000200 -0.368009
vn 0.837001 0.000300 -0.547201
vn 0.837001 0.000200 -0.547201
vn 0.929788 0.000200 -0.368095
vn 0.707107 0.000200 -0.707107
vn 0.547201 0.000300 -0.837001
vn 0.368095 0.000400 -0.929788
vn 0.363498 0.000400 -0.931595
vn 0.182000 0.000400 -0.983298
vn 0.000000 0.000400 -1.000000
vn 0.000000 0.000400 -1.000000
vn -0.182000 0.000300 -0.983299
vn -0.368095 0.000400 -0.929788
vn -0.547201 0.000300 -0.837001
vn -0.379910 0.000400 -0.925024
vn -0.182000 0.000400 -0.983298
vn -0.368095 0.000300 -0.929788
vn -0.547201 0.000400 -0.837001
vn -0.714419 0.000300 -0.699718
vn -0.837001 0.000200 -0.547201
vn -0.707107 0.000300 -0.707107
vn -0.707107 0.000300 -0.707107
vn -0.837001 0.000200 -0.547201
vn -0.931629 0.000100 -0.363411
vn -0.983299 0.000100 -0.182000
vn -0.929788 0.000200 -0.368095
vn -0.929788 0.000100 -0.368095
vn -0.983299 0.000100 -0.182000
vn -1.000000 0.000000 0.000000
vn -0.983299 -0.000100 0.182000
vn -0.983299 -0.000100 0.182000
vn -1.000000 0.000000 0.000000
vn -0.925024 -0.000100 0.379910
vn -1.000000 0.000000 0.000000
vn -0.699718 -0.000300 0.714419
vn -0.929788 -0.000200 0.368095
vn -0.837001 -0.000200 0.547201
vn -0.837001 -0.000200 0.547201
vn -0.929788 -0.000200 0.368095
vn -0.707107 -0.000200 0.707107
vn -0.547201 -0.000400 0.837001
vn -0.368095 -0.000400 0.929788
vn -0.182000 -0.000400 0.983298
vn -0.363411 -0.000400 0.931629
vn -0.547201 -0.000200 0.837001
vn -0.368182 -0.000400 0.929754
vn -0.182000 -0.000300 0.983299
vn -0.000100 -0.000400 1.000000
vn -0.000100 -0.000400 1.000000
vn -0.000100 -0.000400 1.000000
vn -0.707107 -0.000300 0.707107
vn 0.000000 0.000400 -1.000000
vn 0.182000 0.000400 -0.983298
vn 0.368182 0.000400 -0.929754
vn 0.547201 0.000300 -0.837001
vn 0.707107 0.000300 -0.707107
vn 0.707107 -0.000200 0.707107
vn 0.588790 0.000300 -0.808286
vn 0.768024 0.000200 -0.640420
vn 0.661896 0.000200 -0.749596
vn 0.588837 0.000300 -0.808251
vn 0.661896 0.000500 -0.749595
vn 0.739718 0.000200 -0.672917
vn 0.810014 0.000300 -0.586410
vn 0.870883 0.000500 -0.491490
vn 0.920951 0.000100 -0.389679
vn 0.980784 0.000100 -0.195097
vn 0.959181 0.000300 -0.282794
vn 0.984938 0.000100 -0.172907
vn 0.998058 0.000200 -0.062297
vn 0.998900 0.000000 0.046900
vn 0.998900 -0.000100 0.046900
vn 0.998058 0.000000 -0.062297
vn 0.984938 0.000000 -0.172907
vn 0.959181 0.000000 -0.282794
vn 0.920951 0.000200 -0.389679
vn 0.870883 0.000100 -0.491490
vn 0.809967 0.000200 -0.586476
vn 0.739718 0.000300 -0.672917
vn 0.998900 0.000000 0.046900
vn 0.988258 0.000100 -0.152794
vn 0.998900 0.000000 0.046900
vn 0.988258 0.000100 -0.152794
vn 0.936756 0.000100 -0.349983
vn 0.936756 0.000100 -0.349983
vn 0.846229 0.000200 -0.532819
vn 0.846303 0.000200 -0.532702
vn 0.723415 0.000300 -0.690414
vn 0.518681 0.000300 -0.854968
vn 0.723415 0.000200 -0.690414
vn 0.566368 0.000400 -0.824153
vn 0.381112 0.000300 -0.924529
vn 0.518607 0.000200 -0.855012
vn 0.451289 0.000200 -0.892378
vn 0.381112 0.000400 -0.924529
vn 0.451289 0.000400 -0.892378
vn 0.451289 0.000500 -0.892378
vn 0.518607 0.000400 -0.855012
vn 0.566300 0.000300 -0.824199
vn 0.381112 0.000400 -0.924529
vn 1.000000 0.000000 0.000000
vn 1.000000 0.000000 0.000000
vn 1.000000 0.000000 0.000000
vn 1.000000 0.000000 0.000000
vn 0.403000 -0.000300 0.915200
vn 0.297387 -0.000400 0.954757
vn 0.357887 -0.000300 0.933765
vn 0.403000 -0.000400 0.915200
vn 0.357887 -0.000500 0.933765
vn 0.311484 -0.000400 0.950251
vn 0.264006 -0.000400 0.964521
vn 0.215501 -0.000500 0.976504
vn 0.166296 -0.000500 0.986076
vn 0.116499 -0.000400 0.993191
vn 0.073798 -0.000400 0.997273
vn 0.166296 -0.000300 0.986076
vn 0.116499 -0.000400 0.993191
vn -0.040699 -0.000200 0.999171
vn 0.066200 -0.000400 0.997806
vn 0.066200 -0.000400 0.997806
vn 0.015700 -0.000400 0.999877
vn -0.034800 -0.000400 0.999394
vn -0.085296 -0.000400 0.996356
vn -0.154206 -0.000400 0.988039
vn -0.135301 -0.000400 0.990805
vn -0.184796 -0.000400 0.982777
vn -0.233607 -0.000400 0.972331
vn -0.264708 -0.000400 0.964329
vn -0.281517 -0.000300 0.959556
vn -0.328412 -0.000400 0.944534
vn -0.374096 -0.000200 0.927390
vn -0.374096 -0.000400 0.927390
vn -0.418912 -0.000400 0.908027
vn -0.463102 -0.000300 0.886305
vn -0.472196 -0.000400 0.881493
vn -0.506399 -0.000400 0.862299
vn -0.506399 -0.000300 0.862299
vn -0.569200 -0.000400 0.822199
vn -0.463102 -0.000400 0.886305
vn -0.418912 -0.000400 0.908027
vn -0.374096 -0.000300 0.927390
vn -0.328412 -0.000400 0.944534
vn -0.281490 -0.000400 0.959564
vn -0.233607 -0.000400 0.972331
vn -0.184796 -0.000400 0.982777
vn -0.135301 -0.000400 0.990805
vn -0.085197 -0.000400 0.996364
vn -0.034800 -0.000400 0.999394
vn 0.015700 -0.000400 0.999877
vn -0.548825 -0.000300 0.835937
vn -0.659234 -0.000300 0.751938
vn -0.590002 -0.000200 0.807402
vn -0.629937 -0.000300 0.776646
vn -0.590001 -0.000300 0.807402
vn -0.548825 -0.000300 0.835937
vn -0.629888 -0.000400 0.776686
vn -0.668296 -0.000300 0.743895
vn -0.705104 -0.000300 0.709104
vn -0.740003 -0.000300 0.672603
vn -0.740813 -0.000200 0.671712
vn -0.812563 -0.000200 0.582873
vn -0.705054 -0.000300 0.709154
vn -0.740003 -0.000300 0.672603
vn -0.773003 -0.000200 0.634402
vn -0.773003 -0.000300 0.634402
vn -0.803931 -0.000200 0.594723
vn -0.832788 -0.000200 0.553592
vn -0.859332 -0.000200 0.511419
vn -0.883618 -0.000200 0.468209
vn -0.873184 -0.000200 0.487391
vn -0.832788 -0.000200 0.553592
vn -0.859332 -0.000300 0.511419
vn -0.883618 -0.000100 0.468209
vn -0.905613 -0.000200 0.424106
vn -0.921910 -0.000100 0.387404
vn -0.925228 -0.000200 0.379411
vn -0.905613 -0.000200 0.424106
vn -0.925228 -0.000100 0.379412
vn -0.993470 -0.000100 0.114097
vn -0.985854 -0.000200 0.167609
vn -0.985854 -0.000100 0.167609
vn -0.998317 0.000100 -0.058001
vn -0.977574 0.000100 -0.210594
vn -0.959796 0.000100 -0.280699
vn -0.959796 0.000100 -0.280699
vn -0.875052 0.000200 -0.484029
vn -0.998317 0.000000 -0.058001
vn -0.673911 0.000300 -0.738812
vn -0.875075 0.000200 -0.483986
vn -0.875075 0.000200 -0.483986
vn -0.747812 0.000200 -0.663911
vn -0.579667 0.000300 -0.814853
vn -0.381901 0.000400 -0.924203
vn -0.170299 0.000400 -0.985392
vn -0.412401 0.000300 -0.911002
vn -0.579667 0.000400 -0.814853
vn -0.381901 0.000400 -0.924203
vn -0.131502 0.000400 -0.991316
vn -0.005700 0.000300 -0.999984
vn -0.170299 0.000400 -0.985392
vn 0.191903 0.000400 -0.981414
vn -0.005700 0.000500 -0.999984
vn 0.162907 0.000400 -0.986641
vn 0.328412 0.000400 -0.944534
vn 0.483400 0.000400 -0.875400
vn 0.483400 0.000300 -0.875400
vn 0.328381 0.000300 -0.944545
vn 0.162793 0.000300 -0.986660
vn -0.747856 0.000300 -0.663861
vn -0.803966 -0.000300 0.594675
vn -0.668296 -0.000300 0.743895
vn 0.215501 -0.000200 0.976504
vn 0.264006 -0.000300 0.964521
vn 0.311484 -0.000400 0.950251
vn -1.000000 0.000000 0.000000
vn -1.000000 0.000000 0.000000
vn -1.000000 0.000000 0.000000
vn -1.000000 0.000000 0.000000
vn 0.000000 0.000400 -1.000000
vn 0.000000 0.000400 -1.000000
vn 0.000000 0.000400 -1.000000
vn 0.000000 0.000400 -1.000000
vn 0.000000 -1.000000 -0.000400
vn 0.000000 -1.000000 -0.000400
vn 0.000000 -1.000000 -0.000400
vn 0.000000 -1.000000 -0.000400
vn 0.000000 -1.000000 -0.000400
vn 0.000000 -1.000000 -0.000400
vn 0.000000 -1.000000 -0.000400
vn 0.000000 -1.000000 -0.000400
vn 0.000000 -1.000000 -0.000400
vn 0.000000 -1.000000 -0.000400
vn 0.000000 -1.000000 -0.000400
vn 0.000000 -1.000000 -0.000400
vn 0.000000 -1.000000 -0.000400
vn 0.000000 -1.000000 -0.000400
vn 0.000000 -1.000000 -0.000400
vn 0.000000 -1.000000 -0.000400
vn 0.000000 -1.000000 -0.000400
vn 0.000000 -1.000000 -0.000400
vn 0.000000 -1.000000 -0.000400
vn 0.000000 -1.000000 -0.000400
vn 0.000000 -1.000000 -0.000400
vn 0.000000 -1.000000 -0.000400
vn 0.000000 -1.000000 -0.000400
vn 0.000000 -1.000000 -0.000400
vn 0.000000 -1.000000 -0.000400
vn 0.000000 -1.000000 -0.000400
vn 0.000000 -1.000000 -0.000400
vn 0.000000 -1.000000 -0.000400
vn 0.000000 -1.000000 -0.000400
vn 0.000000 -1.000000 -0.000400
vn 0.000000 -1.000000 -0.000400
vn 0.000000 -1.000000 -0.000400
vn 0.000000 -1.000000 -0.000400
vn 0.000000 -1.000000 -0.000400
vn 0.000000 -1.000000 -0.000400
vn 0.000000 -1.000000 -0.000400
vn 0.000000 -1.000000 -0.000400
vn 0.000000 -1.000000 -0.000400
vn 0.000000 -1.000000 -0.000400
vn 0.000000 -1.000000 -0.000400
vn 0.000000 -1.000000 -0.000400
vn 0.000000 -1.000000 -0.000400
vn 0.000000 -1.000000 -0.000400
vn 0.000000 -1.000000 -0.000400
vn 0.000000 -1.000000 -0.000400
vn 0.000000 -1.000000 -0.000400
vn 0.000000 -1.000000 -0.000400
vn 0.000000 -1.000000 -0.000400
vn 0.000000 -1.000000 -0.000400
vn 0.000000 -1.000000 -0.000400
vn 0.000000 -1.000000 -0.000400
vn 0.000000 -1.000000 -0.000400
vn 0.000000 -1.000000 -0.000400
vn 0.000000 -1.000000 -0.000400
vn 0.000000 -1.000000 -0.000400
f 2//2 5//5 1//1
f 1//1 3//3 2//2
f 3//3 1//1 4//4
f 4//4 1//1 8//8
f 6//6 1//1 5//5
f 1//1 6//6 7//7
f 8//8 9//9 11//11
f 8//8 10//10 4//4
f 10//10 8//8 11//11
f 11//11 9//9 13//13
f 13//13 12//12 11//11
f 14//14 12//12 13//13
f 14//14 15//15 16//16
f 16//16 12//12 14//14
f 16//16 15//15 17//17
f 19//19 17//17 18//18
f 15//15 18//18 17//17
f 19//19 18//18 20//20
f 19//19 20//20 21//21
f 21//21 20//20 22//22
f 22//22 23//23 24//24
f 20//20 23//23 22//22
f 23//23 25//25 24//24
f 26//26 25//25 27//27
f 23//23 27//27 25//25
f 28//28 30//30 27//27
f 31//31 27//27 29//29
f 29//29 27//27 30//30
f 31//31 32//32 27//27
f 32//32 33//33 27//27
f 33//33 26//26 27//27
f 35//35 33//33 34//34
f 33//33 35//35 26//26
f 35//35 34//34 36//36
f 37//37 2//2 36//36
f 36//36 38//38 37//37
f 34//34 38//38 36//36
f 36//36 2//2 39//39
f 3//3 39//39 2//2
f 38//38 40//40 37//37
f 37//37 40//40 41//41
f 37//37 41//41 42//42
f 37//37 42//42 43//43
f 44//44 43//43 42//42
f 44//44 45//45 43//43
f 46//46 43//43 45//45
f 48//48 43//43 46//46
f 47//47 48//48 46//46
f 43//43 48//48 49//49
f 50//50 49//49 48//48
f 51//51 50//50 48//48
f 51//51 48//48 52//52
f 28//28 48//48 47//47
f 53//53 51//51 52//52
f 47//47 54//54 28//28
f 54//54 55//55 28//28
f 30//30 28//28 55//55
f 57//57 56//56 58//58
f 57//57 58//58 59//59
f 60//60 62//62 59//59
f 60//60 59//59 61//61
f 59//59 62//62 57//57
f 57//57 62//62 64//64
f 62//62 60//60 63//63
f 64//64 65//65 57//57
f 63//63 60//60 66//66
f 67//67 66//66 60//60
f 60//60 70//70 68//68
f 60//60 68//68 67//67
f 69//69 68//68 70//70
f 60//60 71//71 70//70
f 70//70 71//71 72//72
f 73//73 70//70 72//72
f 74//74 70//70 73//73
f 74//74 73//73 78//78
f 70//70 74//74 76//76
f 70//70 76//76 69//69
f 79//79 74//74 75//75
f 75//75 74//74 78//78
f 76//76 74//74 77//77
f 74//74 79//79 77//77
f 81//81 79//79 75//75
f 80//80 79//79 82//82
f 79//79 80//80 85//85
f 79//79 85//85 83//83
f 82//82 79//79 81//81
f 79//79 83//83 84//84
f 79//79 84//84 77//77
f 86//86 85//85 80//80
f 80//80 88//88 87//87
f 80//80 87//87 86//86
f 88//88 89//89 87//87
f 88//88 91//91 90//90
f 88//88 90//90 89//89
f 90//90 91//91 92//92
f 91//91 95//95 93//93
f 91//91 93//93 92//92
f 94//94 93//93 95//95
f 96//96 95//95 91//91
f 95//95 96//96 97//97
f 95//95 97//97 98//98
f 99//99 95//95 98//98
f 95//95 99//99 102//102
f 95//95 102//102 94//94
f 99//99 98//98 101//101
f 102//102 99//99 100//100
f 99//99 104//104 106//106
f 99//99 106//106 100//100
f 99//99 101//101 103//103
f 104//104 99//99 103//103
f 104//104 103//103 107//107
f 106//106 104//104 105//105
f 104//104 109//109 114//114
f 104//104 114//114 105//105
f 104//104 107//107 108//108
f 109//109 104//104 108//108
f 109//109 108//108 112//112
f 113//113 109//109 110//110
f 109//109 112//112 110//110
f 113//113 111//111 109//109
f 111//111 114//114 109//109
f 116//116 113//113 110//110
f 115//115 113//113 117//117
f 113//113 115//115 120//120
f 113//113 120//120 118//118
f 117//117 113//113 116//116
f 113//113 118//118 119//119
f 111//111 113//113 119//119
f 115//115 121//121 120//120
f 115//115 124//124 122//122
f 115//115 122//122 121//121
f 124//124 123//123 122//122
f 124//124 128//128 130//130
f 124//124 130//130 123//123
f 125//125 124//124 115//115
f 126//126 124//124 125//125
f 127//127 124//124 126//126
f 127//127 128//128 124//124
f 129//129 128//128 127//127
f 131//131 125//125 115//115
f 115//115 117//117 131//131
f 91//91 132//132 96//96
f 132//132 91//91 133//133
f 133//133 88//88 134//134
f 133//133 91//91 88//88
f 134//134 88//88 135//135
f 135//135 80//80 136//136
f 135//135 88//88 80//80
f 136//136 80//80 82//82
f 60//60 137//137 71//71
f 60//60 61//61 137//137
f 139//139 141//141 138//138
f 139//139 138//138 140//140
f 139//139 142//142 141//141
f 139//139 143//143 142//142
f 139//139 144//144 143//143
f 139//139 145//145 144//144
f 146//146 145//145 139//139
f 146//146 139//139 147//147
f 147//147 148//148 146//146
f 147//147 149//149 148//148
f 147//147 150//150 149//149
f 147//147 151//151 150//150
f 152//152 151//151 147//147
f 147//147 153//153 152//152
f 147//147 154//154 153//153
f 154//154 147//147 155//155
f 155//155 147//147 156//156
f 147//147 139//139 156//156
f 139//139 157//157 156//156
f 158//158 157//157 139//139
f 159//159 158//158 139//139
f 139//139 140//140 159//159
f 160//160 162//162 163//163
f 160//160 163//163 161//161
f 161//161 163//163 164//164
f 161//161 164//164 165//165
f 165//165 164//164 166//166
f 165//165 166//166 167//167
f 167//167 166//166 168//168
f 167//167 168//168 170//170
f 169//169 168//168 171//171
f 168//168 169//169 170//170
f 173//173 169//169 171//171
f 171//171 172//172 174//174
f 174//174 173//173 171//171
f 172//172 175//175 174//174
f 176//176 174//174 175//175
f 174//174 176//176 169//169
f 174//174 169//169 173//173
f 175//175 177//177 176//176
f 176//176 177//177 178//178
f 176//176 178//178 169//169
f 175//175 180//180 177//177
f 177//177 179//179 178//178
f 179//179 177//177 180//180
f 179//179 170//170 169//169
f 169//169 178//178 179//179
f 182//182 181//181 183//183
f 182//182 183//183 184//184
f 188//188 186//186 185//185
f 186//186 187//187 185//185
f 189//189 186//186 188//188
f 190//190 186//186 189//189
f 190//190 191//191 186//186
f 192//192 186//186 191//191
f 186//186 192//192 193//193
f 186//186 193//193 195//195
f 194//194 195//195 193//193
f 186//186 195//195 196//196
f 197//197 196//196 195//195
f 200//200 197//197 195//195
f 195//195 199//199 229//229
f 195//195 229//229 198//198
f 198//198 201//201 200//200
f 198//198 200//200 195//195
f 194//194 199//199 195//195
f 201//201 198//198 202//202
f 203//203 202//202 198//198
f 198//198 204//204 203//203
f 204//204 205//205 203//203
f 204//204 206//206 205//205
f 208//208 207//207 206//206
f 208//208 206//206 204//204
f 209//209 207//207 208//208
f 210//210 209//209 208//208
f 211//211 210//210 208//208
f 211//211 212//212 210//210
f 212//212 211//211 213//213
f 213//213 211//211 215//215
f 213//213 215//215 214//214
f 217//217 214//214 215//215
f 211//211 220//220 219//219
f 211//211 219//219 215//215
f 216//216 215//215 219//219
f 215//215 216//216 235//235
f 215//215 235//235 218//218
f 218//218 217//217 215//215
f 211//211 221//221 220//220
f 221//221 211//211 222//222
f 223//223 222//222 208//208
f 211//211 208//208 222//222
f 224//224 223//223 208//208
f 224//224 204//204 225//225
f 224//224 208//208 204//204
f 226//226 225//225 204//204
f 198//198 227//227 226//226
f 198//198 226//226 204//204
f 228//228 227//227 198//198
f 228//228 198//198 229//229
f 230//230 217//217 218//218
f 232//232 230//230 218//218
f 218//218 234//234 236//236
f 218//218 236//236 231//231
f 233//233 218//218 231//231
f 233//233 232//232 218//218
f 234//234 218//218 235//235
f 236//236 237//237 231//231
f 231//231 237//237 238//238
f 231//231 238//238 240//240
f 239//239 240//240 238//238
f 240//240 239//239 245//245
f 240//240 242//242 291//291
f 240//240 291//291 231//231
f 240//240 245//245 246//246
f 240//240 246//246 241//241
f 240//240 241//241 244//244
f 240//240 243//243 242//242
f 240//240 244//244 243//243
f 247//247 241//241 246//246
f 241//241 247//247 248//248
f 241//241 248//248 250//250
f 249//249 250//250 248//248
f 241//241 250//250 251//251
f 250//250 252//252 251//251
f 252//252 250//250 253//253
f 250//250 254//254 253//253
f 254//254 250//250 255//255
f 250//250 249//249 257//257
f 250//250 257//257 255//255
f 257//257 256//256 255//255
f 255//255 256//256 260//260
f 255//255 260//260 259//259
f 255//255 258//258 254//254
f 259//259 261//261 258//258
f 259//259 258//258 255//255
f 259//259 260//260 267//267
f 259//259 267//267 263//263
f 259//259 262//262 261//261
f 263//263 262//262 259//259
f 265//265 262//262 263//263
f 263//263 264//264 270//270
f 263//263 270//270 266//266
f 263//263 267//267 264//264
f 265//265 263//263 266//266
f 265//265 266//266 269//269
f 271//271 268//268 266//266
f 271//271 266//266 270//270
f 269//269 266//266 268//268
f 269//269 268//268 289//289
f 272//272 268//268 271//271
f 268//268 272//272 273//273
f 268//268 273//273 275//275
f 275//275 273//273 274//274
f 275//275 274//274 278//278
f 276//276 268//268 275//275
f 276//276 275//275 277//277
f 277//277 275//275 278//278
f 277//277 278//278 280//280
f 279//279 278//278 274//274
f 278//278 279//279 288//288
f 278//278 288//288 281//281
f 282//282 280//280 278//278
f 282//282 278//278 281//281
f 283//283 282//282 281//281
f 284//284 283//283 281//281
f 285//285 284//284 281//281
f 286//286 285//285 281//281
f 281//281 287//287 286//286
f 287//287 281//281 288//288
f 268//268 276//276 289//289
f 241//241 251//251 290//290
f 241//241 290//290 244//244
f 231//231 291//291 233//233
f 186//186 196//196 292//292
f 186//186 292//292 293//293
f 186//186 293//293 294//294
f 186//186 294//294 187//187
f 296//296 295//295 297//297
f 296//296 297//297 298//298
f 299//299 301//301 302//302
f 299//299 302//302 300//300
f 306//306 303//303 304//304
f 304//304 303//303 305//305
f 305//305 303//303 308//308
f 307//307 303//303 306//306
f 309//309 308//308 303//303
f 310//310 309//309 303//303
f 307//307 311//311 312//312
f 311//311 307//307 306//306
f 313//313 307//307 312//312
f 313//313 312//312 314//314
f 314//314 316//316 315//315
f 316//316 314//314 312//312
f 317//317 315//315 316//316
f 317//317 318//318 319//319
f 317//317 319//319 315//315
f 319//319 318//318 320//320
f 321//321 320//320 322//322
f 320//320 318//318 322//322
f 322//322 323//323 321//321
f 323//323 324//324 321//321
f 325//325 324//324 326//326
f 321//321 324//324 325//325
f 326//326 327//327 325//325
f 328//328 329//329 327//327
f 325//325 327//327 329//329
f 332//332 330//330 329//329
f 330//330 331//331 329//329
f 335//335 329//329 331//331
f 332//332 329//329 333//333
f 333//333 329//329 334//334
f 334//334 329//329 328//328
f 335//335 339//339 336//336
f 331//331 338//338 335//335
f 339//339 335//335 337//337
f 337//337 335//335 338//338
f 339//339 340//340 336//336
f 336//336 340//340 341//341
f 341//341 340//340 342//342
f 342//342 343//343 341//341
f 344//344 341//341 343//343
f 341//341 344//344 346//346
f 345//345 346//346 344//344
f 349//349 305//305 346//346
f 349//349 346//346 347//347
f 347//347 346//346 348//348
f 346//346 345//345 348//348
f 350//350 349//349 347//347
f 351//351 349//349 350//350
f 305//305 349//349 352//352
f 352//352 304//304 305//305
f 334//334 328//328 351//351
f 351//351 350//350 334//334
f 341//341 353//353 336//336
f 354//354 336//336 353//353
f 354//354 355//355 336//336
f 356//356 355//355 357//357
f 356//356 336//336 355//355
