# arm_24 exported from /models/landings/arm_24.glb
# units: meters
v -0.026330 0.001000 -0.014501
v -0.022575 0.001000 -0.026513
v -0.026330 0.001000 -0.035199
v -0.020882 0.001000 -0.018887
v -0.020977 0.001000 -0.018485
v -0.020921 0.001000 -0.018058
v -0.026272 0.001000 -0.014168
v -0.026107 0.001000 -0.013872
v -0.020717 0.001000 -0.017667
v -0.013021 0.001000 -0.007250
v -0.010556 0.001000 -0.004233
v 0.004494 0.001000 0.014699
v 0.004590 0.001000 0.024105
v 0.006145 0.001000 0.024848
v 0.005283 0.001000 0.024652
v 0.004517 0.001000 0.014729
v 0.004932 0.001000 0.015080
v 0.012220 0.001000 0.019038
v 0.012287 0.001000 0.019074
v 0.012591 0.001000 0.019188
v 0.012875 0.001000 0.019272
v 0.013165 0.001000 0.019338
v 0.013739 0.001000 0.019417
v 0.031596 0.001000 0.024848
v 0.027921 0.001000 0.019417
v 0.028106 0.001000 0.019232
v 0.034101 0.001000 0.020199
v 0.028281 0.001000 0.019003
v 0.028420 0.001000 0.018755
v 0.032030 0.001000 0.017053
v 0.028512 0.001000 0.018516
v 0.028568 0.001000 0.018206
v 0.028564 0.001000 0.017985
v 0.031989 0.001000 0.016987
v 0.028536 0.001000 0.017820
v 0.028504 0.001000 0.017701
v 0.024587 0.001000 0.011578
v 0.013032 0.001000 -0.011620
v 0.013166 0.001000 -0.006272
v 0.010869 0.001000 -0.009863
v 0.010606 0.001000 -0.010274
v 0.012593 0.001000 -0.012283
v 0.010538 0.001000 -0.010342
v 0.010390 0.001000 -0.010459
v 0.011915 0.001000 -0.012728
v 0.011179 0.001000 -0.012869
v -0.011415 0.001000 -0.012869
v -0.002726 0.001000 -0.010265
v 0.010232 0.001000 -0.010548
v 0.010075 0.001000 -0.010608
v -0.012724 0.001000 -0.009851
v -0.013036 0.001000 -0.013697
v -0.012325 0.001000 -0.013088
v -0.019429 0.001000 -0.019131
v -0.018418 0.001000 -0.021146
v -0.019673 0.001000 -0.019360
v -0.019997 0.001000 -0.019459
v -0.018700 0.001000 -0.021704
v -0.020345 0.001000 -0.019408
v -0.020658 0.001000 -0.019209
v -0.018797 0.001000 -0.022321
v -0.018790 0.001000 -0.026513
v 0.034236 0.001000 0.023271
v 0.034584 0.001000 0.021591
v 0.033705 0.001000 0.023980
v 0.033024 0.001000 0.024486
v 0.034537 0.001000 0.022438
v -0.022575 0.001000 -0.028513
v -0.022782 0.001000 -0.035199
v -0.021308 0.001000 -0.034918
v -0.019951 0.001000 -0.034026
v -0.019061 0.001000 -0.032667
v -0.018782 0.001000 -0.031193
v -0.018787 0.001000 -0.028513
v 0.010606 0.001000 -0.010274
v 0.010493 0.001000 -0.010381
v 0.010606 0.000333 -0.010274
v 0.010493 0.000333 -0.010381
v 0.010606 -0.000333 -0.010274
v 0.010493 -0.000333 -0.010381
v 0.010606 -0.001000 -0.010274
v 0.010493 -0.001000 -0.010381
v 0.010363 -0.001000 -0.010476
v 0.010363 -0.000333 -0.010476
v 0.010222 -0.001000 -0.010552
v 0.010075 -0.001000 -0.010608
v 0.010222 -0.000333 -0.010552
v 0.010222 0.000333 -0.010552
v 0.010075 -0.000500 -0.010608
v 0.010075 0.000000 -0.010608
v 0.010075 0.000500 -0.010608
v 0.010075 0.001000 -0.010608
v 0.010222 0.001000 -0.010552
v 0.010363 0.001000 -0.010476
v 0.010363 0.000333 -0.010476
v 0.010075 0.001000 -0.010608
v 0.010075 0.000500 -0.010608
v 0.008475 0.001000 -0.010565
v 0.006875 0.001000 -0.010522
v 0.008475 0.000500 -0.010565
v 0.008475 0.000000 -0.010565
v 0.006875 0.000500 -0.010522
v 0.006875 0.000000 -0.010522
v 0.003675 0.001000 -0.010436
v 0.003675 0.000000 -0.010436
v 0.003675 -0.001000 -0.010436
v -0.002726 -0.001000 -0.010265
v 0.006875 -0.000500 -0.010522
v -0.002726 0.001000 -0.010265
v 0.006875 -0.001000 -0.010522
v 0.008475 -0.000500 -0.010565
v 0.010075 -0.000500 -0.010608
v 0.008475 -0.001000 -0.010565
v 0.010075 -0.001000 -0.010608
v 0.010075 0.000000 -0.010608
v 0.012287 0.001000 0.019074
v 0.012638 0.001000 0.019203
v 0.012287 -0.001000 0.019074
v 0.012638 -0.001000 0.019203
v 0.012999 -0.001000 0.019303
v 0.013367 -0.001000 0.019373
v 0.012999 0.001000 0.019303
v 0.013367 0.001000 0.019373
v 0.013739 -0.000000 0.019417
v 0.013739 0.001000 0.019417
v 0.013739 -0.001000 0.019417
v 0.013739 0.001000 0.019417
v 0.013739 -0.000000 0.019417
v 0.017285 0.001000 0.019417
v 0.017285 -0.000000 0.019417
v 0.020830 0.001000 0.019417
v 0.020830 -0.000000 0.019417
v 0.024376 0.000500 0.019417
v 0.024376 0.001000 0.019417
v 0.026149 0.001000 0.019417
v 0.026149 0.000500 0.019417
v 0.027921 0.001000 0.019417
v 0.027921 0.000333 0.019417
v 0.026149 -0.000000 0.019417
v 0.027921 -0.000333 0.019417
v 0.027921 -0.001000 0.019417
v 0.026149 -0.000500 0.019417
v 0.026149 -0.001000 0.019417
v 0.024376 -0.000500 0.019417
v 0.020830 -0.001000 0.019417
v 0.024376 -0.001000 0.019417
v 0.024376 -0.000000 0.019417
v 0.017285 -0.001000 0.019417
v 0.013739 -0.001000 0.019417
v 0.012287 0.001000 0.019074
v 0.012287 -0.001000 0.019074
v 0.004932 0.001000 0.015080
v 0.004932 -0.001000 0.015080
v 0.004517 0.001000 0.014729
v 0.004932 0.001000 0.015080
v 0.004517 -0.001000 0.014729
v 0.004932 -0.001000 0.015080
v 0.027921 0.001000 0.019417
v 0.027921 0.000333 0.019417
v 0.028091 0.001000 0.019249
v 0.028091 -0.000000 0.019249
v 0.028240 0.001000 0.019062
v 0.028240 -0.000000 0.019062
v 0.028368 0.001000 0.018859
v 0.028368 -0.000000 0.018859
v 0.028469 0.001000 0.018641
v 0.028469 -0.000000 0.018641
v 0.028539 0.001000 0.018411
v 0.028539 -0.000000 0.018411
v 0.028570 0.001000 0.018174
v 0.028570 -0.000000 0.018174
v 0.028557 0.001000 0.017933
v 0.028557 -0.000000 0.017933
v 0.028504 0.001000 0.017701
v 0.028504 -0.000000 0.017701
v 0.028504 -0.001000 0.017701
v 0.028557 -0.001000 0.017933
v 0.028570 -0.001000 0.018174
v 0.028539 -0.001000 0.018411
v 0.028469 -0.001000 0.018641
v 0.028368 -0.001000 0.018859
v 0.028240 -0.001000 0.019062
v 0.028091 -0.001000 0.019249
v 0.027921 -0.001000 0.019417
v 0.027921 -0.000333 0.019417
v 0.028504 0.001000 0.017701
v 0.028504 -0.000000 0.017701
v 0.010606 0.001000 -0.010274
v 0.010606 0.000333 -0.010274
v 0.010606 -0.000333 -0.010274
v 0.010606 -0.001000 -0.010274
v 0.028504 -0.001000 0.017701
v 0.004517 0.001000 0.014729
v 0.004517 -0.001000 0.014729
v -0.010556 0.001000 -0.004233
v -0.010556 -0.001000 -0.004233
v -0.002726 0.001000 -0.010265
v -0.002726 -0.001000 -0.010265
v -0.012724 0.001000 -0.009851
v -0.012724 -0.001000 -0.009851
v -0.012724 0.001000 -0.009851
v -0.012724 -0.001000 -0.009851
v -0.019429 0.001000 -0.019131
v -0.019429 -0.001000 -0.019131
v -0.019429 0.001000 -0.019131
v -0.019716 0.001000 -0.019383
v -0.019429 -0.001000 -0.019131
v -0.019716 -0.001000 -0.019383
v -0.020091 -0.001000 -0.019461
v -0.020091 0.001000 -0.019461
v -0.020457 -0.001000 -0.019357
v -0.020457 0.001000 -0.019357
v -0.020751 -0.001000 -0.019107
v -0.020751 0.001000 -0.019107
v -0.020927 -0.001000 -0.018766
v -0.020927 0.001000 -0.018766
v -0.020978 -0.001000 -0.018383
v -0.020978 0.001000 -0.018383
v -0.020902 -0.001000 -0.018004
v -0.020902 0.001000 -0.018004
v -0.020717 -0.001000 -0.017667
v -0.020717 0.001000 -0.017667
v -0.020717 0.001000 -0.017667
v -0.020717 -0.001000 -0.017667
v -0.013021 0.001000 -0.007250
v -0.013021 -0.001000 -0.007250
v -0.013021 0.001000 -0.007250
v -0.013021 -0.001000 -0.007250
v -0.010556 0.001000 -0.004233
v -0.010556 -0.001000 -0.004233
v 0.032030 0.001000 0.017053
v 0.032289 0.001000 0.017446
v 0.032030 0.000714 0.017053
v 0.032030 0.000429 0.017053
v 0.032289 0.000500 0.017446
v 0.032548 0.000500 0.017840
v 0.032289 -0.000000 0.017446
v 0.032548 -0.000000 0.017840
v 0.032030 -0.000143 0.017053
v 0.032030 0.000143 0.017053
v 0.032289 -0.000500 0.017446
v 0.032030 -0.000714 0.017053
v 0.032030 -0.000429 0.017053
v 0.032548 -0.000500 0.017840
v 0.032289 -0.001000 0.017446
v 0.032548 -0.001000 0.017840
v 0.032030 -0.001000 0.017053
v 0.033066 -0.001000 0.018626
v 0.033066 -0.000000 0.018626
v 0.034101 -0.001000 0.020199
v 0.034101 0.001000 0.020199
v 0.033066 0.001000 0.018626
v 0.032548 0.001000 0.017840
v 0.034101 -0.001000 0.020199
v 0.034584 -0.001000 0.021591
v 0.034101 0.001000 0.020199
v 0.034584 0.001000 0.021591
v 0.034537 0.001000 0.022438
v 0.034537 -0.001000 0.022438
v 0.034236 0.001000 0.023271
v 0.034236 -0.001000 0.023271
v 0.033705 0.001000 0.023980
v 0.033705 -0.001000 0.023980
v 0.033024 0.001000 0.024486
v 0.033024 -0.001000 0.024486
v 0.031596 0.001000 0.024848
v 0.031596 -0.001000 0.024848
v 0.031596 0.001000 0.024848
v 0.031596 -0.001000 0.024848
v 0.006145 0.001000 0.024848
v 0.006145 -0.001000 0.024848
v 0.006145 -0.001000 0.024848
v 0.005283 -0.001000 0.024652
v 0.006145 0.001000 0.024848
v 0.005283 0.001000 0.024652
v 0.004590 0.001000 0.024105
v 0.004590 -0.001000 0.024105
v 0.004590 0.001000 0.024105
v 0.004590 -0.001000 0.024105
v -0.026107 0.001000 -0.013872
v -0.026107 -0.001000 -0.013872
v -0.026107 -0.001000 -0.013872
v -0.026272 -0.001000 -0.014168
v -0.026107 0.001000 -0.013872
v -0.026272 0.001000 -0.014168
v -0.026330 0.001000 -0.014501
v -0.026330 -0.001000 -0.014501
v 0.013032 0.001000 -0.011620
v 0.031989 0.000600 0.016987
v 0.031989 0.001000 0.016987
v 0.031989 0.000200 0.016987
v 0.013032 -0.001000 -0.011620
v 0.031989 -0.000200 0.016987
v 0.031989 -0.001000 0.016987
v 0.031989 -0.000600 0.016987
v 0.011179 -0.001000 -0.012869
v -0.011415 -0.001000 -0.012869
v 0.011179 0.001000 -0.012869
v -0.011415 0.001000 -0.012869
v -0.013036 0.001000 -0.013697
v -0.012321 0.001000 -0.013086
v -0.013036 -0.001000 -0.013697
v -0.012321 -0.001000 -0.013086
v -0.011415 -0.001000 -0.012869
v -0.011415 0.001000 -0.012869
v 0.011179 -0.001000 -0.012869
v 0.011760 -0.001000 -0.012782
v 0.011179 0.001000 -0.012869
v 0.011760 0.001000 -0.012782
v 0.012292 0.001000 -0.012530
v 0.012292 -0.001000 -0.012530
v 0.012733 0.001000 -0.012127
v 0.012733 -0.001000 -0.012127
v 0.013032 0.001000 -0.011620
v 0.013032 -0.001000 -0.011620
v -0.022782 -0.001000 -0.035199
v -0.026330 -0.001000 -0.035199
v -0.022782 0.001000 -0.035199
v -0.026330 0.001000 -0.035199
v -0.018797 0.001000 -0.022321
v -0.018700 0.001000 -0.021703
v -0.018797 -0.001000 -0.022321
v -0.018700 -0.001000 -0.021703
v -0.018418 -0.001000 -0.021146
v -0.018418 0.001000 -0.021146
v -0.018787 -0.001000 -0.028513
v -0.018782 -0.001000 -0.031193
v -0.018787 0.001000 -0.028513
v -0.018782 0.001000 -0.031193
v -0.022782 -0.001000 -0.035199
v -0.021261 -0.001000 -0.034899
v -0.022782 0.001000 -0.035199
v -0.021261 0.001000 -0.034899
v -0.019922 0.001000 -0.033996
v -0.019922 -0.001000 -0.033996
v -0.019054 0.001000 -0.032649
v -0.019054 -0.001000 -0.032649
v -0.018782 0.001000 -0.031193
v -0.018782 -0.001000 -0.031193
v -0.022575 -0.001000 -0.026513
v -0.022575 0.001000 -0.026513
v -0.022575 -0.001000 -0.028513
v -0.022575 0.001000 -0.028513
v -0.022575 -0.001000 -0.028513
v -0.018787 -0.001000 -0.028513
v -0.022575 0.001000 -0.028513
v -0.018787 0.001000 -0.028513
v -0.018797 -0.001000 -0.022321
v -0.018794 -0.001000 -0.024417
v -0.018797 0.001000 -0.022321
v -0.018794 0.001000 -0.024417
v -0.018790 0.001000 -0.026513
v -0.018790 -0.001000 -0.026513
v -0.018790 -0.001000 -0.026513
v -0.022575 -0.001000 -0.026513
v -0.018790 0.001000 -0.026513
v -0.022575 0.001000 -0.026513
v -0.013036 -0.001000 -0.013697
v -0.015727 -0.001000 -0.017422
v -0.013036 0.001000 -0.013697
v -0.015727 0.001000 -0.017422
v -0.018418 0.001000 -0.021146
v -0.018418 -0.001000 -0.021146
v 0.031989 -0.001000 0.016987
v 0.032030 -0.001000 0.017053
v 0.031989 -0.000600 0.016987
v 0.032030 -0.000714 0.017053
v 0.032030 -0.000429 0.017053
v 0.031989 -0.000200 0.016987
v 0.032030 -0.000143 0.017053
v 0.031989 0.000200 0.016987
v 0.032030 0.000143 0.017053
v 0.031989 0.000600 0.016987
v 0.032030 0.000429 0.017053
v 0.032030 0.000714 0.017053
v 0.031989 0.001000 0.016987
v 0.032030 0.001000 0.017053
v -0.026330 -0.001000 -0.014501
v -0.026330 -0.001000 -0.035199
v -0.026330 0.001000 -0.014501
v -0.026330 0.001000 -0.035199
v -0.026330 -0.001000 -0.014501
v -0.022575 -0.001000 -0.026513
v -0.026330 -0.001000 -0.035199
v -0.020882 -0.001000 -0.018887
v -0.020921 -0.001000 -0.018058
v -0.020977 -0.001000 -0.018485
v -0.026272 -0.001000 -0.014168
v -0.026107 -0.001000 -0.013872
v -0.020717 -0.001000 -0.017667
v -0.013021 -0.001000 -0.007250
v -0.010556 -0.001000 -0.004233
v 0.004494 -0.001000 0.014699
v 0.004590 -0.001000 0.024105
v 0.006145 -0.001000 0.024848
v 0.005283 -0.001000 0.024652
v 0.004517 -0.001000 0.014729
v 0.012220 -0.001000 0.019038
v 0.004932 -0.001000 0.015080
v 0.012287 -0.001000 0.019074
v 0.012591 -0.001000 0.019188
v 0.012875 -0.001000 0.019272
v 0.013165 -0.001000 0.019338
v 0.013739 -0.001000 0.019417
v 0.027921 -0.001000 0.019417
v 0.031596 -0.001000 0.024848
v 0.034101 -0.001000 0.020199
v 0.033024 -0.001000 0.024486
v 0.028106 -0.001000 0.019232
v 0.028281 -0.001000 0.019003
v 0.028420 -0.001000 0.018755
v 0.032030 -0.001000 0.017053
v 0.028512 -0.001000 0.018516
v 0.028568 -0.001000 0.018206
v 0.028564 -0.001000 0.017985
v 0.028536 -0.001000 0.017820
v 0.031989 -0.001000 0.016987
v 0.013032 -0.001000 -0.011620
v 0.028504 -0.001000 0.017701
v 0.024587 -0.001000 0.011578
v 0.013166 -0.001000 -0.006272
v 0.010869 -0.001000 -0.009863
v 0.010606 -0.001000 -0.010274
v 0.012593 -0.001000 -0.012283
v 0.010538 -0.001000 -0.010342
v 0.011915 -0.001000 -0.012728
v 0.010390 -0.001000 -0.010459
v 0.010232 -0.001000 -0.010548
v 0.011179 -0.001000 -0.012869
v -0.011415 -0.001000 -0.012869
v -0.002726 -0.001000 -0.010265
v 0.010075 -0.001000 -0.010608
v -0.012724 -0.001000 -0.009851
v -0.013036 -0.001000 -0.013697
v -0.012325 -0.001000 -0.013088
v -0.019429 -0.001000 -0.019131
v -0.019673 -0.001000 -0.019360
v -0.018418 -0.001000 -0.021146
v -0.018700 -0.001000 -0.021704
v -0.019997 -0.001000 -0.019459
v -0.020345 -0.001000 -0.019408
v -0.020658 -0.001000 -0.019209
v -0.018797 -0.001000 -0.022321
v -0.018790 -0.001000 -0.026513
v 0.033705 -0.001000 0.023980
v 0.034236 -0.001000 0.023271
v 0.034584 -0.001000 0.021591
v 0.034537 -0.001000 0.022438
v -0.022575 -0.001000 -0.028513
v -0.022782 -0.001000 -0.035199
v -0.021308 -0.001000 -0.034918
v -0.019951 -0.001000 -0.034026
v -0.019061 -0.001000 -0.032667
v -0.018782 -0.001000 -0.031193
v -0.018787 -0.001000 -0.028513
vn 0.000000 1.000000 0.000000
vn 0.000000 1.000000 0.000000
vn 0.000000 1.000000 0.000000
vn 0.000000 1.000000 0.000000
vn 0.000000 1.000000 0.000000
vn 0.000000 1.000000 0.000000
vn 0.000000 1.000000 0.000000
vn 0.000000 1.000000 0.000000
vn 0.000000 1.000000 0.000000
vn 0.000000 1.000000 0.000000
vn 0.000000 1.000000 0.000000
vn 0.000000 1.000000 0.000000
vn 0.000000 1.000000 0.000000
vn 0.000000 1.000000 0.000000
vn 0.000000 1.000000 0.000000
vn 0.000000 1.000000 0.000000
vn 0.000000 1.000000 0.000000
vn 0.000000 1.000000 0.000000
vn 0.000000 1.000000 0.000000
vn 0.000000 1.000000 0.000000
vn 0.000000 1.000000 0.000000
vn 0.000000 1.000000 0.000000
vn 0.000000 1.000000 0.000000
vn 0.000000 1.000000 0.000000
vn 0.000000 1.000000 0.000000
vn 0.000000 1.000000 0.000000
vn 0.000000 1.000000 0.000000
vn 0.000000 1.000000 0.000000
vn 0.000000 1.000000 0.000000
vn 0.000000 1.000000 0.000000
vn 0.000000 1.000000 0.000000
vn 0.000000 1.000000 0.000000
vn 0.000000 1.000000 0.000000
vn 0.000000 1.000000 0.000000
vn 0.000000 1.000000 0.000000
vn 0.000000 1.000000 0.000000
vn 0.000000 1.000000 0.000000
vn 0.000000 1.000000 0.000000
vn 0.000000 1.000000 0.000000
vn 0.000000 1.000000 0.000000
vn 0.000000 1.000000 0.000000
vn 0.000000 1.000000 0.000000
vn 0.000000 1.000000 0.000000
vn 0.000000 1.000000 0.000000
vn 0.000000 1.000000 0.000000
vn 0.000000 1.000000 0.000000
vn 0.000000 1.000000 0.000000
vn 0.000000 1.000000 0.000000
vn 0.000000 1.000000 0.000000
vn 0.000000 1.000000 0.000000
vn 0.000000 1.000000 0.000000
vn 0.000000 1.000000 0.000000
vn 0.000000 1.000000 0.000000
vn 0.000000 1.000000 0.000000
vn 0.000000 1.000000 0.000000
vn 0.000000 1.000000 0.000000
vn 0.000000 1.000000 0.000000
vn 0.000000 1.000000 0.000000
vn 0.000000 1.000000 0.000000
vn 0.000000 1.000000 0.000000
vn 0.000000 1.000000 0.000000
vn 0.000000 1.000000 0.000000
vn 0.000000 1.000000 0.000000
vn 0.000000 1.000000 0.000000
vn 0.000000 1.000000 0.000000
vn 0.000000 1.000000 0.000000
vn 0.000000 1.000000 0.000000
vn 0.000000 1.000000 0.000000
vn 0.000000 1.000000 0.000000
vn 0.000000 1.000000 0.000000
vn 0.000000 1.000000 0.000000
vn 0.000000 1.000000 0.000000
vn 0.000000 1.000000 0.000000
vn 0.000000 1.000000 0.000000
vn -0.734359 -0.000000 0.678762
vn -0.640371 -0.000000 0.768066
vn -0.734263 -0.000000 0.678866
vn -0.640588 -0.000000 0.767885
vn -0.734312 -0.000000 0.678812
vn -0.640696 -0.000000 0.767795
vn -0.734504 -0.000000 0.678604
vn -0.640696 -0.000000 0.767795
vn -0.532397 -0.000000 0.846495
vn -0.532397 -0.000000 0.846495
vn -0.417491 -0.000000 0.908681
vn -0.291006 -0.000000 0.956721
vn -0.416882 -0.000000 0.908961
vn -0.416882 -0.000000 0.908961
vn -0.291098 -0.000000 0.956693
vn -0.291098 -0.000000 0.956693
vn -0.291794 -0.000000 0.956481
vn -0.292005 -0.000000 0.956417
vn -0.416882 -0.000000 0.908961
vn -0.532702 -0.000000 0.846303
vn -0.532702 -0.000000 0.846303
vn 0.026801 -0.000000 0.999641
vn 0.026801 -0.000000 0.999641
vn 0.026801 -0.000000 0.999641
vn 0.026801 -0.000000 0.999641
vn 0.026801 -0.000000 0.999641
vn 0.026801 -0.000000 0.999641
vn 0.026801 -0.000000 0.999641
vn 0.026801 -0.000000 0.999641
vn 0.026801 -0.000000 0.999641
vn 0.026801 -0.000000 0.999641
vn 0.026801 -0.000000 0.999641
vn 0.026801 -0.000000 0.999641
vn 0.026801 -0.000000 0.999641
vn 0.026801 -0.000000 0.999641
vn 0.026801 -0.000000 0.999641
vn 0.026801 -0.000000 0.999641
vn 0.026801 -0.000000 0.999641
vn 0.026801 -0.000000 0.999641
vn 0.026801 -0.000000 0.999641
vn 0.026801 -0.000000 0.999641
vn 0.390090 0.000000 -0.920777
vn 0.305498 0.000000 -0.952193
vn 0.390090 0.000000 -0.920777
vn 0.305498 0.000000 -0.952193
vn 0.225108 0.000000 -0.974334
vn 0.153297 0.000000 -0.988180
vn 0.225108 0.000000 -0.974334
vn 0.153297 0.000000 -0.988180
vn 0.081200 0.000000 -0.996698
vn 0.081498 0.000000 -0.996674
vn 0.081398 0.000000 -0.996682
vn 0.000000 0.000000 -1.000000
vn 0.000000 0.000000 -1.000000
vn 0.000000 0.000000 -1.000000
vn 0.000000 0.000000 -1.000000
vn 0.000000 0.000000 -1.000000
vn 0.000000 0.000000 -1.000000
vn 0.000000 0.000000 -1.000000
vn 0.000000 0.000000 -1.000000
vn 0.000000 0.000000 -1.000000
vn 0.000000 0.000000 -1.000000
vn 0.000000 0.000000 -1.000000
vn 0.000000 0.000000 -1.000000
vn 0.000000 0.000000 -1.000000
vn 0.000000 0.000000 -1.000000
vn 0.000000 0.000000 -1.000000
vn 0.000000 0.000000 -1.000000
vn 0.000000 0.000000 -1.000000
vn 0.000000 0.000000 -1.000000
vn 0.000000 0.000000 -1.000000
vn 0.000000 0.000000 -1.000000
vn 0.000000 0.000000 -1.000000
vn 0.000000 0.000000 -1.000000
vn 0.000000 0.000000 -1.000000
vn 0.477198 0.000000 -0.878796
vn 0.477198 0.000000 -0.878796
vn 0.477198 0.000000 -0.878796
vn 0.477198 0.000000 -0.878796
vn 0.786273 0.000000 -0.617879
vn 0.477275 0.000000 -0.878754
vn 0.786273 0.000000 -0.617879
vn 0.477275 0.000000 -0.878754
vn -0.661205 0.000000 -0.750205
vn -0.661205 0.000000 -0.750205
vn -0.744461 0.000000 -0.667665
vn -0.744511 0.000000 -0.667610
vn -0.815190 0.000000 -0.579193
vn -0.815190 0.000000 -0.579193
vn -0.877876 0.000000 -0.478887
vn -0.877876 0.000000 -0.478887
vn -0.932912 0.000000 -0.360105
vn -0.932912 0.000000 -0.360105
vn -0.976811 0.000000 -0.214102
vn -0.976811 0.000000 -0.214102
vn -0.999192 0.000000 -0.040200
vn -0.999196 0.000000 -0.040100
vn -0.989995 -0.000000 0.141099
vn -0.989995 -0.000000 0.141099
vn -0.954437 -0.000000 0.298412
vn -0.954437 -0.000000 0.298412
vn -0.954437 -0.000000 0.298412
vn -0.989995 -0.000000 0.141099
vn -0.999192 0.000000 -0.040200
vn -0.976811 0.000000 -0.214102
vn -0.932912 0.000000 -0.360105
vn -0.877876 0.000000 -0.478887
vn -0.815190 0.000000 -0.579193
vn -0.744417 0.000000 -0.667715
vn -0.661205 0.000000 -0.750205
vn -0.661205 0.000000 -0.750205
vn -0.842349 -0.000000 0.538932
vn -0.842349 -0.000000 0.538932
vn -0.842349 -0.000000 0.538932
vn -0.842349 -0.000000 0.538932
vn -0.842378 -0.000000 0.538886
vn -0.842349 -0.000000 0.538932
vn -0.842349 -0.000000 0.538932
vn 0.782836 0.000000 -0.622228
vn 0.782836 0.000000 -0.622228
vn 0.782836 0.000000 -0.622228
vn 0.782836 0.000000 -0.622228
vn 0.041402 -0.000000 0.999143
vn 0.041402 -0.000000 0.999143
vn 0.041402 -0.000000 0.999143
vn 0.041402 -0.000000 0.999143
vn -0.810518 -0.000000 0.585713
vn -0.810518 -0.000000 0.585713
vn -0.810518 -0.000000 0.585713
vn -0.810518 -0.000000 0.585713
vn -0.830029 -0.000000 0.557720
vn -0.442086 -0.000000 0.896972
vn -0.830029 -0.000000 0.557720
vn -0.442086 -0.000000 0.896972
vn 0.041302 -0.000000 0.999147
vn 0.041302 -0.000000 0.999147
vn 0.480106 -0.000000 0.877211
vn 0.480106 -0.000000 0.877211
vn 0.787199 -0.000000 0.616699
vn 0.787199 -0.000000 0.616699
vn 0.956204 -0.000000 0.292701
vn 0.956204 -0.000000 0.292701
vn 0.999387 0.000000 -0.035000
vn 0.999387 0.000000 -0.035000
vn 0.938384 0.000000 -0.345594
vn 0.938384 0.000000 -0.345594
vn 0.794919 0.000000 -0.606715
vn 0.794919 0.000000 -0.606715
vn 0.804311 0.000000 -0.594208
vn 0.804311 0.000000 -0.594208
vn 0.804311 0.000000 -0.594208
vn 0.804311 0.000000 -0.594208
vn 0.774447 0.000000 -0.632639
vn 0.774447 0.000000 -0.632639
vn 0.774447 0.000000 -0.632639
vn 0.774447 0.000000 -0.632639
vn 0.835297 0.000000 -0.549798
vn 0.835251 0.000000 -0.549868
vn 0.835297 0.000000 -0.549798
vn 0.835297 0.000000 -0.549798
vn 0.835251 0.000000 -0.549868
vn 0.835297 0.000000 -0.549798
vn 0.835251 0.000000 -0.549868
vn 0.835297 0.000000 -0.549798
vn 0.835297 0.000000 -0.549798
vn 0.835297 0.000000 -0.549798
vn 0.835251 0.000000 -0.549868
vn 0.835297 0.000000 -0.549798
vn 0.835297 0.000000 -0.549798
vn 0.835297 0.000000 -0.549798
vn 0.835251 0.000000 -0.549868
vn 0.835297 0.000000 -0.549798
vn 0.835297 0.000000 -0.549798
vn 0.835297 0.000000 -0.549798
vn 0.835297 0.000000 -0.549798
vn 0.835297 0.000000 -0.549798
vn 0.835297 0.000000 -0.549798
vn 0.835297 0.000000 -0.549798
vn 0.835297 0.000000 -0.549798
vn 0.835343 0.000000 -0.549729
vn 0.996312 0.000000 -0.085801
vn 0.835343 0.000000 -0.549729
vn 0.996312 0.000000 -0.085801
vn 0.980465 -0.000000 0.196693
vn 0.980465 -0.000000 0.196693
vn 0.880266 -0.000000 0.474481
vn 0.880266 -0.000000 0.474481
vn 0.703397 -0.000000 0.710797
vn 0.703397 -0.000000 0.710797
vn 0.476096 -0.000000 0.879393
vn 0.476096 -0.000000 0.879393
vn 0.000100 -0.000000 1.000000
vn 0.000100 -0.000000 1.000000
vn 0.000000 -0.000000 1.000000
vn 0.000000 -0.000000 1.000000
vn 0.000000 -0.000000 1.000000
vn 0.000000 -0.000000 1.000000
vn -0.000100 -0.000000 1.000000
vn -0.430900 -0.000000 0.902400
vn -0.000100 -0.000000 1.000000
vn -0.430900 -0.000000 0.902400
vn -0.777668 -0.000000 0.628675
vn -0.777668 -0.000000 0.628675
vn -0.777717 -0.000000 0.628614
vn -0.777717 -0.000000 0.628614
vn -0.777717 -0.000000 0.628614
vn -0.777717 -0.000000 0.628614
vn -0.777806 -0.000000 0.628505
vn -0.942787 -0.000000 0.333395
vn -0.777806 -0.000000 0.628505
vn -0.942787 -0.000000 0.333395
vn -1.000000 -0.000000 0.000100
vn -1.000000 -0.000000 0.000100
vn 0.833585 0.000000 -0.552390
vn 0.833585 0.000000 -0.552390
vn 0.833585 0.000000 -0.552390
vn 0.833585 0.000000 -0.552390
vn 0.833585 0.000000 -0.552390
vn 0.833585 0.000000 -0.552390
vn 0.833585 0.000000 -0.552390
vn 0.833585 0.000000 -0.552390
vn 0.000000 0.000000 -1.000000
vn 0.000000 0.000000 -1.000000
vn 0.000000 0.000000 -1.000000
vn 0.000000 0.000000 -1.000000
vn 0.810518 0.000000 -0.585713
vn 0.453283 0.000000 -0.891367
vn 0.810518 0.000000 -0.585713
vn 0.453283 0.000000 -0.891367
vn 0.000100 0.000000 -1.000000
vn 0.000100 0.000000 -1.000000
vn 0.000100 0.000000 -1.000000
vn 0.290704 0.000000 -0.956813
vn 0.000100 0.000000 -1.000000
vn 0.290704 0.000000 -0.956813
vn 0.556476 0.000000 -0.830864
vn 0.556476 0.000000 -0.830864
vn 0.777226 0.000000 -0.629221
vn 0.777226 0.000000 -0.629221
vn 0.926750 0.000000 -0.375680
vn 0.926750 0.000000 -0.375680
vn 0.000000 0.000000 -1.000000
vn 0.000000 0.000000 -1.000000
vn 0.000000 0.000000 -1.000000
vn 0.000000 0.000000 -1.000000
vn 0.999999 -0.000000 0.001600
vn 0.951514 0.000000 -0.307605
vn 0.999999 -0.000000 0.001600
vn 0.951514 0.000000 -0.307605
vn 0.810600 0.000000 -0.585600
vn 0.810600 0.000000 -0.585600
vn 0.999999 -0.000000 0.001700
vn 0.999999 -0.000000 0.001700
vn 0.999999 -0.000000 0.001700
vn 0.999999 -0.000000 0.001700
vn 0.000100 0.000000 -1.000000
vn 0.380287 0.000000 -0.924869
vn 0.000100 0.000000 -1.000000
vn 0.380287 0.000000 -0.924869
vn 0.715012 0.000000 -0.699112
vn 0.715012 0.000000 -0.699112
vn 0.932100 0.000000 -0.362200
vn 0.932100 0.000000 -0.362200
vn 0.999999 -0.000000 0.001600
vn 0.999999 0.000100 0.001600
vn 1.000000 0.000000 0.000000
vn 1.000000 0.000000 0.000000
vn 1.000000 0.000000 0.000000
vn 1.000000 0.000000 0.000000
vn 0.000000 -0.000000 1.000000
vn 0.000000 -0.000000 1.000000
vn 0.000000 -0.000000 1.000000
vn 0.000000 -0.000000 1.000000
vn 0.999999 -0.000000 0.001700
vn 0.999999 -0.000000 0.001700
vn 0.999999 -0.000000 0.001700
vn 0.999999 -0.000000 0.001700
vn 0.999999 -0.000000 0.001700
vn 0.999999 -0.000000 0.001700
vn 0.000000 0.000000 -1.000000
vn 0.000000 0.000000 -1.000000
vn 0.000000 0.000000 -1.000000
vn 0.000000 0.000000 -1.000000
vn 0.810553 0.000000 -0.585666
vn 0.810553 0.000000 -0.585666
vn 0.810553 0.000000 -0.585666
vn 0.810553 0.000000 -0.585666
vn 0.810518 0.000000 -0.585713
vn 0.810518 0.000000 -0.585713
vn 0.833585 0.000000 -0.552390
vn 0.854594 0.000000 -0.519296
vn 0.833585 0.000000 -0.552390
vn 0.854594 0.000000 -0.519296
vn 0.854478 0.000000 -0.519487
vn 0.833509 0.000000 -0.552506
vn 0.854665 0.000000 -0.519179
vn 0.833509 0.000000 -0.552506
vn 0.854665 0.000000 -0.519179
vn 0.833585 0.000000 -0.552390
vn 0.854478 0.000000 -0.519487
vn 0.854594 0.000000 -0.519296
vn 0.833585 0.000000 -0.552390
vn 0.854594 0.000000 -0.519296
vn -1.000000 0.000000 0.000000
vn -1.000000 0.000000 0.000000
vn -1.000000 0.000000 0.000000
vn -1.000000 0.000000 0.000000
vn 0.000000 -1.000000 -0.000000
vn 0.000000 -1.000000 -0.000000
vn 0.000000 -1.000000 -0.000000
vn 0.000000 -1.000000 -0.000000
vn 0.000000 -1.000000 -0.000000
vn 0.000000 -1.000000 -0.000000
vn 0.000000 -1.000000 -0.000000
vn 0.000000 -1.000000 -0.000000
vn 0.000000 -1.000000 -0.000000
vn 0.000000 -1.000000 -0.000000
vn 0.000000 -1.000000 -0.000000
vn 0.000000 -1.000000 -0.000000
vn 0.000000 -1.000000 -0.000000
vn 0.000000 -1.000000 -0.000000
vn 0.000000 -1.000000 -0.000000
vn 0.000000 -1.000000 -0.000000
vn 0.000000 -1.000000 -0.000000
vn 0.000000 -1.000000 -0.000000
vn 0.000000 -1.000000 -0.000000
vn 0.000000 -1.000000 -0.000000
vn 0.000000 -1.000000 -0.000000
vn 0.000000 -1.000000 -0.000000
vn 0.000000 -1.000000 -0.000000
vn 0.000000 -1.000000 -0.000000
vn 0.000000 -1.000000 -0.000000
vn 0.000000 -1.000000 -0.000000
vn 0.000000 -1.000000 -0.000000
vn 0.000000 -1.000000 -0.000000
vn 0.000000 -1.000000 -0.000000
vn 0.000000 -1.000000 -0.000000
vn 0.000000 -1.000000 -0.000000
vn 0.000000 -1.000000 -0.000000
vn 0.000000 -1.000000 -0.000000
vn 0.000000 -1.000000 -0.000000
vn 0.000000 -1.000000 -0.000000
vn 0.000000 -1.000000 -0.000000
vn 0.000000 -1.000000 -0.000000
vn 0.000000 -1.000000 -0.000000
vn 0.000000 -1.000000 -0.000000
vn 0.000000 -1.000000 -0.000000
vn 0.000000 -1.000000 -0.000000
vn 0.000000 -1.000000 -0.000000
vn 0.000000 -1.000000 -0.000000
vn 0.000000 -1.000000 -0.000000
vn 0.000000 -1.000000 -0.000000
vn 0.000000 -1.000000 -0.000000
vn 0.000000 -1.000000 -0.000000
vn 0.000000 -1.000000 -0.000000
vn 0.000000 -1.000000 -0.000000
vn 0.000000 -1.000000 -0.000000
vn 0.000000 -1.000000 -0.000000
vn 0.000000 -1.000000 -0.000000
vn 0.000000 -1.000000 -0.000000
vn 0.000000 -1.000000 -0.000000
vn 0.000000 -1.000000 -0.000000
vn 0.000000 -1.000000 -0.000000
vn 0.000000 -1.000000 -0.000000
vn 0.000000 -1.000000 -0.000000
vn 0.000000 -1.000000 -0.000000
vn 0.000000 -1.000000 -0.000000
vn 0.000000 -1.000000 -0.000000
vn 0.000000 -1.000000 -0.000000
vn 0.000000 -1.000000 -0.000000
vn 0.000000 -1.000000 -0.000000
vn 0.000000 -1.000000 -0.000000
vn 0.000000 -1.000000 -0.000000
vn 0.000000 -1.000000 -0.000000
vn 0.000000 -1.000000 -0.000000
vn 0.000000 -1.000000 -0.000000
vn 0.000000 -1.000000 -0.000000
vn 0.000000 -1.000000 -0.000000
vn 0.000000 -1.000000 -0.000000
vn 0.000000 -1.000000 -0.000000
vn 0.000000 -1.000000 -0.000000
f 2//2 1//1 4//4
f 2//2 3//3 1//1
f 4//4 1//1 5//5
f 1//1 6//6 5//5
f 9//9 6//6 1//1
f 7//7 8//8 1//1
f 1//1 8//8 9//9
f 9//9 8//8 10//10
f 10//10 8//8 11//11
f 12//12 11//11 13//13
f 8//8 13//13 11//11
f 18//18 13//13 14//14
f 15//15 14//14 13//13
f 16//16 12//12 13//13
f 16//16 13//13 17//17
f 13//13 18//18 17//17
f 14//14 19//19 18//18
f 14//14 20//20 19//19
f 14//14 21//21 20//20
f 14//14 22//22 21//21
f 14//14 23//23 22//22
f 14//14 24//24 23//23
f 23//23 24//24 25//25
f 24//24 26//26 25//25
f 27//27 26//26 24//24
f 28//28 26//26 27//27
f 29//29 28//28 27//27
f 27//27 30//30 29//29
f 30//30 31//31 29//29
f 32//32 31//31 30//30
f 30//30 33//33 32//32
f 35//35 33//33 34//34
f 33//33 30//30 34//34
f 34//34 36//36 35//35
f 37//37 36//36 34//34
f 37//37 34//34 38//38
f 38//38 39//39 37//37
f 40//40 39//39 38//38
f 40//40 38//38 41//41
f 42//42 41//41 38//38
f 41//41 42//42 43//43
f 45//45 44//44 43//43
f 42//42 45//45 43//43
f 46//46 44//44 45//45
f 46//46 47//47 48//48
f 50//50 46//46 48//48
f 44//44 46//46 49//49
f 50//50 49//49 46//46
f 47//47 51//51 48//48
f 51//51 52//52 54//54
f 53//53 52//52 51//51
f 51//51 47//47 53//53
f 56//56 54//54 55//55
f 54//54 52//52 55//55
f 55//55 57//57 56//56
f 58//58 59//59 57//57
f 58//58 57//57 55//55
f 59//59 58//58 61//61
f 60//60 59//59 61//61
f 2//2 60//60 61//61
f 61//61 62//62 2//2
f 60//60 2//2 4//4
f 65//65 63//63 27//27
f 63//63 64//64 27//27
f 27//27 66//66 65//65
f 27//27 24//24 66//66
f 64//64 63//63 67//67
f 3//3 2//2 68//68
f 68//68 69//69 3//3
f 69//69 68//68 70//70
f 70//70 68//68 71//71
f 72//72 71//71 68//68
f 68//68 73//73 72//72
f 68//68 74//74 73//73
f 76//76 78//78 77//77
f 76//76 77//77 75//75
f 78//78 80//80 79//79
f 78//78 79//79 77//77
f 80//80 82//82 81//81
f 80//80 81//81 79//79
f 83//83 82//82 80//80
f 83//83 80//80 84//84
f 85//85 83//83 84//84
f 85//85 84//84 87//87
f 86//86 85//85 87//87
f 86//86 87//87 89//89
f 87//87 88//88 90//90
f 87//87 84//84 95//95
f 87//87 95//95 88//88
f 89//89 87//87 90//90
f 90//90 88//88 91//91
f 91//91 88//88 93//93
f 91//91 93//93 92//92
f 88//88 95//95 94//94
f 88//88 94//94 93//93
f 95//95 78//78 76//76
f 95//95 76//76 94//94
f 84//84 80//80 78//78
f 84//84 78//78 95//95
f 96//96 98//98 100//100
f 96//96 100//100 97//97
f 102//102 100//100 98//98
f 102//102 98//98 99//99
f 97//97 100//100 101//101
f 97//97 101//101 115//115
f 103//103 101//101 100//100
f 103//103 100//100 102//102
f 104//104 102//102 99//99
f 102//102 105//105 103//103
f 105//105 102//102 104//104
f 105//105 107//107 106//106
f 106//106 108//108 105//105
f 109//109 107//107 105//105
f 105//105 104//104 109//109
f 105//105 108//108 103//103
f 108//108 106//106 110//110
f 108//108 111//111 101//101
f 108//108 101//101 103//103
f 110//110 113//113 111//111
f 110//110 111//111 108//108
f 111//111 112//112 115//115
f 111//111 115//115 101//101
f 113//113 114//114 112//112
f 113//113 112//112 111//111
f 117//117 119//119 118//118
f 117//117 118//118 116//116
f 120//120 119//119 117//117
f 120//120 117//117 122//122
f 121//121 120//120 122//122
f 121//121 122//122 123//123
f 121//121 123//123 124//124
f 124//124 123//123 125//125
f 126//126 121//121 124//124
f 130//130 128//128 127//127
f 130//130 127//127 129//129
f 132//132 130//130 129//129
f 132//132 129//129 131//131
f 131//131 133//133 132//132
f 133//133 131//131 134//134
f 136//136 133//133 134//134
f 136//136 134//134 135//135
f 135//135 137//137 138//138
f 135//135 138//138 136//136
f 136//136 138//138 139//139
f 138//138 140//140 139//139
f 141//141 143//143 142//142
f 141//141 142//142 140//140
f 139//139 140//140 142//142
f 143//143 146//146 144//144
f 143//143 144//144 142//142
f 142//142 144//144 147//147
f 142//142 147//147 139//139
f 132//132 144//144 145//145
f 145//145 144//144 146//146
f 144//144 132//132 147//147
f 139//139 147//147 133//133
f 139//139 133//133 136//136
f 132//132 133//133 147//147
f 145//145 148//148 130//130
f 145//145 130//130 132//132
f 148//148 149//149 128//128
f 148//148 128//128 130//130
f 151//151 153//153 152//152
f 151//151 152//152 150//150
f 155//155 157//157 156//156
f 155//155 156//156 154//154
f 158//158 160//160 161//161
f 158//158 161//161 159//159
f 163//163 161//161 160//160
f 163//163 160//160 162//162
f 165//165 163//163 162//162
f 165//165 162//162 164//164
f 167//167 165//165 164//164
f 167//167 164//164 166//166
f 169//169 167//167 166//166
f 169//169 166//166 168//168
f 171//171 169//169 168//168
f 171//171 168//168 170//170
f 173//173 171//171 170//170
f 173//173 170//170 172//172
f 174//174 175//175 173//173
f 174//174 173//173 172//172
f 175//175 176//176 177//177
f 175//175 177//177 173//173
f 177//177 178//178 171//171
f 177//177 171//171 173//173
f 178//178 179//179 169//169
f 178//178 169//169 171//171
f 179//179 180//180 167//167
f 179//179 167//167 169//169
f 180//180 181//181 165//165
f 180//180 165//165 167//167
f 181//181 182//182 163//163
f 181//181 163//163 165//165
f 182//182 183//183 161//161
f 182//182 161//161 163//163
f 185//185 161//161 183//183
f 185//185 183//183 184//184
f 161//161 185//185 159//159
f 187//187 186//186 188//188
f 187//187 188//188 189//189
f 187//187 189//189 190//190
f 192//192 187//187 190//190
f 192//192 190//190 191//191
f 194//194 196//196 195//195
f 194//194 195//195 193//193
f 198//198 197//197 199//199
f 198//198 199//199 200//200
f 202//202 201//201 203//203
f 202//202 203//203 204//204
f 206//206 208//208 207//207
f 206//206 207//207 205//205
f 209//209 208//208 206//206
f 209//209 206//206 210//210
f 211//211 209//209 210//210
f 211//211 210//210 212//212
f 213//213 211//211 212//212
f 213//213 212//212 214//214
f 215//215 213//213 214//214
f 215//215 214//214 216//216
f 217//217 215//215 216//216
f 217//217 216//216 218//218
f 219//219 217//217 218//218
f 219//219 218//218 220//220
f 222//222 221//221 219//219
f 222//222 219//219 220//220
f 224//224 223//223 225//225
f 224//224 225//225 226//226
f 228//228 227//227 229//229
f 228//228 229//229 230//230
f 232//232 233//233 231//231
f 234//234 233//233 235//235
f 233//233 232//232 235//235
f 236//236 235//235 232//232
f 236//236 232//232 253//253
f 238//238 237//237 235//235
f 238//238 235//235 236//236
f 240//240 234//234 235//235
f 240//240 235//235 237//237
f 244//244 241//241 237//237
f 244//244 237//237 238//238
f 243//243 239//239 237//237
f 243//243 237//237 241//241
f 240//240 237//237 239//239
f 242//242 241//241 245//245
f 243//243 241//241 242//242
f 246//246 245//245 241//241
f 246//246 241//241 244//244
f 242//242 245//245 247//247
f 248//248 246//246 244//244
f 249//249 248//248 244//244
f 248//248 249//249 250//250
f 251//251 250//250 249//249
f 251//251 249//249 252//252
f 252//252 249//249 236//236
f 236//236 253//253 252//252
f 244//244 238//238 249//249
f 249//249 238//238 236//236
f 255//255 254//254 256//256
f 255//255 256//256 257//257
f 259//259 255//255 257//257
f 259//259 257//257 258//258
f 261//261 259//259 258//258
f 261//261 258//258 260//260
f 263//263 261//261 260//260
f 263//263 260//260 262//262
f 265//265 263//263 262//262
f 265//265 262//262 264//264
f 267//267 265//265 264//264
f 267//267 264//264 266//266
f 269//269 268//268 270//270
f 269//269 270//270 271//271
f 273//273 272//272 274//274
f 273//273 274//274 275//275
f 277//277 273//273 275//275
f 277//277 275//275 276//276
f 278//278 280//280 281//281
f 278//278 281//281 279//279
f 283//283 282//282 284//284
f 283//283 284//284 285//285
f 287//287 283//283 285//285
f 287//287 285//285 286//286
f 289//289 291//291 288//288
f 289//289 288//288 290//290
f 292//292 288//288 291//291
f 292//292 291//291 293//293
f 292//292 293//293 295//295
f 292//292 295//295 294//294
f 297//297 299//299 298//298
f 297//297 298//298 296//296
f 301//301 303//303 302//302
f 301//301 302//302 300//300
f 305//305 304//304 303//303
f 305//305 303//303 301//301
f 307//307 306//306 308//308
f 307//307 308//308 309//309
f 310//310 311//311 307//307
f 310//310 307//307 309//309
f 312//312 313//313 311//311
f 312//312 311//311 310//310
f 315//315 313//313 312//312
f 315//315 312//312 314//314
f 317//317 319//319 318//318
f 317//317 318//318 316//316
f 321//321 323//323 322//322
f 321//321 322//322 320//320
f 325//325 324//324 323//323
f 325//325 323//323 321//321
f 327//327 329//329 328//328
f 327//327 328//328 326//326
f 331//331 330//330 332//332
f 331//331 332//332 333//333
f 334//334 335//335 331//331
f 334//334 331//331 333//333
f 336//336 337//337 335//335
f 336//336 335//335 334//334
f 339//339 337//337 336//336
f 339//339 336//336 338//338
f 341//341 340//340 342//342
f 341//341 342//342 343//343
f 345//345 347//347 346//346
f 345//345 346//346 344//344
f 349//349 351//351 350//350
f 349//349 350//350 348//348
f 353//353 352//352 351//351
f 353//353 351//351 349//349
f 355//355 357//357 356//356
f 355//355 356//356 354//354
f 359//359 361//361 360//360
f 359//359 360//360 358//358
f 363//363 362//362 361//361
f 363//363 361//361 359//359
f 364//364 366//366 367//367
f 364//364 367//367 365//365
f 368//368 367//367 366//366
f 366//366 369//369 370//370
f 366//366 370//370 368//368
f 369//369 371//371 372//372
f 369//369 372//372 370//370
f 371//371 373//373 374//374
f 371//371 374//374 372//372
f 375//375 374//374 373//373
f 373//373 376//376 377//377
f 373//373 377//377 375//375
f 378//378 380//380 381//381
f 378//378 381//381 379//379
f 383//383 385//385 382//382
f 383//383 382//382 384//384
f 385//385 387//387 382//382
f 390//390 382//382 386//386
f 382//382 387//387 386//386
f 388//388 382//382 389//389
f 382//382 390//390 389//389
f 390//390 391//391 389//389
f 391//391 392//392 389//389
f 393//393 394//394 392//392
f 389//389 392//392 394//394
f 398//398 395//395 394//394
f 396//396 394//394 395//395
f 397//397 394//394 393//393
f 397//397 399//399 394//394
f 394//394 399//399 398//398
f 395//395 398//398 400//400
f 395//395 400//400 401//401
f 395//395 401//401 402//402
f 395//395 402//402 403//403
f 395//395 403//403 404//404
f 395//395 404//404 406//406
f 404//404 405//405 406//406
f 407//407 406//406 409//409
f 407//407 408//408 406//406
f 406//406 405//405 409//409
f 410//410 407//407 409//409
f 411//411 407//407 410//410
f 407//407 411//411 412//412
f 412//412 411//411 413//413
f 414//414 412//412 413//413
f 412//412 414//414 415//415
f 415//415 417//417 412//412
f 416//416 417//417 415//415
f 420//420 418//418 417//417
f 417//417 416//416 419//419
f 420//420 417//417 419//419
f 418//418 420//420 421//421
f 422//422 418//418 421//421
f 422//422 423//423 418//418
f 423//423 425//425 424//424
f 424//424 418//418 423//423
f 426//426 425//425 427//427
f 424//424 425//425 426//426
f 427//427 428//428 429//429
f 429//429 426//426 427//427
f 429//429 431//431 430//430
f 432//432 431//431 429//429
f 432//432 429//429 428//428
f 430//430 431//431 433//433
f 433//433 436//436 434//434
f 435//435 433//433 434//434
f 433//433 435//435 430//430
f 436//436 438//438 434//434
f 437//437 438//438 436//436
f 439//439 438//438 440//440
f 438//438 437//437 440//440
f 439//439 440//440 441//441
f 442//442 443//443 441//441
f 441//441 443//443 439//439
f 383//383 443//443 442//442
f 443//443 383//383 444//444
f 442//442 385//385 383//383
f 407//407 445//445 408//408
f 445//445 407//407 446//446
f 446//446 407//407 447//447
f 447//447 448//448 446//446
f 384//384 449//449 383//383
f 449//449 384//384 450//450
f 450//450 451//451 449//449
f 451//451 452//452 449//449
f 453//453 449//449 452//452
f 449//449 453//453 454//454
f 449//449 454//454 455//455
