# arm_31 exported from /models/landings/arm_31.glb
# units: meters
v 0.006411 0.001000 0.005955
v -0.001596 0.001000 -0.002535
v 0.000595 0.001000 -0.004272
v 0.000682 0.001000 0.008928
v 0.011872 0.001000 -0.000593
v 0.013901 0.001000 -0.008286
v 0.002009 0.001000 -0.006722
v 0.002420 0.001000 -0.009361
v 0.002353 0.001000 -0.010198
v 0.013922 0.001000 -0.009030
v 0.006109 0.001000 -0.016052
v 0.012044 0.001000 -0.017415
v 0.006109 0.001000 -0.024536
v 0.004109 0.001000 -0.016052
v 0.001455 0.001000 -0.012862
v -0.000545 0.001000 -0.015153
v -0.003291 0.001000 -0.016462
v 0.004109 0.001000 -0.025810
v -0.006098 0.001000 -0.016608
v -0.004929 0.001000 -0.028177
v -0.011933 0.001000 -0.026898
v -0.018407 0.001000 -0.022718
v -0.008596 0.001000 -0.015801
v -0.010807 0.001000 -0.014018
v -0.012205 0.001000 -0.011512
v -0.022689 0.001000 -0.016310
v -0.024077 0.001000 -0.009326
v -0.022657 0.001000 -0.001969
v -0.012570 0.001000 -0.008838
v -0.012508 0.001000 -0.008158
v -0.011611 0.001000 -0.005494
v -0.009610 0.001000 -0.003203
v -0.006268 0.001000 0.009785
v -0.006864 0.001000 -0.001894
v -0.004058 0.001000 -0.001748
v -0.005226 0.001000 0.009821
v -0.001436 0.001000 0.015177
v -0.011180 0.001000 0.015219
v 0.006074 0.001000 0.026596
v 0.012250 0.001000 0.023016
v 0.026393 0.001000 0.030375
v 0.034109 0.001000 0.025583
v 0.036109 0.001000 0.025583
v 0.027825 0.001000 0.025498
v 0.046584 0.001000 0.025961
v 0.036109 0.001000 0.025492
v 0.036109 0.001000 0.024241
v 0.029877 0.001000 0.024302
v 0.034109 0.001000 0.025492
v 0.034109 0.001000 0.023492
v 0.031703 0.001000 0.022384
v -0.012570 0.001000 -0.008838
v -0.012570 0.000000 -0.008838
v -0.012508 0.001000 -0.008158
v -0.012198 0.001000 -0.006823
v -0.012198 -0.001000 -0.006823
v -0.011611 0.001000 -0.005494
v -0.010739 0.001000 -0.004258
v -0.011611 -0.001000 -0.005494
v -0.010739 -0.001000 -0.004258
v -0.009610 -0.001000 -0.003203
v -0.009610 0.001000 -0.003203
v -0.008290 -0.001000 -0.002401
v -0.006864 -0.001000 -0.001894
v -0.008290 0.001000 -0.002401
v -0.006864 0.001000 -0.001894
v -0.005427 0.001000 -0.001686
v -0.004058 0.001000 -0.001748
v -0.005427 -0.001000 -0.001686
v -0.004058 -0.001000 -0.001748
v -0.002827 -0.001000 -0.002024
v -0.002827 0.001000 -0.002024
v -0.001596 -0.001000 -0.002535
v -0.000432 -0.001000 -0.003290
v -0.001596 0.001000 -0.002535
v -0.000432 0.001000 -0.003290
v 0.000595 0.001000 -0.004272
v 0.001422 0.001000 -0.005437
v 0.000595 -0.001000 -0.004272
v 0.001422 -0.001000 -0.005437
v 0.002009 -0.001000 -0.006722
v 0.002337 -0.001000 -0.008053
v 0.002009 0.001000 -0.006722
v 0.002337 0.001000 -0.008053
v 0.002420 0.001000 -0.009361
v 0.002420 0.000000 -0.009361
v 0.002420 -0.001000 -0.009361
v -0.012508 -0.001000 -0.008158
v -0.012570 -0.001000 -0.008838
v -0.012570 -0.001000 -0.008838
v -0.012570 0.000000 -0.008838
v -0.012513 -0.001000 -0.010160
v -0.012205 -0.001000 -0.011512
v -0.012513 0.001000 -0.010160
v -0.012570 0.001000 -0.008838
v -0.012205 0.001000 -0.011512
v -0.011632 0.001000 -0.012824
v -0.011632 -0.001000 -0.012824
v -0.010807 0.001000 -0.014018
v -0.009774 0.001000 -0.015026
v -0.010807 -0.001000 -0.014018
v -0.009774 -0.001000 -0.015026
v -0.008596 -0.001000 -0.015801
v -0.008596 0.001000 -0.015801
v -0.007348 -0.001000 -0.016326
v -0.007348 0.001000 -0.016326
v -0.006098 -0.001000 -0.016608
v -0.004729 -0.001000 -0.016670
v -0.006098 0.001000 -0.016608
v -0.004729 0.001000 -0.016670
v -0.003291 0.001000 -0.016462
v -0.001866 0.001000 -0.015955
v -0.003291 -0.001000 -0.016462
v -0.001866 -0.001000 -0.015955
v -0.000545 -0.001000 -0.015153
v 0.000583 -0.001000 -0.014098
v -0.000545 0.001000 -0.015153
v 0.000583 0.001000 -0.014098
v 0.001455 0.001000 -0.012862
v 0.002043 0.001000 -0.011533
v 0.001455 -0.001000 -0.012862
v 0.002043 -0.001000 -0.011533
v 0.002353 -0.001000 -0.010198
v 0.002353 0.000000 -0.010198
v 0.002353 0.001000 -0.010198
v 0.002353 -0.001000 -0.010198
v 0.002353 0.000000 -0.010198
v 0.002420 -0.001000 -0.009361
v 0.002420 0.000000 -0.009361
v 0.002420 0.001000 -0.009361
v 0.002353 0.001000 -0.010198
v 0.034109 -0.001000 0.025583
v 0.034109 0.001000 0.025583
v 0.034109 -0.001000 0.023492
v 0.034109 0.001000 0.023492
v 0.036109 -0.001000 0.025583
v 0.036109 0.001000 0.025583
v 0.034109 -0.001000 0.025583
v 0.034109 0.001000 0.025583
v 0.036109 -0.001000 0.024241
v 0.036109 0.001000 0.024241
v 0.036109 -0.001000 0.025583
v 0.036109 0.001000 0.025583
v 0.046584 -0.001000 0.025961
v 0.046584 0.001000 0.025961
v 0.041293 -0.001000 0.025532
v 0.041293 0.001000 0.025532
v 0.036109 -0.001000 0.024241
v 0.036109 0.001000 0.024241
v -0.022657 -0.001000 -0.001969
v -0.020119 0.000000 0.003344
v -0.020119 -0.001000 0.003344
v -0.022657 0.001000 -0.001969
v -0.020119 0.001000 0.003344
v -0.016941 0.001000 0.008416
v -0.016941 0.000000 0.008416
v -0.008942 0.001000 0.017317
v -0.008942 -0.001000 0.017317
v 0.000802 0.001000 0.024119
v 0.000802 -0.001000 0.024119
v 0.011672 0.001000 0.028493
v 0.023458 0.001000 0.030338
v 0.011672 -0.001000 0.028493
v 0.023458 -0.001000 0.030338
v 0.035386 0.000000 0.029450
v 0.035386 -0.001000 0.029450
v 0.041129 -0.001000 0.028007
v 0.041129 0.000000 0.028007
v 0.046584 -0.001000 0.025961
v 0.046584 0.001000 0.025961
v 0.041129 0.001000 0.028007
v 0.035386 0.001000 0.029450
v -0.016941 -0.001000 0.008416
v 0.027825 0.001000 0.025498
v 0.027825 0.000000 0.025498
v 0.028865 0.001000 0.025004
v 0.029877 0.001000 0.024302
v 0.028865 -0.001000 0.025004
v 0.027825 -0.001000 0.025498
v 0.029877 -0.001000 0.024302
v 0.030832 -0.001000 0.023420
v 0.031703 0.000000 0.022384
v 0.030832 0.001000 0.023420
v 0.031703 -0.001000 0.022384
v 0.031703 0.001000 0.022384
v 0.034109 -0.001000 0.023492
v 0.034109 0.001000 0.023492
v 0.031703 0.000000 0.022384
v 0.031703 -0.001000 0.022384
v 0.031703 0.001000 0.022384
v 0.027825 -0.001000 0.025498
v 0.025391 -0.000500 0.025420
v 0.025391 -0.001000 0.025420
v 0.027825 0.000000 0.025498
v 0.025391 0.000000 0.025420
v 0.027825 0.001000 0.025498
v 0.025391 0.000500 0.025420
v 0.022962 0.000500 0.025240
v 0.025391 0.001000 0.025420
v 0.022962 0.001000 0.025240
v 0.018142 0.001000 0.024549
v 0.018142 0.000000 0.024549
v 0.008837 0.001000 0.021714
v 0.008837 -0.001000 0.021714
v 0.000478 0.000000 0.016785
v 0.000478 0.001000 0.016785
v -0.003155 0.001000 0.013515
v -0.006268 0.001000 0.009785
v -0.003155 0.000000 0.013515
v -0.003155 -0.001000 0.013515
v -0.006268 -0.001000 0.009785
v 0.000478 -0.001000 0.016785
v 0.018142 -0.001000 0.024549
v 0.022962 -0.000500 0.025240
v 0.022962 -0.001000 0.025240
v 0.022962 0.000000 0.025240
v 0.006411 -0.001000 0.005955
v 0.002508 -0.001000 0.008242
v 0.006411 0.001000 0.005955
v 0.002508 0.001000 0.008242
v -0.001908 0.001000 0.009556
v -0.001908 -0.001000 0.009556
v -0.006268 0.001000 0.009785
v -0.006268 -0.001000 0.009785
v 0.006109 -0.001000 -0.024536
v 0.006109 0.001000 -0.024536
v 0.006109 -0.001000 -0.016052
v 0.006109 0.001000 -0.016052
v 0.004109 -0.001000 -0.016052
v 0.004109 0.001000 -0.016052
v 0.004109 -0.001000 -0.025810
v 0.004109 0.001000 -0.025810
v 0.006109 -0.001000 -0.016052
v 0.006109 0.001000 -0.016052
v 0.004109 -0.001000 -0.016052
v 0.004109 0.001000 -0.016052
v 0.006109 -0.001000 -0.024536
v 0.009472 -0.001000 -0.021397
v 0.009472 -0.000000 -0.021397
v 0.006109 0.001000 -0.024536
v 0.009472 0.001000 -0.021397
v 0.011963 0.001000 -0.017580
v 0.011963 -0.000000 -0.017580
v 0.013475 0.001000 -0.013276
v 0.013475 -0.000000 -0.013276
v 0.013922 0.001000 -0.009030
v 0.013922 -0.001000 -0.009030
v 0.013475 -0.001000 -0.013276
v 0.011963 -0.001000 -0.017580
v 0.013922 0.001000 -0.009030
v 0.013438 0.000000 -0.004917
v 0.013438 0.001000 -0.004917
v 0.013922 -0.001000 -0.009030
v 0.013438 -0.001000 -0.004917
v 0.011953 -0.001000 -0.000755
v 0.011953 0.000000 -0.000755
v 0.009588 -0.001000 0.002901
v 0.006411 -0.001000 0.005955
v 0.009588 0.000000 0.002901
v 0.009588 0.001000 0.002901
v 0.006411 0.001000 0.005955
v 0.011953 0.001000 -0.000755
v -0.022657 -0.001000 -0.001969
v -0.024077 -0.001000 -0.009326
v -0.022657 0.001000 -0.001969
v -0.024077 0.001000 -0.009326
v -0.022345 0.001000 -0.017105
v -0.022345 -0.001000 -0.017105
v -0.017537 0.001000 -0.023522
v -0.017537 -0.001000 -0.023522
v -0.010635 0.001000 -0.027347
v -0.010635 -0.001000 -0.027347
v -0.003309 0.001000 -0.028096
v -0.003309 -0.001000 -0.028096
v 0.004109 0.001000 -0.025810
v 0.004109 -0.001000 -0.025810
v 0.006411 -0.001000 0.005955
v 0.000595 -0.001000 -0.004272
v -0.001596 -0.001000 -0.002535
v 0.000682 -0.001000 0.008928
v 0.011872 -0.001000 -0.000593
v 0.013901 -0.001000 -0.008286
v 0.002009 -0.001000 -0.006722
v 0.002420 -0.001000 -0.009361
v 0.002353 -0.001000 -0.010198
v 0.013922 -0.001000 -0.009030
v 0.006109 -0.001000 -0.016052
v 0.012044 -0.001000 -0.017415
v 0.006109 -0.001000 -0.024536
v 0.004109 -0.001000 -0.016052
v 0.001455 -0.001000 -0.012862
v -0.000545 -0.001000 -0.015153
v -0.003291 -0.001000 -0.016462
v -0.004929 -0.001000 -0.028177
v 0.004109 -0.001000 -0.025810
v -0.006098 -0.001000 -0.016608
v -0.011933 -0.001000 -0.026898
v -0.008596 -0.001000 -0.015801
v -0.010807 -0.001000 -0.014018
v -0.018407 -0.001000 -0.022718
v -0.022689 -0.001000 -0.016310
v -0.024077 -0.001000 -0.009326
v -0.012205 -0.001000 -0.011512
v -0.012570 -0.001000 -0.008838
v -0.012508 -0.001000 -0.008158
v -0.011611 -0.001000 -0.005494
v -0.022657 -0.001000 -0.001969
v -0.011180 -0.001000 0.015219
v -0.006268 -0.001000 0.009785
v -0.009610 -0.001000 -0.003203
v -0.006864 -0.001000 -0.001894
v -0.004058 -0.001000 -0.001748
v -0.005226 -0.001000 0.009821
v -0.001436 -0.001000 0.015177
v 0.006074 -0.001000 0.026596
v 0.012250 -0.001000 0.023016
v 0.026393 -0.001000 0.030375
v 0.027825 -0.001000 0.025498
v 0.034109 -0.001000 0.025583
v 0.029877 -0.001000 0.024302
v 0.034109 -0.001000 0.025492
v 0.034109 -0.001000 0.023492
v 0.031703 -0.001000 0.022384
v 0.036109 -0.001000 0.025583
v 0.046584 -0.001000 0.025961
v 0.036109 -0.001000 0.025492
v 0.036109 -0.001000 0.024241
vn 0.000000 1.000000 0.000000
vn 0.000000 1.000000 0.000000
vn 0.000000 1.000000 0.000000
vn 0.000000 1.000000 0.000000
vn 0.000000 1.000000 0.000000
vn 0.000000 1.000000 0.000000
vn 0.000000 1.000000 0.000000
vn 0.000000 1.000000 0.000000
vn 0.000000 1.000000 0.000000
vn 0.000000 1.000000 0.000000
vn 0.000000 1.000000 0.000000
vn 0.000000 1.000000 0.000000
vn 0.000000 1.000000 0.000000
vn 0.000000 1.000000 0.000000
vn 0.000000 1.000000 0.000000
vn 0.000000 1.000000 0.000000
vn 0.000000 1.000000 0.000000
vn 0.000000 1.000000 0.000000
vn 0.000000 1.000000 0.000000
vn 0.000000 1.000000 0.000000
vn 0.000000 1.000000 0.000000
vn 0.000000 1.000000 0.000000
vn 0.000000 1.000000 0.000000
vn 0.000000 1.000000 0.000000
vn 0.000000 1.000000 0.000000
vn 0.000000 1.000000 0.000000
vn 0.000000 1.000000 0.000000
vn 0.000000 1.000000 0.000000
vn 0.000000 1.000000 0.000000
vn 0.000000 1.000000 0.000000
vn 0.000000 1.000000 0.000000
vn 0.000000 1.000000 0.000000
vn 0.000000 1.000000 0.000000
vn 0.000000 1.000000 0.000000
vn 0.000000 1.000000 0.000000
vn 0.000000 1.000000 0.000000
vn 0.000000 1.000000 0.000000
vn 0.000000 1.000000 0.000000
vn 0.000000 1.000000 0.000000
vn 0.000000 1.000000 0.000000
vn 0.000000 1.000000 0.000000
vn 0.000000 1.000000 0.000000
vn 0.000000 1.000000 0.000000
vn 0.000000 1.000000 0.000000
vn 0.000000 1.000000 0.000000
vn 0.000000 1.000000 0.000000
vn 0.000000 1.000000 0.000000
vn 0.000000 1.000000 0.000000
vn 0.000000 1.000000 0.000000
vn 0.000000 1.000000 0.000000
vn 0.000000 1.000000 0.000000
vn 0.998973 0.000000 -0.045299
vn 0.998969 0.000000 -0.045399
vn 0.990709 -0.000200 -0.136001
vn 0.949421 0.000000 -0.314007
vn 0.949421 0.000000 -0.314007
vn 0.870993 0.000000 -0.491296
vn 0.754685 0.000000 -0.656087
vn 0.870993 0.000000 -0.491296
vn 0.754685 0.000000 -0.656087
vn 0.604327 0.000000 -0.796736
vn 0.604327 0.000000 -0.796736
vn 0.428396 0.000000 -0.903591
vn 0.238204 0.000000 -0.971215
vn 0.428396 0.000000 -0.903591
vn 0.238204 0.000000 -0.971215
vn 0.046501 0.000000 -0.998918
vn -0.136001 0.000000 -0.990709
vn 0.046501 0.000000 -0.998918
vn -0.136001 0.000000 -0.990709
vn -0.300102 0.000000 -0.953907
vn -0.300102 0.000000 -0.953907
vn -0.464213 0.000000 -0.885724
vn -0.619388 0.000000 -0.785085
vn -0.464213 0.000000 -0.885724
vn -0.619388 0.000000 -0.785085
vn -0.756171 0.000000 -0.654375
vn -0.866670 0.000000 -0.498883
vn -0.756171 0.000000 -0.654375
vn -0.866670 0.000000 -0.498883
vn -0.944815 0.000000 -0.327605
vn -0.988686 0.000000 -0.149998
vn -0.944815 0.000000 -0.327605
vn -0.988686 0.000000 -0.149998
vn -0.999702 0.000000 0.024400
vn -0.999702 0.000000 0.024400
vn -0.999702 0.000000 0.024400
vn 0.990709 0.000200 -0.136001
vn 0.998973 0.000000 -0.045299
vn 0.998978 0.000000 -0.045199
vn 0.998973 0.000000 -0.045299
vn 0.991396 0.000000 0.130899
vn 0.950311 0.000000 0.311303
vn 0.991396 0.000000 0.130899
vn 0.998978 0.000000 -0.045199
vn 0.950311 0.000000 0.311303
vn 0.873576 0.000000 0.486687
vn 0.873576 0.000000 0.486687
vn 0.764099 0.000000 0.645099
vn 0.626182 0.000000 0.779677
vn 0.764099 0.000000 0.645099
vn 0.626182 0.000000 0.779677
vn 0.469197 0.000000 0.883094
vn 0.469197 0.000000 0.883094
vn 0.302696 0.000000 0.953087
vn 0.302696 0.000000 0.953087
vn 0.136001 0.000000 0.990709
vn -0.046601 0.000000 0.998914
vn 0.136001 0.000000 0.990709
vn -0.046601 0.000000 0.998914
vn -0.238204 0.000000 0.971215
vn -0.428516 0.000000 0.903534
vn -0.238204 0.000000 0.971215
vn -0.428516 0.000000 0.903534
vn -0.604327 0.000000 0.796736
vn -0.754778 0.000000 0.655981
vn -0.604327 0.000000 0.796736
vn -0.754778 0.000000 0.655981
vn -0.871060 0.000000 0.491177
vn -0.949391 0.000000 0.314097
vn -0.871060 0.000000 0.491177
vn -0.949391 0.000000 0.314097
vn -0.990695 0.000000 0.136099
vn -0.990695 0.000000 0.136099
vn -0.990695 0.000000 0.136099
vn -0.990709 0.000000 0.136001
vn -0.990709 0.000000 0.136001
vn -0.999702 0.000000 0.024400
vn -0.999702 0.000000 0.024400
vn -0.999702 0.000000 0.024400
vn -0.990709 0.000000 0.136001
vn 1.000000 0.000000 0.000000
vn 1.000000 0.000000 0.000000
vn 1.000000 0.000000 0.000000
vn 1.000000 0.000000 0.000000
vn 0.000000 0.000000 -1.000000
vn 0.000000 0.000000 -1.000000
vn 0.000000 0.000000 -1.000000
vn 0.000000 0.000000 -1.000000
vn -1.000000 0.000000 0.000000
vn -1.000000 0.000000 0.000000
vn -1.000000 0.000000 0.000000
vn -1.000000 0.000000 0.000000
vn -0.000200 0.000000 -1.000000
vn -0.000200 0.000000 -1.000000
vn 0.161398 0.000000 -0.986889
vn 0.161398 0.000000 -0.986889
vn 0.320005 0.000000 -0.947416
vn 0.320005 0.000000 -0.947416
vn -0.925193 0.000000 0.379497
vn -0.876286 0.000000 0.481792
vn -0.876608 0.000000 0.481205
vn -0.925193 0.000000 0.379497
vn -0.876608 0.000000 0.481205
vn -0.815608 0.000000 0.578605
vn -0.815608 0.000000 0.578605
vn -0.662425 0.000000 0.749128
vn -0.662425 0.000000 0.749128
vn -0.475113 0.000000 0.879925
vn -0.475113 0.000000 0.879925
vn -0.266788 0.000000 0.963755
vn -0.040499 0.000000 0.999180
vn -0.266788 0.000000 0.963755
vn -0.040499 0.000000 0.999180
vn 0.188206 0.000000 0.982130
vn 0.188206 0.000000 0.982130
vn 0.298292 0.000000 0.954475
vn 0.297899 0.000000 0.954597
vn 0.403000 0.000000 0.915200
vn 0.403000 0.000000 0.915200
vn 0.298292 0.000000 0.954475
vn 0.188206 0.000000 0.982130
vn -0.815608 0.000000 0.578605
vn -0.342385 0.000000 -0.939560
vn -0.342417 0.000000 -0.939548
vn -0.504580 0.000000 -0.863365
vn -0.627508 0.000000 -0.778610
vn -0.504580 0.000000 -0.863365
vn -0.342385 0.000000 -0.939560
vn -0.627508 0.000000 -0.778610
vn -0.723805 0.000000 -0.690005
vn -0.802740 0.000000 -0.596330
vn -0.723902 0.000000 -0.689902
vn -0.802740 0.000000 -0.596330
vn -0.802740 0.000000 -0.596330
vn 0.381112 0.000000 -0.924529
vn 0.381112 0.000000 -0.924529
vn 0.454678 0.000000 -0.890656
vn 0.454678 0.000000 -0.890656
vn 0.454678 0.000000 -0.890656
vn 0.011200 0.000000 -0.999937
vn 0.052401 0.000000 -0.998626
vn 0.052401 0.000000 -0.998626
vn 0.011200 0.000000 -0.999937
vn 0.052302 0.000000 -0.998631
vn 0.011200 0.000000 -0.999937
vn 0.052302 0.000000 -0.998631
vn 0.095998 0.000000 -0.995382
vn 0.052401 0.000000 -0.998626
vn 0.095899 0.000000 -0.995391
vn 0.188996 0.000000 -0.981978
vn 0.188996 0.000000 -0.981978
vn 0.396718 0.000000 -0.917941
vn 0.396718 0.000000 -0.917941
vn 0.615912 0.000000 -0.787815
vn 0.615912 0.000000 -0.787815
vn 0.719889 0.000000 -0.694089
vn 0.811980 0.000000 -0.583686
vn 0.719987 0.000000 -0.693987
vn 0.719889 0.000000 -0.694089
vn 0.811980 0.000000 -0.583686
vn 0.615912 0.000000 -0.787815
vn 0.188996 0.000000 -0.981978
vn 0.095998 0.000000 -0.995382
vn 0.095899 0.000000 -0.995391
vn 0.095899 0.000000 -0.995391
vn 0.604614 0.000000 0.796519
vn 0.399307 0.000000 0.916817
vn 0.604614 0.000000 0.796519
vn 0.399307 0.000000 0.916817
vn 0.166798 0.000000 0.985991
vn 0.166798 0.000000 0.985991
vn -0.062602 0.000000 0.998039
vn -0.062602 0.000000 0.998039
vn -1.000000 0.000000 0.000000
vn -1.000000 0.000000 0.000000
vn -1.000000 0.000000 0.000000
vn -1.000000 0.000000 0.000000
vn 1.000000 0.000000 0.000000
vn 1.000000 0.000000 0.000000
vn 1.000000 0.000000 0.000000
vn 1.000000 0.000000 0.000000
vn 0.000000 0.000000 -1.000000
vn 0.000000 0.000000 -1.000000
vn 0.000000 0.000000 -1.000000
vn 0.000000 0.000000 -1.000000
vn 0.588790 0.000000 -0.808286
vn 0.765790 0.000000 -0.643091
vn 0.765427 0.000000 -0.643523
vn 0.588790 0.000000 -0.808286
vn 0.765790 0.000000 -0.643091
vn 0.896913 0.000000 -0.442207
vn 0.896913 0.000000 -0.442207
vn 0.976462 0.000000 -0.215692
vn 0.976462 0.000000 -0.215692
vn 0.999970 0.000000 0.007700
vn 0.999970 0.000000 0.007700
vn 0.976462 0.000000 -0.215692
vn 0.896913 0.000000 -0.442207
vn 0.999969 0.000000 0.007900
vn 0.974497 0.000000 0.224399
vn 0.974519 0.000000 0.224304
vn 0.999969 0.000000 0.007900
vn 0.974519 0.000000 0.224304
vn 0.896418 0.000000 0.443209
vn 0.896379 0.000000 0.443289
vn 0.771922 0.000000 0.635718
vn 0.604726 0.000000 0.796434
vn 0.771783 0.000000 0.635886
vn 0.771922 0.000000 0.635718
vn 0.604726 0.000000 0.796434
vn 0.896418 0.000000 0.443209
vn -0.925228 0.000000 0.379412
vn -0.999970 0.000000 -0.007800
vn -0.925228 0.000000 0.379412
vn -0.999970 0.000000 -0.007800
vn -0.908812 0.000000 -0.417206
vn -0.908812 0.000000 -0.417206
vn -0.655817 0.000000 -0.754920
vn -0.655817 0.000000 -0.754920
vn -0.292490 0.000000 -0.956268
vn -0.292490 0.000000 -0.956268
vn 0.093096 0.000000 -0.995657
vn 0.093096 0.000000 -0.995657
vn 0.483400 0.000000 -0.875400
vn 0.483400 0.000000 -0.875400
vn 0.000000 -1.000000 0.000000
vn 0.000000 -1.000000 0.000000
vn 0.000000 -1.000000 0.000000
vn 0.000000 -1.000000 0.000000
vn 0.000000 -1.000000 0.000000
vn 0.000000 -1.000000 0.000000
vn 0.000000 -1.000000 0.000000
vn 0.000000 -1.000000 0.000000
vn 0.000000 -1.000000 0.000000
vn 0.000000 -1.000000 0.000000
vn 0.000000 -1.000000 0.000000
vn 0.000000 -1.000000 0.000000
vn 0.000000 -1.000000 0.000000
vn 0.000000 -1.000000 0.000000
vn 0.000000 -1.000000 0.000000
vn 0.000000 -1.000000 0.000000
vn 0.000000 -1.000000 0.000000
vn 0.000000 -1.000000 0.000000
vn 0.000000 -1.000000 0.000000
vn 0.000000 -1.000000 0.000000
vn 0.000000 -1.000000 0.000000
vn 0.000000 -1.000000 0.000000
vn 0.000000 -1.000000 0.000000
vn 0.000000 -1.000000 0.000000
vn 0.000000 -1.000000 0.000000
vn 0.000000 -1.000000 0.000000
vn 0.000000 -1.000000 0.000000
vn 0.000000 -1.000000 0.000000
vn 0.000000 -1.000000 0.000000
vn 0.000000 -1.000000 0.000000
vn 0.000000 -1.000000 0.000000
vn 0.000000 -1.000000 0.000000
vn 0.000000 -1.000000 0.000000
vn 0.000000 -1.000000 0.000000
vn 0.000000 -1.000000 0.000000
vn 0.000000 -1.000000 0.000000
vn 0.000000 -1.000000 0.000000
vn 0.000000 -1.000000 0.000000
vn 0.000000 -1.000000 0.000000
vn 0.000000 -1.000000 0.000000
vn 0.000000 -1.000000 0.000000
vn 0.000000 -1.000000 0.000000
vn 0.000000 -1.000000 0.000000
vn 0.000000 -1.000000 0.000000
vn 0.000000 -1.000000 0.000000
vn 0.000000 -1.000000 0.000000
vn 0.000000 -1.000000 0.000000
vn 0.000000 -1.000000 0.000000
vn 0.000000 -1.000000 0.000000
vn 0.000000 -1.000000 0.000000
vn 0.000000 -1.000000 0.000000
f 1//1 2//2 4//4
f 1//1 3//3 2//2
f 1//1 5//5 3//3
f 7//7 5//5 6//6
f 7//7 3//3 5//5
f 7//7 6//6 8//8
f 9//9 8//8 10//10
f 6//6 10//10 8//8
f 10//10 11//11 9//9
f 10//10 12//12 11//11
f 11//11 12//12 13//13
f 15//15 11//11 14//14
f 9//9 11//11 15//15
f 14//14 16//16 15//15
f 16//16 14//14 17//17
f 18//18 20//20 17//17
f 14//14 18//18 17//17
f 19//19 17//17 20//20
f 21//21 19//19 20//20
f 22//22 23//23 21//21
f 21//21 23//23 19//19
f 23//23 22//22 24//24
f 24//24 26//26 25//25
f 24//24 22//22 26//26
f 25//25 26//26 27//27
f 30//30 27//27 28//28
f 29//29 25//25 27//27
f 27//27 30//30 29//29
f 28//28 31//31 30//30
f 32//32 31//31 28//28
f 32//32 33//33 34//34
f 33//33 32//32 28//28
f 33//33 35//35 34//34
f 4//4 35//35 36//36
f 4//4 2//2 35//35
f 36//36 35//35 33//33
f 28//28 38//38 33//33
f 33//33 38//38 37//37
f 39//39 37//37 38//38
f 39//39 40//40 37//37
f 39//39 41//41 40//40
f 43//43 42//42 41//41
f 44//44 41//41 42//42
f 41//41 45//45 43//43
f 40//40 41//41 44//44
f 43//43 45//45 46//46
f 47//47 46//46 45//45
f 44//44 42//42 48//48
f 49//49 48//48 42//42
f 49//49 50//50 48//48
f 48//48 50//50 51//51
f 53//53 52//52 54//54
f 53//53 54//54 55//55
f 53//53 55//55 56//56
f 57//57 59//59 56//56
f 57//57 56//56 55//55
f 58//58 60//60 59//59
f 58//58 59//59 57//57
f 62//62 61//61 60//60
f 62//62 60//60 58//58
f 65//65 63//63 61//61
f 65//65 61//61 62//62
f 66//66 64//64 63//63
f 66//66 63//63 65//65
f 67//67 69//69 64//64
f 67//67 64//64 66//66
f 69//69 67//67 68//68
f 69//69 68//68 70//70
f 72//72 71//71 70//70
f 72//72 70//70 68//68
f 75//75 73//73 71//71
f 75//75 71//71 72//72
f 76//76 74//74 73//73
f 76//76 73//73 75//75
f 77//77 79//79 74//74
f 77//77 74//74 76//76
f 78//78 80//80 79//79
f 78//78 79//79 77//77
f 83//83 81//81 80//80
f 83//83 80//80 78//78
f 84//84 82//82 81//81
f 84//84 81//81 83//83
f 86//86 84//84 85//85
f 84//84 86//86 82//82
f 82//82 86//86 87//87
f 53//53 56//56 88//88
f 53//53 88//88 89//89
f 91//91 90//90 92//92
f 94//94 92//92 93//93
f 94//94 93//93 96//96
f 91//91 92//92 94//94
f 91//91 94//94 95//95
f 96//96 93//93 98//98
f 96//96 98//98 97//97
f 97//97 98//98 101//101
f 97//97 101//101 99//99
f 99//99 101//101 102//102
f 99//99 102//102 100//100
f 100//100 102//102 103//103
f 100//100 103//103 104//104
f 104//104 103//103 105//105
f 104//104 105//105 106//106
f 107//107 109//109 106//106
f 107//107 106//106 105//105
f 109//109 107//107 108//108
f 109//109 108//108 110//110
f 110//110 108//108 113//113
f 110//110 113//113 111//111
f 111//111 113//113 114//114
f 111//111 114//114 112//112
f 112//112 114//114 115//115
f 112//112 115//115 117//117
f 117//117 115//115 116//116
f 117//117 116//116 118//118
f 118//118 116//116 121//121
f 118//118 121//121 119//119
f 119//119 121//121 122//122
f 119//119 122//122 120//120
f 124//124 120//120 122//122
f 124//124 122//122 123//123
f 124//124 125//125 120//120
f 126//126 128//128 129//129
f 126//126 129//129 127//127
f 127//127 129//129 130//130
f 127//127 130//130 131//131
f 133//133 132//132 134//134
f 133//133 134//134 135//135
f 137//137 136//136 138//138
f 137//137 138//138 139//139
f 141//141 140//140 142//142
f 141//141 142//142 143//143
f 145//145 144//144 146//146
f 145//145 146//146 147//147
f 148//148 149//149 147//147
f 148//148 147//147 146//146
f 150//150 151//151 153//153
f 151//151 150//150 152//152
f 154//154 153//153 151//151
f 155//155 154//154 151//151
f 155//155 151//151 156//156
f 157//157 155//155 156//156
f 159//159 157//157 158//158
f 159//159 158//158 160//160
f 158//158 157//157 156//156
f 161//161 159//159 160//160
f 161//161 160//160 163//163
f 162//162 161//161 163//163
f 162//162 163//163 164//164
f 162//162 164//164 165//165
f 164//164 166//166 165//165
f 168//168 165//165 166//166
f 168//168 166//166 167//167
f 168//168 167//167 169//169
f 169//169 170//170 168//168
f 171//171 168//168 170//170
f 171//171 172//172 165//165
f 171//171 165//165 168//168
f 165//165 172//172 162//162
f 156//156 173//173 158//158
f 156//156 151//151 152//152
f 156//156 152//152 173//173
f 175//175 174//174 176//176
f 177//177 180//180 178//178
f 177//177 178//178 176//176
f 176//176 178//178 175//175
f 179//179 175//175 178//178
f 180//180 177//177 183//183
f 180//180 183//183 181//181
f 182//182 184//184 181//181
f 181//181 183//183 182//182
f 182//182 183//183 185//185
f 187//187 186//186 188//188
f 187//187 188//188 190//190
f 186//186 189//189 188//188
f 194//194 191//191 192//192
f 194//194 192//192 195//195
f 192//192 191//191 193//193
f 195//195 197//197 194//194
f 196//196 194//194 197//197
f 196//196 197//197 199//199
f 198//198 197//197 195//195
f 198//198 195//195 216//216
f 200//200 199//199 197//197
f 200//200 197//197 198//198
f 201//201 200//200 198//198
f 202//202 201//201 198//198
f 203//203 201//201 202//202
f 203//203 204//204 205//205
f 204//204 203//203 202//202
f 205//205 206//206 203//203
f 207//207 206//206 205//205
f 207//207 205//205 209//209
f 207//207 209//209 208//208
f 209//209 210//210 211//211
f 209//209 205//205 212//212
f 209//209 212//212 210//210
f 208//208 209//209 211//211
f 204//204 212//212 205//205
f 202//202 213//213 204//204
f 213//213 202//202 214//214
f 214//214 215//215 213//213
f 214//214 192//192 193//193
f 214//214 193//193 215//215
f 216//216 195//195 192//192
f 216//216 192//192 214//214
f 202//202 216//216 214//214
f 198//198 216//216 202//202
f 220//220 218//218 217//217
f 220//220 217//217 219//219
f 222//222 218//218 220//220
f 222//222 220//220 221//221
f 223//223 224//224 222//222
f 223//223 222//222 221//221
f 226//226 225//225 227//227
f 226//226 227//227 228//228
f 230//230 229//229 231//231
f 230//230 231//231 232//232
f 234//234 233//233 235//235
f 234//234 235//235 236//236
f 238//238 237//237 239//239
f 240//240 239//239 237//237
f 239//239 240//240 241//241
f 243//243 239//239 241//241
f 243//243 241//241 242//242
f 245//245 243//243 242//242
f 245//245 242//242 244//244
f 245//245 244//244 246//246
f 246//246 247//247 245//245
f 248//248 245//245 247//247
f 248//248 249//249 243//243
f 248//248 243//243 245//245
f 249//249 238//238 239//239
f 249//249 239//239 243//243
f 250//250 251//251 253//253
f 251//251 250//250 252//252
f 254//254 253//253 251//251
f 255//255 254//254 251//251
f 255//255 251//251 256//256
f 257//257 255//255 256//256
f 257//257 256//256 259//259
f 257//257 259//259 258//258
f 261//261 258//258 259//259
f 259//259 256//256 262//262
f 259//259 262//262 260//260
f 259//259 260//260 261//261
f 256//256 251//251 252//252
f 256//256 252//252 262//262
f 266//266 264//264 263//263
f 266//266 263//263 265//265
f 268//268 264//264 266//266
f 268//268 266//266 267//267
f 270//270 268//268 267//267
f 270//270 267//267 269//269
f 272//272 270//270 269//269
f 272//272 269//269 271//271
f 274//274 272//272 271//271
f 274//274 271//271 273//273
f 275//275 276//276 274//274
f 275//275 274//274 273//273
f 277//277 278//278 281//281
f 277//277 279//279 278//278
f 277//277 280//280 279//279
f 283//283 282//282 281//281
f 283//283 281//281 278//278
f 283//283 284//284 282//282
f 282//282 284//284 286//286
f 285//285 286//286 284//284
f 286//286 285//285 287//287
f 286//286 287//287 288//288
f 287//287 289//289 288//288
f 291//291 290//290 287//287
f 285//285 291//291 287//287
f 290//290 291//291 292//292
f 292//292 293//293 290//290
f 295//295 293//293 294//294
f 296//296 294//294 293//293
f 290//290 293//293 295//295
f 297//297 294//294 296//296
f 297//297 296//296 298//298
f 300//300 297//297 298//298
f 298//298 299//299 300//300
f 299//299 301//301 300//300
f 303//303 302//302 301//301
f 299//299 303//303 301//301
f 304//304 302//302 303//303
f 302//302 304//304 305//305
f 307//307 305//305 306//306
f 305//305 307//307 302//302
f 307//307 309//309 308//308
f 310//310 307//307 306//306
f 309//309 307//307 310//310
f 310//310 311//311 309//309
f 309//309 311//311 312//312
f 280//280 313//313 312//312
f 280//280 312//312 279//279
f 313//313 309//309 312//312
f 309//309 314//314 308//308
f 315//315 308//308 314//314
f 315//315 314//314 316//316
f 315//315 316//316 317//317
f 316//316 318//318 317//317
f 318//318 319//319 317//317
f 318//318 320//320 319//319
f 321//321 319//319 320//320
f 321//321 320//320 322//322
f 320//320 323//323 322//322
f 324//324 317//317 319//319
f 317//317 324//324 325//325
f 324//324 326//326 325//325
f 327//327 325//325 326//326
