# arm_38 exported from /models/landings/arm_38.glb
# units: meters
v 0.012176 -0.001000 -0.008067
v 0.010250 -0.001000 -0.007687
v 0.008554 -0.001000 -0.006545
v 0.007453 -0.001000 -0.004840
v 0.007106 -0.001000 -0.002997
v 0.012176 0.001000 -0.008067
v 0.010250 0.001000 -0.007687
v 0.008554 0.001000 -0.006545
v 0.007453 0.001000 -0.004840
v 0.007106 0.001000 -0.002997
v 0.007106 -0.000000 -0.002997
v 0.012176 -0.000000 -0.008067
v -0.010691 -0.001000 0.014218
v -0.019343 -0.001000 0.014218
v -0.027995 -0.001000 0.014218
v -0.027995 0.001000 0.014218
v -0.010691 0.001000 0.014218
v -0.027995 -0.001000 0.014218
v -0.027995 -0.001000 0.006218
v -0.027995 0.001000 0.014218
v -0.027995 0.001000 0.006218
v -0.000908 -0.001000 -0.000982
v -0.000898 -0.001000 -0.001041
v -0.000908 -0.000000 -0.000982
v -0.000898 -0.000000 -0.001041
v -0.000908 0.001000 -0.000982
v -0.000898 0.001000 -0.001041
v -0.000898 0.000750 -0.001041
v -0.000898 0.000500 -0.001041
v -0.000898 0.000250 -0.001041
v -0.000898 -0.000250 -0.001041
v -0.000898 -0.000500 -0.001041
v -0.000898 -0.000750 -0.001041
v -0.000908 -0.000750 -0.000982
v -0.000908 -0.000500 -0.000982
v -0.000908 -0.000250 -0.000982
v -0.000908 0.000250 -0.000982
v -0.000908 0.000500 -0.000982
v -0.000908 0.000750 -0.000982
v -0.000898 -0.001000 -0.001041
v -0.000729 -0.001000 -0.004597
v -0.000898 0.001000 -0.001041
v -0.000729 0.001000 -0.004597
v -0.000898 -0.000750 -0.001041
v -0.000898 -0.000500 -0.001041
v -0.000898 -0.000250 -0.001041
v -0.000898 -0.000000 -0.001041
v -0.000898 0.000250 -0.001041
v -0.000898 0.000500 -0.001041
v -0.000898 0.000750 -0.001041
v -0.000813 -0.000000 -0.002819
v -0.000856 -0.000000 -0.001930
v -0.000813 -0.000500 -0.002819
v -0.000856 -0.000500 -0.001930
v -0.000813 0.000500 -0.002819
v -0.000856 0.000500 -0.001930
v -0.000729 0.000900 -0.004597
v -0.000729 0.000800 -0.004597
v -0.000729 0.000700 -0.004597
v -0.000729 0.000600 -0.004597
v -0.000729 0.000500 -0.004597
v -0.000729 0.000400 -0.004597
v -0.000729 0.000300 -0.004597
v -0.000729 0.000200 -0.004597
v -0.000729 0.000100 -0.004597
v -0.000729 -0.000000 -0.004597
v -0.000729 -0.000100 -0.004597
v -0.000729 -0.000200 -0.004597
v -0.000729 -0.000300 -0.004597
v -0.000729 -0.000400 -0.004597
v -0.000729 -0.000500 -0.004597
v -0.000729 -0.000600 -0.004597
v -0.000729 -0.000700 -0.004597
v -0.000729 -0.000800 -0.004597
v -0.000729 -0.000900 -0.004597
v -0.000771 -0.000000 -0.003708
v -0.000771 0.000500 -0.003708
v -0.000750 0.000500 -0.004153
v -0.000771 0.000750 -0.003708
v -0.000750 0.000750 -0.004153
v -0.000739 0.000750 -0.004375
v -0.000750 0.000875 -0.004153
v -0.000739 0.000875 -0.004375
v -0.000739 0.000500 -0.004375
v -0.000750 0.000625 -0.004153
v -0.000739 0.000625 -0.004375
v -0.000750 -0.000000 -0.004153
v -0.000771 0.000250 -0.003708
v -0.000750 0.000250 -0.004153
v -0.000771 -0.000500 -0.003708
v -0.000739 0.000250 -0.004375
v -0.000750 0.000375 -0.004153
v -0.000739 0.000375 -0.004375
v -0.000739 -0.000000 -0.004375
v -0.000750 0.000125 -0.004153
v -0.000739 0.000125 -0.004375
v -0.000750 -0.000500 -0.004153
v -0.000771 -0.000250 -0.003708
v -0.000750 -0.000250 -0.004153
v -0.000739 -0.000250 -0.004375
v -0.000750 -0.000125 -0.004153
v -0.000739 -0.000125 -0.004375
v -0.000739 -0.000500 -0.004375
v -0.000750 -0.000375 -0.004153
v -0.000739 -0.000375 -0.004375
v -0.000771 -0.000750 -0.003708
v -0.000750 -0.000750 -0.004153
v -0.000739 -0.000750 -0.004375
v -0.000750 -0.000625 -0.004153
v -0.000739 -0.000625 -0.004375
v -0.000750 -0.000875 -0.004153
v -0.000739 -0.000875 -0.004375
v -0.000729 -0.001000 -0.004597
v -0.000729 -0.001000 -0.004621
v -0.000729 -0.000200 -0.004621
v -0.000729 0.001000 -0.004597
v -0.000729 0.001000 -0.004621
v -0.000729 -0.000900 -0.004597
v -0.000729 -0.000800 -0.004597
v -0.000729 -0.000700 -0.004597
v -0.000729 -0.000600 -0.004597
v -0.000729 -0.000500 -0.004597
v -0.000729 -0.000400 -0.004597
v -0.000729 -0.000300 -0.004597
v -0.000729 -0.000200 -0.004597
v -0.000729 -0.000100 -0.004597
v -0.000729 -0.000000 -0.004597
v -0.000729 0.000100 -0.004597
v -0.000729 0.000200 -0.004597
v -0.000729 0.000300 -0.004597
v -0.000729 0.000400 -0.004597
v -0.000729 0.000500 -0.004597
v -0.000729 0.000600 -0.004597
v -0.000729 0.000700 -0.004597
v -0.000729 0.000800 -0.004597
v -0.000729 0.000900 -0.004597
v -0.000729 0.000900 -0.004621
v -0.000729 0.000800 -0.004621
v -0.000729 0.000700 -0.004621
v -0.000729 0.000600 -0.004621
v -0.000729 0.000500 -0.004621
v -0.000729 0.000400 -0.004621
v -0.000729 0.000300 -0.004621
v -0.000729 0.000200 -0.004621
v -0.000729 0.000100 -0.004621
v -0.000729 -0.000000 -0.004621
v -0.000729 -0.000100 -0.004621
v -0.000729 -0.000300 -0.004621
v -0.000729 -0.000400 -0.004621
v -0.000729 -0.000500 -0.004621
v -0.000729 -0.000600 -0.004621
v -0.000729 -0.000700 -0.004621
v -0.000729 -0.000800 -0.004621
v -0.000729 -0.000900 -0.004621
v -0.000729 -0.001000 -0.004621
v -0.000549 -0.001000 -0.006524
v -0.000020 -0.001000 -0.008360
v 0.000831 -0.001000 -0.010072
v 0.001962 -0.001000 -0.011614
v 0.003309 -0.001000 -0.012935
v 0.004884 -0.001000 -0.014063
v 0.006586 -0.001000 -0.014936
v 0.008392 -0.001000 -0.015563
v 0.010267 -0.001000 -0.015941
v 0.012176 -0.001000 -0.016067
v -0.000729 0.001000 -0.004621
v -0.000549 0.001000 -0.006524
v -0.000020 0.001000 -0.008360
v 0.000831 0.001000 -0.010072
v 0.001962 0.001000 -0.011614
v 0.003309 0.001000 -0.012935
v 0.004884 0.001000 -0.014063
v 0.006586 0.001000 -0.014936
v 0.008392 0.001000 -0.015563
v 0.010267 0.001000 -0.015941
v 0.012176 0.001000 -0.016067
v -0.000729 -0.000900 -0.004621
v -0.000729 -0.000800 -0.004621
v -0.000729 -0.000700 -0.004621
v -0.000729 -0.000600 -0.004621
v -0.000729 -0.000500 -0.004621
v -0.000729 -0.000400 -0.004621
v -0.000729 -0.000300 -0.004621
v -0.000729 -0.000200 -0.004621
v -0.000729 -0.000100 -0.004621
v -0.000729 -0.000000 -0.004621
v -0.000729 0.000100 -0.004621
v -0.000729 0.000200 -0.004621
v -0.000729 0.000300 -0.004621
v -0.000729 0.000400 -0.004621
v -0.000729 0.000500 -0.004621
v -0.000729 0.000600 -0.004621
v -0.000729 0.000700 -0.004621
v -0.000729 0.000800 -0.004621
v -0.000729 0.000900 -0.004621
v -0.000683 -0.000000 -0.005576
v -0.000717 -0.000000 -0.005099
v -0.000683 -0.000500 -0.005576
v -0.000717 -0.000500 -0.005099
v -0.000726 -0.000500 -0.004860
v -0.000717 -0.000750 -0.005099
v -0.000726 -0.000750 -0.004860
v -0.000726 -0.000000 -0.004860
v -0.000717 -0.000250 -0.005099
v -0.000726 -0.000250 -0.004860
v -0.000683 0.000500 -0.005576
v -0.000717 0.000500 -0.005099
v -0.000726 0.000500 -0.004860
v -0.000717 0.000250 -0.005099
v -0.000726 0.000250 -0.004860
v -0.000717 0.000750 -0.005099
v -0.000726 0.000750 -0.004860
v 0.012176 -0.000000 -0.016067
v 0.012176 -0.001000 -0.016067
v 0.023732 -0.001000 -0.016067
v 0.012176 0.001000 -0.016067
v 0.023732 0.001000 -0.016067
v 0.012176 -0.000000 -0.016067
v 0.017954 -0.000000 -0.016067
v 0.015065 -0.000000 -0.016067
v 0.017954 -0.000500 -0.016067
v 0.015065 -0.000500 -0.016067
v 0.017954 0.000500 -0.016067
v 0.015065 0.000500 -0.016067
v 0.023732 -0.000000 -0.016067
v 0.020843 -0.000000 -0.016067
v 0.020843 0.000500 -0.016067
v 0.020843 -0.000500 -0.016067
v 0.023732 -0.001000 -0.016067
v 0.025252 -0.001000 -0.015767
v 0.026590 -0.001000 -0.014866
v 0.027459 -0.001000 -0.013521
v 0.027732 -0.001000 -0.012067
v 0.027433 -0.001000 -0.010547
v 0.026531 -0.001000 -0.009209
v 0.025186 -0.001000 -0.008341
v 0.023732 -0.001000 -0.008067
v 0.023732 0.001000 -0.016067
v 0.025252 0.001000 -0.015767
v 0.026590 0.001000 -0.014866
v 0.027459 0.001000 -0.013521
v 0.027732 0.001000 -0.012067
v 0.027433 0.001000 -0.010547
v 0.026531 0.001000 -0.009209
v 0.025186 0.001000 -0.008341
v 0.023732 0.001000 -0.008067
v 0.023732 -0.000000 -0.016067
v 0.023732 -0.000000 -0.008067
v 0.007106 -0.001000 -0.002997
v 0.007106 -0.001000 -0.000010
v 0.007106 0.001000 -0.002997
v 0.007106 0.001000 -0.000010
v 0.007106 -0.000000 -0.002997
v 0.007106 -0.000000 -0.000010
v 0.007106 -0.001000 -0.000010
v 0.006968 -0.001000 0.001774
v 0.006559 -0.001000 0.003516
v 0.005907 -0.001000 0.005162
v 0.005013 -0.001000 0.006733
v 0.003932 -0.001000 0.008159
v 0.002684 -0.001000 0.009442
v 0.001298 -0.001000 0.010575
v -0.000200 -0.001000 0.011555
v -0.001788 -0.001000 0.012380
v -0.003448 -0.001000 0.013051
v -0.005161 -0.001000 0.013569
v 0.007106 0.001000 -0.000010
v 0.006968 0.001000 0.001774
v 0.006559 0.001000 0.003516
v 0.005907 0.001000 0.005162
v 0.005013 0.001000 0.006733
v 0.003932 0.001000 0.008159
v 0.002684 0.001000 0.009442
v 0.001298 0.001000 0.010575
v -0.000200 0.001000 0.011555
v -0.001788 0.001000 0.012380
v -0.003448 0.001000 0.013051
v -0.005161 0.001000 0.013569
v -0.006914 0.001000 0.013936
v -0.008691 0.001000 0.014152
v 0.007106 -0.000000 -0.000010
v -0.008691 -0.000000 0.014152
v -0.008691 -0.001000 0.014152
v -0.027995 -0.001000 0.006218
v -0.019185 -0.001000 0.006218
v -0.010374 -0.001000 0.006218
v -0.027995 0.001000 0.006218
v -0.019185 0.001000 0.006218
v -0.010374 0.001000 0.006218
v -0.010374 -0.000000 0.006218
v -0.014780 -0.000000 0.006218
v -0.012577 -0.000000 0.006218
v -0.014780 0.000500 0.006218
v -0.012577 0.000500 0.006218
v -0.014780 -0.000500 0.006218
v -0.012577 -0.000500 0.006218
v -0.010374 -0.001000 0.006218
v -0.008759 -0.001000 0.006084
v -0.007267 -0.001000 0.005723
v -0.005690 -0.001000 0.005070
v -0.004360 -0.001000 0.004254
v -0.003141 -0.001000 0.003209
v -0.002121 -0.001000 0.001969
v -0.001356 -0.001000 0.000558
v -0.000908 -0.001000 -0.000982
v -0.010374 0.001000 0.006218
v -0.008759 0.001000 0.006084
v -0.007267 0.001000 0.005723
v -0.005690 0.001000 0.005070
v -0.004360 0.001000 0.004254
v -0.003141 0.001000 0.003209
v -0.002121 0.001000 0.001969
v -0.001356 0.001000 0.000558
v -0.000908 0.001000 -0.000982
v -0.010374 -0.000000 0.006218
v -0.000908 0.000750 -0.000982
v -0.000908 0.000500 -0.000982
v -0.000908 0.000250 -0.000982
v -0.000908 -0.000000 -0.000982
v -0.000908 -0.000250 -0.000982
v -0.000908 -0.000500 -0.000982
v -0.000908 -0.000750 -0.000982
v -0.001088 -0.000000 -0.000199
v -0.000987 -0.000000 -0.000588
v -0.001088 0.000500 -0.000199
v -0.000987 0.000500 -0.000588
v -0.001088 -0.000500 -0.000199
v -0.000987 -0.000500 -0.000588
v -0.024738 -0.001000 0.011934
v -0.026404 -0.001000 0.010220
v -0.024738 0.001000 0.011934
v -0.026404 0.001000 0.010220
v -0.026287 -0.001000 0.010851
v -0.025916 -0.001000 0.011432
v -0.025351 -0.001000 0.011813
v -0.025351 0.001000 0.011813
v -0.025916 0.001000 0.011432
v -0.026287 0.001000 0.010851
v -0.026404 -0.000000 0.010220
v -0.024738 -0.000000 0.011934
v -0.026404 -0.001000 0.010220
v -0.024738 -0.001000 0.008507
v -0.026404 0.001000 0.010220
v -0.024738 0.001000 0.008507
v -0.025351 -0.001000 0.008628
v -0.025916 -0.001000 0.009009
v -0.026287 -0.001000 0.009590
v -0.026287 0.001000 0.009590
v -0.025916 0.001000 0.009009
v -0.025351 0.001000 0.008628
v -0.026404 -0.000000 0.010220
v -0.024738 -0.000000 0.008507
v -0.024738 -0.001000 0.008507
v -0.019866 -0.001000 0.008507
v -0.024738 0.001000 0.008507
v -0.019866 0.001000 0.008507
v -0.022302 -0.001000 0.008507
v -0.022302 0.001000 0.008507
v -0.024738 -0.000000 0.008507
v -0.019866 -0.000000 0.008507
v -0.019866 -0.001000 0.008507
v -0.018201 -0.001000 0.010220
v -0.019866 -0.001000 0.011934
v -0.019866 0.001000 0.008507
v -0.018201 0.001000 0.010220
v -0.019866 0.001000 0.011934
v -0.019253 -0.001000 0.011813
v -0.018689 -0.001000 0.011432
v -0.018318 -0.001000 0.010851
v -0.018318 -0.001000 0.009590
v -0.018689 -0.001000 0.009009
v -0.019253 -0.001000 0.008628
v -0.019253 0.001000 0.008628
v -0.018689 0.001000 0.009009
v -0.018318 0.001000 0.009590
v -0.018318 0.001000 0.010851
v -0.018689 0.001000 0.011432
v -0.019253 0.001000 0.011813
v -0.019866 -0.000000 0.008507
v -0.019866 -0.000000 0.011934
v -0.019866 -0.001000 0.011934
v -0.024738 -0.001000 0.011934
v -0.019866 0.001000 0.011934
v -0.024738 0.001000 0.011934
v -0.022302 -0.001000 0.011934
v -0.022302 0.001000 0.011934
v -0.019866 -0.000000 0.011934
v -0.024738 -0.000000 0.011934
v -0.006469 -0.001000 0.008935
v -0.006469 0.001000 0.008935
v -0.006469 -0.001000 0.008935
v -0.006333 -0.001000 0.009650
v -0.005901 -0.001000 0.010308
v -0.005243 -0.001000 0.010740
v -0.004528 -0.001000 0.010876
v -0.003813 -0.001000 0.010740
v -0.003155 -0.001000 0.010308
v -0.002723 -0.001000 0.009650
v -0.002587 -0.001000 0.008935
v -0.002723 -0.001000 0.008221
v -0.003155 -0.001000 0.007562
v -0.003813 -0.001000 0.007130
v -0.004528 -0.001000 0.006994
v -0.005243 -0.001000 0.007130
v -0.005901 -0.001000 0.007562
v -0.006333 -0.001000 0.008221
v -0.006469 0.001000 0.008935
v -0.006333 0.001000 0.008221
v -0.005901 0.001000 0.007562
v -0.005243 0.001000 0.007130
v -0.004528 0.001000 0.006994
v -0.003813 0.001000 0.007130
v -0.003155 0.001000 0.007562
v -0.002723 0.001000 0.008221
v -0.002587 0.001000 0.008935
v -0.002723 0.001000 0.009650
v -0.003155 0.001000 0.010308
v -0.003813 0.001000 0.010740
v -0.004528 0.001000 0.010876
v -0.005243 0.001000 0.010740
v -0.005901 0.001000 0.010308
v -0.006333 0.001000 0.009650
v -0.000668 -0.001000 0.004218
v -0.000668 0.001000 0.004218
v -0.000668 -0.001000 0.004218
v -0.000531 -0.001000 0.004932
v -0.000099 -0.001000 0.005591
v 0.000559 -0.001000 0.006023
v 0.001274 -0.001000 0.006159
v 0.001988 -0.001000 0.006023
v 0.002646 -0.001000 0.005591
v 0.003079 -0.001000 0.004932
v 0.003215 -0.001000 0.004218
v 0.003079 -0.001000 0.003503
v 0.002646 -0.001000 0.002845
v 0.001988 -0.001000 0.002413
v 0.001274 -0.001000 0.002277
v 0.000559 -0.001000 0.002413
v -0.000099 -0.001000 0.002845
v -0.000531 -0.001000 0.003503
v -0.000668 0.001000 0.004218
v -0.000531 0.001000 0.003503
v -0.000099 0.001000 0.002845
v 0.000559 0.001000 0.002413
v 0.001274 0.001000 0.002277
v 0.001988 0.001000 0.002413
v 0.002646 0.001000 0.002845
v 0.003079 0.001000 0.003503
v 0.003215 0.001000 0.004218
v 0.003079 0.001000 0.004932
v 0.002646 0.001000 0.005591
v 0.001988 0.001000 0.006023
v 0.001274 0.001000 0.006159
v 0.000559 0.001000 0.006023
v -0.000099 0.001000 0.005591
v -0.000531 0.001000 0.004932
v 0.004845 -0.001000 -0.002221
v 0.003165 -0.001000 -0.000580
v 0.001486 -0.001000 -0.002221
v 0.004845 0.001000 -0.002221
v 0.003165 0.001000 -0.000580
v 0.001486 0.001000 -0.002221
v 0.001604 -0.001000 -0.001617
v 0.001978 -0.001000 -0.001060
v 0.002547 -0.001000 -0.000695
v 0.003783 -0.001000 -0.000695
v 0.004353 -0.001000 -0.001060
v 0.004727 -0.001000 -0.001617
v 0.004727 0.001000 -0.001617
v 0.004353 0.001000 -0.001060
v 0.003783 0.001000 -0.000695
v 0.002547 0.001000 -0.000695
v 0.001978 0.001000 -0.001060
v 0.001604 0.001000 -0.001617
v 0.001486 -0.000000 -0.002221
v 0.004845 -0.000000 -0.002221
v 0.001486 -0.001000 -0.002221
v 0.001486 -0.001000 -0.006987
v 0.001486 0.001000 -0.002221
v 0.001486 0.001000 -0.006987
v 0.001486 -0.001000 -0.004604
v 0.001486 0.001000 -0.004604
v 0.001486 -0.000000 -0.002221
v 0.001486 -0.000000 -0.006987
v 0.001486 -0.001000 -0.006987
v 0.003165 -0.001000 -0.008628
v 0.004845 -0.001000 -0.006987
v 0.001486 0.001000 -0.006987
v 0.003165 0.001000 -0.008628
v 0.004845 0.001000 -0.006987
v 0.004727 -0.001000 -0.007591
v 0.004353 -0.001000 -0.008148
v 0.003783 -0.001000 -0.008513
v 0.002547 -0.001000 -0.008513
v 0.001978 -0.001000 -0.008148
v 0.001604 -0.001000 -0.007591
v 0.001604 0.001000 -0.007591
v 0.001978 0.001000 -0.008148
v 0.002547 0.001000 -0.008513
v 0.003783 0.001000 -0.008513
v 0.004353 0.001000 -0.008148
v 0.004727 0.001000 -0.007591
v 0.001486 -0.000000 -0.006987
v 0.004845 -0.000000 -0.006987
v 0.004845 -0.001000 -0.006987
v 0.004845 -0.001000 -0.002221
v 0.004845 0.001000 -0.006987
v 0.004845 0.001000 -0.002221
v 0.004845 -0.001000 -0.004604
v 0.004845 0.001000 -0.004604
v 0.004845 -0.000000 -0.006987
v 0.004845 -0.000000 -0.002221
v 0.006219 -0.001000 -0.011108
v 0.006219 0.001000 -0.011108
v 0.006219 -0.001000 -0.011108
v 0.006356 -0.001000 -0.010394
v 0.006788 -0.001000 -0.009736
v 0.007446 -0.001000 -0.009303
v 0.008161 -0.001000 -0.009167
v 0.008875 -0.001000 -0.009303
v 0.009533 -0.001000 -0.009736
v 0.009966 -0.001000 -0.010394
v 0.010102 -0.001000 -0.011108
v 0.009966 -0.001000 -0.011823
v 0.009533 -0.001000 -0.012481
v 0.008875 -0.001000 -0.012913
v 0.008161 -0.001000 -0.013050
v 0.007446 -0.001000 -0.012913
v 0.006788 -0.001000 -0.012481
v 0.006356 -0.001000 -0.011823
v 0.006219 0.001000 -0.011108
v 0.006356 0.001000 -0.011823
v 0.006788 0.001000 -0.012481
v 0.007446 0.001000 -0.012913
v 0.008161 0.001000 -0.013050
v 0.008875 0.001000 -0.012913
v 0.009533 0.001000 -0.012481
v 0.009966 0.001000 -0.011823
v 0.010102 0.001000 -0.011108
v 0.009966 0.001000 -0.010394
v 0.009533 0.001000 -0.009736
v 0.008875 0.001000 -0.009303
v 0.008161 0.001000 -0.009167
v 0.007446 0.001000 -0.009303
v 0.006788 0.001000 -0.009736
v 0.006356 0.001000 -0.010394
v 0.019432 -0.001000 -0.010328
v 0.017767 -0.001000 -0.012041
v 0.019432 0.001000 -0.010328
v 0.017767 0.001000 -0.012041
v 0.017884 -0.001000 -0.011411
v 0.018254 -0.001000 -0.010830
v 0.018819 -0.001000 -0.010448
v 0.018819 0.001000 -0.010448
v 0.018254 0.001000 -0.010830
v 0.017884 0.001000 -0.011411
v 0.017767 -0.000000 -0.012041
v 0.019432 -0.000000 -0.010328
v 0.017767 -0.001000 -0.012041
v 0.019432 -0.001000 -0.013754
v 0.017767 0.001000 -0.012041
v 0.019432 0.001000 -0.013754
v 0.018819 -0.001000 -0.013634
v 0.018254 -0.001000 -0.013253
v 0.017884 -0.001000 -0.012672
v 0.017884 0.001000 -0.012672
v 0.018254 0.001000 -0.013253
v 0.018819 0.001000 -0.013634
v 0.017767 -0.000000 -0.012041
v 0.019432 -0.000000 -0.013754
v 0.019432 -0.001000 -0.013754
v 0.024304 -0.001000 -0.013754
v 0.019432 0.001000 -0.013754
v 0.024304 0.001000 -0.013754
v 0.021868 -0.001000 -0.013754
v 0.021868 0.001000 -0.013754
v 0.019432 -0.000000 -0.013754
v 0.024304 -0.000000 -0.013754
v 0.024304 -0.001000 -0.013754
v 0.025969 -0.001000 -0.012041
v 0.024304 -0.001000 -0.010328
v 0.024304 0.001000 -0.013754
v 0.025969 0.001000 -0.012041
v 0.024304 0.001000 -0.010328
v 0.024917 -0.001000 -0.010448
v 0.025481 -0.001000 -0.010830
v 0.025852 -0.001000 -0.011411
v 0.025852 -0.001000 -0.012672
v 0.025481 -0.001000 -0.013253
v 0.024917 -0.001000 -0.013634
v 0.024917 0.001000 -0.013634
v 0.025481 0.001000 -0.013253
v 0.025852 0.001000 -0.012672
v 0.025852 0.001000 -0.011411
v 0.025481 0.001000 -0.010830
v 0.024917 0.001000 -0.010448
v 0.024304 -0.000000 -0.013754
v 0.024304 -0.000000 -0.010328
v 0.024304 -0.001000 -0.010328
v 0.019432 -0.001000 -0.010328
v 0.024304 0.001000 -0.010328
v 0.019432 0.001000 -0.010328
v 0.021868 -0.001000 -0.010328
v 0.021868 0.001000 -0.010328
v 0.024304 -0.000000 -0.010328
v 0.019432 -0.000000 -0.010328
v -0.010691 0.001000 0.009933
v -0.008691 -0.001000 0.009994
v -0.009691 -0.001000 0.009994
v -0.009691 0.001000 0.009933
v -0.010691 -0.001000 0.009994
v -0.010691 -0.000003 0.009951
v -0.008691 0.001000 0.009933
v -0.008691 -0.000003 0.009951
v -0.010691 0.001000 0.009933
v -0.010691 0.001000 0.014218
v -0.010691 -0.001000 0.014218
v -0.010691 -0.001000 0.009994
v -0.010691 -0.000003 0.009951
v -0.008691 0.001000 0.009933
v -0.008691 -0.001000 0.014152
v -0.008691 -0.000000 0.014152
v -0.008691 -0.001000 0.009994
v -0.008691 0.001000 0.014152
v -0.008691 -0.000003 0.009951
v 0.013427 -0.001000 -0.012115
v 0.013427 0.001000 -0.012109
v 0.015427 0.001000 -0.012109
v 0.015427 -0.001000 -0.012115
v 0.015427 -0.000000 -0.012114
v 0.014427 -0.001000 -0.012115
v 0.014427 0.001000 -0.012109
v 0.015427 0.001000 -0.008067
v 0.015427 -0.001000 -0.012115
v 0.015427 -0.000000 -0.012114
v 0.015427 -0.001000 -0.008067
v 0.015427 0.001000 -0.012109
v 0.013427 0.001000 -0.008067
v 0.013427 0.001000 -0.012109
v 0.013427 -0.001000 -0.012115
v 0.013427 -0.001000 -0.008067
v 0.013427 -0.000000 -0.008067
v 0.012176 -0.001000 -0.008067
v 0.013427 0.001000 -0.008067
v 0.012176 0.001000 -0.008067
v 0.012176 -0.000000 -0.008067
v 0.013427 -0.001000 -0.008067
v 0.013427 -0.000000 -0.008067
v 0.023732 -0.001000 -0.008067
v 0.015427 -0.001000 -0.008067
v 0.023732 0.001000 -0.008067
v 0.015427 0.001000 -0.008067
v 0.023732 -0.000000 -0.008067
v 0.019580 -0.000000 -0.008067
v 0.021656 -0.000000 -0.008067
v 0.019580 -0.000500 -0.008067
v 0.021656 -0.000500 -0.008067
v 0.019580 0.000500 -0.008067
v 0.021656 0.000500 -0.008067
v 0.007106 -0.001000 -0.002997
v 0.007453 -0.001000 -0.004840
v 0.008554 -0.001000 -0.006545
v 0.010250 -0.001000 -0.007687
v 0.012176 -0.001000 -0.008067
v -0.027995 -0.001000 0.006218
v -0.027995 -0.001000 0.014218
v -0.000898 -0.001000 -0.001041
v -0.000908 -0.001000 -0.000982
v -0.000729 -0.001000 -0.004597
v -0.000729 -0.001000 -0.004621
v 0.012176 -0.001000 -0.016067
v 0.010267 -0.001000 -0.015941
v 0.008392 -0.001000 -0.015563
v 0.006586 -0.001000 -0.014936
v 0.004884 -0.001000 -0.014063
v 0.003309 -0.001000 -0.012935
v 0.001962 -0.001000 -0.011614
v 0.000831 -0.001000 -0.010072
v -0.000020 -0.001000 -0.008360
v -0.000549 -0.001000 -0.006524
v 0.023732 -0.001000 -0.016067
v 0.023732 -0.001000 -0.008067
v 0.025186 -0.001000 -0.008341
v 0.026531 -0.001000 -0.009209
v 0.027433 -0.001000 -0.010547
v 0.027732 -0.001000 -0.012067
v 0.027459 -0.001000 -0.013521
v 0.026590 -0.001000 -0.014866
v 0.025252 -0.001000 -0.015767
v 0.013427 -0.001000 -0.008067
v 0.007106 -0.001000 -0.000010
v -0.010374 -0.001000 0.006218
v -0.019185 -0.001000 0.006218
v -0.001356 -0.001000 0.000558
v -0.002121 -0.001000 0.001969
v -0.003141 -0.001000 0.003209
v -0.004360 -0.001000 0.004254
v -0.005690 -0.001000 0.005070
v -0.007267 -0.001000 0.005723
v -0.008759 -0.001000 0.006084
v -0.019343 -0.001000 0.014218
v -0.010691 -0.001000 0.014218
v -0.024738 -0.001000 0.011934
v -0.025351 -0.001000 0.011813
v -0.025916 -0.001000 0.011432
v -0.026287 -0.001000 0.010851
v -0.026404 -0.001000 0.010220
v -0.026287 -0.001000 0.009590
v -0.025916 -0.001000 0.009009
v -0.025351 -0.001000 0.008628
v -0.024738 -0.001000 0.008507
v -0.022302 -0.001000 0.008507
v -0.019866 -0.001000 0.008507
v -0.019253 -0.001000 0.008628
v -0.018689 -0.001000 0.009009
v -0.018318 -0.001000 0.009590
v -0.018201 -0.001000 0.010220
v -0.018318 -0.001000 0.010851
v -0.018689 -0.001000 0.011432
v -0.019253 -0.001000 0.011813
v -0.019866 -0.001000 0.011934
v -0.022302 -0.001000 0.011934
v -0.006469 -0.001000 0.008935
v -0.006333 -0.001000 0.008221
v -0.005901 -0.001000 0.007562
v -0.005243 -0.001000 0.007130
v -0.004528 -0.001000 0.006994
v -0.003813 -0.001000 0.007130
v -0.003155 -0.001000 0.007562
v -0.002723 -0.001000 0.008221
v -0.002587 -0.001000 0.008935
v -0.002723 -0.001000 0.009650
v -0.003155 -0.001000 0.010308
v -0.003813 -0.001000 0.010740
v -0.004528 -0.001000 0.010876
v -0.005243 -0.001000 0.010740
v -0.005901 -0.001000 0.010308
v -0.006333 -0.001000 0.009650
v -0.000668 -0.001000 0.004218
v -0.000531 -0.001000 0.003503
v -0.000099 -0.001000 0.002845
v 0.000559 -0.001000 0.002413
v 0.001274 -0.001000 0.002277
v 0.001988 -0.001000 0.002413
v 0.002646 -0.001000 0.002845
v 0.003079 -0.001000 0.003503
v 0.003215 -0.001000 0.004218
v 0.003079 -0.001000 0.004932
v 0.002646 -0.001000 0.005591
v 0.001988 -0.001000 0.006023
v 0.001274 -0.001000 0.006159
v 0.000559 -0.001000 0.006023
v -0.000099 -0.001000 0.005591
v -0.000531 -0.001000 0.004932
v 0.004845 -0.001000 -0.002221
v 0.004727 -0.001000 -0.001617
v 0.004353 -0.001000 -0.001060
v 0.003783 -0.001000 -0.000695
v 0.003165 -0.001000 -0.000580
v 0.002547 -0.001000 -0.000695
v 0.001978 -0.001000 -0.001060
v 0.001604 -0.001000 -0.001617
v 0.001486 -0.001000 -0.002221
v 0.001486 -0.001000 -0.004604
v 0.001486 -0.001000 -0.006987
v 0.001604 -0.001000 -0.007591
v 0.001978 -0.001000 -0.008148
v 0.002547 -0.001000 -0.008513
v 0.003165 -0.001000 -0.008628
v 0.003783 -0.001000 -0.008513
v 0.004353 -0.001000 -0.008148
v 0.004727 -0.001000 -0.007591
v 0.004845 -0.001000 -0.006987
v 0.004845 -0.001000 -0.004604
v 0.006219 -0.001000 -0.011108
v 0.006356 -0.001000 -0.011823
v 0.006788 -0.001000 -0.012481
v 0.007446 -0.001000 -0.012913
v 0.008161 -0.001000 -0.013050
v 0.008875 -0.001000 -0.012913
v 0.009533 -0.001000 -0.012481
v 0.009966 -0.001000 -0.011823
v 0.010102 -0.001000 -0.011108
v 0.009966 -0.001000 -0.010394
v 0.009533 -0.001000 -0.009736
v 0.008875 -0.001000 -0.009303
v 0.008161 -0.001000 -0.009167
v 0.007446 -0.001000 -0.009303
v 0.006788 -0.001000 -0.009736
v 0.006356 -0.001000 -0.010394
v 0.019432 -0.001000 -0.010328
v 0.018819 -0.001000 -0.010448
v 0.018254 -0.001000 -0.010830
v 0.017884 -0.001000 -0.011411
v 0.017767 -0.001000 -0.012041
v 0.017884 -0.001000 -0.012672
v 0.018254 -0.001000 -0.013253
v 0.018819 -0.001000 -0.013634
v 0.019432 -0.001000 -0.013754
v 0.021868 -0.001000 -0.013754
v 0.024304 -0.001000 -0.013754
v 0.024917 -0.001000 -0.013634
v 0.025481 -0.001000 -0.013253
v 0.025852 -0.001000 -0.012672
v 0.025969 -0.001000 -0.012041
v 0.025852 -0.001000 -0.011411
v 0.025481 -0.001000 -0.010830
v 0.024917 -0.001000 -0.010448
v 0.024304 -0.001000 -0.010328
v 0.021868 -0.001000 -0.010328
v -0.010691 -0.001000 0.009994
v -0.009691 -0.001000 0.009994
v -0.008691 -0.001000 0.009994
v -0.008691 -0.001000 0.014152
v -0.005161 -0.001000 0.013569
v -0.003448 -0.001000 0.013051
v -0.001788 -0.001000 0.012380
v -0.000200 -0.001000 0.011555
v 0.001298 -0.001000 0.010575
v 0.002684 -0.001000 0.009442
v 0.003932 -0.001000 0.008159
v 0.005013 -0.001000 0.006733
v 0.005907 -0.001000 0.005162
v 0.006559 -0.001000 0.003516
v 0.006968 -0.001000 0.001774
v 0.013427 -0.001000 -0.012115
v 0.014427 -0.001000 -0.012115
v 0.015427 -0.001000 -0.012115
v 0.015427 -0.001000 -0.008067
v 0.007106 0.001000 -0.002997
v 0.007106 0.001000 -0.000010
v -0.000729 0.001000 -0.004597
v -0.000729 0.001000 -0.004621
v -0.000898 0.001000 -0.001041
v -0.027995 0.001000 0.006218
v -0.019185 0.001000 0.006218
v -0.010374 0.001000 0.006218
v -0.027995 0.001000 0.014218
v -0.000549 0.001000 -0.006524
v -0.000020 0.001000 -0.008360
v 0.000831 0.001000 -0.010072
v 0.001962 0.001000 -0.011614
v 0.003309 0.001000 -0.012935
v 0.004884 0.001000 -0.014063
v 0.006586 0.001000 -0.014936
v 0.008392 0.001000 -0.015563
v 0.010267 0.001000 -0.015941
v 0.012176 0.001000 -0.016067
v 0.023732 0.001000 -0.016067
v 0.025252 0.001000 -0.015767
v 0.026590 0.001000 -0.014866
v 0.027459 0.001000 -0.013521
v 0.027732 0.001000 -0.012067
v 0.027433 0.001000 -0.010547
v 0.026531 0.001000 -0.009209
v 0.025186 0.001000 -0.008341
v 0.023732 0.001000 -0.008067
v 0.015427 0.001000 -0.008067
v 0.012176 0.001000 -0.008067
v 0.010250 0.001000 -0.007687
v 0.008554 0.001000 -0.006545
v 0.007453 0.001000 -0.004840
v 0.006968 0.001000 0.001774
v 0.006559 0.001000 0.003516
v 0.005907 0.001000 0.005162
v 0.005013 0.001000 0.006733
v 0.003932 0.001000 0.008159
v 0.002684 0.001000 0.009442
v 0.001298 0.001000 0.010575
v -0.000200 0.001000 0.011555
v -0.001788 0.001000 0.012380
v -0.003448 0.001000 0.013051
v -0.005161 0.001000 0.013569
v -0.006914 0.001000 0.013936
v -0.008691 0.001000 0.014152
v -0.008759 0.001000 0.006084
v -0.007267 0.001000 0.005723
v -0.005690 0.001000 0.005070
v -0.004360 0.001000 0.004254
v -0.003141 0.001000 0.003209
v -0.002121 0.001000 0.001969
v -0.001356 0.001000 0.000558
v -0.000908 0.001000 -0.000982
v -0.026404 0.001000 0.010220
v -0.026287 0.001000 0.010851
v -0.025916 0.001000 0.011432
v -0.025351 0.001000 0.011813
v -0.024738 0.001000 0.011934
v -0.024738 0.001000 0.008507
v -0.025351 0.001000 0.008628
v -0.025916 0.001000 0.009009
v -0.026287 0.001000 0.009590
v -0.019866 0.001000 0.008507
v -0.022302 0.001000 0.008507
v -0.019866 0.001000 0.011934
v -0.019253 0.001000 0.011813
v -0.018689 0.001000 0.011432
v -0.018318 0.001000 0.010851
v -0.018201 0.001000 0.010220
v -0.018318 0.001000 0.009590
v -0.018689 0.001000 0.009009
v -0.019253 0.001000 0.008628
v -0.022302 0.001000 0.011934
v -0.006469 0.001000 0.008935
v -0.006333 0.001000 0.009650
v -0.005901 0.001000 0.010308
v -0.005243 0.001000 0.010740
v -0.004528 0.001000 0.010876
v -0.003813 0.001000 0.010740
v -0.003155 0.001000 0.010308
v -0.002723 0.001000 0.009650
v -0.002587 0.001000 0.008935
v -0.002723 0.001000 0.008221
v -0.003155 0.001000 0.007562
v -0.003813 0.001000 0.007130
v -0.004528 0.001000 0.006994
v -0.005243 0.001000 0.007130
v -0.005901 0.001000 0.007562
v -0.006333 0.001000 0.008221
v -0.000668 0.001000 0.004218
v -0.000531 0.001000 0.004932
v -0.000099 0.001000 0.005591
v 0.000559 0.001000 0.006023
v 0.001274 0.001000 0.006159
v 0.001988 0.001000 0.006023
v 0.002646 0.001000 0.005591
v 0.003079 0.001000 0.004932
v 0.003215 0.001000 0.004218
v 0.003079 0.001000 0.003503
v 0.002646 0.001000 0.002845
v 0.001988 0.001000 0.002413
v 0.001274 0.001000 0.002277
v 0.000559 0.001000 0.002413
v -0.000099 0.001000 0.002845
v -0.000531 0.001000 0.003503
v 0.001486 0.001000 -0.002221
v 0.001604 0.001000 -0.001617
v 0.001978 0.001000 -0.001060
v 0.002547 0.001000 -0.000695
v 0.003165 0.001000 -0.000580
v 0.003783 0.001000 -0.000695
v 0.004353 0.001000 -0.001060
v 0.004727 0.001000 -0.001617
v 0.004845 0.001000 -0.002221
v 0.001486 0.001000 -0.006987
v 0.001486 0.001000 -0.004604
v 0.004845 0.001000 -0.006987
v 0.004727 0.001000 -0.007591
v 0.004353 0.001000 -0.008148
v 0.003783 0.001000 -0.008513
v 0.003165 0.001000 -0.008628
v 0.002547 0.001000 -0.008513
v 0.001978 0.001000 -0.008148
v 0.001604 0.001000 -0.007591
v 0.004845 0.001000 -0.004604
v 0.006219 0.001000 -0.011108
v 0.006356 0.001000 -0.010394
v 0.006788 0.001000 -0.009736
v 0.007446 0.001000 -0.009303
v 0.008161 0.001000 -0.009167
v 0.008875 0.001000 -0.009303
v 0.009533 0.001000 -0.009736
v 0.009966 0.001000 -0.010394
v 0.010102 0.001000 -0.011108
v 0.009966 0.001000 -0.011823
v 0.009533 0.001000 -0.012481
v 0.008875 0.001000 -0.012913
v 0.008161 0.001000 -0.013050
v 0.007446 0.001000 -0.012913
v 0.006788 0.001000 -0.012481
v 0.006356 0.001000 -0.011823
v 0.017767 0.001000 -0.012041
v 0.017884 0.001000 -0.011411
v 0.018254 0.001000 -0.010830
v 0.018819 0.001000 -0.010448
v 0.019432 0.001000 -0.010328
v 0.019432 0.001000 -0.013754
v 0.018819 0.001000 -0.013634
v 0.018254 0.001000 -0.013253
v 0.017884 0.001000 -0.012672
v 0.024304 0.001000 -0.013754
v 0.021868 0.001000 -0.013754
v 0.024304 0.001000 -0.010328
v 0.024917 0.001000 -0.010448
v 0.025481 0.001000 -0.010830
v 0.025852 0.001000 -0.011411
v 0.025969 0.001000 -0.012041
v 0.025852 0.001000 -0.012672
v 0.025481 0.001000 -0.013253
v 0.024917 0.001000 -0.013634
v 0.021868 0.001000 -0.010328
v -0.008691 0.001000 0.009933
v -0.009691 0.001000 0.009933
v -0.010691 0.001000 0.009933
v -0.010691 0.001000 0.014218
v 0.015427 0.001000 -0.012109
v 0.014427 0.001000 -0.012109
v 0.013427 0.001000 -0.012109
v 0.013427 0.001000 -0.008067
vn 0.000100 -0.000000 1.000000
vn 0.379910 -0.000000 0.925024
vn 0.714419 -0.000000 0.699718
vn 0.931629 -0.000000 0.363411
vn 1.000000 0.000000 0.000000
vn 0.000100 -0.000000 1.000000
vn 0.379910 -0.000000 0.925024
vn 0.714419 -0.000000 0.699718
vn 0.931629 -0.000000 0.363411
vn 1.000000 0.000000 0.000000
vn 1.000000 0.000000 0.000000
vn 0.000000 -0.000000 1.000000
vn 0.000000 -0.000000 1.000000
vn 0.000000 -0.000000 1.000000
vn 0.000000 -0.000000 1.000000
vn 0.000000 -0.000000 1.000000
vn 0.000000 -0.000000 1.000000
vn -1.000000 0.000000 0.000000
vn -1.000000 0.000000 0.000000
vn -1.000000 0.000000 0.000000
vn -1.000000 0.000000 0.000000
vn -0.986040 0.000000 -0.166507
vn -0.986040 0.000000 -0.166507
vn -0.986040 0.000000 -0.166507
vn -0.986040 0.000000 -0.166507
vn -0.986040 0.000000 -0.166507
vn -0.986040 0.000000 -0.166507
vn -0.986040 0.000000 -0.166507
vn -0.986040 0.000000 -0.166507
vn -0.986040 0.000000 -0.166507
vn -0.986040 0.000000 -0.166507
vn -0.986040 0.000000 -0.166507
vn -0.986040 0.000000 -0.166507
vn -0.986040 0.000000 -0.166507
vn -0.986040 0.000000 -0.166507
vn -0.986040 0.000000 -0.166507
vn -0.986040 0.000000 -0.166507
vn -0.986040 0.000000 -0.166507
vn -0.986040 0.000000 -0.166507
vn -0.998871 0.000000 -0.047499
vn -0.998871 0.000000 -0.047499
vn -0.998871 0.000000 -0.047499
vn -0.998871 0.000000 -0.047499
vn -0.998871 0.000000 -0.047499
vn -0.998871 0.000000 -0.047499
vn -0.998871 0.000000 -0.047499
vn -0.998871 0.000000 -0.047499
vn -0.998871 0.000000 -0.047499
vn -0.998871 0.000000 -0.047499
vn -0.998871 0.000000 -0.047499
vn -0.998871 0.000000 -0.047499
vn -0.998871 0.000000 -0.047499
vn -0.998871 0.000000 -0.047499
vn -0.998871 0.000000 -0.047499
vn -0.998871 0.000000 -0.047499
vn -0.998871 0.000000 -0.047499
vn -0.998871 0.000000 -0.047499
vn -0.998871 0.000000 -0.047499
vn -0.998871 0.000000 -0.047499
vn -0.998871 0.000000 -0.047499
vn -0.998871 0.000000 -0.047499
vn -0.998871 0.000000 -0.047499
vn -0.998871 0.000000 -0.047499
vn -0.998871 0.000000 -0.047499
vn -0.998871 0.000000 -0.047499
vn -0.998871 0.000000 -0.047499
vn -0.998871 0.000000 -0.047499
vn -0.998871 0.000000 -0.047499
vn -0.998871 0.000000 -0.047499
vn -0.998871 0.000000 -0.047499
vn -0.998871 0.000000 -0.047499
vn -0.998871 0.000000 -0.047499
vn -0.998871 0.000000 -0.047499
vn -0.998871 0.000000 -0.047499
vn -0.998871 0.000000 -0.047499
vn -0.998871 0.000000 -0.047499
vn -0.998871 0.000000 -0.047499
vn -0.998867 0.000000 -0.047598
vn -0.998871 0.000000 -0.047499
vn -0.998867 0.000000 -0.047598
vn -0.998867 0.000000 -0.047598
vn -0.998867 0.000000 -0.047598
vn -0.998871 -0.000400 -0.047499
vn -0.998867 0.000000 -0.047598
vn -0.998867 0.000000 -0.047598
vn -0.998867 0.000000 -0.047598
vn -0.998867 0.000000 -0.047598
vn -0.998871 0.000000 -0.047499
vn -0.998867 0.000000 -0.047598
vn -0.998871 0.000000 -0.047499
vn -0.998867 0.000000 -0.047598
vn -0.998867 0.000000 -0.047598
vn -0.998867 0.000000 -0.047598
vn -0.998867 0.000000 -0.047598
vn -0.998867 0.000000 -0.047598
vn -0.998867 0.000000 -0.047598
vn -0.998867 0.000000 -0.047598
vn -0.998871 0.000000 -0.047499
vn -0.998867 0.000000 -0.047598
vn -0.998867 0.000000 -0.047598
vn -0.998867 0.000000 -0.047598
vn -0.998867 0.000000 -0.047598
vn -0.998867 0.000000 -0.047598
vn -0.998867 0.000000 -0.047598
vn -0.998867 0.000000 -0.047598
vn -0.998871 0.000000 -0.047499
vn -0.998867 0.000000 -0.047598
vn -0.998867 0.000000 -0.047598
vn -0.998867 0.000000 -0.047598
vn -0.998867 0.000000 -0.047598
vn -0.998867 0.000000 -0.047598
vn -0.998871 0.000400 -0.047499
vn -1.000000 0.000000 0.000000
vn -1.000000 0.000000 0.000000
vn -1.000000 0.000000 0.000000
vn -1.000000 0.000000 0.000000
vn -1.000000 0.000000 0.000000
vn -1.000000 0.000000 0.000000
vn -1.000000 0.000000 0.000000
vn -1.000000 0.000000 0.000000
vn -1.000000 0.000000 0.000000
vn -1.000000 0.000000 0.000000
vn -1.000000 0.000000 0.000000
vn -1.000000 0.000000 0.000000
vn -1.000000 0.000000 0.000000
vn -1.000000 0.000000 0.000000
vn -1.000000 0.000000 0.000000
vn -1.000000 0.000000 0.000000
vn -1.000000 0.000000 0.000000
vn -1.000000 0.000000 0.000000
vn -1.000000 0.000000 0.000000
vn -1.000000 0.000000 0.000000
vn -1.000000 0.000000 0.000000
vn -1.000000 0.000000 0.000000
vn -1.000000 0.000000 0.000000
vn -1.000000 0.000000 0.000000
vn -1.000000 0.000000 0.000000
vn -1.000000 0.000000 0.000000
vn -1.000000 0.000000 0.000000
vn -1.000000 0.000000 0.000000
vn -1.000000 0.000000 0.000000
vn -1.000000 0.000000 0.000000
vn -1.000000 0.000000 0.000000
vn -1.000000 0.000000 0.000000
vn -1.000000 0.000000 0.000000
vn -1.000000 0.000000 0.000000
vn -1.000000 0.000000 0.000000
vn -1.000000 0.000000 0.000000
vn -1.000000 0.000000 0.000000
vn -1.000000 0.000000 0.000000
vn -1.000000 0.000000 0.000000
vn -1.000000 0.000000 0.000000
vn -1.000000 0.000000 0.000000
vn -1.000000 0.000000 0.000000
vn -1.000000 0.000000 0.000000
vn -0.982398 0.000000 -0.186800
vn -0.931676 0.000000 -0.363291
vn -0.853309 0.000000 -0.521406
vn -0.754265 0.000000 -0.656570
vn -0.642767 0.000000 -0.766061
vn -0.519414 0.000000 -0.854523
vn -0.392398 0.000000 -0.919796
vn -0.262694 0.000000 -0.964879
vn -0.131600 0.000000 -0.991303
vn 0.000000 0.000000 -1.000000
vn -1.000000 0.000000 0.000000
vn -0.982380 0.000000 -0.186896
vn -0.931676 0.000000 -0.363291
vn -0.853309 0.000000 -0.521406
vn -0.754265 0.000000 -0.656570
vn -0.642767 0.000000 -0.766061
vn -0.519414 0.000000 -0.854523
vn -0.392398 0.000000 -0.919796
vn -0.262694 0.000000 -0.964879
vn -0.131600 0.000000 -0.991303
vn 0.000000 0.000000 -1.000000
vn -1.000000 0.000000 0.000000
vn -1.000000 0.000000 0.000000
vn -1.000000 0.000000 0.000000
vn -1.000000 0.000000 0.000000
vn -1.000000 0.000000 0.000000
vn -1.000000 0.000000 0.000000
vn -1.000000 0.000000 0.000000
vn -1.000000 0.000000 0.000000
vn -1.000000 0.000000 0.000000
vn -1.000000 0.000000 0.000000
vn -1.000000 0.000000 0.000000
vn -1.000000 0.000000 0.000000
vn -1.000000 0.000000 0.000000
vn -1.000000 0.000000 0.000000
vn -1.000000 0.000000 0.000000
vn -1.000000 0.000000 0.000000
vn -1.000000 0.000000 0.000000
vn -1.000000 0.000000 0.000000
vn -1.000000 0.000000 0.000000
vn -0.995554 0.000000 -0.094196
vn -0.998885 0.000000 -0.047199
vn -0.995554 0.000000 -0.094196
vn -0.998885 0.000000 -0.047199
vn -0.999719 0.000000 -0.023700
vn -0.998881 0.000000 -0.047299
vn -0.999719 0.000000 -0.023700
vn -0.999719 0.000000 -0.023700
vn -0.998885 0.000000 -0.047199
vn -0.999719 0.000000 -0.023700
vn -0.995554 0.000000 -0.094196
vn -0.998885 0.000000 -0.047199
vn -0.999719 0.000000 -0.023700
vn -0.998885 0.000000 -0.047199
vn -0.999719 0.000000 -0.023700
vn -0.998881 0.000000 -0.047299
vn -0.999719 0.000000 -0.023700
vn 0.000000 0.000000 -1.000000
vn 0.000000 0.000000 -1.000000
vn 0.000000 0.000000 -1.000000
vn 0.000000 0.000000 -1.000000
vn 0.000000 0.000000 -1.000000
vn 0.000000 0.000000 -1.000000
vn 0.000000 0.000000 -1.000000
vn 0.000000 0.000000 -1.000000
vn 0.000000 0.000000 -1.000000
vn 0.000000 0.000000 -1.000000
vn 0.000000 0.000000 -1.000000
vn 0.000000 0.000000 -1.000000
vn 0.000000 0.000000 -1.000000
vn 0.000000 0.000000 -1.000000
vn 0.000000 0.000000 -1.000000
vn 0.000000 0.000000 -1.000000
vn 0.000000 0.000000 -1.000000
vn 0.379910 0.000000 -0.925024
vn 0.714468 0.000000 -0.699668
vn 0.931629 0.000000 -0.363411
vn 1.000000 0.000000 0.000000
vn 0.925024 -0.000000 0.379910
vn 0.699668 -0.000000 0.714468
vn 0.363411 -0.000000 0.931629
vn 0.000000 -0.000000 1.000000
vn 0.000000 0.000000 -1.000000
vn 0.379910 0.000000 -0.925024
vn 0.714468 0.000000 -0.699668
vn 0.931629 0.000000 -0.363411
vn 1.000000 0.000000 0.000000
vn 0.925024 -0.000000 0.379910
vn 0.699668 -0.000000 0.714468
vn 0.363411 -0.000000 0.931629
vn 0.000000 -0.000000 1.000000
vn 0.000000 0.000000 -1.000000
vn 0.000000 -0.000000 1.000000
vn 1.000000 0.000000 0.000000
vn 1.000000 0.000000 0.000000
vn 1.000000 0.000000 0.000000
vn 1.000000 0.000000 0.000000
vn 1.000000 0.000000 0.000000
vn 1.000000 0.000000 0.000000
vn 1.000000 0.000000 0.000000
vn 0.988102 -0.000000 0.153800
vn 0.953755 -0.000000 0.300586
vn 0.901356 -0.000000 0.433079
vn 0.833785 -0.000000 0.552090
vn 0.757099 -0.000000 0.653300
vn 0.675272 -0.000000 0.737569
vn 0.589889 -0.000000 0.807485
vn 0.504194 -0.000000 0.863590
vn 0.417612 -0.000000 0.908626
vn 0.332114 -0.000000 0.943239
vn 0.246792 -0.000000 0.969068
vn 1.000000 0.000000 0.000000
vn 0.988102 -0.000000 0.153800
vn 0.953755 -0.000000 0.300586
vn 0.901356 -0.000000 0.433079
vn 0.833785 -0.000000 0.552090
vn 0.757099 -0.000000 0.653300
vn 0.675272 -0.000000 0.737569
vn 0.589889 -0.000000 0.807485
vn 0.504194 -0.000000 0.863590
vn 0.417612 -0.000000 0.908626
vn 0.332114 -0.000000 0.943239
vn 0.247004 -0.000000 0.969015
vn 0.162599 -0.000000 0.986692
vn 0.078700 -0.000000 0.996898
vn 1.000000 0.000000 0.000000
vn 0.078700 -0.000000 0.996898
vn 0.078700 -0.000000 0.996898
vn 0.000000 0.000000 -1.000000
vn 0.000000 0.000000 -1.000000
vn 0.000000 0.000000 -1.000000
vn 0.000000 0.000000 -1.000000
vn 0.000000 0.000000 -1.000000
vn 0.000000 0.000000 -1.000000
vn 0.000000 0.000000 -1.000000
vn 0.000000 0.000000 -1.000000
vn 0.000000 0.000000 -1.000000
vn 0.000000 0.000000 -1.000000
vn 0.000000 0.000000 -1.000000
vn 0.000000 0.000000 -1.000000
vn 0.000000 0.000000 -1.000000
vn 0.000000 0.000000 -1.000000
vn -0.162599 0.000000 -0.986692
vn -0.306401 0.000000 -0.951903
vn -0.456708 0.000000 -0.889616
vn -0.586636 0.000000 -0.809850
vn -0.712585 0.000000 -0.701586
vn -0.827406 0.000000 -0.561604
vn -0.923257 0.000000 -0.384182
vn -0.986024 0.000000 -0.166604
vn 0.000000 0.000000 -1.000000
vn -0.162599 0.000000 -0.986692
vn -0.306401 0.000000 -0.951903
vn -0.456708 0.000000 -0.889616
vn -0.586636 0.000000 -0.809850
vn -0.712585 0.000000 -0.701586
vn -0.827406 0.000000 -0.561604
vn -0.923257 0.000000 -0.384182
vn -0.986024 0.000000 -0.166604
vn 0.000000 0.000000 -1.000000
vn -0.986024 0.000000 -0.166604
vn -0.986024 0.000000 -0.166604
vn -0.986024 0.000000 -0.166604
vn -0.986024 0.000000 -0.166604
vn -0.986024 0.000000 -0.166604
vn -0.986024 0.000000 -0.166604
vn -0.986024 0.000000 -0.166604
vn -0.959938 0.000000 -0.280211
vn -0.974427 0.000000 -0.224706
vn -0.959938 0.000000 -0.280211
vn -0.974427 0.000000 -0.224706
vn -0.959938 0.000000 -0.280211
vn -0.974427 0.000000 -0.224706
vn 0.000000 0.000000 -1.000000
vn 1.000000 0.000000 -0.000100
vn 0.000000 0.000000 -1.000000
vn 1.000000 0.000000 -0.000100
vn 0.933253 0.000000 -0.359220
vn 0.716987 0.000000 -0.697087
vn 0.377090 0.000000 -0.926176
vn 0.377090 0.000000 -0.926176
vn 0.716987 0.000000 -0.697087
vn 0.933253 0.000000 -0.359220
vn 1.000000 0.000000 -0.000100
vn 0.000000 0.000000 -1.000000
vn 1.000000 -0.000000 0.000100
vn 0.000000 -0.000000 1.000000
vn 1.000000 -0.000000 0.000100
vn 0.000000 -0.000000 1.000000
vn 0.377090 -0.000000 0.926176
vn 0.716987 -0.000000 0.697087
vn 0.933253 -0.000000 0.359220
vn 0.933253 -0.000000 0.359220
vn 0.716987 -0.000000 0.697087
vn 0.377090 -0.000000 0.926176
vn 1.000000 -0.000000 0.000100
vn 0.000000 -0.000000 1.000000
vn 0.000000 -0.000000 1.000000
vn 0.000000 -0.000000 1.000000
vn 0.000000 -0.000000 1.000000
vn 0.000000 -0.000000 1.000000
vn 0.000000 -0.000000 1.000000
vn 0.000000 -0.000000 1.000000
vn 0.000000 -0.000000 1.000000
vn 0.000000 -0.000000 1.000000
vn 0.000000 -0.000000 1.000000
vn -1.000000 0.000000 0.000000
vn 0.000000 0.000000 -1.000000
vn 0.000000 -0.000000 1.000000
vn -1.000000 0.000000 0.000000
vn 0.000000 0.000000 -1.000000
vn -0.377090 0.000000 -0.926176
vn -0.716938 0.000000 -0.697137
vn -0.933253 0.000000 -0.359220
vn -0.933253 -0.000000 0.359220
vn -0.716987 -0.000000 0.697087
vn -0.377090 -0.000000 0.926176
vn -0.377090 -0.000000 0.926176
vn -0.716987 -0.000000 0.697087
vn -0.933253 -0.000000 0.359220
vn -0.933253 0.000000 -0.359220
vn -0.716938 0.000000 -0.697137
vn -0.377090 0.000000 -0.926176
vn 0.000000 -0.000000 1.000000
vn 0.000000 0.000000 -1.000000
vn 0.000000 0.000000 -1.000000
vn 0.000000 0.000000 -1.000000
vn 0.000000 0.000000 -1.000000
vn 0.000000 0.000000 -1.000000
vn 0.000000 0.000000 -1.000000
vn 0.000000 0.000000 -1.000000
vn 0.000000 0.000000 -1.000000
vn 0.000000 0.000000 -1.000000
vn 1.000000 0.000000 0.000000
vn 1.000000 0.000000 0.000000
vn 1.000000 0.000000 0.000000
vn 0.929788 0.000000 -0.368095
vn 0.707107 0.000000 -0.707107
vn 0.368095 0.000000 -0.929788
vn 0.000000 0.000000 -1.000000
vn -0.368095 0.000000 -0.929788
vn -0.707107 0.000000 -0.707107
vn -0.929788 0.000000 -0.368095
vn -1.000000 0.000000 0.000000
vn -0.929788 -0.000000 0.368095
vn -0.707107 -0.000000 0.707107
vn -0.368095 -0.000000 0.929788
vn 0.000000 -0.000000 1.000000
vn 0.368095 -0.000000 0.929788
vn 0.707107 -0.000000 0.707107
vn 0.929788 -0.000000 0.368095
vn 1.000000 0.000000 0.000000
vn 0.929788 -0.000000 0.368095
vn 0.707107 -0.000000 0.707107
vn 0.368095 -0.000000 0.929788
vn 0.000000 -0.000000 1.000000
vn -0.368095 -0.000000 0.929788
vn -0.707107 -0.000000 0.707107
vn -0.929788 -0.000000 0.368095
vn -1.000000 0.000000 0.000000
vn -0.929788 0.000000 -0.368095
vn -0.707107 0.000000 -0.707107
vn -0.368095 0.000000 -0.929788
vn 0.000000 0.000000 -1.000000
vn 0.368095 0.000000 -0.929788
vn 0.707107 0.000000 -0.707107
vn 0.929788 0.000000 -0.368095
vn 1.000000 0.000000 0.000000
vn 1.000000 0.000000 0.000000
vn 1.000000 0.000000 0.000000
vn 0.929788 0.000000 -0.368095
vn 0.707107 0.000000 -0.707107
vn 0.368095 0.000000 -0.929788
vn 0.000000 0.000000 -1.000000
vn -0.368095 0.000000 -0.929788
vn -0.707107 0.000000 -0.707107
vn -0.929788 0.000000 -0.368095
vn -1.000000 0.000000 0.000000
vn -0.929788 -0.000000 0.368095
vn -0.707107 -0.000000 0.707107
vn -0.368095 -0.000000 0.929788
vn 0.000000 -0.000000 1.000000
vn 0.368095 -0.000000 0.929788
vn 0.707107 -0.000000 0.707107
vn 0.929788 -0.000000 0.368095
vn 1.000000 0.000000 0.000000
vn 0.929788 -0.000000 0.368095
vn 0.707107 -0.000000 0.707107
vn 0.368095 -0.000000 0.929788
vn 0.000000 -0.000000 1.000000
vn -0.368095 -0.000000 0.929788
vn -0.707107 -0.000000 0.707107
vn -0.929788 -0.000000 0.368095
vn -1.000000 0.000000 0.000000
vn -0.929788 0.000000 -0.368095
vn -0.707107 0.000000 -0.707107
vn -0.368095 0.000000 -0.929788
vn 0.000000 0.000000 -1.000000
vn 0.368095 0.000000 -0.929788
vn 0.707107 0.000000 -0.707107
vn 0.929788 0.000000 -0.368095
vn -1.000000 0.000000 0.000000
vn 0.000000 0.000000 -1.000000
vn 1.000000 0.000000 0.000000
vn -1.000000 0.000000 0.000000
vn 0.000000 0.000000 -1.000000
vn 1.000000 0.000000 0.000000
vn 0.926868 0.000000 -0.375387
vn 0.698910 0.000000 -0.715210
vn 0.360902 0.000000 -0.932604
vn -0.360902 0.000000 -0.932604
vn -0.698910 0.000000 -0.715210
vn -0.926819 0.000000 -0.375508
vn -0.926819 0.000000 -0.375508
vn -0.698910 0.000000 -0.715210
vn -0.360902 0.000000 -0.932604
vn 0.360902 0.000000 -0.932604
vn 0.698910 0.000000 -0.715210
vn 0.926868 0.000000 -0.375387
vn 1.000000 0.000000 0.000000
vn -1.000000 0.000000 0.000000
vn 1.000000 0.000000 0.000000
vn 1.000000 0.000000 0.000000
vn 1.000000 0.000000 0.000000
vn 1.000000 0.000000 0.000000
vn 1.000000 0.000000 0.000000
vn 1.000000 0.000000 0.000000
vn 1.000000 0.000000 0.000000
vn 1.000000 0.000000 0.000000
vn 1.000000 0.000000 0.000000
vn 0.000000 -0.000000 1.000000
vn -1.000000 0.000000 0.000000
vn 1.000000 0.000000 0.000000
vn 0.000000 -0.000000 1.000000
vn -1.000000 0.000000 0.000000
vn -0.926819 -0.000000 0.375508
vn -0.698910 -0.000000 0.715210
vn -0.360815 -0.000000 0.932638
vn 0.360815 -0.000000 0.932638
vn 0.698910 -0.000000 0.715210
vn 0.926868 -0.000000 0.375387
vn 0.926868 -0.000000 0.375387
vn 0.698910 -0.000000 0.715210
vn 0.360815 -0.000000 0.932638
vn -0.360815 -0.000000 0.932638
vn -0.698910 -0.000000 0.715210
vn -0.926819 -0.000000 0.375508
vn 1.000000 0.000000 0.000000
vn -1.000000 0.000000 0.000000
vn -1.000000 0.000000 0.000000
vn -1.000000 0.000000 0.000000
vn -1.000000 0.000000 0.000000
vn -1.000000 0.000000 0.000000
vn -1.000000 0.000000 0.000000
vn -1.000000 0.000000 0.000000
vn -1.000000 0.000000 0.000000
vn -1.000000 0.000000 0.000000
vn 1.000000 0.000000 0.000000
vn 1.000000 0.000000 0.000000
vn 1.000000 0.000000 0.000000
vn 0.929788 0.000000 -0.368095
vn 0.707107 0.000000 -0.707107
vn 0.368095 0.000000 -0.929788
vn 0.000000 0.000000 -1.000000
vn -0.368095 0.000000 -0.929788
vn -0.707107 0.000000 -0.707107
vn -0.929788 0.000000 -0.368095
vn -1.000000 0.000000 0.000000
vn -0.929788 -0.000000 0.368095
vn -0.707107 -0.000000 0.707107
vn -0.368095 -0.000000 0.929788
vn 0.000000 -0.000000 1.000000
vn 0.368095 -0.000000 0.929788
vn 0.707107 -0.000000 0.707107
vn 0.929788 -0.000000 0.368095
vn 1.000000 0.000000 0.000000
vn 0.929788 -0.000000 0.368095
vn 0.707107 -0.000000 0.707107
vn 0.368095 -0.000000 0.929788
vn 0.000000 -0.000000 1.000000
vn -0.368095 -0.000000 0.929788
vn -0.707107 -0.000000 0.707107
vn -0.929788 -0.000000 0.368095
vn -1.000000 0.000000 0.000000
vn -0.929788 0.000000 -0.368095
vn -0.707107 0.000000 -0.707107
vn -0.368095 0.000000 -0.929788
vn 0.000000 0.000000 -1.000000
vn 0.368095 0.000000 -0.929788
vn 0.707107 0.000000 -0.707107
vn 0.929788 0.000000 -0.368095
vn 0.000000 0.000000 -1.000000
vn 1.000000 0.000000 0.000000
vn 0.000000 0.000000 -1.000000
vn 1.000000 0.000000 0.000000
vn 0.933219 0.000000 -0.359307
vn 0.716987 0.000000 -0.697087
vn 0.377090 0.000000 -0.926176
vn 0.377090 0.000000 -0.926176
vn 0.716987 0.000000 -0.697087
vn 0.933219 0.000000 -0.359307
vn 1.000000 0.000000 0.000000
vn 0.000100 0.000000 -1.000000
vn 1.000000 0.000000 0.000000
vn 0.000000 -0.000000 1.000000
vn 1.000000 0.000000 0.000000
vn 0.000000 -0.000000 1.000000
vn 0.377090 -0.000000 0.926176
vn 0.716987 -0.000000 0.697087
vn 0.933219 -0.000000 0.359307
vn 0.933219 -0.000000 0.359307
vn 0.716987 -0.000000 0.697087
vn 0.377090 -0.000000 0.926176
vn 1.000000 0.000000 0.000000
vn 0.000100 -0.000000 1.000000
vn 0.000000 -0.000000 1.000000
vn 0.000000 -0.000000 1.000000
vn 0.000000 -0.000000 1.000000
vn 0.000000 -0.000000 1.000000
vn 0.000000 -0.000000 1.000000
vn 0.000000 -0.000000 1.000000
vn 0.000000 -0.000000 1.000000
vn 0.000000 -0.000000 1.000000
vn 0.000000 -0.000000 1.000000
vn -1.000000 0.000000 0.000000
vn 0.000000 0.000000 -1.000000
vn 0.000000 -0.000000 1.000000
vn -1.000000 0.000000 0.000000
vn 0.000000 0.000000 -1.000000
vn -0.377090 0.000000 -0.926176
vn -0.716987 0.000000 -0.697087
vn -0.933253 0.000000 -0.359220
vn -0.933253 -0.000000 0.359220
vn -0.716987 -0.000000 0.697087
vn -0.377090 -0.000000 0.926176
vn -0.377090 -0.000000 0.926176
vn -0.716987 -0.000000 0.697087
vn -0.933253 -0.000000 0.359220
vn -0.933253 0.000000 -0.359220
vn -0.716987 0.000000 -0.697087
vn -0.377090 0.000000 -0.926176
vn -0.000100 -0.000000 1.000000
vn -0.000100 0.000000 -1.000000
vn 0.000000 0.000000 -1.000000
vn 0.000000 0.000000 -1.000000
vn 0.000000 0.000000 -1.000000
vn 0.000000 0.000000 -1.000000
vn 0.000000 0.000000 -1.000000
vn 0.000000 0.000000 -1.000000
vn 0.000000 0.000000 -1.000000
vn 0.000000 0.000000 -1.000000
vn 0.000000 0.005500 0.999985
vn 0.000000 0.055099 0.998481
vn 0.000000 0.055099 0.998481
vn 0.000000 0.005500 0.999985
vn 0.000000 0.055099 0.998481
vn 0.000000 0.030401 0.999538
vn 0.000000 0.005500 0.999985
vn 0.000000 0.030401 0.999538
vn 1.000000 0.000000 0.000000
vn 1.000000 0.000000 0.000000
vn 1.000000 0.000000 0.000000
vn 1.000000 0.000000 0.000000
vn 1.000000 0.000000 0.000000
vn -1.000000 0.000000 0.000000
vn -1.000000 0.000000 0.000000
vn -1.000000 0.000000 0.000000
vn -1.000000 0.000000 0.000000
vn -1.000000 0.000000 0.000000
vn -1.000000 0.000000 0.000000
vn 0.000000 -0.000200 1.000000
vn 0.000000 -0.006000 0.999982
vn 0.000000 -0.006000 0.999982
vn 0.000000 -0.000200 1.000000
vn 0.000100 -0.002700 0.999996
vn 0.000000 -0.000200 1.000000
vn 0.000000 -0.006000 0.999982
vn -1.000000 0.000000 0.000000
vn -1.000000 0.000000 0.000000
vn -1.000000 0.000000 0.000000
vn -1.000000 0.000000 0.000000
vn -1.000000 0.000000 0.000000
vn 1.000000 0.000000 0.000000
vn 1.000000 0.000000 0.000000
vn 1.000000 0.000000 0.000000
vn 1.000000 0.000000 0.000000
vn 1.000000 0.000000 0.000000
vn 0.000000 -0.000000 1.000000
vn 0.000000 -0.000000 1.000000
vn 0.000000 -0.000000 1.000000
vn 0.000000 -0.000000 1.000000
vn 0.000000 -0.000000 1.000000
vn 0.000000 -0.000000 1.000000
vn 0.000000 -0.000000 1.000000
vn 0.000000 -0.000000 1.000000
vn 0.000000 -0.000000 1.000000
vn 0.000000 -0.000000 1.000000
vn 0.000000 -0.000000 1.000000
vn 0.000000 -0.000000 1.000000
vn 0.000000 -0.000000 1.000000
vn 0.000000 -0.000000 1.000000
vn 0.000000 -0.000000 1.000000
vn 0.000000 -0.000000 1.000000
vn 0.000000 -0.000000 1.000000
vn 0.000000 -1.000000 -0.000000
vn 0.000000 -1.000000 -0.000000
vn 0.000000 -1.000000 -0.000000
vn 0.000000 -1.000000 -0.000000
vn 0.000000 -1.000000 -0.000000
vn 0.000000 -1.000000 -0.000000
vn 0.000000 -1.000000 -0.000000
vn 0.000000 -1.000000 -0.000000
vn 0.000000 -1.000000 -0.000000
vn 0.000000 -1.000000 -0.000000
vn 0.000000 -1.000000 -0.000000
vn 0.000000 -1.000000 -0.000000
vn 0.000000 -1.000000 -0.000000
vn 0.000000 -1.000000 -0.000000
vn 0.000000 -1.000000 -0.000000
vn 0.000000 -1.000000 -0.000000
vn 0.000000 -1.000000 -0.000000
vn 0.000000 -1.000000 -0.000000
vn 0.000000 -1.000000 -0.000000
vn 0.000000 -1.000000 -0.000000
vn 0.000000 -1.000000 -0.000000
vn 0.000000 -1.000000 -0.000000
vn 0.000000 -1.000000 -0.000000
vn 0.000000 -1.000000 -0.000000
vn 0.000000 -1.000000 -0.000000
vn 0.000000 -1.000000 -0.000000
vn 0.000000 -1.000000 -0.000000
vn 0.000000 -1.000000 -0.000000
vn 0.000000 -1.000000 -0.000000
vn 0.000000 -1.000000 -0.000000
vn 0.000000 -1.000000 -0.000000
vn 0.000000 -1.000000 -0.000000
vn 0.000000 -1.000000 -0.000000
vn 0.000000 -1.000000 -0.000000
vn 0.000000 -1.000000 -0.000000
vn 0.000000 -1.000000 -0.000000
vn 0.000000 -1.000000 -0.000000
vn 0.000000 -1.000000 -0.000000
vn 0.000000 -1.000000 -0.000000
vn 0.000000 -1.000000 -0.000000
vn 0.000000 -1.000000 -0.000000
vn 0.000000 -1.000000 -0.000000
vn 0.000000 -1.000000 -0.000000
vn 0.000000 -1.000000 -0.000000
vn 0.000000 -1.000000 -0.000000
vn 0.000000 -1.000000 -0.000000
vn 0.000000 -1.000000 -0.000000
vn 0.000000 -1.000000 -0.000000
vn 0.000000 -1.000000 -0.000000
vn 0.000000 -1.000000 -0.000000
vn 0.000000 -1.000000 -0.000000
vn 0.000000 -1.000000 -0.000000
vn 0.000000 -1.000000 -0.000000
vn 0.000000 -1.000000 -0.000000
vn 0.000000 -1.000000 -0.000000
vn 0.000000 -1.000000 -0.000000
vn 0.000000 -1.000000 -0.000000
vn 0.000000 -1.000000 -0.000000
vn 0.000000 -1.000000 -0.000000
vn 0.000000 -1.000000 -0.000000
vn 0.000000 -1.000000 -0.000000
vn 0.000000 -1.000000 -0.000000
vn 0.000000 -1.000000 -0.000000
vn 0.000000 -1.000000 -0.000000
vn 0.000000 -1.000000 -0.000000
vn 0.000000 -1.000000 -0.000000
vn 0.000000 -1.000000 -0.000000
vn 0.000000 -1.000000 -0.000000
vn 0.000000 -1.000000 -0.000000
vn 0.000000 -1.000000 -0.000000
vn 0.000000 -1.000000 -0.000000
vn 0.000000 -1.000000 -0.000000
vn 0.000000 -1.000000 -0.000000
vn 0.000000 -1.000000 -0.000000
vn 0.000000 -1.000000 -0.000000
vn 0.000000 -1.000000 -0.000000
vn 0.000000 -1.000000 -0.000000
vn 0.000000 -1.000000 -0.000000
vn 0.000000 -1.000000 -0.000000
vn 0.000000 -1.000000 -0.000000
vn 0.000000 -1.000000 -0.000000
vn 0.000000 -1.000000 -0.000000
vn 0.000000 -1.000000 -0.000000
vn 0.000000 -1.000000 -0.000000
vn 0.000000 -1.000000 -0.000000
vn 0.000000 -1.000000 -0.000000
vn 0.000000 -1.000000 -0.000000
vn 0.000000 -1.000000 -0.000000
vn 0.000000 -1.000000 -0.000000
vn 0.000000 -1.000000 -0.000000
vn 0.000000 -1.000000 -0.000000
vn 0.000000 -1.000000 -0.000000
vn 0.000000 -1.000000 -0.000000
vn 0.000000 -1.000000 -0.000000
vn 0.000000 -1.000000 -0.000000
vn 0.000000 -1.000000 -0.000000
vn 0.000000 -1.000000 -0.000000
vn 0.000000 -1.000000 -0.000000
vn 0.000000 -1.000000 -0.000000
vn 0.000000 -1.000000 -0.000000
vn 0.000000 -1.000000 -0.000000
vn 0.000000 -1.000000 -0.000000
vn 0.000000 -1.000000 -0.000000
vn 0.000000 -1.000000 -0.000000
vn 0.000000 -1.000000 -0.000000
vn 0.000000 -1.000000 -0.000000
vn 0.000000 -1.000000 -0.000000
vn 0.000000 -1.000000 -0.000000
vn 0.000000 -1.000000 -0.000000
vn 0.000000 -1.000000 -0.000000
vn 0.000000 -1.000000 -0.000000
vn 0.000000 -1.000000 -0.000000
vn 0.000000 -1.000000 -0.000000
vn 0.000000 -1.000000 -0.000000
vn 0.000000 -1.000000 -0.000000
vn 0.000000 -1.000000 -0.000000
vn 0.000000 -1.000000 -0.000000
vn 0.000000 -1.000000 -0.000000
vn 0.000000 -1.000000 -0.000000
vn 0.000000 -1.000000 -0.000000
vn 0.000000 -1.000000 -0.000000
vn 0.000000 -1.000000 -0.000000
vn 0.000000 -1.000000 -0.000000
vn 0.000000 -1.000000 -0.000000
vn 0.000000 -1.000000 -0.000000
vn 0.000000 -1.000000 -0.000000
vn 0.000000 -1.000000 -0.000000
vn 0.000000 -1.000000 -0.000000
vn 0.000000 -1.000000 -0.000000
vn 0.000000 -1.000000 -0.000000
vn 0.000000 -1.000000 -0.000000
vn 0.000000 -1.000000 -0.000000
vn 0.000000 -1.000000 -0.000000
vn 0.000000 -1.000000 -0.000000
vn 0.000000 -1.000000 -0.000000
vn 0.000000 -1.000000 -0.000000
vn 0.000000 -1.000000 -0.000000
vn 0.000000 -1.000000 -0.000000
vn 0.000000 -1.000000 -0.000000
vn 0.000000 -1.000000 -0.000000
vn 0.000000 -1.000000 -0.000000
vn 0.000000 -1.000000 -0.000000
vn 0.000000 -1.000000 -0.000000
vn 0.000000 -1.000000 -0.000000
vn 0.000000 -1.000000 -0.000000
vn 0.000000 -1.000000 -0.000000
vn 0.000000 -1.000000 -0.000000
vn 0.000000 -1.000000 -0.000000
vn 0.000000 -1.000000 -0.000000
vn 0.000000 -1.000000 -0.000000
vn 0.000000 -1.000000 -0.000000
vn 0.000000 -1.000000 -0.000000
vn 0.000000 -1.000000 -0.000000
vn 0.000000 -1.000000 -0.000000
vn 0.000000 -1.000000 -0.000000
vn 0.000000 -1.000000 -0.000000
vn 0.000000 -1.000000 -0.000000
vn 0.000000 -1.000000 -0.000000
vn 0.000000 -1.000000 -0.000000
vn 0.000000 -1.000000 -0.000000
vn 0.000000 -1.000000 -0.000000
vn 0.000000 -1.000000 -0.000000
vn 0.000000 -1.000000 -0.000000
vn 0.000000 -1.000000 -0.000000
vn 0.000000 -1.000000 -0.000000
vn 0.000000 -1.000000 -0.000000
vn 0.000000 -1.000000 -0.000000
vn 0.000000 -1.000000 -0.000000
vn 0.000000 -1.000000 -0.000000
vn 0.000000 -1.000000 -0.000000
vn 0.000000 1.000000 0.000000
vn 0.000000 1.000000 0.000000
vn 0.000000 1.000000 0.000000
vn 0.000000 1.000000 0.000000
vn 0.000000 1.000000 0.000000
vn 0.000000 1.000000 0.000000
vn 0.000000 1.000000 0.000000
vn 0.000000 1.000000 0.000000
vn 0.000000 1.000000 0.000000
vn 0.000000 1.000000 0.000000
vn 0.000000 1.000000 0.000000
vn 0.000000 1.000000 0.000000
vn 0.000000 1.000000 0.000000
vn 0.000000 1.000000 0.000000
vn 0.000000 1.000000 0.000000
vn 0.000000 1.000000 0.000000
vn 0.000000 1.000000 0.000000
vn 0.000000 1.000000 0.000000
vn 0.000000 1.000000 0.000000
vn 0.000000 1.000000 0.000000
vn 0.000000 1.000000 0.000000
vn 0.000000 1.000000 0.000000
vn 0.000000 1.000000 0.000000
vn 0.000000 1.000000 0.000000
vn 0.000000 1.000000 0.000000
vn 0.000000 1.000000 0.000000
vn 0.000000 1.000000 0.000000
vn 0.000000 1.000000 0.000000
vn 0.000000 1.000000 0.000000
vn 0.000000 1.000000 0.000000
vn 0.000000 1.000000 0.000000
vn 0.000000 1.000000 0.000000
vn 0.000000 1.000000 0.000000
vn 0.000000 1.000000 0.000000
vn 0.000000 1.000000 0.000000
vn 0.000000 1.000000 0.000000
vn 0.000000 1.000000 0.000000
vn 0.000000 1.000000 0.000000
vn 0.000000 1.000000 0.000000
vn 0.000000 1.000000 0.000000
vn 0.000000 1.000000 0.000000
vn 0.000000 1.000000 0.000000
vn 0.000000 1.000000 0.000000
vn 0.000000 1.000000 0.000000
vn 0.000000 1.000000 0.000000
vn 0.000000 1.000000 0.000000
vn 0.000000 1.000000 0.000000
vn 0.000000 1.000000 0.000000
vn 0.000000 1.000000 0.000000
vn 0.000000 1.000000 0.000000
vn 0.000000 1.000000 0.000000
vn 0.000000 1.000000 0.000000
vn 0.000000 1.000000 0.000000
vn 0.000000 1.000000 0.000000
vn 0.000000 1.000000 0.000000
vn 0.000000 1.000000 0.000000
vn 0.000000 1.000000 0.000000
vn 0.000000 1.000000 0.000000
vn 0.000000 1.000000 0.000000
vn 0.000000 1.000000 0.000000
vn 0.000000 1.000000 0.000000
vn 0.000000 1.000000 0.000000
vn 0.000000 1.000000 0.000000
vn 0.000000 1.000000 0.000000
vn 0.000000 1.000000 0.000000
vn 0.000000 1.000000 0.000000
vn 0.000000 1.000000 0.000000
vn 0.000000 1.000000 0.000000
vn 0.000000 1.000000 0.000000
vn 0.000000 1.000000 0.000000
vn 0.000000 1.000000 0.000000
vn 0.000000 1.000000 0.000000
vn 0.000000 1.000000 0.000000
vn 0.000000 1.000000 0.000000
vn 0.000000 1.000000 0.000000
vn 0.000000 1.000000 0.000000
vn 0.000000 1.000000 0.000000
vn 0.000000 1.000000 0.000000
vn 0.000000 1.000000 0.000000
vn 0.000000 1.000000 0.000000
vn 0.000000 1.000000 0.000000
vn 0.000000 1.000000 0.000000
vn 0.000000 1.000000 0.000000
vn 0.000000 1.000000 0.000000
vn 0.000000 1.000000 0.000000
vn 0.000000 1.000000 0.000000
vn 0.000000 1.000000 0.000000
vn 0.000000 1.000000 0.000000
vn 0.000000 1.000000 0.000000
vn 0.000000 1.000000 0.000000
vn 0.000000 1.000000 0.000000
vn 0.000000 1.000000 0.000000
vn 0.000000 1.000000 0.000000
vn 0.000000 1.000000 0.000000
vn 0.000000 1.000000 0.000000
vn 0.000000 1.000000 0.000000
vn 0.000000 1.000000 0.000000
vn 0.000000 1.000000 0.000000
vn 0.000000 1.000000 0.000000
vn 0.000000 1.000000 0.000000
vn 0.000000 1.000000 0.000000
vn 0.000000 1.000000 0.000000
vn 0.000000 1.000000 0.000000
vn 0.000000 1.000000 0.000000
vn 0.000000 1.000000 0.000000
vn 0.000000 1.000000 0.000000
vn 0.000000 1.000000 0.000000
vn 0.000000 1.000000 0.000000
vn 0.000000 1.000000 0.000000
vn 0.000000 1.000000 0.000000
vn 0.000000 1.000000 0.000000
vn 0.000000 1.000000 0.000000
vn 0.000000 1.000000 0.000000
vn 0.000000 1.000000 0.000000
vn 0.000000 1.000000 0.000000
vn 0.000000 1.000000 0.000000
vn 0.000000 1.000000 0.000000
vn 0.000000 1.000000 0.000000
vn 0.000000 1.000000 0.000000
vn 0.000000 1.000000 0.000000
vn 0.000000 1.000000 0.000000
vn 0.000000 1.000000 0.000000
vn 0.000000 1.000000 0.000000
vn 0.000000 1.000000 0.000000
vn 0.000000 1.000000 0.000000
vn 0.000000 1.000000 0.000000
vn 0.000000 1.000000 0.000000
vn 0.000000 1.000000 0.000000
vn 0.000000 1.000000 0.000000
vn 0.000000 1.000000 0.000000
vn 0.000000 1.000000 0.000000
vn 0.000000 1.000000 0.000000
vn 0.000000 1.000000 0.000000
vn 0.000000 1.000000 0.000000
vn 0.000000 1.000000 0.000000
vn 0.000000 1.000000 0.000000
vn 0.000000 1.000000 0.000000
vn 0.000000 1.000000 0.000000
vn 0.000000 1.000000 0.000000
vn 0.000000 1.000000 0.000000
vn 0.000000 1.000000 0.000000
vn 0.000000 1.000000 0.000000
vn 0.000000 1.000000 0.000000
vn 0.000000 1.000000 0.000000
vn 0.000000 1.000000 0.000000
vn 0.000000 1.000000 0.000000
vn 0.000000 1.000000 0.000000
vn 0.000000 1.000000 0.000000
vn 0.000000 1.000000 0.000000
vn 0.000000 1.000000 0.000000
vn 0.000000 1.000000 0.000000
vn 0.000000 1.000000 0.000000
vn 0.000000 1.000000 0.000000
vn 0.000000 1.000000 0.000000
vn 0.000000 1.000000 0.000000
vn 0.000000 1.000000 0.000000
vn 0.000000 1.000000 0.000000
vn 0.000000 1.000000 0.000000
vn 0.000000 1.000000 0.000000
vn 0.000000 1.000000 0.000000
vn 0.000000 1.000000 0.000000
vn 0.000000 1.000000 0.000000
vn 0.000000 1.000000 0.000000
vn 0.000000 1.000000 0.000000
vn 0.000000 1.000000 0.000000
vn 0.000000 1.000000 0.000000
vn 0.000000 1.000000 0.000000
vn 0.000000 1.000000 0.000000
vn 0.000000 1.000000 0.000000
vn 0.000000 1.000000 0.000000
f 2//2 1//1 12//12
f 3//3 2//2 7//7
f 3//3 7//7 8//8
f 4//4 3//3 8//8
f 4//4 8//8 9//9
f 4//4 11//11 5//5
f 2//2 12//12 7//7
f 10//10 11//11 9//9
f 9//9 11//11 4//4
f 6//6 7//7 12//12
f 17//17 14//14 13//13
f 15//15 14//14 16//16
f 17//17 16//16 14//14
f 19//19 18//18 20//20
f 19//19 20//20 21//21
f 22//22 34//34 33//33
f 22//22 33//33 23//23
f 35//35 36//36 31//31
f 35//35 31//31 32//32
f 34//34 35//35 32//32
f 34//34 32//32 33//33
f 36//36 24//24 25//25
f 36//36 25//25 31//31
f 38//38 29//29 30//30
f 38//38 30//30 37//37
f 39//39 26//26 27//27
f 39//39 27//27 28//28
f 38//38 39//39 28//28
f 38//38 28//28 29//29
f 37//37 30//30 25//25
f 37//37 25//25 24//24
f 83//83 81//81 80//80
f 83//83 80//80 82//82
f 86//86 84//84 78//78
f 86//86 78//78 85//85
f 81//81 86//86 85//85
f 81//81 85//85 80//80
f 85//85 78//78 77//77
f 79//79 80//80 85//85
f 77//77 79//79 85//85
f 93//93 91//91 89//89
f 93//93 89//89 92//92
f 84//84 93//93 92//92
f 84//84 92//92 78//78
f 96//96 94//94 87//87
f 96//96 87//87 95//95
f 91//91 96//96 95//95
f 91//91 95//95 89//89
f 95//95 87//87 76//76
f 88//88 89//89 95//95
f 76//76 88//88 95//95
f 92//92 89//89 88//88
f 77//77 78//78 92//92
f 88//88 77//77 92//92
f 88//88 76//76 51//51
f 55//55 77//77 88//88
f 51//51 55//55 88//88
f 102//102 100//100 99//99
f 102//102 99//99 101//101
f 94//94 102//102 101//101
f 94//94 101//101 87//87
f 105//105 103//103 97//97
f 105//105 97//97 104//104
f 100//100 105//105 104//104
f 100//100 104//104 99//99
f 104//104 97//97 90//90
f 98//98 99//99 104//104
f 90//90 98//98 104//104
f 101//101 99//99 98//98
f 76//76 87//87 101//101
f 98//98 76//76 101//101
f 110//110 108//108 107//107
f 110//110 107//107 109//109
f 103//103 110//110 109//109
f 103//103 109//109 97//97
f 108//108 112//112 111//111
f 108//108 111//111 107//107
f 109//109 107//107 106//106
f 90//90 97//97 109//109
f 106//106 90//90 109//109
f 98//98 90//90 53//53
f 51//51 76//76 98//98
f 53//53 51//51 98//98
f 51//51 53//53 54//54
f 51//51 54//54 52//52
f 55//55 51//51 52//52
f 55//55 52//52 56//56
f 53//53 106//106 40//40
f 44//44 54//54 40//40
f 111//111 40//40 106//106
f 41//41 40//40 111//111
f 107//107 111//111 106//106
f 112//112 108//108 74//74
f 112//112 74//74 75//75
f 112//112 41//41 111//111
f 54//54 45//45 46//46
f 52//52 46//46 47//47
f 40//40 54//54 53//53
f 52//52 54//54 46//46
f 106//106 53//53 90//90
f 52//52 47//47 48//48
f 44//44 45//45 54//54
f 75//75 41//41 112//112
f 108//108 110//110 72//72
f 108//108 72//72 73//73
f 110//110 103//103 71//71
f 110//110 71//71 72//72
f 74//74 108//108 73//73
f 70//70 71//71 103//103
f 70//70 103//103 105//105
f 105//105 100//100 69//69
f 105//105 69//69 70//70
f 100//100 102//102 67//67
f 100//100 67//67 68//68
f 68//68 69//69 100//100
f 102//102 94//94 66//66
f 102//102 66//66 67//67
f 56//56 48//48 49//49
f 50//50 56//56 49//49
f 94//94 96//96 65//65
f 94//94 65//65 66//66
f 91//91 93//93 62//62
f 91//91 62//62 63//63
f 96//96 91//91 64//64
f 96//96 64//64 65//65
f 56//56 52//52 48//48
f 55//55 56//56 42//42
f 50//50 42//42 56//56
f 79//79 55//55 42//42
f 55//55 79//79 77//77
f 79//79 82//82 80//80
f 82//82 79//79 42//42
f 82//82 42//42 43//43
f 93//93 84//84 61//61
f 93//93 61//61 62//62
f 63//63 64//64 91//91
f 60//60 61//61 84//84
f 60//60 84//84 86//86
f 86//86 59//59 60//60
f 81//81 59//59 86//86
f 81//81 83//83 57//57
f 81//81 57//57 58//58
f 81//81 58//58 59//59
f 83//83 43//43 57//57
f 43//43 83//83 82//82
f 113//113 118//118 154//154
f 113//113 154//154 114//114
f 119//119 120//120 152//152
f 119//119 152//152 153//153
f 120//120 121//121 151//151
f 120//120 151//151 152//152
f 118//118 119//119 153//153
f 118//118 153//153 154//154
f 122//122 123//123 149//149
f 122//122 149//149 150//150
f 124//124 125//125 115//115
f 124//124 115//115 148//148
f 125//125 126//126 147//147
f 125//125 147//147 115//115
f 123//123 124//124 148//148
f 123//123 148//148 149//149
f 121//121 122//122 150//150
f 121//121 150//150 151//151
f 146//146 147//147 126//126
f 146//146 126//126 127//127
f 128//128 129//129 144//144
f 128//128 144//144 145//145
f 130//130 131//131 142//142
f 130//130 142//142 143//143
f 131//131 132//132 141//141
f 131//131 141//141 142//142
f 129//129 130//130 143//143
f 129//129 143//143 144//144
f 133//133 134//134 139//139
f 133//133 139//139 140//140
f 135//135 136//136 137//137
f 135//135 137//137 138//138
f 136//136 116//116 117//117
f 136//136 117//117 137//137
f 134//134 135//135 138//138
f 134//134 138//138 139//139
f 132//132 133//133 140//140
f 132//132 140//140 141//141
f 145//145 146//146 127//127
f 145//145 127//127 128//128
f 204//204 197//197 196//196
f 198//198 199//199 204//204
f 196//196 198//198 204//204
f 199//199 201//201 202//202
f 199//199 202//202 200//200
f 197//197 204//204 205//205
f 197//197 205//205 203//203
f 204//204 199//199 200//200
f 204//204 200//200 205//205
f 209//209 207//207 206//206
f 196//196 197//197 209//209
f 206//206 196//196 209//209
f 207//207 209//209 210//210
f 207//207 210//210 208//208
f 209//209 197//197 203//203
f 209//209 203//203 210//210
f 211//211 207//207 208//208
f 211//211 208//208 212//212
f 202//202 155//155 177//177
f 202//202 177//177 178//178
f 180//180 202//202 179//179
f 178//178 179//179 202//202
f 202//202 180//180 200//200
f 181//181 200//200 180//180
f 201//201 155//155 202//202
f 205//205 200//200 182//182
f 205//205 182//182 183//183
f 185//185 205//205 184//184
f 183//183 184//184 205//205
f 205//205 185//185 203//203
f 186//186 203//203 185//185
f 181//181 182//182 200//200
f 157//157 156//156 167//167
f 157//157 167//167 168//168
f 156//156 198//198 196//196
f 160//160 159//159 170//170
f 160//160 170//170 171//171
f 163//163 162//162 173//173
f 163//163 173//173 174//174
f 162//162 161//161 172//172
f 162//162 172//172 173//173
f 158//158 157//157 168//168
f 158//158 168//168 169//169
f 198//198 201//201 199//199
f 159//159 158//158 169//169
f 159//159 169//169 170//170
f 164//164 175//175 176//176
f 164//164 176//176 213//213
f 164//164 213//213 165//165
f 164//164 163//163 174//174
f 164//164 174//174 175//175
f 161//161 160//160 171//171
f 161//161 171//171 172//172
f 201//201 198//198 156//156
f 201//201 156//156 155//155
f 210//210 203//203 187//187
f 210//210 187//187 188//188
f 190//190 210//210 189//189
f 188//188 189//189 210//210
f 210//210 190//190 208//208
f 191//191 208//208 190//190
f 212//212 208//208 192//192
f 212//212 192//192 193//193
f 195//195 212//212 194//194
f 193//193 194//194 212//212
f 212//212 195//195 166//166
f 211//211 212//212 166//166
f 191//191 192//192 208//208
f 211//211 206//206 207//207
f 211//211 167//167 206//206
f 167//167 196//196 206//206
f 167//167 211//211 166//166
f 156//156 196//196 167//167
f 187//187 203//203 186//186
f 227//227 226//226 219//219
f 227//227 219//219 223//223
f 226//226 228//228 221//221
f 226//226 221//221 219//219
f 219//219 221//221 222//222
f 219//219 222//222 220//220
f 223//223 219//219 220//220
f 223//223 220//220 224//224
f 222//222 214//214 218//218
f 220//220 222//222 218//218
f 221//221 214//214 222//222
f 228//228 215//215 221//221
f 214//214 221//221 215//215
f 225//225 215//215 228//228
f 225//225 228//228 226//226
f 220//220 218//218 224//224
f 223//223 224//224 216//216
f 218//218 216//216 224//224
f 217//217 223//223 216//216
f 227//227 225//225 226//226
f 225//225 227//227 217//217
f 223//223 217//217 227//227
f 247//247 230//230 229//229
f 232//232 231//231 240//240
f 232//232 240//240 241//241
f 231//231 230//230 239//239
f 231//231 239//239 240//240
f 233//233 232//232 241//241
f 233//233 241//241 242//242
f 234//234 233//233 242//242
f 234//234 242//242 243//243
f 236//236 235//235 244//244
f 236//236 244//244 245//245
f 236//236 248//248 237//237
f 235//235 234//234 243//243
f 235//235 243//243 244//244
f 239//239 230//230 247//247
f 236//236 245//245 248//248
f 248//248 245//245 246//246
f 238//238 239//239 247//247
f 254//254 250//250 249//249
f 254//254 249//249 253//253
f 253//253 251//251 252//252
f 253//253 252//252 254//254
f 281//281 256//256 255//255
f 257//257 256//256 268//268
f 257//257 268//268 269//269
f 259//259 258//258 270//270
f 259//259 270//270 271//271
f 258//258 257//257 269//269
f 258//258 269//269 270//270
f 260//260 259//259 271//271
f 260//260 271//271 272//272
f 261//261 260//260 272//272
f 261//261 272//272 273//273
f 262//262 261//261 273//273
f 262//262 273//273 274//274
f 263//263 262//262 274//274
f 263//263 274//274 275//275
f 265//265 264//264 276//276
f 265//265 276//276 277//277
f 266//266 279//279 283//283
f 266//266 265//265 277//277
f 266//266 277//277 278//278
f 264//264 263//263 275//275
f 264//264 275//275 276//276
f 281//281 268//268 256//256
f 278//278 279//279 266//266
f 282//282 279//279 280//280
f 283//283 279//279 282//282
f 267//267 268//268 281//281
f 294//294 292//292 291//291
f 294//294 291//291 293//293
f 292//292 296//296 295//295
f 292//292 295//295 291//291
f 295//295 285//285 291//291
f 286//286 285//285 295//295
f 290//290 286//286 296//296
f 295//295 296//296 286//286
f 296//296 292//292 290//290
f 285//285 284//284 287//287
f 285//285 287//287 288//288
f 291//291 285//285 288//288
f 293//293 291//291 288//288
f 294//294 289//289 290//290
f 293//293 289//289 294//294
f 289//289 293//293 288//288
f 292//292 294//294 290//290
f 326//326 324//324 323//323
f 326//326 323//323 325//325
f 324//324 328//328 327//327
f 324//324 327//327 323//323
f 299//299 298//298 307//307
f 299//299 307//307 308//308
f 301//301 300//300 309//309
f 301//301 309//309 310//310
f 300//300 299//299 308//308
f 300//300 308//308 309//309
f 303//303 302//302 311//311
f 303//303 311//311 312//312
f 313//313 323//323 304//304
f 304//304 303//303 312//312
f 304//304 312//312 313//313
f 302//302 301//301 310//310
f 302//302 310//310 311//311
f 305//305 327//327 328//328
f 328//328 322//322 305//305
f 322//322 328//328 321//321
f 304//304 327//327 305//305
f 324//324 320//320 328//328
f 320//320 321//321 328//328
f 320//320 324//324 319//319
f 323//323 327//327 304//304
f 315//315 298//298 297//297
f 307//307 315//315 306//306
f 326//326 318//318 324//324
f 314//314 326//326 325//325
f 318//318 319//319 324//324
f 318//318 326//326 317//317
f 317//317 326//326 316//316
f 314//314 325//325 313//313
f 314//314 316//316 326//326
f 323//323 313//313 325//325
f 315//315 307//307 298//298
f 335//335 340//340 329//329
f 334//334 337//337 336//336
f 334//334 336//336 335//335
f 333//333 338//338 337//337
f 333//333 337//337 334//334
f 333//333 330//330 339//339
f 335//335 336//336 340//340
f 332//332 338//338 339//339
f 338//338 333//333 339//339
f 331//331 340//340 336//336
f 347//347 351//351 341//341
f 346//346 349//349 348//348
f 346//346 348//348 347//347
f 345//345 350//350 349//349
f 345//345 349//349 346//346
f 345//345 342//342 352//352
f 347//347 348//348 351//351
f 344//344 350//350 352//352
f 350//350 345//345 352//352
f 343//343 351//351 348//348
f 357//357 359//359 353//353
f 357//357 354//354 360//360
f 358//358 359//359 357//357
f 357//357 360//360 358//358
f 358//358 360//360 356//356
f 355//355 359//359 358//358
f 379//379 361//361 372//372
f 370//370 375//375 374//374
f 370//370 374//374 371//371
f 371//371 374//374 373//373
f 371//371 373//373 372//372
f 362//362 365//365 375//375
f 362//362 375//375 370//370
f 369//369 376//376 365//365
f 369//369 365//365 362//362
f 367//367 378//378 377//377
f 367//367 377//377 368//368
f 367//367 363//363 380//380
f 368//368 377//377 376//376
f 368//368 376//376 369//369
f 373//373 379//379 372//372
f 367//367 380//380 378//378
f 380//380 366//366 378//378
f 364//364 379//379 373//373
f 385//385 387//387 381//381
f 385//385 382//382 388//388
f 386//386 387//387 385//385
f 385//385 388//388 386//386
f 386//386 388//388 384//384
f 383//383 387//387 386//386
f 406//406 408//408 407//407
f 406//406 407//407 389//389
f 404//404 410//410 409//409
f 404//404 409//409 405//405
f 405//405 409//409 408//408
f 405//405 408//408 406//406
f 402//402 412//412 411//411
f 402//402 411//411 403//403
f 400//400 414//414 413//413
f 400//400 413//413 401//401
f 401//401 413//413 412//412
f 401//401 412//412 402//402
f 403//403 411//411 410//410
f 403//403 410//410 404//404
f 398//398 416//416 415//415
f 398//398 415//415 399//399
f 396//396 418//418 417//417
f 396//396 417//417 397//397
f 397//397 417//417 416//416
f 397//397 416//416 398//398
f 394//394 420//420 419//419
f 394//394 419//419 395//395
f 392//392 422//422 421//421
f 392//392 421//421 393//393
f 391//391 390//390 422//422
f 391//391 422//422 392//392
f 393//393 421//421 420//420
f 393//393 420//420 394//394
f 395//395 419//419 418//418
f 395//395 418//418 396//396
f 399//399 415//415 414//414
f 399//399 414//414 400//400
f 440//440 442//442 441//441
f 440//440 441//441 423//423
f 438//438 444//444 443//443
f 438//438 443//443 439//439
f 439//439 443//443 442//442
f 439//439 442//442 440//440
f 436//436 446//446 445//445
f 436//436 445//445 437//437
f 434//434 448//448 447//447
f 434//434 447//447 435//435
f 435//435 447//447 446//446
f 435//435 446//446 436//436
f 437//437 445//445 444//444
f 437//437 444//444 438//438
f 432//432 450//450 449//449
f 432//432 449//449 433//433
f 430//430 452//452 451//451
f 430//430 451//451 431//431
f 431//431 451//451 450//450
f 431//431 450//450 432//432
f 428//428 454//454 453//453
f 428//428 453//453 429//429
f 426//426 456//456 455//455
f 426//426 455//455 427//427
f 425//425 424//424 456//456
f 425//425 456//456 426//426
f 427//427 455//455 454//454
f 427//427 454//454 428//428
f 429//429 453//453 452//452
f 429//429 452//452 430//430
f 433//433 449//449 448//448
f 433//433 448//448 434//434
f 467//467 470//470 469//469
f 467//467 469//469 468//468
f 458//458 461//461 471//471
f 458//458 471//471 466//466
f 465//465 472//472 461//461
f 465//465 461//461 458//458
f 466//466 471//471 470//470
f 466//466 470//470 467//467
f 463//463 474//474 473//473
f 463//463 473//473 464//464
f 459//459 475//475 463//463
f 463//463 475//475 474//474
f 464//464 473//473 472//472
f 464//464 472//472 465//465
f 476//476 457//457 468//468
f 469//469 460//460 476//476
f 474//474 475//475 462//462
f 476//476 468//468 469//469
f 481//481 483//483 477//477
f 481//481 478//478 484//484
f 484//484 483//483 481//481
f 484//484 480//480 482//482
f 484//484 482//482 483//483
f 479//479 483//483 482//482
f 503//503 485//485 496//496
f 494//494 499//499 498//498
f 494//494 498//498 495//495
f 495//495 498//498 497//497
f 495//495 497//497 496//496
f 486//486 489//489 499//499
f 486//486 499//499 494//494
f 493//493 500//500 489//489
f 493//493 489//489 486//486
f 491//491 502//502 501//501
f 491//491 501//501 492//492
f 491//491 487//487 504//504
f 492//492 501//501 500//500
f 492//492 500//500 493//493
f 497//497 503//503 496//496
f 491//491 504//504 502//502
f 504//504 490//490 502//502
f 488//488 503//503 497//497
f 509//509 511//511 505//505
f 509//509 506//506 512//512
f 510//510 511//511 509//509
f 509//509 512//512 510//510
f 510//510 512//512 508//508
f 507//507 511//511 510//510
f 530//530 532//532 531//531
f 530//530 531//531 513//513
f 528//528 534//534 533//533
f 528//528 533//533 529//529
f 529//529 533//533 532//532
f 529//529 532//532 530//530
f 526//526 536//536 535//535
f 526//526 535//535 527//527
f 524//524 538//538 537//537
f 524//524 537//537 525//525
f 525//525 537//537 536//536
f 525//525 536//536 526//526
f 527//527 535//535 534//534
f 527//527 534//534 528//528
f 522//522 540//540 539//539
f 522//522 539//539 523//523
f 520//520 542//542 541//541
f 520//520 541//541 521//521
f 521//521 541//541 540//540
f 521//521 540//540 522//522
f 518//518 544//544 543//543
f 518//518 543//543 519//519
f 516//516 546//546 545//545
f 516//516 545//545 517//517
f 515//515 514//514 546//546
f 515//515 546//546 516//516
f 517//517 545//545 544//544
f 517//517 544//544 518//518
f 519//519 543//543 542//542
f 519//519 542//542 520//520
f 523//523 539//539 538//538
f 523//523 538//538 524//524
f 553//553 558//558 547//547
f 552//552 555//555 554//554
f 552//552 554//554 553//553
f 551//551 556//556 555//555
f 551//551 555//555 552//552
f 551//551 548//548 557//557
f 553//553 554//554 558//558
f 550//550 556//556 557//557
f 556//556 551//551 557//557
f 549//549 558//558 554//554
f 564//564 567//567 566//566
f 564//564 566//566 565//565
f 563//563 568//568 567//567
f 563//563 567//567 564//564
f 560//560 570//570 563//563
f 563//563 570//570 568//568
f 569//569 559//559 565//565
f 566//566 561//561 569//569
f 568//568 570//570 562//562
f 565//565 566//566 569//569
f 575//575 577//577 571//571
f 575//575 572//572 578//578
f 576//576 577//577 575//575
f 575//575 578//578 576//576
f 576//576 578//578 574//574
f 573//573 577//577 576//576
f 597//597 579//579 590//590
f 588//588 593//593 592//592
f 588//588 592//592 589//589
f 589//589 592//592 591//591
f 589//589 591//591 590//590
f 580//580 583//583 593//593
f 580//580 593//593 588//588
f 587//587 594//594 583//583
f 587//587 583//583 580//580
f 585//585 596//596 595//595
f 585//585 595//595 586//586
f 585//585 581//581 598//598
f 586//586 595//595 594//594
f 586//586 594//594 587//587
f 591//591 597//597 590//590
f 585//585 598//598 596//596
f 598//598 584//584 596//596
f 582//582 597//597 591//591
f 603//603 605//605 599//599
f 603//603 600//600 606//606
f 604//604 605//605 603//603
f 603//603 606//606 604//604
f 604//604 606//606 602//602
f 601//601 605//605 604//604
f 614//614 612//612 609//609
f 612//612 611//611 609//609
f 610//610 607//607 612//612
f 614//614 613//613 610//610
f 614//614 609//609 608//608
f 610//610 612//612 614//614
f 616//616 619//619 615//615
f 618//618 619//619 617//617
f 616//616 617//617 619//619
f 625//625 624//624 620//620
f 623//623 622//622 625//625
f 623//623 621//621 622//622
f 625//625 622//622 624//624
f 626//626 631//631 632//632
f 626//626 632//632 627//627
f 631//631 630//630 632//632
f 630//630 628//628 632//632
f 629//629 630//630 631//631
f 635//635 633//633 637//637
f 634//634 636//636 635//635
f 633//633 635//635 636//636
f 642//642 639//639 638//638
f 641//641 640//640 642//642
f 639//639 642//642 640//640
f 647//647 648//648 646//646
f 647//647 646//646 643//643
f 645//645 646//646 648//648
f 645//645 648//648 644//644
f 654//654 656//656 657//657
f 654//654 657//657 655//655
f 658//658 654//654 655//655
f 658//658 655//655 659//659
f 657//657 649//649 653//653
f 650//650 649//649 656//656
f 657//657 656//656 649//649
f 654//654 650//650 656//656
f 655//655 657//657 653//653
f 655//655 653//653 659//659
f 651//651 659//659 653//653
f 658//658 659//659 651//651
f 652//652 654//654 658//658
f 651//651 652//652 658//658
f 650//650 654//654 652//652
f 750//750 821//821 751//751
f 819//819 731//731 820//820
f 820//820 730//730 821//821
f 730//730 751//751 821//821
f 750//750 822//822 821//821
f 822//822 750//750 749//749
f 751//751 730//730 752//752
f 823//823 822//822 749//749
f 753//753 752//752 729//729
f 734//734 818//818 817//817
f 735//735 817//817 816//816
f 733//733 818//818 734//734
f 734//734 817//817 735//735
f 818//818 733//733 819//819
f 819//819 733//733 732//732
f 732//732 731//731 819//819
f 731//731 730//730 820//820
f 729//729 752//752 730//730
f 728//728 753//753 729//729
f 698//698 754//754 728//728
f 728//728 754//754 753//753
f 748//748 823//823 749//749
f 746//746 824//824 747//747
f 823//823 748//748 747//747
f 824//824 746//746 745//745
f 745//745 825//825 824//824
f 824//824 823//823 747//747
f 758//758 691//691 825//825
f 825//825 759//759 758//758
f 761//761 760//760 668//668
f 744//744 759//759 825//825
f 758//758 757//757 691//691
f 745//745 744//744 825//825
f 760//760 759//759 743//743
f 696//696 741//741 740//740
f 696//696 739//739 697//697
f 739//739 754//754 697//697
f 740//740 739//739 696//696
f 696//696 695//695 741//741
f 743//743 759//759 744//744
f 694//694 743//743 742//742
f 742//742 695//695 694//694
f 760//760 743//743 694//694
f 760//760 694//694 668//668
f 741//741 695//695 742//742
f 754//754 698//698 697//697
f 736//736 815//815 814//814
f 816//816 815//815 735//735
f 702//702 719//719 811//811
f 718//718 811//811 719//719
f 815//815 736//736 735//735
f 736//736 814//814 813//813
f 718//718 717//717 811//811
f 692//692 812//812 811//811
f 813//813 737//737 736//736
f 722//722 721//721 701//701
f 720//720 701//701 721//721
f 666//666 703//703 701//701
f 722//722 701//701 703//703
f 704//704 703//703 666//666
f 701//701 720//720 719//719
f 666//666 707//707 706//706
f 666//666 706//706 705//705
f 666//666 705//705 704//704
f 719//719 702//702 701//701
f 665//665 707//707 666//666
f 716//716 811//811 717//717
f 812//812 724//724 723//723
f 738//738 813//813 723//723
f 692//692 724//724 812//812
f 700//700 725//725 724//724
f 737//737 813//813 738//738
f 727//727 726//726 699//699
f 728//728 727//727 698//698
f 698//698 727//727 699//699
f 700//700 724//724 692//692
f 699//699 725//725 700//700
f 699//699 726//726 725//725
f 692//692 811//811 715//715
f 716//716 715//715 811//811
f 665//665 709//709 708//708
f 714//714 693//693 715//715
f 712//712 693//693 713//713
f 714//714 713//713 693//693
f 711//711 693//693 712//712
f 665//665 711//711 710//710
f 693//693 711//711 665//665
f 709//709 665//665 710//710
f 715//715 693//693 692//692
f 707//707 665//665 708//708
f 813//813 812//812 723//723
f 809//809 684//684 683//683
f 810//810 809//809 682//682
f 683//683 682//682 809//809
f 791//791 810//810 682//682
f 809//809 808//808 684//684
f 807//807 806//806 685//685
f 686//686 685//685 806//806
f 685//685 808//808 807//807
f 684//684 808//808 685//685
f 829//829 791//791 682//682
f 690//690 784//784 826//826
f 664//664 663//663 786//786
f 690//690 664//664 784//784
f 664//664 785//785 784//784
f 783//783 826//826 784//784
f 828//828 793//793 829//829
f 826//826 783//783 782//782
f 794//794 793//793 828//828
f 794//794 828//828 795//795
f 792//792 829//829 793//793
f 792//792 791//791 829//829
f 804//804 687//687 686//686
f 686//686 805//805 804//804
f 687//687 804//804 803//803
f 803//803 802//802 687//687
f 806//806 805//805 686//686
f 801//801 689//689 688//688
f 802//802 801//801 688//688
f 681//681 689//689 801//801
f 800//800 681//681 801//801
f 687//687 802//802 688//688
f 797//797 828//828 827//827
f 796//796 795//795 828//828
f 826//826 671//671 827//827
f 826//826 781//781 780//780
f 782//782 781//781 826//826
f 828//828 797//797 796//796
f 799//799 681//681 800//800
f 671//671 799//799 798//798
f 671//671 826//826 780//780
f 798//798 797//797 671//671
f 797//797 827//827 671//671
f 799//799 671//671 681//681
f 672//672 671//671 780//780
f 774//774 660//660 755//755
f 756//756 755//755 660//660
f 756//756 691//691 757//757
f 774//774 661//661 660//660
f 756//756 660//660 691//691
f 773//773 662//662 661//661
f 662//662 773//773 772//772
f 772//772 771//771 788//788
f 787//787 662//662 772//772
f 774//774 773//773 661//661
f 667//667 762//762 761//761
f 669//669 763//763 667//667
f 762//762 667//667 763//763
f 764//764 763//763 669//669
f 761//761 668//668 667//667
f 679//679 766//766 680//680
f 680//680 766//766 765//765
f 670//670 680//680 764//764
f 765//765 764//764 680//680
f 669//669 670//670 764//764
f 679//679 767//767 766//766
f 786//786 663//663 787//787
f 771//771 770//770 789//789
f 788//788 771//771 789//789
f 663//663 662//662 787//787
f 779//779 673//673 780//780
f 674//674 673//673 779//779
f 778//778 777//777 675//675
f 779//779 778//778 674//674
f 780//780 673//673 672//672
f 778//778 675//675 674//674
f 790//790 769//769 678//678
f 678//678 768//768 679//679
f 768//768 767//767 679//679
f 769//769 768//768 678//678
f 790//790 770//770 769//769
f 677//677 776//776 775//775
f 677//677 775//775 790//790
f 677//677 676//676 776//776
f 676//676 777//777 776//776
f 676//676 675//675 777//777
f 678//678 677//677 790//790
f 790//790 789//789 770//770
f 787//787 772//772 788//788
f 786//786 785//785 664//664
f 888//888 887//887 838//838
f 886//886 838//838 887//887
f 838//838 895//895 903//903
f 888//888 838//838 903//903
f 895//895 838//838 995//995
f 838//838 885//885 884//884
f 995//995 897//897 896//896
f 838//838 886//886 885//885
f 884//884 835//835 838//838
f 896//896 895//895 995//995
f 874//874 992//992 875//875
f 908//908 907//907 873//873
f 873//873 907//907 874//874
f 872//872 908//908 873//873
f 994//994 899//899 898//898
f 899//899 994//994 900//900
f 992//992 907//907 906//906
f 874//874 907//907 992//992
f 993//993 837//837 994//994
f 994//994 897//897 995//995
f 994//994 898//898 897//897
f 835//835 892//892 891//891
f 836//836 902//902 901//901
f 890//890 835//835 891//891
f 836//836 835//835 889//889
f 890//890 889//889 835//835
f 893//893 836//836 894//894
f 889//889 894//894 836//836
f 902//902 836//836 893//893
f 835//835 884//884 892//892
f 837//837 836//836 901//901
f 919//919 993//993 992//992
f 994//994 901//901 900//900
f 992//992 905//905 904//904
f 992//992 904//904 919//919
f 993//993 919//919 837//837
f 906//906 905//905 992//992
f 918//918 877//877 876//876
f 919//919 918//918 876//876
f 918//918 917//917 877//877
f 877//877 917//917 916//916
f 878//878 877//877 916//916
f 837//837 919//919 876//876
f 994//994 837//837 901//901
f 872//872 871//871 908//908
f 871//871 909//909 908//908
f 909//909 870//870 910//910
f 871//871 870//870 909//909
f 910//910 869//869 911//911
f 921//921 915//915 922//922
f 923//923 914//914 913//913
f 912//912 911//911 869//869
f 914//914 922//922 915//915
f 913//913 912//912 868//868
f 868//868 912//912 869//869
f 868//868 867//867 913//913
f 925//925 867//867 866//866
f 870//870 869//869 910//910
f 924//924 913//913 867//867
f 913//913 924//924 923//923
f 866//866 865//865 926//926
f 926//926 865//865 927//927
f 925//925 866//866 926//926
f 867//867 925//925 924//924
f 923//923 922//922 914//914
f 915//915 878//878 916//916
f 920//920 880//880 879//879
f 879//879 921//921 920//920
f 880//880 920//920 935//935
f 935//935 934//934 880//880
f 878//878 915//915 921//921
f 939//939 882//882 932//932
f 933//933 882//882 881//881
f 881//881 934//934 933//933
f 882//882 933//933 932//932
f 939//939 883//883 882//882
f 880//880 934//934 881//881
f 864//864 930//930 929//929
f 865//865 864//864 928//928
f 929//929 928//928 864//864
f 927//927 865//865 928//928
f 864//864 863//863 930//930
f 931//931 940//940 932//932
f 939//939 932//932 940//940
f 863//863 940//940 931//931
f 831//831 941//941 863//863
f 940//940 863//863 941//941
f 942//942 941//941 831//831
f 930//930 863//863 931//931
f 938//938 883//883 939//939
f 878//878 921//921 879//879
f 936//936 832//832 834//834
f 834//834 938//938 937//937
f 834//834 937//937 936//936
f 936//936 946//946 832//832
f 946//946 839//839 833//833
f 839//839 946//946 945//945
f 839//839 945//945 954//954
f 953//953 840//840 954//954
f 832//832 946//946 833//833
f 831//831 830//830 943//943
f 830//830 955//955 944//944
f 862//862 955//955 830//830
f 943//943 830//830 944//944
f 960//960 948//948 861//861
f 861//861 947//947 862//862
f 947//947 955//955 862//862
f 948//948 947//947 861//861
f 959//959 949//949 948//948
f 840//840 839//839 954//954
f 834//834 883//883 938//938
f 952//952 841//841 840//840
f 841//841 952//952 951//951
f 951//951 950//950 957//957
f 957//957 841//841 951//951
f 840//840 953//953 952//952
f 971//971 842//842 956//956
f 957//957 956//956 842//842
f 842//842 971//971 843//843
f 844//844 843//843 970//970
f 841//841 957//957 842//842
f 958//958 957//957 950//950
f 959//959 948//948 960//960
f 860//860 960//960 861//861
f 958//958 949//949 959//959
f 970//970 969//969 844//844
f 843//843 971//971 970//970
f 968//968 845//845 969//969
f 846//846 968//968 967//967
f 845//845 968//968 846//846
f 847//847 846//846 967//967
f 844//844 969//969 845//845
f 958//958 950//950 949//949
f 961//961 960//960 860//860
f 860//860 859//859 961//961
f 962//962 961//961 859//859
f 999//999 963//963 859//859
f 962//962 859//859 963//963
f 973//973 996//996 974//974
f 998//998 963//963 999//999
f 963//963 998//998 964//964
f 975//975 974//974 858//858
f 857//857 991//991 976//976
f 856//856 983//983 857//857
f 983//983 856//856 855//855
f 991//991 857//857 983//983
f 976//976 858//858 857//857
f 855//855 854//854 984//984
f 986//986 985//985 854//854
f 984//984 854//854 985//985
f 853//853 986//986 854//854
f 983//983 855//855 984//984
f 976//976 975//975 858//858
f 965//965 964//964 998//998
f 848//848 998//998 997//997
f 965//965 998//998 966//966
f 972//972 996//996 973//973
f 974//974 996//996 858//858
f 997//997 996//996 979//979
f 996//996 972//972 980//980
f 966//966 998//998 967//967
f 997//997 979//979 848//848
f 998//998 848//848 967//967
f 980//980 979//979 996//996
f 848//848 979//979 978//978
f 848//848 978//978 977//977
f 977//977 849//849 848//848
f 848//848 847//847 967//967
f 852//852 989//989 988//988
f 987//987 853//853 988//988
f 852//852 988//988 853//853
f 986//986 853//853 987//987
f 852//852 990//990 989//989
f 981//981 849//849 982//982
f 977//977 982//982 849//849
f 850//850 849//849 981//981
f 990//990 851//851 981//981
f 850//850 981//981 851//851
f 852//852 851//851 990//990
f 831//831 943//943 942//942
