# arm_06 exported from /models/landings/arm_06.glb
# units: meters
v -0.017173 0.001000 -0.017020
v -0.019669 0.001000 -0.025964
v -0.007723 0.001000 -0.019931
v -0.017909 0.001000 -0.016880
v -0.005743 0.001000 -0.019931
v 0.005845 0.001000 -0.017020
v 0.007259 0.001000 -0.017606
v 0.007704 0.001000 -0.018284
v 0.003156 0.001000 -0.020166
v 0.007845 0.001000 -0.019020
v 0.006581 0.001000 -0.017161
v 0.001156 0.001000 -0.020166
v 0.001156 0.001000 -0.025964
v -0.005743 0.001000 -0.025964
v 0.007845 0.001000 -0.021733
v 0.007652 0.001000 -0.023291
v 0.007042 0.001000 -0.024725
v 0.005105 0.001000 -0.025964
v 0.006114 0.001000 -0.025667
v 0.005604 0.001000 -0.025894
v 0.003156 0.001000 -0.025964
v -0.018587 0.001000 -0.016434
v -0.025945 0.001000 -0.023849
v -0.022945 0.001000 -0.025964
v -0.024050 0.001000 -0.025816
v -0.025067 0.001000 -0.025345
v -0.025735 0.001000 -0.024627
v -0.019032 0.001000 -0.015756
v -0.019173 0.001000 -0.015020
v -0.025945 0.001000 0.005678
v -0.019173 0.001000 0.003661
v -0.019075 0.001000 0.004279
v -0.025614 0.001000 0.007478
v -0.018770 0.001000 0.004864
v -0.024596 0.001000 0.009215
v -0.018292 0.001000 0.005319
v -0.020914 0.001000 0.011797
v -0.017725 0.001000 0.005583
v 0.022895 0.001000 0.017259
v 0.025407 0.001000 0.025214
v 0.023759 0.001000 0.017313
v 0.024650 0.001000 0.016936
v 0.025259 0.001000 0.016184
v 0.031575 0.001000 0.022840
v 0.032143 0.001000 0.020525
v 0.025448 0.001000 0.015339
v 0.025468 0.001000 0.014043
v 0.030031 0.001000 -0.000262
v 0.032143 0.001000 -0.003081
v 0.030031 0.001000 -0.005081
v 0.032003 0.001000 -0.003817
v 0.031558 0.001000 -0.004495
v 0.030143 0.001000 -0.005081
v 0.030879 0.001000 -0.004941
v 0.028031 0.001000 -0.000262
v 0.025468 0.001000 -0.003081
v 0.028031 0.001000 -0.005081
v 0.027468 0.001000 -0.005081
v 0.026054 0.001000 -0.004495
v 0.026732 0.001000 -0.004941
v 0.025608 0.001000 -0.003817
v 0.025449 0.001000 0.014034
v 0.030000 0.001000 0.024628
v 0.027776 0.001000 0.025485
v -0.007723 0.001000 -0.025964
v -0.025945 -0.001000 0.005678
v -0.025226 -0.001000 0.008303
v -0.025945 0.001000 0.005678
v -0.025226 0.001000 0.008303
v -0.023384 0.001000 0.010390
v -0.020914 0.001000 0.011797
v -0.023384 -0.001000 0.010390
v -0.020914 -0.001000 0.011797
v -0.020914 -0.001000 0.011797
v -0.020914 0.001000 0.011797
v 0.025407 -0.001000 0.025214
v 0.025407 0.001000 0.025214
v 0.025407 -0.001000 0.025214
v 0.027787 -0.001000 0.025483
v 0.025407 0.001000 0.025214
v 0.027787 0.001000 0.025483
v 0.030000 0.001000 0.024628
v 0.030000 -0.001000 0.024628
v 0.031580 0.001000 0.022830
v 0.031580 -0.001000 0.022830
v 0.032143 0.001000 0.020525
v 0.032143 -0.001000 0.020525
v 0.032143 -0.001000 0.020525
v 0.032143 0.001000 0.020525
v 0.032143 -0.001000 -0.003081
v 0.032143 0.001000 -0.003081
v 0.032143 -0.001000 -0.003081
v 0.031993 -0.001000 -0.003841
v 0.032143 0.001000 -0.003081
v 0.031993 0.001000 -0.003841
v 0.031543 0.001000 -0.004510
v 0.031543 -0.001000 -0.004510
v 0.030870 0.001000 -0.004944
v 0.030870 -0.001000 -0.004944
v 0.030143 0.001000 -0.005081
v 0.030143 -0.001000 -0.005081
v 0.028031 -0.001000 -0.005081
v 0.028031 0.001000 -0.005081
v 0.027468 -0.001000 -0.005081
v 0.027468 0.001000 -0.005081
v 0.027468 -0.001000 -0.005081
v 0.026708 -0.001000 -0.004931
v 0.027468 0.001000 -0.005081
v 0.026708 0.001000 -0.004931
v 0.026039 0.001000 -0.004481
v 0.025605 0.001000 -0.003808
v 0.026039 -0.001000 -0.004481
v 0.025605 -0.001000 -0.003808
v 0.025468 -0.001000 -0.003081
v 0.025468 0.001000 -0.003081
v 0.025468 -0.001000 -0.003081
v 0.025468 0.001000 -0.003081
v 0.025468 -0.001000 0.014043
v 0.025468 0.001000 0.014043
v 0.025468 -0.001000 0.014043
v 0.025468 0.001000 0.014043
v 0.025449 -0.001000 0.014034
v 0.025449 0.001000 0.014034
v 0.030031 0.001000 -0.000262
v 0.030031 0.001000 -0.005081
v 0.030031 -0.001000 0.000163
v 0.030031 -0.001000 -0.005081
v 0.028031 0.001000 -0.005081
v 0.028031 -0.001000 0.000163
v 0.028031 -0.001000 -0.005081
v 0.028031 0.001000 -0.000262
v 0.030143 -0.001000 -0.005081
v 0.030143 0.001000 -0.005081
v 0.030031 -0.001000 -0.005081
v 0.030031 0.001000 -0.005081
v 0.030031 -0.001000 0.000163
v 0.028031 -0.001000 0.000163
v 0.030031 0.001000 -0.000262
v 0.028031 0.001000 -0.000262
v 0.007845 -0.001000 -0.019020
v 0.007845 0.001000 -0.019020
v 0.007845 -0.001000 -0.021733
v 0.007845 0.001000 -0.021733
v 0.007845 -0.001000 -0.021733
v 0.007752 -0.001000 -0.022828
v 0.007845 0.001000 -0.021733
v 0.007752 0.001000 -0.022828
v 0.007457 0.001000 -0.023902
v 0.007457 -0.001000 -0.023902
v 0.006934 0.001000 -0.024884
v 0.006136 0.001000 -0.025653
v 0.006934 -0.001000 -0.024884
v 0.006136 -0.001000 -0.025653
v 0.005105 -0.001000 -0.025964
v 0.005105 0.001000 -0.025964
v -0.022945 -0.001000 -0.025964
v -0.023943 -0.001000 -0.025844
v -0.022945 0.001000 -0.025964
v -0.023943 0.001000 -0.025844
v -0.024884 0.001000 -0.025463
v -0.024884 -0.001000 -0.025463
v -0.025635 0.001000 -0.024786
v -0.025635 -0.001000 -0.024786
v -0.025945 0.001000 -0.023849
v -0.025945 -0.001000 -0.023849
v 0.001156 0.001000 -0.020166
v 0.001156 -0.001000 -0.025964
v 0.001156 -0.001000 -0.020139
v 0.001156 0.001000 -0.025964
v 0.001156 0.001000 -0.020166
v 0.002156 0.001000 -0.020166
v 0.001156 -0.001000 -0.020139
v 0.002156 -0.001000 -0.020139
v 0.003156 -0.001000 -0.020139
v 0.003156 0.001000 -0.020166
v 0.003156 0.001000 -0.020166
v 0.003156 -0.001000 -0.025964
v 0.003156 -0.001000 -0.020139
v 0.003156 0.001000 -0.025964
v 0.005105 -0.001000 -0.025964
v 0.005105 0.001000 -0.025964
v 0.003156 -0.001000 -0.025964
v 0.003156 0.001000 -0.025964
v -0.005743 0.001000 -0.025964
v -0.005743 0.000214 -0.019918
v -0.005743 -0.001000 -0.025964
v -0.005743 0.001000 -0.019931
v -0.005743 -0.001000 -0.019916
v -0.007723 -0.001000 -0.019916
v -0.006733 -0.001000 -0.019916
v -0.007723 0.001000 -0.019931
v -0.006733 0.001000 -0.019931
v -0.005743 0.000214 -0.019918
v -0.005743 0.001000 -0.019931
v -0.005743 -0.001000 -0.019916
v -0.007723 -0.001000 -0.019916
v -0.007723 -0.001000 -0.025964
v -0.007723 0.001000 -0.019931
v -0.007723 0.001000 -0.025964
v -0.007723 -0.001000 -0.025964
v -0.007723 0.001000 -0.025964
v -0.015334 -0.001000 -0.025964
v -0.015334 0.001000 -0.025964
v -0.022945 -0.001000 -0.025964
v -0.022945 0.001000 -0.025964
v 0.001156 -0.001000 -0.025964
v 0.001156 0.001000 -0.025964
v -0.005743 -0.001000 -0.025964
v -0.005743 0.001000 -0.025964
v -0.025945 -0.001000 -0.023849
v -0.025945 0.001000 -0.023849
v -0.025945 -0.001000 0.005678
v -0.025945 0.001000 0.005678
v 0.007845 0.001000 -0.019020
v 0.007704 0.001000 -0.018284
v 0.007845 -0.001000 -0.019020
v 0.007704 -0.001000 -0.018284
v 0.007259 -0.001000 -0.017606
v 0.007259 0.001000 -0.017606
v 0.006581 -0.001000 -0.017161
v 0.005845 -0.001000 -0.017020
v 0.006581 0.001000 -0.017161
v 0.005845 0.001000 -0.017020
v 0.022895 -0.001000 0.017259
v 0.023759 -0.001000 0.017313
v 0.022895 0.001000 0.017259
v 0.023759 0.001000 0.017313
v 0.024650 0.001000 0.016936
v 0.024650 -0.001000 0.016936
v 0.025259 0.001000 0.016184
v 0.025448 0.001000 0.015339
v 0.025259 -0.001000 0.016184
v 0.025448 -0.001000 0.015339
v -0.017725 0.001000 0.005583
v -0.012648 0.000500 0.007043
v -0.012648 0.001000 0.007043
v -0.012648 -0.000000 0.007043
v -0.017725 -0.001000 0.005583
v -0.012648 -0.000500 0.007043
v -0.012648 -0.001000 0.007043
v -0.007570 -0.001000 0.008502
v -0.007570 -0.000500 0.008502
v 0.002585 -0.001000 0.011421
v 0.002585 -0.000000 0.011421
v 0.012740 -0.000500 0.014340
v 0.012740 -0.001000 0.014340
v 0.017818 -0.001000 0.015800
v 0.022895 -0.001000 0.017259
v 0.017818 -0.000500 0.015800
v 0.017818 -0.000000 0.015800
v 0.012740 -0.000000 0.014340
v 0.017818 0.000500 0.015800
v 0.022895 0.001000 0.017259
v 0.017818 0.001000 0.015800
v 0.012740 0.001000 0.014340
v 0.002585 0.001000 0.011421
v 0.012740 0.000500 0.014340
v -0.007570 0.000500 0.008502
v -0.007570 0.001000 0.008502
v -0.007570 -0.000000 0.008502
v -0.019173 0.001000 0.003661
v -0.019075 0.001000 0.004279
v -0.019173 -0.001000 0.003661
v -0.019075 -0.001000 0.004279
v -0.018770 -0.001000 0.004864
v -0.018292 -0.001000 0.005319
v -0.018770 0.001000 0.004864
v -0.018292 0.001000 0.005319
v -0.017725 0.001000 0.005583
v -0.017725 -0.001000 0.005583
v -0.019173 0.001000 -0.015020
v -0.019173 -0.001000 -0.015020
v -0.019173 0.001000 0.003661
v -0.019173 -0.001000 0.003661
v -0.017173 0.001000 -0.017020
v -0.017173 -0.001000 -0.017020
v 0.005845 0.001000 -0.017020
v 0.005845 -0.001000 -0.017020
v -0.019173 0.001000 -0.015020
v -0.019032 0.001000 -0.015756
v -0.019173 -0.001000 -0.015020
v -0.019032 -0.001000 -0.015756
v -0.018587 -0.001000 -0.016434
v -0.018587 0.001000 -0.016434
v -0.017909 -0.001000 -0.016880
v -0.017909 0.001000 -0.016880
v -0.017173 -0.001000 -0.017020
v -0.017173 0.001000 -0.017020
v -0.019173 -0.001000 -0.015020
v -0.025945 -0.001000 -0.023849
v -0.019032 -0.001000 -0.015756
v -0.019173 -0.001000 0.003661
v -0.025945 -0.001000 0.005678
v -0.019075 -0.001000 0.004279
v -0.018770 -0.001000 0.004864
v -0.024596 -0.001000 0.009215
v -0.018292 -0.001000 0.005319
v -0.025614 -0.001000 0.007478
v -0.020914 -0.001000 0.011797
v -0.017725 -0.001000 0.005583
v 0.022895 -0.001000 0.017259
v 0.025407 -0.001000 0.025214
v 0.023759 -0.001000 0.017313
v 0.024650 -0.001000 0.016936
v 0.032143 -0.001000 0.020525
v 0.031575 -0.001000 0.022840
v 0.025259 -0.001000 0.016184
v 0.025448 -0.001000 0.015339
v 0.025468 -0.001000 0.014043
v 0.025449 -0.001000 0.014034
v 0.028031 -0.001000 0.000163
v 0.030031 -0.001000 0.000163
v 0.025468 -0.001000 -0.003081
v 0.028031 -0.001000 -0.005081
v 0.027468 -0.001000 -0.005081
v 0.025608 -0.001000 -0.003817
v 0.026054 -0.001000 -0.004495
v 0.026732 -0.001000 -0.004941
v 0.032143 -0.001000 -0.003081
v 0.030031 -0.001000 -0.005081
v 0.031558 -0.001000 -0.004495
v 0.030143 -0.001000 -0.005081
v 0.032003 -0.001000 -0.003817
v 0.030879 -0.001000 -0.004941
v 0.030000 -0.001000 0.024628
v 0.027776 -0.001000 0.025485
v -0.018587 -0.001000 -0.016434
v -0.017909 -0.001000 -0.016880
v -0.017173 -0.001000 -0.017020
v -0.019669 -0.001000 -0.025964
v -0.022945 -0.001000 -0.025964
v -0.007723 -0.001000 -0.025964
v -0.007723 -0.001000 -0.019916
v -0.005743 -0.001000 -0.019916
v 0.005845 -0.001000 -0.017020
v 0.001156 -0.001000 -0.020139
v -0.005743 -0.001000 -0.025964
v 0.001156 -0.001000 -0.025964
v 0.003156 -0.001000 -0.020139
v 0.005105 -0.001000 -0.025964
v 0.007042 -0.001000 -0.024725
v 0.007652 -0.001000 -0.023291
v 0.003156 -0.001000 -0.025964
v 0.007845 -0.001000 -0.021733
v 0.007845 -0.001000 -0.019020
v 0.007704 -0.001000 -0.018284
v 0.007259 -0.001000 -0.017606
v 0.006581 -0.001000 -0.017161
v 0.006114 -0.001000 -0.025667
v 0.005604 -0.001000 -0.025894
v -0.024050 -0.001000 -0.025816
v -0.025067 -0.001000 -0.025345
v -0.025735 -0.001000 -0.024627
vn 0.000000 1.000000 0.000000
vn 0.000000 1.000000 0.000000
vn 0.000000 1.000000 0.000000
vn 0.000000 1.000000 0.000000
vn 0.000000 1.000000 0.000000
vn 0.000000 1.000000 0.000000
vn 0.000000 1.000000 0.000000
vn 0.000000 1.000000 0.000000
vn 0.000000 1.000000 0.000000
vn 0.000000 1.000000 0.000000
vn 0.000000 1.000000 0.000000
vn 0.000000 1.000000 0.000000
vn 0.000000 1.000000 0.000000
vn 0.000000 1.000000 0.000000
vn 0.000000 1.000000 0.000000
vn 0.000000 1.000000 0.000000
vn 0.000000 1.000000 0.000000
vn 0.000000 1.000000 0.000000
vn 0.000000 1.000000 0.000000
vn 0.000000 1.000000 0.000000
vn 0.000000 1.000000 0.000000
vn 0.000000 1.000000 0.000000
vn 0.000000 1.000000 0.000000
vn 0.000000 1.000000 0.000000
vn 0.000000 1.000000 0.000000
vn 0.000000 1.000000 0.000000
vn 0.000000 1.000000 0.000000
vn 0.000000 1.000000 0.000000
vn 0.000000 1.000000 0.000000
vn 0.000000 1.000000 0.000000
vn 0.000000 1.000000 0.000000
vn 0.000000 1.000000 0.000000
vn 0.000000 1.000000 0.000000
vn 0.000000 1.000000 0.000000
vn 0.000000 1.000000 0.000000
vn 0.000000 1.000000 0.000000
vn 0.000000 1.000000 0.000000
vn 0.000000 1.000000 0.000000
vn 0.000000 1.000000 0.000000
vn 0.000000 1.000000 0.000000
vn 0.000000 1.000000 0.000000
vn 0.000000 1.000000 0.000000
vn 0.000000 1.000000 0.000000
vn 0.000000 1.000000 0.000000
vn 0.000000 1.000000 0.000000
vn 0.000000 1.000000 0.000000
vn 0.000000 1.000000 0.000000
vn 0.000000 1.000000 0.000000
vn 0.000000 1.000000 0.000000
vn 0.000000 1.000000 0.000000
vn 0.000000 1.000000 0.000000
vn 0.000000 1.000000 0.000000
vn 0.000000 1.000000 0.000000
vn 0.000000 1.000000 0.000000
vn 0.000000 1.000000 0.000000
vn 0.000000 1.000000 0.000000
vn 0.000000 1.000000 0.000000
vn 0.000000 1.000000 0.000000
vn 0.000000 1.000000 0.000000
vn 0.000000 1.000000 0.000000
vn 0.000000 1.000000 0.000000
vn 0.000000 1.000000 0.000000
vn 0.000000 1.000000 0.000000
vn 0.000000 1.000000 0.000000
vn 0.000000 1.000000 0.000000
vn -1.000000 -0.000000 0.000100
vn -0.869183 -0.000000 0.494490
vn -1.000000 -0.000000 0.000100
vn -0.869183 -0.000000 0.494490
vn -0.617424 -0.000000 0.786631
vn -0.374423 -0.000000 0.927258
vn -0.617424 -0.000000 0.786631
vn -0.374423 -0.000000 0.927258
vn -0.278206 -0.000000 0.960521
vn -0.278206 -0.000000 0.960521
vn -0.278206 -0.000000 0.960521
vn -0.278206 -0.000000 0.960521
vn -0.347109 -0.000000 0.937825
vn 0.128600 -0.000000 0.991697
vn -0.347109 -0.000000 0.937825
vn 0.128600 -0.000000 0.991697
vn 0.571272 -0.000000 0.820761
vn 0.571272 -0.000000 0.820761
vn 0.887400 -0.000000 0.461000
vn 0.887400 -0.000000 0.461000
vn 1.000000 -0.000000 0.000100
vn 1.000000 -0.000000 0.000100
vn 1.000000 0.000000 0.000000
vn 1.000000 0.000000 0.000000
vn 1.000000 0.000000 0.000000
vn 1.000000 0.000000 0.000000
vn 1.000000 0.000000 -0.000100
vn 0.925024 0.000000 -0.379910
vn 1.000000 0.000000 -0.000100
vn 0.925024 0.000000 -0.379910
vn 0.699769 0.000000 -0.714369
vn 0.699769 0.000000 -0.714369
vn 0.363498 0.000000 -0.931595
vn 0.363498 0.000000 -0.931595
vn 0.000100 -0.000100 -1.000000
vn 0.000100 0.000000 -1.000000
vn 0.000000 0.000000 -1.000000
vn 0.000000 0.000000 -1.000000
vn 0.000000 0.000000 -1.000000
vn 0.000000 0.000000 -1.000000
vn -0.000100 0.000000 -1.000000
vn -0.379910 0.000000 -0.925024
vn -0.000100 0.000000 -1.000000
vn -0.379910 0.000000 -0.925024
vn -0.714468 0.000000 -0.699668
vn -0.931629 0.000000 -0.363411
vn -0.714468 0.000000 -0.699668
vn -0.931629 0.000000 -0.363411
vn -1.000000 0.000000 -0.000100
vn -1.000000 0.000000 -0.000100
vn -1.000000 0.000000 0.000000
vn -1.000000 0.000000 0.000000
vn -1.000000 0.000000 0.000000
vn -1.000000 0.000000 0.000000
vn 0.438995 0.000000 -0.898490
vn 0.438995 0.000000 -0.898490
vn 0.438995 0.000000 -0.898490
vn 0.438995 0.000000 -0.898490
vn -1.000000 0.000000 0.000000
vn -1.000000 0.000000 0.000000
vn -1.000000 0.000000 0.000000
vn -1.000000 0.000000 0.000000
vn 1.000000 0.000000 0.000000
vn 1.000000 0.000000 0.000000
vn 1.000000 0.000000 0.000000
vn 1.000000 0.000000 0.000000
vn 0.000000 0.000000 -1.000000
vn 0.000000 0.000000 -1.000000
vn 0.000000 0.000000 -1.000000
vn 0.000000 0.000000 -1.000000
vn 0.000000 -0.207890 -0.978152
vn 0.000000 -0.207890 -0.978152
vn 0.000000 -0.207890 -0.978152
vn 0.000000 -0.207890 -0.978152
vn 1.000000 0.000000 0.000000
vn 1.000000 0.000000 0.000000
vn 1.000000 0.000000 0.000000
vn 1.000000 0.000000 0.000000
vn 1.000000 0.000000 0.000000
vn 0.985306 0.000000 -0.170801
vn 1.000000 0.000000 0.000000
vn 0.985306 0.000000 -0.170801
vn 0.932684 0.000000 -0.360694
vn 0.932684 0.000000 -0.360694
vn 0.810553 0.000000 -0.585666
vn 0.531293 0.000000 -0.847188
vn 0.810553 0.000000 -0.585666
vn 0.531293 0.000000 -0.847188
vn 0.000100 0.000000 -1.000000
vn 0.000100 0.000000 -1.000000
vn -0.000100 0.000000 -1.000000
vn -0.241288 0.000000 -0.970453
vn -0.000100 0.000000 -1.000000
vn -0.241288 0.000000 -0.970453
vn -0.512686 0.000000 -0.858576
vn -0.512686 0.000000 -0.858576
vn -0.818950 0.000000 -0.573865
vn -0.818950 0.000000 -0.573865
vn -1.000000 0.000000 -0.000100
vn -1.000000 0.000000 -0.000100
vn 1.000000 0.000000 0.000000
vn 1.000000 0.000000 0.000000
vn 1.000000 0.000000 0.000000
vn 1.000000 0.000000 0.000000
vn 0.000000 -0.067899 -0.997692
vn 0.000000 -0.067899 -0.997692
vn 0.000000 0.040998 -0.999159
vn 0.000000 0.040998 -0.999159
vn 0.000000 0.040998 -0.999159
vn 0.000000 -0.067899 -0.997692
vn -1.000000 0.000000 0.000000
vn -1.000000 0.000000 0.000000
vn -1.000000 0.000000 0.000000
vn -1.000000 0.000000 0.000000
vn 0.000000 0.000000 -1.000000
vn 0.000000 0.000000 -1.000000
vn 0.000000 0.000000 -1.000000
vn 0.000000 0.000000 -1.000000
vn -1.000000 0.000000 0.000000
vn -1.000000 0.000000 0.000000
vn -1.000000 0.000000 0.000000
vn -1.000000 0.000000 0.000000
vn -1.000000 0.000000 0.000000
vn 0.000000 0.007800 -0.999970
vn 0.000000 0.007700 -0.999970
vn 0.000000 -0.021999 -0.999758
vn 0.000000 -0.021999 -0.999758
vn 0.000100 -0.011200 -0.999937
vn 0.000000 -0.021999 -0.999758
vn 0.000000 0.007700 -0.999970
vn 1.000000 0.000000 0.000000
vn 1.000000 0.000000 0.000000
vn 1.000000 0.000000 0.000000
vn 1.000000 0.000000 0.000000
vn 0.000000 0.000000 -1.000000
vn 0.000000 0.000000 -1.000000
vn 0.000000 0.000000 -1.000000
vn 0.000000 0.000000 -1.000000
vn 0.000000 0.000000 -1.000000
vn 0.000000 0.000000 -1.000000
vn 0.000000 0.000000 -1.000000
vn 0.000000 0.000000 -1.000000
vn 0.000000 0.000000 -1.000000
vn 0.000000 0.000000 -1.000000
vn -1.000000 0.000000 0.000000
vn -1.000000 0.000000 0.000000
vn -1.000000 0.000000 0.000000
vn -1.000000 0.000000 0.000000
vn 1.000000 -0.000000 0.000100
vn 0.929788 -0.000000 0.368095
vn 1.000000 -0.000000 0.000100
vn 0.929788 -0.000000 0.368095
vn 0.707107 -0.000000 0.707107
vn 0.707107 -0.000000 0.707107
vn 0.368095 -0.000000 0.929788
vn 0.000100 0.000100 1.000000
vn 0.368095 -0.000000 0.929788
vn 0.000100 -0.000000 1.000000
vn 0.276200 0.000000 -0.961100
vn -0.155798 0.000000 -0.987789
vn 0.276200 0.000000 -0.961100
vn -0.155798 0.000000 -0.987789
vn -0.601087 0.000000 -0.799183
vn -0.601087 0.000000 -0.799183
vn -0.905858 0.000000 -0.423581
vn -0.999999 0.000000 -0.001200
vn -0.905858 0.000000 -0.423581
vn -0.999999 0.000000 -0.001200
vn 0.276200 0.000000 -0.961100
vn 0.276292 0.000000 -0.961074
vn 0.276292 0.000000 -0.961074
vn 0.276292 0.000000 -0.961074
vn 0.276200 0.000000 -0.961100
vn 0.276292 0.000000 -0.961074
vn 0.276292 0.000000 -0.961074
vn 0.276292 0.000000 -0.961074
vn 0.276292 0.000000 -0.961074
vn 0.276292 0.000000 -0.961074
vn 0.276292 0.000000 -0.961074
vn 0.276292 0.000000 -0.961074
vn 0.276292 0.000000 -0.961074
vn 0.276292 0.000000 -0.961074
vn 0.276200 0.000000 -0.961100
vn 0.276292 0.000000 -0.961074
vn 0.276292 0.000000 -0.961074
vn 0.276292 0.000000 -0.961074
vn 0.276292 0.000000 -0.961074
vn 0.276200 0.000000 -0.961100
vn 0.276292 0.000000 -0.961074
vn 0.276292 0.000000 -0.961074
vn 0.276292 0.000000 -0.961074
vn 0.276292 0.000000 -0.961074
vn 0.276292 0.000000 -0.961074
vn 0.276292 0.000000 -0.961074
vn 0.276292 0.000000 -0.961074
vn 1.000000 0.000000 -0.000100
vn 0.951095 0.000000 -0.308898
vn 1.000000 0.000000 -0.000100
vn 0.951095 0.000000 -0.308898
vn 0.798798 0.000000 -0.601599
vn 0.559698 0.000000 -0.828697
vn 0.798798 0.000000 -0.601599
vn 0.559698 0.000000 -0.828697
vn 0.276292 0.000000 -0.961074
vn 0.276292 0.000000 -0.961074
vn 1.000000 0.000000 0.000000
vn 1.000000 0.000000 0.000000
vn 1.000000 0.000000 0.000000
vn 1.000000 0.000000 0.000000
vn 0.000000 -0.000000 1.000000
vn 0.000000 -0.000000 1.000000
vn 0.000000 -0.000000 1.000000
vn 0.000000 -0.000000 1.000000
vn 1.000000 -0.000000 0.000100
vn 0.929788 -0.000000 0.368095
vn 1.000000 -0.000000 0.000100
vn 0.929788 -0.000000 0.368095
vn 0.707107 -0.000000 0.707107
vn 0.707107 -0.000000 0.707107
vn 0.368182 -0.000000 0.929754
vn 0.368182 -0.000000 0.929754
vn 0.000100 -0.000000 1.000000
vn 0.000100 -0.000000 1.000000
vn 0.000000 -1.000000 -0.000000
vn 0.000000 -1.000000 -0.000000
vn 0.000000 -1.000000 -0.000000
vn 0.000000 -1.000000 -0.000000
vn 0.000000 -1.000000 -0.000000
vn 0.000000 -1.000000 -0.000000
vn 0.000000 -1.000000 -0.000000
vn 0.000000 -1.000000 -0.000000
vn 0.000000 -1.000000 -0.000000
vn 0.000000 -1.000000 -0.000000
vn 0.000000 -1.000000 -0.000000
vn 0.000000 -1.000000 -0.000000
vn 0.000000 -1.000000 -0.000000
vn 0.000000 -1.000000 -0.000000
vn 0.000000 -1.000000 -0.000000
vn 0.000000 -1.000000 -0.000000
vn 0.000000 -1.000000 -0.000000
vn 0.000000 -1.000000 -0.000000
vn 0.000000 -1.000000 -0.000000
vn 0.000000 -1.000000 -0.000000
vn 0.000000 -1.000000 -0.000000
vn 0.000000 -1.000000 -0.000000
vn 0.000000 -1.000000 -0.000000
vn 0.000000 -1.000000 -0.000000
vn 0.000000 -1.000000 -0.000000
vn 0.000000 -1.000000 -0.000000
vn 0.000000 -1.000000 -0.000000
vn 0.000000 -1.000000 -0.000000
vn 0.000000 -1.000000 -0.000000
vn 0.000000 -1.000000 -0.000000
vn 0.000000 -1.000000 -0.000000
vn 0.000000 -1.000000 -0.000000
vn 0.000000 -1.000000 -0.000000
vn 0.000000 -1.000000 -0.000000
vn 0.000000 -1.000000 -0.000000
vn 0.000000 -1.000000 -0.000000
vn 0.000000 -1.000000 -0.000000
vn 0.000000 -1.000000 -0.000000
vn 0.000000 -1.000000 -0.000000
vn 0.000000 -1.000000 -0.000000
vn 0.000000 -1.000000 -0.000000
vn 0.000000 -1.000000 -0.000000
vn 0.000000 -1.000000 -0.000000
vn 0.000000 -1.000000 -0.000000
vn 0.000000 -1.000000 -0.000000
vn 0.000000 -1.000000 -0.000000
vn 0.000000 -1.000000 -0.000000
vn 0.000000 -1.000000 -0.000000
vn 0.000000 -1.000000 -0.000000
vn 0.000000 -1.000000 -0.000000
vn 0.000000 -1.000000 -0.000000
vn 0.000000 -1.000000 -0.000000
vn 0.000000 -1.000000 -0.000000
vn 0.000000 -1.000000 -0.000000
vn 0.000000 -1.000000 -0.000000
vn 0.000000 -1.000000 -0.000000
vn 0.000000 -1.000000 -0.000000
vn 0.000000 -1.000000 -0.000000
vn 0.000000 -1.000000 -0.000000
vn 0.000000 -1.000000 -0.000000
vn 0.000000 -1.000000 -0.000000
vn 0.000000 -1.000000 -0.000000
vn 0.000000 -1.000000 -0.000000
vn 0.000000 -1.000000 -0.000000
vn 0.000000 -1.000000 -0.000000
f 2//2 4//4 1//1
f 1//1 3//3 2//2
f 5//5 3//3 1//1
f 5//5 1//1 6//6
f 6//6 12//12 5//5
f 7//7 6//6 11//11
f 7//7 8//8 6//6
f 6//6 8//8 10//10
f 6//6 9//9 12//12
f 9//9 6//6 10//10
f 13//13 14//14 12//12
f 5//5 12//12 14//14
f 15//15 9//9 10//10
f 15//15 16//16 9//9
f 9//9 16//16 17//17
f 17//17 19//19 18//18
f 18//18 9//9 17//17
f 20//20 18//18 19//19
f 21//21 9//9 18//18
f 2//2 23//23 4//4
f 4//4 23//23 22//22
f 23//23 2//2 24//24
f 25//25 23//23 24//24
f 23//23 25//25 26//26
f 26//26 27//27 23//23
f 28//28 22//22 23//23
f 23//23 29//29 28//28
f 29//29 23//23 30//30
f 29//29 30//30 31//31
f 30//30 32//32 31//31
f 30//30 34//34 32//32
f 33//33 34//34 30//30
f 36//36 34//34 35//35
f 35//35 34//34 33//33
f 37//37 36//36 35//35
f 36//36 37//37 38//38
f 37//37 39//39 38//38
f 39//39 37//37 40//40
f 40//40 41//41 39//39
f 40//40 42//42 41//41
f 43//43 42//42 45//45
f 42//42 40//40 44//44
f 42//42 44//44 45//45
f 45//45 46//46 43//43
f 45//45 47//47 46//46
f 47//47 45//45 48//48
f 45//45 49//49 48//48
f 49//49 50//50 48//48
f 51//51 50//50 49//49
f 52//52 50//50 51//51
f 50//50 52//52 53//53
f 52//52 54//54 53//53
f 48//48 55//55 47//47
f 47//47 55//55 56//56
f 55//55 57//57 56//56
f 56//56 57//57 58//58
f 58//58 59//59 61//61
f 59//59 58//58 60//60
f 56//56 58//58 61//61
f 47//47 62//62 46//46
f 63//63 44//44 40//40
f 40//40 64//64 63//63
f 2//2 3//3 65//65
f 67//67 69//69 68//68
f 67//67 68//68 66//66
f 70//70 69//69 67//67
f 70//70 67//67 72//72
f 73//73 71//71 70//70
f 73//73 70//70 72//72
f 75//75 74//74 76//76
f 75//75 76//76 77//77
f 79//79 81//81 80//80
f 79//79 80//80 78//78
f 82//82 81//81 79//79
f 82//82 79//79 83//83
f 84//84 82//82 83//83
f 84//84 83//83 85//85
f 87//87 86//86 84//84
f 87//87 84//84 85//85
f 89//89 88//88 90//90
f 89//89 90//90 91//91
f 93//93 95//95 94//94
f 93//93 94//94 92//92
f 96//96 95//95 93//93
f 96//96 93//93 97//97
f 98//98 96//96 97//97
f 98//98 97//97 99//99
f 101//101 100//100 98//98
f 101//101 98//98 99//99
f 103//103 102//102 104//104
f 103//103 104//104 105//105
f 107//107 109//109 108//108
f 107//107 108//108 106//106
f 110//110 109//109 107//107
f 110//110 107//107 112//112
f 111//111 110//110 112//112
f 111//111 112//112 113//113
f 114//114 115//115 111//111
f 114//114 111//111 113//113
f 117//117 116//116 118//118
f 117//117 118//118 119//119
f 121//121 120//120 122//122
f 121//121 122//122 123//123
f 125//125 126//126 124//124
f 126//126 125//125 127//127
f 128//128 131//131 129//129
f 129//129 130//130 128//128
f 133//133 132//132 134//134
f 133//133 134//134 135//135
f 137//137 139//139 138//138
f 137//137 138//138 136//136
f 141//141 140//140 142//142
f 141//141 142//142 143//143
f 145//145 147//147 146//146
f 145//145 146//146 144//144
f 148//148 147//147 145//145
f 148//148 145//145 149//149
f 150//150 148//148 149//149
f 150//150 149//149 152//152
f 151//151 150//150 152//152
f 151//151 152//152 153//153
f 154//154 155//155 151//151
f 154//154 151//151 153//153
f 157//157 159//159 158//158
f 157//157 158//158 156//156
f 160//160 159//159 157//157
f 160//160 157//157 161//161
f 162//162 160//160 161//161
f 162//162 161//161 163//163
f 165//165 164//164 162//162
f 165//165 162//162 163//163
f 166//166 167//167 169//169
f 167//167 166//166 168//168
f 171//171 173//173 172//172
f 171//171 172//172 170//170
f 175//175 174//174 173//173
f 175//175 173//173 171//171
f 176//176 179//179 177//177
f 177//177 178//178 176//176
f 181//181 180//180 182//182
f 181//181 182//182 183//183
f 187//187 184//184 185//185
f 185//185 184//184 186//186
f 188//188 185//185 186//186
f 190//190 189//189 191//191
f 190//190 191//191 192//192
f 190//190 192//192 193//193
f 192//192 194//194 193//193
f 193//193 195//195 190//190
f 197//197 198//198 196//196
f 198//198 197//197 199//199
f 201//201 200//200 202//202
f 201//201 202//202 203//203
f 204//204 205//205 203//203
f 204//204 203//203 202//202
f 207//207 206//206 208//208
f 207//207 208//208 209//209
f 211//211 210//210 212//212
f 211//211 212//212 213//213
f 215//215 217//217 216//216
f 215//215 216//216 214//214
f 219//219 218//218 217//217
f 219//219 217//217 215//215
f 222//222 220//220 218//218
f 222//222 218//218 219//219
f 223//223 221//221 220//220
f 223//223 220//220 222//222
f 225//225 224//224 226//226
f 225//225 226//226 227//227
f 229//229 225//225 227//227
f 229//229 227//227 228//228
f 232//232 229//229 228//228
f 232//232 228//228 230//230
f 233//233 232//232 230//230
f 233//233 230//230 231//231
f 237//237 234//234 235//235
f 235//235 234//234 236//236
f 234//234 237//237 238//238
f 238//238 239//239 240//240
f 239//239 238//238 237//237
f 241//241 240//240 239//239
f 241//241 239//239 242//242
f 243//243 241//241 242//242
f 244//244 243//243 242//242
f 243//243 244//244 245//245
f 245//245 246//246 243//243
f 247//247 246//246 245//245
f 247//247 245//245 249//249
f 249//249 248//248 247//247
f 248//248 249//249 250//250
f 249//249 245//245 251//251
f 249//249 251//251 250//250
f 250//250 251//251 257//257
f 250//250 257//257 252//252
f 250//250 252//252 253//253
f 248//248 250//250 253//253
f 252//252 254//254 253//253
f 252//252 257//257 255//255
f 252//252 255//255 254//254
f 256//256 255//255 257//257
f 257//257 251//251 244//244
f 244//244 256//256 257//257
f 256//256 244//244 258//258
f 258//258 259//259 256//256
f 258//258 235//235 236//236
f 258//258 236//236 259//259
f 244//244 260//260 258//258
f 260//260 237//237 235//235
f 260//260 235//235 258//258
f 242//242 239//239 237//237
f 242//242 237//237 260//260
f 242//242 260//260 244//244
f 244//244 251//251 245//245
f 262//262 264//264 263//263
f 262//262 263//263 261//261
f 267//267 265//265 264//264
f 267//267 264//264 262//262
f 268//268 266//266 265//265
f 268//268 265//265 267//267
f 269//269 270//270 266//266
f 269//269 266//266 268//268
f 272//272 271//271 273//273
f 272//272 273//273 274//274
f 276//276 278//278 277//277
f 276//276 277//277 275//275
f 280//280 279//279 281//281
f 280//280 281//281 282//282
f 284//284 280//280 282//282
f 284//284 282//282 283//283
f 286//286 284//284 283//283
f 286//286 283//283 285//285
f 288//288 286//286 285//285
f 288//288 285//285 287//287
f 293//293 290//290 289//289
f 293//293 289//289 292//292
f 290//290 291//291 289//289
f 293//293 292//292 294//294
f 293//293 294//294 295//295
f 298//298 293//293 295//295
f 298//298 295//295 296//296
f 296//296 295//295 297//297
f 299//299 297//297 300//300
f 299//299 296//296 297//297
f 300//300 301//301 299//299
f 302//302 299//299 301//301
f 302//302 301//301 303//303
f 302//302 303//303 304//304
f 307//307 305//305 304//304
f 305//305 306//306 304//304
f 302//302 304//304 306//306
f 307//307 308//308 305//305
f 305//305 308//308 309//309
f 308//308 310//310 309//309
f 309//309 313//313 311//311
f 311//311 312//312 309//309
f 309//309 312//312 305//305
f 311//311 313//313 314//314
f 314//314 313//313 315//315
f 313//313 316//316 315//315
f 315//315 316//316 317//317
f 317//317 318//318 315//315
f 305//305 312//312 319//319
f 312//312 320//320 319//319
f 321//321 323//323 320//320
f 321//321 320//320 322//322
f 319//319 320//320 323//323
f 322//322 324//324 321//321
f 325//325 302//302 306//306
f 326//326 302//302 325//325
f 290//290 327//327 291//291
f 290//290 328//328 327//327
f 290//290 330//330 328//328
f 330//330 329//329 328//328
f 290//290 331//331 330//330
f 332//332 333//333 330//330
f 333//333 329//329 330//330
f 329//329 333//333 334//334
f 334//334 335//335 329//329
f 334//334 336//336 335//335
f 334//334 337//337 338//338
f 334//334 338//338 336//336
f 336//336 339//339 335//335
f 340//340 339//339 343//343
f 340//340 341//341 339//339
f 341//341 342//342 339//339
f 344//344 339//339 342//342
f 344//344 345//345 339//339
f 339//339 345//345 335//335
f 335//335 345//345 346//346
f 347//347 335//335 346//346
f 347//347 348//348 335//335
f 341//341 340//340 349//349
f 349//349 340//340 350//350
f 290//290 351//351 331//331
f 290//290 352//352 351//351
f 352//352 290//290 353//353
