# arm_05 exported from /models/landings/arm_05.glb
# units: meters
v 0.004858 0.001000 -0.016647
v -0.000014 0.001000 -0.016061
v 0.000755 0.001000 -0.019207
v 0.005303 0.001000 -0.017325
v -0.007847 0.001000 -0.004143
v -0.010192 0.001000 -0.006045
v 0.019445 0.001000 0.021847
v -0.009999 0.001000 -0.002026
v 0.023042 0.001000 0.020901
v 0.029174 0.001000 0.023799
v 0.023042 0.001000 0.020252
v 0.027599 0.001000 0.025588
v 0.023006 0.001000 0.026173
v 0.025374 0.001000 0.026444
v -0.023315 0.001000 0.012756
v -0.026852 0.001000 0.010345
v -0.022192 0.001000 0.009974
v -0.012344 0.001000 -0.003927
v -0.026860 0.001000 0.010343
v -0.025186 0.001000 -0.014339
v -0.022546 0.001000 -0.016061
v -0.022070 0.001000 -0.025005
v -0.028346 0.001000 -0.016764
v -0.010124 0.001000 -0.018972
v -0.028346 0.001000 -0.022890
v -0.027468 0.001000 -0.024386
v -0.026451 0.001000 -0.024857
v -0.025346 0.001000 -0.025005
v -0.028136 0.001000 -0.023668
v -0.010124 0.001000 -0.025005
v -0.008144 0.001000 -0.018972
v -0.001245 0.001000 -0.019207
v -0.008144 0.001000 -0.025005
v -0.001245 0.001000 -0.025005
v 0.023048 0.001000 0.014993
v 0.023067 0.001000 0.015002
v 0.029742 0.001000 0.021484
v 0.027630 0.001000 0.000697
v 0.029742 0.001000 -0.002122
v 0.027630 0.001000 -0.004122
v 0.027742 0.001000 -0.004122
v 0.029602 0.001000 -0.002858
v 0.028478 0.001000 -0.003982
v 0.029156 0.001000 -0.003536
v 0.025630 0.001000 0.000697
v 0.023067 0.001000 -0.002122
v 0.023207 0.001000 -0.002858
v 0.023653 0.001000 -0.003536
v 0.024331 0.001000 -0.003982
v 0.025067 0.001000 -0.004122
v 0.025630 0.001000 -0.004122
v 0.005444 0.001000 -0.018061
v 0.005444 0.001000 -0.020774
v 0.000755 0.001000 -0.025005
v 0.005251 0.001000 -0.022332
v 0.002704 0.001000 -0.025005
v 0.004641 0.001000 -0.023766
v 0.003713 0.001000 -0.024708
v 0.003203 0.001000 -0.024934
v -0.022546 0.001000 -0.016061
v -0.022546 -0.001000 -0.016061
v -0.000014 0.001000 -0.016061
v -0.000014 -0.001000 -0.016061
v -0.010192 0.001000 -0.006045
v -0.010192 -0.001000 -0.006045
v -0.000014 0.001000 -0.016061
v -0.000014 -0.001000 -0.016061
v -0.022546 -0.001000 -0.016061
v -0.010192 -0.001000 -0.006045
v -0.022546 0.001000 -0.016061
v -0.010192 0.001000 -0.006045
v 0.019445 0.001000 0.021847
v -0.022192 0.001000 0.009974
v 0.019445 -0.001000 0.021847
v -0.022192 -0.001000 0.009974
v -0.009999 0.001000 -0.002026
v -0.009999 -0.001000 -0.002026
v -0.022192 0.001000 0.009974
v -0.022192 -0.001000 0.009974
v 0.019445 0.001000 0.021847
v 0.019445 -0.001000 0.021847
v -0.009999 0.001000 -0.002026
v -0.009999 -0.001000 -0.002026
v -0.023315 -0.001000 0.012756
v -0.023315 0.001000 0.012756
v 0.023006 -0.001000 0.026173
v 0.023006 0.001000 0.026173
v 0.023006 -0.001000 0.026173
v 0.025386 -0.001000 0.026442
v 0.023006 0.001000 0.026173
v 0.025386 0.001000 0.026442
v 0.027599 0.001000 0.025588
v 0.027599 -0.001000 0.025588
v 0.029179 0.001000 0.023789
v 0.029179 -0.001000 0.023789
v 0.029742 0.001000 0.021484
v 0.029742 -0.001000 0.021484
v 0.029742 -0.001000 0.021484
v 0.029742 0.001000 0.021484
v 0.029742 -0.001000 -0.002122
v 0.029742 0.001000 -0.002122
v 0.029742 -0.001000 -0.002122
v 0.029592 -0.001000 -0.002882
v 0.029742 0.001000 -0.002122
v 0.029592 0.001000 -0.002882
v 0.029142 0.001000 -0.003551
v 0.029142 -0.001000 -0.003551
v 0.028469 0.001000 -0.003985
v 0.028469 -0.001000 -0.003985
v 0.027742 0.001000 -0.004122
v 0.027742 -0.001000 -0.004122
v 0.025630 -0.001000 -0.004122
v 0.025630 0.001000 -0.004122
v 0.025067 -0.001000 -0.004122
v 0.025067 0.001000 -0.004122
v 0.025067 -0.001000 -0.004122
v 0.024307 -0.001000 -0.003972
v 0.025067 0.001000 -0.004122
v 0.024307 0.001000 -0.003972
v 0.023638 0.001000 -0.003521
v 0.023638 -0.001000 -0.003521
v 0.023204 0.001000 -0.002849
v 0.023204 -0.001000 -0.002849
v 0.023067 0.001000 -0.002122
v 0.023067 -0.001000 -0.002122
v 0.023067 -0.001000 -0.002122
v 0.023067 0.001000 -0.002122
v 0.023067 -0.001000 0.015002
v 0.023067 0.001000 0.015002
v 0.023067 -0.001000 0.015002
v 0.023067 0.001000 0.015002
v 0.023048 -0.001000 0.014993
v 0.023048 0.001000 0.014993
v 0.027630 0.001000 0.000697
v 0.027630 -0.001000 -0.004122
v 0.027630 0.001000 -0.004122
v 0.027630 -0.001000 0.001122
v 0.025630 0.001000 -0.004122
v 0.025630 -0.001000 0.001122
v 0.025630 -0.001000 -0.004122
v 0.025630 0.001000 0.000697
v 0.027742 -0.001000 -0.004122
v 0.027742 0.001000 -0.004122
v 0.027630 -0.001000 -0.004122
v 0.027630 0.001000 -0.004122
v 0.027630 -0.001000 0.001122
v 0.025630 -0.001000 0.001122
v 0.027630 0.001000 0.000697
v 0.025630 0.001000 0.000697
v 0.023042 0.001000 0.020252
v 0.023042 0.001000 0.020901
v 0.023042 -0.001000 0.020252
v 0.023042 -0.001000 0.020901
v 0.023042 0.001000 0.020252
v 0.023042 -0.001000 0.020252
v 0.023048 0.001000 0.014993
v 0.023048 -0.001000 0.014993
v 0.005444 -0.001000 -0.018061
v 0.005444 0.001000 -0.018061
v 0.005444 -0.001000 -0.020774
v 0.005444 0.001000 -0.020774
v 0.005444 -0.001000 -0.020774
v 0.005350 -0.001000 -0.021869
v 0.005444 0.001000 -0.020774
v 0.005350 0.001000 -0.021869
v 0.005056 0.001000 -0.022943
v 0.005056 -0.001000 -0.022943
v 0.004532 0.001000 -0.023925
v 0.004532 -0.001000 -0.023925
v 0.003735 0.001000 -0.024694
v 0.003735 -0.001000 -0.024694
v 0.002704 0.001000 -0.025005
v 0.002704 -0.001000 -0.025005
v -0.025346 -0.001000 -0.025005
v -0.026344 -0.001000 -0.024885
v -0.025346 0.001000 -0.025005
v -0.026344 0.001000 -0.024885
v -0.027285 0.001000 -0.024504
v -0.027285 -0.001000 -0.024504
v -0.028036 0.001000 -0.023827
v -0.028036 -0.001000 -0.023827
v -0.028346 0.001000 -0.022890
v -0.028346 -0.001000 -0.022890
v -0.001245 0.001000 -0.019207
v -0.001245 -0.001000 -0.025005
v -0.001245 -0.001000 -0.019180
v -0.001245 0.001000 -0.025005
v -0.001245 0.001000 -0.019207
v -0.000245 0.001000 -0.019207
v -0.001245 -0.001000 -0.019180
v -0.000245 -0.001000 -0.019180
v 0.000755 -0.001000 -0.019180
v 0.000755 0.001000 -0.019207
v 0.000755 0.001000 -0.019207
v 0.000755 -0.001000 -0.025005
v 0.000755 -0.001000 -0.019180
v 0.000755 0.001000 -0.025005
v 0.002704 -0.001000 -0.025005
v 0.002704 0.001000 -0.025005
v 0.000755 -0.001000 -0.025005
v 0.000755 0.001000 -0.025005
v -0.008144 0.001000 -0.025005
v -0.008144 0.000214 -0.018959
v -0.008144 -0.001000 -0.025005
v -0.008144 0.001000 -0.018972
v -0.008144 -0.001000 -0.018956
v -0.010124 -0.001000 -0.018956
v -0.009134 -0.001000 -0.018956
v -0.010124 0.001000 -0.018972
v -0.009134 0.001000 -0.018972
v -0.008144 0.000214 -0.018959
v -0.008144 0.001000 -0.018972
v -0.008144 -0.001000 -0.018956
v -0.010124 -0.001000 -0.018956
v -0.010124 -0.001000 -0.025005
v -0.010124 0.001000 -0.018972
v -0.010124 0.001000 -0.025005
v -0.010124 -0.001000 -0.025005
v -0.010124 0.001000 -0.025005
v -0.017735 -0.001000 -0.025005
v -0.017735 0.001000 -0.025005
v -0.025346 -0.001000 -0.025005
v -0.025346 0.001000 -0.025005
v -0.001245 -0.001000 -0.025005
v -0.001245 0.001000 -0.025005
v -0.008144 -0.001000 -0.025005
v -0.008144 0.001000 -0.025005
v -0.028346 -0.001000 -0.022890
v -0.028346 0.001000 -0.022890
v -0.028346 -0.001000 -0.016764
v -0.028346 0.001000 -0.016764
v 0.004858 0.001000 -0.016647
v -0.007847 0.001000 -0.004143
v 0.004858 -0.000000 -0.016647
v 0.004858 -0.001000 -0.016647
v -0.007847 -0.001000 -0.004143
v -0.026852 -0.001000 0.010345
v -0.025237 -0.001000 0.011747
v -0.026852 -0.000000 0.010345
v -0.025237 0.001000 0.011747
v -0.026852 0.001000 0.010345
v -0.023315 0.001000 0.012756
v -0.023315 -0.001000 0.012756
v 0.005444 0.001000 -0.018061
v 0.005303 0.001000 -0.017325
v 0.005444 -0.001000 -0.018061
v 0.005303 -0.001000 -0.017325
v 0.004858 -0.000000 -0.016647
v 0.004858 -0.001000 -0.016647
v 0.004858 0.001000 -0.016647
v -0.026852 0.001000 0.010345
v -0.026856 0.001000 0.010344
v -0.026852 -0.000000 0.010345
v -0.026852 -0.001000 0.010345
v -0.026856 -0.001000 0.010344
v -0.026860 -0.001000 0.010343
v -0.026860 0.001000 0.010343
v -0.007847 0.001000 -0.004143
v -0.007847 -0.001000 -0.004143
v 0.023042 0.001000 0.020901
v 0.023042 -0.001000 0.020901
v -0.012344 0.001000 -0.003927
v -0.015555 -0.000000 -0.006530
v -0.015555 0.001000 -0.006530
v -0.012344 -0.001000 -0.003927
v -0.015555 -0.001000 -0.006530
v -0.018765 -0.001000 -0.009133
v -0.018765 -0.000000 -0.009133
v -0.021976 -0.001000 -0.011736
v -0.021976 -0.000000 -0.011736
v -0.025186 -0.001000 -0.014339
v -0.025186 0.001000 -0.014339
v -0.021976 0.001000 -0.011736
v -0.018765 0.001000 -0.009133
v -0.028346 0.001000 -0.016764
v -0.028346 -0.001000 -0.016764
v -0.025186 0.001000 -0.014339
v -0.025186 -0.001000 -0.014339
v -0.012344 -0.001000 -0.003927
v -0.012344 0.001000 -0.003927
v -0.026860 -0.001000 0.010343
v -0.026860 0.001000 0.010343
v -0.026852 -0.001000 0.010345
v -0.026827 -0.001000 0.010330
v -0.026860 -0.001000 0.010343
v -0.026799 -0.001000 0.010353
v -0.023315 -0.001000 0.012756
v -0.026600 -0.001000 0.010456
v -0.026486 -0.001000 0.010314
v -0.026656 -0.001000 0.010293
v -0.026714 -0.001000 0.010364
v -0.026260 -0.001000 0.010497
v -0.026033 -0.001000 0.010681
v -0.025804 -0.001000 0.010398
v -0.024899 -0.001000 0.011131
v -0.025352 -0.001000 0.010765
v -0.024893 -0.001000 0.010199
v -0.023524 -0.001000 0.009434
v -0.024441 -0.001000 0.010566
v -0.025345 -0.001000 0.009832
v -0.024887 -0.001000 0.009267
v -0.025339 -0.001000 0.008900
v -0.024428 -0.001000 0.008701
v -0.020784 -0.001000 0.007905
v -0.023511 -0.001000 0.007570
v -0.022594 -0.001000 0.006438
v -0.012344 -0.001000 -0.003927
v -0.010192 -0.001000 -0.006045
v -0.022546 -0.001000 -0.016061
v -0.009999 -0.001000 -0.002026
v -0.025186 -0.001000 -0.014339
v -0.026061 -0.001000 -0.018874
v -0.028346 -0.001000 -0.016764
v -0.027870 -0.001000 -0.020341
v -0.028346 -0.001000 -0.022890
v -0.026940 -0.001000 -0.023337
v -0.028136 -0.001000 -0.023668
v -0.027857 -0.001000 -0.022205
v -0.026953 -0.001000 -0.021472
v -0.026036 -0.001000 -0.022603
v -0.024226 -0.001000 -0.021136
v -0.018773 -0.001000 -0.020465
v -0.024201 -0.001000 -0.024866
v -0.022070 -0.001000 -0.025005
v -0.025346 -0.001000 -0.025005
v -0.010124 -0.001000 -0.025005
v -0.015104 -0.001000 -0.024991
v -0.011485 -0.001000 -0.022057
v -0.015154 -0.001000 -0.017531
v -0.010124 -0.001000 -0.018956
v -0.008144 -0.001000 -0.018956
v -0.001245 -0.001000 -0.019180
v -0.001245 -0.001000 -0.025005
v -0.000014 -0.001000 -0.016061
v -0.008144 -0.001000 -0.025005
v 0.003945 -0.001000 -0.017047
v 0.004858 -0.001000 -0.016647
v -0.007847 -0.001000 -0.004143
v 0.000755 -0.001000 -0.019180
v 0.003040 -0.001000 -0.017780
v 0.003957 -0.001000 -0.018912
v 0.003065 -0.001000 -0.021510
v 0.004874 -0.001000 -0.020043
v 0.003982 -0.001000 -0.022641
v 0.002160 -0.001000 -0.022243
v 0.005251 -0.001000 -0.022332
v 0.005444 -0.001000 -0.020774
v 0.005444 -0.001000 -0.018061
v 0.004862 -0.001000 -0.018178
v 0.005303 -0.001000 -0.017325
v 0.004641 -0.001000 -0.023766
v 0.003713 -0.001000 -0.024708
v 0.003078 -0.001000 -0.023375
v 0.002173 -0.001000 -0.024108
v 0.003203 -0.001000 -0.024934
v 0.002704 -0.001000 -0.025005
v 0.000755 -0.001000 -0.025005
v 0.001256 -0.001000 -0.022977
v 0.023042 -0.001000 0.020901
v 0.019445 -0.001000 0.021847
v 0.023042 -0.001000 0.020252
v 0.023708 -0.001000 0.019603
v 0.024613 -0.001000 0.020337
v 0.023695 -0.001000 0.021468
v 0.024600 -0.001000 0.022201
v 0.023006 -0.001000 0.026173
v 0.026409 -0.001000 0.023668
v 0.025374 -0.001000 0.026444
v 0.027599 -0.001000 0.025588
v 0.029174 -0.001000 0.023799
v 0.029742 -0.001000 0.021484
v 0.028244 -0.001000 0.021406
v 0.028269 -0.001000 0.017676
v 0.026435 -0.001000 0.019939
v 0.025517 -0.001000 0.021070
v 0.025530 -0.001000 0.019205
v 0.025543 -0.001000 0.017340
v 0.024625 -0.001000 0.018472
v 0.023721 -0.001000 0.017738
v 0.024638 -0.001000 0.016607
v 0.023168 -0.001000 0.015415
v 0.023281 -0.001000 0.015507
v 0.023507 -0.001000 0.015690
v 0.024186 -0.001000 0.016240
v 0.023733 -0.001000 0.015873
v 0.023963 -0.001000 0.015590
v 0.024644 -0.001000 0.015674
v 0.023737 -0.001000 0.015407
v 0.024192 -0.001000 0.015308
v 0.024651 -0.001000 0.014742
v 0.023966 -0.001000 0.015124
v 0.023740 -0.001000 0.014941
v 0.023969 -0.001000 0.014658
v 0.024198 -0.001000 0.014375
v 0.023743 -0.001000 0.014475
v 0.023514 -0.001000 0.014758
v 0.023400 -0.001000 0.014666
v 0.023517 -0.001000 0.014291
v 0.023972 -0.001000 0.014192
v 0.023746 -0.001000 0.014009
v 0.024205 -0.001000 0.013443
v 0.024657 -0.001000 0.013810
v 0.025109 -0.001000 0.014176
v 0.025116 -0.001000 0.013244
v 0.025568 -0.001000 0.013611
v 0.026485 -0.001000 0.012479
v 0.025581 -0.001000 0.011746
v 0.024663 -0.001000 0.012877
v 0.023759 -0.001000 0.012144
v 0.025630 -0.001000 0.001122
v 0.023067 -0.001000 -0.002122
v 0.023173 -0.001000 0.014716
v 0.024676 -0.001000 0.011012
v 0.023067 -0.001000 0.015002
v 0.023287 -0.001000 0.014574
v 0.023048 -0.001000 0.014993
v 0.023085 -0.001000 0.014996
v 0.023057 -0.001000 0.015032
v 0.023085 -0.001000 0.015055
v 0.023056 -0.001000 0.015090
v 0.023113 -0.001000 0.015136
v 0.023170 -0.001000 0.015065
v 0.023170 -0.001000 0.015182
v 0.023283 -0.001000 0.015274
v 0.023227 -0.001000 0.015111
v 0.023397 -0.001000 0.015132
v 0.023284 -0.001000 0.015040
v 0.023228 -0.001000 0.014995
v 0.023399 -0.001000 0.014899
v 0.023286 -0.001000 0.014807
v 0.023171 -0.001000 0.014949
v 0.023114 -0.001000 0.015019
v 0.023510 -0.001000 0.015224
v 0.023396 -0.001000 0.015365
v 0.026510 -0.001000 0.008750
v 0.027630 -0.001000 0.001122
v 0.028320 -0.001000 0.010217
v 0.029742 -0.001000 -0.002122
v 0.028295 -0.001000 0.013946
v 0.027390 -0.001000 0.013213
v 0.026473 -0.001000 0.014344
v 0.025555 -0.001000 0.015475
v 0.027377 -0.001000 0.015078
v 0.025103 -0.001000 0.015109
v 0.026460 -0.001000 0.016209
v 0.025097 -0.001000 0.016041
v 0.029602 -0.001000 -0.002858
v 0.028408 -0.001000 -0.002837
v 0.028414 -0.001000 -0.003770
v 0.027956 -0.001000 -0.003204
v 0.029156 -0.001000 -0.003536
v 0.028478 -0.001000 -0.003982
v 0.027742 -0.001000 -0.004122
v 0.027630 -0.001000 -0.004122
v 0.025067 -0.001000 -0.004122
v 0.024331 -0.001000 -0.003982
v 0.025630 -0.001000 -0.004122
v 0.023207 -0.001000 -0.002858
v 0.023653 -0.001000 -0.003536
v -0.022192 -0.001000 0.009974
v -0.023536 -0.001000 0.011299
v -0.026451 -0.001000 -0.024857
v -0.027468 -0.001000 -0.024386
v -0.026655 -0.001000 0.010177
v -0.026370 -0.001000 0.009940
v -0.025798 -0.001000 0.009466
v -0.026027 -0.001000 0.009748
v -0.026030 -0.001000 0.010215
v -0.026256 -0.001000 0.010031
v -0.026371 -0.001000 0.010173
v -0.026484 -0.001000 0.010081
v -0.026599 -0.001000 0.010222
v -0.026713 -0.001000 0.010247
v -0.026798 -0.001000 0.010295
v -0.026770 -0.001000 0.010318
vn 0.000000 1.000000 0.000000
vn 0.000000 1.000000 0.000000
vn 0.000000 1.000000 0.000000
vn 0.000000 1.000000 0.000000
vn 0.000000 1.000000 0.000000
vn 0.000000 1.000000 0.000000
vn 0.000000 1.000000 0.000000
vn 0.000000 1.000000 0.000000
vn 0.000000 1.000000 0.000000
vn 0.000000 1.000000 0.000000
vn 0.000000 1.000000 0.000000
vn 0.000000 1.000000 0.000000
vn 0.000000 1.000000 0.000000
vn 0.000000 1.000000 0.000000
vn 0.000000 1.000000 0.000000
vn 0.000000 1.000000 -0.000500
vn 0.000000 1.000000 0.000000
vn 0.000000 1.000000 0.000000
vn 0.000000 1.000000 0.000000
vn 0.000000 1.000000 0.000000
vn 0.000000 1.000000 0.000000
vn 0.000000 1.000000 0.000000
vn 0.000000 1.000000 0.000000
vn 0.000000 1.000000 0.000000
vn 0.000000 1.000000 0.000000
vn 0.000000 1.000000 0.000000
vn 0.000000 1.000000 0.000000
vn 0.000000 1.000000 0.000000
vn 0.000000 1.000000 0.000000
vn 0.000000 1.000000 0.000000
vn 0.000000 1.000000 0.000000
vn 0.000000 1.000000 0.000000
vn 0.000000 1.000000 0.000000
vn 0.000000 1.000000 0.000000
vn 0.000000 1.000000 0.000000
vn 0.000000 1.000000 0.000000
vn 0.000000 1.000000 0.000000
vn 0.000000 1.000000 0.000000
vn 0.000000 1.000000 0.000000
vn 0.000000 1.000000 0.000000
vn 0.000000 1.000000 0.000000
vn 0.000000 1.000000 0.000000
vn 0.000000 1.000000 0.000000
vn 0.000000 1.000000 0.000000
vn 0.000000 1.000000 0.000000
vn 0.000000 1.000000 0.000000
vn 0.000000 1.000000 0.000000
vn 0.000000 1.000000 0.000000
vn 0.000000 1.000000 0.000000
vn 0.000000 1.000000 0.000000
vn 0.000000 1.000000 0.000000
vn 0.000000 1.000000 0.000000
vn 0.000000 1.000000 0.000000
vn 0.000000 1.000000 0.000000
vn 0.000000 1.000000 0.000000
vn 0.000000 1.000000 0.000000
vn 0.000000 1.000000 0.000000
vn 0.000000 1.000000 0.000000
vn 0.000000 1.000000 0.000000
vn 0.000000 0.000000 1.000000
vn 0.000000 0.000000 1.000000
vn 0.000000 0.000000 1.000000
vn 0.000000 0.000000 1.000000
vn -0.701434 0.000000 -0.712734
vn -0.701434 0.000000 -0.712734
vn -0.701434 0.000000 -0.712734
vn -0.701434 0.000000 -0.712734
vn 0.629779 0.000000 -0.776774
vn 0.629779 0.000000 -0.776774
vn 0.629779 0.000000 -0.776774
vn 0.629779 0.000000 -0.776774
vn 0.274193 0.000000 -0.961675
vn 0.274193 0.000000 -0.961675
vn 0.274193 0.000000 -0.961675
vn 0.274193 0.000000 -0.961675
vn 0.701434 0.000000 0.712734
vn 0.701434 0.000000 0.712734
vn 0.701434 0.000000 0.712734
vn 0.701434 0.000000 0.712734
vn -0.629779 0.000000 0.776774
vn -0.629779 0.000000 0.776774
vn -0.629779 0.000000 0.776774
vn -0.629779 0.000000 0.776774
vn -0.278206 0.000000 0.960521
vn -0.278206 0.000000 0.960521
vn -0.278206 0.000000 0.960521
vn -0.278206 0.000000 0.960521
vn -0.347109 0.000100 0.937825
vn 0.128796 0.000000 0.991671
vn -0.347109 0.000000 0.937825
vn 0.128796 0.000000 0.991671
vn 0.571319 0.000000 0.820728
vn 0.571319 0.000000 0.820728
vn 0.887400 0.000000 0.461000
vn 0.887400 0.000000 0.461000
vn 1.000000 0.000000 0.000100
vn 1.000000 0.000000 0.000100
vn 1.000000 0.000000 0.000000
vn 1.000000 0.000000 0.000000
vn 1.000000 0.000000 0.000000
vn 1.000000 0.000000 0.000000
vn 1.000000 0.000000 -0.000100
vn 0.925024 0.000000 -0.379910
vn 1.000000 0.000000 -0.000100
vn 0.925024 0.000000 -0.379910
vn 0.699769 0.000000 -0.714369
vn 0.699769 0.000000 -0.714369
vn 0.363498 0.000000 -0.931595
vn 0.363498 0.000000 -0.931595
vn 0.000100 -0.000100 -1.000000
vn 0.000100 0.000000 -1.000000
vn 0.000000 0.000000 -1.000000
vn 0.000000 0.000000 -1.000000
vn 0.000000 0.000000 -1.000000
vn 0.000000 0.000000 -1.000000
vn -0.000100 0.000000 -1.000000
vn -0.379910 0.000000 -0.925024
vn -0.000100 0.000000 -1.000000
vn -0.379910 0.000000 -0.925024
vn -0.714468 0.000000 -0.699668
vn -0.714468 0.000000 -0.699668
vn -0.931629 0.000000 -0.363411
vn -0.931629 0.000000 -0.363411
vn -1.000000 0.000000 -0.000100
vn -1.000000 0.000000 -0.000100
vn -1.000000 0.000000 0.000000
vn -1.000000 0.000000 0.000000
vn -1.000000 0.000000 0.000000
vn -1.000000 0.000000 0.000000
vn 0.439276 0.000000 -0.898352
vn 0.439276 0.000000 -0.898352
vn 0.439276 0.000000 -0.898352
vn 0.439276 0.000000 -0.898352
vn -1.000000 0.000000 0.000000
vn -1.000000 0.000000 0.000000
vn -1.000000 0.000000 0.000000
vn -1.000000 0.000000 0.000000
vn 1.000000 0.000000 0.000000
vn 1.000000 0.000000 0.000000
vn 1.000000 0.000000 0.000000
vn 1.000000 0.000000 0.000000
vn 0.000000 0.000000 -1.000000
vn 0.000000 0.000000 -1.000000
vn 0.000000 0.000000 -1.000000
vn 0.000000 0.000000 -1.000000
vn 0.000000 -0.207890 -0.978152
vn 0.000000 -0.207890 -0.978152
vn 0.000000 -0.207890 -0.978152
vn 0.000000 -0.207890 -0.978152
vn -1.000000 0.000000 0.000000
vn -1.000000 0.000000 0.000000
vn -1.000000 0.000000 0.000000
vn -1.000000 0.000000 0.000000
vn -0.999999 0.000000 -0.001100
vn -0.999999 0.000000 -0.001100
vn -0.999999 0.000000 -0.001100
vn -0.999999 0.000000 -0.001100
vn 1.000000 0.000000 0.000000
vn 1.000000 0.000000 0.000000
vn 1.000000 0.000000 0.000000
vn 1.000000 0.000000 0.000000
vn 1.000000 0.000000 0.000000
vn 0.985306 0.000000 -0.170801
vn 1.000000 0.000000 0.000000
vn 0.985306 0.000000 -0.170801
vn 0.932718 0.000000 -0.360607
vn 0.932718 0.000000 -0.360607
vn 0.810553 0.000000 -0.585666
vn 0.810553 0.000000 -0.585666
vn 0.531221 0.000000 -0.847233
vn 0.531221 0.000000 -0.847233
vn 0.000100 0.000000 -1.000000
vn 0.000100 0.000000 -1.000000
vn -0.000100 0.000000 -1.000000
vn -0.241288 0.000000 -0.970453
vn -0.000100 0.000000 -1.000000
vn -0.241288 0.000000 -0.970453
vn -0.512686 0.000000 -0.858576
vn -0.512686 0.000000 -0.858576
vn -0.818950 0.000000 -0.573865
vn -0.818950 0.000000 -0.573865
vn -1.000000 0.000000 -0.000100
vn -1.000000 0.000000 -0.000100
vn 1.000000 0.000000 0.000000
vn 1.000000 0.000000 0.000000
vn 1.000000 0.000000 0.000000
vn 1.000000 0.000000 0.000000
vn 0.000000 -0.067899 -0.997692
vn 0.000000 -0.067899 -0.997692
vn 0.000000 0.040998 -0.999159
vn 0.000000 0.040998 -0.999159
vn 0.000000 0.040998 -0.999159
vn 0.000000 -0.067899 -0.997692
vn -1.000000 0.000000 0.000000
vn -1.000000 0.000000 0.000000
vn -1.000000 0.000000 0.000000
vn -1.000000 0.000000 0.000000
vn 0.000000 0.000000 -1.000000
vn 0.000000 0.000000 -1.000000
vn 0.000000 0.000000 -1.000000
vn 0.000000 0.000000 -1.000000
vn -1.000000 0.000000 0.000000
vn -1.000000 0.000000 0.000000
vn -1.000000 0.000000 0.000000
vn -1.000000 0.000000 0.000000
vn -1.000000 0.000000 0.000000
vn 0.000000 0.007700 -0.999970
vn 0.000000 0.007700 -0.999970
vn 0.000000 -0.022099 -0.999756
vn 0.000000 -0.021999 -0.999758
vn 0.000100 -0.011200 -0.999937
vn 0.000000 -0.022099 -0.999756
vn 0.000000 0.007700 -0.999970
vn 1.000000 0.000000 0.000000
vn 1.000000 0.000000 0.000000
vn 1.000000 0.000000 0.000000
vn 1.000000 0.000000 0.000000
vn 0.000000 0.000000 -1.000000
vn 0.000000 0.000000 -1.000000
vn 0.000000 0.000000 -1.000000
vn 0.000000 0.000000 -1.000000
vn 0.000000 0.000000 -1.000000
vn 0.000000 0.000000 -1.000000
vn 0.000000 0.000000 -1.000000
vn 0.000000 0.000000 -1.000000
vn 0.000000 0.000000 -1.000000
vn 0.000000 0.000000 -1.000000
vn -1.000000 0.000000 0.000000
vn -1.000000 0.000000 0.000000
vn -1.000000 0.000000 0.000000
vn -1.000000 0.000000 0.000000
vn 0.701434 0.000000 0.712734
vn 0.701434 0.000000 0.712734
vn 0.701434 0.000000 0.712734
vn 0.701434 0.000000 0.712734
vn 0.701434 0.000000 0.712734
vn -0.751796 0.000000 0.659396
vn -0.556891 0.000000 0.830586
vn -0.751796 0.000000 0.659396
vn -0.556891 0.000000 0.830586
vn -0.751796 0.000000 0.659396
vn -0.374389 0.000000 0.927272
vn -0.374389 0.000000 0.927272
vn 1.000000 0.000000 0.000100
vn 0.929788 0.000000 0.368095
vn 1.000000 0.000000 0.000100
vn 0.929788 0.000000 0.368095
vn 0.707207 0.000000 0.707007
vn 0.707107 0.000000 0.707107
vn 0.707107 0.000000 0.707107
vn -0.294093 0.000000 0.955777
vn -0.299106 0.000000 0.954220
vn -0.320395 0.000000 0.947284
vn -0.294395 0.000000 0.955684
vn -0.299197 0.000000 0.954191
vn -0.304083 0.000000 0.952646
vn -0.304083 0.000000 0.952646
vn 0.629779 0.000000 -0.776774
vn 0.629779 0.000000 -0.776774
vn 0.629779 0.000000 -0.776774
vn 0.629779 0.000000 -0.776774
vn -0.629779 0.000000 0.776774
vn -0.629779 0.000000 0.776774
vn -0.629779 0.000000 0.776774
vn -0.629779 0.000000 0.776774
vn -0.629779 0.000000 0.776774
vn -0.629779 0.000000 0.776774
vn -0.629779 0.000000 0.776774
vn -0.629779 0.000000 0.776774
vn -0.629779 0.000000 0.776774
vn -0.629779 0.000000 0.776774
vn -0.629779 0.000000 0.776774
vn -0.629779 0.000000 0.776774
vn -0.629779 0.000000 0.776774
vn -0.608700 0.000000 0.793400
vn -0.608700 0.000000 0.793400
vn -0.608700 0.000000 0.793400
vn -0.608700 0.000000 0.793400
vn -0.701031 0.000000 -0.713131
vn -0.701031 0.000000 -0.713131
vn -0.701031 0.000000 -0.713131
vn -0.701031 0.000000 -0.713131
vn 0.000000 -1.000000 -0.000900
vn 0.000000 -1.000000 0.000000
vn 0.000000 -1.000000 -0.000900
vn 0.000000 -1.000000 0.000000
vn 0.000000 -1.000000 0.000000
vn 0.000000 -1.000000 0.000000
vn 0.000000 -1.000000 0.000000
vn 0.000000 -1.000000 0.000000
vn 0.000000 -1.000000 0.000000
vn 0.000000 -1.000000 0.000000
vn 0.000000 -1.000000 0.000000
vn 0.000000 -1.000000 0.000000
vn 0.000000 -1.000000 0.000000
vn 0.000000 -1.000000 0.000000
vn 0.000000 -1.000000 0.000000
vn 0.000000 -1.000000 0.000000
vn 0.000000 -1.000000 0.000000
vn 0.000000 -1.000000 0.000000
vn 0.000000 -1.000000 0.000000
vn 0.000000 -1.000000 0.000000
vn 0.000000 -1.000000 0.000000
vn 0.000000 -1.000000 0.000000
vn 0.000000 -1.000000 0.000000
vn 0.000000 -1.000000 0.000000
vn 0.000000 -1.000000 0.000000
vn 0.000000 -1.000000 0.000000
vn 0.000000 -1.000000 0.000000
vn 0.000000 -1.000000 0.000000
vn 0.000000 -1.000000 0.000000
vn 0.000000 -1.000000 0.000000
vn 0.000000 -1.000000 0.000000
vn 0.000000 -1.000000 0.000000
vn 0.000000 -1.000000 0.000000
vn 0.000000 -1.000000 0.000000
vn 0.000000 -1.000000 0.000000
vn 0.000000 -1.000000 0.000000
vn 0.000000 -1.000000 0.000000
vn 0.000000 -1.000000 0.000000
vn 0.000000 -1.000000 0.000000
vn 0.000000 -1.000000 0.000000
vn 0.000000 -1.000000 0.000000
vn 0.000000 -1.000000 0.000000
vn 0.000000 -1.000000 0.000000
vn 0.000000 -1.000000 0.000000
vn 0.000000 -1.000000 0.000000
vn 0.000000 -1.000000 0.000000
vn 0.000000 -1.000000 0.000000
vn 0.000000 -1.000000 0.000000
vn 0.000000 -1.000000 0.000000
vn 0.000000 -1.000000 0.000000
vn 0.000000 -1.000000 0.000000
vn 0.000000 -1.000000 0.000000
vn 0.000000 -1.000000 0.000000
vn 0.000000 -1.000000 0.000000
vn 0.000000 -1.000000 0.000000
vn 0.000000 -1.000000 0.000000
vn 0.000000 -1.000000 0.000000
vn 0.000000 -1.000000 0.000000
vn 0.000000 -1.000000 0.000000
vn 0.000000 -1.000000 0.000000
vn 0.000000 -1.000000 0.000000
vn 0.000000 -1.000000 0.000000
vn 0.000000 -1.000000 0.000000
vn 0.000000 -1.000000 0.000000
vn 0.000000 -1.000000 0.000000
vn 0.000000 -1.000000 0.000000
vn 0.000000 -1.000000 0.000000
vn 0.000000 -1.000000 0.000000
vn 0.000000 -1.000000 0.000000
vn 0.000000 -1.000000 0.000000
vn 0.000000 -1.000000 0.000000
vn 0.000000 -1.000000 0.000000
vn 0.000000 -1.000000 0.000000
vn 0.000000 -1.000000 0.000000
vn 0.000000 -1.000000 0.000000
vn 0.000000 -1.000000 0.000000
vn 0.000000 -1.000000 0.000000
vn 0.000000 -1.000000 0.000000
vn 0.000000 -1.000000 0.000000
vn 0.000000 -1.000000 0.000000
vn 0.000000 -1.000000 0.000000
vn 0.000000 -1.000000 0.000000
vn 0.000000 -1.000000 0.000000
vn 0.000000 -1.000000 0.000000
vn 0.000000 -1.000000 0.000000
vn 0.000000 -1.000000 0.000000
vn 0.000000 -1.000000 0.000000
vn 0.000000 -1.000000 0.000000
vn 0.000000 -1.000000 0.000000
vn 0.000000 -1.000000 0.000000
vn 0.000000 -1.000000 0.000000
vn 0.000000 -1.000000 0.000000
vn 0.000000 -1.000000 0.000000
vn 0.000000 -1.000000 0.000000
vn 0.000000 -1.000000 0.000000
vn 0.000000 -1.000000 0.000000
vn 0.000000 -1.000000 0.000000
vn 0.000000 -1.000000 0.000000
vn 0.000000 -1.000000 0.000000
vn 0.000000 -1.000000 0.000000
vn 0.000000 -1.000000 0.000000
vn 0.000000 -1.000000 0.000000
vn 0.000000 -1.000000 0.000000
vn 0.000000 -1.000000 0.000000
vn 0.000000 -1.000000 0.000000
vn 0.000000 -1.000000 0.000000
vn 0.000000 -1.000000 0.000000
vn 0.000000 -1.000000 0.000000
vn 0.000000 -1.000000 0.000000
vn 0.000000 -1.000000 0.000000
vn 0.000000 -1.000000 0.000000
vn 0.000000 -1.000000 0.000000
vn 0.000000 -1.000000 0.000000
vn 0.000000 -1.000000 0.000000
vn 0.000000 -1.000000 0.000000
vn 0.000000 -1.000000 0.000000
vn 0.000000 -1.000000 0.000000
vn 0.000000 -1.000000 0.000000
vn 0.000000 -1.000000 0.000000
vn 0.000000 -1.000000 0.000000
vn 0.000000 -1.000000 0.000000
vn 0.000000 -1.000000 0.000000
vn 0.000000 -1.000000 0.000000
vn 0.000000 -1.000000 0.000000
vn 0.000000 -1.000000 0.000000
vn 0.000000 -1.000000 0.000000
vn 0.000000 -1.000000 0.000000
vn 0.000000 -1.000000 0.000000
vn 0.000000 -1.000000 0.000000
vn 0.000000 -1.000000 0.000000
vn 0.000000 -1.000000 0.000000
vn 0.000000 -1.000000 0.000000
vn 0.000000 -1.000000 0.000000
vn 0.000000 -1.000000 0.000000
vn 0.000000 -1.000000 0.000000
vn 0.000000 -1.000000 0.000000
vn 0.000000 -1.000000 0.000000
vn 0.000000 -1.000000 0.000000
vn 0.000000 -1.000000 0.000000
vn 0.000000 -1.000000 0.000000
vn 0.000000 -1.000000 0.000000
vn 0.000000 -1.000000 0.000000
vn 0.000000 -1.000000 0.000000
vn 0.000000 -1.000000 0.000000
vn 0.000000 -1.000000 0.000000
vn 0.000000 -1.000000 0.000000
vn 0.000000 -1.000000 0.000000
vn 0.000000 -1.000000 0.000000
vn 0.000000 -1.000000 0.000000
vn 0.000000 -1.000000 0.000000
vn 0.000000 -1.000000 0.000000
vn 0.000000 -1.000000 0.000000
vn 0.000000 -1.000000 0.000000
vn 0.000000 -1.000000 0.000000
vn 0.000000 -1.000000 0.000000
vn 0.000000 -1.000000 0.000000
vn 0.000000 -1.000000 0.000000
vn 0.000000 -1.000000 0.000000
vn 0.000000 -1.000000 0.000000
vn 0.000000 -1.000000 0.000000
vn 0.000000 -1.000000 0.000000
vn 0.000000 -1.000000 0.000000
vn 0.000000 -1.000000 0.000000
vn 0.000000 -1.000000 0.000000
vn 0.000000 -1.000000 0.000000
vn 0.000000 -1.000000 0.000000
vn 0.000000 -1.000000 0.000000
vn 0.000000 -1.000000 0.000000
vn 0.000000 -1.000000 0.000000
vn 0.000000 -1.000000 0.000000
vn 0.000000 -1.000000 0.000000
vn 0.000000 -1.000000 0.000000
vn 0.000000 -1.000000 0.000000
vn 0.000000 -1.000000 0.000000
vn 0.000000 -1.000000 0.000000
vn 0.000000 -1.000000 0.000000
vn 0.000000 -1.000000 0.000000
vn 0.000000 -1.000000 0.000000
vn 0.000000 -1.000000 0.000000
vn 0.000000 -1.000000 0.000000
vn 0.000000 -1.000000 0.000000
vn 0.000000 -1.000000 0.000000
vn 0.000000 -1.000000 0.000000
vn 0.000000 -1.000000 0.000000
vn 0.000000 -1.000000 0.000000
vn 0.000000 -1.000000 0.000000
vn 0.000000 -1.000000 0.000000
vn 0.000000 -1.000000 0.000000
vn 0.000000 -1.000000 0.000000
vn 0.000000 -1.000000 0.000000
vn 0.000000 -1.000000 0.000000
vn 0.000000 -0.999999 0.001100
vn 0.000000 -1.000000 0.000000
f 2//2 5//5 1//1
f 2//2 1//1 3//3
f 1//1 4//4 3//3
f 2//2 6//6 5//5
f 8//8 5//5 6//6
f 5//5 7//7 9//9
f 5//5 8//8 7//7
f 13//13 9//9 7//7
f 12//12 10//10 9//9
f 10//10 11//11 9//9
f 14//14 12//12 9//9
f 14//14 9//9 13//13
f 7//7 15//15 13//13
f 16//16 15//15 17//17
f 17//17 15//15 7//7
f 19//19 17//17 18//18
f 18//18 17//17 8//8
f 17//17 19//19 16//16
f 18//18 21//21 20//20
f 21//21 18//18 6//6
f 6//6 18//18 8//8
f 21//21 24//24 22//22
f 22//22 28//28 21//21
f 23//23 20//20 21//21
f 23//23 21//21 25//25
f 24//24 21//21 2//2
f 26//26 25//25 21//21
f 26//26 21//21 27//27
f 27//27 21//21 28//28
f 25//25 26//26 29//29
f 22//22 24//24 30//30
f 2//2 31//31 24//24
f 31//31 2//2 32//32
f 32//32 33//33 31//31
f 33//33 32//32 34//34
f 2//2 3//3 32//32
f 11//11 36//36 35//35
f 37//37 36//36 11//11
f 11//11 10//10 37//37
f 36//36 37//37 38//38
f 37//37 39//39 38//38
f 38//38 39//39 40//40
f 39//39 41//41 40//40
f 39//39 42//42 41//41
f 42//42 43//43 41//41
f 43//43 42//42 44//44
f 45//45 36//36 38//38
f 36//36 45//45 46//46
f 47//47 46//46 45//45
f 48//48 47//47 45//45
f 49//49 48//48 45//45
f 50//50 49//49 45//45
f 50//50 45//45 51//51
f 52//52 3//3 4//4
f 3//3 52//52 53//53
f 54//54 53//53 55//55
f 3//3 53//53 54//54
f 55//55 56//56 54//54
f 56//56 55//55 57//57
f 56//56 57//57 58//58
f 59//59 56//56 58//58
f 61//61 63//63 62//62
f 61//61 62//62 60//60
f 65//65 64//64 66//66
f 65//65 66//66 67//67
f 68//68 70//70 71//71
f 68//68 71//71 69//69
f 72//72 74//74 75//75
f 72//72 75//75 73//73
f 77//77 76//76 78//78
f 77//77 78//78 79//79
f 81//81 80//80 82//82
f 81//81 82//82 83//83
f 85//85 84//84 86//86
f 85//85 86//86 87//87
f 89//89 91//91 90//90
f 89//89 90//90 88//88
f 92//92 91//91 89//89
f 92//92 89//89 93//93
f 94//94 92//92 93//93
f 94//94 93//93 95//95
f 97//97 96//96 94//94
f 97//97 94//94 95//95
f 99//99 98//98 100//100
f 99//99 100//100 101//101
f 103//103 105//105 104//104
f 103//103 104//104 102//102
f 106//106 105//105 103//103
f 106//106 103//103 107//107
f 108//108 106//106 107//107
f 108//108 107//107 109//109
f 111//111 110//110 108//108
f 111//111 108//108 109//109
f 113//113 112//112 114//114
f 113//113 114//114 115//115
f 117//117 119//119 118//118
f 117//117 118//118 116//116
f 120//120 119//119 117//117
f 120//120 117//117 121//121
f 122//122 120//120 121//121
f 122//122 121//121 123//123
f 125//125 124//124 122//122
f 125//125 122//122 123//123
f 127//127 126//126 128//128
f 127//127 128//128 129//129
f 131//131 130//130 132//132
f 131//131 132//132 133//133
f 135//135 137//137 134//134
f 134//134 136//136 135//135
f 138//138 141//141 139//139
f 139//139 140//140 138//138
f 143//143 142//142 144//144
f 143//143 144//144 145//145
f 147//147 149//149 148//148
f 147//147 148//148 146//146
f 150//150 152//152 153//153
f 150//150 153//153 151//151
f 157//157 155//155 154//154
f 157//157 154//154 156//156
f 159//159 158//158 160//160
f 159//159 160//160 161//161
f 163//163 165//165 164//164
f 163//163 164//164 162//162
f 166//166 165//165 163//163
f 166//166 163//163 167//167
f 168//168 166//166 167//167
f 168//168 167//167 169//169
f 170//170 168//168 169//169
f 170//170 169//169 171//171
f 173//173 172//172 170//170
f 173//173 170//170 171//171
f 175//175 177//177 176//176
f 175//175 176//176 174//174
f 178//178 177//177 175//175
f 178//178 175//175 179//179
f 180//180 178//178 179//179
f 180//180 179//179 181//181
f 183//183 182//182 180//180
f 183//183 180//180 181//181
f 184//184 185//185 187//187
f 185//185 184//184 186//186
f 189//189 191//191 190//190
f 189//189 190//190 188//188
f 193//193 192//192 191//191
f 193//193 191//191 189//189
f 194//194 197//197 195//195
f 195//195 196//196 194//194
f 199//199 198//198 200//200
f 199//199 200//200 201//201
f 205//205 202//202 203//203
f 203//203 202//202 204//204
f 206//206 203//203 204//204
f 208//208 207//207 209//209
f 208//208 209//209 210//210
f 208//208 210//210 211//211
f 210//210 212//212 211//211
f 211//211 213//213 208//208
f 215//215 216//216 214//214
f 216//216 215//215 217//217
f 219//219 218//218 220//220
f 219//219 220//220 221//221
f 222//222 223//223 221//221
f 222//222 221//221 220//220
f 225//225 224//224 226//226
f 225//225 226//226 227//227
f 229//229 228//228 230//230
f 229//229 230//230 231//231
f 233//233 234//234 232//232
f 235//235 234//234 236//236
f 233//233 236//236 234//234
f 238//238 239//239 237//237
f 239//239 238//238 240//240
f 240//240 241//241 239//239
f 243//243 242//242 240//240
f 243//243 240//240 238//238
f 245//245 247//247 246//246
f 245//245 246//246 244//244
f 247//247 248//248 249//249
f 245//245 248//248 247//247
f 248//248 245//245 250//250
f 252//252 253//253 251//251
f 255//255 254//254 253//253
f 253//253 252//252 255//255
f 257//257 256//256 255//255
f 257//257 255//255 252//252
f 259//259 258//258 260//260
f 259//259 260//260 261//261
f 262//262 263//263 265//265
f 263//263 262//262 264//264
f 266//266 265//265 263//263
f 267//267 266//266 263//263
f 267//267 263//263 268//268
f 269//269 267//267 268//268
f 269//269 268//268 270//270
f 269//269 270//270 271//271
f 272//272 271//271 270//270
f 270//270 273//273 272//272
f 270//270 268//268 274//274
f 270//270 274//274 273//273
f 268//268 263//263 264//264
f 268//268 264//264 274//274
f 276//276 278//278 277//277
f 276//276 277//277 275//275
f 279//279 281//281 282//282
f 279//279 282//282 280//280
f 286//286 283//283 284//284
f 283//283 285//285 284//284
f 288//288 283//283 286//286
f 287//287 283//283 288//288
f 288//288 289//289 292//292
f 289//289 288//288 290//290
f 288//288 291//291 290//290
f 288//288 286//286 291//291
f 288//288 293//293 287//287
f 293//293 288//288 292//292
f 294//294 296//296 293//293
f 293//293 292//292 468//468
f 293//293 468//468 294//294
f 287//287 293//293 295//295
f 296//296 295//295 293//293
f 295//295 296//296 297//297
f 295//295 297//297 299//299
f 296//296 294//294 300//300
f 296//296 300//300 297//297
f 297//297 301//301 298//298
f 298//298 299//299 297//297
f 297//297 300//300 301//301
f 303//303 301//301 302//302
f 300//300 466//466 302//302
f 300//300 302//302 301//301
f 301//301 303//303 298//298
f 298//298 303//303 304//304
f 303//303 305//305 304//304
f 305//305 303//303 302//302
f 305//305 302//302 306//306
f 305//305 306//306 304//304
f 307//307 304//304 306//306
f 302//302 307//307 306//306
f 307//307 302//302 285//285
f 307//307 308//308 310//310
f 307//307 309//309 308//308
f 307//307 311//311 309//309
f 304//304 307//307 310//310
f 312//312 309//309 311//311
f 312//312 311//311 313//313
f 313//313 314//314 312//312
f 315//315 314//314 313//313
f 318//318 315//315 316//316
f 315//315 317//317 316//316
f 314//314 315//315 318//318
f 319//319 314//314 318//318
f 319//319 318//318 316//316
f 319//319 316//316 320//320
f 319//319 320//320 321//321
f 321//321 312//312 319//319
f 312//312 314//314 319//319
f 309//309 321//321 322//322
f 324//324 322//322 321//321
f 321//321 309//309 312//312
f 321//321 320//320 323//323
f 324//324 321//321 323//323
f 324//324 323//323 325//325
f 322//322 324//324 327//327
f 326//326 327//327 324//324
f 329//329 322//322 327//327
f 329//329 327//327 328//328
f 326//326 328//328 327//327
f 328//328 330//330 329//329
f 328//328 326//326 330//330
f 331//331 329//329 330//330
f 334//334 331//331 332//332
f 332//332 331//331 333//333
f 333//333 331//331 335//335
f 331//331 334//334 329//329
f 340//340 336//336 334//334
f 334//334 336//336 337//337
f 329//329 334//334 309//309
f 338//338 308//308 334//334
f 338//338 334//334 337//337
f 334//334 332//332 339//339
f 339//339 340//340 334//334
f 340//340 339//339 342//342
f 336//336 340//340 341//341
f 336//336 341//341 349//349
f 341//341 340//340 342//342
f 343//343 342//342 347//347
f 342//342 343//343 341//341
f 342//342 344//344 346//346
f 342//342 345//345 353//353
f 342//342 353//353 344//344
f 339//339 345//345 342//342
f 346//346 347//347 342//342
f 343//343 347//347 348//348
f 348//348 349//349 343//343
f 350//350 349//349 348//348
f 349//349 350//350 336//336
f 336//336 350//350 337//337
f 341//341 343//343 349//349
f 346//346 344//344 351//351
f 353//353 352//352 351//351
f 353//353 351//351 344//344
f 354//354 355//355 353//353
f 345//345 358//358 354//354
f 345//345 354//354 353//353
f 355//355 352//352 353//353
f 354//354 356//356 355//355
f 356//356 354//354 357//357
f 354//354 358//358 357//357
f 339//339 357//357 358//358
f 345//345 339//339 358//358
f 338//338 310//310 308//308
f 360//360 310//310 338//338
f 360//360 338//338 359//359
f 364//364 360//360 359//359
f 361//361 362//362 359//359
f 363//363 359//359 362//362
f 363//363 364//364 359//359
f 364//364 365//365 366//366
f 365//365 364//364 363//363
f 365//365 363//363 375//375
f 366//366 360//360 364//364
f 360//360 366//366 287//287
f 366//366 365//365 367//367
f 366//366 367//367 368//368
f 369//369 368//368 367//367
f 367//367 370//370 369//369
f 370//370 367//367 372//372
f 371//371 370//370 372//372
f 371//371 372//372 373//373
f 374//374 373//373 372//372
f 375//375 374//374 372//372
f 372//372 367//367 375//375
f 367//367 365//365 375//375
f 375//375 363//363 376//376
f 375//375 376//376 374//374
f 373//373 374//374 376//376
f 363//363 362//362 378//378
f 363//363 378//378 376//376
f 376//376 377//377 373//373
f 376//376 378//378 377//377
f 362//362 379//379 378//378
f 378//378 379//379 380//380
f 378//378 380//380 377//377
f 361//361 379//379 362//362
f 384//384 380//380 379//379
f 382//382 379//379 381//381
f 379//379 361//361 381//381
f 383//383 379//379 382//382
f 385//385 379//379 383//383
f 379//379 385//385 384//384
f 384//384 385//385 386//386
f 385//385 383//383 388//388
f 385//385 388//388 386//386
f 387//387 384//384 386//386
f 386//386 389//389 387//387
f 386//386 388//388 391//391
f 386//386 391//391 389//389
f 390//390 389//389 391//391
f 387//387 389//389 390//390
f 387//387 390//390 444//444
f 391//391 392//392 393//393
f 388//388 433//433 392//392
f 388//388 392//392 391//391
f 391//391 393//393 390//390
f 393//393 394//394 390//390
f 393//393 395//395 399//399
f 393//393 399//399 394//394
f 392//392 396//396 395//395
f 392//392 395//395 393//393
f 395//395 396//396 397//397
f 398//398 395//395 397//397
f 395//395 398//398 400//400
f 395//395 400//400 399//399
f 402//402 394//394 399//399
f 399//399 400//400 401//401
f 401//401 402//402 399//399
f 390//390 394//394 402//402
f 390//390 402//402 403//403
f 403//403 402//402 404//404
f 403//403 404//404 405//405
f 402//402 401//401 408//408
f 402//402 408//408 404//404
f 406//406 405//405 404//404
f 407//407 406//406 404//404
f 404//404 408//408 407//407
f 409//409 408//408 401//401
f 408//408 409//409 413//413
f 408//408 413//413 407//407
f 398//398 409//409 400//400
f 409//409 401//401 400//400
f 411//411 410//410 409//409
f 409//409 410//410 413//413
f 414//414 411//411 409//409
f 398//398 415//415 409//409
f 414//414 409//409 412//412
f 415//415 412//412 409//409
f 430//430 412//412 415//415
f 430//430 415//415 397//397
f 397//397 415//415 398//398
f 418//418 416//416 414//414
f 414//414 412//412 417//417
f 417//417 418//418 414//414
f 420//420 418//418 419//419
f 419//419 418//418 417//417
f 419//419 417//417 432//432
f 418//418 420//420 416//416
f 416//416 420//420 361//361
f 361//361 420//420 381//381
f 421//421 381//381 420//420
f 421//421 420//420 419//419
f 422//422 421//421 419//419
f 423//423 421//421 422//422
f 423//423 422//422 425//425
f 421//421 423//423 381//381
f 381//381 423//423 424//424
f 424//424 423//423 425//425
f 426//426 424//424 425//425
f 425//425 427//427 426//426
f 425//425 422//422 428//428
f 425//425 428//428 427//427
f 426//426 427//427 429//429
f 429//429 427//427 428//428
f 430//430 429//429 428//428
f 429//429 430//430 397//397
f 429//429 397//397 396//396
f 426//426 429//429 392//392
f 429//429 396//396 392//392
f 430//430 431//431 412//412
f 428//428 431//431 430//430
f 431//431 432//432 417//417
f 422//422 432//432 431//431
f 422//422 431//431 428//428
f 417//417 412//412 431//431
f 419//419 432//432 422//422
f 434//434 424//424 426//426
f 434//434 426//426 433//433
f 392//392 433//433 426//426
f 434//434 433//433 388//388
f 382//382 381//381 424//424
f 382//382 424//424 434//434
f 383//383 382//382 434//434
f 388//388 383//383 434//434
f 435//435 413//413 410//410
f 407//407 413//413 435//435
f 435//435 437//437 407//407
f 436//436 435//435 410//410
f 436//436 437//437 435//435
f 437//437 406//406 407//407
f 440//440 406//406 437//437
f 438//438 371//371 437//437
f 437//437 436//436 438//438
f 437//437 439//439 440//440
f 439//439 437//437 371//371
f 441//441 405//405 406//406
f 441//441 406//406 440//440
f 443//443 441//441 440//440
f 443//443 440//440 439//439
f 441//441 442//442 444//444
f 445//445 442//442 441//441
f 445//445 441//441 443//443
f 444//444 403//403 441//441
f 403//403 405//405 441//441
f 446//446 387//387 444//444
f 446//446 444//444 442//442
f 444//444 390//390 403//403
f 439//439 373//373 443//443
f 445//445 443//443 373//373
f 377//377 445//445 373//373
f 445//445 377//377 446//446
f 446//446 442//442 445//445
f 377//377 380//380 446//446
f 380//380 384//384 387//387
f 380//380 387//387 446//446
f 371//371 373//373 439//439
f 438//438 448//448 447//447
f 448//448 438//438 436//436
f 450//450 448//448 436//436
f 451//451 448//448 449//449
f 448//448 450//450 449//449
f 448//448 451//451 447//447
f 451//451 449//449 452//452
f 453//453 452//452 449//449
f 453//453 450//450 454//454
f 449//449 450//450 453//453
f 436//436 454//454 450//450
f 411//411 455//455 457//457
f 411//411 456//456 455//455
f 458//458 456//456 411//411
f 410//410 411//411 457//457
f 458//458 459//459 456//456
f 460//460 360//360 287//287
f 287//287 461//461 460//460
f 460//460 461//461 298//298
f 460//460 298//298 304//304
f 310//310 460//460 304//304
f 461//461 299//299 298//298
f 461//461 295//295 299//299
f 461//461 287//287 295//295
f 329//329 309//309 322//322
f 462//462 325//325 316//316
f 323//323 320//320 325//325
f 320//320 316//316 325//325
f 316//316 463//463 462//462
f 463//463 316//316 317//317
f 302//302 464//464 285//285
f 465//465 464//464 302//302
f 465//465 302//302 466//466
f 467//467 466//466 300//300
f 466//466 467//467 465//465
f 468//468 467//467 300//300
f 468//468 469//469 467//467
f 465//465 467//467 469//469
f 470//470 471//471 465//465
f 470//470 465//465 469//469
f 470//470 469//469 468//468
f 468//468 292//292 470//470
f 292//292 289//289 470//470
f 289//289 472//472 471//471
f 289//289 471//471 470//470
f 472//472 464//464 471//471
f 465//465 471//471 464//464
f 290//290 472//472 289//289
f 290//290 473//473 464//464
f 290//290 464//464 472//472
f 300//300 294//294 468//468
f 285//285 464//464 474//474
f 473//473 474//474 464//464
f 474//474 284//284 285//285
f 474//474 473//473 475//475
f 286//286 284//284 474//474
f 286//286 474//474 475//475
f 286//286 475//475 291//291
f 291//291 475//475 473//473
f 291//291 473//473 290//290
