# arm_26 exported from /models/landings/arm_26.glb
# units: meters
v -0.026343 0.001000 -0.014500
v -0.026343 0.001000 -0.026531
v -0.020895 0.001000 -0.018886
v -0.020990 0.001000 -0.018484
v -0.020934 0.001000 -0.018057
v -0.026286 0.001000 -0.014167
v -0.026120 0.001000 -0.013871
v -0.020730 0.001000 -0.017666
v -0.013034 0.001000 -0.007249
v -0.010569 0.001000 -0.004232
v 0.004577 0.001000 0.024106
v 0.004481 0.001000 0.014700
v 0.004503 0.001000 0.014730
v 0.004919 0.001000 0.015081
v 0.012207 0.001000 0.019038
v 0.012274 0.001000 0.019075
v 0.006132 0.001000 0.024849
v 0.031582 0.001000 0.024849
v 0.012578 0.001000 0.019189
v 0.013152 0.001000 0.019339
v 0.013726 0.001000 0.019418
v 0.012861 0.001000 0.019273
v 0.005270 0.001000 0.024653
v 0.027908 0.001000 0.019418
v 0.028093 0.001000 0.019233
v 0.028268 0.001000 0.019004
v 0.034088 0.001000 0.020200
v 0.032017 0.001000 0.017054
v 0.028407 0.001000 0.018756
v 0.034223 0.001000 0.023272
v 0.034571 0.001000 0.021592
v 0.033692 0.001000 0.023981
v 0.033011 0.001000 0.024487
v 0.034523 0.001000 0.022439
v 0.028499 0.001000 0.018517
v 0.028555 0.001000 0.018207
v 0.028551 0.001000 0.017986
v 0.031975 0.001000 0.016988
v 0.028523 0.001000 0.017821
v 0.028491 0.001000 0.017702
v 0.024574 0.001000 0.011579
v 0.013153 0.001000 -0.006271
v 0.013019 0.001000 -0.011619
v 0.012580 0.001000 -0.012282
v 0.010593 0.001000 -0.010273
v 0.010856 0.001000 -0.009862
v 0.010524 0.001000 -0.010341
v 0.011902 0.001000 -0.012727
v 0.010376 0.001000 -0.010458
v 0.011166 0.001000 -0.012868
v 0.010218 0.001000 -0.010547
v 0.010062 0.001000 -0.010607
v -0.002739 0.001000 -0.010264
v -0.011428 0.001000 -0.012868
v -0.012737 0.001000 -0.009850
v -0.019442 0.001000 -0.019130
v -0.013049 0.001000 -0.013696
v -0.012338 0.001000 -0.013087
v -0.018431 0.001000 -0.021145
v -0.018714 0.001000 -0.021703
v -0.020010 0.001000 -0.019458
v -0.019686 0.001000 -0.019359
v -0.020359 0.001000 -0.019407
v -0.018810 0.001000 -0.022320
v -0.020672 0.001000 -0.019208
v -0.022554 0.001000 -0.026531
v -0.018795 0.001000 -0.031192
v -0.022554 0.001000 -0.028531
v -0.019074 0.001000 -0.032666
v -0.021321 0.001000 -0.034917
v -0.019964 0.001000 -0.034025
v -0.022795 0.001000 -0.035198
v -0.026343 0.001000 -0.028531
v -0.026343 0.001000 -0.035198
v 0.010593 0.001000 -0.010273
v 0.010480 0.001000 -0.010380
v 0.010593 0.000333 -0.010273
v 0.010480 0.000333 -0.010380
v 0.010593 -0.000333 -0.010273
v 0.010480 -0.000333 -0.010380
v 0.010593 -0.001000 -0.010273
v 0.010480 -0.001000 -0.010380
v 0.010350 -0.001000 -0.010475
v 0.010209 -0.001000 -0.010551
v 0.010350 -0.000333 -0.010475
v 0.010350 0.000333 -0.010475
v 0.010209 -0.000333 -0.010551
v 0.010062 -0.000500 -0.010607
v 0.010062 0.000000 -0.010607
v 0.010209 0.000333 -0.010551
v 0.010062 0.000500 -0.010607
v 0.010209 0.001000 -0.010551
v 0.010350 0.001000 -0.010475
v 0.010062 0.001000 -0.010607
v 0.010062 -0.001000 -0.010607
v 0.010062 0.001000 -0.010607
v 0.010062 0.000500 -0.010607
v 0.008462 0.001000 -0.010564
v 0.008462 0.000500 -0.010564
v 0.006862 0.001000 -0.010521
v 0.003661 0.001000 -0.010436
v 0.006862 0.000500 -0.010521
v 0.003661 0.000000 -0.010436
v 0.006862 0.000000 -0.010521
v 0.006862 -0.000500 -0.010521
v 0.008462 0.000000 -0.010564
v 0.010062 0.000000 -0.010607
v 0.008462 -0.000500 -0.010564
v 0.010062 -0.000500 -0.010607
v 0.008462 -0.001000 -0.010564
v 0.006862 -0.001000 -0.010521
v 0.010062 -0.001000 -0.010607
v 0.003661 -0.001000 -0.010436
v -0.002739 -0.001000 -0.010264
v -0.002739 0.001000 -0.010264
v 0.012274 0.001000 0.019075
v 0.012625 0.001000 0.019204
v 0.012274 -0.001000 0.019075
v 0.012625 -0.001000 0.019204
v 0.012986 -0.001000 0.019304
v 0.013354 -0.001000 0.019374
v 0.012986 0.001000 0.019304
v 0.013354 0.001000 0.019374
v 0.013726 -0.000000 0.019418
v 0.013726 0.001000 0.019418
v 0.013726 -0.001000 0.019418
v 0.013726 0.001000 0.019418
v 0.013726 -0.000000 0.019418
v 0.017271 0.001000 0.019418
v 0.017271 -0.000000 0.019418
v 0.020817 0.001000 0.019418
v 0.020817 -0.000000 0.019418
v 0.024363 0.000500 0.019418
v 0.024363 0.001000 0.019418
v 0.026135 0.001000 0.019418
v 0.027908 0.001000 0.019418
v 0.026135 0.000500 0.019418
v 0.026135 -0.000000 0.019418
v 0.027908 0.000333 0.019418
v 0.027908 -0.000333 0.019418
v 0.026135 -0.000500 0.019418
v 0.027908 -0.001000 0.019418
v 0.026135 -0.001000 0.019418
v 0.024363 -0.001000 0.019418
v 0.020817 -0.001000 0.019418
v 0.024363 -0.000500 0.019418
v 0.024363 -0.000000 0.019418
v 0.017271 -0.001000 0.019418
v 0.013726 -0.001000 0.019418
v 0.012274 0.001000 0.019075
v 0.012274 -0.001000 0.019075
v 0.004919 0.001000 0.015081
v 0.004919 -0.001000 0.015081
v 0.004503 0.001000 0.014730
v 0.004919 0.001000 0.015081
v 0.004503 -0.001000 0.014730
v 0.004919 -0.001000 0.015081
v 0.027908 0.001000 0.019418
v 0.027908 0.000333 0.019418
v 0.028078 0.001000 0.019250
v 0.028078 -0.000000 0.019250
v 0.028227 0.001000 0.019063
v 0.028227 -0.000000 0.019063
v 0.028354 0.001000 0.018860
v 0.028354 -0.000000 0.018860
v 0.028456 0.001000 0.018642
v 0.028456 -0.000000 0.018642
v 0.028525 0.001000 0.018412
v 0.028525 -0.000000 0.018412
v 0.028556 0.001000 0.018175
v 0.028556 -0.000000 0.018175
v 0.028544 0.001000 0.017934
v 0.028544 -0.000000 0.017934
v 0.028491 0.001000 0.017702
v 0.028491 -0.000000 0.017702
v 0.028491 -0.001000 0.017702
v 0.028544 -0.001000 0.017934
v 0.028556 -0.001000 0.018175
v 0.028525 -0.001000 0.018412
v 0.028456 -0.001000 0.018642
v 0.028354 -0.001000 0.018860
v 0.028227 -0.001000 0.019063
v 0.028078 -0.001000 0.019250
v 0.027908 -0.001000 0.019418
v 0.027908 -0.000333 0.019418
v 0.028491 0.001000 0.017702
v 0.028491 -0.000000 0.017702
v 0.010593 0.001000 -0.010273
v 0.010593 0.000333 -0.010273
v 0.010593 -0.000333 -0.010273
v 0.010593 -0.001000 -0.010273
v 0.028491 -0.001000 0.017702
v 0.004503 0.001000 0.014730
v 0.004503 -0.001000 0.014730
v -0.010569 0.001000 -0.004232
v -0.010569 -0.001000 -0.004232
v -0.002739 0.001000 -0.010264
v -0.002739 -0.001000 -0.010264
v -0.012737 0.001000 -0.009850
v -0.012737 -0.001000 -0.009850
v -0.012737 0.001000 -0.009850
v -0.012737 -0.001000 -0.009850
v -0.019442 0.001000 -0.019130
v -0.019442 -0.001000 -0.019130
v -0.019442 0.001000 -0.019130
v -0.019729 0.001000 -0.019382
v -0.019442 -0.001000 -0.019130
v -0.019729 -0.001000 -0.019382
v -0.020104 -0.001000 -0.019460
v -0.020104 0.001000 -0.019460
v -0.020470 -0.001000 -0.019356
v -0.020470 0.001000 -0.019356
v -0.020764 -0.001000 -0.019106
v -0.020764 0.001000 -0.019106
v -0.020940 -0.001000 -0.018765
v -0.020940 0.001000 -0.018765
v -0.020991 -0.001000 -0.018382
v -0.020991 0.001000 -0.018382
v -0.020915 -0.001000 -0.018003
v -0.020915 0.001000 -0.018003
v -0.020730 -0.001000 -0.017666
v -0.020730 0.001000 -0.017666
v -0.020730 0.001000 -0.017666
v -0.020730 -0.001000 -0.017666
v -0.013034 0.001000 -0.007249
v -0.013034 -0.001000 -0.007249
v -0.013034 0.001000 -0.007249
v -0.013034 -0.001000 -0.007249
v -0.011802 0.001000 -0.005741
v -0.011802 -0.001000 -0.005741
v -0.010569 0.001000 -0.004232
v -0.010569 -0.001000 -0.004232
v 0.032017 0.001000 0.017054
v 0.034088 0.001000 0.020200
v 0.032017 0.000714 0.017054
v 0.032017 0.000429 0.017054
v 0.032017 0.000143 0.017054
v 0.032017 -0.000143 0.017054
v 0.034088 -0.001000 0.020200
v 0.032017 -0.000429 0.017054
v 0.032017 -0.001000 0.017054
v 0.032017 -0.000714 0.017054
v 0.034088 -0.001000 0.020200
v 0.034571 -0.001000 0.021592
v 0.034088 0.001000 0.020200
v 0.034571 0.001000 0.021592
v 0.034523 0.001000 0.022439
v 0.034523 -0.001000 0.022439
v 0.034223 0.001000 0.023272
v 0.034223 -0.001000 0.023272
v 0.033692 0.001000 0.023981
v 0.033692 -0.001000 0.023981
v 0.033011 0.001000 0.024487
v 0.033011 -0.001000 0.024487
v 0.031582 0.001000 0.024849
v 0.031582 -0.001000 0.024849
v 0.031582 0.001000 0.024849
v 0.031582 -0.001000 0.024849
v 0.006132 0.001000 0.024849
v 0.006132 -0.001000 0.024849
v 0.006132 -0.001000 0.024849
v 0.005270 -0.001000 0.024653
v 0.006132 0.001000 0.024849
v 0.005270 0.001000 0.024653
v 0.004577 0.001000 0.024106
v 0.004577 -0.001000 0.024106
v 0.004577 0.001000 0.024106
v 0.004577 -0.001000 0.024106
v -0.026120 0.001000 -0.013871
v -0.026120 -0.001000 -0.013871
v -0.026120 -0.001000 -0.013871
v -0.026286 -0.001000 -0.014167
v -0.026120 0.001000 -0.013871
v -0.026286 0.001000 -0.014167
v -0.026343 0.001000 -0.014500
v -0.026343 -0.001000 -0.014500
v -0.022795 -0.001000 -0.035198
v -0.026343 -0.001000 -0.035198
v -0.022795 0.001000 -0.035198
v -0.026343 0.001000 -0.035198
v -0.026343 -0.001000 -0.035198
v -0.026343 -0.001000 -0.028531
v -0.026343 0.001000 -0.035198
v -0.026343 0.001000 -0.028531
v -0.022795 -0.001000 -0.035198
v -0.022066 -0.001000 -0.035132
v -0.022795 0.001000 -0.035198
v -0.022066 0.001000 -0.035132
v -0.021321 0.001000 -0.034917
v -0.021321 -0.001000 -0.034917
v -0.020604 0.001000 -0.034545
v -0.020604 -0.001000 -0.034545
v -0.019964 0.001000 -0.034025
v -0.019964 -0.001000 -0.034025
v -0.019445 0.001000 -0.033384
v -0.019445 -0.001000 -0.033384
v -0.019074 0.001000 -0.032666
v -0.019074 -0.001000 -0.032666
v -0.018861 0.001000 -0.031921
v -0.018861 -0.001000 -0.031921
v -0.018795 0.001000 -0.031192
v -0.018795 -0.001000 -0.031192
v -0.026343 0.001000 -0.026531
v -0.022554 0.001000 -0.026531
v -0.026343 -0.001000 -0.026531
v -0.022558 -0.001000 -0.026531
v -0.026343 -0.001000 -0.028531
v -0.026343 0.001000 -0.028531
v -0.022558 -0.001000 -0.028531
v -0.022554 0.001000 -0.028531
v -0.022558 -0.001000 -0.026531
v -0.022558 -0.001000 -0.028531
v -0.022554 0.001000 -0.026531
v -0.022554 0.001000 -0.028531
v 0.013019 0.001000 -0.011619
v 0.031975 0.000600 0.016988
v 0.031975 0.001000 0.016988
v 0.031975 0.000200 0.016988
v 0.013019 -0.001000 -0.011619
v 0.031975 -0.000200 0.016988
v 0.031975 -0.001000 0.016988
v 0.031975 -0.000600 0.016988
v 0.011166 -0.001000 -0.012868
v -0.011428 -0.001000 -0.012868
v 0.011166 0.001000 -0.012868
v -0.011428 0.001000 -0.012868
v -0.013049 0.001000 -0.013696
v -0.012334 0.001000 -0.013085
v -0.013049 -0.001000 -0.013696
v -0.012334 -0.001000 -0.013085
v -0.011428 -0.001000 -0.012868
v -0.011428 0.001000 -0.012868
v 0.011166 -0.001000 -0.012868
v 0.011747 -0.001000 -0.012781
v 0.011166 0.001000 -0.012868
v 0.011747 0.001000 -0.012781
v 0.012278 0.001000 -0.012529
v 0.012278 -0.001000 -0.012529
v 0.012720 0.001000 -0.012126
v 0.012720 -0.001000 -0.012126
v 0.013019 0.001000 -0.011619
v 0.013019 -0.001000 -0.011619
v -0.018810 0.001000 -0.022320
v -0.018713 0.001000 -0.021702
v -0.018810 -0.001000 -0.022320
v -0.018713 -0.001000 -0.021702
v -0.018431 -0.001000 -0.021145
v -0.018431 0.001000 -0.021145
v -0.013049 -0.001000 -0.013696
v -0.018431 -0.001000 -0.021145
v -0.013049 0.001000 -0.013696
v -0.018431 0.001000 -0.021145
v -0.018810 -0.001000 -0.022320
v -0.018795 -0.001000 -0.031192
v -0.018810 0.001000 -0.022320
v -0.018795 0.001000 -0.031192
v 0.031975 -0.001000 0.016988
v 0.032017 -0.001000 0.017054
v 0.031975 -0.000600 0.016988
v 0.032017 -0.000714 0.017054
v 0.032017 -0.000429 0.017054
v 0.031975 -0.000200 0.016988
v 0.032017 -0.000143 0.017054
v 0.031975 0.000200 0.016988
v 0.032017 0.000143 0.017054
v 0.031975 0.000600 0.016988
v 0.032017 0.000429 0.017054
v 0.032017 0.000714 0.017054
v 0.031975 0.001000 0.016988
v 0.032017 0.001000 0.017054
v -0.026343 -0.001000 -0.014500
v -0.026343 -0.001000 -0.026531
v -0.026343 0.001000 -0.014500
v -0.026343 0.001000 -0.026531
v -0.026343 -0.001000 -0.014500
v -0.026343 -0.001000 -0.026531
v -0.020895 -0.001000 -0.018886
v -0.020934 -0.001000 -0.018057
v -0.020990 -0.001000 -0.018484
v -0.026286 -0.001000 -0.014167
v -0.026120 -0.001000 -0.013871
v -0.020730 -0.001000 -0.017666
v -0.013034 -0.001000 -0.007249
v -0.010569 -0.001000 -0.004232
v 0.004481 -0.001000 0.014700
v 0.004577 -0.001000 0.024106
v 0.006132 -0.001000 0.024849
v 0.005270 -0.001000 0.024653
v 0.004503 -0.001000 0.014730
v 0.012207 -0.001000 0.019038
v 0.004919 -0.001000 0.015081
v 0.012274 -0.001000 0.019075
v 0.012578 -0.001000 0.019189
v 0.012861 -0.001000 0.019273
v 0.013152 -0.001000 0.019339
v 0.013726 -0.001000 0.019418
v 0.031582 -0.001000 0.024849
v 0.027908 -0.001000 0.019418
v 0.028093 -0.001000 0.019233
v 0.034088 -0.001000 0.020200
v 0.028268 -0.001000 0.019004
v 0.028407 -0.001000 0.018756
v 0.028499 -0.001000 0.018517
v 0.032017 -0.001000 0.017054
v 0.031975 -0.001000 0.016988
v 0.028551 -0.001000 0.017986
v 0.028555 -0.001000 0.018207
v 0.028523 -0.001000 0.017821
v 0.028491 -0.001000 0.017702
v 0.024574 -0.001000 0.011579
v 0.013019 -0.001000 -0.011619
v 0.013153 -0.001000 -0.006271
v 0.010856 -0.001000 -0.009862
v 0.010593 -0.001000 -0.010273
v 0.012580 -0.001000 -0.012282
v 0.010524 -0.001000 -0.010341
v 0.011902 -0.001000 -0.012727
v 0.010376 -0.001000 -0.010458
v 0.010218 -0.001000 -0.010547
v 0.011166 -0.001000 -0.012868
v -0.011428 -0.001000 -0.012868
v -0.002739 -0.001000 -0.010264
v 0.010062 -0.001000 -0.010607
v -0.012737 -0.001000 -0.009850
v -0.019442 -0.001000 -0.019130
v -0.013049 -0.001000 -0.013696
v -0.012338 -0.001000 -0.013087
v -0.018431 -0.001000 -0.021145
v -0.018714 -0.001000 -0.021703
v -0.020010 -0.001000 -0.019458
v -0.019686 -0.001000 -0.019359
v -0.020359 -0.001000 -0.019407
v -0.018810 -0.001000 -0.022320
v -0.020672 -0.001000 -0.019208
v -0.022558 -0.001000 -0.026531
v -0.018795 -0.001000 -0.031192
v -0.022558 -0.001000 -0.028531
v -0.019074 -0.001000 -0.032666
v -0.019964 -0.001000 -0.034025
v -0.021321 -0.001000 -0.034917
v -0.022795 -0.001000 -0.035198
v -0.026343 -0.001000 -0.028531
v -0.026343 -0.001000 -0.035198
v 0.034571 -0.001000 0.021592
v 0.033692 -0.001000 0.023981
v 0.033011 -0.001000 0.024487
v 0.034223 -0.001000 0.023272
v 0.034523 -0.001000 0.022439
vn 0.000000 1.000000 0.000000
vn 0.000000 1.000000 0.000000
vn 0.000000 1.000000 0.000000
vn 0.000000 1.000000 0.000000
vn 0.000000 1.000000 0.000000
vn 0.000000 1.000000 0.000000
vn 0.000000 1.000000 0.000000
vn 0.000000 1.000000 0.000000
vn 0.000000 1.000000 0.000000
vn 0.000000 1.000000 0.000000
vn 0.000000 1.000000 0.000000
vn 0.000000 1.000000 0.000000
vn 0.000000 1.000000 0.000000
vn 0.000000 1.000000 0.000000
vn 0.000000 1.000000 0.000000
vn 0.000000 1.000000 0.000000
vn 0.000000 1.000000 0.000000
vn 0.000000 1.000000 0.000000
vn 0.000000 1.000000 0.000000
vn 0.000000 1.000000 0.000000
vn 0.000000 1.000000 0.000000
vn 0.000000 1.000000 0.000000
vn 0.000000 1.000000 0.000000
vn 0.000000 1.000000 0.000000
vn 0.000000 1.000000 0.000000
vn 0.000000 1.000000 0.000000
vn 0.000000 1.000000 0.000000
vn 0.000000 1.000000 0.000000
vn 0.000000 1.000000 0.000000
vn 0.000000 1.000000 0.000000
vn 0.000000 1.000000 0.000000
vn 0.000000 1.000000 0.000000
vn 0.000000 1.000000 0.000000
vn 0.000000 1.000000 0.000000
vn 0.000000 1.000000 0.000000
vn 0.000000 1.000000 0.000000
vn 0.000000 1.000000 0.000000
vn 0.000000 1.000000 0.000000
vn 0.000000 1.000000 0.000000
vn 0.000000 1.000000 0.000000
vn 0.000000 1.000000 0.000000
vn 0.000000 1.000000 0.000000
vn 0.000000 1.000000 0.000000
vn 0.000000 1.000000 0.000000
vn 0.000000 1.000000 0.000000
vn 0.000000 1.000000 0.000000
vn 0.000000 1.000000 0.000000
vn 0.000000 1.000000 0.000000
vn 0.000000 1.000000 0.000000
vn 0.000000 1.000000 0.000000
vn 0.000000 1.000000 0.000000
vn 0.000000 1.000000 0.000000
vn 0.000000 1.000000 0.000000
vn 0.000000 1.000000 0.000000
vn 0.000000 1.000000 0.000000
vn 0.000000 1.000000 0.000000
vn 0.000000 1.000000 0.000000
vn 0.000000 1.000000 0.000000
vn 0.000000 1.000000 0.000000
vn 0.000000 1.000000 0.000000
vn 0.000000 1.000000 0.000000
vn 0.000000 1.000000 0.000000
vn 0.000000 1.000000 0.000000
vn 0.000000 1.000000 0.000000
vn 0.000000 1.000000 0.000000
vn 0.000000 1.000000 0.000000
vn 0.000000 1.000000 0.000000
vn 0.000000 1.000000 0.000000
vn 0.000000 1.000000 0.000000
vn 0.000000 1.000000 0.000000
vn 0.000000 1.000000 0.000000
vn 0.000000 1.000000 0.000000
vn 0.000000 1.000000 0.000000
vn 0.000000 1.000000 0.000000
vn -0.734121 -0.000000 0.679019
vn -0.640696 -0.000000 0.767795
vn -0.734217 -0.000000 0.678915
vn -0.640696 -0.000000 0.767795
vn -0.734312 -0.000000 0.678812
vn -0.640696 -0.000000 0.767795
vn -0.734312 -0.000000 0.678812
vn -0.640804 -0.000000 0.767705
vn -0.532397 -0.000000 0.846495
vn -0.417288 -0.000000 0.908774
vn -0.532585 -0.000000 0.846376
vn -0.532702 -0.000000 0.846303
vn -0.416799 -0.000000 0.908999
vn -0.291098 -0.000000 0.956693
vn -0.291400 -0.000000 0.956601
vn -0.417123 -0.000000 0.908850
vn -0.291492 -0.000000 0.956573
vn -0.416717 -0.000000 0.909036
vn -0.533007 -0.000000 0.846111
vn -0.291611 -0.000000 0.956537
vn -0.291006 -0.000000 0.956721
vn 0.026801 -0.000000 0.999641
vn 0.026801 -0.000000 0.999641
vn 0.026801 -0.000000 0.999641
vn 0.026801 -0.000000 0.999641
vn 0.026801 -0.000000 0.999641
vn 0.026801 -0.000000 0.999641
vn 0.026801 -0.000000 0.999641
vn 0.026801 -0.000000 0.999641
vn 0.026801 -0.000000 0.999641
vn 0.026801 -0.000000 0.999641
vn 0.026801 -0.000000 0.999641
vn 0.026801 -0.000000 0.999641
vn 0.026801 -0.000000 0.999641
vn 0.026801 -0.000000 0.999641
vn 0.026801 -0.000000 0.999641
vn 0.026801 -0.000000 0.999641
vn 0.026801 -0.000000 0.999641
vn 0.026801 -0.000000 0.999641
vn 0.026801 -0.000000 0.999641
vn 0.026801 -0.000000 0.999641
vn 0.390211 0.000000 -0.920726
vn 0.305287 0.000000 -0.952260
vn 0.390211 0.000000 -0.920726
vn 0.305287 0.000000 -0.952260
vn 0.224991 0.000000 -0.974361
vn 0.153297 0.000000 -0.988180
vn 0.224991 0.000000 -0.974361
vn 0.153297 0.000000 -0.988180
vn 0.081299 0.000000 -0.996690
vn 0.081398 0.000000 -0.996682
vn 0.081299 0.000000 -0.996690
vn 0.000000 0.000000 -1.000000
vn 0.000000 0.000000 -1.000000
vn 0.000000 0.000000 -1.000000
vn 0.000000 0.000000 -1.000000
vn 0.000000 0.000000 -1.000000
vn 0.000000 0.000000 -1.000000
vn 0.000000 0.000000 -1.000000
vn 0.000000 0.000000 -1.000000
vn 0.000000 0.000000 -1.000000
vn 0.000000 0.000000 -1.000000
vn 0.000000 0.000000 -1.000000
vn 0.000000 0.000000 -1.000000
vn 0.000000 0.000000 -1.000000
vn 0.000000 0.000000 -1.000000
vn 0.000000 0.000000 -1.000000
vn 0.000000 0.000000 -1.000000
vn 0.000000 0.000000 -1.000000
vn 0.000000 0.000000 -1.000000
vn 0.000000 0.000000 -1.000000
vn 0.000000 0.000000 -1.000000
vn 0.000000 0.000000 -1.000000
vn 0.000000 0.000000 -1.000000
vn 0.000000 0.000000 -1.000000
vn 0.477198 0.000000 -0.878796
vn 0.477198 0.000000 -0.878796
vn 0.477198 0.000000 -0.878796
vn 0.477198 0.000000 -0.878796
vn 0.786273 0.000000 -0.617879
vn 0.477275 0.000000 -0.878754
vn 0.786273 0.000000 -0.617879
vn 0.477275 0.000000 -0.878754
vn -0.661205 0.000000 -0.750205
vn -0.661205 0.000000 -0.750205
vn -0.744511 0.000000 -0.667610
vn -0.744367 0.000000 -0.667771
vn -0.815190 0.000000 -0.579193
vn -0.815190 0.000000 -0.579193
vn -0.877876 0.000000 -0.478887
vn -0.877854 0.000000 -0.478929
vn -0.932912 0.000000 -0.360105
vn -0.932912 0.000000 -0.360105
vn -0.976811 0.000000 -0.214102
vn -0.976811 0.000000 -0.214102
vn -0.999196 0.000000 -0.040100
vn -0.999208 0.000000 -0.039800
vn -0.989995 -0.000000 0.141099
vn -0.989995 -0.000000 0.141099
vn -0.954437 -0.000000 0.298412
vn -0.954437 -0.000000 0.298412
vn -0.954437 -0.000000 0.298412
vn -0.989995 -0.000000 0.141099
vn -0.999196 0.000000 -0.040100
vn -0.976811 0.000000 -0.214102
vn -0.932912 0.000000 -0.360105
vn -0.877876 0.000000 -0.478887
vn -0.815190 0.000000 -0.579193
vn -0.744511 0.000000 -0.667610
vn -0.661205 0.000000 -0.750205
vn -0.661205 0.000000 -0.750205
vn -0.842349 -0.000000 0.538932
vn -0.842349 -0.000000 0.538932
vn -0.842349 -0.000000 0.538932
vn -0.842349 -0.000000 0.538932
vn -0.842349 -0.000000 0.538932
vn -0.842349 -0.000000 0.538932
vn -0.842349 -0.000000 0.538932
vn 0.782836 0.000000 -0.622228
vn 0.782836 0.000000 -0.622228
vn 0.782836 0.000000 -0.622228
vn 0.782836 0.000000 -0.622228
vn 0.041402 -0.000000 0.999143
vn 0.041402 -0.000000 0.999143
vn 0.041402 -0.000000 0.999143
vn 0.041402 -0.000000 0.999143
vn -0.810518 -0.000000 0.585713
vn -0.810518 -0.000000 0.585713
vn -0.810518 -0.000000 0.585713
vn -0.810518 -0.000000 0.585713
vn -0.830029 -0.000000 0.557720
vn -0.442086 -0.000000 0.896972
vn -0.830029 -0.000000 0.557720
vn -0.442086 -0.000000 0.896972
vn 0.041302 -0.000000 0.999147
vn 0.041302 -0.000000 0.999147
vn 0.480106 -0.000000 0.877211
vn 0.480106 -0.000000 0.877211
vn 0.787199 -0.000000 0.616699
vn 0.787199 -0.000000 0.616699
vn 0.956204 -0.000000 0.292701
vn 0.956204 -0.000000 0.292701
vn 0.999391 0.000000 -0.034900
vn 0.999391 0.000000 -0.034900
vn 0.938416 0.000000 -0.345506
vn 0.938416 0.000000 -0.345506
vn 0.794919 0.000000 -0.606715
vn 0.794919 0.000000 -0.606715
vn 0.804311 0.000000 -0.594208
vn 0.804311 0.000000 -0.594208
vn 0.804311 0.000000 -0.594208
vn 0.804311 0.000000 -0.594208
vn 0.774447 0.000000 -0.632639
vn 0.774447 0.000000 -0.632639
vn 0.774447 0.000000 -0.632639
vn 0.774447 0.000000 -0.632639
vn 0.774447 0.000000 -0.632639
vn 0.774447 0.000000 -0.632639
vn 0.835297 0.000000 -0.549798
vn 0.835297 0.000000 -0.549798
vn 0.835297 0.000000 -0.549798
vn 0.835297 0.000000 -0.549798
vn 0.835297 0.000000 -0.549798
vn 0.835297 0.000000 -0.549798
vn 0.835297 0.000000 -0.549798
vn 0.835297 0.000000 -0.549798
vn 0.835297 0.000000 -0.549798
vn 0.835297 0.000000 -0.549798
vn 0.835343 0.000000 -0.549729
vn 0.996312 0.000000 -0.085801
vn 0.835343 0.000000 -0.549729
vn 0.996312 0.000000 -0.085801
vn 0.980465 -0.000000 0.196693
vn 0.980465 -0.000000 0.196693
vn 0.880307 -0.000000 0.474404
vn 0.880307 -0.000000 0.474404
vn 0.703397 -0.000000 0.710797
vn 0.703397 -0.000000 0.710797
vn 0.476096 -0.000000 0.879393
vn 0.476096 -0.000000 0.879393
vn 0.000100 -0.000000 1.000000
vn 0.000100 -0.000000 1.000000
vn 0.000000 -0.000000 1.000000
vn 0.000000 -0.000000 1.000000
vn 0.000000 -0.000000 1.000000
vn 0.000000 -0.000000 1.000000
vn -0.000100 -0.000000 1.000000
vn -0.430900 -0.000000 0.902400
vn -0.000100 -0.000000 1.000000
vn -0.430900 -0.000000 0.902400
vn -0.777668 -0.000000 0.628675
vn -0.777668 -0.000000 0.628675
vn -0.777717 -0.000000 0.628614
vn -0.777717 -0.000000 0.628614
vn -0.777717 -0.000000 0.628614
vn -0.777717 -0.000000 0.628614
vn -0.777757 -0.000000 0.628565
vn -0.942787 -0.000000 0.333395
vn -0.777757 -0.000000 0.628565
vn -0.942787 -0.000000 0.333395
vn -1.000000 -0.000000 0.000100
vn -1.000000 -0.000000 0.000100
vn 0.000000 0.000000 -1.000000
vn 0.000000 0.000000 -1.000000
vn 0.000000 0.000000 -1.000000
vn 0.000000 0.000000 -1.000000
vn -1.000000 0.000000 0.000000
vn -1.000000 0.000000 0.000000
vn -1.000000 0.000000 0.000000
vn -1.000000 0.000000 0.000000
vn 0.000000 0.000000 -1.000000
vn 0.182096 0.000000 -0.983281
vn 0.000000 0.000000 -1.000000
vn 0.182096 0.000000 -0.983281
vn 0.368389 0.000000 -0.929672
vn 0.368389 0.000000 -0.929672
vn 0.547804 0.000000 -0.836607
vn 0.547804 0.000000 -0.836607
vn 0.707706 0.000000 -0.706507
vn 0.707706 0.000000 -0.706507
vn 0.837471 0.000000 -0.546481
vn 0.837471 0.000000 -0.546481
vn 0.930218 0.000000 -0.367007
vn 0.930218 0.000000 -0.367007
vn 0.983576 0.000000 -0.180496
vn 0.983576 0.000000 -0.180496
vn 0.999999 -0.000000 0.001700
vn 0.999999 -0.000000 0.001700
vn 0.000000 0.000000 -1.000000
vn 0.000000 0.000000 -1.000000
vn 0.000000 0.000000 -1.000000
vn 0.000000 0.000000 -1.000000
vn 0.000000 -0.000000 1.000000
vn 0.000000 -0.000000 1.000000
vn 0.000000 -0.000000 1.000000
vn 0.000000 -0.000000 1.000000
vn -0.999999 0.001700 0.000000
vn -0.999999 0.001700 0.000000
vn -0.999999 0.001700 0.000000
vn -0.999999 0.001700 0.000000
vn 0.833585 0.000000 -0.552390
vn 0.833585 0.000000 -0.552390
vn 0.833585 0.000000 -0.552390
vn 0.833585 0.000000 -0.552390
vn 0.833585 0.000000 -0.552390
vn 0.833585 0.000000 -0.552390
vn 0.833585 0.000000 -0.552390
vn 0.833585 0.000000 -0.552390
vn 0.000000 0.000000 -1.000000
vn 0.000000 0.000000 -1.000000
vn 0.000000 0.000000 -1.000000
vn 0.000000 0.000000 -1.000000
vn 0.810518 0.000000 -0.585713
vn 0.453283 0.000000 -0.891367
vn 0.810518 0.000000 -0.585713
vn 0.453283 0.000000 -0.891367
vn 0.000100 0.000000 -1.000000
vn 0.000100 0.000000 -1.000000
vn 0.000100 0.000000 -1.000000
vn 0.290612 0.000000 -0.956841
vn 0.000100 0.000000 -1.000000
vn 0.290612 0.000000 -0.956841
vn 0.556407 0.000000 -0.830910
vn 0.556407 0.000000 -0.830910
vn 0.777177 0.000000 -0.629282
vn 0.777177 0.000000 -0.629282
vn 0.926750 0.000000 -0.375680
vn 0.926750 0.000000 -0.375680
vn 0.999999 -0.000000 0.001600
vn 0.951514 0.000000 -0.307605
vn 0.999999 -0.000000 0.001600
vn 0.951514 0.000000 -0.307605
vn 0.810600 0.000000 -0.585600
vn 0.810600 0.000000 -0.585600
vn 0.810553 0.000000 -0.585666
vn 0.810553 0.000000 -0.585666
vn 0.810553 0.000000 -0.585666
vn 0.810553 0.000000 -0.585666
vn 0.999999 -0.000000 0.001700
vn 0.999999 -0.000000 0.001700
vn 0.999999 -0.000000 0.001700
vn 0.999999 -0.000000 0.001700
vn 0.833585 0.000000 -0.552390
vn 0.854594 0.000000 -0.519296
vn 0.833632 0.000000 -0.552321
vn 0.854594 0.000000 -0.519296
vn 0.854897 0.000000 -0.518798
vn 0.833831 0.000000 -0.552020
vn 0.854710 0.000000 -0.519106
vn 0.833585 0.000000 -0.552390
vn 0.854594 0.000000 -0.519296
vn 0.833585 0.000000 -0.552390
vn 0.854594 0.000000 -0.519296
vn 0.854594 0.000000 -0.519296
vn 0.833585 0.000000 -0.552390
vn 0.854594 0.000000 -0.519296
vn -1.000000 0.000000 0.000000
vn -1.000000 0.000000 0.000000
vn -1.000000 0.000000 0.000000
vn -1.000000 0.000000 0.000000
vn 0.000000 -1.000000 -0.000000
vn 0.000000 -1.000000 -0.000000
vn 0.000000 -1.000000 -0.000000
vn 0.000000 -1.000000 -0.000000
vn 0.000000 -1.000000 -0.000000
vn 0.000000 -1.000000 -0.000000
vn 0.000000 -1.000000 -0.000000
vn 0.000000 -1.000000 -0.000000
vn 0.000000 -1.000000 -0.000000
vn 0.000000 -1.000000 -0.000000
vn 0.000000 -1.000000 -0.000000
vn 0.000000 -1.000000 -0.000000
vn 0.000000 -1.000000 -0.000000
vn 0.000000 -1.000000 -0.000000
vn 0.000000 -1.000000 -0.000000
vn 0.000000 -1.000000 -0.000000
vn 0.000000 -1.000000 -0.000000
vn 0.000000 -1.000000 -0.000000
vn 0.000000 -1.000000 -0.000000
vn 0.000000 -1.000000 -0.000000
vn 0.000000 -1.000000 -0.000000
vn 0.000000 -1.000000 -0.000000
vn 0.000000 -1.000000 -0.000000
vn 0.000000 -1.000000 -0.000000
vn 0.000000 -1.000000 -0.000000
vn 0.000000 -1.000000 -0.000000
vn 0.000000 -1.000000 -0.000000
vn 0.000000 -1.000000 -0.000000
vn 0.000000 -1.000000 -0.000000
vn 0.000000 -1.000000 -0.000000
vn 0.000000 -1.000000 -0.000000
vn 0.000000 -1.000000 -0.000000
vn 0.000000 -1.000000 -0.000000
vn 0.000000 -1.000000 -0.000000
vn 0.000000 -1.000000 -0.000000
vn 0.000000 -1.000000 -0.000000
vn 0.000000 -1.000000 -0.000000
vn 0.000000 -1.000000 -0.000000
vn 0.000000 -1.000000 -0.000000
vn 0.000000 -1.000000 -0.000000
vn 0.000000 -1.000000 -0.000000
vn 0.000000 -1.000000 -0.000000
vn 0.000000 -1.000000 -0.000000
vn 0.000000 -1.000000 -0.000000
vn 0.000000 -1.000000 -0.000000
vn 0.000000 -1.000000 -0.000000
vn 0.000000 -1.000000 -0.000000
vn 0.000000 -1.000000 -0.000000
vn 0.000000 -1.000000 -0.000000
vn 0.000000 -1.000000 -0.000000
vn 0.000000 -1.000000 -0.000000
vn 0.000000 -1.000000 -0.000000
vn 0.000000 -1.000000 -0.000000
vn 0.000000 -1.000000 -0.000000
vn 0.000000 -1.000000 -0.000000
vn 0.000000 -1.000000 -0.000000
vn 0.000000 -1.000000 -0.000000
vn 0.000000 -1.000000 -0.000000
vn 0.000000 -1.000000 -0.000000
vn 0.000000 -1.000000 -0.000000
vn 0.000000 -1.000000 -0.000000
vn 0.000000 -1.000000 -0.000000
vn 0.000000 -1.000000 -0.000000
vn 0.000000 -1.000000 -0.000000
vn 0.000000 -1.000000 -0.000000
vn 0.000000 -1.000000 -0.000000
vn 0.000000 -1.000000 -0.000000
vn 0.000000 -1.000000 -0.000000
vn 0.000000 -1.000000 -0.000000
vn 0.000000 -1.000000 -0.000000
vn 0.000000 -1.000000 -0.000000
vn 0.000000 -1.000000 -0.000000
vn 0.000000 -1.000000 -0.000000
vn 0.000000 -1.000000 -0.000000
f 2//2 1//1 3//3
f 3//3 1//1 4//4
f 1//1 5//5 4//4
f 8//8 5//5 1//1
f 6//6 7//7 1//1
f 1//1 7//7 8//8
f 8//8 7//7 9//9
f 9//9 7//7 10//10
f 7//7 11//11 10//10
f 12//12 10//10 11//11
f 13//13 12//12 11//11
f 13//13 11//11 14//14
f 11//11 15//15 14//14
f 15//15 11//11 17//17
f 17//17 16//16 15//15
f 17//17 18//18 21//21
f 17//17 19//19 16//16
f 17//17 22//22 19//19
f 17//17 20//20 22//22
f 17//17 21//21 20//20
f 23//23 17//17 11//11
f 21//21 18//18 24//24
f 18//18 25//25 24//24
f 26//26 25//25 27//27
f 27//27 25//25 18//18
f 27//27 28//28 29//29
f 29//29 26//26 27//27
f 32//32 30//30 27//27
f 30//30 31//31 27//27
f 27//27 33//33 32//32
f 27//27 18//18 33//33
f 31//31 30//30 34//34
f 28//28 35//35 29//29
f 36//36 35//35 28//28
f 28//28 37//37 36//36
f 39//39 37//37 38//38
f 37//37 28//28 38//38
f 38//38 40//40 39//39
f 41//41 40//40 38//38
f 42//42 41//41 43//43
f 41//41 38//38 43//43
f 44//44 45//45 43//43
f 46//46 43//43 45//45
f 42//42 43//43 46//46
f 45//45 44//44 47//47
f 48//48 49//49 47//47
f 44//44 48//48 47//47
f 50//50 49//49 48//48
f 49//49 50//50 51//51
f 52//52 51//51 50//50
f 52//52 50//50 53//53
f 54//54 55//55 53//53
f 50//50 54//54 53//53
f 55//55 54//54 58//58
f 56//56 55//55 57//57
f 58//58 57//57 55//55
f 56//56 57//57 59//59
f 60//60 61//61 59//59
f 62//62 56//56 59//59
f 59//59 61//61 62//62
f 63//63 61//61 60//60
f 64//64 65//65 63//63
f 60//60 64//64 63//63
f 65//65 2//2 3//3
f 66//66 2//2 65//65
f 64//64 66//66 65//65
f 64//64 67//67 66//66
f 68//68 66//66 67//67
f 67//67 69//69 68//68
f 71//71 68//68 69//69
f 72//72 68//68 70//70
f 68//68 71//71 70//70
f 68//68 72//72 73//73
f 73//73 72//72 74//74
f 76//76 78//78 77//77
f 76//76 77//77 75//75
f 78//78 80//80 79//79
f 78//78 79//79 77//77
f 80//80 82//82 81//81
f 80//80 81//81 79//79
f 83//83 82//82 80//80
f 83//83 80//80 85//85
f 84//84 83//83 85//85
f 84//84 85//85 87//87
f 87//87 85//85 86//86
f 87//87 86//86 90//90
f 85//85 80//80 78//78
f 85//85 78//78 86//86
f 95//95 84//84 87//87
f 95//95 87//87 88//88
f 88//88 87//87 89//89
f 87//87 90//90 89//89
f 90//90 86//86 93//93
f 90//90 93//93 92//92
f 89//89 90//90 91//91
f 91//91 90//90 92//92
f 91//91 92//92 94//94
f 86//86 78//78 76//76
f 86//86 76//76 93//93
f 96//96 98//98 99//99
f 96//96 99//99 97//97
f 102//102 99//99 98//98
f 102//102 98//98 100//100
f 101//101 102//102 100//100
f 103//103 102//102 101//101
f 102//102 103//103 104//104
f 104//104 106//106 99//99
f 104//104 99//99 102//102
f 103//103 105//105 104//104
f 105//105 108//108 106//106
f 105//105 106//106 104//104
f 108//108 109//109 107//107
f 108//108 107//107 106//106
f 97//97 99//99 106//106
f 97//97 106//106 107//107
f 110//110 112//112 109//109
f 110//110 109//109 108//108
f 111//111 110//110 108//108
f 111//111 108//108 105//105
f 105//105 113//113 111//111
f 113//113 105//105 103//103
f 103//103 114//114 113//113
f 115//115 114//114 103//103
f 103//103 101//101 115//115
f 117//117 119//119 118//118
f 117//117 118//118 116//116
f 120//120 119//119 117//117
f 120//120 117//117 122//122
f 121//121 120//120 122//122
f 121//121 122//122 123//123
f 121//121 123//123 124//124
f 124//124 123//123 125//125
f 126//126 121//121 124//124
f 130//130 128//128 127//127
f 130//130 127//127 129//129
f 132//132 130//130 129//129
f 132//132 129//129 131//131
f 131//131 133//133 132//132
f 133//133 131//131 134//134
f 137//137 133//133 134//134
f 137//137 134//134 135//135
f 135//135 136//136 139//139
f 135//135 139//139 137//137
f 137//137 139//139 138//138
f 138//138 147//147 133//133
f 138//138 133//133 137//137
f 139//139 140//140 138//138
f 138//138 140//140 141//141
f 142//142 143//143 141//141
f 142//142 141//141 140//140
f 143//143 144//144 146//146
f 143//143 146//146 141//141
f 145//145 146//146 144//144
f 132//132 146//146 145//145
f 146//146 132//132 147//147
f 141//141 146//146 147//147
f 141//141 147//147 138//138
f 132//132 133//133 147//147
f 145//145 148//148 130//130
f 145//145 130//130 132//132
f 148//148 149//149 128//128
f 148//148 128//128 130//130
f 151//151 153//153 152//152
f 151//151 152//152 150//150
f 155//155 157//157 156//156
f 155//155 156//156 154//154
f 158//158 160//160 161//161
f 158//158 161//161 159//159
f 163//163 161//161 160//160
f 163//163 160//160 162//162
f 165//165 163//163 162//162
f 165//165 162//162 164//164
f 167//167 165//165 164//164
f 167//167 164//164 166//166
f 169//169 167//167 166//166
f 169//169 166//166 168//168
f 171//171 169//169 168//168
f 171//171 168//168 170//170
f 173//173 171//171 170//170
f 173//173 170//170 172//172
f 174//174 175//175 173//173
f 174//174 173//173 172//172
f 175//175 176//176 177//177
f 175//175 177//177 173//173
f 177//177 178//178 171//171
f 177//177 171//171 173//173
f 178//178 179//179 169//169
f 178//178 169//169 171//171
f 179//179 180//180 167//167
f 179//179 167//167 169//169
f 180//180 181//181 165//165
f 180//180 165//165 167//167
f 181//181 182//182 163//163
f 181//181 163//163 165//165
f 182//182 183//183 161//161
f 182//182 161//161 163//163
f 185//185 161//161 183//183
f 185//185 183//183 184//184
f 161//161 185//185 159//159
f 187//187 186//186 188//188
f 187//187 188//188 189//189
f 187//187 189//189 190//190
f 192//192 187//187 190//190
f 192//192 190//190 191//191
f 194//194 196//196 195//195
f 194//194 195//195 193//193
f 198//198 197//197 199//199
f 198//198 199//199 200//200
f 202//202 201//201 203//203
f 202//202 203//203 204//204
f 206//206 208//208 207//207
f 206//206 207//207 205//205
f 209//209 208//208 206//206
f 209//209 206//206 210//210
f 211//211 209//209 210//210
f 211//211 210//210 212//212
f 213//213 211//211 212//212
f 213//213 212//212 214//214
f 215//215 213//213 214//214
f 215//215 214//214 216//216
f 217//217 215//215 216//216
f 217//217 216//216 218//218
f 219//219 217//217 218//218
f 219//219 218//218 220//220
f 222//222 221//221 219//219
f 222//222 219//219 220//220
f 224//224 223//223 225//225
f 224//224 225//225 226//226
f 228//228 227//227 229//229
f 228//228 229//229 230//230
f 231//231 232//232 230//230
f 231//231 230//230 229//229
f 234//234 235//235 233//233
f 236//236 235//235 234//234
f 234//234 237//237 236//236
f 239//239 238//238 237//237
f 234//234 239//239 237//237
f 240//240 238//238 239//239
f 240//240 239//239 242//242
f 241//241 242//242 239//239
f 244//244 243//243 245//245
f 244//244 245//245 246//246
f 248//248 244//244 246//246
f 248//248 246//246 247//247
f 250//250 248//248 247//247
f 250//250 247//247 249//249
f 252//252 250//250 249//249
f 252//252 249//249 251//251
f 254//254 252//252 251//251
f 254//254 251//251 253//253
f 256//256 254//254 253//253
f 256//256 253//253 255//255
f 258//258 257//257 259//259
f 258//258 259//259 260//260
f 262//262 261//261 263//263
f 262//262 263//263 264//264
f 266//266 262//262 264//264
f 266//266 264//264 265//265
f 267//267 269//269 270//270
f 267//267 270//270 268//268
f 272//272 271//271 273//273
f 272//272 273//273 274//274
f 276//276 272//272 274//274
f 276//276 274//274 275//275
f 278//278 280//280 279//279
f 278//278 279//279 277//277
f 282//282 284//284 283//283
f 282//282 283//283 281//281
f 286//286 285//285 287//287
f 286//286 287//287 288//288
f 290//290 286//286 288//288
f 290//290 288//288 289//289
f 292//292 290//290 289//289
f 292//292 289//289 291//291
f 294//294 292//292 291//291
f 294//294 291//291 293//293
f 296//296 294//294 293//293
f 296//296 293//293 295//295
f 298//298 296//296 295//295
f 298//298 295//295 297//297
f 300//300 298//298 297//297
f 300//300 297//297 299//299
f 302//302 300//300 299//299
f 302//302 299//299 301//301
f 304//304 306//306 305//305
f 304//304 305//305 303//303
f 308//308 307//307 309//309
f 308//308 309//309 310//310
f 314//314 312//312 311//311
f 314//314 311//311 313//313
f 316//316 318//318 315//315
f 316//316 315//315 317//317
f 319//319 315//315 318//318
f 319//319 318//318 320//320
f 319//319 320//320 322//322
f 319//319 322//322 321//321
f 324//324 326//326 325//325
f 324//324 325//325 323//323
f 328//328 330//330 329//329
f 328//328 329//329 327//327
f 332//332 331//331 330//330
f 332//332 330//330 328//328
f 334//334 333//333 335//335
f 334//334 335//335 336//336
f 337//337 338//338 334//334
f 337//337 334//334 336//336
f 339//339 340//340 338//338
f 339//339 338//338 337//337
f 342//342 340//340 339//339
f 342//342 339//339 341//341
f 344//344 346//346 345//345
f 344//344 345//345 343//343
f 348//348 347//347 346//346
f 348//348 346//346 344//344
f 350//350 352//352 351//351
f 350//350 351//351 349//349
f 354//354 356//356 355//355
f 354//354 355//355 353//353
f 357//357 359//359 360//360
f 357//357 360//360 358//358
f 361//361 360//360 359//359
f 359//359 362//362 363//363
f 359//359 363//363 361//361
f 362//362 364//364 365//365
f 362//362 365//365 363//363
f 364//364 366//366 367//367
f 364//364 367//367 365//365
f 368//368 367//367 366//366
f 366//366 369//369 370//370
f 366//366 370//370 368//368
f 371//371 373//373 374//374
f 371//371 374//374 372//372
f 376//376 377//377 375//375
f 377//377 379//379 375//375
f 382//382 375//375 378//378
f 375//375 379//379 378//378
f 380//380 375//375 381//381
f 375//375 382//382 381//381
f 382//382 383//383 381//381
f 383//383 384//384 381//381
f 385//385 386//386 384//384
f 381//381 384//384 386//386
f 390//390 387//387 386//386
f 388//388 386//386 387//387
f 389//389 386//386 385//385
f 389//389 391//391 386//386
f 386//386 391//391 390//390
f 387//387 390//390 392//392
f 387//387 392//392 393//393
f 387//387 393//393 394//394
f 387//387 394//394 395//395
f 387//387 395//395 396//396
f 387//387 396//396 397//397
f 396//396 398//398 397//397
f 397//397 398//398 399//399
f 400//400 397//397 399//399
f 401//401 400//400 399//399
f 402//402 400//400 401//401
f 404//404 402//402 403//403
f 400//400 402//402 404//404
f 406//406 405//405 404//404
f 404//404 407//407 406//406
f 407//407 404//404 403//403
f 408//408 405//405 406//406
f 405//405 408//408 409//409
f 410//410 405//405 409//409
f 410//410 411//411 405//405
f 412//412 411//411 410//410
f 412//412 413//413 411//411
f 413//413 414//414 411//411
f 414//414 416//416 415//415
f 415//415 411//411 414//414
f 417//417 416//416 418//418
f 415//415 416//416 417//417
f 420//420 417//417 418//418
f 418//418 419//419 420//420
f 420//420 422//422 421//421
f 423//423 422//422 420//420
f 423//423 420//420 419//419
f 421//421 422//422 424//424
f 425//425 426//426 424//424
f 427//427 424//424 426//426
f 424//424 427//427 421//421
f 425//425 428//428 426//426
f 429//429 428//428 430//430
f 431//431 428//428 425//425
f 428//428 431//431 430//430
f 432//432 429//429 430//430
f 433//433 432//432 434//434
f 429//429 432//432 433//433
f 433//433 434//434 435//435
f 435//435 434//434 376//376
f 434//434 377//377 376//376
f 433//433 435//435 436//436
f 437//437 436//436 435//435
f 436//436 437//437 438//438
f 439//439 438//438 437//437
f 437//437 440//440 439//439
f 441//441 440//440 437//437
f 443//443 441//441 437//437
f 443//443 437//437 442//442
f 444//444 445//445 400//400
f 400//400 445//445 446//446
f 400//400 446//446 397//397
f 447//447 445//445 444//444
f 444//444 448//448 447//447
