# arm_27 exported from /models/landings/arm_27.glb
# units: meters
v 0.031515 0.001000 0.024615
v 0.028340 0.001000 0.018001
v 0.028200 0.001000 0.018099
v 0.034504 0.001000 0.021358
v 0.034021 0.001000 0.019966
v 0.034156 0.001000 0.023039
v 0.034457 0.001000 0.022205
v 0.027841 0.001000 0.018184
v 0.028026 0.001000 0.018163
v 0.013657 0.001000 0.018184
v 0.032944 0.001000 0.024253
v 0.006062 0.001000 0.024615
v 0.013268 0.001000 0.018152
v 0.012615 0.001000 0.017926
v 0.012681 0.001000 0.017962
v 0.012882 0.001000 0.018050
v 0.013072 0.001000 0.018110
v 0.004506 0.001000 0.023872
v 0.005200 0.001000 0.024420
v -0.005800 0.001000 -0.000831
v 0.004887 0.001000 0.013587
v -0.026195 0.001000 -0.014110
v 0.005326 0.001000 0.013967
v -0.026417 0.001000 -0.014738
v -0.018504 0.001000 -0.021385
v -0.026360 0.001000 -0.014405
v -0.013121 0.001000 -0.013934
v -0.011759 0.001000 -0.008260
v -0.011102 0.001000 -0.006674
v -0.011602 0.001000 -0.007434
v -0.010342 0.001000 -0.006175
v -0.006040 0.001000 -0.001374
v -0.009517 0.001000 -0.006018
v -0.006009 0.001000 -0.002014
v -0.008692 0.001000 -0.006175
v -0.007931 0.001000 -0.006674
v -0.007432 0.001000 -0.007434
v -0.007275 0.001000 -0.008260
v -0.003603 0.001000 -0.010113
v -0.003562 0.001000 -0.010251
v -0.007931 0.001000 -0.009845
v -0.007432 0.001000 -0.009085
v -0.008692 0.001000 -0.010345
v -0.003400 0.001000 -0.010465
v -0.003496 0.001000 -0.010361
v -0.003273 0.001000 -0.010554
v -0.011500 0.001000 -0.013106
v -0.003126 0.001000 -0.010621
v -0.002969 0.001000 -0.010661
v -0.002813 0.001000 -0.010673
v 0.009994 0.001000 -0.010673
v 0.011096 0.001000 -0.013106
v 0.010455 0.001000 -0.010554
v 0.010308 0.001000 -0.010621
v 0.011833 0.001000 -0.012965
v 0.010150 0.001000 -0.010661
v 0.012511 0.001000 -0.012520
v 0.010524 0.001000 -0.010511
v 0.012950 0.001000 -0.011857
v 0.010787 0.001000 -0.010100
v 0.013084 0.001000 -0.006509
v 0.024506 0.001000 0.011344
v 0.028424 0.001000 0.017467
v 0.031908 0.001000 0.016753
v 0.028487 0.001000 0.017730
v 0.031950 0.001000 0.016820
v 0.028483 0.001000 0.017612
v 0.028456 0.001000 0.017527
v 0.028431 0.001000 0.017889
v -0.012410 0.001000 -0.013325
v -0.009517 0.001000 -0.010502
v -0.011102 0.001000 -0.009845
v -0.010342 0.001000 -0.010345
v -0.011602 0.001000 -0.009085
v -0.018787 0.001000 -0.021942
v -0.026417 0.001000 -0.026771
v -0.022628 0.001000 -0.026771
v -0.018883 0.001000 -0.022559
v -0.018869 0.001000 -0.031433
v -0.019147 0.001000 -0.032907
v -0.022628 0.001000 -0.028771
v -0.020038 0.001000 -0.034265
v -0.021395 0.001000 -0.035158
v -0.026417 0.001000 -0.028771
v -0.022869 0.001000 -0.035439
v -0.026417 0.001000 -0.035439
v 0.033626 0.001000 0.023748
v -0.009517 0.001000 -0.006018
v -0.010342 0.001000 -0.006175
v -0.009517 -0.001000 -0.006018
v -0.010342 -0.001000 -0.006175
v -0.011102 -0.001000 -0.006674
v -0.011602 -0.001000 -0.007434
v -0.011102 0.001000 -0.006674
v -0.011602 0.001000 -0.007434
v -0.011759 0.001000 -0.008260
v -0.011759 -0.001000 -0.008260
v -0.011602 0.001000 -0.009085
v -0.011102 0.001000 -0.009845
v -0.011602 -0.001000 -0.009085
v -0.011102 -0.001000 -0.009845
v -0.010342 -0.001000 -0.010345
v -0.010342 0.001000 -0.010345
v -0.009517 -0.001000 -0.010502
v -0.008692 -0.001000 -0.010345
v -0.009517 0.001000 -0.010502
v -0.008692 0.001000 -0.010345
v -0.007931 0.001000 -0.009845
v -0.007931 -0.001000 -0.009845
v -0.007432 0.001000 -0.009085
v -0.007275 0.001000 -0.008260
v -0.007432 -0.001000 -0.009085
v -0.007275 -0.001000 -0.008260
v -0.007432 -0.001000 -0.007434
v -0.007432 0.001000 -0.007434
v -0.007931 -0.001000 -0.006674
v -0.007931 0.001000 -0.006674
v -0.008692 -0.001000 -0.006175
v -0.008692 0.001000 -0.006175
v -0.009517 -0.001000 -0.006018
v -0.009517 0.001000 -0.006018
v -0.002813 0.001000 -0.010673
v -0.002969 0.001000 -0.010661
v -0.002878 0.000667 -0.010671
v -0.002813 0.000500 -0.010673
v -0.002878 0.000333 -0.010671
v -0.002813 0.000000 -0.010673
v -0.002878 -0.000333 -0.010671
v -0.002813 -0.000500 -0.010673
v -0.002878 -0.000667 -0.010671
v -0.002813 -0.001000 -0.010673
v -0.002969 -0.001000 -0.010661
v -0.003008 -0.000667 -0.010653
v -0.002944 -0.000667 -0.010664
v -0.003072 -0.000667 -0.010638
v -0.003126 -0.001000 -0.010621
v -0.003196 -0.000667 -0.010594
v -0.003273 -0.001000 -0.010554
v -0.003256 -0.000667 -0.010564
v -0.003400 -0.001000 -0.010465
v -0.003314 -0.000667 -0.010529
v -0.003314 -0.000333 -0.010529
v -0.003366 -0.000667 -0.010492
v -0.003415 -0.000667 -0.010451
v -0.003366 -0.000333 -0.010492
v -0.003415 -0.000333 -0.010451
v -0.003366 0.000333 -0.010492
v -0.003314 0.000333 -0.010529
v -0.003415 0.000333 -0.010451
v -0.003366 0.000667 -0.010492
v -0.003400 0.001000 -0.010465
v -0.003415 0.000667 -0.010451
v -0.003314 0.000667 -0.010529
v -0.003273 0.001000 -0.010554
v -0.003256 0.000667 -0.010564
v -0.003256 0.000333 -0.010564
v -0.003196 0.000667 -0.010594
v -0.003072 0.000667 -0.010638
v -0.003126 0.001000 -0.010621
v -0.003196 0.000333 -0.010594
v -0.003072 0.000333 -0.010638
v -0.003196 -0.000333 -0.010594
v -0.003072 -0.000333 -0.010638
v -0.003256 -0.000333 -0.010564
v -0.003008 -0.000333 -0.010653
v -0.002944 -0.000333 -0.010664
v -0.003008 0.000333 -0.010653
v -0.003008 0.000667 -0.010653
v -0.002944 0.000333 -0.010664
v -0.002944 0.000667 -0.010664
v -0.003460 0.000667 -0.010405
v -0.003496 0.001000 -0.010361
v -0.003501 0.000667 -0.010355
v -0.003460 0.000333 -0.010405
v -0.003501 0.000333 -0.010355
v -0.003460 -0.000333 -0.010405
v -0.003501 -0.000333 -0.010355
v -0.003460 -0.000667 -0.010405
v -0.003501 -0.000667 -0.010355
v -0.003496 -0.001000 -0.010361
v -0.003536 -0.000667 -0.010300
v -0.003562 -0.001000 -0.010251
v -0.003588 -0.000667 -0.010179
v -0.003565 -0.000667 -0.010243
v -0.003603 -0.001000 -0.010113
v -0.003603 -0.000500 -0.010113
v -0.003603 0.000000 -0.010113
v -0.003588 -0.000333 -0.010179
v -0.003565 -0.000333 -0.010243
v -0.003588 0.000333 -0.010179
v -0.003603 0.000500 -0.010113
v -0.003565 0.000333 -0.010243
v -0.003588 0.000667 -0.010179
v -0.003565 0.000667 -0.010243
v -0.003603 0.001000 -0.010113
v -0.003562 0.001000 -0.010251
v -0.003536 0.000667 -0.010300
v -0.003536 0.000333 -0.010300
v -0.003536 -0.000333 -0.010300
v 0.009994 0.001000 -0.010673
v 0.010135 0.000500 -0.010663
v 0.010150 0.001000 -0.010661
v 0.009994 0.000333 -0.010673
v 0.010135 0.000000 -0.010663
v 0.009994 -0.000333 -0.010673
v 0.009994 -0.001000 -0.010673
v 0.010135 -0.000500 -0.010663
v 0.010150 -0.001000 -0.010661
v 0.010272 -0.000500 -0.010633
v 0.010403 -0.000500 -0.010582
v 0.010403 -0.000750 -0.010582
v 0.010272 0.000000 -0.010633
v 0.010308 -0.001000 -0.010621
v 0.010455 -0.001000 -0.010554
v 0.010524 -0.001000 -0.010511
v 0.010465 -0.000750 -0.010549
v 0.010465 -0.000500 -0.010549
v 0.010524 -0.000333 -0.010511
v 0.010524 0.000333 -0.010511
v 0.010403 0.000000 -0.010582
v 0.010403 0.000500 -0.010582
v 0.010465 0.000500 -0.010549
v 0.010465 0.000750 -0.010549
v 0.010403 0.000750 -0.010582
v 0.010455 0.001000 -0.010554
v 0.010524 0.001000 -0.010511
v 0.010308 0.001000 -0.010621
v 0.010272 0.000500 -0.010633
v 0.009994 0.001000 -0.010673
v 0.005725 0.001000 -0.010673
v 0.008394 0.000500 -0.010673
v 0.009994 0.000333 -0.010673
v 0.009994 -0.000333 -0.010673
v 0.008394 0.000000 -0.010673
v 0.009994 -0.001000 -0.010673
v 0.008394 -0.000500 -0.010673
v 0.006793 -0.000500 -0.010673
v 0.005725 -0.001000 -0.010673
v 0.006793 0.000000 -0.010673
v 0.001456 -0.001000 -0.010673
v -0.001212 -0.000500 -0.010673
v -0.002813 -0.001000 -0.010673
v 0.000389 0.000000 -0.010673
v 0.000389 -0.000500 -0.010673
v -0.001212 0.000000 -0.010673
v 0.000389 0.000500 -0.010673
v 0.001456 0.001000 -0.010673
v -0.002813 0.001000 -0.010673
v -0.001212 0.000500 -0.010673
v -0.002813 0.000500 -0.010673
v -0.002813 0.000000 -0.010673
v -0.002813 -0.000500 -0.010673
v 0.006793 0.000500 -0.010673
v -0.005800 0.001000 -0.000831
v -0.006040 0.001000 -0.001374
v -0.005800 0.000000 -0.000831
v -0.005800 -0.001000 -0.000831
v -0.006040 -0.001000 -0.001374
v -0.006009 -0.001000 -0.002014
v -0.006009 0.000000 -0.002014
v -0.006009 0.001000 -0.002014
v -0.005800 0.001000 -0.000831
v -0.003128 0.001000 0.002773
v -0.004464 0.000500 0.000971
v -0.005800 0.000000 -0.000831
v -0.005800 -0.001000 -0.000831
v -0.004464 0.000000 0.000971
v -0.004464 -0.000500 0.000971
v -0.003128 -0.000500 0.002773
v -0.003128 -0.001000 0.002773
v -0.000456 -0.001000 0.006378
v -0.000456 0.001000 0.006378
v -0.003128 0.000000 0.002773
v 0.002215 0.000000 0.009982
v 0.002215 -0.001000 0.009982
v 0.002215 -0.000500 0.009982
v 0.003551 -0.000500 0.011785
v 0.004887 -0.000333 0.013587
v 0.004887 -0.001000 0.013587
v 0.003551 0.000000 0.011785
v 0.004887 0.000333 0.013587
v 0.003551 0.000500 0.011785
v 0.004887 0.001000 0.013587
v 0.002215 0.000500 0.009982
v 0.002215 0.001000 0.009982
v -0.003128 0.000500 0.002773
v 0.012681 0.001000 0.017962
v 0.012913 0.000500 0.018061
v 0.012882 0.001000 0.018050
v 0.012681 -0.000000 0.017962
v 0.012913 -0.000000 0.018061
v 0.012913 -0.000500 0.018061
v 0.012681 -0.001000 0.017962
v 0.012882 -0.001000 0.018050
v 0.013072 -0.001000 0.018110
v 0.013156 -0.000500 0.018130
v 0.013268 -0.001000 0.018152
v 0.013405 -0.000500 0.018171
v 0.013657 -0.001000 0.018184
v 0.013657 -0.000000 0.018184
v 0.013657 0.001000 0.018184
v 0.013405 0.000500 0.018171
v 0.013405 -0.000000 0.018171
v 0.013156 -0.000000 0.018130
v 0.013156 0.000500 0.018130
v 0.013268 0.001000 0.018152
v 0.013072 0.001000 0.018110
v 0.013657 0.001000 0.018184
v 0.013657 -0.000000 0.018184
v 0.018385 0.001000 0.018184
v 0.023113 0.001000 0.018184
v 0.018385 -0.001000 0.018184
v 0.024295 -0.000000 0.018184
v 0.024295 -0.000500 0.018184
v 0.026068 -0.000000 0.018184
v 0.024295 0.000500 0.018184
v 0.023113 -0.001000 0.018184
v 0.027841 -0.001000 0.018184
v 0.026068 -0.000500 0.018184
v 0.027841 -0.000500 0.018184
v 0.027841 -0.000000 0.018184
v 0.027841 0.000500 0.018184
v 0.026068 0.000500 0.018184
v 0.027841 0.001000 0.018184
v 0.013657 -0.001000 0.018184
v 0.012681 0.001000 0.017962
v 0.012615 0.001000 0.017926
v 0.012681 -0.000000 0.017962
v 0.012681 -0.001000 0.017962
v 0.005326 -0.000333 0.013967
v 0.012615 -0.001000 0.017926
v 0.005326 0.000333 0.013967
v 0.005326 0.001000 0.013967
v 0.005326 -0.001000 0.013967
v 0.004887 0.001000 0.013587
v 0.004887 0.000333 0.013587
v 0.005326 0.001000 0.013967
v 0.005326 0.000333 0.013967
v 0.005326 -0.000333 0.013967
v 0.005326 -0.001000 0.013967
v 0.004887 -0.000333 0.013587
v 0.004887 -0.001000 0.013587
v 0.027841 0.001000 0.018184
v 0.027982 0.000333 0.018172
v 0.028026 0.001000 0.018163
v 0.027841 0.000500 0.018184
v 0.027841 -0.000000 0.018184
v 0.027982 -0.000333 0.018172
v 0.027841 -0.000500 0.018184
v 0.027841 -0.001000 0.018184
v 0.028026 -0.001000 0.018163
v 0.028200 -0.001000 0.018099
v 0.028119 -0.000333 0.018135
v 0.028246 -0.000333 0.018072
v 0.028246 -0.000667 0.018072
v 0.028119 0.000333 0.018135
v 0.028246 0.000333 0.018072
v 0.028200 0.001000 0.018099
v 0.028246 0.000667 0.018072
v 0.028340 0.001000 0.018001
v 0.028304 0.000667 0.018032
v 0.028357 0.000667 0.017985
v 0.028304 0.000333 0.018032
v 0.028304 -0.000333 0.018032
v 0.028357 0.000333 0.017985
v 0.028403 0.000333 0.017931
v 0.028357 -0.000333 0.017985
v 0.028403 -0.000333 0.017931
v 0.028357 -0.000667 0.017985
v 0.028304 -0.000667 0.018032
v 0.028403 -0.000667 0.017931
v 0.028340 -0.001000 0.018001
v 0.028431 -0.001000 0.017889
v 0.028441 -0.000667 0.017872
v 0.028487 -0.001000 0.017730
v 0.028490 -0.000667 0.017667
v 0.028486 -0.000667 0.017738
v 0.028483 -0.001000 0.017612
v 0.028480 -0.000667 0.017597
v 0.028457 -0.000833 0.017530
v 0.028456 -0.001000 0.017527
v 0.028424 -0.001000 0.017467
v 0.028442 -0.000833 0.017498
v 0.028442 -0.000667 0.017498
v 0.028457 -0.000333 0.017530
v 0.028457 -0.000667 0.017530
v 0.028424 -0.000500 0.017467
v 0.028424 -0.000000 0.017467
v 0.028424 0.000500 0.017467
v 0.028457 0.000333 0.017530
v 0.028480 0.000333 0.017597
v 0.028457 0.000667 0.017530
v 0.028442 0.000667 0.017498
v 0.028442 0.000833 0.017498
v 0.028456 0.001000 0.017527
v 0.028424 0.001000 0.017467
v 0.028457 0.000833 0.017530
v 0.028480 0.000667 0.017597
v 0.028483 0.001000 0.017612
v 0.028487 0.001000 0.017730
v 0.028490 0.000667 0.017667
v 0.028490 0.000333 0.017667
v 0.028486 0.000667 0.017738
v 0.028486 0.000333 0.017738
v 0.028441 0.000667 0.017872
v 0.028403 0.000667 0.017931
v 0.028431 0.001000 0.017889
v 0.028441 0.000333 0.017872
v 0.028441 -0.000333 0.017872
v 0.028486 -0.000333 0.017738
v 0.028490 -0.000333 0.017667
v 0.028480 -0.000333 0.017597
v -0.006009 0.001000 -0.002014
v -0.006009 0.000000 -0.002014
v -0.003603 0.001000 -0.010113
v -0.003603 0.000500 -0.010113
v -0.003603 0.000000 -0.010113
v -0.003603 -0.000500 -0.010113
v -0.006009 -0.001000 -0.002014
v -0.003603 -0.001000 -0.010113
v 0.028424 0.001000 0.017467
v 0.028424 0.000500 0.017467
v 0.010524 0.001000 -0.010511
v 0.010524 0.000333 -0.010511
v 0.028424 -0.000000 0.017467
v 0.010524 -0.000333 -0.010511
v 0.010524 -0.001000 -0.010511
v 0.028424 -0.000500 0.017467
v 0.028424 -0.001000 0.017467
v 0.004506 0.001000 0.023872
v 0.004506 -0.001000 0.023872
v -0.026195 0.001000 -0.014110
v -0.026195 -0.001000 -0.014110
v -0.026195 -0.001000 -0.014110
v -0.026360 -0.001000 -0.014405
v -0.026195 0.001000 -0.014110
v -0.026360 0.001000 -0.014405
v -0.026417 0.001000 -0.014738
v -0.026417 -0.001000 -0.014738
v 0.031515 -0.001000 0.024615
v 0.006062 -0.001000 0.024615
v 0.031515 0.001000 0.024615
v 0.006062 0.001000 0.024615
v 0.006062 -0.001000 0.024615
v 0.005200 -0.001000 0.024420
v 0.006062 0.001000 0.024615
v 0.005200 0.001000 0.024420
v 0.004506 0.001000 0.023872
v 0.004506 -0.001000 0.023872
v 0.031950 0.001000 0.016820
v 0.032209 0.001000 0.017213
v 0.031950 0.000714 0.016820
v 0.031950 0.000429 0.016820
v 0.032209 0.000500 0.017213
v 0.032209 -0.000000 0.017213
v 0.032468 0.000500 0.017606
v 0.032468 0.001000 0.017606
v 0.032468 -0.000000 0.017606
v 0.032986 0.001000 0.018393
v 0.032986 -0.000000 0.018393
v 0.032986 -0.001000 0.018393
v 0.032468 -0.000500 0.017606
v 0.034021 0.001000 0.019966
v 0.034021 -0.001000 0.019966
v 0.032468 -0.001000 0.017606
v 0.032209 -0.000500 0.017213
v 0.031950 -0.000714 0.016820
v 0.031950 -0.000429 0.016820
v 0.031950 -0.000143 0.016820
v 0.032209 -0.001000 0.017213
v 0.031950 -0.001000 0.016820
v 0.031950 0.000143 0.016820
v 0.034021 -0.001000 0.019966
v 0.034504 -0.001000 0.021358
v 0.034021 0.001000 0.019966
v 0.034504 0.001000 0.021358
v 0.034457 0.001000 0.022205
v 0.034457 -0.001000 0.022205
v 0.034156 0.001000 0.023039
v 0.034156 -0.001000 0.023039
v 0.033626 0.001000 0.023748
v 0.033626 -0.001000 0.023748
v 0.032944 0.001000 0.024253
v 0.032944 -0.001000 0.024253
v 0.031515 0.001000 0.024615
v 0.031515 -0.001000 0.024615
v 0.012950 0.001000 -0.011857
v 0.031908 0.000714 0.016753
v 0.031908 0.001000 0.016753
v 0.012950 0.000000 -0.011857
v 0.031908 -0.000429 0.016753
v 0.012950 -0.001000 -0.011857
v 0.031908 0.000429 0.016753
v 0.031908 0.000143 0.016753
v 0.031908 -0.000143 0.016753
v 0.031908 -0.000714 0.016753
v 0.031908 -0.001000 0.016753
v 0.011096 0.001000 -0.013106
v -0.011500 0.001000 -0.013106
v 0.011096 -0.001000 -0.013106
v -0.011500 -0.001000 -0.013106
v -0.022869 -0.001000 -0.035439
v -0.026417 -0.001000 -0.035439
v -0.022869 0.001000 -0.035439
v -0.026417 0.001000 -0.035439
v -0.026417 -0.001000 -0.035439
v -0.026417 -0.001000 -0.028771
v -0.026417 0.001000 -0.035439
v -0.026417 0.001000 -0.028771
v -0.013121 -0.001000 -0.013934
v -0.018504 -0.001000 -0.021385
v -0.013121 0.001000 -0.013934
v -0.018504 0.001000 -0.021385
v -0.013121 0.001000 -0.013934
v -0.012410 0.001000 -0.013325
v -0.013121 -0.001000 -0.013934
v -0.012410 -0.001000 -0.013325
v -0.011500 -0.001000 -0.013106
v -0.011500 0.001000 -0.013106
v -0.018883 0.001000 -0.022559
v -0.018787 0.001000 -0.021942
v -0.018883 -0.001000 -0.022559
v -0.018787 -0.001000 -0.021942
v -0.018504 -0.001000 -0.021385
v -0.018504 0.001000 -0.021385
v -0.018883 -0.001000 -0.022559
v -0.018869 -0.001000 -0.031433
v -0.018883 0.001000 -0.022559
v -0.018869 0.001000 -0.031433
v -0.022869 -0.001000 -0.035439
v -0.022140 -0.001000 -0.035372
v -0.022869 0.001000 -0.035439
v -0.022140 0.001000 -0.035372
v -0.021395 0.001000 -0.035158
v -0.021395 -0.001000 -0.035158
v -0.020678 0.001000 -0.034786
v -0.020678 -0.001000 -0.034786
v -0.020038 0.001000 -0.034265
v -0.020038 -0.001000 -0.034265
v -0.019518 0.001000 -0.033625
v -0.019518 -0.001000 -0.033625
v -0.019147 0.001000 -0.032907
v -0.019147 -0.001000 -0.032907
v -0.018934 0.001000 -0.032161
v -0.018934 -0.001000 -0.032161
v -0.018869 0.001000 -0.031433
v -0.018869 -0.001000 -0.031433
v -0.026417 0.001000 -0.026771
v -0.022628 0.001000 -0.026771
v -0.026417 -0.001000 -0.026771
v -0.022631 -0.001000 -0.026771
v -0.026417 -0.001000 -0.028771
v -0.026417 0.001000 -0.028771
v -0.022631 -0.001000 -0.028771
v -0.022628 0.001000 -0.028771
v -0.022631 -0.001000 -0.026771
v -0.022631 -0.001000 -0.028771
v -0.022628 0.001000 -0.026771
v -0.022628 0.001000 -0.028771
v 0.011096 -0.001000 -0.013106
v 0.011833 -0.001000 -0.012965
v 0.011096 0.001000 -0.013106
v 0.011833 0.001000 -0.012965
v 0.012511 0.001000 -0.012520
v 0.012950 0.001000 -0.011857
v 0.012950 0.000000 -0.011857
v 0.012511 -0.001000 -0.012520
v 0.012950 -0.001000 -0.011857
v 0.031908 -0.001000 0.016753
v 0.031950 -0.001000 0.016820
v 0.031908 -0.000714 0.016753
v 0.031950 -0.000714 0.016820
v 0.031908 -0.000429 0.016753
v 0.031950 -0.000429 0.016820
v 0.031908 -0.000143 0.016753
v 0.031950 -0.000143 0.016820
v 0.031908 0.000143 0.016753
v 0.031950 0.000143 0.016820
v 0.031908 0.000429 0.016753
v 0.031908 0.000714 0.016753
v 0.031950 0.000429 0.016820
v 0.031950 0.000714 0.016820
v 0.031950 0.001000 0.016820
v 0.031908 0.001000 0.016753
v -0.026417 -0.001000 -0.014738
v -0.026417 -0.001000 -0.026771
v -0.026417 0.001000 -0.014738
v -0.026417 0.001000 -0.026771
v -0.026417 -0.001000 -0.035439
v -0.026417 -0.001000 -0.028771
v -0.022869 -0.001000 -0.035439
v -0.022631 -0.001000 -0.028771
v -0.021395 -0.001000 -0.035158
v -0.020038 -0.001000 -0.034265
v -0.019147 -0.001000 -0.032907
v -0.018869 -0.001000 -0.031433
v -0.018883 -0.001000 -0.022559
v -0.022631 -0.001000 -0.026771
v -0.026417 -0.001000 -0.026771
v -0.018787 -0.001000 -0.021942
v -0.026417 -0.001000 -0.014738
v -0.018504 -0.001000 -0.021385
v -0.026195 -0.001000 -0.014110
v -0.013121 -0.001000 -0.013934
v -0.011602 -0.001000 -0.009085
v -0.012410 -0.001000 -0.013325
v -0.011759 -0.001000 -0.008260
v -0.011602 -0.001000 -0.007434
v -0.011102 -0.001000 -0.006674
v -0.010342 -0.001000 -0.006175
v -0.005800 -0.001000 -0.000831
v -0.006040 -0.001000 -0.001374
v 0.004887 -0.001000 0.013587
v 0.004506 -0.001000 0.023872
v 0.006062 -0.001000 0.024615
v 0.005200 -0.001000 0.024420
v 0.012615 -0.001000 0.017926
v 0.005326 -0.001000 0.013967
v 0.012681 -0.001000 0.017962
v 0.012882 -0.001000 0.018050
v 0.013072 -0.001000 0.018110
v 0.013268 -0.001000 0.018152
v 0.013657 -0.001000 0.018184
v 0.027841 -0.001000 0.018184
v 0.031515 -0.001000 0.024615
v 0.028340 -0.001000 0.018001
v 0.028200 -0.001000 0.018099
v 0.034504 -0.001000 0.021358
v 0.034021 -0.001000 0.019966
v 0.034457 -0.001000 0.022205
v 0.028026 -0.001000 0.018163
v 0.032944 -0.001000 0.024253
v 0.034156 -0.001000 0.023039
v 0.033626 -0.001000 0.023748
v 0.028431 -0.001000 0.017889
v 0.031950 -0.001000 0.016820
v 0.031908 -0.001000 0.016753
v 0.028487 -0.001000 0.017730
v 0.028483 -0.001000 0.017612
v 0.028456 -0.001000 0.017527
v 0.028424 -0.001000 0.017467
v 0.024506 -0.001000 0.011344
v 0.012950 -0.001000 -0.011857
v 0.013084 -0.001000 -0.006509
v 0.010787 -0.001000 -0.010100
v 0.010524 -0.001000 -0.010511
v 0.010455 -0.001000 -0.010554
v 0.011833 -0.001000 -0.012965
v 0.012511 -0.001000 -0.012520
v 0.011096 -0.001000 -0.013106
v -0.011500 -0.001000 -0.013106
v 0.010308 -0.001000 -0.010621
v 0.010150 -0.001000 -0.010661
v -0.002813 -0.001000 -0.010673
v 0.009994 -0.001000 -0.010673
v -0.002969 -0.001000 -0.010661
v -0.003126 -0.001000 -0.010621
v -0.003273 -0.001000 -0.010554
v -0.008692 -0.001000 -0.010345
v -0.003400 -0.001000 -0.010465
v -0.007931 -0.001000 -0.009845
v -0.003496 -0.001000 -0.010361
v -0.003562 -0.001000 -0.010251
v -0.003603 -0.001000 -0.010113
v -0.007432 -0.001000 -0.009085
v -0.007275 -0.001000 -0.008260
v -0.007432 -0.001000 -0.007434
v -0.006009 -0.001000 -0.002014
v -0.008692 -0.001000 -0.006175
v -0.007931 -0.001000 -0.006674
v -0.009517 -0.001000 -0.006018
v -0.009517 -0.001000 -0.010502
v -0.010342 -0.001000 -0.010345
v -0.011102 -0.001000 -0.009845
v -0.026360 -0.001000 -0.014405
vn 0.000000 1.000000 0.000000
vn 0.000000 1.000000 0.000000
vn 0.000000 1.000000 0.000000
vn 0.000000 1.000000 0.000000
vn 0.000000 1.000000 0.000000
vn 0.000000 1.000000 0.000000
vn 0.000000 1.000000 0.000000
vn 0.000000 1.000000 0.000000
vn 0.000000 1.000000 0.000000
vn 0.000000 1.000000 0.000000
vn 0.000000 1.000000 0.000000
vn 0.000000 1.000000 0.000000
vn 0.000000 1.000000 0.000000
vn 0.000000 1.000000 0.000000
vn 0.000000 1.000000 0.000000
vn 0.000000 1.000000 0.000000
vn 0.000000 1.000000 0.000000
vn 0.000000 1.000000 0.000000
vn 0.000000 1.000000 0.000000
vn 0.000000 1.000000 0.000000
vn 0.000000 1.000000 0.000000
vn 0.000000 1.000000 0.000000
vn 0.000000 1.000000 0.000000
vn 0.000000 1.000000 0.000000
vn 0.000000 1.000000 0.000000
vn 0.000000 1.000000 0.000000
vn 0.000000 1.000000 0.000000
vn 0.000000 1.000000 0.000000
vn 0.000000 1.000000 0.000000
vn 0.000000 1.000000 0.000000
vn 0.000000 1.000000 0.000000
vn 0.000000 1.000000 0.000000
vn 0.000000 1.000000 0.000000
vn 0.000000 1.000000 0.000000
vn 0.000000 1.000000 0.000000
vn 0.000000 1.000000 0.000000
vn 0.000000 1.000000 0.000000
vn 0.000000 1.000000 0.000000
vn 0.000000 1.000000 0.000000
vn 0.000000 1.000000 0.000000
vn 0.000000 1.000000 0.000000
vn 0.000000 1.000000 0.000000
vn 0.000000 1.000000 0.000000
vn 0.000000 1.000000 0.000000
vn 0.000000 1.000000 0.000000
vn 0.000000 1.000000 0.000000
vn 0.000000 1.000000 0.000000
vn 0.000000 1.000000 0.000000
vn 0.000000 1.000000 0.000000
vn 0.000000 1.000000 0.000000
vn 0.000000 1.000000 0.000000
vn 0.000000 1.000000 0.000000
vn 0.000000 1.000000 0.000000
vn 0.000000 1.000000 0.000000
vn 0.000000 1.000000 0.000000
vn 0.000000 1.000000 0.000000
vn 0.000000 1.000000 0.000000
vn 0.000000 1.000000 0.000000
vn 0.000000 1.000000 0.000000
vn 0.000000 1.000000 0.000000
vn 0.000000 1.000000 0.000000
vn 0.000000 1.000000 0.000000
vn 0.000000 1.000000 0.000000
vn 0.000000 1.000000 0.000000
vn 0.000000 1.000000 0.000000
vn 0.000000 1.000000 0.000000
vn 0.000000 1.000000 0.000000
vn 0.000000 1.000000 0.000000
vn 0.000000 1.000000 0.000000
vn 0.000000 1.000000 0.000000
vn 0.000000 1.000000 0.000000
vn 0.000000 1.000000 0.000000
vn 0.000000 1.000000 0.000000
vn 0.000000 1.000000 0.000000
vn 0.000000 1.000000 0.000000
vn 0.000000 1.000000 0.000000
vn 0.000000 1.000000 0.000000
vn 0.000000 1.000000 0.000000
vn 0.000000 1.000000 0.000000
vn 0.000000 1.000000 0.000000
vn 0.000000 1.000000 0.000000
vn 0.000000 1.000000 0.000000
vn 0.000000 1.000000 0.000000
vn 0.000000 1.000000 0.000000
vn 0.000000 1.000000 0.000000
vn 0.000000 1.000000 0.000000
vn 0.000000 1.000000 0.000000
vn 0.000100 0.000000 -1.000000
vn 0.368095 0.000000 -0.929788
vn 0.000100 0.000000 -1.000000
vn 0.368095 0.000000 -0.929788
vn 0.707107 0.000000 -0.707107
vn 0.929788 0.000000 -0.368095
vn 0.707107 0.000000 -0.707107
vn 0.929788 0.000000 -0.368095
vn 1.000000 0.000000 0.000000
vn 1.000000 0.000000 0.000000
vn 0.929788 -0.000000 0.368095
vn 0.707107 -0.000000 0.707107
vn 0.929788 -0.000000 0.368095
vn 0.707107 -0.000000 0.707107
vn 0.368095 -0.000000 0.929788
vn 0.368095 -0.000000 0.929788
vn 0.000000 -0.000000 1.000000
vn -0.368095 -0.000000 0.929788
vn 0.000000 -0.000000 1.000000
vn -0.368095 -0.000000 0.929788
vn -0.707107 -0.000000 0.707107
vn -0.707107 -0.000000 0.707107
vn -0.929788 -0.000000 0.368095
vn -1.000000 0.000000 0.000000
vn -0.929788 -0.000000 0.368095
vn -1.000000 0.000000 0.000000
vn -0.929788 0.000000 -0.368095
vn -0.929788 0.000000 -0.368095
vn -0.707107 0.000000 -0.707107
vn -0.707107 0.000000 -0.707107
vn -0.368095 0.000000 -0.929788
vn -0.368095 0.000000 -0.929788
vn -0.000100 0.000000 -1.000000
vn -0.000100 0.000000 -1.000000
vn -0.000600 -0.000000 1.000000
vn 0.159905 -0.000000 0.987132
vn 0.068298 -0.000000 0.997665
vn -0.000600 -0.000000 1.000000
vn 0.068298 -0.000000 0.997665
vn -0.000300 -0.000000 1.000000
vn 0.068298 -0.000000 0.997665
vn -0.000600 -0.000000 1.000000
vn 0.068298 -0.000000 0.997665
vn 0.000000 -0.000000 1.000000
vn 0.160003 -0.000000 0.987117
vn 0.200403 -0.000000 0.979714
vn 0.134404 0.000100 0.990927
vn 0.267912 -0.000000 0.963443
vn 0.327904 -0.000000 0.944711
vn 0.407214 -0.000000 0.913333
vn 0.496203 -0.000000 0.868206
vn 0.476608 -0.000000 0.879116
vn 0.658328 0.000100 0.752732
vn 0.545575 -0.000000 0.838062
vn 0.545389 -0.000000 0.838183
vn 0.612818 0.000100 0.790224
vn 0.680420 -0.000000 0.732822
vn 0.612597 -0.000000 0.790396
vn 0.680731 -0.000000 0.732533
vn 0.612597 -0.000000 0.790396
vn 0.545389 -0.000000 0.838183
vn 0.680992 -0.000000 0.732291
vn 0.612818 -0.000200 0.790224
vn 0.658597 -0.000100 0.752496
vn 0.680420 -0.000000 0.732822
vn 0.545203 -0.000100 0.838304
vn 0.496322 -0.000000 0.868139
vn 0.476293 -0.000000 0.879287
vn 0.476805 -0.000000 0.879009
vn 0.407298 -0.000000 0.913295
vn 0.268098 -0.000000 0.963392
vn 0.327993 -0.000000 0.944680
vn 0.407298 -0.000000 0.913295
vn 0.267912 -0.000000 0.963443
vn 0.407214 -0.000000 0.913333
vn 0.267912 -0.000000 0.963443
vn 0.476805 -0.000000 0.879009
vn 0.200902 -0.000000 0.979611
vn 0.134796 -0.000000 0.990873
vn 0.200499 -0.000000 0.979694
vn 0.200595 -0.000000 0.979674
vn 0.134796 -0.000000 0.990873
vn 0.134600 -0.000000 0.990900
vn 0.746117 -0.000100 0.665815
vn 0.800851 -0.000100 0.598864
vn 0.807615 -0.000100 0.589711
vn 0.746774 -0.000000 0.665077
vn 0.807697 -0.000000 0.589598
vn 0.746493 -0.000000 0.665394
vn 0.807697 -0.000000 0.589598
vn 0.746399 0.000100 0.665499
vn 0.807615 0.000100 0.589711
vn 0.800767 0.000100 0.598976
vn 0.865143 -0.000100 0.501525
vn 0.911132 -0.000000 0.412115
vn 0.960724 0.000100 0.277507
vn 0.917565 -0.000100 0.397585
vn 0.988763 -0.000000 0.149494
vn 0.988792 -0.000000 0.149299
vn 0.988777 -0.000000 0.149397
vn 0.960758 -0.000000 0.277388
vn 0.917565 -0.000000 0.397585
vn 0.960899 -0.000000 0.276900
vn 0.988792 -0.000000 0.149299
vn 0.917565 -0.000000 0.397585
vn 0.960724 -0.000000 0.277507
vn 0.917550 0.000100 0.397621
vn 0.988763 -0.000000 0.149494
vn 0.911094 0.000100 0.412198
vn 0.865168 0.000100 0.501482
vn 0.865168 -0.000000 0.501482
vn 0.865212 -0.000000 0.501407
vn 0.000000 -0.000000 1.000000
vn -0.144095 -0.000000 0.989564
vn -0.160100 -0.000000 0.987101
vn 0.000000 -0.000000 1.000000
vn -0.144403 -0.000000 0.989519
vn 0.000000 -0.000000 1.000000
vn 0.000000 -0.000000 1.000000
vn -0.144095 -0.000000 0.989564
vn -0.160100 -0.000000 0.987101
vn -0.287403 -0.000000 0.957810
vn -0.435898 -0.000000 0.899996
vn -0.435697 -0.000000 0.900093
vn -0.287403 -0.000000 0.957810
vn -0.327605 -0.000000 0.944815
vn -0.496710 -0.000000 0.867917
vn -0.580708 0.000100 0.814112
vn -0.507789 -0.000000 0.861481
vn -0.507094 -0.000000 0.861891
vn -0.580235 -0.000100 0.814449
vn -0.580188 0.000100 0.814483
vn -0.436300 -0.000000 0.899801
vn -0.435898 -0.000000 0.899996
vn -0.507715 0.000100 0.861525
vn -0.507671 -0.000000 0.861551
vn -0.435697 -0.000000 0.900093
vn -0.496710 -0.000000 0.867917
vn -0.580595 -0.000100 0.814193
vn -0.327605 -0.000000 0.944815
vn -0.287403 -0.000000 0.957810
vn 0.000000 -0.000000 1.000000
vn 0.000000 -0.000000 1.000000
vn 0.000000 -0.000000 1.000000
vn 0.000000 -0.000000 1.000000
vn 0.000000 -0.000000 1.000000
vn 0.000000 -0.000000 1.000000
vn 0.000000 -0.000000 1.000000
vn 0.000000 -0.000000 1.000000
vn 0.000000 -0.000000 1.000000
vn 0.000000 -0.000000 1.000000
vn 0.000000 -0.000000 1.000000
vn 0.000000 -0.000000 1.000000
vn 0.000000 -0.000000 1.000000
vn 0.000000 -0.000000 1.000000
vn 0.000000 -0.000000 1.000000
vn 0.000000 -0.000000 1.000000
vn 0.000000 -0.000000 1.000000
vn 0.000000 -0.000000 1.000000
vn 0.000000 -0.000000 1.000000
vn 0.000000 -0.000000 1.000000
vn 0.000000 -0.000000 1.000000
vn 0.000000 -0.000000 1.000000
vn 0.000000 -0.000000 1.000000
vn 0.000000 -0.000000 1.000000
vn 0.000000 -0.000000 1.000000
vn 0.803419 0.000000 -0.595414
vn 0.981493 0.000000 -0.191499
vn 0.803419 0.000000 -0.595414
vn 0.803419 0.000000 -0.595414
vn 0.981493 0.000000 -0.191499
vn 0.958615 -0.000000 0.284705
vn 0.958615 -0.000000 0.284705
vn 0.958615 -0.000000 0.284705
vn 0.803371 0.000000 -0.595479
vn 0.803371 0.000000 -0.595479
vn 0.803371 0.000000 -0.595479
vn 0.803371 0.000000 -0.595479
vn 0.803371 0.000000 -0.595479
vn 0.803371 0.000000 -0.595479
vn 0.803371 0.000000 -0.595479
vn 0.803371 0.000000 -0.595479
vn 0.803371 0.000000 -0.595479
vn 0.803371 0.000000 -0.595479
vn 0.803371 0.000000 -0.595479
vn 0.803371 0.000000 -0.595479
vn 0.803371 0.000000 -0.595479
vn 0.803371 0.000000 -0.595479
vn 0.803371 0.000000 -0.595479
vn 0.803371 0.000000 -0.595479
vn 0.803371 0.000000 -0.595479
vn 0.803371 0.000000 -0.595479
vn 0.803371 0.000000 -0.595479
vn 0.803371 0.000000 -0.595479
vn 0.803371 0.000000 -0.595479
vn 0.803371 0.000000 -0.595479
vn 0.803371 0.000000 -0.595479
vn 0.803371 0.000000 -0.595479
vn 0.803371 0.000000 -0.595479
vn 0.456907 0.000000 -0.889514
vn 0.333903 0.000000 -0.942608
vn 0.349007 0.000100 -0.937120
vn 0.457106 0.000000 -0.889412
vn 0.333903 0.000000 -0.942608
vn 0.333903 0.000000 -0.942608
vn 0.456907 0.000000 -0.889514
vn 0.349007 -0.000100 -0.937120
vn 0.255197 0.000000 -0.966889
vn 0.214600 0.000000 -0.976702
vn 0.165193 0.000000 -0.986261
vn 0.107204 0.000100 -0.994237
vn 0.000100 0.000000 -1.000000
vn 0.000100 0.000000 -1.000000
vn 0.000100 0.000000 -1.000000
vn 0.107204 -0.000100 -0.994237
vn 0.107402 0.000000 -0.994216
vn 0.214696 0.000000 -0.976681
vn 0.214600 0.000000 -0.976702
vn 0.165193 0.000000 -0.986261
vn 0.255197 0.000000 -0.966889
vn 0.000000 0.000000 -1.000000
vn 0.000000 0.000000 -1.000000
vn 0.000000 0.000000 -1.000000
vn 0.000000 0.000000 -1.000000
vn 0.000000 0.000000 -1.000000
vn 0.000000 0.000000 -1.000000
vn 0.000000 0.000000 -1.000000
vn 0.000000 0.000000 -1.000000
vn 0.000000 0.000000 -1.000000
vn 0.000000 0.000000 -1.000000
vn 0.000000 0.000000 -1.000000
vn 0.000000 0.000000 -1.000000
vn 0.000000 0.000000 -1.000000
vn 0.000000 0.000000 -1.000000
vn 0.000000 0.000000 -1.000000
vn 0.000000 0.000000 -1.000000
vn 0.000000 0.000000 -1.000000
vn 0.000000 0.000000 -1.000000
vn 0.477121 0.000000 -0.878838
vn 0.477001 0.000000 -0.878903
vn 0.477198 0.000000 -0.878796
vn 0.477121 0.000000 -0.878838
vn 0.477198 0.000000 -0.878796
vn 0.477001 0.000000 -0.878903
vn 0.477198 0.000000 -0.878796
vn 0.477198 0.000000 -0.878796
vn 0.477198 0.000000 -0.878796
vn 0.803288 0.000000 -0.595591
vn 0.803288 0.000000 -0.595591
vn 0.477198 0.000000 -0.878796
vn 0.477198 0.000000 -0.878796
vn 0.477198 0.000000 -0.878796
vn 0.477198 0.000000 -0.878796
vn 0.803288 0.000000 -0.595591
vn 0.803288 0.000000 -0.595591
vn 0.000400 0.000000 -1.000000
vn -0.173700 0.000000 -0.984799
vn -0.228298 0.000000 -0.973591
vn -0.000700 0.000000 -1.000000
vn -0.000100 0.000000 -1.000000
vn -0.173894 -0.000200 -0.984764
vn -0.000200 0.000000 -1.000000
vn 0.000500 0.000000 -1.000000
vn -0.228108 0.000000 -0.973636
vn -0.462111 0.000000 -0.886822
vn -0.349391 0.000000 -0.936977
vn -0.529999 0.000000 -0.847998
vn -0.529927 0.000000 -0.848043
vn -0.349183 0.000000 -0.937055
vn -0.529999 0.000000 -0.847998
vn -0.462508 -0.000100 -0.886615
vn -0.529882 0.000100 -0.848071
vn -0.681095 -0.000200 -0.732195
vn -0.620895 0.000000 -0.783894
vn -0.710897 -0.000100 -0.703297
vn -0.621005 0.000000 -0.783807
vn -0.621005 0.000000 -0.783807
vn -0.710897 0.000000 -0.703297
vn -0.799099 0.000000 -0.601199
vn -0.710797 0.000000 -0.703397
vn -0.799099 0.000000 -0.601199
vn -0.710897 0.000100 -0.703297
vn -0.621115 0.000200 -0.783719
vn -0.799015 0.000100 -0.601311
vn -0.681199 0.000200 -0.732099
vn -0.858620 0.000100 -0.512612
vn -0.880837 0.000000 -0.473420
vn -0.992469 -0.000100 -0.122496
vn -0.998900 -0.000000 0.046900
vn -0.989490 -0.000100 -0.144599
vn -0.981395 -0.000100 0.191999
vn -0.972523 -0.000100 0.232806
vn -0.916744 -0.000100 0.399476
vn -0.914005 0.000200 0.405702
vn -0.842738 0.000700 0.538324
vn -0.881282 -0.000000 0.472591
vn -0.881177 -0.000000 0.472787
vn -0.916870 -0.000000 0.399187
vn -0.916870 -0.000000 0.399187
vn -0.842304 0.000300 0.539003
vn -0.842424 -0.000000 0.538815
vn -0.842184 -0.000300 0.539190
vn -0.916906 -0.000000 0.399103
vn -0.972501 -0.000000 0.232900
vn -0.916870 -0.000000 0.399187
vn -0.881177 -0.000000 0.472787
vn -0.881177 -0.000000 0.472787
vn -0.914005 -0.000200 0.405702
vn -0.842767 -0.000700 0.538279
vn -0.916728 0.000100 0.399512
vn -0.972523 0.000100 0.232806
vn -0.981395 0.000100 0.191999
vn -0.992469 0.000100 -0.122496
vn -0.998904 0.000100 0.046800
vn -0.998900 -0.000000 0.046900
vn -0.989490 0.000000 -0.144599
vn -0.989490 0.000000 -0.144599
vn -0.880901 0.000000 -0.473301
vn -0.799267 0.000000 -0.600976
vn -0.858506 0.000000 -0.512804
vn -0.880795 0.000000 -0.473497
vn -0.880795 0.000000 -0.473497
vn -0.989490 0.000000 -0.144599
vn -0.998900 -0.000000 0.046900
vn -0.972501 -0.000000 0.232900
vn 0.958588 -0.000000 0.284796
vn 0.958588 -0.000000 0.284796
vn 0.958588 -0.000000 0.284796
vn 0.958588 -0.000000 0.284796
vn 0.958588 -0.000000 0.284796
vn 0.958588 -0.000000 0.284796
vn 0.958588 -0.000000 0.284796
vn 0.958588 -0.000000 0.284796
vn -0.842349 -0.000000 0.538932
vn -0.842349 -0.000000 0.538932
vn -0.842349 -0.000000 0.538932
vn -0.842378 -0.000000 0.538886
vn -0.842349 -0.000000 0.538932
vn -0.842378 -0.000000 0.538886
vn -0.842349 -0.000000 0.538932
vn -0.842349 -0.000000 0.538932
vn -0.842349 -0.000000 0.538932
vn -0.777717 -0.000000 0.628614
vn -0.777717 -0.000000 0.628614
vn -0.777717 -0.000000 0.628614
vn -0.777717 -0.000000 0.628614
vn -0.777757 -0.000000 0.628565
vn -0.942787 -0.000000 0.333395
vn -0.777757 -0.000100 0.628565
vn -0.942787 -0.000000 0.333395
vn -1.000000 -0.000000 0.000100
vn -1.000000 -0.000000 0.000100
vn 0.000000 -0.000000 1.000000
vn 0.000000 -0.000000 1.000000
vn 0.000000 -0.000000 1.000000
vn 0.000000 -0.000000 1.000000
vn -0.000100 -0.000000 1.000000
vn -0.430900 -0.000000 0.902400
vn -0.000100 -0.000000 1.000000
vn -0.430900 -0.000000 0.902400
vn -0.777668 -0.000000 0.628675
vn -0.777668 -0.000000 0.628675
vn 0.835297 0.000000 -0.549798
vn 0.835297 0.000000 -0.549798
vn 0.835297 0.000000 -0.549798
vn 0.835297 0.000000 -0.549798
vn 0.835297 0.000000 -0.549798
vn 0.835297 0.000000 -0.549798
vn 0.835297 0.000000 -0.549798
vn 0.835297 0.000000 -0.549798
vn 0.835297 0.000000 -0.549798
vn 0.835297 0.000000 -0.549798
vn 0.835297 0.000000 -0.549798
vn 0.835297 0.000000 -0.549798
vn 0.835297 0.000000 -0.549798
vn 0.835297 0.000000 -0.549798
vn 0.835297 0.000000 -0.549798
vn 0.835297 0.000000 -0.549798
vn 0.835297 0.000000 -0.549798
vn 0.835297 0.000000 -0.549798
vn 0.835297 0.000000 -0.549798
vn 0.835297 0.000000 -0.549798
vn 0.835297 0.000000 -0.549798
vn 0.835297 0.000000 -0.549798
vn 0.835297 0.000000 -0.549798
vn 0.835343 0.000000 -0.549729
vn 0.996312 0.000000 -0.085801
vn 0.835343 0.000000 -0.549729
vn 0.996312 0.000000 -0.085801
vn 0.980465 -0.000000 0.196693
vn 0.980465 -0.000000 0.196693
vn 0.880266 -0.000000 0.474481
vn 0.880266 -0.000000 0.474481
vn 0.703397 -0.000000 0.710797
vn 0.703397 -0.000000 0.710797
vn 0.476174 -0.000000 0.879351
vn 0.476174 -0.000000 0.879351
vn 0.000100 -0.000000 1.000000
vn 0.000100 -0.000000 1.000000
vn 0.833585 0.000000 -0.552390
vn 0.833585 0.000000 -0.552390
vn 0.833585 0.000000 -0.552390
vn 0.833585 0.000000 -0.552390
vn 0.833585 0.000000 -0.552390
vn 0.833585 0.000000 -0.552390
vn 0.833585 0.000000 -0.552390
vn 0.833585 0.000000 -0.552390
vn 0.833585 0.000000 -0.552390
vn 0.833585 0.000000 -0.552390
vn 0.833585 0.000000 -0.552390
vn 0.000000 0.000000 -1.000000
vn 0.000000 0.000000 -1.000000
vn 0.000000 0.000000 -1.000000
vn 0.000000 0.000000 -1.000000
vn 0.000000 0.000000 -1.000000
vn 0.000000 0.000000 -1.000000
vn 0.000000 0.000000 -1.000000
vn 0.000000 0.000000 -1.000000
vn -1.000000 0.000000 0.000000
vn -1.000000 0.000000 0.000000
vn -1.000000 0.000000 0.000000
vn -1.000000 0.000000 0.000000
vn 0.810553 0.000000 -0.585666
vn 0.810553 0.000000 -0.585666
vn 0.810553 0.000000 -0.585666
vn 0.810553 0.000000 -0.585666
vn 0.810518 0.000000 -0.585713
vn 0.455196 0.000000 -0.890391
vn 0.810518 0.000000 -0.585713
vn 0.455196 0.000000 -0.890391
vn 0.000100 0.000000 -1.000000
vn 0.000100 0.000000 -1.000000
vn 0.999999 -0.000000 0.001600
vn 0.951709 0.000000 -0.307003
vn 0.999999 -0.000000 0.001600
vn 0.951709 0.000000 -0.307003
vn 0.810600 0.000000 -0.585600
vn 0.810600 0.000000 -0.585600
vn 0.999999 -0.000000 0.001700
vn 0.999999 -0.000000 0.001700
vn 0.999999 -0.000000 0.001700
vn 0.999999 -0.000000 0.001700
vn 0.000000 0.000000 -1.000000
vn 0.182096 0.000000 -0.983281
vn 0.000000 0.000000 -1.000000
vn 0.182096 0.000000 -0.983281
vn 0.368389 0.000000 -0.929672
vn 0.368389 0.000000 -0.929672
vn 0.547804 0.000000 -0.836607
vn 0.547804 0.000000 -0.836607
vn 0.707706 0.000000 -0.706507
vn 0.707706 0.000000 -0.706507
vn 0.837593 0.000000 -0.546295
vn 0.837593 0.000000 -0.546295
vn 0.930266 0.000000 -0.366887
vn 0.930266 0.000000 -0.366887
vn 0.983576 0.000000 -0.180496
vn 0.983576 0.000000 -0.180496
vn 0.999999 -0.000000 0.001700
vn 0.999999 -0.000000 0.001700
vn 0.000000 0.000000 -1.000000
vn 0.000000 0.000000 -1.000000
vn 0.000000 0.000000 -1.000000
vn 0.000000 0.000000 -1.000000
vn 0.000000 -0.000000 1.000000
vn 0.000000 -0.000000 1.000000
vn 0.000000 -0.000000 1.000000
vn 0.000000 -0.000000 1.000000
vn -0.999999 0.001700 0.000000
vn -0.999999 0.001700 0.000000
vn -0.999999 0.001700 0.000000
vn -0.999999 0.001700 0.000000
vn 0.000100 0.000000 -1.000000
vn 0.368095 0.000000 -0.929788
vn 0.000100 0.000000 -1.000000
vn 0.368095 0.000000 -0.929788
vn 0.707007 0.000000 -0.707207
vn 0.926750 0.000000 -0.375680
vn 0.926750 0.000000 -0.375680
vn 0.707007 0.000000 -0.707207
vn 0.926750 0.000000 -0.375680
vn 0.833585 0.000000 -0.552390
vn 0.854594 0.000000 -0.519296
vn 0.833585 0.000000 -0.552390
vn 0.854594 0.000000 -0.519296
vn 0.833585 0.000000 -0.552390
vn 0.854594 0.000000 -0.519296
vn 0.833585 0.000000 -0.552390
vn 0.854638 0.000000 -0.519224
vn 0.833585 0.000000 -0.552390
vn 0.854638 0.000000 -0.519224
vn 0.833585 0.000000 -0.552390
vn 0.833585 0.000000 -0.552390
vn 0.854594 0.000000 -0.519296
vn 0.854638 0.000000 -0.519224
vn 0.854638 0.000000 -0.519224
vn 0.833585 0.000000 -0.552390
vn -1.000000 0.000000 0.000000
vn -1.000000 0.000000 0.000000
vn -1.000000 0.000000 0.000000
vn -1.000000 0.000000 0.000000
vn 0.000000 -1.000000 -0.000000
vn 0.000000 -1.000000 -0.000000
vn 0.000000 -1.000000 -0.000000
vn 0.000000 -1.000000 -0.000000
vn 0.000000 -1.000000 -0.000000
vn 0.000000 -1.000000 -0.000000
vn 0.000000 -1.000000 -0.000000
vn 0.000000 -1.000000 -0.000000
vn 0.000000 -1.000000 -0.000000
vn 0.000000 -1.000000 -0.000000
vn 0.000000 -1.000000 -0.000000
vn 0.000000 -1.000000 -0.000000
vn 0.000000 -1.000000 -0.000000
vn 0.000000 -1.000000 -0.000000
vn 0.000000 -1.000000 -0.000000
vn 0.000000 -1.000000 -0.000000
vn 0.000000 -1.000000 -0.000000
vn 0.000000 -1.000000 -0.000000
vn 0.000000 -1.000000 -0.000000
vn 0.000000 -1.000000 -0.000000
vn 0.000000 -1.000000 -0.000000
vn 0.000000 -1.000000 -0.000000
vn 0.000000 -1.000000 -0.000000
vn 0.000000 -1.000000 -0.000000
vn 0.000000 -1.000000 -0.000000
vn 0.000000 -1.000000 -0.000000
vn 0.000000 -1.000000 -0.000000
vn 0.000000 -1.000000 -0.000000
vn 0.000000 -1.000000 -0.000000
vn 0.000000 -1.000000 -0.000000
vn 0.000000 -1.000000 -0.000000
vn 0.000000 -1.000000 -0.000000
vn 0.000000 -1.000000 -0.000000
vn 0.000000 -1.000000 -0.000000
vn 0.000000 -1.000000 -0.000000
vn 0.000000 -1.000000 -0.000000
vn 0.000000 -1.000000 -0.000000
vn 0.000000 -1.000000 -0.000000
vn 0.000000 -1.000000 -0.000000
vn 0.000000 -1.000000 -0.000000
vn 0.000000 -1.000000 -0.000000
vn 0.000000 -1.000000 -0.000000
vn 0.000000 -1.000000 -0.000000
vn 0.000000 -1.000000 -0.000000
vn 0.000000 -1.000000 -0.000000
vn 0.000000 -1.000000 -0.000000
vn 0.000000 -1.000000 -0.000000
vn 0.000000 -1.000000 -0.000000
vn 0.000000 -1.000000 -0.000000
vn 0.000000 -1.000000 -0.000000
vn 0.000000 -1.000000 -0.000000
vn 0.000000 -1.000000 -0.000000
vn 0.000000 -1.000000 -0.000000
vn 0.000000 -1.000000 -0.000000
vn 0.000000 -1.000000 -0.000000
vn 0.000000 -1.000000 -0.000000
vn 0.000000 -1.000000 -0.000000
vn 0.000000 -1.000000 -0.000000
vn 0.000000 -1.000000 -0.000000
vn 0.000000 -1.000000 -0.000000
vn 0.000000 -1.000000 -0.000000
vn 0.000000 -1.000000 -0.000000
vn 0.000000 -1.000000 -0.000000
vn 0.000000 -1.000000 -0.000000
vn 0.000000 -1.000000 -0.000000
vn 0.000000 -1.000000 -0.000000
vn 0.000000 -1.000000 -0.000000
vn 0.000000 -1.000000 -0.000000
vn 0.000000 -1.000000 -0.000000
vn 0.000000 -1.000000 -0.000000
vn 0.000000 -1.000000 -0.000000
vn 0.000000 -1.000000 -0.000000
vn 0.000000 -1.000000 -0.000000
vn 0.000000 -1.000000 -0.000000
vn 0.000000 -1.000000 -0.000000
vn 0.000000 -1.000000 -0.000000
vn 0.000000 -1.000000 -0.000000
vn 0.000000 -1.000000 -0.000000
vn 0.000000 -1.000000 -0.000000
vn 0.000000 -1.000000 -0.000000
vn 0.000000 -1.000000 -0.000000
vn 0.000000 -1.000000 -0.000000
vn 0.000000 -1.000000 -0.000000
vn 0.000000 -1.000000 -0.000000
vn 0.000000 -1.000000 -0.000000
vn 0.000000 -1.000000 -0.000000
vn 0.000000 -1.000000 -0.000000
f 5//5 2//2 1//1
f 2//2 3//3 1//1
f 9//9 1//1 3//3
f 1//1 7//7 4//4
f 4//4 5//5 1//1
f 1//1 11//11 6//6
f 6//6 7//7 1//1
f 10//10 1//1 8//8
f 1//1 9//9 8//8
f 1//1 10//10 12//12
f 13//13 17//17 12//12
f 12//12 10//10 13//13
f 18//18 12//12 14//14
f 12//12 15//15 14//14
f 15//15 12//12 16//16
f 12//12 17//17 16//16
f 19//19 12//12 18//18
f 23//23 18//18 14//14
f 20//20 22//22 18//18
f 18//18 21//21 20//20
f 21//21 18//18 23//23
f 26//26 22//22 24//24
f 22//22 25//25 24//24
f 27//27 25//25 22//22
f 27//27 22//22 28//28
f 22//22 30//30 28//28
f 30//30 22//22 29//29
f 29//29 22//22 20//20
f 31//31 29//29 20//20
f 32//32 31//31 20//20
f 33//33 31//31 32//32
f 34//34 33//33 32//32
f 34//34 35//35 33//33
f 35//35 34//34 36//36
f 36//36 34//34 37//37
f 39//39 38//38 37//37
f 39//39 37//37 34//34
f 41//41 39//39 40//40
f 39//39 41//41 42//42
f 42//42 38//38 39//39
f 45//45 41//41 40//40
f 43//43 41//41 44//44
f 41//41 45//45 44//44
f 43//43 44//44 46//46
f 48//48 47//47 46//46
f 43//43 46//46 47//47
f 48//48 49//49 47//47
f 50//50 47//47 49//49
f 52//52 50//50 51//51
f 47//47 50//50 52//52
f 53//53 55//55 52//52
f 53//53 52//52 54//54
f 56//56 54//54 52//52
f 56//56 52//52 51//51
f 57//57 55//55 58//58
f 58//58 55//55 53//53
f 59//59 58//58 60//60
f 59//59 57//57 58//58
f 60//60 61//61 59//59
f 59//59 61//61 62//62
f 64//64 59//59 62//62
f 63//63 64//64 62//62
f 64//64 67//67 65//65
f 65//65 66//66 64//64
f 64//64 68//68 67//67
f 63//63 68//68 64//64
f 65//65 69//69 66//66
f 66//66 69//69 5//5
f 69//69 2//2 5//5
f 72//72 47//47 70//70
f 71//71 43//43 47//47
f 47//47 73//73 71//71
f 47//47 72//72 73//73
f 70//70 74//74 72//72
f 28//28 74//74 27//27
f 27//27 74//74 70//70
f 24//24 25//25 75//75
f 76//76 24//24 75//75
f 77//77 76//76 75//75
f 75//75 78//78 77//77
f 78//78 79//79 77//77
f 80//80 81//81 79//79
f 79//79 81//81 77//77
f 82//82 81//81 80//80
f 82//82 83//83 81//81
f 81//81 83//83 85//85
f 81//81 85//85 84//84
f 86//86 84//84 85//85
f 11//11 87//87 6//6
f 88//88 90//90 91//91
f 88//88 91//91 89//89
f 89//89 91//91 92//92
f 89//89 92//92 94//94
f 94//94 92//92 93//93
f 94//94 93//93 95//95
f 95//95 93//93 97//97
f 95//95 97//97 96//96
f 96//96 97//97 100//100
f 96//96 100//100 98//98
f 98//98 100//100 101//101
f 98//98 101//101 99//99
f 99//99 101//101 102//102
f 99//99 102//102 103//103
f 103//103 102//102 104//104
f 103//103 104//104 106//106
f 106//106 104//104 105//105
f 106//106 105//105 107//107
f 107//107 105//105 109//109
f 107//107 109//109 108//108
f 108//108 109//109 112//112
f 108//108 112//112 110//110
f 110//110 112//112 113//113
f 110//110 113//113 111//111
f 111//111 113//113 114//114
f 111//111 114//114 115//115
f 115//115 114//114 116//116
f 115//115 116//116 117//117
f 117//117 116//116 118//118
f 117//117 118//118 119//119
f 119//119 118//118 120//120
f 119//119 120//120 121//121
f 123//123 170//170 124//124
f 123//123 124//124 122//122
f 125//125 122//122 124//124
f 126//126 125//125 124//124
f 126//126 127//127 125//125
f 128//128 127//127 126//126
f 128//128 129//129 127//127
f 130//130 129//129 128//128
f 130//130 131//131 129//129
f 132//132 131//131 130//130
f 135//135 132//132 133//133
f 132//132 134//134 133//133
f 130//130 134//134 132//132
f 136//136 132//132 135//135
f 136//136 137//137 139//139
f 136//136 139//139 138//138
f 136//136 135//135 137//137
f 138//138 139//139 141//141
f 138//138 141//141 140//140
f 140//140 141//141 143//143
f 143//143 141//141 142//142
f 143//143 142//142 145//145
f 141//141 139//139 164//164
f 141//141 164//164 142//142
f 144//144 140//140 143//143
f 144//144 143//143 145//145
f 144//144 145//145 146//146
f 145//145 147//147 149//149
f 145//145 149//149 146//146
f 147//147 145//145 142//142
f 147//147 142//142 148//148
f 147//147 148//148 153//153
f 147//147 153//153 150//150
f 149//149 147//147 150//150
f 149//149 150//150 152//152
f 151//151 152//152 150//150
f 150//150 153//153 151//151
f 148//148 156//156 155//155
f 148//148 155//155 153//153
f 154//154 151//151 153//153
f 153//153 155//155 154//154
f 156//156 160//160 157//157
f 156//156 157//157 155//155
f 154//154 155//155 157//157
f 154//154 157//157 159//159
f 159//159 157//157 158//158
f 161//161 158//158 157//157
f 161//161 157//157 160//160
f 162//162 163//163 161//161
f 162//162 161//161 160//160
f 156//156 164//164 162//162
f 156//156 162//162 160//160
f 162//162 137//137 135//135
f 162//162 135//135 163//163
f 139//139 137//137 162//162
f 139//139 162//162 164//164
f 164//164 156//156 148//148
f 164//164 148//148 142//142
f 135//135 133//133 165//165
f 135//135 165//165 163//163
f 165//165 167//167 161//161
f 165//165 161//161 163//163
f 133//133 134//134 166//166
f 133//133 166//166 165//165
f 167//167 165//165 166//166
f 167//167 166//166 169//169
f 167//167 169//169 170//170
f 167//167 170//170 168//168
f 161//161 167//167 168//168
f 161//161 168//168 158//158
f 169//169 126//126 124//124
f 169//169 124//124 170//170
f 169//169 166//166 128//128
f 169//169 128//128 126//126
f 168//168 170//170 123//123
f 159//159 158//158 168//168
f 159//159 168//168 123//123
f 134//134 130//130 128//128
f 134//134 128//128 166//166
f 174//174 149//149 152//152
f 174//174 152//152 171//171
f 171//171 152//152 151//151
f 171//171 151//151 172//172
f 172//172 173//173 171//171
f 175//175 174//174 171//171
f 175//175 171//171 173//173
f 174//174 176//176 146//146
f 174//174 146//146 149//149
f 176//176 174//174 175//175
f 176//176 175//175 177//177
f 178//178 144//144 146//146
f 178//178 146//146 176//176
f 179//179 178//178 176//176
f 179//179 176//176 177//177
f 140//140 144//144 178//178
f 179//179 180//180 178//178
f 178//178 180//180 140//140
f 179//179 181//181 180//180
f 182//182 180//180 181//181
f 182//182 181//181 184//184
f 183//183 185//185 182//182
f 182//182 184//184 183//183
f 186//186 185//185 183//183
f 190//190 187//187 186//186
f 190//190 186//186 188//188
f 183//183 188//188 186//186
f 190//190 188//188 189//189
f 190//190 189//189 192//192
f 183//183 184//184 189//189
f 183//183 189//189 188//188
f 191//191 187//187 190//190
f 190//190 193//193 191//191
f 190//190 192//192 194//194
f 190//190 194//194 193//193
f 195//195 191//191 193//193
f 195//195 193//193 194//194
f 195//195 194//194 196//196
f 196//196 197//197 173//173
f 196//196 173//173 172//172
f 196//196 194//194 197//197
f 198//198 175//175 173//173
f 198//198 173//173 197//197
f 192//192 198//198 197//197
f 192//192 197//197 194//194
f 198//198 199//199 177//177
f 198//198 177//177 175//175
f 199//199 198//198 192//192
f 199//199 192//192 189//189
f 181//181 179//179 177//177
f 181//181 177//177 199//199
f 184//184 181//181 199//199
f 184//184 199//199 189//189
f 200//200 203//203 201//201
f 201//201 202//202 200//200
f 203//203 205//205 204//204
f 201//201 203//203 204//204
f 207//207 204//204 205//205
f 205//205 206//206 207//207
f 208//208 207//207 206//206
f 207//207 208//208 213//213
f 207//207 213//213 209//209
f 207//207 209//209 212//212
f 207//207 212//212 204//204
f 209//209 211//211 210//210
f 209//209 210//210 220//220
f 209//209 220//220 212//212
f 213//213 211//211 209//209
f 213//213 214//214 211//211
f 214//214 215//215 216//216
f 216//216 211//211 214//214
f 211//211 216//216 217//217
f 211//211 217//217 210//210
f 216//216 218//218 217//217
f 218//218 216//216 215//215
f 220//220 218//218 219//219
f 217//217 218//218 220//220
f 212//212 220//220 221//221
f 212//212 221//221 228//228
f 220//220 222//222 221//221
f 220//220 210//210 217//217
f 220//220 219//219 222//222
f 226//226 223//223 222//222
f 226//226 222//222 219//219
f 221//221 222//222 223//223
f 221//221 223//223 224//224
f 224//224 223//223 225//225
f 225//225 223//223 226//226
f 227//227 224//224 225//225
f 202//202 201//201 228//228
f 202//202 228//228 227//227
f 224//224 227//227 228//228
f 204//204 212//212 228//228
f 204//204 228//228 201//201
f 228//228 221//221 224//224
f 230//230 253//253 231//231
f 230//230 231//231 229//229
f 232//232 229//229 231//231
f 232//232 231//231 234//234
f 232//232 234//234 233//233
f 236//236 233//233 234//234
f 235//235 233//233 236//236
f 238//238 236//236 237//237
f 237//237 236//236 234//234
f 237//237 234//234 239//239
f 236//236 238//238 235//235
f 237//237 239//239 238//238
f 243//243 240//240 238//238
f 243//243 238//238 239//239
f 241//241 242//242 240//240
f 241//241 240//240 244//244
f 244//244 240//240 243//243
f 241//241 244//244 243//243
f 241//241 243//243 245//245
f 245//245 243//243 246//246
f 245//245 246//246 249//249
f 246//246 243//243 247//247
f 247//247 243//243 239//239
f 247//247 239//239 230//230
f 248//248 249//249 246//246
f 248//248 246//246 247//247
f 248//248 250//250 249//249
f 249//249 250//250 251//251
f 249//249 251//251 245//245
f 252//252 241//241 245//245
f 252//252 245//245 251//251
f 241//241 252//252 242//242
f 230//230 239//239 253//253
f 239//239 234//234 231//231
f 239//239 231//231 253//253
f 255//255 254//254 256//256
f 258//258 256//256 257//257
f 255//255 256//256 258//258
f 259//259 260//260 258//258
f 258//258 260//260 255//255
f 255//255 260//260 261//261
f 263//263 264//264 262//262
f 265//265 262//262 264//264
f 268//268 266//266 265//265
f 265//265 264//264 267//267
f 268//268 265//265 267//267
f 270//270 268//268 269//269
f 269//269 268//268 267//267
f 269//269 267//267 273//273
f 268//268 270//270 266//266
f 269//269 271//271 270//270
f 271//271 269//269 273//273
f 273//273 272//272 271//271
f 272//272 274//274 271//271
f 276//276 271//271 274//274
f 271//271 276//276 275//275
f 277//277 275//275 276//276
f 277//277 276//276 274//274
f 277//277 274//274 280//280
f 275//275 277//277 279//279
f 278//278 279//279 277//277
f 278//278 277//277 280//280
f 281//281 278//278 280//280
f 281//281 280//280 282//282
f 280//280 274//274 284//284
f 280//280 284//284 282//282
f 283//283 281//281 282//282
f 283//283 282//282 284//284
f 283//283 284//284 285//285
f 274//274 272//272 284//284
f 284//284 272//272 285//285
f 286//286 272//272 273//273
f 273//273 267//267 264//264
f 273//273 264//264 286//286
f 286//286 264//264 263//263
f 272//272 286//286 263//263
f 287//287 288//288 290//290
f 288//288 287//287 289//289
f 292//292 290//290 291//291
f 291//291 290//290 288//288
f 293//293 290//290 292//292
f 292//292 294//294 293//293
f 296//296 295//295 294//294
f 296//296 294//294 292//292
f 297//297 295//295 296//296
f 298//298 297//297 296//296
f 299//299 297//297 298//298
f 300//300 299//299 298//298
f 300//300 302//302 301//301
f 302//302 300//300 303//303
f 298//298 303//303 300//300
f 303//303 304//304 305//305
f 303//303 305//305 302//302
f 298//298 296//296 304//304
f 298//298 304//304 303//303
f 296//296 292//292 291//291
f 296//296 291//291 304//304
f 304//304 291//291 288//288
f 304//304 288//288 305//305
f 305//305 306//306 302//302
f 307//307 305//305 288//288
f 307//307 288//288 289//289
f 305//305 307//307 306//306
f 301//301 302//302 306//306
f 309//309 308//308 310//310
f 312//312 309//309 310//310
f 311//311 313//313 310//310
f 310//310 313//313 312//312
f 313//313 314//314 317//317
f 319//319 314//314 313//313
f 319//319 313//313 315//315
f 315//315 313//313 316//316
f 315//315 316//316 323//323
f 313//313 311//311 316//316
f 313//313 317//317 312//312
f 317//317 319//319 318//318
f 319//319 317//317 314//314
f 320//320 318//318 319//319
f 315//315 321//321 320//320
f 315//315 320//320 319//319
f 323//323 322//322 321//321
f 323//323 321//321 315//315
f 324//324 322//322 323//323
f 324//324 323//323 316//316
f 324//324 316//316 311//311
f 325//325 309//309 312//312
f 327//327 326//326 328//328
f 328//328 329//329 331//331
f 332//332 328//328 330//330
f 330//330 328//328 331//331
f 332//332 327//327 328//328
f 332//332 333//333 327//327
f 330//330 331//331 334//334
f 335//335 337//337 338//338
f 335//335 338//338 336//336
f 339//339 341//341 336//336
f 339//339 336//336 338//338
f 341//341 339//339 340//340
f 341//341 340//340 342//342
f 344//344 346//346 343//343
f 344//344 343//343 345//345
f 347//347 346//346 344//344
f 344//344 348//348 347//347
f 348//348 349//349 347//347
f 350//350 349//349 348//348
f 350//350 348//348 351//351
f 353//353 352//352 351//351
f 348//348 353//353 351//351
f 353//353 348//348 344//344
f 353//353 344//344 356//356
f 355//355 353//353 354//354
f 354//354 353//353 356//356
f 354//354 356//356 357//357
f 352//352 353//353 355//355
f 358//358 356//356 344//344
f 358//358 344//344 345//345
f 356//356 359//359 357//357
f 356//356 358//358 359//359
f 359//359 358//358 360//360
f 360//360 361//361 359//359
f 363//363 357//357 359//359
f 363//363 359//359 361//361
f 361//361 360//360 362//362
f 365//365 363//363 361//361
f 365//365 361//361 362//362
f 363//363 364//364 354//354
f 363//363 354//354 357//357
f 364//364 363//363 365//365
f 364//364 365//365 367//367
f 366//366 365//365 362//362
f 366//366 362//362 406//406
f 366//366 368//368 367//367
f 366//366 367//367 365//365
f 369//369 370//370 364//364
f 369//369 364//364 367//367
f 371//371 369//369 367//367
f 371//371 367//367 368//368
f 372//372 370//370 369//369
f 372//372 369//369 371//371
f 352//352 355//355 370//370
f 352//352 370//370 372//372
f 371//371 373//373 372//372
f 373//373 371//371 374//374
f 377//377 375//375 373//373
f 377//377 373//373 374//374
f 378//378 375//375 376//376
f 375//375 377//377 376//376
f 378//378 379//379 380//380
f 379//379 378//378 376//376
f 381//381 378//378 380//380
f 383//383 382//382 381//381
f 383//383 381//381 380//380
f 382//382 383//383 384//384
f 383//383 380//380 386//386
f 383//383 386//386 384//384
f 385//385 384//384 386//386
f 387//387 384//384 385//385
f 387//387 382//382 384//384
f 390//390 388//388 387//387
f 390//390 387//387 385//385
f 389//389 388//388 390//390
f 390//390 393//393 389//389
f 390//390 385//385 412//412
f 390//390 412//412 391//391
f 390//390 391//391 398//398
f 390//390 398//398 392//392
f 390//390 392//392 393//393
f 389//389 393//393 394//394
f 389//389 394//394 396//396
f 393//393 392//392 397//397
f 393//393 397//397 394//394
f 395//395 394//394 397//397
f 394//394 395//395 396//396
f 397//397 392//392 398//398
f 398//398 399//399 397//397
f 397//397 399//399 395//395
f 399//399 401//401 403//403
f 399//399 403//403 400//400
f 401//401 399//399 398//398
f 391//391 402//402 401//401
f 391//391 401//401 398//398
f 402//402 404//404 403//403
f 402//402 403//403 401//401
f 408//408 405//405 403//403
f 408//408 403//403 404//404
f 400//400 403//403 405//405
f 400//400 405//405 407//407
f 407//407 405//405 406//406
f 408//408 366//366 406//406
f 408//408 406//406 405//405
f 368//368 366//366 408//408
f 368//368 408//408 409//409
f 410//410 409//409 408//408
f 410//410 408//408 404//404
f 374//374 371//371 368//368
f 374//374 368//368 409//409
f 374//374 409//409 410//410
f 374//374 410//410 377//377
f 402//402 411//411 410//410
f 402//402 410//410 404//404
f 376//376 377//377 410//410
f 376//376 410//410 411//411
f 379//379 376//376 411//411
f 379//379 411//411 412//412
f 411//411 402//402 391//391
f 411//411 391//391 412//412
f 386//386 379//379 412//412
f 386//386 412//412 385//385
f 407//407 406//406 362//362
f 407//407 362//362 360//360
f 380//380 379//379 386//386
f 370//370 355//355 354//354
f 370//370 354//354 364//364
f 414//414 416//416 415//415
f 414//414 415//415 413//413
f 414//414 417//417 416//416
f 414//414 418//418 417//417
f 419//419 420//420 418//418
f 414//414 419//419 418//418
f 422//422 421//421 423//423
f 422//422 423//423 424//424
f 425//425 422//422 424//424
f 424//424 426//426 425//425
f 429//429 428//428 426//426
f 429//429 426//426 427//427
f 426//426 428//428 425//425
f 433//433 431//431 430//430
f 433//433 430//430 432//432
f 435//435 434//434 436//436
f 435//435 436//436 437//437
f 439//439 435//435 437//437
f 439//439 437//437 438//438
f 440//440 442//442 443//443
f 440//440 443//443 441//441
f 445//445 444//444 446//446
f 445//445 446//446 447//447
f 449//449 445//445 447//447
f 449//449 447//447 448//448
f 451//451 452//452 450//450
f 453//453 452//452 454//454
f 452//452 451//451 454//454
f 456//456 454//454 451//451
f 456//456 451//451 457//457
f 472//472 453//453 454//454
f 472//472 454//454 455//455
f 458//458 455//455 454//454
f 458//458 454//454 456//456
f 456//456 457//457 459//459
f 460//460 458//458 456//456
f 459//459 460//460 456//456
f 463//463 460//460 459//459
f 461//461 460//460 464//464
f 460//460 461//461 462//462
f 462//462 458//458 460//460
f 463//463 464//464 460//460
f 465//465 470//470 466//466
f 465//465 466//466 462//462
f 461//461 465//465 462//462
f 462//462 466//466 455//455
f 462//462 455//455 458//458
f 467//467 466//466 470//470
f 468//468 466//466 467//467
f 466//466 468//468 469//469
f 469//469 455//455 466//466
f 467//467 470//470 471//471
f 472//472 455//455 469//469
f 474//474 473//473 475//475
f 474//474 475//475 476//476
f 478//478 474//474 476//476
f 478//478 476//476 477//477
f 480//480 478//478 477//477
f 480//480 477//477 479//479
f 482//482 480//480 479//479
f 482//482 479//479 481//481
f 484//484 482//482 481//481
f 484//484 481//481 483//483
f 486//486 484//484 483//483
f 486//486 483//483 485//485
f 490//490 487//487 488//488
f 490//490 488//488 493//493
f 488//488 487//487 489//489
f 490//490 495//495 491//491
f 492//492 490//490 491//491
f 492//492 491//491 496//496
f 490//490 493//493 494//494
f 490//490 494//494 495//495
f 492//492 496//496 497//497
f 501//501 499//499 498//498
f 501//501 498//498 500//500
f 503//503 505//505 504//504
f 503//503 504//504 502//502
f 507//507 509//509 508//508
f 507//507 508//508 506//506
f 511//511 513//513 512//512
f 511//511 512//512 510//510
f 515//515 517//517 516//516
f 515//515 516//516 514//514
f 519//519 518//518 517//517
f 519//519 517//517 515//515
f 521//521 523//523 522//522
f 521//521 522//522 520//520
f 525//525 524//524 523//523
f 525//525 523//523 521//521
f 527//527 529//529 528//528
f 527//527 528//528 526//526
f 531//531 530//530 532//532
f 531//531 532//532 533//533
f 535//535 531//531 533//533
f 535//535 533//533 534//534
f 537//537 535//535 534//534
f 537//537 534//534 536//536
f 539//539 537//537 536//536
f 539//539 536//536 538//538
f 541//541 539//539 538//538
f 541//541 538//538 540//540
f 543//543 541//541 540//540
f 543//543 540//540 542//542
f 545//545 543//543 542//542
f 545//545 542//542 544//544
f 547//547 545//545 544//544
f 547//547 544//544 546//546
f 549//549 551//551 550//550
f 549//549 550//550 548//548
f 553//553 552//552 554//554
f 553//553 554//554 555//555
f 559//559 557//557 556//556
f 559//559 556//556 558//558
f 561//561 560//560 562//562
f 561//561 562//562 563//563
f 567//567 561//561 563//563
f 567//567 563//563 564//564
f 565//565 566//566 564//564
f 564//564 566//566 567//567
f 566//566 568//568 567//567
f 569//569 571//571 572//572
f 569//569 572//572 570//570
f 571//571 573//573 574//574
f 571//571 574//574 572//572
f 573//573 575//575 576//576
f 573//573 576//576 574//574
f 578//578 576//576 575//575
f 578//578 575//575 577//577
f 577//577 579//579 581//581
f 577//577 581//581 578//578
f 579//579 580//580 582//582
f 579//579 582//582 581//581
f 580//580 584//584 583//583
f 580//580 583//583 582//582
f 585//585 587//587 588//588
f 585//585 588//588 586//586
f 589//589 591//591 592//592
f 589//589 592//592 590//590
f 593//593 592//592 591//591
f 594//594 592//592 593//593
f 594//594 595//595 592//592
f 595//595 596//596 592//592
f 597//597 598//598 596//596
f 598//598 592//592 596//596
f 598//598 600//600 599//599
f 600//600 598//598 597//597
f 599//599 600//600 601//601
f 601//601 600//600 602//602
f 604//604 603//603 602//602
f 603//603 601//601 602//602
f 604//604 607//607 603//603
f 604//604 605//605 607//607
f 605//605 604//604 606//606
f 603//603 607//607 608//608
f 608//608 609//609 603//603
f 610//610 611//611 609//609
f 609//609 611//611 603//603
f 611//611 614//614 603//603
f 612//612 611//611 610//610
f 614//614 611//611 613//613
f 616//616 614//614 615//615
f 614//614 617//617 615//615
f 618//618 617//617 614//614
f 613//613 618//618 614//614
f 615//615 617//617 619//619
f 619//619 620//620 615//615
f 615//615 620//620 621//621
f 622//622 615//615 621//621
f 615//615 622//622 623//623
f 623//623 624//624 625//625
f 625//625 615//615 623//623
f 629//629 625//625 626//626
f 626//626 625//625 627//627
f 631//631 627//627 625//625
f 625//625 628//628 630//630
f 628//628 625//625 629//629
f 625//625 630//630 632//632
f 625//625 624//624 631//631
f 633//633 632//632 630//630
f 632//632 633//633 634//634
f 636//636 629//629 635//635
f 635//635 629//629 626//626
f 638//638 637//637 636//636
f 638//638 636//636 635//635
f 637//637 638//638 639//639
f 637//637 639//639 640//640
f 641//641 637//637 640//640
f 641//641 642//642 637//637
f 637//637 642//642 643//643
f 643//643 642//642 644//644
f 645//645 643//643 644//644
f 643//643 645//645 646//646
f 646//646 647//647 648//648
f 649//649 646//646 648//648
f 643//643 646//646 649//649
f 647//647 650//650 648//648
f 650//650 654//654 651//651
f 647//647 652//652 650//650
f 653//653 650//650 652//652
f 653//653 655//655 650//650
f 650//650 655//655 654//654
f 654//654 656//656 651//651
f 657//657 651//651 656//656
f 651//651 657//657 658//658
f 651//651 658//658 659//659
f 659//659 658//658 660//660
f 659//659 660//660 661//661
f 662//662 661//661 660//660
f 663//663 661//661 662//662
f 663//663 664//664 661//661
f 661//661 664//664 665//665
f 664//664 666//666 665//665
f 667//667 666//666 664//664
f 668//668 667//667 664//664
f 671//671 669//669 668//668
f 669//669 670//670 668//668
f 667//667 668//668 670//670
f 668//668 612//612 671//671
f 671//671 612//612 610//610
f 659//659 672//672 651//651
f 651//651 672//672 673//673
f 651//651 673//673 674//674
f 674//674 605//605 606//606
f 674//674 606//606 651//651
f 675//675 601//601 603//603
