# arm_35 exported from /models/landings/arm_35.glb
# units: meters
v 0.014009 0.001000 -0.019053
v 0.014009 0.001000 -0.025000
v 0.011009 0.001000 -0.020000
v 0.013745 0.001000 -0.018377
v 0.013437 0.001000 -0.018150
v 0.013946 0.001000 -0.018703
v 0.013093 0.001000 -0.018057
v 0.009619 0.001000 -0.017190
v 0.009009 0.001000 -0.020000
v 0.009375 0.001000 -0.017042
v 0.009175 0.001000 -0.016821
v 0.009050 0.001000 -0.016551
v 0.009009 0.001000 -0.016269
v 0.002009 0.001000 -0.020000
v 0.009009 0.001000 -0.014455
v 0.006009 0.001000 -0.010000
v 0.006009 0.001000 0.010000
v 0.004009 0.001000 -0.010000
v 0.009009 0.001000 -0.012000
v 0.009009 0.001000 0.012000
v 0.009009 0.001000 0.014456
v 0.009009 0.001000 0.016270
v 0.009009 0.001000 0.020000
v 0.009050 0.001000 0.016552
v 0.002009 0.001000 0.020000
v 0.000009 0.001000 0.020000
v 0.004009 0.001000 0.010000
v 0.000068 0.001000 0.010164
v 0.002009 0.001000 0.027000
v 0.009009 0.001000 0.027000
v 0.001009 0.001000 0.000000
v -0.006519 0.001000 0.022806
v -0.003608 0.001000 0.023555
v -0.004798 0.001000 0.026363
v -0.003139 0.001000 0.024245
v -0.001727 0.001000 0.026860
v -0.002991 0.001000 0.025000
v -0.002405 0.001000 0.026415
v -0.002850 0.001000 0.025737
v -0.000991 0.001000 0.027000
v 0.000009 0.001000 0.027000
v -0.006376 0.001000 0.027872
v -0.009149 0.001000 0.029323
v -0.008519 0.001000 0.022806
v -0.007772 0.001000 0.017016
v -0.012174 0.001000 0.022723
v -0.001932 0.001000 0.010164
v -0.004043 0.001000 0.000000
v -0.000991 0.001000 0.000000
v -0.001932 0.001000 -0.010086
v -0.007772 0.001000 -0.017015
v -0.008519 0.001000 -0.022194
v -0.009149 0.001000 -0.029322
v -0.006519 0.001000 -0.022194
v -0.006376 0.001000 -0.027871
v -0.012174 0.001000 -0.022722
v -0.012843 0.001000 -0.029994
v -0.014645 0.001000 -0.024270
v -0.012991 0.001000 -0.030000
v -0.015991 0.001000 -0.030000
v -0.017104 0.001000 -0.024949
v -0.017991 0.001000 -0.025943
v -0.016991 0.001000 -0.030000
v -0.017440 0.001000 -0.025049
v -0.017737 0.001000 -0.025277
v -0.017930 0.001000 -0.025598
v -0.017359 0.001000 -0.029929
v -0.017991 0.001000 -0.029000
v -0.017698 0.001000 -0.029707
v -0.017921 0.001000 -0.029368
v -0.004798 0.001000 -0.026362
v -0.003608 0.001000 -0.023555
v -0.003139 0.001000 -0.024244
v 0.000009 0.001000 -0.020000
v 0.000068 0.001000 -0.010086
v -0.001727 0.001000 -0.026859
v -0.000991 0.001000 -0.027000
v 0.000009 0.001000 -0.027000
v -0.002991 0.001000 -0.025000
v -0.002405 0.001000 -0.026414
v -0.002850 0.001000 -0.025736
v -0.012843 0.001000 0.029995
v -0.014645 0.001000 0.024271
v -0.015991 0.001000 0.030000
v -0.017104 0.001000 0.024950
v -0.012991 0.001000 0.030000
v -0.017440 0.001000 0.025050
v -0.017991 0.001000 0.025943
v -0.016991 0.001000 0.030000
v -0.017991 0.001000 0.029000
v -0.017359 0.001000 0.029930
v -0.017698 0.001000 0.029707
v -0.017921 0.001000 0.029368
v -0.017930 0.001000 0.025599
v -0.017737 0.001000 0.025278
v 0.009175 0.001000 0.016822
v 0.009375 0.001000 0.017043
v 0.009619 0.001000 0.017190
v 0.011009 0.001000 0.020000
v 0.013093 0.001000 0.018058
v 0.014009 0.001000 0.019054
v 0.013437 0.001000 0.018150
v 0.013745 0.001000 0.018377
v 0.013946 0.001000 0.018703
v 0.014009 0.001000 0.025000
v 0.012745 0.001000 0.026860
v 0.013423 0.001000 0.026415
v 0.013869 0.001000 0.025737
v 0.012009 0.001000 0.027000
v 0.011009 0.001000 0.027000
v 0.002009 0.001000 -0.027000
v 0.009009 0.001000 -0.027000
v 0.012745 0.001000 -0.026859
v 0.012009 0.001000 -0.027000
v 0.011009 0.001000 -0.027000
v 0.013423 0.001000 -0.026414
v 0.013869 0.001000 -0.025736
v -0.008519 0.001000 0.022806
v -0.008519 -0.001000 0.022806
v -0.008519 0.001000 -0.022194
v -0.006034 0.001000 0.019277
v -0.004167 0.001000 0.016020
v -0.001932 0.001000 0.010164
v -0.001108 0.001000 0.004927
v -0.000991 0.001000 0.000000
v -0.001108 0.001000 -0.004917
v -0.001932 0.001000 -0.010086
v -0.004167 0.001000 -0.015761
v -0.006034 0.001000 -0.018867
v -0.008519 -0.001000 -0.022194
v -0.006034 -0.001000 -0.018867
v -0.004167 -0.001000 -0.015761
v -0.001932 -0.001000 -0.010086
v -0.001108 -0.001000 -0.004917
v -0.000991 -0.001000 0.000000
v -0.001108 -0.001000 0.004927
v -0.001932 -0.001000 0.010164
v -0.004167 -0.001000 0.016020
v -0.006034 -0.001000 0.019277
v -0.008519 0.001000 -0.022194
v -0.008519 -0.001000 -0.022194
v -0.006519 0.001000 -0.022194
v -0.006519 -0.001000 -0.022194
v -0.006519 0.001000 -0.022194
v -0.004034 0.001000 -0.018867
v -0.006519 -0.001000 -0.022194
v -0.004034 -0.001000 -0.018867
v -0.002167 -0.001000 -0.015761
v 0.000068 -0.001000 -0.010086
v -0.002167 0.001000 -0.015761
v 0.000068 0.001000 -0.010086
v 0.000892 0.001000 -0.004917
v 0.000892 -0.001000 -0.004917
v 0.001009 0.001000 0.000000
v 0.001009 -0.001000 0.000000
v 0.000892 0.001000 0.004927
v 0.000892 -0.001000 0.004927
v 0.000068 0.001000 0.010164
v -0.002167 0.001000 0.016020
v 0.000068 -0.001000 0.010164
v -0.002167 -0.001000 0.016020
v -0.004034 -0.001000 0.019277
v -0.004034 0.001000 0.019277
v -0.006519 -0.001000 0.022806
v -0.006519 0.001000 0.022806
v -0.006519 0.001000 0.022806
v -0.006519 -0.001000 0.022806
v -0.008519 0.001000 0.022806
v -0.008519 -0.001000 0.022806
v 0.006009 -0.001000 0.010000
v 0.006009 0.001000 0.010000
v 0.004009 -0.001000 0.010000
v 0.004009 0.001000 0.010000
v 0.004009 -0.001000 0.010000
v 0.004009 0.001000 0.010000
v 0.004009 -0.001000 -0.010000
v 0.004009 0.001000 -0.010000
v 0.004009 -0.001000 -0.010000
v 0.004009 0.001000 -0.010000
v 0.006009 -0.001000 -0.010000
v 0.006009 0.001000 -0.010000
v 0.006009 -0.001000 0.010000
v 0.006009 -0.001000 -0.010000
v 0.006009 0.001000 0.010000
v 0.006009 0.001000 -0.010000
v -0.003608 0.001000 0.023555
v -0.003608 0.000000 0.023555
v -0.004878 0.001000 0.026472
v -0.004878 -0.001000 0.026472
v -0.007120 0.001000 0.028360
v -0.007120 -0.001000 0.028360
v -0.009931 0.001000 0.029566
v -0.009931 -0.001000 0.029566
v -0.012991 0.001000 0.030000
v -0.012991 -0.001000 0.030000
v -0.003608 -0.001000 0.023555
v -0.002991 -0.001000 0.025000
v -0.002991 0.000000 0.025000
v -0.002841 -0.001000 0.025760
v -0.002841 0.001000 0.025760
v -0.002390 -0.001000 0.026429
v -0.002390 0.001000 0.026429
v -0.001718 -0.001000 0.026864
v -0.001718 0.001000 0.026864
v -0.000991 -0.001000 0.027000
v -0.000991 0.001000 0.027000
v -0.002991 0.001000 0.025000
v -0.000991 -0.001000 0.027000
v -0.000991 0.001000 0.027000
v 0.000009 -0.001000 0.027000
v 0.000009 0.001000 0.027000
v 0.000009 -0.001000 0.027000
v 0.000009 0.001000 0.027000
v 0.000009 -0.001000 0.020000
v 0.000009 0.001000 0.020000
v 0.000009 -0.001000 0.020000
v 0.000009 0.001000 0.020000
v 0.002009 -0.001000 0.020000
v 0.002009 0.001000 0.020000
v 0.002009 -0.001000 0.020000
v 0.002009 0.001000 0.020000
v 0.002009 -0.001000 0.027000
v 0.002009 0.001000 0.027000
v 0.002009 -0.001000 0.027000
v 0.002009 0.001000 0.027000
v 0.009009 -0.001000 0.027000
v 0.009009 0.001000 0.027000
v 0.009009 -0.001000 0.027000
v 0.009009 0.001000 0.027000
v 0.009009 -0.001000 0.020000
v 0.009009 0.001000 0.020000
v 0.009009 -0.001000 0.020000
v 0.009009 0.001000 0.020000
v 0.011009 -0.001000 0.020000
v 0.011009 0.001000 0.020000
v 0.011009 -0.001000 0.020000
v 0.011009 0.001000 0.020000
v 0.011009 -0.001000 0.027000
v 0.011009 0.001000 0.027000
v 0.011009 -0.001000 0.027000
v 0.011009 0.001000 0.027000
v 0.012009 -0.001000 0.027000
v 0.012009 0.001000 0.027000
v 0.012009 -0.001000 0.027000
v 0.012769 -0.001000 0.026850
v 0.012009 0.001000 0.027000
v 0.012769 0.001000 0.026850
v 0.013438 0.001000 0.026400
v 0.013438 -0.001000 0.026400
v 0.013872 0.001000 0.025727
v 0.013872 -0.001000 0.025727
v 0.014009 0.001000 0.025000
v 0.014009 -0.001000 0.025000
v 0.014009 -0.001000 -0.019053
v 0.014009 0.001000 -0.019053
v 0.014009 -0.001000 -0.025000
v 0.014009 0.001000 -0.025000
v 0.014009 -0.001000 -0.025000
v 0.013859 -0.001000 -0.025759
v 0.014009 0.001000 -0.025000
v 0.013859 0.001000 -0.025759
v 0.013409 0.001000 -0.026428
v 0.013409 -0.001000 -0.026428
v 0.012736 0.001000 -0.026863
v 0.012736 -0.001000 -0.026863
v 0.012009 0.001000 -0.027000
v 0.012009 -0.001000 -0.027000
v 0.012009 -0.001000 -0.027000
v 0.012009 0.001000 -0.027000
v 0.011009 -0.001000 -0.027000
v 0.011009 0.001000 -0.027000
v 0.011009 -0.001000 -0.027000
v 0.011009 0.001000 -0.027000
v 0.011009 -0.001000 -0.020000
v 0.011009 0.001000 -0.020000
v 0.011009 -0.001000 -0.020000
v 0.011009 0.001000 -0.020000
v 0.009009 -0.001000 -0.020000
v 0.009009 0.001000 -0.020000
v 0.009009 -0.001000 -0.020000
v 0.009009 0.001000 -0.020000
v 0.009009 -0.001000 -0.027000
v 0.009009 0.001000 -0.027000
v 0.009009 -0.001000 -0.027000
v 0.009009 0.001000 -0.027000
v 0.002009 -0.001000 -0.027000
v 0.002009 0.001000 -0.027000
v 0.002009 -0.001000 -0.027000
v 0.002009 0.001000 -0.027000
v 0.002009 -0.001000 -0.020000
v 0.002009 0.001000 -0.020000
v 0.002009 -0.001000 -0.020000
v 0.002009 0.001000 -0.020000
v 0.000009 -0.001000 -0.020000
v 0.000009 0.001000 -0.020000
v 0.000009 -0.001000 -0.020000
v 0.000009 0.001000 -0.020000
v 0.000009 -0.001000 -0.027000
v 0.000009 0.001000 -0.027000
v 0.000009 -0.001000 -0.027000
v 0.000009 0.001000 -0.027000
v -0.000991 -0.001000 -0.027000
v -0.000991 0.001000 -0.027000
v -0.000991 -0.001000 -0.027000
v -0.001751 -0.001000 -0.026850
v -0.000991 0.001000 -0.027000
v -0.001751 0.001000 -0.026850
v -0.002420 0.001000 -0.026399
v -0.002420 -0.001000 -0.026399
v -0.002854 0.001000 -0.025726
v -0.002854 -0.001000 -0.025726
v -0.002991 0.001000 -0.025000
v -0.002991 0.000000 -0.025000
v -0.002991 -0.001000 -0.025000
v 0.014009 -0.001000 0.025000
v 0.014009 0.001000 0.025000
v 0.014009 -0.001000 0.019054
v 0.014009 0.001000 0.019054
v -0.016991 0.001000 -0.030000
v -0.016991 -0.001000 -0.030000
v -0.012991 0.001000 -0.030000
v -0.012991 -0.001000 -0.030000
v -0.012991 0.001000 -0.030000
v -0.009891 0.001000 -0.029554
v -0.012991 -0.001000 -0.030000
v -0.009891 -0.001000 -0.029554
v -0.007077 -0.001000 -0.028333
v -0.007077 0.001000 -0.028333
v -0.004827 -0.001000 -0.026402
v -0.004827 0.001000 -0.026402
v -0.003608 -0.001000 -0.023555
v -0.003608 0.000000 -0.023555
v -0.003608 0.001000 -0.023555
v -0.003608 -0.001000 0.023555
v -0.003608 0.000000 0.023555
v -0.003146 -0.001000 0.024228
v -0.003146 0.001000 0.024228
v -0.002991 0.000000 0.025000
v -0.002991 -0.001000 0.025000
v -0.002991 0.001000 0.025000
v -0.003608 0.001000 0.023555
v -0.002991 -0.001000 -0.025000
v -0.002991 0.000000 -0.025000
v -0.003148 -0.001000 -0.024223
v -0.003148 0.001000 -0.024223
v -0.003608 -0.001000 -0.023555
v -0.003608 0.000000 -0.023555
v -0.003608 0.001000 -0.023555
v -0.002991 0.001000 -0.025000
v -0.004043 0.001000 0.000000
v -0.004255 0.001000 0.004343
v -0.004043 -0.001000 0.000000
v -0.004255 -0.001000 0.004343
v -0.004934 -0.001000 0.008792
v -0.004934 0.001000 0.008792
v -0.006113 -0.001000 0.013105
v -0.006113 0.001000 0.013105
v -0.007772 -0.001000 0.017016
v -0.009834 -0.001000 0.020280
v -0.007772 0.001000 0.017016
v -0.009834 0.001000 0.020280
v -0.012174 0.001000 0.022723
v -0.012174 -0.001000 0.022723
v -0.014645 0.001000 0.024271
v -0.017104 0.000000 0.024950
v -0.017104 0.001000 0.024950
v -0.014645 -0.001000 0.024271
v -0.017104 -0.001000 0.024950
v -0.017991 0.001000 0.029000
v -0.017991 -0.001000 0.029000
v -0.017991 0.001000 0.025943
v -0.017991 -0.001000 0.025943
v -0.017104 0.001000 -0.024949
v -0.017104 0.000000 -0.024949
v -0.014645 0.001000 -0.024270
v -0.012174 0.001000 -0.022722
v -0.014645 -0.001000 -0.024270
v -0.017104 -0.001000 -0.024949
v -0.012174 -0.001000 -0.022722
v -0.009834 -0.001000 -0.020279
v -0.009834 0.001000 -0.020279
v -0.007772 -0.001000 -0.017015
v -0.006113 -0.001000 -0.013104
v -0.007772 0.001000 -0.017015
v -0.006113 0.001000 -0.013104
v -0.004934 0.001000 -0.008791
v -0.004255 0.001000 -0.004343
v -0.004934 -0.001000 -0.008791
v -0.004255 -0.001000 -0.004343
v -0.004043 -0.001000 0.000000
v -0.004043 0.001000 0.000000
v -0.017991 -0.001000 -0.025943
v -0.017930 -0.001000 -0.025598
v -0.017991 0.001000 -0.025943
v -0.017930 0.001000 -0.025598
v -0.017737 0.001000 -0.025277
v -0.017737 -0.001000 -0.025277
v -0.017440 0.001000 -0.025049
v -0.017104 0.001000 -0.024949
v -0.017104 0.000000 -0.024949
v -0.017440 -0.001000 -0.025049
v -0.017104 -0.001000 -0.024949
v -0.012991 0.001000 0.030000
v -0.012991 -0.001000 0.030000
v -0.016991 0.001000 0.030000
v -0.016991 -0.001000 0.030000
v -0.016991 -0.001000 0.030000
v -0.017359 -0.001000 0.029930
v -0.016991 0.001000 0.030000
v -0.017359 0.001000 0.029930
v -0.017698 0.001000 0.029707
v -0.017698 -0.001000 0.029707
v -0.017921 0.001000 0.029368
v -0.017991 0.001000 0.029000
v -0.017921 -0.001000 0.029368
v -0.017991 -0.001000 0.029000
v -0.017991 0.001000 0.025943
v -0.017930 0.001000 0.025599
v -0.017991 -0.001000 0.025943
v -0.017930 -0.001000 0.025599
v -0.017737 -0.001000 0.025278
v -0.017737 0.001000 0.025278
v -0.017440 -0.001000 0.025050
v -0.017440 0.001000 0.025050
v -0.017104 -0.001000 0.024950
v -0.017104 0.000000 0.024950
v -0.017104 0.001000 0.024950
v -0.017991 -0.001000 -0.025943
v -0.017991 -0.001000 -0.029000
v -0.017991 0.001000 -0.025943
v -0.017991 0.001000 -0.029000
v -0.017991 -0.001000 -0.029000
v -0.017921 -0.001000 -0.029368
v -0.017991 0.001000 -0.029000
v -0.017921 0.001000 -0.029368
v -0.017698 0.001000 -0.029707
v -0.017698 -0.001000 -0.029707
v -0.017359 0.001000 -0.029929
v -0.017359 -0.001000 -0.029929
v -0.016991 0.001000 -0.030000
v -0.016991 -0.001000 -0.030000
v 0.009009 0.001000 0.016270
v 0.009009 0.001000 -0.016269
v 0.009009 0.000000 0.016270
v 0.009009 0.000000 -0.016269
v 0.009009 -0.001000 0.016270
v 0.009009 -0.001000 -0.016269
v 0.009619 0.001000 0.017190
v 0.009619 0.000333 0.017190
v 0.011369 0.001000 0.017774
v 0.009619 -0.000333 0.017190
v 0.013093 0.001000 0.018058
v 0.011369 -0.001000 0.017774
v 0.013093 0.000000 0.018058
v 0.013093 -0.001000 0.018058
v 0.009619 -0.001000 0.017190
v 0.009619 0.001000 -0.017190
v 0.009619 0.000333 -0.017190
v 0.010494 0.001000 -0.017520
v 0.009619 -0.000333 -0.017190
v 0.010494 -0.001000 -0.017520
v 0.011369 0.001000 -0.017773
v 0.011369 -0.001000 -0.017773
v 0.012236 0.001000 -0.017951
v 0.012236 -0.001000 -0.017951
v 0.013093 0.000000 -0.018057
v 0.013093 0.001000 -0.018057
v 0.013093 -0.001000 -0.018057
v 0.009619 -0.001000 -0.017190
v 0.009009 -0.001000 0.016270
v 0.009050 -0.001000 0.016552
v 0.009009 0.000000 0.016270
v 0.009050 0.001000 0.016552
v 0.009009 0.001000 0.016270
v 0.009178 0.000000 0.016825
v 0.009175 0.001000 0.016822
v 0.009375 0.001000 0.017043
v 0.009377 0.000000 0.017044
v 0.009619 0.001000 0.017190
v 0.009619 0.000333 0.017190
v 0.009619 -0.000333 0.017190
v 0.009619 -0.001000 0.017190
v 0.009375 -0.001000 0.017043
v 0.009175 -0.001000 0.016822
v 0.009009 0.001000 -0.016269
v 0.009050 0.001000 -0.016551
v 0.009009 0.000000 -0.016269
v 0.009050 -0.001000 -0.016551
v 0.009009 -0.001000 -0.016269
v 0.009178 0.000000 -0.016825
v 0.009175 -0.001000 -0.016821
v 0.009375 -0.001000 -0.017042
v 0.009377 0.000000 -0.017043
v 0.009619 -0.001000 -0.017190
v 0.009619 -0.000333 -0.017190
v 0.009619 0.000333 -0.017190
v 0.009619 0.001000 -0.017190
v 0.009375 0.001000 -0.017042
v 0.009175 0.001000 -0.016821
v 0.014009 -0.001000 0.019054
v 0.013946 -0.001000 0.018703
v 0.014009 0.001000 0.019054
v 0.013946 0.001000 0.018703
v 0.013745 0.001000 0.018377
v 0.013745 -0.001000 0.018377
v 0.013437 0.001000 0.018150
v 0.013093 0.001000 0.018058
v 0.013093 0.000000 0.018058
v 0.013437 -0.001000 0.018150
v 0.013093 -0.001000 0.018058
v 0.014009 0.001000 -0.019053
v 0.013946 0.001000 -0.018703
v 0.014009 -0.001000 -0.019053
v 0.013946 -0.001000 -0.018703
v 0.013745 -0.001000 -0.018377
v 0.013437 -0.001000 -0.018150
v 0.013745 0.001000 -0.018377
v 0.013437 0.001000 -0.018150
v 0.013093 0.001000 -0.018057
v 0.013093 0.000000 -0.018057
v 0.013093 -0.001000 -0.018057
v 0.014009 -0.001000 -0.019053
v 0.014009 -0.001000 -0.025000
v 0.011009 -0.001000 -0.020000
v 0.013437 -0.001000 -0.018150
v 0.013745 -0.001000 -0.018377
v 0.013946 -0.001000 -0.018703
v 0.013093 -0.001000 -0.018057
v 0.009619 -0.001000 -0.017190
v 0.009009 -0.001000 -0.020000
v 0.009375 -0.001000 -0.017042
v 0.009175 -0.001000 -0.016821
v 0.009050 -0.001000 -0.016551
v 0.009009 -0.001000 -0.016269
v 0.009009 -0.001000 -0.014455
v 0.006009 -0.001000 -0.010000
v 0.002009 -0.001000 -0.020000
v 0.002009 -0.001000 -0.027000
v 0.000068 -0.001000 -0.010086
v 0.000009 -0.001000 -0.020000
v 0.004009 -0.001000 -0.010000
v 0.004009 -0.001000 0.010000
v 0.001009 -0.001000 0.000000
v 0.000068 -0.001000 0.010164
v -0.003608 -0.001000 0.023555
v 0.000009 -0.001000 0.020000
v 0.002009 -0.001000 0.020000
v -0.006519 -0.001000 0.022806
v -0.006376 -0.001000 0.027872
v -0.008519 -0.001000 0.022806
v -0.004798 -0.001000 0.026363
v -0.001932 -0.001000 0.010164
v -0.009149 -0.001000 0.029323
v -0.007772 -0.001000 0.017016
v -0.012174 -0.001000 0.022723
v -0.012843 -0.001000 0.029995
v -0.014645 -0.001000 0.024271
v -0.017104 -0.001000 0.024950
v -0.015991 -0.001000 0.030000
v -0.012991 -0.001000 0.030000
v -0.016991 -0.001000 0.030000
v -0.017359 -0.001000 0.029930
v -0.017991 -0.001000 0.025943
v -0.017991 -0.001000 0.029000
v -0.017921 -0.001000 0.029368
v -0.017698 -0.001000 0.029707
v -0.017440 -0.001000 0.025050
v -0.017737 -0.001000 0.025278
v -0.017930 -0.001000 0.025599
v -0.004043 -0.001000 0.000000
v -0.007772 -0.001000 -0.017015
v -0.001932 -0.001000 -0.010086
v -0.000991 -0.001000 0.000000
v -0.008519 -0.001000 -0.022194
v -0.006376 -0.001000 -0.027871
v -0.012174 -0.001000 -0.022722
v -0.009149 -0.001000 -0.029322
v -0.006519 -0.001000 -0.022194
v -0.003608 -0.001000 -0.023555
v -0.004798 -0.001000 -0.026362
v -0.003139 -0.001000 -0.024244
v -0.001727 -0.001000 -0.026859
v -0.002991 -0.001000 -0.025000
v -0.002405 -0.001000 -0.026414
v -0.002850 -0.001000 -0.025736
v -0.000991 -0.001000 -0.027000
v 0.000009 -0.001000 -0.027000
v -0.012843 -0.001000 -0.029994
v -0.012991 -0.001000 -0.030000
v -0.014645 -0.001000 -0.024270
v -0.017104 -0.001000 -0.024949
v -0.015991 -0.001000 -0.030000
v -0.016991 -0.001000 -0.030000
v -0.017359 -0.001000 -0.029929
v -0.017991 -0.001000 -0.029000
v -0.017991 -0.001000 -0.025943
v -0.017737 -0.001000 -0.025277
v -0.017440 -0.001000 -0.025049
v -0.017930 -0.001000 -0.025598
v -0.017698 -0.001000 -0.029707
v -0.017921 -0.001000 -0.029368
v 0.009009 -0.001000 0.016270
v 0.006009 -0.001000 0.010000
v 0.009009 -0.001000 0.020000
v 0.002009 -0.001000 0.027000
v 0.009009 -0.001000 0.027000
v 0.009050 -0.001000 0.016552
v 0.009175 -0.001000 0.016822
v 0.009375 -0.001000 0.017043
v 0.009619 -0.001000 0.017190
v 0.011009 -0.001000 0.020000
v 0.013093 -0.001000 0.018058
v 0.014009 -0.001000 0.019054
v 0.014009 -0.001000 0.025000
v 0.012745 -0.001000 0.026860
v 0.012009 -0.001000 0.027000
v 0.011009 -0.001000 0.027000
v 0.013423 -0.001000 0.026415
v 0.013869 -0.001000 0.025737
v 0.013437 -0.001000 0.018150
v 0.013745 -0.001000 0.018377
v 0.013946 -0.001000 0.018703
v 0.009009 -0.001000 0.014456
v 0.009009 -0.001000 0.012000
v 0.009009 -0.001000 -0.012000
v -0.003139 -0.001000 0.024245
v -0.001727 -0.001000 0.026860
v -0.000991 -0.001000 0.027000
v 0.000009 -0.001000 0.027000
v -0.002991 -0.001000 0.025000
v -0.002405 -0.001000 0.026415
v -0.002850 -0.001000 0.025737
v 0.009009 -0.001000 -0.027000
v 0.012745 -0.001000 -0.026859
v 0.012009 -0.001000 -0.027000
v 0.011009 -0.001000 -0.027000
v 0.013423 -0.001000 -0.026414
v 0.013869 -0.001000 -0.025736
vn 0.000000 1.000000 0.000000
vn 0.000000 1.000000 0.000000
vn 0.000000 1.000000 0.000000
vn 0.000000 1.000000 0.000000
vn 0.000000 1.000000 0.000000
vn 0.000000 1.000000 0.000000
vn 0.000000 1.000000 0.000000
vn 0.000000 1.000000 0.000000
vn 0.000000 1.000000 0.000000
vn 0.000000 1.000000 0.000000
vn 0.000000 1.000000 0.000000
vn 0.000000 1.000000 0.000000
vn 0.000000 1.000000 0.000000
vn 0.000000 1.000000 0.000000
vn 0.000000 1.000000 0.000000
vn 0.000000 1.000000 0.000000
vn 0.000000 1.000000 0.000000
vn 0.000000 1.000000 0.000000
vn 0.000000 1.000000 0.000000
vn 0.000000 1.000000 0.000000
vn 0.000000 1.000000 0.000000
vn 0.000000 1.000000 0.000000
vn 0.000000 1.000000 0.000000
vn 0.000000 1.000000 0.000000
vn 0.000000 1.000000 0.000000
vn 0.000000 1.000000 0.000000
vn 0.000000 1.000000 0.000000
vn 0.000000 1.000000 0.000000
vn 0.000000 1.000000 0.000000
vn 0.000000 1.000000 0.000000
vn 0.000000 1.000000 0.000000
vn 0.000000 1.000000 0.000000
vn 0.000000 1.000000 0.000000
vn 0.000000 1.000000 0.000000
vn 0.000000 1.000000 0.000000
vn 0.000000 1.000000 0.000000
vn 0.000000 1.000000 0.000000
vn 0.000000 1.000000 0.000000
vn 0.000000 1.000000 0.000000
vn 0.000000 1.000000 0.000000
vn 0.000000 1.000000 0.000000
vn 0.000000 1.000000 0.000000
vn 0.000000 1.000000 0.000000
vn 0.000000 1.000000 0.000000
vn 0.000000 1.000000 0.000000
vn 0.000000 1.000000 0.000000
vn 0.000000 1.000000 0.000000
vn 0.000000 1.000000 0.000000
vn 0.000000 1.000000 0.000000
vn 0.000000 1.000000 0.000000
vn 0.000000 1.000000 0.000000
vn 0.000000 1.000000 0.000000
vn 0.000000 1.000000 0.000000
vn 0.000000 1.000000 0.000000
vn 0.000000 1.000000 0.000000
vn 0.000000 1.000000 0.000000
vn 0.000000 1.000000 0.000000
vn 0.000000 1.000000 0.000000
vn 0.000000 1.000000 0.000000
vn 0.000000 1.000000 0.000000
vn 0.000000 1.000000 0.000000
vn 0.000000 1.000000 0.000000
vn 0.000000 1.000000 0.000000
vn 0.000000 1.000000 0.000000
vn 0.000000 1.000000 0.000000
vn 0.000000 1.000000 0.000000
vn 0.000000 1.000000 0.000000
vn 0.000000 1.000000 0.000000
vn 0.000000 1.000000 0.000000
vn 0.000000 1.000000 0.000000
vn 0.000000 1.000000 0.000000
vn 0.000000 1.000000 0.000000
vn 0.000000 1.000000 0.000000
vn 0.000000 1.000000 0.000000
vn 0.000000 1.000000 0.000000
vn 0.000000 1.000000 0.000000
vn 0.000000 1.000000 0.000000
vn 0.000000 1.000000 0.000000
vn 0.000000 1.000000 0.000000
vn 0.000000 1.000000 0.000000
vn 0.000000 1.000000 0.000000
vn 0.000000 1.000000 0.000000
vn 0.000000 1.000000 0.000000
vn 0.000000 1.000000 0.000000
vn 0.000000 1.000000 0.000000
vn 0.000000 1.000000 0.000000
vn 0.000000 1.000000 0.000000
vn 0.000000 1.000000 0.000000
vn 0.000000 1.000000 0.000000
vn 0.000000 1.000000 0.000000
vn 0.000000 1.000000 0.000000
vn 0.000000 1.000000 0.000000
vn 0.000000 1.000000 0.000000
vn 0.000000 1.000000 0.000000
vn 0.000000 1.000000 0.000000
vn 0.000000 1.000000 0.000000
vn 0.000000 1.000000 0.000000
vn 0.000000 1.000000 0.000000
vn 0.000000 1.000000 0.000000
vn 0.000000 1.000000 0.000000
vn 0.000000 1.000000 0.000000
vn 0.000000 1.000000 0.000000
vn 0.000000 1.000000 0.000000
vn 0.000000 1.000000 0.000000
vn 0.000000 1.000000 0.000000
vn 0.000000 1.000000 0.000000
vn 0.000000 1.000000 0.000000
vn 0.000000 1.000000 0.000000
vn 0.000000 1.000000 0.000000
vn 0.000000 1.000000 0.000000
vn 0.000000 1.000000 0.000000
vn 0.000000 1.000000 0.000000
vn 0.000000 1.000000 0.000000
vn 0.000000 1.000000 0.000000
vn 0.000000 1.000000 0.000000
vn 0.000000 1.000000 0.000000
vn 0.000000 1.000000 0.000000
vn 0.793181 0.000000 0.608986
vn 0.793181 0.000000 0.608986
vn 0.773726 0.000000 -0.633521
vn 0.842932 0.000000 0.538020
vn 0.892075 0.000000 0.451887
vn 0.968558 0.000000 0.248789
vn 0.997547 0.000000 0.070003
vn 1.000000 0.000000 0.000000
vn 0.997519 0.000000 -0.070401
vn 0.967260 0.000000 -0.253789
vn 0.884204 0.000000 -0.467102
vn 0.829581 0.000000 -0.558387
vn 0.773726 0.000000 -0.633521
vn 0.829581 0.000000 -0.558387
vn 0.884204 0.000000 -0.467102
vn 0.967260 0.000000 -0.253789
vn 0.997519 0.000000 -0.070401
vn 1.000000 0.000000 0.000000
vn 0.997547 0.000000 0.070003
vn 0.968558 0.000000 0.248789
vn 0.892075 0.000000 0.451887
vn 0.842932 0.000000 0.538020
vn 0.000000 0.000000 1.000000
vn 0.000000 0.000000 1.000000
vn 0.000000 0.000000 1.000000
vn 0.000000 0.000000 1.000000
vn -0.773726 0.000000 0.633521
vn -0.829581 0.000000 0.558387
vn -0.773726 0.000000 0.633521
vn -0.829581 0.000000 0.558387
vn -0.884204 0.000000 0.467102
vn -0.967260 0.000000 0.253789
vn -0.884204 0.000000 0.467102
vn -0.967260 0.000000 0.253789
vn -0.997519 0.000000 0.070401
vn -0.997519 0.000000 0.070401
vn -1.000000 0.000000 0.000000
vn -1.000000 0.000000 0.000000
vn -0.997547 0.000000 -0.070003
vn -0.997547 0.000000 -0.070003
vn -0.968551 0.000000 -0.248813
vn -0.892075 0.000000 -0.451887
vn -0.968551 0.000000 -0.248813
vn -0.892075 0.000000 -0.451887
vn -0.842961 0.000000 -0.537975
vn -0.842961 0.000000 -0.537975
vn -0.793181 0.000000 -0.608986
vn -0.793181 0.000000 -0.608986
vn 0.000000 0.000000 -1.000000
vn 0.000000 0.000000 -1.000000
vn 0.000000 0.000000 -1.000000
vn 0.000000 0.000000 -1.000000
vn 0.000000 0.000000 -1.000000
vn 0.000000 0.000000 -1.000000
vn 0.000000 0.000000 -1.000000
vn 0.000000 0.000000 -1.000000
vn 1.000000 0.000000 0.000000
vn 1.000000 0.000000 0.000000
vn 1.000000 0.000000 0.000000
vn 1.000000 0.000000 0.000000
vn 0.000000 0.000000 1.000000
vn 0.000000 0.000000 1.000000
vn 0.000000 0.000000 1.000000
vn 0.000000 0.000000 1.000000
vn -1.000000 0.000000 0.000000
vn -1.000000 0.000000 0.000000
vn -1.000000 0.000000 0.000000
vn -1.000000 0.000000 0.000000
vn 0.970553 0.000000 0.240888
vn 0.970553 0.000000 0.240888
vn 0.800300 0.000000 0.599600
vn 0.800300 0.000000 0.599600
vn 0.517991 0.000000 0.855386
vn 0.517991 0.000000 0.855386
vn 0.261289 0.000000 0.965261
vn 0.261289 0.000000 0.965261
vn 0.032599 0.000000 0.999469
vn 0.032599 0.000000 0.999469
vn 0.970553 0.000000 0.240888
vn -1.000000 0.000000 0.000100
vn -1.000000 0.000000 0.000100
vn -0.925024 0.000000 0.379910
vn -0.925024 0.000000 0.379910
vn -0.699769 0.000000 0.714369
vn -0.699769 0.000000 0.714369
vn -0.363411 0.000000 0.931629
vn -0.363411 0.000000 0.931629
vn -0.000100 0.000000 1.000000
vn -0.000100 0.000000 1.000000
vn -1.000000 0.000000 0.000100
vn 0.000000 0.000000 1.000000
vn 0.000000 0.000000 1.000000
vn 0.000000 0.000000 1.000000
vn 0.000000 0.000000 1.000000
vn 1.000000 0.000000 0.000000
vn 1.000000 0.000000 0.000000
vn 1.000000 0.000000 0.000000
vn 1.000000 0.000000 0.000000
vn 0.000000 0.000000 1.000000
vn 0.000000 0.000000 1.000000
vn 0.000000 0.000000 1.000000
vn 0.000000 0.000000 1.000000
vn -1.000000 0.000000 0.000000
vn -1.000000 0.000000 0.000000
vn -1.000000 0.000000 0.000000
vn -1.000000 0.000000 0.000000
vn 0.000000 0.000000 1.000000
vn 0.000000 0.000000 1.000000
vn 0.000000 0.000000 1.000000
vn 0.000000 0.000000 1.000000
vn 1.000000 0.000000 0.000000
vn 1.000000 0.000000 0.000000
vn 1.000000 0.000000 0.000000
vn 1.000000 0.000000 0.000000
vn 0.000000 0.000000 1.000000
vn 0.000000 0.000000 1.000000
vn 0.000000 0.000000 1.000000
vn 0.000000 0.000000 1.000000
vn -1.000000 0.000000 0.000000
vn -1.000000 0.000000 0.000000
vn -1.000000 0.000000 0.000000
vn -1.000000 0.000000 0.000000
vn 0.000000 0.000000 1.000000
vn 0.000000 0.000000 1.000000
vn 0.000000 0.000000 1.000000
vn 0.000000 0.000000 1.000000
vn 0.000100 0.000000 1.000000
vn 0.379910 0.000000 0.925024
vn 0.000100 0.000000 1.000000
vn 0.379910 0.000000 0.925024
vn 0.714468 0.000000 0.699668
vn 0.714468 0.000000 0.699668
vn 0.931629 0.000000 0.363411
vn 0.931629 0.000000 0.363411
vn 1.000000 -0.000100 0.000100
vn 1.000000 0.000000 0.000100
vn 1.000000 0.000000 0.000000
vn 1.000000 0.000000 0.000000
vn 1.000000 0.000000 0.000000
vn 1.000000 0.000000 0.000000
vn 1.000000 0.000000 -0.000100
vn 0.925024 0.000000 -0.379910
vn 1.000000 0.000000 -0.000100
vn 0.925024 0.000000 -0.379910
vn 0.699668 0.000000 -0.714468
vn 0.699668 0.000000 -0.714468
vn 0.363498 0.000000 -0.931595
vn 0.363498 0.000000 -0.931595
vn 0.000100 -0.000100 -1.000000
vn 0.000100 0.000000 -1.000000
vn 0.000000 0.000000 -1.000000
vn 0.000000 0.000000 -1.000000
vn 0.000000 0.000000 -1.000000
vn 0.000000 0.000000 -1.000000
vn -1.000000 0.000000 0.000000
vn -1.000000 0.000000 0.000000
vn -1.000000 0.000000 0.000000
vn -1.000000 0.000000 0.000000
vn 0.000000 0.000000 -1.000000
vn 0.000000 0.000000 -1.000000
vn 0.000000 0.000000 -1.000000
vn 0.000000 0.000000 -1.000000
vn 1.000000 0.000000 0.000000
vn 1.000000 0.000000 0.000000
vn 1.000000 0.000000 0.000000
vn 1.000000 0.000000 0.000000
vn 0.000000 0.000000 -1.000000
vn 0.000000 0.000000 -1.000000
vn 0.000000 0.000000 -1.000000
vn 0.000000 0.000000 -1.000000
vn -1.000000 0.000000 0.000000
vn -1.000000 0.000000 0.000000
vn -1.000000 0.000000 0.000000
vn -1.000000 0.000000 0.000000
vn 0.000000 0.000000 -1.000000
vn 0.000000 0.000000 -1.000000
vn 0.000000 0.000000 -1.000000
vn 0.000000 0.000000 -1.000000
vn 1.000000 0.000000 0.000000
vn 1.000000 0.000000 0.000000
vn 1.000000 0.000000 0.000000
vn 1.000000 0.000000 0.000000
vn 0.000000 0.000000 -1.000000
vn 0.000000 0.000000 -1.000000
vn 0.000000 0.000000 -1.000000
vn 0.000000 0.000000 -1.000000
vn -0.000100 0.000000 -1.000000
vn -0.379910 0.000000 -0.925024
vn -0.000100 0.000000 -1.000000
vn -0.379910 0.000000 -0.925024
vn -0.714320 0.000000 -0.699819
vn -0.714320 0.000000 -0.699819
vn -0.931629 0.000000 -0.363411
vn -0.931629 0.000000 -0.363411
vn -1.000000 -0.000100 -0.000100
vn -1.000000 0.000000 -0.000100
vn -1.000000 0.000000 -0.000100
vn 1.000000 0.000000 0.000000
vn 1.000000 0.000000 0.000000
vn 1.000000 0.000000 0.000000
vn 1.000000 0.000000 0.000000
vn 0.000000 0.000000 -1.000000
vn 0.000000 0.000000 -1.000000
vn 0.000000 0.000000 -1.000000
vn 0.000000 0.000000 -1.000000
vn 0.032599 0.000000 -0.999469
vn 0.264801 0.000000 -0.964303
vn 0.032599 0.000000 -0.999469
vn 0.264801 0.000000 -0.964303
vn 0.521713 0.000000 -0.853121
vn 0.521713 0.000000 -0.853121
vn 0.809591 0.000000 -0.586994
vn 0.809591 0.000000 -0.586994
vn 0.970576 0.000000 -0.240794
vn 0.970576 0.000000 -0.240794
vn 0.970576 0.000000 -0.240794
vn -0.691436 0.000000 0.722438
vn -0.691436 0.000000 0.722438
vn -0.922327 0.000000 0.386411
vn -0.922327 0.000000 0.386411
vn -1.000000 0.000000 0.000100
vn -1.000000 0.000000 0.000100
vn -1.000000 0.000000 0.000100
vn -0.691436 0.000000 0.722438
vn -1.000000 0.000000 -0.000100
vn -1.000000 0.000000 -0.000100
vn -0.921615 0.000000 -0.388106
vn -0.921615 0.000000 -0.388106
vn -0.691386 0.000000 -0.722486
vn -0.691386 0.000000 -0.722486
vn -0.691386 0.000000 -0.722486
vn -1.000000 0.000000 -0.000100
vn -1.000000 0.000000 0.000000
vn -0.995187 0.000000 -0.097999
vn -1.000000 0.000000 0.000000
vn -0.995187 0.000000 -0.097999
vn -0.978719 0.000000 -0.205204
vn -0.978719 0.000000 -0.205204
vn -0.945785 0.000000 -0.324795
vn -0.945785 0.000000 -0.324795
vn -0.887812 0.000000 -0.460206
vn -0.790836 0.000000 -0.612028
vn -0.887812 0.000000 -0.460206
vn -0.790836 0.000000 -0.612028
vn -0.635174 0.000000 -0.772369
vn -0.635174 0.000000 -0.772369
vn -0.404886 0.000000 -0.914367
vn -0.113504 0.000000 -0.993538
vn -0.113504 0.000000 -0.993538
vn -0.404886 0.000000 -0.914367
vn -0.113504 0.000000 -0.993538
vn -1.000000 0.000000 0.000000
vn -1.000000 0.000000 0.000000
vn -1.000000 0.000000 0.000000
vn -1.000000 0.000000 0.000000
vn -0.113504 0.000000 0.993538
vn -0.113504 0.000000 0.993538
vn -0.404886 0.000000 0.914367
vn -0.635174 0.000000 0.772369
vn -0.404886 0.000000 0.914367
vn -0.113504 0.000000 0.993538
vn -0.635174 0.000000 0.772369
vn -0.790874 0.000000 0.611980
vn -0.790874 0.000000 0.611980
vn -0.887812 0.000000 0.460206
vn -0.945785 0.000000 0.324795
vn -0.887812 0.000000 0.460206
vn -0.945785 0.000000 0.324795
vn -0.978719 0.000000 0.205204
vn -0.995187 0.000000 0.097999
vn -0.978719 0.000000 0.205204
vn -0.995187 0.000000 0.097999
vn -1.000000 0.000000 0.000000
vn -1.000000 0.000000 0.000000
vn -1.000000 0.000000 0.000100
vn -0.938744 0.000000 0.344616
vn -1.000000 0.000000 0.000100
vn -0.938744 0.000000 0.344616
vn -0.746117 0.000000 0.665815
vn -0.746117 0.000000 0.665815
vn -0.448813 0.000000 0.893626
vn -0.113504 0.000000 0.993538
vn -0.113504 0.000000 0.993538
vn -0.448893 0.000000 0.893586
vn -0.113504 0.000000 0.993538
vn 0.000000 0.000000 1.000000
vn 0.000000 0.000000 1.000000
vn 0.000000 0.000000 1.000000
vn 0.000000 0.000000 1.000000
vn -0.000100 0.000000 1.000000
vn -0.368095 0.000000 0.929788
vn -0.000100 0.000000 1.000000
vn -0.368095 0.000000 0.929788
vn -0.707107 0.000000 0.707107
vn -0.707107 0.000000 0.707107
vn -0.929788 0.000000 0.368095
vn -1.000000 0.000000 0.000100
vn -0.929788 0.000000 0.368095
vn -1.000000 0.000000 0.000100
vn -1.000000 0.000000 -0.000100
vn -0.938744 0.000000 -0.344616
vn -1.000000 0.000000 -0.000100
vn -0.938744 0.000000 -0.344616
vn -0.746117 0.000000 -0.665815
vn -0.746117 0.000000 -0.665815
vn -0.448813 0.000000 -0.893626
vn -0.448813 0.000000 -0.893626
vn -0.113504 0.000000 -0.993538
vn -0.113504 0.000000 -0.993538
vn -0.113504 0.000000 -0.993538
vn -1.000000 0.000000 0.000000
vn -1.000000 0.000000 0.000000
vn -1.000000 0.000000 0.000000
vn -1.000000 0.000000 0.000000
vn -1.000000 0.000000 -0.000100
vn -0.929788 0.000000 -0.368095
vn -1.000000 0.000000 -0.000100
vn -0.929788 0.000000 -0.368095
vn -0.707107 0.000000 -0.707107
vn -0.707107 0.000000 -0.707107
vn -0.368095 0.000000 -0.929788
vn -0.368095 0.000000 -0.929788
vn -0.000100 0.000000 -1.000000
vn -0.000100 0.000000 -1.000000
vn 1.000000 0.000000 0.000000
vn 1.000000 0.000000 0.000000
vn 1.000000 0.000000 0.000000
vn 1.000000 0.000000 0.000000
vn 1.000000 0.000000 0.000000
vn 1.000000 0.000000 0.000000
vn 0.390005 0.000000 -0.920813
vn 0.390005 0.000000 -0.920813
vn 0.239311 0.000000 -0.970943
vn 0.390005 0.000000 -0.920813
vn 0.083898 0.000000 -0.996474
vn 0.239193 0.000000 -0.970972
vn 0.083898 0.000000 -0.996474
vn 0.083898 0.000000 -0.996474
vn 0.390005 0.000000 -0.920813
vn 0.390005 0.000000 0.920813
vn 0.390005 0.000000 0.920813
vn 0.315508 0.000000 0.948923
vn 0.390005 0.000000 0.920813
vn 0.315808 0.000000 0.948823
vn 0.239499 0.000000 0.970897
vn 0.239499 0.000000 0.970897
vn 0.161901 0.000000 0.986807
vn 0.161901 0.000000 0.986807
vn 0.083799 0.000000 0.996483
vn 0.083799 0.000000 0.996483
vn 0.083799 0.000000 0.996483
vn 0.390005 0.000000 0.920813
vn 1.000000 0.000000 -0.000100
vn 0.959324 -0.000100 -0.282307
vn 1.000000 0.000000 -0.000100
vn 0.959351 0.000100 -0.282215
vn 1.000000 0.000000 -0.000100
vn 0.831388 0.000000 -0.555692
vn 0.833632 0.000100 -0.552321
vn 0.634076 0.000000 -0.773271
vn 0.632481 0.000000 -0.774576
vn 0.390005 0.000000 -0.920813
vn 0.390005 0.000000 -0.920813
vn 0.390005 0.000000 -0.920813
vn 0.390005 0.000000 -0.920813
vn 0.634016 0.000000 -0.773320
vn 0.833708 0.000000 -0.552205
vn 1.000000 0.000000 0.000100
vn 0.959324 0.000100 0.282307
vn 1.000000 0.000000 0.000100
vn 0.959324 -0.000100 0.282307
vn 1.000000 0.000000 0.000100
vn 0.831388 0.000000 0.555692
vn 0.833708 0.000000 0.552205
vn 0.634016 0.000000 0.773320
vn 0.632481 0.000000 0.774576
vn 0.390005 0.000000 0.920813
vn 0.390005 0.000000 0.920813
vn 0.390090 0.000000 0.920777
vn 0.390005 0.000000 0.920813
vn 0.634076 0.000000 0.773271
vn 0.833708 0.000000 0.552205
vn 1.000000 0.000000 -0.000100
vn 0.936457 0.000000 -0.350784
vn 1.000000 0.000000 -0.000100
vn 0.936457 0.000000 -0.350784
vn 0.736086 0.000000 -0.676888
vn 0.736086 0.000000 -0.676888
vn 0.428112 0.000000 -0.903726
vn 0.083997 0.000000 -0.996466
vn 0.083898 0.000000 -0.996474
vn 0.428112 0.000000 -0.903726
vn 0.083997 0.000000 -0.996466
vn 1.000000 0.000000 0.000100
vn 0.936457 0.000000 0.350784
vn 1.000000 0.000000 0.000100
vn 0.936457 0.000000 0.350784
vn 0.736136 0.000000 0.676833
vn 0.428073 0.000000 0.903744
vn 0.736136 0.000000 0.676833
vn 0.428073 0.000000 0.903744
vn 0.083997 0.000000 0.996466
vn 0.083898 0.000000 0.996474
vn 0.083997 0.000000 0.996466
vn 0.000000 -1.000000 0.000000
vn 0.000000 -1.000000 0.000000
vn 0.000000 -1.000000 0.000000
vn 0.000000 -1.000000 0.000000
vn 0.000000 -1.000000 0.000000
vn 0.000000 -1.000000 0.000000
vn 0.000000 -1.000000 0.000000
vn 0.000000 -1.000000 0.000000
vn 0.000000 -1.000000 0.000000
vn 0.000000 -1.000000 0.000000
vn 0.000000 -1.000000 0.000000
vn 0.000000 -1.000000 0.000000
vn 0.000000 -1.000000 0.000000
vn 0.000000 -1.000000 0.000000
vn 0.000000 -1.000000 0.000000
vn 0.000000 -1.000000 0.000000
vn 0.000000 -1.000000 0.000000
vn 0.000000 -1.000000 0.000000
vn 0.000000 -1.000000 0.000000
vn 0.000000 -1.000000 0.000000
vn 0.000000 -1.000000 0.000000
vn 0.000000 -1.000000 0.000000
vn 0.000000 -1.000000 0.000000
vn 0.000000 -1.000000 0.000000
vn 0.000000 -1.000000 0.000000
vn 0.000000 -1.000000 0.000000
vn 0.000000 -1.000000 0.000000
vn 0.000000 -1.000000 0.000000
vn 0.000000 -1.000000 0.000000
vn 0.000000 -1.000000 0.000000
vn 0.000000 -1.000000 0.000000
vn 0.000000 -1.000000 0.000000
vn 0.000000 -1.000000 0.000000
vn 0.000000 -1.000000 0.000000
vn 0.000000 -1.000000 0.000000
vn 0.000000 -1.000000 0.000000
vn 0.000000 -1.000000 0.000000
vn 0.000000 -1.000000 0.000000
vn 0.000000 -1.000000 0.000000
vn 0.000000 -1.000000 0.000000
vn 0.000000 -1.000000 0.000000
vn 0.000000 -1.000000 0.000000
vn 0.000000 -1.000000 0.000000
vn 0.000000 -1.000000 0.000000
vn 0.000000 -1.000000 0.000000
vn 0.000000 -1.000000 0.000000
vn 0.000000 -1.000000 0.000000
vn 0.000000 -1.000000 0.000000
vn 0.000000 -1.000000 0.000000
vn 0.000000 -1.000000 0.000000
vn 0.000000 -1.000000 0.000000
vn 0.000000 -1.000000 0.000000
vn 0.000000 -1.000000 0.000000
vn 0.000000 -1.000000 0.000000
vn 0.000000 -1.000000 0.000000
vn 0.000000 -1.000000 0.000000
vn 0.000000 -1.000000 0.000000
vn 0.000000 -1.000000 0.000000
vn 0.000000 -1.000000 0.000000
vn 0.000000 -1.000000 0.000000
vn 0.000000 -1.000000 0.000000
vn 0.000000 -1.000000 0.000000
vn 0.000000 -1.000000 0.000000
vn 0.000000 -1.000000 0.000000
vn 0.000000 -1.000000 0.000000
vn 0.000000 -1.000000 0.000000
vn 0.000000 -1.000000 0.000000
vn 0.000000 -1.000000 0.000000
vn 0.000000 -1.000000 0.000000
vn 0.000000 -1.000000 0.000000
vn 0.000000 -1.000000 0.000000
vn 0.000000 -1.000000 0.000000
vn 0.000000 -1.000000 0.000000
vn 0.000000 -1.000000 0.000000
vn 0.000000 -1.000000 0.000000
vn 0.000000 -1.000000 0.000000
vn 0.000000 -1.000000 0.000000
vn 0.000000 -1.000000 0.000000
vn 0.000000 -1.000000 0.000000
vn 0.000000 -1.000000 0.000000
vn 0.000000 -1.000000 0.000000
vn 0.000000 -1.000000 0.000000
vn 0.000000 -1.000000 0.000000
vn 0.000000 -1.000000 0.000000
vn 0.000000 -1.000000 0.000000
vn 0.000000 -1.000000 0.000000
vn 0.000000 -1.000000 0.000000
vn 0.000000 -1.000000 0.000000
vn 0.000000 -1.000000 0.000000
vn 0.000000 -1.000000 0.000000
vn 0.000000 -1.000000 0.000000
vn 0.000000 -1.000000 0.000000
vn 0.000000 -1.000000 0.000000
vn 0.000000 -1.000000 0.000000
vn 0.000000 -1.000000 0.000000
vn 0.000000 -1.000000 0.000000
vn 0.000000 -1.000000 0.000000
vn 0.000000 -1.000000 0.000000
vn 0.000000 -1.000000 0.000000
vn 0.000000 -1.000000 0.000000
vn 0.000000 -1.000000 0.000000
vn 0.000000 -1.000000 0.000000
vn 0.000000 -1.000000 0.000000
vn 0.000000 -1.000000 0.000000
vn 0.000000 -1.000000 0.000000
vn 0.000000 -1.000000 0.000000
vn 0.000000 -1.000000 0.000000
vn 0.000000 -1.000000 0.000000
vn 0.000000 -1.000000 0.000000
vn 0.000000 -1.000000 0.000000
vn 0.000000 -1.000000 0.000000
vn 0.000000 -1.000000 0.000000
vn 0.000000 -1.000000 0.000000
vn 0.000000 -1.000000 0.000000
vn 0.000000 -1.000000 0.000000
vn 0.000000 -1.000000 0.000000
vn 0.000000 -1.000000 0.000000
f 2//2 3//3 1//1
f 3//3 7//7 1//1
f 4//4 6//6 1//1
f 1//1 5//5 4//4
f 7//7 5//5 1//1
f 7//7 3//3 8//8
f 3//3 9//9 8//8
f 9//9 10//10 8//8
f 11//11 10//10 9//9
f 12//12 11//11 9//9
f 13//13 12//12 9//9
f 9//9 14//14 13//13
f 16//16 13//13 14//14
f 16//16 15//15 13//13
f 16//16 17//17 20//20
f 16//16 20//20 19//19
f 14//14 18//18 16//16
f 16//16 19//19 15//15
f 20//20 17//17 21//21
f 22//22 21//21 17//17
f 25//25 23//23 22//22
f 23//23 24//24 22//22
f 25//25 22//22 17//17
f 26//26 25//25 28//28
f 17//17 27//27 25//25
f 27//27 28//28 25//25
f 23//23 25//25 29//29
f 23//23 29//29 30//30
f 28//28 27//27 31//31
f 32//32 33//33 28//28
f 28//28 33//33 26//26
f 32//32 34//34 33//33
f 33//33 35//35 26//26
f 35//35 36//36 26//26
f 35//35 37//37 36//36
f 38//38 36//36 37//37
f 39//39 38//38 37//37
f 26//26 36//36 40//40
f 26//26 40//40 41//41
f 42//42 34//34 32//32
f 44//44 43//43 42//42
f 32//32 44//44 42//42
f 43//43 44//44 46//46
f 47//47 45//45 44//44
f 45//45 46//46 44//44
f 47//47 48//48 45//45
f 49//49 48//48 47//47
f 49//49 50//50 48//48
f 51//51 48//48 50//50
f 51//51 50//50 52//52
f 56//56 52//52 53//53
f 55//55 53//53 52//52
f 51//51 52//52 56//56
f 54//54 55//55 52//52
f 53//53 57//57 56//56
f 58//58 56//56 57//57
f 59//59 58//58 57//57
f 58//58 59//59 60//60
f 61//61 58//58 60//60
f 62//62 64//64 61//61
f 63//63 62//62 61//61
f 63//63 61//61 60//60
f 62//62 65//65 64//64
f 66//66 65//65 62//62
f 67//67 68//68 63//63
f 68//68 62//62 63//63
f 68//68 67//67 69//69
f 68//68 69//69 70//70
f 55//55 54//54 71//71
f 71//71 54//54 72//72
f 72//72 74//74 73//73
f 75//75 74//74 72//72
f 75//75 72//72 54//54
f 14//14 75//75 18//18
f 75//75 31//31 18//18
f 75//75 14//14 74//74
f 76//76 73//73 74//74
f 77//77 76//76 74//74
f 74//74 78//78 77//77
f 79//79 73//73 76//76
f 79//79 76//76 80//80
f 81//81 79//79 80//80
f 46//46 82//82 43//43
f 82//82 46//46 83//83
f 83//83 84//84 86//86
f 83//83 85//85 84//84
f 83//83 86//86 82//82
f 87//87 88//88 85//85
f 85//85 88//88 89//89
f 84//84 85//85 89//89
f 90//90 89//89 88//88
f 90//90 91//91 89//89
f 91//91 90//90 92//92
f 93//93 92//92 90//90
f 88//88 95//95 94//94
f 88//88 87//87 95//95
f 27//27 18//18 31//31
f 24//24 23//23 96//96
f 23//23 97//97 96//96
f 23//23 98//98 97//97
f 23//23 99//99 98//98
f 99//99 100//100 98//98
f 99//99 101//101 100//100
f 100//100 101//101 102//102
f 102//102 101//101 103//103
f 103//103 101//101 104//104
f 99//99 105//105 101//101
f 99//99 106//106 105//105
f 106//106 107//107 105//105
f 108//108 105//105 107//107
f 109//109 106//106 99//99
f 110//110 109//109 99//99
f 112//112 111//111 14//14
f 112//112 14//14 9//9
f 3//3 2//2 113//113
f 113//113 114//114 3//3
f 115//115 3//3 114//114
f 116//116 113//113 2//2
f 116//116 2//2 117//117
f 121//121 118//118 119//119
f 121//121 119//119 139//139
f 122//122 138//138 137//137
f 122//122 137//137 123//123
f 123//123 137//137 136//136
f 123//123 136//136 124//124
f 122//122 121//121 139//139
f 122//122 139//139 138//138
f 124//124 136//136 135//135
f 124//124 135//135 125//125
f 127//127 126//126 134//134
f 127//127 134//134 133//133
f 128//128 132//132 131//131
f 128//128 131//131 129//129
f 120//120 129//129 131//131
f 120//120 131//131 130//130
f 127//127 133//133 132//132
f 127//127 132//132 128//128
f 126//126 125//125 135//135
f 126//126 135//135 134//134
f 141//141 143//143 142//142
f 141//141 142//142 140//140
f 144//144 146//146 147//147
f 144//144 147//147 145//145
f 145//145 147//147 148//148
f 145//145 148//148 150//150
f 150//150 148//148 149//149
f 150//150 149//149 151//151
f 151//151 149//149 153//153
f 151//151 153//153 152//152
f 155//155 154//154 152//152
f 155//155 152//152 153//153
f 154//154 155//155 157//157
f 154//154 157//157 156//156
f 156//156 157//157 160//160
f 156//156 160//160 158//158
f 158//158 160//160 161//161
f 158//158 161//161 159//159
f 159//159 161//161 162//162
f 159//159 162//162 163//163
f 164//164 165//165 163//163
f 164//164 163//163 162//162
f 167//167 169//169 168//168
f 167//167 168//168 166//166
f 171//171 170//170 172//172
f 171//171 172//172 173//173
f 175//175 174//174 176//176
f 175//175 176//176 177//177
f 179//179 178//178 180//180
f 179//179 180//180 181//181
f 182//182 184//184 185//185
f 182//182 185//185 183//183
f 187//187 186//186 188//188
f 189//189 187//187 188//188
f 191//191 189//189 188//188
f 191//191 188//188 190//190
f 193//193 191//191 190//190
f 193//193 190//190 192//192
f 194//194 195//195 193//193
f 194//194 193//193 192//192
f 187//187 189//189 196//196
f 198//198 197//197 199//199
f 200//200 198//198 199//199
f 202//202 200//200 199//199
f 202//202 199//199 201//201
f 204//204 202//202 201//201
f 204//204 201//201 203//203
f 205//205 206//206 204//204
f 205//205 204//204 203//203
f 198//198 200//200 207//207
f 209//209 208//208 210//210
f 209//209 210//210 211//211
f 213//213 212//212 214//214
f 213//213 214//214 215//215
f 217//217 216//216 218//218
f 217//217 218//218 219//219
f 221//221 220//220 222//222
f 221//221 222//222 223//223
f 225//225 224//224 226//226
f 225//225 226//226 227//227
f 229//229 228//228 230//230
f 229//229 230//230 231//231
f 233//233 232//232 234//234
f 233//233 234//234 235//235
f 237//237 236//236 238//238
f 237//237 238//238 239//239
f 241//241 240//240 242//242
f 241//241 242//242 243//243
f 245//245 247//247 246//246
f 245//245 246//246 244//244
f 248//248 247//247 245//245
f 248//248 245//245 249//249
f 250//250 248//248 249//249
f 250//250 249//249 251//251
f 253//253 252//252 250//250
f 253//253 250//250 251//251
f 255//255 254//254 256//256
f 255//255 256//256 257//257
f 259//259 261//261 260//260
f 259//259 260//260 258//258
f 262//262 261//261 259//259
f 262//262 259//259 263//263
f 264//264 262//262 263//263
f 264//264 263//263 265//265
f 267//267 266//266 264//264
f 267//267 264//264 265//265
f 269//269 268//268 270//270
f 269//269 270//270 271//271
f 273//273 272//272 274//274
f 273//273 274//274 275//275
f 277//277 276//276 278//278
f 277//277 278//278 279//279
f 281//281 280//280 282//282
f 281//281 282//282 283//283
f 285//285 284//284 286//286
f 285//285 286//286 287//287
f 289//289 288//288 290//290
f 289//289 290//290 291//291
f 293//293 292//292 294//294
f 293//293 294//294 295//295
f 297//297 296//296 298//298
f 297//297 298//298 299//299
f 301//301 300//300 302//302
f 301//301 302//302 303//303
f 305//305 307//307 306//306
f 305//305 306//306 304//304
f 308//308 307//307 305//305
f 308//308 305//305 309//309
f 310//310 308//308 309//309
f 310//310 309//309 311//311
f 311//311 313//313 310//310
f 312//312 310//310 313//313
f 313//313 311//311 314//314
f 316//316 315//315 317//317
f 316//316 317//317 318//318
f 320//320 319//319 321//321
f 320//320 321//321 322//322
f 324//324 326//326 325//325
f 324//324 325//325 323//323
f 327//327 326//326 324//324
f 327//327 324//324 328//328
f 329//329 327//327 328//328
f 329//329 328//328 330//330
f 330//330 332//332 329//329
f 331//331 329//329 332//332
f 332//332 330//330 333//333
f 335//335 334//334 336//336
f 337//337 335//335 336//336
f 337//337 336//336 338//338
f 337//337 338//338 340//340
f 339//339 338//338 336//336
f 335//335 337//337 341//341
f 343//343 342//342 344//344
f 345//345 343//343 344//344
f 345//345 344//344 346//346
f 345//345 346//346 347//347
f 347//347 348//348 345//345
f 343//343 345//345 349//349
f 350//350 352//352 353//353
f 350//350 353//353 351//351
f 351//351 353//353 354//354
f 351//351 354//354 355//355
f 355//355 354//354 356//356
f 355//355 356//356 357//357
f 357//357 356//356 358//358
f 357//357 358//358 360//360
f 359//359 361//361 360//360
f 359//359 360//360 358//358
f 361//361 359//359 363//363
f 361//361 363//363 362//362
f 362//362 363//363 367//367
f 362//362 367//367 364//364
f 364//364 367//367 365//365
f 365//365 366//366 364//364
f 365//365 367//367 368//368
f 370//370 369//369 371//371
f 370//370 371//371 372//372
f 374//374 375//375 373//373
f 375//375 374//374 377//377
f 375//375 377//377 379//379
f 375//375 379//379 376//376
f 377//377 374//374 378//378
f 376//376 379//379 380//380
f 376//376 380//380 381//381
f 382//382 384//384 381//381
f 382//382 381//381 380//380
f 384//384 382//382 383//383
f 384//384 383//383 385//385
f 385//385 383//383 388//388
f 385//385 388//388 386//386
f 386//386 388//388 389//389
f 386//386 389//389 387//387
f 387//387 389//389 390//390
f 387//387 390//390 391//391
f 393//393 395//395 394//394
f 393//393 394//394 392//392
f 397//397 396//396 395//395
f 397//397 395//395 393//393
f 401//401 398//398 396//396
f 401//401 396//396 397//397
f 399//399 398//398 400//400
f 398//398 401//401 400//400
f 400//400 401//401 402//402
f 404//404 403//403 405//405
f 404//404 405//405 406//406
f 408//408 407//407 409//409
f 408//408 409//409 410//410
f 412//412 408//408 410//410
f 412//412 410//410 411//411
f 415//415 412//412 411//411
f 415//415 411//411 413//413
f 416//416 415//415 413//413
f 416//416 413//413 414//414
f 418//418 420//420 419//419
f 418//418 419//419 417//417
f 422//422 421//421 420//420
f 422//422 420//420 418//418
f 424//424 423//423 421//421
f 424//424 421//421 422//422
f 423//423 424//424 426//426
f 425//425 423//423 426//426
f 426//426 424//424 427//427
f 428//428 430//430 431//431
f 428//428 431//431 429//429
f 433//433 432//432 434//434
f 433//433 434//434 435//435
f 437//437 433//433 435//435
f 437//437 435//435 436//436
f 439//439 437//437 436//436
f 439//439 436//436 438//438
f 441//441 439//439 438//438
f 441//441 438//438 440//440
f 445//445 443//443 442//442
f 445//445 442//442 444//444
f 447//447 445//445 444//444
f 447//447 444//444 446//446
f 449//449 448//448 450//450
f 450//450 451//451 449//449
f 450//450 453//453 451//451
f 450//450 452//452 454//454
f 450//450 454//454 453//453
f 454//454 455//455 453//453
f 451//451 453//453 456//456
f 458//458 459//459 457//457
f 460//460 459//459 458//458
f 459//459 460//460 461//461
f 459//459 461//461 463//463
f 459//459 463//463 462//462
f 462//462 463//463 465//465
f 462//462 465//465 464//464
f 465//465 466//466 464//464
f 466//466 467//467 464//464
f 465//465 468//468 466//466
f 469//469 461//461 460//460
f 471//471 470//470 472//472
f 472//472 473//473 471//471
f 474//474 473//473 472//472
f 475//475 471//471 473//473
f 475//475 473//473 476//476
f 476//476 477//477 478//478
f 476//476 478//478 475//475
f 477//477 480//480 478//478
f 480//480 477//477 479//479
f 481//481 478//478 480//480
f 483//483 481//481 482//482
f 478//478 481//481 483//483
f 483//483 484//484 475//475
f 483//483 475//475 478//478
f 475//475 484//484 471//471
f 486//486 485//485 487//487
f 487//487 488//488 486//486
f 489//489 488//488 487//487
f 490//490 486//486 488//488
f 490//490 488//488 491//491
f 491//491 492//492 493//493
f 491//491 493//493 490//490
f 492//492 495//495 493//493
f 495//495 492//492 494//494
f 496//496 493//493 495//495
f 498//498 496//496 497//497
f 493//493 496//496 498//498
f 498//498 499//499 490//490
f 498//498 490//490 493//493
f 490//490 499//499 486//486
f 501//501 503//503 502//502
f 501//501 502//502 500//500
f 505//505 504//504 503//503
f 505//505 503//503 501//501
f 509//509 506//506 504//504
f 509//509 504//504 505//505
f 507//507 506//506 508//508
f 506//506 509//509 508//508
f 508//508 509//509 510//510
f 512//512 514//514 513//513
f 512//512 513//513 511//511
f 517//517 515//515 514//514
f 517//517 514//514 512//512
f 518//518 516//516 515//515
f 518//518 515//515 517//517
f 520//520 518//518 519//519
f 516//516 518//518 520//520
f 521//521 516//516 520//520
f 523//523 522//522 524//524
f 524//524 522//522 528//528
f 528//528 522//522 525//525
f 522//522 526//526 525//525
f 526//526 522//522 527//527
f 528//528 529//529 524//524
f 524//524 529//529 530//530
f 530//530 529//529 531//531
f 532//532 530//530 531//531
f 533//533 530//530 532//532
f 534//534 530//530 533//533
f 536//536 534//534 535//535
f 536//536 537//537 534//534
f 530//530 534//534 537//537
f 633//633 530//530 537//537
f 633//633 537//537 538//538
f 537//537 541//541 539//539
f 539//539 540//540 537//537
f 537//537 536//536 541//541
f 542//542 543//543 541//541
f 539//539 541//541 543//543
f 542//542 544//544 543//543
f 544//544 546//546 545//545
f 544//544 545//545 548//548
f 546//546 544//544 547//547
f 542//542 547//547 544//544
f 548//548 545//545 551//551
f 549//549 548//548 551//551
f 548//548 549//549 550//550
f 550//550 554//554 552//552
f 550//550 549//549 553//553
f 553//553 555//555 550//550
f 554//554 550//550 555//555
f 555//555 553//553 556//556
f 556//556 557//557 555//555
f 557//557 559//559 558//558
f 557//557 560//560 559//559
f 557//557 556//556 560//560
f 559//559 561//561 558//558
f 564//564 561//561 562//562
f 558//558 561//561 563//563
f 564//564 563//563 561//561
f 565//565 564//564 566//566
f 562//562 566//566 564//564
f 567//567 558//558 563//563
f 563//563 568//568 567//567
f 563//563 569//569 568//568
f 554//554 570//570 552//552
f 571//571 572//572 570//570
f 573//573 570//570 572//572
f 552//552 570//570 573//573
f 571//571 574//574 572//572
f 578//578 574//574 575//575
f 575//575 574//574 577//577
f 571//571 576//576 574//574
f 576//576 577//577 574//574
f 539//539 578//578 579//579
f 580//580 579//579 578//578
f 575//575 580//580 578//578
f 539//539 579//579 540//540
f 579//579 581//581 540//540
f 582//582 540//540 581//581
f 583//583 582//582 581//581
f 583//583 584//584 582//582
f 585//585 584//584 583//583
f 586//586 540//540 582//582
f 540//540 586//586 587//587
f 577//577 576//576 588//588
f 590//590 588//588 576//576
f 589//589 588//588 590//590
f 591//591 592//592 590//590
f 590//590 592//592 589//589
f 593//593 592//592 591//591
f 593//593 591//591 596//596
f 594//594 593//593 595//595
f 595//595 593//593 596//596
f 596//596 591//591 598//598
f 599//599 596//596 597//597
f 596//596 598//598 597//597
f 595//595 600//600 594//594
f 595//595 601//601 600//600
f 547//547 602//602 604//604
f 602//602 547//547 603//603
f 603//603 547//547 542//542
f 604//604 606//606 605//605
f 604//604 605//605 547//547
f 602//602 607//607 604//604
f 604//604 607//607 608//608
f 608//608 609//609 604//604
f 610//610 604//604 609//609
f 604//604 610//610 611//611
f 611//611 612//612 613//613
f 611//611 610//610 612//612
f 611//611 613//613 614//614
f 615//615 611//611 614//614
f 611//611 615//615 616//616
f 611//611 616//616 617//617
f 615//615 614//614 618//618
f 619//619 618//618 614//614
f 612//612 620//620 613//613
f 620//620 621//621 613//613
f 621//621 622//622 613//613
f 536//536 625//625 624//624
f 536//536 624//624 603//603
f 623//623 602//602 603//603
f 603//603 624//624 623//623
f 536//536 535//535 625//625
f 545//545 546//546 626//626
f 626//626 546//546 627//627
f 627//627 546//546 628//628
f 546//546 629//629 628//628
f 630//630 626//626 627//627
f 631//631 630//630 627//627
f 632//632 630//630 631//631
f 524//524 634//634 523//523
f 634//634 524//524 635//635
f 636//636 635//635 524//524
f 637//637 523//523 634//634
f 637//637 638//638 523//523
