# arm_07 exported from /models/landings/arm_07.glb
# units: meters
v 0.027590 0.001000 0.027236
v 0.025478 0.001000 0.005580
v 0.020914 0.001000 0.019885
v 0.027367 0.001000 0.028153
v 0.024672 0.001000 0.029014
v 0.027590 0.001000 0.002761
v 0.025478 0.001000 0.000761
v 0.027449 0.001000 0.002024
v 0.027004 0.001000 0.001346
v 0.025590 0.001000 0.000761
v 0.026326 0.001000 0.000901
v 0.026120 0.001000 0.029165
v 0.025589 0.001000 0.029236
v 0.026630 0.001000 0.028944
v 0.027061 0.001000 0.028592
v 0.000728 0.001000 0.016655
v -0.000340 0.001000 0.015119
v 0.000003 0.001000 0.016020
v 0.006901 0.001000 0.013034
v 0.004239 0.001000 0.010606
v 0.003525 0.001000 0.009126
v 0.003291 0.001000 0.007610
v 0.003291 0.001000 -0.015891
v -0.002347 0.001000 -0.001392
v -0.002660 0.001000 -0.002248
v -0.001398 0.001000 -0.014324
v -0.003431 0.001000 -0.002936
v -0.004443 0.001000 -0.003148
v -0.005317 0.001000 -0.002892
v -0.003398 0.001000 -0.014324
v -0.010297 0.001000 -0.014089
v -0.010297 0.001000 -0.020122
v -0.012276 0.001000 -0.014089
v -0.024223 0.001000 -0.020122
v -0.012276 0.001000 -0.020122
v -0.030067 0.001000 -0.010598
v -0.019258 0.001000 -0.003866
v -0.012730 0.001000 0.000120
v -0.012255 0.001000 0.000331
v -0.010704 0.001000 0.000154
v -0.011186 0.001000 0.000349
v -0.011722 0.001000 0.000413
v -0.030384 0.001000 -0.010850
v -0.030499 0.001000 -0.011178
v -0.030499 0.001000 -0.018007
v -0.030471 0.001000 -0.011012
v -0.027499 0.001000 -0.020122
v -0.028603 0.001000 -0.019974
v -0.029620 0.001000 -0.019503
v -0.030288 0.001000 -0.018786
v -0.003398 0.001000 -0.020122
v -0.001398 0.001000 -0.020122
v 0.003099 0.001000 -0.017449
v 0.002489 0.001000 -0.018883
v 0.000552 0.001000 -0.020122
v 0.001560 0.001000 -0.019825
v 0.001050 0.001000 -0.020052
v 0.020914 0.001000 0.002761
v 0.023478 0.001000 0.005580
v 0.023478 0.001000 0.000761
v 0.021055 0.001000 0.002024
v 0.022914 0.001000 0.000761
v 0.021500 0.001000 0.001346
v 0.022178 0.001000 0.000901
v -0.000340 -0.001000 0.015119
v -0.002347 -0.001000 -0.001392
v -0.000340 0.001000 0.015119
v -0.002347 0.001000 -0.001392
v 0.006901 -0.001000 0.013034
v 0.005082 -0.001000 0.011637
v 0.006901 0.001000 0.013034
v 0.005082 0.001000 0.011637
v 0.003789 0.001000 0.009807
v 0.003789 -0.001000 0.009807
v 0.003291 0.001000 0.007610
v 0.003291 -0.001000 0.007610
v 0.003291 -0.001000 0.007610
v 0.003291 0.001000 0.007610
v 0.003291 -0.001000 -0.015891
v 0.003291 0.001000 -0.015891
v 0.003291 -0.001000 -0.015891
v 0.003198 -0.001000 -0.016986
v 0.003291 0.001000 -0.015891
v 0.003198 0.001000 -0.016986
v 0.002904 0.001000 -0.018061
v 0.002904 -0.001000 -0.018061
v 0.002380 0.001000 -0.019042
v 0.002380 -0.001000 -0.019042
v 0.001582 0.001000 -0.019812
v 0.001582 -0.001000 -0.019812
v 0.000552 0.001000 -0.020122
v 0.000552 -0.001000 -0.020122
v -0.027499 -0.001000 -0.020122
v -0.028496 -0.001000 -0.020002
v -0.027499 0.001000 -0.020122
v -0.028496 0.001000 -0.020002
v -0.029438 0.001000 -0.019621
v -0.029438 -0.001000 -0.019621
v -0.030188 0.001000 -0.018944
v -0.030188 -0.001000 -0.018944
v -0.030499 0.001000 -0.018007
v -0.030499 -0.001000 -0.018007
v -0.030499 -0.001000 -0.018007
v -0.030499 0.001000 -0.018007
v -0.030499 -0.000000 -0.011178
v -0.030499 -0.001000 -0.011178
v -0.030499 0.001000 -0.011178
v -0.030499 -0.001000 -0.011178
v -0.030499 -0.000000 -0.011178
v -0.030439 -0.001000 -0.010938
v -0.030439 -0.000000 -0.010938
v -0.030282 -0.001000 -0.010740
v -0.030282 -0.000000 -0.010740
v -0.030067 -0.001000 -0.010598
v -0.030067 -0.000000 -0.010598
v -0.030067 0.001000 -0.010598
v -0.030282 0.001000 -0.010740
v -0.030439 0.001000 -0.010938
v -0.030499 0.001000 -0.011178
v 0.027590 -0.001000 0.002761
v 0.027440 -0.001000 0.002001
v 0.027590 0.001000 0.002761
v 0.027440 0.001000 0.002001
v 0.026989 0.001000 0.001332
v 0.026989 -0.001000 0.001332
v 0.026317 0.001000 0.000897
v 0.025590 0.001000 0.000761
v 0.026317 -0.001000 0.000897
v 0.025590 -0.001000 0.000761
v 0.023478 -0.001000 0.000761
v 0.023478 0.001000 0.000761
v 0.022914 -0.001000 0.000761
v 0.022914 0.001000 0.000761
v 0.022914 -0.001000 0.000761
v 0.022155 -0.001000 0.000911
v 0.022914 0.001000 0.000761
v 0.022155 0.001000 0.000911
v 0.021486 0.001000 0.001361
v 0.021486 -0.001000 0.001361
v 0.021051 0.001000 0.002034
v 0.021051 -0.001000 0.002034
v 0.020914 0.001000 0.002761
v 0.020914 -0.001000 0.002761
v 0.020914 -0.001000 0.002761
v 0.020914 0.001000 0.002761
v 0.020914 -0.001000 0.019885
v 0.020914 0.001000 0.019885
v 0.020914 -0.001000 0.019885
v 0.020914 0.001000 0.019885
v 0.006901 -0.001000 0.013034
v 0.006901 0.001000 0.013034
v -0.003398 0.001000 -0.014324
v -0.003398 0.001000 -0.020122
v -0.003398 -0.001000 -0.014297
v -0.003398 -0.001000 -0.020122
v -0.003398 0.001000 -0.014324
v -0.002398 0.001000 -0.014324
v -0.003398 -0.001000 -0.014297
v -0.002398 -0.001000 -0.014297
v -0.001398 -0.001000 -0.014297
v -0.001398 0.001000 -0.014324
v -0.001398 0.001000 -0.014324
v -0.001398 -0.001000 -0.020122
v -0.001398 -0.001000 -0.014297
v -0.001398 0.001000 -0.020122
v 0.000552 -0.001000 -0.020122
v 0.000552 0.001000 -0.020122
v -0.001398 -0.001000 -0.020122
v -0.001398 0.001000 -0.020122
v -0.010297 0.001000 -0.020122
v -0.010297 0.000214 -0.014076
v -0.010297 -0.001000 -0.020122
v -0.010297 0.001000 -0.014089
v -0.010297 -0.001000 -0.014074
v -0.012276 -0.001000 -0.014074
v -0.011286 -0.001000 -0.014074
v -0.012276 0.001000 -0.014089
v -0.011286 0.001000 -0.014089
v -0.010297 0.000214 -0.014076
v -0.010297 0.001000 -0.014089
v -0.010297 -0.001000 -0.014074
v -0.012276 -0.001000 -0.014074
v -0.012276 -0.001000 -0.020122
v -0.012276 0.001000 -0.014089
v -0.012276 0.001000 -0.020122
v -0.012276 -0.001000 -0.020122
v -0.012276 0.001000 -0.020122
v -0.019887 -0.001000 -0.020122
v -0.019887 0.001000 -0.020122
v -0.027499 -0.001000 -0.020122
v -0.027499 0.001000 -0.020122
v -0.003398 -0.001000 -0.020122
v -0.003398 0.001000 -0.020122
v -0.010297 -0.001000 -0.020122
v -0.010297 0.001000 -0.020122
v 0.025478 0.001000 0.005580
v 0.025478 0.001000 0.000761
v 0.025478 -0.001000 0.006005
v 0.025478 -0.001000 0.000761
v 0.023478 0.001000 0.000761
v 0.023478 -0.001000 0.006005
v 0.023478 -0.001000 0.000761
v 0.023478 0.001000 0.005580
v 0.025590 -0.001000 0.000761
v 0.025590 0.001000 0.000761
v 0.025478 -0.001000 0.000761
v 0.025478 0.001000 0.000761
v 0.025478 -0.001000 0.006005
v 0.023478 -0.001000 0.006005
v 0.025478 0.001000 0.005580
v 0.023478 0.001000 0.005580
v -0.019258 0.001000 -0.003866
v -0.019258 -0.001000 -0.003866
v -0.012730 0.001000 0.000120
v -0.012730 -0.001000 0.000120
v -0.030067 -0.001000 -0.010598
v -0.027364 -0.001000 -0.008915
v -0.030067 -0.000000 -0.010598
v -0.030067 0.001000 -0.010598
v -0.027364 -0.000000 -0.008915
v -0.027364 0.001000 -0.008915
v -0.024662 -0.000000 -0.007232
v -0.024662 -0.001000 -0.007232
v -0.024662 0.001000 -0.007232
v -0.019258 -0.001000 -0.003866
v -0.019258 0.001000 -0.003866
v -0.010704 0.001000 0.000154
v -0.011186 0.001000 0.000349
v -0.010704 -0.001000 0.000154
v -0.011186 -0.001000 0.000349
v -0.011722 -0.001000 0.000413
v -0.011722 0.001000 0.000413
v -0.012255 -0.001000 0.000331
v -0.012255 0.001000 0.000331
v -0.012730 -0.001000 0.000120
v -0.012730 0.001000 0.000120
v 0.027590 0.001000 0.002761
v 0.027590 -0.001000 0.002761
v 0.027590 0.001000 0.027236
v 0.027590 -0.001000 0.027236
v -0.010704 -0.001000 0.000154
v -0.010704 0.001000 0.000154
v -0.005317 -0.001000 -0.002892
v -0.005317 0.001000 -0.002892
v -0.002347 0.001000 -0.001392
v -0.002660 0.001000 -0.002248
v -0.002347 -0.001000 -0.001392
v -0.002660 -0.001000 -0.002248
v -0.003431 -0.001000 -0.002936
v -0.003431 0.001000 -0.002936
v -0.004443 -0.001000 -0.003148
v -0.005317 -0.001000 -0.002892
v -0.004443 0.001000 -0.003148
v -0.005317 0.001000 -0.002892
v 0.000728 -0.001000 0.016655
v 0.000003 -0.001000 0.016020
v 0.000728 0.001000 0.016655
v 0.000003 0.001000 0.016020
v -0.000340 0.001000 0.015119
v -0.000340 -0.001000 0.015119
v 0.024672 -0.001000 0.029014
v 0.000728 -0.001000 0.016655
v 0.024672 0.001000 0.029014
v 0.000728 0.001000 0.016655
v 0.024672 0.001000 0.029014
v 0.025589 0.001000 0.029236
v 0.024672 -0.001000 0.029014
v 0.025589 -0.001000 0.029236
v 0.026120 -0.001000 0.029165
v 0.026120 0.001000 0.029165
v 0.026630 -0.001000 0.028944
v 0.026630 0.001000 0.028944
v 0.027061 -0.001000 0.028592
v 0.027367 -0.001000 0.028153
v 0.027061 0.001000 0.028592
v 0.027367 0.001000 0.028153
v 0.027590 0.001000 0.027236
v 0.027590 -0.001000 0.027236
v 0.024672 -0.001000 0.029014
v 0.027367 -0.001000 0.028153
v 0.027590 -0.001000 0.027236
v 0.027061 -0.001000 0.028592
v 0.026630 -0.001000 0.028944
v 0.020914 -0.001000 0.019885
v 0.025589 -0.001000 0.029236
v 0.026120 -0.001000 0.029165
v 0.000728 -0.001000 0.016655
v 0.006901 -0.001000 0.013034
v -0.000340 -0.001000 0.015119
v 0.000003 -0.001000 0.016020
v -0.002347 -0.001000 -0.001392
v 0.003291 -0.001000 0.007610
v 0.004239 -0.001000 0.010606
v 0.003525 -0.001000 0.009126
v 0.003291 -0.001000 -0.015891
v -0.002660 -0.001000 -0.002248
v 0.003099 -0.001000 -0.017449
v -0.001398 -0.001000 -0.014297
v -0.003431 -0.001000 -0.002936
v -0.003398 -0.001000 -0.014297
v 0.002489 -0.001000 -0.018883
v -0.001398 -0.001000 -0.020122
v -0.004443 -0.001000 -0.003148
v -0.010297 -0.001000 -0.014074
v -0.005317 -0.001000 -0.002892
v -0.019258 -0.001000 -0.003866
v -0.012276 -0.001000 -0.014074
v -0.012730 -0.001000 0.000120
v -0.010704 -0.001000 0.000154
v -0.012255 -0.001000 0.000331
v -0.011186 -0.001000 0.000349
v -0.011722 -0.001000 0.000413
v -0.030067 -0.001000 -0.010598
v -0.024223 -0.001000 -0.020122
v -0.012276 -0.001000 -0.020122
v -0.030499 -0.001000 -0.011178
v -0.030499 -0.001000 -0.018007
v -0.027499 -0.001000 -0.020122
v -0.028603 -0.001000 -0.019974
v -0.029620 -0.001000 -0.019503
v -0.030288 -0.001000 -0.018786
v -0.030384 -0.001000 -0.010850
v -0.030471 -0.001000 -0.011012
v -0.010297 -0.001000 -0.020122
v -0.003398 -0.001000 -0.020122
v 0.000552 -0.001000 -0.020122
v 0.001560 -0.001000 -0.019825
v 0.001050 -0.001000 -0.020052
v 0.025478 -0.001000 0.006005
v 0.023478 -0.001000 0.006005
v 0.020914 -0.001000 0.002761
v 0.023478 -0.001000 0.000761
v 0.021055 -0.001000 0.002024
v 0.022914 -0.001000 0.000761
v 0.021500 -0.001000 0.001346
v 0.022178 -0.001000 0.000901
v 0.027590 -0.001000 0.002761
v 0.025478 -0.001000 0.000761
v 0.027449 -0.001000 0.002024
v 0.027004 -0.001000 0.001346
v 0.025590 -0.001000 0.000761
v 0.026326 -0.001000 0.000901
vn 0.000000 1.000000 0.000000
vn 0.000000 1.000000 0.000000
vn 0.000000 1.000000 0.000000
vn 0.000000 1.000000 0.000000
vn 0.000000 1.000000 0.000000
vn 0.000000 1.000000 0.000000
vn 0.000000 1.000000 0.000000
vn 0.000000 1.000000 0.000000
vn 0.000000 1.000000 0.000000
vn 0.000000 1.000000 0.000000
vn 0.000000 1.000000 0.000000
vn 0.000000 1.000000 0.000000
vn 0.000000 1.000000 0.000000
vn 0.000000 1.000000 0.000000
vn 0.000000 1.000000 0.000000
vn 0.000000 1.000000 0.000000
vn 0.000000 1.000000 0.000000
vn 0.000000 1.000000 0.000000
vn 0.000000 1.000000 0.000000
vn 0.000000 1.000000 0.000000
vn 0.000000 1.000000 0.000000
vn 0.000000 1.000000 0.000000
vn 0.000000 1.000000 0.000000
vn 0.000000 1.000000 0.000000
vn 0.000000 1.000000 0.000000
vn 0.000000 1.000000 0.000000
vn 0.000000 1.000000 0.000000
vn 0.000000 1.000000 0.000000
vn 0.000000 1.000000 0.000000
vn 0.000000 1.000000 0.000000
vn 0.000000 1.000000 0.000000
vn 0.000000 1.000000 0.000000
vn 0.000000 1.000000 0.000000
vn 0.000000 1.000000 0.000000
vn 0.000000 1.000000 0.000000
vn 0.000000 1.000000 0.000000
vn 0.000000 1.000000 0.000000
vn 0.000000 1.000000 0.000000
vn 0.000000 1.000000 0.000000
vn 0.000000 1.000000 0.000000
vn 0.000000 1.000000 0.000000
vn 0.000000 1.000000 0.000000
vn 0.000000 1.000000 0.000000
vn 0.000000 1.000000 0.000000
vn 0.000000 1.000000 0.000000
vn 0.000000 1.000000 0.000000
vn 0.000000 1.000000 0.000000
vn 0.000000 1.000000 0.000000
vn 0.000000 1.000000 0.000000
vn 0.000000 1.000000 0.000000
vn 0.000000 1.000000 0.000000
vn 0.000000 1.000000 0.000000
vn 0.000000 1.000000 0.000000
vn 0.000000 1.000000 0.000000
vn 0.000000 1.000000 0.000000
vn 0.000000 1.000000 0.000000
vn 0.000000 1.000000 0.000000
vn 0.000000 1.000000 0.000000
vn 0.000000 1.000000 0.000000
vn 0.000000 1.000000 0.000000
vn 0.000000 1.000000 0.000000
vn 0.000000 1.000000 0.000000
vn 0.000000 1.000000 0.000000
vn 0.000000 1.000000 0.000000
vn -0.992689 -0.000000 0.120699
vn -0.992689 -0.000000 0.120699
vn -0.992689 -0.000000 0.120699
vn -0.992689 -0.000000 0.120699
vn 0.505512 0.000000 -0.862820
vn 0.711841 0.000000 -0.702341
vn 0.505512 0.000000 -0.862820
vn 0.711841 0.000000 -0.702341
vn 0.906785 0.000000 -0.421593
vn 0.906785 0.000000 -0.421593
vn 1.000000 0.000000 -0.000100
vn 1.000000 0.000000 -0.000100
vn 1.000000 0.000000 0.000000
vn 1.000000 0.000000 0.000000
vn 1.000000 0.000000 0.000000
vn 1.000000 0.000000 0.000000
vn 1.000000 0.000000 0.000000
vn 0.985306 0.000000 -0.170801
vn 1.000000 0.000000 0.000000
vn 0.985306 0.000000 -0.170801
vn 0.932718 0.000000 -0.360607
vn 0.932718 0.000000 -0.360607
vn 0.810553 0.000000 -0.585666
vn 0.810553 0.000000 -0.585666
vn 0.531293 0.000000 -0.847188
vn 0.531293 0.000000 -0.847188
vn 0.000100 0.000000 -1.000000
vn 0.000100 0.000000 -1.000000
vn -0.000100 0.000000 -1.000000
vn -0.241288 0.000000 -0.970453
vn -0.000100 0.000000 -1.000000
vn -0.241288 0.000000 -0.970453
vn -0.512686 0.000000 -0.858576
vn -0.512686 0.000000 -0.858576
vn -0.818950 0.000000 -0.573865
vn -0.818950 0.000000 -0.573865
vn -1.000000 0.000000 -0.000100
vn -1.000000 0.000000 -0.000100
vn -1.000000 0.000000 0.000000
vn -1.000000 0.000000 0.000000
vn -1.000000 0.000000 0.000000
vn -1.000000 0.000000 0.000000
vn -1.000000 0.000000 0.000000
vn -1.000000 -0.000000 0.000100
vn -1.000000 -0.000000 0.000100
vn -0.889044 -0.000000 0.457822
vn -0.889065 -0.000000 0.457782
vn -0.663805 -0.000000 0.747906
vn -0.663805 -0.000000 0.747906
vn -0.437588 -0.000000 0.899176
vn -0.437588 -0.000000 0.899176
vn -0.437588 -0.000000 0.899176
vn -0.663805 -0.000000 0.747906
vn -0.889044 -0.000000 0.457822
vn -1.000000 -0.000000 0.000100
vn 1.000000 0.000000 -0.000100
vn 0.925024 0.000000 -0.379910
vn 1.000000 0.000000 -0.000100
vn 0.925024 0.000000 -0.379910
vn 0.699769 0.000000 -0.714369
vn 0.699769 0.000000 -0.714369
vn 0.363411 0.000000 -0.931629
vn 0.000100 0.000000 -1.000000
vn 0.363411 0.000000 -0.931629
vn 0.000100 0.000000 -1.000000
vn 0.000000 0.000000 -1.000000
vn 0.000000 0.000000 -1.000000
vn 0.000000 0.000000 -1.000000
vn 0.000000 0.000000 -1.000000
vn -0.000100 0.000000 -1.000000
vn -0.379910 0.000000 -0.925024
vn -0.000100 0.000000 -1.000000
vn -0.379910 0.000000 -0.925024
vn -0.714468 0.000000 -0.699668
vn -0.714468 0.000000 -0.699668
vn -0.931629 0.000000 -0.363411
vn -0.931629 0.000000 -0.363411
vn -1.000000 0.000000 -0.000100
vn -1.000000 0.000000 -0.000100
vn -1.000000 0.000000 0.000000
vn -1.000000 0.000000 0.000000
vn -1.000000 0.000000 0.000000
vn -1.000000 0.000000 0.000000
vn 0.439196 0.000000 -0.898391
vn 0.439196 0.000000 -0.898391
vn 0.439196 0.000000 -0.898391
vn 0.439196 0.000000 -0.898391
vn 1.000000 0.000000 0.000000
vn 1.000000 0.000000 0.000000
vn 1.000000 0.000000 0.000000
vn 1.000000 0.000000 0.000000
vn 0.000000 -0.067899 -0.997692
vn 0.000000 -0.067899 -0.997692
vn 0.000000 0.040998 -0.999159
vn 0.000000 0.040998 -0.999159
vn 0.000000 0.040998 -0.999159
vn 0.000000 -0.067899 -0.997692
vn -1.000000 0.000000 0.000000
vn -1.000000 0.000000 0.000000
vn -1.000000 0.000000 0.000000
vn -1.000000 0.000000 0.000000
vn 0.000000 0.000000 -1.000000
vn 0.000000 0.000000 -1.000000
vn 0.000000 0.000000 -1.000000
vn 0.000000 0.000000 -1.000000
vn -1.000000 0.000000 0.000000
vn -1.000000 0.000000 0.000000
vn -1.000000 0.000000 0.000000
vn -1.000000 0.000000 0.000000
vn -1.000000 0.000000 0.000000
vn 0.000000 0.007800 -0.999970
vn 0.000000 0.007700 -0.999970
vn 0.000000 -0.022099 -0.999756
vn 0.000000 -0.021999 -0.999758
vn 0.000100 -0.011200 -0.999937
vn 0.000000 -0.022099 -0.999756
vn 0.000000 0.007700 -0.999970
vn 1.000000 0.000000 0.000000
vn 1.000000 0.000000 0.000000
vn 1.000000 0.000000 0.000000
vn 1.000000 0.000000 0.000000
vn 0.000000 0.000000 -1.000000
vn 0.000000 0.000000 -1.000000
vn 0.000000 0.000000 -1.000000
vn 0.000000 0.000000 -1.000000
vn 0.000000 0.000000 -1.000000
vn 0.000000 0.000000 -1.000000
vn 0.000000 0.000000 -1.000000
vn 0.000000 0.000000 -1.000000
vn 0.000000 0.000000 -1.000000
vn 0.000000 0.000000 -1.000000
vn -1.000000 0.000000 0.000000
vn -1.000000 0.000000 0.000000
vn -1.000000 0.000000 0.000000
vn -1.000000 0.000000 0.000000
vn 1.000000 0.000000 0.000000
vn 1.000000 0.000000 0.000000
vn 1.000000 0.000000 0.000000
vn 1.000000 0.000000 0.000000
vn 0.000000 0.000000 -1.000000
vn 0.000000 0.000000 -1.000000
vn 0.000000 0.000000 -1.000000
vn 0.000000 0.000000 -1.000000
vn 0.000000 -0.207890 -0.978152
vn 0.000000 -0.207890 -0.978152
vn 0.000000 -0.207890 -0.978152
vn 0.000000 -0.207890 -0.978152
vn -0.521171 -0.000000 0.853452
vn -0.521171 -0.000000 0.853452
vn -0.521171 -0.000000 0.853452
vn -0.521171 -0.000000 0.853452
vn -0.528704 -0.000000 0.848806
vn -0.528704 -0.000000 0.848806
vn -0.528704 -0.000000 0.848806
vn -0.528704 -0.000000 0.848806
vn -0.528704 -0.000000 0.848806
vn -0.528704 -0.000000 0.848806
vn -0.528704 -0.000000 0.848806
vn -0.528704 -0.000000 0.848806
vn -0.528704 -0.000000 0.848806
vn -0.528704 -0.000000 0.848806
vn -0.528704 -0.000000 0.848806
vn 0.492117 -0.000000 0.870529
vn 0.250997 -0.000000 0.967988
vn 0.492117 -0.000000 0.870529
vn 0.250997 -0.000000 0.967988
vn -0.016799 -0.000000 0.999859
vn -0.016799 -0.000000 0.999859
vn -0.283309 -0.000000 0.959029
vn -0.283309 -0.000000 0.959029
vn -0.521098 -0.000000 0.853497
vn -0.521098 -0.000000 0.853497
vn 1.000000 0.000000 0.000000
vn 1.000000 0.000000 0.000000
vn 1.000000 0.000000 0.000000
vn 1.000000 0.000000 0.000000
vn 0.492192 -0.000000 0.870487
vn 0.492192 -0.000000 0.870487
vn 0.492192 -0.000000 0.870487
vn 0.492192 -0.000000 0.870487
vn -0.992689 -0.000000 0.120699
vn -0.836135 -0.000000 0.548523
vn -0.992689 -0.000000 0.120699
vn -0.836135 -0.000000 0.548523
vn -0.450690 -0.000000 0.892680
vn -0.450690 -0.000000 0.892680
vn 0.054999 -0.000000 0.998486
vn 0.492117 -0.000000 0.870529
vn 0.054999 -0.000000 0.998486
vn 0.492117 -0.000000 0.870529
vn -0.458696 -0.000000 0.888593
vn -0.821013 -0.000000 0.570909
vn -0.458696 -0.000000 0.888593
vn -0.821013 -0.000000 0.570909
vn -0.992689 -0.000000 0.120699
vn -0.992689 -0.000000 0.120699
vn -0.458617 -0.000000 0.888634
vn -0.458617 -0.000000 0.888634
vn -0.458617 -0.000000 0.888634
vn -0.458617 -0.000000 0.888634
vn -0.458498 -0.000000 0.888696
vn -0.000500 -0.000000 1.000000
vn -0.458498 -0.000000 0.888696
vn -0.000500 -0.000000 1.000000
vn 0.264894 -0.000000 0.964278
vn 0.264894 -0.000000 0.964278
vn 0.520220 -0.000000 0.854032
vn 0.520220 -0.000000 0.854032
vn 0.735417 -0.000000 0.677615
vn 0.888839 -0.000000 0.458220
vn 0.735417 -0.000000 0.677615
vn 0.888839 -0.000000 0.458220
vn 1.000000 -0.000000 0.000100
vn 1.000000 -0.000000 0.000100
vn 0.000000 -1.000000 -0.000000
vn 0.000000 -1.000000 -0.000000
vn 0.000000 -1.000000 -0.000000
vn 0.000000 -1.000000 -0.000000
vn 0.000000 -1.000000 -0.000000
vn 0.000000 -1.000000 -0.000000
vn 0.000000 -1.000000 -0.000000
vn 0.000000 -1.000000 -0.000000
vn 0.000000 -1.000000 -0.000000
vn 0.000000 -1.000000 -0.000000
vn 0.000000 -1.000000 -0.000000
vn 0.000000 -1.000000 -0.000000
vn 0.000000 -1.000000 -0.000000
vn 0.000000 -1.000000 -0.000000
vn 0.000000 -1.000000 -0.000000
vn 0.000000 -1.000000 -0.000000
vn 0.000000 -1.000000 -0.000000
vn 0.000000 -1.000000 -0.000000
vn 0.000000 -1.000000 -0.000000
vn 0.000000 -1.000000 -0.000000
vn 0.000000 -1.000000 -0.000000
vn 0.000000 -1.000000 -0.000000
vn 0.000000 -1.000000 -0.000000
vn 0.000000 -1.000000 -0.000000
vn 0.000000 -1.000000 -0.000000
vn 0.000000 -1.000000 -0.000000
vn 0.000000 -1.000000 -0.000000
vn 0.000000 -1.000000 -0.000000
vn 0.000000 -1.000000 -0.000000
vn 0.000000 -1.000000 -0.000000
vn 0.000000 -1.000000 -0.000000
vn 0.000000 -1.000000 -0.000000
vn 0.000000 -1.000000 -0.000000
vn 0.000000 -1.000000 -0.000000
vn 0.000000 -1.000000 -0.000000
vn 0.000000 -1.000000 -0.000000
vn 0.000000 -1.000000 -0.000000
vn 0.000000 -1.000000 -0.000000
vn 0.000000 -1.000000 -0.000000
vn 0.000000 -1.000000 -0.000000
vn 0.000000 -1.000000 -0.000000
vn 0.000000 -1.000000 -0.000000
vn 0.000000 -1.000000 -0.000000
vn 0.000000 -1.000000 -0.000000
vn 0.000000 -1.000000 -0.000000
vn 0.000000 -1.000000 -0.000000
vn 0.000000 -1.000000 -0.000000
vn 0.000000 -1.000000 -0.000000
vn 0.000000 -1.000000 -0.000000
vn 0.000000 -1.000000 -0.000000
vn 0.000000 -1.000000 -0.000000
vn 0.000000 -1.000000 -0.000000
vn 0.000000 -1.000000 -0.000000
vn 0.000000 -1.000000 -0.000000
vn 0.000000 -1.000000 -0.000000
vn 0.000000 -1.000000 -0.000000
vn 0.000000 -1.000000 -0.000000
vn 0.000000 -1.000000 -0.000000
vn 0.000000 -1.000000 -0.000000
vn 0.000000 -1.000000 -0.000000
vn 0.000000 -1.000000 -0.000000
vn 0.000000 -1.000000 -0.000000
vn 0.000000 -1.000000 -0.000000
vn 0.000000 -1.000000 -0.000000
f 6//6 2//2 1//1
f 2//2 3//3 1//1
f 1//1 3//3 5//5
f 4//4 1//1 5//5
f 8//8 7//7 6//6
f 7//7 2//2 6//6
f 8//8 9//9 7//7
f 9//9 11//11 10//10
f 10//10 7//7 9//9
f 12//12 14//14 5//5
f 5//5 13//13 12//12
f 5//5 14//14 15//15
f 5//5 15//15 4//4
f 3//3 16//16 5//5
f 16//16 19//19 17//17
f 17//17 18//18 16//16
f 16//16 3//3 19//19
f 19//19 20//20 17//17
f 17//17 20//20 21//21
f 17//17 21//21 22//22
f 23//23 24//24 22//22
f 17//17 22//22 24//24
f 24//24 23//23 25//25
f 26//26 25//25 23//23
f 26//26 27//27 25//25
f 27//27 26//26 28//28
f 29//29 28//28 31//31
f 26//26 30//30 28//28
f 28//28 30//30 31//31
f 30//30 51//51 32//32
f 30//30 32//32 31//31
f 29//29 31//31 33//33
f 34//34 36//36 33//33
f 33//33 35//35 34//34
f 36//36 37//37 33//33
f 37//37 29//29 33//33
f 38//38 29//29 37//37
f 38//38 40//40 29//29
f 39//39 40//40 38//38
f 39//39 41//41 40//40
f 42//42 41//41 39//39
f 44//44 43//43 36//36
f 44//44 36//36 34//34
f 45//45 44//44 34//34
f 43//43 44//44 46//46
f 45//45 34//34 47//47
f 47//47 48//48 45//45
f 45//45 48//48 49//49
f 49//49 50//50 45//45
f 54//54 52//52 26//26
f 23//23 53//53 26//26
f 26//26 53//53 54//54
f 52//52 54//54 55//55
f 54//54 56//56 55//55
f 55//55 56//56 57//57
f 3//3 59//59 58//58
f 2//2 59//59 3//3
f 59//59 60//60 58//58
f 58//58 60//60 61//61
f 61//61 60//60 62//62
f 62//62 63//63 61//61
f 63//63 62//62 64//64
f 65//65 67//67 68//68
f 65//65 68//68 66//66
f 70//70 72//72 71//71
f 70//70 71//71 69//69
f 73//73 72//72 70//70
f 73//73 70//70 74//74
f 76//76 75//75 73//73
f 76//76 73//73 74//74
f 78//78 77//77 79//79
f 78//78 79//79 80//80
f 82//82 84//84 83//83
f 82//82 83//83 81//81
f 85//85 84//84 82//82
f 85//85 82//82 86//86
f 87//87 85//85 86//86
f 87//87 86//86 88//88
f 89//89 87//87 88//88
f 89//89 88//88 90//90
f 92//92 91//91 89//89
f 92//92 89//89 90//90
f 94//94 96//96 95//95
f 94//94 95//95 93//93
f 97//97 96//96 94//94
f 97//97 94//94 98//98
f 99//99 97//97 98//98
f 99//99 98//98 100//100
f 102//102 101//101 99//99
f 102//102 99//99 100//100
f 104//104 103//103 105//105
f 104//104 105//105 107//107
f 103//103 106//106 105//105
f 109//109 108//108 110//110
f 109//109 110//110 111//111
f 113//113 111//111 110//110
f 113//113 110//110 112//112
f 113//113 112//112 114//114
f 113//113 114//114 115//115
f 115//115 116//116 117//117
f 115//115 117//117 113//113
f 117//117 118//118 111//111
f 117//117 111//111 113//113
f 111//111 118//118 119//119
f 111//111 119//119 109//109
f 121//121 123//123 122//122
f 121//121 122//122 120//120
f 124//124 123//123 121//121
f 124//124 121//121 125//125
f 126//126 124//124 125//125
f 126//126 125//125 128//128
f 129//129 127//127 126//126
f 129//129 126//126 128//128
f 131//131 130//130 132//132
f 131//131 132//132 133//133
f 135//135 137//137 136//136
f 135//135 136//136 134//134
f 138//138 137//137 135//135
f 138//138 135//135 139//139
f 140//140 138//138 139//139
f 140//140 139//139 141//141
f 143//143 142//142 140//140
f 143//143 140//140 141//141
f 145//145 144//144 146//146
f 145//145 146//146 147//147
f 149//149 148//148 150//150
f 149//149 150//150 151//151
f 153//153 152//152 154//154
f 154//154 155//155 153//153
f 157//157 159//159 158//158
f 157//157 158//158 156//156
f 161//161 160//160 159//159
f 161//161 159//159 157//157
f 162//162 165//165 163//163
f 163//163 164//164 162//162
f 167//167 166//166 168//168
f 167//167 168//168 169//169
f 173//173 170//170 171//171
f 171//171 170//170 172//172
f 174//174 171//171 172//172
f 176//176 175//175 177//177
f 176//176 177//177 178//178
f 176//176 178//178 179//179
f 178//178 180//180 179//179
f 179//179 181//181 176//176
f 183//183 184//184 182//182
f 184//184 183//183 185//185
f 187//187 186//186 188//188
f 187//187 188//188 189//189
f 190//190 191//191 189//189
f 190//190 189//189 188//188
f 193//193 192//192 194//194
f 193//193 194//194 195//195
f 197//197 198//198 196//196
f 198//198 197//197 199//199
f 200//200 203//203 201//201
f 201//201 202//202 200//200
f 205//205 204//204 206//206
f 205//205 206//206 207//207
f 209//209 211//211 210//210
f 209//209 210//210 208//208
f 213//213 215//215 214//214
f 213//213 214//214 212//212
f 217//217 220//220 218//218
f 217//217 218//218 216//216
f 219//219 218//218 220//220
f 219//219 220//220 221//221
f 224//224 221//221 220//220
f 224//224 220//220 222//222
f 222//222 220//220 217//217
f 222//222 217//217 223//223
f 222//222 223//223 225//225
f 222//222 226//226 224//224
f 226//226 222//222 225//225
f 228//228 230//230 229//229
f 228//228 229//229 227//227
f 232//232 231//231 230//230
f 232//232 230//230 228//228
f 234//234 233//233 231//231
f 234//234 231//231 232//232
f 236//236 235//235 233//233
f 236//236 233//233 234//234
f 238//238 237//237 239//239
f 238//238 239//239 240//240
f 242//242 241//241 243//243
f 242//242 243//243 244//244
f 246//246 248//248 247//247
f 246//246 247//247 245//245
f 250//250 249//249 248//248
f 250//250 248//248 246//246
f 253//253 251//251 249//249
f 253//253 249//249 250//250
f 254//254 252//252 251//251
f 254//254 251//251 253//253
f 256//256 255//255 257//257
f 256//256 257//257 258//258
f 260//260 256//256 258//258
f 260//260 258//258 259//259
f 261//261 263//263 264//264
f 261//261 264//264 262//262
f 266//266 265//265 267//267
f 266//266 267//267 268//268
f 270//270 266//266 268//268
f 270//270 268//268 269//269
f 272//272 270//270 269//269
f 272//272 269//269 271//271
f 275//275 272//272 271//271
f 275//275 271//271 273//273
f 276//276 275//275 273//273
f 276//276 273//273 274//274
f 277//277 276//276 274//274
f 277//277 274//274 278//278
f 279//279 280//280 282//282
f 280//280 279//279 281//281
f 279//279 284//284 281//281
f 282//282 283//283 279//279
f 279//279 283//283 286//286
f 287//287 284//284 279//279
f 279//279 286//286 285//285
f 287//287 288//288 284//284
f 289//289 288//288 287//287
f 289//289 287//287 290//290
f 291//291 292//292 289//289
f 289//289 292//292 294//294
f 289//289 293//293 288//288
f 289//289 294//294 293//293
f 292//292 291//291 295//295
f 295//295 291//291 296//296
f 296//296 298//298 295//295
f 295//295 298//298 297//297
f 299//299 298//298 296//296
f 303//303 298//298 299//299
f 303//303 300//300 298//298
f 301//301 297//297 298//298
f 301//301 298//298 302//302
f 303//303 304//304 300//300
f 303//303 305//305 304//304
f 307//307 304//304 305//305
f 308//308 306//306 305//305
f 306//306 307//307 305//305
f 305//305 309//309 308//308
f 310//310 309//309 311//311
f 310//310 308//308 309//309
f 312//312 310//310 311//311
f 313//313 307//307 306//306
f 307//307 313//313 314//314
f 315//315 307//307 314//314
f 316//316 314//314 313//313
f 314//314 316//316 317//317
f 318//318 314//314 317//317
f 317//317 319//319 318//318
f 317//317 320//320 319//319
f 320//320 317//317 321//321
f 316//316 313//313 322//322
f 322//322 323//323 316//316
f 325//325 300//300 304//304
f 325//325 304//304 324//324
f 301//301 302//302 326//326
f 301//301 326//326 327//327
f 327//327 326//326 328//328
f 329//329 281//281 284//284
f 330//330 329//329 284//284
f 331//331 330//330 284//284
f 331//331 332//332 330//330
f 332//332 331//331 333//333
f 334//334 332//332 333//333
f 334//334 333//333 335//335
f 335//335 336//336 334//334
f 329//329 337//337 281//281
f 329//329 338//338 337//337
f 337//337 338//338 339//339
f 339//339 338//338 340//340
f 338//338 341//341 340//340
f 340//340 341//341 342//342
