# arm_15 exported from /models/landings/arm_15.glb
# units: meters
v -0.028054 0.001000 -0.004763
v -0.008054 0.001000 -0.004763
v -0.027645 0.001000 -0.002761
v -0.026334 0.001000 -0.000714
v -0.008054 0.001000 -0.001763
v -0.004054 0.001000 -0.000763
v -0.004720 0.001000 -0.000254
v -0.006054 0.001000 -0.001763
v -0.006054 0.001000 -0.004763
v -0.002973 0.001000 -0.000998
v 0.021945 0.001000 -0.004763
v 0.018864 0.001000 -0.000998
v 0.019945 0.001000 -0.000763
v 0.021945 0.001000 -0.001763
v 0.023945 0.001000 -0.001763
v 0.023945 0.001000 -0.004763
v 0.026945 0.001000 -0.004763
v 0.026108 0.001000 -0.000553
v 0.020611 0.001000 -0.000254
v 0.021066 0.001000 0.000530
v 0.021173 0.001000 0.001431
v 0.023723 0.001000 0.003015
v 0.020945 0.001000 0.002237
v 0.020611 0.001000 0.002728
v 0.020122 0.001000 0.003139
v 0.019515 0.001000 0.003399
v 0.020155 0.001000 0.005400
v 0.018864 0.001000 0.003473
v 0.015945 0.001000 0.006237
v -0.003554 0.001000 0.006237
v -0.003032 0.001000 0.003473
v -0.003077 0.001000 0.003473
v -0.003701 0.001000 0.003377
v -0.004275 0.001000 0.003110
v -0.020878 0.001000 0.003015
v -0.005176 0.001000 0.000530
v -0.004737 0.001000 0.002710
v -0.005282 0.001000 0.001431
v -0.005054 0.001000 0.002237
v 0.018864 0.001000 0.003472
v 0.026945 -0.001000 -0.004763
v 0.026738 -0.001000 -0.002638
v 0.026945 0.001000 -0.004763
v 0.026738 0.001000 -0.002638
v 0.026108 0.001000 -0.000553
v 0.026108 -0.001000 -0.000553
v 0.025079 0.001000 0.001366
v 0.025079 -0.001000 0.001366
v 0.023723 0.001000 0.003015
v 0.023723 -0.001000 0.003015
v 0.022074 0.001000 0.004371
v 0.020155 0.001000 0.005400
v 0.022074 -0.001000 0.004371
v 0.020155 -0.001000 0.005400
v 0.018071 -0.001000 0.006030
v 0.015945 -0.001000 0.006237
v 0.018071 0.001000 0.006030
v 0.015945 0.001000 0.006237
v -0.003554 -0.001000 0.006237
v -0.003554 0.001000 0.006237
v 0.015945 -0.001000 0.006237
v 0.015945 0.001000 0.006237
v -0.003554 -0.001000 0.006237
v -0.008012 -0.001000 0.006053
v -0.003554 0.001000 0.006237
v -0.008012 0.001000 0.006053
v -0.012573 0.001000 0.005465
v -0.012573 -0.001000 0.005465
v -0.016961 0.001000 0.004444
v -0.016961 -0.001000 0.004444
v -0.020878 0.001000 0.003015
v -0.024060 0.001000 0.001256
v -0.020878 -0.001000 0.003015
v -0.024060 -0.001000 0.001256
v -0.026334 -0.001000 -0.000714
v -0.026334 0.001000 -0.000714
v -0.027645 -0.001000 -0.002761
v -0.027645 0.001000 -0.002761
v -0.028054 -0.001000 -0.004763
v -0.028054 0.001000 -0.004763
v 0.023945 -0.001000 -0.001763
v 0.021945 -0.001000 -0.001763
v 0.023945 0.001000 -0.001763
v 0.021945 0.001000 -0.001763
v 0.023945 -0.001000 -0.004763
v 0.023945 0.001000 -0.004763
v 0.026945 -0.001000 -0.004763
v 0.026945 0.001000 -0.004763
v 0.021945 0.001000 -0.001763
v 0.021945 -0.001000 -0.001763
v 0.021945 0.001000 -0.004763
v 0.021945 -0.001000 -0.004763
v 0.023945 0.001000 -0.001763
v 0.023945 -0.001000 -0.001763
v 0.023945 0.001000 -0.004763
v 0.023945 -0.001000 -0.004763
v -0.008054 -0.001000 -0.004763
v -0.008054 0.001000 -0.004763
v -0.008054 -0.001000 -0.001763
v -0.008054 0.001000 -0.001763
v -0.008054 -0.001000 -0.001763
v -0.006054 -0.001000 -0.001763
v -0.008054 0.001000 -0.001763
v -0.006054 0.001000 -0.001763
v -0.028054 -0.001000 -0.004763
v -0.028054 0.001000 -0.004763
v -0.008054 -0.001000 -0.004763
v -0.008054 0.001000 -0.004763
v -0.006054 -0.001000 -0.004763
v -0.006054 0.001000 -0.004763
v -0.006054 -0.001000 -0.001763
v -0.006054 0.001000 -0.001763
v 0.021945 -0.001000 -0.004763
v 0.021945 0.001000 -0.004763
v 0.018192 -0.001000 -0.004763
v -0.002301 -0.001000 -0.004763
v -0.006054 -0.001000 -0.004763
v -0.006054 0.001000 -0.004763
v -0.003077 0.001000 0.003473
v -0.003701 0.001000 0.003377
v -0.003077 -0.000000 0.003473
v -0.003701 -0.001000 0.003377
v -0.003077 -0.001000 0.003473
v -0.004275 -0.001000 0.003110
v -0.004275 0.001000 0.003110
v -0.004737 -0.001000 0.002710
v -0.004737 0.001000 0.002710
v -0.005054 -0.001000 0.002237
v -0.005054 0.001000 0.002237
v -0.005282 -0.001000 0.001431
v -0.005282 0.001000 0.001431
v -0.005176 -0.001000 0.000530
v -0.005176 0.001000 0.000530
v -0.004720 -0.001000 -0.000254
v -0.004054 -0.001000 -0.000763
v -0.004054 -0.000000 -0.000763
v -0.004720 0.001000 -0.000254
v -0.004054 0.001000 -0.000763
v 0.018864 0.001000 -0.000998
v 0.019945 0.001000 -0.000763
v 0.018864 -0.000000 -0.000998
v 0.018864 -0.001000 -0.000998
v 0.019945 -0.000000 -0.000763
v 0.019945 -0.001000 -0.000763
v 0.018864 -0.001000 0.003472
v 0.018864 -0.000000 0.003472
v 0.018864 -0.001000 0.003472
v 0.018864 0.001000 0.003472
v 0.018864 0.001000 0.003472
v -0.004054 -0.001000 -0.000763
v -0.004054 -0.000000 -0.000763
v -0.002973 -0.001000 -0.000998
v -0.002973 -0.000000 -0.000998
v -0.002973 0.001000 -0.000998
v -0.004054 0.001000 -0.000763
v 0.019945 -0.001000 -0.000763
v 0.020611 -0.001000 -0.000254
v 0.019945 -0.000000 -0.000763
v 0.019945 0.001000 -0.000763
v 0.020611 0.001000 -0.000254
v 0.021066 0.001000 0.000530
v 0.021173 0.001000 0.001431
v 0.021066 -0.001000 0.000530
v 0.021173 -0.001000 0.001431
v 0.020945 -0.001000 0.002237
v 0.020611 -0.001000 0.002728
v 0.020945 0.001000 0.002237
v 0.020611 0.001000 0.002728
v 0.020122 0.001000 0.003139
v 0.019515 0.001000 0.003399
v 0.020122 -0.001000 0.003139
v 0.019515 -0.001000 0.003399
v 0.019052 -0.000750 0.003470
v 0.019241 -0.000000 0.003453
v 0.018888 -0.000969 0.003472
v 0.018958 -0.000875 0.003473
v 0.018876 -0.000984 0.003472
v 0.018864 -0.001000 0.003472
v 0.019241 -0.000500 0.003453
v 0.018911 -0.000937 0.003473
v 0.018870 -0.000992 0.003472
v 0.018870 -0.000984 0.003472
v 0.018867 -0.000992 0.003472
v 0.018867 -0.000996 0.003472
v 0.018866 -0.000996 0.003472
v 0.018866 -0.000998 0.003472
v 0.018865 -0.000998 0.003472
v 0.018865 -0.000999 0.003472
v 0.018865 -0.000999 0.003472
v 0.018864 -0.001000 0.003472
v 0.018865 -0.000998 0.003472
v 0.018865 -0.000996 0.003472
v 0.018864 -0.000000 0.003472
v 0.019052 -0.000000 0.003470
v 0.018958 -0.000500 0.003473
v 0.018911 -0.000750 0.003473
v 0.018958 0.000500 0.003473
v 0.018911 0.000750 0.003473
v 0.018870 -0.000969 0.003472
v 0.018876 -0.000937 0.003472
v 0.018888 -0.000875 0.003472
v 0.018867 -0.000984 0.003472
v 0.018866 -0.000992 0.003472
v 0.018876 0.000937 0.003472
v 0.018870 0.000969 0.003472
v 0.018867 0.000984 0.003472
v 0.018888 0.000875 0.003472
v 0.018866 0.000992 0.003472
v 0.018865 0.000996 0.003472
v 0.018864 0.001000 0.003472
v 0.018864 0.001000 0.003472
v 0.018865 0.000998 0.003472
v 0.018866 0.000998 0.003472
v 0.018866 0.000996 0.003472
v 0.018867 0.000996 0.003472
v 0.018870 0.000992 0.003472
v 0.018867 0.000992 0.003472
v 0.018876 0.000984 0.003472
v 0.018870 0.000984 0.003472
v 0.018888 0.000969 0.003472
v 0.018876 0.000969 0.003472
v 0.018911 0.000937 0.003473
v 0.018888 0.000937 0.003472
v 0.018911 0.000875 0.003473
v 0.018958 0.000875 0.003473
v 0.019052 0.000750 0.003470
v 0.018958 0.000750 0.003473
v 0.019241 0.000500 0.003453
v 0.019052 0.000500 0.003470
v 0.018911 -0.000875 0.003473
v 0.018888 -0.000937 0.003472
v 0.018876 -0.000969 0.003472
v 0.018958 -0.000750 0.003473
v 0.019052 -0.000500 0.003470
v 0.018864 0.001000 -0.000998
v -0.002973 0.001000 -0.000998
v -0.002973 -0.000000 -0.000998
v 0.018864 -0.000000 -0.000998
v -0.002973 -0.001000 -0.000998
v 0.018864 -0.001000 -0.000998
v -0.003077 -0.001000 0.003473
v -0.003077 -0.000000 0.003473
v -0.003032 -0.001000 0.003473
v 0.018864 -0.001000 0.003472
v 0.018864 0.001000 0.003472
v -0.003032 0.001000 0.003473
v -0.003077 0.001000 0.003473
v -0.028054 -0.001000 -0.004763
v -0.027645 -0.001000 -0.002761
v -0.008054 -0.001000 -0.004763
v -0.008054 -0.001000 -0.001763
v -0.026334 -0.001000 -0.000714
v -0.004720 -0.001000 -0.000254
v -0.004054 -0.001000 -0.000763
v -0.006054 -0.001000 -0.001763
v -0.006054 -0.001000 -0.004763
v -0.002301 -0.001000 -0.004763
v -0.002973 -0.001000 -0.000998
v 0.018864 -0.001000 -0.000998
v 0.018192 -0.001000 -0.004763
v 0.021945 -0.001000 -0.001763
v 0.021945 -0.001000 -0.004763
v 0.019945 -0.001000 -0.000763
v 0.023945 -0.001000 -0.001763
v 0.026945 -0.001000 -0.004763
v 0.023945 -0.001000 -0.004763
v 0.026108 -0.001000 -0.000553
v 0.020611 -0.001000 -0.000254
v 0.021066 -0.001000 0.000530
v 0.021173 -0.001000 0.001431
v 0.023723 -0.001000 0.003015
v 0.020945 -0.001000 0.002237
v 0.020611 -0.001000 0.002728
v 0.020122 -0.001000 0.003139
v 0.019515 -0.001000 0.003399
v 0.020155 -0.001000 0.005400
v 0.018864 -0.001000 0.003473
v 0.015945 -0.001000 0.006237
v -0.003032 -0.001000 0.003473
v -0.003554 -0.001000 0.006237
v -0.003077 -0.001000 0.003473
v -0.020878 -0.001000 0.003015
v -0.003701 -0.001000 0.003377
v -0.004275 -0.001000 0.003110
v -0.004737 -0.001000 0.002710
v -0.005054 -0.001000 0.002237
v -0.005282 -0.001000 0.001431
v -0.005176 -0.001000 0.000530
v 0.018864 -0.001000 0.003472
vn 0.000000 1.000000 0.000000
vn 0.000000 1.000000 0.000000
vn 0.000000 1.000000 0.000000
vn 0.000000 1.000000 0.000000
vn 0.000000 1.000000 0.000000
vn 0.000000 1.000000 0.000000
vn 0.000000 1.000000 0.000000
vn 0.000000 1.000000 0.000000
vn 0.000000 1.000000 0.000000
vn 0.000000 1.000000 0.000000
vn 0.000000 1.000000 0.000000
vn 0.000000 1.000000 0.000000
vn 0.000000 1.000000 0.000000
vn 0.000000 1.000000 0.000000
vn 0.000000 1.000000 0.000000
vn 0.000000 1.000000 0.000000
vn 0.000000 1.000000 0.000000
vn 0.000000 1.000000 0.000000
vn 0.000000 1.000000 0.000000
vn 0.000000 1.000000 0.000000
vn 0.000000 1.000000 0.000000
vn 0.000000 1.000000 0.000000
vn 0.000000 1.000000 0.000000
vn 0.000000 1.000000 0.000000
vn 0.000000 1.000000 0.000000
vn 0.000000 1.000000 0.000000
vn 0.000000 1.000000 0.000000
vn 0.000000 1.000000 0.000000
vn 0.000000 1.000000 0.000000
vn 0.000000 1.000000 0.000000
vn 0.000000 1.000000 0.000000
vn 0.000000 1.000000 0.000000
vn 0.000000 1.000000 0.000000
vn 0.000000 1.000000 0.000000
vn 0.000000 1.000000 0.000000
vn 0.000000 1.000000 0.000000
vn 0.000000 1.000000 0.000000
vn 0.000000 1.000000 0.000000
vn 0.000000 1.000000 0.000000
vn 0.000000 1.000000 0.000000
vn 1.000000 -0.000000 0.000100
vn 0.981180 -0.000000 0.193096
vn 1.000000 -0.000000 0.000100
vn 0.981180 -0.000000 0.193096
vn 0.923877 -0.000000 0.382690
vn 0.923877 -0.000000 0.382690
vn 0.830385 -0.000000 0.557190
vn 0.830385 -0.000000 0.557190
vn 0.707107 -0.000000 0.707107
vn 0.707107 -0.000000 0.707107
vn 0.557190 -0.000000 0.830385
vn 0.382690 -0.000000 0.923877
vn 0.557190 -0.000000 0.830385
vn 0.382690 -0.000000 0.923877
vn 0.193096 -0.000000 0.981180
vn 0.000100 -0.000000 1.000000
vn 0.193096 -0.000000 0.981180
vn 0.000100 -0.000000 1.000000
vn 0.000000 -0.000000 1.000000
vn 0.000000 -0.000000 1.000000
vn 0.000000 -0.000000 1.000000
vn 0.000000 -0.000000 1.000000
vn 0.000000 -0.000000 1.000000
vn -0.082897 -0.000000 0.996558
vn 0.000000 -0.000000 1.000000
vn -0.082897 -0.000000 0.996558
vn -0.175091 -0.000000 0.984552
vn -0.175091 -0.000000 0.984552
vn -0.281609 -0.000000 0.959529
vn -0.281609 -0.000000 0.959529
vn -0.409587 -0.000000 0.912271
vn -0.566117 -0.000000 0.824325
vn -0.409587 -0.000000 0.912271
vn -0.566117 -0.000000 0.824325
vn -0.750112 -0.000000 0.661311
vn -0.750112 -0.000000 0.661311
vn -0.924529 -0.000000 0.381112
vn -0.924529 -0.000000 0.381112
vn -1.000000 -0.000000 0.000100
vn -1.000000 -0.000000 0.000100
vn 0.000000 0.000000 -1.000000
vn 0.000000 0.000000 -1.000000
vn 0.000000 0.000000 -1.000000
vn 0.000000 0.000000 -1.000000
vn 0.000000 0.000000 -1.000000
vn 0.000000 0.000000 -1.000000
vn 0.000000 0.000000 -1.000000
vn 0.000000 0.000000 -1.000000
vn 1.000000 0.000000 0.000000
vn 1.000000 0.000000 0.000000
vn 1.000000 0.000000 0.000000
vn 1.000000 0.000000 0.000000
vn -1.000000 0.000000 0.000000
vn -1.000000 0.000000 0.000000
vn -1.000000 0.000000 0.000000
vn -1.000000 0.000000 0.000000
vn 1.000000 0.000000 0.000000
vn 1.000000 0.000000 0.000000
vn 1.000000 0.000000 0.000000
vn 1.000000 0.000000 0.000000
vn 0.000000 0.000000 -1.000000
vn 0.000000 0.000000 -1.000000
vn 0.000000 0.000000 -1.000000
vn 0.000000 0.000000 -1.000000
vn 0.000000 0.000000 -1.000000
vn 0.000000 0.000000 -1.000000
vn 0.000000 0.000000 -1.000000
vn 0.000000 0.000000 -1.000000
vn -1.000000 0.000000 0.000000
vn -1.000000 0.000000 0.000000
vn -1.000000 0.000000 0.000000
vn -1.000000 0.000000 0.000000
vn 0.000000 0.000000 -1.000000
vn 0.000000 0.000000 -1.000000
vn 0.000000 0.000000 -1.000000
vn 0.000000 0.000000 -1.000000
vn 0.000000 0.000000 -1.000000
vn 0.000000 0.000000 -1.000000
vn 0.010300 0.000000 -0.999947
vn 0.289402 0.000000 -0.957208
vn 0.010300 0.000000 -0.999947
vn 0.289402 0.000000 -0.957208
vn 0.010300 0.000000 -0.999947
vn 0.545923 0.000000 -0.837835
vn 0.545923 0.000000 -0.837835
vn 0.752496 0.000000 -0.658597
vn 0.752496 0.000000 -0.658597
vn 0.894427 0.000000 -0.447214
vn 0.894427 0.000000 -0.447214
vn 0.996243 0.000000 -0.086604
vn 0.996243 0.000000 -0.086604
vn 0.948693 -0.000000 0.316198
vn 0.948693 -0.000000 0.316198
vn 0.745032 -0.000000 0.667029
vn 0.447294 -0.000000 0.894387
vn 0.447294 -0.000000 0.894387
vn 0.745076 -0.000000 0.666979
vn 0.447294 -0.000000 0.894387
vn 0.036102 -0.000000 0.999348
vn -0.447094 -0.000000 0.894487
vn 0.036102 -0.000000 0.999348
vn 0.036102 -0.000000 0.999348
vn -0.447094 -0.000000 0.894487
vn -0.447094 -0.000000 0.894487
vn -0.934183 -0.000000 0.356794
vn -0.707107 0.000000 -0.707107
vn -0.958885 -0.000000 0.283796
vn -0.958885 -0.000000 0.283796
vn -0.934183 -0.000000 0.356794
vn 0.447094 -0.000000 0.894487
vn 0.447094 -0.000000 0.894487
vn -0.036102 -0.000000 0.999348
vn -0.036102 -0.000000 0.999348
vn -0.036102 -0.000000 0.999348
vn 0.447094 -0.000000 0.894487
vn -0.447294 -0.000000 0.894387
vn -0.745032 -0.000000 0.667029
vn -0.447294 -0.000000 0.894387
vn -0.447294 -0.000000 0.894387
vn -0.745032 -0.000000 0.667029
vn -0.948693 -0.000000 0.316198
vn -0.996243 0.000000 -0.086604
vn -0.948693 -0.000000 0.316198
vn -0.996243 0.000000 -0.086604
vn -0.894427 0.000000 -0.447214
vn -0.745076 0.000000 -0.666979
vn -0.894427 0.000000 -0.447214
vn -0.745076 0.000000 -0.666979
vn -0.526110 0.000000 -0.850416
vn -0.254705 0.000000 -0.967019
vn -0.526110 0.000000 -0.850416
vn -0.254705 0.000000 -0.967019
vn -0.047798 0.000000 -0.998857
vn -0.132203 0.000000 -0.991223
vn 0.025399 0.000000 -0.999677
vn -0.005600 0.000000 -0.999984
vn 0.030701 0.000500 -0.999528
vn 0.455719 0.053102 -0.888538
vn -0.132203 0.000000 -0.991223
vn 0.015400 -0.000100 -0.999881
vn 0.035099 0.000300 -0.999384
vn 0.031101 0.000000 -0.999516
vn 0.037300 0.000000 -0.999304
vn 0.034900 -0.050800 -0.998099
vn 0.025100 0.000000 -0.999685
vn -0.265997 -0.053499 -0.962488
vn 0.046201 0.000000 -0.998932
vn 0.255388 0.018799 -0.966656
vn 0.080902 0.000900 -0.996722
vn 0.612360 0.063196 -0.788049
vn -0.004400 0.000000 -0.999990
vn 0.019000 0.000000 -0.999819
vn 0.036102 0.000000 -0.999348
vn -0.047898 0.000000 -0.998852
vn -0.005300 0.000000 -0.999986
vn 0.014500 0.000000 -0.999895
vn -0.005300 0.000000 -0.999986
vn 0.014500 0.000000 -0.999895
vn 0.037899 0.000000 -0.999282
vn 0.026701 0.000000 -0.999643
vn 0.025699 0.000000 -0.999670
vn 0.043902 0.000000 -0.999036
vn 0.046401 0.000000 -0.998923
vn 0.026901 0.000000 -0.999638
vn 0.038902 0.000000 -0.999243
vn 0.052401 0.000000 -0.998626
vn 0.025699 0.000000 -0.999670
vn 0.046900 0.000000 -0.998900
vn 0.008100 0.000000 -0.999967
vn 0.608004 -0.045900 -0.792606
vn 0.461389 -0.042499 -0.886179
vn 0.069897 -0.000400 -0.997554
vn -0.238407 0.067302 -0.968830
vn 0.025100 0.000000 -0.999685
vn 0.035000 0.050800 -0.998095
vn 0.035199 -0.000300 -0.999380
vn 0.037500 0.000000 -0.999297
vn 0.030601 -0.000500 -0.999532
vn 0.031101 0.000000 -0.999516
vn 0.025399 0.000000 -0.999677
vn 0.030101 0.000000 -0.999547
vn 0.015400 0.000100 -0.999881
vn 0.026299 0.000000 -0.999654
vn 0.015500 0.000000 -0.999880
vn -0.005600 0.000000 -0.999984
vn -0.047798 0.000000 -0.998857
vn -0.005800 0.000000 -0.999983
vn -0.132203 0.000000 -0.991223
vn -0.047698 0.000000 -0.998862
vn 0.015500 0.000000 -0.999880
vn 0.026299 0.000000 -0.999654
vn 0.030101 0.000000 -0.999547
vn -0.005800 0.000000 -0.999983
vn -0.047698 0.000000 -0.998862
vn 0.000000 -0.000000 1.000000
vn 0.000000 -0.000000 1.000000
vn 0.000000 -0.000000 1.000000
vn 0.000000 -0.000000 1.000000
vn 0.000000 -0.000000 1.000000
vn 0.000000 -0.000000 1.000000
vn 0.000000 0.000000 -1.000000
vn -0.000100 0.000000 -1.000000
vn 0.000000 0.000000 -1.000000
vn -0.000100 0.000000 -1.000000
vn -0.000100 0.000000 -1.000000
vn 0.000000 0.000000 -1.000000
vn 0.000000 0.000000 -1.000000
vn 0.000000 -1.000000 -0.000000
vn 0.000000 -1.000000 -0.000000
vn 0.000000 -1.000000 -0.000000
vn 0.000000 -1.000000 -0.000000
vn 0.000000 -1.000000 -0.000000
vn 0.000000 -1.000000 -0.000000
vn 0.000000 -1.000000 -0.000000
vn 0.000000 -1.000000 -0.000000
vn 0.000000 -1.000000 -0.000000
vn 0.000000 -1.000000 -0.000000
vn 0.000000 -1.000000 -0.000000
vn 0.000000 -1.000000 -0.000000
vn 0.000000 -1.000000 -0.000000
vn 0.000000 -1.000000 -0.000000
vn 0.000000 -1.000000 -0.000000
vn 0.000000 -1.000000 -0.000000
vn 0.000000 -1.000000 -0.000000
vn 0.000000 -1.000000 -0.000000
vn 0.000000 -1.000000 -0.000000
vn 0.000000 -1.000000 -0.000000
vn 0.000000 -1.000000 -0.000000
vn 0.000000 -1.000000 -0.000000
vn 0.000000 -1.000000 -0.000000
vn 0.000000 -1.000000 -0.000000
vn 0.000000 -1.000000 -0.000000
vn 0.000000 -1.000000 -0.000000
vn 0.000000 -1.000000 -0.000000
vn 0.000000 -1.000000 -0.000000
vn 0.000000 -1.000000 -0.000000
vn 0.000000 -1.000000 -0.000000
vn 0.000000 -1.000000 -0.000000
vn 0.000000 -1.000000 -0.000000
vn 0.000000 -1.000000 -0.000000
vn 0.000000 -1.000000 -0.000000
vn 0.000000 -1.000000 -0.000000
vn 0.000000 -1.000000 -0.000000
vn 0.000000 -1.000000 -0.000000
vn 0.000000 -1.000000 -0.000000
vn 0.000000 -1.000000 -0.000000
vn 0.000000 -1.000000 -0.000000
vn 0.000000 -1.000000 -0.000000
vn 0.000000 -1.000000 -0.000000
f 1//1 3//3 2//2
f 3//3 4//4 5//5
f 2//2 3//3 5//5
f 5//5 4//4 7//7
f 8//8 5//5 6//6
f 5//5 7//7 6//6
f 8//8 10//10 9//9
f 8//8 6//6 10//10
f 9//9 10//10 11//11
f 11//11 10//10 12//12
f 12//12 14//14 11//11
f 13//13 14//14 12//12
f 13//13 15//15 14//14
f 15//15 17//17 16//16
f 15//15 18//18 17//17
f 18//18 15//15 13//13
f 13//13 19//19 18//18
f 20//20 18//18 19//19
f 18//18 20//20 21//21
f 22//22 18//18 21//21
f 22//22 23//23 24//24
f 23//23 22//22 21//21
f 24//24 25//25 22//22
f 25//25 26//26 22//22
f 27//27 22//22 26//26
f 27//27 26//26 28//28
f 28//28 29//29 27//27
f 31//31 29//29 28//28
f 30//30 29//29 31//31
f 31//31 32//32 30//30
f 30//30 32//32 33//33
f 35//35 33//33 34//34
f 35//35 30//30 33//33
f 35//35 36//36 4//4
f 36//36 35//35 38//38
f 37//37 39//39 35//35
f 35//35 34//34 37//37
f 35//35 39//39 38//38
f 36//36 7//7 4//4
f 40//40 28//28 26//26
f 41//41 43//43 44//44
f 41//41 44//44 42//42
f 42//42 44//44 45//45
f 42//42 45//45 46//46
f 46//46 45//45 47//47
f 46//46 47//47 48//48
f 48//48 47//47 49//49
f 48//48 49//49 50//50
f 51//51 53//53 50//50
f 51//51 50//50 49//49
f 53//53 51//51 52//52
f 53//53 52//52 54//54
f 54//54 52//52 57//57
f 54//54 57//57 55//55
f 55//55 57//57 58//58
f 55//55 58//58 56//56
f 62//62 60//60 59//59
f 62//62 59//59 61//61
f 64//64 63//63 65//65
f 64//64 65//65 66//66
f 68//68 64//64 66//66
f 68//68 66//66 67//67
f 70//70 68//68 67//67
f 70//70 67//67 69//69
f 73//73 70//70 69//69
f 73//73 69//69 71//71
f 74//74 73//73 71//71
f 74//74 71//71 72//72
f 74//74 72//72 76//76
f 74//74 76//76 75//75
f 75//75 76//76 78//78
f 75//75 78//78 77//77
f 79//79 77//77 78//78
f 79//79 78//78 80//80
f 82//82 84//84 83//83
f 82//82 83//83 81//81
f 86//86 88//88 87//87
f 86//86 87//87 85//85
f 90//90 92//92 91//91
f 90//90 91//91 89//89
f 94//94 93//93 95//95
f 94//94 95//95 96//96
f 98//98 100//100 99//99
f 98//98 99//99 97//97
f 102//102 101//101 103//103
f 102//102 103//103 104//104
f 106//106 108//108 107//107
f 106//106 107//107 105//105
f 110//110 109//109 111//111
f 110//110 111//111 112//112
f 114//114 113//113 115//115
f 114//114 115//115 116//116
f 114//114 116//116 118//118
f 118//118 116//116 117//117
f 120//120 119//119 121//121
f 122//122 120//120 121//121
f 121//121 123//123 122//122
f 122//122 124//124 125//125
f 122//122 125//125 120//120
f 124//124 126//126 127//127
f 124//124 127//127 125//125
f 126//126 128//128 129//129
f 126//126 129//129 127//127
f 131//131 129//129 128//128
f 131//131 128//128 130//130
f 130//130 132//132 133//133
f 130//130 133//133 131//131
f 132//132 134//134 137//137
f 132//132 137//137 133//133
f 136//136 134//134 135//135
f 134//134 136//136 137//137
f 136//136 138//138 137//137
f 139//139 141//141 143//143
f 139//139 143//143 140//140
f 141//141 142//142 144//144
f 141//141 144//144 143//143
f 145//145 147//147 146//146
f 148//148 146//146 147//147
f 148//148 149//149 146//146
f 151//151 150//150 152//152
f 151//151 152//152 153//153
f 155//155 151//151 153//153
f 155//155 153//153 154//154
f 157//157 158//158 156//156
f 160//160 159//159 158//158
f 158//158 157//157 160//160
f 157//157 163//163 161//161
f 157//157 161//161 160//160
f 163//163 164//164 162//162
f 163//163 162//162 161//161
f 164//164 165//165 167//167
f 164//164 167//167 162//162
f 165//165 166//166 168//168
f 165//165 168//168 167//167
f 166//166 171//171 169//169
f 166//166 169//169 168//168
f 171//171 172//172 170//170
f 171//171 170//170 169//169
f 172//172 176//176 173//173
f 173//173 179//179 172//172
f 172//172 174//174 170//170
f 179//179 174//174 172//172
f 175//175 172//172 177//177
f 180//180 172//172 175//175
f 180//180 176//176 172//172
f 181//181 177//177 172//172
f 181//181 172//172 178//178
f 182//182 177//177 181//181
f 184//184 181//181 178//178
f 202//202 182//182 181//181
f 202//202 181//181 183//183
f 184//184 183//183 181//181
f 203//203 183//183 184//184
f 203//203 184//184 185//185
f 184//184 186//186 185//185
f 178//178 186//186 184//184
f 192//192 185//185 186//186
f 192//192 186//186 187//187
f 178//178 188//188 186//186
f 188//188 187//187 186//186
f 188//188 178//178 189//189
f 191//191 187//187 188//188
f 191//191 188//188 189//189
f 191//191 189//189 190//190
f 190//190 189//189 178//178
f 191//191 190//190 193//193
f 193//193 192//192 191//191
f 192//192 187//187 191//191
f 197//197 194//194 193//193
f 194//194 195//195 193//193
f 193//193 195//195 196//196
f 201//201 193//193 196//196
f 198//198 197//197 193//193
f 207//207 198//198 193//193
f 199//199 202//202 193//193
f 199//199 193//193 200//200
f 193//193 201//201 200//200
f 193//193 202//202 203//203
f 193//193 203//203 192//192
f 193//193 204//204 207//207
f 193//193 205//205 204//204
f 193//193 206//206 205//205
f 208//208 206//206 193//193
f 193//193 209//209 208//208
f 210//210 209//209 193//193
f 211//211 212//212 210//210
f 209//209 210//210 212//212
f 213//213 212//212 211//211
f 212//212 213//213 214//214
f 212//212 214//214 209//209
f 213//213 215//215 214//214
f 215//215 213//213 211//211
f 216//216 215//215 211//211
f 216//216 217//217 215//215
f 214//214 215//215 217//217
f 214//214 217//217 208//208
f 217//217 216//216 219//219
f 217//217 219//219 206//206
f 206//206 208//208 217//217
f 218//218 216//216 170//170
f 218//218 219//219 216//216
f 211//211 170//170 216//216
f 219//219 218//218 221//221
f 219//219 221//221 205//205
f 205//205 206//206 219//219
f 220//220 218//218 170//170
f 218//218 220//220 221//221
f 221//221 220//220 223//223
f 221//221 223//223 204//204
f 205//205 221//221 204//204
f 222//222 223//223 220//220
f 220//220 170//170 222//222
f 223//223 222//222 224//224
f 223//223 224//224 207//207
f 204//204 223//223 207//207
f 225//225 224//224 222//222
f 170//170 225//225 222//222
f 170//170 226//226 225//225
f 226//226 227//227 225//225
f 224//224 225//225 227//227
f 224//224 227//227 198//198
f 227//227 226//226 229//229
f 227//227 229//229 197//197
f 198//198 227//227 197//197
f 170//170 228//228 226//226
f 228//228 229//229 226//226
f 229//229 228//228 174//174
f 229//229 174//174 194//194
f 194//194 197//197 229//229
f 170//170 174//174 228//228
f 198//198 207//207 224//224
f 209//209 214//214 208//208
f 202//202 183//183 203//203
f 192//192 203//203 185//185
f 199//199 182//182 202//202
f 201//201 196//196 230//230
f 201//201 230//230 180//180
f 201//201 180//180 231//231
f 201//201 231//231 200//200
f 175//175 231//231 180//180
f 200//200 231//231 175//175
f 200//200 175//175 232//232
f 196//196 233//233 176//176
f 196//196 176//176 230//230
f 230//230 176//176 180//180
f 232//232 199//199 200//200
f 177//177 232//232 175//175
f 199//199 232//232 177//177
f 199//199 177//177 182//182
f 195//195 233//233 196//196
f 233//233 173//173 176//176
f 195//195 234//234 173//173
f 195//195 173//173 233//233
f 194//194 234//234 195//195
f 194//194 174//174 179//179
f 194//194 179//179 234//234
f 179//179 173//173 234//234
f 236//236 237//237 235//235
f 237//237 238//238 235//235
f 237//237 239//239 238//238
f 239//239 240//240 238//238
f 242//242 243//243 241//241
f 244//244 243//243 242//242
f 242//242 245//245 244//244
f 246//246 245//245 242//242
f 247//247 246//246 242//242
f 248//248 250//250 249//249
f 250//250 251//251 249//249
f 249//249 251//251 252//252
f 252//252 251//251 253//253
f 251//251 254//254 253//253
f 251//251 255//255 254//254
f 255//255 256//256 257//257
f 257//257 258//258 255//255
f 255//255 258//258 254//254
f 258//258 260//260 259//259
f 258//258 257//257 260//260
f 260//260 261//261 259//259
f 261//261 260//260 262//262
f 261//261 263//263 259//259
f 261//261 264//264 263//263
f 264//264 265//265 267//267
f 264//264 266//266 265//265
f 267//267 263//263 264//264
f 267//267 268//268 263//263
f 268//268 267//267 269//269
f 267//267 270//270 269//269
f 271//271 270//270 267//267
f 271//271 273//273 272//272
f 272//272 270//270 271//271
f 273//273 271//271 274//274
f 274//274 271//271 275//275
f 276//276 275//275 271//271
f 276//276 277//277 275//275
f 277//277 276//276 278//278
f 277//277 278//278 279//279
f 278//278 280//280 279//279
f 280//280 281//281 279//279
f 281//281 280//280 283//283
f 282//282 283//283 280//280
f 284//284 283//283 282//282
f 282//282 285//285 284//284
f 282//282 286//286 285//285
f 286//286 282//282 287//287
f 282//282 288//288 287//287
f 252//252 288//288 282//282
f 252//252 253//253 288//288
f 289//289 275//275 277//277
