# arm_28 exported from /models/landings/arm_28.glb
# units: meters
v 0.013251 0.001000 0.023134
v 0.013251 0.001000 0.026651
v 0.005251 0.001000 0.026651
v -0.000201 0.001000 0.006713
v 0.023224 0.001000 0.020184
v 0.015251 0.001000 0.023134
v 0.022970 0.001000 0.024123
v 0.023251 0.001000 0.022651
v 0.023251 0.001000 0.020651
v 0.022079 0.001000 0.025479
v 0.015251 0.001000 0.023651
v 0.019251 0.001000 0.026651
v 0.015251 0.001000 0.026651
v 0.020723 0.001000 0.026370
v 0.015060 0.001000 -0.005585
v -0.001043 0.001000 -0.013654
v 0.008813 0.001000 -0.014493
v -0.004886 0.001000 -0.000686
v -0.007676 0.001000 -0.002783
v -0.010749 0.001000 -0.003445
v -0.003043 0.001000 -0.013654
v -0.012340 0.001000 -0.013931
v -0.003043 0.001000 -0.018930
v -0.012340 0.001000 -0.013654
v -0.014340 0.001000 -0.013654
v -0.026953 0.001000 -0.017759
v -0.022749 0.001000 -0.018930
v -0.026953 0.001000 -0.004617
v -0.014340 0.001000 -0.013931
v -0.022749 0.001000 -0.003445
v -0.014340 0.001000 -0.018930
v -0.031447 0.001000 -0.007445
v -0.031447 0.001000 -0.014930
v -0.012340 0.001000 -0.018930
v 0.004748 0.001000 -0.017517
v -0.000238 0.001000 -0.018898
v -0.001043 0.001000 -0.018930
v -0.003043 -0.001000 -0.018930
v -0.003043 0.001000 -0.018930
v -0.012340 -0.001000 -0.018930
v -0.012340 0.001000 -0.018930
v -0.012340 -0.001000 -0.018930
v -0.012340 0.001000 -0.018930
v -0.012340 -0.001000 -0.013654
v -0.012340 0.001000 -0.013654
v -0.012340 -0.001000 -0.013654
v -0.012340 0.001000 -0.013654
v -0.014340 -0.001000 -0.013654
v -0.014340 0.001000 -0.013654
v -0.014340 -0.001000 -0.013654
v -0.014340 0.001000 -0.013654
v -0.014340 -0.001000 -0.018930
v -0.014340 0.001000 -0.018930
v -0.014340 -0.001000 -0.018930
v -0.014340 0.001000 -0.018930
v -0.022749 -0.001000 -0.018930
v -0.022749 0.001000 -0.018930
v -0.022749 -0.001000 -0.018930
v -0.022749 0.001000 -0.018930
v -0.027388 -0.001000 -0.017553
v -0.027388 0.001000 -0.017553
v -0.031447 -0.001000 -0.014930
v -0.031447 0.001000 -0.014930
v -0.031447 -0.001000 -0.014930
v -0.031447 0.001000 -0.014930
v -0.031447 -0.001000 -0.007445
v -0.031447 0.001000 -0.007445
v -0.031447 -0.001000 -0.007445
v -0.031447 0.001000 -0.007445
v -0.027371 -0.001000 -0.004815
v -0.027371 0.001000 -0.004815
v -0.022749 -0.001000 -0.003445
v -0.022749 0.001000 -0.003445
v -0.022749 -0.001000 -0.003445
v -0.022749 0.001000 -0.003445
v -0.010749 -0.001000 -0.003445
v -0.010749 0.001000 -0.003445
v 0.005251 -0.001000 0.026651
v 0.005251 0.001000 0.026651
v 0.013251 -0.001000 0.026651
v 0.013251 0.001000 0.026651
v 0.023251 -0.001000 0.022651
v 0.023251 -0.000000 0.020651
v 0.023251 0.001000 0.022651
v 0.023251 -0.001000 0.020651
v 0.023251 0.001000 0.020651
v 0.015251 -0.001000 0.026651
v 0.015251 0.001000 0.026651
v 0.019251 -0.001000 0.026651
v 0.019251 0.001000 0.026651
v 0.019251 -0.001000 0.026651
v 0.020771 -0.001000 0.026351
v 0.019251 0.001000 0.026651
v 0.020771 0.001000 0.026351
v 0.022109 0.001000 0.025450
v 0.022109 -0.001000 0.025450
v 0.022978 0.001000 0.024105
v 0.022978 -0.001000 0.024105
v 0.023251 0.001000 0.022651
v 0.023251 -0.001000 0.022651
v 0.023251 -0.001000 0.020651
v 0.023244 -0.001000 0.020418
v 0.023251 -0.000000 0.020651
v 0.023244 -0.000000 0.020418
v 0.023251 0.001000 0.020651
v 0.023244 0.001000 0.020418
v 0.023224 0.001000 0.020184
v 0.023224 0.000333 0.020184
v 0.023224 -0.000333 0.020184
v 0.023224 -0.001000 0.020184
v -0.001043 0.001000 -0.018930
v -0.001043 -0.001000 -0.018930
v -0.001043 0.001000 -0.013654
v -0.001043 -0.001000 -0.013654
v -0.001043 0.001000 -0.013654
v -0.001043 -0.001000 -0.013654
v -0.003043 0.001000 -0.013654
v -0.003043 -0.001000 -0.013654
v -0.003043 0.001000 -0.013654
v -0.003043 -0.001000 -0.013654
v -0.003043 0.001000 -0.018930
v -0.003043 -0.001000 -0.018930
v 0.013251 0.001000 0.023134
v 0.013251 -0.001000 0.023134
v 0.015251 0.001000 0.023134
v 0.015251 -0.001000 0.023134
v 0.015251 0.001000 0.023134
v 0.015251 -0.001000 0.023134
v 0.015251 0.001000 0.023651
v 0.015251 -0.001000 0.023651
v 0.015251 0.001000 0.026651
v 0.015251 -0.001000 0.026651
v 0.013251 0.001000 0.026651
v 0.013251 -0.001000 0.026651
v 0.013251 0.001000 0.023134
v 0.013251 -0.001000 0.023134
v 0.005251 0.001000 0.026651
v 0.004531 -0.000000 0.022336
v 0.004531 0.001000 0.022336
v 0.005251 -0.001000 0.026651
v 0.004531 -0.001000 0.022336
v 0.003538 -0.001000 0.017832
v 0.003538 -0.000000 0.017832
v 0.000811 -0.001000 0.009122
v 0.000811 0.001000 0.009122
v -0.003437 -0.000000 0.001031
v -0.003437 -0.001000 0.001031
v -0.006858 -0.001000 -0.002324
v -0.006858 0.000000 -0.002324
v -0.010749 -0.001000 -0.003445
v -0.010749 0.001000 -0.003445
v -0.006858 0.001000 -0.002324
v -0.003437 0.001000 0.001031
v 0.003538 0.001000 0.017832
v -0.001043 0.001000 -0.018930
v 0.003788 0.000000 -0.017960
v 0.003788 0.001000 -0.017960
v -0.001043 -0.001000 -0.018930
v 0.003788 -0.001000 -0.017960
v 0.007775 -0.001000 -0.015458
v 0.007775 0.000000 -0.015458
v 0.013856 -0.001000 -0.007688
v 0.013856 0.001000 -0.007688
v 0.018307 -0.001000 0.000906
v 0.018307 0.001000 0.000906
v 0.021494 -0.000000 0.010382
v 0.021494 -0.001000 0.010382
v 0.022462 -0.000500 0.014979
v 0.022462 -0.001000 0.014979
v 0.022870 -0.001000 0.017499
v 0.023224 -0.001000 0.020184
v 0.022870 -0.000500 0.017499
v 0.022870 -0.000000 0.017499
v 0.023224 -0.000333 0.020184
v 0.023224 0.000333 0.020184
v 0.023224 0.001000 0.020184
v 0.022870 0.000500 0.017499
v 0.022462 0.000500 0.014979
v 0.022870 0.001000 0.017499
v 0.022462 0.001000 0.014979
v 0.021494 0.001000 0.010382
v 0.022462 -0.000000 0.014979
v 0.007775 0.001000 -0.015458
v 0.013251 -0.001000 0.023134
v 0.013251 -0.001000 0.026651
v 0.005251 -0.001000 0.026651
v -0.000201 -0.001000 0.006713
v 0.023224 -0.001000 0.020184
v 0.015251 -0.001000 0.023134
v 0.022970 -0.001000 0.024123
v 0.023251 -0.001000 0.022651
v 0.023251 -0.001000 0.020651
v 0.022079 -0.001000 0.025479
v 0.015251 -0.001000 0.023651
v 0.019251 -0.001000 0.026651
v 0.015251 -0.001000 0.026651
v 0.020723 -0.001000 0.026370
v 0.015060 -0.001000 -0.005585
v 0.008813 -0.001000 -0.014493
v -0.001043 -0.001000 -0.013654
v -0.004886 -0.001000 -0.000686
v -0.007676 -0.001000 -0.002783
v -0.010749 -0.001000 -0.003445
v -0.003043 -0.001000 -0.013654
v -0.012340 -0.001000 -0.013654
v -0.003043 -0.001000 -0.018930
v -0.012340 -0.001000 -0.013931
v -0.012340 -0.001000 -0.018930
v -0.014340 -0.001000 -0.013654
v -0.026953 -0.001000 -0.017759
v -0.022749 -0.001000 -0.018930
v -0.026953 -0.001000 -0.004617
v -0.014340 -0.001000 -0.013931
v -0.022749 -0.001000 -0.003445
v -0.014340 -0.001000 -0.018930
v -0.031447 -0.001000 -0.007445
v -0.031447 -0.001000 -0.014930
v 0.004748 -0.001000 -0.017517
v -0.000238 -0.001000 -0.018898
v -0.001043 -0.001000 -0.018930
vn 0.000000 1.000000 0.000000
vn 0.000000 1.000000 0.000000
vn 0.000000 1.000000 0.000000
vn 0.000000 1.000000 0.000000
vn 0.000000 1.000000 0.000000
vn 0.000000 1.000000 0.000000
vn 0.000000 1.000000 0.000000
vn 0.000000 1.000000 0.000000
vn 0.000000 1.000000 0.000000
vn 0.000000 1.000000 0.000000
vn 0.000000 1.000000 0.000000
vn 0.000000 1.000000 0.000000
vn 0.000000 1.000000 0.000000
vn 0.000000 1.000000 0.000000
vn 0.000000 1.000000 0.000000
vn 0.000000 1.000000 0.000000
vn 0.000000 1.000000 0.000000
vn 0.000000 1.000000 0.000000
vn 0.000000 1.000000 0.000000
vn 0.000000 1.000000 0.000000
vn 0.000000 1.000000 0.000000
vn 0.000000 1.000000 0.000000
vn 0.000000 1.000000 0.000000
vn 0.000000 1.000000 0.000000
vn 0.000000 1.000000 0.000000
vn 0.000000 1.000000 0.000000
vn 0.000000 1.000000 0.000000
vn 0.000000 1.000000 0.000000
vn 0.000000 1.000000 0.000000
vn 0.000000 1.000000 0.000000
vn 0.000000 1.000000 0.000000
vn 0.000000 1.000000 0.000000
vn 0.000000 1.000000 0.000000
vn 0.000000 1.000000 0.000000
vn 0.000000 1.000000 0.000000
vn 0.000000 1.000000 0.000000
vn 0.000000 1.000000 0.000000
vn 0.000000 0.000000 -1.000000
vn 0.000000 0.000000 -1.000000
vn 0.000000 0.000000 -1.000000
vn 0.000000 0.000000 -1.000000
vn -1.000000 0.000000 0.000000
vn -1.000000 0.000000 0.000000
vn -1.000000 0.000000 0.000000
vn -1.000000 0.000000 0.000000
vn 0.000000 0.000000 -1.000000
vn 0.000000 0.000000 -1.000000
vn 0.000000 0.000000 -1.000000
vn 0.000000 0.000000 -1.000000
vn 1.000000 0.000000 0.000000
vn 1.000000 0.000000 0.000000
vn 1.000000 0.000000 0.000000
vn 1.000000 0.000000 0.000000
vn 0.000000 0.000000 -1.000000
vn 0.000000 0.000000 -1.000000
vn 0.000000 0.000000 -1.000000
vn 0.000000 0.000000 -1.000000
vn -0.000100 0.000000 -1.000000
vn -0.000100 0.000000 -1.000000
vn -0.439718 0.000000 -0.898136
vn -0.439718 0.000000 -0.898136
vn -0.648185 0.000000 -0.761483
vn -0.648185 0.000000 -0.761483
vn -1.000000 0.000000 0.000000
vn -1.000000 0.000000 0.000000
vn -1.000000 0.000000 0.000000
vn -1.000000 0.000000 0.000000
vn -0.648185 -0.000000 0.761483
vn -0.648185 -0.000000 0.761483
vn -0.438875 -0.000000 0.898548
vn -0.438875 -0.000000 0.898548
vn -0.000100 -0.000000 1.000000
vn -0.000100 -0.000000 1.000000
vn 0.000000 -0.000000 1.000000
vn 0.000000 -0.000000 1.000000
vn 0.000000 -0.000000 1.000000
vn 0.000000 -0.000000 1.000000
vn 0.000000 -0.000000 1.000000
vn 0.000000 -0.000000 1.000000
vn 0.000000 -0.000000 1.000000
vn 0.000000 -0.000000 1.000000
vn 1.000000 0.000000 0.000000
vn 1.000000 0.000000 0.000000
vn 1.000000 0.000000 0.000000
vn 1.000000 0.000000 0.000000
vn 1.000000 0.000000 0.000000
vn 0.000000 -0.000000 1.000000
vn 0.000000 -0.000000 1.000000
vn 0.000000 -0.000000 1.000000
vn 0.000000 -0.000000 1.000000
vn 0.000100 -0.000000 1.000000
vn 0.379910 -0.000000 0.925024
vn 0.000100 -0.000000 1.000000
vn 0.379910 -0.000000 0.925024
vn 0.714419 -0.000000 0.699718
vn 0.714419 -0.000000 0.699718
vn 0.931629 -0.000000 0.363411
vn 0.931629 -0.000000 0.363411
vn 1.000000 -0.000000 0.000100
vn 1.000000 -0.000000 0.000100
vn 1.000000 0.000000 0.000000
vn 0.998299 0.000000 -0.058300
vn 1.000000 0.000000 0.000000
vn 0.998299 0.000000 -0.058300
vn 1.000000 0.000000 0.000000
vn 0.998299 0.000000 -0.058300
vn 0.993156 0.000000 -0.116795
vn 0.993156 0.000000 -0.116795
vn 0.993156 0.000000 -0.116795
vn 0.993156 0.000000 -0.116795
vn -1.000000 0.000000 0.000000
vn -1.000000 0.000000 0.000000
vn -1.000000 0.000000 0.000000
vn -1.000000 0.000000 0.000000
vn 0.000000 0.000000 -1.000000
vn 0.000000 0.000000 -1.000000
vn 0.000000 0.000000 -1.000000
vn 0.000000 0.000000 -1.000000
vn 1.000000 0.000000 0.000000
vn 1.000000 0.000000 0.000000
vn 1.000000 0.000000 0.000000
vn 1.000000 0.000000 0.000000
vn 0.000000 -0.000000 1.000000
vn 0.000000 -0.000000 1.000000
vn 0.000000 -0.000000 1.000000
vn 0.000000 -0.000000 1.000000
vn -1.000000 0.000000 0.000000
vn -1.000000 0.000000 0.000000
vn -1.000000 0.000000 0.000000
vn -1.000000 0.000000 0.000000
vn -1.000000 0.000000 0.000000
vn -1.000000 0.000000 0.000000
vn 1.000000 0.000000 0.000000
vn 1.000000 0.000000 0.000000
vn 1.000000 0.000000 0.000000
vn 1.000000 0.000000 0.000000
vn -0.990404 -0.000000 0.138201
vn -0.981766 -0.000000 0.190093
vn -0.981766 -0.000000 0.190093
vn -0.990404 -0.000000 0.138201
vn -0.981766 -0.000000 0.190093
vn -0.970453 -0.000000 0.241288
vn -0.970477 -0.000000 0.241194
vn -0.931433 -0.000000 0.363913
vn -0.931433 -0.000000 0.363913
vn -0.802525 -0.000000 0.596619
vn -0.802525 -0.000000 0.596619
vn -0.537787 -0.000000 0.843080
vn -0.537787 -0.000000 0.843080
vn 0.045399 -0.000000 0.998969
vn 0.045399 -0.000000 0.998969
vn -0.537787 -0.000000 0.843080
vn -0.802525 -0.000000 0.596619
vn -0.970453 -0.000000 0.241288
vn 0.012200 0.000000 -0.999926
vn 0.381404 0.000000 -0.924409
vn 0.381404 0.000000 -0.924409
vn 0.012200 0.000000 -0.999926
vn 0.381404 0.000000 -0.924409
vn 0.653086 0.000000 -0.757284
vn 0.653086 0.000000 -0.757284
vn 0.859927 0.000000 -0.510416
vn 0.859927 0.000000 -0.510416
vn 0.916943 0.000000 -0.399019
vn 0.916943 0.000000 -0.399019
vn 0.971018 0.000000 -0.239005
vn 0.970995 0.000000 -0.239099
vn 0.984587 0.000000 -0.174898
vn 0.984587 0.000000 -0.174898
vn 0.989402 0.000000 -0.145200
vn 0.993156 0.000000 -0.116795
vn 0.989402 0.000000 -0.145200
vn 0.989402 0.000000 -0.145200
vn 0.993156 0.000000 -0.116795
vn 0.993156 0.000000 -0.116795
vn 0.993156 0.000000 -0.116795
vn 0.989402 0.000000 -0.145200
vn 0.984587 0.000000 -0.174898
vn 0.989402 0.000000 -0.145200
vn 0.984587 0.000000 -0.174898
vn 0.970995 0.000000 -0.239099
vn 0.984569 0.000000 -0.174995
vn 0.653086 0.000000 -0.757284
vn 0.000000 -1.000000 -0.000000
vn 0.000000 -1.000000 -0.000000
vn 0.000000 -1.000000 -0.000000
vn 0.000000 -1.000000 -0.000000
vn 0.000000 -1.000000 -0.000000
vn 0.000000 -1.000000 -0.000000
vn 0.000000 -1.000000 -0.000000
vn 0.000000 -1.000000 -0.000000
vn 0.000000 -1.000000 -0.000000
vn 0.000000 -1.000000 -0.000000
vn 0.000000 -1.000000 -0.000000
vn 0.000000 -1.000000 -0.000000
vn 0.000000 -1.000000 -0.000000
vn 0.000000 -1.000000 -0.000000
vn 0.000000 -1.000000 -0.000000
vn 0.000000 -1.000000 -0.000000
vn 0.000000 -1.000000 -0.000000
vn 0.000000 -1.000000 -0.000000
vn 0.000000 -1.000000 -0.000000
vn 0.000000 -1.000000 -0.000000
vn 0.000000 -1.000000 -0.000000
vn 0.000000 -1.000000 -0.000000
vn 0.000000 -1.000000 -0.000000
vn 0.000000 -1.000000 -0.000000
vn 0.000000 -1.000000 -0.000000
vn 0.000000 -1.000000 -0.000000
vn 0.000000 -1.000000 -0.000000
vn 0.000000 -1.000000 -0.000000
vn 0.000000 -1.000000 -0.000000
vn 0.000000 -1.000000 -0.000000
vn 0.000000 -1.000000 -0.000000
vn 0.000000 -1.000000 -0.000000
vn 0.000000 -1.000000 -0.000000
vn 0.000000 -1.000000 -0.000000
vn 0.000000 -1.000000 -0.000000
vn 0.000000 -1.000000 -0.000000
vn 0.000000 -1.000000 -0.000000
f 2//2 1//1 3//3
f 4//4 3//3 1//1
f 1//1 5//5 4//4
f 1//1 6//6 5//5
f 6//6 10//10 7//7
f 7//7 8//8 6//6
f 8//8 9//9 6//6
f 5//5 6//6 9//9
f 10//10 6//6 11//11
f 12//12 10//10 11//11
f 13//13 12//12 11//11
f 14//14 10//10 12//12
f 5//5 15//15 4//4
f 16//16 18//18 15//15
f 15//15 17//17 16//16
f 18//18 4//4 15//15
f 19//19 18//18 16//16
f 21//21 20//20 19//19
f 21//21 19//19 16//16
f 21//21 22//22 24//24
f 34//34 22//22 21//21
f 34//34 21//21 23//23
f 24//24 20//20 21//21
f 20//20 24//24 25//25
f 25//25 26//26 28//28
f 26//26 25//25 27//27
f 25//25 29//29 27//27
f 28//28 30//30 25//25
f 25//25 30//30 20//20
f 29//29 31//31 27//27
f 26//26 32//32 28//28
f 26//26 33//33 32//32
f 16//16 17//17 35//35
f 36//36 16//16 35//35
f 37//37 16//16 36//36
f 39//39 38//38 40//40
f 39//39 40//40 41//41
f 43//43 42//42 44//44
f 43//43 44//44 45//45
f 47//47 46//46 48//48
f 47//47 48//48 49//49
f 51//51 50//50 52//52
f 51//51 52//52 53//53
f 55//55 54//54 56//56
f 55//55 56//56 57//57
f 59//59 58//58 60//60
f 59//59 60//60 61//61
f 62//62 63//63 61//61
f 62//62 61//61 60//60
f 65//65 64//64 66//66
f 65//65 66//66 67//67
f 69//69 68//68 70//70
f 69//69 70//70 71//71
f 72//72 73//73 71//71
f 72//72 71//71 70//70
f 75//75 74//74 76//76
f 75//75 76//76 77//77
f 79//79 78//78 80//80
f 79//79 80//80 81//81
f 82//82 85//85 83//83
f 83//83 84//84 82//82
f 84//84 83//83 86//86
f 88//88 87//87 89//89
f 88//88 89//89 90//90
f 92//92 94//94 93//93
f 92//92 93//93 91//91
f 95//95 94//94 92//92
f 95//95 92//92 96//96
f 97//97 95//95 96//96
f 97//97 96//96 98//98
f 100//100 99//99 97//97
f 100//100 97//97 98//98
f 102//102 104//104 103//103
f 102//102 103//103 101//101
f 105//105 103//103 104//104
f 105//105 104//104 106//106
f 108//108 107//107 106//106
f 108//108 106//106 104//104
f 109//109 108//108 104//104
f 104//104 102//102 110//110
f 104//104 110//110 109//109
f 112//112 114//114 113//113
f 112//112 113//113 111//111
f 116//116 118//118 117//117
f 116//116 117//117 115//115
f 120//120 122//122 121//121
f 120//120 121//121 119//119
f 124//124 126//126 125//125
f 124//124 125//125 123//123
f 128//128 130//130 129//129
f 128//128 129//129 127//127
f 131//131 129//129 130//130
f 131//131 130//130 132//132
f 134//134 136//136 135//135
f 134//134 135//135 133//133
f 137//137 138//138 140//140
f 138//138 137//137 139//139
f 141//141 140//140 138//138
f 142//142 141//141 138//138
f 142//142 138//138 143//143
f 144//144 142//142 143//143
f 144//144 145//145 146//146
f 145//145 144//144 143//143
f 146//146 147//147 144//144
f 148//148 147//147 146//146
f 148//148 146//146 149//149
f 148//148 149//149 150//150
f 151//151 150//150 149//149
f 149//149 152//152 151//151
f 149//149 146//146 153//153
f 149//149 153//153 152//152
f 145//145 153//153 146//146
f 143//143 154//154 145//145
f 143//143 138//138 139//139
f 143//143 139//139 154//154
f 155//155 156//156 158//158
f 156//156 155//155 157//157
f 159//159 158//158 156//156
f 160//160 159//159 156//156
f 160//160 156//156 161//161
f 162//162 160//160 161//161
f 164//164 162//162 163//163
f 164//164 163//163 165//165
f 163//163 162//162 161//161
f 164//164 165//165 166//166
f 166//166 167//167 164//164
f 167//167 166//166 168//168
f 168//168 169//169 167//167
f 170//170 169//169 168//168
f 170//170 168//168 172//172
f 170//170 172//172 174//174
f 170//170 174//174 171//171
f 174//174 172//172 173//173
f 172//172 168//168 182//182
f 172//172 182//182 173//173
f 174//174 173//173 175//175
f 177//177 179//179 176//176
f 177//177 176//176 175//175
f 173//173 177//177 175//175
f 173//173 182//182 178//178
f 173//173 178//178 177//177
f 177//177 178//178 180//180
f 177//177 180//180 179//179
f 181//181 180//180 178//178
f 166//166 181//181 178//178
f 165//165 181//181 166//166
f 178//178 182//182 166//166
f 166//166 182//182 168//168
f 161//161 183//183 163//163
f 161//161 156//156 157//157
f 161//161 157//157 183//183
f 185//185 186//186 184//184
f 187//187 184//184 186//186
f 184//184 187//187 188//188
f 184//184 188//188 189//189
f 189//189 190//190 193//193
f 190//190 189//189 191//191
f 191//191 189//189 192//192
f 188//188 192//192 189//189
f 193//193 194//194 189//189
f 195//195 194//194 193//193
f 196//196 194//194 195//195
f 197//197 195//195 193//193
f 188//188 187//187 198//198
f 198//198 200//200 199//199
f 200//200 198//198 201//201
f 201//201 198//198 187//187
f 202//202 200//200 201//201
f 204//204 202//202 203//203
f 204//204 200//200 202//202
f 204//204 205//205 207//207
f 205//205 204//204 203//203
f 204//204 207//207 206//206
f 206//206 207//207 208//208
f 203//203 209//209 205//205
f 209//209 212//212 210//210
f 210//210 211//211 209//209
f 209//209 211//211 213//213
f 212//212 209//209 214//214
f 209//209 203//203 214//214
f 213//213 211//211 215//215
f 210//210 212//212 216//216
f 210//210 216//216 217//217
f 200//200 218//218 199//199
f 219//219 218//218 200//200
f 220//220 219//219 200//200
