# arm_19 exported from /models/landings/arm_19.glb
# units: meters
v 0.001464 0.001000 0.011388
v -0.000970 0.001000 0.008927
v 0.000081 0.001000 0.008659
v 0.001132 0.001000 0.008390
v -0.008557 0.001000 0.010499
v 0.001464 0.001000 0.005388
v 0.000544 0.001000 0.006094
v 0.003464 0.001000 0.005388
v 0.000343 0.001000 0.003564
v 0.000251 0.001000 0.004946
v 0.002464 0.001000 0.003857
v 0.004585 0.001000 0.003564
v 0.004980 0.001000 0.003736
v 0.005253 0.001000 0.003225
v 0.004748 0.001000 0.005019
v 0.005336 0.001000 0.007314
v 0.005274 0.001000 0.004884
v 0.005799 0.001000 0.004750
v 0.006387 0.001000 0.007046
v 0.005243 0.001000 0.003669
v 0.005506 0.001000 0.003602
v 0.005414 0.001000 0.003039
v 0.005769 0.001000 0.003535
v 0.006031 0.001000 0.003467
v 0.005622 0.001000 0.002961
v 0.006325 0.001000 0.004615
v 0.006850 0.001000 0.004481
v 0.006557 0.001000 0.003333
v 0.006974 0.001000 0.009341
v 0.007464 0.001000 0.002388
v 0.007464 0.001000 0.018388
v 0.006263 0.001000 0.002185
v 0.006727 0.001000 -0.000379
v 0.008365 0.001000 0.001648
v 0.009464 0.001000 0.002388
v 0.012292 0.001000 0.007874
v 0.010936 0.001000 0.010546
v 0.010192 0.001000 0.011188
v 0.010931 0.001000 -0.001455
v 0.009464 0.001000 0.011388
v 0.008829 0.001000 -0.000917
v 0.009880 0.001000 -0.001186
v 0.009293 0.001000 -0.003482
v 0.010344 0.001000 -0.003751
v 0.009231 0.001000 -0.005912
v 0.008242 0.001000 -0.003213
v 0.008180 0.001000 -0.005643
v 0.008705 0.001000 -0.005777
v 0.008412 0.001000 -0.006925
v 0.008149 0.001000 -0.006858
v 0.007886 0.001000 -0.006791
v 0.008002 0.001000 -0.007432
v 0.008265 0.001000 -0.007499
v 0.007464 0.001000 -0.007612
v 0.007740 0.001000 -0.007365
v 0.007608 0.001000 -0.007331
v 0.007624 0.001000 -0.006724
v 0.007477 0.001000 -0.007298
v 0.007345 0.001000 -0.007264
v 0.007403 0.001000 -0.007585
v 0.007272 0.001000 -0.007551
v 0.007367 0.001000 -0.007728
v 0.007330 0.001000 -0.007872
v 0.007199 0.001000 -0.007838
v 0.007432 0.001000 -0.007745
v 0.007396 0.001000 -0.007888
v 0.007464 0.001000 -0.007795
v 0.007464 0.001000 -0.007854
v 0.007388 0.001000 -0.008192
v 0.007299 0.001000 -0.009087
v 0.007464 0.001000 -0.015612
v 0.007113 0.001000 -0.016348
v 0.007380 0.001000 -0.015976
v 0.006944 0.001000 -0.012665
v 0.006882 0.001000 -0.015095
v 0.006357 0.001000 -0.014961
v 0.006588 0.001000 -0.016243
v 0.005999 0.001000 -0.017026
v 0.006063 0.001000 -0.016109
v 0.005306 0.001000 -0.014692
v 0.004718 0.001000 -0.016988
v 0.002464 0.001000 -0.017612
v 0.003667 0.001000 -0.016719
v 0.004780 0.001000 -0.014557
v 0.004255 0.001000 -0.014423
v 0.005074 0.001000 -0.013409
v 0.005367 0.001000 -0.012262
v 0.005253 0.001000 -0.012011
v 0.005599 0.001000 -0.013544
v 0.004548 0.001000 -0.013275
v 0.004585 0.001000 -0.012350
v 0.002464 0.001000 -0.012643
v 0.000343 0.001000 -0.012350
v 0.000051 0.001000 -0.013348
v -0.000537 0.001000 -0.015643
v -0.000475 0.001000 -0.013213
v -0.001588 0.001000 -0.015375
v -0.001072 0.001000 -0.017026
v -0.002185 0.001000 -0.016348
v -0.002453 0.001000 -0.015976
v -0.002536 0.001000 -0.015612
v -0.002051 0.001000 -0.012810
v -0.002536 0.001000 -0.007795
v -0.001526 0.001000 -0.012944
v -0.001232 0.001000 -0.011797
v -0.001000 0.001000 -0.013079
v -0.000707 0.001000 -0.011931
v -0.000325 0.001000 -0.012011
v -0.000486 0.001000 -0.011825
v -0.000536 0.001000 -0.011643
v -0.000754 0.001000 -0.003358
v -0.000536 0.001000 0.002857
v -0.000939 0.001000 -0.010649
v -0.001341 0.001000 -0.005654
v -0.001464 0.001000 -0.010514
v -0.001634 0.001000 -0.006802
v -0.001928 0.001000 -0.007950
v -0.002307 0.001000 -0.007241
v -0.002453 0.001000 -0.007815
v -0.002536 0.001000 -0.007612
v -0.001758 0.001000 -0.011662
v -0.004030 0.001000 -0.007412
v -0.002569 0.001000 -0.007174
v -0.002832 0.001000 -0.007107
v -0.004536 0.001000 -0.007612
v -0.004536 0.001000 -0.007795
v -0.004702 0.001000 -0.007851
v -0.004555 0.001000 -0.007278
v -0.004293 0.001000 -0.007345
v -0.003736 0.001000 -0.006264
v -0.004262 0.001000 -0.006130
v -0.004787 0.001000 -0.005995
v -0.003968 0.001000 -0.004982
v -0.004494 0.001000 -0.004847
v -0.003443 0.001000 -0.005116
v -0.003907 0.001000 -0.002552
v -0.002856 0.001000 -0.002820
v -0.001805 0.001000 -0.003089
v -0.002268 0.001000 -0.000525
v -0.002917 0.001000 -0.005251
v -0.003211 0.001000 -0.006398
v -0.002392 0.001000 -0.005385
v -0.002685 0.001000 -0.006533
v -0.001866 0.001000 -0.005519
v -0.002423 0.001000 -0.006600
v -0.002160 0.001000 -0.006667
v -0.001681 0.001000 0.001771
v -0.003319 0.001000 -0.000256
v -0.001156 0.001000 0.001637
v -0.001217 0.001000 -0.000793
v -0.000862 0.001000 0.002785
v -0.001387 0.001000 0.002919
v -0.000715 0.001000 0.003359
v -0.000486 0.001000 0.003039
v -0.000452 0.001000 0.003291
v -0.000325 0.001000 0.003225
v -0.000306 0.001000 0.003865
v -0.000043 0.001000 0.003798
v -0.000275 0.001000 0.005080
v -0.000568 0.001000 0.003933
v -0.001094 0.001000 0.004067
v -0.000800 0.001000 0.005215
v -0.002145 0.001000 0.004336
v -0.001558 0.001000 0.006632
v -0.004834 0.001000 0.002578
v -0.002732 0.001000 0.002040
v -0.003660 0.001000 0.007169
v -0.005762 0.001000 0.007707
v -0.007987 0.001000 0.003384
v -0.007864 0.001000 0.008245
v -0.006936 0.001000 0.003115
v -0.007523 0.001000 0.000820
v -0.008286 0.001000 -0.000362
v -0.007630 0.001000 -0.002830
v -0.008574 0.001000 0.001088
v -0.006009 0.001000 -0.002014
v -0.004958 0.001000 -0.002283
v -0.006596 0.001000 -0.004310
v -0.006132 0.001000 -0.006874
v -0.005545 0.001000 -0.004578
v -0.007536 0.001000 -0.006612
v -0.007536 0.001000 -0.015612
v -0.007306 0.001000 -0.011466
v -0.006719 0.001000 -0.009170
v -0.005668 0.001000 -0.009439
v -0.005375 0.001000 -0.008291
v -0.004849 0.001000 -0.008425
v -0.005081 0.001000 -0.007143
v -0.005143 0.001000 -0.009573
v -0.005204 0.001000 -0.012003
v -0.004741 0.001000 -0.014568
v -0.006317 0.001000 -0.014165
v -0.005792 0.001000 -0.014299
v -0.005266 0.001000 -0.014434
v -0.006255 0.001000 -0.011735
v -0.006843 0.001000 -0.014030
v -0.007136 0.001000 -0.015178
v -0.006611 0.001000 -0.015313
v -0.007511 0.001000 -0.015794
v -0.007431 0.001000 -0.015980
v -0.007097 0.001000 -0.016319
v -0.006588 0.001000 -0.016541
v -0.006085 0.001000 -0.015447
v -0.006036 0.001000 -0.016612
v -0.005560 0.001000 -0.015582
v -0.005484 0.001000 -0.016541
v -0.005034 0.001000 -0.015716
v -0.004975 0.001000 -0.016319
v -0.004772 0.001000 -0.015783
v -0.004641 0.001000 -0.015980
v -0.004561 0.001000 -0.015794
v -0.004536 0.001000 -0.015612
v -0.004625 0.001000 -0.015209
v -0.004887 0.001000 -0.015142
v -0.008985 0.001000 0.000439
v -0.009038 0.001000 0.003653
v -0.009942 0.001000 0.000982
v -0.012536 0.001000 0.001388
v -0.010676 0.001000 0.001626
v -0.010089 0.001000 0.003922
v -0.011727 0.001000 0.001895
v -0.011140 0.001000 0.004191
v -0.009966 0.001000 0.008782
v -0.019536 0.001000 0.006388
v -0.019536 0.001000 0.001388
v -0.000507 0.001000 0.006363
v 0.000019 0.001000 0.006228
v 0.005893 0.001000 -0.012396
v 0.006186 0.001000 -0.011248
v 0.005661 0.001000 -0.011114
v 0.005414 0.001000 -0.011825
v 0.005464 0.001000 -0.011643
v 0.005723 0.001000 -0.008684
v 0.005676 0.001000 -0.000111
v 0.005464 0.001000 0.002857
v 0.005738 0.001000 0.002320
v 0.005884 0.001000 0.002894
v 0.005970 0.001000 0.001037
v 0.006016 0.001000 -0.007536
v 0.006310 0.001000 -0.006388
v 0.006603 0.001000 -0.005240
v 0.007191 0.001000 -0.002944
v 0.007129 0.001000 -0.005374
v 0.007654 0.001000 -0.005509
v 0.006835 0.001000 -0.006522
v 0.007098 0.001000 -0.006589
v 0.006951 0.001000 -0.007163
v 0.007361 0.001000 -0.006657
v 0.007214 0.001000 -0.007231
v 0.007141 0.001000 -0.007517
v 0.006804 0.001000 -0.007737
v 0.007067 0.001000 -0.007804
v 0.006920 0.001000 -0.008378
v 0.006774 0.001000 -0.008952
v 0.006248 0.001000 -0.008818
v 0.007183 0.001000 -0.008446
v 0.007257 0.001000 -0.008159
v 0.007315 0.001000 -0.008479
v 0.007036 0.001000 -0.009020
v 0.007006 0.001000 -0.010235
v 0.006480 0.001000 -0.010100
v 0.005955 0.001000 -0.009966
v 0.006542 0.001000 -0.007670
v 0.006689 0.001000 -0.007096
v 0.007778 0.001000 -0.000648
v 0.009464 0.001000 -0.007612
v 0.008937 0.001000 -0.007060
v 0.010807 0.001000 -0.006315
v 0.009756 0.001000 -0.006046
v 0.010192 0.001000 -0.012411
v 0.009464 0.001000 -0.012612
v 0.010936 0.001000 -0.011769
v 0.012292 0.001000 -0.009097
v 0.011395 0.001000 -0.004019
v 0.013464 0.001000 -0.000612
v 0.011982 0.001000 -0.001724
v 0.007337 0.001000 0.018421
v 0.007190 0.001000 0.017847
v 0.007431 0.001000 0.018570
v 0.007097 0.001000 0.014202
v 0.005923 0.001000 0.009610
v 0.006046 0.001000 0.014471
v 0.006634 0.001000 0.016766
v 0.006927 0.001000 0.017914
v 0.006108 0.001000 0.016901
v 0.006402 0.001000 0.018049
v 0.005583 0.001000 0.017035
v 0.004995 0.001000 0.014739
v 0.003944 0.001000 0.015008
v 0.003821 0.001000 0.010148
v 0.003464 0.001000 0.018388
v 0.003497 0.001000 0.018570
v 0.004006 0.001000 0.017438
v 0.004300 0.001000 0.018586
v 0.004050 0.001000 0.019095
v 0.003604 0.001000 0.018756
v 0.005464 0.001000 0.019388
v 0.006878 0.001000 0.019095
v 0.005876 0.001000 0.018183
v 0.004825 0.001000 0.018452
v 0.004532 0.001000 0.017304
v 0.007323 0.001000 0.018756
v 0.007074 0.001000 0.018488
v 0.005464 -0.001000 -0.011643
v 0.005464 0.001000 -0.011643
v 0.005464 -0.000000 0.002857
v 0.005464 -0.001000 0.002857
v 0.005464 0.001000 0.002857
v -0.000536 -0.001000 0.002857
v -0.000536 -0.000000 0.002857
v -0.000536 -0.001000 -0.011643
v -0.000536 0.000000 -0.011643
v -0.000536 0.001000 -0.011643
v -0.000536 0.001000 0.002857
v -0.000536 -0.001000 -0.011643
v -0.000536 0.000000 -0.011643
v -0.000506 -0.000500 -0.011784
v -0.000486 -0.001000 -0.011825
v -0.000325 -0.001000 -0.012011
v -0.000410 -0.000500 -0.011930
v -0.000243 -0.000500 -0.012074
v -0.000410 0.000000 -0.011930
v -0.000243 0.000000 -0.012074
v -0.000506 0.000000 -0.011784
v -0.000410 0.000500 -0.011930
v -0.000486 0.001000 -0.011825
v -0.000506 0.000500 -0.011784
v -0.000243 0.000500 -0.012074
v -0.000325 0.001000 -0.012011
v 0.000343 0.001000 -0.012350
v -0.000005 0.000500 -0.012211
v 0.001360 0.001000 -0.012573
v 0.000343 -0.001000 -0.012350
v -0.000005 0.000000 -0.012211
v -0.000005 -0.000500 -0.012211
v 0.001360 -0.001000 -0.012573
v 0.002464 -0.001000 -0.012643
v 0.002464 0.001000 -0.012643
v 0.003568 -0.001000 -0.012573
v 0.004585 -0.001000 -0.012350
v 0.003568 0.001000 -0.012573
v 0.004585 0.001000 -0.012350
v 0.004945 0.000500 -0.012205
v 0.005253 0.001000 -0.012011
v 0.004945 0.000000 -0.012205
v 0.005178 0.000000 -0.012069
v 0.004945 -0.000500 -0.012205
v 0.005178 -0.000500 -0.012069
v 0.005253 -0.001000 -0.012011
v 0.005341 -0.000500 -0.011926
v 0.005414 -0.001000 -0.011825
v 0.005341 0.000000 -0.011926
v 0.005435 -0.000500 -0.011783
v 0.005435 0.000000 -0.011783
v 0.005464 -0.001000 -0.011643
v 0.005464 0.001000 -0.011643
v 0.005435 0.000500 -0.011783
v 0.005414 0.001000 -0.011825
v 0.005341 0.000500 -0.011926
v 0.005178 0.000500 -0.012069
v -0.000536 0.001000 -0.011643
v -0.000536 0.001000 0.002857
v -0.000507 0.000500 0.002997
v -0.000486 0.001000 0.003039
v -0.000536 -0.000000 0.002857
v -0.000536 -0.001000 0.002857
v -0.000507 -0.000000 0.002997
v -0.000507 -0.000500 0.002997
v -0.000486 -0.001000 0.003039
v -0.000413 -0.000500 0.003140
v -0.000325 -0.001000 0.003225
v -0.000413 -0.000000 0.003140
v -0.000250 -0.000500 0.003283
v -0.000018 -0.000500 0.003419
v -0.000250 -0.000000 0.003283
v -0.000250 0.000500 0.003283
v -0.000018 -0.000000 0.003419
v -0.000018 0.000500 0.003419
v 0.000343 0.001000 0.003564
v 0.000343 -0.001000 0.003564
v 0.001360 -0.001000 0.003787
v 0.001360 0.001000 0.003787
v 0.002464 -0.001000 0.003857
v 0.003568 -0.001000 0.003787
v 0.002464 0.001000 0.003857
v 0.003568 0.001000 0.003787
v 0.004585 0.001000 0.003564
v 0.004933 0.000500 0.003425
v 0.004585 -0.001000 0.003564
v 0.004933 -0.000000 0.003425
v 0.005253 0.001000 0.003225
v 0.005414 0.001000 0.003039
v 0.005338 0.000500 0.003143
v 0.005171 0.000500 0.003288
v 0.005171 -0.000000 0.003288
v 0.005171 -0.000500 0.003288
v 0.005338 -0.000000 0.003143
v 0.005338 -0.000500 0.003143
v 0.005434 -0.000000 0.002998
v 0.005464 -0.000000 0.002857
v 0.005434 -0.000500 0.002998
v 0.005434 0.000500 0.002998
v 0.005464 0.001000 0.002857
v 0.005464 -0.001000 0.002857
v 0.005414 -0.001000 0.003039
v 0.005253 -0.001000 0.003225
v 0.004933 -0.000500 0.003425
v -0.000325 0.001000 0.003225
v -0.000413 0.000500 0.003140
v 0.001464 0.001000 0.011388
v -0.003485 -0.000000 0.011327
v -0.003485 0.001000 0.011327
v 0.001464 -0.001000 0.011388
v -0.003485 -0.001000 0.011327
v -0.009235 -0.001000 0.010361
v -0.009235 -0.000000 0.010361
v -0.014578 -0.001000 0.008930
v -0.019536 -0.001000 0.006388
v -0.014578 -0.000000 0.008930
v -0.019536 0.001000 0.006388
v -0.014578 0.001000 0.008930
v -0.009235 0.001000 0.010361
v 0.007464 0.001000 0.018388
v 0.007196 0.001000 0.018888
v 0.007464 -0.001000 0.018388
v 0.007196 -0.001000 0.018888
v 0.006674 -0.001000 0.019185
v 0.006674 0.001000 0.019185
v 0.006078 -0.001000 0.019340
v 0.006078 0.001000 0.019340
v 0.005464 -0.001000 0.019388
v 0.005464 0.001000 0.019388
v 0.004861 -0.001000 0.019342
v 0.004861 0.001000 0.019342
v 0.004273 -0.001000 0.019191
v 0.004273 0.001000 0.019191
v 0.003736 -0.001000 0.018892
v 0.003736 0.001000 0.018892
v 0.003464 -0.001000 0.018388
v 0.003464 -0.000000 0.018388
v 0.003464 0.001000 0.018388
v -0.007536 0.001000 -0.015612
v -0.007536 0.000000 -0.015612
v -0.007405 0.001000 -0.016020
v -0.007405 -0.001000 -0.016020
v -0.007087 0.001000 -0.016325
v -0.007087 -0.001000 -0.016325
v -0.006690 0.001000 -0.016512
v -0.006690 -0.001000 -0.016512
v -0.006251 0.001000 -0.016601
v -0.006251 -0.001000 -0.016601
v -0.005818 0.001000 -0.016601
v -0.005818 -0.001000 -0.016601
v -0.005385 0.001000 -0.016513
v -0.005385 -0.001000 -0.016513
v -0.004985 0.001000 -0.016325
v -0.004985 -0.001000 -0.016325
v -0.004667 0.001000 -0.016020
v -0.004667 -0.001000 -0.016020
v -0.004536 0.001000 -0.015612
v -0.004536 -0.001000 -0.015612
v -0.007536 -0.001000 -0.015612
v -0.002536 0.001000 -0.015612
v -0.002536 0.000000 -0.015612
v -0.001729 0.001000 -0.016702
v -0.001729 -0.001000 -0.016702
v -0.000411 0.001000 -0.017248
v -0.000411 -0.001000 -0.017248
v 0.001013 0.001000 -0.017526
v 0.001013 -0.001000 -0.017526
v 0.002464 0.001000 -0.017612
v 0.002464 -0.001000 -0.017612
v 0.003899 0.001000 -0.017528
v 0.003899 -0.001000 -0.017528
v 0.005316 0.001000 -0.017254
v 0.005316 -0.001000 -0.017254
v 0.006677 0.001000 -0.016688
v 0.006677 -0.001000 -0.016688
v 0.007464 0.001000 -0.015612
v 0.007464 -0.001000 -0.015612
v -0.002536 -0.001000 -0.015612
v 0.001464 -0.001000 0.011388
v 0.001464 0.001000 0.011388
v 0.001464 -0.001000 0.005388
v 0.001464 0.001000 0.005388
v 0.001464 -0.001000 0.005388
v 0.001464 0.001000 0.005388
v 0.003464 -0.001000 0.005388
v 0.003464 0.001000 0.005388
v 0.007464 -0.001000 0.018388
v 0.007464 0.001000 0.018388
v 0.007464 -0.001000 0.002388
v 0.007464 0.001000 0.002388
v 0.007464 -0.001000 0.002388
v 0.007464 0.001000 0.002388
v 0.009464 -0.001000 0.002388
v 0.009464 0.001000 0.002388
v 0.009464 -0.001000 -0.007612
v 0.009464 0.001000 -0.007612
v 0.007464 -0.001000 -0.007612
v 0.007464 0.001000 -0.007612
v 0.007464 -0.001000 -0.007612
v 0.007464 0.001000 -0.007612
v 0.007464 -0.001000 -0.015612
v 0.007464 0.001000 -0.015612
v -0.002536 -0.001000 -0.015612
v -0.002536 -0.001000 -0.007612
v -0.002536 0.000000 -0.015612
v -0.002536 0.001000 -0.015612
v -0.002536 0.001000 -0.007612
v -0.002536 -0.001000 -0.007612
v -0.002536 0.001000 -0.007612
v -0.004536 -0.001000 -0.007612
v -0.004536 0.001000 -0.007612
v -0.004536 -0.001000 -0.007612
v -0.004536 0.001000 -0.007612
v -0.004536 -0.001000 -0.015612
v -0.004536 0.001000 -0.015612
v -0.007536 -0.001000 -0.015612
v -0.007536 -0.001000 -0.006612
v -0.007536 0.000000 -0.015612
v -0.007536 0.001000 -0.015612
v -0.007536 0.001000 -0.006612
v -0.007536 -0.001000 -0.006612
v -0.007552 -0.001000 -0.004356
v -0.007536 0.001000 -0.006612
v -0.007552 0.001000 -0.004356
v -0.007714 0.001000 -0.002130
v -0.007714 -0.001000 -0.002130
v -0.008429 0.001000 -0.000145
v -0.010312 0.001000 0.001109
v -0.008429 -0.001000 -0.000145
v -0.010312 -0.001000 0.001109
v -0.012536 -0.001000 0.001388
v -0.012536 0.001000 0.001388
v -0.012536 -0.001000 0.001388
v -0.012536 0.001000 0.001388
v -0.019536 -0.001000 0.001388
v -0.019536 0.001000 0.001388
v -0.019536 -0.001000 0.001388
v -0.019536 0.001000 0.001388
v -0.019536 -0.001000 0.006388
v -0.019536 0.001000 0.006388
v 0.003464 0.001000 0.018388
v 0.003464 0.001000 0.005388
v 0.003464 -0.000000 0.018388
v 0.003464 -0.001000 0.005388
v 0.003464 -0.001000 0.018388
v 0.009464 0.001000 -0.012612
v 0.011736 0.001000 -0.010487
v 0.009464 -0.001000 -0.012612
v 0.011736 -0.001000 -0.010487
v 0.012777 -0.001000 -0.007337
v 0.012777 0.001000 -0.007337
v 0.013301 -0.001000 -0.003999
v 0.013301 0.001000 -0.003999
v 0.013464 -0.001000 -0.000612
v 0.013464 0.001000 -0.000612
v 0.013306 -0.001000 0.002726
v 0.013306 0.001000 0.002726
v 0.012794 -0.001000 0.006036
v 0.012794 0.001000 0.006036
v 0.011712 -0.001000 0.009314
v 0.011712 0.001000 0.009314
v 0.009464 -0.001000 0.011388
v 0.009464 0.001000 0.011388
v 0.009464 0.001000 0.011388
v 0.009464 -0.001000 0.011388
v 0.009464 0.001000 0.002388
v 0.009464 -0.001000 0.002388
v 0.009464 -0.001000 -0.012612
v 0.009464 0.001000 -0.012612
v 0.009464 -0.001000 -0.007612
v 0.009464 0.001000 -0.007612
v 0.001464 -0.001000 0.011388
v 0.001464 -0.001000 0.005388
v -0.008557 -0.001000 0.010499
v -0.008985 -0.001000 0.000439
v -0.009942 -0.001000 0.000982
v -0.012536 -0.001000 0.001388
v -0.019536 -0.001000 0.006388
v -0.000486 -0.001000 0.003039
v -0.000325 -0.001000 0.003225
v 0.000343 -0.001000 0.003564
v 0.002464 -0.001000 0.003857
v 0.004585 -0.001000 0.003564
v 0.003464 -0.001000 0.005388
v 0.007464 -0.001000 0.002388
v 0.007464 -0.001000 0.018388
v 0.003464 -0.001000 0.018388
v 0.005253 -0.001000 0.003225
v 0.005414 -0.001000 0.003039
v 0.005464 -0.001000 0.002857
v 0.007464 -0.001000 -0.007612
v 0.005464 -0.001000 -0.011643
v 0.007464 -0.001000 -0.015612
v 0.007464 -0.001000 -0.007854
v 0.007464 -0.001000 -0.007795
v 0.005414 -0.001000 -0.011825
v 0.005253 -0.001000 -0.012011
v 0.004585 -0.001000 -0.012350
v 0.005999 -0.001000 -0.017026
v 0.002464 -0.001000 -0.012643
v 0.002464 -0.001000 -0.017612
v -0.001072 -0.001000 -0.017026
v -0.002536 -0.001000 -0.015612
v -0.002185 -0.001000 -0.016348
v 0.000343 -0.001000 -0.012350
v -0.000325 -0.001000 -0.012011
v -0.000486 -0.001000 -0.011825
v -0.000536 -0.001000 -0.011643
v -0.002536 -0.001000 -0.007612
v -0.002536 -0.001000 -0.007795
v -0.000536 -0.001000 0.002857
v -0.008286 -0.001000 -0.000362
v -0.007630 -0.001000 -0.002830
v -0.004536 -0.001000 -0.007612
v -0.007536 -0.001000 -0.006612
v -0.004536 -0.001000 -0.007795
v -0.007536 -0.001000 -0.015612
v -0.007431 -0.001000 -0.015980
v -0.007511 -0.001000 -0.015794
v -0.007097 -0.001000 -0.016319
v -0.006588 -0.001000 -0.016541
v -0.004536 -0.001000 -0.015612
v -0.006036 -0.001000 -0.016612
v -0.005484 -0.001000 -0.016541
v -0.004975 -0.001000 -0.016319
v -0.004641 -0.001000 -0.015980
v -0.004561 -0.001000 -0.015794
v -0.002453 -0.001000 -0.015976
v 0.007113 -0.001000 -0.016348
v 0.007380 -0.001000 -0.015976
v 0.009464 -0.001000 0.002388
v 0.009464 -0.001000 -0.007612
v 0.010936 -0.001000 -0.011769
v 0.009464 -0.001000 -0.012612
v 0.012292 -0.001000 -0.009097
v 0.013464 -0.001000 -0.000612
v 0.012292 -0.001000 0.007874
v 0.009464 -0.001000 0.011388
v 0.010936 -0.001000 0.010546
v 0.010192 -0.001000 0.011188
v 0.010192 -0.001000 -0.012411
v 0.004050 -0.001000 0.019095
v 0.003604 -0.001000 0.018756
v 0.003497 -0.001000 0.018570
v 0.005464 -0.001000 0.019388
v 0.006878 -0.001000 0.019095
v 0.007323 -0.001000 0.018756
v 0.007431 -0.001000 0.018570
v -0.019536 -0.001000 0.001388
vn 0.000000 1.000000 0.000000
vn 0.000000 1.000000 0.000000
vn 0.000000 1.000000 0.000000
vn 0.000000 1.000000 0.000000
vn 0.000000 1.000000 0.000000
vn 0.000000 1.000000 0.000000
vn 0.000000 1.000000 0.000000
vn 0.000000 1.000000 0.000000
vn 0.000000 1.000000 0.000000
vn 0.000000 1.000000 0.000000
vn 0.000000 1.000000 0.000000
vn 0.000000 1.000000 0.000000
vn 0.000000 1.000000 0.000000
vn 0.000000 1.000000 0.000000
vn 0.000000 1.000000 0.000000
vn 0.000000 1.000000 0.000000
vn 0.000000 1.000000 0.000000
vn 0.000000 1.000000 0.000000
vn 0.000000 1.000000 0.000000
vn 0.000000 1.000000 0.000000
vn 0.000000 1.000000 0.000000
vn 0.000000 1.000000 0.000000
vn 0.000000 1.000000 0.000000
vn 0.000000 1.000000 0.000000
vn 0.000000 1.000000 0.000000
vn 0.000000 1.000000 0.000000
vn 0.000000 1.000000 0.000000
vn 0.000000 1.000000 0.000000
vn 0.000000 1.000000 0.000000
vn 0.000000 1.000000 0.000000
vn 0.000000 1.000000 0.000000
vn 0.000000 1.000000 0.000000
vn 0.000000 1.000000 0.000000
vn 0.000000 1.000000 0.000000
vn 0.000000 1.000000 0.000000
vn 0.000000 1.000000 0.000000
vn 0.000000 1.000000 0.000000
vn 0.000000 1.000000 0.000000
vn 0.000000 1.000000 0.000000
vn 0.000000 1.000000 0.000000
vn 0.000000 1.000000 0.000000
vn 0.000000 1.000000 0.000000
vn 0.000000 1.000000 0.000000
vn 0.000000 1.000000 0.000000
vn 0.000000 1.000000 0.000000
vn 0.000000 1.000000 0.000000
vn 0.000000 1.000000 0.000000
vn 0.000000 1.000000 0.000000
vn 0.000000 1.000000 0.000000
vn 0.000000 1.000000 0.000000
vn 0.000000 1.000000 0.000000
vn 0.000000 1.000000 0.000000
vn 0.000000 1.000000 0.000000
vn 0.000000 1.000000 0.000000
vn 0.000000 1.000000 0.000000
vn 0.000000 1.000000 0.000000
vn 0.000000 1.000000 0.000000
vn 0.000000 1.000000 0.000000
vn 0.000000 1.000000 0.000000
vn 0.000000 1.000000 0.000000
vn 0.000000 1.000000 0.000000
vn 0.000000 1.000000 0.000000
vn 0.000000 1.000000 0.000000
vn 0.000000 1.000000 0.000000
vn 0.000000 1.000000 0.000000
vn 0.000000 1.000000 0.000000
vn 0.000000 1.000000 0.000000
vn 0.000000 1.000000 0.000000
vn 0.000000 1.000000 0.000000
vn 0.000000 1.000000 0.000000
vn 0.000000 1.000000 0.000000
vn 0.000000 1.000000 0.000000
vn 0.000000 1.000000 0.000000
vn 0.000000 1.000000 0.000000
vn 0.000000 1.000000 0.000000
vn 0.000000 1.000000 0.000000
vn 0.000000 1.000000 0.000000
vn 0.000000 1.000000 0.000000
vn 0.000000 1.000000 0.000000
vn 0.000000 1.000000 0.000000
vn 0.000000 1.000000 0.000000
vn 0.000000 1.000000 0.000000
vn 0.000000 1.000000 0.000000
vn 0.000000 1.000000 0.000000
vn 0.000000 1.000000 0.000000
vn 0.000000 1.000000 0.000000
vn 0.000000 1.000000 0.000000
vn 0.000000 1.000000 0.000000
vn 0.000000 1.000000 0.000000
vn 0.000000 1.000000 0.000000
vn 0.000000 1.000000 0.000000
vn 0.000000 1.000000 0.000000
vn 0.000000 1.000000 0.000000
vn 0.000000 1.000000 0.000000
vn 0.000000 1.000000 0.000000
vn 0.000000 1.000000 0.000000
vn 0.000000 1.000000 0.000000
vn 0.000000 1.000000 0.000000
vn 0.000000 1.000000 0.000000
vn 0.000000 1.000000 0.000000
vn 0.000000 1.000000 0.000000
vn 0.000000 1.000000 0.000000
vn 0.000000 1.000000 0.000000
vn 0.000000 1.000000 0.000000
vn 0.000000 1.000000 0.000000
vn 0.000000 1.000000 0.000000
vn 0.000000 1.000000 0.000000
vn 0.000000 1.000000 0.000000
vn 0.000000 1.000000 0.000000
vn 0.000000 1.000000 0.000000
vn 0.000000 1.000000 0.000000
vn 0.000000 1.000000 0.000000
vn 0.000000 1.000000 0.000000
vn 0.000000 1.000000 0.000000
vn 0.000000 1.000000 0.000000
vn 0.000000 1.000000 0.000000
vn 0.000000 1.000000 0.000000
vn 0.000000 1.000000 0.000000
vn 0.000000 1.000000 0.000000
vn 0.000000 1.000000 0.000000
vn 0.000000 1.000000 0.000000
vn 0.000000 1.000000 0.000000
vn 0.000000 1.000000 0.000000
vn 0.000000 1.000000 0.000000
vn 0.000000 1.000000 0.000000
vn 0.000000 1.000000 0.000000
vn 0.000000 1.000000 0.000000
vn 0.000000 1.000000 0.000000
vn 0.000000 1.000000 0.000000
vn 0.000000 1.000000 0.000000
vn 0.000000 1.000000 0.000000
vn 0.000000 1.000000 0.000000
vn 0.000000 1.000000 0.000000
vn 0.000000 1.000000 0.000000
vn 0.000000 1.000000 0.000000
vn 0.000000 1.000000 0.000000
vn 0.000000 1.000000 0.000000
vn 0.000000 1.000000 0.000000
vn 0.000000 1.000000 0.000000
vn 0.000000 1.000000 0.000000
vn 0.000000 1.000000 0.000000
vn 0.000000 1.000000 0.000000
vn 0.000000 1.000000 0.000000
vn 0.000000 1.000000 0.000000
vn 0.000000 1.000000 0.000000
vn 0.000000 1.000000 0.000000
vn 0.000000 1.000000 0.000000
vn 0.000000 1.000000 0.000000
vn 0.000000 1.000000 0.000000
vn 0.000000 1.000000 0.000000
vn 0.000000 1.000000 0.000000
vn 0.000000 1.000000 0.000000
vn 0.000000 1.000000 0.000000
vn 0.000000 1.000000 0.000000
vn 0.000000 1.000000 0.000000
vn 0.000000 1.000000 0.000000
vn 0.000000 1.000000 0.000000
vn 0.000000 1.000000 0.000000
vn 0.000000 1.000000 0.000000
vn 0.000000 1.000000 0.000000
vn 0.000000 1.000000 0.000000
vn 0.000000 1.000000 0.000000
vn 0.000000 1.000000 0.000000
vn 0.000000 1.000000 0.000000
vn 0.000000 1.000000 0.000000
vn 0.000000 1.000000 0.000000
vn 0.000000 1.000000 0.000000
vn 0.000000 1.000000 0.000000
vn 0.000000 1.000000 0.000000
vn 0.000000 1.000000 0.000000
vn 0.000000 1.000000 0.000000
vn 0.000000 1.000000 0.000000
vn 0.000000 1.000000 0.000000
vn 0.000000 1.000000 0.000000
vn 0.000000 1.000000 0.000000
vn 0.000000 1.000000 0.000000
vn 0.000000 1.000000 0.000000
vn 0.000000 1.000000 0.000000
vn 0.000000 1.000000 0.000000
vn 0.000000 1.000000 0.000000
vn 0.000000 1.000000 0.000000
vn 0.000000 1.000000 0.000000
vn 0.000000 1.000000 0.000000
vn 0.000000 1.000000 0.000000
vn 0.000000 1.000000 0.000000
vn 0.000000 1.000000 0.000000
vn 0.000000 1.000000 0.000000
vn 0.000000 1.000000 0.000000
vn 0.000000 1.000000 0.000000
vn 0.000000 1.000000 0.000000
vn 0.000000 1.000000 0.000000
vn 0.000000 1.000000 0.000000
vn 0.000000 1.000000 0.000000
vn 0.000000 1.000000 0.000000
vn 0.000000 1.000000 0.000000
vn 0.000000 1.000000 0.000000
vn 0.000000 1.000000 0.000000
vn 0.000000 1.000000 0.000000
vn 0.000000 1.000000 0.000000
vn 0.000000 1.000000 0.000000
vn 0.000000 1.000000 0.000000
vn 0.000000 1.000000 0.000000
vn 0.000000 1.000000 0.000000
vn 0.000000 1.000000 0.000000
vn 0.000000 1.000000 0.000000
vn 0.000000 1.000000 0.000000
vn 0.000000 1.000000 0.000000
vn 0.000000 1.000000 0.000000
vn 0.000000 1.000000 0.000000
vn 0.000000 1.000000 0.000000
vn 0.000000 1.000000 0.000000
vn 0.000000 1.000000 0.000000
vn 0.000000 1.000000 0.000000
vn 0.000000 1.000000 0.000000
vn 0.000000 1.000000 0.000000
vn 0.000000 1.000000 0.000000
vn 0.000000 1.000000 0.000000
vn 0.000000 1.000000 0.000000
vn 0.000000 1.000000 0.000000
vn 0.000000 1.000000 0.000000
vn 0.000000 1.000000 0.000000
vn 0.000000 1.000000 0.000000
vn 0.000000 1.000000 0.000000
vn 0.000000 1.000000 0.000000
vn 0.000000 1.000000 0.000000
vn 0.000000 1.000000 0.000000
vn 0.000000 1.000000 0.000000
vn 0.000000 1.000000 0.000000
vn 0.000000 1.000000 0.000000
vn 0.000000 1.000000 0.000000
vn 0.000000 1.000000 0.000000
vn 0.000000 1.000000 0.000000
vn 0.000000 1.000000 0.000000
vn 0.000000 1.000000 0.000000
vn 0.000000 1.000000 0.000000
vn 0.000000 1.000000 0.000000
vn 0.000000 1.000000 0.000000
vn 0.000000 1.000000 0.000000
vn 0.000000 1.000000 0.000000
vn 0.000000 1.000000 0.000000
vn 0.000000 1.000000 0.000000
vn 0.000000 1.000000 0.000000
vn 0.000000 1.000000 0.000000
vn 0.000000 1.000000 0.000000
vn 0.000000 1.000000 0.000000
vn 0.000000 1.000000 0.000000
vn 0.000000 1.000000 0.000000
vn 0.000000 1.000000 0.000000
vn 0.000000 1.000000 0.000000
vn 0.000000 1.000000 0.000000
vn 0.000000 1.000000 0.000000
vn 0.000000 1.000000 0.000000
vn 0.000000 1.000000 0.000000
vn 0.000000 1.000000 0.000000
vn 0.000000 1.000000 0.000000
vn 0.000000 1.000000 0.000000
vn 0.000000 1.000000 0.000000
vn 0.000000 1.000000 0.000000
vn 0.000000 1.000000 0.000000
vn 0.000000 1.000000 0.000000
vn 0.000000 1.000000 0.000000
vn 0.000000 1.000000 0.000000
vn 0.000000 1.000000 0.000000
vn 0.000000 1.000000 0.000000
vn 0.000000 1.000000 0.000000
vn 0.000000 1.000000 0.000000
vn 0.000000 1.000000 0.000000
vn 0.000000 1.000000 0.000000
vn 0.000000 1.000000 0.000000
vn 0.000000 1.000000 0.000000
vn 0.000000 1.000000 0.000000
vn 0.000000 1.000000 0.000000
vn 0.000000 1.000000 0.000000
vn 0.000000 1.000000 0.000000
vn 0.000000 1.000000 0.000000
vn 0.000000 1.000000 0.000000
vn 0.000000 1.000000 0.000000
vn 0.000000 1.000000 0.000000
vn 0.000000 1.000000 0.000000
vn 0.000000 1.000000 0.000000
vn 0.000000 1.000000 0.000000
vn 0.000000 1.000000 0.000000
vn 0.000000 1.000000 0.000000
vn 0.000000 1.000000 0.000000
vn 0.000000 1.000000 0.000000
vn 0.000000 1.000000 0.000000
vn 0.000000 1.000000 0.000000
vn 0.000000 1.000000 0.000000
vn 0.000000 1.000000 0.000000
vn 0.000000 1.000000 0.000000
vn 0.000000 1.000000 0.000000
vn 0.000000 1.000000 0.000000
vn 0.000000 1.000000 0.000000
vn 0.000000 1.000000 0.000000
vn 0.000000 1.000000 0.000000
vn 0.000000 1.000000 0.000000
vn 0.000000 1.000000 0.000000
vn 0.000000 1.000000 0.000000
vn 0.000000 1.000000 0.000000
vn 0.000000 1.000000 0.000000
vn 0.000000 1.000000 0.000000
vn 0.000000 1.000000 0.000000
vn 0.000000 1.000000 0.000000
vn -1.000000 0.000000 0.000000
vn -1.000000 0.000000 0.000000
vn -1.000000 0.000000 0.000000
vn -1.000000 0.000000 0.000000
vn -1.000000 0.000000 0.000000
vn 1.000000 0.000000 0.000000
vn 1.000000 0.000000 0.000000
vn 1.000000 0.000000 0.000000
vn 1.000000 0.000000 0.000000
vn 1.000000 0.000000 0.000000
vn 1.000000 0.000000 0.000000
vn 1.000000 -0.000000 0.000100
vn 1.000000 -0.000000 0.000100
vn 0.919233 -0.000000 0.393714
vn 0.874294 -0.000000 0.485397
vn 0.644120 -0.000000 0.764924
vn 0.744273 -0.000000 0.667876
vn 0.572502 -0.000000 0.819903
vn 0.744228 -0.000000 0.667925
vn 0.572502 -0.000000 0.819903
vn 0.919197 -0.000000 0.393799
vn 0.744273 -0.000000 0.667876
vn 0.874294 -0.000000 0.485397
vn 0.919197 -0.000000 0.393799
vn 0.572569 -0.000000 0.819856
vn 0.644120 -0.000000 0.764924
vn 0.316198 -0.000000 0.948693
vn 0.434811 -0.000000 0.900522
vn 0.130801 -0.000000 0.991409
vn 0.316198 -0.000000 0.948693
vn 0.434811 -0.000000 0.900522
vn 0.434811 -0.000000 0.900522
vn 0.130801 -0.000000 0.991409
vn 0.000000 -0.000000 1.000000
vn 0.000000 -0.000000 1.000000
vn -0.130801 -0.000000 0.991409
vn -0.316198 -0.000000 0.948693
vn -0.130801 -0.000000 0.991409
vn -0.316198 -0.000000 0.948693
vn -0.440481 -0.000000 0.897762
vn -0.644071 -0.000000 0.764966
vn -0.440320 -0.000000 0.897841
vn -0.577970 -0.000000 0.816058
vn -0.440481 -0.000000 0.897762
vn -0.578017 -0.000000 0.816024
vn -0.644071 -0.000000 0.764966
vn -0.748517 -0.000000 0.663115
vn -0.874294 -0.000100 0.485397
vn -0.748517 -0.000000 0.663115
vn -0.920900 -0.000000 0.389800
vn -0.920935 -0.000000 0.389715
vn -1.000000 -0.000100 0.000100
vn -1.000000 0.000100 0.000100
vn -0.920900 -0.000000 0.389800
vn -0.874294 0.000100 0.485397
vn -0.748517 -0.000000 0.663115
vn -0.578017 -0.000000 0.816024
vn 1.000000 -0.000000 0.000100
vn 1.000000 0.000000 -0.000200
vn 0.920935 0.000000 -0.389715
vn 0.874294 0.000000 -0.485397
vn 1.000000 0.000000 -0.000100
vn 1.000000 0.000000 -0.000200
vn 0.920900 0.000000 -0.389800
vn 0.920935 0.000000 -0.389715
vn 0.874294 -0.000100 -0.485397
vn 0.748517 0.000000 -0.663115
vn 0.644071 0.000000 -0.764966
vn 0.748517 0.000000 -0.663115
vn 0.577970 0.000000 -0.816058
vn 0.440481 0.000000 -0.897762
vn 0.577970 0.000000 -0.816058
vn 0.578017 0.000000 -0.816024
vn 0.440320 0.000000 -0.897841
vn 0.440481 0.000000 -0.897762
vn 0.316198 0.000000 -0.948693
vn 0.316198 0.000000 -0.948693
vn 0.130801 0.000000 -0.991409
vn 0.130801 0.000000 -0.991409
vn 0.000000 0.000000 -1.000000
vn -0.130801 0.000000 -0.991409
vn 0.000000 0.000000 -1.000000
vn -0.130801 0.000000 -0.991409
vn -0.316198 0.000000 -0.948693
vn -0.434811 0.000000 -0.900522
vn -0.316198 0.000000 -0.948693
vn -0.434811 0.000000 -0.900522
vn -0.644071 -0.000100 -0.764966
vn -0.874294 0.000100 -0.485397
vn -0.744228 0.000000 -0.667925
vn -0.572502 0.000000 -0.819903
vn -0.572502 0.000000 -0.819903
vn -0.572502 0.000000 -0.819903
vn -0.744228 0.000000 -0.667925
vn -0.744228 0.000000 -0.667925
vn -0.919197 0.000000 -0.393799
vn -1.000000 0.000000 -0.000100
vn -0.919233 0.000000 -0.393714
vn -0.919233 0.000000 -0.393714
vn -1.000000 0.000100 -0.000100
vn -1.000000 -0.000100 -0.000100
vn -0.874294 0.000000 -0.485397
vn -0.644071 0.000100 -0.764966
vn -0.434811 0.000000 -0.900522
vn 0.644120 0.000000 -0.764924
vn 0.748468 0.000000 -0.663171
vn 0.128895 -0.000000 0.991658
vn -0.110805 -0.000000 0.993842
vn -0.110805 -0.000000 0.993842
vn 0.128895 -0.000000 0.991658
vn -0.110805 -0.000000 0.993842
vn -0.203303 -0.000000 0.979116
vn -0.203303 -0.000000 0.979116
vn -0.335304 -0.000000 0.942110
vn -0.590114 -0.000000 0.807320
vn -0.335304 -0.000000 0.942110
vn -0.590114 -0.000000 0.807320
vn -0.335304 -0.000000 0.942110
vn -0.203303 -0.000000 0.979116
vn 1.000000 0.000000 0.000000
vn 0.654588 -0.000000 0.755986
vn 1.000000 0.000000 0.000000
vn 0.654588 -0.000000 0.755986
vn 0.355109 -0.000000 0.934825
vn 0.355109 -0.000000 0.934825
vn 0.159207 -0.000000 0.987245
vn 0.159207 -0.000000 0.987245
vn -0.000100 -0.000000 1.000000
vn -0.000100 -0.000000 1.000000
vn -0.155993 -0.000000 0.987758
vn -0.155993 -0.000000 0.987758
vn -0.347702 -0.000000 0.937605
vn -0.347702 -0.000000 0.937605
vn -0.650717 -0.000000 0.759320
vn -0.650717 -0.000000 0.759320
vn -1.000000 -0.000000 0.000100
vn -1.000000 0.000000 0.000000
vn -1.000000 -0.000000 0.000100
vn -1.000000 0.000000 -0.000100
vn -1.000000 0.000000 -0.000100
vn -0.830107 0.000000 -0.557605
vn -0.830107 0.000000 -0.557605
vn -0.547387 0.000000 -0.836880
vn -0.547387 0.000000 -0.836880
vn -0.307514 0.000000 -0.951544
vn -0.307514 0.000000 -0.951544
vn -0.095899 0.000000 -0.995391
vn -0.095899 0.000000 -0.995391
vn 0.097503 0.000000 -0.995235
vn 0.097503 0.000000 -0.995235
vn 0.305799 0.000000 -0.952096
vn 0.305799 0.000000 -0.952096
vn 0.547920 0.000000 -0.836531
vn 0.547920 0.000000 -0.836531
vn 0.830586 0.000000 -0.556891
vn 0.830586 0.000000 -0.556891
vn 1.000000 0.000000 -0.000100
vn 1.000000 0.000000 -0.000100
vn -1.000000 0.000000 -0.000100
vn -1.000000 -0.000000 0.000100
vn -1.000000 -0.000000 0.000100
vn -0.524198 0.000000 -0.851597
vn -0.524198 0.000000 -0.851597
vn -0.270598 0.000000 -0.962692
vn -0.270598 0.000000 -0.962692
vn -0.120403 0.000000 -0.992725
vn -0.120403 0.000000 -0.992725
vn -0.000400 0.000000 -1.000000
vn -0.000400 0.000000 -1.000000
vn 0.118999 0.000000 -0.992894
vn 0.118999 0.000000 -0.992894
vn 0.267608 0.000000 -0.963528
vn 0.267608 0.000000 -0.963528
vn 0.530682 0.000000 -0.847571
vn 0.530682 0.000000 -0.847571
vn 1.000000 -0.000000 0.000100
vn 1.000000 -0.000000 0.000100
vn -1.000000 -0.000000 0.000100
vn 1.000000 0.000000 0.000000
vn 1.000000 0.000000 0.000000
vn 1.000000 0.000000 0.000000
vn 1.000000 0.000000 0.000000
vn 0.000000 -0.000000 1.000000
vn 0.000000 -0.000000 1.000000
vn 0.000000 -0.000000 1.000000
vn 0.000000 -0.000000 1.000000
vn 1.000000 0.000000 0.000000
vn 1.000000 0.000000 0.000000
vn 1.000000 0.000000 0.000000
vn 1.000000 0.000000 0.000000
vn 0.000000 -0.000000 1.000000
vn 0.000000 -0.000000 1.000000
vn 0.000000 -0.000000 1.000000
vn 0.000000 -0.000000 1.000000
vn 0.000000 0.000000 -1.000000
vn 0.000000 0.000000 -1.000000
vn 0.000000 0.000000 -1.000000
vn 0.000000 0.000000 -1.000000
vn 1.000000 0.000000 0.000000
vn 1.000000 0.000000 0.000000
vn 1.000000 0.000000 0.000000
vn 1.000000 0.000000 0.000000
vn -1.000000 0.000000 0.000000
vn -1.000000 0.000000 0.000000
vn -1.000000 0.000000 0.000000
vn -1.000000 0.000000 0.000000
vn -1.000000 0.000000 0.000000
vn 0.000000 0.000000 -1.000000
vn 0.000000 0.000000 -1.000000
vn 0.000000 0.000000 -1.000000
vn 0.000000 0.000000 -1.000000
vn 1.000000 0.000000 0.000000
vn 1.000000 0.000000 0.000000
vn 1.000000 0.000000 0.000000
vn 1.000000 0.000000 0.000000
vn -1.000000 0.000000 0.000000
vn -1.000000 0.000000 0.000000
vn -1.000000 0.000000 0.000000
vn -1.000000 0.000000 0.000000
vn -1.000000 0.000000 0.000000
vn -1.000000 0.000000 0.000000
vn -0.999735 0.000000 -0.023001
vn -1.000000 0.000000 0.000000
vn -0.999735 0.000000 -0.023001
vn -0.988226 0.000000 -0.153004
vn -0.988226 0.000000 -0.153004
vn -0.810437 0.000000 -0.585826
vn -0.286706 0.000000 -0.958019
vn -0.810437 0.000000 -0.585826
vn -0.286706 0.000000 -0.958019
vn -0.000100 0.000000 -1.000000
vn -0.000100 0.000000 -1.000000
vn 0.000000 0.000000 -1.000000
vn 0.000000 0.000000 -1.000000
vn 0.000000 0.000000 -1.000000
vn 0.000000 0.000000 -1.000000
vn -1.000000 0.000000 0.000000
vn -1.000000 0.000000 0.000000
vn -1.000000 0.000000 0.000000
vn -1.000000 0.000000 0.000000
vn -1.000000 0.000000 0.000000
vn -1.000000 0.000000 0.000000
vn -1.000000 0.000000 0.000000
vn -1.000000 0.000000 0.000000
vn -1.000000 0.000000 0.000000
vn -0.000100 0.000000 -1.000000
vn 0.900483 0.000000 -0.434892
vn -0.000100 0.000000 -1.000000
vn 0.900483 0.000000 -0.434892
vn 0.975500 0.000000 -0.220000
vn 0.975500 0.000000 -0.220000
vn 0.995225 0.000000 -0.097603
vn 0.995225 0.000000 -0.097603
vn 1.000000 -0.000000 0.000100
vn 1.000000 -0.000000 0.000100
vn 0.995372 -0.000000 0.096097
vn 0.995372 -0.000000 0.096097
vn 0.976283 -0.000000 0.216496
vn 0.976283 -0.000000 0.216496
vn 0.897742 -0.000000 0.440521
vn 0.897742 -0.000100 0.440521
vn -0.000100 -0.000000 1.000000
vn -0.000100 -0.000000 1.000000
vn -1.000000 0.000000 0.000000
vn -1.000000 0.000000 0.000000
vn -1.000000 0.000000 0.000000
vn -1.000000 0.000000 0.000000
vn -1.000000 0.000000 0.000000
vn -1.000000 0.000000 0.000000
vn -1.000000 0.000000 0.000000
vn -1.000000 0.000000 0.000000
vn 0.000000 -1.000000 -0.000000
vn 0.000000 -1.000000 -0.000000
vn 0.000000 -1.000000 -0.000000
vn 0.000000 -1.000000 -0.000000
vn 0.000000 -1.000000 -0.000000
vn 0.000000 -1.000000 -0.000000
vn 0.000000 -1.000000 -0.000000
vn 0.000000 -1.000000 -0.000000
vn 0.000000 -1.000000 -0.000000
vn 0.000000 -1.000000 -0.000000
vn 0.000000 -1.000000 -0.000000
vn 0.000000 -1.000000 -0.000000
vn 0.000000 -1.000000 -0.000000
vn 0.000000 -1.000000 -0.000000
vn 0.000000 -1.000000 -0.000000
vn 0.000000 -1.000000 -0.000000
vn 0.000000 -1.000000 -0.000000
vn 0.000000 -1.000000 -0.000000
vn 0.000000 -1.000000 -0.000000
vn 0.000000 -1.000000 -0.000000
vn 0.000000 -1.000000 -0.000000
vn 0.000000 -1.000000 -0.000000
vn 0.000000 -1.000000 -0.000000
vn 0.000000 -1.000000 -0.000000
vn 0.000000 -1.000000 -0.000000
vn 0.000000 -1.000000 -0.000000
vn 0.000000 -1.000000 -0.000000
vn 0.000000 -1.000000 -0.000000
vn 0.000000 -1.000000 -0.000000
vn 0.000000 -1.000000 -0.000000
vn 0.000000 -1.000000 -0.000000
vn 0.000000 -1.000000 -0.000000
vn 0.000000 -1.000000 -0.000000
vn 0.000000 -1.000000 -0.000000
vn 0.000000 -1.000000 -0.000000
vn 0.000000 -1.000000 -0.000000
vn 0.000000 -1.000000 -0.000000
vn 0.000000 -1.000000 -0.000000
vn 0.000000 -1.000000 -0.000000
vn 0.000000 -1.000000 -0.000000
vn 0.000000 -1.000000 -0.000000
vn 0.000000 -1.000000 -0.000000
vn 0.000000 -1.000000 -0.000000
vn 0.000000 -1.000000 -0.000000
vn 0.000000 -1.000000 -0.000000
vn 0.000000 -1.000000 -0.000000
vn 0.000000 -1.000000 -0.000000
vn 0.000000 -1.000000 -0.000000
vn 0.000000 -1.000000 -0.000000
vn 0.000000 -1.000000 -0.000000
vn 0.000000 -1.000000 -0.000000
vn 0.000000 -1.000000 -0.000000
vn 0.000000 -1.000000 -0.000000
vn 0.000000 -1.000000 -0.000000
vn 0.000000 -1.000000 -0.000000
vn 0.000000 -1.000000 -0.000000
vn 0.000000 -1.000000 -0.000000
vn 0.000000 -1.000000 -0.000000
vn 0.000000 -1.000000 -0.000000
vn 0.000000 -1.000000 -0.000000
vn 0.000000 -1.000000 -0.000000
vn 0.000000 -1.000000 -0.000000
vn 0.000000 -1.000000 -0.000000
vn 0.000000 -1.000000 -0.000000
vn 0.000000 -1.000000 -0.000000
vn 0.000000 -1.000000 -0.000000
vn 0.000000 -1.000000 -0.000000
vn 0.000000 -1.000000 -0.000000
vn 0.000000 -1.000000 -0.000000
vn 0.000000 -1.000000 -0.000000
vn 0.000000 -1.000000 -0.000000
vn 0.000000 -1.000000 -0.000000
vn 0.000000 -1.000000 -0.000000
vn 0.000000 -1.000000 -0.000000
vn 0.000000 -1.000000 -0.000000
vn 0.000000 -1.000000 -0.000000
vn 0.000000 -1.000000 -0.000000
vn 0.000000 -1.000000 -0.000000
f 5//5 1//1 2//2
f 1//1 3//3 2//2
f 1//1 4//4 3//3
f 4//4 1//1 6//6
f 6//6 10//10 7//7
f 6//6 7//7 4//4
f 11//11 6//6 8//8
f 11//11 9//9 6//6
f 9//9 10//10 6//6
f 8//8 12//12 11//11
f 15//15 13//13 12//12
f 13//13 14//14 12//12
f 12//12 8//8 15//15
f 16//16 15//15 8//8
f 16//16 17//17 15//15
f 17//17 13//13 15//15
f 18//18 20//20 17//17
f 17//17 19//19 18//18
f 19//19 17//17 16//16
f 17//17 20//20 13//13
f 20//20 14//14 13//13
f 14//14 20//20 21//21
f 20//20 18//18 21//21
f 21//21 22//22 14//14
f 22//22 21//21 23//23
f 18//18 23//23 21//21
f 24//24 237//237 25//25
f 24//24 25//25 23//23
f 23//23 26//26 24//24
f 25//25 22//22 23//23
f 26//26 23//23 18//18
f 26//26 19//19 27//27
f 19//19 26//26 18//18
f 27//27 28//28 24//24
f 27//27 24//24 26//26
f 27//27 30//30 28//28
f 27//27 29//29 30//30
f 27//27 19//19 29//29
f 31//31 30//30 29//29
f 28//28 30//30 32//32
f 30//30 33//33 32//32
f 33//33 30//30 34//34
f 35//35 34//34 30//30
f 39//39 35//35 36//36
f 36//36 35//35 37//37
f 38//38 37//37 35//35
f 35//35 40//40 38//38
f 35//35 39//39 42//42
f 41//41 34//34 35//35
f 35//35 42//42 41//41
f 39//39 44//44 43//43
f 39//39 43//43 42//42
f 42//42 43//43 46//46
f 42//42 46//46 41//41
f 44//44 45//45 43//43
f 43//43 45//45 48//48
f 43//43 47//47 46//46
f 47//47 43//43 48//48
f 45//45 267//267 49//49
f 45//45 49//49 48//48
f 50//50 48//48 49//49
f 48//48 50//50 47//47
f 50//50 52//52 55//55
f 50//50 55//55 51//51
f 47//47 50//50 51//51
f 49//49 53//53 52//52
f 49//49 52//52 50//50
f 53//53 54//54 52//52
f 55//55 52//52 54//54
f 56//56 51//51 55//55
f 55//55 54//54 56//56
f 51//51 56//56 57//57
f 57//57 56//56 58//58
f 54//54 58//58 56//56
f 59//59 57//57 58//58
f 58//58 60//60 61//61
f 58//58 61//61 59//59
f 60//60 58//58 54//54
f 62//62 61//61 60//60
f 54//54 62//62 60//60
f 65//65 66//66 63//63
f 65//65 63//63 62//62
f 64//64 62//62 63//63
f 61//61 62//62 64//64
f 65//65 62//62 54//54
f 67//67 66//66 65//65
f 65//65 54//54 67//67
f 67//67 68//68 66//66
f 68//68 69//69 66//66
f 69//69 68//68 70//70
f 71//71 70//70 68//68
f 71//71 72//72 75//75
f 72//72 71//71 73//73
f 70//70 71//71 74//74
f 75//75 74//74 71//71
f 75//75 76//76 74//74
f 75//75 77//77 79//79
f 75//75 79//79 76//76
f 72//72 77//77 75//75
f 78//78 77//77 72//72
f 78//78 79//79 77//77
f 79//79 80//80 76//76
f 78//78 81//81 79//79
f 80//80 79//79 81//81
f 81//81 78//78 82//82
f 81//81 82//82 83//83
f 81//81 84//84 80//80
f 83//83 84//84 81//81
f 84//84 83//83 85//85
f 86//86 84//84 85//85
f 86//86 85//85 90//90
f 89//89 80//80 84//84
f 89//89 84//84 86//86
f 87//87 86//86 88//88
f 228//228 89//89 86//86
f 228//228 86//86 87//87
f 88//88 86//86 90//90
f 85//85 92//92 90//90
f 88//88 90//90 91//91
f 92//92 91//91 90//90
f 82//82 92//92 85//85
f 95//95 92//92 82//82
f 93//93 92//92 94//94
f 92//92 95//95 94//94
f 82//82 98//98 95//95
f 95//95 96//96 94//94
f 97//97 96//96 95//95
f 95//95 98//98 97//97
f 99//99 97//97 98//98
f 97//97 99//99 100//100
f 101//101 97//97 100//100
f 104//104 101//101 102//102
f 102//102 101//101 103//103
f 97//97 101//101 104//104
f 105//105 104//104 102//102
f 105//105 102//102 121//121
f 107//107 106//106 104//104
f 107//107 104//104 105//105
f 104//104 106//106 97//97
f 106//106 107//107 108//108
f 106//106 108//108 96//96
f 96//96 97//97 106//106
f 93//93 96//96 108//108
f 107//107 109//109 108//108
f 107//107 110//110 109//109
f 113//113 111//111 110//110
f 110//110 111//111 112//112
f 110//110 107//107 113//113
f 111//111 113//113 114//114
f 107//107 105//105 113//113
f 113//113 105//105 121//121
f 113//113 121//121 115//115
f 116//116 114//114 113//113
f 113//113 115//115 117//117
f 113//113 117//117 116//116
f 119//119 117//117 115//115
f 117//117 118//118 116//116
f 118//118 117//117 119//119
f 121//121 119//119 115//115
f 118//118 119//119 120//120
f 120//120 119//119 103//103
f 121//121 103//103 119//119
f 102//102 103//103 121//121
f 125//125 122//122 120//120
f 124//124 120//120 122//122
f 120//120 123//123 118//118
f 123//123 120//120 124//124
f 127//127 125//125 126//126
f 128//128 125//125 127//127
f 125//125 128//128 129//129
f 129//129 122//122 125//125
f 129//129 130//130 122//122
f 131//131 129//129 128//128
f 130//130 129//129 131//131
f 131//131 128//128 188//188
f 131//131 188//188 132//132
f 133//133 131//131 132//132
f 133//133 132//132 134//134
f 135//135 130//130 131//131
f 135//135 131//131 133//133
f 136//136 133//133 134//134
f 133//133 137//137 135//135
f 137//137 133//133 136//136
f 139//139 137//137 136//136
f 139//139 136//136 148//148
f 138//138 140//140 137//137
f 150//150 138//138 137//137
f 150//150 137//137 139//139
f 137//137 140//140 135//135
f 140//140 141//141 130//130
f 140//140 130//130 135//135
f 142//142 143//143 141//141
f 142//142 141//141 140//140
f 140//140 138//138 142//142
f 138//138 144//144 142//142
f 142//142 145//145 143//143
f 144//144 145//145 142//142
f 145//145 123//123 124//124
f 145//145 124//124 143//143
f 146//146 118//118 123//123
f 146//146 123//123 145//145
f 145//145 144//144 146//146
f 116//116 118//118 146//146
f 114//114 116//116 146//146
f 114//114 146//146 144//144
f 111//111 144//144 138//138
f 144//144 111//111 114//114
f 143//143 124//124 141//141
f 124//124 122//122 141//141
f 122//122 130//130 141//141
f 139//139 147//147 149//149
f 147//147 139//139 148//148
f 147//147 148//148 166//166
f 149//149 150//150 139//139
f 112//112 111//111 150//150
f 111//111 138//138 150//150
f 112//112 150//150 149//149
f 151//151 149//149 147//147
f 151//151 147//147 152//152
f 112//112 149//149 151//151
f 152//152 153//153 151//151
f 112//112 151//151 154//154
f 154//154 151//151 153//153
f 156//156 154//154 155//155
f 154//154 153//153 155//155
f 157//157 158//158 156//156
f 157//157 156//156 155//155
f 156//156 158//158 9//9
f 9//9 158//158 10//10
f 157//157 10//10 158//158
f 10//10 157//157 159//159
f 159//159 157//157 160//160
f 157//157 155//155 153//153
f 157//157 153//153 160//160
f 153//153 161//161 160//160
f 159//159 160//160 161//161
f 159//159 161//161 162//162
f 163//163 162//162 161//161
f 161//161 153//153 152//152
f 152//152 163//163 161//161
f 164//164 162//162 163//163
f 163//163 167//167 164//164
f 167//167 163//163 165//165
f 165//165 163//163 166//166
f 163//163 152//152 166//166
f 164//164 167//167 2//2
f 167//167 165//165 171//171
f 167//167 171//171 168//168
f 167//167 168//168 2//2
f 170//170 5//5 168//168
f 2//2 168//168 5//5
f 168//168 169//169 170//170
f 169//169 168//168 171//171
f 171//171 172//172 175//175
f 171//171 175//175 169//169
f 165//165 172//172 171//171
f 172//172 174//174 173//173
f 172//172 173//173 175//175
f 172//172 176//176 174//174
f 176//176 172//172 165//165
f 165//165 177//177 176//176
f 174//174 176//176 178//178
f 177//177 180//180 178//178
f 177//177 178//178 176//176
f 181//181 178//178 179//179
f 179//179 178//178 180//180
f 178//178 181//181 174//174
f 181//181 183//183 182//182
f 183//183 181//181 184//184
f 179//179 184//184 181//181
f 185//185 195//195 183//183
f 185//185 183//183 184//184
f 184//184 186//186 185//185
f 179//179 186//186 184//184
f 187//187 189//189 185//185
f 187//187 185//185 186//186
f 186//186 179//179 188//188
f 186//186 127//127 187//187
f 188//188 127//127 186//186
f 179//179 132//132 188//188
f 127//127 188//188 128//128
f 187//187 126//126 189//189
f 126//126 187//187 127//127
f 195//195 185//185 189//189
f 195//195 189//189 190//190
f 126//126 190//190 189//189
f 190//190 191//191 194//194
f 191//191 190//190 126//126
f 190//190 192//192 195//195
f 192//192 190//190 193//193
f 190//190 194//194 193//193
f 183//183 195//195 196//196
f 195//195 192//192 196//196
f 192//192 198//198 197//197
f 192//192 197//197 196//196
f 197//197 182//182 196//196
f 183//183 196//196 182//182
f 201//201 197//197 198//198
f 199//199 182//182 197//197
f 200//200 199//199 197//197
f 197//197 201//201 200//200
f 202//202 201//201 198//198
f 203//203 202//202 198//198
f 204//204 202//202 203//203
f 205//205 204//204 203//203
f 205//205 206//206 204//204
f 206//206 205//205 207//207
f 207//207 208//208 206//206
f 209//209 208//208 207//207
f 209//209 210//210 208//208
f 211//211 210//210 209//209
f 212//212 211//211 209//209
f 209//209 213//213 212//212
f 212//212 213//213 126//126
f 191//191 213//213 214//214
f 213//213 209//209 207//207
f 213//213 207//207 214//214
f 191//191 126//126 213//213
f 205//205 214//214 207//207
f 194//194 214//214 205//205
f 214//214 194//194 191//191
f 194//194 205//205 203//203
f 194//194 203//203 193//193
f 193//193 203//203 198//198
f 193//193 198//198 192//192
f 132//132 180//180 134//134
f 136//136 134//134 180//180
f 136//136 180//180 177//177
f 180//180 132//132 179//179
f 177//177 148//148 136//136
f 177//177 165//165 148//148
f 173//173 215//215 175//175
f 217//217 175//175 215//215
f 175//175 216//216 169//169
f 216//216 175//175 217//217
f 219//219 217//217 218//218
f 217//217 219//219 216//216
f 220//220 219//219 221//221
f 220//220 221//221 222//222
f 216//216 219//219 220//220
f 219//219 218//218 221//221
f 218//218 222//222 221//221
f 222//222 218//218 223//223
f 223//223 220//220 222//222
f 170//170 220//220 223//223
f 5//5 223//223 224//224
f 5//5 170//170 223//223
f 223//223 218//218 224//224
f 218//218 225//225 224//224
f 220//220 170//170 216//216
f 170//170 169//169 216//216
f 148//148 165//165 166//166
f 166//166 152//152 147//147
f 162//162 164//164 226//226
f 3//3 226//226 164//164
f 3//3 164//164 2//2
f 3//3 227//227 226//226
f 227//227 159//159 162//162
f 227//227 162//162 226//226
f 7//7 10//10 159//159
f 7//7 159//159 227//227
f 227//227 4//4 7//7
f 4//4 227//227 3//3
f 94//94 96//96 93//93
f 76//76 89//89 74//74
f 89//89 76//76 80//80
f 74//74 89//89 228//228
f 229//229 74//74 228//228
f 228//228 230//230 229//229
f 228//228 232//232 230//230
f 231//231 228//228 87//87
f 232//232 228//228 231//231
f 230//230 232//232 233//233
f 233//233 232//232 234//234
f 235//235 234//234 232//232
f 22//22 25//25 235//235
f 236//236 235//235 25//25
f 235//235 236//236 234//234
f 236//236 32//32 238//238
f 237//237 32//32 236//236
f 236//236 238//238 234//234
f 237//237 236//236 25//25
f 238//238 33//33 234//234
f 32//32 33//33 238//238
f 28//28 237//237 24//24
f 32//32 237//237 28//28
f 241//241 234//234 33//33
f 240//240 239//239 234//234
f 239//239 233//233 234//234
f 240//240 234//234 241//241
f 242//242 241//241 33//33
f 242//242 243//243 241//241
f 243//243 245//245 240//240
f 243//243 240//240 241//241
f 244//244 246//246 243//243
f 243//243 46//46 244//244
f 46//46 243//243 242//242
f 243//243 246//246 245//245
f 246//246 244//244 248//248
f 246//246 247//247 264//264
f 246//246 264//264 245//245
f 248//248 249//249 247//247
f 248//248 247//247 246//246
f 244//244 57//57 248//248
f 57//57 59//59 248//248
f 248//248 59//59 249//249
f 59//59 61//61 250//250
f 59//59 250//250 249//249
f 250//250 247//247 249//249
f 61//61 64//64 252//252
f 61//61 252//252 250//250
f 247//247 250//250 251//251
f 251//251 250//250 252//252
f 64//64 253//253 252//252
f 253//253 251//251 252//252
f 256//256 259//259 254//254
f 256//256 254//254 253//253
f 255//255 253//253 254//254
f 253//253 255//255 251//251
f 257//257 253//253 64//64
f 253//253 257//257 256//256
f 69//69 258//258 256//256
f 69//69 256//256 257//257
f 257//257 64//64 63//63
f 66//66 257//257 63//63
f 66//66 69//69 257//257
f 258//258 259//259 256//256
f 259//259 261//261 254//254
f 261//261 259//259 260//260
f 260//260 259//259 70//70
f 70//70 259//259 258//258
f 254//254 261//261 262//262
f 254//254 262//262 255//255
f 261//261 229//229 230//230
f 261//261 230//230 262//262
f 260//260 229//229 261//261
f 255//255 262//262 233//233
f 230//230 233//233 262//262
f 260//260 70//70 74//74
f 229//229 260//260 74//74
f 258//258 69//69 70//70
f 263//263 255//255 233//233
f 263//263 233//233 239//239
f 251//251 255//255 263//263
f 239//239 264//264 263//263
f 247//247 251//251 263//263
f 247//247 263//263 264//264
f 240//240 264//264 239//239
f 264//264 240//240 245//245
f 46//46 47//47 244//244
f 47//47 57//57 244//244
f 41//41 46//46 242//242
f 41//41 242//242 265//265
f 33//33 265//265 242//242
f 33//33 34//34 265//265
f 34//34 41//41 265//265
f 87//87 88//88 231//231
f 85//85 83//83 82//82
f 57//57 47//47 51//51
f 266//266 54//54 53//53
f 269//269 266//266 267//267
f 266//266 53//53 267//267
f 268//268 270//270 266//266
f 269//269 268//268 266//266
f 270//270 271//271 266//266
f 268//268 272//272 270//270
f 272//272 268//268 273//273
f 274//274 273//273 268//268
f 274//274 275//275 273//273
f 275//275 274//274 276//276
f 36//36 275//275 39//39
f 275//275 276//276 39//39
f 276//276 274//274 44//44
f 276//276 44//44 39//39
f 274//274 268//268 269//269
f 274//274 269//269 44//44
f 269//269 267//267 45//45
f 45//45 44//44 269//269
f 49//49 267//267 53//53
f 31//31 277//277 279//279
f 31//31 278//278 277//277
f 278//278 31//31 280//280
f 280//280 31//31 29//29
f 281//281 280//280 29//29
f 281//281 282//282 280//280
f 280//280 282//282 283//283
f 280//280 283//283 278//278
f 282//282 285//285 283//283
f 278//278 283//283 284//284
f 284//284 283//283 285//285
f 284//284 285//285 286//286
f 286//286 285//285 287//287
f 286//286 287//287 299//299
f 285//285 288//288 287//287
f 288//288 285//285 282//282
f 287//287 288//288 289//289
f 287//287 289//289 301//301
f 282//282 290//290 288//288
f 290//290 289//289 288//288
f 290//290 282//282 281//281
f 290//290 281//281 16//16
f 290//290 291//291 289//289
f 290//290 8//8 291//291
f 8//8 290//290 16//16
f 296//296 291//291 292//292
f 289//289 291//291 293//293
f 293//293 291//291 294//294
f 291//291 295//295 294//294
f 291//291 296//296 295//295
f 297//297 294//294 295//295
f 298//298 299//299 297//297
f 294//294 297//297 300//300
f 300//300 297//297 299//299
f 300//300 299//299 287//287
f 300//300 287//287 301//301
f 300//300 301//301 293//293
f 300//300 293//293 294//294
f 293//293 301//301 289//289
f 299//299 298//298 286//286
f 298//298 302//302 303//303
f 298//298 303//303 286//286
f 277//277 303//303 302//302
f 286//286 303//303 284//284
f 277//277 278//278 284//284
f 277//277 284//284 303//303
f 279//279 277//277 302//302
f 29//29 19//19 16//16
f 29//29 16//16 281//281
f 305//305 304//304 306//306
f 305//305 306//306 308//308
f 304//304 307//307 306//306
f 310//310 309//309 311//311
f 310//310 311//311 312//312
f 314//314 310//310 312//312
f 314//314 312//312 313//313
f 315//315 317//317 324//324
f 315//315 324//324 316//316
f 315//315 318//318 317//317
f 319//319 320//320 318//318
f 320//320 317//317 318//318
f 320//320 319//319 321//321
f 321//321 323//323 322//322
f 321//321 322//322 320//320
f 320//320 322//322 324//324
f 320//320 324//324 317//317
f 323//323 328//328 325//325
f 323//323 325//325 322//322
f 322//322 325//325 327//327
f 322//322 327//327 324//324
f 325//325 329//329 326//326
f 326//326 327//327 325//325
f 325//325 328//328 329//329
f 329//329 328//328 331//331
f 329//329 331//331 330//330
f 330//330 331//331 334//334
f 330//330 333//333 336//336
f 330//330 336//336 332//332
f 330//330 334//334 333//333
f 333//333 334//334 335//335
f 335//335 334//334 323//323
f 335//335 323//323 321//321
f 334//334 331//331 328//328
f 334//334 328//328 323//323
f 335//335 319//319 333//333
f 319//319 335//335 321//321
f 336//336 337//337 338//338
f 336//336 338//338 332//332
f 341//341 338//338 337//337
f 341//341 337//337 339//339
f 341//341 339//339 340//340
f 341//341 340//340 342//342
f 342//342 343//343 360//360
f 342//342 360//360 344//344
f 345//345 343//343 342//342
f 342//342 340//340 345//345
f 346//346 360//360 343//343
f 346//346 343//343 345//345
f 348//348 346//346 345//345
f 348//348 345//345 347//347
f 345//345 340//340 347//347
f 349//349 348//348 347//347
f 349//349 347//347 340//340
f 350//350 352//352 346//346
f 350//350 346//346 348//348
f 348//348 349//349 350//350
f 350//350 349//349 351//351
f 351//351 353//353 350//350
f 353//353 354//354 352//352
f 353//353 352//352 350//350
f 355//355 354//354 353//353
f 353//353 351//351 355//355
f 355//355 356//356 354//354
f 357//357 354//354 356//356
f 357//357 356//356 358//358
f 344//344 359//359 357//357
f 344//344 357//357 358//358
f 354//354 357//357 359//359
f 354//354 359//359 352//352
f 344//344 360//360 359//359
f 352//352 359//359 360//360
f 352//352 360//360 346//346
f 361//361 316//316 327//327
f 327//327 316//316 324//324
f 327//327 326//326 361//361
f 362//362 363//363 365//365
f 363//363 362//362 364//364
f 368//368 366//366 365//365
f 363//363 367//367 365//365
f 368//368 365//365 367//367
f 368//368 367//367 372//372
f 368//368 372//372 370//370
f 368//368 369//369 366//366
f 369//369 368//368 370//370
f 370//370 371//371 369//369
f 373//373 371//371 370//370
f 370//370 372//372 375//375
f 370//370 375//375 373//373
f 371//371 373//373 374//374
f 371//371 374//374 380//380
f 373//373 375//375 377//377
f 373//373 377//377 374//374
f 375//375 376//376 378//378
f 375//375 378//378 377//377
f 372//372 409//409 376//376
f 372//372 376//376 375//375
f 377//377 380//380 374//374
f 379//379 377//377 378//378
f 377//377 379//379 380//380
f 382//382 381//381 380//380
f 382//382 380//380 379//379
f 381//381 382//382 385//385
f 381//381 385//385 383//383
f 386//386 384//384 383//383
f 386//386 383//383 385//385
f 387//387 389//389 384//384
f 387//387 384//384 386//386
f 390//390 387//387 388//388
f 391//391 394//394 388//388
f 391//391 388//388 387//387
f 387//387 390//390 389//389
f 393//393 391//391 392//392
f 393//393 394//394 391//391
f 390//390 388//388 394//394
f 390//390 394//394 395//395
f 395//395 394//394 393//393
f 395//395 393//393 397//397
f 407//407 390//390 395//395
f 407//407 395//395 396//396
f 396//396 395//395 397//397
f 396//396 397//397 398//398
f 398//398 397//397 399//399
f 398//398 399//399 401//401
f 397//397 393//393 402//402
f 397//397 402//402 399//399
f 404//404 401//401 399//399
f 404//404 399//399 400//400
f 402//402 400//400 399//399
f 403//403 400//400 402//402
f 402//402 392//392 403//403
f 392//392 402//402 393//393
f 398//398 401//401 405//405
f 404//404 405//405 401//401
f 406//406 398//398 405//405
f 407//407 406//406 389//389
f 398//398 406//406 396//396
f 406//406 407//407 396//396
f 389//389 390//390 407//407
f 408//408 379//379 378//378
f 378//378 376//376 408//408
f 376//376 409//409 408//408
f 408//408 409//409 363//363
f 408//408 363//363 364//364
f 367//367 363//363 409//409
f 367//367 409//409 372//372
f 410//410 411//411 413//413
f 411//411 410//410 412//412
f 414//414 413//413 411//411
f 415//415 414//414 411//411
f 415//415 411//411 416//416
f 417//417 415//415 416//416
f 417//417 416//416 419//419
f 417//417 419//419 418//418
f 420//420 418//418 419//419
f 419//419 421//421 420//420
f 419//419 416//416 422//422
f 419//419 422//422 421//421
f 416//416 411//411 412//412
f 416//416 412//412 422//422
f 424//424 426//426 425//425
f 424//424 425//425 423//423
f 427//427 426//426 424//424
f 427//427 424//424 428//428
f 429//429 427//427 428//428
f 429//429 428//428 430//430
f 431//431 429//429 430//430
f 431//431 430//430 432//432
f 433//433 431//431 432//432
f 433//433 432//432 434//434
f 435//435 433//433 434//434
f 435//435 434//434 436//436
f 437//437 435//435 436//436
f 437//437 436//436 438//438
f 438//438 440//440 437//437
f 439//439 437//437 440//440
f 440//440 438//438 441//441
f 443//443 442//442 444//444
f 445//445 443//443 444//444
f 447//447 445//445 444//444
f 447//447 444//444 446//446
f 449//449 447//447 446//446
f 449//449 446//446 448//448
f 451//451 449//449 448//448
f 451//451 448//448 450//450
f 453//453 451//451 450//450
f 453//453 450//450 452//452
f 455//455 453//453 452//452
f 455//455 452//452 454//454
f 457//457 455//455 454//454
f 457//457 454//454 456//456
f 459//459 457//457 456//456
f 459//459 456//456 458//458
f 460//460 461//461 459//459
f 460//460 459//459 458//458
f 443//443 445//445 462//462
f 464//464 463//463 465//465
f 466//466 464//464 465//465
f 468//468 466//466 465//465
f 468//468 465//465 467//467
f 470//470 468//468 467//467
f 470//470 467//467 469//469
f 472//472 470//470 469//469
f 472//472 469//469 471//471
f 474//474 472//472 471//471
f 474//474 471//471 473//473
f 476//476 474//474 473//473
f 476//476 473//473 475//475
f 478//478 476//476 475//475
f 478//478 475//475 477//477
f 479//479 480//480 478//478
f 479//479 478//478 477//477
f 464//464 466//466 481//481
f 483//483 482//482 484//484
f 483//483 484//484 485//485
f 487//487 486//486 488//488
f 487//487 488//488 489//489
f 491//491 490//490 492//492
f 491//491 492//492 493//493
f 495//495 494//494 496//496
f 495//495 496//496 497//497
f 499//499 498//498 500//500
f 499//499 500//500 501//501
f 503//503 502//502 504//504
f 503//503 504//504 505//505
f 507//507 508//508 506//506
f 509//509 508//508 510//510
f 507//507 510//510 508//508
f 512//512 511//511 513//513
f 512//512 513//513 514//514
f 516//516 515//515 517//517
f 516//516 517//517 518//518
f 520//520 521//521 519//519
f 522//522 521//521 523//523
f 520//520 523//523 521//521
f 525//525 527//527 526//526
f 525//525 526//526 524//524
f 528//528 527//527 525//525
f 528//528 525//525 529//529
f 530//530 528//528 529//529
f 530//530 529//529 532//532
f 531//531 530//530 532//532
f 531//531 532//532 533//533
f 534//534 535//535 531//531
f 534//534 531//531 533//533
f 537//537 536//536 538//538
f 537//537 538//538 539//539
f 541//541 540//540 542//542
f 541//541 542//542 543//543
f 545//545 546//546 544//544
f 545//545 547//547 546//546
f 548//548 546//546 547//547
f 550//550 552//552 551//551
f 550//550 551//551 549//549
f 553//553 552//552 550//550
f 553//553 550//550 554//554
f 555//555 553//553 554//554
f 555//555 554//554 556//556
f 557//557 555//555 556//556
f 557//557 556//556 558//558
f 559//559 557//557 558//558
f 559//559 558//558 560//560
f 561//561 559//559 560//560
f 561//561 560//560 562//562
f 563//563 561//561 562//562
f 563//563 562//562 564//564
f 566//566 565//565 563//563
f 566//566 563//563 564//564
f 570//570 568//568 567//567
f 570//570 567//567 569//569
f 571//571 573//573 574//574
f 571//571 574//574 572//572
f 576//576 575//575 577//577
f 582//582 577//577 578//578
f 577//577 579//579 578//578
f 577//577 580//580 579//579
f 577//577 581//581 580//580
f 576//576 577//577 583//583
f 582//582 583//583 577//577
f 583//583 584//584 576//576
f 576//576 584//584 585//585
f 587//587 585//585 586//586
f 576//576 585//585 587//587
f 587//587 591//591 588//588
f 587//587 588//588 589//589
f 587//587 589//589 590//590
f 591//591 587//587 586//586
f 591//591 592//592 588//588
f 588//588 592//592 593//593
f 594//594 588//588 593//593
f 594//594 593//593 595//595
f 595//595 596//596 597//597
f 595//595 599//599 596//596
f 595//595 597//597 598//598
f 594//594 595//595 598//598
f 599//599 600//600 596//596
f 600//600 601//601 596//596
f 602//602 596//596 601//601
f 601//601 604//604 602//602
f 604//604 601//601 603//603
f 604//604 603//603 605//605
f 605//605 606//606 607//607
f 606//606 605//605 608//608
f 608//608 605//605 603//603
f 606//606 608//608 609//609
f 610//610 606//606 609//609
f 610//610 611//611 606//606
f 612//612 613//613 611//611
f 611//611 614//614 612//612
f 606//606 611//611 613//613
f 578//578 614//614 582//582
f 614//614 578//578 615//615
f 614//614 616//616 612//612
f 615//615 616//616 614//614
f 612//612 616//616 617//617
f 617//617 616//616 618//618
f 618//618 619//619 617//617
f 620//620 619//619 618//618
f 623//623 620//620 621//621
f 621//621 620//620 622//622
f 624//624 620//620 623//623
f 626//626 620//620 624//624
f 620//620 625//625 619//619
f 625//625 620//620 626//626
f 627//627 625//625 626//626
f 625//625 627//627 628//628
f 629//629 625//625 628//628
f 625//625 629//629 630//630
f 606//606 631//631 607//607
f 602//602 632//632 596//596
f 596//596 632//632 633//633
f 594//594 634//634 588//588
f 634//634 594//594 635//635
f 638//638 635//635 636//636
f 636//636 635//635 637//637
f 639//639 635//635 638//638
f 635//635 639//639 634//634
f 640//640 634//634 639//639
f 640//640 641//641 634//634
f 641//641 640//640 642//642
f 642//642 643//643 641//641
f 636//636 637//637 644//644
f 645//645 590//590 648//648
f 590//590 645//645 646//646
f 646//646 647//647 590//590
f 589//589 648//648 590//590
f 649//649 648//648 589//589
f 650//650 649//649 589//589
f 650//650 589//589 651//651
f 581//581 652//652 580//580
