# arm_36 exported from /models/landings/arm_36.glb
# units: meters
v -0.018009 0.001000 0.028665
v -0.018013 0.001000 0.026749
v -0.018009 -0.001000 0.028665
v -0.018013 -0.001000 0.026749
v -0.018016 -0.001000 0.024832
v -0.018019 -0.001000 0.022916
v -0.018009 -0.000000 0.028665
v -0.018019 -0.000000 0.022916
v -0.018019 0.001000 0.022916
v -0.010641 0.001000 0.010338
v -0.004371 0.001000 0.010338
v -0.010641 -0.001000 0.010338
v -0.004371 -0.001000 0.010338
v -0.010641 -0.000000 0.010338
v -0.004371 0.001000 0.010338
v -0.004371 0.001000 0.007368
v -0.004371 -0.001000 0.010338
v -0.004371 -0.001000 0.007368
v -0.004371 -0.000000 0.007368
v -0.004371 0.001000 0.007368
v -0.002371 0.001000 0.007368
v -0.004371 -0.001000 0.007368
v -0.002371 -0.001000 0.007368
v -0.004371 -0.000000 0.007368
v -0.002371 -0.000000 0.007368
v -0.002371 0.001000 0.007368
v -0.002371 0.001000 0.010338
v -0.002371 -0.001000 0.007368
v -0.002371 -0.001000 0.010338
v -0.002371 -0.000000 0.007368
v -0.002371 0.001000 0.010338
v 0.007096 0.001000 0.010338
v -0.002371 -0.001000 0.010338
v 0.007096 -0.001000 0.010338
v 0.007096 0.001000 0.010338
v 0.007096 0.001000 0.007368
v 0.007096 -0.001000 0.010338
v 0.007096 -0.001000 0.007368
v 0.007096 -0.000000 0.007368
v 0.007096 0.001000 0.007368
v 0.009096 0.001000 0.007368
v 0.007096 -0.001000 0.007368
v 0.009096 -0.001000 0.007368
v 0.007096 -0.000000 0.007368
v 0.009096 -0.000000 0.007368
v 0.009096 0.001000 0.007368
v 0.009096 0.001000 0.010338
v 0.009096 -0.001000 0.007368
v 0.009096 -0.001000 0.010338
v 0.009096 -0.000000 0.007368
v 0.011956 0.001000 0.001963
v 0.005642 0.001000 0.001963
v -0.000671 0.001000 0.001963
v 0.011956 -0.001000 0.001963
v 0.005642 -0.001000 0.001963
v -0.000671 -0.001000 0.001963
v 0.011956 -0.000000 0.001963
v 0.007416 0.001000 -0.022852
v 0.000822 0.001000 -0.014795
v -0.005773 0.001000 -0.006739
v -0.012497 0.001000 0.001475
v -0.018963 0.001000 0.009374
v -0.025558 0.001000 0.017431
v 0.007416 -0.001000 -0.022852
v 0.000822 -0.001000 -0.014795
v -0.005773 -0.001000 -0.006739
v -0.012497 -0.001000 0.001475
v -0.018963 -0.001000 0.009374
v -0.025558 -0.001000 0.017431
v 0.007416 0.000000 -0.022852
v 0.004119 0.000000 -0.018824
v 0.005768 0.000000 -0.020838
v 0.004119 0.000500 -0.018824
v 0.005768 0.000500 -0.020838
v 0.004119 -0.000500 -0.018824
v 0.005768 -0.000500 -0.020838
v -0.025558 0.001000 0.017431
v -0.025558 0.001000 0.025051
v -0.025558 0.001000 0.032672
v -0.025558 -0.001000 0.017431
v -0.025558 -0.001000 0.025051
v -0.025558 -0.001000 0.032672
v -0.025558 0.001000 0.032672
v -0.022009 0.001000 0.032672
v -0.025558 -0.001000 0.032672
v -0.022009 -0.001000 0.032672
v -0.022009 -0.000000 0.032672
v -0.022009 0.001000 0.032672
v -0.020488 0.001000 0.032371
v -0.019149 0.001000 0.031468
v -0.018281 0.001000 0.030121
v -0.018009 0.001000 0.028665
v -0.022009 -0.001000 0.032672
v -0.020488 -0.001000 0.032371
v -0.019149 -0.001000 0.031468
v -0.018281 -0.001000 0.030121
v -0.018009 -0.001000 0.028665
v -0.022009 -0.000000 0.032672
v -0.018009 -0.000000 0.028665
v -0.018024 0.001000 0.019792
v -0.017927 0.001000 0.019173
v -0.017645 0.001000 0.018617
v -0.018024 -0.001000 0.019792
v -0.017927 -0.001000 0.019173
v -0.017645 -0.001000 0.018617
v -0.018024 -0.000000 0.019792
v -0.017645 -0.000000 0.018617
v -0.017645 0.001000 0.018617
v -0.014954 0.001000 0.014892
v -0.012262 0.001000 0.011167
v -0.017645 -0.001000 0.018617
v -0.014954 -0.001000 0.014892
v -0.012262 -0.001000 0.011167
v -0.017645 -0.000000 0.018617
v -0.012262 -0.000000 0.011167
v -0.012262 0.001000 0.011167
v -0.011547 0.001000 0.010555
v -0.010641 0.001000 0.010338
v -0.012262 -0.001000 0.011167
v -0.011547 -0.001000 0.010555
v -0.010641 -0.001000 0.010338
v -0.012262 -0.000000 0.011167
v -0.010641 -0.000000 0.010338
v 0.009096 0.001000 0.010338
v 0.011956 0.001000 0.010338
v 0.009096 -0.001000 0.010338
v 0.011956 -0.001000 0.010338
v 0.011956 -0.000000 0.010338
v 0.011956 0.001000 0.010338
v 0.012715 0.001000 0.010188
v 0.013384 0.001000 0.009737
v 0.013819 0.001000 0.009065
v 0.013956 0.001000 0.008338
v 0.011956 -0.001000 0.010338
v 0.012715 -0.001000 0.010188
v 0.013384 -0.001000 0.009737
v 0.013819 -0.001000 0.009065
v 0.013956 -0.001000 0.008338
v 0.011956 -0.000000 0.010338
v 0.013956 -0.000000 0.008338
v 0.013956 0.001000 0.008338
v 0.013956 0.001000 0.003963
v 0.013956 -0.001000 0.008338
v 0.013956 -0.001000 0.003963
v 0.013956 -0.000000 0.008338
v 0.013956 -0.000000 0.003963
v 0.013956 0.001000 0.003963
v 0.013806 0.001000 0.003203
v 0.013355 0.001000 0.002534
v 0.012682 0.001000 0.002100
v 0.011956 0.001000 0.001963
v 0.013956 -0.001000 0.003963
v 0.013806 -0.001000 0.003203
v 0.013355 -0.001000 0.002534
v 0.012682 -0.001000 0.002100
v 0.011956 -0.001000 0.001963
v 0.013956 -0.000000 0.003963
v 0.011956 -0.000000 0.001963
v -0.000671 0.001000 0.001963
v 0.004515 0.001000 -0.005328
v 0.009702 0.001000 -0.012619
v -0.000671 -0.001000 0.001963
v 0.004515 -0.001000 -0.005328
v 0.009702 -0.001000 -0.012619
v 0.009702 0.000000 -0.012619
v 0.007109 0.000000 -0.008974
v 0.008406 0.000000 -0.010797
v 0.007109 -0.000500 -0.008974
v 0.008406 -0.000500 -0.010797
v 0.007109 0.000500 -0.008974
v 0.008406 0.000500 -0.010797
v 0.009702 0.001000 -0.012619
v 0.010411 0.001000 -0.013235
v 0.011313 0.001000 -0.013460
v 0.009702 -0.001000 -0.012619
v 0.010411 -0.001000 -0.013235
v 0.011313 -0.001000 -0.013460
v 0.009702 0.000000 -0.012619
v 0.011313 0.000000 -0.013460
v 0.011313 0.001000 -0.013460
v 0.017655 0.001000 -0.013520
v 0.023997 0.001000 -0.013580
v 0.011313 -0.001000 -0.013460
v 0.017655 -0.001000 -0.013520
v 0.023997 -0.001000 -0.013580
v 0.011313 0.000000 -0.013460
v 0.023997 0.000000 -0.013580
v 0.023997 0.001000 -0.013580
v 0.024594 0.001000 -0.013677
v 0.025134 0.001000 -0.013948
v 0.023997 -0.001000 -0.013580
v 0.024594 -0.001000 -0.013677
v 0.025134 -0.001000 -0.013948
v 0.023997 0.000000 -0.013580
v 0.025134 0.000000 -0.013948
v 0.025134 0.001000 -0.013948
v 0.028695 0.001000 -0.016471
v 0.032257 0.001000 -0.018994
v 0.025134 -0.001000 -0.013948
v 0.028695 -0.001000 -0.016471
v 0.032257 -0.001000 -0.018994
v 0.025134 0.000000 -0.013948
v 0.032257 0.000000 -0.018994
v 0.032257 0.001000 -0.018994
v 0.032885 0.001000 -0.019722
v 0.033100 0.001000 -0.020651
v 0.032257 -0.001000 -0.018994
v 0.032885 -0.001000 -0.019722
v 0.033100 -0.001000 -0.020651
v 0.032257 0.000000 -0.018994
v 0.033100 0.000000 -0.020651
v 0.033100 0.001000 -0.020651
v 0.033089 0.001000 -0.021573
v 0.033100 -0.001000 -0.020651
v 0.033089 -0.001000 -0.021573
v 0.033100 0.000000 -0.020651
v 0.033089 0.000000 -0.021573
v 0.033089 0.001000 -0.021573
v 0.032932 0.001000 -0.022325
v 0.032481 0.001000 -0.022984
v 0.031814 0.001000 -0.023413
v 0.031092 0.001000 -0.023548
v 0.033089 -0.001000 -0.021573
v 0.032932 -0.001000 -0.022325
v 0.032481 -0.001000 -0.022984
v 0.031814 -0.001000 -0.023413
v 0.031092 -0.001000 -0.023548
v 0.033089 0.000000 -0.021573
v 0.031092 0.000000 -0.023548
v 0.031092 0.001000 -0.023548
v 0.020030 0.001000 -0.023567
v 0.008967 0.001000 -0.023585
v 0.031092 -0.001000 -0.023548
v 0.020030 -0.001000 -0.023567
v 0.008967 -0.001000 -0.023585
v 0.031092 0.000000 -0.023548
v 0.025561 0.000000 -0.023558
v 0.028327 0.000000 -0.023553
v 0.025561 0.000500 -0.023558
v 0.028327 0.000500 -0.023553
v 0.025561 -0.000500 -0.023558
v 0.028327 -0.000500 -0.023553
v 0.008967 0.000000 -0.023585
v 0.014499 0.000000 -0.023576
v 0.011733 0.000000 -0.023580
v 0.014499 -0.000500 -0.023576
v 0.011733 -0.000500 -0.023580
v 0.014499 0.000500 -0.023576
v 0.011733 0.000500 -0.023580
v 0.008967 0.001000 -0.023585
v 0.008106 0.001000 -0.023392
v 0.007416 0.001000 -0.022852
v 0.008967 -0.001000 -0.023585
v 0.008106 -0.001000 -0.023392
v 0.007416 -0.001000 -0.022852
v 0.008967 0.000000 -0.023585
v 0.007416 0.000000 -0.022852
v -0.018024 -0.001000 0.019792
v -0.017927 -0.001000 0.019173
v -0.025558 -0.001000 0.032672
v -0.022009 -0.001000 0.032672
v -0.025558 -0.001000 0.017431
v -0.025558 -0.001000 0.025051
v -0.000671 -0.001000 0.001963
v 0.004515 -0.001000 -0.005328
v 0.009702 -0.001000 -0.012619
v 0.009096 -0.001000 0.010338
v 0.011956 -0.001000 0.010338
v 0.009096 -0.001000 0.007368
v 0.007096 -0.001000 0.007368
v 0.007096 -0.001000 0.010338
v -0.002371 -0.001000 0.010338
v -0.002371 -0.001000 0.007368
v -0.004371 -0.001000 0.007368
v -0.004371 -0.001000 0.010338
v -0.020488 -0.001000 0.032371
v -0.019149 -0.001000 0.031468
v -0.018281 -0.001000 0.030121
v -0.018009 -0.001000 0.028665
v -0.018013 -0.001000 0.026749
v -0.018016 -0.001000 0.024832
v -0.018019 -0.001000 0.022916
v -0.017645 -0.001000 0.018617
v -0.014954 -0.001000 0.014892
v -0.012262 -0.001000 0.011167
v -0.011547 -0.001000 0.010555
v -0.010641 -0.001000 0.010338
v 0.012715 -0.001000 0.010188
v 0.013384 -0.001000 0.009737
v 0.013819 -0.001000 0.009065
v 0.013956 -0.001000 0.008338
v 0.013956 -0.001000 0.003963
v 0.013806 -0.001000 0.003203
v 0.013355 -0.001000 0.002534
v 0.012682 -0.001000 0.002100
v 0.011956 -0.001000 0.001963
v 0.005642 -0.001000 0.001963
v 0.010411 -0.001000 -0.013235
v 0.011313 -0.001000 -0.013460
v 0.017655 -0.001000 -0.013520
v 0.023997 -0.001000 -0.013580
v 0.024594 -0.001000 -0.013677
v 0.025134 -0.001000 -0.013948
v 0.028695 -0.001000 -0.016471
v 0.032257 -0.001000 -0.018994
v 0.032885 -0.001000 -0.019722
v 0.033100 -0.001000 -0.020651
v 0.033089 -0.001000 -0.021573
v 0.032932 -0.001000 -0.022325
v 0.032481 -0.001000 -0.022984
v 0.031814 -0.001000 -0.023413
v 0.031092 -0.001000 -0.023548
v 0.020030 -0.001000 -0.023567
v 0.008967 -0.001000 -0.023585
v 0.008106 -0.001000 -0.023392
v 0.007416 -0.001000 -0.022852
v 0.000822 -0.001000 -0.014795
v -0.005773 -0.001000 -0.006739
v -0.012497 -0.001000 0.001475
v -0.018963 -0.001000 0.009374
v 0.029126 -0.001000 -0.020077
v 0.027672 -0.001000 -0.019090
v 0.026218 -0.001000 -0.018102
v 0.024763 -0.001000 -0.017115
v 0.023309 -0.001000 -0.016127
v 0.023113 -0.001000 -0.016035
v 0.022883 -0.001000 -0.016002
v 0.018699 -0.001000 -0.016002
v 0.014516 -0.001000 -0.016002
v 0.014127 -0.001000 -0.016034
v 0.013931 -0.001000 -0.016076
v 0.013741 -0.001000 -0.016136
v 0.013564 -0.001000 -0.016213
v 0.013405 -0.001000 -0.016303
v 0.013244 -0.001000 -0.016424
v 0.013058 -0.001000 -0.016638
v 0.012980 -0.001000 -0.016800
v 0.012958 -0.001000 -0.016894
v 0.012951 -0.001000 -0.016983
v 0.012951 -0.001000 -0.018477
v 0.012951 -0.001000 -0.019970
v 0.012958 -0.001000 -0.020060
v 0.012980 -0.001000 -0.020154
v 0.013058 -0.001000 -0.020316
v 0.013244 -0.001000 -0.020530
v 0.013405 -0.001000 -0.020651
v 0.013741 -0.001000 -0.020817
v 0.013931 -0.001000 -0.020878
v 0.014127 -0.001000 -0.020920
v 0.014516 -0.001000 -0.020952
v 0.018062 -0.001000 -0.020952
v 0.021608 -0.001000 -0.020952
v 0.025154 -0.001000 -0.020952
v 0.028700 -0.001000 -0.020952
v 0.028885 -0.001000 -0.020931
v 0.029060 -0.001000 -0.020866
v 0.029199 -0.001000 -0.020769
v 0.029290 -0.001000 -0.020657
v 0.029347 -0.001000 -0.020497
v 0.029342 -0.001000 -0.020380
v 0.029315 -0.001000 -0.020295
v 0.029240 -0.001000 -0.020178
v -0.004941 -0.001000 -0.001937
v -0.002269 -0.001000 -0.005541
v 0.000403 -0.001000 -0.009146
v 0.003075 -0.001000 -0.012750
v 0.005747 -0.001000 -0.016354
v 0.006117 -0.001000 -0.016696
v 0.006628 -0.001000 -0.016883
v 0.007172 -0.001000 -0.016852
v 0.007626 -0.001000 -0.016634
v 0.007967 -0.001000 -0.016263
v 0.008155 -0.001000 -0.015752
v 0.008124 -0.001000 -0.015208
v 0.007905 -0.001000 -0.014754
v 0.005233 -0.001000 -0.011150
v 0.002561 -0.001000 -0.007545
v -0.000110 -0.001000 -0.003941
v -0.002782 -0.001000 -0.000336
v -0.003153 -0.001000 0.000005
v -0.003664 -0.001000 0.000192
v -0.004208 -0.001000 0.000162
v -0.004662 -0.001000 -0.000057
v -0.005003 -0.001000 -0.000427
v -0.005191 -0.001000 -0.000939
v -0.005160 -0.001000 -0.001483
v -0.008658 -0.001000 0.003250
v -0.007832 -0.001000 0.003407
v -0.007072 -0.001000 0.003907
v -0.006573 -0.001000 0.004667
v -0.006416 -0.001000 0.005492
v -0.006573 -0.001000 0.006317
v -0.007072 -0.001000 0.007078
v -0.007832 -0.001000 0.007577
v -0.008658 -0.001000 0.007734
v -0.009483 -0.001000 0.007577
v -0.010243 -0.001000 0.007078
v -0.010742 -0.001000 0.006317
v -0.010900 -0.001000 0.005492
v -0.010742 -0.001000 0.004667
v -0.010243 -0.001000 0.003907
v -0.009483 -0.001000 0.003407
v -0.021792 -0.001000 0.020916
v -0.018022 -0.001000 0.020916
v -0.021792 -0.001000 0.022916
v -0.018024 0.001000 0.019792
v -0.018022 0.001000 0.020916
v -0.004371 0.001000 0.010338
v -0.010641 0.001000 0.010338
v -0.004371 0.001000 0.007368
v -0.002371 0.001000 0.007368
v -0.002371 0.001000 0.010338
v 0.007096 0.001000 0.010338
v 0.007096 0.001000 0.007368
v 0.009096 0.001000 0.007368
v 0.009096 0.001000 0.010338
v -0.000671 0.001000 0.001963
v 0.005642 0.001000 0.001963
v 0.011956 0.001000 0.001963
v -0.025558 0.001000 0.017431
v -0.018963 0.001000 0.009374
v -0.012497 0.001000 0.001475
v -0.005773 0.001000 -0.006739
v 0.000822 0.001000 -0.014795
v 0.007416 0.001000 -0.022852
v -0.025558 0.001000 0.032672
v -0.025558 0.001000 0.025051
v -0.022009 0.001000 0.032672
v -0.018009 0.001000 0.028665
v -0.018281 0.001000 0.030121
v -0.019149 0.001000 0.031468
v -0.020488 0.001000 0.032371
v -0.017645 0.001000 0.018617
v -0.017927 0.001000 0.019173
v -0.012262 0.001000 0.011167
v -0.014954 0.001000 0.014892
v -0.011547 0.001000 0.010555
v 0.011956 0.001000 0.010338
v 0.013956 0.001000 0.008338
v 0.013819 0.001000 0.009065
v 0.013384 0.001000 0.009737
v 0.012715 0.001000 0.010188
v 0.013956 0.001000 0.003963
v 0.012682 0.001000 0.002100
v 0.013355 0.001000 0.002534
v 0.013806 0.001000 0.003203
v 0.009702 0.001000 -0.012619
v 0.004515 0.001000 -0.005328
v 0.011313 0.001000 -0.013460
v 0.010411 0.001000 -0.013235
v 0.023997 0.001000 -0.013580
v 0.017655 0.001000 -0.013520
v 0.025134 0.001000 -0.013948
v 0.024594 0.001000 -0.013677
v 0.032257 0.001000 -0.018994
v 0.028695 0.001000 -0.016471
v 0.033100 0.001000 -0.020651
v 0.032885 0.001000 -0.019722
v 0.033089 0.001000 -0.021573
v 0.031092 0.001000 -0.023548
v 0.031814 0.001000 -0.023413
v 0.032481 0.001000 -0.022984
v 0.032932 0.001000 -0.022325
v 0.008967 0.001000 -0.023585
v 0.020030 0.001000 -0.023567
v 0.008106 0.001000 -0.023392
v 0.023309 0.001000 -0.016127
v 0.024763 0.001000 -0.017115
v 0.026218 0.001000 -0.018102
v 0.027672 0.001000 -0.019090
v 0.029126 0.001000 -0.020077
v 0.022883 0.001000 -0.016002
v 0.023113 0.001000 -0.016035
v 0.014516 0.001000 -0.016002
v 0.018699 0.001000 -0.016002
v 0.012951 0.001000 -0.016983
v 0.012958 0.001000 -0.016894
v 0.012980 0.001000 -0.016800
v 0.013058 0.001000 -0.016638
v 0.013244 0.001000 -0.016424
v 0.013405 0.001000 -0.016303
v 0.013564 0.001000 -0.016213
v 0.013741 0.001000 -0.016136
v 0.013931 0.001000 -0.016076
v 0.014127 0.001000 -0.016034
v 0.012951 0.001000 -0.019970
v 0.012951 0.001000 -0.018477
v 0.014516 0.001000 -0.020952
v 0.014127 0.001000 -0.020920
v 0.013931 0.001000 -0.020878
v 0.013741 0.001000 -0.020817
v 0.013405 0.001000 -0.020651
v 0.013244 0.001000 -0.020530
v 0.013058 0.001000 -0.020316
v 0.012980 0.001000 -0.020154
v 0.012958 0.001000 -0.020060
v 0.028700 0.001000 -0.020952
v 0.025154 0.001000 -0.020952
v 0.021608 0.001000 -0.020952
v 0.018062 0.001000 -0.020952
v 0.029240 0.001000 -0.020178
v 0.029315 0.001000 -0.020295
v 0.029342 0.001000 -0.020380
v 0.029347 0.001000 -0.020497
v 0.029290 0.001000 -0.020657
v 0.029199 0.001000 -0.020769
v 0.029060 0.001000 -0.020866
v 0.028885 0.001000 -0.020931
v 0.005747 0.001000 -0.016354
v 0.003075 0.001000 -0.012750
v 0.000403 0.001000 -0.009146
v -0.002269 0.001000 -0.005541
v -0.004941 0.001000 -0.001937
v 0.007905 0.001000 -0.014754
v 0.008124 0.001000 -0.015208
v 0.008155 0.001000 -0.015752
v 0.007967 0.001000 -0.016263
v 0.007626 0.001000 -0.016634
v 0.007172 0.001000 -0.016852
v 0.006628 0.001000 -0.016883
v 0.006117 0.001000 -0.016696
v -0.002782 0.001000 -0.000336
v -0.000110 0.001000 -0.003941
v 0.002561 0.001000 -0.007545
v 0.005233 0.001000 -0.011150
v -0.005160 0.001000 -0.001483
v -0.005191 0.001000 -0.000939
v -0.005003 0.001000 -0.000427
v -0.004662 0.001000 -0.000057
v -0.004208 0.001000 0.000162
v -0.003664 0.001000 0.000192
v -0.003153 0.001000 0.000005
v -0.008658 0.001000 0.003250
v -0.009483 0.001000 0.003407
v -0.010243 0.001000 0.003907
v -0.010742 0.001000 0.004667
v -0.010900 0.001000 0.005492
v -0.010742 0.001000 0.006317
v -0.010243 0.001000 0.007078
v -0.009483 0.001000 0.007577
v -0.008658 0.001000 0.007734
v -0.007832 0.001000 0.007577
v -0.007072 0.001000 0.007078
v -0.006573 0.001000 0.006317
v -0.006416 0.001000 0.005492
v -0.006573 0.001000 0.004667
v -0.007072 0.001000 0.003907
v -0.007832 0.001000 0.003407
v -0.021792 0.001000 0.020916
v -0.021792 0.001000 0.022916
v -0.018019 0.001000 0.022916
v -0.018013 0.001000 0.026749
v 0.029126 0.001000 -0.020077
v 0.023309 -0.001000 -0.016127
v 0.029126 -0.001000 -0.020077
v 0.027672 -0.001000 -0.019090
v 0.026218 -0.001000 -0.018102
v 0.024763 -0.001000 -0.017115
v 0.023309 0.001000 -0.016127
v 0.024763 0.001000 -0.017115
v 0.026218 0.001000 -0.018102
v 0.027672 0.001000 -0.019090
v 0.023309 -0.000333 -0.016127
v 0.023309 0.000333 -0.016127
v 0.029126 0.000500 -0.020077
v 0.029126 0.000000 -0.020077
v 0.029126 -0.000500 -0.020077
v 0.023309 0.001000 -0.016127
v 0.023105 0.000000 -0.016033
v 0.022883 -0.001000 -0.016002
v 0.023309 -0.001000 -0.016127
v 0.023113 -0.001000 -0.016035
v 0.023105 -0.000500 -0.016033
v 0.023214 0.000000 -0.016074
v 0.023214 -0.000500 -0.016074
v 0.022995 0.000000 -0.016010
v 0.022995 -0.000500 -0.016010
v 0.022883 0.001000 -0.016002
v 0.023113 0.001000 -0.016035
v 0.023105 0.000500 -0.016033
v 0.022995 0.000500 -0.016010
v 0.023214 0.000500 -0.016074
v 0.023309 0.000333 -0.016127
v 0.023309 -0.000333 -0.016127
v 0.022883 -0.000333 -0.016002
v 0.022883 0.000333 -0.016002
v 0.022883 0.001000 -0.016002
v 0.014516 -0.001000 -0.016002
v 0.022883 -0.001000 -0.016002
v 0.018699 -0.001000 -0.016002
v 0.014516 0.001000 -0.016002
v 0.018699 0.001000 -0.016002
v 0.022883 0.000333 -0.016002
v 0.022883 -0.000333 -0.016002
v 0.018699 0.000000 -0.016002
v 0.020791 0.000000 -0.016002
v 0.018699 0.000500 -0.016002
v 0.020791 0.000500 -0.016002
v 0.018699 -0.000500 -0.016002
v 0.020791 -0.000500 -0.016002
v 0.014516 -0.000333 -0.016002
v 0.014516 0.000333 -0.016002
v 0.016608 0.000000 -0.016002
v 0.016608 -0.000500 -0.016002
v 0.016608 0.000500 -0.016002
v 0.014516 0.001000 -0.016002
v 0.014314 0.000000 -0.016011
v 0.014115 0.000000 -0.016036
v 0.013919 0.000000 -0.016079
v 0.013730 0.000000 -0.016140
v 0.013541 0.000000 -0.016225
v 0.013367 0.000000 -0.016328
v 0.013210 0.000000 -0.016455
v 0.013079 0.000000 -0.016607
v 0.012985 0.000000 -0.016786
v 0.012951 -0.001000 -0.016983
v 0.014516 -0.001000 -0.016002
v 0.014127 -0.001000 -0.016034
v 0.013931 -0.001000 -0.016076
v 0.013741 -0.001000 -0.016136
v 0.013564 -0.001000 -0.016213
v 0.013405 -0.001000 -0.016303
v 0.013244 -0.001000 -0.016424
v 0.013058 -0.001000 -0.016638
v 0.012980 -0.001000 -0.016800
v 0.012958 -0.001000 -0.016894
v 0.014115 -0.000500 -0.016036
v 0.014214 0.000000 -0.016021
v 0.014314 -0.000500 -0.016011
v 0.014214 -0.000500 -0.016021
v 0.013919 -0.000500 -0.016079
v 0.014017 0.000000 -0.016056
v 0.014017 -0.000500 -0.016056
v 0.013730 -0.000500 -0.016140
v 0.013824 0.000000 -0.016108
v 0.013824 -0.000500 -0.016108
v 0.013541 -0.000500 -0.016225
v 0.013634 0.000000 -0.016180
v 0.013634 -0.000500 -0.016180
v 0.013367 -0.000500 -0.016328
v 0.013452 0.000000 -0.016273
v 0.013452 -0.000500 -0.016273
v 0.013210 -0.000500 -0.016455
v 0.013286 0.000000 -0.016388
v 0.013286 -0.000500 -0.016388
v 0.012985 -0.000500 -0.016786
v 0.013026 0.000000 -0.016693
v 0.013079 -0.000500 -0.016607
v 0.013026 -0.000500 -0.016693
v 0.012959 0.000000 -0.016883
v 0.012959 -0.000500 -0.016883
v 0.012959 -0.000750 -0.016883
v 0.012970 -0.000500 -0.016834
v 0.012985 -0.000750 -0.016786
v 0.012970 -0.000750 -0.016834
v 0.012953 -0.000500 -0.016933
v 0.012953 -0.000750 -0.016933
v 0.012951 0.001000 -0.016983
v 0.012958 0.001000 -0.016894
v 0.012980 0.001000 -0.016800
v 0.013058 0.001000 -0.016638
v 0.013244 0.001000 -0.016424
v 0.013405 0.001000 -0.016303
v 0.013564 0.001000 -0.016213
v 0.013741 0.001000 -0.016136
v 0.013931 0.001000 -0.016076
v 0.014127 0.001000 -0.016034
v 0.012985 0.000500 -0.016786
v 0.012959 0.000500 -0.016883
v 0.012953 0.000500 -0.016933
v 0.012959 0.000750 -0.016883
v 0.012953 0.000750 -0.016933
v 0.012970 0.000500 -0.016834
v 0.012985 0.000750 -0.016786
v 0.012970 0.000750 -0.016834
v 0.013079 0.000500 -0.016607
v 0.013026 0.000500 -0.016693
v 0.013210 0.000500 -0.016455
v 0.013367 0.000500 -0.016328
v 0.013286 0.000500 -0.016388
v 0.013541 0.000500 -0.016225
v 0.013452 0.000500 -0.016273
v 0.013730 0.000500 -0.016140
v 0.013634 0.000500 -0.016180
v 0.013919 0.000500 -0.016079
v 0.013824 0.000500 -0.016108
v 0.014115 0.000500 -0.016036
v 0.014017 0.000500 -0.016056
v 0.014314 0.000500 -0.016011
v 0.014214 0.000500 -0.016021
v 0.014516 0.000333 -0.016002
v 0.014516 -0.000333 -0.016002
v 0.012951 -0.000333 -0.016983
v 0.012951 0.000333 -0.016983
v 0.012951 0.001000 -0.016983
v 0.012951 0.001000 -0.019970
v 0.012951 -0.001000 -0.016983
v 0.012951 -0.001000 -0.018477
v 0.012951 0.001000 -0.018477
v 0.012951 0.000333 -0.016983
v 0.012951 -0.000333 -0.016983
v 0.012951 -0.001000 -0.019970
v 0.012951 -0.000333 -0.019970
v 0.012951 0.000333 -0.019970
v 0.014516 0.001000 -0.020952
v 0.012993 0.000000 -0.020189
v 0.013109 0.000000 -0.020388
v 0.013260 0.000000 -0.020544
v 0.013443 0.000000 -0.020675
v 0.013642 0.000000 -0.020777
v 0.013852 0.000000 -0.020855
v 0.014070 0.000000 -0.020909
v 0.014292 0.000000 -0.020941
v 0.012951 -0.001000 -0.019970
v 0.012958 -0.001000 -0.020060
v 0.012980 -0.001000 -0.020154
v 0.013058 -0.001000 -0.020316
v 0.013244 -0.001000 -0.020530
v 0.013405 -0.001000 -0.020651
v 0.013741 -0.001000 -0.020817
v 0.013931 -0.001000 -0.020878
v 0.014127 -0.001000 -0.020920
v 0.012993 -0.000500 -0.020189
v 0.012962 0.000000 -0.020082
v 0.012962 -0.000500 -0.020082
v 0.012962 -0.000750 -0.020082
v 0.012953 -0.000500 -0.020026
v 0.012953 -0.000750 -0.020026
v 0.012993 -0.000750 -0.020189
v 0.012975 -0.000500 -0.020136
v 0.012975 -0.000750 -0.020136
v 0.013109 -0.000500 -0.020388
v 0.013044 0.000000 -0.020293
v 0.013044 -0.000500 -0.020293
v 0.013260 -0.000500 -0.020544
v 0.013181 0.000000 -0.020470
v 0.013181 -0.000500 -0.020470
v 0.013443 -0.000500 -0.020675
v 0.013349 0.000000 -0.020613
v 0.013349 -0.000500 -0.020613
v 0.013852 -0.000500 -0.020855
v 0.013746 0.000000 -0.020819
v 0.013642 -0.000500 -0.020777
v 0.013746 -0.000500 -0.020819
v 0.014070 -0.000500 -0.020909
v 0.013960 0.000000 -0.020885
v 0.013960 -0.000500 -0.020885
v 0.014292 -0.000500 -0.020941
v 0.014180 0.000000 -0.020928
v 0.014180 -0.000500 -0.020928
v 0.014127 0.001000 -0.020920
v 0.013931 0.001000 -0.020878
v 0.013741 0.001000 -0.020817
v 0.013405 0.001000 -0.020651
v 0.013244 0.001000 -0.020530
v 0.013058 0.001000 -0.020316
v 0.012980 0.001000 -0.020154
v 0.012958 0.001000 -0.020060
v 0.014292 0.000500 -0.020941
v 0.014070 0.000500 -0.020909
v 0.014180 0.000500 -0.020928
v 0.013852 0.000500 -0.020855
v 0.013960 0.000500 -0.020885
v 0.013642 0.000500 -0.020777
v 0.013746 0.000500 -0.020819
v 0.013443 0.000500 -0.020675
v 0.013260 0.000500 -0.020544
v 0.013349 0.000500 -0.020613
v 0.013109 0.000500 -0.020388
v 0.013181 0.000500 -0.020470
v 0.012993 0.000500 -0.020189
v 0.013044 0.000500 -0.020293
v 0.012962 0.000500 -0.020082
v 0.012975 0.000500 -0.020136
v 0.012993 0.000750 -0.020189
v 0.012962 0.000750 -0.020082
v 0.012975 0.000750 -0.020136
v 0.012953 0.000500 -0.020026
v 0.012953 0.000750 -0.020026
v 0.012951 0.001000 -0.019970
v 0.012951 0.000333 -0.019970
v 0.012951 -0.000333 -0.019970
v 0.014516 -0.001000 -0.020952
v 0.014516 -0.000333 -0.020952
v 0.014516 0.000333 -0.020952
v 0.028700 0.001000 -0.020952
v 0.014516 -0.001000 -0.020952
v 0.018062 -0.001000 -0.020952
v 0.021608 -0.001000 -0.020952
v 0.025154 -0.001000 -0.020952
v 0.025154 0.001000 -0.020952
v 0.021608 0.001000 -0.020952
v 0.018062 0.001000 -0.020952
v 0.014516 0.001000 -0.020952
v 0.014516 0.000333 -0.020952
v 0.014516 -0.000333 -0.020952
v 0.018062 0.000000 -0.020952
v 0.016289 0.000000 -0.020952
v 0.018062 0.000500 -0.020952
v 0.016289 0.000500 -0.020952
v 0.018062 -0.000500 -0.020952
v 0.016289 -0.000500 -0.020952
v 0.028700 -0.001000 -0.020952
v 0.028700 -0.000500 -0.020952
v 0.028700 0.000000 -0.020952
v 0.028700 0.000500 -0.020952
v 0.025154 0.000000 -0.020952
v 0.026927 0.000000 -0.020952
v 0.025154 -0.000500 -0.020952
v 0.026927 -0.000500 -0.020952
v 0.025154 0.000500 -0.020952
v 0.026927 0.000500 -0.020952
v 0.029126 0.001000 -0.020077
v 0.028850 0.000333 -0.020938
v 0.028995 0.000333 -0.020896
v 0.029128 0.000333 -0.020825
v 0.029241 0.000333 -0.020726
v 0.029320 0.000333 -0.020598
v 0.029349 0.000333 -0.020451
v 0.029319 0.000333 -0.020304
v 0.029240 0.000333 -0.020178
v 0.028850 -0.000333 -0.020938
v 0.028995 -0.000333 -0.020896
v 0.029128 -0.000333 -0.020825
v 0.029241 -0.000333 -0.020726
v 0.029320 -0.000333 -0.020598
v 0.029349 -0.000333 -0.020451
v 0.029319 -0.000333 -0.020304
v 0.029240 -0.000333 -0.020178
v 0.028700 -0.001000 -0.020952
v 0.028885 -0.001000 -0.020931
v 0.029060 -0.001000 -0.020866
v 0.029199 -0.001000 -0.020769
v 0.029290 -0.001000 -0.020657
v 0.029347 -0.001000 -0.020497
v 0.029342 -0.001000 -0.020380
v 0.029315 -0.001000 -0.020295
v 0.029240 -0.001000 -0.020178
v 0.029241 -0.000667 -0.020726
v 0.029188 -0.000333 -0.020779
v 0.029128 -0.000667 -0.020825
v 0.029188 -0.000667 -0.020779
v 0.029320 -0.000667 -0.020598
v 0.029285 -0.000333 -0.020665
v 0.029285 -0.000667 -0.020665
v 0.029349 -0.000667 -0.020451
v 0.029342 -0.000333 -0.020526
v 0.029342 -0.000667 -0.020526
v 0.029319 -0.000667 -0.020304
v 0.029342 -0.000333 -0.020376
v 0.029342 -0.000667 -0.020376
v 0.029240 -0.000667 -0.020178
v 0.029285 -0.000333 -0.020238
v 0.029285 -0.000667 -0.020238
v 0.029187 -0.000333 -0.020124
v 0.029187 -0.000667 -0.020124
v 0.029240 0.001000 -0.020178
v 0.029315 0.001000 -0.020295
v 0.029342 0.001000 -0.020380
v 0.029347 0.001000 -0.020497
v 0.029290 0.001000 -0.020657
v 0.029199 0.001000 -0.020769
v 0.029060 0.001000 -0.020866
v 0.028885 0.001000 -0.020931
v 0.029187 0.000333 -0.020124
v 0.029240 0.000667 -0.020178
v 0.029187 0.000667 -0.020124
v 0.029285 0.000333 -0.020238
v 0.029319 0.000667 -0.020304
v 0.029285 0.000667 -0.020238
v 0.029342 0.000333 -0.020376
v 0.029349 0.000667 -0.020451
v 0.029342 0.000667 -0.020376
v 0.029342 0.000333 -0.020526
v 0.029320 0.000667 -0.020598
v 0.029342 0.000667 -0.020526
v 0.029285 0.000333 -0.020665
v 0.029241 0.000667 -0.020726
v 0.029285 0.000667 -0.020665
v 0.029188 0.000333 -0.020779
v 0.029128 0.000667 -0.020825
v 0.029188 0.000667 -0.020779
v 0.028700 0.001000 -0.020952
v 0.028700 0.000500 -0.020952
v 0.028700 0.000000 -0.020952
v 0.028700 -0.000500 -0.020952
v 0.029126 -0.001000 -0.020077
v 0.029126 -0.000500 -0.020077
v 0.029126 0.000000 -0.020077
v 0.029126 0.000500 -0.020077
v 0.005747 0.001000 -0.016354
v -0.004941 -0.001000 -0.001937
v -0.002269 -0.001000 -0.005541
v 0.000403 -0.001000 -0.009146
v 0.003075 -0.001000 -0.012750
v 0.003075 0.001000 -0.012750
v 0.000403 0.001000 -0.009146
v -0.002269 0.001000 -0.005541
v 0.005747 -0.001000 -0.016354
v 0.005747 0.000000 -0.016354
v 0.003075 0.000000 -0.012750
v 0.004411 0.000000 -0.014552
v 0.003075 -0.000500 -0.012750
v 0.004411 -0.000500 -0.014552
v 0.003075 0.000500 -0.012750
v 0.004411 0.000500 -0.014552
v -0.004941 0.001000 -0.001937
v -0.004941 0.000000 -0.001937
v -0.002269 0.000000 -0.005541
v -0.003605 0.000000 -0.003739
v -0.002269 0.000500 -0.005541
v -0.003605 0.000500 -0.003739
v -0.002269 -0.000500 -0.005541
v -0.003605 -0.000500 -0.003739
v 0.007905 0.001000 -0.014754
v 0.005747 -0.001000 -0.016354
v 0.006117 -0.001000 -0.016696
v 0.006628 -0.001000 -0.016883
v 0.007172 -0.001000 -0.016852
v 0.007626 -0.001000 -0.016634
v 0.007967 -0.001000 -0.016263
v 0.008155 -0.001000 -0.015752
v 0.008124 -0.001000 -0.015208
v 0.008124 0.001000 -0.015208
v 0.008155 0.001000 -0.015752
v 0.007967 0.001000 -0.016263
v 0.007626 0.001000 -0.016634
v 0.007172 0.001000 -0.016852
v 0.006628 0.001000 -0.016883
v 0.006117 0.001000 -0.016696
v 0.005747 0.001000 -0.016354
v 0.005747 0.000000 -0.016354
v 0.007905 -0.001000 -0.014754
v 0.007905 0.000000 -0.014754
v 0.007905 0.001000 -0.014754
v -0.002782 -0.001000 -0.000336
v 0.007905 -0.001000 -0.014754
v 0.005233 -0.001000 -0.011150
v 0.002561 -0.001000 -0.007545
v -0.000110 -0.001000 -0.003941
v -0.002782 0.001000 -0.000336
v -0.000110 0.001000 -0.003941
v 0.002561 0.001000 -0.007545
v 0.005233 0.001000 -0.011150
v 0.007905 0.000000 -0.014754
v 0.005233 0.000000 -0.011150
v 0.006569 0.000000 -0.012952
v 0.005233 0.000500 -0.011150
v 0.006569 0.000500 -0.012952
v 0.005233 -0.000500 -0.011150
v 0.006569 -0.000500 -0.012952
v -0.002782 0.000000 -0.000336
v -0.000110 0.000000 -0.003941
v -0.001446 0.000000 -0.002139
v -0.000110 -0.000500 -0.003941
v -0.001446 -0.000500 -0.002139
v -0.000110 0.000500 -0.003941
v -0.001446 0.000500 -0.002139
v -0.002782 0.001000 -0.000336
v -0.004941 -0.001000 -0.001937
v -0.002782 -0.001000 -0.000336
v -0.003153 -0.001000 0.000005
v -0.003664 -0.001000 0.000192
v -0.004208 -0.001000 0.000162
v -0.004662 -0.001000 -0.000057
v -0.005003 -0.001000 -0.000427
v -0.005191 -0.001000 -0.000939
v -0.005160 -0.001000 -0.001483
v -0.004941 0.001000 -0.001937
v -0.005160 0.001000 -0.001483
v -0.005191 0.001000 -0.000939
v -0.005003 0.001000 -0.000427
v -0.004662 0.001000 -0.000057
v -0.004208 0.001000 0.000162
v -0.003664 0.001000 0.000192
v -0.003153 0.001000 0.000005
v -0.002782 0.000000 -0.000336
v -0.004941 0.000000 -0.001937
v -0.008658 0.001000 0.007734
v -0.010900 0.001000 0.005492
v -0.008658 0.001000 0.003250
v -0.008658 -0.001000 0.003250
v -0.007832 -0.001000 0.003407
v -0.007072 -0.001000 0.003907
v -0.006573 -0.001000 0.004667
v -0.006416 -0.001000 0.005492
v -0.006573 -0.001000 0.006317
v -0.007072 -0.001000 0.007078
v -0.007832 -0.001000 0.007577
v -0.008658 -0.001000 0.007734
v -0.009483 -0.001000 0.007577
v -0.010243 -0.001000 0.007078
v -0.010742 -0.001000 0.006317
v -0.010900 -0.001000 0.005492
v -0.010742 -0.001000 0.004667
v -0.010243 -0.001000 0.003907
v -0.009483 -0.001000 0.003407
v -0.008658 -0.001000 0.003250
v -0.009483 0.001000 0.003407
v -0.010243 0.001000 0.003907
v -0.010742 0.001000 0.004667
v -0.010742 0.001000 0.006317
v -0.010243 0.001000 0.007078
v -0.009483 0.001000 0.007577
v -0.007832 0.001000 0.007577
v -0.007072 0.001000 0.007078
v -0.006573 0.001000 0.006317
v -0.006416 0.001000 0.005492
v -0.006573 0.001000 0.004667
v -0.007072 0.001000 0.003907
v -0.007832 0.001000 0.003407
v -0.008658 0.001000 0.003250
v -0.018022 0.001000 0.020916
v -0.021792 -0.001000 0.020916
v -0.018022 -0.001000 0.020916
v -0.018022 -0.000000 0.020916
v -0.021792 0.001000 0.020916
v -0.021792 -0.001000 0.022916
v -0.018019 0.001000 0.022916
v -0.018019 -0.000000 0.022916
v -0.018019 -0.001000 0.022916
v -0.021792 0.001000 0.022916
v -0.021792 0.001000 0.022916
v -0.021792 0.001000 0.020916
v -0.021792 -0.001000 0.020916
v -0.021792 -0.001000 0.022916
v -0.018024 0.001000 0.019792
v -0.018022 -0.001000 0.020916
v -0.018024 -0.001000 0.019792
v -0.018024 -0.000000 0.019792
v -0.018022 0.001000 0.020916
v -0.018022 -0.000000 0.020916
vn 0.999999 0.000000 -0.001700
vn 0.999999 0.000000 -0.001700
vn 0.999999 0.000000 -0.001700
vn 0.999999 0.000000 -0.001700
vn 0.999999 0.000000 -0.001700
vn 0.999999 0.000000 -0.001700
vn 0.999999 0.000000 -0.001700
vn 0.999999 0.000000 -0.001700
vn 0.999999 0.000000 -0.001700
vn 0.000000 -0.000000 1.000000
vn 0.000000 -0.000000 1.000000
vn 0.000000 -0.000000 1.000000
vn 0.000000 -0.000000 1.000000
vn 0.000000 -0.000000 1.000000
vn 1.000000 0.000000 0.000000
vn 1.000000 0.000000 0.000000
vn 1.000000 0.000000 0.000000
vn 1.000000 0.000000 0.000000
vn 1.000000 0.000000 0.000000
vn 0.000000 -0.000000 1.000000
vn 0.000000 -0.000000 1.000000
vn 0.000000 -0.000000 1.000000
vn 0.000000 -0.000000 1.000000
vn 0.000000 -0.000000 1.000000
vn 0.000000 -0.000000 1.000000
vn -1.000000 0.000000 0.000000
vn -1.000000 0.000000 0.000000
vn -1.000000 0.000000 0.000000
vn -1.000000 0.000000 0.000000
vn -1.000000 0.000000 0.000000
vn 0.000000 -0.000000 1.000000
vn 0.000000 -0.000000 1.000000
vn 0.000000 -0.000000 1.000000
vn 0.000000 -0.000000 1.000000
vn 1.000000 0.000000 0.000000
vn 1.000000 0.000000 0.000000
vn 1.000000 0.000000 0.000000
vn 1.000000 0.000000 0.000000
vn 1.000000 0.000000 0.000000
vn 0.000000 -0.000000 1.000000
vn 0.000000 -0.000000 1.000000
vn 0.000000 -0.000000 1.000000
vn 0.000000 -0.000000 1.000000
vn 0.000000 -0.000000 1.000000
vn 0.000000 -0.000000 1.000000
vn -1.000000 0.000000 0.000000
vn -1.000000 0.000000 0.000000
vn -1.000000 0.000000 0.000000
vn -1.000000 0.000000 0.000000
vn -1.000000 0.000000 0.000000
vn 0.000000 0.000000 -1.000000
vn 0.000000 0.000000 -1.000000
vn 0.000000 0.000000 -1.000000
vn 0.000000 0.000000 -1.000000
vn 0.000000 0.000000 -1.000000
vn 0.000000 0.000000 -1.000000
vn 0.000000 0.000000 -1.000000
vn -0.773815 0.000000 -0.633412
vn -0.773815 0.000000 -0.633412
vn -0.773815 0.000000 -0.633412
vn -0.773815 0.000000 -0.633412
vn -0.773815 0.000000 -0.633412
vn -0.773815 0.000000 -0.633412
vn -0.773815 0.000000 -0.633412
vn -0.773815 0.000000 -0.633412
vn -0.773815 0.000000 -0.633412
vn -0.773815 0.000000 -0.633412
vn -0.773815 0.000000 -0.633412
vn -0.773815 0.000000 -0.633412
vn -0.773815 0.000000 -0.633412
vn -0.773815 0.000000 -0.633412
vn -0.773815 0.000000 -0.633412
vn -0.773815 0.000000 -0.633412
vn -0.773815 0.000000 -0.633412
vn -0.773815 0.000000 -0.633412
vn -0.773815 0.000000 -0.633412
vn -1.000000 0.000000 0.000000
vn -1.000000 0.000000 0.000000
vn -1.000000 0.000000 0.000000
vn -1.000000 0.000000 0.000000
vn -1.000000 0.000000 0.000000
vn -1.000000 0.000000 0.000000
vn 0.000000 -0.000000 1.000000
vn 0.000000 -0.000000 1.000000
vn 0.000000 -0.000000 1.000000
vn 0.000000 -0.000000 1.000000
vn 0.000000 -0.000000 1.000000
vn 0.000000 -0.000000 1.000000
vn 0.380287 -0.000000 0.924869
vn 0.715012 -0.000000 0.699112
vn 0.932100 -0.000000 0.362200
vn 0.999999 0.000000 -0.001600
vn 0.000000 -0.000000 1.000000
vn 0.380287 -0.000000 0.924869
vn 0.715012 -0.000000 0.699112
vn 0.932100 -0.000000 0.362200
vn 0.999999 0.000000 -0.001600
vn 0.000000 -0.000000 1.000000
vn 0.999999 0.000000 -0.001600
vn 0.999999 0.000000 -0.001600
vn 0.951514 -0.000000 0.307605
vn 0.810553 -0.000000 0.585666
vn 0.999999 0.000000 -0.001600
vn 0.951514 -0.000000 0.307605
vn 0.810553 -0.000000 0.585666
vn 0.999999 0.000000 -0.001600
vn 0.810553 -0.000000 0.585666
vn 0.810518 -0.000000 0.585713
vn 0.810518 -0.000000 0.585713
vn 0.810518 -0.000000 0.585713
vn 0.810518 -0.000000 0.585713
vn 0.810518 -0.000000 0.585713
vn 0.810518 -0.000000 0.585713
vn 0.810518 -0.000000 0.585713
vn 0.810518 -0.000000 0.585713
vn 0.810518 -0.000000 0.585713
vn 0.453204 -0.000000 0.891407
vn 0.000100 -0.000000 1.000000
vn 0.810518 -0.000000 0.585713
vn 0.453204 -0.000000 0.891407
vn 0.000100 -0.000000 1.000000
vn 0.810518 -0.000000 0.585713
vn 0.000100 -0.000000 1.000000
vn 0.000000 -0.000000 1.000000
vn 0.000000 -0.000000 1.000000
vn 0.000000 -0.000000 1.000000
vn 0.000000 -0.000000 1.000000
vn 0.000000 -0.000000 1.000000
vn 0.000000 -0.000000 1.000000
vn 0.379910 -0.000000 0.925024
vn 0.714369 -0.000000 0.699769
vn 0.931629 -0.000000 0.363411
vn 1.000000 0.000000 0.000000
vn 0.000100 -0.000000 1.000000
vn 0.379910 -0.000000 0.925024
vn 0.714369 -0.000000 0.699769
vn 0.931629 -0.000000 0.363411
vn 1.000000 0.000000 0.000000
vn 0.000000 -0.000000 1.000000
vn 1.000000 0.000000 0.000000
vn 1.000000 0.000000 0.000000
vn 1.000000 0.000000 0.000000
vn 1.000000 0.000000 0.000000
vn 1.000000 0.000000 0.000000
vn 1.000000 0.000000 0.000000
vn 1.000000 0.000000 0.000000
vn 1.000000 0.000000 0.000000
vn 0.925024 0.000000 -0.379910
vn 0.699718 0.000000 -0.714419
vn 0.363411 0.000000 -0.931629
vn 0.000000 -0.000100 -1.000000
vn 1.000000 0.000000 0.000000
vn 0.925024 0.000000 -0.379910
vn 0.699718 0.000000 -0.714419
vn 0.363411 0.000000 -0.931629
vn 0.000000 0.000000 -1.000000
vn 1.000000 0.000000 0.000000
vn 0.000000 0.000000 -1.000000
vn 0.814853 -0.000000 0.579667
vn 0.814853 -0.000000 0.579667
vn 0.814853 -0.000000 0.579667
vn 0.814853 -0.000000 0.579667
vn 0.814853 -0.000000 0.579667
vn 0.814853 -0.000000 0.579667
vn 0.814853 -0.000000 0.579667
vn 0.814853 -0.000000 0.579667
vn 0.814853 -0.000000 0.579667
vn 0.814853 -0.000000 0.579667
vn 0.814853 -0.000000 0.579667
vn 0.814853 -0.000000 0.579667
vn 0.814853 -0.000000 0.579667
vn 0.814820 -0.000000 0.579714
vn 0.460723 -0.000000 0.887544
vn 0.009500 -0.000000 0.999955
vn 0.814820 -0.000000 0.579714
vn 0.460723 -0.000000 0.887544
vn 0.009500 -0.000000 0.999955
vn 0.814820 -0.000000 0.579714
vn 0.009500 -0.000000 0.999955
vn 0.009400 -0.000000 0.999956
vn 0.009400 -0.000000 0.999956
vn 0.009400 -0.000000 0.999956
vn 0.009400 -0.000000 0.999956
vn 0.009400 -0.000000 0.999956
vn 0.009400 -0.000000 0.999956
vn 0.009400 -0.000000 0.999956
vn 0.009400 -0.000000 0.999956
vn 0.009400 -0.000000 0.999956
vn 0.308417 -0.000000 0.951251
vn 0.578084 -0.000000 0.815977
vn 0.009400 -0.000000 0.999956
vn 0.308417 -0.000000 0.951251
vn 0.578084 -0.000000 0.815977
vn 0.009500 -0.000000 0.999955
vn 0.578017 -0.000000 0.816024
vn 0.578084 -0.000000 0.815977
vn 0.578084 -0.000000 0.815977
vn 0.578084 -0.000000 0.815977
vn 0.578084 -0.000000 0.815977
vn 0.578084 -0.000000 0.815977
vn 0.578084 -0.000000 0.815977
vn 0.578084 -0.000000 0.815977
vn 0.578084 -0.000000 0.815977
vn 0.578084 -0.000000 0.815977
vn 0.892115 -0.000000 0.451808
vn 0.999924 0.000000 -0.012300
vn 0.578084 -0.000000 0.815977
vn 0.892115 -0.000000 0.451808
vn 0.999924 0.000000 -0.012300
vn 0.578084 -0.000000 0.815977
vn 0.999924 0.000000 -0.012300
vn 0.999923 0.000000 -0.012400
vn 0.999923 0.000000 -0.012400
vn 0.999923 0.000000 -0.012400
vn 0.999923 0.000000 -0.012400
vn 0.999923 0.000000 -0.012400
vn 0.999923 0.000000 -0.012400
vn 0.999923 0.000000 -0.012400
vn 0.921579 0.000000 -0.388191
vn 0.696122 0.000000 -0.717923
vn 0.362287 0.000000 -0.932067
vn 0.001700 0.000000 -0.999999
vn 0.999923 0.000100 -0.012400
vn 0.921579 0.000000 -0.388191
vn 0.696122 0.000000 -0.717923
vn 0.362287 0.000000 -0.932067
vn 0.001700 0.000000 -0.999999
vn 0.999923 0.000000 -0.012400
vn 0.001700 0.000000 -0.999999
vn 0.001700 0.000000 -0.999999
vn 0.001700 0.000000 -0.999999
vn 0.001700 0.000000 -0.999999
vn 0.001700 0.000000 -0.999999
vn 0.001700 0.000000 -0.999999
vn 0.001700 0.000000 -0.999999
vn 0.001700 0.000000 -0.999999
vn 0.001700 0.000000 -0.999999
vn 0.001700 0.000000 -0.999999
vn 0.001700 0.000000 -0.999999
vn 0.001700 0.000000 -0.999999
vn 0.001700 0.000000 -0.999999
vn 0.001700 0.000000 -0.999999
vn 0.001700 0.000000 -0.999999
vn 0.001700 0.000000 -0.999999
vn 0.001700 0.000000 -0.999999
vn 0.001700 0.000000 -0.999999
vn 0.001700 0.000000 -0.999999
vn 0.001700 0.000000 -0.999999
vn 0.001700 0.000000 -0.999999
vn 0.001600 0.000000 -0.999999
vn -0.429083 0.000000 -0.903265
vn -0.773815 0.000000 -0.633412
vn 0.001600 0.000000 -0.999999
vn -0.428920 0.000000 -0.903342
vn -0.773815 0.000000 -0.633412
vn 0.001600 0.000000 -0.999999
vn -0.773815 0.000000 -0.633412
vn 0.000000 -1.000000 -0.000000
vn 0.000000 -1.000000 -0.000000
vn 0.000000 -1.000000 -0.000000
vn 0.000000 -1.000000 -0.000000
vn 0.000000 -1.000000 -0.000000
vn 0.000000 -1.000000 -0.000000
vn 0.000000 -1.000000 -0.000000
vn 0.000000 -1.000000 -0.000000
vn 0.000000 -1.000000 -0.000000
vn 0.000000 -1.000000 -0.000000
vn 0.000000 -1.000000 -0.000000
vn 0.000000 -1.000000 -0.000000
vn 0.000000 -1.000000 -0.000000
vn 0.000000 -1.000000 -0.000000
vn 0.000000 -1.000000 -0.000000
vn 0.000000 -1.000000 -0.000000
vn 0.000000 -1.000000 -0.000000
vn 0.000000 -1.000000 -0.000000
vn 0.000000 -1.000000 -0.000000
vn 0.000000 -1.000000 -0.000000
vn 0.000000 -1.000000 -0.000000
vn 0.000000 -1.000000 -0.000000
vn 0.000000 -1.000000 -0.000000
vn 0.000000 -1.000000 -0.000000
vn 0.000000 -1.000000 -0.000000
vn 0.000000 -1.000000 -0.000000
vn 0.000000 -1.000000 -0.000000
vn 0.000000 -1.000000 -0.000000
vn 0.000000 -1.000000 -0.000000
vn 0.000000 -1.000000 -0.000000
vn 0.000000 -1.000000 -0.000000
vn 0.000000 -1.000000 -0.000000
vn 0.000000 -1.000000 -0.000000
vn 0.000000 -1.000000 -0.000000
vn 0.000000 -1.000000 -0.000000
vn 0.000000 -1.000000 -0.000000
vn 0.000000 -1.000000 -0.000000
vn 0.000000 -1.000000 -0.000000
vn 0.000000 -1.000000 -0.000000
vn 0.000000 -1.000000 -0.000000
vn 0.000000 -1.000000 -0.000000
vn 0.000000 -1.000000 -0.000000
vn 0.000000 -1.000000 -0.000000
vn 0.000000 -1.000000 -0.000000
vn 0.000000 -1.000000 -0.000000
vn 0.000000 -1.000000 -0.000000
vn 0.000000 -1.000000 -0.000000
vn 0.000000 -1.000000 -0.000000
vn 0.000000 -1.000000 -0.000000
vn 0.000000 -1.000000 -0.000000
vn 0.000000 -1.000000 -0.000000
vn 0.000000 -1.000000 -0.000000
vn 0.000000 -1.000000 -0.000000
vn 0.000000 -1.000000 -0.000000
vn 0.000000 -1.000000 -0.000000
vn 0.000000 -1.000000 -0.000000
vn 0.000000 -1.000000 -0.000000
vn 0.000000 -1.000000 -0.000000
vn 0.000000 -1.000000 -0.000000
vn 0.000000 -1.000000 -0.000000
vn 0.000000 -1.000000 -0.000000
vn 0.000000 -1.000000 -0.000000
vn 0.000000 -1.000000 -0.000000
vn 0.000000 -1.000000 -0.000000
vn 0.000000 -1.000000 -0.000000
vn 0.000000 -1.000000 -0.000000
vn 0.000000 -1.000000 -0.000000
vn 0.000000 -1.000000 -0.000000
vn 0.000000 -1.000000 -0.000000
vn 0.000000 -1.000000 -0.000000
vn 0.000000 -1.000000 -0.000000
vn 0.000000 -1.000000 -0.000000
vn 0.000000 -1.000000 -0.000000
vn 0.000000 -1.000000 -0.000000
vn 0.000000 -1.000000 -0.000000
vn 0.000000 -1.000000 -0.000000
vn 0.000000 -1.000000 -0.000000
vn 0.000000 -1.000000 -0.000000
vn 0.000000 -1.000000 -0.000000
vn 0.000000 -1.000000 -0.000000
vn 0.000000 -1.000000 -0.000000
vn 0.000000 -1.000000 -0.000000
vn 0.000000 -1.000000 -0.000000
vn 0.000000 -1.000000 -0.000000
vn 0.000000 -1.000000 -0.000000
vn 0.000000 -1.000000 -0.000000
vn 0.000000 -1.000000 -0.000000
vn 0.000000 -1.000000 -0.000000
vn 0.000000 -1.000000 -0.000000
vn 0.000000 -1.000000 -0.000000
vn 0.000000 -1.000000 -0.000000
vn 0.000000 -1.000000 -0.000000
vn 0.000000 -1.000000 -0.000000
vn 0.000000 -1.000000 -0.000000
vn 0.000000 -1.000000 -0.000000
vn 0.000000 -1.000000 -0.000000
vn 0.000000 -1.000000 -0.000000
vn 0.000000 -1.000000 -0.000000
vn 0.000000 -1.000000 -0.000000
vn 0.000000 -1.000000 -0.000000
vn 0.000000 -1.000000 -0.000000
vn 0.000000 -1.000000 -0.000000
vn 0.000000 -1.000000 -0.000000
vn 0.000000 -1.000000 -0.000000
vn 0.000000 -1.000000 -0.000000
vn 0.000000 -1.000000 -0.000000
vn 0.000000 -1.000000 -0.000000
vn 0.000000 -1.000000 -0.000000
vn 0.000000 -1.000000 -0.000000
vn 0.000000 -1.000000 -0.000000
vn 0.000000 -1.000000 -0.000000
vn 0.000000 -1.000000 -0.000000
vn 0.000000 -1.000000 -0.000000
vn 0.000000 -1.000000 -0.000000
vn 0.000000 -1.000000 -0.000000
vn 0.000000 -1.000000 -0.000000
vn 0.000000 -1.000000 -0.000000
vn 0.000000 -1.000000 -0.000000
vn 0.000000 -1.000000 -0.000000
vn 0.000000 -1.000000 -0.000000
vn 0.000000 -1.000000 -0.000000
vn 0.000000 -1.000000 -0.000000
vn 0.000000 -1.000000 -0.000000
vn 0.000000 -1.000000 -0.000000
vn 0.000000 -1.000000 -0.000000
vn 0.000000 -1.000000 -0.000000
vn 0.000000 -1.000000 -0.000000
vn 0.000000 -1.000000 -0.000000
vn 0.000000 -1.000000 -0.000000
vn 0.000000 -1.000000 -0.000000
vn 0.000000 -1.000000 -0.000000
vn 0.000000 -1.000000 -0.000000
vn 0.000000 -1.000000 -0.000000
vn 0.000000 -1.000000 -0.000000
vn 0.000000 -1.000000 -0.000000
vn 0.000000 -1.000000 -0.000000
vn 0.000000 -1.000000 -0.000000
vn 0.000000 -1.000000 -0.000000
vn 0.000000 -1.000000 -0.000000
vn 0.000000 -1.000000 -0.000000
vn 0.000000 -1.000000 -0.000000
vn 0.000000 -1.000000 -0.000000
vn 0.000000 -1.000000 -0.000000
vn 0.000000 -1.000000 -0.000000
vn 0.000000 -1.000000 -0.000000
vn 0.000000 -1.000000 -0.000000
vn 0.000000 -1.000000 -0.000000
vn 0.000000 -1.000000 -0.000000
vn 0.000000 1.000000 0.000000
vn 0.000000 1.000000 0.000000
vn 0.000000 1.000000 0.000000
vn 0.000000 1.000000 0.000000
vn 0.000000 1.000000 0.000000
vn 0.000000 1.000000 0.000000
vn 0.000000 1.000000 0.000000
vn 0.000000 1.000000 0.000000
vn 0.000000 1.000000 0.000000
vn 0.000000 1.000000 0.000000
vn 0.000000 1.000000 0.000000
vn 0.000000 1.000000 0.000000
vn 0.000000 1.000000 0.000000
vn 0.000000 1.000000 0.000000
vn 0.000000 1.000000 0.000000
vn 0.000000 1.000000 0.000000
vn 0.000000 1.000000 0.000000
vn 0.000000 1.000000 0.000000
vn 0.000000 1.000000 0.000000
vn 0.000000 1.000000 0.000000
vn 0.000000 1.000000 0.000000
vn 0.000000 1.000000 0.000000
vn 0.000000 1.000000 0.000000
vn 0.000000 1.000000 0.000000
vn 0.000000 1.000000 0.000000
vn 0.000000 1.000000 0.000000
vn 0.000000 1.000000 0.000000
vn 0.000000 1.000000 0.000000
vn 0.000000 1.000000 0.000000
vn 0.000000 1.000000 0.000000
vn 0.000000 1.000000 0.000000
vn 0.000000 1.000000 0.000000
vn 0.000000 1.000000 0.000000
vn 0.000000 1.000000 0.000000
vn 0.000000 1.000000 0.000000
vn 0.000000 1.000000 0.000000
vn 0.000000 1.000000 0.000000
vn 0.000000 1.000000 0.000000
vn 0.000000 1.000000 0.000000
vn 0.000000 1.000000 0.000000
vn 0.000000 1.000000 0.000000
vn 0.000000 1.000000 0.000000
vn 0.000000 1.000000 0.000000
vn 0.000000 1.000000 0.000000
vn 0.000000 1.000000 0.000000
vn 0.000000 1.000000 0.000000
vn 0.000000 1.000000 0.000000
vn 0.000000 1.000000 0.000000
vn 0.000000 1.000000 0.000000
vn 0.000000 1.000000 0.000000
vn 0.000000 1.000000 0.000000
vn 0.000000 1.000000 0.000000
vn 0.000000 1.000000 0.000000
vn 0.000000 1.000000 0.000000
vn 0.000000 1.000000 0.000000
vn 0.000000 1.000000 0.000000
vn 0.000000 1.000000 0.000000
vn 0.000000 1.000000 0.000000
vn 0.000000 1.000000 0.000000
vn 0.000000 1.000000 0.000000
vn 0.000000 1.000000 0.000000
vn 0.000000 1.000000 0.000000
vn 0.000000 1.000000 0.000000
vn 0.000000 1.000000 0.000000
vn 0.000000 1.000000 0.000000
vn 0.000000 1.000000 0.000000
vn 0.000000 1.000000 0.000000
vn 0.000000 1.000000 0.000000
vn 0.000000 1.000000 0.000000
vn 0.000000 1.000000 0.000000
vn 0.000000 1.000000 0.000000
vn 0.000000 1.000000 0.000000
vn 0.000000 1.000000 0.000000
vn 0.000000 1.000000 0.000000
vn 0.000000 1.000000 0.000000
vn 0.000000 1.000000 0.000000
vn 0.000000 1.000000 0.000000
vn 0.000000 1.000000 0.000000
vn 0.000000 1.000000 0.000000
vn 0.000000 1.000000 0.000000
vn 0.000000 1.000000 0.000000
vn 0.000000 1.000000 0.000000
vn 0.000000 1.000000 0.000000
vn 0.000000 1.000000 0.000000
vn 0.000000 1.000000 0.000000
vn 0.000000 1.000000 0.000000
vn 0.000000 1.000000 0.000000
vn 0.000000 1.000000 0.000000
vn 0.000000 1.000000 0.000000
vn 0.000000 1.000000 0.000000
vn 0.000000 1.000000 0.000000
vn 0.000000 1.000000 0.000000
vn 0.000000 1.000000 0.000000
vn 0.000000 1.000000 0.000000
vn 0.000000 1.000000 0.000000
vn 0.000000 1.000000 0.000000
vn 0.000000 1.000000 0.000000
vn 0.000000 1.000000 0.000000
vn 0.000000 1.000000 0.000000
vn 0.000000 1.000000 0.000000
vn 0.000000 1.000000 0.000000
vn 0.000000 1.000000 0.000000
vn 0.000000 1.000000 0.000000
vn 0.000000 1.000000 0.000000
vn 0.000000 1.000000 0.000000
vn 0.000000 1.000000 0.000000
vn 0.000000 1.000000 0.000000
vn 0.000000 1.000000 0.000000
vn 0.000000 1.000000 0.000000
vn 0.000000 1.000000 0.000000
vn 0.000000 1.000000 0.000000
vn 0.000000 1.000000 0.000000
vn 0.000000 1.000000 0.000000
vn 0.000000 1.000000 0.000000
vn 0.000000 1.000000 0.000000
vn 0.000000 1.000000 0.000000
vn 0.000000 1.000000 0.000000
vn 0.000000 1.000000 0.000000
vn 0.000000 1.000000 0.000000
vn 0.000000 1.000000 0.000000
vn 0.000000 1.000000 0.000000
vn 0.000000 1.000000 0.000000
vn 0.000000 1.000000 0.000000
vn 0.000000 1.000000 0.000000
vn 0.000000 1.000000 0.000000
vn 0.000000 1.000000 0.000000
vn 0.000000 1.000000 0.000000
vn 0.000000 1.000000 0.000000
vn 0.000000 1.000000 0.000000
vn 0.000000 1.000000 0.000000
vn 0.000000 1.000000 0.000000
vn 0.000000 1.000000 0.000000
vn 0.000000 1.000000 0.000000
vn 0.000000 1.000000 0.000000
vn 0.000000 1.000000 0.000000
vn 0.000000 1.000000 0.000000
vn 0.000000 1.000000 0.000000
vn 0.000000 1.000000 0.000000
vn 0.000000 1.000000 0.000000
vn 0.000000 1.000000 0.000000
vn 0.000000 1.000000 0.000000
vn 0.000000 1.000000 0.000000
vn 0.000000 1.000000 0.000000
vn 0.000000 1.000000 0.000000
vn 0.000000 1.000000 0.000000
vn 0.000000 1.000000 0.000000
vn 0.000000 1.000000 0.000000
vn -0.561787 0.000000 -0.827282
vn -0.561787 0.000000 -0.827282
vn -0.561787 0.000000 -0.827282
vn -0.561787 0.000000 -0.827282
vn -0.561787 0.000000 -0.827282
vn -0.561787 0.000000 -0.827282
vn -0.561787 0.000000 -0.827282
vn -0.561787 0.000000 -0.827282
vn -0.561787 0.000000 -0.827282
vn -0.561787 0.000000 -0.827282
vn -0.561787 0.000000 -0.827282
vn -0.561787 0.000000 -0.827282
vn -0.561787 0.000000 -0.827282
vn -0.561787 0.000000 -0.827282
vn -0.561787 0.000000 -0.827282
vn -0.561787 0.000000 -0.827282
vn -0.276108 0.000000 -0.961127
vn -0.000100 0.000000 -1.000000
vn -0.561787 0.000000 -0.827282
vn -0.286797 0.000000 -0.957991
vn -0.276015 0.000000 -0.961153
vn -0.422809 0.000000 -0.906219
vn -0.422891 0.000000 -0.906181
vn -0.137906 0.000000 -0.990445
vn -0.138004 0.000000 -0.990432
vn -0.000100 0.000000 -1.000000
vn -0.286797 0.000000 -0.957991
vn -0.276015 0.000000 -0.961153
vn -0.138004 0.000000 -0.990432
vn -0.422891 -0.000100 -0.906181
vn -0.561902 0.000000 -0.827204
vn -0.561902 0.000000 -0.827204
vn -0.000200 0.000000 -1.000000
vn 0.000000 0.000000 -1.000000
vn 0.000000 0.000000 -1.000000
vn 0.000000 0.000000 -1.000000
vn 0.000000 0.000000 -1.000000
vn 0.000000 0.000000 -1.000000
vn 0.000000 0.000000 -1.000000
vn 0.000000 0.000000 -1.000000
vn 0.000000 0.000000 -1.000000
vn 0.000000 0.000000 -1.000000
vn 0.000000 0.000000 -1.000000
vn 0.000000 0.000000 -1.000000
vn 0.000000 0.000000 -1.000000
vn 0.000000 0.000000 -1.000000
vn 0.000000 0.000000 -1.000000
vn 0.000000 0.000000 -1.000000
vn 0.000000 0.000000 -1.000000
vn 0.000000 0.000000 -1.000000
vn 0.000000 0.000000 -1.000000
vn 0.000000 0.000000 -1.000000
vn 0.000000 0.000000 -1.000000
vn 0.000000 0.000000 -1.000000
vn 0.086198 0.000000 -0.996278
vn 0.170493 0.000000 -0.985359
vn 0.260587 0.000000 -0.965450
vn 0.355109 0.000000 -0.934825
vn 0.456708 0.000000 -0.889616
vn 0.568013 0.000000 -0.823019
vn 0.690107 0.000000 -0.723707
vn 0.820887 0.000000 -0.571091
vn 0.942290 0.000000 -0.334797
vn 1.000000 0.000000 0.000000
vn 0.000000 0.000000 -1.000000
vn 0.165404 0.000000 -0.986226
vn 0.254705 0.000000 -0.967019
vn 0.349391 0.000000 -0.936977
vn 0.443610 0.000000 -0.896220
vn 0.541803 0.000000 -0.840505
vn 0.662213 0.000000 -0.749315
vn 0.844406 0.000000 -0.535704
vn 0.949985 0.000000 -0.312295
vn 0.987993 0.000000 -0.154499
vn 0.170493 0.000000 -0.985359
vn 0.128501 0.000000 -0.991709
vn 0.086198 0.000000 -0.996278
vn 0.128501 0.000000 -0.991709
vn 0.260400 0.000000 -0.965501
vn 0.214007 0.000000 -0.976832
vn 0.214007 -0.000100 -0.976832
vn 0.354989 0.000000 -0.934871
vn 0.307695 0.000000 -0.951485
vn 0.307514 0.000300 -0.951544
vn 0.456708 0.000000 -0.889616
vn 0.405210 0.000000 -0.914223
vn 0.405498 0.000200 -0.914096
vn 0.567899 0.000000 -0.823098
vn 0.510107 0.000000 -0.860111
vn 0.510181 0.000000 -0.860067
vn 0.690107 0.000000 -0.723707
vn 0.628225 0.000000 -0.778031
vn 0.628116 0.000000 -0.778120
vn 0.942290 0.000000 -0.334797
vn 0.884580 0.000000 -0.466389
vn 0.820887 0.000000 -0.571091
vn 0.884558 0.000000 -0.466431
vn 0.984676 0.000000 -0.174396
vn 0.984676 0.000000 -0.174396
vn 0.984676 0.000000 -0.174396
vn 0.966173 0.000000 -0.257893
vn 0.942259 0.000000 -0.334885
vn 0.966149 0.000000 -0.257986
vn 0.996243 0.000000 -0.086604
vn 0.996243 0.000000 -0.086604
vn 1.000000 0.000000 0.000000
vn 0.987993 0.000000 -0.154499
vn 0.950015 0.000000 -0.312205
vn 0.844406 0.000000 -0.535704
vn 0.662213 0.000000 -0.749315
vn 0.541803 0.000000 -0.840505
vn 0.443490 0.000000 -0.896279
vn 0.349512 0.000000 -0.936932
vn 0.254705 0.000000 -0.967019
vn 0.165404 0.000000 -0.986226
vn 0.942290 0.000000 -0.334797
vn 0.984676 0.000000 -0.174396
vn 0.996252 -0.000100 -0.086496
vn 0.984676 0.000100 -0.174396
vn 0.996243 0.000000 -0.086604
vn 0.966173 0.000000 -0.257893
vn 0.942259 0.000000 -0.334885
vn 0.966142 0.000000 -0.258011
vn 0.820887 0.000000 -0.571091
vn 0.884558 0.000000 -0.466431
vn 0.690107 0.000000 -0.723707
vn 0.567899 0.000000 -0.823098
vn 0.628176 0.000000 -0.778071
vn 0.456708 0.000000 -0.889616
vn 0.510181 0.000000 -0.860067
vn 0.355109 0.000000 -0.934825
vn 0.405415 0.000000 -0.914133
vn 0.260400 0.000000 -0.965501
vn 0.307514 0.000000 -0.951544
vn 0.170396 0.000000 -0.985376
vn 0.214007 0.000100 -0.976832
vn 0.086099 0.000000 -0.996287
vn 0.128501 0.000000 -0.991709
vn 0.000100 0.000000 -1.000000
vn 0.000100 0.000000 -1.000000
vn 1.000000 0.000000 0.000000
vn 1.000000 0.000000 0.000000
vn 1.000000 0.000000 0.000000
vn 1.000000 0.000000 0.000000
vn 1.000000 0.000000 0.000000
vn 1.000000 0.000000 0.000000
vn 1.000000 0.000000 0.000000
vn 1.000000 0.000000 0.000000
vn 1.000000 0.000000 0.000000
vn 1.000000 0.000000 0.000000
vn 1.000000 0.000000 0.000000
vn 1.000000 0.000000 0.000000
vn 0.000000 -0.000000 1.000000
vn 0.930300 -0.000000 0.366800
vn 0.787680 -0.000000 0.616085
vn 0.648185 -0.000000 0.761483
vn 0.517419 -0.000000 0.855732
vn 0.400090 -0.000000 0.916476
vn 0.294304 -0.000000 0.955712
vn 0.189708 -0.000000 0.981841
vn 0.095701 -0.000000 0.995410
vn 1.000000 0.000100 0.000000
vn 0.988008 0.000100 0.154401
vn 0.950044 -0.000000 0.312115
vn 0.844406 -0.000000 0.535704
vn 0.661840 -0.000000 0.749645
vn 0.542293 -0.000000 0.840189
vn 0.349095 -0.000000 0.937087
vn 0.255197 -0.000000 0.966889
vn 0.165193 -0.000000 0.986261
vn 0.930300 -0.000000 0.366800
vn 0.981138 -0.000000 0.193308
vn 0.981119 -0.000000 0.193404
vn 0.981138 -0.000000 0.193308
vn 0.995342 0.000100 0.096404
vn 0.995353 -0.000200 0.096295
vn 0.930300 -0.000000 0.366800
vn 0.958822 -0.000000 0.284007
vn 0.958822 -0.000000 0.284007
vn 0.787680 -0.000000 0.616085
vn 0.861595 -0.000000 0.507597
vn 0.861595 -0.000000 0.507597
vn 0.648185 -0.000000 0.761483
vn 0.716691 -0.000000 0.697391
vn 0.716691 -0.000000 0.697391
vn 0.517419 -0.000000 0.855732
vn 0.580888 -0.000000 0.813983
vn 0.580822 -0.000000 0.814031
vn 0.294514 0.000100 0.955647
vn 0.346604 -0.000000 0.938011
vn 0.400210 -0.000000 0.916423
vn 0.346780 -0.000000 0.937946
vn 0.189804 -0.000000 0.981822
vn 0.240794 -0.000000 0.970576
vn 0.240606 -0.000100 0.970623
vn 0.095701 -0.000000 0.995410
vn 0.142695 -0.000000 0.989767
vn 0.142597 -0.000000 0.989781
vn 0.165193 -0.000000 0.986261
vn 0.255197 -0.000000 0.966889
vn 0.349095 -0.000000 0.937087
vn 0.542293 -0.000000 0.840189
vn 0.661896 -0.000000 0.749596
vn 0.844406 -0.000000 0.535704
vn 0.950054 -0.000000 0.312085
vn 0.988008 -0.000000 0.154401
vn 0.095701 -0.000000 0.995410
vn 0.189804 -0.000100 0.981822
vn 0.142597 -0.000000 0.989781
vn 0.294395 -0.000000 0.955684
vn 0.240606 -0.000000 0.970623
vn 0.400210 -0.000000 0.916423
vn 0.346901 -0.000000 0.937902
vn 0.517419 -0.000000 0.855732
vn 0.648185 -0.000000 0.761483
vn 0.580822 -0.000000 0.814031
vn 0.787680 -0.000000 0.616085
vn 0.716691 -0.000000 0.697391
vn 0.930300 -0.000000 0.366800
vn 0.861595 -0.000000 0.507597
vn 0.981119 -0.000000 0.193404
vn 0.958822 -0.000000 0.284007
vn 0.930266 -0.000000 0.366887
vn 0.981138 -0.000000 0.193308
vn 0.958795 -0.000000 0.284099
vn 0.995342 -0.000100 0.096404
vn 0.995342 -0.000100 0.096404
vn 1.000000 -0.000100 -0.000000
vn 1.000000 0.000000 0.000000
vn 1.000000 0.000000 0.000000
vn 0.000000 -0.000000 1.000000
vn 0.000000 -0.000000 1.000000
vn 0.000000 -0.000000 1.000000
vn 0.000000 -0.000000 1.000000
vn 0.000000 -0.000000 1.000000
vn 0.000000 -0.000000 1.000000
vn 0.000000 -0.000000 1.000000
vn 0.000000 -0.000000 1.000000
vn 0.000000 -0.000000 1.000000
vn 0.000000 -0.000000 1.000000
vn 0.000000 -0.000000 1.000000
vn 0.000000 -0.000000 1.000000
vn 0.000000 -0.000000 1.000000
vn 0.000000 -0.000000 1.000000
vn 0.000000 -0.000000 1.000000
vn 0.000000 -0.000000 1.000000
vn 0.000000 -0.000000 1.000000
vn 0.000000 -0.000000 1.000000
vn 0.000000 -0.000000 1.000000
vn 0.000000 -0.000000 1.000000
vn 0.000000 -0.000000 1.000000
vn 0.000000 -0.000000 1.000000
vn 0.000000 -0.000000 1.000000
vn 0.000000 -0.000000 1.000000
vn 0.000000 -0.000000 1.000000
vn 0.000000 -0.000000 1.000000
vn 0.000000 -0.000000 1.000000
vn 0.000000 -0.000000 1.000000
vn 0.000000 -0.000000 1.000000
vn 0.000000 -0.000000 1.000000
vn -0.561787 0.000000 -0.827282
vn -0.184796 -0.000000 0.982777
vn -0.372097 -0.000000 0.928194
vn -0.564583 -0.000000 0.825376
vn -0.756823 -0.000000 0.653620
vn -0.925482 -0.000000 0.378793
vn -0.999993 0.000000 -0.003800
vn -0.923328 0.000000 -0.384012
vn -0.756915 0.000000 -0.653513
vn -0.184796 -0.000000 0.982777
vn -0.372011 -0.000000 0.928228
vn -0.564583 -0.000000 0.825376
vn -0.756823 -0.000000 0.653620
vn -0.925482 -0.000000 0.378793
vn -0.999993 0.000000 -0.003800
vn -0.923328 0.000000 -0.384012
vn -0.756958 0.000000 -0.653464
vn 0.000000 -0.000000 1.000000
vn -0.228488 -0.000000 0.973547
vn -0.462310 -0.000000 0.886719
vn -0.681095 -0.000000 0.732195
vn -0.858550 -0.000000 0.512730
vn -0.992481 -0.000000 0.122398
vn -0.981376 0.000000 -0.192095
vn -0.913733 0.000000 -0.406315
vn -0.756915 0.000000 -0.653513
vn -0.756774 -0.000000 0.653677
vn -0.661522 -0.000000 0.749925
vn -0.564583 -0.000000 0.825376
vn -0.661522 -0.000000 0.749925
vn -0.925482 -0.000000 0.378793
vn -0.847807 -0.000000 0.530305
vn -0.847807 -0.000000 0.530305
vn -0.999993 -0.000100 -0.003800
vn -0.979960 -0.000000 0.199192
vn -0.979960 -0.000000 0.199192
vn -0.923328 0.000000 -0.384012
vn -0.979116 0.000000 -0.203303
vn -0.979116 0.000000 -0.203303
vn -0.756958 0.000000 -0.653464
vn -0.846037 0.000000 -0.533124
vn -0.845992 0.000000 -0.533195
vn -0.659983 0.000000 -0.751281
vn -0.659983 0.000000 -0.751281
vn -0.756915 0.000000 -0.653513
vn -0.913733 0.000000 -0.406315
vn -0.981376 0.000000 -0.192095
vn -0.992481 -0.000000 0.122398
vn -0.858576 -0.000000 0.512686
vn -0.681095 -0.000000 0.732195
vn -0.462310 -0.000000 0.886719
vn -0.228488 -0.000000 0.973547
vn -0.659983 0.000000 -0.751281
vn -0.756915 0.000000 -0.653513
vn -0.659983 0.000000 -0.751281
vn -0.846037 0.000000 -0.533124
vn -0.923328 0.000000 -0.384012
vn -0.845992 0.000000 -0.533195
vn -0.979116 0.000000 -0.203303
vn -0.999993 0.000000 -0.003800
vn -0.979096 0.000000 -0.203399
vn -0.979960 -0.000000 0.199192
vn -0.925482 -0.000000 0.378793
vn -0.979960 -0.000000 0.199192
vn -0.847807 -0.000000 0.530305
vn -0.756823 -0.000000 0.653620
vn -0.847807 -0.000000 0.530305
vn -0.661522 -0.000000 0.749925
vn -0.564583 -0.000000 0.825376
vn -0.661579 -0.000000 0.749876
vn 0.000000 -0.000000 1.000000
vn 0.000000 -0.000000 1.000000
vn -0.000100 -0.000000 1.000000
vn 0.000000 -0.000000 1.000000
vn -0.561787 0.000000 -0.827282
vn -0.561672 0.000000 -0.827360
vn -0.561787 0.000000 -0.827282
vn -0.561672 0.000000 -0.827360
vn 0.803371 -0.000000 0.595479
vn 0.803371 -0.000000 0.595479
vn 0.803371 -0.000000 0.595479
vn 0.803371 -0.000000 0.595479
vn 0.803371 -0.000000 0.595479
vn 0.803371 -0.000000 0.595479
vn 0.803371 -0.000000 0.595479
vn 0.803371 -0.000000 0.595479
vn 0.803371 -0.000000 0.595479
vn 0.803371 -0.000000 0.595479
vn 0.803371 -0.000000 0.595479
vn 0.803371 -0.000000 0.595479
vn 0.803371 -0.000000 0.595479
vn 0.803371 -0.000000 0.595479
vn 0.803371 -0.000000 0.595479
vn 0.803371 -0.000000 0.595479
vn 0.803371 -0.000000 0.595479
vn 0.803371 -0.000000 0.595479
vn 0.803371 -0.000000 0.595479
vn 0.803371 -0.000000 0.595479
vn 0.803371 -0.000000 0.595479
vn 0.803371 -0.000000 0.595479
vn 0.803371 -0.000000 0.595479
vn 0.803371 -0.000000 0.595479
vn -0.803371 0.000000 -0.595479
vn 0.803336 -0.000000 0.595527
vn 0.527786 -0.000000 0.849377
vn 0.147005 -0.000000 0.989136
vn -0.257986 -0.000000 0.966149
vn -0.595479 -0.000000 0.803371
vn -0.849422 -0.000000 0.527714
vn -0.989136 -0.000000 0.147005
vn -0.966149 0.000000 -0.257986
vn -0.966142 0.000000 -0.258011
vn -0.989136 -0.000000 0.147005
vn -0.849422 -0.000000 0.527714
vn -0.595479 -0.000000 0.803371
vn -0.257986 -0.000000 0.966149
vn 0.147005 -0.000000 0.989136
vn 0.527786 -0.000000 0.849377
vn 0.803336 -0.000000 0.595527
vn 0.803336 -0.000000 0.595527
vn -0.803371 0.000000 -0.595479
vn -0.803371 0.000000 -0.595479
vn -0.803371 0.000000 -0.595479
vn -0.803371 0.000000 -0.595479
vn -0.803371 0.000000 -0.595479
vn -0.803371 0.000000 -0.595479
vn -0.803371 0.000000 -0.595479
vn -0.803371 0.000000 -0.595479
vn -0.803371 0.000000 -0.595479
vn -0.803371 0.000000 -0.595479
vn -0.803371 0.000000 -0.595479
vn -0.803371 0.000000 -0.595479
vn -0.803371 0.000000 -0.595479
vn -0.803371 0.000000 -0.595479
vn -0.803371 0.000000 -0.595479
vn -0.803371 0.000000 -0.595479
vn -0.803371 0.000000 -0.595479
vn -0.803371 0.000000 -0.595479
vn -0.803371 0.000000 -0.595479
vn -0.803371 0.000000 -0.595479
vn -0.803371 0.000000 -0.595479
vn -0.803371 0.000000 -0.595479
vn -0.803371 0.000000 -0.595479
vn -0.803371 0.000000 -0.595479
vn -0.803371 0.000000 -0.595479
vn -0.803371 0.000000 -0.595479
vn -0.803336 0.000000 -0.595527
vn 0.803371 -0.000000 0.595479
vn -0.803336 0.000000 -0.595527
vn -0.527714 0.000000 -0.849422
vn -0.147005 0.000000 -0.989136
vn 0.257986 0.000000 -0.966149
vn 0.595479 0.000000 -0.803371
vn 0.849422 0.000000 -0.527714
vn 0.989136 0.000000 -0.147005
vn 0.966149 -0.000000 0.257986
vn 0.803371 -0.000000 0.595479
vn 0.966149 -0.000000 0.257986
vn 0.989136 0.000000 -0.147005
vn 0.849422 0.000000 -0.527714
vn 0.595479 0.000000 -0.803371
vn 0.257986 0.000000 -0.966149
vn -0.147005 0.000000 -0.989136
vn -0.527714 0.000000 -0.849422
vn -0.803336 0.000000 -0.595527
vn 0.803371 -0.000000 0.595479
vn 0.000000 0.000000 -1.000000
vn 1.000000 0.000000 0.000000
vn 0.000000 -0.000000 1.000000
vn 0.000000 -0.000000 1.000000
vn -0.368095 -0.000000 0.929788
vn -0.707107 -0.000000 0.707107
vn -0.929788 -0.000000 0.368095
vn -1.000000 0.000000 0.000000
vn -0.929788 0.000000 -0.368095
vn -0.707107 0.000000 -0.707107
vn -0.368095 0.000000 -0.929788
vn 0.000000 0.000000 -1.000000
vn 0.368095 0.000000 -0.929788
vn 0.707107 0.000000 -0.707107
vn 0.929788 0.000000 -0.368095
vn 1.000000 0.000000 0.000000
vn 0.929788 -0.000000 0.368095
vn 0.707107 -0.000000 0.707107
vn 0.368095 -0.000000 0.929788
vn 0.000000 -0.000000 1.000000
vn 0.368095 -0.000000 0.929788
vn 0.707107 -0.000000 0.707107
vn 0.929788 -0.000000 0.368095
vn 0.929788 0.000000 -0.368095
vn 0.707107 0.000000 -0.707107
vn 0.368095 0.000000 -0.929788
vn -0.368095 0.000000 -0.929788
vn -0.707107 0.000000 -0.707107
vn -0.929788 0.000000 -0.368095
vn -1.000000 0.000000 0.000000
vn -0.929788 -0.000000 0.368095
vn -0.707107 -0.000000 0.707107
vn -0.368095 -0.000000 0.929788
vn 0.000000 -0.000000 1.000000
vn 0.000000 -0.000000 1.000000
vn 0.000000 -0.000000 1.000000
vn 0.000000 -0.000000 1.000000
vn 0.000000 -0.000000 1.000000
vn 0.000000 -0.000000 1.000000
vn 0.000000 0.000000 -1.000000
vn 0.000000 0.000000 -1.000000
vn 0.000000 0.000000 -1.000000
vn 0.000000 0.000000 -1.000000
vn 0.000000 0.000000 -1.000000
vn 1.000000 0.000000 0.000000
vn 1.000000 0.000000 0.000000
vn 1.000000 0.000000 0.000000
vn 1.000000 0.000000 0.000000
vn 0.999999 0.000000 -0.001700
vn 0.999999 0.000000 -0.001700
vn 0.999999 0.000000 -0.001700
vn 0.999999 0.000000 -0.001700
vn 0.999999 0.000000 -0.001700
vn 0.999999 0.000000 -0.001700
f 2//2 1//1 7//7
f 9//9 2//2 4//4
f 9//9 4//4 5//5
f 4//4 2//2 7//7
f 6//6 8//8 5//5
f 5//5 8//8 9//9
f 3//3 4//4 7//7
f 14//14 11//11 10//10
f 13//13 14//14 12//12
f 11//11 14//14 13//13
f 19//19 16//16 15//15
f 18//18 19//19 17//17
f 15//15 17//17 19//19
f 20//20 24//24 25//25
f 20//20 25//25 21//21
f 23//23 25//25 24//24
f 23//23 24//24 22//22
f 30//30 27//27 26//26
f 29//29 30//30 28//28
f 27//27 30//30 29//29
f 32//32 31//31 33//33
f 32//32 33//33 34//34
f 39//39 36//36 35//35
f 38//38 39//39 37//37
f 35//35 37//37 39//39
f 40//40 44//44 45//45
f 40//40 45//45 41//41
f 43//43 45//45 44//44
f 43//43 44//44 42//42
f 50//50 47//47 46//46
f 49//49 50//50 48//48
f 47//47 50//50 49//49
f 57//57 52//52 51//51
f 53//53 52//52 55//55
f 53//53 55//55 56//56
f 55//55 57//57 54//54
f 57//57 55//55 52//52
f 71//71 73//73 74//74
f 71//71 74//74 72//72
f 75//75 71//71 72//72
f 75//75 72//72 76//76
f 73//73 58//58 74//74
f 70//70 74//74 58//58
f 73//73 71//71 59//59
f 59//59 58//58 73//73
f 60//60 59//59 65//65
f 60//60 65//65 66//66
f 62//62 61//61 67//67
f 62//62 67//67 68//68
f 63//63 62//62 68//68
f 63//63 68//68 69//69
f 61//61 60//60 66//66
f 61//61 66//66 67//67
f 70//70 72//72 74//74
f 75//75 76//76 64//64
f 70//70 76//76 72//72
f 65//65 75//75 64//64
f 76//76 70//70 64//64
f 65//65 71//71 75//75
f 71//71 65//65 59//59
f 78//78 77//77 80//80
f 78//78 80//80 81//81
f 79//79 78//78 81//81
f 79//79 81//81 82//82
f 87//87 84//84 83//83
f 86//86 87//87 85//85
f 83//83 85//85 87//87
f 89//89 88//88 98//98
f 90//90 89//89 94//94
f 90//90 94//94 95//95
f 91//91 90//90 95//95
f 91//91 95//95 96//96
f 91//91 99//99 92//92
f 89//89 98//98 94//94
f 97//97 99//99 96//96
f 96//96 99//99 91//91
f 93//93 94//94 98//98
f 101//101 100//100 106//106
f 101//101 107//107 102//102
f 104//104 101//101 106//106
f 101//101 104//104 107//107
f 104//104 105//105 107//107
f 103//103 104//104 106//106
f 109//109 108//108 114//114
f 109//109 115//115 110//110
f 112//112 109//109 114//114
f 112//112 114//114 111//111
f 109//109 112//112 113//113
f 109//109 113//113 115//115
f 117//117 116//116 122//122
f 117//117 123//123 118//118
f 120//120 117//117 122//122
f 120//120 122//122 119//119
f 117//117 120//120 121//121
f 117//117 121//121 123//123
f 128//128 125//125 124//124
f 127//127 128//128 126//126
f 124//124 126//126 128//128
f 130//130 129//129 139//139
f 131//131 130//130 135//135
f 131//131 135//135 136//136
f 132//132 131//131 136//136
f 132//132 136//136 137//137
f 132//132 140//140 133//133
f 135//135 130//130 139//139
f 135//135 139//139 134//134
f 138//138 140//140 137//137
f 137//137 140//140 132//132
f 146//146 142//142 141//141
f 146//146 141//141 145//145
f 145//145 143//143 144//144
f 145//145 144//144 146//146
f 148//148 147//147 157//157
f 149//149 148//148 153//153
f 149//149 153//153 154//154
f 150//150 149//149 154//154
f 150//150 154//154 155//155
f 150//150 158//158 151//151
f 148//148 157//157 153//153
f 156//156 158//158 155//155
f 155//155 158//158 150//150
f 152//152 153//153 157//157
f 169//169 167//167 166//166
f 169//169 166//166 168//168
f 167//167 171//171 170//170
f 167//167 170//170 166//166
f 170//170 160//160 166//166
f 161//161 160//160 170//170
f 165//165 161//161 171//171
f 170//170 171//171 161//161
f 171//171 167//167 165//165
f 160//160 159//159 162//162
f 160//160 162//162 163//163
f 166//166 160//160 163//163
f 168//168 166//166 163//163
f 164//164 165//165 167//167
f 164//164 167//167 169//169
f 168//168 164//164 169//169
f 164//164 168//168 163//163
f 173//173 172//172 178//178
f 173//173 179//179 174//174
f 176//176 173//173 178//178
f 176//176 178//178 175//175
f 173//173 176//176 179//179
f 176//176 177//177 179//179
f 181//181 184//184 185//185
f 181//181 185//185 187//187
f 181//181 187//187 182//182
f 186//186 181//181 180//180
f 184//184 186//186 183//183
f 186//186 184//184 181//181
f 189//189 188//188 194//194
f 189//189 195//195 190//190
f 192//192 189//189 194//194
f 189//189 192//192 195//195
f 192//192 193//193 195//195
f 191//191 192//192 194//194
f 200//200 203//203 197//197
f 197//197 203//203 198//198
f 202//202 197//197 196//196
f 200//200 202//202 199//199
f 200//200 201//201 203//203
f 202//202 200//200 197//197
f 205//205 204//204 210//210
f 205//205 211//211 206//206
f 208//208 205//205 210//210
f 205//205 208//208 211//211
f 208//208 209//209 211//211
f 207//207 208//208 210//210
f 212//212 216//216 217//217
f 212//212 217//217 213//213
f 215//215 217//217 216//216
f 215//215 216//216 214//214
f 220//220 219//219 224//224
f 220//220 224//224 225//225
f 221//221 220//220 225//225
f 221//221 225//225 226//226
f 222//222 221//221 229//229
f 221//221 226//226 229//229
f 228//228 219//219 218//218
f 224//224 228//228 223//223
f 226//226 227//227 229//229
f 219//219 228//228 224//224
f 237//237 239//239 240//240
f 237//237 240//240 238//238
f 241//241 237//237 238//238
f 241//241 238//238 242//242
f 247//247 245//245 244//244
f 247//247 244//244 246//246
f 245//245 249//249 248//248
f 245//245 248//248 244//244
f 239//239 230//230 240//240
f 236//236 240//240 230//230
f 236//236 238//238 240//240
f 242//242 238//238 236//236
f 239//239 237//237 231//231
f 231//231 230//230 239//239
f 248//248 232//232 231//231
f 243//243 249//249 245//245
f 232//232 249//249 243//243
f 232//232 248//248 249//249
f 244//244 248//248 231//231
f 234//234 241//241 233//233
f 242//242 233//233 241//241
f 237//237 241//241 234//234
f 233//233 242//242 236//236
f 244//244 237//237 234//234
f 247//247 246//246 235//235
f 234//234 235//235 246//246
f 235//235 243//243 245//245
f 235//235 245//245 247//247
f 246//246 244//244 234//234
f 231//231 237//237 244//244
f 251//251 254//254 255//255
f 251//251 255//255 257//257
f 251//251 257//257 252//252
f 256//256 251//251 250//250
f 254//254 256//256 253//253
f 256//256 254//254 251//251
f 268//268 290//290 289//289
f 289//289 288//288 268//268
f 268//268 291//291 290//290
f 269//269 292//292 291//291
f 296//296 292//292 269//269
f 292//292 296//296 293//293
f 297//297 269//269 270//270
f 268//268 269//269 291//291
f 267//267 269//269 268//268
f 272//272 273//273 270//270
f 272//272 270//270 271//271
f 273//273 264//264 297//297
f 273//273 297//297 270//270
f 392//392 391//391 274//274
f 274//274 391//391 390//390
f 393//393 274//274 275//275
f 273//273 274//274 390//390
f 392//392 274//274 393//393
f 294//294 293//293 296//296
f 269//269 297//297 296//296
f 296//296 295//295 294//294
f 378//378 377//377 265//265
f 318//318 365//365 364//364
f 379//379 378//378 264//264
f 265//265 264//264 378//378
f 377//377 376//376 265//265
f 264//264 380//380 379//379
f 390//390 382//382 381//381
f 390//390 381//381 264//264
f 264//264 381//381 380//380
f 386//386 385//385 319//319
f 363//363 386//386 318//318
f 385//385 384//384 387//387
f 384//384 383//383 388//388
f 363//363 318//318 364//364
f 383//383 382//382 389//389
f 318//318 317//317 365//365
f 273//273 390//390 264//264
f 319//319 318//318 386//386
f 280//280 279//279 263//263
f 281//281 280//280 405//405
f 281//281 405//405 282//282
f 320//320 283//283 262//262
f 403//403 259//259 258//258
f 259//259 403//403 283//283
f 404//404 403//403 258//258
f 276//276 279//279 277//277
f 261//261 260//260 263//263
f 278//278 277//277 279//279
f 280//280 263//263 405//405
f 263//263 403//403 405//405
f 263//263 279//279 261//261
f 262//262 403//403 263//263
f 262//262 283//283 403//403
f 279//279 276//276 261//261
f 320//320 284//284 283//283
f 275//275 287//287 394//394
f 287//287 396//396 395//395
f 287//287 395//395 394//394
f 382//382 390//390 389//389
f 387//387 384//384 388//388
f 319//319 387//387 402//402
f 388//388 383//383 389//389
f 286//286 397//397 287//287
f 396//396 287//287 397//397
f 398//398 285//285 320//320
f 285//285 398//398 286//286
f 284//284 320//320 285//285
f 398//398 397//397 286//286
f 319//319 400//400 399//399
f 401//401 400//400 319//319
f 399//399 320//320 319//319
f 319//319 402//402 401//401
f 398//398 320//320 399//399
f 387//387 319//319 385//385
f 393//393 275//275 394//394
f 322//322 304//304 323//323
f 323//323 304//304 324//324
f 303//303 324//324 304//304
f 321//321 305//305 304//304
f 305//305 362//362 361//361
f 306//306 305//305 359//359
f 321//321 304//304 322//322
f 362//362 305//305 321//321
f 361//361 360//360 305//305
f 326//326 301//301 327//327
f 328//328 327//327 300//300
f 301//301 300//300 327//327
f 325//325 302//302 301//301
f 303//303 302//302 325//325
f 300//300 329//329 328//328
f 301//301 326//326 325//325
f 325//325 324//324 303//303
f 299//299 329//329 300//300
f 308//308 359//359 358//358
f 305//305 360//360 359//359
f 308//308 307//307 359//359
f 307//307 306//306 359//359
f 311//311 309//309 308//308
f 308//308 312//312 311//311
f 310//310 309//309 311//311
f 358//358 312//312 308//308
f 357//357 312//312 358//358
f 312//312 357//357 356//356
f 354//354 312//312 355//355
f 355//355 312//312 356//356
f 313//313 353//353 352//352
f 350//350 313//313 351//351
f 352//352 351//351 313//313
f 314//314 350//350 349//349
f 353//353 312//312 354//354
f 312//312 353//353 313//313
f 313//313 350//350 314//314
f 299//299 298//298 373//373
f 329//329 299//299 330//330
f 298//298 266//266 375//375
f 331//331 330//330 299//299
f 299//299 332//332 331//331
f 299//299 335//335 334//334
f 299//299 334//334 333//333
f 299//299 333//333 332//332
f 373//373 337//337 299//299
f 266//266 376//376 375//375
f 365//365 317//317 366//366
f 366//366 317//317 367//367
f 298//298 374//374 373//373
f 372//372 371//371 340//340
f 339//339 373//373 372//372
f 374//374 298//298 375//375
f 316//316 367//367 317//317
f 299//299 336//336 335//335
f 266//266 265//265 376//376
f 337//337 373//373 338//338
f 314//314 343//343 342//342
f 314//314 348//348 347//347
f 314//314 346//346 345//345
f 314//314 345//345 344//344
f 346//346 314//314 347//347
f 314//314 344//344 343//343
f 339//339 372//372 340//340
f 370//370 369//369 316//316
f 316//316 369//369 368//368
f 371//371 341//341 340//340
f 373//373 339//339 338//338
f 371//371 370//370 316//316
f 315//315 314//314 316//316
f 341//341 316//316 314//314
f 314//314 342//342 341//341
f 316//316 341//341 371//371
f 367//367 316//316 368//368
f 314//314 349//349 348//348
f 337//337 336//336 299//299
f 430//430 428//428 431//431
f 428//428 432//432 431//431
f 427//427 426//426 428//428
f 427//427 550//550 549//549
f 427//427 549//549 420//420
f 427//427 552//552 550//550
f 429//429 427//427 428//428
f 549//549 433//433 420//420
f 430//430 429//429 428//428
f 552//552 427//427 429//429
f 551//551 550//550 552//552
f 549//549 406//406 434//434
f 433//433 436//436 421//421
f 436//436 435//435 421//421
f 433//433 549//549 434//434
f 549//549 407//407 406//406
f 420//420 433//433 421//421
f 538//538 437//437 539//539
f 421//421 435//435 538//538
f 540//540 539//539 409//409
f 437//437 409//409 539//539
f 437//437 538//538 435//435
f 536//536 422//422 537//537
f 421//421 538//538 537//537
f 422//422 536//536 535//535
f 535//535 534//534 422//422
f 422//422 421//421 537//537
f 409//409 541//541 540//540
f 408//408 542//542 409//409
f 409//409 542//542 541//541
f 422//422 534//534 533//533
f 529//529 548//548 547//547
f 528//528 533//533 548//548
f 408//408 543//543 542//542
f 527//527 422//422 533//533
f 544//544 543//543 410//410
f 413//413 414//414 411//411
f 413//413 411//411 412//412
f 410//410 546//546 545//545
f 411//411 546//546 410//410
f 414//414 418//418 417//417
f 414//414 417//417 411//411
f 418//418 414//414 415//415
f 543//543 408//408 410//410
f 410//410 545//545 544//544
f 441//441 438//438 442//442
f 438//438 441//441 440//440
f 440//440 439//439 438//438
f 419//419 443//443 446//446
f 443//443 419//419 415//415
f 439//439 443//443 415//415
f 445//445 419//419 446//446
f 438//438 439//439 415//415
f 415//415 416//416 438//438
f 546//546 411//411 417//417
f 530//530 546//546 531//531
f 417//417 532//532 531//531
f 546//546 417//417 531//531
f 527//527 526//526 422//422
f 527//527 533//533 528//528
f 423//423 526//526 513//513
f 528//528 548//548 529//529
f 530//530 529//529 547//547
f 423//423 513//513 512//512
f 448//448 523//523 417//417
f 532//532 417//417 522//522
f 444//444 419//419 445//445
f 419//419 418//418 415//415
f 522//522 417//417 523//523
f 448//448 524//524 523//523
f 511//511 423//423 512//512
f 511//511 424//424 423//423
f 530//530 547//547 546//546
f 422//422 526//526 423//423
f 524//524 448//448 525//525
f 511//511 510//510 424//424
f 447//447 514//514 525//525
f 509//509 424//424 510//510
f 516//516 449//449 478//478
f 449//449 516//516 515//515
f 476//476 517//517 516//516
f 509//509 425//425 424//424
f 450//450 515//515 514//514
f 450//450 514//514 447//447
f 474//474 485//485 449//449
f 449//449 485//485 484//484
f 449//449 515//515 450//450
f 449//449 481//481 480//480
f 449//449 484//484 483//483
f 449//449 483//483 482//482
f 449//449 482//482 481//481
f 449//449 480//480 479//479
f 487//487 518//518 517//517
f 425//425 521//521 520//520
f 518//518 425//425 519//519
f 487//487 517//517 476//476
f 425//425 520//520 519//519
f 477//477 476//476 516//516
f 464//464 466//466 425//425
f 486//486 518//518 487//487
f 425//425 486//486 496//496
f 464//464 425//425 496//496
f 486//486 425//425 518//518
f 425//425 509//509 521//521
f 478//478 449//449 479//479
f 495//495 464//464 496//496
f 477//477 516//516 478//478
f 464//464 494//494 493//493
f 464//464 492//492 491//491
f 464//464 491//491 490//490
f 492//492 464//464 493//493
f 494//494 464//464 495//495
f 490//490 489//489 464//464
f 472//472 452//452 451//451
f 449//449 452//452 474//474
f 451//451 454//454 467//467
f 474//474 452//452 475//475
f 452//452 472//472 475//475
f 453//453 467//467 454//454
f 451//451 467//467 473//473
f 451//451 473//473 472//472
f 468//468 467//467 453//453
f 453//453 456//456 468//468
f 469//469 468//468 456//456
f 456//456 455//455 471//471
f 470//470 469//469 456//456
f 471//471 455//455 501//501
f 504//504 455//455 458//458
f 502//502 501//501 455//455
f 502//502 455//455 503//503
f 470//470 456//456 471//471
f 460//460 508//508 507//507
f 460//460 497//497 508//508
f 465//465 488//488 500//500
f 465//465 499//499 498//498
f 500//500 499//499 465//465
f 460//460 498//498 497//497
f 488//488 464//464 489//489
f 488//488 465//465 464//464
f 498//498 460//460 465//465
f 505//505 504//504 459//459
f 458//458 457//457 504//504
f 504//504 457//457 459//459
f 503//503 455//455 504//504
f 460//460 506//506 505//505
f 462//462 461//461 460//460
f 505//505 459//459 463//463
f 462//462 460//460 463//463
f 460//460 505//505 463//463
f 460//460 507//507 506//506
f 447//447 525//525 448//448
f 562//562 553//553 565//565
f 561//561 562//562 556//556
f 561//561 556//556 557//557
f 560//560 558//558 563//563
f 560//560 563//563 564//564
f 560//560 564//564 559//559
f 560//560 561//561 557//557
f 560//560 557//557 558//558
f 565//565 566//566 562//562
f 556//556 566//566 567//567
f 567//567 555//555 556//556
f 563//563 558//558 554//554
f 556//556 562//562 566//566
f 569//569 580//580 582//582
f 569//569 582//582 574//574
f 576//576 581//581 580//580
f 576//576 580//580 569//569
f 573//573 569//569 574//574
f 573//573 574//574 575//575
f 577//577 576//576 569//569
f 577//577 569//569 573//573
f 579//579 568//568 582//582
f 583//583 582//582 568//568
f 582//582 583//583 574//574
f 584//584 574//574 583//583
f 578//578 579//579 580//580
f 578//578 580//580 581//581
f 576//576 586//586 581//581
f 578//578 581//581 586//586
f 580//580 579//579 582//582
f 571//571 575//575 584//584
f 575//575 571//571 572//572
f 573//573 575//575 572//572
f 585//585 586//586 576//576
f 585//585 576//576 577//577
f 573//573 572//572 577//577
f 570//570 577//577 572//572
f 585//585 577//577 570//570
f 584//584 575//575 574//574
f 604//604 603//603 595//595
f 604//604 595//595 599//599
f 603//603 605//605 597//597
f 603//603 597//597 595//595
f 595//595 597//597 598//598
f 595//595 598//598 596//596
f 599//599 595//595 596//596
f 599//599 596//596 600//600
f 592//592 587//587 598//598
f 593//593 598//598 587//587
f 598//598 593//593 596//596
f 594//594 596//596 593//593
f 605//605 591//591 592//592
f 603//603 602//602 605//605
f 591//591 605//605 602//602
f 592//592 597//597 605//605
f 597//597 592//592 598//598
f 589//589 600//600 594//594
f 589//589 590//590 600//600
f 599//599 600//600 590//590
f 601//601 602//602 603//603
f 601//601 603//603 604//604
f 588//588 604//604 590//590
f 601//601 604//604 588//588
f 604//604 599//599 590//590
f 594//594 600//600 596//596
f 608//608 687//687 690//690
f 608//608 690//690 628//628
f 628//628 690//690 689//689
f 628//628 689//689 607//607
f 609//609 685//685 688//688
f 609//609 688//688 632//632
f 632//632 688//688 687//687
f 632//632 687//687 608//608
f 610//610 683//683 686//686
f 610//610 686//686 635//635
f 635//635 686//686 685//685
f 635//635 685//685 609//609
f 611//611 681//681 684//684
f 611//611 684//684 638//638
f 638//638 684//684 683//683
f 638//638 683//683 610//610
f 612//612 679//679 682//682
f 612//612 682//682 641//641
f 641//641 682//682 681//681
f 641//641 681//681 611//611
f 613//613 678//678 680//680
f 613//613 680//680 644//644
f 644//644 680//680 679//679
f 644//644 679//679 612//612
f 615//615 668//668 677//677
f 615//615 677//677 647//647
f 647//647 677//677 676//676
f 647//647 676//676 614//614
f 670//670 672//672 671//671
f 670//670 671//671 669//669
f 669//669 671//671 675//675
f 669//669 675//675 673//673
f 673//673 675//675 674//674
f 673//673 674//674 668//668
f 673//673 668//668 615//615
f 650//650 669//669 673//673
f 615//615 650//650 673//673
f 627//627 608//608 628//628
f 627//627 628//628 630//630
f 630//630 628//628 607//607
f 630//630 607//607 629//629
f 631//631 609//609 632//632
f 631//631 632//632 633//633
f 633//633 632//632 608//608
f 633//633 608//608 627//627
f 634//634 610//610 635//635
f 634//634 635//635 636//636
f 636//636 635//635 609//609
f 636//636 609//609 631//631
f 637//637 611//611 638//638
f 637//637 638//638 639//639
f 639//639 638//638 610//610
f 639//639 610//610 634//634
f 640//640 612//612 641//641
f 640//640 641//641 642//642
f 642//642 641//641 611//611
f 642//642 611//611 637//637
f 643//643 613//613 644//644
f 643//643 644//644 645//645
f 645//645 644//644 612//612
f 645//645 612//612 640//640
f 646//646 615//615 647//647
f 646//646 647//647 649//649
f 649//649 647//647 614//614
f 649//649 614//614 648//648
f 657//657 656//656 651//651
f 657//657 651//651 652//652
f 653//653 651//651 650//650
f 615//615 646//646 653//653
f 650//650 615//615 653//653
f 652//652 651//651 653//653
f 652//652 653//653 655//655
f 655//655 653//653 646//646
f 655//655 646//646 654//654
f 689//689 667//667 606//606
f 667//667 689//689 690//690
f 689//689 606//606 691//691
f 687//687 667//667 690//690
f 665//665 666//666 685//685
f 665//665 685//685 686//686
f 663//663 664//664 681//681
f 663//663 681//681 682//682
f 664//664 665//665 683//683
f 664//664 683//683 684//684
f 687//687 688//688 667//667
f 667//667 688//688 666//666
f 666//666 688//688 685//685
f 691//691 692//692 607//607
f 691//691 607//607 689//689
f 665//665 686//686 683//683
f 664//664 684//684 681//681
f 679//679 663//663 682//682
f 677//677 674//674 661//661
f 675//675 660//660 674//674
f 661//661 674//674 660//660
f 661//661 662//662 678//678
f 661//661 678//678 676//676
f 672//672 658//658 659//659
f 659//659 675//675 671//671
f 659//659 671//671 672//672
f 675//675 659//659 660//660
f 694//694 658//658 672//672
f 694//694 672//672 670//670
f 662//662 663//663 679//679
f 662//662 679//679 680//680
f 676//676 678//678 613//613
f 676//676 613//613 614//614
f 662//662 680//680 678//678
f 674//674 677//677 668//668
f 694//694 670//670 650//650
f 670//670 669//669 650//650
f 661//661 676//676 677//677
f 617//617 629//629 692//692
f 618//618 627//627 630//630
f 630//630 629//629 618//618
f 619//619 631//631 633//633
f 620//620 634//634 636//636
f 620//620 639//639 634//634
f 636//636 631//631 619//619
f 633//633 627//627 618//618
f 618//618 619//619 633//633
f 620//620 621//621 639//639
f 619//619 620//620 636//636
f 621//621 642//642 637//637
f 640//640 642//642 622//622
f 621//621 622//622 642//642
f 645//645 640//640 622//622
f 637//637 639//639 621//621
f 617//617 618//618 629//629
f 614//614 613//613 643//643
f 614//614 643//643 648//648
f 648//648 643//643 623//623
f 648//648 623//623 624//624
f 643//643 645//645 623//623
f 694//694 650//650 693//693
f 650//650 656//656 693//693
f 654//654 646//646 649//649
f 651//651 656//656 650//650
f 649//649 648//648 624//624
f 625//625 655//655 654//654
f 649//649 624//624 654//654
f 654//654 624//624 625//625
f 625//625 626//626 652//652
f 625//625 652//652 655//655
f 616//616 657//657 626//626
f 652//652 626//626 657//657
f 616//616 693//693 656//656
f 616//616 656//656 657//657
f 623//623 645//645 622//622
f 629//629 607//607 692//692
f 699//699 695//695 700//700
f 696//696 699//699 704//704
f 699//699 703//703 704//704
f 701//701 699//699 700//700
f 698//698 701//701 697//697
f 702//702 703//703 698//698
f 698//698 703//703 699//699
f 701//701 698//698 699//699
f 774//774 773//773 724//724
f 706//706 771//771 774//774
f 724//724 706//706 774//774
f 771//771 775//775 777//777
f 771//771 777//777 774//774
f 774//774 777//777 776//776
f 774//774 776//776 773//773
f 773//773 776//776 779//779
f 773//773 779//779 778//778
f 707//707 769//769 772//772
f 707//707 772//772 733//733
f 733//733 772//772 771//771
f 733//733 771//771 706//706
f 708//708 767//767 770//770
f 708//708 770//770 736//736
f 736//736 770//770 769//769
f 736//736 769//769 707//707
f 709//709 766//766 768//768
f 709//709 768//768 739//739
f 739//739 768//768 767//767
f 739//739 767//767 708//708
f 711//711 762//762 765//765
f 711//711 765//765 742//742
f 742//742 765//765 764//764
f 742//742 764//764 710//710
f 712//712 760//760 763//763
f 712//712 763//763 746//746
f 746//746 763//763 762//762
f 746//746 762//762 711//711
f 713//713 759//759 761//761
f 713//713 761//761 749//749
f 749//749 761//761 760//760
f 749//749 760//760 712//712
f 729//729 723//723 730//730
f 729//729 730//730 731//731
f 731//731 730//730 725//725
f 731//731 725//725 726//726
f 730//730 723//723 706//706
f 724//724 725//725 730//730
f 706//706 724//724 730//730
f 726//726 725//725 727//727
f 726//726 727//727 728//728
f 732//732 707//707 733//733
f 732//732 733//733 734//734
f 734//734 733//733 706//706
f 734//734 706//706 723//723
f 735//735 708//708 736//736
f 735//735 736//736 737//737
f 737//737 736//736 707//707
f 737//737 707//707 732//732
f 738//738 709//709 739//739
f 738//738 739//739 740//740
f 740//740 739//739 708//708
f 740//740 708//708 735//735
f 741//741 711//711 742//742
f 741//741 742//742 744//744
f 744//744 742//742 710//710
f 744//744 710//710 743//743
f 745//745 712//712 746//746
f 745//745 746//746 747//747
f 747//747 746//746 711//711
f 747//747 711//711 741//741
f 748//748 713//713 749//749
f 748//748 749//749 750//750
f 750//750 749//749 712//712
f 750//750 712//712 745//745
f 779//779 758//758 780//780
f 758//758 779//779 776//776
f 780//780 781//781 778//778
f 780//780 778//778 779//779
f 757//757 758//758 776//776
f 757//757 776//776 777//777
f 757//757 775//775 756//756
f 757//757 777//777 775//775
f 755//755 756//756 769//769
f 755//755 769//769 770//770
f 724//724 773//773 778//778
f 778//778 781//781 724//724
f 782//782 724//724 781//781
f 772//772 775//775 771//771
f 772//772 769//769 756//756
f 772//772 756//756 775//775
f 767//767 755//755 770//770
f 754//754 755//755 767//767
f 754//754 767//767 768//768
f 754//754 768//768 766//766
f 753//753 754//754 766//766
f 753//753 766//766 764//764
f 752//752 753//753 765//765
f 752//752 765//765 762//762
f 751//751 759//759 705//705
f 751//751 752//752 763//763
f 751//751 763//763 760//760
f 753//753 764//764 765//765
f 764//764 766//766 709//709
f 764//764 709//709 710//710
f 785//785 759//759 713//713
f 705//705 759//759 785//785
f 751//751 761//761 759//759
f 751//751 760//760 761//761
f 752//752 762//762 763//763
f 724//724 727//727 725//725
f 728//728 727//727 782//782
f 717//717 732//732 734//734
f 718//718 735//735 737//737
f 737//737 732//732 718//718
f 734//734 723//723 729//729
f 715//715 726//726 728//728
f 728//728 714//714 715//715
f 714//714 728//728 782//782
f 715//715 716//716 731//731
f 715//715 731//731 726//726
f 716//716 729//729 731//731
f 729//729 716//716 717//717
f 717//717 718//718 732//732
f 729//729 717//717 734//734
f 740//740 735//735 718//718
f 710//710 709//709 738//738
f 710//710 738//738 743//743
f 743//743 738//738 719//719
f 743//743 719//719 720//720
f 738//738 740//740 719//719
f 785//785 713//713 784//784
f 713//713 748//748 784//784
f 720//720 741//741 744//744
f 744//744 743//743 720//720
f 741//741 720//720 721//721
f 741//741 721//721 747//747
f 745//745 747//747 721//721
f 722//722 750//750 745//745
f 783//783 748//748 722//722
f 750//750 722//722 748//748
f 784//784 748//748 783//783
f 722//722 745//745 721//721
f 719//719 740//740 718//718
f 727//727 724//724 782//782
f 797//797 799//799 800//800
f 797//797 800//800 798//798
f 801//801 797//797 798//798
f 801//801 798//798 802//802
f 810//810 808//808 807//807
f 810//810 807//807 809//809
f 808//808 812//812 811//811
f 808//808 811//811 807//807
f 793//793 794//794 800//800
f 793//793 800//800 799//799
f 795//795 800//800 794//794
f 795//795 798//798 800//800
f 795//795 796//796 802//802
f 795//795 802//802 798//798
f 799//799 797//797 792//792
f 792//792 793//793 799//799
f 811//811 791//791 792//792
f 812//812 786//786 791//791
f 786//786 812//812 806//806
f 812//812 808//808 805//805
f 812//812 805//805 806//806
f 811//811 812//812 791//791
f 807//807 811//811 792//792
f 787//787 802//802 796//796
f 801//801 802//802 788//788
f 787//787 788//788 802//802
f 801//801 788//788 789//789
f 797//797 801//801 789//789
f 792//792 789//789 807//807
f 808//808 810//810 804//804
f 808//808 804//804 805//805
f 810//810 809//809 790//790
f 789//789 790//790 809//809
f 804//804 810//810 803//803
f 790//790 803//803 810//810
f 809//809 807//807 789//789
f 797//797 789//789 792//792
f 817//817 878//878 882//882
f 817//817 882//882 880//880
f 880//880 882//882 881//881
f 880//880 881//881 816//816
f 818//818 875//875 879//879
f 818//818 879//879 877//877
f 877//877 879//879 878//878
f 877//877 878//878 817//817
f 819//819 872//872 876//876
f 819//819 876//876 874//874
f 874//874 876//876 875//875
f 874//874 875//875 818//818
f 820//820 869//869 873//873
f 820//820 873//873 871//871
f 871//871 873//873 872//872
f 871//871 872//872 819//819
f 821//821 866//866 870//870
f 821//821 870//870 868//868
f 868//868 870//870 869//869
f 868//868 869//869 820//820
f 865//865 867//867 866//866
f 865//865 866//866 821//821
f 823//823 815//815 814//814
f 823//823 814//814 822//822
f 824//824 816//816 815//815
f 824//824 815//815 823//823
f 840//840 825//825 817//817
f 840//840 817//817 880//880
f 880//880 816//816 824//824
f 880//880 824//824 840//840
f 844//844 826//826 818//818
f 844//844 818//818 877//877
f 877//877 817//817 825//825
f 877//877 825//825 844//844
f 847//847 827//827 819//819
f 847//847 819//819 874//874
f 874//874 818//818 826//826
f 874//874 826//826 847//847
f 850//850 828//828 820//820
f 850//850 820//820 871//871
f 871//871 819//819 827//827
f 871//871 827//827 850//850
f 853//853 829//829 821//821
f 853//853 821//821 868//868
f 868//868 820//820 828//828
f 868//868 828//828 853//853
f 839//839 825//825 840//840
f 839//839 840//840 842//842
f 842//842 840//840 824//824
f 842//842 824//824 841//841
f 843//843 826//826 844//844
f 843//843 844//844 845//845
f 845//845 844//844 825//825
f 845//845 825//825 839//839
f 846//846 827//827 847//847
f 846//846 847//847 848//848
f 848//848 847//847 826//826
f 848//848 826//826 843//843
f 849//849 828//828 850//850
f 849//849 850//850 851//851
f 851//851 850//850 827//827
f 851//851 827//827 846//846
f 852//852 829//829 853//853
f 852//852 853//853 854//854
f 854//854 853//853 828//828
f 854//854 828//828 849//849
f 856//856 855//855 829//829
f 856//856 829//829 852//852
f 863//863 864//864 814//814
f 863//863 814//814 815//815
f 815//815 881//881 863//863
f 861//861 862//862 878//878
f 861//861 878//878 879//879
f 862//862 881//881 882//882
f 881//881 862//862 863//863
f 882//882 878//878 862//862
f 884//884 864//864 883//883
f 885//885 814//814 884//884
f 815//815 816//816 881//881
f 860//860 861//861 875//875
f 860//860 875//875 876//876
f 861//861 879//879 875//875
f 814//814 864//864 884//884
f 859//859 860//860 872//872
f 859//859 872//872 873//873
f 876//876 872//872 860//860
f 857//857 858//858 870//870
f 857//857 870//870 866//866
f 873//873 869//869 858//858
f 873//873 858//858 859//859
f 813//813 857//857 866//866
f 813//813 866//866 867//867
f 858//858 869//869 870//870
f 813//813 867//867 890//890
f 865//865 890//890 867//867
f 890//890 865//865 889//889
f 865//865 855//855 888//888
f 865//865 888//888 889//889
f 865//865 821//821 829//829
f 865//865 829//829 855//855
f 822//822 885//885 886//886
f 823//823 822//822 831//831
f 823//823 831//831 832//832
f 841//841 824//824 823//823
f 833//833 842//842 841//841
f 832//832 841//841 823//823
f 831//831 822//822 886//886
f 842//842 833//833 839//839
f 832//832 833//833 841//841
f 834//834 845//845 839//839
f 834//834 835//835 848//848
f 834//834 848//848 843//843
f 845//845 834//834 843//843
f 834//834 839//839 833//833
f 830//830 831//831 886//886
f 835//835 846//846 848//848
f 836//836 851//851 846//846
f 856//856 888//888 855//855
f 849//849 851//851 836//836
f 849//849 836//836 837//837
f 835//835 836//836 846//846
f 849//849 837//837 854//854
f 837//837 838//838 852//852
f 837//837 852//852 854//854
f 838//838 856//856 852//852
f 856//856 838//838 887//887
f 888//888 856//856 887//887
f 885//885 822//822 814//814
f 909//909 911//911 912//912
f 909//909 912//912 910//910
f 913//913 909//909 910//910
f 913//913 910//910 914//914
f 904//904 902//902 901//901
f 904//904 901//901 903//903
f 902//902 906//906 905//905
f 902//902 905//905 901//901
f 898//898 907//907 912//912
f 898//898 912//912 911//911
f 908//908 910//910 912//912
f 897//897 898//898 911//911
f 908//908 912//912 907//907
f 909//909 897//897 911//911
f 905//905 896//896 897//897
f 906//906 891//891 896//896
f 900//900 906//906 902//902
f 891//891 906//906 900//900
f 896//896 905//905 906//906
f 901//901 905//905 897//897
f 894//894 897//897 909//909
f 894//894 909//909 913//913
f 892//892 914//914 908//908
f 893//893 913//913 914//914
f 914//914 892//892 893//893
f 913//913 893//893 894//894
f 897//897 894//894 903//903
f 897//897 903//903 901//901
f 899//899 904//904 895//895
f 903//903 895//895 904//904
f 899//899 900//900 902//902
f 899//899 902//902 904//904
f 895//895 903//903 894//894
f 914//914 910//910 908//908
f 929//929 930//930 917//917
f 929//929 917//917 918//918
f 927//927 928//928 919//919
f 927//927 919//919 920//920
f 926//926 927//927 920//920
f 926//926 920//920 921//921
f 928//928 929//929 918//918
f 928//928 918//918 919//919
f 924//924 925//925 922//922
f 924//924 922//922 923//923
f 915//915 924//924 934//934
f 924//924 923//923 933//933
f 924//924 933//933 934//934
f 925//925 926//926 921//921
f 925//925 921//921 922//922
f 932//932 930//930 931//931
f 917//917 932//932 916//916
f 932//932 917//917 930//930
f 946//946 948//948 949//949
f 946//946 949//949 947//947
f 950//950 946//946 947//947
f 950//950 947//947 951//951
f 956//956 954//954 953//953
f 956//956 953//953 955//955
f 954//954 958//958 957//957
f 954//954 957//957 953//953
f 944//944 935//935 949//949
f 945//945 949//949 935//935
f 948//948 944//944 949//949
f 945//945 947//947 949//949
f 951//951 947//947 945//945
f 943//943 944//944 948//948
f 957//957 942//942 943//943
f 958//958 941//941 942//942
f 957//957 943//943 953//953
f 943//943 946//946 939//939
f 942//942 957//957 958//958
f 946//946 943//943 948//948
f 952//952 941//941 958//958
f 952//952 958//958 954//954
f 946//946 950//950 939//939
f 938//938 950//950 951//951
f 953//953 943//943 939//939
f 951//951 937//937 938//938
f 950//950 938//938 939//939
f 937//937 951//951 945//945
f 955//955 953//953 939//939
f 956//956 952//952 954//954
f 936//936 956//956 940//940
f 955//955 940//940 956//956
f 952//952 956//956 936//936
f 940//940 955//955 939//939
f 977//977 976//976 959//959
f 974//974 975//975 963//963
f 974//974 963//963 964//964
f 975//975 976//976 962//962
f 975//975 962//962 963//963
f 973//973 974//974 964//964
f 973//973 964//964 965//965
f 972//972 973//973 965//965
f 972//972 965//965 966//966
f 970//970 971//971 967//967
f 970//970 967//967 968//968
f 970//970 978//978 969//969
f 971//971 972//972 966//966
f 971//971 966//966 967//967
f 962//962 976//976 977//977
f 970//970 968//968 978//978
f 978//978 968//968 960//960
f 961//961 962//962 977//977
f 1011//1011 1012//1012 982//982
f 1011//1011 982//982 983//983
f 1009//1009 1010//1010 984//984
f 1009//1009 984//984 985//985
f 1010//1010 1011//1011 983//983
f 1010//1010 983//983 984//984
f 1007//1007 1008//1008 986//986
f 1007//1007 986//986 987//987
f 1005//1005 1006//1006 988//988
f 1005//1005 988//988 989//989
f 1006//1006 1007//1007 987//987
f 1006//1006 987//987 988//988
f 1008//1008 1009//1009 985//985
f 1008//1008 985//985 986//986
f 1004//1004 979//979 990//990
f 1004//1004 990//990 991//991
f 1002//1002 1003//1003 992//992
f 1002//1002 992//992 993//993
f 1003//1003 1004//1004 991//991
f 1003//1003 991//991 992//992
f 1001//1001 980//980 994//994
f 1001//1001 994//994 995//995
f 999//999 1000//1000 996//996
f 999//999 996//996 997//997
f 981//981 999//999 997//997
f 981//981 997//997 998//998
f 1000//1000 1001//1001 995//995
f 1000//1000 995//995 996//996
f 980//980 1002//1002 993//993
f 980//980 993//993 994//994
f 979//979 1005//1005 989//989
f 979//979 989//989 990//990
f 1016//1016 1013//1013 1017//1017
f 1015//1015 1016//1016 1014//1014
f 1017//1017 1014//1014 1016//1016
f 1020//1020 1022//1022 1019//1019
f 1018//1018 1020//1020 1021//1021
f 1022//1022 1020//1020 1018//1018
f 1024//1024 1023//1023 1026//1026
f 1024//1024 1026//1026 1025//1025
f 1031//1031 1032//1032 1030//1030
f 1031//1031 1030//1030 1027//1027
f 1029//1029 1030//1030 1032//1032
f 1029//1029 1032//1032 1028//1028
