# arm_16 exported from /models/landings/arm_16.glb
# units: meters
v -0.001767 0.001000 -0.008732
v -0.002664 0.001000 -0.011395
v 0.001989 0.001000 -0.014586
v 0.009372 0.001000 -0.011736
v -0.001727 0.001000 -0.008380
v -0.000064 0.001000 0.001530
v 0.014078 0.001000 0.005479
v 0.007193 0.001000 0.018884
v 0.019066 0.001000 0.029595
v 0.024093 0.001000 0.024493
v 0.024741 0.001000 0.024972
v 0.025605 0.001000 0.025157
v 0.028000 0.001000 0.031835
v 0.029989 0.001000 0.027049
v 0.026465 0.001000 0.024951
v 0.029989 0.001000 0.026959
v 0.027101 0.001000 0.024457
v 0.029989 0.001000 0.024959
v 0.027584 0.001000 0.023851
v 0.031989 0.001000 0.027049
v 0.031989 0.001000 0.026959
v 0.042464 0.001000 0.027428
v 0.031989 0.001000 0.025708
v 0.006793 0.001000 -0.017973
v 0.001989 0.001000 -0.023069
v -0.000011 0.001000 -0.014586
v -0.004664 0.001000 -0.013687
v -0.007411 0.001000 -0.014995
v -0.000011 0.001000 -0.024343
v -0.006103 0.001000 -0.026458
v -0.012432 0.001000 -0.026434
v -0.010217 0.001000 -0.015142
v -0.012716 0.001000 -0.014335
v -0.020211 0.001000 -0.023193
v -0.025823 0.001000 -0.016908
v -0.014927 0.001000 -0.012551
v -0.016324 0.001000 -0.010045
v -0.028165 0.001000 -0.008813
v -0.016689 0.001000 -0.007372
v -0.013580 0.001000 0.005776
v -0.024044 0.001000 0.004145
v -0.026776 0.001000 -0.000502
v -0.020050 0.001000 0.007884
v -0.015292 0.001000 0.010284
v -0.010387 0.001000 0.011251
v 0.029989 -0.001000 0.027049
v 0.029989 0.001000 0.027049
v 0.029989 -0.001000 0.024959
v 0.029989 0.001000 0.024959
v 0.031989 -0.001000 0.027049
v 0.031989 0.001000 0.027049
v 0.029989 -0.001000 0.027049
v 0.029989 0.001000 0.027049
v 0.031989 -0.001000 0.025708
v 0.031989 0.001000 0.025708
v 0.031989 -0.001000 0.027049
v 0.031989 0.001000 0.027049
v 0.042464 -0.001000 0.027428
v 0.042464 0.001000 0.027428
v 0.037209 -0.001000 0.027004
v 0.031989 -0.001000 0.025708
v 0.037209 0.001000 0.027004
v 0.031989 0.001000 0.025708
v 0.029989 -0.001000 0.024959
v 0.029989 0.001000 0.024959
v 0.027584 -0.000000 0.023851
v 0.027584 -0.001000 0.023851
v 0.027584 0.001000 0.023851
v 0.027584 -0.001000 0.023851
v 0.027584 -0.000000 0.023851
v 0.027101 -0.001000 0.024457
v 0.027101 -0.000000 0.024457
v 0.027101 0.001000 0.024457
v 0.027584 0.001000 0.023851
v 0.009372 0.001000 -0.011736
v 0.010492 -0.000000 -0.007361
v 0.010492 0.001000 -0.007361
v 0.009372 -0.001000 -0.011736
v 0.010492 -0.001000 -0.007361
v 0.011788 -0.001000 -0.002458
v 0.011788 -0.000000 -0.002458
v 0.014648 -0.001000 0.007293
v 0.014648 0.001000 0.007293
v 0.018394 -0.000000 0.016399
v 0.018394 -0.001000 0.016399
v 0.020862 -0.000500 0.020424
v 0.020862 -0.001000 0.020424
v 0.022371 -0.001000 0.022454
v 0.022371 -0.000500 0.022454
v 0.024093 -0.001000 0.024493
v 0.024093 -0.000000 0.024493
v 0.022371 0.000500 0.022454
v 0.022371 -0.000000 0.022454
v 0.024093 0.001000 0.024493
v 0.022371 0.001000 0.022454
v 0.020862 0.001000 0.020424
v 0.018394 0.001000 0.016399
v 0.020862 0.000500 0.020424
v 0.020862 -0.000000 0.020424
v 0.011788 0.001000 -0.002458
v 0.001989 -0.001000 -0.023069
v 0.001989 0.001000 -0.023069
v 0.001989 -0.001000 -0.014586
v 0.001989 0.001000 -0.014586
v -0.000011 -0.001000 -0.014586
v -0.000011 0.001000 -0.014586
v -0.000011 -0.001000 -0.024343
v -0.000011 0.001000 -0.024343
v 0.001989 -0.001000 -0.014586
v 0.001989 0.001000 -0.014586
v -0.000011 -0.001000 -0.014586
v -0.000011 0.001000 -0.014586
v -0.010387 0.001000 0.011251
v -0.012980 0.001000 0.007009
v -0.012980 -0.000000 0.007009
v -0.010387 -0.001000 0.011251
v -0.012980 -0.001000 0.007009
v -0.014919 -0.001000 0.002407
v -0.014919 -0.000000 0.002407
v -0.016154 -0.000500 -0.002411
v -0.016154 -0.001000 -0.002411
v -0.016509 -0.001000 -0.004878
v -0.016689 -0.001000 -0.007372
v -0.016509 -0.000500 -0.004878
v -0.016509 -0.000000 -0.004878
v -0.016689 -0.000000 -0.007372
v -0.016689 0.001000 -0.007372
v -0.016509 0.000500 -0.004878
v -0.016509 0.001000 -0.004878
v -0.016154 0.000500 -0.002411
v -0.016154 -0.000000 -0.002411
v -0.014919 0.001000 0.002407
v -0.016154 0.001000 -0.002411
v 0.009372 -0.001000 -0.011736
v 0.007855 -0.001000 -0.016092
v 0.009372 0.001000 -0.011736
v 0.007855 0.001000 -0.016092
v 0.005318 0.001000 -0.019971
v 0.005318 -0.001000 -0.019971
v 0.001989 0.001000 -0.023069
v 0.001989 -0.001000 -0.023069
v -0.010387 -0.001000 0.011251
v -0.017611 -0.001000 0.009324
v -0.010387 0.001000 0.011251
v -0.017611 0.001000 0.009324
v -0.023738 0.001000 0.004518
v -0.023738 -0.001000 0.004518
v -0.027383 0.001000 -0.002209
v -0.027383 -0.001000 -0.002209
v -0.028113 0.001000 -0.009497
v -0.028113 -0.001000 -0.009497
v -0.026041 0.001000 -0.016501
v -0.026041 -0.001000 -0.016501
v -0.021083 0.001000 -0.022534
v -0.021083 -0.001000 -0.022534
v -0.014304 0.001000 -0.026012
v -0.014304 -0.001000 -0.026012
v -0.007190 0.001000 -0.026605
v -0.007190 -0.001000 -0.026605
v -0.000011 0.001000 -0.024343
v -0.000011 -0.001000 -0.024343
v 0.027101 0.001000 0.024457
v 0.026465 0.001000 0.024951
v 0.027101 -0.000000 0.024457
v 0.027101 -0.001000 0.024457
v 0.026465 -0.001000 0.024951
v 0.025605 -0.001000 0.025157
v 0.025605 0.001000 0.025157
v 0.024741 -0.001000 0.024972
v 0.024741 0.001000 0.024972
v 0.024093 -0.001000 0.024493
v 0.024093 -0.000000 0.024493
v 0.024093 0.001000 0.024493
v -0.016689 -0.001000 -0.007372
v -0.016689 -0.000000 -0.007372
v -0.016386 -0.001000 -0.009848
v -0.016386 0.001000 -0.009848
v -0.015227 -0.001000 -0.012172
v -0.015227 0.001000 -0.012172
v -0.013319 -0.001000 -0.013977
v -0.013319 0.001000 -0.013977
v -0.010994 -0.001000 -0.014993
v -0.010994 0.001000 -0.014993
v -0.008612 -0.001000 -0.015188
v -0.008612 0.001000 -0.015188
v -0.006096 -0.001000 -0.014540
v -0.006096 0.001000 -0.014540
v -0.004021 -0.001000 -0.013139
v -0.004021 0.001000 -0.013139
v -0.002489 -0.001000 -0.011066
v -0.002489 0.001000 -0.011066
v -0.001767 -0.000000 -0.008732
v -0.001767 -0.001000 -0.008732
v -0.001767 0.001000 -0.008732
v -0.016689 0.001000 -0.007372
v 0.042464 0.001000 0.027428
v 0.036322 -0.000000 0.030176
v 0.036322 0.001000 0.030176
v 0.042464 -0.001000 0.027428
v 0.036322 -0.001000 0.030176
v 0.031206 -0.001000 0.031545
v 0.031206 -0.000000 0.031545
v 0.019945 -0.001000 0.030017
v 0.010935 -0.001000 0.023647
v 0.019945 0.001000 0.030017
v 0.031206 0.001000 0.031545
v 0.010935 0.001000 0.023647
v 0.004205 0.001000 0.013789
v 0.004205 -0.001000 0.013789
v 0.000290 -0.000000 0.002998
v 0.000290 0.001000 0.002998
v -0.000864 0.000500 -0.002415
v -0.000864 0.001000 -0.002415
v -0.001350 0.001000 -0.005454
v -0.001350 0.000500 -0.005454
v -0.001767 0.001000 -0.008732
v -0.001767 -0.000000 -0.008732
v -0.001767 -0.001000 -0.008732
v -0.001350 -0.000000 -0.005454
v -0.001350 -0.000500 -0.005454
v -0.001350 -0.001000 -0.005454
v -0.000864 -0.000500 -0.002415
v -0.000864 -0.000000 -0.002415
v -0.000864 -0.001000 -0.002415
v 0.000290 -0.001000 0.002998
v -0.001767 -0.001000 -0.008732
v -0.002580 -0.001000 -0.011242
v 0.001989 -0.001000 -0.014586
v -0.001727 -0.001000 -0.008380
v 0.009372 -0.001000 -0.011736
v 0.006793 -0.001000 -0.017973
v -0.000064 -0.001000 0.001530
v 0.014078 -0.001000 0.005479
v 0.007193 -0.001000 0.018884
v 0.024093 -0.001000 0.024493
v 0.024741 -0.001000 0.024972
v 0.019066 -0.001000 0.029595
v 0.025605 -0.001000 0.025157
v 0.028000 -0.001000 0.031835
v 0.029989 -0.001000 0.027049
v 0.031989 -0.001000 0.027049
v 0.042464 -0.001000 0.027428
v 0.031989 -0.001000 0.026959
v 0.031989 -0.001000 0.025708
v 0.029989 -0.001000 0.026959
v 0.026465 -0.001000 0.024951
v 0.027101 -0.001000 0.024457
v 0.029989 -0.001000 0.024959
v 0.027584 -0.001000 0.023851
v 0.001989 -0.001000 -0.023069
v -0.000011 -0.001000 -0.014586
v -0.006697 -0.001000 -0.014783
v -0.000011 -0.001000 -0.024343
v -0.004322 -0.001000 -0.013411
v -0.006103 -0.001000 -0.026458
v -0.012432 -0.001000 -0.026434
v -0.009197 -0.001000 -0.015211
v -0.011958 -0.001000 -0.014685
v -0.020211 -0.001000 -0.023193
v -0.014500 -0.001000 -0.013015
v -0.025823 -0.001000 -0.016908
v -0.016170 -0.001000 -0.010472
v -0.028165 -0.001000 -0.008813
v -0.016697 -0.001000 -0.007711
v -0.016689 -0.001000 -0.007372
v -0.024168 -0.001000 0.003988
v -0.013580 -0.001000 0.005776
v -0.026776 -0.001000 -0.000502
v -0.020270 -0.001000 0.007729
v -0.015477 -0.001000 0.010221
v -0.010387 -0.001000 0.011251
vn 0.000000 1.000000 0.000000
vn 0.000000 1.000000 0.000000
vn 0.000000 1.000000 0.000000
vn 0.000000 1.000000 0.000000
vn 0.000000 1.000000 0.000000
vn 0.000000 1.000000 0.000000
vn 0.000000 1.000000 0.000000
vn 0.000000 1.000000 0.000000
vn 0.000000 1.000000 0.000000
vn 0.000000 1.000000 0.000000
vn 0.000000 1.000000 0.000000
vn 0.000000 1.000000 0.000000
vn 0.000000 1.000000 0.000000
vn 0.000000 1.000000 0.000000
vn 0.000000 1.000000 0.000000
vn 0.000000 1.000000 0.000000
vn 0.000000 1.000000 0.000000
vn 0.000000 1.000000 0.000000
vn 0.000000 1.000000 0.000000
vn 0.000000 1.000000 0.000000
vn 0.000000 1.000000 0.000000
vn 0.000000 1.000000 0.000000
vn 0.000000 1.000000 0.000000
vn 0.000000 1.000000 0.000000
vn 0.000000 1.000000 0.000000
vn 0.000000 1.000000 0.000000
vn 0.000000 1.000000 0.000000
vn 0.000000 1.000000 0.000000
vn 0.000000 1.000000 0.000000
vn 0.000000 1.000000 0.000000
vn 0.000000 1.000000 0.000000
vn 0.000000 1.000000 0.000000
vn 0.000000 1.000000 0.000000
vn 0.000000 1.000000 0.000000
vn 0.000000 1.000000 0.000000
vn 0.000000 1.000000 0.000000
vn 0.000000 1.000000 0.000000
vn 0.000000 1.000000 0.000000
vn 0.000000 1.000000 0.000000
vn 0.000000 1.000000 0.000000
vn 0.000000 1.000000 0.000000
vn 0.000000 1.000000 0.000000
vn 0.000000 1.000000 0.000000
vn 0.000000 1.000000 0.000000
vn 0.000000 1.000000 0.000000
vn 1.000000 0.000000 0.000000
vn 1.000000 0.000000 0.000000
vn 1.000000 0.000000 0.000000
vn 1.000000 0.000000 0.000000
vn 0.000000 0.000000 -1.000000
vn 0.000000 0.000000 -1.000000
vn 0.000000 0.000000 -1.000000
vn 0.000000 0.000000 -1.000000
vn -1.000000 0.000000 0.000000
vn -1.000000 0.000000 0.000000
vn -1.000000 0.000000 0.000000
vn -1.000000 0.000000 0.000000
vn -0.000300 0.000000 -1.000000
vn -0.000300 0.000000 -1.000000
vn 0.160506 0.000000 -0.987035
vn 0.319916 0.000000 -0.947446
vn 0.160506 0.000000 -0.987035
vn 0.319916 0.000000 -0.947446
vn 0.381112 0.000000 -0.924529
vn 0.381112 0.000000 -0.924529
vn 0.454678 0.000000 -0.890656
vn 0.454678 0.000000 -0.890656
vn 0.454678 0.000000 -0.890656
vn -0.802740 0.000000 -0.596330
vn -0.802775 0.000000 -0.596282
vn -0.759779 0.000000 -0.650182
vn -0.759779 0.000000 -0.650182
vn -0.759779 0.000000 -0.650182
vn -0.802740 0.000000 -0.596330
vn 0.968865 0.000000 -0.247591
vn 0.968219 0.000000 -0.250105
vn 0.968219 0.000000 -0.250105
vn 0.968865 0.000000 -0.247591
vn 0.968219 0.000000 -0.250105
vn 0.964987 0.000000 -0.262297
vn 0.964987 0.000000 -0.262297
vn 0.951650 0.000000 -0.307184
vn 0.951650 0.000000 -0.307184
vn 0.881282 0.000000 -0.472591
vn 0.881324 0.000000 -0.472513
vn 0.820601 0.000000 -0.571501
vn 0.820601 0.000000 -0.571501
vn 0.783981 0.000000 -0.620785
vn 0.783894 0.000000 -0.620895
vn 0.743990 0.000000 -0.668191
vn 0.743990 0.000000 -0.668191
vn 0.783981 0.000000 -0.620785
vn 0.783981 0.000000 -0.620785
vn 0.743990 0.000000 -0.668191
vn 0.783670 0.000000 -0.621177
vn 0.820601 0.000000 -0.571501
vn 0.881324 0.000000 -0.472513
vn 0.820601 0.000000 -0.571501
vn 0.820601 0.000000 -0.571501
vn 0.964987 0.000000 -0.262297
vn -1.000000 0.000000 0.000000
vn -1.000000 0.000000 0.000000
vn -1.000000 0.000000 0.000000
vn -1.000000 0.000000 0.000000
vn 1.000000 0.000000 0.000000
vn 1.000000 0.000000 0.000000
vn 1.000000 0.000000 0.000000
vn 1.000000 0.000000 0.000000
vn 0.000000 0.000000 -1.000000
vn 0.000000 0.000000 -1.000000
vn 0.000000 0.000000 -1.000000
vn 0.000000 0.000000 -1.000000
vn 0.811980 0.000000 -0.583686
vn 0.889882 0.000000 -0.456191
vn 0.889882 0.000000 -0.456191
vn 0.811980 0.000000 -0.583686
vn 0.889882 0.000000 -0.456191
vn 0.947890 0.000000 -0.318597
vn 0.947790 0.000000 -0.318897
vn 0.984120 0.000000 -0.177504
vn 0.984120 0.000000 -0.177504
vn 0.994226 0.000000 -0.107303
vn 0.999297 0.000000 -0.037500
vn 0.994226 0.000000 -0.107303
vn 0.994226 0.000000 -0.107303
vn 0.999297 0.000000 -0.037500
vn 0.999297 0.000000 -0.037500
vn 0.994226 0.000000 -0.107303
vn 0.994226 0.000000 -0.107303
vn 0.984120 0.000000 -0.177504
vn 0.984120 0.000000 -0.177504
vn 0.947890 0.000000 -0.318597
vn 0.984120 0.000000 -0.177504
vn 0.977292 0.000000 -0.211898
vn 0.897348 0.000000 -0.441324
vn 0.977292 0.000000 -0.211898
vn 0.897348 0.000000 -0.441324
vn 0.763917 0.000000 -0.645314
vn 0.763917 0.000000 -0.645314
vn 0.588790 0.000000 -0.808286
vn 0.588790 0.000000 -0.808286
vn -0.062702 -0.000000 0.998032
vn -0.442808 -0.000000 0.896616
vn -0.062702 -0.000000 0.998032
vn -0.442808 -0.000000 0.896616
vn -0.765287 -0.000000 0.643689
vn -0.765287 -0.000000 0.643689
vn -0.957116 -0.000000 0.289705
vn -0.957116 -0.000000 0.289705
vn -0.995554 0.000000 -0.094196
vn -0.995554 0.000000 -0.094196
vn -0.886553 0.000000 -0.462628
vn -0.886553 0.000000 -0.462628
vn -0.625621 0.000000 -0.780127
vn -0.625621 0.000000 -0.780127
vn -0.268799 0.000000 -0.963196
vn -0.268799 0.000000 -0.963196
vn 0.105700 0.000000 -0.994398
vn 0.105700 0.000000 -0.994398
vn 0.483400 0.000000 -0.875400
vn 0.483400 0.000000 -0.875400
vn -0.759687 0.000000 -0.650289
vn -0.441805 0.000000 -0.897111
vn -0.759687 0.000000 -0.650289
vn -0.759687 0.000000 -0.650289
vn -0.441805 0.000000 -0.897111
vn -0.012000 0.000000 -0.999928
vn -0.012000 0.000000 -0.999928
vn 0.420091 0.000000 -0.907482
vn 0.420091 0.000000 -0.907482
vn 0.743895 0.000000 -0.668296
vn 0.743895 0.000000 -0.668296
vn 0.743895 0.000000 -0.668296
vn 0.998978 0.000000 -0.045199
vn 0.998978 0.000000 -0.045199
vn 0.958588 -0.000000 0.284796
vn 0.958561 -0.000000 0.284888
vn 0.803883 -0.000000 0.594787
vn 0.803883 -0.000000 0.594787
vn 0.549613 -0.000000 0.835420
vn 0.549613 -0.000000 0.835420
vn 0.239593 -0.000000 0.970873
vn 0.239593 -0.000000 0.970873
vn -0.077996 -0.000000 0.996954
vn -0.077996 -0.000000 0.996954
vn -0.413419 -0.000000 0.910541
vn -0.413419 -0.000000 0.910541
vn -0.690107 -0.000000 0.723707
vn -0.690107 -0.000000 0.723707
vn -0.894347 -0.000000 0.447374
vn -0.894347 -0.000000 0.447374
vn -0.990695 -0.000000 0.136099
vn -0.990695 -0.000000 0.136099
vn -0.990695 -0.000000 0.136099
vn 0.998978 0.000000 -0.045199
vn 0.465915 -0.000000 0.884829
vn 0.337894 -0.000000 0.941184
vn 0.337894 -0.000000 0.941184
vn 0.465915 -0.000000 0.884829
vn 0.337894 -0.000000 0.941184
vn 0.163507 -0.000000 0.986542
vn 0.163507 -0.000000 0.986542
vn -0.418386 -0.000000 0.908269
vn -0.729104 -0.000000 0.684403
vn -0.418386 -0.000000 0.908269
vn 0.163507 -0.000000 0.986542
vn -0.729104 -0.000000 0.684403
vn -0.894187 -0.000000 0.447694
vn -0.894187 -0.000000 0.447694
vn -0.969498 -0.000000 0.245100
vn -0.969498 -0.000000 0.245100
vn -0.984638 -0.000000 0.174607
vn -0.984638 -0.000000 0.174607
vn -0.989923 -0.000000 0.141603
vn -0.989867 -0.000000 0.141995
vn -0.993809 -0.000000 0.111101
vn -0.993809 -0.000000 0.111101
vn -0.993809 -0.000000 0.111101
vn -0.989923 -0.000000 0.141603
vn -0.989867 -0.000000 0.141995
vn -0.989923 -0.000000 0.141603
vn -0.984638 -0.000000 0.174607
vn -0.984655 -0.000000 0.174510
vn -0.984638 -0.000000 0.174607
vn -0.969498 -0.000000 0.245100
vn 0.000000 -1.000000 -0.000000
vn 0.000000 -1.000000 -0.000000
vn 0.000000 -1.000000 -0.000000
vn 0.000000 -1.000000 -0.000000
vn 0.000000 -1.000000 -0.000000
vn 0.000000 -1.000000 -0.000000
vn 0.000000 -1.000000 -0.000000
vn 0.000000 -1.000000 -0.000000
vn 0.000000 -1.000000 -0.000000
vn 0.000000 -1.000000 -0.000000
vn 0.000000 -1.000000 -0.000000
vn 0.000000 -1.000000 -0.000000
vn 0.000000 -1.000000 -0.000000
vn 0.000000 -1.000000 -0.000000
vn 0.000000 -1.000000 -0.000000
vn 0.000000 -1.000000 -0.000000
vn 0.000000 -1.000000 -0.000000
vn 0.000000 -1.000000 -0.000000
vn 0.000000 -1.000000 -0.000000
vn 0.000000 -1.000000 -0.000000
vn 0.000000 -1.000000 -0.000000
vn 0.000000 -1.000000 -0.000000
vn 0.000000 -1.000000 -0.000000
vn 0.000000 -1.000000 -0.000000
vn 0.000000 -1.000000 -0.000000
vn 0.000000 -1.000000 -0.000000
vn 0.000000 -1.000000 -0.000000
vn 0.000000 -1.000000 -0.000000
vn 0.000000 -1.000000 -0.000000
vn 0.000000 -1.000000 -0.000000
vn 0.000000 -1.000000 -0.000000
vn 0.000000 -1.000000 -0.000000
vn 0.000000 -1.000000 -0.000000
vn 0.000000 -1.000000 -0.000000
vn 0.000000 -1.000000 -0.000000
vn 0.000000 -1.000000 -0.000000
vn 0.000000 -1.000000 -0.000000
vn 0.000000 -1.000000 -0.000000
vn 0.000000 -1.000000 -0.000000
vn 0.000000 -1.000000 -0.000000
vn 0.000000 -1.000000 -0.000000
vn 0.000000 -1.000000 -0.000000
vn 0.000000 -1.000000 -0.000000
vn 0.000000 -1.000000 -0.000000
vn 0.000000 -1.000000 -0.000000
vn 0.000000 -1.000000 -0.000000
f 2//2 1//1 3//3
f 3//3 1//1 4//4
f 1//1 5//5 4//4
f 4//4 5//5 6//6
f 7//7 4//4 6//6
f 7//7 6//6 8//8
f 10//10 8//8 9//9
f 10//10 7//7 8//8
f 9//9 11//11 10//10
f 9//9 12//12 11//11
f 13//13 12//12 9//9
f 14//14 12//12 13//13
f 14//14 15//15 12//12
f 17//17 15//15 16//16
f 15//15 14//14 16//16
f 16//16 18//18 17//17
f 18//18 19//19 17//17
f 20//20 14//14 13//13
f 13//13 22//22 20//20
f 20//20 22//22 21//21
f 22//22 23//23 21//21
f 4//4 24//24 3//3
f 24//24 25//25 3//3
f 2//2 3//3 26//26
f 26//26 27//27 2//2
f 27//27 26//26 28//28
f 26//26 29//29 28//28
f 29//29 30//30 28//28
f 31//31 32//32 30//30
f 32//32 28//28 30//30
f 32//32 34//34 33//33
f 34//34 32//32 31//31
f 35//35 36//36 34//34
f 33//33 34//34 36//36
f 37//37 36//36 35//35
f 35//35 38//38 37//37
f 38//38 39//39 37//37
f 39//39 41//41 40//40
f 42//42 41//41 39//39
f 39//39 38//38 42//42
f 41//41 43//43 40//40
f 43//43 44//44 40//40
f 44//44 45//45 40//40
f 47//47 46//46 48//48
f 47//47 48//48 49//49
f 51//51 50//50 52//52
f 51//51 52//52 53//53
f 55//55 54//54 56//56
f 55//55 56//56 57//57
f 59//59 58//58 60//60
f 59//59 60//60 62//62
f 61//61 63//63 62//62
f 61//61 62//62 60//60
f 65//65 64//64 66//66
f 65//65 66//66 68//68
f 64//64 67//67 66//66
f 69//69 71//71 72//72
f 69//69 72//72 70//70
f 70//70 72//72 73//73
f 70//70 73//73 74//74
f 75//75 76//76 78//78
f 76//76 75//75 77//77
f 79//79 78//78 76//76
f 80//80 79//79 76//76
f 80//80 76//76 81//81
f 82//82 80//80 81//81
f 82//82 83//83 84//84
f 83//83 82//82 81//81
f 84//84 85//85 82//82
f 85//85 84//84 86//86
f 86//86 87//87 85//85
f 88//88 87//87 86//86
f 88//88 86//86 89//89
f 89//89 90//90 88//88
f 89//89 91//91 90//90
f 93//93 92//92 91//91
f 94//94 91//91 92//92
f 94//94 92//92 95//95
f 89//89 93//93 91//91
f 92//92 98//98 96//96
f 92//92 96//96 95//95
f 97//97 96//96 98//98
f 84//84 97//97 98//98
f 98//98 99//99 84//84
f 93//93 99//99 98//98
f 93//93 98//98 92//92
f 84//84 99//99 86//86
f 89//89 86//86 99//99
f 89//89 99//99 93//93
f 83//83 97//97 84//84
f 81//81 100//100 83//83
f 81//81 76//76 77//77
f 81//81 77//77 100//100
f 102//102 101//101 103//103
f 102//102 103//103 104//104
f 106//106 105//105 107//107
f 106//106 107//107 108//108
f 110//110 109//109 111//111
f 110//110 111//111 112//112
f 114//114 113//113 115//115
f 116//116 115//115 113//113
f 115//115 116//116 117//117
f 119//119 115//115 117//117
f 119//119 117//117 118//118
f 119//119 118//118 120//120
f 118//118 121//121 120//120
f 124//124 120//120 121//121
f 124//124 121//121 122//122
f 122//122 123//123 124//124
f 126//126 125//125 124//124
f 125//125 131//131 120//120
f 125//125 120//120 124//124
f 123//123 126//126 124//124
f 128//128 126//126 127//127
f 126//126 128//128 125//125
f 128//128 130//130 131//131
f 128//128 131//131 125//125
f 127//127 129//129 128//128
f 129//129 133//133 130//130
f 129//129 130//130 128//128
f 119//119 131//131 130//130
f 132//132 119//119 130//130
f 130//130 133//133 132//132
f 132//132 114//114 115//115
f 132//132 115//115 119//119
f 120//120 131//131 119//119
f 135//135 137//137 136//136
f 135//135 136//136 134//134
f 138//138 137//137 135//135
f 138//138 135//135 139//139
f 141//141 140//140 138//138
f 141//141 138//138 139//139
f 145//145 143//143 142//142
f 145//145 142//142 144//144
f 147//147 143//143 145//145
f 147//147 145//145 146//146
f 149//149 147//147 146//146
f 149//149 146//146 148//148
f 151//151 149//149 148//148
f 151//151 148//148 150//150
f 153//153 151//151 150//150
f 153//153 150//150 152//152
f 155//155 153//153 152//152
f 155//155 152//152 154//154
f 157//157 155//155 154//154
f 157//157 154//154 156//156
f 159//159 157//157 156//156
f 159//159 156//156 158//158
f 160//160 161//161 159//159
f 160//160 159//159 158//158
f 163//163 162//162 164//164
f 165//165 166//166 164//164
f 163//163 164//164 166//166
f 168//168 163//163 166//166
f 168//168 166//166 167//167
f 170//170 168//168 167//167
f 170//170 167//167 169//169
f 169//169 172//172 170//170
f 171//171 172//172 169//169
f 170//170 172//172 173//173
f 175//175 174//174 176//176
f 176//176 177//177 175//175
f 179//179 177//177 176//176
f 179//179 176//176 178//178
f 181//181 179//179 178//178
f 181//181 178//178 180//180
f 183//183 181//181 180//180
f 183//183 180//180 182//182
f 185//185 183//183 182//182
f 185//185 182//182 184//184
f 187//187 185//185 184//184
f 187//187 184//184 186//186
f 189//189 187//187 186//186
f 189//189 186//186 188//188
f 191//191 189//189 188//188
f 191//191 188//188 190//190
f 190//190 192//192 191//191
f 192//192 190//190 193//193
f 194//194 191//191 192//192
f 195//195 175//175 177//177
f 196//196 197//197 199//199
f 197//197 196//196 198//198
f 200//200 199//199 197//197
f 201//201 200//200 197//197
f 201//201 197//197 202//202
f 203//203 201//201 202//202
f 205//205 203//203 202//202
f 204//204 203//203 205//205
f 204//204 205//205 207//207
f 202//202 206//206 205//205
f 209//209 204//204 207//207
f 209//209 207//207 208//208
f 209//209 208//208 210//210
f 208//208 211//211 210//210
f 210//210 211//211 212//212
f 211//211 213//213 212//212
f 215//215 212//212 213//213
f 215//215 213//213 214//214
f 214//214 216//216 215//215
f 216//216 217//217 215//215
f 220//220 217//217 218//218
f 217//217 219//219 215//215
f 217//217 220//220 219//219
f 218//218 221//221 220//220
f 220//220 222//222 223//223
f 220//220 223//223 219//219
f 221//221 224//224 222//222
f 221//221 222//222 220//220
f 210//210 223//223 222//222
f 222//222 224//224 225//225
f 225//225 210//210 222//222
f 210//210 225//225 209//209
f 219//219 223//223 212//212
f 219//219 212//212 215//215
f 212//212 223//223 210//210
f 202//202 197//197 198//198
f 202//202 198//198 206//206
f 227//227 228//228 226//226
f 226//226 228//228 230//230
f 229//229 226//226 230//230
f 230//230 228//228 231//231
f 229//229 230//230 232//232
f 230//230 233//233 232//232
f 232//232 233//233 234//234
f 233//233 235//235 234//234
f 234//234 235//235 237//237
f 236//236 237//237 235//235
f 238//238 237//237 236//236
f 238//238 239//239 237//237
f 241//241 239//239 240//240
f 239//239 238//238 240//240
f 239//239 241//241 242//242
f 243//243 242//242 241//241
f 244//244 242//242 243//243
f 245//245 240//240 246//246
f 238//238 246//246 240//240
f 247//247 245//245 246//246
f 245//245 247//247 248//248
f 247//247 249//249 248//248
f 231//231 228//228 250//250
f 227//227 251//251 228//228
f 253//253 251//251 252//252
f 251//251 254//254 252//252
f 251//251 227//227 254//254
f 253//253 252//252 255//255
f 255//255 257//257 256//256
f 257//257 255//255 252//252
f 257//257 258//258 256//256
f 259//259 256//256 258//258
f 258//258 260//260 259//259
f 259//259 260//260 261//261
f 262//262 261//261 260//260
f 262//262 263//263 261//261
f 263//263 262//262 264//264
f 263//263 264//264 265//265
f 265//265 266//266 268//268
f 265//265 267//267 266//266
f 265//265 268//268 263//263
f 266//266 267//267 269//269
f 269//269 267//267 270//270
f 267//267 271//271 270//270
