# core_hub_16 exported from /models/mainboards/core_hub_16.glb
# units: meters
v -0.034847 0.001000 -0.001000
v -0.034847 0.001000 0.001000
v -0.034879 0.000759 -0.001000
v -0.034879 0.000759 0.000000
v -0.034879 0.000759 0.001000
v -0.034890 0.000519 -0.001000
v -0.034890 0.000519 0.000000
v -0.034890 0.000519 0.001000
v -0.034847 0.001000 0.000333
v -0.034847 0.001000 -0.000333
v -0.034887 0.000638 0.000000
v -0.034879 0.000759 -0.000500
v -0.034887 0.000638 -0.000500
v -0.034879 0.000759 0.000500
v -0.034887 0.000638 0.000500
v -0.030991 -0.000680 -0.001000
v -0.030991 -0.000680 0.001000
v -0.030991 0.000519 -0.001000
v -0.030991 0.000519 0.001000
v -0.030991 -0.000680 0.000000
v -0.030991 0.000519 -0.001000
v -0.030991 0.000519 0.001000
v -0.031038 0.001000 -0.001000
v -0.031038 0.001000 0.001000
v -0.031038 0.001000 0.000000
v -0.034890 0.000519 -0.001000
v -0.034890 0.000519 0.001000
v -0.034890 -0.001000 -0.001000
v -0.034890 -0.001000 0.001000
v -0.034890 0.000519 0.000000
v -0.030972 -0.001000 -0.001000
v -0.030972 -0.001000 0.001000
v -0.030991 -0.000680 -0.001000
v -0.030991 -0.000680 0.000000
v -0.030991 -0.000680 0.001000
v -0.030972 -0.001000 0.000333
v -0.030972 -0.001000 -0.000333
v -0.030972 -0.001000 -0.001000
v -0.034847 0.001000 -0.001000
v -0.034879 0.000759 -0.001000
v -0.030991 -0.000680 -0.001000
v -0.030991 0.000519 -0.001000
v -0.031038 0.001000 -0.001000
v -0.034890 0.000519 -0.001000
v -0.034890 -0.001000 -0.001000
v -0.030972 -0.001000 0.001000
v -0.034847 0.001000 0.001000
v -0.034879 0.000759 0.001000
v -0.030991 -0.000680 0.001000
v -0.030991 0.000519 0.001000
v -0.031038 0.001000 0.001000
v -0.034890 0.000519 0.001000
v -0.034890 -0.001000 0.001000
v -0.001000 0.001000 0.034847
v 0.001000 0.001000 0.034847
v -0.001000 0.000759 0.034879
v -0.000000 0.000759 0.034879
v 0.001000 0.000759 0.034879
v -0.001000 0.000519 0.034890
v -0.000000 0.000519 0.034890
v 0.001000 0.000519 0.034890
v 0.000333 0.001000 0.034847
v -0.000333 0.001000 0.034847
v -0.000000 0.000638 0.034887
v -0.000500 0.000759 0.034879
v -0.000500 0.000638 0.034887
v 0.000500 0.000759 0.034879
v 0.000500 0.000638 0.034887
v -0.001000 -0.000680 0.030991
v 0.001000 -0.000680 0.030991
v -0.001000 0.000519 0.030991
v 0.001000 0.000519 0.030991
v -0.000000 -0.000680 0.030991
v -0.001000 0.000519 0.030991
v 0.001000 0.000519 0.030991
v -0.001000 0.001000 0.031038
v 0.001000 0.001000 0.031038
v -0.000000 0.001000 0.031038
v -0.001000 0.000519 0.034890
v 0.001000 0.000519 0.034890
v -0.001000 -0.001000 0.034890
v 0.001000 -0.001000 0.034890
v -0.000000 0.000519 0.034890
v -0.001000 -0.001000 0.030972
v 0.001000 -0.001000 0.030972
v -0.001000 -0.000680 0.030991
v -0.000000 -0.000680 0.030991
v 0.001000 -0.000680 0.030991
v 0.000333 -0.001000 0.030972
v -0.000333 -0.001000 0.030972
v -0.001000 -0.001000 0.030972
v -0.001000 0.001000 0.034847
v -0.001000 0.000759 0.034879
v -0.001000 -0.000680 0.030991
v -0.001000 0.000519 0.030991
v -0.001000 0.001000 0.031038
v -0.001000 0.000519 0.034890
v -0.001000 -0.001000 0.034890
v 0.001000 0.001000 0.034847
v 0.001000 0.000759 0.034879
v 0.001000 -0.000680 0.030991
v 0.001000 0.000519 0.030991
v 0.001000 0.001000 0.031038
v 0.001000 0.000519 0.034890
v 0.001000 -0.001000 0.030972
v 0.001000 -0.001000 0.034890
v 0.034847 0.001000 0.001000
v 0.034847 0.001000 -0.001000
v 0.034879 0.000759 0.001000
v 0.034879 0.000759 0.000000
v 0.034879 0.000759 -0.001000
v 0.034890 0.000519 0.001000
v 0.034890 0.000519 0.000000
v 0.034890 0.000519 -0.001000
v 0.034847 0.001000 -0.000333
v 0.034847 0.001000 0.000333
v 0.034887 0.000638 0.000000
v 0.034879 0.000759 0.000500
v 0.034887 0.000638 0.000500
v 0.034879 0.000759 -0.000500
v 0.034887 0.000638 -0.000500
v 0.030991 -0.000680 0.001000
v 0.030991 -0.000680 -0.001000
v 0.030991 0.000519 0.001000
v 0.030991 0.000519 -0.001000
v 0.030991 -0.000680 0.000000
v 0.030991 0.000519 0.001000
v 0.030991 0.000519 -0.001000
v 0.031038 0.001000 0.001000
v 0.031038 0.001000 -0.001000
v 0.031038 0.001000 0.000000
v 0.034890 0.000519 0.001000
v 0.034890 0.000519 -0.001000
v 0.034890 -0.001000 0.001000
v 0.034890 -0.001000 -0.001000
v 0.034890 0.000519 0.000000
v 0.030972 -0.001000 0.001000
v 0.030972 -0.001000 -0.001000
v 0.030991 -0.000680 0.001000
v 0.030991 -0.000680 0.000000
v 0.030991 -0.000680 -0.001000
v 0.030972 -0.001000 -0.000333
v 0.030972 -0.001000 0.000333
v 0.030972 -0.001000 0.001000
v 0.034847 0.001000 0.001000
v 0.034879 0.000759 0.001000
v 0.030991 -0.000680 0.001000
v 0.030991 0.000519 0.001000
v 0.031038 0.001000 0.001000
v 0.034890 0.000519 0.001000
v 0.034890 -0.001000 0.001000
v 0.030972 -0.001000 -0.001000
v 0.034847 0.001000 -0.001000
v 0.034879 0.000759 -0.001000
v 0.030991 -0.000680 -0.001000
v 0.030991 0.000519 -0.001000
v 0.031038 0.001000 -0.001000
v 0.034890 0.000519 -0.001000
v 0.034890 -0.001000 -0.001000
v 0.001000 0.001000 -0.034847
v -0.001000 0.001000 -0.034847
v 0.001000 0.000759 -0.034879
v -0.000000 0.000759 -0.034879
v -0.001000 0.000759 -0.034879
v 0.001000 0.000519 -0.034890
v -0.000000 0.000519 -0.034890
v -0.001000 0.000519 -0.034890
v -0.000333 0.001000 -0.034847
v 0.000333 0.001000 -0.034847
v -0.000000 0.000638 -0.034887
v 0.000500 0.000759 -0.034879
v 0.000500 0.000638 -0.034887
v -0.000500 0.000759 -0.034879
v -0.000500 0.000638 -0.034887
v 0.001000 -0.000680 -0.030991
v -0.001000 -0.000680 -0.030991
v 0.001000 0.000519 -0.030991
v -0.001000 0.000519 -0.030991
v -0.000000 -0.000680 -0.030991
v -0.000000 0.000519 -0.030991
v 0.001000 0.000519 -0.030991
v -0.000000 0.000519 -0.030991
v -0.001000 0.000519 -0.030991
v 0.001000 0.000759 -0.031002
v -0.000000 0.000759 -0.031002
v -0.001000 0.000759 -0.031002
v -0.001000 0.001000 -0.031038
v 0.000500 0.000759 -0.031002
v -0.000000 0.000638 -0.030994
v 0.000500 0.000638 -0.030994
v -0.000500 0.000759 -0.031002
v -0.000500 0.000638 -0.030994
v 0.001000 0.001000 -0.031038
v 0.000333 0.001000 -0.031038
v -0.000333 0.001000 -0.031038
v 0.001000 0.000519 -0.034890
v -0.001000 0.000519 -0.034890
v 0.001000 -0.001000 -0.034890
v -0.001000 -0.001000 -0.034890
v -0.000000 0.000519 -0.034890
v 0.001000 -0.001000 -0.030972
v -0.001000 -0.001000 -0.030972
v 0.001000 -0.000680 -0.030991
v -0.000000 -0.000680 -0.030991
v -0.001000 -0.000680 -0.030991
v -0.000333 -0.001000 -0.030972
v 0.000333 -0.001000 -0.030972
v 0.001000 -0.001000 -0.030972
v 0.001000 0.001000 -0.034847
v 0.001000 0.000759 -0.034879
v 0.001000 -0.000680 -0.030991
v 0.001000 0.000519 -0.030991
v 0.001000 0.000759 -0.031002
v 0.001000 0.001000 -0.031038
v 0.001000 0.000519 -0.034890
v 0.001000 -0.001000 -0.034890
v -0.001000 -0.001000 -0.030972
v -0.001000 0.001000 -0.034847
v -0.001000 0.000759 -0.034879
v -0.001000 -0.000680 -0.030991
v -0.001000 0.000519 -0.030991
v -0.001000 0.000759 -0.031002
v -0.001000 0.001000 -0.031038
v -0.001000 0.000519 -0.034890
v -0.001000 -0.001000 -0.034890
v -0.026981 -0.001000 0.000000
v -0.026981 0.001000 0.000000
v -0.024958 -0.001000 -0.010250
v -0.024958 0.001000 -0.010250
v -0.018878 -0.001000 -0.019276
v -0.018878 0.001000 -0.019276
v -0.009806 -0.001000 -0.025136
v -0.009806 0.001000 -0.025136
v -0.000000 -0.001000 -0.026981
v -0.000000 0.001000 -0.026981
v 0.010250 -0.001000 -0.024958
v 0.010250 0.001000 -0.024958
v 0.019276 -0.001000 -0.018878
v 0.019276 0.001000 -0.018878
v 0.025136 -0.001000 -0.009806
v 0.025136 0.001000 -0.009806
v 0.026981 -0.001000 0.000000
v 0.026981 0.001000 0.000000
v 0.024958 -0.001000 0.010250
v 0.024958 0.001000 0.010250
v 0.018878 -0.001000 0.019276
v 0.018878 0.001000 0.019276
v 0.009806 -0.001000 0.025136
v 0.009806 0.001000 0.025136
v -0.000000 -0.001000 0.026981
v -0.000000 0.001000 0.026981
v -0.010250 -0.001000 0.024958
v -0.010250 0.001000 0.024958
v -0.019276 -0.001000 0.018879
v -0.019276 0.001000 0.018879
v -0.025136 -0.001000 0.009806
v -0.025136 0.001000 0.009806
v -0.026981 -0.001000 0.000000
v -0.026981 0.001000 0.000000
v -0.037708 -0.001000 0.000000
v -0.037708 0.001000 0.000000
v -0.035915 -0.001000 0.011487
v -0.035915 0.001000 0.011487
v -0.030413 -0.001000 0.022292
v -0.030413 0.001000 0.022292
v -0.021658 -0.001000 0.030868
v -0.021658 0.001000 0.030868
v -0.010937 -0.001000 0.036087
v -0.010937 0.001000 0.036087
v -0.000000 -0.001000 0.037708
v -0.000000 0.001000 0.037708
v 0.011487 -0.001000 0.035915
v 0.011487 0.001000 0.035915
v 0.022292 -0.001000 0.030413
v 0.022292 0.001000 0.030413
v 0.030868 -0.001000 0.021658
v 0.030868 0.001000 0.021658
v 0.036086 -0.001000 0.010938
v 0.036086 0.001000 0.010938
v 0.037708 -0.001000 0.000000
v 0.037708 0.001000 0.000000
v 0.035915 -0.001000 -0.011487
v 0.035915 0.001000 -0.011487
v 0.030413 -0.001000 -0.022292
v 0.030413 0.001000 -0.022292
v 0.021658 -0.001000 -0.030868
v 0.021658 0.001000 -0.030868
v 0.010937 -0.001000 -0.036086
v 0.010937 0.001000 -0.036086
v -0.000000 -0.001000 -0.037708
v -0.000000 0.001000 -0.037708
v -0.011487 -0.001000 -0.035915
v -0.011487 0.001000 -0.035915
v -0.022292 -0.001000 -0.030413
v -0.022292 0.001000 -0.030413
v -0.030868 -0.001000 -0.021658
v -0.030868 0.001000 -0.021658
v -0.036086 -0.001000 -0.010937
v -0.036086 0.001000 -0.010937
v -0.037708 -0.001000 0.000000
v -0.037708 0.001000 0.000000
v -0.034847 0.001000 0.001000
v -0.034847 0.001000 0.000333
v -0.034847 0.001000 -0.000333
v -0.034847 0.001000 -0.001000
v -0.031038 0.001000 -0.001000
v -0.031038 0.001000 0.000000
v -0.031038 0.001000 0.001000
v 0.001000 0.001000 0.034847
v 0.000333 0.001000 0.034847
v -0.000333 0.001000 0.034847
v -0.001000 0.001000 0.034847
v -0.001000 0.001000 0.031038
v -0.000000 0.001000 0.031038
v 0.001000 0.001000 0.031038
v 0.034847 0.001000 -0.001000
v 0.034847 0.001000 -0.000333
v 0.034847 0.001000 0.000333
v 0.034847 0.001000 0.001000
v 0.031038 0.001000 0.001000
v 0.031038 0.001000 0.000000
v 0.031038 0.001000 -0.001000
v -0.001000 0.001000 -0.034847
v -0.000333 0.001000 -0.034847
v 0.000333 0.001000 -0.034847
v 0.001000 0.001000 -0.034847
v 0.001000 0.001000 -0.031038
v 0.000333 0.001000 -0.031038
v -0.000333 0.001000 -0.031038
v -0.001000 0.001000 -0.031038
v -0.026981 0.001000 0.000000
v -0.024958 0.001000 -0.010250
v -0.018878 0.001000 -0.019276
v -0.009806 0.001000 -0.025136
v -0.000000 0.001000 -0.026981
v 0.010250 0.001000 -0.024958
v 0.019276 0.001000 -0.018878
v 0.025136 0.001000 -0.009806
v 0.026981 0.001000 0.000000
v 0.024958 0.001000 0.010250
v 0.018878 0.001000 0.019276
v 0.009806 0.001000 0.025136
v -0.000000 0.001000 0.026981
v -0.010250 0.001000 0.024958
v -0.019276 0.001000 0.018879
v -0.025136 0.001000 0.009806
v -0.037708 0.001000 0.000000
v -0.035915 0.001000 0.011487
v -0.030413 0.001000 0.022292
v -0.021658 0.001000 0.030868
v -0.010937 0.001000 0.036087
v -0.000000 0.001000 0.037708
v 0.011487 0.001000 0.035915
v 0.022292 0.001000 0.030413
v 0.030868 0.001000 0.021658
v 0.036086 0.001000 0.010938
v 0.037708 0.001000 0.000000
v 0.035915 0.001000 -0.011487
v 0.030413 0.001000 -0.022292
v 0.021658 0.001000 -0.030868
v 0.010937 0.001000 -0.036086
v -0.000000 0.001000 -0.037708
v -0.011487 0.001000 -0.035915
v -0.022292 0.001000 -0.030413
v -0.030868 0.001000 -0.021658
v -0.036086 0.001000 -0.010937
v -0.034890 -0.001000 0.001000
v -0.034890 -0.001000 -0.001000
v -0.030972 -0.001000 -0.001000
v -0.030972 -0.001000 -0.000333
v -0.030972 -0.001000 0.000333
v -0.030972 -0.001000 0.001000
v 0.001000 -0.001000 0.034890
v -0.001000 -0.001000 0.034890
v -0.001000 -0.001000 0.030972
v -0.000333 -0.001000 0.030972
v 0.000333 -0.001000 0.030972
v 0.001000 -0.001000 0.030972
v 0.034890 -0.001000 -0.001000
v 0.034890 -0.001000 0.001000
v 0.030972 -0.001000 0.001000
v 0.030972 -0.001000 0.000333
v 0.030972 -0.001000 -0.000333
v 0.030972 -0.001000 -0.001000
v -0.001000 -0.001000 -0.034890
v 0.001000 -0.001000 -0.034890
v 0.001000 -0.001000 -0.030972
v 0.000333 -0.001000 -0.030972
v -0.000333 -0.001000 -0.030972
v -0.001000 -0.001000 -0.030972
v -0.026981 -0.001000 0.000000
v -0.024958 -0.001000 -0.010250
v -0.018878 -0.001000 -0.019276
v -0.009806 -0.001000 -0.025136
v -0.000000 -0.001000 -0.026981
v 0.010250 -0.001000 -0.024958
v 0.019276 -0.001000 -0.018878
v 0.025136 -0.001000 -0.009806
v 0.026981 -0.001000 0.000000
v 0.024958 -0.001000 0.010250
v 0.018878 -0.001000 0.019276
v 0.009806 -0.001000 0.025136
v -0.000000 -0.001000 0.026981
v -0.010250 -0.001000 0.024958
v -0.019276 -0.001000 0.018879
v -0.025136 -0.001000 0.009806
v -0.037708 -0.001000 0.000000
v -0.035915 -0.001000 0.011487
v -0.030413 -0.001000 0.022292
v -0.021658 -0.001000 0.030868
v -0.010937 -0.001000 0.036087
v -0.000000 -0.001000 0.037708
v 0.011487 -0.001000 0.035915
v 0.022292 -0.001000 0.030413
v 0.030868 -0.001000 0.021658
v 0.036086 -0.001000 0.010938
v 0.037708 -0.001000 0.000000
v 0.035915 -0.001000 -0.011487
v 0.030413 -0.001000 -0.022292
v 0.021658 -0.001000 -0.030868
v 0.010937 -0.001000 -0.036086
v -0.000000 -0.001000 -0.037708
v -0.011487 -0.001000 -0.035915
v -0.022292 -0.001000 -0.030413
v -0.030868 -0.001000 -0.021658
v -0.036086 -0.001000 -0.010937
vn 0.984228 -0.176905 -0.000000
vn 0.984228 -0.176905 -0.000000
vn 0.996165 -0.087497 -0.000000
vn 0.996174 -0.087398 -0.000000
vn 0.996165 -0.087497 -0.000000
vn 1.000000 0.000000 0.000000
vn 1.000000 0.000000 0.000000
vn 1.000000 0.000000 0.000000
vn 0.984228 -0.176905 -0.000000
vn 0.984228 -0.176905 -0.000000
vn 0.999067 -0.043199 -0.000000
vn 0.996165 -0.087497 -0.000000
vn 0.999062 -0.043298 0.000100
vn 0.996165 -0.087497 -0.000000
vn 0.999062 -0.043298 -0.000100
vn -1.000000 0.000000 0.000000
vn -1.000000 0.000000 0.000000
vn -1.000000 0.000000 0.000000
vn -1.000000 0.000000 0.000000
vn -1.000000 0.000000 0.000000
vn -1.000000 0.000000 0.000000
vn -1.000000 0.000000 0.000000
vn -0.981138 -0.193308 -0.000000
vn -0.981138 -0.193308 -0.000000
vn -0.981138 -0.193308 -0.000000
vn 1.000000 0.000000 0.000000
vn 1.000000 0.000000 0.000000
vn 1.000000 0.000000 0.000000
vn 1.000000 0.000000 0.000000
vn 1.000000 0.000000 0.000000
vn -0.992640 -0.121105 -0.000000
vn -0.992640 -0.121105 -0.000000
vn -1.000000 0.000000 0.000000
vn -1.000000 0.000000 0.000000
vn -1.000000 0.000000 0.000000
vn -0.992640 -0.121105 -0.000000
vn -0.992640 -0.121105 -0.000000
vn 0.000000 -0.000000 1.000000
vn 0.000000 -0.000000 1.000000
vn 0.000000 -0.000000 1.000000
vn 0.000000 -0.000000 1.000000
vn 0.000000 -0.000000 1.000000
vn 0.000000 -0.000000 1.000000
vn 0.000000 -0.000000 1.000000
vn 0.000000 -0.000000 1.000000
vn 0.000000 0.000000 -1.000000
vn 0.000000 0.000000 -1.000000
vn 0.000000 0.000000 -1.000000
vn 0.000000 0.000000 -1.000000
vn 0.000000 0.000000 -1.000000
vn 0.000000 0.000000 -1.000000
vn 0.000000 0.000000 -1.000000
vn 0.000000 0.000000 -1.000000
vn 0.000000 -0.176905 -0.984228
vn 0.000000 -0.176905 -0.984228
vn 0.000000 -0.087398 -0.996174
vn 0.000000 -0.087497 -0.996165
vn 0.000000 -0.087398 -0.996174
vn 0.000000 0.000000 -1.000000
vn 0.000000 0.000000 -1.000000
vn 0.000000 0.000000 -1.000000
vn 0.000000 -0.176905 -0.984228
vn 0.000000 -0.176905 -0.984228
vn 0.000000 -0.043498 -0.999054
vn 0.000000 -0.087497 -0.996165
vn 0.000100 -0.043298 -0.999062
vn 0.000000 -0.087497 -0.996165
vn -0.000100 -0.043298 -0.999062
vn 0.000000 -0.000000 1.000000
vn 0.000000 -0.000000 1.000000
vn 0.000000 -0.000000 1.000000
vn 0.000000 -0.000000 1.000000
vn 0.000000 -0.000000 1.000000
vn 0.000000 -0.000000 1.000000
vn 0.000000 -0.000000 1.000000
vn 0.000000 -0.193308 0.981138
vn 0.000000 -0.193308 0.981138
vn 0.000000 -0.193308 0.981138
vn 0.000000 0.000000 -1.000000
vn 0.000000 0.000000 -1.000000
vn 0.000000 0.000000 -1.000000
vn 0.000000 0.000000 -1.000000
vn 0.000000 0.000000 -1.000000
vn 0.000000 -0.121105 0.992640
vn 0.000000 -0.121105 0.992640
vn 0.000000 -0.000000 1.000000
vn 0.000000 -0.000000 1.000000
vn 0.000000 -0.000000 1.000000
vn 0.000000 -0.121105 0.992640
vn 0.000000 -0.121105 0.992640
vn 1.000000 0.000000 0.000000
vn 1.000000 0.000000 0.000000
vn 1.000000 0.000000 0.000000
vn 1.000000 0.000000 0.000000
vn 1.000000 0.000000 0.000000
vn 1.000000 0.000000 0.000000
vn 1.000000 0.000000 0.000000
vn 1.000000 0.000000 0.000000
vn -1.000000 0.000000 0.000000
vn -1.000000 0.000000 0.000000
vn -1.000000 0.000000 0.000000
vn -1.000000 0.000000 0.000000
vn -1.000000 0.000000 0.000000
vn -1.000000 0.000000 0.000000
vn -1.000000 0.000000 0.000000
vn -1.000000 0.000000 0.000000
vn -0.984228 -0.176905 -0.000000
vn -0.984228 -0.176905 -0.000000
vn -0.996165 -0.087497 -0.000000
vn -0.996174 -0.087398 -0.000000
vn -0.996165 -0.087497 -0.000000
vn -1.000000 0.000000 0.000000
vn -1.000000 0.000000 0.000000
vn -1.000000 0.000000 0.000000
vn -0.984228 -0.176905 -0.000000
vn -0.984228 -0.176905 -0.000000
vn -0.999067 -0.043199 -0.000000
vn -0.996165 -0.087497 -0.000000
vn -0.999062 -0.043298 -0.000100
vn -0.996165 -0.087497 -0.000000
vn -0.999062 -0.043298 0.000100
vn 1.000000 0.000000 0.000000
vn 1.000000 0.000000 0.000000
vn 1.000000 0.000000 0.000000
vn 1.000000 0.000000 0.000000
vn 1.000000 0.000000 0.000000
vn 1.000000 0.000000 0.000000
vn 1.000000 0.000000 0.000000
vn 0.981138 -0.193308 -0.000000
vn 0.981138 -0.193308 -0.000000
vn 0.981138 -0.193308 -0.000000
vn -1.000000 0.000000 0.000000
vn -1.000000 0.000000 0.000000
vn -1.000000 0.000000 0.000000
vn -1.000000 0.000000 0.000000
vn -1.000000 0.000000 0.000000
vn 0.992640 -0.121105 -0.000000
vn 0.992640 -0.121105 -0.000000
vn 1.000000 0.000000 0.000000
vn 1.000000 0.000000 0.000000
vn 1.000000 0.000000 0.000000
vn 0.992640 -0.121105 -0.000000
vn 0.992640 -0.121105 -0.000000
vn 0.000000 0.000000 -1.000000
vn 0.000000 0.000000 -1.000000
vn 0.000000 0.000000 -1.000000
vn 0.000000 0.000000 -1.000000
vn 0.000000 0.000000 -1.000000
vn 0.000000 0.000000 -1.000000
vn 0.000000 0.000000 -1.000000
vn 0.000000 0.000000 -1.000000
vn 0.000000 -0.000000 1.000000
vn 0.000000 -0.000000 1.000000
vn 0.000000 -0.000000 1.000000
vn 0.000000 -0.000000 1.000000
vn 0.000000 -0.000000 1.000000
vn 0.000000 -0.000000 1.000000
vn 0.000000 -0.000000 1.000000
vn 0.000000 -0.000000 1.000000
vn 0.000000 -0.176905 0.984228
vn 0.000000 -0.176905 0.984228
vn 0.000000 -0.087398 0.996173
vn 0.000000 -0.087497 0.996165
vn 0.000000 -0.087398 0.996173
vn 0.000000 -0.000000 1.000000
vn 0.000000 -0.000000 1.000000
vn 0.000000 -0.000000 1.000000
vn 0.000000 -0.176905 0.984228
vn 0.000000 -0.176905 0.984228
vn 0.000000 -0.043498 0.999054
vn 0.000000 -0.087497 0.996165
vn -0.000100 -0.043298 0.999062
vn 0.000000 -0.087497 0.996165
vn 0.000100 -0.043298 0.999062
vn 0.000000 0.000000 -1.000000
vn 0.000000 0.000000 -1.000000
vn 0.000000 0.000000 -1.000000
vn 0.000000 0.000000 -1.000000
vn 0.000000 0.000000 -1.000000
vn 0.000000 0.000000 -1.000000
vn 0.000000 0.000000 -1.000000
vn 0.000000 0.000000 -1.000000
vn 0.000000 0.000000 -1.000000
vn 0.000000 -0.095899 -0.995391
vn 0.000000 -0.095899 -0.995391
vn 0.000000 -0.095899 -0.995391
vn 0.000000 -0.193307 -0.981138
vn 0.000000 -0.095899 -0.995391
vn 0.000000 -0.047399 -0.998876
vn 0.000000 -0.047499 -0.998871
vn 0.000000 -0.095899 -0.995391
vn 0.000000 -0.047499 -0.998871
vn 0.000000 -0.193307 -0.981138
vn 0.000000 -0.193307 -0.981138
vn 0.000000 -0.193307 -0.981138
vn 0.000000 -0.000000 1.000000
vn 0.000000 -0.000000 1.000000
vn 0.000000 -0.000000 1.000000
vn 0.000000 -0.000000 1.000000
vn 0.000000 -0.000000 1.000000
vn 0.000000 -0.121105 -0.992640
vn 0.000000 -0.121105 -0.992640
vn 0.000000 0.000000 -1.000000
vn 0.000000 0.000000 -1.000000
vn 0.000000 0.000000 -1.000000
vn 0.000000 -0.121105 -0.992640
vn 0.000000 -0.121105 -0.992640
vn -1.000000 0.000000 0.000000
vn -1.000000 0.000000 0.000000
vn -1.000000 0.000000 0.000000
vn -1.000000 0.000000 0.000000
vn -1.000000 0.000000 0.000000
vn -1.000000 0.000000 0.000000
vn -1.000000 0.000000 0.000000
vn -1.000000 0.000000 0.000000
vn -1.000000 0.000000 0.000000
vn 1.000000 0.000000 0.000000
vn 1.000000 0.000000 0.000000
vn 1.000000 0.000000 0.000000
vn 1.000000 0.000000 0.000000
vn 1.000000 0.000000 0.000000
vn 1.000000 0.000000 0.000000
vn 1.000000 0.000000 0.000000
vn 1.000000 0.000000 0.000000
vn 1.000000 0.000000 0.000000
vn 1.000000 0.000000 0.000000
vn 1.000000 0.000000 0.000000
vn 0.925024 -0.000000 0.379910
vn 0.925024 -0.000000 0.379910
vn 0.699668 -0.000000 0.714468
vn 0.699668 -0.000000 0.714468
vn 0.363498 -0.000000 0.931595
vn 0.363498 -0.000000 0.931595
vn 0.000000 -0.000000 1.000000
vn 0.000000 -0.000000 1.000000
vn -0.379910 -0.000000 0.925024
vn -0.379910 -0.000000 0.925024
vn -0.714468 -0.000000 0.699668
vn -0.714468 -0.000000 0.699668
vn -0.931595 -0.000000 0.363498
vn -0.931595 -0.000000 0.363498
vn -1.000000 0.000000 0.000000
vn -1.000000 0.000000 0.000000
vn -0.925024 0.000000 -0.379910
vn -0.925024 0.000000 -0.379910
vn -0.699668 0.000000 -0.714468
vn -0.699668 0.000000 -0.714468
vn -0.363498 0.000000 -0.931595
vn -0.363498 0.000000 -0.931595
vn 0.000000 0.000000 -1.000000
vn 0.000000 0.000000 -1.000000
vn 0.379910 0.000000 -0.925024
vn 0.379910 0.000000 -0.925024
vn 0.714468 0.000000 -0.699668
vn 0.714468 0.000000 -0.699668
vn 0.931595 0.000000 -0.363498
vn 0.931595 0.000000 -0.363498
vn 1.000000 0.000000 0.000000
vn 1.000000 0.000000 0.000000
vn -1.000000 0.000100 0.000000
vn -1.000000 0.000000 0.000000
vn -0.952482 -0.000000 0.304594
vn -0.952482 -0.000000 0.304594
vn -0.806516 -0.000000 0.591212
vn -0.806516 -0.000000 0.591212
vn -0.574388 -0.000000 0.818583
vn -0.574388 -0.000000 0.818583
vn -0.290099 -0.000000 0.956997
vn -0.290099 -0.000000 0.956997
vn 0.000000 -0.000000 1.000000
vn 0.000000 -0.000000 1.000000
vn 0.304685 -0.000000 0.952453
vn 0.304685 -0.000000 0.952453
vn 0.591212 -0.000000 0.806516
vn 0.591212 -0.000000 0.806516
vn 0.818583 -0.000000 0.574388
vn 0.818583 -0.000000 0.574388
vn 0.956997 -0.000000 0.290099
vn 0.956997 -0.000000 0.290099
vn 1.000000 0.000000 0.000000
vn 1.000000 0.000000 0.000000
vn 0.952482 0.000000 -0.304594
vn 0.952482 0.000000 -0.304594
vn 0.806516 0.000000 -0.591212
vn 0.806516 0.000000 -0.591212
vn 0.574388 0.000000 -0.818583
vn 0.574388 0.000000 -0.818583
vn 0.290099 0.000000 -0.956997
vn 0.290099 0.000000 -0.956997
vn 0.000000 0.000000 -1.000000
vn 0.000000 0.000000 -1.000000
vn -0.304685 0.000000 -0.952453
vn -0.304685 0.000000 -0.952453
vn -0.591212 0.000000 -0.806516
vn -0.591212 0.000000 -0.806516
vn -0.818583 0.000000 -0.574388
vn -0.818583 0.000000 -0.574388
vn -0.956997 0.000000 -0.290099
vn -0.956997 0.000000 -0.290099
vn -1.000000 0.000000 0.000000
vn -1.000000 0.000000 0.000000
vn 0.000000 1.000000 0.000000
vn 0.000000 1.000000 0.000000
vn 0.000000 1.000000 0.000000
vn 0.000000 1.000000 0.000000
vn 0.000000 1.000000 0.000000
vn 0.000000 1.000000 0.000000
vn 0.000000 1.000000 0.000000
vn 0.000000 1.000000 0.000000
vn 0.000000 1.000000 0.000000
vn 0.000000 1.000000 0.000000
vn 0.000000 1.000000 0.000000
vn 0.000000 1.000000 0.000000
vn 0.000000 1.000000 0.000000
vn 0.000000 1.000000 0.000000
vn 0.000000 1.000000 0.000000
vn 0.000000 1.000000 0.000000
vn 0.000000 1.000000 0.000000
vn 0.000000 1.000000 0.000000
vn 0.000000 1.000000 0.000000
vn 0.000000 1.000000 0.000000
vn 0.000000 1.000000 0.000000
vn 0.000000 1.000000 0.000000
vn 0.000000 1.000000 0.000000
vn 0.000000 1.000000 0.000000
vn 0.000000 1.000000 0.000000
vn 0.000000 1.000000 0.000000
vn 0.000000 1.000000 0.000000
vn 0.000000 1.000000 0.000000
vn 0.000000 1.000000 0.000000
vn 0.000000 1.000000 0.000000
vn 0.000000 1.000000 0.000000
vn 0.000000 1.000000 0.000000
vn 0.000000 1.000000 0.000000
vn 0.000000 1.000000 0.000000
vn 0.000000 1.000000 0.000000
vn 0.000000 1.000000 0.000000
vn 0.000000 1.000000 0.000000
vn 0.000000 1.000000 0.000000
vn 0.000000 1.000000 0.000000
vn 0.000000 1.000000 0.000000
vn 0.000000 1.000000 0.000000
vn 0.000000 1.000000 0.000000
vn 0.000000 1.000000 0.000000
vn 0.000000 1.000000 0.000000
vn 0.000000 1.000000 0.000000
vn 0.000000 1.000000 0.000000
vn 0.000000 1.000000 0.000000
vn 0.000000 1.000000 0.000000
vn 0.000000 1.000000 0.000000
vn 0.000000 1.000000 0.000000
vn 0.000000 1.000000 0.000000
vn 0.000000 1.000000 0.000000
vn 0.000000 1.000000 0.000000
vn 0.000000 1.000000 0.000000
vn 0.000000 1.000000 0.000000
vn 0.000000 1.000000 0.000000
vn 0.000000 1.000000 0.000000
vn 0.000000 1.000000 0.000000
vn 0.000000 1.000000 0.000000
vn 0.000000 1.000000 0.000000
vn 0.000000 1.000000 0.000000
vn 0.000000 1.000000 0.000000
vn 0.000000 1.000000 0.000000
vn 0.000000 1.000000 0.000000
vn 0.000000 1.000000 0.000000
vn 0.000000 -1.000000 -0.000000
vn 0.000000 -1.000000 -0.000000
vn 0.000000 -1.000000 -0.000000
vn 0.000000 -1.000000 -0.000000
vn 0.000000 -1.000000 -0.000000
vn 0.000000 -1.000000 -0.000000
vn 0.000000 -1.000000 -0.000000
vn 0.000000 -1.000000 -0.000000
vn 0.000000 -1.000000 -0.000000
vn 0.000000 -1.000000 -0.000000
vn 0.000000 -1.000000 -0.000000
vn 0.000000 -1.000000 -0.000000
vn 0.000000 -1.000000 -0.000000
vn 0.000000 -1.000000 -0.000000
vn 0.000000 -1.000000 -0.000000
vn 0.000000 -1.000000 -0.000000
vn 0.000000 -1.000000 -0.000000
vn 0.000000 -1.000000 -0.000000
vn 0.000000 -1.000000 -0.000000
vn 0.000000 -1.000000 -0.000000
vn 0.000000 -1.000000 -0.000000
vn 0.000000 -1.000000 -0.000000
vn 0.000000 -1.000000 -0.000000
vn 0.000000 -1.000000 -0.000000
vn 0.000000 -1.000000 -0.000000
vn 0.000000 -1.000000 -0.000000
vn 0.000000 -1.000000 -0.000000
vn 0.000000 -1.000000 -0.000000
vn 0.000000 -1.000000 -0.000000
vn 0.000000 -1.000000 -0.000000
vn 0.000000 -1.000000 -0.000000
vn 0.000000 -1.000000 -0.000000
vn 0.000000 -1.000000 -0.000000
vn 0.000000 -1.000000 -0.000000
vn 0.000000 -1.000000 -0.000000
vn 0.000000 -1.000000 -0.000000
vn 0.000000 -1.000000 -0.000000
vn 0.000000 -1.000000 -0.000000
vn 0.000000 -1.000000 -0.000000
vn 0.000000 -1.000000 -0.000000
vn 0.000000 -1.000000 -0.000000
vn 0.000000 -1.000000 -0.000000
vn 0.000000 -1.000000 -0.000000
vn 0.000000 -1.000000 -0.000000
vn 0.000000 -1.000000 -0.000000
vn 0.000000 -1.000000 -0.000000
vn 0.000000 -1.000000 -0.000000
vn 0.000000 -1.000000 -0.000000
vn 0.000000 -1.000000 -0.000000
vn 0.000000 -1.000000 -0.000000
vn 0.000000 -1.000000 -0.000000
vn 0.000000 -1.000000 -0.000000
vn 0.000000 -1.000000 -0.000000
vn 0.000000 -1.000000 -0.000000
vn 0.000000 -1.000000 -0.000000
vn 0.000000 -1.000000 -0.000000
vn 0.000000 -1.000000 -0.000000
vn 0.000000 -1.000000 -0.000000
vn 0.000000 -1.000000 -0.000000
vn 0.000000 -1.000000 -0.000000
f 11//11 13//13 12//12
f 11//11 12//12 4//4
f 15//15 11//11 4//4
f 15//15 4//4 14//14
f 3//3 1//1 10//10
f 3//3 10//10 12//12
f 13//13 3//3 12//12
f 9//9 4//4 12//12
f 9//9 12//12 10//10
f 4//4 9//9 14//14
f 2//2 5//5 14//14
f 2//2 14//14 9//9
f 7//7 13//13 11//11
f 13//13 7//7 6//6
f 6//6 3//3 13//13
f 15//15 7//7 11//11
f 15//15 14//14 5//5
f 5//5 8//8 15//15
f 7//7 15//15 8//8
f 18//18 16//16 20//20
f 17//17 19//19 20//20
f 18//18 20//20 19//19
f 22//22 25//25 23//23
f 22//22 23//23 21//21
f 22//22 24//24 25//25
f 28//28 26//26 30//30
f 27//27 29//29 30//30
f 28//28 30//30 29//29
f 37//37 34//34 33//33
f 37//37 33//33 31//31
f 34//34 37//37 36//36
f 34//34 36//36 32//32
f 34//34 32//32 35//35
f 44//44 41//41 42//42
f 45//45 38//38 41//41
f 40//40 42//42 43//43
f 42//42 40//40 44//44
f 44//44 45//45 41//41
f 40//40 43//43 39//39
f 52//52 50//50 49//49
f 53//53 49//49 46//46
f 48//48 51//51 50//50
f 50//50 52//52 48//48
f 52//52 49//49 53//53
f 48//48 47//47 51//51
f 64//64 66//66 65//65
f 64//64 65//65 57//57
f 68//68 64//64 57//57
f 68//68 57//57 67//67
f 56//56 54//54 63//63
f 56//56 63//63 65//65
f 66//66 56//56 65//65
f 62//62 67//67 57//57
f 62//62 57//57 63//63
f 55//55 58//58 67//67
f 55//55 67//67 62//62
f 57//57 65//65 63//63
f 60//60 66//66 64//64
f 66//66 60//60 59//59
f 59//59 56//56 66//66
f 68//68 60//60 64//64
f 68//68 67//67 58//58
f 58//58 61//61 68//68
f 60//60 68//68 61//61
f 71//71 69//69 73//73
f 70//70 72//72 73//73
f 71//71 73//73 72//72
f 75//75 78//78 76//76
f 75//75 76//76 74//74
f 75//75 77//77 78//78
f 81//81 79//79 83//83
f 80//80 82//82 83//83
f 81//81 83//83 82//82
f 90//90 87//87 86//86
f 90//90 86//86 84//84
f 87//87 90//90 89//89
f 87//87 89//89 85//85
f 87//87 85//85 88//88
f 97//97 94//94 95//95
f 98//98 91//91 94//94
f 93//93 95//95 96//96
f 95//95 93//93 97//97
f 97//97 98//98 94//94
f 93//93 96//96 92//92
f 104//104 102//102 101//101
f 106//106 101//101 105//105
f 100//100 103//103 102//102
f 102//102 104//104 100//100
f 104//104 101//101 106//106
f 100//100 99//99 103//103
f 117//117 119//119 118//118
f 117//117 118//118 110//110
f 121//121 117//117 110//110
f 121//121 110//110 120//120
f 109//109 107//107 116//116
f 109//109 116//116 118//118
f 119//119 109//109 118//118
f 115//115 110//110 118//118
f 115//115 118//118 116//116
f 110//110 115//115 120//120
f 108//108 111//111 120//120
f 108//108 120//120 115//115
f 113//113 119//119 117//117
f 119//119 113//113 112//112
f 112//112 109//109 119//119
f 121//121 113//113 117//117
f 121//121 120//120 111//111
f 111//111 114//114 121//121
f 113//113 121//121 114//114
f 124//124 122//122 126//126
f 123//123 125//125 126//126
f 124//124 126//126 125//125
f 128//128 130//130 131//131
f 128//128 131//131 127//127
f 127//127 131//131 129//129
f 134//134 132//132 136//136
f 133//133 135//135 136//136
f 134//134 136//136 135//135
f 139//139 137//137 143//143
f 140//140 143//143 142//142
f 140//140 142//142 138//138
f 140//140 138//138 141//141
f 139//139 143//143 140//140
f 150//150 147//147 148//148
f 151//151 144//144 147//147
f 146//146 148//148 149//149
f 148//148 146//146 150//150
f 150//150 151//151 147//147
f 146//146 149//149 145//145
f 158//158 156//156 155//155
f 159//159 155//155 152//152
f 154//154 157//157 156//156
f 156//156 158//158 154//154
f 158//158 155//155 159//159
f 154//154 153//153 157//157
f 170//170 172//172 171//171
f 170//170 171//171 163//163
f 174//174 170//170 163//163
f 174//174 163//163 173//173
f 162//162 160//160 169//169
f 162//162 169//169 171//171
f 172//172 162//162 171//171
f 163//163 169//169 168//168
f 163//163 168//168 173//173
f 161//161 164//164 173//173
f 161//161 173//173 168//168
f 163//163 171//171 169//169
f 166//166 172//172 170//170
f 172//172 166//166 165//165
f 165//165 162//162 172//172
f 174//174 166//166 170//170
f 174//174 173//173 164//164
f 164//164 167//167 174//174
f 166//166 174//174 167//167
f 179//179 180//180 177//177
f 179//179 177//177 175//175
f 176//176 178//178 180//180
f 176//176 180//180 179//179
f 185//185 188//188 190//190
f 185//185 190//190 189//189
f 191//191 185//185 189//189
f 191//191 189//189 192//192
f 190//190 184//184 181//181
f 182//182 190//190 181//181
f 192//192 182//182 183//183
f 182//182 192//192 189//189
f 189//189 190//190 182//182
f 186//186 192//192 183//183
f 184//184 190//190 188//188
f 194//194 188//188 185//185
f 193//193 184//184 188//188
f 193//193 188//188 194//194
f 195//195 194//194 185//185
f 192//192 186//186 191//191
f 186//186 187//187 195//195
f 186//186 195//195 191//191
f 195//195 185//185 191//191
f 198//198 196//196 200//200
f 197//197 199//199 200//200
f 198//198 200//200 199//199
f 203//203 201//201 207//207
f 204//204 207//207 206//206
f 204//204 206//206 202//202
f 204//204 202//202 205//205
f 203//203 207//207 204//204
f 215//215 211//211 212//212
f 216//216 208//208 211//211
f 215//215 212//212 213//213
f 210//210 214//214 209//209
f 215//215 216//216 211//211
f 215//215 213//213 210//210
f 210//210 213//213 214//214
f 224//224 221//221 220//220
f 225//225 220//220 217//217
f 224//224 222//222 221//221
f 219//219 218//218 223//223
f 224//224 220//220 225//225
f 224//224 219//219 222//222
f 219//219 223//223 222//222
f 228//228 229//229 227//227
f 228//228 227//227 226//226
f 232//232 233//233 231//231
f 232//232 231//231 230//230
f 230//230 231//231 229//229
f 230//230 229//229 228//228
f 236//236 237//237 235//235
f 236//236 235//235 234//234
f 240//240 241//241 239//239
f 240//240 239//239 238//238
f 238//238 239//239 237//237
f 238//238 237//237 236//236
f 234//234 235//235 233//233
f 234//234 233//233 232//232
f 242//242 243//243 241//241
f 242//242 241//241 240//240
f 246//246 247//247 245//245
f 246//246 245//245 244//244
f 250//250 251//251 249//249
f 250//250 249//249 248//248
f 248//248 249//249 247//247
f 248//248 247//247 246//246
f 254//254 255//255 253//253
f 254//254 253//253 252//252
f 258//258 259//259 257//257
f 258//258 257//257 256//256
f 256//256 257//257 255//255
f 256//256 255//255 254//254
f 252//252 253//253 251//251
f 252//252 251//251 250//250
f 244//244 245//245 243//243
f 244//244 243//243 242//242
f 262//262 263//263 261//261
f 262//262 261//261 260//260
f 266//266 267//267 265//265
f 266//266 265//265 264//264
f 268//268 269//269 267//267
f 268//268 267//267 266//266
f 264//264 265//265 263//263
f 264//264 263//263 262//262
f 272//272 273//273 271//271
f 272//272 271//271 270//270
f 276//276 277//277 275//275
f 276//276 275//275 274//274
f 278//278 279//279 277//277
f 278//278 277//277 276//276
f 274//274 275//275 273//273
f 274//274 273//273 272//272
f 270//270 271//271 269//269
f 270//270 269//269 268//268
f 280//280 281//281 279//279
f 280//280 279//279 278//278
f 284//284 285//285 283//283
f 284//284 283//283 282//282
f 288//288 289//289 287//287
f 288//288 287//287 286//286
f 290//290 291//291 289//289
f 290//290 289//289 288//288
f 286//286 287//287 285//285
f 286//286 285//285 284//284
f 294//294 295//295 293//293
f 294//294 293//293 292//292
f 298//298 299//299 297//297
f 298//298 297//297 296//296
f 300//300 301//301 299//299
f 300//300 299//299 298//298
f 296//296 297//297 295//295
f 296//296 295//295 294//294
f 292//292 293//293 291//291
f 292//292 291//291 290//290
f 282//282 283//283 281//281
f 282//282 281//281 280//280
f 342//342 353//353 354//354
f 355//355 341//341 354//354
f 342//342 354//354 341//341
f 315//315 353//353 342//342
f 352//352 353//353 309//309
f 315//315 343//343 314//314
f 315//315 309//309 353//353
f 342//342 343//343 315//315
f 310//310 352//352 309//309
f 320//320 356//356 319//319
f 357//357 319//319 356//356
f 319//319 357//357 318//318
f 340//340 341//341 355//355
f 339//339 340//340 320//320
f 320//320 340//340 356//356
f 317//317 318//318 357//357
f 356//356 340//340 355//355
f 311//311 312//312 352//352
f 311//311 352//352 310//310
f 344//344 313//313 343//343
f 314//314 343//343 313//313
f 351//351 312//312 313//313
f 352//352 312//312 351//351
f 345//345 350//350 344//344
f 351//351 344//344 350//350
f 351//351 313//313 344//344
f 346//346 349//349 345//345
f 350//350 345//345 349//349
f 348//348 349//349 346//346
f 331//331 307//307 308//308
f 302//302 348//348 308//308
f 346//346 308//308 348//348
f 347//347 348//348 302//302
f 303//303 347//347 302//302
f 331//331 308//308 346//346
f 320//320 321//321 339//339
f 316//316 317//317 357//357
f 338//338 322//322 358//358
f 316//316 358//358 322//322
f 316//316 357//357 358//358
f 321//321 322//322 339//339
f 338//338 339//339 322//322
f 360//360 337//337 359//359
f 338//338 359//359 337//337
f 338//338 358//358 359//359
f 361//361 336//336 360//360
f 337//337 360//360 336//336
f 326//326 327//327 361//361
f 336//336 361//361 327//327
f 335//335 336//336 327//327
f 328//328 329//329 335//335
f 328//328 335//335 327//327
f 326//326 362//362 325//325
f 362//362 326//326 361//361
f 332//332 306//306 331//331
f 365//365 366//366 332//332
f 366//366 306//306 332//332
f 305//305 347//347 304//304
f 304//304 347//347 303//303
f 347//347 305//305 366//366
f 306//306 366//366 305//305
f 365//365 332//332 333//333
f 307//307 331//331 306//306
f 335//335 330//330 334//334
f 324//324 325//325 362//362
f 362//362 323//323 324//324
f 365//365 333//333 364//364
f 334//334 364//364 333//333
f 364//364 334//334 363//363
f 363//363 334//334 330//330
f 362//362 363//363 323//323
f 363//363 330//330 323//323
f 335//335 329//329 330//330
f 414//414 413//413 402//402
f 414//414 402//402 401//401
f 378//378 413//413 373//373
f 378//378 403//403 402//402
f 377//377 403//403 378//378
f 378//378 402//402 413//413
f 401//401 415//415 414//414
f 412//412 373//373 413//413
f 400//400 381//381 416//416
f 380//380 416//416 381//381
f 416//416 380//380 417//417
f 400//400 415//415 401//401
f 381//381 400//400 399//399
f 382//382 399//399 383//383
f 399//399 382//382 381//381
f 417//417 380//380 379//379
f 416//416 415//415 400//400
f 403//403 377//377 376//376
f 375//375 403//403 376//376
f 412//412 374//374 373//373
f 375//375 374//374 411//411
f 412//412 411//411 374//374
f 411//411 404//404 375//375
f 404//404 411//411 410//410
f 403//403 375//375 404//404
f 404//404 410//410 405//405
f 409//409 405//405 410//410
f 409//409 406//406 405//405
f 408//408 406//406 409//409
f 367//367 372//372 408//408
f 406//406 408//408 372//372
f 391//391 372//372 371//371
f 407//407 367//367 408//408
f 391//391 406//406 372//372
f 417//417 379//379 418//418
f 418//418 379//379 384//384
f 384//384 399//399 398//398
f 398//398 418//418 384//384
f 420//420 419//419 397//397
f 398//398 397//397 419//419
f 398//398 419//419 418//418
f 421//421 420//420 396//396
f 397//397 396//396 420//420
f 386//386 421//421 387//387
f 396//396 387//387 421//421
f 395//395 387//387 396//396
f 388//388 395//395 389//389
f 388//388 387//387 395//395
f 421//421 386//386 422//422
f 386//386 385//385 422//422
f 369//369 391//391 370//370
f 392//392 391//391 369//369
f 367//367 407//407 368//368
f 407//407 426//426 368//368
f 369//369 368//368 426//426
f 426//426 392//392 369//369
f 426//426 425//425 392//392
f 391//391 371//371 370//370
f 394//394 390//390 395//395
f 423//423 390//390 394//394
f 385//385 390//390 423//423
f 392//392 425//425 393//393
f 424//424 393//393 425//425
f 394//394 393//393 424//424
f 424//424 423//423 394//394
f 423//423 422//422 385//385
f 395//395 390//390 389//389
f 384//384 383//383 399//399
