# deco_07 exported from /models/joints/deco_07.glb
# units: meters
v 0.019151 0.001000 0.016964
v 0.013396 0.001000 0.008890
v 0.013841 0.001000 0.008212
v 0.019151 0.001000 0.002378
v 0.019010 0.001000 0.017700
v 0.017151 0.001000 0.018964
v 0.011779 0.001000 0.013958
v 0.011779 0.001000 0.018964
v 0.012717 0.001000 0.009335
v 0.011981 0.001000 0.009476
v 0.009779 0.001000 0.013958
v 0.000779 0.001000 0.013879
v 0.009779 0.001000 0.018964
v 0.000779 0.001000 0.018964
v -0.001500 0.001000 0.009476
v -0.001221 0.001000 0.013879
v -0.002914 0.001000 0.008890
v -0.002236 0.001000 0.009335
v -0.008091 0.001000 0.016964
v -0.001221 0.001000 0.018964
v -0.006091 0.001000 0.018964
v -0.007951 0.001000 0.017700
v -0.006827 0.001000 0.018824
v -0.007505 0.001000 0.018378
v -0.008091 0.001000 0.003673
v -0.003359 0.001000 0.008212
v -0.003500 0.001000 0.007476
v -0.003500 0.001000 -0.002384
v -0.003850 0.001000 -0.004224
v -0.008793 0.001000 -0.000008
v -0.011020 0.001000 -0.003398
v -0.006659 0.001000 -0.007033
v -0.004964 0.001000 -0.005919
v -0.008500 0.001000 -0.007384
v -0.009133 0.001000 -0.007384
v -0.010606 0.001000 -0.007665
v -0.014410 0.001000 -0.005625
v -0.012853 0.001000 -0.009911
v -0.011962 0.001000 -0.008555
v -0.018091 0.001000 -0.006327
v -0.018862 0.001000 -0.012180
v -0.016862 0.001000 -0.012180
v -0.022746 0.001000 -0.006327
v -0.024605 0.001000 -0.007591
v -0.024746 0.001000 -0.008327
v -0.023482 0.001000 -0.006468
v -0.024160 0.001000 -0.006913
v -0.024746 0.001000 -0.015622
v -0.024605 0.001000 -0.016358
v -0.022746 0.001000 -0.017622
v -0.023482 0.001000 -0.017481
v -0.018862 0.001000 -0.017622
v -0.024160 0.001000 -0.017036
v -0.012548 0.001000 -0.013635
v -0.012993 0.001000 -0.012957
v -0.016862 0.001000 -0.017622
v -0.013133 0.001000 -0.011384
v -0.013133 0.001000 -0.012221
v -0.011870 0.001000 -0.014080
v -0.000849 0.001000 -0.017622
v -0.011133 0.001000 -0.014221
v -0.006019 0.001000 -0.014221
v 0.001343 0.001000 -0.012816
v 0.006513 0.001000 -0.016217
v 0.008123 0.001000 -0.008363
v 0.013293 0.001000 -0.011764
v 0.017746 0.001000 -0.004983
v 0.012577 0.001000 -0.001583
v 0.013981 0.001000 0.005779
v 0.013981 0.001000 0.007476
v 0.018565 0.001000 0.018378
v 0.017887 0.001000 0.018824
v -0.006019 0.001000 -0.014221
v -0.006019 -0.001000 -0.014221
v -0.011133 0.001000 -0.014221
v -0.011133 -0.001000 -0.014221
v -0.011133 0.001000 -0.014221
v -0.011893 0.001000 -0.014071
v -0.011133 -0.001000 -0.014221
v -0.011893 -0.001000 -0.014071
v -0.012562 -0.001000 -0.013620
v -0.012562 0.001000 -0.013620
v -0.012997 -0.001000 -0.012947
v -0.012997 0.001000 -0.012947
v -0.013133 -0.001000 -0.012221
v -0.013133 0.001000 -0.012221
v -0.013133 0.001000 -0.012221
v -0.013133 -0.001000 -0.012221
v -0.013133 0.001000 -0.011384
v -0.013133 -0.001000 -0.011384
v -0.013133 0.001000 -0.011384
v -0.012833 0.001000 -0.009864
v -0.013133 -0.001000 -0.011384
v -0.012833 -0.001000 -0.009864
v -0.011932 -0.001000 -0.008526
v -0.011932 0.001000 -0.008526
v -0.010587 -0.001000 -0.007657
v -0.010587 0.001000 -0.007657
v -0.009133 -0.001000 -0.007384
v -0.009133 0.001000 -0.007384
v -0.009133 0.001000 -0.007384
v -0.009133 -0.001000 -0.007384
v -0.008500 0.001000 -0.007384
v -0.008500 -0.001000 -0.007384
v -0.008500 0.001000 -0.007384
v -0.006600 0.001000 -0.007009
v -0.008500 -0.001000 -0.007384
v -0.006600 -0.001000 -0.007009
v -0.004927 -0.001000 -0.005882
v -0.004927 0.001000 -0.005882
v -0.003841 -0.001000 -0.004201
v -0.003841 0.001000 -0.004201
v -0.003500 -0.001000 -0.002384
v -0.003500 0.001000 -0.002384
v -0.003500 0.001000 -0.002384
v -0.003500 -0.001000 -0.002384
v -0.003500 0.001000 0.007476
v -0.003500 -0.001000 0.007476
v -0.003500 0.001000 0.007476
v -0.003350 0.001000 0.008235
v -0.003500 -0.001000 0.007476
v -0.003350 -0.001000 0.008235
v -0.002899 -0.001000 0.008905
v -0.002899 0.001000 0.008905
v -0.002226 -0.001000 0.009339
v -0.002226 0.001000 0.009339
v -0.001500 -0.001000 0.009476
v -0.001500 0.001000 0.009476
v -0.001500 0.001000 0.009476
v -0.001500 -0.001000 0.009476
v 0.011981 0.001000 0.009476
v 0.011981 -0.001000 0.009476
v 0.011981 0.001000 0.009476
v 0.012741 0.001000 0.009326
v 0.011981 -0.001000 0.009476
v 0.012741 -0.001000 0.009326
v 0.013410 -0.001000 0.008875
v 0.013410 0.001000 0.008875
v 0.013845 -0.001000 0.008202
v 0.013845 0.001000 0.008202
v 0.013981 -0.001000 0.007476
v 0.013981 0.001000 0.007476
v 0.013981 0.001000 0.007476
v 0.013981 -0.001000 0.007476
v 0.013981 0.001000 0.005779
v 0.013981 -0.001000 0.005779
v 0.013981 0.001000 0.005779
v 0.012482 0.001000 -0.001819
v 0.013981 -0.001000 0.005779
v 0.012482 -0.001000 -0.001819
v 0.007975 -0.001000 -0.008509
v 0.007975 0.001000 -0.008509
v 0.001250 -0.001000 -0.012853
v 0.001250 0.001000 -0.012853
v -0.006019 -0.001000 -0.014221
v -0.006019 0.001000 -0.014221
v 0.019151 0.001000 0.016964
v 0.019001 0.001000 0.017724
v 0.019151 -0.001000 0.016964
v 0.019001 -0.001000 0.017724
v 0.018550 -0.001000 0.018393
v 0.018550 0.001000 0.018393
v 0.017877 -0.001000 0.018827
v 0.017877 0.001000 0.018827
v 0.017151 -0.001000 0.018964
v 0.017151 0.001000 0.018964
v 0.017151 0.001000 0.018964
v 0.017151 -0.001000 0.018964
v 0.011779 0.001000 0.018964
v 0.011779 -0.001000 0.018964
v 0.011779 0.001000 0.018964
v 0.011779 -0.001000 0.018964
v 0.011779 0.001000 0.013958
v 0.011779 -0.001000 0.013958
v 0.011779 0.001000 0.013958
v 0.011779 -0.001000 0.013958
v 0.009779 0.001000 0.013958
v 0.009779 -0.001000 0.013958
v 0.009779 0.001000 0.013958
v 0.009779 -0.001000 0.013958
v 0.009779 0.001000 0.018964
v 0.009779 -0.001000 0.018964
v 0.009779 0.001000 0.018964
v 0.009779 -0.001000 0.018964
v 0.000779 0.001000 0.018964
v 0.000779 -0.001000 0.018964
v 0.000779 0.001000 0.018964
v 0.000779 -0.001000 0.018964
v 0.000779 0.001000 0.013879
v 0.000779 -0.001000 0.013879
v 0.000779 0.001000 0.013879
v 0.000779 -0.001000 0.013879
v -0.001221 0.001000 0.013879
v -0.001221 -0.001000 0.013879
v -0.001221 0.001000 0.013879
v -0.001221 -0.001000 0.013879
v -0.001221 0.001000 0.018964
v -0.001221 -0.001000 0.018964
v -0.001221 0.001000 0.018964
v -0.001221 -0.001000 0.018964
v -0.006091 0.001000 0.018964
v -0.006091 -0.001000 0.018964
v -0.006091 0.001000 0.018964
v -0.006851 0.001000 0.018814
v -0.006091 -0.001000 0.018964
v -0.006851 -0.001000 0.018814
v -0.007520 -0.001000 0.018364
v -0.007520 0.001000 0.018364
v -0.007954 -0.001000 0.017691
v -0.007954 0.001000 0.017691
v -0.008091 -0.001000 0.016964
v -0.008091 0.001000 0.016964
v -0.008091 0.001000 0.016964
v -0.008091 -0.001000 0.016964
v -0.008091 0.001000 0.003673
v -0.008091 -0.001000 0.003673
v -0.008091 0.001000 0.003673
v -0.008841 0.001000 -0.000126
v -0.008091 -0.001000 0.003673
v -0.008841 -0.001000 -0.000126
v -0.011094 -0.001000 -0.003472
v -0.011094 0.001000 -0.003472
v -0.014456 -0.001000 -0.005643
v -0.014456 0.001000 -0.005643
v -0.018091 -0.001000 -0.006327
v -0.018091 0.001000 -0.006327
v -0.018091 0.001000 -0.006327
v -0.018091 -0.001000 -0.006327
v -0.022746 0.001000 -0.006327
v -0.022746 -0.001000 -0.006327
v -0.022746 0.001000 -0.006327
v -0.023505 0.001000 -0.006477
v -0.022746 -0.001000 -0.006327
v -0.023505 -0.001000 -0.006477
v -0.024175 -0.001000 -0.006928
v -0.024175 0.001000 -0.006928
v -0.024609 -0.001000 -0.007600
v -0.024609 0.001000 -0.007600
v -0.024746 -0.001000 -0.008327
v -0.024746 0.001000 -0.008327
v -0.024746 0.001000 -0.008327
v -0.024746 -0.001000 -0.008327
v -0.024746 0.001000 -0.015622
v -0.024746 -0.001000 -0.015622
v -0.024746 0.001000 -0.015622
v -0.024596 0.001000 -0.016381
v -0.024746 -0.001000 -0.015622
v -0.024596 -0.001000 -0.016381
v -0.024145 -0.001000 -0.017050
v -0.024145 0.001000 -0.017050
v -0.023473 -0.001000 -0.017485
v -0.023473 0.001000 -0.017485
v -0.022746 -0.001000 -0.017622
v -0.022746 0.001000 -0.017622
v -0.022746 0.001000 -0.017622
v -0.022746 -0.001000 -0.017622
v -0.018862 0.001000 -0.017622
v -0.018862 -0.001000 -0.017622
v -0.018862 0.001000 -0.017622
v -0.018862 -0.001000 -0.017622
v -0.018862 0.001000 -0.012180
v -0.018862 -0.001000 -0.012180
v -0.018862 0.001000 -0.012180
v -0.018862 -0.001000 -0.012180
v -0.016862 0.001000 -0.012180
v -0.016862 -0.001000 -0.012180
v -0.016862 0.001000 -0.012180
v -0.016862 -0.001000 -0.012180
v -0.016862 0.001000 -0.017622
v -0.016862 -0.001000 -0.017622
v -0.016862 0.001000 -0.017622
v -0.016862 -0.001000 -0.017622
v -0.000849 0.001000 -0.017622
v -0.000849 -0.001000 -0.017622
v -0.000849 0.001000 -0.017622
v 0.006749 0.001000 -0.016122
v -0.000849 -0.001000 -0.017622
v 0.006749 -0.001000 -0.016122
v 0.013439 -0.001000 -0.011616
v 0.013439 0.001000 -0.011616
v 0.017783 -0.001000 -0.004890
v 0.017783 0.001000 -0.004890
v 0.019151 -0.001000 0.002378
v 0.019151 0.001000 0.002378
v 0.019151 0.001000 0.002378
v 0.019151 -0.001000 0.002378
v 0.019151 0.001000 0.016964
v 0.019151 -0.001000 0.016964
v 0.019151 -0.001000 0.016964
v 0.013396 -0.001000 0.008890
v 0.013841 -0.001000 0.008212
v 0.019151 -0.001000 0.002378
v 0.019010 -0.001000 0.017700
v 0.017151 -0.001000 0.018964
v 0.011779 -0.001000 0.013958
v 0.011779 -0.001000 0.018964
v 0.012717 -0.001000 0.009335
v 0.011981 -0.001000 0.009476
v 0.009779 -0.001000 0.013958
v 0.000779 -0.001000 0.013879
v 0.009779 -0.001000 0.018964
v 0.000779 -0.001000 0.018964
v -0.001500 -0.001000 0.009476
v -0.001221 -0.001000 0.013879
v -0.002236 -0.001000 0.009335
v -0.002914 -0.001000 0.008890
v -0.008091 -0.001000 0.016964
v -0.001221 -0.001000 0.018964
v -0.006091 -0.001000 0.018964
v -0.007951 -0.001000 0.017700
v -0.006827 -0.001000 0.018824
v -0.007505 -0.001000 0.018378
v -0.003359 -0.001000 0.008212
v -0.008091 -0.001000 0.003673
v -0.008793 -0.001000 -0.000008
v -0.003500 -0.001000 -0.002384
v -0.003500 -0.001000 0.007476
v -0.003850 -0.001000 -0.004224
v -0.004964 -0.001000 -0.005919
v -0.011020 -0.001000 -0.003398
v -0.006659 -0.001000 -0.007033
v -0.008500 -0.001000 -0.007384
v -0.009133 -0.001000 -0.007384
v -0.010606 -0.001000 -0.007665
v -0.014410 -0.001000 -0.005625
v -0.011962 -0.001000 -0.008555
v -0.012853 -0.001000 -0.009911
v -0.018091 -0.001000 -0.006327
v -0.018862 -0.001000 -0.012180
v -0.016862 -0.001000 -0.012180
v -0.022746 -0.001000 -0.006327
v -0.024746 -0.001000 -0.008327
v -0.024605 -0.001000 -0.007591
v -0.023482 -0.001000 -0.006468
v -0.024160 -0.001000 -0.006913
v -0.024746 -0.001000 -0.015622
v -0.022746 -0.001000 -0.017622
v -0.024605 -0.001000 -0.016358
v -0.024160 -0.001000 -0.017036
v -0.023482 -0.001000 -0.017481
v -0.018862 -0.001000 -0.017622
v -0.012993 -0.001000 -0.012957
v -0.012548 -0.001000 -0.013635
v -0.016862 -0.001000 -0.017622
v -0.013133 -0.001000 -0.011384
v -0.013133 -0.001000 -0.012221
v -0.011870 -0.001000 -0.014080
v -0.011133 -0.001000 -0.014221
v -0.000849 -0.001000 -0.017622
v 0.001343 -0.001000 -0.012816
v 0.006513 -0.001000 -0.016217
v -0.006019 -0.001000 -0.014221
v 0.008123 -0.001000 -0.008363
v 0.013293 -0.001000 -0.011764
v 0.017746 -0.001000 -0.004983
v 0.012577 -0.001000 -0.001583
v 0.013981 -0.001000 0.005779
v 0.013981 -0.001000 0.007476
v 0.018565 -0.001000 0.018378
v 0.017887 -0.001000 0.018824
vn 0.000000 1.000000 0.000000
vn 0.000000 1.000000 0.000000
vn 0.000000 1.000000 0.000000
vn 0.000000 1.000000 0.000000
vn 0.000000 1.000000 0.000000
vn 0.000000 1.000000 0.000000
vn 0.000000 1.000000 0.000000
vn 0.000000 1.000000 0.000000
vn 0.000000 1.000000 0.000000
vn 0.000000 1.000000 0.000000
vn 0.000000 1.000000 0.000000
vn 0.000000 1.000000 0.000000
vn 0.000000 1.000000 0.000000
vn 0.000000 1.000000 0.000000
vn 0.000000 1.000000 0.000000
vn 0.000000 1.000000 0.000000
vn 0.000000 1.000000 0.000000
vn 0.000000 1.000000 0.000000
vn 0.000000 1.000000 0.000000
vn 0.000000 1.000000 0.000000
vn 0.000000 1.000000 0.000000
vn 0.000000 1.000000 0.000000
vn 0.000000 1.000000 0.000000
vn 0.000000 1.000000 0.000000
vn 0.000000 1.000000 0.000000
vn 0.000000 1.000000 0.000000
vn 0.000000 1.000000 0.000000
vn 0.000000 1.000000 0.000000
vn 0.000000 1.000000 0.000000
vn 0.000000 1.000000 0.000000
vn 0.000000 1.000000 0.000000
vn 0.000000 1.000000 0.000000
vn 0.000000 1.000000 0.000000
vn 0.000000 1.000000 0.000000
vn 0.000000 1.000000 0.000000
vn 0.000000 1.000000 0.000000
vn 0.000000 1.000000 0.000000
vn 0.000000 1.000000 0.000000
vn 0.000000 1.000000 0.000000
vn 0.000000 1.000000 0.000000
vn 0.000000 1.000000 0.000000
vn 0.000000 1.000000 0.000000
vn 0.000000 1.000000 0.000000
vn 0.000000 1.000000 0.000000
vn 0.000000 1.000000 0.000000
vn 0.000000 1.000000 0.000000
vn 0.000000 1.000000 0.000000
vn 0.000000 1.000000 0.000000
vn 0.000000 1.000000 0.000000
vn 0.000000 1.000000 0.000000
vn 0.000000 1.000000 0.000000
vn 0.000000 1.000000 0.000000
vn 0.000000 1.000000 0.000000
vn 0.000000 1.000000 0.000000
vn 0.000000 1.000000 0.000000
vn 0.000000 1.000000 0.000000
vn 0.000000 1.000000 0.000000
vn 0.000000 1.000000 0.000000
vn 0.000000 1.000000 0.000000
vn 0.000000 1.000000 0.000000
vn 0.000000 1.000000 0.000000
vn 0.000000 1.000000 0.000000
vn 0.000000 1.000000 0.000000
vn 0.000000 1.000000 0.000000
vn 0.000000 1.000000 0.000000
vn 0.000000 1.000000 0.000000
vn 0.000000 1.000000 0.000000
vn 0.000000 1.000000 0.000000
vn 0.000000 1.000000 0.000000
vn 0.000000 1.000000 0.000000
vn 0.000000 1.000000 0.000000
vn 0.000000 1.000000 0.000000
vn 0.000000 -0.000000 1.000000
vn 0.000000 -0.000000 1.000000
vn 0.000000 -0.000000 1.000000
vn 0.000000 -0.000000 1.000000
vn 0.000100 -0.000000 1.000000
vn 0.379910 -0.000000 0.925024
vn 0.000100 -0.000000 1.000000
vn 0.379910 -0.000000 0.925024
vn 0.714518 -0.000000 0.699617
vn 0.714518 -0.000000 0.699617
vn 0.931595 -0.000000 0.363498
vn 0.931595 -0.000000 0.363498
vn 1.000000 -0.000000 0.000100
vn 1.000000 -0.000000 0.000100
vn 1.000000 0.000000 0.000000
vn 1.000000 0.000000 0.000000
vn 1.000000 0.000000 0.000000
vn 1.000000 0.000000 0.000000
vn 1.000000 0.000000 -0.000100
vn 0.925024 0.000000 -0.379910
vn 1.000000 0.000000 -0.000100
vn 0.925024 0.000000 -0.379910
vn 0.699668 0.000000 -0.714468
vn 0.699668 0.000000 -0.714468
vn 0.363498 0.000000 -0.931595
vn 0.363498 0.000000 -0.931595
vn 0.000100 0.000000 -1.000000
vn 0.000100 0.000000 -1.000000
vn 0.000000 0.000000 -1.000000
vn 0.000000 0.000000 -1.000000
vn 0.000000 0.000000 -1.000000
vn 0.000000 0.000000 -1.000000
vn 0.000100 0.000000 -1.000000
vn 0.379910 0.000000 -0.925024
vn 0.000100 0.000000 -1.000000
vn 0.379910 0.000000 -0.925024
vn 0.714369 0.000000 -0.699769
vn 0.714369 0.000000 -0.699769
vn 0.931595 0.000000 -0.363498
vn 0.931595 0.000000 -0.363498
vn 1.000000 0.000000 -0.000100
vn 1.000000 0.000000 -0.000100
vn 1.000000 0.000000 0.000000
vn 1.000000 0.000000 0.000000
vn 1.000000 0.000000 0.000000
vn 1.000000 0.000000 0.000000
vn 1.000000 0.000000 -0.000100
vn 0.925024 0.000000 -0.379910
vn 1.000000 0.000000 -0.000100
vn 0.925024 0.000000 -0.379910
vn 0.699769 0.000000 -0.714369
vn 0.699769 0.000000 -0.714369
vn 0.363411 0.000000 -0.931629
vn 0.363411 0.000000 -0.931629
vn 0.000100 0.000000 -1.000000
vn 0.000100 0.000000 -1.000000
vn 0.000000 0.000000 -1.000000
vn 0.000000 0.000000 -1.000000
vn 0.000000 0.000000 -1.000000
vn 0.000000 0.000000 -1.000000
vn -0.000100 0.000000 -1.000000
vn -0.379910 0.000000 -0.925024
vn -0.000100 0.000000 -1.000000
vn -0.379910 0.000000 -0.925024
vn -0.714518 0.000000 -0.699617
vn -0.714518 0.000000 -0.699617
vn -0.931595 0.000000 -0.363498
vn -0.931595 0.000000 -0.363498
vn -1.000000 0.000000 -0.000100
vn -1.000000 0.000000 -0.000100
vn -1.000000 0.000000 0.000000
vn -1.000000 0.000000 0.000000
vn -1.000000 0.000000 0.000000
vn -1.000000 0.000000 0.000000
vn -1.000000 -0.000000 0.000100
vn -0.925024 -0.000000 0.379910
vn -1.000000 -0.000000 0.000100
vn -0.925024 -0.000000 0.379910
vn -0.699718 -0.000000 0.714419
vn -0.699718 -0.000000 0.714419
vn -0.363498 -0.000000 0.931595
vn -0.363498 -0.000000 0.931595
vn -0.000100 -0.000000 1.000000
vn -0.000100 -0.000000 1.000000
vn 1.000000 -0.000000 0.000100
vn 0.925024 -0.000000 0.379910
vn 1.000000 -0.000000 0.000100
vn 0.925024 -0.000000 0.379910
vn 0.699617 -0.000000 0.714518
vn 0.699617 -0.000000 0.714518
vn 0.363498 -0.000000 0.931595
vn 0.363498 -0.000000 0.931595
vn 0.000100 -0.000000 1.000000
vn 0.000100 -0.000000 1.000000
vn 0.000000 -0.000000 1.000000
vn 0.000000 -0.000000 1.000000
vn 0.000000 -0.000000 1.000000
vn 0.000000 -0.000000 1.000000
vn -1.000000 0.000000 0.000000
vn -1.000000 0.000000 0.000000
vn -1.000000 0.000000 0.000000
vn -1.000000 0.000000 0.000000
vn 0.000000 -0.000000 1.000000
vn 0.000000 -0.000000 1.000000
vn 0.000000 -0.000000 1.000000
vn 0.000000 -0.000000 1.000000
vn 1.000000 0.000000 0.000000
vn 1.000000 0.000000 0.000000
vn 1.000000 0.000000 0.000000
vn 1.000000 0.000000 0.000000
vn 0.000000 -0.000000 1.000000
vn 0.000000 -0.000000 1.000000
vn 0.000000 -0.000000 1.000000
vn 0.000000 -0.000000 1.000000
vn -1.000000 0.000000 0.000000
vn -1.000000 0.000000 0.000000
vn -1.000000 0.000000 0.000000
vn -1.000000 0.000000 0.000000
vn 0.000000 -0.000000 1.000000
vn 0.000000 -0.000000 1.000000
vn 0.000000 -0.000000 1.000000
vn 0.000000 -0.000000 1.000000
vn 1.000000 0.000000 0.000000
vn 1.000000 0.000000 0.000000
vn 1.000000 0.000000 0.000000
vn 1.000000 0.000000 0.000000
vn 0.000000 -0.000000 1.000000
vn 0.000000 -0.000000 1.000000
vn 0.000000 -0.000000 1.000000
vn 0.000000 -0.000000 1.000000
vn -0.000100 -0.000000 1.000000
vn -0.379910 -0.000000 0.925024
vn -0.000100 -0.000000 1.000000
vn -0.379910 -0.000000 0.925024
vn -0.714468 -0.000000 0.699668
vn -0.714468 -0.000000 0.699668
vn -0.931629 -0.000000 0.363411
vn -0.931629 -0.000000 0.363411
vn -1.000000 -0.000000 0.000100
vn -1.000000 -0.000000 0.000100
vn -1.000000 0.000000 0.000000
vn -1.000000 0.000000 0.000000
vn -1.000000 0.000000 0.000000
vn -1.000000 0.000000 0.000000
vn -1.000000 -0.000000 0.000100
vn -0.925024 -0.000000 0.379910
vn -1.000000 -0.000000 0.000100
vn -0.925024 -0.000000 0.379910
vn -0.699668 -0.000000 0.714468
vn -0.699668 -0.000000 0.714468
vn -0.363498 -0.000000 0.931595
vn -0.363498 -0.000000 0.931595
vn -0.000100 -0.000000 1.000000
vn -0.000100 -0.000000 1.000000
vn 0.000000 -0.000000 1.000000
vn 0.000000 -0.000000 1.000000
vn 0.000000 -0.000000 1.000000
vn 0.000000 -0.000000 1.000000
vn -0.000100 -0.000000 1.000000
vn -0.379910 -0.000000 0.925024
vn -0.000100 -0.000000 1.000000
vn -0.379910 -0.000000 0.925024
vn -0.714518 -0.000000 0.699617
vn -0.714518 -0.000000 0.699617
vn -0.931629 -0.000000 0.363411
vn -0.931629 -0.000000 0.363411
vn -1.000000 -0.000000 0.000100
vn -1.000000 -0.000000 0.000100
vn -1.000000 0.000000 0.000000
vn -1.000000 0.000000 0.000000
vn -1.000000 0.000000 0.000000
vn -1.000000 0.000000 0.000000
vn -1.000000 0.000000 -0.000100
vn -0.925024 0.000000 -0.379910
vn -1.000000 0.000000 -0.000100
vn -0.925024 0.000000 -0.379910
vn -0.699617 0.000000 -0.714518
vn -0.699617 0.000000 -0.714518
vn -0.363498 0.000000 -0.931595
vn -0.363498 0.000000 -0.931595
vn -0.000100 0.000000 -1.000000
vn -0.000100 0.000000 -1.000000
vn 0.000000 0.000000 -1.000000
vn 0.000000 0.000000 -1.000000
vn 0.000000 0.000000 -1.000000
vn 0.000000 0.000000 -1.000000
vn 1.000000 0.000000 0.000000
vn 1.000000 0.000000 0.000000
vn 1.000000 0.000000 0.000000
vn 1.000000 0.000000 0.000000
vn 0.000000 0.000000 -1.000000
vn 0.000000 0.000000 -1.000000
vn 0.000000 0.000000 -1.000000
vn 0.000000 0.000000 -1.000000
vn -1.000000 0.000000 0.000000
vn -1.000000 0.000000 0.000000
vn -1.000000 0.000000 0.000000
vn -1.000000 0.000000 0.000000
vn 0.000000 0.000000 -1.000000
vn 0.000000 0.000000 -1.000000
vn 0.000000 0.000000 -1.000000
vn 0.000000 0.000000 -1.000000
vn 0.000100 0.000000 -1.000000
vn 0.379910 0.000000 -0.925024
vn 0.000100 0.000000 -1.000000
vn 0.379910 0.000000 -0.925024
vn 0.714468 0.000000 -0.699668
vn 0.714468 0.000000 -0.699668
vn 0.931595 0.000000 -0.363498
vn 0.931595 0.000000 -0.363498
vn 1.000000 0.000100 -0.000100
vn 1.000000 0.000000 -0.000100
vn 1.000000 0.000000 0.000000
vn 1.000000 0.000000 0.000000
vn 1.000000 0.000000 0.000000
vn 1.000000 0.000000 0.000000
vn 0.000000 -1.000000 -0.000000
vn 0.000000 -1.000000 -0.000000
vn 0.000000 -1.000000 -0.000000
vn 0.000000 -1.000000 -0.000000
vn 0.000000 -1.000000 -0.000000
vn 0.000000 -1.000000 -0.000000
vn 0.000000 -1.000000 -0.000000
vn 0.000000 -1.000000 -0.000000
vn 0.000000 -1.000000 -0.000000
vn 0.000000 -1.000000 -0.000000
vn 0.000000 -1.000000 -0.000000
vn 0.000000 -1.000000 -0.000000
vn 0.000000 -1.000000 -0.000000
vn 0.000000 -1.000000 -0.000000
vn 0.000000 -1.000000 -0.000000
vn 0.000000 -1.000000 -0.000000
vn 0.000000 -1.000000 -0.000000
vn 0.000000 -1.000000 -0.000000
vn 0.000000 -1.000000 -0.000000
vn 0.000000 -1.000000 -0.000000
vn 0.000000 -1.000000 -0.000000
vn 0.000000 -1.000000 -0.000000
vn 0.000000 -1.000000 -0.000000
vn 0.000000 -1.000000 -0.000000
vn 0.000000 -1.000000 -0.000000
vn 0.000000 -1.000000 -0.000000
vn 0.000000 -1.000000 -0.000000
vn 0.000000 -1.000000 -0.000000
vn 0.000000 -1.000000 -0.000000
vn 0.000000 -1.000000 -0.000000
vn 0.000000 -1.000000 -0.000000
vn 0.000000 -1.000000 -0.000000
vn 0.000000 -1.000000 -0.000000
vn 0.000000 -1.000000 -0.000000
vn 0.000000 -1.000000 -0.000000
vn 0.000000 -1.000000 -0.000000
vn 0.000000 -1.000000 -0.000000
vn 0.000000 -1.000000 -0.000000
vn 0.000000 -1.000000 -0.000000
vn 0.000000 -1.000000 -0.000000
vn 0.000000 -1.000000 -0.000000
vn 0.000000 -1.000000 -0.000000
vn 0.000000 -1.000000 -0.000000
vn 0.000000 -1.000000 -0.000000
vn 0.000000 -1.000000 -0.000000
vn 0.000000 -1.000000 -0.000000
vn 0.000000 -1.000000 -0.000000
vn 0.000000 -1.000000 -0.000000
vn 0.000000 -1.000000 -0.000000
vn 0.000000 -1.000000 -0.000000
vn 0.000000 -1.000000 -0.000000
vn 0.000000 -1.000000 -0.000000
vn 0.000000 -1.000000 -0.000000
vn 0.000000 -1.000000 -0.000000
vn 0.000000 -1.000000 -0.000000
vn 0.000000 -1.000000 -0.000000
vn 0.000000 -1.000000 -0.000000
vn 0.000000 -1.000000 -0.000000
vn 0.000000 -1.000000 -0.000000
vn 0.000000 -1.000000 -0.000000
vn 0.000000 -1.000000 -0.000000
vn 0.000000 -1.000000 -0.000000
vn 0.000000 -1.000000 -0.000000
vn 0.000000 -1.000000 -0.000000
vn 0.000000 -1.000000 -0.000000
vn 0.000000 -1.000000 -0.000000
vn 0.000000 -1.000000 -0.000000
vn 0.000000 -1.000000 -0.000000
vn 0.000000 -1.000000 -0.000000
vn 0.000000 -1.000000 -0.000000
vn 0.000000 -1.000000 -0.000000
vn 0.000000 -1.000000 -0.000000
f 2//2 7//7 1//1
f 2//2 1//1 3//3
f 1//1 4//4 3//3
f 5//5 1//1 6//6
f 6//6 1//1 7//7
f 7//7 8//8 6//6
f 9//9 7//7 2//2
f 9//9 10//10 7//7
f 10//10 11//11 7//7
f 14//14 13//13 11//11
f 14//14 11//11 12//12
f 12//12 11//11 10//10
f 12//12 10//10 15//15
f 16//16 12//12 15//15
f 19//19 16//16 17//17
f 16//16 18//18 17//17
f 15//15 18//18 16//16
f 21//21 16//16 19//19
f 20//20 16//16 21//21
f 22//22 24//24 21//21
f 21//21 19//19 22//22
f 23//23 21//21 24//24
f 19//19 26//26 25//25
f 19//19 17//17 26//26
f 26//26 27//27 25//25
f 25//25 27//27 28//28
f 29//29 30//30 28//28
f 30//30 25//25 28//28
f 30//30 29//29 31//31
f 31//31 32//32 34//34
f 31//31 33//33 32//32
f 33//33 31//31 29//29
f 34//34 35//35 31//31
f 35//35 36//36 31//31
f 36//36 37//37 31//31
f 40//40 37//37 38//38
f 37//37 39//39 38//38
f 37//37 36//36 39//39
f 43//43 40//40 41//41
f 41//41 40//40 42//42
f 40//40 38//38 42//42
f 43//43 41//41 45//45
f 44//44 47//47 43//43
f 43//43 45//45 44//44
f 46//46 43//43 47//47
f 48//48 45//45 41//41
f 48//48 50//50 49//49
f 41//41 50//50 48//48
f 53//53 50//50 51//51
f 52//52 50//50 41//41
f 53//53 49//49 50//50
f 54//54 56//56 42//42
f 42//42 55//55 54//54
f 42//42 58//58 55//55
f 38//38 57//57 42//42
f 57//57 58//58 42//42
f 59//59 61//61 56//56
f 56//56 54//54 59//59
f 56//56 61//61 60//60
f 60//60 61//61 62//62
f 62//62 63//63 60//60
f 63//63 64//64 60//60
f 63//63 65//65 64//64
f 67//67 66//66 65//65
f 66//66 64//64 65//65
f 67//67 65//65 68//68
f 67//67 68//68 4//4
f 68//68 69//69 4//4
f 70//70 4//4 69//69
f 4//4 70//70 3//3
f 6//6 71//71 5//5
f 71//71 6//6 72//72
f 74//74 73//73 75//75
f 74//74 75//75 76//76
f 78//78 80//80 79//79
f 78//78 79//79 77//77
f 81//81 80//80 78//78
f 81//81 78//78 82//82
f 83//83 81//81 82//82
f 83//83 82//82 84//84
f 86//86 85//85 83//83
f 86//86 83//83 84//84
f 88//88 87//87 89//89
f 88//88 89//89 90//90
f 92//92 94//94 93//93
f 92//92 93//93 91//91
f 95//95 94//94 92//92
f 95//95 92//92 96//96
f 97//97 95//95 96//96
f 97//97 96//96 98//98
f 100//100 99//99 97//97
f 100//100 97//97 98//98
f 102//102 101//101 103//103
f 102//102 103//103 104//104
f 106//106 108//108 107//107
f 106//106 107//107 105//105
f 109//109 108//108 106//106
f 109//109 106//106 110//110
f 111//111 109//109 110//110
f 111//111 110//110 112//112
f 114//114 113//113 111//111
f 114//114 111//111 112//112
f 116//116 115//115 117//117
f 116//116 117//117 118//118
f 120//120 122//122 121//121
f 120//120 121//121 119//119
f 123//123 122//122 120//120
f 123//123 120//120 124//124
f 125//125 123//123 124//124
f 125//125 124//124 126//126
f 128//128 127//127 125//125
f 128//128 125//125 126//126
f 130//130 129//129 131//131
f 130//130 131//131 132//132
f 134//134 136//136 135//135
f 134//134 135//135 133//133
f 137//137 136//136 134//134
f 137//137 134//134 138//138
f 139//139 137//137 138//138
f 139//139 138//138 140//140
f 142//142 141//141 139//139
f 142//142 139//139 140//140
f 144//144 143//143 145//145
f 144//144 145//145 146//146
f 148//148 150//150 149//149
f 148//148 149//149 147//147
f 151//151 150//150 148//148
f 151//151 148//148 152//152
f 153//153 151//151 152//152
f 153//153 152//152 154//154
f 156//156 155//155 153//153
f 156//156 153//153 154//154
f 158//158 160//160 159//159
f 158//158 159//159 157//157
f 161//161 160//160 158//158
f 161//161 158//158 162//162
f 163//163 161//161 162//162
f 163//163 162//162 164//164
f 166//166 165//165 163//163
f 166//166 163//163 164//164
f 168//168 167//167 169//169
f 168//168 169//169 170//170
f 172//172 171//171 173//173
f 172//172 173//173 174//174
f 176//176 175//175 177//177
f 176//176 177//177 178//178
f 180//180 179//179 181//181
f 180//180 181//181 182//182
f 184//184 183//183 185//185
f 184//184 185//185 186//186
f 188//188 187//187 189//189
f 188//188 189//189 190//190
f 192//192 191//191 193//193
f 192//192 193//193 194//194
f 196//196 195//195 197//197
f 196//196 197//197 198//198
f 200//200 199//199 201//201
f 200//200 201//201 202//202
f 204//204 206//206 205//205
f 204//204 205//205 203//203
f 207//207 206//206 204//204
f 207//207 204//204 208//208
f 209//209 207//207 208//208
f 209//209 208//208 210//210
f 212//212 211//211 209//209
f 212//212 209//209 210//210
f 214//214 213//213 215//215
f 214//214 215//215 216//216
f 218//218 220//220 219//219
f 218//218 219//219 217//217
f 221//221 220//220 218//218
f 221//221 218//218 222//222
f 223//223 221//221 222//222
f 223//223 222//222 224//224
f 226//226 225//225 223//223
f 226//226 223//223 224//224
f 228//228 227//227 229//229
f 228//228 229//229 230//230
f 232//232 234//234 233//233
f 232//232 233//233 231//231
f 235//235 234//234 232//232
f 235//235 232//232 236//236
f 237//237 235//235 236//236
f 237//237 236//236 238//238
f 240//240 239//239 237//237
f 240//240 237//237 238//238
f 242//242 241//241 243//243
f 242//242 243//243 244//244
f 246//246 248//248 247//247
f 246//246 247//247 245//245
f 249//249 248//248 246//246
f 249//249 246//246 250//250
f 251//251 249//249 250//250
f 251//251 250//250 252//252
f 254//254 253//253 251//251
f 254//254 251//251 252//252
f 256//256 255//255 257//257
f 256//256 257//257 258//258
f 260//260 259//259 261//261
f 260//260 261//261 262//262
f 264//264 263//263 265//265
f 264//264 265//265 266//266
f 268//268 267//267 269//269
f 268//268 269//269 270//270
f 272//272 271//271 273//273
f 272//272 273//273 274//274
f 276//276 278//278 277//277
f 276//276 277//277 275//275
f 279//279 278//278 276//276
f 279//279 276//276 280//280
f 281//281 279//279 280//280
f 281//281 280//280 282//282
f 284//284 283//283 281//281
f 284//284 281//281 282//282
f 286//286 285//285 287//287
f 286//286 287//287 288//288
f 290//290 289//289 295//295
f 290//290 291//291 289//289
f 289//289 291//291 292//292
f 293//293 294//294 289//289
f 294//294 295//295 289//289
f 295//295 294//294 296//296
f 297//297 290//290 295//295
f 297//297 295//295 298//298
f 298//298 295//295 299//299
f 302//302 300//300 299//299
f 302//302 299//299 301//301
f 300//300 298//298 299//299
f 300//300 303//303 298//298
f 304//304 303//303 300//300
f 303//303 304//304 305//305
f 304//304 306//306 305//305
f 307//307 306//306 304//304
f 309//309 307//307 304//304
f 308//308 309//309 304//304
f 309//309 310//310 307//307
f 310//310 309//309 312//312
f 311//311 312//312 309//309
f 307//307 313//313 306//306
f 307//307 314//314 313//313
f 313//313 314//314 317//317
f 315//315 316//316 314//314
f 314//314 316//316 317//317
f 318//318 316//316 315//315
f 319//319 318//318 320//320
f 315//315 320//320 318//318
f 320//320 321//321 319//319
f 320//320 322//322 321//321
f 322//322 320//320 323//323
f 323//323 320//320 324//324
f 324//324 320//320 325//325
f 325//325 326//326 324//324
f 325//325 327//327 326//326
f 328//328 327//327 325//325
f 331//331 329//329 328//328
f 329//329 330//330 328//328
f 328//328 330//330 327//327
f 331//331 332//332 329//329
f 331//331 333//333 332//332
f 333//333 331//331 335//335
f 334//334 335//335 331//331
f 336//336 329//329 332//332
f 329//329 336//336 337//337
f 336//336 338//338 337//337
f 339//339 337//337 338//338
f 339//339 340//340 337//337
f 341//341 329//329 337//337
f 330//330 342//342 346//346
f 330//330 343//343 342//342
f 343//343 330//330 344//344
f 327//327 330//330 345//345
f 345//345 330//330 346//346
f 344//344 347//347 343//343
f 347//347 344//344 348//348
f 344//344 349//349 348//348
f 352//352 349//349 350//350
f 350//350 349//349 351//351
f 349//349 352//352 348//348
f 350//350 351//351 353//353
f 354//354 353//353 351//351
f 355//355 353//353 354//354
f 355//355 356//356 353//353
f 355//355 292//292 356//356
f 356//356 292//292 357//357
f 358//358 357//357 292//292
f 292//292 291//291 358//358
f 294//294 293//293 359//359
f 359//359 360//360 294//294
