# deco_11 exported from /models/joints/deco_11.glb
# units: meters
v 0.013641 0.001000 0.003362
v 0.013641 -0.001000 0.003362
v 0.013641 0.001000 0.003873
v 0.013641 -0.001000 0.003873
v 0.013641 0.001000 0.003873
v 0.013641 -0.001000 0.003873
v 0.013438 0.001000 0.004564
v 0.013438 -0.001000 0.004564
v 0.012925 0.001000 0.005087
v 0.012925 -0.001000 0.005087
v 0.012248 0.001000 0.005393
v 0.012248 -0.001000 0.005393
v 0.011533 0.001000 0.005489
v 0.011533 -0.001000 0.005489
v 0.011533 0.001000 0.005489
v 0.011533 -0.001000 0.005489
v -0.008607 0.001000 0.005489
v -0.008607 -0.001000 0.005489
v 0.010014 0.001000 0.005489
v 0.010014 -0.001000 0.005489
v -0.008607 0.001000 0.005489
v -0.008607 -0.001000 0.005489
v -0.009490 0.001000 0.005248
v -0.009490 -0.001000 0.005248
v -0.010159 0.001000 0.004641
v -0.010159 -0.001000 0.004641
v -0.010582 0.001000 0.003784
v -0.010582 -0.001000 0.003784
v -0.010715 0.001000 0.002869
v -0.010715 -0.001000 0.002869
v -0.010715 0.001000 0.002869
v -0.010715 -0.001000 0.002869
v -0.010715 0.001000 -0.003760
v -0.010715 -0.001000 -0.003760
v -0.010715 0.001000 -0.003760
v -0.010715 -0.001000 -0.003760
v -0.010583 0.001000 -0.004673
v -0.010583 -0.001000 -0.004673
v -0.010174 0.001000 -0.005512
v -0.010174 -0.001000 -0.005512
v -0.009491 0.001000 -0.006139
v -0.009491 -0.001000 -0.006139
v -0.008607 0.001000 -0.006381
v -0.008607 -0.001000 -0.006381
v -0.008607 0.001000 -0.006381
v -0.008607 -0.001000 -0.006381
v -0.007238 0.001000 -0.006381
v -0.007238 -0.001000 -0.006381
v 0.006117 0.001000 -0.006381
v 0.006117 -0.001000 -0.006381
v 0.006994 0.001000 -0.006143
v 0.006994 -0.001000 -0.006143
v 0.007662 0.001000 -0.005542
v 0.007662 -0.001000 -0.005542
v 0.008087 0.001000 -0.004692
v 0.008087 -0.001000 -0.004692
v 0.008224 0.001000 -0.003782
v 0.008224 -0.001000 -0.003782
v 0.008224 0.001000 -0.003782
v 0.008224 -0.001000 -0.003782
v 0.008227 0.001000 -0.000069
v 0.008227 -0.001000 -0.000069
v 0.008227 0.001000 -0.000069
v 0.008227 -0.001000 -0.000069
v 0.008428 0.001000 0.000631
v 0.008428 -0.001000 0.000631
v 0.008917 0.001000 0.001155
v 0.008917 -0.001000 0.001155
v 0.009603 0.001000 0.001486
v 0.009603 -0.001000 0.001486
v 0.010334 0.001000 0.001590
v 0.010334 -0.001000 0.001590
v 0.010334 0.001000 0.001590
v 0.010334 -0.001000 0.001590
v 0.011533 0.001000 0.001590
v 0.011533 -0.001000 0.001590
v 0.011533 0.001000 0.001590
v 0.011533 -0.001000 0.001590
v 0.012280 0.001000 0.001705
v 0.012280 -0.001000 0.001705
v 0.012959 0.001000 0.002057
v 0.012959 -0.001000 0.002057
v 0.013454 0.001000 0.002633
v 0.013454 -0.001000 0.002633
v 0.013641 0.001000 0.003362
v 0.013641 -0.001000 0.003362
v 0.006060 0.001000 -0.003797
v 0.004060 0.001000 -0.003797
v 0.006060 -0.001000 -0.003797
v 0.004060 -0.001000 -0.003797
v 0.004060 0.000000 -0.003800
v 0.006060 0.000000 -0.003800
v 0.005060 0.001000 -0.003797
v 0.005060 -0.001000 -0.003797
v 0.006060 0.001000 -0.006381
v 0.006060 -0.001000 -0.006381
v 0.006060 0.001000 -0.003797
v 0.006060 0.000000 -0.003800
v 0.006060 0.001000 -0.003870
v 0.006060 -0.001000 -0.003797
v 0.006060 -0.001000 -0.003870
v 0.004060 0.001000 -0.006381
v 0.004060 0.001000 -0.003797
v 0.004060 0.000000 -0.003800
v 0.004060 -0.001000 -0.006381
v 0.004060 0.001000 -0.003870
v 0.004060 -0.001000 -0.003797
v 0.004060 -0.001000 -0.003870
v 0.006060 0.001000 -0.006381
v 0.006117 0.001000 -0.006381
v 0.006117 -0.001000 -0.006381
v 0.006060 -0.001000 -0.006381
v -0.007238 0.001000 -0.003797
v -0.005238 -0.001000 -0.003797
v -0.007238 -0.001000 -0.003797
v -0.007238 -0.000000 -0.003800
v -0.005238 0.001000 -0.003797
v -0.005238 -0.000000 -0.003800
v -0.006238 -0.001000 -0.003797
v -0.006238 0.001000 -0.003797
v -0.005238 -0.001000 -0.006381
v -0.005238 0.001000 -0.003797
v -0.005238 -0.000000 -0.003800
v -0.005238 -0.001000 -0.003797
v -0.005238 -0.001000 -0.003870
v -0.005238 0.001000 -0.006381
v -0.005238 0.001000 -0.003870
v -0.007238 0.001000 -0.003797
v -0.007238 -0.001000 -0.006381
v -0.007238 -0.000000 -0.003800
v -0.007238 -0.001000 -0.003797
v -0.007238 -0.001000 -0.003870
v -0.007238 0.001000 -0.006381
v -0.007238 0.001000 -0.003870
v -0.005238 -0.001000 -0.006381
v 0.004060 0.001000 -0.006381
v 0.004060 -0.001000 -0.006381
v -0.005238 0.001000 -0.006381
v 0.013641 -0.001000 0.003362
v -0.008607 -0.001000 0.005489
v -0.009490 -0.001000 0.005248
v -0.010159 -0.001000 0.004641
v -0.010582 -0.001000 0.003784
v -0.010715 -0.001000 0.002869
v -0.010715 -0.001000 -0.003760
v -0.010583 -0.001000 -0.004673
v -0.010174 -0.001000 -0.005512
v -0.009491 -0.001000 -0.006139
v -0.008607 -0.001000 -0.006381
v 0.006117 -0.001000 -0.006381
v 0.006994 -0.001000 -0.006143
v 0.007662 -0.001000 -0.005542
v 0.008087 -0.001000 -0.004692
v 0.008224 -0.001000 -0.003782
v 0.008227 -0.001000 -0.000069
v 0.010334 -0.001000 0.001590
v 0.011533 -0.001000 0.001590
v 0.004060 -0.001000 -0.003797
v 0.005060 -0.001000 -0.003797
v 0.006060 -0.001000 -0.003797
v 0.006060 -0.001000 -0.006381
v -0.007238 -0.001000 -0.003797
v -0.006238 -0.001000 -0.003797
v -0.005238 -0.001000 -0.003797
v -0.005238 -0.001000 -0.006381
v 0.013641 -0.001000 0.003873
v 0.013438 -0.001000 0.004564
v 0.012925 -0.001000 0.005087
v 0.012248 -0.001000 0.005393
v 0.011533 -0.001000 0.005489
v 0.010014 -0.001000 0.005489
v 0.008428 -0.001000 0.000631
v 0.008917 -0.001000 0.001155
v 0.009603 -0.001000 0.001486
v 0.012280 -0.001000 0.001705
v 0.012959 -0.001000 0.002057
v 0.013454 -0.001000 0.002633
v 0.006060 -0.001000 -0.003870
v 0.004060 -0.001000 -0.006381
v 0.004060 -0.001000 -0.003870
v -0.005238 -0.001000 -0.003870
v -0.007238 -0.001000 -0.006381
v -0.007238 -0.001000 -0.003870
v 0.013641 0.001000 0.003362
v -0.008607 0.001000 0.005489
v -0.009490 0.001000 0.005248
v -0.010159 0.001000 0.004641
v -0.010582 0.001000 0.003784
v -0.010715 0.001000 0.002869
v -0.010715 0.001000 -0.003760
v -0.010583 0.001000 -0.004673
v -0.010174 0.001000 -0.005512
v -0.009491 0.001000 -0.006139
v -0.008607 0.001000 -0.006381
v 0.006117 0.001000 -0.006381
v 0.006994 0.001000 -0.006143
v 0.007662 0.001000 -0.005542
v 0.008087 0.001000 -0.004692
v 0.008224 0.001000 -0.003782
v 0.008227 0.001000 -0.000069
v 0.010334 0.001000 0.001590
v 0.011533 0.001000 0.001590
v 0.004060 0.001000 -0.003797
v 0.005060 0.001000 -0.003797
v 0.006060 0.001000 -0.003797
v 0.006060 0.001000 -0.006381
v -0.007238 0.001000 -0.003797
v -0.006238 0.001000 -0.003797
v -0.005238 0.001000 -0.003797
v -0.005238 0.001000 -0.006381
v 0.013641 0.001000 0.003873
v 0.013438 0.001000 0.004564
v 0.012925 0.001000 0.005087
v 0.012248 0.001000 0.005393
v 0.011533 0.001000 0.005489
v 0.010014 0.001000 0.005489
v 0.008428 0.001000 0.000631
v 0.008917 0.001000 0.001155
v 0.009603 0.001000 0.001486
v 0.012280 0.001000 0.001705
v 0.012959 0.001000 0.002057
v 0.013454 0.001000 0.002633
v 0.006060 0.001000 -0.003870
v 0.004060 0.001000 -0.006381
v 0.004060 0.001000 -0.003870
v -0.005238 0.001000 -0.003870
v -0.007238 0.001000 -0.006381
v -0.007238 0.001000 -0.003870
vn 1.000000 0.000000 0.000000
vn 1.000000 0.000000 0.000000
vn 1.000000 0.000000 0.000000
vn 1.000000 0.000000 0.000000
vn 1.000000 0.000000 0.000000
vn 1.000000 0.000000 0.000000
vn 0.850840 0.000000 0.525425
vn 0.850840 0.000000 0.525425
vn 0.558916 0.000000 0.829224
vn 0.558916 0.000000 0.829224
vn 0.266602 0.000000 0.963807
vn 0.266602 0.000000 0.963807
vn 0.000000 0.000000 1.000000
vn 0.000000 0.000000 1.000000
vn 0.000000 0.000000 1.000000
vn 0.000000 0.000000 1.000000
vn 0.000000 0.000000 1.000000
vn 0.000000 0.000000 1.000000
vn 0.000000 0.000000 1.000000
vn 0.000000 0.000000 1.000000
vn -0.000100 -0.000100 1.000000
vn -0.000100 -0.000000 1.000000
vn -0.497409 -0.000000 0.867516
vn -0.497409 -0.000000 0.867516
vn -0.804263 -0.000000 0.594273
vn -0.804263 -0.000000 0.594273
vn -0.957901 -0.000000 0.287100
vn -0.957901 -0.000000 0.287100
vn -1.000000 -0.000000 0.000000
vn -1.000000 -0.000000 0.000000
vn -1.000000 -0.000000 0.000000
vn -1.000000 -0.000000 0.000000
vn -1.000000 -0.000000 0.000000
vn -1.000000 -0.000000 0.000000
vn -1.000000 -0.000000 0.000000
vn -1.000000 -0.000000 0.000000
vn -0.958137 -0.000000 -0.286311
vn -0.958137 -0.000000 -0.286311
vn -0.810307 -0.000000 -0.586005
vn -0.810307 -0.000000 -0.586005
vn -0.497990 -0.000000 -0.867183
vn -0.497990 -0.000000 -0.867183
vn -0.000000 0.000000 -1.000000
vn -0.000000 0.000000 -1.000000
vn -0.000000 0.000000 -1.000000
vn -0.000000 0.000000 -1.000000
vn -0.000000 0.000000 -1.000000
vn -0.000000 0.000000 -1.000000
vn -0.000000 0.000000 -1.000000
vn -0.000000 0.000000 -1.000000
vn 0.494878 0.000000 -0.868962
vn 0.494878 0.000000 -0.868962
vn 0.801581 0.000000 -0.597886
vn 0.801581 0.000000 -0.597886
vn 0.956232 0.000000 -0.292610
vn 0.956232 0.000000 -0.292610
vn 0.999977 0.000000 -0.006800
vn 0.999977 0.000000 -0.006800
vn 1.000000 0.000000 -0.000800
vn 1.000000 0.000000 -0.000800
vn 1.000000 0.000000 -0.000800
vn 1.000000 0.000000 -0.000800
vn 0.999943 0.000000 -0.010700
vn 0.999943 0.000000 -0.010700
vn 0.859770 0.000000 -0.510682
vn 0.859770 0.000000 -0.510682
vn 0.585129 0.000000 -0.810940
vn 0.585129 0.000000 -0.810940
vn 0.281793 0.000000 -0.959475
vn 0.281793 0.000000 -0.959475
vn -0.000000 0.000000 -1.000000
vn -0.000000 0.000000 -1.000000
vn -0.000000 0.000000 -1.000000
vn -0.000000 0.000000 -1.000000
vn -0.000000 0.000000 -1.000000
vn -0.000000 0.000000 -1.000000
vn -0.000000 0.000000 -1.000000
vn -0.000000 0.000000 -1.000000
vn 0.303389 0.000000 -0.952867
vn 0.303389 0.000000 -0.952867
vn 0.611126 0.000000 -0.791533
vn 0.611126 0.000000 -0.791533
vn 0.881007 0.000000 -0.473104
vn 0.881007 0.000000 -0.473104
vn 1.000000 0.000000 -0.000100
vn 1.000000 0.000000 -0.000100
vn -0.000000 0.009500 -0.999955
vn -0.000000 0.009500 -0.999955
vn -0.000000 -0.009500 -0.999955
vn -0.000000 -0.009500 -0.999955
vn -0.000000 0.000000 -1.000000
vn -0.000000 0.000000 -1.000000
vn -0.000000 0.009500 -0.999955
vn -0.000000 -0.009500 -0.999955
vn -1.000000 -0.000000 0.000000
vn -1.000000 -0.000000 0.000000
vn -1.000000 -0.000000 0.000000
vn -1.000000 -0.000000 0.000000
vn -1.000000 -0.000000 0.000000
vn -1.000000 -0.000000 0.000000
vn -1.000000 -0.000000 0.000000
vn 1.000000 0.000000 0.000000
vn 1.000000 0.000000 0.000000
vn 1.000000 0.000000 0.000000
vn 1.000000 0.000000 0.000000
vn 1.000000 0.000000 0.000000
vn 1.000000 0.000000 0.000000
vn 1.000000 0.000000 0.000000
vn -0.000000 0.000000 -1.000000
vn -0.000000 0.000000 -1.000000
vn -0.000000 0.000000 -1.000000
vn -0.000000 0.000000 -1.000000
vn -0.000000 0.009500 -0.999955
vn -0.000000 -0.009500 -0.999955
vn -0.000000 -0.009500 -0.999955
vn -0.000000 0.000000 -1.000000
vn -0.000000 0.009500 -0.999955
vn -0.000000 0.000000 -1.000000
vn -0.000000 -0.009500 -0.999955
vn -0.000000 0.009500 -0.999955
vn -1.000000 -0.000000 0.000000
vn -1.000000 -0.000000 0.000000
vn -1.000000 -0.000000 0.000000
vn -1.000000 -0.000000 0.000000
vn -1.000000 -0.000000 0.000000
vn -1.000000 -0.000000 0.000000
vn -1.000000 -0.000000 0.000000
vn 1.000000 0.000000 0.000000
vn 1.000000 0.000000 0.000000
vn 1.000000 0.000000 0.000000
vn 1.000000 0.000000 0.000000
vn 1.000000 0.000000 0.000000
vn 1.000000 0.000000 0.000000
vn 1.000000 0.000000 0.000000
vn -0.000000 0.000000 -1.000000
vn -0.000000 0.000000 -1.000000
vn -0.000000 0.000000 -1.000000
vn -0.000000 0.000000 -1.000000
vn 0.000000 -1.000000 0.000000
vn 0.000000 -1.000000 0.000000
vn 0.000000 -1.000000 0.000000
vn 0.000000 -1.000000 0.000000
vn 0.000000 -1.000000 0.000000
vn 0.000000 -1.000000 0.000000
vn 0.000000 -1.000000 0.000000
vn 0.000000 -1.000000 0.000000
vn 0.000000 -1.000000 0.000000
vn 0.000000 -1.000000 0.000000
vn 0.000000 -1.000000 0.000000
vn 0.000000 -1.000000 0.000000
vn 0.000000 -1.000000 0.000000
vn 0.000000 -1.000000 0.000000
vn 0.000000 -1.000000 0.000000
vn 0.000000 -1.000000 0.000000
vn 0.000000 -1.000000 0.000000
vn 0.000000 -1.000000 0.000000
vn 0.000000 -1.000000 0.000000
vn 0.000000 -1.000000 0.000000
vn 0.000000 -1.000000 0.000000
vn 0.000000 -1.000000 0.000000
vn 0.000000 -1.000000 0.000000
vn 0.000000 -1.000000 0.000000
vn 0.000000 -1.000000 0.000000
vn 0.000000 -1.000000 0.000000
vn 0.000000 -1.000000 0.000000
vn 0.000000 -1.000000 0.000000
vn 0.000000 -1.000000 0.000000
vn 0.000000 -1.000000 0.000000
vn 0.000000 -1.000000 0.000000
vn 0.000000 -1.000000 0.000000
vn 0.000000 -1.000000 0.000000
vn 0.000000 -1.000000 0.000000
vn 0.000000 -1.000000 0.000000
vn 0.000000 -1.000000 0.000000
vn 0.000000 -1.000000 0.000000
vn 0.000000 -1.000000 0.000000
vn 0.000000 -1.000000 0.000000
vn 0.000000 -1.000000 0.000000
vn 0.000000 -1.000000 0.000000
vn 0.000000 -1.000000 0.000000
vn 0.000000 -1.000000 0.000000
vn 0.000000 -1.000000 0.000000
vn 0.000000 -1.000000 0.000000
vn 0.000000 1.000000 -0.000000
vn 0.000000 1.000000 -0.000000
vn 0.000000 1.000000 -0.000000
vn 0.000000 1.000000 -0.000000
vn 0.000000 1.000000 -0.000000
vn 0.000000 1.000000 -0.000000
vn 0.000000 1.000000 -0.000000
vn 0.000000 1.000000 -0.000000
vn 0.000000 1.000000 -0.000000
vn 0.000000 1.000000 -0.000000
vn 0.000000 1.000000 -0.000000
vn 0.000000 1.000000 -0.000000
vn 0.000000 1.000000 -0.000000
vn 0.000000 1.000000 -0.000000
vn 0.000000 1.000000 -0.000000
vn 0.000000 1.000000 -0.000000
vn 0.000000 1.000000 -0.000000
vn 0.000000 1.000000 -0.000000
vn 0.000000 1.000000 -0.000000
vn 0.000000 1.000000 -0.000000
vn 0.000000 1.000000 -0.000000
vn 0.000000 1.000000 -0.000000
vn 0.000000 1.000000 -0.000000
vn 0.000000 1.000000 -0.000000
vn 0.000000 1.000000 -0.000000
vn 0.000000 1.000000 -0.000000
vn 0.000000 1.000000 -0.000000
vn 0.000000 1.000000 -0.000000
vn 0.000000 1.000000 -0.000000
vn 0.000000 1.000000 -0.000000
vn 0.000000 1.000000 -0.000000
vn 0.000000 1.000000 -0.000000
vn 0.000000 1.000000 -0.000000
vn 0.000000 1.000000 -0.000000
vn 0.000000 1.000000 -0.000000
vn 0.000000 1.000000 -0.000000
vn 0.000000 1.000000 -0.000000
vn 0.000000 1.000000 -0.000000
vn 0.000000 1.000000 -0.000000
vn 0.000000 1.000000 -0.000000
vn 0.000000 1.000000 -0.000000
vn 0.000000 1.000000 -0.000000
vn 0.000000 1.000000 -0.000000
vn 0.000000 1.000000 -0.000000
vn 0.000000 1.000000 -0.000000
f 2//2 1//1 3//3
f 2//2 3//3 4//4
f 7//7 8//8 6//6
f 7//7 6//6 5//5
f 8//8 7//7 9//9
f 8//8 9//9 10//10
f 13//13 14//14 12//12
f 13//13 12//12 11//11
f 11//11 12//12 10//10
f 11//11 10//10 9//9
f 20//20 16//16 15//15
f 20//20 15//15 19//19
f 19//19 17//17 18//18
f 19//19 18//18 20//20
f 23//23 24//24 22//22
f 23//23 22//22 21//21
f 24//24 23//23 25//25
f 24//24 25//25 26//26
f 29//29 30//30 28//28
f 29//29 28//28 27//27
f 27//27 28//28 26//26
f 27//27 26//26 25//25
f 32//32 31//31 33//33
f 32//32 33//33 34//34
f 37//37 38//38 36//36
f 37//37 36//36 35//35
f 38//38 37//37 39//39
f 38//38 39//39 40//40
f 43//43 44//44 42//42
f 43//43 42//42 41//41
f 41//41 42//42 40//40
f 41//41 40//40 39//39
f 46//46 45//45 47//47
f 46//46 47//47 48//48
f 51//51 52//52 50//50
f 51//51 50//50 49//49
f 52//52 51//51 53//53
f 52//52 53//53 54//54
f 57//57 58//58 56//56
f 57//57 56//56 55//55
f 55//55 56//56 54//54
f 55//55 54//54 53//53
f 60//60 59//59 61//61
f 60//60 61//61 62//62
f 65//65 66//66 64//64
f 65//65 64//64 63//63
f 66//66 65//65 67//67
f 66//66 67//67 68//68
f 71//71 72//72 70//70
f 71//71 70//70 69//69
f 69//69 70//70 68//68
f 69//69 68//68 67//67
f 74//74 73//73 75//75
f 74//74 75//75 76//76
f 79//79 80//80 78//78
f 79//79 78//78 77//77
f 80//80 79//79 81//81
f 80//80 81//81 82//82
f 85//85 86//86 84//84
f 85//85 84//84 83//83
f 83//83 84//84 82//82
f 83//83 82//82 81//81
f 93//93 87//87 92//92
f 93//93 91//91 88//88
f 91//91 93//93 92//92
f 92//92 94//94 91//91
f 94//94 90//90 91//91
f 89//89 94//94 92//92
f 98//98 95//95 96//96
f 99//99 95//95 98//98
f 96//96 101//101 98//98
f 98//98 101//101 100//100
f 97//97 99//99 98//98
f 104//104 105//105 102//102
f 106//106 104//104 102//102
f 105//105 104//104 108//108
f 104//104 107//107 108//108
f 103//103 104//104 106//106
f 112//112 109//109 110//110
f 112//112 110//110 111//111
f 120//120 117//117 118//118
f 120//120 116//116 113//113
f 116//116 120//120 118//118
f 116//116 118//118 114//114
f 116//116 114//114 119//119
f 119//119 115//115 116//116
f 125//125 123//123 121//121
f 126//126 121//121 123//123
f 123//123 122//122 127//127
f 123//123 125//125 124//124
f 127//127 126//126 123//123
f 130//130 129//129 133//133
f 134//134 130//130 133//133
f 129//129 130//130 132//132
f 130//130 131//131 132//132
f 128//128 130//130 134//134
f 135//135 138//138 136//136
f 135//135 136//136 137//137
f 161//161 151//151 152//152
f 151//151 161//161 150//150
f 178//178 161//161 152//152
f 160//160 178//178 154//154
f 153//153 154//154 178//178
f 155//155 164//164 158//158
f 165//165 179//179 180//180
f 159//159 155//155 158//158
f 153//153 178//178 152//152
f 158//158 164//164 180//180
f 183//183 147//147 182//182
f 148//148 149//149 147//147
f 182//182 147//147 149//149
f 180//180 181//181 165//165
f 144//144 163//163 164//164
f 183//183 145//145 146//146
f 183//183 146//146 147//147
f 162//162 145//145 183//183
f 162//162 163//163 144//144
f 181//181 180//180 164//164
f 160//160 155//155 159//159
f 156//156 176//176 177//177
f 157//157 175//175 176//176
f 156//156 157//157 176//176
f 156//156 177//177 139//139
f 139//139 166//166 171//171
f 166//166 167//167 171//171
f 170//170 168//168 169//169
f 167//167 168//168 170//170
f 156//156 139//139 171//171
f 167//167 170//170 171//171
f 173//173 140//140 172//172
f 172//172 144//144 155//155
f 155//155 144//144 164//164
f 144//144 145//145 162//162
f 154//154 155//155 160//160
f 171//171 173//173 174//174
f 140//140 144//144 172//172
f 141//141 142//142 140//140
f 144//144 140//140 143//143
f 142//142 143//143 140//140
f 171//171 140//140 173//173
f 171//171 174//174 156//156
f 206//206 197//197 196//196
f 196//196 195//195 206//206
f 223//223 197//197 206//206
f 205//205 199//199 223//223
f 198//198 223//223 199//199
f 200//200 204//204 203//203
f 209//209 203//203 225//225
f 204//204 200//200 205//205
f 198//198 197//197 223//223
f 210//210 225//225 224//224
f 228//228 227//227 192//192
f 193//193 192//192 194//194
f 227//227 194//194 192//192
f 225//225 210//210 226//226
f 189//189 208//208 207//207
f 228//228 191//191 190//190
f 228//228 192//192 191//191
f 207//207 228//228 190//190
f 189//189 209//209 208//208
f 226//226 209//209 225//225
f 209//209 200//200 203//203
f 201//201 222//222 221//221
f 202//202 221//221 220//220
f 201//201 221//221 202//202
f 201//201 184//184 222//222
f 184//184 216//216 211//211
f 211//211 216//216 212//212
f 215//215 214//214 213//213
f 212//212 215//215 213//213
f 201//201 216//216 184//184
f 212//212 216//216 215//215
f 218//218 217//217 185//185
f 217//217 200//200 189//189
f 200//200 209//209 189//189
f 189//189 207//207 190//190
f 199//199 205//205 200//200
f 216//216 219//219 218//218
f 185//185 217//217 189//189
f 186//186 185//185 187//187
f 189//189 188//188 185//185
f 187//187 185//185 188//188
f 216//216 218//218 185//185
f 216//216 201//201 219//219
