# deco_10 exported from /models/joints/deco_10.glb
# units: meters
v 0.010008 -0.001000 0.008728
v 0.010008 -0.001000 0.000827
v 0.010008 -0.001000 -0.007074
v 0.010008 0.001000 -0.007074
v 0.010008 0.000000 -0.007074
v 0.010008 0.001000 0.008728
v 0.010008 0.000000 0.008728
v 0.010008 -0.001000 -0.007074
v 0.009670 -0.001000 -0.008790
v 0.008652 -0.001000 -0.010301
v 0.007133 -0.001000 -0.011282
v 0.005491 -0.001000 -0.011591
v 0.010008 0.001000 -0.007074
v 0.009670 0.001000 -0.008790
v 0.008652 0.001000 -0.010301
v 0.007133 0.001000 -0.011282
v 0.005491 0.001000 -0.011591
v 0.010008 0.000000 -0.007074
v 0.005491 0.000000 -0.011591
v 0.005491 -0.001000 -0.011591
v -0.005474 -0.001000 -0.011591
v 0.005491 0.001000 -0.011591
v -0.005474 0.001000 -0.011591
v 0.005491 0.000000 -0.011591
v -0.005474 0.000000 -0.011591
v 0.000008 0.000000 -0.011591
v 0.002750 0.000000 -0.011591
v 0.000008 -0.000500 -0.011591
v 0.002750 -0.000500 -0.011591
v 0.000008 0.000500 -0.011591
v 0.002750 0.000500 -0.011591
v -0.002733 0.000000 -0.011591
v -0.002733 0.000500 -0.011591
v -0.002733 -0.000500 -0.011591
v -0.005474 -0.001000 -0.011591
v -0.007190 -0.001000 -0.011252
v -0.008702 -0.001000 -0.010234
v -0.009683 -0.001000 -0.008715
v -0.009992 -0.001000 -0.007074
v -0.005474 0.001000 -0.011591
v -0.007190 0.001000 -0.011252
v -0.008702 0.001000 -0.010234
v -0.009683 0.001000 -0.008715
v -0.009992 0.001000 -0.007074
v -0.005474 0.000000 -0.011591
v -0.009992 0.000000 -0.007074
v -0.009992 -0.001000 -0.007074
v -0.009992 -0.001000 0.000827
v -0.009992 -0.001000 0.008728
v -0.009992 0.001000 -0.007074
v -0.009992 0.001000 0.000827
v -0.009992 0.001000 0.008728
v -0.009992 0.000000 -0.007074
v -0.009992 0.000000 0.008728
v 0.010008 0.001000 -0.007074
v 0.009670 0.001000 -0.008790
v 0.008652 0.001000 -0.010301
v 0.007133 0.001000 -0.011282
v 0.005491 0.001000 -0.011591
v -0.005474 0.001000 -0.011591
v -0.007190 0.001000 -0.011252
v -0.008702 0.001000 -0.010234
v -0.009683 0.001000 -0.008715
v -0.009992 0.001000 -0.007074
v -0.009992 0.001000 0.000827
v -0.009992 0.001000 0.008728
v -0.006724 0.001000 -0.002054
v -0.004724 0.001000 -0.002054
v 0.004687 0.001000 -0.002054
v 0.006741 0.001000 -0.002054
v -0.001492 0.001000 0.000765
v -0.001387 0.001000 0.000216
v -0.001055 0.001000 -0.000289
v -0.000550 0.001000 -0.000621
v -0.000001 0.001000 -0.000726
v 0.000547 0.001000 -0.000621
v 0.001053 0.001000 -0.000289
v 0.001385 0.001000 0.000216
v 0.001489 0.001000 0.000765
v 0.001489 0.001000 0.005247
v 0.001489 0.001000 0.009728
v 0.003766 0.001000 -0.008774
v 0.004491 0.001000 -0.008635
v 0.005159 0.001000 -0.008197
v 0.005598 0.001000 -0.007529
v 0.005736 0.001000 -0.006804
v 0.005598 0.001000 -0.006079
v 0.005159 0.001000 -0.005411
v 0.004491 0.001000 -0.004972
v 0.003766 0.001000 -0.004834
v 0.000020 0.001000 -0.004834
v -0.003727 0.001000 -0.004834
v -0.004452 0.001000 -0.004972
v -0.005120 0.001000 -0.005411
v -0.005558 0.001000 -0.006079
v -0.005697 0.001000 -0.006804
v -0.005558 0.001000 -0.007529
v -0.005120 0.001000 -0.008197
v -0.004452 0.001000 -0.008635
v -0.003727 0.001000 -0.008774
v 0.000020 0.001000 -0.008774
v -0.004724 0.001000 0.011728
v 0.006741 0.001000 0.011728
v -0.006724 0.001000 0.011728
v 0.004687 0.001000 0.011728
v -0.006992 0.001000 0.011728
v -0.009781 0.001000 0.009833
v -0.009113 0.001000 0.010850
v -0.008096 0.001000 0.011518
v 0.010008 0.001000 0.008728
v 0.007008 0.001000 0.011728
v 0.008113 0.001000 0.011518
v 0.009130 0.001000 0.010850
v 0.009798 0.001000 0.009833
v 0.003489 0.001000 0.011728
v 0.001630 0.001000 0.010465
v 0.002075 0.001000 0.011143
v 0.002753 0.001000 0.011588
v -0.001492 0.001000 0.009728
v -0.001492 0.001000 0.005247
v -0.003492 0.001000 0.011728
v -0.002755 0.001000 0.011588
v -0.002077 0.001000 0.011143
v -0.001632 0.001000 0.010465
v 0.010008 -0.001000 -0.007074
v 0.010008 -0.001000 0.000827
v 0.010008 -0.001000 0.008728
v 0.005491 -0.001000 -0.011591
v 0.007133 -0.001000 -0.011282
v 0.008652 -0.001000 -0.010301
v 0.009670 -0.001000 -0.008790
v -0.005474 -0.001000 -0.011591
v -0.009992 -0.001000 -0.007074
v -0.009683 -0.001000 -0.008715
v -0.008702 -0.001000 -0.010234
v -0.007190 -0.001000 -0.011252
v -0.004724 -0.001000 -0.002054
v -0.006724 -0.001000 -0.002054
v 0.006741 -0.001000 -0.002054
v 0.004687 -0.001000 -0.002054
v 0.004687 -0.001000 0.011728
v 0.001489 -0.001000 0.000765
v 0.001385 -0.001000 0.000216
v 0.001053 -0.001000 -0.000289
v 0.000547 -0.001000 -0.000621
v -0.000001 -0.001000 -0.000726
v -0.000550 -0.001000 -0.000621
v -0.001055 -0.001000 -0.000289
v -0.001387 -0.001000 0.000216
v -0.001492 -0.001000 0.000765
v -0.001492 -0.001000 0.005247
v -0.001492 -0.001000 0.009728
v 0.005736 -0.001000 -0.006804
v 0.005598 -0.001000 -0.007529
v 0.005159 -0.001000 -0.008197
v 0.004491 -0.001000 -0.008635
v 0.003766 -0.001000 -0.008774
v 0.003766 -0.001000 -0.004834
v 0.004491 -0.001000 -0.004972
v 0.005159 -0.001000 -0.005411
v 0.005598 -0.001000 -0.006079
v -0.003727 -0.001000 -0.004834
v 0.000020 -0.001000 -0.004834
v -0.003727 -0.001000 -0.008774
v -0.004452 -0.001000 -0.008635
v -0.005120 -0.001000 -0.008197
v -0.005558 -0.001000 -0.007529
v -0.005697 -0.001000 -0.006804
v -0.005558 -0.001000 -0.006079
v -0.005120 -0.001000 -0.005411
v -0.004452 -0.001000 -0.004972
v 0.000020 -0.001000 -0.008774
v -0.006724 -0.001000 0.011728
v -0.004724 -0.001000 0.011728
v 0.006741 -0.001000 0.011728
v -0.009992 -0.001000 0.008728
v -0.009992 -0.001000 0.000827
v -0.006992 -0.001000 0.011728
v -0.008096 -0.001000 0.011518
v -0.009113 -0.001000 0.010850
v -0.009781 -0.001000 0.009833
v 0.007008 -0.001000 0.011728
v 0.009798 -0.001000 0.009833
v 0.009130 -0.001000 0.010850
v 0.008113 -0.001000 0.011518
v 0.001489 -0.001000 0.009728
v 0.001489 -0.001000 0.005247
v 0.003489 -0.001000 0.011728
v 0.002753 -0.001000 0.011588
v 0.002075 -0.001000 0.011143
v 0.001630 -0.001000 0.010465
v -0.003492 -0.001000 0.011728
v -0.001632 -0.001000 0.010465
v -0.002077 -0.001000 0.011143
v -0.002755 -0.001000 0.011588
v -0.004724 0.001000 0.011728
v -0.004724 0.001000 -0.002054
v -0.004724 -0.001000 0.011728
v -0.004724 -0.001000 -0.002054
v -0.006724 0.001000 0.011728
v -0.006724 0.001000 -0.002054
v -0.006724 -0.001000 -0.002054
v -0.006724 -0.001000 0.011728
v -0.006724 0.001000 -0.002054
v -0.004724 0.001000 -0.002054
v -0.006724 -0.001000 -0.002054
v -0.004724 -0.001000 -0.002054
v 0.006741 0.001000 -0.002054
v 0.006741 0.001000 0.011728
v 0.006741 -0.001000 -0.002054
v 0.006741 -0.001000 0.011728
v 0.004687 0.001000 0.011728
v 0.004687 0.001000 -0.002054
v 0.004687 -0.001000 0.011728
v 0.004687 -0.001000 -0.002054
v 0.006741 0.001000 -0.002054
v 0.004687 -0.001000 -0.002054
v 0.006741 -0.001000 -0.002054
v 0.004687 0.001000 -0.002054
v 0.001489 0.001000 0.009728
v 0.001489 -0.001000 0.009728
v 0.001489 0.001000 0.005247
v 0.001489 0.001000 0.000765
v 0.001489 0.000000 0.000765
v 0.001489 0.000000 0.005247
v 0.001489 0.000000 0.003006
v 0.001489 0.000500 0.005247
v 0.001489 0.000500 0.003006
v 0.001489 -0.000500 0.005247
v 0.001489 -0.000500 0.003006
v 0.001489 -0.001000 0.000765
v 0.001489 -0.001000 0.005247
v 0.001489 0.000000 0.009728
v 0.001489 0.000000 0.007487
v 0.001489 -0.000500 0.007487
v 0.001489 0.000500 0.007487
v -0.001492 0.001000 0.009728
v -0.001492 -0.001000 0.009728
v -0.001492 -0.001000 0.005247
v -0.001492 -0.001000 0.000765
v -0.001492 0.000000 0.000765
v -0.001492 0.001000 0.005247
v -0.001492 0.000000 0.005247
v -0.001492 0.000000 0.003006
v -0.001492 -0.000500 0.005247
v -0.001492 -0.000500 0.003006
v -0.001492 0.000500 0.005247
v -0.001492 0.000500 0.003006
v -0.001492 0.001000 0.000765
v -0.001492 0.000000 0.009728
v -0.001492 0.000000 0.007487
v -0.001492 0.000500 0.007487
v -0.001492 -0.000500 0.007487
v 0.001489 0.001000 0.000765
v -0.001492 -0.001000 0.000765
v 0.001489 -0.001000 0.000765
v 0.001385 0.001000 0.000216
v 0.001053 0.001000 -0.000289
v 0.000547 0.001000 -0.000621
v -0.000001 0.001000 -0.000726
v -0.000550 0.001000 -0.000621
v -0.001055 0.001000 -0.000289
v -0.001387 0.001000 0.000216
v -0.001387 -0.001000 0.000216
v -0.001055 -0.001000 -0.000289
v -0.000550 -0.001000 -0.000621
v -0.000001 -0.001000 -0.000726
v 0.000547 -0.001000 -0.000621
v 0.001053 -0.001000 -0.000289
v 0.001385 -0.001000 0.000216
v 0.001489 0.000000 0.000765
v -0.001492 0.001000 0.000765
v -0.001492 0.000000 0.000765
v 0.003766 0.001000 -0.008774
v 0.005736 0.001000 -0.006804
v 0.003766 -0.001000 -0.008774
v 0.005736 -0.001000 -0.006804
v 0.005598 0.001000 -0.007529
v 0.005159 0.001000 -0.008197
v 0.004491 0.001000 -0.008635
v 0.004491 -0.001000 -0.008635
v 0.005159 -0.001000 -0.008197
v 0.005598 -0.001000 -0.007529
v 0.005736 0.000000 -0.006804
v 0.003766 0.000000 -0.008774
v 0.005736 0.001000 -0.006804
v 0.003766 0.001000 -0.004834
v 0.005736 -0.001000 -0.006804
v 0.003766 -0.001000 -0.004834
v 0.004491 0.001000 -0.004972
v 0.005159 0.001000 -0.005411
v 0.005598 0.001000 -0.006079
v 0.005598 -0.001000 -0.006079
v 0.005159 -0.001000 -0.005411
v 0.004491 -0.001000 -0.004972
v 0.005736 0.000000 -0.006804
v 0.003766 0.000000 -0.004834
v 0.003766 0.001000 -0.004834
v -0.003727 0.001000 -0.004834
v 0.003766 -0.001000 -0.004834
v -0.003727 -0.001000 -0.004834
v 0.000020 0.001000 -0.004834
v 0.000020 -0.001000 -0.004834
v 0.003766 0.000000 -0.004834
v -0.003727 0.000000 -0.004834
v -0.003727 0.001000 -0.004834
v -0.005697 0.001000 -0.006804
v -0.003727 0.001000 -0.008774
v -0.003727 -0.001000 -0.004834
v -0.005697 -0.001000 -0.006804
v -0.003727 -0.001000 -0.008774
v -0.004452 0.001000 -0.008635
v -0.005120 0.001000 -0.008197
v -0.005558 0.001000 -0.007529
v -0.005558 0.001000 -0.006079
v -0.005120 0.001000 -0.005411
v -0.004452 0.001000 -0.004972
v -0.004452 -0.001000 -0.004972
v -0.005120 -0.001000 -0.005411
v -0.005558 -0.001000 -0.006079
v -0.005558 -0.001000 -0.007529
v -0.005120 -0.001000 -0.008197
v -0.004452 -0.001000 -0.008635
v -0.003727 0.000000 -0.004834
v -0.003727 0.000000 -0.008774
v -0.003727 0.001000 -0.008774
v 0.003766 0.001000 -0.008774
v -0.003727 -0.001000 -0.008774
v 0.003766 -0.001000 -0.008774
v 0.000020 0.001000 -0.008774
v 0.000020 -0.001000 -0.008774
v -0.003727 0.000000 -0.008774
v 0.003766 0.000000 -0.008774
v -0.006992 0.001000 0.011728
v -0.006724 0.001000 0.011728
v -0.006992 -0.001000 0.011728
v -0.006724 -0.001000 0.011728
v 0.006741 0.001000 0.011728
v 0.007008 0.001000 0.011728
v 0.006741 -0.001000 0.011728
v 0.007008 -0.001000 0.011728
v -0.009992 0.001000 0.008728
v -0.006992 0.001000 0.011728
v -0.009992 -0.001000 0.008728
v -0.006992 -0.001000 0.011728
v -0.009992 0.000000 0.008728
v -0.008096 0.001000 0.011518
v -0.009113 0.001000 0.010850
v -0.009781 0.001000 0.009833
v -0.009781 -0.001000 0.009833
v -0.009113 -0.001000 0.010850
v -0.008096 -0.001000 0.011518
v 0.010008 -0.001000 0.008728
v 0.007008 -0.001000 0.011728
v 0.010008 0.001000 0.008728
v 0.007008 0.001000 0.011728
v 0.010008 0.000000 0.008728
v 0.008113 -0.001000 0.011518
v 0.009130 -0.001000 0.010850
v 0.009798 -0.001000 0.009833
v 0.009798 0.001000 0.009833
v 0.009130 0.001000 0.010850
v 0.008113 0.001000 0.011518
v 0.003489 0.001000 0.011728
v 0.004687 0.001000 0.011728
v 0.003489 -0.001000 0.011728
v 0.004687 -0.001000 0.011728
v 0.001489 -0.001000 0.009728
v 0.003489 -0.001000 0.011728
v 0.001489 0.001000 0.009728
v 0.003489 0.001000 0.011728
v 0.001489 0.000000 0.009728
v 0.001630 0.001000 0.010465
v 0.002075 0.001000 0.011143
v 0.002753 0.001000 0.011588
v 0.002753 -0.001000 0.011588
v 0.002075 -0.001000 0.011143
v 0.001630 -0.001000 0.010465
v -0.004724 0.001000 0.011728
v -0.003492 0.001000 0.011728
v -0.004724 -0.001000 0.011728
v -0.003492 -0.001000 0.011728
v -0.001492 0.001000 0.009728
v -0.003492 0.001000 0.011728
v -0.001492 -0.001000 0.009728
v -0.003492 -0.001000 0.011728
v -0.001492 0.000000 0.009728
v -0.002755 0.001000 0.011588
v -0.002077 0.001000 0.011143
v -0.001632 0.001000 0.010465
v -0.001632 -0.001000 0.010465
v -0.002077 -0.001000 0.011143
v -0.002755 -0.001000 0.011588
vn 1.000000 0.000000 0.000000
vn 1.000000 0.000000 0.000000
vn 1.000000 0.000000 0.000000
vn 1.000000 0.000000 0.000000
vn 1.000000 0.000000 0.000000
vn 1.000000 0.000000 0.000000
vn 1.000000 0.000000 0.000000
vn 1.000000 0.000000 0.000000
vn 0.925024 0.000000 -0.379910
vn 0.699668 0.000000 -0.714468
vn 0.363411 0.000000 -0.931629
vn 0.000000 0.000000 -1.000000
vn 1.000000 0.000000 0.000000
vn 0.925024 0.000000 -0.379910
vn 0.699668 0.000000 -0.714468
vn 0.363411 0.000000 -0.931629
vn 0.000000 0.000000 -1.000000
vn 1.000000 0.000000 0.000000
vn 0.000000 0.000000 -1.000000
vn 0.000000 0.000000 -1.000000
vn 0.000000 0.000000 -1.000000
vn 0.000000 0.000000 -1.000000
vn 0.000000 0.000000 -1.000000
vn 0.000000 0.000000 -1.000000
vn 0.000000 0.000000 -1.000000
vn 0.000000 0.000000 -1.000000
vn 0.000000 0.000000 -1.000000
vn 0.000000 0.000000 -1.000000
vn 0.000000 0.000000 -1.000000
vn 0.000000 0.000000 -1.000000
vn 0.000000 0.000000 -1.000000
vn 0.000000 0.000000 -1.000000
vn 0.000000 0.000000 -1.000000
vn 0.000000 0.000000 -1.000000
vn 0.000000 0.000000 -1.000000
vn -0.379910 0.000000 -0.925024
vn -0.714468 0.000000 -0.699668
vn -0.931629 0.000000 -0.363411
vn -1.000000 0.000000 0.000000
vn 0.000000 0.000000 -1.000000
vn -0.379910 0.000000 -0.925024
vn -0.714468 0.000000 -0.699668
vn -0.931629 0.000000 -0.363411
vn -1.000000 0.000000 0.000000
vn 0.000000 0.000000 -1.000000
vn -1.000000 0.000000 0.000000
vn -1.000000 0.000000 0.000000
vn -1.000000 0.000000 0.000000
vn -1.000000 0.000000 0.000000
vn -1.000000 0.000000 0.000000
vn -1.000000 0.000000 0.000000
vn -1.000000 0.000000 0.000000
vn -1.000000 0.000000 0.000000
vn -1.000000 0.000000 0.000000
vn 0.000000 1.000000 0.000000
vn 0.000000 1.000000 0.000000
vn 0.000000 1.000000 0.000000
vn 0.000000 1.000000 0.000000
vn 0.000000 1.000000 0.000000
vn 0.000000 1.000000 0.000000
vn 0.000000 1.000000 0.000000
vn 0.000000 1.000000 0.000000
vn 0.000000 1.000000 0.000000
vn 0.000000 1.000000 0.000000
vn 0.000000 1.000000 0.000000
vn 0.000000 1.000000 0.000000
vn 0.000000 1.000000 0.000000
vn 0.000000 1.000000 0.000000
vn 0.000000 1.000000 0.000000
vn 0.000000 1.000000 0.000000
vn 0.000000 1.000000 0.000000
vn 0.000000 1.000000 0.000000
vn 0.000000 1.000000 0.000000
vn 0.000000 1.000000 0.000000
vn 0.000000 1.000000 0.000000
vn 0.000000 1.000000 0.000000
vn 0.000000 1.000000 0.000000
vn 0.000000 1.000000 0.000000
vn 0.000000 1.000000 0.000000
vn 0.000000 1.000000 0.000000
vn 0.000000 1.000000 0.000000
vn 0.000000 1.000000 0.000000
vn 0.000000 1.000000 0.000000
vn 0.000000 1.000000 0.000000
vn 0.000000 1.000000 0.000000
vn 0.000000 1.000000 0.000000
vn 0.000000 1.000000 0.000000
vn 0.000000 1.000000 0.000000
vn 0.000000 1.000000 0.000000
vn 0.000000 1.000000 0.000000
vn 0.000000 1.000000 0.000000
vn 0.000000 1.000000 0.000000
vn 0.000000 1.000000 0.000000
vn 0.000000 1.000000 0.000000
vn 0.000000 1.000000 0.000000
vn 0.000000 1.000000 0.000000
vn 0.000000 1.000000 0.000000
vn 0.000000 1.000000 0.000000
vn 0.000000 1.000000 0.000000
vn 0.000000 1.000000 0.000000
vn 0.000000 1.000000 0.000000
vn 0.000000 1.000000 0.000000
vn 0.000000 1.000000 0.000000
vn 0.000000 1.000000 0.000000
vn 0.000000 1.000000 0.000000
vn 0.000000 1.000000 0.000100
vn 0.000000 1.000000 0.000000
vn 0.000000 1.000000 0.000000
vn 0.000000 1.000000 0.000000
vn 0.000000 1.000000 0.000000
vn 0.000000 1.000000 0.000100
vn 0.000000 1.000000 0.000000
vn 0.000000 1.000000 0.000000
vn 0.000000 1.000000 0.000000
vn 0.000000 1.000000 0.000000
vn 0.000000 1.000000 0.000000
vn 0.000000 1.000000 0.000000
vn 0.000000 1.000000 0.000000
vn 0.000000 1.000000 0.000000
vn 0.000000 1.000000 0.000000
vn 0.000000 1.000000 0.000000
vn 0.000000 1.000000 0.000000
vn 0.000000 1.000000 0.000000
vn 0.000000 1.000000 0.000000
vn 0.000000 -1.000000 -0.000000
vn 0.000000 -1.000000 -0.000000
vn 0.000000 -1.000000 -0.000000
vn 0.000000 -1.000000 -0.000000
vn 0.000000 -1.000000 -0.000000
vn 0.000000 -1.000000 -0.000000
vn 0.000000 -1.000000 -0.000000
vn 0.000000 -1.000000 -0.000000
vn 0.000000 -1.000000 -0.000000
vn 0.000000 -1.000000 -0.000000
vn 0.000000 -1.000000 -0.000000
vn 0.000000 -1.000000 -0.000000
vn 0.000000 -1.000000 -0.000000
vn 0.000000 -1.000000 -0.000000
vn 0.000000 -1.000000 -0.000000
vn 0.000000 -1.000000 -0.000000
vn 0.000000 -1.000000 -0.000000
vn 0.000000 -1.000000 -0.000000
vn 0.000000 -1.000000 -0.000000
vn 0.000000 -1.000000 -0.000000
vn 0.000000 -1.000000 -0.000000
vn 0.000000 -1.000000 -0.000000
vn 0.000000 -1.000000 -0.000000
vn 0.000000 -1.000000 -0.000000
vn 0.000000 -1.000000 -0.000000
vn 0.000000 -1.000000 -0.000000
vn 0.000000 -1.000000 -0.000000
vn 0.000000 -1.000000 -0.000000
vn 0.000000 -1.000000 -0.000000
vn 0.000000 -1.000000 -0.000000
vn 0.000000 -1.000000 -0.000000
vn 0.000000 -1.000000 -0.000000
vn 0.000000 -1.000000 -0.000000
vn 0.000000 -1.000000 -0.000000
vn 0.000000 -1.000000 -0.000000
vn 0.000000 -1.000000 -0.000000
vn 0.000000 -1.000000 -0.000000
vn 0.000000 -1.000000 -0.000000
vn 0.000000 -1.000000 -0.000000
vn 0.000000 -1.000000 -0.000000
vn 0.000000 -1.000000 -0.000000
vn 0.000000 -1.000000 -0.000000
vn 0.000000 -1.000000 -0.000000
vn 0.000000 -1.000000 -0.000000
vn 0.000000 -1.000000 -0.000000
vn 0.000000 -1.000000 -0.000000
vn 0.000000 -1.000000 -0.000000
vn 0.000000 -1.000000 -0.000000
vn 0.000000 -1.000000 -0.000000
vn 0.000000 -1.000000 -0.000000
vn 0.000000 -1.000000 -0.000000
vn 0.000000 -1.000000 -0.000000
vn 0.000000 -1.000000 -0.000000
vn 0.000000 -1.000000 -0.000100
vn 0.000000 -1.000000 -0.000000
vn 0.000000 -1.000000 -0.000000
vn 0.000000 -1.000000 -0.000000
vn 0.000000 -1.000000 -0.000000
vn 0.000000 -1.000000 -0.000000
vn 0.000000 -1.000000 -0.000000
vn 0.000000 -1.000000 -0.000000
vn 0.000000 -1.000000 -0.000000
vn 0.000000 -1.000000 -0.000000
vn 0.000000 -1.000000 -0.000000
vn 0.000000 -1.000000 -0.000000
vn 0.000000 -1.000000 -0.000000
vn 0.000000 -1.000000 -0.000000
vn 0.000000 -1.000000 -0.000000
vn 0.000000 -1.000000 -0.000000
vn 0.000000 -1.000000 -0.000000
vn 0.000000 -1.000000 -0.000000
vn -1.000000 0.000000 0.000000
vn -1.000000 0.000000 0.000000
vn -1.000000 0.000000 0.000000
vn -1.000000 0.000000 0.000000
vn 1.000000 0.000000 0.000000
vn 1.000000 0.000000 0.000000
vn 1.000000 0.000000 0.000000
vn 1.000000 0.000000 0.000000
vn 0.000000 -0.000000 1.000000
vn 0.000000 -0.000000 1.000000
vn 0.000000 -0.000000 1.000000
vn 0.000000 -0.000000 1.000000
vn -1.000000 0.000000 0.000000
vn -1.000000 0.000000 0.000000
vn -1.000000 0.000000 0.000000
vn -1.000000 0.000000 0.000000
vn 1.000000 0.000000 0.000000
vn 1.000000 0.000000 0.000000
vn 1.000000 0.000000 0.000000
vn 1.000000 0.000000 0.000000
vn 0.000000 -0.000000 1.000000
vn 0.000000 -0.000000 1.000000
vn 0.000000 -0.000000 1.000000
vn 0.000000 -0.000000 1.000000
vn -1.000000 0.000000 0.000000
vn -1.000000 0.000000 0.000000
vn -1.000000 0.000000 0.000000
vn -1.000000 0.000000 0.000000
vn -1.000000 0.000000 0.000000
vn -1.000000 0.000000 0.000000
vn -1.000000 0.000000 0.000000
vn -1.000000 0.000000 0.000000
vn -1.000000 0.000000 0.000000
vn -1.000000 0.000000 0.000000
vn -1.000000 0.000000 0.000000
vn -1.000000 0.000000 0.000000
vn -1.000000 0.000000 0.000000
vn -1.000000 0.000000 0.000000
vn -1.000000 0.000000 0.000000
vn -1.000000 0.000000 0.000000
vn -1.000000 0.000000 0.000000
vn 1.000000 0.000000 0.000000
vn 1.000000 0.000000 0.000000
vn 1.000000 0.000000 0.000000
vn 1.000000 0.000000 0.000000
vn 1.000000 0.000000 0.000000
vn 1.000000 0.000000 0.000000
vn 1.000000 0.000000 0.000000
vn 1.000000 0.000000 0.000000
vn 1.000000 0.000000 0.000000
vn 1.000000 0.000000 0.000000
vn 1.000000 0.000000 0.000000
vn 1.000000 0.000000 0.000000
vn 1.000000 0.000000 0.000000
vn 1.000000 0.000000 0.000000
vn 1.000000 0.000000 0.000000
vn 1.000000 0.000000 0.000000
vn 1.000000 0.000000 0.000000
vn -1.000000 0.000000 0.000000
vn 1.000000 0.000000 0.000000
vn -1.000000 0.000000 0.000000
vn -0.929788 -0.000000 0.368095
vn -0.707107 -0.000000 0.707107
vn -0.368095 -0.000000 0.929788
vn 0.000000 -0.000000 1.000000
vn 0.368095 -0.000000 0.929788
vn 0.707107 -0.000000 0.707107
vn 0.929788 -0.000000 0.368095
vn 0.929788 -0.000000 0.368095
vn 0.707107 -0.000000 0.707107
vn 0.368095 -0.000000 0.929788
vn 0.000000 -0.000000 1.000000
vn -0.368095 -0.000000 0.929788
vn -0.707107 -0.000000 0.707107
vn -0.929788 -0.000000 0.368095
vn -1.000000 0.000000 0.000000
vn 1.000000 0.000000 0.000000
vn 1.000000 0.000000 0.000000
vn 0.000000 -0.000000 1.000000
vn -1.000000 0.000000 0.000000
vn 0.000000 -0.000000 1.000000
vn -1.000000 0.000000 0.000000
vn -0.929788 -0.000000 0.368095
vn -0.707107 -0.000000 0.707107
vn -0.368095 -0.000000 0.929788
vn -0.368095 -0.000000 0.929788
vn -0.707107 -0.000000 0.707107
vn -0.929788 -0.000000 0.368095
vn -1.000000 0.000000 0.000000
vn 0.000000 -0.000000 1.000000
vn -1.000000 0.000000 0.000000
vn 0.000000 0.000000 -1.000000
vn -1.000000 0.000000 0.000000
vn 0.000000 0.000000 -1.000000
vn -0.368095 0.000000 -0.929788
vn -0.707107 0.000000 -0.707107
vn -0.929788 0.000000 -0.368095
vn -0.929788 0.000000 -0.368095
vn -0.707107 0.000000 -0.707107
vn -0.368095 0.000000 -0.929788
vn -1.000000 0.000000 0.000000
vn 0.000000 0.000000 -1.000000
vn 0.000000 0.000000 -1.000000
vn 0.000000 0.000000 -1.000000
vn 0.000000 0.000000 -1.000000
vn 0.000000 0.000000 -1.000000
vn 0.000000 0.000000 -1.000000
vn 0.000000 0.000000 -1.000000
vn 0.000000 0.000000 -1.000000
vn 0.000000 0.000000 -1.000000
vn 0.000000 0.000000 -1.000000
vn 1.000000 0.000000 0.000000
vn 0.000000 -0.000000 1.000000
vn 0.000000 0.000000 -1.000000
vn 1.000000 0.000000 0.000000
vn 0.000000 -0.000000 1.000000
vn 0.368095 -0.000000 0.929788
vn 0.707107 -0.000000 0.707107
vn 0.929788 -0.000000 0.368095
vn 0.929788 0.000000 -0.368095
vn 0.707107 0.000000 -0.707107
vn 0.368095 0.000000 -0.929788
vn 0.368095 0.000000 -0.929788
vn 0.707107 0.000000 -0.707107
vn 0.929788 0.000000 -0.368095
vn 0.929788 -0.000000 0.368095
vn 0.707107 -0.000000 0.707107
vn 0.368095 -0.000000 0.929788
vn 0.000000 0.000000 -1.000000
vn 0.000000 -0.000000 1.000000
vn 0.000000 -0.000000 1.000000
vn 0.000000 -0.000000 1.000000
vn 0.000000 -0.000000 1.000000
vn 0.000000 -0.000000 1.000000
vn 0.000000 -0.000000 1.000000
vn 0.000000 -0.000000 1.000000
vn 0.000000 -0.000000 1.000000
vn 0.000000 -0.000000 1.000000
vn 0.000000 -0.000000 1.000000
vn 0.000000 -0.000000 1.000000
vn 0.000000 -0.000000 1.000000
vn 0.000000 -0.000000 1.000000
vn 0.000000 -0.000000 1.000000
vn 0.000000 -0.000000 1.000000
vn 0.000000 -0.000000 1.000000
vn 0.000000 -0.000000 1.000000
vn -1.000000 0.000000 0.000000
vn 0.000000 -0.000000 1.000000
vn -1.000000 0.000000 0.000000
vn 0.000000 -0.000000 1.000000
vn -1.000000 0.000000 0.000000
vn -0.368095 -0.000000 0.929788
vn -0.707107 -0.000000 0.707107
vn -0.929788 -0.000000 0.368095
vn -0.929788 -0.000000 0.368095
vn -0.707107 -0.000000 0.707107
vn -0.368095 -0.000000 0.929788
vn 1.000000 0.000000 0.000000
vn 0.000000 -0.000000 1.000000
vn 1.000000 0.000000 0.000000
vn 0.000000 -0.000000 1.000000
vn 1.000000 0.000000 0.000000
vn 0.368095 -0.000000 0.929788
vn 0.707107 -0.000000 0.707107
vn 0.929788 -0.000000 0.368095
vn 0.929788 -0.000000 0.368095
vn 0.707107 -0.000000 0.707107
vn 0.368095 -0.000000 0.929788
vn 0.000000 -0.000000 1.000000
vn 0.000000 -0.000000 1.000000
vn 0.000000 -0.000000 1.000000
vn 0.000000 -0.000000 1.000000
vn -1.000000 0.000000 0.000000
vn 0.000000 -0.000000 1.000000
vn -1.000000 0.000000 0.000000
vn 0.000000 -0.000000 1.000000
vn -1.000000 0.000000 0.000000
vn -0.929788 -0.000000 0.368095
vn -0.707107 -0.000000 0.707107
vn -0.368095 -0.000000 0.929788
vn -0.368095 -0.000000 0.929788
vn -0.707107 -0.000000 0.707107
vn -0.929788 -0.000000 0.368095
vn 0.000000 -0.000000 1.000000
vn 0.000000 -0.000000 1.000000
vn 0.000000 -0.000000 1.000000
vn 0.000000 -0.000000 1.000000
vn 1.000000 0.000000 0.000000
vn 0.000000 -0.000000 1.000000
vn 1.000000 0.000000 0.000000
vn 0.000000 -0.000000 1.000000
vn 1.000000 0.000000 0.000000
vn 0.368095 -0.000000 0.929788
vn 0.707107 -0.000000 0.707107
vn 0.929788 -0.000000 0.368095
vn 0.929788 -0.000000 0.368095
vn 0.707107 -0.000000 0.707107
vn 0.368095 -0.000000 0.929788
f 7//7 1//1 2//2
f 5//5 2//2 3//3
f 2//2 4//4 6//6
f 4//4 2//2 5//5
f 6//6 7//7 2//2
f 10//10 15//15 14//14
f 10//10 14//14 9//9
f 11//11 16//16 15//15
f 11//11 15//15 10//10
f 12//12 19//19 11//11
f 11//11 19//19 17//17
f 11//11 17//17 16//16
f 18//18 8//8 9//9
f 14//14 13//13 18//18
f 9//9 14//14 18//18
f 33//33 30//30 26//26
f 33//33 26//26 32//32
f 32//32 26//26 28//28
f 32//32 28//28 34//34
f 26//26 27//27 29//29
f 26//26 29//29 28//28
f 30//30 31//31 27//27
f 30//30 27//27 26//26
f 29//29 24//24 20//20
f 27//27 24//24 29//29
f 28//28 29//29 20//20
f 34//34 28//28 21//21
f 20//20 21//21 28//28
f 25//25 34//34 21//21
f 27//27 31//31 24//24
f 30//30 22//22 31//31
f 24//24 31//31 22//22
f 23//23 22//22 30//30
f 34//34 25//25 32//32
f 33//33 32//32 25//25
f 25//25 23//23 33//33
f 30//30 33//33 23//23
f 36//36 45//45 35//35
f 37//37 42//42 41//41
f 37//37 41//41 36//36
f 38//38 43//43 42//42
f 38//38 42//42 37//37
f 38//38 39//39 46//46
f 36//36 41//41 45//45
f 44//44 43//43 46//46
f 43//43 38//38 46//46
f 40//40 45//45 41//41
f 48//48 53//53 47//47
f 48//48 49//49 54//54
f 51//51 53//53 48//48
f 48//48 54//54 51//51
f 51//51 54//54 52//52
f 50//50 53//53 51//51
f 111//111 110//110 103//103
f 110//110 111//111 112//112
f 115//115 81//81 118//118
f 118//118 81//81 117//117
f 105//105 81//81 115//115
f 110//110 112//112 113//113
f 81//81 116//116 117//117
f 110//110 113//113 114//114
f 110//110 70//70 103//103
f 69//69 78//78 79//79
f 69//69 79//79 80//80
f 80//80 81//81 105//105
f 78//78 69//69 77//77
f 90//90 76//76 77//77
f 122//122 119//119 121//121
f 119//119 122//122 123//123
f 119//119 102//102 121//121
f 104//104 66//66 106//106
f 108//108 109//109 66//66
f 109//109 106//106 66//66
f 120//120 68//68 102//102
f 119//119 123//123 124//124
f 71//71 68//68 120//120
f 73//73 68//68 72//72
f 72//72 68//68 71//71
f 107//107 108//108 66//66
f 120//120 102//102 119//119
f 104//104 67//67 66//66
f 92//92 73//73 74//74
f 69//69 70//70 88//88
f 87//87 88//88 70//70
f 87//87 55//55 86//86
f 55//55 87//87 70//70
f 75//75 76//76 91//91
f 91//91 76//76 90//90
f 69//69 89//89 90//90
f 89//89 69//69 88//88
f 69//69 90//90 77//77
f 85//85 86//86 56//56
f 57//57 85//85 56//56
f 58//58 85//85 57//57
f 84//84 85//85 58//58
f 82//82 83//83 59//59
f 84//84 59//59 83//83
f 84//84 58//58 59//59
f 55//55 56//56 86//86
f 55//55 70//70 110//110
f 59//59 101//101 82//82
f 65//65 66//66 67//67
f 68//68 73//73 92//92
f 68//68 92//92 93//93
f 91//91 92//92 74//74
f 94//94 68//68 93//93
f 95//95 67//67 94//94
f 68//68 94//94 67//67
f 64//64 95//95 96//96
f 63//63 64//64 96//96
f 67//67 95//95 64//64
f 65//65 67//67 64//64
f 74//74 75//75 91//91
f 60//60 98//98 99//99
f 60//60 100//100 101//101
f 60//60 99//99 100//100
f 96//96 97//97 63//63
f 62//62 63//63 97//97
f 62//62 97//97 61//61
f 61//61 97//97 98//98
f 61//61 98//98 60//60
f 60//60 101//101 59//59
f 69//69 80//80 105//105
f 178//178 176//176 173//173
f 176//176 178//178 179//179
f 192//192 152//152 195//195
f 195//195 152//152 194//194
f 174//174 152//152 192//192
f 176//176 179//179 180//180
f 152//152 193//193 194//194
f 176//176 180//180 181//181
f 176//176 138//138 173//173
f 138//138 176//176 177//177
f 152//152 174//174 151//151
f 150//150 137//137 149//149
f 149//149 137//137 148//148
f 150//150 151//151 137//137
f 147//147 148//148 162//162
f 189//189 186//186 188//188
f 186//186 189//189 190//190
f 186//186 141//141 188//188
f 175//175 127//127 182//182
f 184//184 185//185 127//127
f 185//185 182//182 127//127
f 187//187 140//140 141//141
f 186//186 190//190 191//191
f 144//144 140//140 143//143
f 143//143 140//140 142//142
f 183//183 184//184 127//127
f 139//139 127//127 175//175
f 187//187 142//142 140//140
f 187//187 141//141 186//186
f 170//170 138//138 169//169
f 133//133 169//169 138//138
f 134//134 168//168 133//133
f 169//169 133//133 168//168
f 133//133 138//138 177//177
f 147//147 162//162 163//163
f 162//162 148//148 137//137
f 137//137 171//171 162//162
f 137//137 170//170 171//171
f 170//170 137//137 138//138
f 163//163 146//146 147//147
f 137//137 151//151 174//174
f 135//135 167//167 134//134
f 168//168 134//134 167//167
f 167//167 135//135 136//136
f 166//166 167//167 136//136
f 132//132 165//165 166//166
f 172//172 164//164 132//132
f 165//165 132//132 164//164
f 128//128 172//172 132//132
f 132//132 166//166 136//136
f 158//158 145//145 163//163
f 146//146 163//163 145//145
f 144//144 158//158 140//140
f 159//159 140//140 158//158
f 127//127 139//139 126//126
f 160//160 139//139 140//140
f 125//125 139//139 161//161
f 139//139 160//160 161//161
f 160//160 140//140 159//159
f 153//153 125//125 161//161
f 158//158 144//144 145//145
f 128//128 155//155 156//156
f 156//156 157//157 128//128
f 129//129 155//155 128//128
f 125//125 153//153 131//131
f 154//154 131//131 153//153
f 131//131 154//154 130//130
f 129//129 130//130 154//154
f 129//129 154//154 155//155
f 157//157 172//172 128//128
f 126//126 139//139 125//125
f 196//196 197//197 199//199
f 196//196 199//199 198//198
f 201//201 200//200 203//203
f 201//201 203//203 202//202
f 205//205 204//204 206//206
f 205//205 206//206 207//207
f 209//209 208//208 210//210
f 209//209 210//210 211//211
f 213//213 212//212 214//214
f 213//213 214//214 215//215
f 216//216 219//219 217//217
f 216//216 217//217 218//218
f 235//235 234//234 225//225
f 235//235 225//225 229//229
f 234//234 236//236 227//227
f 234//234 227//227 225//225
f 225//225 227//227 228//228
f 225//225 228//228 226//226
f 229//229 225//225 226//226
f 229//229 226//226 230//230
f 222//222 223//223 228//228
f 222//222 228//228 227//227
f 224//224 228//228 223//223
f 228//228 224//224 226//226
f 230//230 226//226 224//224
f 236//236 220//220 222//222
f 222//222 227//227 236//236
f 233//233 220//220 236//236
f 233//233 236//236 234//234
f 232//232 229//229 230//230
f 230//230 231//231 232//232
f 231//231 230//230 224//224
f 235//235 229//229 232//232
f 235//235 233//233 234//234
f 233//233 235//235 221//221
f 232//232 221//221 235//235
f 246//246 244//244 243//243
f 246//246 243//243 245//245
f 244//244 248//248 247//247
f 244//244 247//247 243//243
f 243//243 247//247 252//252
f 243//243 252//252 251//251
f 245//245 243//243 251//251
f 245//245 251//251 253//253
f 252//252 242//242 237//237
f 247//247 242//242 252//252
f 252//252 250//250 251//251
f 250//250 252//252 237//237
f 249//249 242//242 248//248
f 247//247 248//248 242//242
f 249//249 248//248 241//241
f 241//241 248//248 244//244
f 238//238 253//253 250//250
f 238//238 239//239 253//253
f 245//245 253//253 239//239
f 240//240 241//241 244//244
f 240//240 244//244 246//246
f 246//246 239//239 240//240
f 246//246 245//245 239//239
f 250//250 253//253 251//251
f 273//273 263//263 272//272
f 261//261 262//262 265//265
f 261//261 265//265 266//266
f 262//262 263//263 264//264
f 262//262 264//264 265//265
f 260//260 261//261 266//266
f 260//260 266//266 267//267
f 259//259 260//260 267//267
f 259//259 267//267 268//268
f 257//257 258//258 269//269
f 257//257 269//269 270//270
f 257//257 271//271 254//254
f 258//258 259//259 268//268
f 258//258 268//268 269//269
f 264//264 263//263 273//273
f 257//257 270//270 271//271
f 271//271 270//270 256//256
f 255//255 264//264 273//273
f 279//279 280//280 281//281
f 279//279 281//281 282//282
f 278//278 279//279 282//282
f 278//278 282//282 283//283
f 275//275 278//278 284//284
f 278//278 283//283 284//284
f 285//285 280//280 274//274
f 281//281 285//285 276//276
f 283//283 277//277 284//284
f 280//280 285//285 281//281
f 292//292 286//286 296//296
f 291//291 292//292 293//293
f 291//291 293//293 294//294
f 290//290 291//291 294//294
f 290//290 294//294 295//295
f 290//290 297//297 287//287
f 293//293 292//292 296//296
f 293//293 296//296 288//288
f 289//289 297//297 295//295
f 295//295 297//297 290//290
f 302//302 298//298 304//304
f 302//302 305//305 299//299
f 303//303 302//302 304//304
f 303//303 304//304 300//300
f 302//302 303//303 305//305
f 303//303 301//301 305//305
f 316//316 317//317 318//318
f 316//316 318//318 319//319
f 307//307 315//315 320//320
f 307//307 320//320 310//310
f 314//314 307//307 310//310
f 314//314 310//310 321//321
f 315//315 316//316 319//319
f 315//315 319//319 320//320
f 312//312 313//313 322//322
f 312//312 322//322 323//323
f 308//308 312//312 325//325
f 312//312 323//323 325//325
f 313//313 314//314 321//321
f 313//313 321//321 322//322
f 324//324 317//317 306//306
f 318//318 324//324 309//309
f 323//323 311//311 325//325
f 324//324 318//318 317//317
f 330//330 326//326 332//332
f 330//330 333//333 327//327
f 331//331 330//330 332//332
f 331//331 332//332 328//328
f 330//330 331//331 333//333
f 331//331 329//329 333//333
f 335//335 334//334 336//336
f 335//335 336//336 337//337
f 339//339 338//338 340//340
f 339//339 340//340 341//341
f 346//346 349//349 342//342
f 347//347 348//348 351//351
f 347//347 351//351 352//352
f 343//343 347//347 352//352
f 343//343 352//352 345//345
f 348//348 349//349 350//350
f 348//348 350//350 351//351
f 350//350 346//346 344//344
f 349//349 346//346 350//350
f 357//357 360//360 353//353
f 358//358 359//359 362//362
f 358//358 362//362 363//363
f 354//354 358//358 363//363
f 354//354 363//363 356//356
f 359//359 360//360 361//361
f 359//359 361//361 362//362
f 361//361 357//357 355//355
f 360//360 357//357 361//361
f 365//365 364//364 366//366
f 365//365 366//366 367//367
f 372//372 368//368 378//378
f 376//376 375//375 374//374
f 376//376 374//374 377//377
f 369//369 371//371 375//375
f 369//369 375//375 376//376
f 377//377 374//374 373//373
f 377//377 373//373 378//378
f 373//373 370//370 372//372
f 378//378 373//373 372//372
f 380//380 379//379 381//381
f 380//380 381//381 382//382
f 387//387 383//383 390//390
f 388//388 393//393 392//392
f 388//388 392//392 389//389
f 384//384 386//386 393//393
f 384//384 393//393 388//388
f 389//389 392//392 391//391
f 389//389 391//391 390//390
f 391//391 385//385 387//387
f 390//390 391//391 387//387
