# deco_09 exported from /models/joints/deco_09.glb
# units: meters
v 0.008010 0.001000 -0.011525
v 0.010010 0.001000 -0.009525
v 0.006723 0.001000 -0.003869
v 0.004136 0.001000 -0.011525
v 0.008746 0.001000 -0.011385
v 0.009424 0.001000 -0.010939
v 0.009869 0.001000 -0.010261
v 0.002136 0.001000 -0.009525
v 0.004723 0.001000 -0.003869
v 0.003400 0.001000 -0.011385
v 0.002722 0.001000 -0.010939
v 0.002276 0.001000 -0.010261
v 0.004723 0.001000 0.010844
v 0.002136 0.001000 0.005175
v 0.001996 0.001000 0.005911
v 0.001550 0.001000 0.006589
v 0.000872 0.001000 0.007034
v 0.000136 0.001000 0.007175
v -0.000136 0.001000 0.007175
v -0.004682 0.001000 0.010844
v -0.002136 0.001000 0.005175
v -0.001996 0.001000 0.005911
v -0.001550 0.001000 0.006589
v -0.000872 0.001000 0.007034
v -0.004682 0.001000 -0.003869
v -0.002136 0.001000 -0.009525
v -0.006682 0.001000 -0.003869
v -0.004136 0.001000 -0.011525
v -0.008010 0.001000 -0.011525
v -0.003400 0.001000 -0.011385
v -0.002722 0.001000 -0.010939
v -0.002276 0.001000 -0.010261
v -0.010010 0.001000 -0.009525
v -0.008746 0.001000 -0.011385
v -0.009424 0.001000 -0.010939
v -0.009869 0.001000 -0.010261
v -0.010010 0.001000 0.009844
v -0.009378 0.001000 0.010773
v -0.009717 0.001000 0.010551
v -0.009939 0.001000 0.010212
v -0.006682 0.001000 0.010844
v -0.009010 0.001000 0.010844
v 0.006723 0.001000 0.010844
v 0.010010 0.001000 0.009844
v 0.009010 0.001000 0.010844
v 0.009378 0.001000 0.010773
v 0.009717 0.001000 0.010551
v 0.009939 0.001000 0.010212
v 0.008010 0.001000 -0.011525
v 0.008769 0.001000 -0.011375
v 0.008010 -0.001000 -0.011525
v 0.008769 -0.001000 -0.011375
v 0.009438 -0.001000 -0.010924
v 0.009438 0.001000 -0.010924
v 0.009873 -0.001000 -0.010252
v 0.009873 0.001000 -0.010252
v 0.010010 -0.001000 -0.009525
v 0.010010 0.001000 -0.009525
v 0.010010 0.001000 -0.009525
v 0.010010 -0.001000 -0.009525
v 0.010010 0.001000 0.009844
v 0.010010 -0.001000 0.009844
v 0.010010 0.001000 0.009844
v 0.009935 0.001000 0.010224
v 0.010010 -0.001000 0.009844
v 0.009935 -0.001000 0.010224
v 0.009709 -0.001000 0.010558
v 0.009709 0.001000 0.010558
v 0.009373 -0.001000 0.010775
v 0.009373 0.001000 0.010775
v 0.009010 -0.001000 0.010844
v 0.009010 0.001000 0.010844
v 0.009010 0.001000 0.010844
v 0.009010 -0.001000 0.010844
v 0.006723 0.001000 0.010844
v 0.006723 -0.001000 0.010844
v 0.006723 0.001000 0.010844
v 0.006723 -0.001000 0.010844
v 0.006723 0.001000 -0.003869
v 0.006723 -0.001000 -0.003869
v 0.006723 0.001000 -0.003869
v 0.006723 -0.001000 -0.003869
v 0.004723 0.001000 -0.003869
v 0.004723 -0.001000 -0.003869
v 0.004723 0.001000 -0.003869
v 0.004723 -0.001000 -0.003869
v 0.004723 0.001000 0.010844
v 0.004723 -0.001000 0.010844
v 0.004723 0.001000 0.010844
v 0.004723 -0.001000 0.010844
v -0.004682 0.001000 0.010844
v -0.004682 -0.001000 0.010844
v -0.004682 0.001000 0.010844
v -0.004682 -0.001000 0.010844
v -0.004682 0.001000 -0.003869
v -0.004682 -0.001000 -0.003869
v -0.004682 0.001000 -0.003869
v -0.004682 -0.001000 -0.003869
v -0.006682 0.001000 -0.003869
v -0.006682 -0.001000 -0.003869
v -0.006682 0.001000 -0.003869
v -0.006682 -0.001000 -0.003869
v -0.006682 0.001000 0.010844
v -0.006682 -0.001000 0.010844
v -0.006682 0.001000 0.010844
v -0.006682 -0.001000 0.010844
v -0.009010 0.001000 0.010844
v -0.009010 -0.001000 0.010844
v -0.009010 0.001000 0.010844
v -0.009390 0.001000 0.010769
v -0.009010 -0.001000 0.010844
v -0.009390 -0.001000 0.010769
v -0.009724 -0.001000 0.010544
v -0.009724 0.001000 0.010544
v -0.009941 -0.001000 0.010207
v -0.009941 0.001000 0.010207
v -0.010010 -0.001000 0.009844
v -0.010010 0.001000 0.009844
v -0.010010 0.001000 0.009844
v -0.010010 -0.001000 0.009844
v -0.010010 0.001000 -0.009525
v -0.010010 -0.001000 -0.009525
v -0.010010 0.001000 -0.009525
v -0.009860 0.001000 -0.010285
v -0.010010 -0.001000 -0.009525
v -0.009860 -0.001000 -0.010285
v -0.009409 -0.001000 -0.010954
v -0.009409 0.001000 -0.010954
v -0.008737 -0.001000 -0.011388
v -0.008737 0.001000 -0.011388
v -0.008010 -0.001000 -0.011525
v -0.008010 0.001000 -0.011525
v -0.008010 0.001000 -0.011525
v -0.008010 -0.001000 -0.011525
v -0.004136 0.001000 -0.011525
v -0.004136 -0.001000 -0.011525
v -0.004136 0.001000 -0.011525
v -0.003376 0.001000 -0.011375
v -0.004136 -0.001000 -0.011525
v -0.003376 -0.001000 -0.011375
v -0.002707 -0.001000 -0.010924
v -0.002707 0.001000 -0.010924
v -0.002273 -0.001000 -0.010252
v -0.002273 0.001000 -0.010252
v -0.002136 -0.001000 -0.009525
v -0.002136 0.001000 -0.009525
v -0.002136 0.001000 -0.009525
v -0.002136 -0.001000 -0.009525
v -0.002136 0.001000 0.005175
v -0.002136 -0.001000 0.005175
v -0.002136 0.001000 0.005175
v -0.001986 0.001000 0.005935
v -0.002136 -0.001000 0.005175
v -0.001986 -0.001000 0.005935
v -0.001536 -0.001000 0.006603
v -0.001536 0.001000 0.006603
v -0.000863 -0.001000 0.007038
v -0.000863 0.001000 0.007038
v -0.000136 -0.001000 0.007175
v -0.000136 0.001000 0.007175
v -0.000136 0.001000 0.007175
v -0.000136 -0.001000 0.007175
v 0.000136 0.001000 0.007175
v 0.000136 -0.001000 0.007175
v 0.000136 0.001000 0.007175
v 0.000896 0.001000 0.007025
v 0.000136 -0.001000 0.007175
v 0.000896 -0.001000 0.007025
v 0.001565 -0.001000 0.006574
v 0.001565 0.001000 0.006574
v 0.001999 -0.001000 0.005902
v 0.001999 0.001000 0.005902
v 0.002136 -0.001000 0.005175
v 0.002136 0.001000 0.005175
v 0.002136 0.001000 0.005175
v 0.002136 -0.001000 0.005175
v 0.002136 0.001000 -0.009525
v 0.002136 -0.001000 -0.009525
v 0.002136 0.001000 -0.009525
v 0.002286 0.001000 -0.010285
v 0.002136 -0.001000 -0.009525
v 0.002286 -0.001000 -0.010285
v 0.002737 -0.001000 -0.010954
v 0.002737 0.001000 -0.010954
v 0.003409 -0.001000 -0.011388
v 0.003409 0.001000 -0.011388
v 0.004136 -0.001000 -0.011525
v 0.004136 0.001000 -0.011525
v 0.004136 0.001000 -0.011525
v 0.004136 -0.001000 -0.011525
v 0.008010 0.001000 -0.011525
v 0.008010 -0.001000 -0.011525
v 0.008010 -0.001000 -0.011525
v 0.010010 -0.001000 -0.009525
v 0.006723 -0.001000 -0.003869
v 0.004136 -0.001000 -0.011525
v 0.008746 -0.001000 -0.011385
v 0.009424 -0.001000 -0.010939
v 0.009869 -0.001000 -0.010261
v 0.002136 -0.001000 -0.009525
v 0.004723 -0.001000 -0.003869
v 0.003400 -0.001000 -0.011385
v 0.002722 -0.001000 -0.010939
v 0.002276 -0.001000 -0.010261
v 0.004723 -0.001000 0.010844
v 0.002136 -0.001000 0.005175
v 0.001996 -0.001000 0.005911
v 0.001550 -0.001000 0.006589
v 0.000872 -0.001000 0.007034
v 0.000136 -0.001000 0.007175
v -0.000136 -0.001000 0.007175
v -0.004682 -0.001000 0.010844
v -0.002136 -0.001000 0.005175
v -0.001996 -0.001000 0.005911
v -0.001550 -0.001000 0.006589
v -0.000872 -0.001000 0.007034
v -0.004682 -0.001000 -0.003869
v -0.002136 -0.001000 -0.009525
v -0.004136 -0.001000 -0.011525
v -0.006682 -0.001000 -0.003869
v -0.010010 -0.001000 -0.009525
v -0.006682 -0.001000 0.010844
v -0.008010 -0.001000 -0.011525
v -0.008746 -0.001000 -0.011385
v -0.009424 -0.001000 -0.010939
v -0.009869 -0.001000 -0.010261
v -0.009010 -0.001000 0.010844
v -0.010010 -0.001000 0.009844
v -0.009378 -0.001000 0.010773
v -0.009717 -0.001000 0.010551
v -0.009939 -0.001000 0.010212
v -0.003400 -0.001000 -0.011385
v -0.002722 -0.001000 -0.010939
v -0.002276 -0.001000 -0.010261
v 0.006723 -0.001000 0.010844
v 0.010010 -0.001000 0.009844
v 0.009010 -0.001000 0.010844
v 0.009378 -0.001000 0.010773
v 0.009717 -0.001000 0.010551
v 0.009939 -0.001000 0.010212
vn 0.000000 1.000000 0.000000
vn 0.000000 1.000000 0.000000
vn 0.000000 1.000000 0.000000
vn 0.000000 1.000000 0.000000
vn 0.000000 1.000000 0.000000
vn 0.000000 1.000000 0.000000
vn 0.000000 1.000000 0.000000
vn 0.000000 1.000000 0.000000
vn 0.000000 1.000000 0.000000
vn 0.000000 1.000000 0.000000
vn 0.000000 1.000000 0.000000
vn 0.000000 1.000000 0.000000
vn 0.000000 1.000000 0.000000
vn 0.000000 1.000000 0.000000
vn 0.000000 1.000000 0.000000
vn 0.000000 1.000000 0.000000
vn 0.000000 1.000000 0.000000
vn 0.000000 1.000000 0.000000
vn 0.000000 1.000000 0.000000
vn 0.000000 1.000000 0.000000
vn 0.000000 1.000000 0.000000
vn 0.000000 1.000000 0.000000
vn 0.000000 1.000000 0.000000
vn 0.000000 1.000000 0.000000
vn 0.000000 1.000000 0.000000
vn 0.000000 1.000000 0.000000
vn 0.000000 1.000000 0.000000
vn 0.000000 1.000000 0.000000
vn 0.000000 1.000000 0.000000
vn 0.000000 1.000000 0.000000
vn 0.000000 1.000000 0.000000
vn 0.000000 1.000000 0.000000
vn 0.000000 1.000000 0.000000
vn 0.000000 1.000000 0.000000
vn 0.000000 1.000000 0.000000
vn 0.000000 1.000000 0.000000
vn 0.000000 1.000000 0.000000
vn 0.000000 1.000000 0.000000
vn 0.000000 1.000000 0.000000
vn 0.000000 1.000000 0.000000
vn 0.000000 1.000000 0.000000
vn 0.000000 1.000000 0.000000
vn 0.000000 1.000000 0.000000
vn 0.000000 1.000000 0.000000
vn 0.000000 1.000000 0.000000
vn 0.000000 1.000000 0.000000
vn 0.000000 1.000000 0.000000
vn 0.000000 1.000000 0.000000
vn 0.000100 0.000000 -1.000000
vn 0.379910 0.000000 -0.925024
vn 0.000100 0.000000 -1.000000
vn 0.379910 0.000000 -0.925024
vn 0.714518 0.000000 -0.699617
vn 0.714518 0.000000 -0.699617
vn 0.931595 0.000000 -0.363498
vn 0.931595 0.000000 -0.363498
vn 1.000000 0.000000 -0.000100
vn 1.000000 0.000000 -0.000100
vn 1.000000 0.000000 0.000000
vn 1.000000 0.000000 0.000000
vn 1.000000 0.000000 0.000000
vn 1.000000 0.000000 0.000000
vn 1.000000 -0.000000 0.000100
vn 0.925024 -0.000000 0.379910
vn 1.000000 -0.000000 0.000100
vn 0.925024 -0.000000 0.379910
vn 0.699567 -0.000000 0.714567
vn 0.699567 -0.000000 0.714567
vn 0.363498 -0.000000 0.931595
vn 0.363498 -0.000000 0.931595
vn 0.000100 0.000100 1.000000
vn 0.000100 -0.000000 1.000000
vn 0.000000 -0.000000 1.000000
vn 0.000000 -0.000000 1.000000
vn 0.000000 -0.000000 1.000000
vn 0.000000 -0.000000 1.000000
vn -1.000000 0.000000 0.000000
vn -1.000000 0.000000 0.000000
vn -1.000000 0.000000 0.000000
vn -1.000000 0.000000 0.000000
vn 0.000000 -0.000000 1.000000
vn 0.000000 -0.000000 1.000000
vn 0.000000 -0.000000 1.000000
vn 0.000000 -0.000000 1.000000
vn 1.000000 0.000000 0.000000
vn 1.000000 0.000000 0.000000
vn 1.000000 0.000000 0.000000
vn 1.000000 0.000000 0.000000
vn 0.000000 -0.000000 1.000000
vn 0.000000 -0.000000 1.000000
vn 0.000000 -0.000000 1.000000
vn 0.000000 -0.000000 1.000000
vn -1.000000 0.000000 0.000000
vn -1.000000 0.000000 0.000000
vn -1.000000 0.000000 0.000000
vn -1.000000 0.000000 0.000000
vn 0.000000 -0.000000 1.000000
vn 0.000000 -0.000000 1.000000
vn 0.000000 -0.000000 1.000000
vn 0.000000 -0.000000 1.000000
vn 1.000000 0.000000 0.000000
vn 1.000000 0.000000 0.000000
vn 1.000000 0.000000 0.000000
vn 1.000000 0.000000 0.000000
vn 0.000000 -0.000000 1.000000
vn 0.000000 -0.000000 1.000000
vn 0.000000 -0.000000 1.000000
vn 0.000000 -0.000000 1.000000
vn -0.000100 -0.000000 1.000000
vn -0.379910 -0.000000 0.925024
vn -0.000100 -0.000000 1.000000
vn -0.379910 -0.000000 0.925024
vn -0.714518 -0.000000 0.699617
vn -0.714518 -0.000000 0.699617
vn -0.931595 -0.000000 0.363498
vn -0.931595 -0.000000 0.363498
vn -1.000000 0.000100 0.000100
vn -1.000000 -0.000000 0.000100
vn -1.000000 0.000000 0.000000
vn -1.000000 0.000000 0.000000
vn -1.000000 0.000000 0.000000
vn -1.000000 0.000000 0.000000
vn -1.000000 0.000000 -0.000100
vn -0.925024 0.000000 -0.379910
vn -1.000000 0.000000 -0.000100
vn -0.925024 0.000000 -0.379910
vn -0.699617 0.000000 -0.714518
vn -0.699617 0.000000 -0.714518
vn -0.363498 0.000000 -0.931595
vn -0.363498 0.000000 -0.931595
vn -0.000100 0.000000 -1.000000
vn -0.000100 0.000000 -1.000000
vn 0.000000 0.000000 -1.000000
vn 0.000000 0.000000 -1.000000
vn 0.000000 0.000000 -1.000000
vn 0.000000 0.000000 -1.000000
vn 0.000100 0.000000 -1.000000
vn 0.379910 0.000000 -0.925024
vn 0.000100 0.000000 -1.000000
vn 0.379910 0.000000 -0.925024
vn 0.714518 0.000000 -0.699617
vn 0.714518 0.000000 -0.699617
vn 0.931629 0.000000 -0.363411
vn 0.931629 0.000000 -0.363411
vn 1.000000 0.000100 -0.000100
vn 1.000000 0.000000 -0.000100
vn 1.000000 0.000000 0.000000
vn 1.000000 0.000000 0.000000
vn 1.000000 0.000000 0.000000
vn 1.000000 0.000000 0.000000
vn 1.000000 0.000000 -0.000100
vn 0.924988 0.000000 -0.379995
vn 1.000000 0.000000 -0.000100
vn 0.924988 0.000000 -0.379995
vn 0.699718 0.000000 -0.714419
vn 0.699718 0.000000 -0.714419
vn 0.363498 0.000000 -0.931595
vn 0.363498 0.000000 -0.931595
vn 0.000100 0.000000 -1.000000
vn 0.000100 0.000000 -1.000000
vn 0.000000 0.000000 -1.000000
vn 0.000000 0.000000 -1.000000
vn 0.000000 0.000000 -1.000000
vn 0.000000 0.000000 -1.000000
vn -0.000100 0.000000 -1.000000
vn -0.379910 0.000000 -0.925024
vn -0.000100 0.000000 -1.000000
vn -0.379910 0.000000 -0.925024
vn -0.714518 0.000000 -0.699617
vn -0.714518 0.000000 -0.699617
vn -0.931595 0.000000 -0.363498
vn -0.931595 0.000000 -0.363498
vn -1.000000 0.000000 -0.000100
vn -1.000000 0.000000 -0.000100
vn -1.000000 0.000000 0.000000
vn -1.000000 0.000000 0.000000
vn -1.000000 0.000000 0.000000
vn -1.000000 0.000000 0.000000
vn -1.000000 0.000000 -0.000100
vn -0.925024 0.000000 -0.379910
vn -1.000000 0.000000 -0.000100
vn -0.925024 0.000000 -0.379910
vn -0.699617 0.000000 -0.714518
vn -0.699617 0.000000 -0.714518
vn -0.363498 0.000000 -0.931595
vn -0.363498 0.000000 -0.931595
vn -0.000100 0.000000 -1.000000
vn -0.000100 0.000000 -1.000000
vn 0.000000 0.000000 -1.000000
vn 0.000000 0.000000 -1.000000
vn 0.000000 0.000000 -1.000000
vn 0.000000 0.000000 -1.000000
vn 0.000000 -1.000000 -0.000000
vn 0.000000 -1.000000 -0.000000
vn 0.000000 -1.000000 -0.000000
vn 0.000000 -1.000000 -0.000000
vn 0.000000 -1.000000 -0.000000
vn 0.000000 -1.000000 -0.000000
vn 0.000000 -1.000000 -0.000000
vn 0.000000 -1.000000 -0.000000
vn 0.000000 -1.000000 -0.000000
vn 0.000000 -1.000000 -0.000000
vn 0.000000 -1.000000 -0.000000
vn 0.000000 -1.000000 -0.000000
vn 0.000000 -1.000000 -0.000000
vn 0.000000 -1.000000 -0.000000
vn 0.000000 -1.000000 -0.000000
vn 0.000000 -1.000000 -0.000000
vn 0.000000 -1.000000 -0.000000
vn 0.000000 -1.000000 -0.000000
vn 0.000000 -1.000000 -0.000000
vn 0.000000 -1.000000 -0.000000
vn 0.000000 -1.000000 -0.000000
vn 0.000000 -1.000000 -0.000000
vn 0.000000 -1.000000 -0.000000
vn 0.000000 -1.000000 -0.000000
vn 0.000000 -1.000000 -0.000000
vn 0.000000 -1.000000 -0.000000
vn 0.000000 -1.000000 -0.000000
vn 0.000000 -1.000000 -0.000000
vn 0.000000 -1.000000 -0.000000
vn 0.000000 -1.000000 -0.000000
vn 0.000000 -1.000000 -0.000000
vn 0.000000 -1.000000 -0.000000
vn 0.000000 -1.000000 -0.000000
vn 0.000000 -1.000000 -0.000000
vn 0.000000 -1.000000 -0.000000
vn 0.000000 -1.000000 -0.000000
vn 0.000000 -1.000000 -0.000000
vn 0.000000 -1.000000 -0.000000
vn 0.000000 -1.000000 -0.000000
vn 0.000000 -1.000000 -0.000000
vn 0.000000 -1.000000 -0.000000
vn 0.000000 -1.000000 -0.000000
vn 0.000000 -1.000000 -0.000000
vn 0.000000 -1.000000 -0.000000
vn 0.000000 -1.000000 -0.000000
vn 0.000000 -1.000000 -0.000000
vn 0.000000 -1.000000 -0.000000
vn 0.000000 -1.000000 -0.000000
f 5//5 1//1 2//2
f 2//2 1//1 3//3
f 3//3 1//1 4//4
f 6//6 5//5 2//2
f 6//6 2//2 7//7
f 9//9 3//3 4//4
f 8//8 4//4 10//10
f 4//4 8//8 9//9
f 8//8 10//10 11//11
f 12//12 8//8 11//11
f 13//13 9//9 14//14
f 14//14 9//9 8//8
f 13//13 14//14 15//15
f 16//16 13//13 15//15
f 17//17 13//13 16//16
f 18//18 13//13 17//17
f 18//18 19//19 20//20
f 18//18 20//20 13//13
f 20//20 21//21 25//25
f 21//21 20//20 22//22
f 20//20 23//23 22//22
f 23//23 20//20 24//24
f 24//24 20//20 19//19
f 21//21 26//26 25//25
f 26//26 28//28 25//25
f 25//25 28//28 27//27
f 27//27 28//28 29//29
f 30//30 28//28 26//26
f 31//31 30//30 26//26
f 31//31 26//26 32//32
f 33//33 29//29 34//34
f 29//29 33//33 27//27
f 33//33 34//34 35//35
f 35//35 36//36 33//33
f 27//27 33//33 37//37
f 27//27 37//37 41//41
f 37//37 38//38 42//42
f 39//39 38//38 37//37
f 37//37 40//40 39//39
f 42//42 41//41 37//37
f 43//43 44//44 2//2
f 43//43 2//2 3//3
f 43//43 45//45 44//44
f 45//45 46//46 44//44
f 47//47 44//44 46//46
f 48//48 44//44 47//47
f 50//50 52//52 51//51
f 50//50 51//51 49//49
f 53//53 52//52 50//50
f 53//53 50//50 54//54
f 55//55 53//53 54//54
f 55//55 54//54 56//56
f 58//58 57//57 55//55
f 58//58 55//55 56//56
f 60//60 59//59 61//61
f 60//60 61//61 62//62
f 64//64 66//66 65//65
f 64//64 65//65 63//63
f 67//67 66//66 64//64
f 67//67 64//64 68//68
f 69//69 67//67 68//68
f 69//69 68//68 70//70
f 72//72 71//71 69//69
f 72//72 69//69 70//70
f 74//74 73//73 75//75
f 74//74 75//75 76//76
f 78//78 77//77 79//79
f 78//78 79//79 80//80
f 82//82 81//81 83//83
f 82//82 83//83 84//84
f 86//86 85//85 87//87
f 86//86 87//87 88//88
f 90//90 89//89 91//91
f 90//90 91//91 92//92
f 94//94 93//93 95//95
f 94//94 95//95 96//96
f 98//98 97//97 99//99
f 98//98 99//99 100//100
f 102//102 101//101 103//103
f 102//102 103//103 104//104
f 106//106 105//105 107//107
f 106//106 107//107 108//108
f 110//110 112//112 111//111
f 110//110 111//111 109//109
f 113//113 112//112 110//110
f 113//113 110//110 114//114
f 115//115 113//113 114//114
f 115//115 114//114 116//116
f 118//118 117//117 115//115
f 118//118 115//115 116//116
f 120//120 119//119 121//121
f 120//120 121//121 122//122
f 124//124 126//126 125//125
f 124//124 125//125 123//123
f 127//127 126//126 124//124
f 127//127 124//124 128//128
f 129//129 127//127 128//128
f 129//129 128//128 130//130
f 132//132 131//131 129//129
f 132//132 129//129 130//130
f 134//134 133//133 135//135
f 134//134 135//135 136//136
f 138//138 140//140 139//139
f 138//138 139//139 137//137
f 141//141 140//140 138//138
f 141//141 138//138 142//142
f 143//143 141//141 142//142
f 143//143 142//142 144//144
f 146//146 145//145 143//143
f 146//146 143//143 144//144
f 148//148 147//147 149//149
f 148//148 149//149 150//150
f 152//152 154//154 153//153
f 152//152 153//153 151//151
f 155//155 154//154 152//152
f 155//155 152//152 156//156
f 157//157 155//155 156//156
f 157//157 156//156 158//158
f 160//160 159//159 157//157
f 160//160 157//157 158//158
f 162//162 161//161 163//163
f 162//162 163//163 164//164
f 166//166 168//168 167//167
f 166//166 167//167 165//165
f 169//169 168//168 166//166
f 169//169 166//166 170//170
f 171//171 169//169 170//170
f 171//171 170//170 172//172
f 174//174 173//173 171//171
f 174//174 171//171 172//172
f 176//176 175//175 177//177
f 176//176 177//177 178//178
f 180//180 182//182 181//181
f 180//180 181//181 179//179
f 183//183 182//182 180//180
f 183//183 180//180 184//184
f 185//185 183//183 184//184
f 185//185 184//184 186//186
f 188//188 187//187 185//185
f 188//188 185//185 186//186
f 190//190 189//189 191//191
f 190//190 191//191 192//192
f 197//197 194//194 193//193
f 194//194 195//195 193//193
f 195//195 196//196 193//193
f 198//198 194//194 197//197
f 198//198 199//199 194//194
f 201//201 196//196 195//195
f 200//200 202//202 196//196
f 196//196 201//201 200//200
f 200//200 203//203 202//202
f 204//204 203//203 200//200
f 205//205 206//206 201//201
f 206//206 200//200 201//201
f 205//205 207//207 206//206
f 208//208 207//207 205//205
f 209//209 208//208 205//205
f 210//210 209//209 205//205
f 210//210 212//212 211//211
f 210//210 205//205 212//212
f 212//212 217//217 213//213
f 213//213 214//214 212//212
f 212//212 214//214 215//215
f 215//215 216//216 212//212
f 216//216 211//211 212//212
f 213//213 217//217 218//218
f 218//218 217//217 219//219
f 217//217 220//220 219//219
f 223//223 220//220 221//221
f 220//220 222//222 228//228
f 220//220 228//228 221//221
f 220//220 223//223 219//219
f 221//221 224//224 223//223
f 221//221 225//225 224//224
f 225//225 221//221 226//226
f 227//227 228//228 222//222
f 228//228 227//227 229//229
f 230//230 228//228 229//229
f 228//228 230//230 231//231
f 232//232 218//218 219//219
f 233//233 218//218 232//232
f 233//233 234//234 218//218
f 235//235 195//195 194//194
f 235//235 194//194 236//236
f 235//235 236//236 237//237
f 237//237 236//236 238//238
f 239//239 238//238 236//236
f 240//240 239//239 236//236
