# deco_06 exported from /models/joints/deco_06.glb
# units: meters
v -0.009007 0.001000 0.011109
v -0.010007 0.001000 0.010109
v -0.006679 0.001000 0.011109
v -0.009375 0.001000 0.011038
v -0.009715 0.001000 0.010816
v -0.009937 0.001000 0.010477
v -0.006679 0.001000 -0.003604
v -0.004679 0.001000 -0.003604
v -0.008118 0.001000 -0.006429
v -0.007779 0.001000 -0.006207
v -0.007411 0.001000 -0.006136
v -0.003614 0.001000 -0.006136
v -0.002878 0.001000 -0.005996
v -0.002200 0.001000 -0.005551
v -0.001755 0.001000 -0.004873
v -0.001614 0.001000 -0.004136
v -0.001614 0.001000 0.010109
v -0.002614 0.001000 0.011109
v -0.002246 0.001000 0.011038
v -0.001907 0.001000 0.010816
v -0.004679 0.001000 0.011109
v -0.001685 0.001000 0.010477
v -0.008341 0.001000 -0.006768
v -0.008411 0.001000 -0.007136
v -0.010007 0.001000 -0.009260
v -0.008411 0.001000 -0.008531
v -0.009867 0.001000 -0.009996
v -0.008341 0.001000 -0.008899
v -0.008118 0.001000 -0.009238
v -0.009422 0.001000 -0.010674
v -0.008744 0.001000 -0.011120
v -0.007779 0.001000 -0.009460
v -0.008007 0.001000 -0.011260
v -0.007411 0.001000 -0.009531
v 0.007457 0.001000 -0.009531
v 0.008012 0.001000 -0.011260
v 0.007825 0.001000 -0.009460
v 0.008164 0.001000 -0.009238
v 0.008748 0.001000 -0.011120
v 0.009426 0.001000 -0.010674
v 0.009871 0.001000 -0.009996
v 0.010012 0.001000 -0.009260
v 0.008387 0.001000 -0.008899
v 0.008457 0.001000 -0.008531
v 0.008457 0.001000 -0.007136
v 0.008387 0.001000 -0.006768
v 0.010012 0.001000 0.010109
v 0.008164 0.001000 -0.006429
v 0.007825 0.001000 -0.006207
v 0.006725 0.001000 -0.003604
v 0.006725 0.001000 0.011109
v 0.007457 0.001000 -0.006136
v 0.004725 0.001000 -0.003604
v 0.004725 0.001000 0.011109
v 0.001660 0.001000 0.010109
v 0.001660 0.001000 -0.004136
v 0.001801 0.001000 -0.004873
v 0.002246 0.001000 -0.005551
v 0.002924 0.001000 -0.005996
v 0.003660 0.001000 -0.006136
v 0.002660 0.001000 0.011109
v 0.002292 0.001000 0.011038
v 0.001953 0.001000 0.010816
v 0.001731 0.001000 0.010477
v 0.009012 0.001000 0.011109
v 0.009380 0.001000 0.011038
v 0.009719 0.001000 0.010816
v 0.009942 0.001000 0.010477
v -0.009007 0.001000 0.011109
v -0.009387 0.001000 0.011034
v -0.009007 -0.001000 0.011109
v -0.009387 -0.001000 0.011034
v -0.009722 -0.001000 0.010808
v -0.009722 0.001000 0.010808
v -0.009939 -0.001000 0.010472
v -0.009939 0.001000 0.010472
v -0.010007 -0.001000 0.010109
v -0.010007 0.001000 0.010109
v -0.010007 0.001000 0.010109
v -0.010007 -0.001000 0.010109
v -0.010007 0.001000 -0.009260
v -0.010007 -0.001000 -0.009260
v -0.010007 0.001000 -0.009260
v -0.009858 0.001000 -0.010020
v -0.010007 -0.001000 -0.009260
v -0.009858 -0.001000 -0.010020
v -0.009407 -0.001000 -0.010689
v -0.009407 0.001000 -0.010689
v -0.008734 -0.001000 -0.011123
v -0.008734 0.001000 -0.011123
v -0.008007 -0.001000 -0.011260
v -0.008007 0.001000 -0.011260
v -0.008007 0.001000 -0.011260
v -0.008007 -0.001000 -0.011260
v 0.008012 0.001000 -0.011260
v 0.008012 -0.001000 -0.011260
v 0.008012 0.001000 -0.011260
v 0.008772 0.001000 -0.011110
v 0.008012 -0.001000 -0.011260
v 0.008772 -0.001000 -0.011110
v 0.009441 -0.001000 -0.010660
v 0.009441 0.001000 -0.010660
v 0.009875 -0.001000 -0.009987
v 0.009875 0.001000 -0.009987
v 0.010012 -0.001000 -0.009260
v 0.010012 0.001000 -0.009260
v 0.010012 0.001000 -0.009260
v 0.010012 -0.001000 -0.009260
v 0.010012 0.001000 0.010109
v 0.010012 -0.001000 0.010109
v 0.010012 0.001000 0.010109
v 0.009937 0.001000 0.010489
v 0.010012 -0.001000 0.010109
v 0.009937 -0.001000 0.010489
v 0.009712 -0.001000 0.010823
v 0.009712 0.001000 0.010823
v 0.009375 -0.001000 0.011040
v 0.009375 0.001000 0.011040
v 0.009012 -0.001000 0.011109
v 0.009012 0.001000 0.011109
v 0.009012 0.001000 0.011109
v 0.009012 -0.001000 0.011109
v 0.006725 0.001000 0.011109
v 0.006725 -0.001000 0.011109
v 0.006725 0.001000 0.011109
v 0.006725 -0.001000 0.011109
v 0.006725 0.001000 -0.003604
v 0.006725 -0.001000 -0.003604
v 0.006725 0.001000 -0.003604
v 0.006725 -0.001000 -0.003604
v 0.004725 0.001000 -0.003604
v 0.004725 -0.001000 -0.003604
v 0.004725 0.001000 -0.003604
v 0.004725 -0.001000 -0.003604
v 0.004725 0.001000 0.011109
v 0.004725 -0.001000 0.011109
v 0.004725 0.001000 0.011109
v 0.004725 -0.001000 0.011109
v 0.002660 0.001000 0.011109
v 0.002660 -0.001000 0.011109
v 0.002660 0.001000 0.011109
v 0.002281 0.001000 0.011034
v 0.002660 -0.001000 0.011109
v 0.002281 -0.001000 0.011034
v 0.001946 -0.001000 0.010808
v 0.001946 0.001000 0.010808
v 0.001729 -0.001000 0.010472
v 0.001729 0.001000 0.010472
v 0.001660 -0.001000 0.010109
v 0.001660 0.001000 0.010109
v 0.001660 0.001000 0.010109
v 0.001660 -0.001000 0.010109
v 0.001660 0.001000 -0.004136
v 0.001660 -0.001000 -0.004136
v 0.001660 0.001000 -0.004136
v 0.001810 0.001000 -0.004896
v 0.001660 -0.001000 -0.004136
v 0.001810 -0.001000 -0.004896
v 0.002261 -0.001000 -0.005565
v 0.002261 0.001000 -0.005565
v 0.002933 -0.001000 -0.006000
v 0.002933 0.001000 -0.006000
v 0.003660 -0.001000 -0.006136
v 0.003660 0.001000 -0.006136
v 0.003660 0.001000 -0.006136
v 0.003660 -0.001000 -0.006136
v 0.007457 0.001000 -0.006136
v 0.007457 -0.001000 -0.006136
v 0.007457 0.001000 -0.006136
v 0.007837 0.001000 -0.006211
v 0.007457 -0.001000 -0.006136
v 0.007837 -0.001000 -0.006211
v 0.008171 -0.001000 -0.006437
v 0.008171 0.001000 -0.006437
v 0.008389 -0.001000 -0.006773
v 0.008389 0.001000 -0.006773
v 0.008457 -0.001000 -0.007136
v 0.008457 0.001000 -0.007136
v 0.008457 0.001000 -0.007136
v 0.008457 -0.001000 -0.007136
v 0.008457 0.001000 -0.008531
v 0.008457 -0.001000 -0.008531
v 0.008457 0.001000 -0.008531
v 0.008382 0.001000 -0.008911
v 0.008457 -0.001000 -0.008531
v 0.008382 -0.001000 -0.008911
v 0.008157 -0.001000 -0.009245
v 0.008157 0.001000 -0.009245
v 0.007820 -0.001000 -0.009462
v 0.007820 0.001000 -0.009462
v 0.007457 -0.001000 -0.009531
v 0.007457 0.001000 -0.009531
v 0.007457 0.001000 -0.009531
v 0.007457 -0.001000 -0.009531
v -0.007411 0.001000 -0.009531
v -0.007411 -0.001000 -0.009531
v -0.007411 0.001000 -0.009531
v -0.007791 0.001000 -0.009456
v -0.007411 -0.001000 -0.009531
v -0.007791 -0.001000 -0.009456
v -0.008125 -0.001000 -0.009230
v -0.008125 0.001000 -0.009230
v -0.008342 -0.001000 -0.008894
v -0.008342 0.001000 -0.008894
v -0.008411 -0.001000 -0.008531
v -0.008411 0.001000 -0.008531
v -0.008411 0.001000 -0.008531
v -0.008411 -0.001000 -0.008531
v -0.008411 0.001000 -0.007136
v -0.008411 -0.001000 -0.007136
v -0.008411 0.001000 -0.007136
v -0.008336 0.001000 -0.006757
v -0.008411 -0.001000 -0.007136
v -0.008336 -0.001000 -0.006757
v -0.008111 -0.001000 -0.006422
v -0.008111 0.001000 -0.006422
v -0.007774 -0.001000 -0.006205
v -0.007774 0.001000 -0.006205
v -0.007411 -0.001000 -0.006136
v -0.007411 0.001000 -0.006136
v -0.007411 0.001000 -0.006136
v -0.007411 -0.001000 -0.006136
v -0.003614 0.001000 -0.006136
v -0.003614 -0.001000 -0.006136
v -0.003614 0.001000 -0.006136
v -0.002854 0.001000 -0.005987
v -0.003614 -0.001000 -0.006136
v -0.002854 -0.001000 -0.005987
v -0.002185 -0.001000 -0.005536
v -0.002185 0.001000 -0.005536
v -0.001751 -0.001000 -0.004863
v -0.001751 0.001000 -0.004863
v -0.001614 -0.001000 -0.004136
v -0.001614 0.001000 -0.004136
v -0.001614 0.001000 -0.004136
v -0.001614 -0.001000 -0.004136
v -0.001614 0.001000 0.010109
v -0.001614 -0.001000 0.010109
v -0.001614 0.001000 0.010109
v -0.001689 0.001000 0.010489
v -0.001614 -0.001000 0.010109
v -0.001689 -0.001000 0.010489
v -0.001915 -0.001000 0.010823
v -0.001915 0.001000 0.010823
v -0.002251 -0.001000 0.011040
v -0.002251 0.001000 0.011040
v -0.002614 -0.001000 0.011109
v -0.002614 0.001000 0.011109
v -0.002614 0.001000 0.011109
v -0.002614 -0.001000 0.011109
v -0.004679 0.001000 0.011109
v -0.004679 -0.001000 0.011109
v -0.004679 0.001000 0.011109
v -0.004679 -0.001000 0.011109
v -0.004679 0.001000 -0.003604
v -0.004679 -0.001000 -0.003604
v -0.004679 0.001000 -0.003604
v -0.004679 -0.001000 -0.003604
v -0.006679 0.001000 -0.003604
v -0.006679 -0.001000 -0.003604
v -0.006679 0.001000 -0.003604
v -0.006679 -0.001000 -0.003604
v -0.006679 0.001000 0.011109
v -0.006679 -0.001000 0.011109
v -0.006679 0.001000 0.011109
v -0.006679 -0.001000 0.011109
v -0.009007 0.001000 0.011109
v -0.009007 -0.001000 0.011109
v -0.009007 -0.001000 0.011109
v -0.006679 -0.001000 0.011109
v -0.010007 -0.001000 0.010109
v -0.009375 -0.001000 0.011038
v -0.009715 -0.001000 0.010816
v -0.009937 -0.001000 0.010477
v -0.006679 -0.001000 -0.003604
v -0.008118 -0.001000 -0.006429
v -0.008341 -0.001000 -0.006768
v -0.010007 -0.001000 -0.009260
v -0.008411 -0.001000 -0.007136
v -0.008411 -0.001000 -0.008531
v -0.009867 -0.001000 -0.009996
v -0.008341 -0.001000 -0.008899
v -0.008118 -0.001000 -0.009238
v -0.007779 -0.001000 -0.009460
v -0.009422 -0.001000 -0.010674
v -0.008744 -0.001000 -0.011120
v -0.008007 -0.001000 -0.011260
v -0.007411 -0.001000 -0.009531
v 0.008012 -0.001000 -0.011260
v 0.007457 -0.001000 -0.009531
v 0.007825 -0.001000 -0.009460
v 0.008748 -0.001000 -0.011120
v 0.008164 -0.001000 -0.009238
v 0.009426 -0.001000 -0.010674
v 0.009871 -0.001000 -0.009996
v 0.008387 -0.001000 -0.008899
v 0.010012 -0.001000 -0.009260
v 0.008457 -0.001000 -0.008531
v 0.008457 -0.001000 -0.007136
v 0.008387 -0.001000 -0.006768
v 0.010012 -0.001000 0.010109
v 0.009012 -0.001000 0.011109
v 0.009380 -0.001000 0.011038
v 0.009719 -0.001000 0.010816
v 0.006725 -0.001000 0.011109
v 0.009942 -0.001000 0.010477
v 0.006725 -0.001000 -0.003604
v 0.008164 -0.001000 -0.006429
v 0.007825 -0.001000 -0.006207
v 0.007457 -0.001000 -0.006136
v 0.004725 -0.001000 -0.003604
v 0.003660 -0.001000 -0.006136
v 0.002924 -0.001000 -0.005996
v 0.002246 -0.001000 -0.005551
v 0.001801 -0.001000 -0.004873
v 0.001660 -0.001000 -0.004136
v 0.001660 -0.001000 0.010109
v 0.001731 -0.001000 0.010477
v 0.004725 -0.001000 0.011109
v 0.002660 -0.001000 0.011109
v 0.002292 -0.001000 0.011038
v 0.001953 -0.001000 0.010816
v -0.007779 -0.001000 -0.006207
v -0.007411 -0.001000 -0.006136
v -0.004679 -0.001000 -0.003604
v -0.003614 -0.001000 -0.006136
v -0.002878 -0.001000 -0.005996
v -0.002200 -0.001000 -0.005551
v -0.001755 -0.001000 -0.004873
v -0.001614 -0.001000 -0.004136
v -0.001614 -0.001000 0.010109
v -0.002614 -0.001000 0.011109
v -0.002246 -0.001000 0.011038
v -0.001907 -0.001000 0.010816
v -0.004679 -0.001000 0.011109
v -0.001685 -0.001000 0.010477
vn 0.000000 1.000000 0.000000
vn 0.000000 1.000000 0.000000
vn 0.000000 1.000000 0.000000
vn 0.000000 1.000000 0.000000
vn 0.000000 1.000000 0.000000
vn 0.000000 1.000000 0.000000
vn 0.000000 1.000000 0.000000
vn 0.000000 1.000000 0.000000
vn 0.000000 1.000000 0.000000
vn 0.000000 1.000000 0.000000
vn 0.000000 1.000000 0.000000
vn 0.000000 1.000000 0.000000
vn 0.000000 1.000000 0.000000
vn 0.000000 1.000000 0.000000
vn 0.000000 1.000000 0.000000
vn 0.000000 1.000000 0.000000
vn 0.000000 1.000000 0.000000
vn 0.000000 1.000000 0.000000
vn 0.000000 1.000000 0.000000
vn 0.000000 1.000000 0.000000
vn 0.000000 1.000000 0.000000
vn 0.000000 1.000000 0.000000
vn 0.000000 1.000000 0.000000
vn 0.000000 1.000000 0.000000
vn 0.000000 1.000000 0.000000
vn 0.000000 1.000000 0.000000
vn 0.000000 1.000000 0.000000
vn 0.000000 1.000000 0.000000
vn 0.000000 1.000000 0.000000
vn 0.000000 1.000000 0.000000
vn 0.000000 1.000000 0.000000
vn 0.000000 1.000000 0.000000
vn 0.000000 1.000000 0.000000
vn 0.000000 1.000000 0.000000
vn 0.000000 1.000000 0.000000
vn 0.000000 1.000000 0.000000
vn 0.000000 1.000000 0.000000
vn 0.000000 1.000000 0.000000
vn 0.000000 1.000000 0.000000
vn 0.000000 1.000000 0.000000
vn 0.000000 1.000000 0.000000
vn 0.000000 1.000000 0.000000
vn 0.000000 1.000000 0.000000
vn 0.000000 1.000000 0.000000
vn 0.000000 1.000000 0.000000
vn 0.000000 1.000000 0.000000
vn 0.000000 1.000000 0.000000
vn 0.000000 1.000000 0.000000
vn 0.000000 1.000000 0.000000
vn 0.000000 1.000000 0.000000
vn 0.000000 1.000000 0.000000
vn 0.000000 1.000000 0.000000
vn 0.000000 1.000000 0.000000
vn 0.000000 1.000000 0.000000
vn 0.000000 1.000000 0.000000
vn 0.000000 1.000000 0.000000
vn 0.000000 1.000000 0.000000
vn 0.000000 1.000000 0.000000
vn 0.000000 1.000000 0.000000
vn 0.000000 1.000000 0.000000
vn 0.000000 1.000000 0.000000
vn 0.000000 1.000000 0.000000
vn 0.000000 1.000000 0.000000
vn 0.000000 1.000000 0.000000
vn 0.000000 1.000000 0.000000
vn 0.000000 1.000000 0.000000
vn 0.000000 1.000000 0.000000
vn 0.000000 1.000000 0.000000
vn -0.000100 -0.000000 1.000000
vn -0.379995 -0.000000 0.924988
vn -0.000100 -0.000000 1.000000
vn -0.379995 -0.000000 0.924988
vn -0.714419 -0.000000 0.699718
vn -0.714419 -0.000000 0.699718
vn -0.931595 -0.000000 0.363498
vn -0.931595 -0.000000 0.363498
vn -1.000000 -0.000000 0.000100
vn -1.000000 -0.000000 0.000100
vn -1.000000 0.000000 0.000000
vn -1.000000 0.000000 0.000000
vn -1.000000 0.000000 0.000000
vn -1.000000 0.000000 0.000000
vn -1.000000 0.000000 -0.000100
vn -0.925024 0.000000 -0.379910
vn -1.000000 0.000000 -0.000100
vn -0.925024 0.000000 -0.379910
vn -0.699617 0.000000 -0.714518
vn -0.699617 0.000000 -0.714518
vn -0.363498 0.000000 -0.931595
vn -0.363498 0.000000 -0.931595
vn -0.000100 0.000000 -1.000000
vn -0.000100 0.000000 -1.000000
vn 0.000000 0.000000 -1.000000
vn 0.000000 0.000000 -1.000000
vn 0.000000 0.000000 -1.000000
vn 0.000000 0.000000 -1.000000
vn 0.000100 0.000000 -1.000000
vn 0.379910 0.000000 -0.925024
vn 0.000100 0.000000 -1.000000
vn 0.379910 0.000000 -0.925024
vn 0.714567 0.000000 -0.699567
vn 0.714567 0.000000 -0.699567
vn 0.931595 0.000000 -0.363498
vn 0.931595 0.000000 -0.363498
vn 1.000000 0.000000 -0.000100
vn 1.000000 0.000000 -0.000100
vn 1.000000 0.000000 0.000000
vn 1.000000 0.000000 0.000000
vn 1.000000 0.000000 0.000000
vn 1.000000 0.000000 0.000000
vn 1.000000 -0.000000 0.000100
vn 0.924988 -0.000000 0.379995
vn 1.000000 -0.000000 0.000100
vn 0.924988 -0.000000 0.379995
vn 0.699920 -0.000000 0.714221
vn 0.699920 -0.000000 0.714221
vn 0.363498 -0.000000 0.931595
vn 0.363498 -0.000000 0.931595
vn 0.000100 0.000100 1.000000
vn 0.000100 -0.000000 1.000000
vn 0.000000 -0.000000 1.000000
vn 0.000000 -0.000000 1.000000
vn 0.000000 -0.000000 1.000000
vn 0.000000 -0.000000 1.000000
vn -1.000000 0.000000 0.000000
vn -1.000000 0.000000 0.000000
vn -1.000000 0.000000 0.000000
vn -1.000000 0.000000 0.000000
vn 0.000000 -0.000000 1.000000
vn 0.000000 -0.000000 1.000000
vn 0.000000 -0.000000 1.000000
vn 0.000000 -0.000000 1.000000
vn 1.000000 0.000000 0.000000
vn 1.000000 0.000000 0.000000
vn 1.000000 0.000000 0.000000
vn 1.000000 0.000000 0.000000
vn 0.000000 -0.000000 1.000000
vn 0.000000 -0.000000 1.000000
vn 0.000000 -0.000000 1.000000
vn 0.000000 -0.000000 1.000000
vn -0.000100 -0.000000 1.000000
vn -0.379995 -0.000000 0.924988
vn -0.000100 -0.000000 1.000000
vn -0.379995 -0.000000 0.924988
vn -0.714419 -0.000000 0.699718
vn -0.714419 -0.000000 0.699718
vn -0.931595 -0.000000 0.363498
vn -0.931595 -0.000000 0.363498
vn -1.000000 -0.000000 0.000100
vn -1.000000 -0.000000 0.000100
vn -1.000000 0.000000 0.000000
vn -1.000000 0.000000 0.000000
vn -1.000000 0.000000 0.000000
vn -1.000000 0.000000 0.000000
vn -1.000000 0.000000 -0.000100
vn -0.925024 0.000000 -0.379910
vn -1.000000 0.000000 -0.000100
vn -0.925024 0.000000 -0.379910
vn -0.699668 0.000000 -0.714468
vn -0.699668 0.000000 -0.714468
vn -0.363411 0.000000 -0.931629
vn -0.363411 0.000000 -0.931629
vn -0.000100 0.000000 -1.000000
vn -0.000100 0.000000 -1.000000
vn 0.000000 0.000000 -1.000000
vn 0.000000 0.000000 -1.000000
vn 0.000000 0.000000 -1.000000
vn 0.000000 0.000000 -1.000000
vn -0.000100 0.000000 -1.000000
vn -0.379910 0.000000 -0.925024
vn -0.000100 0.000000 -1.000000
vn -0.379910 0.000000 -0.925024
vn -0.714468 0.000000 -0.699668
vn -0.714468 0.000000 -0.699668
vn -0.931629 0.000000 -0.363411
vn -0.931629 0.000000 -0.363411
vn -1.000000 0.000000 -0.000100
vn -1.000000 0.000000 -0.000100
vn -1.000000 0.000000 0.000000
vn -1.000000 0.000000 0.000000
vn -1.000000 0.000000 0.000000
vn -1.000000 0.000000 0.000000
vn -1.000000 -0.000000 0.000100
vn -0.925024 -0.000000 0.379910
vn -1.000000 -0.000000 0.000100
vn -0.925024 -0.000000 0.379910
vn -0.699718 -0.000000 0.714419
vn -0.699718 -0.000000 0.714419
vn -0.363411 -0.000000 0.931629
vn -0.363411 -0.000000 0.931629
vn -0.000100 -0.000000 1.000000
vn -0.000100 -0.000000 1.000000
vn 0.000000 -0.000000 1.000000
vn 0.000000 -0.000000 1.000000
vn 0.000000 -0.000000 1.000000
vn 0.000000 -0.000000 1.000000
vn 0.000100 -0.000000 1.000000
vn 0.379910 -0.000000 0.925024
vn 0.000100 -0.000000 1.000000
vn 0.379910 -0.000000 0.925024
vn 0.714221 -0.000000 0.699920
vn 0.714221 -0.000000 0.699920
vn 0.931629 -0.000000 0.363411
vn 0.931629 -0.000000 0.363411
vn 1.000000 -0.000000 0.000100
vn 1.000000 -0.000000 0.000100
vn 1.000000 0.000000 0.000000
vn 1.000000 0.000000 0.000000
vn 1.000000 0.000000 0.000000
vn 1.000000 0.000000 0.000000
vn 1.000000 0.000000 -0.000100
vn 0.925024 0.000000 -0.379910
vn 1.000000 0.000000 -0.000100
vn 0.925024 0.000000 -0.379910
vn 0.699769 0.000000 -0.714369
vn 0.699769 0.000000 -0.714369
vn 0.363411 0.000000 -0.931629
vn 0.363411 0.000000 -0.931629
vn 0.000100 0.000000 -1.000000
vn 0.000100 0.000000 -1.000000
vn 0.000000 0.000000 -1.000000
vn 0.000000 0.000000 -1.000000
vn 0.000000 0.000000 -1.000000
vn 0.000000 0.000000 -1.000000
vn 0.000100 0.000000 -1.000000
vn 0.379910 0.000000 -0.925024
vn 0.000100 0.000000 -1.000000
vn 0.379910 0.000000 -0.925024
vn 0.714518 0.000000 -0.699617
vn 0.714518 0.000000 -0.699617
vn 0.931629 0.000000 -0.363411
vn 0.931629 0.000000 -0.363411
vn 1.000000 0.000000 -0.000100
vn 1.000000 0.000000 -0.000100
vn 1.000000 0.000000 0.000000
vn 1.000000 0.000000 0.000000
vn 1.000000 0.000000 0.000000
vn 1.000000 0.000000 0.000000
vn 1.000000 -0.000000 0.000100
vn 0.924988 -0.000000 0.379995
vn 1.000000 -0.000000 0.000100
vn 0.924988 -0.000000 0.379995
vn 0.699718 -0.000000 0.714419
vn 0.699718 -0.000000 0.714419
vn 0.363498 -0.000000 0.931595
vn 0.363498 -0.000000 0.931595
vn 0.000100 -0.000000 1.000000
vn 0.000100 -0.000000 1.000000
vn 0.000000 -0.000000 1.000000
vn 0.000000 -0.000000 1.000000
vn 0.000000 -0.000000 1.000000
vn 0.000000 -0.000000 1.000000
vn -1.000000 0.000000 0.000000
vn -1.000000 0.000000 0.000000
vn -1.000000 0.000000 0.000000
vn -1.000000 0.000000 0.000000
vn 0.000000 -0.000000 1.000000
vn 0.000000 -0.000000 1.000000
vn 0.000000 -0.000000 1.000000
vn 0.000000 -0.000000 1.000000
vn 1.000000 0.000000 0.000000
vn 1.000000 0.000000 0.000000
vn 1.000000 0.000000 0.000000
vn 1.000000 0.000000 0.000000
vn 0.000000 -0.000000 1.000000
vn 0.000000 -0.000000 1.000000
vn 0.000000 -0.000000 1.000000
vn 0.000000 -0.000000 1.000000
vn 0.000000 -1.000000 -0.000000
vn 0.000000 -1.000000 -0.000000
vn 0.000000 -1.000000 -0.000000
vn 0.000000 -1.000000 -0.000000
vn 0.000000 -1.000000 -0.000000
vn 0.000000 -1.000000 -0.000000
vn 0.000000 -1.000000 -0.000000
vn 0.000000 -1.000000 -0.000000
vn 0.000000 -1.000000 -0.000000
vn 0.000000 -1.000000 -0.000000
vn 0.000000 -1.000000 -0.000000
vn 0.000000 -1.000000 -0.000000
vn 0.000000 -1.000000 -0.000000
vn 0.000000 -1.000000 -0.000000
vn 0.000000 -1.000000 -0.000000
vn 0.000000 -1.000000 -0.000000
vn 0.000000 -1.000000 -0.000000
vn 0.000000 -1.000000 -0.000000
vn 0.000000 -1.000000 -0.000000
vn 0.000000 -1.000000 -0.000000
vn 0.000000 -1.000000 -0.000000
vn 0.000000 -1.000000 -0.000000
vn 0.000000 -1.000000 -0.000000
vn 0.000000 -1.000000 -0.000000
vn 0.000000 -1.000000 -0.000000
vn 0.000000 -1.000000 -0.000000
vn 0.000000 -1.000000 -0.000000
vn 0.000000 -1.000000 -0.000000
vn 0.000000 -1.000000 -0.000000
vn 0.000000 -1.000000 -0.000000
vn 0.000000 -1.000000 -0.000000
vn 0.000000 -1.000000 -0.000000
vn 0.000000 -1.000000 -0.000000
vn 0.000000 -1.000000 -0.000000
vn 0.000000 -1.000000 -0.000000
vn 0.000000 -1.000000 -0.000000
vn 0.000000 -1.000000 -0.000000
vn 0.000000 -1.000000 -0.000000
vn 0.000000 -1.000000 -0.000000
vn 0.000000 -1.000000 -0.000000
vn 0.000000 -1.000000 -0.000000
vn 0.000000 -1.000000 -0.000000
vn 0.000000 -1.000000 -0.000000
vn 0.000000 -1.000000 -0.000000
vn 0.000000 -1.000000 -0.000000
vn 0.000000 -1.000000 -0.000000
vn 0.000000 -1.000000 -0.000000
vn 0.000000 -1.000000 -0.000000
vn 0.000000 -1.000000 -0.000000
vn 0.000000 -1.000000 -0.000000
vn 0.000000 -1.000000 -0.000000
vn 0.000000 -1.000000 -0.000000
vn 0.000000 -1.000000 -0.000000
vn 0.000000 -1.000000 -0.000000
vn 0.000000 -1.000000 -0.000000
vn 0.000000 -1.000000 -0.000000
vn 0.000000 -1.000000 -0.000000
vn 0.000000 -1.000000 -0.000000
vn 0.000000 -1.000000 -0.000000
vn 0.000000 -1.000000 -0.000000
vn 0.000000 -1.000000 -0.000000
vn 0.000000 -1.000000 -0.000000
vn 0.000000 -1.000000 -0.000000
vn 0.000000 -1.000000 -0.000000
vn 0.000000 -1.000000 -0.000000
vn 0.000000 -1.000000 -0.000000
vn 0.000000 -1.000000 -0.000000
vn 0.000000 -1.000000 -0.000000
f 2//2 4//4 1//1
f 1//1 3//3 2//2
f 4//4 2//2 5//5
f 6//6 5//5 2//2
f 2//2 3//3 7//7
f 11//11 7//7 8//8
f 7//7 10//10 9//9
f 7//7 9//9 2//2
f 10//10 7//7 11//11
f 11//11 8//8 12//12
f 13//13 12//12 8//8
f 13//13 8//8 14//14
f 14//14 8//8 15//15
f 16//16 15//15 8//8
f 8//8 17//17 16//16
f 21//21 18//18 17//17
f 18//18 19//19 17//17
f 19//19 20//20 17//17
f 22//22 17//17 20//20
f 8//8 21//21 17//17
f 23//23 2//2 9//9
f 24//24 25//25 23//23
f 23//23 25//25 2//2
f 26//26 28//28 25//25
f 25//25 24//24 26//26
f 27//27 25//25 28//28
f 29//29 27//27 28//28
f 31//31 30//30 29//29
f 30//30 27//27 29//29
f 31//31 29//29 32//32
f 31//31 32//32 33//33
f 34//34 33//33 32//32
f 33//33 34//34 35//35
f 33//33 35//35 36//36
f 37//37 36//36 35//35
f 37//37 38//38 39//39
f 36//36 37//37 39//39
f 40//40 39//39 38//38
f 41//41 40//40 38//38
f 41//41 43//43 42//42
f 43//43 41//41 38//38
f 44//44 42//42 43//43
f 42//42 44//44 45//45
f 42//42 45//45 46//46
f 47//47 42//42 46//46
f 47//47 46//46 48//48
f 48//48 50//50 47//47
f 50//50 48//48 49//49
f 50//50 51//51 47//47
f 50//50 49//49 52//52
f 52//52 53//53 50//50
f 53//53 55//55 54//54
f 56//56 55//55 53//53
f 57//57 56//56 53//53
f 53//53 58//58 57//57
f 53//53 52//52 60//60
f 58//58 53//53 59//59
f 59//59 53//53 60//60
f 61//61 54//54 55//55
f 55//55 62//62 61//61
f 55//55 63//63 62//62
f 64//64 63//63 55//55
f 51//51 65//65 47//47
f 65//65 66//66 47//47
f 66//66 67//67 47//47
f 68//68 47//47 67//67
f 70//70 72//72 71//71
f 70//70 71//71 69//69
f 73//73 72//72 70//70
f 73//73 70//70 74//74
f 75//75 73//73 74//74
f 75//75 74//74 76//76
f 78//78 77//77 75//75
f 78//78 75//75 76//76
f 80//80 79//79 81//81
f 80//80 81//81 82//82
f 84//84 86//86 85//85
f 84//84 85//85 83//83
f 87//87 86//86 84//84
f 87//87 84//84 88//88
f 89//89 87//87 88//88
f 89//89 88//88 90//90
f 92//92 91//91 89//89
f 92//92 89//89 90//90
f 94//94 93//93 95//95
f 94//94 95//95 96//96
f 98//98 100//100 99//99
f 98//98 99//99 97//97
f 101//101 100//100 98//98
f 101//101 98//98 102//102
f 103//103 101//101 102//102
f 103//103 102//102 104//104
f 106//106 105//105 103//103
f 106//106 103//103 104//104
f 108//108 107//107 109//109
f 108//108 109//109 110//110
f 112//112 114//114 113//113
f 112//112 113//113 111//111
f 115//115 114//114 112//112
f 115//115 112//112 116//116
f 117//117 115//115 116//116
f 117//117 116//116 118//118
f 120//120 119//119 117//117
f 120//120 117//117 118//118
f 122//122 121//121 123//123
f 122//122 123//123 124//124
f 126//126 125//125 127//127
f 126//126 127//127 128//128
f 130//130 129//129 131//131
f 130//130 131//131 132//132
f 134//134 133//133 135//135
f 134//134 135//135 136//136
f 138//138 137//137 139//139
f 138//138 139//139 140//140
f 142//142 144//144 143//143
f 142//142 143//143 141//141
f 145//145 144//144 142//142
f 145//145 142//142 146//146
f 147//147 145//145 146//146
f 147//147 146//146 148//148
f 150//150 149//149 147//147
f 150//150 147//147 148//148
f 152//152 151//151 153//153
f 152//152 153//153 154//154
f 156//156 158//158 157//157
f 156//156 157//157 155//155
f 159//159 158//158 156//156
f 159//159 156//156 160//160
f 161//161 159//159 160//160
f 161//161 160//160 162//162
f 164//164 163//163 161//161
f 164//164 161//161 162//162
f 166//166 165//165 167//167
f 166//166 167//167 168//168
f 170//170 172//172 171//171
f 170//170 171//171 169//169
f 173//173 172//172 170//170
f 173//173 170//170 174//174
f 175//175 173//173 174//174
f 175//175 174//174 176//176
f 178//178 177//177 175//175
f 178//178 175//175 176//176
f 180//180 179//179 181//181
f 180//180 181//181 182//182
f 184//184 186//186 185//185
f 184//184 185//185 183//183
f 187//187 186//186 184//184
f 187//187 184//184 188//188
f 189//189 187//187 188//188
f 189//189 188//188 190//190
f 192//192 191//191 189//189
f 192//192 189//189 190//190
f 194//194 193//193 195//195
f 194//194 195//195 196//196
f 198//198 200//200 199//199
f 198//198 199//199 197//197
f 201//201 200//200 198//198
f 201//201 198//198 202//202
f 203//203 201//201 202//202
f 203//203 202//202 204//204
f 206//206 205//205 203//203
f 206//206 203//203 204//204
f 208//208 207//207 209//209
f 208//208 209//209 210//210
f 212//212 214//214 213//213
f 212//212 213//213 211//211
f 215//215 214//214 212//212
f 215//215 212//212 216//216
f 217//217 215//215 216//216
f 217//217 216//216 218//218
f 220//220 219//219 217//217
f 220//220 217//217 218//218
f 222//222 221//221 223//223
f 222//222 223//223 224//224
f 226//226 228//228 227//227
f 226//226 227//227 225//225
f 229//229 228//228 226//226
f 229//229 226//226 230//230
f 231//231 229//229 230//230
f 231//231 230//230 232//232
f 234//234 233//233 231//231
f 234//234 231//231 232//232
f 236//236 235//235 237//237
f 236//236 237//237 238//238
f 240//240 242//242 241//241
f 240//240 241//241 239//239
f 243//243 242//242 240//240
f 243//243 240//240 244//244
f 245//245 243//243 244//244
f 245//245 244//244 246//246
f 248//248 247//247 245//245
f 248//248 245//245 246//246
f 250//250 249//249 251//251
f 250//250 251//251 252//252
f 254//254 253//253 255//255
f 254//254 255//255 256//256
f 258//258 257//257 259//259
f 258//258 259//259 260//260
f 262//262 261//261 263//263
f 262//262 263//263 264//264
f 266//266 265//265 267//267
f 266//266 267//267 268//268
f 269//269 271//271 270//270
f 271//271 269//269 272//272
f 272//272 273//273 271//271
f 274//274 271//271 273//273
f 271//271 275//275 270//270
f 275//275 271//271 276//276
f 277//277 276//276 271//271
f 277//277 271//271 278//278
f 279//279 277//277 278//278
f 278//278 280//280 279//279
f 280//280 278//278 282//282
f 281//281 282//282 278//278
f 283//283 282//282 281//281
f 286//286 284//284 283//283
f 285//285 283//283 281//281
f 286//286 283//283 285//285
f 286//286 287//287 284//284
f 287//287 289//289 290//290
f 287//287 290//290 288//288
f 288//288 284//284 287//287
f 291//291 290//290 289//289
f 289//289 292//292 291//291
f 291//291 292//292 293//293
f 294//294 293//293 292//292
f 295//295 293//293 294//294
f 296//296 293//293 295//295
f 295//295 297//297 296//296
f 298//298 296//296 297//297
f 297//297 299//299 298//298
f 297//297 300//300 299//299
f 301//301 300//300 297//297
f 305//305 301//301 302//302
f 302//302 301//301 303//303
f 303//303 301//301 304//304
f 306//306 304//304 301//301
f 307//307 301//301 305//305
f 308//308 301//301 307//307
f 301//301 308//308 300//300
f 307//307 309//309 308//308
f 307//307 310//310 309//309
f 310//310 307//307 311//311
f 311//311 312//312 310//310
f 313//313 312//312 311//311
f 314//314 313//313 311//311
f 311//311 315//315 314//314
f 315//315 311//311 316//316
f 316//316 311//311 317//317
f 318//318 317//317 322//322
f 311//311 319//319 317//317
f 320//320 317//317 319//319
f 317//317 320//320 321//321
f 317//317 321//321 322//322
f 275//275 276//276 323//323
f 323//323 324//324 275//275
f 324//324 325//325 275//275
f 324//324 326//326 325//325
f 327//327 325//325 326//326
f 327//327 328//328 325//325
f 328//328 329//329 325//325
f 330//330 325//325 329//329
f 325//325 330//330 331//331
f 335//335 331//331 332//332
f 332//332 331//331 333//333
f 333//333 331//331 334//334
f 336//336 334//334 331//331
f 325//325 331//331 335//335
