# deco_02 exported from /models/joints/deco_02.glb
# units: meters
v 0.010000 0.001000 0.027711
v 0.009368 0.001000 0.028641
v 0.009000 0.001000 0.028711
v 0.006782 0.001000 0.006900
v 0.009929 0.001000 0.028079
v 0.009707 0.001000 0.028418
v 0.006782 0.001000 0.002475
v 0.010000 0.001000 -0.026282
v 0.006782 0.001000 -0.024223
v 0.008736 0.001000 -0.028142
v 0.009414 0.001000 -0.027697
v 0.009859 0.001000 -0.027019
v 0.008000 0.001000 -0.028282
v -0.008000 0.001000 -0.028282
v 0.004928 0.001000 -0.024576
v 0.000854 0.001000 -0.024576
v 0.006747 0.001000 -0.024407
v 0.006635 0.001000 -0.024576
v 0.000684 0.001000 -0.024687
v 0.000500 0.001000 -0.024723
v 0.006282 0.001000 -0.024723
v 0.005282 0.001000 -0.024723
v 0.005098 0.001000 -0.024687
v -0.000500 0.001000 -0.024723
v 0.006466 0.001000 -0.024687
v -0.000684 0.001000 -0.024687
v -0.000854 0.001000 -0.024576
v -0.000965 0.001000 -0.024407
v -0.004928 0.001000 -0.024576
v -0.004817 0.001000 -0.024407
v -0.005098 0.001000 -0.024687
v -0.005282 0.001000 -0.024723
v -0.006282 0.001000 -0.024723
v -0.006466 0.001000 -0.024687
v -0.006635 0.001000 -0.024576
v -0.006747 0.001000 -0.024407
v -0.006782 0.001000 -0.024223
v -0.008736 0.001000 -0.028142
v -0.006782 0.001000 -0.018276
v -0.010000 0.001000 -0.026282
v -0.006782 0.001000 -0.015007
v -0.010000 0.001000 0.027711
v -0.009859 0.001000 -0.027019
v -0.009414 0.001000 -0.027697
v -0.006782 0.001000 0.028711
v -0.009000 0.001000 0.028711
v -0.009368 0.001000 0.028641
v -0.009707 0.001000 0.028418
v -0.009929 0.001000 0.028079
v -0.005282 0.001000 -0.017776
v -0.006282 0.001000 -0.017776
v -0.006466 0.001000 -0.017811
v -0.006635 0.001000 -0.017922
v -0.006747 0.001000 -0.018091
v -0.004782 0.001000 -0.015007
v -0.004782 0.001000 0.026711
v -0.001000 0.001000 -0.024223
v -0.005098 0.001000 -0.017811
v -0.004782 0.001000 -0.018276
v -0.004817 0.001000 -0.018091
v -0.004928 0.001000 -0.017922
v -0.004782 0.001000 -0.024223
v -0.001000 0.001000 0.025340
v -0.002782 0.001000 0.028711
v -0.003518 0.001000 0.028571
v -0.000965 0.001000 0.025524
v -0.000854 0.001000 0.025694
v -0.000684 0.001000 0.025805
v -0.000500 0.001000 0.025840
v 0.000500 0.001000 0.025840
v 0.000684 0.001000 0.025805
v 0.002782 0.001000 0.028711
v 0.003518 0.001000 0.028571
v 0.000854 0.001000 0.025694
v 0.000965 0.001000 0.025524
v 0.001000 0.001000 0.025340
v 0.004782 0.001000 0.002475
v 0.004782 0.001000 0.006900
v 0.001000 0.001000 -0.024223
v 0.004782 0.001000 0.026711
v 0.004196 0.001000 0.028125
v 0.004641 0.001000 0.027447
v 0.004782 0.001000 -0.024223
v 0.004817 0.001000 -0.024407
v 0.000965 0.001000 -0.024407
v 0.005282 0.001000 0.002975
v 0.005098 0.001000 0.002940
v 0.004928 0.001000 0.002829
v 0.004817 0.001000 0.002659
v 0.006282 0.001000 0.002975
v 0.006466 0.001000 0.002940
v 0.006635 0.001000 0.002829
v 0.006747 0.001000 0.002659
v -0.004196 0.001000 0.028125
v -0.004642 0.001000 0.027447
v 0.006782 0.001000 0.028711
v 0.006782 0.001000 0.002475
v 0.006782 -0.000000 0.002475
v 0.006782 0.001000 -0.024223
v 0.006782 0.000000 -0.024223
v 0.006782 -0.001000 -0.024223
v 0.006782 -0.001000 0.002475
v 0.006782 0.001000 -0.024223
v 0.006782 0.000000 -0.024223
v 0.006744 0.001000 -0.024412
v 0.006744 0.000000 -0.024412
v 0.006632 0.001000 -0.024580
v 0.006632 0.000000 -0.024580
v 0.006464 0.001000 -0.024688
v 0.006464 0.000000 -0.024688
v 0.006282 0.001000 -0.024723
v 0.006282 0.000000 -0.024723
v 0.006282 -0.001000 -0.024723
v 0.006464 -0.001000 -0.024688
v 0.006632 -0.001000 -0.024580
v 0.006744 -0.001000 -0.024412
v 0.006782 -0.001000 -0.024223
v 0.006282 0.001000 -0.024723
v 0.006282 0.000000 -0.024723
v 0.005282 0.001000 -0.024723
v 0.005282 0.000000 -0.024723
v 0.005282 -0.001000 -0.024723
v 0.006282 -0.001000 -0.024723
v 0.005282 0.001000 -0.024723
v 0.005282 0.000000 -0.024723
v 0.005092 0.001000 -0.024685
v 0.005092 0.000000 -0.024685
v 0.004925 0.001000 -0.024572
v 0.004925 0.000000 -0.024572
v 0.004816 0.001000 -0.024404
v 0.004816 0.000000 -0.024404
v 0.004782 0.001000 -0.024223
v 0.004782 0.000000 -0.024223
v 0.004782 -0.001000 -0.024223
v 0.004816 -0.001000 -0.024404
v 0.004925 -0.001000 -0.024572
v 0.005092 -0.001000 -0.024685
v 0.005282 -0.001000 -0.024723
v 0.004782 0.001000 -0.024223
v 0.004782 0.000000 -0.024223
v 0.004782 0.001000 0.002475
v 0.004782 -0.000000 0.002475
v 0.004782 -0.001000 0.002475
v 0.004782 -0.001000 -0.024223
v 0.004782 0.001000 0.002475
v 0.004782 -0.000000 0.002475
v 0.004819 0.001000 0.002665
v 0.004819 -0.000000 0.002665
v 0.004932 0.001000 0.002832
v 0.004932 -0.000000 0.002832
v 0.005100 0.001000 0.002941
v 0.005100 -0.000000 0.002941
v 0.005282 0.001000 0.002975
v 0.005282 -0.000000 0.002975
v 0.005282 -0.001000 0.002975
v 0.005100 -0.001000 0.002941
v 0.004932 -0.001000 0.002832
v 0.004819 -0.001000 0.002665
v 0.004782 -0.001000 0.002475
v 0.005282 0.001000 0.002975
v 0.005282 -0.000000 0.002975
v 0.006282 0.001000 0.002975
v 0.006282 -0.000000 0.002975
v 0.006282 -0.001000 0.002975
v 0.005282 -0.001000 0.002975
v 0.006282 0.001000 0.002975
v 0.006282 -0.000000 0.002975
v 0.006472 0.001000 0.002938
v 0.006472 -0.000000 0.002938
v 0.006639 0.001000 0.002825
v 0.006639 -0.000000 0.002825
v 0.006748 0.001000 0.002657
v 0.006748 -0.000000 0.002657
v 0.006782 0.001000 0.002475
v 0.006782 -0.000000 0.002475
v 0.006782 -0.001000 0.002475
v 0.006748 -0.001000 0.002657
v 0.006639 -0.001000 0.002825
v 0.006472 -0.001000 0.002938
v 0.006282 -0.001000 0.002975
v 0.000500 0.001000 -0.024723
v 0.000500 0.000000 -0.024723
v -0.000500 0.001000 -0.024723
v -0.000500 0.000000 -0.024723
v -0.000500 -0.001000 -0.024723
v 0.000500 -0.001000 -0.024723
v -0.000500 0.001000 -0.024723
v -0.000500 0.000000 -0.024723
v -0.000690 0.001000 -0.024685
v -0.000690 0.000000 -0.024685
v -0.000857 0.001000 -0.024572
v -0.000857 0.000000 -0.024572
v -0.000966 0.001000 -0.024404
v -0.000966 0.000000 -0.024404
v -0.001000 0.001000 -0.024223
v -0.001000 0.000000 -0.024223
v -0.001000 -0.001000 -0.024223
v -0.000966 -0.001000 -0.024404
v -0.000857 -0.001000 -0.024572
v -0.000690 -0.001000 -0.024685
v -0.000500 -0.001000 -0.024723
v -0.001000 0.001000 -0.024223
v -0.001000 0.000000 -0.024223
v -0.001000 0.001000 0.025340
v -0.001000 -0.000000 0.025340
v -0.001000 -0.001000 0.025340
v -0.001000 -0.001000 -0.024223
v -0.001000 0.001000 0.025340
v -0.001000 -0.000000 0.025340
v -0.000963 0.001000 0.025530
v -0.000963 -0.000000 0.025530
v -0.000850 0.001000 0.025697
v -0.000850 -0.000000 0.025697
v -0.000682 0.001000 0.025806
v -0.000682 -0.000000 0.025806
v -0.000500 0.001000 0.025840
v -0.000500 -0.000000 0.025840
v -0.000500 -0.001000 0.025840
v -0.000682 -0.001000 0.025806
v -0.000850 -0.001000 0.025697
v -0.000963 -0.001000 0.025530
v -0.001000 -0.001000 0.025340
v -0.000500 0.001000 0.025840
v -0.000500 -0.000000 0.025840
v 0.000500 0.001000 0.025840
v 0.000500 -0.000000 0.025840
v 0.000500 -0.001000 0.025840
v -0.000500 -0.001000 0.025840
v 0.000500 0.001000 0.025840
v 0.000500 -0.000000 0.025840
v 0.000690 0.001000 0.025803
v 0.000690 -0.000000 0.025803
v 0.000857 0.001000 0.025690
v 0.000857 -0.000000 0.025690
v 0.000966 0.001000 0.025522
v 0.000966 -0.000000 0.025522
v 0.001000 0.001000 0.025340
v 0.001000 -0.000000 0.025340
v 0.001000 -0.001000 0.025340
v 0.000966 -0.001000 0.025522
v 0.000857 -0.001000 0.025690
v 0.000690 -0.001000 0.025803
v 0.000500 -0.001000 0.025840
v 0.001000 0.001000 0.025340
v 0.001000 -0.000000 0.025340
v 0.001000 0.001000 -0.024223
v 0.001000 0.000000 -0.024223
v 0.001000 -0.001000 -0.024223
v 0.001000 -0.001000 0.025340
v 0.001000 0.001000 -0.024223
v 0.001000 0.000000 -0.024223
v 0.000963 0.001000 -0.024412
v 0.000963 0.000000 -0.024412
v 0.000850 0.001000 -0.024580
v 0.000850 0.000000 -0.024580
v 0.000682 0.001000 -0.024688
v 0.000682 0.000000 -0.024688
v 0.000500 0.001000 -0.024723
v 0.000500 0.000000 -0.024723
v 0.000500 -0.001000 -0.024723
v 0.000682 -0.001000 -0.024688
v 0.000850 -0.001000 -0.024580
v 0.000963 -0.001000 -0.024412
v 0.001000 -0.001000 -0.024223
v -0.004782 0.001000 -0.018276
v -0.004782 0.000000 -0.018276
v -0.004782 0.001000 -0.024223
v -0.004782 0.000000 -0.024223
v -0.004782 -0.001000 -0.024223
v -0.004782 -0.001000 -0.018276
v -0.004782 0.001000 -0.024223
v -0.004782 0.000000 -0.024223
v -0.004819 0.001000 -0.024412
v -0.004819 0.000000 -0.024412
v -0.004932 0.001000 -0.024580
v -0.004932 0.000000 -0.024580
v -0.005100 0.001000 -0.024688
v -0.005100 0.000000 -0.024688
v -0.005282 0.001000 -0.024723
v -0.005282 0.000000 -0.024723
v -0.005282 -0.001000 -0.024723
v -0.005100 -0.001000 -0.024688
v -0.004932 -0.001000 -0.024580
v -0.004819 -0.001000 -0.024412
v -0.004782 -0.001000 -0.024223
v -0.005282 0.001000 -0.024723
v -0.005282 0.000000 -0.024723
v -0.006282 0.001000 -0.024723
v -0.006282 0.000000 -0.024723
v -0.006282 -0.001000 -0.024723
v -0.005282 -0.001000 -0.024723
v -0.006282 0.001000 -0.024723
v -0.006282 0.000000 -0.024723
v -0.006472 0.001000 -0.024685
v -0.006472 0.000000 -0.024685
v -0.006639 0.001000 -0.024572
v -0.006639 0.000000 -0.024572
v -0.006748 0.001000 -0.024404
v -0.006748 0.000000 -0.024404
v -0.006782 0.001000 -0.024223
v -0.006782 0.000000 -0.024223
v -0.006782 -0.001000 -0.024223
v -0.006748 -0.001000 -0.024404
v -0.006639 -0.001000 -0.024572
v -0.006472 -0.001000 -0.024685
v -0.006282 -0.001000 -0.024723
v -0.006782 0.001000 -0.024223
v -0.006782 0.000000 -0.024223
v -0.006782 0.001000 -0.018276
v -0.006782 0.000000 -0.018276
v -0.006782 -0.001000 -0.018276
v -0.006782 -0.001000 -0.024223
v -0.006782 0.001000 -0.018276
v -0.006782 0.000000 -0.018276
v -0.006744 0.001000 -0.018086
v -0.006744 0.000000 -0.018086
v -0.006632 0.001000 -0.017918
v -0.006632 0.000000 -0.017918
v -0.006464 0.001000 -0.017810
v -0.006464 0.000000 -0.017810
v -0.006282 0.001000 -0.017776
v -0.006282 0.000000 -0.017776
v -0.006282 -0.001000 -0.017776
v -0.006464 -0.001000 -0.017810
v -0.006632 -0.001000 -0.017918
v -0.006744 -0.001000 -0.018086
v -0.006782 -0.001000 -0.018276
v -0.006282 0.001000 -0.017776
v -0.006282 0.000000 -0.017776
v -0.005282 0.001000 -0.017776
v -0.005282 0.000000 -0.017776
v -0.005282 -0.001000 -0.017776
v -0.006282 -0.001000 -0.017776
v -0.005282 0.001000 -0.017776
v -0.005282 0.000000 -0.017776
v -0.005092 0.001000 -0.017813
v -0.005092 0.000000 -0.017813
v -0.004925 0.001000 -0.017926
v -0.004925 0.000000 -0.017926
v -0.004816 0.001000 -0.018094
v -0.004816 0.000000 -0.018094
v -0.004782 0.001000 -0.018276
v -0.004782 0.000000 -0.018276
v -0.004782 -0.001000 -0.018276
v -0.004816 -0.001000 -0.018094
v -0.004925 -0.001000 -0.017926
v -0.005092 -0.001000 -0.017813
v -0.005282 -0.001000 -0.017776
v 0.010000 0.001000 0.027711
v 0.009925 0.001000 0.028091
v 0.010000 -0.001000 0.027711
v 0.009925 -0.001000 0.028091
v 0.009699 -0.001000 0.028426
v 0.009699 0.001000 0.028426
v 0.009363 -0.001000 0.028643
v 0.009363 0.001000 0.028643
v 0.009000 -0.001000 0.028711
v 0.009000 0.001000 0.028711
v 0.009000 0.001000 0.028711
v 0.009000 -0.001000 0.028711
v 0.006782 0.001000 0.028711
v 0.006782 -0.001000 0.028711
v 0.006782 0.001000 0.028711
v 0.006782 -0.001000 0.028711
v 0.006782 0.001000 0.006900
v 0.006782 -0.001000 0.006900
v 0.006782 0.001000 0.006900
v 0.006782 -0.001000 0.006900
v 0.004782 0.001000 0.006900
v 0.004782 -0.001000 0.006900
v 0.004782 0.001000 0.006900
v 0.004782 -0.001000 0.006900
v 0.004782 0.001000 0.026711
v 0.004782 -0.001000 0.026711
v 0.004782 0.001000 0.026711
v 0.004632 0.001000 0.027471
v 0.004782 -0.001000 0.026711
v 0.004632 -0.001000 0.027471
v 0.004181 -0.001000 0.028140
v 0.004181 0.001000 0.028140
v 0.003509 -0.001000 0.028574
v 0.003509 0.001000 0.028574
v 0.002782 -0.001000 0.028711
v 0.002782 0.001000 0.028711
v 0.002782 0.001000 0.028711
v 0.002782 -0.001000 0.028711
v -0.002782 0.001000 0.028711
v -0.002782 -0.001000 0.028711
v -0.002782 0.001000 0.028711
v -0.003542 0.001000 0.028561
v -0.002782 -0.001000 0.028711
v -0.003542 -0.001000 0.028561
v -0.004211 -0.001000 0.028111
v -0.004211 0.001000 0.028111
v -0.004645 -0.001000 0.027438
v -0.004645 0.001000 0.027438
v -0.004782 -0.001000 0.026711
v -0.004782 0.001000 0.026711
v -0.004782 0.001000 0.026711
v -0.004782 -0.001000 0.026711
v -0.004782 0.001000 -0.015007
v -0.004782 -0.001000 -0.015007
v -0.004782 0.001000 -0.015007
v -0.004782 -0.001000 -0.015007
v -0.006782 0.001000 -0.015007
v -0.006782 -0.001000 -0.015007
v -0.006782 0.001000 -0.015007
v -0.006782 -0.001000 -0.015007
v -0.006782 0.001000 0.028711
v -0.006782 -0.001000 0.028711
v -0.006782 0.001000 0.028711
v -0.006782 -0.001000 0.028711
v -0.009000 0.001000 0.028711
v -0.009000 -0.001000 0.028711
v -0.009000 0.001000 0.028711
v -0.009380 0.001000 0.028636
v -0.009000 -0.001000 0.028711
v -0.009380 -0.001000 0.028636
v -0.009714 -0.001000 0.028411
v -0.009714 0.001000 0.028411
v -0.009931 -0.001000 0.028075
v -0.009931 0.001000 0.028075
v -0.010000 -0.001000 0.027711
v -0.010000 0.001000 0.027711
v -0.010000 0.001000 0.027711
v -0.010000 -0.001000 0.027711
v -0.010000 0.001000 -0.026282
v -0.010000 -0.001000 -0.026282
v -0.010000 0.001000 -0.026282
v -0.009850 0.001000 -0.027042
v -0.010000 -0.001000 -0.026282
v -0.009850 -0.001000 -0.027042
v -0.009399 -0.001000 -0.027711
v -0.009399 0.001000 -0.027711
v -0.008727 -0.001000 -0.028146
v -0.008727 0.001000 -0.028146
v -0.008000 -0.001000 -0.028282
v -0.008000 0.001000 -0.028282
v -0.008000 0.001000 -0.028282
v -0.008000 -0.001000 -0.028282
v 0.008000 0.001000 -0.028282
v 0.008000 -0.001000 -0.028282
v 0.008000 0.001000 -0.028282
v 0.008759 0.001000 -0.028133
v 0.008000 -0.001000 -0.028282
v 0.008759 -0.001000 -0.028133
v 0.009428 -0.001000 -0.027682
v 0.009428 0.001000 -0.027682
v 0.009863 -0.001000 -0.027009
v 0.009863 0.001000 -0.027009
v 0.010000 -0.001000 -0.026282
v 0.010000 0.001000 -0.026282
v 0.010000 0.001000 -0.026282
v 0.010000 -0.001000 -0.026282
v 0.010000 0.001000 0.027711
v 0.010000 -0.001000 0.027711
v 0.010000 -0.001000 0.027711
v 0.009368 -0.001000 0.028641
v 0.009000 -0.001000 0.028711
v 0.006782 -0.001000 0.006900
v 0.009929 -0.001000 0.028079
v 0.009707 -0.001000 0.028418
v 0.006782 -0.001000 0.002475
v 0.010000 -0.001000 -0.026282
v 0.006782 -0.001000 -0.024223
v 0.008736 -0.001000 -0.028142
v 0.009414 -0.001000 -0.027697
v 0.009859 -0.001000 -0.027019
v 0.008000 -0.001000 -0.028282
v -0.008000 -0.001000 -0.028282
v 0.000854 -0.001000 -0.024576
v 0.004928 -0.001000 -0.024576
v 0.006635 -0.001000 -0.024576
v 0.006747 -0.001000 -0.024407
v 0.000684 -0.001000 -0.024687
v 0.000500 -0.001000 -0.024723
v 0.006282 -0.001000 -0.024723
v 0.005282 -0.001000 -0.024723
v 0.005098 -0.001000 -0.024687
v -0.000500 -0.001000 -0.024723
v 0.006466 -0.001000 -0.024687
v -0.000684 -0.001000 -0.024687
v -0.000854 -0.001000 -0.024576
v -0.000965 -0.001000 -0.024407
v -0.004928 -0.001000 -0.024576
v -0.004817 -0.001000 -0.024407
v -0.005098 -0.001000 -0.024687
v -0.005282 -0.001000 -0.024723
v -0.006282 -0.001000 -0.024723
v -0.006466 -0.001000 -0.024687
v -0.006635 -0.001000 -0.024576
v -0.006747 -0.001000 -0.024407
v -0.006782 -0.001000 -0.024223
v -0.008736 -0.001000 -0.028142
v -0.006782 -0.001000 -0.018276
v -0.010000 -0.001000 -0.026282
v -0.006782 -0.001000 -0.015007
v -0.010000 -0.001000 0.027711
v -0.009859 -0.001000 -0.027019
v -0.009414 -0.001000 -0.027697
v -0.006782 -0.001000 0.028711
v -0.009000 -0.001000 0.028711
v -0.009368 -0.001000 0.028641
v -0.009707 -0.001000 0.028418
v -0.009929 -0.001000 0.028079
v -0.005282 -0.001000 -0.017776
v -0.006282 -0.001000 -0.017776
v -0.006466 -0.001000 -0.017811
v -0.006635 -0.001000 -0.017922
v -0.006747 -0.001000 -0.018091
v -0.004782 -0.001000 -0.015007
v -0.004782 -0.001000 0.026711
v -0.001000 -0.001000 -0.024223
v -0.005098 -0.001000 -0.017811
v -0.004782 -0.001000 -0.018276
v -0.004817 -0.001000 -0.018091
v -0.004928 -0.001000 -0.017922
v -0.004782 -0.001000 -0.024223
v -0.001000 -0.001000 0.025340
v -0.002782 -0.001000 0.028711
v -0.003518 -0.001000 0.028571
v -0.000965 -0.001000 0.025524
v -0.000854 -0.001000 0.025694
v -0.000684 -0.001000 0.025805
v -0.000500 -0.001000 0.025840
v 0.000500 -0.001000 0.025840
v 0.000684 -0.001000 0.025805
v 0.002782 -0.001000 0.028711
v 0.003518 -0.001000 0.028571
v 0.000965 -0.001000 0.025524
v 0.000854 -0.001000 0.025694
v 0.001000 -0.001000 0.025340
v 0.004782 -0.001000 0.006900
v 0.004782 -0.001000 0.002475
v 0.001000 -0.001000 -0.024223
v 0.004782 -0.001000 0.026711
v 0.004196 -0.001000 0.028125
v 0.004641 -0.001000 0.027447
v 0.004782 -0.001000 -0.024223
v 0.004817 -0.001000 -0.024407
v 0.000965 -0.001000 -0.024407
v 0.004817 -0.001000 0.002659
v 0.004928 -0.001000 0.002829
v 0.005098 -0.001000 0.002940
v 0.005282 -0.001000 0.002975
v 0.006282 -0.001000 0.002975
v 0.006466 -0.001000 0.002940
v 0.006635 -0.001000 0.002829
v 0.006747 -0.001000 0.002659
v -0.004196 -0.001000 0.028125
v -0.004642 -0.001000 0.027447
v 0.006782 -0.001000 0.028711
vn 0.000000 1.000000 0.000000
vn 0.000000 1.000000 0.000000
vn 0.000000 1.000000 0.000000
vn 0.000000 1.000000 0.000000
vn 0.000000 1.000000 0.000000
vn 0.000000 1.000000 0.000000
vn 0.000000 1.000000 0.000000
vn 0.000000 1.000000 0.000000
vn 0.000000 1.000000 0.000000
vn 0.000000 1.000000 0.000000
vn 0.000000 1.000000 0.000000
vn 0.000000 1.000000 0.000000
vn 0.000000 1.000000 0.000000
vn 0.000000 1.000000 0.000000
vn 0.000000 1.000000 0.000000
vn 0.000000 1.000000 0.000000
vn 0.000000 1.000000 0.000000
vn 0.000000 1.000000 0.000000
vn 0.000000 1.000000 0.000000
vn 0.000000 1.000000 0.000000
vn 0.000000 1.000000 0.000000
vn 0.000000 1.000000 0.000000
vn 0.000000 1.000000 0.000000
vn 0.000000 1.000000 0.000000
vn 0.000000 1.000000 0.000000
vn 0.000000 1.000000 0.000000
vn 0.000000 1.000000 0.000000
vn 0.000000 1.000000 0.000000
vn 0.000000 1.000000 0.000000
vn 0.000000 1.000000 0.000000
vn 0.000000 1.000000 0.000000
vn 0.000000 1.000000 0.000000
vn 0.000000 1.000000 0.000000
vn 0.000000 1.000000 0.000000
vn 0.000000 1.000000 0.000000
vn 0.000000 1.000000 0.000000
vn 0.000000 1.000000 0.000000
vn 0.000000 1.000000 0.000000
vn 0.000000 1.000000 0.000000
vn 0.000000 1.000000 0.000000
vn 0.000000 1.000000 0.000000
vn 0.000000 1.000000 0.000000
vn 0.000000 1.000000 0.000000
vn 0.000000 1.000000 0.000000
vn 0.000000 1.000000 0.000000
vn 0.000000 1.000000 0.000000
vn 0.000000 1.000000 0.000000
vn 0.000000 1.000000 0.000000
vn 0.000000 1.000000 0.000000
vn 0.000000 1.000000 0.000000
vn 0.000000 1.000000 0.000000
vn 0.000000 1.000000 0.000000
vn 0.000000 1.000000 0.000000
vn 0.000000 1.000000 0.000000
vn 0.000000 1.000000 0.000000
vn 0.000000 1.000000 0.000000
vn 0.000000 1.000000 0.000000
vn 0.000000 1.000000 0.000000
vn 0.000000 1.000000 0.000000
vn 0.000000 1.000000 0.000000
vn 0.000000 1.000000 0.000000
vn 0.000000 1.000000 0.000000
vn 0.000000 1.000000 0.000000
vn 0.000000 1.000000 0.000000
vn 0.000000 1.000000 0.000000
vn 0.000000 1.000000 0.000000
vn 0.000000 1.000000 0.000000
vn 0.000000 1.000000 0.000000
vn 0.000000 1.000000 0.000000
vn 0.000000 1.000000 0.000000
vn 0.000000 1.000000 0.000000
vn 0.000000 1.000000 0.000000
vn 0.000000 1.000000 0.000000
vn 0.000000 1.000000 0.000000
vn 0.000000 1.000000 0.000000
vn 0.000000 1.000000 0.000000
vn 0.000000 1.000000 0.000000
vn 0.000000 1.000000 0.000000
vn 0.000000 1.000000 0.000000
vn 0.000000 1.000000 0.000000
vn 0.000000 1.000000 0.000000
vn 0.000000 1.000000 0.000000
vn 0.000000 1.000000 0.000000
vn 0.000000 1.000000 0.000000
vn 0.000000 1.000000 0.000000
vn 0.000000 1.000000 0.000000
vn 0.000000 1.000000 0.000000
vn 0.000000 1.000000 0.000000
vn 0.000000 1.000000 0.000000
vn 0.000000 1.000000 0.000000
vn 0.000000 1.000000 0.000000
vn 0.000000 1.000000 0.000000
vn 0.000000 1.000000 0.000000
vn 0.000000 1.000000 0.000000
vn 0.000000 1.000000 0.000000
vn 0.000000 1.000000 0.000000
vn -1.000000 0.000000 0.000000
vn -1.000000 0.000000 0.000000
vn -1.000000 0.000000 0.000000
vn -1.000000 0.000000 0.000000
vn -1.000000 0.000000 0.000000
vn -1.000000 0.000000 0.000000
vn -1.000000 -0.000000 0.000100
vn -1.000000 -0.000000 0.000100
vn -0.925024 -0.000000 0.379910
vn -0.925024 -0.000000 0.379910
vn -0.699718 -0.000000 0.714419
vn -0.699769 -0.000000 0.714369
vn -0.363411 -0.000000 0.931629
vn -0.363411 -0.000000 0.931629
vn -0.000100 -0.000000 1.000000
vn -0.000100 -0.000000 1.000000
vn -0.000100 -0.000000 1.000000
vn -0.363411 -0.000000 0.931629
vn -0.699718 -0.000000 0.714419
vn -0.925024 -0.000000 0.379910
vn -1.000000 -0.000000 0.000100
vn 0.000000 -0.000000 1.000000
vn 0.000000 -0.000000 1.000000
vn 0.000000 -0.000000 1.000000
vn 0.000000 -0.000000 1.000000
vn 0.000000 -0.000000 1.000000
vn 0.000000 -0.000000 1.000000
vn 0.000100 -0.000000 1.000000
vn 0.000100 -0.000000 1.000000
vn 0.379910 -0.000000 0.925024
vn 0.379910 -0.000000 0.925024
vn 0.714320 -0.000000 0.699819
vn 0.714270 -0.000000 0.699870
vn 0.931595 -0.000000 0.363498
vn 0.931595 -0.000000 0.363498
vn 1.000000 -0.000000 0.000100
vn 1.000000 -0.000000 0.000100
vn 1.000000 -0.000000 0.000100
vn 0.931595 -0.000000 0.363498
vn 0.714320 -0.000000 0.699819
vn 0.379910 -0.000000 0.925024
vn 0.000100 -0.000000 1.000000
vn 1.000000 0.000000 0.000000
vn 1.000000 0.000000 0.000000
vn 1.000000 0.000000 0.000000
vn 1.000000 0.000000 0.000000
vn 1.000000 0.000000 0.000000
vn 1.000000 0.000000 0.000000
vn 1.000000 0.000000 -0.000100
vn 1.000000 0.000000 -0.000100
vn 0.925024 0.000000 -0.379910
vn 0.925024 0.000000 -0.379910
vn 0.699617 0.000000 -0.714518
vn 0.699617 0.000000 -0.714518
vn 0.363411 0.000000 -0.931629
vn 0.363411 0.000000 -0.931629
vn 0.000100 0.000000 -1.000000
vn 0.000100 0.000000 -1.000000
vn 0.000100 0.000000 -1.000000
vn 0.363411 0.000000 -0.931629
vn 0.699617 0.000000 -0.714518
vn 0.925024 0.000000 -0.379910
vn 1.000000 0.000000 -0.000100
vn 0.000000 0.000000 -1.000000
vn 0.000000 0.000000 -1.000000
vn 0.000000 0.000000 -1.000000
vn 0.000000 0.000000 -1.000000
vn 0.000000 0.000000 -1.000000
vn 0.000000 0.000000 -1.000000
vn -0.000100 0.000000 -1.000000
vn -0.000100 0.000000 -1.000000
vn -0.379910 0.000000 -0.925024
vn -0.379910 0.000000 -0.925024
vn -0.714320 0.000000 -0.699819
vn -0.714270 0.000000 -0.699870
vn -0.931629 0.000000 -0.363411
vn -0.931595 0.000000 -0.363498
vn -1.000000 0.000000 -0.000100
vn -1.000000 0.000000 -0.000100
vn -1.000000 0.000000 -0.000100
vn -0.931629 0.000000 -0.363411
vn -0.714320 0.000000 -0.699819
vn -0.379910 0.000000 -0.925024
vn -0.000100 0.000000 -1.000000
vn 0.000000 -0.000000 1.000000
vn 0.000000 -0.000000 1.000000
vn 0.000000 -0.000000 1.000000
vn 0.000000 -0.000000 1.000000
vn 0.000000 -0.000000 1.000000
vn 0.000000 -0.000000 1.000000
vn 0.000100 -0.000000 1.000000
vn 0.000100 -0.000000 1.000000
vn 0.379910 -0.000000 0.925024
vn 0.379910 -0.000000 0.925024
vn 0.714567 -0.000000 0.699567
vn 0.714617 -0.000000 0.699516
vn 0.931629 -0.000000 0.363411
vn 0.931595 -0.000000 0.363498
vn 1.000000 -0.000000 0.000100
vn 1.000000 -0.000000 0.000100
vn 1.000000 -0.000000 0.000100
vn 0.931629 -0.000000 0.363411
vn 0.714567 -0.000000 0.699567
vn 0.379910 -0.000000 0.925024
vn 0.000100 -0.000000 1.000000
vn 1.000000 0.000000 0.000000
vn 1.000000 0.000000 0.000000
vn 1.000000 0.000000 0.000000
vn 1.000000 0.000000 0.000000
vn 1.000000 0.000000 0.000000
vn 1.000000 0.000000 0.000000
vn 1.000000 0.000000 -0.000100
vn 1.000000 0.000000 -0.000100
vn 0.925024 0.000000 -0.379910
vn 0.925024 0.000000 -0.379910
vn 0.699718 0.000000 -0.714419
vn 0.699769 0.000000 -0.714369
vn 0.363411 0.000000 -0.931629
vn 0.363411 0.000000 -0.931629
vn 0.000100 0.000000 -1.000000
vn 0.000100 0.000000 -1.000000
vn 0.000100 0.000000 -1.000000
vn 0.363411 0.000000 -0.931629
vn 0.699718 0.000000 -0.714419
vn 0.925024 0.000000 -0.379910
vn 1.000000 0.000000 -0.000100
vn 0.000000 0.000000 -1.000000
vn 0.000000 0.000000 -1.000000
vn 0.000000 0.000000 -1.000000
vn 0.000000 0.000000 -1.000000
vn 0.000000 0.000000 -1.000000
vn 0.000000 0.000000 -1.000000
vn -0.000100 0.000000 -1.000000
vn -0.000100 0.000000 -1.000000
vn -0.379910 0.000000 -0.925024
vn -0.379910 0.000000 -0.925024
vn -0.714419 0.000000 -0.699718
vn -0.714369 0.000000 -0.699769
vn -0.931629 0.000000 -0.363411
vn -0.931629 0.000000 -0.363411
vn -1.000000 0.000000 -0.000100
vn -1.000000 0.000000 -0.000100
vn -1.000000 0.000000 -0.000100
vn -0.931629 0.000000 -0.363411
vn -0.714419 0.000000 -0.699718
vn -0.379910 0.000000 -0.925024
vn -0.000100 0.000000 -1.000000
vn -1.000000 0.000000 0.000000
vn -1.000000 0.000000 0.000000
vn -1.000000 0.000000 0.000000
vn -1.000000 0.000000 0.000000
vn -1.000000 0.000000 0.000000
vn -1.000000 0.000000 0.000000
vn -1.000000 -0.000000 0.000100
vn -1.000000 -0.000000 0.000100
vn -0.925024 -0.000000 0.379910
vn -0.925024 -0.000000 0.379910
vn -0.699718 -0.000000 0.714419
vn -0.699819 -0.000000 0.714320
vn -0.363498 -0.000000 0.931595
vn -0.363498 -0.000000 0.931595
vn -0.000100 -0.000000 1.000000
vn -0.000100 -0.000000 1.000000
vn -0.000100 -0.000000 1.000000
vn -0.363498 -0.000000 0.931595
vn -0.699718 -0.000000 0.714419
vn -0.925024 -0.000000 0.379910
vn -1.000000 -0.000000 0.000100
vn -1.000000 0.000000 0.000000
vn -1.000000 0.000000 0.000000
vn -1.000000 0.000000 0.000000
vn -1.000000 0.000000 0.000000
vn -1.000000 0.000000 0.000000
vn -1.000000 0.000000 0.000000
vn -1.000000 -0.000000 0.000100
vn -1.000000 -0.000000 0.000100
vn -0.925024 -0.000000 0.379910
vn -0.925024 -0.000000 0.379910
vn -0.699718 -0.000000 0.714419
vn -0.699769 -0.000000 0.714369
vn -0.363411 -0.000000 0.931629
vn -0.363411 -0.000000 0.931629
vn -0.000100 -0.000000 1.000000
vn -0.000100 -0.000000 1.000000
vn -0.000100 -0.000000 1.000000
vn -0.363411 -0.000000 0.931629
vn -0.699718 -0.000000 0.714419
vn -0.925024 -0.000000 0.379910
vn -1.000000 -0.000000 0.000100
vn 0.000000 -0.000000 1.000000
vn 0.000000 -0.000000 1.000000
vn 0.000000 -0.000000 1.000000
vn 0.000000 -0.000000 1.000000
vn 0.000000 -0.000000 1.000000
vn 0.000000 -0.000000 1.000000
vn 0.000100 -0.000000 1.000000
vn 0.000100 -0.000000 1.000000
vn 0.379910 -0.000000 0.925024
vn 0.379910 -0.000000 0.925024
vn 0.714419 -0.000000 0.699718
vn 0.714369 -0.000000 0.699769
vn 0.931629 -0.000000 0.363411
vn 0.931629 -0.000000 0.363411
vn 1.000000 -0.000000 0.000100
vn 1.000000 -0.000000 0.000100
vn 1.000000 -0.000000 0.000100
vn 0.931629 -0.000000 0.363411
vn 0.714419 -0.000000 0.699718
vn 0.379910 -0.000000 0.925024
vn 0.000100 -0.000000 1.000000
vn 1.000000 0.000000 0.000000
vn 1.000000 0.000000 0.000000
vn 1.000000 0.000000 0.000000
vn 1.000000 0.000000 0.000000
vn 1.000000 0.000000 0.000000
vn 1.000000 0.000000 0.000000
vn 1.000000 0.000000 -0.000100
vn 1.000000 0.000000 -0.000100
vn 0.925024 0.000000 -0.379910
vn 0.925024 0.000000 -0.379910
vn 0.699718 0.000000 -0.714419
vn 0.699769 0.000000 -0.714369
vn 0.363411 0.000000 -0.931629
vn 0.363411 0.000000 -0.931629
vn 0.000100 0.000000 -1.000000
vn 0.000100 0.000000 -1.000000
vn 0.000100 0.000000 -1.000000
vn 0.363411 0.000000 -0.931629
vn 0.699718 0.000000 -0.714419
vn 0.925024 0.000000 -0.379910
vn 1.000000 0.000000 -0.000100
vn 0.000000 0.000000 -1.000000
vn 0.000000 0.000000 -1.000000
vn 0.000000 0.000000 -1.000000
vn 0.000000 0.000000 -1.000000
vn 0.000000 0.000000 -1.000000
vn 0.000000 0.000000 -1.000000
vn -0.000100 0.000000 -1.000000
vn -0.000100 0.000000 -1.000000
vn -0.379910 0.000000 -0.925024
vn -0.379910 0.000000 -0.925024
vn -0.714419 0.000000 -0.699718
vn -0.714369 0.000000 -0.699769
vn -0.931629 0.000000 -0.363411
vn -0.931629 0.000000 -0.363411
vn -1.000000 0.000000 -0.000100
vn -1.000000 0.000000 -0.000100
vn -1.000000 0.000000 -0.000100
vn -0.931629 0.000000 -0.363411
vn -0.714419 0.000000 -0.699718
vn -0.379910 0.000000 -0.925024
vn -0.000100 0.000000 -1.000000
vn 1.000000 -0.000000 0.000100
vn 0.925024 -0.000000 0.379910
vn 1.000000 -0.000000 0.000100
vn 0.925024 -0.000000 0.379910
vn 0.699617 -0.000000 0.714518
vn 0.699617 -0.000000 0.714518
vn 0.363498 -0.000000 0.931595
vn 0.363498 -0.000000 0.931595
vn 0.000100 0.000100 1.000000
vn 0.000100 -0.000000 1.000000
vn 0.000000 -0.000000 1.000000
vn 0.000000 -0.000000 1.000000
vn 0.000000 -0.000000 1.000000
vn 0.000000 -0.000000 1.000000
vn -1.000000 0.000000 0.000000
vn -1.000000 0.000000 0.000000
vn -1.000000 0.000000 0.000000
vn -1.000000 0.000000 0.000000
vn 0.000000 -0.000000 1.000000
vn 0.000000 -0.000000 1.000000
vn 0.000000 -0.000000 1.000000
vn 0.000000 -0.000000 1.000000
vn 1.000000 0.000000 0.000000
vn 1.000000 0.000000 0.000000
vn 1.000000 0.000000 0.000000
vn 1.000000 0.000000 0.000000
vn 1.000000 -0.000000 0.000100
vn 0.925024 -0.000000 0.379910
vn 1.000000 -0.000000 0.000100
vn 0.925024 -0.000000 0.379910
vn 0.699668 -0.000000 0.714468
vn 0.699668 -0.000000 0.714468
vn 0.363411 -0.000000 0.931629
vn 0.363411 -0.000000 0.931629
vn 0.000100 -0.000000 1.000000
vn 0.000100 -0.000000 1.000000
vn 0.000000 -0.000000 1.000000
vn 0.000000 -0.000000 1.000000
vn 0.000000 -0.000000 1.000000
vn 0.000000 -0.000000 1.000000
vn -0.000100 -0.000000 1.000000
vn -0.379910 -0.000000 0.925024
vn -0.000100 -0.000000 1.000000
vn -0.379910 -0.000000 0.925024
vn -0.714468 -0.000000 0.699668
vn -0.714468 -0.000000 0.699668
vn -0.931629 -0.000000 0.363411
vn -0.931629 -0.000000 0.363411
vn -1.000000 -0.000000 0.000100
vn -1.000000 -0.000000 0.000100
vn -1.000000 0.000000 0.000000
vn -1.000000 0.000000 0.000000
vn -1.000000 0.000000 0.000000
vn -1.000000 0.000000 0.000000
vn 0.000000 -0.000000 1.000000
vn 0.000000 -0.000000 1.000000
vn 0.000000 -0.000000 1.000000
vn 0.000000 -0.000000 1.000000
vn 1.000000 0.000000 0.000000
vn 1.000000 0.000000 0.000000
vn 1.000000 0.000000 0.000000
vn 1.000000 0.000000 0.000000
vn 0.000000 -0.000000 1.000000
vn 0.000000 -0.000000 1.000000
vn 0.000000 -0.000000 1.000000
vn 0.000000 -0.000000 1.000000
vn -0.000100 -0.000000 1.000000
vn -0.379910 -0.000000 0.925024
vn -0.000100 -0.000000 1.000000
vn -0.379910 -0.000000 0.925024
vn -0.714567 -0.000000 0.699567
vn -0.714567 -0.000000 0.699567
vn -0.931595 -0.000000 0.363498
vn -0.931595 -0.000000 0.363498
vn -1.000000 0.000100 0.000100
vn -1.000000 -0.000000 0.000100
vn -1.000000 0.000000 0.000000
vn -1.000000 0.000000 0.000000
vn -1.000000 0.000000 0.000000
vn -1.000000 0.000000 0.000000
vn -1.000000 0.000000 -0.000100
vn -0.925024 0.000000 -0.379910
vn -1.000000 0.000000 -0.000100
vn -0.925024 0.000000 -0.379910
vn -0.699617 0.000000 -0.714518
vn -0.699617 0.000000 -0.714518
vn -0.363411 0.000000 -0.931629
vn -0.363411 0.000000 -0.931629
vn -0.000100 0.000000 -1.000000
vn -0.000100 0.000000 -1.000000
vn 0.000000 0.000000 -1.000000
vn 0.000000 0.000000 -1.000000
vn 0.000000 0.000000 -1.000000
vn 0.000000 0.000000 -1.000000
vn 0.000100 0.000000 -1.000000
vn 0.379910 0.000000 -0.925024
vn 0.000100 0.000000 -1.000000
vn 0.379910 0.000000 -0.925024
vn 0.714518 0.000000 -0.699617
vn 0.714518 0.000000 -0.699617
vn 0.931595 0.000000 -0.363498
vn 0.931595 0.000000 -0.363498
vn 1.000000 0.000000 -0.000100
vn 1.000000 0.000000 -0.000100
vn 1.000000 0.000000 0.000000
vn 1.000000 0.000000 0.000000
vn 1.000000 0.000000 0.000000
vn 1.000000 0.000000 0.000000
vn 0.000000 -1.000000 -0.000000
vn 0.000000 -1.000000 -0.000000
vn 0.000000 -1.000000 -0.000000
vn 0.000000 -1.000000 -0.000000
vn 0.000000 -1.000000 -0.000000
vn 0.000000 -1.000000 -0.000000
vn 0.000000 -1.000000 -0.000000
vn 0.000000 -1.000000 -0.000000
vn 0.000000 -1.000000 -0.000000
vn 0.000000 -1.000000 -0.000000
vn 0.000000 -1.000000 -0.000000
vn 0.000000 -1.000000 -0.000000
vn 0.000000 -1.000000 -0.000000
vn 0.000000 -1.000000 -0.000000
vn 0.000000 -1.000000 -0.000000
vn 0.000000 -1.000000 -0.000000
vn 0.000000 -1.000000 -0.000000
vn 0.000000 -1.000000 -0.000000
vn 0.000000 -1.000000 -0.000000
vn 0.000000 -1.000000 -0.000000
vn 0.000000 -1.000000 -0.000000
vn 0.000000 -1.000000 -0.000000
vn 0.000000 -1.000000 -0.000000
vn 0.000000 -1.000000 -0.000000
vn 0.000000 -1.000000 -0.000000
vn 0.000000 -1.000000 -0.000000
vn 0.000000 -1.000000 -0.000000
vn 0.000000 -1.000000 -0.000000
vn 0.000000 -1.000000 -0.000000
vn 0.000000 -1.000000 -0.000000
vn 0.000000 -1.000000 -0.000000
vn 0.000000 -1.000000 -0.000000
vn 0.000000 -1.000000 -0.000000
vn 0.000000 -1.000000 -0.000000
vn 0.000000 -1.000000 -0.000000
vn 0.000000 -1.000000 -0.000000
vn 0.000000 -1.000000 -0.000000
vn 0.000000 -1.000000 -0.000000
vn 0.000000 -1.000000 -0.000000
vn 0.000000 -1.000000 -0.000000
vn 0.000000 -1.000000 -0.000000
vn 0.000000 -1.000000 -0.000000
vn 0.000000 -1.000000 -0.000000
vn 0.000000 -1.000000 -0.000000
vn 0.000000 -1.000000 -0.000000
vn 0.000000 -1.000000 -0.000000
vn 0.000000 -1.000000 -0.000000
vn 0.000000 -1.000000 -0.000000
vn 0.000000 -1.000000 -0.000000
vn 0.000000 -1.000000 -0.000000
vn 0.000000 -1.000000 -0.000000
vn 0.000000 -1.000000 -0.000000
vn 0.000000 -1.000000 -0.000000
vn 0.000000 -1.000000 -0.000000
vn 0.000000 -1.000000 -0.000000
vn 0.000000 -1.000000 -0.000000
vn 0.000000 -1.000000 -0.000000
vn 0.000000 -1.000000 -0.000000
vn 0.000000 -1.000000 -0.000000
vn 0.000000 -1.000000 -0.000000
vn 0.000000 -1.000000 -0.000000
vn 0.000000 -1.000000 -0.000000
vn 0.000000 -1.000000 -0.000000
vn 0.000000 -1.000000 -0.000000
vn 0.000000 -1.000000 -0.000000
vn 0.000000 -1.000000 -0.000000
vn 0.000000 -1.000000 -0.000000
vn 0.000000 -1.000000 -0.000000
vn 0.000000 -1.000000 -0.000000
vn 0.000000 -1.000000 -0.000000
vn 0.000000 -1.000000 -0.000000
vn 0.000000 -1.000000 -0.000000
vn 0.000000 -1.000000 -0.000000
vn 0.000000 -1.000000 -0.000000
vn 0.000000 -1.000000 -0.000000
vn 0.000000 -1.000000 -0.000000
vn 0.000000 -1.000000 -0.000000
vn 0.000000 -1.000000 -0.000000
vn 0.000000 -1.000000 -0.000000
vn 0.000000 -1.000000 -0.000000
vn 0.000000 -1.000000 -0.000000
vn 0.000000 -1.000000 -0.000000
vn 0.000000 -1.000000 -0.000000
vn 0.000000 -1.000000 -0.000000
vn 0.000000 -1.000000 -0.000000
vn 0.000000 -1.000000 -0.000000
vn 0.000000 -1.000000 -0.000000
vn 0.000000 -1.000000 -0.000000
vn 0.000000 -1.000000 -0.000000
vn 0.000000 -1.000000 -0.000000
vn 0.000000 -1.000000 -0.000000
vn 0.000000 -1.000000 -0.000000
vn 0.000000 -1.000000 -0.000000
vn 0.000000 -1.000000 -0.000000
vn 0.000000 -1.000000 -0.000000
vn 0.000000 -1.000000 -0.000000
f 2//2 6//6 1//1
f 2//2 1//1 3//3
f 3//3 1//1 4//4
f 1//1 7//7 4//4
f 5//5 1//1 6//6
f 8//8 9//9 7//7
f 8//8 7//7 1//1
f 10//10 9//9 8//8
f 11//11 10//10 8//8
f 12//12 11//11 8//8
f 10//10 13//13 9//9
f 24//24 13//13 14//14
f 23//23 13//13 15//15
f 13//13 16//16 15//15
f 19//19 16//16 13//13
f 13//13 17//17 9//9
f 13//13 18//18 17//17
f 13//13 25//25 18//18
f 19//19 13//13 20//20
f 13//13 24//24 20//20
f 13//13 21//21 25//25
f 21//21 13//13 22//22
f 22//22 13//13 23//23
f 24//24 14//14 26//26
f 26//26 14//14 27//27
f 27//27 29//29 28//28
f 14//14 29//29 27//27
f 14//14 31//31 29//29
f 28//28 29//29 30//30
f 14//14 32//32 31//31
f 14//14 33//33 32//32
f 14//14 34//34 33//33
f 34//34 14//14 35//35
f 35//35 14//14 36//36
f 37//37 36//36 14//14
f 40//40 37//37 38//38
f 14//14 38//38 37//37
f 40//40 39//39 37//37
f 39//39 40//40 41//41
f 41//41 40//40 42//42
f 44//44 40//40 38//38
f 43//43 40//40 44//44
f 45//45 41//41 42//42
f 42//42 46//46 45//45
f 47//47 46//46 42//42
f 47//47 42//42 48//48
f 42//42 49//49 48//48
f 51//51 41//41 50//50
f 55//55 50//50 41//41
f 51//51 52//52 41//41
f 41//41 52//52 53//53
f 54//54 41//41 53//53
f 39//39 41//41 54//54
f 56//56 63//63 57//57
f 56//56 57//57 55//55
f 55//55 57//57 59//59
f 58//58 50//50 55//55
f 58//58 55//55 61//61
f 55//55 59//59 60//60
f 60//60 61//61 55//55
f 59//59 57//57 62//62
f 57//57 30//30 62//62
f 30//30 57//57 28//28
f 64//64 66//66 63//63
f 64//64 63//63 65//65
f 63//63 56//56 65//65
f 64//64 67//67 66//66
f 67//67 64//64 68//68
f 69//69 68//68 64//64
f 70//70 69//69 64//64
f 71//71 70//70 72//72
f 72//72 70//70 64//64
f 72//72 73//73 76//76
f 74//74 71//71 72//72
f 72//72 75//75 74//74
f 76//76 75//75 72//72
f 76//76 73//73 80//80
f 76//76 77//77 83//83
f 76//76 83//83 79//79
f 76//76 78//78 77//77
f 78//78 76//76 80//80
f 82//82 80//80 81//81
f 81//81 80//80 73//73
f 79//79 83//83 84//84
f 84//84 85//85 79//79
f 15//15 85//85 84//84
f 15//15 16//16 85//85
f 4//4 90//90 86//86
f 4//4 86//86 78//78
f 78//78 89//89 77//77
f 86//86 87//87 78//78
f 88//88 78//78 87//87
f 78//78 88//88 89//89
f 91//91 90//90 4//4
f 92//92 91//91 4//4
f 4//4 93//93 92//92
f 4//4 7//7 93//93
f 94//94 65//65 56//56
f 95//95 94//94 56//56
f 96//96 3//3 4//4
f 98//98 97//97 99//99
f 98//98 99//99 100//100
f 102//102 98//98 100//100
f 102//102 100//100 101//101
f 104//104 103//103 105//105
f 104//104 105//105 106//106
f 108//108 106//106 105//105
f 108//108 105//105 107//107
f 110//110 108//108 107//107
f 110//110 107//107 109//109
f 110//110 109//109 111//111
f 110//110 111//111 112//112
f 112//112 113//113 114//114
f 112//112 114//114 110//110
f 114//114 115//115 108//108
f 114//114 108//108 110//110
f 115//115 116//116 106//106
f 115//115 106//106 108//108
f 106//106 116//116 117//117
f 106//106 117//117 104//104
f 119//119 118//118 120//120
f 119//119 120//120 121//121
f 123//123 119//119 121//121
f 123//123 121//121 122//122
f 125//125 124//124 126//126
f 125//125 126//126 127//127
f 129//129 127//127 126//126
f 129//129 126//126 128//128
f 131//131 129//129 128//128
f 131//131 128//128 130//130
f 131//131 130//130 132//132
f 131//131 132//132 133//133
f 133//133 134//134 135//135
f 133//133 135//135 131//131
f 135//135 136//136 129//129
f 135//135 129//129 131//131
f 136//136 137//137 127//127
f 136//136 127//127 129//129
f 127//127 137//137 138//138
f 127//127 138//138 125//125
f 140//140 139//139 141//141
f 140//140 141//141 142//142
f 144//144 140//140 142//142
f 144//144 142//142 143//143
f 146//146 145//145 147//147
f 146//146 147//147 148//148
f 150//150 148//148 147//147
f 150//150 147//147 149//149
f 152//152 150//150 149//149
f 152//152 149//149 151//151
f 152//152 151//151 153//153
f 152//152 153//153 154//154
f 154//154 155//155 156//156
f 154//154 156//156 152//152
f 156//156 157//157 150//150
f 156//156 150//150 152//152
f 157//157 158//158 148//148
f 157//157 148//148 150//150
f 148//148 158//158 159//159
f 148//148 159//159 146//146
f 161//161 160//160 162//162
f 161//161 162//162 163//163
f 165//165 161//161 163//163
f 165//165 163//163 164//164
f 167//167 166//166 168//168
f 167//167 168//168 169//169
f 171//171 169//169 168//168
f 171//171 168//168 170//170
f 173//173 171//171 170//170
f 173//173 170//170 172//172
f 173//173 172//172 174//174
f 173//173 174//174 175//175
f 175//175 176//176 177//177
f 175//175 177//177 173//173
f 177//177 178//178 171//171
f 177//177 171//171 173//173
f 178//178 179//179 169//169
f 178//178 169//169 171//171
f 169//169 179//179 180//180
f 169//169 180//180 167//167
f 182//182 181//181 183//183
f 182//182 183//183 184//184
f 186//186 182//182 184//184
f 186//186 184//184 185//185
f 188//188 187//187 189//189
f 188//188 189//189 190//190
f 192//192 190//190 189//189
f 192//192 189//189 191//191
f 194//194 192//192 191//191
f 194//194 191//191 193//193
f 194//194 193//193 195//195
f 194//194 195//195 196//196
f 196//196 197//197 198//198
f 196//196 198//198 194//194
f 198//198 199//199 192//192
f 198//198 192//192 194//194
f 199//199 200//200 190//190
f 199//199 190//190 192//192
f 190//190 200//200 201//201
f 190//190 201//201 188//188
f 203//203 202//202 204//204
f 203//203 204//204 205//205
f 207//207 203//203 205//205
f 207//207 205//205 206//206
f 209//209 208//208 210//210
f 209//209 210//210 211//211
f 213//213 211//211 210//210
f 213//213 210//210 212//212
f 215//215 213//213 212//212
f 215//215 212//212 214//214
f 215//215 214//214 216//216
f 215//215 216//216 217//217
f 217//217 218//218 219//219
f 217//217 219//219 215//215
f 219//219 220//220 213//213
f 219//219 213//213 215//215
f 220//220 221//221 211//211
f 220//220 211//211 213//213
f 211//211 221//221 222//222
f 211//211 222//222 209//209
f 224//224 223//223 225//225
f 224//224 225//225 226//226
f 228//228 224//224 226//226
f 228//228 226//226 227//227
f 230//230 229//229 231//231
f 230//230 231//231 232//232
f 234//234 232//232 231//231
f 234//234 231//231 233//233
f 236//236 234//234 233//233
f 236//236 233//233 235//235
f 236//236 235//235 237//237
f 236//236 237//237 238//238
f 238//238 239//239 240//240
f 238//238 240//240 236//236
f 240//240 241//241 234//234
f 240//240 234//234 236//236
f 241//241 242//242 232//232
f 241//241 232//232 234//234
f 232//232 242//242 243//243
f 232//232 243//243 230//230
f 245//245 244//244 246//246
f 245//245 246//246 247//247
f 249//249 245//245 247//247
f 249//249 247//247 248//248
f 251//251 250//250 252//252
f 251//251 252//252 253//253
f 255//255 253//253 252//252
f 255//255 252//252 254//254
f 257//257 255//255 254//254
f 257//257 254//254 256//256
f 257//257 256//256 258//258
f 257//257 258//258 259//259
f 259//259 260//260 261//261
f 259//259 261//261 257//257
f 261//261 262//262 255//255
f 261//261 255//255 257//257
f 262//262 263//263 253//253
f 262//262 253//253 255//255
f 253//253 263//263 264//264
f 253//253 264//264 251//251
f 266//266 265//265 267//267
f 266//266 267//267 268//268
f 270//270 266//266 268//268
f 270//270 268//268 269//269
f 272//272 271//271 273//273
f 272//272 273//273 274//274
f 276//276 274//274 273//273
f 276//276 273//273 275//275
f 278//278 276//276 275//275
f 278//278 275//275 277//277
f 278//278 277//277 279//279
f 278//278 279//279 280//280
f 280//280 281//281 282//282
f 280//280 282//282 278//278
f 282//282 283//283 276//276
f 282//282 276//276 278//278
f 283//283 284//284 274//274
f 283//283 274//274 276//276
f 274//274 284//284 285//285
f 274//274 285//285 272//272
f 287//287 286//286 288//288
f 287//287 288//288 289//289
f 291//291 287//287 289//289
f 291//291 289//289 290//290
f 293//293 292//292 294//294
f 293//293 294//294 295//295
f 297//297 295//295 294//294
f 297//297 294//294 296//296
f 299//299 297//297 296//296
f 299//299 296//296 298//298
f 299//299 298//298 300//300
f 299//299 300//300 301//301
f 301//301 302//302 303//303
f 301//301 303//303 299//299
f 303//303 304//304 297//297
f 303//303 297//297 299//299
f 304//304 305//305 295//295
f 304//304 295//295 297//297
f 295//295 305//305 306//306
f 295//295 306//306 293//293
f 308//308 307//307 309//309
f 308//308 309//309 310//310
f 312//312 308//308 310//310
f 312//312 310//310 311//311
f 314//314 313//313 315//315
f 314//314 315//315 316//316
f 318//318 316//316 315//315
f 318//318 315//315 317//317
f 320//320 318//318 317//317
f 320//320 317//317 319//319
f 320//320 319//319 321//321
f 320//320 321//321 322//322
f 322//322 323//323 324//324
f 322//322 324//324 320//320
f 324//324 325//325 318//318
f 324//324 318//318 320//320
f 325//325 326//326 316//316
f 325//325 316//316 318//318
f 316//316 326//326 327//327
f 316//316 327//327 314//314
f 329//329 328//328 330//330
f 329//329 330//330 331//331
f 333//333 329//329 331//331
f 333//333 331//331 332//332
f 335//335 334//334 336//336
f 335//335 336//336 337//337
f 339//339 337//337 336//336
f 339//339 336//336 338//338
f 341//341 339//339 338//338
f 341//341 338//338 340//340
f 341//341 340//340 342//342
f 341//341 342//342 343//343
f 343//343 344//344 345//345
f 343//343 345//345 341//341
f 345//345 346//346 339//339
f 345//345 339//339 341//341
f 346//346 347//347 337//337
f 346//346 337//337 339//339
f 337//337 347//347 348//348
f 337//337 348//348 335//335
f 350//350 352//352 351//351
f 350//350 351//351 349//349
f 353//353 352//352 350//350
f 353//353 350//350 354//354
f 355//355 353//353 354//354
f 355//355 354//354 356//356
f 358//358 357//357 355//355
f 358//358 355//355 356//356
f 360//360 359//359 361//361
f 360//360 361//361 362//362
f 364//364 363//363 365//365
f 364//364 365//365 366//366
f 368//368 367//367 369//369
f 368//368 369//369 370//370
f 372//372 371//371 373//373
f 372//372 373//373 374//374
f 376//376 378//378 377//377
f 376//376 377//377 375//375
f 379//379 378//378 376//376
f 379//379 376//376 380//380
f 381//381 379//379 380//380
f 381//381 380//380 382//382
f 384//384 383//383 381//381
f 384//384 381//381 382//382
f 386//386 385//385 387//387
f 386//386 387//387 388//388
f 390//390 392//392 391//391
f 390//390 391//391 389//389
f 393//393 392//392 390//390
f 393//393 390//390 394//394
f 395//395 393//393 394//394
f 395//395 394//394 396//396
f 398//398 397//397 395//395
f 398//398 395//395 396//396
f 400//400 399//399 401//401
f 400//400 401//401 402//402
f 404//404 403//403 405//405
f 404//404 405//405 406//406
f 408//408 407//407 409//409
f 408//408 409//409 410//410
f 412//412 411//411 413//413
f 412//412 413//413 414//414
f 416//416 418//418 417//417
f 416//416 417//417 415//415
f 419//419 418//418 416//416
f 419//419 416//416 420//420
f 421//421 419//419 420//420
f 421//421 420//420 422//422
f 424//424 423//423 421//421
f 424//424 421//421 422//422
f 426//426 425//425 427//427
f 426//426 427//427 428//428
f 430//430 432//432 431//431
f 430//430 431//431 429//429
f 433//433 432//432 430//430
f 433//433 430//430 434//434
f 435//435 433//433 434//434
f 435//435 434//434 436//436
f 438//438 437//437 435//435
f 438//438 435//435 436//436
f 440//440 439//439 441//441
f 440//440 441//441 442//442
f 444//444 446//446 445//445
f 444//444 445//445 443//443
f 447//447 446//446 444//444
f 447//447 444//444 448//448
f 449//449 447//447 448//448
f 449//449 448//448 450//450
f 452//452 451//451 449//449
f 452//452 449//449 450//450
f 454//454 453//453 455//455
f 454//454 455//455 456//456
f 458//458 457//457 462//462
f 458//458 459//459 457//457
f 459//459 460//460 457//457
f 457//457 460//460 463//463
f 461//461 462//462 457//457
f 464//464 457//457 463//463
f 464//464 463//463 465//465
f 466//466 464//464 465//465
f 467//467 464//464 466//466
f 468//468 464//464 467//467
f 466//466 465//465 469//469
f 480//480 470//470 469//469
f 475//475 469//469 471//471
f 469//469 472//472 471//471
f 479//479 472//472 469//469
f 469//469 473//473 481//481
f 469//469 474//474 473//473
f 469//469 465//465 474//474
f 475//475 476//476 469//469
f 469//469 476//476 480//480
f 469//469 481//481 477//477
f 477//477 478//478 469//469
f 478//478 479//479 469//469
f 480//480 482//482 470//470
f 482//482 483//483 470//470
f 483//483 484//484 485//485
f 470//470 483//483 485//485
f 470//470 485//485 487//487
f 484//484 486//486 485//485
f 470//470 487//487 488//488
f 470//470 488//488 489//489
f 470//470 489//489 490//490
f 490//490 491//491 470//470
f 491//491 492//492 470//470
f 493//493 470//470 492//492
f 496//496 494//494 493//493
f 470//470 493//493 494//494
f 496//496 493//493 495//495
f 495//495 497//497 496//496
f 497//497 498//498 496//496
f 500//500 494//494 496//496
f 499//499 500//500 496//496
f 501//501 498//498 497//497
f 498//498 501//501 502//502
f 503//503 498//498 502//502
f 503//503 504//504 498//498
f 498//498 504//504 505//505
f 507//507 506//506 497//497
f 511//511 497//497 506//506
f 507//507 497//497 508//508
f 497//497 509//509 508//508
f 510//510 509//509 497//497
f 495//495 510//510 497//497
f 512//512 511//511 513//513
f 512//512 513//513 519//519
f 511//511 515//515 513//513
f 514//514 511//511 506//506
f 514//514 517//517 511//511
f 511//511 516//516 515//515
f 516//516 511//511 517//517
f 515//515 518//518 513//513
f 513//513 518//518 486//486
f 486//486 484//484 513//513
f 520//520 519//519 522//522
f 520//520 521//521 519//519
f 519//519 521//521 512//512
f 520//520 522//522 523//523
f 523//523 524//524 520//520
f 525//525 520//520 524//524
f 526//526 520//520 525//525
f 527//527 528//528 526//526
f 528//528 520//520 526//526
f 528//528 532//532 529//529
f 532//532 528//528 530//530
f 528//528 531//531 530//530
f 531//531 528//528 527//527
f 532//532 536//536 529//529
f 533//533 536//536 532//532
f 532//532 534//534 533//533
f 532//532 535//535 539//539
f 532//532 539//539 534//534
f 538//538 537//537 536//536
f 537//537 529//529 536//536
f 535//535 540//540 539//539
f 540//540 535//535 541//541
f 472//472 540//540 541//541
f 472//472 541//541 471//471
f 533//533 534//534 542//542
f 533//533 542//542 543//543
f 543//543 544//544 533//533
f 545//545 533//533 544//544
f 460//460 533//533 545//545
f 460//460 545//545 546//546
f 547//547 460//460 546//546
f 548//548 460//460 547//547
f 460//460 548//548 549//549
f 460//460 549//549 463//463
f 550//550 512//512 521//521
f 551//551 512//512 550//550
f 552//552 460//460 459//459
