# deco_08 exported from /models/joints/deco_08.glb
# units: meters
v 0.010239 0.001000 0.026295
v 0.009607 0.001000 0.027225
v 0.009239 0.001000 0.027295
v 0.007021 0.001000 0.005484
v 0.010169 0.001000 0.026663
v 0.009946 0.001000 0.027002
v 0.008304 0.001000 0.001123
v 0.008430 0.001000 0.000387
v 0.010239 0.001000 -0.027699
v 0.009653 0.001000 -0.029113
v 0.010098 0.001000 -0.028435
v 0.008430 0.001000 -0.024366
v 0.008304 0.001000 -0.025102
v 0.007902 0.001000 -0.025780
v 0.008239 0.001000 -0.029699
v 0.008975 0.001000 -0.029558
v -0.007760 0.001000 -0.029699
v 0.004407 0.001000 -0.026366
v 0.007292 0.001000 -0.026226
v 0.006628 0.001000 -0.026366
v -0.003822 0.001000 -0.026366
v -0.006044 0.001000 -0.026366
v -0.006707 0.001000 -0.026226
v -0.007318 0.001000 -0.025780
v -0.007719 0.001000 -0.025102
v -0.007846 0.001000 -0.024366
v -0.009175 0.001000 -0.029113
v -0.008496 0.001000 -0.029558
v -0.009760 0.001000 -0.027699
v -0.009620 0.001000 -0.028435
v -0.009760 0.001000 0.026295
v -0.007719 0.001000 -0.019791
v -0.007846 0.001000 -0.020527
v -0.006543 0.001000 -0.016200
v -0.007318 0.001000 -0.019113
v -0.006707 0.001000 -0.018667
v -0.006044 0.001000 -0.018527
v -0.005624 0.001000 -0.018527
v -0.004543 0.001000 -0.016200
v -0.004961 0.001000 -0.018667
v -0.004350 0.001000 -0.019113
v -0.003949 0.001000 -0.019791
v -0.003372 0.001000 -0.021550
v -0.003822 0.001000 -0.020527
v -0.002220 0.001000 -0.021550
v -0.001769 0.001000 -0.021050
v -0.002054 0.001000 -0.021515
v -0.001901 0.001000 -0.021403
v -0.001801 0.001000 -0.021234
v -0.001769 0.001000 0.022837
v -0.004543 0.001000 0.027295
v -0.001643 0.001000 0.023573
v -0.001241 0.001000 0.024251
v -0.000630 0.001000 0.024697
v 0.000033 0.001000 0.024837
v 0.000445 0.001000 0.024837
v 0.001109 0.001000 0.024697
v 0.005021 0.001000 0.027295
v 0.005021 0.001000 0.005484
v 0.001720 0.001000 0.024251
v 0.002121 0.001000 0.023573
v 0.002248 0.001000 0.022837
v 0.004533 0.001000 0.001123
v 0.004407 0.001000 0.000387
v 0.002248 0.001000 -0.021050
v 0.002279 0.001000 -0.021234
v 0.002380 0.001000 -0.021403
v 0.002532 0.001000 -0.021515
v 0.002698 0.001000 -0.021550
v 0.004407 0.001000 -0.021050
v 0.004122 0.001000 -0.021515
v 0.004275 0.001000 -0.021403
v 0.004375 0.001000 -0.021234
v 0.003956 0.001000 -0.021550
v 0.004935 0.001000 0.001801
v 0.005546 0.001000 0.002247
v 0.006209 0.001000 0.002387
v 0.006628 0.001000 0.002387
v 0.007292 0.001000 0.002247
v 0.007902 0.001000 0.001801
v -0.003822 0.001000 -0.021050
v -0.003690 0.001000 -0.021403
v -0.003538 0.001000 -0.021515
v -0.003791 0.001000 -0.021234
v -0.006543 0.001000 0.027295
v -0.008760 0.001000 0.027295
v -0.009128 0.001000 0.027225
v -0.009467 0.001000 0.027002
v -0.009690 0.001000 0.026663
v 0.007021 0.001000 0.027295
v 0.006628 0.001000 0.002387
v 0.007345 0.001000 0.002222
v 0.006628 -0.001000 0.002387
v 0.007345 -0.001000 0.002222
v 0.007935 -0.001000 0.001764
v 0.007935 0.001000 0.001764
v 0.008312 -0.001000 0.001100
v 0.008312 0.001000 0.001100
v 0.008430 -0.001000 0.000387
v 0.008430 0.001000 0.000387
v 0.008430 0.001000 0.000387
v 0.008430 -0.001000 0.000387
v 0.008430 0.001000 -0.024366
v 0.008430 -0.001000 -0.024366
v 0.008430 0.001000 -0.024366
v 0.008307 0.001000 -0.025094
v 0.008430 -0.001000 -0.024366
v 0.008307 -0.001000 -0.025094
v 0.007935 -0.001000 -0.025743
v 0.007935 0.001000 -0.025743
v 0.007348 -0.001000 -0.026200
v 0.007348 0.001000 -0.026200
v 0.006628 -0.001000 -0.026366
v 0.006628 0.001000 -0.026366
v 0.006628 0.001000 -0.026366
v 0.002404 0.001000 -0.026366
v 0.006628 -0.001000 -0.026366
v 0.002404 -0.001000 -0.026366
v -0.001820 -0.001000 -0.026366
v -0.001820 0.001000 -0.026366
v -0.006044 -0.001000 -0.026366
v -0.006044 0.001000 -0.026366
v -0.006044 0.001000 -0.026366
v -0.006760 0.001000 -0.026201
v -0.006044 -0.001000 -0.026366
v -0.006760 -0.001000 -0.026201
v -0.007351 -0.001000 -0.025743
v -0.007351 0.001000 -0.025743
v -0.007727 -0.001000 -0.025079
v -0.007727 0.001000 -0.025079
v -0.007846 -0.001000 -0.024366
v -0.007846 0.001000 -0.024366
v -0.007846 0.001000 -0.024366
v -0.007846 -0.001000 -0.024366
v -0.007846 0.001000 -0.020527
v -0.007846 -0.001000 -0.020527
v -0.007846 0.001000 -0.020527
v -0.007722 0.001000 -0.019799
v -0.007846 -0.001000 -0.020527
v -0.007722 -0.001000 -0.019799
v -0.007350 -0.001000 -0.019150
v -0.007350 0.001000 -0.019150
v -0.006764 -0.001000 -0.018694
v -0.006764 0.001000 -0.018694
v -0.006044 -0.001000 -0.018527
v -0.006044 0.001000 -0.018527
v -0.006044 0.001000 -0.018527
v -0.006044 -0.001000 -0.018527
v -0.005624 0.001000 -0.018527
v -0.005624 -0.001000 -0.018527
v -0.005624 0.001000 -0.018527
v -0.004908 0.001000 -0.018692
v -0.005624 -0.001000 -0.018527
v -0.004908 -0.001000 -0.018692
v -0.004317 -0.001000 -0.019150
v -0.004317 0.001000 -0.019150
v -0.003941 -0.001000 -0.019814
v -0.003941 0.001000 -0.019814
v -0.003822 -0.001000 -0.020527
v -0.003822 0.001000 -0.020527
v -0.003822 0.001000 -0.020527
v -0.003822 0.000000 -0.021050
v -0.003822 -0.001000 -0.020527
v -0.003822 0.001000 -0.021050
v -0.003822 -0.001000 -0.021050
v -0.003822 0.001000 -0.021050
v -0.003822 0.000000 -0.021050
v -0.003791 0.001000 -0.021232
v -0.003791 0.000000 -0.021232
v -0.003698 0.001000 -0.021394
v -0.003698 0.000000 -0.021394
v -0.003552 0.001000 -0.021508
v -0.003552 0.000000 -0.021508
v -0.003372 0.001000 -0.021550
v -0.003372 0.000000 -0.021550
v -0.003372 -0.001000 -0.021550
v -0.003552 -0.001000 -0.021508
v -0.003698 -0.001000 -0.021394
v -0.003791 -0.001000 -0.021232
v -0.003822 -0.001000 -0.021050
v -0.003372 0.001000 -0.021550
v -0.003372 0.000000 -0.021550
v -0.002220 0.001000 -0.021550
v -0.002220 0.000000 -0.021550
v -0.002220 -0.001000 -0.021550
v -0.003372 -0.001000 -0.021550
v -0.002220 0.001000 -0.021550
v -0.002220 0.000000 -0.021550
v -0.002040 0.001000 -0.021509
v -0.002040 0.000000 -0.021509
v -0.001893 0.001000 -0.021394
v -0.001893 0.000000 -0.021394
v -0.001799 0.001000 -0.021228
v -0.001799 0.000000 -0.021228
v -0.001769 0.001000 -0.021050
v -0.001769 0.000000 -0.021050
v -0.001769 -0.001000 -0.021050
v -0.001799 -0.001000 -0.021228
v -0.001893 -0.001000 -0.021394
v -0.002040 -0.001000 -0.021509
v -0.002220 -0.001000 -0.021550
v -0.001769 0.001000 -0.021050
v -0.001769 0.001000 0.022837
v -0.001769 0.000000 -0.021050
v -0.001769 -0.001000 0.022837
v -0.001769 -0.001000 -0.021050
v -0.001769 0.001000 0.022837
v -0.001645 0.001000 0.023565
v -0.001769 -0.001000 0.022837
v -0.001645 -0.001000 0.023565
v -0.001274 -0.001000 0.024215
v -0.001274 0.001000 0.024215
v -0.000687 -0.001000 0.024671
v -0.000687 0.001000 0.024671
v 0.000033 -0.001000 0.024837
v 0.000033 0.001000 0.024837
v 0.000033 0.001000 0.024837
v 0.000033 -0.001000 0.024837
v 0.000445 0.001000 0.024837
v 0.000445 -0.001000 0.024837
v 0.000445 0.001000 0.024837
v 0.001162 0.001000 0.024672
v 0.000445 -0.001000 0.024837
v 0.001162 -0.001000 0.024672
v 0.001752 -0.001000 0.024214
v 0.001752 0.001000 0.024214
v 0.002129 -0.001000 0.023550
v 0.002129 0.001000 0.023550
v 0.002248 -0.001000 0.022837
v 0.002248 0.001000 0.022837
v 0.002248 0.001000 0.022837
v 0.002248 0.000000 -0.021050
v 0.002248 -0.001000 0.022837
v 0.002248 0.001000 -0.021050
v 0.002248 -0.001000 -0.021050
v 0.002248 0.001000 -0.021050
v 0.002248 0.000000 -0.021050
v 0.002278 0.001000 -0.021232
v 0.002278 0.000000 -0.021232
v 0.002372 0.001000 -0.021394
v 0.002372 0.000000 -0.021394
v 0.002518 0.001000 -0.021508
v 0.002518 0.000000 -0.021508
v 0.002698 0.001000 -0.021550
v 0.002698 0.000000 -0.021550
v 0.002698 -0.001000 -0.021550
v 0.002518 -0.001000 -0.021508
v 0.002372 -0.001000 -0.021394
v 0.002278 -0.001000 -0.021232
v 0.002248 -0.001000 -0.021050
v 0.002698 0.001000 -0.021550
v 0.002698 0.000000 -0.021550
v 0.003956 0.001000 -0.021550
v 0.003956 0.000000 -0.021550
v 0.003956 -0.001000 -0.021550
v 0.002698 -0.001000 -0.021550
v 0.003956 0.001000 -0.021550
v 0.003956 0.000000 -0.021550
v 0.004135 0.001000 -0.021509
v 0.004135 0.000000 -0.021509
v 0.004283 0.001000 -0.021394
v 0.004283 0.000000 -0.021394
v 0.004377 0.001000 -0.021228
v 0.004377 0.000000 -0.021228
v 0.004407 0.001000 -0.021050
v 0.004407 0.000000 -0.021050
v 0.004407 -0.001000 -0.021050
v 0.004377 -0.001000 -0.021228
v 0.004283 -0.001000 -0.021394
v 0.004135 -0.001000 -0.021509
v 0.003956 -0.001000 -0.021550
v 0.004407 0.001000 -0.021050
v 0.004407 0.001000 0.000387
v 0.004407 0.000000 -0.021050
v 0.004407 -0.001000 -0.021050
v 0.004407 -0.001000 0.000387
v 0.004407 0.001000 0.000387
v 0.004530 0.001000 0.001115
v 0.004407 -0.001000 0.000387
v 0.004530 -0.001000 0.001115
v 0.004902 -0.001000 0.001764
v 0.004902 0.001000 0.001764
v 0.005489 -0.001000 0.002220
v 0.005489 0.001000 0.002220
v 0.006209 -0.001000 0.002387
v 0.006209 0.001000 0.002387
v 0.006209 0.001000 0.002387
v 0.006209 -0.001000 0.002387
v 0.006628 0.001000 0.002387
v 0.006628 -0.001000 0.002387
v 0.010239 0.001000 0.026295
v 0.010164 0.001000 0.026675
v 0.010239 -0.001000 0.026295
v 0.010164 -0.001000 0.026675
v 0.009939 -0.001000 0.027009
v 0.009939 0.001000 0.027009
v 0.009602 -0.001000 0.027227
v 0.009602 0.001000 0.027227
v 0.009239 -0.001000 0.027295
v 0.009239 0.001000 0.027295
v 0.009239 0.001000 0.027295
v 0.009239 -0.001000 0.027295
v 0.007021 0.001000 0.027295
v 0.007021 -0.001000 0.027295
v 0.007021 0.001000 0.027295
v 0.007021 -0.001000 0.027295
v 0.007021 0.001000 0.005484
v 0.007021 -0.001000 0.005484
v 0.007021 0.001000 0.005484
v 0.007021 -0.001000 0.005484
v 0.005021 0.001000 0.005484
v 0.005021 -0.001000 0.005484
v 0.005021 0.001000 0.005484
v 0.005021 -0.001000 0.005484
v 0.005021 0.001000 0.027295
v 0.005021 -0.001000 0.027295
v 0.005021 0.001000 0.027295
v 0.005021 -0.001000 0.027295
v -0.004543 0.001000 0.027295
v -0.004543 -0.001000 0.027295
v -0.004543 0.001000 0.027295
v -0.004543 -0.001000 0.027295
v -0.004543 0.001000 -0.016200
v -0.004543 -0.001000 -0.016200
v -0.004543 0.001000 -0.016200
v -0.004543 -0.001000 -0.016200
v -0.006543 0.001000 -0.016200
v -0.006543 -0.001000 -0.016200
v -0.006543 0.001000 -0.016200
v -0.006543 -0.001000 -0.016200
v -0.006543 0.001000 0.027295
v -0.006543 -0.001000 0.027295
v -0.006543 0.001000 0.027295
v -0.006543 -0.001000 0.027295
v -0.008760 0.001000 0.027295
v -0.008760 -0.001000 0.027295
v -0.008760 0.001000 0.027295
v -0.009140 0.001000 0.027220
v -0.008760 -0.001000 0.027295
v -0.009140 -0.001000 0.027220
v -0.009475 -0.001000 0.026995
v -0.009475 0.001000 0.026995
v -0.009692 -0.001000 0.026659
v -0.009692 0.001000 0.026659
v -0.009760 -0.001000 0.026295
v -0.009760 0.001000 0.026295
v -0.009760 0.001000 0.026295
v -0.009760 -0.001000 0.026295
v -0.009760 0.001000 -0.027699
v -0.009760 -0.001000 -0.027699
v -0.009760 0.001000 -0.027699
v -0.009610 0.001000 -0.028458
v -0.009760 -0.001000 -0.027699
v -0.009610 -0.001000 -0.028458
v -0.009160 -0.001000 -0.029127
v -0.009160 0.001000 -0.029127
v -0.008487 -0.001000 -0.029562
v -0.008487 0.001000 -0.029562
v -0.007760 -0.001000 -0.029699
v -0.007760 0.001000 -0.029699
v -0.007760 0.001000 -0.029699
v -0.007760 -0.001000 -0.029699
v 0.008239 0.001000 -0.029699
v 0.008239 -0.001000 -0.029699
v 0.008239 0.001000 -0.029699
v 0.008999 0.001000 -0.029549
v 0.008239 -0.001000 -0.029699
v 0.008999 -0.001000 -0.029549
v 0.009668 -0.001000 -0.029098
v 0.009668 0.001000 -0.029098
v 0.010102 -0.001000 -0.028425
v 0.010102 0.001000 -0.028425
v 0.010239 -0.001000 -0.027699
v 0.010239 0.001000 -0.027699
v 0.010239 0.001000 -0.027699
v 0.010239 -0.001000 -0.027699
v 0.010239 0.001000 0.026295
v 0.010239 -0.001000 0.026295
v 0.010239 -0.001000 0.026295
v 0.009607 -0.001000 0.027225
v 0.009239 -0.001000 0.027295
v 0.007021 -0.001000 0.005484
v 0.010169 -0.001000 0.026663
v 0.009946 -0.001000 0.027002
v 0.008430 -0.001000 0.000387
v 0.008304 -0.001000 0.001123
v 0.010239 -0.001000 -0.027699
v 0.008430 -0.001000 -0.024366
v 0.008304 -0.001000 -0.025102
v 0.009653 -0.001000 -0.029113
v 0.010098 -0.001000 -0.028435
v 0.008975 -0.001000 -0.029558
v 0.008239 -0.001000 -0.029699
v -0.007760 -0.001000 -0.029699
v 0.004407 -0.001000 -0.026366
v 0.007292 -0.001000 -0.026226
v 0.007902 -0.001000 -0.025780
v 0.006628 -0.001000 -0.026366
v -0.003822 -0.001000 -0.026366
v -0.006044 -0.001000 -0.026366
v -0.006707 -0.001000 -0.026226
v -0.007318 -0.001000 -0.025780
v -0.007719 -0.001000 -0.025102
v -0.007846 -0.001000 -0.024366
v -0.009175 -0.001000 -0.029113
v -0.008496 -0.001000 -0.029558
v -0.009620 -0.001000 -0.028435
v -0.009760 -0.001000 -0.027699
v -0.009760 -0.001000 0.026295
v -0.007719 -0.001000 -0.019791
v -0.007846 -0.001000 -0.020527
v -0.006543 -0.001000 -0.016200
v -0.007318 -0.001000 -0.019113
v -0.006707 -0.001000 -0.018667
v -0.006044 -0.001000 -0.018527
v -0.005624 -0.001000 -0.018527
v -0.004543 -0.001000 -0.016200
v -0.004961 -0.001000 -0.018667
v -0.004350 -0.001000 -0.019113
v -0.003949 -0.001000 -0.019791
v -0.003372 -0.001000 -0.021550
v -0.003822 -0.001000 -0.020527
v -0.002220 -0.001000 -0.021550
v -0.001769 -0.001000 -0.021050
v -0.002054 -0.001000 -0.021515
v -0.001901 -0.001000 -0.021403
v -0.001801 -0.001000 -0.021234
v -0.001769 -0.001000 0.022837
v -0.004543 -0.001000 0.027295
v -0.001643 -0.001000 0.023573
v -0.001241 -0.001000 0.024251
v -0.000630 -0.001000 0.024697
v 0.000033 -0.001000 0.024837
v 0.000445 -0.001000 0.024837
v 0.001109 -0.001000 0.024697
v 0.005021 -0.001000 0.027295
v 0.005021 -0.001000 0.005484
v 0.001720 -0.001000 0.024251
v 0.002248 -0.001000 0.022837
v 0.002121 -0.001000 0.023573
v 0.004533 -0.001000 0.001123
v 0.004407 -0.001000 0.000387
v 0.002248 -0.001000 -0.021050
v 0.002380 -0.001000 -0.021403
v 0.002279 -0.001000 -0.021234
v 0.002532 -0.001000 -0.021515
v 0.002698 -0.001000 -0.021550
v 0.004407 -0.001000 -0.021050
v 0.004375 -0.001000 -0.021234
v 0.003956 -0.001000 -0.021550
v 0.004122 -0.001000 -0.021515
v 0.004275 -0.001000 -0.021403
v 0.004935 -0.001000 0.001801
v 0.005546 -0.001000 0.002247
v 0.006209 -0.001000 0.002387
v 0.006628 -0.001000 0.002387
v 0.007292 -0.001000 0.002247
v 0.007902 -0.001000 0.001801
v -0.003822 -0.001000 -0.021050
v -0.003690 -0.001000 -0.021403
v -0.003538 -0.001000 -0.021515
v -0.003791 -0.001000 -0.021234
v -0.006543 -0.001000 0.027295
v -0.008760 -0.001000 0.027295
v -0.009128 -0.001000 0.027225
v -0.009467 -0.001000 0.027002
v -0.009690 -0.001000 0.026663
v 0.007021 -0.001000 0.027295
vn 0.000000 1.000000 0.000000
vn 0.000000 1.000000 0.000000
vn 0.000000 1.000000 0.000000
vn 0.000000 1.000000 0.000000
vn 0.000000 1.000000 0.000000
vn 0.000000 1.000000 0.000000
vn 0.000000 1.000000 0.000000
vn 0.000000 1.000000 0.000000
vn 0.000000 1.000000 0.000000
vn 0.000000 1.000000 0.000000
vn 0.000000 1.000000 0.000000
vn 0.000000 1.000000 0.000000
vn 0.000000 1.000000 0.000000
vn 0.000000 1.000000 0.000000
vn 0.000000 1.000000 0.000000
vn 0.000000 1.000000 0.000000
vn 0.000000 1.000000 0.000000
vn 0.000000 1.000000 0.000000
vn 0.000000 1.000000 0.000000
vn 0.000000 1.000000 0.000000
vn 0.000000 1.000000 0.000000
vn 0.000000 1.000000 0.000000
vn 0.000000 1.000000 0.000000
vn 0.000000 1.000000 0.000000
vn 0.000000 1.000000 0.000000
vn 0.000000 1.000000 0.000000
vn 0.000000 1.000000 0.000000
vn 0.000000 1.000000 0.000000
vn 0.000000 1.000000 0.000000
vn 0.000000 1.000000 0.000000
vn 0.000000 1.000000 0.000000
vn 0.000000 1.000000 0.000000
vn 0.000000 1.000000 0.000000
vn 0.000000 1.000000 0.000000
vn 0.000000 1.000000 0.000000
vn 0.000000 1.000000 0.000000
vn 0.000000 1.000000 0.000000
vn 0.000000 1.000000 0.000000
vn 0.000000 1.000000 0.000000
vn 0.000000 1.000000 0.000000
vn 0.000000 1.000000 0.000000
vn 0.000000 1.000000 0.000000
vn 0.000000 1.000000 0.000000
vn 0.000000 1.000000 0.000000
vn 0.000000 1.000000 0.000000
vn 0.000000 1.000000 0.000000
vn 0.000000 1.000000 0.000000
vn 0.000000 1.000000 0.000000
vn 0.000000 1.000000 0.000000
vn 0.000000 1.000000 0.000000
vn 0.000000 1.000000 0.000000
vn 0.000000 1.000000 0.000000
vn 0.000000 1.000000 0.000000
vn 0.000000 1.000000 0.000000
vn 0.000000 1.000000 0.000000
vn 0.000000 1.000000 0.000000
vn 0.000000 1.000000 0.000000
vn 0.000000 1.000000 0.000000
vn 0.000000 1.000000 0.000000
vn 0.000000 1.000000 0.000000
vn 0.000000 1.000000 0.000000
vn 0.000000 1.000000 0.000000
vn 0.000000 1.000000 0.000000
vn 0.000000 1.000000 0.000000
vn 0.000000 1.000000 0.000000
vn 0.000000 1.000000 0.000000
vn 0.000000 1.000000 0.000000
vn 0.000000 1.000000 0.000000
vn 0.000000 1.000000 0.000000
vn 0.000000 1.000000 0.000000
vn 0.000000 1.000000 0.000000
vn 0.000000 1.000000 0.000000
vn 0.000000 1.000000 0.000000
vn 0.000000 1.000000 0.000000
vn 0.000000 1.000000 0.000000
vn 0.000000 1.000000 0.000000
vn 0.000000 1.000000 0.000000
vn 0.000000 1.000000 0.000000
vn 0.000000 1.000000 0.000000
vn 0.000000 1.000000 0.000000
vn 0.000000 1.000000 0.000000
vn 0.000000 1.000000 0.000000
vn 0.000000 1.000000 0.000000
vn 0.000000 1.000000 0.000000
vn 0.000000 1.000000 0.000000
vn 0.000000 1.000000 0.000000
vn 0.000000 1.000000 0.000000
vn 0.000000 1.000000 0.000000
vn 0.000000 1.000000 0.000000
vn 0.000000 1.000000 0.000000
vn -0.000100 0.000000 -1.000000
vn -0.433319 0.000000 -0.901240
vn -0.000100 0.000000 -1.000000
vn -0.433319 0.000000 -0.901240
vn -0.759870 0.000000 -0.650075
vn -0.759870 0.000000 -0.650075
vn -0.945651 0.000000 -0.325183
vn -0.945651 0.000000 -0.325183
vn -1.000000 0.000000 -0.000100
vn -1.000000 0.000000 -0.000100
vn -1.000000 0.000000 0.000000
vn -1.000000 0.000000 0.000000
vn -1.000000 0.000000 0.000000
vn -1.000000 0.000000 0.000000
vn -1.000000 -0.000000 0.000100
vn -0.943239 -0.000000 0.332114
vn -1.000000 -0.000000 0.000100
vn -0.943239 -0.000000 0.332114
vn -0.759736 -0.000000 0.650231
vn -0.759736 -0.000000 0.650231
vn -0.435415 -0.000000 0.900230
vn -0.435415 -0.000000 0.900230
vn -0.000100 -0.000000 1.000000
vn -0.000100 -0.000000 1.000000
vn 0.000000 -0.000000 1.000000
vn 0.000000 -0.000000 1.000000
vn 0.000000 -0.000000 1.000000
vn 0.000000 -0.000000 1.000000
vn 0.000000 -0.000000 1.000000
vn 0.000000 -0.000000 1.000000
vn 0.000000 -0.000000 1.000000
vn 0.000000 -0.000000 1.000000
vn 0.000100 -0.000000 1.000000
vn 0.433319 -0.000000 0.901240
vn 0.000100 -0.000000 1.000000
vn 0.433319 -0.000000 0.901240
vn 0.759870 -0.000000 0.650075
vn 0.759870 -0.000000 0.650075
vn 0.945651 -0.000000 0.325183
vn 0.945651 -0.000000 0.325183
vn 1.000000 -0.000000 0.000100
vn 1.000000 -0.000000 0.000100
vn 1.000000 0.000000 0.000000
vn 1.000000 0.000000 0.000000
vn 1.000000 0.000000 0.000000
vn 1.000000 0.000000 0.000000
vn 1.000000 0.000000 -0.000100
vn 0.943239 0.000000 -0.332114
vn 1.000000 0.000000 -0.000100
vn 0.943239 0.000000 -0.332114
vn 0.759736 0.000000 -0.650231
vn 0.759736 0.000000 -0.650231
vn 0.435415 0.000000 -0.900230
vn 0.435415 0.000000 -0.900230
vn 0.000100 0.000000 -1.000000
vn 0.000100 0.000000 -1.000000
vn 0.000000 0.000000 -1.000000
vn 0.000000 0.000000 -1.000000
vn 0.000000 0.000000 -1.000000
vn 0.000000 0.000000 -1.000000
vn -0.000100 0.000000 -1.000000
vn -0.433280 0.000000 -0.901259
vn -0.000100 0.000000 -1.000000
vn -0.433280 0.000000 -0.901259
vn -0.759870 0.000000 -0.650075
vn -0.759870 0.000000 -0.650075
vn -0.945640 0.000000 -0.325214
vn -0.945640 0.000000 -0.325214
vn -1.000000 0.000000 -0.000100
vn -1.000000 0.000000 -0.000100
vn -1.000000 0.000000 0.000000
vn -1.000000 0.000000 0.000000
vn -1.000000 0.000000 0.000000
vn -1.000000 0.000000 0.000000
vn -1.000000 0.000000 0.000000
vn -1.000000 0.000000 -0.000100
vn -1.000000 0.000000 -0.000100
vn -0.943239 0.000000 -0.332114
vn -0.943239 0.000000 -0.332114
vn -0.759736 0.000000 -0.650231
vn -0.759736 0.000000 -0.650231
vn -0.435415 0.000000 -0.900230
vn -0.435415 0.000000 -0.900230
vn -0.000100 0.000000 -1.000000
vn -0.000100 0.000000 -1.000000
vn -0.000100 0.000000 -1.000000
vn -0.435415 0.000000 -0.900230
vn -0.759736 0.000000 -0.650231
vn -0.943239 0.000000 -0.332114
vn -1.000000 0.000000 -0.000100
vn 0.000000 0.000000 -1.000000
vn 0.000000 0.000000 -1.000000
vn 0.000000 0.000000 -1.000000
vn 0.000000 0.000000 -1.000000
vn 0.000000 0.000000 -1.000000
vn 0.000000 0.000000 -1.000000
vn 0.000100 0.000000 -1.000000
vn 0.000100 0.000000 -1.000000
vn 0.433280 0.000000 -0.901259
vn 0.433280 0.000000 -0.901259
vn 0.759870 0.000000 -0.650075
vn 0.759870 0.000000 -0.650075
vn 0.945651 0.000000 -0.325183
vn 0.945640 0.000000 -0.325214
vn 1.000000 0.000000 -0.000100
vn 1.000000 0.000000 -0.000100
vn 1.000000 0.000000 -0.000100
vn 0.945651 0.000000 -0.325183
vn 0.759870 0.000000 -0.650075
vn 0.433280 0.000000 -0.901259
vn 0.000100 0.000000 -1.000000
vn 1.000000 0.000000 0.000000
vn 1.000000 0.000000 0.000000
vn 1.000000 0.000000 0.000000
vn 1.000000 0.000000 0.000000
vn 1.000000 0.000000 0.000000
vn 1.000000 0.000000 -0.000100
vn 0.943239 0.000000 -0.332114
vn 1.000000 0.000000 -0.000100
vn 0.943239 0.000000 -0.332114
vn 0.759736 0.000000 -0.650231
vn 0.759736 0.000000 -0.650231
vn 0.435415 0.000000 -0.900230
vn 0.435415 0.000000 -0.900230
vn 0.000100 0.000000 -1.000000
vn 0.000100 0.000000 -1.000000
vn 0.000000 0.000000 -1.000000
vn 0.000000 0.000000 -1.000000
vn 0.000000 0.000000 -1.000000
vn 0.000000 0.000000 -1.000000
vn -0.000100 0.000000 -1.000000
vn -0.433319 0.000000 -0.901240
vn -0.000100 0.000000 -1.000000
vn -0.433319 0.000000 -0.901240
vn -0.759870 0.000000 -0.650075
vn -0.759870 0.000000 -0.650075
vn -0.945651 0.000000 -0.325183
vn -0.945651 0.000000 -0.325183
vn -1.000000 0.000000 -0.000100
vn -1.000000 0.000000 -0.000100
vn -1.000000 0.000000 0.000000
vn -1.000000 0.000000 0.000000
vn -1.000000 0.000000 0.000000
vn -1.000000 0.000000 0.000000
vn -1.000000 0.000000 0.000000
vn -1.000000 0.000000 -0.000100
vn -1.000000 0.000000 -0.000100
vn -0.943239 0.000000 -0.332114
vn -0.943239 0.000000 -0.332114
vn -0.759736 0.000000 -0.650231
vn -0.759779 0.000000 -0.650182
vn -0.435415 0.000000 -0.900230
vn -0.435415 0.000000 -0.900230
vn -0.000100 0.000000 -1.000000
vn -0.000100 0.000000 -1.000000
vn -0.000100 0.000000 -1.000000
vn -0.435415 0.000000 -0.900230
vn -0.759736 0.000000 -0.650231
vn -0.943239 0.000000 -0.332114
vn -1.000000 0.000000 -0.000100
vn 0.000000 0.000000 -1.000000
vn 0.000000 0.000000 -1.000000
vn 0.000000 0.000000 -1.000000
vn 0.000000 0.000000 -1.000000
vn 0.000000 0.000000 -1.000000
vn 0.000000 0.000000 -1.000000
vn 0.000100 0.000000 -1.000000
vn 0.000100 0.000000 -1.000000
vn 0.433280 0.000000 -0.901259
vn 0.433280 0.000000 -0.901259
vn 0.759870 0.000000 -0.650075
vn 0.759870 0.000000 -0.650075
vn 0.945651 0.000000 -0.325183
vn 0.945640 0.000000 -0.325214
vn 1.000000 0.000000 -0.000100
vn 1.000000 0.000000 -0.000100
vn 1.000000 0.000000 -0.000100
vn 0.945651 0.000000 -0.325183
vn 0.759870 0.000000 -0.650075
vn 0.433280 0.000000 -0.901259
vn 0.000100 0.000000 -1.000000
vn 1.000000 0.000000 0.000000
vn 1.000000 0.000000 0.000000
vn 1.000000 0.000000 0.000000
vn 1.000000 0.000000 0.000000
vn 1.000000 0.000000 0.000000
vn 1.000000 0.000000 -0.000100
vn 0.943239 0.000000 -0.332114
vn 1.000000 0.000000 -0.000100
vn 0.943239 0.000000 -0.332114
vn 0.759736 0.000000 -0.650231
vn 0.759736 0.000000 -0.650231
vn 0.435415 0.000000 -0.900230
vn 0.435415 0.000000 -0.900230
vn 0.000100 0.000000 -1.000000
vn 0.000100 0.000000 -1.000000
vn 0.000000 0.000000 -1.000000
vn 0.000000 0.000000 -1.000000
vn 0.000000 0.000000 -1.000000
vn 0.000000 0.000000 -1.000000
vn 1.000000 -0.000000 0.000100
vn 0.925024 -0.000000 0.379910
vn 1.000000 -0.000000 0.000100
vn 0.925024 -0.000000 0.379910
vn 0.699920 -0.000000 0.714221
vn 0.699920 -0.000000 0.714221
vn 0.363498 -0.000000 0.931595
vn 0.363498 -0.000000 0.931595
vn 0.000100 0.000100 1.000000
vn 0.000100 -0.000000 1.000000
vn 0.000000 -0.000000 1.000000
vn 0.000000 -0.000000 1.000000
vn 0.000000 -0.000000 1.000000
vn 0.000000 -0.000000 1.000000
vn -1.000000 0.000000 0.000000
vn -1.000000 0.000000 0.000000
vn -1.000000 0.000000 0.000000
vn -1.000000 0.000000 0.000000
vn 0.000000 -0.000000 1.000000
vn 0.000000 -0.000000 1.000000
vn 0.000000 -0.000000 1.000000
vn 0.000000 -0.000000 1.000000
vn 1.000000 0.000000 0.000000
vn 1.000000 0.000000 0.000000
vn 1.000000 0.000000 0.000000
vn 1.000000 0.000000 0.000000
vn 0.000000 -0.000000 1.000000
vn 0.000000 -0.000000 1.000000
vn 0.000000 -0.000000 1.000000
vn 0.000000 -0.000000 1.000000
vn -1.000000 0.000000 0.000000
vn -1.000000 0.000000 0.000000
vn -1.000000 0.000000 0.000000
vn -1.000000 0.000000 0.000000
vn 0.000000 -0.000000 1.000000
vn 0.000000 -0.000000 1.000000
vn 0.000000 -0.000000 1.000000
vn 0.000000 -0.000000 1.000000
vn 1.000000 0.000000 0.000000
vn 1.000000 0.000000 0.000000
vn 1.000000 0.000000 0.000000
vn 1.000000 0.000000 0.000000
vn 0.000000 -0.000000 1.000000
vn 0.000000 -0.000000 1.000000
vn 0.000000 -0.000000 1.000000
vn 0.000000 -0.000000 1.000000
vn -0.000100 -0.000000 1.000000
vn -0.379910 -0.000000 0.925024
vn -0.000100 -0.000000 1.000000
vn -0.379910 -0.000000 0.925024
vn -0.714518 -0.000000 0.699617
vn -0.714518 -0.000000 0.699617
vn -0.931629 -0.000000 0.363411
vn -0.931629 -0.000000 0.363411
vn -1.000000 0.000100 0.000100
vn -1.000000 -0.000000 0.000100
vn -1.000000 0.000000 0.000000
vn -1.000000 0.000000 0.000000
vn -1.000000 0.000000 0.000000
vn -1.000000 0.000000 0.000000
vn -1.000000 0.000000 -0.000100
vn -0.925024 0.000000 -0.379910
vn -1.000000 0.000000 -0.000100
vn -0.925024 0.000000 -0.379910
vn -0.699718 0.000000 -0.714419
vn -0.699718 0.000000 -0.714419
vn -0.363411 0.000000 -0.931629
vn -0.363411 0.000000 -0.931629
vn -0.000100 0.000000 -1.000000
vn -0.000100 0.000000 -1.000000
vn 0.000000 0.000000 -1.000000
vn 0.000000 0.000000 -1.000000
vn 0.000000 0.000000 -1.000000
vn 0.000000 0.000000 -1.000000
vn 0.000100 0.000000 -1.000000
vn 0.379910 0.000000 -0.925024
vn 0.000100 0.000000 -1.000000
vn 0.379910 0.000000 -0.925024
vn 0.714518 0.000000 -0.699617
vn 0.714518 0.000000 -0.699617
vn 0.931595 0.000000 -0.363498
vn 0.931595 0.000000 -0.363498
vn 1.000000 0.000000 -0.000100
vn 1.000000 0.000000 -0.000100
vn 1.000000 0.000000 0.000000
vn 1.000000 0.000000 0.000000
vn 1.000000 0.000000 0.000000
vn 1.000000 0.000000 0.000000
vn 0.000000 -1.000000 -0.000000
vn 0.000000 -1.000000 -0.000000
vn 0.000000 -1.000000 -0.000000
vn 0.000000 -1.000000 -0.000000
vn 0.000000 -1.000000 -0.000000
vn 0.000000 -1.000000 -0.000000
vn 0.000000 -1.000000 -0.000000
vn 0.000000 -1.000000 -0.000000
vn 0.000000 -1.000000 -0.000000
vn 0.000000 -1.000000 -0.000000
vn 0.000000 -1.000000 -0.000000
vn 0.000000 -1.000000 -0.000000
vn 0.000000 -1.000000 -0.000000
vn 0.000000 -1.000000 -0.000000
vn 0.000000 -1.000000 -0.000000
vn 0.000000 -1.000000 -0.000000
vn 0.000000 -1.000000 -0.000000
vn 0.000000 -1.000000 -0.000000
vn 0.000000 -1.000000 -0.000000
vn 0.000000 -1.000000 -0.000000
vn 0.000000 -1.000000 -0.000000
vn 0.000000 -1.000000 -0.000000
vn 0.000000 -1.000000 -0.000000
vn 0.000000 -1.000000 -0.000000
vn 0.000000 -1.000000 -0.000000
vn 0.000000 -1.000000 -0.000000
vn 0.000000 -1.000000 -0.000000
vn 0.000000 -1.000000 -0.000000
vn 0.000000 -1.000000 -0.000000
vn 0.000000 -1.000000 -0.000000
vn 0.000000 -1.000000 -0.000000
vn 0.000000 -1.000000 -0.000000
vn 0.000000 -1.000000 -0.000000
vn 0.000000 -1.000000 -0.000000
vn 0.000000 -1.000000 -0.000000
vn 0.000000 -1.000000 -0.000000
vn 0.000000 -1.000000 -0.000000
vn 0.000000 -1.000000 -0.000000
vn 0.000000 -1.000000 -0.000000
vn 0.000000 -1.000000 -0.000000
vn 0.000000 -1.000000 -0.000000
vn 0.000000 -1.000000 -0.000000
vn 0.000000 -1.000000 -0.000000
vn 0.000000 -1.000000 -0.000000
vn 0.000000 -1.000000 -0.000000
vn 0.000000 -1.000000 -0.000000
vn 0.000000 -1.000000 -0.000000
vn 0.000000 -1.000000 -0.000000
vn 0.000000 -1.000000 -0.000000
vn 0.000000 -1.000000 -0.000000
vn 0.000000 -1.000000 -0.000000
vn 0.000000 -1.000000 -0.000000
vn 0.000000 -1.000000 -0.000000
vn 0.000000 -1.000000 -0.000000
vn 0.000000 -1.000000 -0.000000
vn 0.000000 -1.000000 -0.000000
vn 0.000000 -1.000000 -0.000000
vn 0.000000 -1.000000 -0.000000
vn 0.000000 -1.000000 -0.000000
vn 0.000000 -1.000000 -0.000000
vn 0.000000 -1.000000 -0.000000
vn 0.000000 -1.000000 -0.000000
vn 0.000000 -1.000000 -0.000000
vn 0.000000 -1.000000 -0.000000
vn 0.000000 -1.000000 -0.000000
vn 0.000000 -1.000000 -0.000000
vn 0.000000 -1.000000 -0.000000
vn 0.000000 -1.000000 -0.000000
vn 0.000000 -1.000000 -0.000000
vn 0.000000 -1.000000 -0.000000
vn 0.000000 -1.000000 -0.000000
vn 0.000000 -1.000000 -0.000000
vn 0.000000 -1.000000 -0.000000
vn 0.000000 -1.000000 -0.000000
vn 0.000000 -1.000000 -0.000000
vn 0.000000 -1.000000 -0.000000
vn 0.000000 -1.000000 -0.000000
vn 0.000000 -1.000000 -0.000000
vn 0.000000 -1.000000 -0.000000
vn 0.000000 -1.000000 -0.000000
vn 0.000000 -1.000000 -0.000000
vn 0.000000 -1.000000 -0.000000
vn 0.000000 -1.000000 -0.000000
vn 0.000000 -1.000000 -0.000000
vn 0.000000 -1.000000 -0.000000
vn 0.000000 -1.000000 -0.000000
vn 0.000000 -1.000000 -0.000000
vn 0.000000 -1.000000 -0.000000
vn 0.000000 -1.000000 -0.000000
vn 0.000000 -1.000000 -0.000000
f 2//2 6//6 1//1
f 2//2 1//1 3//3
f 3//3 1//1 4//4
f 1//1 7//7 4//4
f 5//5 1//1 6//6
f 1//1 8//8 7//7
f 9//9 12//12 8//8
f 9//9 8//8 1//1
f 11//11 10//10 9//9
f 10//10 13//13 9//9
f 9//9 13//13 12//12
f 16//16 13//13 10//10
f 13//13 15//15 14//14
f 16//16 15//15 13//13
f 17//17 21//21 18//18
f 17//17 18//18 15//15
f 20//20 15//15 18//18
f 15//15 19//19 14//14
f 19//19 15//15 20//20
f 21//21 17//17 22//22
f 23//23 22//22 17//17
f 17//17 24//24 23//23
f 17//17 25//25 24//24
f 25//25 27//27 26//26
f 28//28 27//27 25//25
f 17//17 28//28 25//25
f 30//30 29//29 27//27
f 27//27 29//29 26//26
f 32//32 29//29 31//31
f 29//29 32//32 33//33
f 33//33 26//26 29//29
f 32//32 31//31 34//34
f 34//34 35//35 32//32
f 34//34 36//36 35//35
f 36//36 34//34 37//37
f 38//38 37//37 34//34
f 39//39 38//38 34//34
f 39//39 40//40 38//38
f 39//39 41//41 40//40
f 41//41 39//39 42//42
f 46//46 42//42 39//39
f 45//45 43//43 42//42
f 43//43 44//44 42//42
f 46//46 45//45 42//42
f 39//39 50//50 46//46
f 46//46 47//47 45//45
f 47//47 46//46 48//48
f 49//49 48//48 46//46
f 50//50 39//39 51//51
f 51//51 52//52 50//50
f 51//51 53//53 52//52
f 51//51 54//54 53//53
f 55//55 54//54 51//51
f 58//58 56//56 55//55
f 58//58 55//55 51//51
f 56//56 58//58 57//57
f 62//62 58//58 59//59
f 58//58 61//61 60//60
f 60//60 57//57 58//58
f 58//58 62//62 61//61
f 64//64 62//62 63//63
f 63//63 62//62 59//59
f 65//65 62//62 64//64
f 65//65 64//64 70//70
f 65//65 67//67 66//66
f 68//68 67//67 65//65
f 69//69 68//68 65//65
f 69//69 65//65 70//70
f 69//69 70//70 74//74
f 71//71 74//74 70//70
f 71//71 70//70 72//72
f 73//73 72//72 70//70
f 59//59 75//75 63//63
f 75//75 59//59 76//76
f 77//77 76//76 59//59
f 77//77 4//4 78//78
f 4//4 77//77 59//59
f 79//79 78//78 4//4
f 80//80 79//79 4//4
f 4//4 7//7 80//80
f 81//81 44//44 82//82
f 83//83 82//82 44//44
f 43//43 83//83 44//44
f 84//84 81//81 82//82
f 34//34 31//31 85//85
f 85//85 31//31 86//86
f 31//31 87//87 86//86
f 87//87 31//31 88//88
f 31//31 89//89 88//88
f 90//90 3//3 4//4
f 92//92 94//94 93//93
f 92//92 93//93 91//91
f 95//95 94//94 92//92
f 95//95 92//92 96//96
f 97//97 95//95 96//96
f 97//97 96//96 98//98
f 100//100 99//99 97//97
f 100//100 97//97 98//98
f 102//102 101//101 103//103
f 102//102 103//103 104//104
f 106//106 108//108 107//107
f 106//106 107//107 105//105
f 109//109 108//108 106//106
f 109//109 106//106 110//110
f 111//111 109//109 110//110
f 111//111 110//110 112//112
f 114//114 113//113 111//111
f 114//114 111//111 112//112
f 116//116 118//118 117//117
f 116//116 117//117 115//115
f 119//119 118//118 116//116
f 119//119 116//116 120//120
f 122//122 121//121 119//119
f 122//122 119//119 120//120
f 124//124 126//126 125//125
f 124//124 125//125 123//123
f 127//127 126//126 124//124
f 127//127 124//124 128//128
f 129//129 127//127 128//128
f 129//129 128//128 130//130
f 132//132 131//131 129//129
f 132//132 129//129 130//130
f 134//134 133//133 135//135
f 134//134 135//135 136//136
f 138//138 140//140 139//139
f 138//138 139//139 137//137
f 141//141 140//140 138//138
f 141//141 138//138 142//142
f 143//143 141//141 142//142
f 143//143 142//142 144//144
f 146//146 145//145 143//143
f 146//146 143//143 144//144
f 148//148 147//147 149//149
f 148//148 149//149 150//150
f 152//152 154//154 153//153
f 152//152 153//153 151//151
f 155//155 154//154 152//152
f 155//155 152//152 156//156
f 157//157 155//155 156//156
f 157//157 156//156 158//158
f 160//160 159//159 157//157
f 160//160 157//157 158//158
f 161//161 164//164 162//162
f 162//162 163//163 161//161
f 163//163 162//162 165//165
f 167//167 166//166 168//168
f 167//167 168//168 169//169
f 171//171 169//169 168//168
f 171//171 168//168 170//170
f 173//173 171//171 170//170
f 173//173 170//170 172//172
f 173//173 172//172 174//174
f 173//173 174//174 175//175
f 175//175 176//176 177//177
f 175//175 177//177 173//173
f 177//177 178//178 171//171
f 177//177 171//171 173//173
f 178//178 179//179 169//169
f 178//178 169//169 171//171
f 169//169 179//179 180//180
f 169//169 180//180 167//167
f 182//182 181//181 183//183
f 182//182 183//183 184//184
f 186//186 182//182 184//184
f 186//186 184//184 185//185
f 188//188 187//187 189//189
f 188//188 189//189 190//190
f 192//192 190//190 189//189
f 192//192 189//189 191//191
f 194//194 192//192 191//191
f 194//194 191//191 193//193
f 194//194 193//193 195//195
f 194//194 195//195 196//196
f 196//196 197//197 198//198
f 196//196 198//198 194//194
f 198//198 199//199 192//192
f 198//198 192//192 194//194
f 199//199 200//200 190//190
f 199//199 190//190 192//192
f 190//190 200//200 201//201
f 190//190 201//201 188//188
f 203//203 204//204 202//202
f 203//203 205//205 204//204
f 206//206 204//204 205//205
f 208//208 210//210 209//209
f 208//208 209//209 207//207
f 211//211 210//210 208//208
f 211//211 208//208 212//212
f 213//213 211//211 212//212
f 213//213 212//212 214//214
f 216//216 215//215 213//213
f 216//216 213//213 214//214
f 218//218 217//217 219//219
f 218//218 219//219 220//220
f 222//222 224//224 223//223
f 222//222 223//223 221//221
f 225//225 224//224 222//222
f 225//225 222//222 226//226
f 227//227 225//225 226//226
f 227//227 226//226 228//228
f 230//230 229//229 227//227
f 230//230 227//227 228//228
f 231//231 234//234 232//232
f 232//232 233//233 231//231
f 233//233 232//232 235//235
f 237//237 236//236 238//238
f 237//237 238//238 239//239
f 241//241 239//239 238//238
f 241//241 238//238 240//240
f 243//243 241//241 240//240
f 243//243 240//240 242//242
f 243//243 242//242 244//244
f 243//243 244//244 245//245
f 245//245 246//246 247//247
f 245//245 247//247 243//243
f 247//247 248//248 241//241
f 247//247 241//241 243//243
f 248//248 249//249 239//239
f 248//248 239//239 241//241
f 239//239 249//249 250//250
f 239//239 250//250 237//237
f 252//252 251//251 253//253
f 252//252 253//253 254//254
f 256//256 252//252 254//254
f 256//256 254//254 255//255
f 258//258 257//257 259//259
f 258//258 259//259 260//260
f 262//262 260//260 259//259
f 262//262 259//259 261//261
f 264//264 262//262 261//261
f 264//264 261//261 263//263
f 264//264 263//263 265//265
f 264//264 265//265 266//266
f 266//266 267//267 268//268
f 266//266 268//268 264//264
f 268//268 269//269 262//262
f 268//268 262//262 264//264
f 269//269 270//270 260//260
f 269//269 260//260 262//262
f 260//260 270//270 271//271
f 260//260 271//271 258//258
f 273//273 274//274 272//272
f 275//275 274//274 276//276
f 273//273 276//276 274//274
f 278//278 280//280 279//279
f 278//278 279//279 277//277
f 281//281 280//280 278//278
f 281//281 278//278 282//282
f 283//283 281//281 282//282
f 283//283 282//282 284//284
f 286//286 285//285 283//283
f 286//286 283//283 284//284
f 288//288 287//287 289//289
f 288//288 289//289 290//290
f 292//292 294//294 293//293
f 292//292 293//293 291//291
f 295//295 294//294 292//292
f 295//295 292//292 296//296
f 297//297 295//295 296//296
f 297//297 296//296 298//298
f 300//300 299//299 297//297
f 300//300 297//297 298//298
f 302//302 301//301 303//303
f 302//302 303//303 304//304
f 306//306 305//305 307//307
f 306//306 307//307 308//308
f 310//310 309//309 311//311
f 310//310 311//311 312//312
f 314//314 313//313 315//315
f 314//314 315//315 316//316
f 318//318 317//317 319//319
f 318//318 319//319 320//320
f 322//322 321//321 323//323
f 322//322 323//323 324//324
f 326//326 325//325 327//327
f 326//326 327//327 328//328
f 330//330 329//329 331//331
f 330//330 331//331 332//332
f 334//334 333//333 335//335
f 334//334 335//335 336//336
f 338//338 340//340 339//339
f 338//338 339//339 337//337
f 341//341 340//340 338//338
f 341//341 338//338 342//342
f 343//343 341//341 342//342
f 343//343 342//342 344//344
f 346//346 345//345 343//343
f 346//346 343//343 344//344
f 348//348 347//347 349//349
f 348//348 349//349 350//350
f 352//352 354//354 353//353
f 352//352 353//353 351//351
f 355//355 354//354 352//352
f 355//355 352//352 356//356
f 357//357 355//355 356//356
f 357//357 356//356 358//358
f 360//360 359//359 357//357
f 360//360 357//357 358//358
f 362//362 361//361 363//363
f 362//362 363//363 364//364
f 366//366 368//368 367//367
f 366//366 367//367 365//365
f 369//369 368//368 366//366
f 369//369 366//366 370//370
f 371//371 369//369 370//370
f 371//371 370//370 372//372
f 374//374 373//373 371//371
f 374//374 371//371 372//372
f 376//376 375//375 377//377
f 376//376 377//377 378//378
f 380//380 379//379 384//384
f 380//380 381//381 379//379
f 381//381 382//382 379//379
f 379//379 382//382 386//386
f 383//383 384//384 379//379
f 387//387 379//379 385//385
f 387//387 385//385 388//388
f 379//379 386//386 385//385
f 387//387 388//388 389//389
f 390//390 387//387 389//389
f 391//391 387//387 390//390
f 392//392 390//390 389//389
f 392//392 389//389 393//393
f 394//394 393//393 395//395
f 394//394 395//395 399//399
f 398//398 395//395 393//393
f 396//396 398//398 393//393
f 393//393 397//397 396//396
f 389//389 397//397 393//393
f 399//399 400//400 394//394
f 401//401 394//394 400//400
f 394//394 401//401 402//402
f 394//394 402//402 403//403
f 403//403 404//404 405//405
f 406//406 403//403 405//405
f 394//394 403//403 406//406
f 407//407 405//405 408//408
f 405//405 404//404 408//408
f 410//410 409//409 408//408
f 408//408 411//411 410//410
f 411//411 408//408 404//404
f 410//410 412//412 409//409
f 412//412 410//410 413//413
f 412//412 413//413 414//414
f 414//414 415//415 412//412
f 416//416 412//412 415//415
f 417//417 412//412 416//416
f 417//417 416//416 418//418
f 417//417 418//418 419//419
f 419//419 420//420 417//417
f 423//423 420//420 421//421
f 421//421 420//420 422//422
f 424//424 420//420 423//423
f 424//424 417//417 420//420
f 424//424 423//423 425//425
f 425//425 426//426 424//424
f 427//427 424//424 426//426
f 417//417 424//424 428//428
f 428//428 429//429 417//417
f 429//429 428//428 430//430
f 429//429 430//430 431//431
f 429//429 431//431 432//432
f 433//433 429//429 432//432
f 436//436 429//429 433//433
f 436//436 433//433 434//434
f 434//434 435//435 436//436
f 439//439 437//437 436//436
f 436//436 438//438 440//440
f 438//438 436//436 435//435
f 436//436 440//440 439//439
f 441//441 437//437 439//439
f 442//442 441//441 439//439
f 443//443 442//442 439//439
f 443//443 448//448 442//442
f 446//446 443//443 444//444
f 443//443 445//445 444//444
f 447//447 443//443 446//446
f 447//447 450//450 448//448
f 447//447 448//448 443//443
f 449//449 448//448 452//452
f 451//451 448//448 450//450
f 451//451 452//452 448//448
f 437//437 441//441 453//453
f 453//453 454//454 437//437
f 455//455 437//437 454//454
f 455//455 456//456 382//382
f 382//382 437//437 455//455
f 457//457 382//382 456//456
f 458//458 382//382 457//457
f 382//382 458//458 386//386
f 459//459 460//460 422//422
f 461//461 422//422 460//460
f 421//421 422//422 461//461
f 462//462 460//460 459//459
f 412//412 463//463 409//409
f 463//463 464//464 409//409
f 409//409 464//464 465//465
f 465//465 466//466 409//409
f 409//409 466//466 467//467
f 468//468 382//382 381//381
