# deco_03 exported from /models/joints/deco_03.glb
# units: meters
v -0.008009 0.001000 0.011330
v -0.010009 0.001000 0.009330
v -0.006681 0.001000 0.011330
v -0.008746 0.001000 0.011189
v -0.009424 0.001000 0.010744
v -0.009869 0.001000 0.010066
v -0.006681 0.001000 -0.003383
v -0.006358 0.001000 -0.005442
v -0.007102 0.001000 -0.005412
v -0.007747 0.001000 -0.005649
v -0.008260 0.001000 -0.006107
v -0.004681 0.001000 -0.003383
v -0.004681 0.001000 0.011330
v -0.005688 0.001000 -0.005766
v -0.003026 0.001000 0.008280
v -0.003026 0.001000 -0.007996
v -0.005230 0.001000 -0.006278
v -0.004993 0.001000 -0.006924
v -0.005023 0.001000 -0.007667
v -0.005346 0.001000 -0.008338
v -0.002955 0.001000 -0.008364
v -0.002733 0.001000 -0.008703
v -0.002394 0.001000 -0.008926
v -0.005859 0.001000 -0.008796
v -0.006505 0.001000 -0.009033
v -0.008009 0.001000 -0.011039
v -0.008746 0.001000 -0.010899
v -0.007918 0.001000 -0.008679
v -0.007248 0.001000 -0.009002
v -0.002026 0.001000 -0.008996
v -0.001648 0.001000 -0.008996
v 0.008010 0.001000 -0.011039
v 0.001691 0.001000 -0.008996
v 0.002436 0.001000 -0.008926
v 0.005860 0.001000 -0.008796
v 0.002068 0.001000 -0.008996
v 0.006505 0.001000 -0.009033
v 0.007249 0.001000 -0.009002
v 0.007919 0.001000 -0.008679
v 0.008746 0.001000 -0.010899
v 0.009424 0.001000 -0.010453
v 0.009869 0.001000 -0.009775
v 0.008377 0.001000 -0.008166
v 0.010010 0.001000 -0.009039
v 0.008583 0.001000 -0.006777
v 0.008614 0.001000 -0.007521
v 0.010010 0.001000 0.009330
v 0.008746 0.001000 0.011189
v 0.008010 0.001000 0.011330
v 0.006723 0.001000 0.011330
v 0.009869 0.001000 0.010066
v 0.009424 0.001000 0.010744
v 0.006723 0.001000 -0.003383
v 0.008260 0.001000 -0.006107
v 0.007748 0.001000 -0.005649
v 0.007102 0.001000 -0.005412
v 0.006359 0.001000 -0.005442
v 0.004723 0.001000 -0.003383
v 0.005688 0.001000 -0.005766
v 0.005230 0.001000 -0.006278
v 0.004993 0.001000 -0.006924
v 0.003068 0.001000 -0.007996
v 0.003068 0.001000 0.008280
v 0.005024 0.001000 -0.007667
v 0.002997 0.001000 -0.008364
v 0.002775 0.001000 -0.008703
v 0.005347 0.001000 -0.008338
v 0.004723 0.001000 0.011330
v 0.002997 0.001000 0.008648
v 0.002775 0.001000 0.008987
v 0.002436 0.001000 0.009210
v 0.002068 0.001000 0.009280
v 0.001691 0.001000 0.009280
v 0.001322 0.001000 0.009210
v -0.001280 0.001000 0.009210
v 0.000983 0.001000 0.008987
v 0.000761 0.001000 0.008648
v -0.000941 0.001000 0.008987
v -0.000719 0.001000 0.008648
v -0.000648 0.001000 0.008280
v 0.000691 0.001000 0.008280
v -0.000648 0.001000 -0.007996
v 0.000691 0.001000 -0.007996
v 0.000761 0.001000 -0.008364
v -0.000719 0.001000 -0.008364
v 0.000983 0.001000 -0.008703
v -0.000941 0.001000 -0.008703
v -0.001280 0.001000 -0.008926
v 0.001322 0.001000 -0.008926
v -0.001648 0.001000 0.009280
v -0.002026 0.001000 0.009280
v -0.002394 0.001000 0.009210
v -0.002733 0.001000 0.008987
v -0.002955 0.001000 0.008648
v -0.009869 0.001000 -0.009775
v -0.008376 0.001000 -0.008166
v -0.009424 0.001000 -0.010453
v -0.010009 0.001000 -0.009039
v -0.008613 0.001000 -0.007521
v -0.008583 0.001000 -0.006777
v 0.005860 0.001000 -0.008796
v 0.005860 -0.001000 -0.008796
v 0.005333 0.001000 -0.008319
v 0.005333 -0.001000 -0.008319
v 0.005019 0.001000 -0.007649
v 0.005019 -0.001000 -0.007649
v 0.004995 0.001000 -0.006915
v 0.004995 -0.001000 -0.006915
v 0.005230 0.001000 -0.006278
v 0.005230 -0.001000 -0.006278
v 0.005707 0.001000 -0.005751
v 0.005707 -0.001000 -0.005751
v 0.006377 0.001000 -0.005438
v 0.006377 -0.001000 -0.005438
v 0.007111 0.001000 -0.005413
v 0.007111 -0.001000 -0.005413
v 0.007748 0.001000 -0.005649
v 0.007748 -0.001000 -0.005649
v 0.008274 0.001000 -0.006126
v 0.008274 -0.001000 -0.006126
v 0.008588 0.001000 -0.006796
v 0.008588 -0.001000 -0.006796
v 0.008612 0.001000 -0.007530
v 0.008612 -0.001000 -0.007530
v 0.008377 0.001000 -0.008166
v 0.008377 -0.001000 -0.008166
v 0.007900 0.001000 -0.008693
v 0.007900 -0.001000 -0.008693
v 0.007230 0.001000 -0.009007
v 0.007230 -0.001000 -0.009007
v 0.006496 0.001000 -0.009031
v 0.006496 -0.001000 -0.009031
v 0.005860 0.001000 -0.008796
v 0.005860 -0.001000 -0.008796
v -0.005859 0.001000 -0.008796
v -0.005859 -0.001000 -0.008796
v -0.006528 0.001000 -0.009036
v -0.006528 -0.001000 -0.009036
v -0.007267 0.001000 -0.008997
v -0.007267 -0.001000 -0.008997
v -0.007926 0.001000 -0.008673
v -0.007926 -0.001000 -0.008673
v -0.008376 0.001000 -0.008166
v -0.008376 -0.001000 -0.008166
v -0.008617 0.001000 -0.007498
v -0.008617 -0.001000 -0.007498
v -0.008578 0.001000 -0.006759
v -0.008578 -0.001000 -0.006759
v -0.008254 0.001000 -0.006100
v -0.008254 -0.001000 -0.006100
v -0.007747 0.001000 -0.005649
v -0.007747 -0.001000 -0.005649
v -0.007079 0.001000 -0.005408
v -0.007079 -0.001000 -0.005408
v -0.006340 0.001000 -0.005447
v -0.006340 -0.001000 -0.005447
v -0.005681 0.001000 -0.005771
v -0.005681 -0.001000 -0.005771
v -0.005230 0.001000 -0.006278
v -0.005230 -0.001000 -0.006278
v -0.004989 0.001000 -0.006947
v -0.004989 -0.001000 -0.006947
v -0.005028 0.001000 -0.007686
v -0.005028 -0.001000 -0.007686
v -0.005352 0.001000 -0.008345
v -0.005352 -0.001000 -0.008345
v -0.005859 0.001000 -0.008796
v -0.005859 -0.001000 -0.008796
v 0.003068 0.001000 0.008280
v 0.003068 -0.001000 0.008280
v 0.003068 0.001000 -0.007996
v 0.003068 -0.001000 -0.007996
v 0.003068 0.001000 -0.007996
v 0.002993 0.001000 -0.008376
v 0.003068 -0.001000 -0.007996
v 0.002993 -0.001000 -0.008376
v 0.002767 -0.001000 -0.008710
v 0.002767 0.001000 -0.008710
v 0.002431 -0.001000 -0.008928
v 0.002431 0.001000 -0.008928
v 0.002068 -0.001000 -0.008996
v 0.002068 0.001000 -0.008996
v 0.002068 0.001000 -0.008996
v 0.002068 -0.001000 -0.008996
v 0.001691 0.001000 -0.008996
v 0.001691 -0.001000 -0.008996
v 0.001691 0.001000 -0.008996
v 0.001311 0.001000 -0.008921
v 0.001691 -0.001000 -0.008996
v 0.001311 -0.001000 -0.008921
v 0.000976 -0.001000 -0.008696
v 0.000976 0.001000 -0.008696
v 0.000759 -0.001000 -0.008359
v 0.000759 0.001000 -0.008359
v 0.000691 -0.001000 -0.007996
v 0.000691 0.001000 -0.007996
v 0.000691 0.001000 -0.007996
v 0.000691 -0.001000 -0.007996
v 0.000691 0.001000 0.008280
v 0.000691 -0.001000 0.008280
v 0.000691 0.001000 0.008280
v 0.000765 0.001000 0.008660
v 0.000691 -0.001000 0.008280
v 0.000765 -0.001000 0.008660
v 0.000991 -0.001000 0.008994
v 0.000991 0.001000 0.008994
v 0.001327 -0.001000 0.009211
v 0.001327 0.001000 0.009211
v 0.001691 -0.001000 0.009280
v 0.001691 0.001000 0.009280
v 0.001691 0.001000 0.009280
v 0.001691 -0.001000 0.009280
v 0.002068 0.001000 0.009280
v 0.002068 -0.001000 0.009280
v 0.002068 0.001000 0.009280
v 0.002448 0.001000 0.009205
v 0.002068 -0.001000 0.009280
v 0.002448 -0.001000 0.009205
v 0.002782 -0.001000 0.008980
v 0.002782 0.001000 0.008980
v 0.002999 -0.001000 0.008643
v 0.002999 0.001000 0.008643
v 0.003068 -0.001000 0.008280
v 0.003068 0.001000 0.008280
v -0.001648 0.001000 0.009280
v -0.001268 0.001000 0.009205
v -0.001648 -0.001000 0.009280
v -0.001268 -0.001000 0.009205
v -0.000934 -0.001000 0.008980
v -0.000934 0.001000 0.008980
v -0.000717 -0.001000 0.008643
v -0.000717 0.001000 0.008643
v -0.000648 -0.001000 0.008280
v -0.000648 0.001000 0.008280
v -0.000648 0.001000 0.008280
v -0.000648 -0.001000 0.008280
v -0.000648 0.001000 -0.007996
v -0.000648 -0.001000 -0.007996
v -0.000648 0.001000 -0.007996
v -0.000723 0.001000 -0.008376
v -0.000648 -0.001000 -0.007996
v -0.000723 -0.001000 -0.008376
v -0.000949 -0.001000 -0.008710
v -0.000949 0.001000 -0.008710
v -0.001285 -0.001000 -0.008928
v -0.001285 0.001000 -0.008928
v -0.001648 -0.001000 -0.008996
v -0.001648 0.001000 -0.008996
v -0.001648 0.001000 -0.008996
v -0.001648 -0.001000 -0.008996
v -0.002026 0.001000 -0.008996
v -0.002026 -0.001000 -0.008996
v -0.002026 0.001000 -0.008996
v -0.002405 0.001000 -0.008921
v -0.002026 -0.001000 -0.008996
v -0.002405 -0.001000 -0.008921
v -0.002740 -0.001000 -0.008696
v -0.002740 0.001000 -0.008696
v -0.002957 -0.001000 -0.008359
v -0.002957 0.001000 -0.008359
v -0.003026 -0.001000 -0.007996
v -0.003026 0.001000 -0.007996
v -0.003026 0.001000 -0.007996
v -0.003026 -0.001000 -0.007996
v -0.003026 0.001000 0.008280
v -0.003026 -0.001000 0.008280
v -0.003026 0.001000 0.008280
v -0.002951 0.001000 0.008660
v -0.003026 -0.001000 0.008280
v -0.002951 -0.001000 0.008660
v -0.002725 -0.001000 0.008994
v -0.002725 0.001000 0.008994
v -0.002389 -0.001000 0.009211
v -0.002389 0.001000 0.009211
v -0.002026 -0.001000 0.009280
v -0.002026 0.001000 0.009280
v -0.002026 0.001000 0.009280
v -0.002026 -0.001000 0.009280
v -0.001648 0.001000 0.009280
v -0.001648 -0.001000 0.009280
v -0.008009 0.001000 0.011330
v -0.008769 0.001000 0.011180
v -0.008009 -0.001000 0.011330
v -0.008769 -0.001000 0.011180
v -0.009438 -0.001000 0.010729
v -0.009438 0.001000 0.010729
v -0.009873 -0.001000 0.010057
v -0.009873 0.001000 0.010057
v -0.010009 -0.001000 0.009330
v -0.010009 0.001000 0.009330
v -0.010009 0.001000 0.009330
v -0.010009 -0.001000 0.009330
v -0.010009 0.001000 -0.009039
v -0.010009 -0.001000 -0.009039
v -0.010009 0.001000 -0.009039
v -0.009859 0.001000 -0.009799
v -0.010009 -0.001000 -0.009039
v -0.009859 -0.001000 -0.009799
v -0.009409 -0.001000 -0.010468
v -0.009409 0.001000 -0.010468
v -0.008736 -0.001000 -0.010902
v -0.008736 0.001000 -0.010902
v -0.008009 -0.001000 -0.011039
v -0.008009 0.001000 -0.011039
v -0.008009 0.001000 -0.011039
v -0.008009 -0.001000 -0.011039
v 0.008010 0.001000 -0.011039
v 0.008010 -0.001000 -0.011039
v 0.008010 0.001000 -0.011039
v 0.008770 0.001000 -0.010889
v 0.008010 -0.001000 -0.011039
v 0.008770 -0.001000 -0.010889
v 0.009439 -0.001000 -0.010439
v 0.009439 0.001000 -0.010439
v 0.009873 -0.001000 -0.009766
v 0.009873 0.001000 -0.009766
v 0.010010 -0.001000 -0.009039
v 0.010010 0.001000 -0.009039
v 0.010010 0.001000 -0.009039
v 0.010010 -0.001000 -0.009039
v 0.010010 0.001000 0.009330
v 0.010010 -0.001000 0.009330
v 0.010010 0.001000 0.009330
v 0.009860 0.001000 0.010090
v 0.010010 -0.001000 0.009330
v 0.009860 -0.001000 0.010090
v 0.009409 -0.001000 0.010759
v 0.009409 0.001000 0.010759
v 0.008737 -0.001000 0.011193
v 0.008737 0.001000 0.011193
v 0.008010 -0.001000 0.011330
v 0.008010 0.001000 0.011330
v 0.008010 0.001000 0.011330
v 0.008010 -0.001000 0.011330
v 0.006723 0.001000 0.011330
v 0.006723 -0.001000 0.011330
v 0.006723 0.001000 0.011330
v 0.006723 -0.001000 0.011330
v 0.006723 0.001000 -0.003383
v 0.006723 -0.001000 -0.003383
v 0.006723 0.001000 -0.003383
v 0.006723 -0.001000 -0.003383
v 0.004723 0.001000 -0.003383
v 0.004723 -0.001000 -0.003383
v 0.004723 0.001000 -0.003383
v 0.004723 -0.001000 -0.003383
v 0.004723 0.001000 0.011330
v 0.004723 -0.001000 0.011330
v 0.004723 0.001000 0.011330
v 0.004723 -0.001000 0.011330
v -0.004681 0.001000 0.011330
v -0.004681 -0.001000 0.011330
v -0.004681 0.001000 0.011330
v -0.004681 -0.001000 0.011330
v -0.004681 0.001000 -0.003383
v -0.004681 -0.001000 -0.003383
v -0.004681 0.001000 -0.003383
v -0.004681 -0.001000 -0.003383
v -0.006681 0.001000 -0.003383
v -0.006681 -0.001000 -0.003383
v -0.006681 0.001000 -0.003383
v -0.006681 -0.001000 -0.003383
v -0.006681 0.001000 0.011330
v -0.006681 -0.001000 0.011330
v -0.006681 0.001000 0.011330
v -0.006681 -0.001000 0.011330
v -0.008009 0.001000 0.011330
v -0.008009 -0.001000 0.011330
v -0.008009 -0.001000 0.011330
v -0.010009 -0.001000 0.009330
v -0.006681 -0.001000 0.011330
v -0.008746 -0.001000 0.011189
v -0.009424 -0.001000 0.010744
v -0.009869 -0.001000 0.010066
v -0.006681 -0.001000 -0.003383
v -0.004681 -0.001000 -0.003383
v -0.006358 -0.001000 -0.005442
v -0.007102 -0.001000 -0.005412
v -0.007747 -0.001000 -0.005649
v -0.008260 -0.001000 -0.006107
v -0.008583 -0.001000 -0.006777
v -0.010009 -0.001000 -0.009039
v -0.008613 -0.001000 -0.007521
v -0.008376 -0.001000 -0.008166
v -0.009869 -0.001000 -0.009775
v -0.007918 -0.001000 -0.008679
v -0.007248 -0.001000 -0.009002
v -0.009424 -0.001000 -0.010453
v -0.008746 -0.001000 -0.010899
v -0.008009 -0.001000 -0.011039
v -0.006505 -0.001000 -0.009033
v -0.005859 -0.001000 -0.008796
v -0.002394 -0.001000 -0.008926
v -0.002026 -0.001000 -0.008996
v -0.001648 -0.001000 -0.008996
v 0.008010 -0.001000 -0.011039
v 0.001691 -0.001000 -0.008996
v 0.002436 -0.001000 -0.008926
v 0.005860 -0.001000 -0.008796
v 0.002068 -0.001000 -0.008996
v 0.006505 -0.001000 -0.009033
v 0.007249 -0.001000 -0.009002
v 0.007919 -0.001000 -0.008679
v 0.008746 -0.001000 -0.010899
v 0.009424 -0.001000 -0.010453
v 0.009869 -0.001000 -0.009775
v 0.008377 -0.001000 -0.008166
v 0.010010 -0.001000 -0.009039
v 0.008614 -0.001000 -0.007521
v 0.008583 -0.001000 -0.006777
v 0.010010 -0.001000 0.009330
v 0.008746 -0.001000 0.011189
v 0.008010 -0.001000 0.011330
v 0.006723 -0.001000 0.011330
v 0.009869 -0.001000 0.010066
v 0.009424 -0.001000 0.010744
v 0.006723 -0.001000 -0.003383
v 0.008260 -0.001000 -0.006107
v 0.007748 -0.001000 -0.005649
v 0.007102 -0.001000 -0.005412
v 0.006359 -0.001000 -0.005442
v 0.004723 -0.001000 -0.003383
v 0.005688 -0.001000 -0.005766
v 0.005230 -0.001000 -0.006278
v 0.004993 -0.001000 -0.006924
v 0.003068 -0.001000 -0.007996
v 0.003068 -0.001000 0.008280
v 0.005024 -0.001000 -0.007667
v 0.002997 -0.001000 -0.008364
v 0.002775 -0.001000 -0.008703
v 0.005347 -0.001000 -0.008338
v 0.004723 -0.001000 0.011330
v 0.002997 -0.001000 0.008648
v 0.002775 -0.001000 0.008987
v 0.002436 -0.001000 0.009210
v 0.002068 -0.001000 0.009280
v 0.001691 -0.001000 0.009280
v 0.001322 -0.001000 0.009210
v -0.001280 -0.001000 0.009210
v 0.000983 -0.001000 0.008987
v 0.000761 -0.001000 0.008648
v -0.000941 -0.001000 0.008987
v -0.000719 -0.001000 0.008648
v -0.000648 -0.001000 0.008280
v 0.000691 -0.001000 0.008280
v -0.000648 -0.001000 -0.007996
v 0.000691 -0.001000 -0.007996
v 0.000761 -0.001000 -0.008364
v -0.000719 -0.001000 -0.008364
v 0.000983 -0.001000 -0.008703
v -0.000941 -0.001000 -0.008703
v -0.001280 -0.001000 -0.008926
v 0.001322 -0.001000 -0.008926
v -0.001648 -0.001000 0.009280
v -0.004681 -0.001000 0.011330
v -0.002026 -0.001000 0.009280
v -0.002394 -0.001000 0.009210
v -0.002733 -0.001000 0.008987
v -0.002955 -0.001000 0.008648
v -0.003026 -0.001000 0.008280
v -0.003026 -0.001000 -0.007996
v -0.002955 -0.001000 -0.008364
v -0.005230 -0.001000 -0.006278
v -0.005023 -0.001000 -0.007667
v -0.004993 -0.001000 -0.006924
v -0.005346 -0.001000 -0.008338
v -0.002733 -0.001000 -0.008703
v -0.005688 -0.001000 -0.005766
vn 0.000000 1.000000 0.000000
vn 0.000000 1.000000 0.000000
vn 0.000000 1.000000 0.000000
vn 0.000000 1.000000 0.000000
vn 0.000000 1.000000 0.000000
vn 0.000000 1.000000 0.000000
vn 0.000000 1.000000 0.000000
vn 0.000000 1.000000 0.000000
vn 0.000000 1.000000 0.000000
vn 0.000000 1.000000 0.000000
vn 0.000000 1.000000 0.000000
vn 0.000000 1.000000 0.000000
vn 0.000000 1.000000 0.000000
vn 0.000000 1.000000 0.000000
vn 0.000000 1.000000 0.000000
vn 0.000000 1.000000 0.000000
vn 0.000000 1.000000 0.000000
vn 0.000000 1.000000 0.000000
vn 0.000000 1.000000 0.000000
vn 0.000000 1.000000 0.000000
vn 0.000000 1.000000 0.000000
vn 0.000000 1.000000 0.000000
vn 0.000000 1.000000 0.000000
vn 0.000000 1.000000 0.000000
vn 0.000000 1.000000 0.000000
vn 0.000000 1.000000 0.000000
vn 0.000000 1.000000 0.000000
vn 0.000000 1.000000 0.000000
vn 0.000000 1.000000 0.000000
vn 0.000000 1.000000 0.000000
vn 0.000000 1.000000 0.000000
vn 0.000000 1.000000 0.000000
vn 0.000000 1.000000 0.000000
vn 0.000000 1.000000 0.000000
vn 0.000000 1.000000 0.000000
vn 0.000000 1.000000 0.000000
vn 0.000000 1.000000 0.000000
vn 0.000000 1.000000 0.000000
vn 0.000000 1.000000 0.000000
vn 0.000000 1.000000 0.000000
vn 0.000000 1.000000 0.000000
vn 0.000000 1.000000 0.000000
vn 0.000000 1.000000 0.000000
vn 0.000000 1.000000 0.000000
vn 0.000000 1.000000 0.000000
vn 0.000000 1.000000 0.000000
vn 0.000000 1.000000 0.000000
vn 0.000000 1.000000 0.000000
vn 0.000000 1.000000 0.000000
vn 0.000000 1.000000 0.000000
vn 0.000000 1.000000 0.000000
vn 0.000000 1.000000 0.000000
vn 0.000000 1.000000 0.000000
vn 0.000000 1.000000 0.000000
vn 0.000000 1.000000 0.000000
vn 0.000000 1.000000 0.000000
vn 0.000000 1.000000 0.000000
vn 0.000000 1.000000 0.000000
vn 0.000000 1.000000 0.000000
vn 0.000000 1.000000 0.000000
vn 0.000000 1.000000 0.000000
vn 0.000000 1.000000 0.000000
vn 0.000000 1.000000 0.000000
vn 0.000000 1.000000 0.000000
vn 0.000000 1.000000 0.000000
vn 0.000000 1.000000 0.000000
vn 0.000000 1.000000 0.000000
vn 0.000000 1.000000 0.000000
vn 0.000000 1.000000 0.000000
vn 0.000000 1.000000 0.000000
vn 0.000000 1.000000 0.000000
vn 0.000000 1.000000 0.000000
vn 0.000000 1.000000 0.000000
vn 0.000000 1.000000 0.000000
vn 0.000000 1.000000 0.000000
vn 0.000000 1.000000 0.000000
vn 0.000000 1.000000 0.000000
vn 0.000000 1.000000 0.000000
vn 0.000000 1.000000 0.000000
vn 0.000000 1.000000 0.000000
vn 0.000000 1.000000 0.000000
vn 0.000000 1.000000 0.000000
vn 0.000000 1.000000 0.000000
vn 0.000000 1.000000 0.000000
vn 0.000000 1.000000 0.000000
vn 0.000000 1.000000 0.000000
vn 0.000000 1.000000 0.000000
vn 0.000000 1.000000 0.000000
vn 0.000000 1.000000 0.000000
vn 0.000000 1.000000 0.000000
vn 0.000000 1.000000 0.000000
vn 0.000000 1.000000 0.000000
vn 0.000000 1.000000 0.000000
vn 0.000000 1.000000 0.000000
vn 0.000000 1.000000 0.000000
vn 0.000000 1.000000 0.000000
vn 0.000000 1.000000 0.000000
vn 0.000000 1.000000 0.000000
vn 0.000000 1.000000 0.000000
vn 0.000000 1.000000 0.000000
vn 0.514613 -0.000000 0.857422
vn 0.514613 -0.000000 0.857422
vn 0.801713 -0.000000 0.597710
vn 0.801713 -0.000000 0.597710
vn 0.972619 -0.000000 0.232405
vn 0.972619 -0.000000 0.232405
vn 0.985837 0.000000 -0.167706
vn 0.985837 0.000000 -0.167706
vn 0.857493 0.000000 -0.514496
vn 0.857493 0.000000 -0.514496
vn 0.597709 0.000000 -0.801713
vn 0.597709 0.000000 -0.801713
vn 0.232405 0.000000 -0.972619
vn 0.232405 0.000000 -0.972619
vn -0.167706 0.000000 -0.985837
vn -0.167706 0.000000 -0.985837
vn -0.514496 0.000000 -0.857493
vn -0.514496 0.000000 -0.857493
vn -0.801713 0.000000 -0.597710
vn -0.801713 0.000000 -0.597710
vn -0.972597 0.000000 -0.232499
vn -0.972597 0.000000 -0.232499
vn -0.985837 -0.000000 0.167706
vn -0.985837 -0.000000 0.167706
vn -0.857493 -0.000000 0.514496
vn -0.857493 -0.000000 0.514496
vn -0.597709 -0.000000 0.801713
vn -0.597709 -0.000000 0.801713
vn -0.232405 -0.000000 0.972619
vn -0.232405 -0.000000 0.972619
vn 0.167706 -0.000000 0.985837
vn 0.167706 -0.000000 0.985837
vn 0.514422 -0.000000 0.857537
vn 0.514422 -0.000000 0.857537
vn -0.514422 -0.000000 0.857537
vn -0.514422 -0.000000 0.857537
vn -0.150096 -0.000000 0.988671
vn -0.150096 -0.000000 0.988671
vn 0.252499 -0.000000 0.967597
vn 0.252499 -0.000000 0.967597
vn 0.611917 -0.000000 0.790922
vn 0.611917 -0.000000 0.790922
vn 0.857493 -0.000000 0.514496
vn 0.857493 -0.000000 0.514496
vn 0.988671 -0.000000 0.150096
vn 0.988671 -0.000000 0.150096
vn 0.967548 0.000000 -0.252687
vn 0.967548 0.000000 -0.252687
vn 0.791008 0.000000 -0.611806
vn 0.791008 0.000000 -0.611806
vn 0.514496 0.000000 -0.857493
vn 0.514496 0.000000 -0.857493
vn 0.150096 0.000000 -0.988671
vn 0.150096 0.000000 -0.988671
vn -0.252499 0.000000 -0.967597
vn -0.252499 0.000000 -0.967597
vn -0.611869 0.000000 -0.790959
vn -0.611869 0.000000 -0.790959
vn -0.857493 0.000000 -0.514496
vn -0.857493 0.000000 -0.514496
vn -0.988671 0.000000 -0.150096
vn -0.988671 0.000000 -0.150096
vn -0.967573 -0.000000 0.252593
vn -0.967573 -0.000000 0.252593
vn -0.790959 -0.000000 0.611869
vn -0.790959 -0.000000 0.611869
vn -0.514613 -0.000000 0.857422
vn -0.514613 -0.000000 0.857422
vn -1.000000 0.000000 0.000000
vn -1.000000 0.000000 0.000000
vn -1.000000 0.000000 0.000000
vn -1.000000 0.000000 0.000000
vn -1.000000 -0.000000 0.000100
vn -0.925024 -0.000000 0.379910
vn -1.000000 -0.000000 0.000100
vn -0.925024 -0.000000 0.379910
vn -0.699718 -0.000000 0.714419
vn -0.699718 -0.000000 0.714419
vn -0.363411 -0.000000 0.931629
vn -0.363411 -0.000000 0.931629
vn -0.000100 -0.000000 1.000000
vn -0.000100 -0.000000 1.000000
vn 0.000000 -0.000000 1.000000
vn 0.000000 -0.000000 1.000000
vn 0.000000 -0.000000 1.000000
vn 0.000000 -0.000000 1.000000
vn 0.000100 -0.000000 1.000000
vn 0.379910 -0.000000 0.925024
vn 0.000100 -0.000000 1.000000
vn 0.379910 -0.000000 0.925024
vn 0.714468 -0.000000 0.699668
vn 0.714468 -0.000000 0.699668
vn 0.931629 -0.000000 0.363411
vn 0.931629 -0.000000 0.363411
vn 1.000000 -0.000000 0.000100
vn 1.000000 -0.000000 0.000100
vn 1.000000 0.000000 0.000000
vn 1.000000 0.000000 0.000000
vn 1.000000 0.000000 0.000000
vn 1.000000 0.000000 0.000000
vn 1.000000 0.000000 -0.000100
vn 0.925024 0.000000 -0.379910
vn 1.000000 0.000000 -0.000100
vn 0.925024 0.000000 -0.379910
vn 0.699718 0.000000 -0.714419
vn 0.699718 0.000000 -0.714419
vn 0.363411 0.000000 -0.931629
vn 0.363411 0.000000 -0.931629
vn 0.000100 0.000000 -1.000000
vn 0.000100 0.000000 -1.000000
vn 0.000000 0.000000 -1.000000
vn 0.000000 0.000000 -1.000000
vn 0.000000 0.000000 -1.000000
vn 0.000000 0.000000 -1.000000
vn -0.000100 0.000000 -1.000000
vn -0.379910 0.000000 -0.925024
vn -0.000100 0.000000 -1.000000
vn -0.379910 0.000000 -0.925024
vn -0.714221 0.000000 -0.699920
vn -0.714221 0.000000 -0.699920
vn -0.931629 0.000000 -0.363411
vn -0.931629 0.000000 -0.363411
vn -1.000000 0.000000 -0.000100
vn -1.000000 0.000000 -0.000100
vn -0.000100 0.000000 -1.000000
vn -0.379910 0.000000 -0.925024
vn -0.000100 0.000000 -1.000000
vn -0.379910 0.000000 -0.925024
vn -0.714270 0.000000 -0.699870
vn -0.714270 0.000000 -0.699870
vn -0.931629 0.000000 -0.363411
vn -0.931629 0.000000 -0.363411
vn -1.000000 0.000000 -0.000100
vn -1.000000 0.000000 -0.000100
vn -1.000000 0.000000 0.000000
vn -1.000000 0.000000 0.000000
vn -1.000000 0.000000 0.000000
vn -1.000000 0.000000 0.000000
vn -1.000000 -0.000000 0.000100
vn -0.925024 -0.000000 0.379910
vn -1.000000 -0.000000 0.000100
vn -0.925024 -0.000000 0.379910
vn -0.699769 -0.000000 0.714369
vn -0.699769 -0.000000 0.714369
vn -0.363411 -0.000000 0.931629
vn -0.363411 -0.000000 0.931629
vn -0.000100 -0.000000 1.000000
vn -0.000100 -0.000000 1.000000
vn 0.000000 -0.000000 1.000000
vn 0.000000 -0.000000 1.000000
vn 0.000000 -0.000000 1.000000
vn 0.000000 -0.000000 1.000000
vn 0.000100 -0.000000 1.000000
vn 0.379910 -0.000000 0.925024
vn 0.000100 -0.000000 1.000000
vn 0.379910 -0.000000 0.925024
vn 0.714221 -0.000000 0.699920
vn 0.714221 -0.000000 0.699920
vn 0.931629 -0.000000 0.363411
vn 0.931629 -0.000000 0.363411
vn 1.000000 -0.000000 0.000100
vn 1.000000 -0.000000 0.000100
vn 1.000000 0.000000 0.000000
vn 1.000000 0.000000 0.000000
vn 1.000000 0.000000 0.000000
vn 1.000000 0.000000 0.000000
vn 1.000000 0.000000 -0.000100
vn 0.925024 0.000000 -0.379910
vn 1.000000 0.000000 -0.000100
vn 0.925024 0.000000 -0.379910
vn 0.699668 0.000000 -0.714468
vn 0.699668 0.000000 -0.714468
vn 0.363498 0.000000 -0.931595
vn 0.363498 0.000000 -0.931595
vn 0.000100 0.000000 -1.000000
vn 0.000100 0.000000 -1.000000
vn 0.000000 0.000000 -1.000000
vn 0.000000 0.000000 -1.000000
vn 0.000000 0.000000 -1.000000
vn 0.000000 0.000000 -1.000000
vn -0.000100 -0.000000 1.000000
vn -0.379910 -0.000000 0.925024
vn -0.000100 -0.000000 1.000000
vn -0.379910 -0.000000 0.925024
vn -0.714518 -0.000000 0.699617
vn -0.714518 -0.000000 0.699617
vn -0.931595 -0.000000 0.363498
vn -0.931595 -0.000000 0.363498
vn -1.000000 -0.000000 0.000100
vn -1.000000 -0.000000 0.000100
vn -1.000000 0.000000 0.000000
vn -1.000000 0.000000 0.000000
vn -1.000000 0.000000 0.000000
vn -1.000000 0.000000 0.000000
vn -1.000000 0.000000 -0.000100
vn -0.925024 0.000000 -0.379910
vn -1.000000 0.000000 -0.000100
vn -0.925024 0.000000 -0.379910
vn -0.699617 0.000000 -0.714518
vn -0.699617 0.000000 -0.714518
vn -0.363498 0.000000 -0.931595
vn -0.363498 0.000000 -0.931595
vn -0.000100 0.000000 -1.000000
vn -0.000100 0.000000 -1.000000
vn 0.000000 0.000000 -1.000000
vn 0.000000 0.000000 -1.000000
vn 0.000000 0.000000 -1.000000
vn 0.000000 0.000000 -1.000000
vn 0.000100 0.000000 -1.000000
vn 0.379910 0.000000 -0.925024
vn 0.000100 0.000000 -1.000000
vn 0.379910 0.000000 -0.925024
vn 0.714468 0.000000 -0.699668
vn 0.714468 0.000000 -0.699668
vn 0.931629 0.000000 -0.363411
vn 0.931629 0.000000 -0.363411
vn 1.000000 0.000000 -0.000100
vn 1.000000 0.000000 -0.000100
vn 1.000000 0.000000 0.000000
vn 1.000000 0.000000 0.000000
vn 1.000000 0.000000 0.000000
vn 1.000000 0.000000 0.000000
vn 1.000000 -0.000000 0.000100
vn 0.925024 -0.000000 0.379910
vn 1.000000 -0.000000 0.000100
vn 0.925024 -0.000000 0.379910
vn 0.699617 -0.000000 0.714518
vn 0.699617 -0.000000 0.714518
vn 0.363411 -0.000000 0.931629
vn 0.363411 -0.000000 0.931629
vn 0.000100 -0.000000 1.000000
vn 0.000100 -0.000000 1.000000
vn 0.000000 -0.000000 1.000000
vn 0.000000 -0.000000 1.000000
vn 0.000000 -0.000000 1.000000
vn 0.000000 -0.000000 1.000000
vn -1.000000 0.000000 0.000000
vn -1.000000 0.000000 0.000000
vn -1.000000 0.000000 0.000000
vn -1.000000 0.000000 0.000000
vn 0.000000 -0.000000 1.000000
vn 0.000000 -0.000000 1.000000
vn 0.000000 -0.000000 1.000000
vn 0.000000 -0.000000 1.000000
vn 1.000000 0.000000 0.000000
vn 1.000000 0.000000 0.000000
vn 1.000000 0.000000 0.000000
vn 1.000000 0.000000 0.000000
vn 0.000000 -0.000000 1.000000
vn 0.000000 -0.000000 1.000000
vn 0.000000 -0.000000 1.000000
vn 0.000000 -0.000000 1.000000
vn -1.000000 0.000000 0.000000
vn -1.000000 0.000000 0.000000
vn -1.000000 0.000000 0.000000
vn -1.000000 0.000000 0.000000
vn 0.000000 -0.000000 1.000000
vn 0.000000 -0.000000 1.000000
vn 0.000000 -0.000000 1.000000
vn 0.000000 -0.000000 1.000000
vn 1.000000 0.000000 0.000000
vn 1.000000 0.000000 0.000000
vn 1.000000 0.000000 0.000000
vn 1.000000 0.000000 0.000000
vn 0.000000 -0.000000 1.000000
vn 0.000000 -0.000000 1.000000
vn 0.000000 -0.000000 1.000000
vn 0.000000 -0.000000 1.000000
vn 0.000000 -1.000000 -0.000000
vn 0.000000 -1.000000 -0.000000
vn 0.000000 -1.000000 -0.000000
vn 0.000000 -1.000000 -0.000000
vn 0.000000 -1.000000 -0.000000
vn 0.000000 -1.000000 -0.000000
vn 0.000000 -1.000000 -0.000000
vn 0.000000 -1.000000 -0.000000
vn 0.000000 -1.000000 -0.000000
vn 0.000000 -1.000000 -0.000000
vn 0.000000 -1.000000 -0.000000
vn 0.000000 -1.000000 -0.000000
vn 0.000000 -1.000000 -0.000000
vn 0.000000 -1.000000 -0.000000
vn 0.000000 -1.000000 -0.000000
vn 0.000000 -1.000000 -0.000000
vn 0.000000 -1.000000 -0.000000
vn 0.000000 -1.000000 -0.000000
vn 0.000000 -1.000000 -0.000000
vn 0.000000 -1.000000 -0.000000
vn 0.000000 -1.000000 -0.000000
vn 0.000000 -1.000000 -0.000000
vn 0.000000 -1.000000 -0.000000
vn 0.000000 -1.000000 -0.000000
vn 0.000000 -1.000000 -0.000000
vn 0.000000 -1.000000 -0.000000
vn 0.000000 -1.000000 -0.000000
vn 0.000000 -1.000000 -0.000000
vn 0.000000 -1.000000 -0.000000
vn 0.000000 -1.000000 -0.000000
vn 0.000000 -1.000000 -0.000000
vn 0.000000 -1.000000 -0.000000
vn 0.000000 -1.000000 -0.000000
vn 0.000000 -1.000000 -0.000000
vn 0.000000 -1.000000 -0.000000
vn 0.000000 -1.000000 -0.000000
vn 0.000000 -1.000000 -0.000000
vn 0.000000 -1.000000 -0.000000
vn 0.000000 -1.000000 -0.000000
vn 0.000000 -1.000000 -0.000000
vn 0.000000 -1.000000 -0.000000
vn 0.000000 -1.000000 -0.000000
vn 0.000000 -1.000000 -0.000000
vn 0.000000 -1.000000 -0.000000
vn 0.000000 -1.000000 -0.000000
vn 0.000000 -1.000000 -0.000000
vn 0.000000 -1.000000 -0.000000
vn 0.000000 -1.000000 -0.000000
vn 0.000000 -1.000000 -0.000000
vn 0.000000 -1.000000 -0.000000
vn 0.000000 -1.000000 -0.000000
vn 0.000000 -1.000000 -0.000000
vn 0.000000 -1.000000 -0.000000
vn 0.000000 -1.000000 -0.000000
vn 0.000000 -1.000000 -0.000000
vn 0.000000 -1.000000 -0.000000
vn 0.000000 -1.000000 -0.000000
vn 0.000000 -1.000000 -0.000000
vn 0.000000 -1.000000 -0.000000
vn 0.000000 -1.000000 -0.000000
vn 0.000000 -1.000000 -0.000000
vn 0.000000 -1.000000 -0.000000
vn 0.000000 -1.000000 -0.000000
vn 0.000000 -1.000000 -0.000000
vn 0.000000 -1.000000 -0.000000
vn 0.000000 -1.000000 -0.000000
vn 0.000000 -1.000000 -0.000000
vn 0.000000 -1.000000 -0.000000
vn 0.000000 -1.000000 -0.000000
vn 0.000000 -1.000000 -0.000000
vn 0.000000 -1.000000 -0.000000
vn 0.000000 -1.000000 -0.000000
vn 0.000000 -1.000000 -0.000000
vn 0.000000 -1.000000 -0.000000
vn 0.000000 -1.000000 -0.000000
vn 0.000000 -1.000000 -0.000000
vn 0.000000 -1.000000 -0.000000
vn 0.000000 -1.000000 -0.000000
vn 0.000000 -1.000000 -0.000000
vn 0.000000 -1.000000 -0.000000
vn 0.000000 -1.000000 -0.000000
vn 0.000000 -1.000000 -0.000000
vn 0.000000 -1.000000 -0.000000
vn 0.000000 -1.000000 -0.000000
vn 0.000000 -1.000000 -0.000000
vn 0.000000 -1.000000 -0.000000
vn 0.000000 -1.000000 -0.000000
vn 0.000000 -1.000000 -0.000000
vn 0.000000 -1.000000 -0.000000
vn 0.000000 -1.000000 -0.000000
vn 0.000000 -1.000000 -0.000000
vn 0.000000 -1.000000 -0.000000
vn 0.000000 -1.000000 -0.000000
vn 0.000000 -1.000000 -0.000000
vn 0.000000 -1.000000 -0.000000
vn 0.000000 -1.000000 -0.000000
vn 0.000000 -1.000000 -0.000000
vn 0.000000 -1.000000 -0.000000
vn 0.000000 -1.000000 -0.000000
vn 0.000000 -1.000000 -0.000000
f 4//4 1//1 2//2
f 2//2 1//1 3//3
f 4//4 2//2 5//5
f 2//2 6//6 5//5
f 7//7 2//2 3//3
f 8//8 7//7 12//12
f 8//8 9//9 7//7
f 10//10 7//7 9//9
f 7//7 10//10 11//11
f 7//7 11//11 2//2
f 12//12 13//13 15//15
f 14//14 8//8 12//12
f 17//17 14//14 12//12
f 16//16 12//12 15//15
f 16//16 17//17 12//12
f 16//16 18//18 17//17
f 16//16 19//19 18//18
f 21//21 20//20 19//19
f 16//16 21//21 19//19
f 20//20 21//21 22//22
f 24//24 22//22 23//23
f 20//20 22//22 24//24
f 25//25 24//24 26//26
f 24//24 23//23 26//26
f 26//26 27//27 28//28
f 28//28 29//29 26//26
f 25//25 26//26 29//29
f 30//30 26//26 23//23
f 30//30 31//31 26//26
f 26//26 31//31 33//33
f 26//26 33//33 32//32
f 32//32 33//33 36//36
f 36//36 34//34 32//32
f 34//34 35//35 32//32
f 32//32 35//35 37//37
f 37//37 38//38 32//32
f 32//32 38//38 39//39
f 40//40 32//32 39//39
f 41//41 40//40 39//39
f 42//42 41//41 39//39
f 44//44 42//42 43//43
f 42//42 39//39 43//43
f 47//47 44//44 45//45
f 44//44 46//46 45//45
f 44//44 43//43 46//46
f 48//48 52//52 47//47
f 48//48 47//47 49//49
f 50//50 49//49 47//47
f 53//53 50//50 47//47
f 51//51 47//47 52//52
f 53//53 47//47 54//54
f 45//45 54//54 47//47
f 53//53 54//54 55//55
f 55//55 56//56 53//53
f 56//56 57//57 53//53
f 57//57 58//58 53//53
f 59//59 58//58 57//57
f 59//59 60//60 58//58
f 60//60 62//62 58//58
f 61//61 62//62 60//60
f 58//58 62//62 63//63
f 62//62 61//61 64//64
f 65//65 62//62 64//64
f 67//67 65//65 64//64
f 66//66 65//65 67//67
f 35//35 66//66 67//67
f 66//66 35//35 34//34
f 58//58 63//63 68//68
f 69//69 68//68 63//63
f 68//68 69//69 70//70
f 68//68 70//70 71//71
f 71//71 72//72 68//68
f 72//72 73//73 68//68
f 74//74 68//68 73//73
f 74//74 75//75 68//68
f 75//75 74//74 76//76
f 77//77 78//78 76//76
f 76//76 78//78 75//75
f 77//77 79//79 78//78
f 77//77 80//80 79//79
f 81//81 80//80 77//77
f 81//81 83//83 82//82
f 81//81 82//82 80//80
f 84//84 82//82 83//83
f 84//84 85//85 82//82
f 86//86 85//85 84//84
f 86//86 87//87 85//85
f 86//86 88//88 87//87
f 31//31 88//88 89//89
f 89//89 88//88 86//86
f 33//33 31//31 89//89
f 75//75 90//90 13//13
f 68//68 75//75 13//13
f 90//90 91//91 13//13
f 92//92 13//13 91//91
f 93//93 13//13 92//92
f 13//13 93//93 94//94
f 94//94 15//15 13//13
f 28//28 97//97 95//95
f 95//95 96//96 28//28
f 28//28 27//27 97//97
f 95//95 98//98 96//96
f 96//96 98//98 99//99
f 98//98 100//100 99//99
f 11//11 100//100 2//2
f 98//98 2//2 100//100
f 104//104 102//102 101//101
f 104//104 101//101 103//103
f 106//106 104//104 103//103
f 106//106 103//103 105//105
f 108//108 106//106 105//105
f 108//108 105//105 107//107
f 110//110 108//108 107//107
f 110//110 107//107 109//109
f 112//112 110//110 109//109
f 112//112 109//109 111//111
f 114//114 112//112 111//111
f 114//114 111//111 113//113
f 116//116 114//114 113//113
f 116//116 113//113 115//115
f 118//118 116//116 115//115
f 118//118 115//115 117//117
f 120//120 118//118 117//117
f 120//120 117//117 119//119
f 122//122 120//120 119//119
f 122//122 119//119 121//121
f 124//124 122//122 121//121
f 124//124 121//121 123//123
f 126//126 124//124 123//123
f 126//126 123//123 125//125
f 128//128 126//126 125//125
f 128//128 125//125 127//127
f 130//130 128//128 127//127
f 130//130 127//127 129//129
f 132//132 130//130 129//129
f 132//132 129//129 131//131
f 134//134 132//132 131//131
f 134//134 131//131 133//133
f 138//138 136//136 135//135
f 138//138 135//135 137//137
f 140//140 138//138 137//137
f 140//140 137//137 139//139
f 142//142 140//140 139//139
f 142//142 139//139 141//141
f 144//144 142//142 141//141
f 144//144 141//141 143//143
f 146//146 144//144 143//143
f 146//146 143//143 145//145
f 148//148 146//146 145//145
f 148//148 145//145 147//147
f 150//150 148//148 147//147
f 150//150 147//147 149//149
f 152//152 150//150 149//149
f 152//152 149//149 151//151
f 154//154 152//152 151//151
f 154//154 151//151 153//153
f 156//156 154//154 153//153
f 156//156 153//153 155//155
f 158//158 156//156 155//155
f 158//158 155//155 157//157
f 160//160 158//158 157//157
f 160//160 157//157 159//159
f 162//162 160//160 159//159
f 162//162 159//159 161//161
f 164//164 162//162 161//161
f 164//164 161//161 163//163
f 166//166 164//164 163//163
f 166//166 163//163 165//165
f 168//168 166//166 165//165
f 168//168 165//165 167//167
f 170//170 169//169 171//171
f 170//170 171//171 172//172
f 174//174 176//176 175//175
f 174//174 175//175 173//173
f 177//177 176//176 174//174
f 177//177 174//174 178//178
f 179//179 177//177 178//178
f 179//179 178//178 180//180
f 182//182 181//181 179//179
f 182//182 179//179 180//180
f 184//184 183//183 185//185
f 184//184 185//185 186//186
f 188//188 190//190 189//189
f 188//188 189//189 187//187
f 191//191 190//190 188//188
f 191//191 188//188 192//192
f 193//193 191//191 192//192
f 193//193 192//192 194//194
f 196//196 195//195 193//193
f 196//196 193//193 194//194
f 198//198 197//197 199//199
f 198//198 199//199 200//200
f 202//202 204//204 203//203
f 202//202 203//203 201//201
f 205//205 204//204 202//202
f 205//205 202//202 206//206
f 207//207 205//205 206//206
f 207//207 206//206 208//208
f 210//210 209//209 207//207
f 210//210 207//207 208//208
f 212//212 211//211 213//213
f 212//212 213//213 214//214
f 216//216 218//218 217//217
f 216//216 217//217 215//215
f 219//219 218//218 216//216
f 219//219 216//216 220//220
f 221//221 219//219 220//220
f 221//221 220//220 222//222
f 224//224 223//223 221//221
f 224//224 221//221 222//222
f 226//226 228//228 227//227
f 226//226 227//227 225//225
f 229//229 228//228 226//226
f 229//229 226//226 230//230
f 231//231 229//229 230//230
f 231//231 230//230 232//232
f 234//234 233//233 231//231
f 234//234 231//231 232//232
f 236//236 235//235 237//237
f 236//236 237//237 238//238
f 240//240 242//242 241//241
f 240//240 241//241 239//239
f 243//243 242//242 240//240
f 243//243 240//240 244//244
f 245//245 243//243 244//244
f 245//245 244//244 246//246
f 248//248 247//247 245//245
f 248//248 245//245 246//246
f 250//250 249//249 251//251
f 250//250 251//251 252//252
f 254//254 256//256 255//255
f 254//254 255//255 253//253
f 257//257 256//256 254//254
f 257//257 254//254 258//258
f 259//259 257//257 258//258
f 259//259 258//258 260//260
f 262//262 261//261 259//259
f 262//262 259//259 260//260
f 264//264 263//263 265//265
f 264//264 265//265 266//266
f 268//268 270//270 269//269
f 268//268 269//269 267//267
f 271//271 270//270 268//268
f 271//271 268//268 272//272
f 273//273 271//271 272//272
f 273//273 272//272 274//274
f 276//276 275//275 273//273
f 276//276 273//273 274//274
f 278//278 277//277 279//279
f 278//278 279//279 280//280
f 282//282 284//284 283//283
f 282//282 283//283 281//281
f 285//285 284//284 282//282
f 285//285 282//282 286//286
f 287//287 285//285 286//286
f 287//287 286//286 288//288
f 290//290 289//289 287//287
f 290//290 287//287 288//288
f 292//292 291//291 293//293
f 292//292 293//293 294//294
f 296//296 298//298 297//297
f 296//296 297//297 295//295
f 299//299 298//298 296//296
f 299//299 296//296 300//300
f 301//301 299//299 300//300
f 301//301 300//300 302//302
f 304//304 303//303 301//301
f 304//304 301//301 302//302
f 306//306 305//305 307//307
f 306//306 307//307 308//308
f 310//310 312//312 311//311
f 310//310 311//311 309//309
f 313//313 312//312 310//310
f 313//313 310//310 314//314
f 315//315 313//313 314//314
f 315//315 314//314 316//316
f 318//318 317//317 315//315
f 318//318 315//315 316//316
f 320//320 319//319 321//321
f 320//320 321//321 322//322
f 324//324 326//326 325//325
f 324//324 325//325 323//323
f 327//327 326//326 324//324
f 327//327 324//324 328//328
f 329//329 327//327 328//328
f 329//329 328//328 330//330
f 332//332 331//331 329//329
f 332//332 329//329 330//330
f 334//334 333//333 335//335
f 334//334 335//335 336//336
f 338//338 337//337 339//339
f 338//338 339//339 340//340
f 342//342 341//341 343//343
f 342//342 343//343 344//344
f 346//346 345//345 347//347
f 346//346 347//347 348//348
f 350//350 349//349 351//351
f 350//350 351//351 352//352
f 354//354 353//353 355//355
f 354//354 355//355 356//356
f 358//358 357//357 359//359
f 358//358 359//359 360//360
f 362//362 361//361 363//363
f 362//362 363//363 364//364
f 366//366 365//365 367//367
f 366//366 367//367 368//368
f 372//372 370//370 369//369
f 370//370 371//371 369//369
f 372//372 373//373 370//370
f 370//370 373//373 374//374
f 375//375 371//371 370//370
f 375//375 370//370 380//380
f 377//377 376//376 375//375
f 377//377 375//375 378//378
f 379//379 378//378 375//375
f 375//375 380//380 379//379
f 380//380 370//370 381//381
f 382//382 381//381 370//370
f 382//382 383//383 381//381
f 384//384 383//383 382//382
f 385//385 384//384 382//382
f 385//385 386//386 384//384
f 386//386 385//385 388//388
f 386//386 390//390 387//387
f 386//386 388//388 389//389
f 390//390 386//386 389//389
f 391//391 387//387 390//390
f 391//391 390//390 392//392
f 392//392 390//390 393//393
f 394//394 393//393 390//390
f 394//394 390//390 395//395
f 390//390 396//396 397//397
f 390//390 397//397 395//395
f 396//396 400//400 397//397
f 400//400 396//396 398//398
f 398//398 396//396 399//399
f 396//396 401//401 399//399
f 401//401 396//396 402//402
f 396//396 403//403 402//402
f 404//404 403//403 396//396
f 405//405 403//403 404//404
f 406//406 403//403 405//405
f 406//406 407//407 403//403
f 408//408 407//407 406//406
f 408//408 409//409 407//407
f 408//408 410//410 409//409
f 411//411 410//410 408//408
f 412//412 411//411 416//416
f 412//412 413//413 411//411
f 414//414 411//411 413//413
f 417//417 411//411 414//414
f 415//415 416//416 411//411
f 417//417 418//418 411//411
f 410//410 411//411 418//418
f 417//417 419//419 418//418
f 419//419 417//417 420//420
f 420//420 417//417 421//421
f 421//421 417//417 422//422
f 423//423 421//421 422//422
f 423//423 422//422 424//424
f 424//424 422//422 426//426
f 425//425 424//424 426//426
f 422//422 427//427 426//426
f 426//426 428//428 425//425
f 429//429 428//428 426//426
f 431//431 428//428 429//429
f 430//430 431//431 429//429
f 399//399 431//431 430//430
f 430//430 398//398 399//399
f 422//422 432//432 427//427
f 433//433 427//427 432//432
f 432//432 434//434 433//433
f 432//432 435//435 434//434
f 435//435 432//432 436//436
f 436//436 432//432 437//437
f 438//438 437//437 432//432
f 438//438 432//432 439//439
f 439//439 440//440 438//438
f 441//441 440//440 442//442
f 440//440 439//439 442//442
f 441//441 442//442 443//443
f 441//441 443//443 444//444
f 445//445 441//441 444//444
f 445//445 444//444 446//446
f 445//445 446//446 447//447
f 448//448 447//447 446//446
f 448//448 446//446 449//449
f 450//450 448//448 449//449
f 450//450 449//449 451//451
f 450//450 451//451 452//452
f 395//395 453//453 452//452
f 453//453 450//450 452//452
f 397//397 453//453 395//395
f 439//439 455//455 454//454
f 432//432 455//455 439//439
f 454//454 455//455 456//456
f 457//457 456//456 455//455
f 458//458 457//457 455//455
f 455//455 459//459 458//458
f 459//459 455//455 460//460
f 376//376 460//460 455//455
f 461//461 460//460 376//376
f 461//461 376//376 463//463
f 461//461 464//464 462//462
f 461//461 463//463 465//465
f 461//461 465//465 464//464
f 462//462 464//464 466//466
f 466//466 392//392 467//467
f 466//466 467//467 462//462
f 392//392 393//393 467//467
f 463//463 376//376 468//468
f 468//468 376//376 377//377
