# deco_04 exported from /models/joints/deco_04.glb
# units: meters
v 0.023226 0.001000 0.017359
v 0.015854 0.001000 0.017359
v 0.023226 0.001000 0.010773
v 0.015854 0.001000 0.012353
v 0.012774 0.001000 0.008647
v 0.012774 0.001000 0.005198
v 0.021119 0.001000 -0.000270
v 0.014439 0.001000 -0.010440
v 0.011670 0.001000 -0.000586
v 0.008171 0.001000 -0.005913
v 0.002844 0.001000 -0.009412
v -0.002940 0.001000 -0.010515
v 0.004268 0.001000 -0.017121
v -0.006774 0.001000 -0.019227
v -0.012787 0.001000 -0.019227
v -0.012787 0.001000 -0.013785
v -0.006089 0.001000 -0.010515
v -0.007137 0.001000 -0.010515
v -0.010219 0.001000 -0.010515
v -0.010219 0.001000 -0.001828
v -0.014787 0.001000 -0.013785
v -0.020671 0.001000 -0.002641
v -0.019266 0.001000 0.004721
v -0.020671 0.001000 -0.019227
v -0.014787 0.001000 -0.019227
v -0.014813 0.001000 0.011501
v -0.007150 0.001000 0.005579
v -0.009483 0.001000 0.002028
v -0.003599 0.001000 0.007912
v -0.000671 0.001000 0.017359
v -0.008033 0.001000 0.015955
v 0.000257 0.001000 0.008647
v 0.002854 0.001000 0.012273
v 0.004854 0.001000 0.012273
v 0.002854 0.001000 0.017359
v 0.002103 0.001000 0.008647
v 0.003151 0.001000 0.008647
v 0.007865 0.001000 0.008647
v 0.008913 0.001000 0.008647
v 0.013854 0.001000 0.012353
v 0.013854 0.001000 0.017359
v 0.004854 0.001000 0.017359
v 0.000257 0.001000 0.008647
v 0.002760 0.001000 0.008647
v 0.000257 -0.001000 0.008647
v 0.002760 -0.001000 0.008647
v 0.005264 -0.001000 0.008647
v 0.005264 0.001000 0.008647
v 0.007865 -0.001000 0.008647
v 0.007865 0.001000 0.008647
v 0.010270 -0.001000 0.008647
v 0.010270 0.001000 0.008647
v 0.012774 -0.001000 0.008647
v 0.012774 0.001000 0.008647
v 0.012774 0.001000 0.008647
v 0.012774 -0.001000 0.008647
v 0.012774 0.001000 0.005198
v 0.012774 -0.001000 0.005198
v 0.012774 0.001000 0.005198
v 0.011595 0.001000 -0.000772
v 0.012774 -0.001000 0.005198
v 0.011595 -0.001000 -0.000772
v 0.008055 -0.001000 -0.006028
v 0.008055 0.001000 -0.006028
v 0.002771 -0.001000 -0.009441
v 0.002771 0.001000 -0.009441
v -0.002940 -0.001000 -0.010515
v -0.002940 0.001000 -0.010515
v -0.002940 0.001000 -0.010515
v -0.005366 0.001000 -0.010515
v -0.002940 -0.001000 -0.010515
v -0.005366 -0.001000 -0.010515
v -0.007792 -0.001000 -0.010515
v -0.007792 0.001000 -0.010515
v -0.010219 -0.001000 -0.010515
v -0.010219 0.001000 -0.010515
v -0.010219 0.001000 -0.010515
v -0.010219 -0.001000 -0.010515
v -0.010219 0.001000 -0.001828
v -0.010219 -0.001000 -0.001828
v -0.010219 0.001000 -0.001828
v -0.009433 0.001000 0.002152
v -0.010219 -0.001000 -0.001828
v -0.009433 -0.001000 0.002152
v -0.007073 -0.001000 0.005656
v -0.007073 0.001000 0.005656
v -0.003550 -0.001000 0.007931
v -0.003550 0.001000 0.007931
v 0.000257 -0.001000 0.008647
v 0.000257 0.001000 0.008647
v -0.006774 0.001000 -0.019227
v -0.001137 0.000000 -0.018692
v -0.001137 0.001000 -0.018692
v -0.006774 -0.001000 -0.019227
v -0.001137 -0.001000 -0.018692
v 0.004623 -0.001000 -0.016978
v 0.004623 0.000000 -0.016978
v 0.014659 -0.001000 -0.010218
v 0.014659 0.001000 -0.010218
v 0.021174 0.000000 -0.000130
v 0.021174 -0.001000 -0.000130
v 0.022738 -0.001000 0.005384
v 0.023226 -0.001000 0.010773
v 0.022738 -0.000000 0.005384
v 0.023226 0.001000 0.010773
v 0.022738 0.001000 0.005384
v 0.021174 0.001000 -0.000130
v 0.004623 0.001000 -0.016978
v 0.023226 0.001000 0.010773
v 0.023226 -0.001000 0.010773
v 0.023226 0.001000 0.017359
v 0.023226 -0.001000 0.017359
v 0.023226 0.001000 0.017359
v 0.023226 -0.001000 0.017359
v 0.015854 0.001000 0.017359
v 0.015854 -0.001000 0.017359
v 0.015854 0.001000 0.017359
v 0.015854 -0.001000 0.017359
v 0.015854 0.001000 0.012353
v 0.015854 -0.001000 0.012353
v 0.015854 0.001000 0.012353
v 0.015854 -0.001000 0.012353
v 0.013854 0.001000 0.012353
v 0.013854 -0.001000 0.012353
v 0.013854 0.001000 0.012353
v 0.013854 -0.001000 0.012353
v 0.013854 0.001000 0.017359
v 0.013854 -0.001000 0.017359
v 0.013854 0.001000 0.017359
v 0.013854 -0.001000 0.017359
v 0.004854 0.001000 0.017359
v 0.004854 -0.001000 0.017359
v 0.004854 0.001000 0.017359
v 0.004854 -0.001000 0.017359
v 0.004854 0.001000 0.012273
v 0.004854 -0.001000 0.012273
v 0.004854 0.001000 0.012273
v 0.004854 -0.001000 0.012273
v 0.002854 0.001000 0.012273
v 0.002854 -0.001000 0.012273
v 0.002854 0.001000 0.012273
v 0.002854 -0.001000 0.012273
v 0.002854 0.001000 0.017359
v 0.002854 -0.001000 0.017359
v 0.002854 0.001000 0.017359
v 0.002854 -0.001000 0.017359
v -0.000671 0.001000 0.017359
v -0.000671 -0.001000 0.017359
v -0.000671 0.001000 0.017359
v -0.008269 0.001000 0.015859
v -0.000671 -0.001000 0.017359
v -0.008269 -0.001000 0.015859
v -0.014959 -0.001000 0.011353
v -0.014959 0.001000 0.011353
v -0.019303 -0.001000 0.004628
v -0.019303 0.001000 0.004628
v -0.020671 -0.001000 -0.002641
v -0.020671 0.001000 -0.002641
v -0.020671 0.001000 -0.002641
v -0.020671 -0.001000 -0.002641
v -0.020671 0.001000 -0.019227
v -0.020671 -0.001000 -0.019227
v -0.020671 0.001000 -0.019227
v -0.020671 -0.001000 -0.019227
v -0.014787 0.001000 -0.019227
v -0.014787 -0.001000 -0.019227
v -0.014787 0.001000 -0.019227
v -0.014787 -0.001000 -0.019227
v -0.014787 0.001000 -0.013785
v -0.014787 -0.001000 -0.013785
v -0.014787 0.001000 -0.013785
v -0.014787 -0.001000 -0.013785
v -0.012787 0.001000 -0.013785
v -0.012787 -0.001000 -0.013785
v -0.012787 0.001000 -0.013785
v -0.012787 -0.001000 -0.013785
v -0.012787 0.001000 -0.019227
v -0.012787 -0.001000 -0.019227
v -0.012787 0.001000 -0.019227
v -0.012787 -0.001000 -0.019227
v -0.006774 0.001000 -0.019227
v -0.006774 -0.001000 -0.019227
v 0.023226 -0.001000 0.017359
v 0.015854 -0.001000 0.017359
v 0.023226 -0.001000 0.010773
v 0.021119 -0.001000 -0.000270
v 0.015854 -0.001000 0.012353
v 0.012774 -0.001000 0.008647
v 0.012774 -0.001000 0.005198
v 0.011670 -0.001000 -0.000586
v 0.008171 -0.001000 -0.005913
v 0.014439 -0.001000 -0.010440
v 0.004268 -0.001000 -0.017121
v 0.002844 -0.001000 -0.009412
v -0.002940 -0.001000 -0.010515
v -0.006774 -0.001000 -0.019227
v -0.006089 -0.001000 -0.010515
v -0.007137 -0.001000 -0.010515
v -0.010219 -0.001000 -0.010515
v -0.012787 -0.001000 -0.013785
v -0.014787 -0.001000 -0.013785
v -0.012787 -0.001000 -0.019227
v -0.020671 -0.001000 -0.002641
v -0.020671 -0.001000 -0.019227
v -0.014787 -0.001000 -0.019227
v -0.019266 -0.001000 0.004721
v -0.010219 -0.001000 -0.001828
v -0.009483 -0.001000 0.002028
v -0.007150 -0.001000 0.005579
v -0.014813 -0.001000 0.011501
v -0.003599 -0.001000 0.007912
v -0.008033 -0.001000 0.015955
v 0.000257 -0.001000 0.008647
v 0.002854 -0.001000 0.012273
v -0.000671 -0.001000 0.017359
v 0.002854 -0.001000 0.017359
v 0.004854 -0.001000 0.012273
v 0.002103 -0.001000 0.008647
v 0.003151 -0.001000 0.008647
v 0.007865 -0.001000 0.008647
v 0.008913 -0.001000 0.008647
v 0.013854 -0.001000 0.012353
v 0.013854 -0.001000 0.017359
v 0.004854 -0.001000 0.017359
vn 0.000000 1.000000 0.000000
vn 0.000000 1.000000 0.000000
vn 0.000000 1.000000 0.000000
vn 0.000000 1.000000 0.000000
vn 0.000000 1.000000 0.000000
vn 0.000000 1.000000 0.000000
vn 0.000000 1.000000 0.000000
vn 0.000000 1.000000 0.000000
vn 0.000000 1.000000 0.000000
vn 0.000000 1.000000 0.000000
vn 0.000000 1.000000 0.000000
vn 0.000000 1.000000 0.000000
vn 0.000000 1.000000 0.000000
vn 0.000000 1.000000 0.000000
vn 0.000000 1.000000 0.000000
vn 0.000000 1.000000 0.000000
vn 0.000000 1.000000 0.000000
vn 0.000000 1.000000 0.000000
vn 0.000000 1.000000 0.000000
vn 0.000000 1.000000 0.000000
vn 0.000000 1.000000 0.000000
vn 0.000000 1.000000 0.000000
vn 0.000000 1.000000 0.000000
vn 0.000000 1.000000 0.000000
vn 0.000000 1.000000 0.000000
vn 0.000000 1.000000 0.000000
vn 0.000000 1.000000 0.000000
vn 0.000000 1.000000 0.000000
vn 0.000000 1.000000 0.000000
vn 0.000000 1.000000 0.000000
vn 0.000000 1.000000 0.000000
vn 0.000000 1.000000 0.000000
vn 0.000000 1.000000 0.000000
vn 0.000000 1.000000 0.000000
vn 0.000000 1.000000 0.000000
vn 0.000000 1.000000 0.000000
vn 0.000000 1.000000 0.000000
vn 0.000000 1.000000 0.000000
vn 0.000000 1.000000 0.000000
vn 0.000000 1.000000 0.000000
vn 0.000000 1.000000 0.000000
vn 0.000000 1.000000 0.000000
vn 0.000000 0.000000 -1.000000
vn 0.000000 0.000000 -1.000000
vn 0.000000 0.000000 -1.000000
vn 0.000000 0.000000 -1.000000
vn 0.000000 0.000000 -1.000000
vn 0.000000 0.000000 -1.000000
vn 0.000000 0.000000 -1.000000
vn 0.000000 0.000000 -1.000000
vn 0.000000 0.000000 -1.000000
vn 0.000000 0.000000 -1.000000
vn 0.000000 0.000000 -1.000000
vn 0.000000 0.000000 -1.000000
vn -1.000000 0.000000 0.000000
vn -1.000000 0.000000 0.000000
vn -1.000000 0.000000 0.000000
vn -1.000000 0.000000 0.000000
vn -1.000000 -0.000000 0.000100
vn -0.925024 -0.000000 0.379910
vn -1.000000 -0.000000 0.000100
vn -0.925024 -0.000000 0.379910
vn -0.699668 -0.000000 0.714468
vn -0.699668 -0.000000 0.714468
vn -0.363498 -0.000000 0.931595
vn -0.363498 -0.000000 0.931595
vn -0.000100 -0.000000 1.000000
vn -0.000100 -0.000000 1.000000
vn 0.000000 -0.000000 1.000000
vn 0.000000 -0.000000 1.000000
vn 0.000000 -0.000000 1.000000
vn 0.000000 -0.000000 1.000000
vn 0.000000 -0.000000 1.000000
vn 0.000000 -0.000000 1.000000
vn 0.000000 -0.000000 1.000000
vn 0.000000 -0.000000 1.000000
vn 1.000000 0.000000 0.000000
vn 1.000000 0.000000 0.000000
vn 1.000000 0.000000 0.000000
vn 1.000000 0.000000 0.000000
vn 1.000000 0.000000 -0.000100
vn 0.925024 0.000000 -0.379910
vn 1.000000 0.000000 -0.000100
vn 0.925024 0.000000 -0.379910
vn 0.699718 0.000000 -0.714419
vn 0.699718 0.000000 -0.714419
vn 0.363498 0.000000 -0.931595
vn 0.363498 0.000000 -0.931595
vn 0.000100 0.000000 -1.000000
vn 0.000100 0.000000 -1.000000
vn 0.000000 0.000000 -1.000000
vn 0.187898 0.000000 -0.982189
vn 0.187994 0.000000 -0.982170
vn 0.000000 0.000000 -1.000000
vn 0.187994 0.000000 -0.982170
vn 0.379910 0.000000 -0.925024
vn 0.379910 0.000000 -0.925024
vn 0.714221 0.000000 -0.699920
vn 0.714320 0.000000 -0.699819
vn 0.931595 0.000000 -0.363498
vn 0.931595 0.000000 -0.363498
vn 0.983738 0.000000 -0.179607
vn 1.000000 0.000000 0.000000
vn 0.983738 0.000000 -0.179607
vn 1.000000 0.000000 0.000000
vn 0.983738 0.000000 -0.179607
vn 0.931595 0.000000 -0.363498
vn 0.379910 0.000000 -0.925024
vn 1.000000 0.000000 0.000000
vn 1.000000 0.000000 0.000000
vn 1.000000 0.000000 0.000000
vn 1.000000 0.000000 0.000000
vn 0.000000 -0.000000 1.000000
vn 0.000000 -0.000000 1.000000
vn 0.000000 -0.000000 1.000000
vn 0.000000 -0.000000 1.000000
vn -1.000000 0.000000 0.000000
vn -1.000000 0.000000 0.000000
vn -1.000000 0.000000 0.000000
vn -1.000000 0.000000 0.000000
vn 0.000000 -0.000000 1.000000
vn 0.000000 -0.000000 1.000000
vn 0.000000 -0.000000 1.000000
vn 0.000000 -0.000000 1.000000
vn 1.000000 0.000000 0.000000
vn 1.000000 0.000000 0.000000
vn 1.000000 0.000000 0.000000
vn 1.000000 0.000000 0.000000
vn 0.000000 -0.000000 1.000000
vn 0.000000 -0.000000 1.000000
vn 0.000000 -0.000000 1.000000
vn 0.000000 -0.000000 1.000000
vn -1.000000 0.000000 0.000000
vn -1.000000 0.000000 0.000000
vn -1.000000 0.000000 0.000000
vn -1.000000 0.000000 0.000000
vn 0.000000 -0.000000 1.000000
vn 0.000000 -0.000000 1.000000
vn 0.000000 -0.000000 1.000000
vn 0.000000 -0.000000 1.000000
vn 1.000000 0.000000 0.000000
vn 1.000000 0.000000 0.000000
vn 1.000000 0.000000 0.000000
vn 1.000000 0.000000 0.000000
vn 0.000000 -0.000000 1.000000
vn 0.000000 -0.000000 1.000000
vn 0.000000 -0.000000 1.000000
vn 0.000000 -0.000000 1.000000
vn -0.000100 -0.000100 1.000000
vn -0.379910 -0.000000 0.925024
vn -0.000100 -0.000000 1.000000
vn -0.379910 -0.000000 0.925024
vn -0.714468 -0.000000 0.699668
vn -0.714468 -0.000000 0.699668
vn -0.931595 -0.000000 0.363498
vn -0.931595 -0.000000 0.363498
vn -1.000000 -0.000000 0.000100
vn -1.000000 -0.000000 0.000100
vn -1.000000 0.000000 0.000000
vn -1.000000 0.000000 0.000000
vn -1.000000 0.000000 0.000000
vn -1.000000 0.000000 0.000000
vn 0.000000 0.000000 -1.000000
vn 0.000000 0.000000 -1.000000
vn 0.000000 0.000000 -1.000000
vn 0.000000 0.000000 -1.000000
vn 1.000000 0.000000 0.000000
vn 1.000000 0.000000 0.000000
vn 1.000000 0.000000 0.000000
vn 1.000000 0.000000 0.000000
vn 0.000000 0.000000 -1.000000
vn 0.000000 0.000000 -1.000000
vn 0.000000 0.000000 -1.000000
vn 0.000000 0.000000 -1.000000
vn -1.000000 0.000000 0.000000
vn -1.000000 0.000000 0.000000
vn -1.000000 0.000000 0.000000
vn -1.000000 0.000000 0.000000
vn 0.000000 0.000000 -1.000000
vn 0.000000 0.000000 -1.000000
vn 0.000000 0.000000 -1.000000
vn 0.000000 0.000000 -1.000000
vn 0.000000 -1.000000 -0.000000
vn 0.000000 -1.000000 -0.000000
vn 0.000000 -1.000000 -0.000000
vn 0.000000 -1.000000 -0.000000
vn 0.000000 -1.000000 -0.000000
vn 0.000000 -1.000000 -0.000000
vn 0.000000 -1.000000 -0.000000
vn 0.000000 -1.000000 -0.000000
vn 0.000000 -1.000000 -0.000000
vn 0.000000 -1.000000 -0.000000
vn 0.000000 -1.000000 -0.000000
vn 0.000000 -1.000000 -0.000000
vn 0.000000 -1.000000 -0.000000
vn 0.000000 -1.000000 -0.000000
vn 0.000000 -1.000000 -0.000000
vn 0.000000 -1.000000 -0.000000
vn 0.000000 -1.000000 -0.000000
vn 0.000000 -1.000000 -0.000000
vn 0.000000 -1.000000 -0.000000
vn 0.000000 -1.000000 -0.000000
vn 0.000000 -1.000000 -0.000000
vn 0.000000 -1.000000 -0.000000
vn 0.000000 -1.000000 -0.000000
vn 0.000000 -1.000000 -0.000000
vn 0.000000 -1.000000 -0.000000
vn 0.000000 -1.000000 -0.000000
vn 0.000000 -1.000000 -0.000000
vn 0.000000 -1.000000 -0.000000
vn 0.000000 -1.000000 -0.000000
vn 0.000000 -1.000000 -0.000000
vn 0.000000 -1.000000 -0.000000
vn 0.000000 -1.000000 -0.000000
vn 0.000000 -1.000000 -0.000000
vn 0.000000 -1.000000 -0.000000
vn 0.000000 -1.000000 -0.000000
vn 0.000000 -1.000000 -0.000000
vn 0.000000 -1.000000 -0.000000
vn 0.000000 -1.000000 -0.000000
vn 0.000000 -1.000000 -0.000000
vn 0.000000 -1.000000 -0.000000
vn 0.000000 -1.000000 -0.000000
vn 0.000000 -1.000000 -0.000000
f 2//2 1//1 3//3
f 2//2 3//3 4//4
f 3//3 5//5 4//4
f 6//6 5//5 3//3
f 3//3 7//7 6//6
f 9//9 7//7 8//8
f 7//7 9//9 6//6
f 10//10 9//9 8//8
f 8//8 11//11 10//10
f 13//13 12//12 11//11
f 8//8 13//13 11//11
f 14//14 12//12 13//13
f 15//15 16//16 14//14
f 16//16 18//18 14//14
f 12//12 14//14 17//17
f 17//17 14//14 18//18
f 18//18 16//16 19//19
f 22//22 20//20 19//19
f 19//19 16//16 21//21
f 19//19 21//21 22//22
f 20//20 22//22 23//23
f 22//22 21//21 24//24
f 25//25 24//24 21//21
f 27//27 23//23 26//26
f 23//23 27//27 28//28
f 23//23 28//28 20//20
f 26//26 29//29 27//27
f 30//30 33//33 29//29
f 31//31 30//30 29//29
f 29//29 26//26 31//31
f 33//33 32//32 29//29
f 37//37 33//33 34//34
f 35//35 33//33 30//30
f 33//33 36//36 32//32
f 33//33 37//37 36//36
f 37//37 34//34 38//38
f 39//39 38//38 34//34
f 34//34 40//40 39//39
f 39//39 40//40 5//5
f 5//5 40//40 4//4
f 40//40 34//34 42//42
f 40//40 42//42 41//41
f 44//44 46//46 45//45
f 44//44 45//45 43//43
f 47//47 46//46 44//44
f 47//47 44//44 48//48
f 49//49 47//47 48//48
f 49//49 48//48 50//50
f 51//51 49//49 50//50
f 51//51 50//50 52//52
f 54//54 53//53 51//51
f 54//54 51//51 52//52
f 56//56 55//55 57//57
f 56//56 57//57 58//58
f 60//60 62//62 61//61
f 60//60 61//61 59//59
f 63//63 62//62 60//60
f 63//63 60//60 64//64
f 65//65 63//63 64//64
f 65//65 64//64 66//66
f 68//68 67//67 65//65
f 68//68 65//65 66//66
f 70//70 72//72 71//71
f 70//70 71//71 69//69
f 73//73 72//72 70//70
f 73//73 70//70 74//74
f 76//76 75//75 73//73
f 76//76 73//73 74//74
f 78//78 77//77 79//79
f 78//78 79//79 80//80
f 82//82 84//84 83//83
f 82//82 83//83 81//81
f 85//85 84//84 82//82
f 85//85 82//82 86//86
f 87//87 85//85 86//86
f 87//87 86//86 88//88
f 90//90 89//89 87//87
f 90//90 87//87 88//88
f 91//91 92//92 94//94
f 92//92 91//91 93//93
f 95//95 94//94 92//92
f 96//96 95//95 92//92
f 96//96 92//92 97//97
f 98//98 96//96 97//97
f 98//98 99//99 100//100
f 99//99 98//98 97//97
f 100//100 101//101 98//98
f 102//102 101//101 100//100
f 102//102 100//100 104//104
f 102//102 104//104 103//103
f 105//105 103//103 104//104
f 104//104 106//106 105//105
f 104//104 100//100 107//107
f 104//104 107//107 106//106
f 99//99 107//107 100//100
f 97//97 108//108 99//99
f 97//97 92//92 93//93
f 97//97 93//93 108//108
f 110//110 109//109 111//111
f 110//110 111//111 112//112
f 114//114 113//113 115//115
f 114//114 115//115 116//116
f 118//118 117//117 119//119
f 118//118 119//119 120//120
f 122//122 121//121 123//123
f 122//122 123//123 124//124
f 126//126 125//125 127//127
f 126//126 127//127 128//128
f 130//130 129//129 131//131
f 130//130 131//131 132//132
f 134//134 133//133 135//135
f 134//134 135//135 136//136
f 138//138 137//137 139//139
f 138//138 139//139 140//140
f 142//142 141//141 143//143
f 142//142 143//143 144//144
f 146//146 145//145 147//147
f 146//146 147//147 148//148
f 150//150 152//152 151//151
f 150//150 151//151 149//149
f 153//153 152//152 150//150
f 153//153 150//150 154//154
f 155//155 153//153 154//154
f 155//155 154//154 156//156
f 158//158 157//157 155//155
f 158//158 155//155 156//156
f 160//160 159//159 161//161
f 160//160 161//161 162//162
f 164//164 163//163 165//165
f 164//164 165//165 166//166
f 168//168 167//167 169//169
f 168//168 169//169 170//170
f 172//172 171//171 173//173
f 172//172 173//173 174//174
f 176//176 175//175 177//177
f 176//176 177//177 178//178
f 180//180 179//179 181//181
f 180//180 181//181 182//182
f 184//184 187//187 185//185
f 184//184 185//185 183//183
f 185//185 189//189 186//186
f 185//185 187//187 188//188
f 189//189 185//185 188//188
f 186//186 189//189 190//190
f 191//191 192//192 190//190
f 190//190 192//192 186//186
f 192//192 194//194 193//193
f 192//192 191//191 194//194
f 193//193 194//194 195//195
f 196//196 193//193 195//195
f 195//195 197//197 196//196
f 197//197 198//198 196//196
f 200//200 196//196 198//198
f 198//198 199//199 200//200
f 202//202 196//196 200//200
f 199//199 201//201 200//200
f 203//203 204//204 201//201
f 199//199 203//203 201//201
f 205//205 201//201 204//204
f 207//207 206//206 203//203
f 203//203 199//199 207//207
f 206//206 207//207 208//208
f 206//206 208//208 209//209
f 209//209 210//210 206//206
f 210//210 209//209 211//211
f 211//211 212//212 210//210
f 212//212 211//211 215//215
f 214//214 211//211 213//213
f 215//215 211//211 214//214
f 216//216 215//215 214//214
f 219//219 217//217 214//214
f 214//214 218//218 219//219
f 214//214 213//213 218//218
f 219//219 220//220 217//217
f 221//221 217//217 220//220
f 217//217 221//221 222//222
f 221//221 188//188 222//222
f 188//188 187//187 222//222
f 222//222 223//223 224//224
f 222//222 224//224 217//217
