# deco_05 exported from /models/joints/deco_05.glb
# units: meters
v 0.003228 0.001000 0.027587
v 0.002860 0.001000 0.027516
v 0.002228 0.001000 0.026587
v 0.004937 0.001000 0.005776
v 0.004937 0.001000 0.027587
v 0.006937 0.001000 0.005776
v 0.005469 0.001000 0.002969
v 0.005101 0.001000 0.002899
v 0.004539 0.001000 0.002337
v 0.004762 0.001000 0.002676
v 0.004469 0.001000 0.001969
v 0.004469 0.001000 -0.016845
v 0.002228 0.001000 -0.013665
v 0.003205 0.001000 -0.018704
v 0.002088 0.001000 -0.014402
v 0.003883 0.001000 -0.018259
v 0.004328 0.001000 -0.017581
v 0.002469 0.001000 -0.018845
v 0.001643 0.001000 -0.015080
v 0.000965 0.001000 -0.015525
v 0.000229 0.001000 -0.015665
v 0.000082 0.001000 -0.015665
v -0.000654 0.001000 -0.015525
v -0.001332 0.001000 -0.015080
v -0.005761 0.001000 -0.018845
v -0.006497 0.001000 -0.018985
v -0.004627 0.001000 -0.016250
v -0.006627 0.001000 -0.016250
v -0.006627 0.001000 0.027587
v -0.009844 0.001000 0.025587
v -0.007175 0.001000 -0.019431
v -0.007621 0.001000 -0.020109
v -0.007761 0.001000 -0.020845
v -0.009844 0.001000 -0.027407
v -0.009259 0.001000 -0.028821
v -0.009704 0.001000 -0.028143
v -0.007761 0.001000 -0.024791
v -0.007621 0.001000 -0.025527
v -0.008581 0.001000 -0.029266
v -0.007844 0.001000 -0.029407
v -0.006497 0.001000 -0.026650
v -0.007175 0.001000 -0.026205
v -0.005761 0.001000 -0.026791
v 0.008155 0.001000 -0.029407
v 0.005775 0.001000 -0.026791
v 0.006511 0.001000 -0.026650
v 0.007189 0.001000 -0.026205
v 0.007634 0.001000 -0.025527
v 0.008891 0.001000 -0.029266
v 0.007775 0.001000 -0.024791
v 0.009569 0.001000 -0.028821
v 0.010014 0.001000 -0.028143
v 0.010155 0.001000 -0.027407
v 0.010155 0.001000 0.025587
v 0.008891 0.001000 0.027446
v 0.008155 0.001000 0.027587
v 0.010014 0.001000 0.026323
v 0.009569 0.001000 0.027001
v 0.007705 0.001000 0.002337
v 0.007775 0.001000 0.001969
v 0.007482 0.001000 0.002676
v 0.007143 0.001000 0.002899
v 0.006775 0.001000 0.002969
v 0.006937 0.001000 0.027587
v -0.008581 0.001000 0.027446
v -0.009259 0.001000 0.027001
v -0.009704 0.001000 0.026323
v -0.007844 0.001000 0.027587
v -0.004627 0.001000 0.027587
v -0.001778 0.001000 -0.014402
v -0.001918 0.001000 -0.013665
v -0.001918 0.001000 0.026587
v -0.002918 0.001000 0.027587
v -0.002211 0.001000 0.027294
v -0.002550 0.001000 0.027516
v -0.001988 0.001000 0.026955
v 0.002521 0.001000 0.027294
v 0.002299 0.001000 0.026955
v 0.002469 0.001000 -0.018845
v 0.003229 0.001000 -0.018695
v 0.002469 -0.001000 -0.018845
v 0.003229 -0.001000 -0.018695
v 0.003898 -0.001000 -0.018244
v 0.003898 0.001000 -0.018244
v 0.004332 -0.001000 -0.017572
v 0.004332 0.001000 -0.017572
v 0.004469 -0.001000 -0.016845
v 0.004469 0.001000 -0.016845
v 0.004469 0.001000 -0.016845
v 0.004469 -0.001000 -0.016845
v 0.004469 0.001000 0.001969
v 0.004469 -0.001000 0.001969
v 0.004469 0.001000 0.001969
v 0.004544 0.001000 0.002349
v 0.004469 -0.001000 0.001969
v 0.004544 -0.001000 0.002349
v 0.004769 -0.001000 0.002683
v 0.004769 0.001000 0.002683
v 0.005105 -0.001000 0.002900
v 0.005105 0.001000 0.002900
v 0.005469 -0.001000 0.002969
v 0.005469 0.001000 0.002969
v 0.005469 0.001000 0.002969
v 0.005469 -0.001000 0.002969
v 0.006775 0.001000 0.002969
v 0.006775 -0.001000 0.002969
v 0.006775 0.001000 0.002969
v 0.007155 0.001000 0.002894
v 0.006775 -0.001000 0.002969
v 0.007155 -0.001000 0.002894
v 0.007489 -0.001000 0.002669
v 0.007489 0.001000 0.002669
v 0.007706 -0.001000 0.002332
v 0.007706 0.001000 0.002332
v 0.007775 -0.001000 0.001969
v 0.007775 0.001000 0.001969
v 0.007775 0.001000 0.001969
v 0.007775 -0.001000 0.001969
v 0.007775 0.001000 -0.024791
v 0.007775 -0.001000 -0.024791
v 0.007775 0.001000 -0.024791
v 0.007625 0.001000 -0.025551
v 0.007775 -0.001000 -0.024791
v 0.007625 -0.001000 -0.025551
v 0.007174 -0.001000 -0.026220
v 0.007174 0.001000 -0.026220
v 0.006502 -0.001000 -0.026654
v 0.006502 0.001000 -0.026654
v 0.005775 -0.001000 -0.026791
v 0.005775 0.001000 -0.026791
v 0.005775 0.001000 -0.026791
v 0.005775 -0.001000 -0.026791
v -0.005761 0.001000 -0.026791
v -0.005761 -0.001000 -0.026791
v -0.005761 0.001000 -0.026791
v -0.006521 0.001000 -0.026641
v -0.005761 -0.001000 -0.026791
v -0.006521 -0.001000 -0.026641
v -0.007190 -0.001000 -0.026190
v -0.007190 0.001000 -0.026190
v -0.007624 -0.001000 -0.025518
v -0.007624 0.001000 -0.025518
v -0.007761 -0.001000 -0.024791
v -0.007761 0.001000 -0.024791
v -0.007761 0.001000 -0.024791
v -0.007761 -0.001000 -0.024791
v -0.007761 0.001000 -0.020845
v -0.007761 -0.001000 -0.020845
v -0.007761 0.001000 -0.020845
v -0.007611 0.001000 -0.020085
v -0.007761 -0.001000 -0.020845
v -0.007611 -0.001000 -0.020085
v -0.007161 -0.001000 -0.019416
v -0.007161 0.001000 -0.019416
v -0.006488 -0.001000 -0.018982
v -0.006488 0.001000 -0.018982
v -0.005761 -0.001000 -0.018845
v -0.005761 0.001000 -0.018845
v -0.005761 0.001000 -0.018845
v -0.005761 -0.001000 -0.018845
v 0.002469 0.001000 -0.018845
v 0.002469 -0.001000 -0.018845
v 0.003228 0.001000 0.027587
v 0.002849 0.001000 0.027512
v 0.003228 -0.001000 0.027587
v 0.002849 -0.001000 0.027512
v 0.002514 -0.001000 0.027286
v 0.002514 0.001000 0.027286
v 0.002297 -0.001000 0.026950
v 0.002297 0.001000 0.026950
v 0.002228 -0.001000 0.026587
v 0.002228 0.001000 0.026587
v 0.002228 0.001000 0.026587
v 0.002228 -0.001000 0.026587
v 0.002228 0.001000 -0.013665
v 0.002228 -0.001000 -0.013665
v 0.002228 0.001000 -0.013665
v 0.002079 0.001000 -0.014425
v 0.002228 -0.001000 -0.013665
v 0.002079 -0.001000 -0.014425
v 0.001628 -0.001000 -0.015094
v 0.001628 0.001000 -0.015094
v 0.000955 -0.001000 -0.015529
v 0.000955 0.001000 -0.015529
v 0.000229 -0.001000 -0.015665
v 0.000229 0.001000 -0.015665
v 0.000229 0.001000 -0.015665
v 0.000229 -0.001000 -0.015665
v 0.000082 0.001000 -0.015665
v 0.000082 -0.001000 -0.015665
v 0.000082 0.001000 -0.015665
v -0.000678 0.001000 -0.015515
v 0.000082 -0.001000 -0.015665
v -0.000678 -0.001000 -0.015515
v -0.001347 -0.001000 -0.015065
v -0.001347 0.001000 -0.015065
v -0.001781 -0.001000 -0.014392
v -0.001781 0.001000 -0.014392
v -0.001918 -0.001000 -0.013665
v -0.001918 0.001000 -0.013665
v -0.001918 0.001000 -0.013665
v -0.001918 -0.001000 -0.013665
v -0.001918 0.001000 0.026587
v -0.001918 -0.001000 0.026587
v -0.001918 0.001000 0.026587
v -0.001993 0.001000 0.026967
v -0.001918 -0.001000 0.026587
v -0.001993 -0.001000 0.026967
v -0.002218 -0.001000 0.027301
v -0.002218 0.001000 0.027301
v -0.002555 -0.001000 0.027518
v -0.002555 0.001000 0.027518
v -0.002918 -0.001000 0.027587
v -0.002918 0.001000 0.027587
v -0.002918 0.001000 0.027587
v -0.002918 -0.001000 0.027587
v -0.004627 0.001000 0.027587
v -0.004627 -0.001000 0.027587
v -0.004627 0.001000 0.027587
v -0.004627 -0.001000 0.027587
v -0.004627 0.001000 -0.016250
v -0.004627 -0.001000 -0.016250
v -0.004627 0.001000 -0.016250
v -0.004627 -0.001000 -0.016250
v -0.006627 0.001000 -0.016250
v -0.006627 -0.001000 -0.016250
v -0.006627 0.001000 -0.016250
v -0.006627 -0.001000 -0.016250
v -0.006627 0.001000 0.027587
v -0.006627 -0.001000 0.027587
v -0.006627 0.001000 0.027587
v -0.006627 -0.001000 0.027587
v -0.007844 0.001000 0.027587
v -0.007844 -0.001000 0.027587
v -0.007844 0.001000 0.027587
v -0.008604 0.001000 0.027437
v -0.007844 -0.001000 0.027587
v -0.008604 -0.001000 0.027437
v -0.009273 -0.001000 0.026986
v -0.009273 0.001000 0.026986
v -0.009708 -0.001000 0.026314
v -0.009708 0.001000 0.026314
v -0.009844 -0.001000 0.025587
v -0.009844 0.001000 0.025587
v -0.009844 0.001000 0.025587
v -0.009844 -0.001000 0.025587
v -0.009844 0.001000 -0.027407
v -0.009844 -0.001000 -0.027407
v -0.009844 0.001000 -0.027407
v -0.009694 0.001000 -0.028167
v -0.009844 -0.001000 -0.027407
v -0.009694 -0.001000 -0.028167
v -0.009244 -0.001000 -0.028836
v -0.009244 0.001000 -0.028836
v -0.008571 -0.001000 -0.029270
v -0.008571 0.001000 -0.029270
v -0.007844 -0.001000 -0.029407
v -0.007844 0.001000 -0.029407
v -0.007844 0.001000 -0.029407
v -0.007844 -0.001000 -0.029407
v 0.008155 0.001000 -0.029407
v 0.008155 -0.001000 -0.029407
v 0.008155 0.001000 -0.029407
v 0.008915 0.001000 -0.029257
v 0.008155 -0.001000 -0.029407
v 0.008915 -0.001000 -0.029257
v 0.009584 -0.001000 -0.028806
v 0.009584 0.001000 -0.028806
v 0.010018 -0.001000 -0.028134
v 0.010018 0.001000 -0.028134
v 0.010155 -0.001000 -0.027407
v 0.010155 0.001000 -0.027407
v 0.010155 0.001000 -0.027407
v 0.010155 -0.001000 -0.027407
v 0.010155 0.001000 0.025587
v 0.010155 -0.001000 0.025587
v 0.010155 0.001000 0.025587
v 0.010005 0.001000 0.026347
v 0.010155 -0.001000 0.025587
v 0.010005 -0.001000 0.026347
v 0.009554 -0.001000 0.027016
v 0.009554 0.001000 0.027016
v 0.008882 -0.001000 0.027450
v 0.008882 0.001000 0.027450
v 0.008155 -0.001000 0.027587
v 0.008155 0.001000 0.027587
v 0.008155 0.001000 0.027587
v 0.008155 -0.001000 0.027587
v 0.006937 0.001000 0.027587
v 0.006937 -0.001000 0.027587
v 0.006937 0.001000 0.027587
v 0.006937 -0.001000 0.027587
v 0.006937 0.001000 0.005776
v 0.006937 -0.001000 0.005776
v 0.006937 0.001000 0.005776
v 0.006937 -0.001000 0.005776
v 0.004937 0.001000 0.005776
v 0.004937 -0.001000 0.005776
v 0.004937 0.001000 0.005776
v 0.004937 -0.001000 0.005776
v 0.004937 0.001000 0.027587
v 0.004937 -0.001000 0.027587
v 0.004937 0.001000 0.027587
v 0.004937 -0.001000 0.027587
v 0.003228 0.001000 0.027587
v 0.003228 -0.001000 0.027587
v 0.003228 -0.001000 0.027587
v 0.002228 -0.001000 0.026587
v 0.002860 -0.001000 0.027516
v 0.004937 -0.001000 0.005776
v 0.004937 -0.001000 0.027587
v 0.006937 -0.001000 0.005776
v 0.005469 -0.001000 0.002969
v 0.005101 -0.001000 0.002899
v 0.004762 -0.001000 0.002676
v 0.004539 -0.001000 0.002337
v 0.004469 -0.001000 0.001969
v 0.004469 -0.001000 -0.016845
v 0.002228 -0.001000 -0.013665
v 0.003205 -0.001000 -0.018704
v 0.002088 -0.001000 -0.014402
v 0.003883 -0.001000 -0.018259
v 0.004328 -0.001000 -0.017581
v 0.002469 -0.001000 -0.018845
v 0.001643 -0.001000 -0.015080
v 0.000965 -0.001000 -0.015525
v 0.000229 -0.001000 -0.015665
v 0.000082 -0.001000 -0.015665
v -0.000654 -0.001000 -0.015525
v -0.001332 -0.001000 -0.015080
v -0.005761 -0.001000 -0.018845
v -0.006497 -0.001000 -0.018985
v -0.004627 -0.001000 -0.016250
v -0.006627 -0.001000 -0.016250
v -0.009844 -0.001000 0.025587
v -0.006627 -0.001000 0.027587
v -0.007175 -0.001000 -0.019431
v -0.007621 -0.001000 -0.020109
v -0.007761 -0.001000 -0.020845
v -0.009844 -0.001000 -0.027407
v -0.009259 -0.001000 -0.028821
v -0.009704 -0.001000 -0.028143
v -0.007761 -0.001000 -0.024791
v -0.007621 -0.001000 -0.025527
v -0.008581 -0.001000 -0.029266
v -0.007844 -0.001000 -0.029407
v -0.007175 -0.001000 -0.026205
v -0.006497 -0.001000 -0.026650
v -0.005761 -0.001000 -0.026791
v 0.008155 -0.001000 -0.029407
v 0.005775 -0.001000 -0.026791
v 0.006511 -0.001000 -0.026650
v 0.007189 -0.001000 -0.026205
v 0.007634 -0.001000 -0.025527
v 0.008891 -0.001000 -0.029266
v 0.007775 -0.001000 -0.024791
v 0.009569 -0.001000 -0.028821
v 0.010155 -0.001000 -0.027407
v 0.010014 -0.001000 -0.028143
v 0.010155 -0.001000 0.025587
v 0.008155 -0.001000 0.027587
v 0.008891 -0.001000 0.027446
v 0.010014 -0.001000 0.026323
v 0.009569 -0.001000 0.027001
v 0.007705 -0.001000 0.002337
v 0.007775 -0.001000 0.001969
v 0.007482 -0.001000 0.002676
v 0.007143 -0.001000 0.002899
v 0.006775 -0.001000 0.002969
v 0.006937 -0.001000 0.027587
v -0.007844 -0.001000 0.027587
v -0.008581 -0.001000 0.027446
v -0.009259 -0.001000 0.027001
v -0.009704 -0.001000 0.026323
v -0.004627 -0.001000 0.027587
v -0.001778 -0.001000 -0.014402
v -0.001918 -0.001000 -0.013665
v -0.001918 -0.001000 0.026587
v -0.002918 -0.001000 0.027587
v -0.002550 -0.001000 0.027516
v -0.002211 -0.001000 0.027294
v -0.001988 -0.001000 0.026955
v 0.002521 -0.001000 0.027294
v 0.002299 -0.001000 0.026955
vn 0.000000 1.000000 0.000000
vn 0.000000 1.000000 0.000000
vn 0.000000 1.000000 0.000000
vn 0.000000 1.000000 0.000000
vn 0.000000 1.000000 0.000000
vn 0.000000 1.000000 0.000000
vn 0.000000 1.000000 0.000000
vn 0.000000 1.000000 0.000000
vn 0.000000 1.000000 0.000000
vn 0.000000 1.000000 0.000000
vn 0.000000 1.000000 0.000000
vn 0.000000 1.000000 0.000000
vn 0.000000 1.000000 0.000000
vn 0.000000 1.000000 0.000000
vn 0.000000 1.000000 0.000000
vn 0.000000 1.000000 0.000000
vn 0.000000 1.000000 0.000000
vn 0.000000 1.000000 0.000000
vn 0.000000 1.000000 0.000000
vn 0.000000 1.000000 0.000000
vn 0.000000 1.000000 0.000000
vn 0.000000 1.000000 0.000000
vn 0.000000 1.000000 0.000000
vn 0.000000 1.000000 0.000000
vn 0.000000 1.000000 0.000000
vn 0.000000 1.000000 0.000000
vn 0.000000 1.000000 0.000000
vn 0.000000 1.000000 0.000000
vn 0.000000 1.000000 0.000000
vn 0.000000 1.000000 0.000000
vn 0.000000 1.000000 0.000000
vn 0.000000 1.000000 0.000000
vn 0.000000 1.000000 0.000000
vn 0.000000 1.000000 0.000000
vn 0.000000 1.000000 0.000000
vn 0.000000 1.000000 0.000000
vn 0.000000 1.000000 0.000000
vn 0.000000 1.000000 0.000000
vn 0.000000 1.000000 0.000000
vn 0.000000 1.000000 0.000000
vn 0.000000 1.000000 0.000000
vn 0.000000 1.000000 0.000000
vn 0.000000 1.000000 0.000000
vn 0.000000 1.000000 0.000000
vn 0.000000 1.000000 0.000000
vn 0.000000 1.000000 0.000000
vn 0.000000 1.000000 0.000000
vn 0.000000 1.000000 0.000000
vn 0.000000 1.000000 0.000000
vn 0.000000 1.000000 0.000000
vn 0.000000 1.000000 0.000000
vn 0.000000 1.000000 0.000000
vn 0.000000 1.000000 0.000000
vn 0.000000 1.000000 0.000000
vn 0.000000 1.000000 0.000000
vn 0.000000 1.000000 0.000000
vn 0.000000 1.000000 0.000000
vn 0.000000 1.000000 0.000000
vn 0.000000 1.000000 0.000000
vn 0.000000 1.000000 0.000000
vn 0.000000 1.000000 0.000000
vn 0.000000 1.000000 0.000000
vn 0.000000 1.000000 0.000000
vn 0.000000 1.000000 0.000000
vn 0.000000 1.000000 0.000000
vn 0.000000 1.000000 0.000000
vn 0.000000 1.000000 0.000000
vn 0.000000 1.000000 0.000000
vn 0.000000 1.000000 0.000000
vn 0.000000 1.000000 0.000000
vn 0.000000 1.000000 0.000000
vn 0.000000 1.000000 0.000000
vn 0.000000 1.000000 0.000000
vn 0.000000 1.000000 0.000000
vn 0.000000 1.000000 0.000000
vn 0.000000 1.000000 0.000000
vn 0.000000 1.000000 0.000000
vn 0.000000 1.000000 0.000000
vn 0.000100 0.000000 -1.000000
vn 0.379910 0.000000 -0.925024
vn 0.000100 0.000000 -1.000000
vn 0.379910 0.000000 -0.925024
vn 0.714518 0.000000 -0.699617
vn 0.714518 0.000000 -0.699617
vn 0.931629 0.000000 -0.363411
vn 0.931629 0.000000 -0.363411
vn 1.000000 0.000000 -0.000100
vn 1.000000 0.000000 -0.000100
vn 1.000000 0.000000 0.000000
vn 1.000000 0.000000 0.000000
vn 1.000000 0.000000 0.000000
vn 1.000000 0.000000 0.000000
vn 1.000000 0.000000 -0.000100
vn 0.925024 0.000000 -0.379910
vn 1.000000 0.000000 -0.000100
vn 0.925024 0.000000 -0.379910
vn 0.699516 0.000000 -0.714617
vn 0.699516 0.000000 -0.714617
vn 0.363411 0.000000 -0.931629
vn 0.363411 0.000000 -0.931629
vn 0.000100 0.000000 -1.000000
vn 0.000100 0.000000 -1.000000
vn 0.000000 0.000000 -1.000000
vn 0.000000 0.000000 -1.000000
vn 0.000000 0.000000 -1.000000
vn 0.000000 0.000000 -1.000000
vn -0.000100 0.000000 -1.000000
vn -0.379910 0.000000 -0.925024
vn -0.000100 0.000000 -1.000000
vn -0.379910 0.000000 -0.925024
vn -0.714468 0.000000 -0.699668
vn -0.714468 0.000000 -0.699668
vn -0.931629 0.000000 -0.363411
vn -0.931629 0.000000 -0.363411
vn -1.000000 0.000000 -0.000100
vn -1.000000 0.000000 -0.000100
vn -1.000000 0.000000 0.000000
vn -1.000000 0.000000 0.000000
vn -1.000000 0.000000 0.000000
vn -1.000000 0.000000 0.000000
vn -1.000000 -0.000000 0.000100
vn -0.925024 -0.000000 0.379910
vn -1.000000 -0.000000 0.000100
vn -0.925024 -0.000000 0.379910
vn -0.699617 -0.000000 0.714518
vn -0.699617 -0.000000 0.714518
vn -0.363498 -0.000000 0.931595
vn -0.363498 -0.000000 0.931595
vn -0.000100 -0.000000 1.000000
vn -0.000100 -0.000000 1.000000
vn 0.000000 -0.000000 1.000000
vn 0.000000 -0.000000 1.000000
vn 0.000000 -0.000000 1.000000
vn 0.000000 -0.000000 1.000000
vn 0.000100 -0.000000 1.000000
vn 0.379910 -0.000000 0.925024
vn 0.000100 -0.000000 1.000000
vn 0.379910 -0.000000 0.925024
vn 0.714369 -0.000000 0.699769
vn 0.714369 -0.000000 0.699769
vn 0.931595 -0.000000 0.363498
vn 0.931595 -0.000000 0.363498
vn 1.000000 -0.000000 0.000100
vn 1.000000 -0.000000 0.000100
vn 1.000000 0.000000 0.000000
vn 1.000000 0.000000 0.000000
vn 1.000000 0.000000 0.000000
vn 1.000000 0.000000 0.000000
vn 1.000000 0.000000 -0.000100
vn 0.925024 0.000000 -0.379910
vn 1.000000 0.000000 -0.000100
vn 0.925024 0.000000 -0.379910
vn 0.699617 0.000000 -0.714518
vn 0.699617 0.000000 -0.714518
vn 0.363498 0.000000 -0.931595
vn 0.363498 0.000000 -0.931595
vn 0.000100 0.000000 -1.000000
vn 0.000100 0.000000 -1.000000
vn 0.000000 0.000000 -1.000000
vn 0.000000 0.000000 -1.000000
vn 0.000000 0.000000 -1.000000
vn 0.000000 0.000000 -1.000000
vn -0.000100 -0.000000 1.000000
vn -0.379910 -0.000000 0.925024
vn -0.000100 -0.000000 1.000000
vn -0.379910 -0.000000 0.925024
vn -0.714369 -0.000000 0.699769
vn -0.714369 -0.000000 0.699769
vn -0.931629 -0.000000 0.363411
vn -0.931629 -0.000000 0.363411
vn -1.000000 -0.000000 0.000100
vn -1.000000 -0.000000 0.000100
vn -1.000000 0.000000 0.000000
vn -1.000000 0.000000 0.000000
vn -1.000000 0.000000 0.000000
vn -1.000000 0.000000 0.000000
vn -1.000000 -0.000000 0.000100
vn -0.925024 -0.000000 0.379910
vn -1.000000 -0.000000 0.000100
vn -0.925024 -0.000000 0.379910
vn -0.699617 -0.000000 0.714518
vn -0.699617 -0.000000 0.714518
vn -0.363498 -0.000000 0.931595
vn -0.363498 -0.000000 0.931595
vn -0.000100 -0.000000 1.000000
vn -0.000100 -0.000000 1.000000
vn 0.000000 -0.000000 1.000000
vn 0.000000 -0.000000 1.000000
vn 0.000000 -0.000000 1.000000
vn 0.000000 -0.000000 1.000000
vn 0.000100 -0.000000 1.000000
vn 0.379910 -0.000000 0.925024
vn 0.000100 -0.000000 1.000000
vn 0.379910 -0.000000 0.925024
vn 0.714369 -0.000000 0.699769
vn 0.714369 -0.000000 0.699769
vn 0.931595 -0.000000 0.363498
vn 0.931595 -0.000000 0.363498
vn 1.000000 -0.000000 0.000100
vn 1.000000 -0.000000 0.000100
vn 1.000000 0.000000 0.000000
vn 1.000000 0.000000 0.000000
vn 1.000000 0.000000 0.000000
vn 1.000000 0.000000 0.000000
vn 1.000000 -0.000000 0.000100
vn 0.924988 -0.000000 0.379995
vn 1.000000 -0.000000 0.000100
vn 0.924988 -0.000000 0.379995
vn 0.699718 -0.000000 0.714419
vn 0.699718 -0.000000 0.714419
vn 0.363498 -0.000000 0.931595
vn 0.363498 -0.000000 0.931595
vn 0.000100 -0.000000 1.000000
vn 0.000100 -0.000000 1.000000
vn 0.000000 -0.000000 1.000000
vn 0.000000 -0.000000 1.000000
vn 0.000000 -0.000000 1.000000
vn 0.000000 -0.000000 1.000000
vn -1.000000 0.000000 0.000000
vn -1.000000 0.000000 0.000000
vn -1.000000 0.000000 0.000000
vn -1.000000 0.000000 0.000000
vn 0.000000 -0.000000 1.000000
vn 0.000000 -0.000000 1.000000
vn 0.000000 -0.000000 1.000000
vn 0.000000 -0.000000 1.000000
vn 1.000000 0.000000 0.000000
vn 1.000000 0.000000 0.000000
vn 1.000000 0.000000 0.000000
vn 1.000000 0.000000 0.000000
vn 0.000000 -0.000000 1.000000
vn 0.000000 -0.000000 1.000000
vn 0.000000 -0.000000 1.000000
vn 0.000000 -0.000000 1.000000
vn -0.000100 -0.000000 1.000000
vn -0.379910 -0.000000 0.925024
vn -0.000100 -0.000000 1.000000
vn -0.379910 -0.000000 0.925024
vn -0.714518 -0.000000 0.699617
vn -0.714518 -0.000000 0.699617
vn -0.931629 -0.000000 0.363411
vn -0.931629 -0.000000 0.363411
vn -1.000000 -0.000000 0.000100
vn -1.000000 -0.000000 0.000100
vn -1.000000 0.000000 0.000000
vn -1.000000 0.000000 0.000000
vn -1.000000 0.000000 0.000000
vn -1.000000 0.000000 0.000000
vn -1.000000 0.000000 -0.000100
vn -0.925024 0.000000 -0.379910
vn -1.000000 0.000000 -0.000100
vn -0.925024 0.000000 -0.379910
vn -0.699617 0.000000 -0.714518
vn -0.699617 0.000000 -0.714518
vn -0.363411 0.000000 -0.931629
vn -0.363411 0.000000 -0.931629
vn -0.000100 0.000000 -1.000000
vn -0.000100 0.000000 -1.000000
vn 0.000000 0.000000 -1.000000
vn 0.000000 0.000000 -1.000000
vn 0.000000 0.000000 -1.000000
vn 0.000000 0.000000 -1.000000
vn 0.000100 0.000000 -1.000000
vn 0.379910 0.000000 -0.925024
vn 0.000100 0.000000 -1.000000
vn 0.379910 0.000000 -0.925024
vn 0.714518 0.000000 -0.699617
vn 0.714518 0.000000 -0.699617
vn 0.931595 0.000000 -0.363498
vn 0.931595 0.000000 -0.363498
vn 1.000000 0.000000 -0.000100
vn 1.000000 0.000000 -0.000100
vn 1.000000 0.000000 0.000000
vn 1.000000 0.000000 0.000000
vn 1.000000 0.000000 0.000000
vn 1.000000 0.000000 0.000000
vn 1.000000 -0.000000 0.000100
vn 0.925024 -0.000000 0.379910
vn 1.000000 -0.000000 0.000100
vn 0.925024 -0.000000 0.379910
vn 0.699617 -0.000000 0.714518
vn 0.699617 -0.000000 0.714518
vn 0.363498 -0.000000 0.931595
vn 0.363498 -0.000000 0.931595
vn 0.000100 0.000100 1.000000
vn 0.000100 -0.000000 1.000000
vn 0.000000 -0.000000 1.000000
vn 0.000000 -0.000000 1.000000
vn 0.000000 -0.000000 1.000000
vn 0.000000 -0.000000 1.000000
vn -1.000000 0.000000 0.000000
vn -1.000000 0.000000 0.000000
vn -1.000000 0.000000 0.000000
vn -1.000000 0.000000 0.000000
vn 0.000000 -0.000000 1.000000
vn 0.000000 -0.000000 1.000000
vn 0.000000 -0.000000 1.000000
vn 0.000000 -0.000000 1.000000
vn 1.000000 0.000000 0.000000
vn 1.000000 0.000000 0.000000
vn 1.000000 0.000000 0.000000
vn 1.000000 0.000000 0.000000
vn 0.000000 -0.000000 1.000000
vn 0.000000 -0.000000 1.000000
vn 0.000000 -0.000000 1.000000
vn 0.000000 -0.000000 1.000000
vn 0.000000 -1.000000 -0.000000
vn 0.000000 -1.000000 -0.000000
vn 0.000000 -1.000000 -0.000000
vn 0.000000 -1.000000 -0.000000
vn 0.000000 -1.000000 -0.000000
vn 0.000000 -1.000000 -0.000000
vn 0.000000 -1.000000 -0.000000
vn 0.000000 -1.000000 -0.000000
vn 0.000000 -1.000000 -0.000000
vn 0.000000 -1.000000 -0.000000
vn 0.000000 -1.000000 -0.000000
vn 0.000000 -1.000000 -0.000000
vn 0.000000 -1.000000 -0.000000
vn 0.000000 -1.000000 -0.000000
vn 0.000000 -1.000000 -0.000000
vn 0.000000 -1.000000 -0.000000
vn 0.000000 -1.000000 -0.000000
vn 0.000000 -1.000000 -0.000000
vn 0.000000 -1.000000 -0.000000
vn 0.000000 -1.000000 -0.000000
vn 0.000000 -1.000000 -0.000000
vn 0.000000 -1.000000 -0.000000
vn 0.000000 -1.000000 -0.000000
vn 0.000000 -1.000000 -0.000000
vn 0.000000 -1.000000 -0.000000
vn 0.000000 -1.000000 -0.000000
vn 0.000000 -1.000000 -0.000000
vn 0.000000 -1.000000 -0.000000
vn 0.000000 -1.000000 -0.000000
vn 0.000000 -1.000000 -0.000000
vn 0.000000 -1.000000 -0.000000
vn 0.000000 -1.000000 -0.000000
vn 0.000000 -1.000000 -0.000000
vn 0.000000 -1.000000 -0.000000
vn 0.000000 -1.000000 -0.000000
vn 0.000000 -1.000000 -0.000000
vn 0.000000 -1.000000 -0.000000
vn 0.000000 -1.000000 -0.000000
vn 0.000000 -1.000000 -0.000000
vn 0.000000 -1.000000 -0.000000
vn 0.000000 -1.000000 -0.000000
vn 0.000000 -1.000000 -0.000000
vn 0.000000 -1.000000 -0.000000
vn 0.000000 -1.000000 -0.000000
vn 0.000000 -1.000000 -0.000000
vn 0.000000 -1.000000 -0.000000
vn 0.000000 -1.000000 -0.000000
vn 0.000000 -1.000000 -0.000000
vn 0.000000 -1.000000 -0.000000
vn 0.000000 -1.000000 -0.000000
vn 0.000000 -1.000000 -0.000000
vn 0.000000 -1.000000 -0.000000
vn 0.000000 -1.000000 -0.000000
vn 0.000000 -1.000000 -0.000000
vn 0.000000 -1.000000 -0.000000
vn 0.000000 -1.000000 -0.000000
vn 0.000000 -1.000000 -0.000000
vn 0.000000 -1.000000 -0.000000
vn 0.000000 -1.000000 -0.000000
vn 0.000000 -1.000000 -0.000000
vn 0.000000 -1.000000 -0.000000
vn 0.000000 -1.000000 -0.000000
vn 0.000000 -1.000000 -0.000000
vn 0.000000 -1.000000 -0.000000
vn 0.000000 -1.000000 -0.000000
vn 0.000000 -1.000000 -0.000000
vn 0.000000 -1.000000 -0.000000
vn 0.000000 -1.000000 -0.000000
vn 0.000000 -1.000000 -0.000000
vn 0.000000 -1.000000 -0.000000
vn 0.000000 -1.000000 -0.000000
vn 0.000000 -1.000000 -0.000000
vn 0.000000 -1.000000 -0.000000
vn 0.000000 -1.000000 -0.000000
vn 0.000000 -1.000000 -0.000000
vn 0.000000 -1.000000 -0.000000
vn 0.000000 -1.000000 -0.000000
vn 0.000000 -1.000000 -0.000000
f 1//1 3//3 2//2
f 1//1 4//4 3//3
f 4//4 1//1 5//5
f 3//3 4//4 11//11
f 6//6 63//63 7//7
f 6//6 7//7 4//4
f 4//4 7//7 8//8
f 10//10 4//4 8//8
f 4//4 9//9 11//11
f 4//4 10//10 9//9
f 13//13 11//11 12//12
f 13//13 3//3 11//11
f 12//12 16//16 13//13
f 13//13 16//16 14//14
f 14//14 15//15 13//13
f 16//16 12//12 17//17
f 15//15 14//14 18//18
f 18//18 19//19 15//15
f 18//18 20//20 19//19
f 18//18 21//21 20//20
f 18//18 22//22 21//21
f 18//18 23//23 22//22
f 24//24 23//23 25//25
f 25//25 23//23 18//18
f 26//26 28//28 25//25
f 24//24 25//25 27//27
f 27//27 25//25 28//28
f 28//28 30//30 29//29
f 28//28 32//32 30//30
f 26//26 31//31 28//28
f 32//32 28//28 31//31
f 34//34 32//32 33//33
f 32//32 34//34 30//30
f 33//33 37//37 34//34
f 34//34 37//37 35//35
f 35//35 36//36 34//34
f 39//39 35//35 37//37
f 39//39 37//37 38//38
f 40//40 39//39 38//38
f 42//42 40//40 38//38
f 40//40 41//41 43//43
f 40//40 42//42 41//41
f 45//45 44//44 40//40
f 45//45 40//40 43//43
f 44//44 45//45 46//46
f 44//44 46//46 47//47
f 44//44 47//47 48//48
f 49//49 44//44 48//48
f 51//51 49//49 50//50
f 49//49 48//48 50//50
f 51//51 53//53 52//52
f 53//53 51//51 50//50
f 53//53 50//50 60//60
f 53//53 60//60 54//54
f 55//55 58//58 54//54
f 54//54 56//56 55//55
f 54//54 6//6 56//56
f 57//57 54//54 58//58
f 54//54 59//59 6//6
f 54//54 60//60 59//59
f 6//6 59//59 61//61
f 6//6 61//61 62//62
f 6//6 62//62 63//63
f 56//56 6//6 64//64
f 65//65 30//30 66//66
f 65//65 68//68 30//30
f 67//67 66//66 30//30
f 68//68 29//29 30//30
f 71//71 27//27 69//69
f 71//71 69//69 72//72
f 27//27 70//70 24//24
f 70//70 27//27 71//71
f 73//73 75//75 72//72
f 72//72 69//69 73//73
f 76//76 72//72 74//74
f 72//72 75//75 74//74
f 3//3 77//77 2//2
f 78//78 77//77 3//3
f 80//80 82//82 81//81
f 80//80 81//81 79//79
f 83//83 82//82 80//80
f 83//83 80//80 84//84
f 85//85 83//83 84//84
f 85//85 84//84 86//86
f 88//88 87//87 85//85
f 88//88 85//85 86//86
f 90//90 89//89 91//91
f 90//90 91//91 92//92
f 94//94 96//96 95//95
f 94//94 95//95 93//93
f 97//97 96//96 94//94
f 97//97 94//94 98//98
f 99//99 97//97 98//98
f 99//99 98//98 100//100
f 102//102 101//101 99//99
f 102//102 99//99 100//100
f 104//104 103//103 105//105
f 104//104 105//105 106//106
f 108//108 110//110 109//109
f 108//108 109//109 107//107
f 111//111 110//110 108//108
f 111//111 108//108 112//112
f 113//113 111//111 112//112
f 113//113 112//112 114//114
f 116//116 115//115 113//113
f 116//116 113//113 114//114
f 118//118 117//117 119//119
f 118//118 119//119 120//120
f 122//122 124//124 123//123
f 122//122 123//123 121//121
f 125//125 124//124 122//122
f 125//125 122//122 126//126
f 127//127 125//125 126//126
f 127//127 126//126 128//128
f 130//130 129//129 127//127
f 130//130 127//127 128//128
f 132//132 131//131 133//133
f 132//132 133//133 134//134
f 136//136 138//138 137//137
f 136//136 137//137 135//135
f 139//139 138//138 136//136
f 139//139 136//136 140//140
f 141//141 139//139 140//140
f 141//141 140//140 142//142
f 144//144 143//143 141//141
f 144//144 141//141 142//142
f 146//146 145//145 147//147
f 146//146 147//147 148//148
f 150//150 152//152 151//151
f 150//150 151//151 149//149
f 153//153 152//152 150//150
f 153//153 150//150 154//154
f 155//155 153//153 154//154
f 155//155 154//154 156//156
f 158//158 157//157 155//155
f 158//158 155//155 156//156
f 160//160 159//159 161//161
f 160//160 161//161 162//162
f 164//164 166//166 165//165
f 164//164 165//165 163//163
f 167//167 166//166 164//164
f 167//167 164//164 168//168
f 169//169 167//167 168//168
f 169//169 168//168 170//170
f 172//172 171//171 169//169
f 172//172 169//169 170//170
f 174//174 173//173 175//175
f 174//174 175//175 176//176
f 178//178 180//180 179//179
f 178//178 179//179 177//177
f 181//181 180//180 178//178
f 181//181 178//178 182//182
f 183//183 181//181 182//182
f 183//183 182//182 184//184
f 186//186 185//185 183//183
f 186//186 183//183 184//184
f 188//188 187//187 189//189
f 188//188 189//189 190//190
f 192//192 194//194 193//193
f 192//192 193//193 191//191
f 195//195 194//194 192//192
f 195//195 192//192 196//196
f 197//197 195//195 196//196
f 197//197 196//196 198//198
f 200//200 199//199 197//197
f 200//200 197//197 198//198
f 202//202 201//201 203//203
f 202//202 203//203 204//204
f 206//206 208//208 207//207
f 206//206 207//207 205//205
f 209//209 208//208 206//206
f 209//209 206//206 210//210
f 211//211 209//209 210//210
f 211//211 210//210 212//212
f 214//214 213//213 211//211
f 214//214 211//211 212//212
f 216//216 215//215 217//217
f 216//216 217//217 218//218
f 220//220 219//219 221//221
f 220//220 221//221 222//222
f 224//224 223//223 225//225
f 224//224 225//225 226//226
f 228//228 227//227 229//229
f 228//228 229//229 230//230
f 232//232 231//231 233//233
f 232//232 233//233 234//234
f 236//236 238//238 237//237
f 236//236 237//237 235//235
f 239//239 238//238 236//236
f 239//239 236//236 240//240
f 241//241 239//239 240//240
f 241//241 240//240 242//242
f 244//244 243//243 241//241
f 244//244 241//241 242//242
f 246//246 245//245 247//247
f 246//246 247//247 248//248
f 250//250 252//252 251//251
f 250//250 251//251 249//249
f 253//253 252//252 250//250
f 253//253 250//250 254//254
f 255//255 253//253 254//254
f 255//255 254//254 256//256
f 258//258 257//257 255//255
f 258//258 255//255 256//256
f 260//260 259//259 261//261
f 260//260 261//261 262//262
f 264//264 266//266 265//265
f 264//264 265//265 263//263
f 267//267 266//266 264//264
f 267//267 264//264 268//268
f 269//269 267//267 268//268
f 269//269 268//268 270//270
f 272//272 271//271 269//269
f 272//272 269//269 270//270
f 274//274 273//273 275//275
f 274//274 275//275 276//276
f 278//278 280//280 279//279
f 278//278 279//279 277//277
f 281//281 280//280 278//278
f 281//281 278//278 282//282
f 283//283 281//281 282//282
f 283//283 282//282 284//284
f 286//286 285//285 283//283
f 286//286 283//283 284//284
f 288//288 287//287 289//289
f 288//288 289//289 290//290
f 292//292 291//291 293//293
f 292//292 293//293 294//294
f 296//296 295//295 297//297
f 296//296 297//297 298//298
f 300//300 299//299 301//301
f 300//300 301//301 302//302
f 304//304 303//303 305//305
f 304//304 305//305 306//306
f 307//307 308//308 310//310
f 307//307 309//309 308//308
f 310//310 311//311 307//307
f 308//308 317//317 310//310
f 312//312 310//310 313//313
f 312//312 313//313 369//369
f 310//310 314//314 313//313
f 315//315 314//314 310//310
f 310//310 316//316 315//315
f 310//310 317//317 316//316
f 319//319 318//318 317//317
f 319//319 317//317 308//308
f 318//318 319//319 322//322
f 319//319 320//320 322//322
f 320//320 319//319 321//321
f 322//322 323//323 318//318
f 321//321 324//324 320//320
f 324//324 321//321 325//325
f 324//324 325//325 326//326
f 324//324 326//326 327//327
f 324//324 327//327 328//328
f 324//324 328//328 329//329
f 330//330 331//331 329//329
f 331//331 324//324 329//329
f 332//332 331//331 334//334
f 330//330 333//333 331//331
f 333//333 334//334 331//331
f 334//334 335//335 338//338
f 334//334 336//336 335//335
f 332//332 334//334 337//337
f 338//338 337//337 334//334
f 340//340 339//339 338//338
f 338//338 335//335 340//340
f 339//339 340//340 343//343
f 340//340 341//341 343//343
f 341//341 340//340 342//342
f 345//345 343//343 341//341
f 345//345 344//344 343//343
f 346//346 344//344 345//345
f 347//347 344//344 346//346
f 346//346 348//348 347//347
f 346//346 349//349 348//348
f 351//351 349//349 346//346
f 351//351 346//346 350//350
f 350//350 352//352 351//351
f 350//350 353//353 352//352
f 350//350 354//354 353//353
f 355//355 354//354 350//350
f 355//355 356//356 354//354
f 357//357 356//356 355//355
f 358//358 356//356 357//357
f 357//357 359//359 358//358
f 358//358 360//360 366//366
f 358//358 366//366 356//356
f 360//360 361//361 312//312
f 360//360 362//362 361//361
f 362//362 360//360 364//364
f 363//363 364//364 360//360
f 360//360 312//312 365//365
f 360//360 365//365 366//366
f 312//312 367//367 365//365
f 312//312 368//368 367//367
f 312//312 369//369 368//368
f 361//361 370//370 312//312
f 371//371 335//335 336//336
f 372//372 335//335 371//371
f 372//372 373//373 335//335
f 374//374 335//335 373//373
f 377//377 378//378 375//375
f 377//377 375//375 333//333
f 333//333 330//330 376//376
f 376//376 377//377 333//333
f 378//378 379//379 375//375
f 379//379 378//378 380//380
f 378//378 381//381 380//380
f 382//382 381//381 378//378
f 308//308 309//309 383//383
f 384//384 308//308 383//383
