# deco_01 exported from /models/joints/deco_01.glb
# units: meters
v 0.001575 0.001000 0.015319
v -0.005787 0.001000 0.013914
v 0.001575 0.001000 0.010319
v 0.005100 0.001000 0.015319
v 0.005100 0.001000 0.010233
v 0.007100 0.001000 0.010233
v 0.001575 0.001000 0.000660
v -0.000034 0.001000 -0.011170
v 0.006074 0.001000 -0.001870
v -0.005451 0.001000 -0.011488
v -0.010541 0.001000 -0.015826
v -0.001960 0.001000 -0.021267
v -0.013425 0.001000 -0.011488
v -0.013425 0.001000 -0.004681
v -0.018425 0.001000 -0.004681
v -0.018425 0.001000 -0.021267
v -0.012541 0.001000 -0.015826
v -0.012541 0.001000 -0.021267
v -0.017020 0.001000 0.002681
v -0.012372 0.001000 0.000840
v -0.009031 0.001000 0.005925
v -0.003946 0.001000 0.009265
v -0.012567 0.001000 0.009461
v -0.010541 0.001000 -0.021267
v 0.015374 0.001000 0.004239
v 0.016100 0.001000 0.010312
v 0.018100 0.001000 0.010312
v 0.025472 0.001000 0.006165
v 0.025472 0.001000 0.015319
v 0.018100 0.001000 0.015319
v 0.016100 0.001000 0.015319
v 0.007100 0.001000 0.015319
v 0.001575 0.001000 0.010319
v 0.001575 -0.001000 0.010319
v 0.001575 0.001000 0.000660
v 0.001575 -0.001000 0.000660
v 0.001575 0.001000 0.000660
v 0.001575 -0.001000 0.000660
v -0.002606 0.001000 -0.005035
v -0.002606 -0.001000 -0.005035
v -0.005451 0.001000 -0.011488
v -0.005451 -0.001000 -0.011488
v -0.005451 0.001000 -0.011488
v -0.005451 -0.001000 -0.011488
v -0.013425 0.001000 -0.011488
v -0.013425 -0.001000 -0.011488
v -0.013425 0.001000 -0.011488
v -0.013425 -0.001000 -0.011488
v -0.013425 0.001000 -0.004681
v -0.013425 -0.001000 -0.004681
v -0.013425 0.001000 -0.004681
v -0.012300 0.001000 0.001017
v -0.013425 -0.001000 -0.004681
v -0.012300 -0.001000 0.001017
v -0.008920 -0.001000 0.006035
v -0.008920 0.001000 0.006035
v -0.003876 -0.001000 0.009293
v -0.003876 0.001000 0.009293
v 0.001575 -0.001000 0.010319
v 0.001575 0.001000 0.010319
v 0.001575 0.001000 0.015319
v -0.006023 0.001000 0.013819
v 0.001575 -0.001000 0.015319
v -0.006023 -0.001000 0.013819
v -0.012713 -0.001000 0.009313
v -0.012713 0.001000 0.009313
v -0.017057 -0.001000 0.002588
v -0.017057 0.001000 0.002588
v -0.018425 -0.001000 -0.004681
v -0.018425 0.001000 -0.004681
v -0.018425 0.001000 -0.004681
v -0.018425 -0.001000 -0.004681
v -0.018425 0.001000 -0.021267
v -0.018425 -0.001000 -0.021267
v -0.018425 0.001000 -0.021267
v -0.018425 -0.001000 -0.021267
v -0.012541 0.001000 -0.021267
v -0.012541 -0.001000 -0.021267
v -0.012541 0.001000 -0.021267
v -0.012541 -0.001000 -0.021267
v -0.012541 0.001000 -0.015826
v -0.012541 -0.001000 -0.015826
v -0.012541 0.001000 -0.015826
v -0.012541 -0.001000 -0.015826
v -0.010541 0.001000 -0.015826
v -0.010541 -0.001000 -0.015826
v -0.010541 0.001000 -0.015826
v -0.010541 -0.001000 -0.015826
v -0.010541 0.001000 -0.021267
v -0.010541 -0.001000 -0.021267
v -0.010541 0.001000 -0.021267
v -0.010541 -0.001000 -0.021267
v -0.001960 0.001000 -0.021267
v -0.001960 -0.001000 -0.021267
v -0.001960 0.001000 -0.021267
v -0.001472 0.000000 -0.016112
v -0.001472 0.001000 -0.016112
v -0.001960 -0.001000 -0.021267
v -0.001472 -0.001000 -0.016112
v 0.000096 -0.001000 -0.010845
v 0.000096 0.000000 -0.010845
v 0.006277 -0.001000 -0.001669
v 0.006277 0.001000 -0.001669
v 0.015501 -0.000000 0.004289
v 0.015501 -0.001000 0.004289
v 0.020544 -0.001000 0.005719
v 0.020544 -0.000000 0.005719
v 0.025472 -0.001000 0.006165
v 0.025472 0.001000 0.006165
v 0.020544 0.001000 0.005719
v 0.015501 0.001000 0.004289
v 0.000096 0.001000 -0.010845
v 0.025472 0.001000 0.006165
v 0.025472 -0.001000 0.006165
v 0.025472 0.001000 0.015319
v 0.025472 -0.001000 0.015319
v 0.025472 0.001000 0.015319
v 0.025472 -0.001000 0.015319
v 0.018100 0.001000 0.015319
v 0.018100 -0.001000 0.015319
v 0.018100 0.001000 0.015319
v 0.018100 -0.001000 0.015319
v 0.018100 0.001000 0.010312
v 0.018100 -0.001000 0.010312
v 0.018100 0.001000 0.010312
v 0.018100 -0.001000 0.010312
v 0.016100 0.001000 0.010312
v 0.016100 -0.001000 0.010312
v 0.016100 0.001000 0.010312
v 0.016100 -0.001000 0.010312
v 0.016100 0.001000 0.015319
v 0.016100 -0.001000 0.015319
v 0.016100 0.001000 0.015319
v 0.016100 -0.001000 0.015319
v 0.007100 0.001000 0.015319
v 0.007100 -0.001000 0.015319
v 0.007100 0.001000 0.015319
v 0.007100 -0.001000 0.015319
v 0.007100 0.001000 0.010233
v 0.007100 -0.001000 0.010233
v 0.007100 0.001000 0.010233
v 0.007100 -0.001000 0.010233
v 0.005100 0.001000 0.010233
v 0.005100 -0.001000 0.010233
v 0.005100 0.001000 0.010233
v 0.005100 -0.001000 0.010233
v 0.005100 0.001000 0.015319
v 0.005100 -0.001000 0.015319
v 0.005100 0.001000 0.015319
v 0.005100 -0.001000 0.015319
v 0.001575 0.001000 0.015319
v 0.001575 -0.001000 0.015319
v 0.001575 -0.001000 0.015319
v 0.001575 -0.001000 0.010319
v -0.005787 -0.001000 0.013914
v 0.005100 -0.001000 0.015319
v 0.005100 -0.001000 0.010233
v 0.007100 -0.001000 0.010233
v 0.001575 -0.001000 0.000660
v -0.000034 -0.001000 -0.011170
v 0.006074 -0.001000 -0.001870
v -0.005451 -0.001000 -0.011488
v -0.010541 -0.001000 -0.015826
v -0.001960 -0.001000 -0.021267
v -0.013425 -0.001000 -0.011488
v -0.013425 -0.001000 -0.004681
v -0.018425 -0.001000 -0.004681
v -0.018425 -0.001000 -0.021267
v -0.012541 -0.001000 -0.015826
v -0.012541 -0.001000 -0.021267
v -0.017020 -0.001000 0.002681
v -0.012372 -0.001000 0.000840
v -0.009031 -0.001000 0.005925
v -0.003946 -0.001000 0.009265
v -0.012567 -0.001000 0.009461
v -0.010541 -0.001000 -0.021267
v 0.015374 -0.001000 0.004239
v 0.016100 -0.001000 0.010312
v 0.018100 -0.001000 0.010312
v 0.025472 -0.001000 0.006165
v 0.025472 -0.001000 0.015319
v 0.018100 -0.001000 0.015319
v 0.016100 -0.001000 0.015319
v 0.007100 -0.001000 0.015319
vn 0.000000 1.000000 0.000000
vn 0.000000 1.000000 0.000000
vn 0.000000 1.000000 0.000000
vn 0.000000 1.000000 0.000000
vn 0.000000 1.000000 0.000000
vn 0.000000 1.000000 0.000000
vn 0.000000 1.000000 0.000000
vn 0.000000 1.000000 0.000000
vn 0.000000 1.000000 0.000000
vn 0.000000 1.000000 0.000000
vn 0.000000 1.000000 0.000000
vn 0.000000 1.000000 0.000000
vn 0.000000 1.000000 0.000000
vn 0.000000 1.000000 0.000000
vn 0.000000 1.000000 0.000000
vn 0.000000 1.000000 0.000000
vn 0.000000 1.000000 0.000000
vn 0.000000 1.000000 0.000000
vn 0.000000 1.000000 0.000000
vn 0.000000 1.000000 0.000000
vn 0.000000 1.000000 0.000000
vn 0.000000 1.000000 0.000000
vn 0.000000 1.000000 0.000000
vn 0.000000 1.000000 0.000000
vn 0.000000 1.000000 0.000000
vn 0.000000 1.000000 0.000000
vn 0.000000 1.000000 0.000000
vn 0.000000 1.000000 0.000000
vn 0.000000 1.000000 0.000000
vn 0.000000 1.000000 0.000000
vn 0.000000 1.000000 0.000000
vn 0.000000 1.000000 0.000000
vn -1.000000 0.000000 0.000000
vn -1.000000 0.000000 0.000000
vn -1.000000 0.000000 0.000000
vn -1.000000 0.000000 0.000000
vn -0.736901 -0.000000 0.676001
vn -0.736901 -0.000000 0.676001
vn -0.865684 -0.000000 0.500591
vn -0.865684 -0.000000 0.500591
vn -0.953431 -0.000000 0.301610
vn -0.953431 -0.000000 0.301610
vn 0.000000 -0.000000 1.000000
vn 0.000000 -0.000000 1.000000
vn 0.000000 -0.000000 1.000000
vn 0.000000 -0.000000 1.000000
vn 1.000000 0.000000 0.000000
vn 1.000000 0.000000 0.000000
vn 1.000000 0.000000 0.000000
vn 1.000000 0.000000 0.000000
vn 1.000000 0.000000 -0.000100
vn 0.925024 0.000000 -0.379910
vn 1.000000 0.000000 -0.000100
vn 0.925024 0.000000 -0.379910
vn 0.699769 0.000000 -0.714369
vn 0.699769 0.000000 -0.714369
vn 0.363498 0.000000 -0.931595
vn 0.363498 0.000000 -0.931595
vn 0.000100 0.000000 -1.000000
vn 0.000100 0.000000 -1.000000
vn -0.000100 -0.000000 1.000000
vn -0.379910 -0.000000 0.925024
vn -0.000100 -0.000000 1.000000
vn -0.379910 -0.000000 0.925024
vn -0.714468 -0.000000 0.699668
vn -0.714468 -0.000000 0.699668
vn -0.931595 -0.000000 0.363498
vn -0.931595 -0.000000 0.363498
vn -1.000000 0.000100 0.000100
vn -1.000000 -0.000000 0.000100
vn -1.000000 0.000000 0.000000
vn -1.000000 0.000000 0.000000
vn -1.000000 0.000000 0.000000
vn -1.000000 0.000000 0.000000
vn 0.000000 0.000000 -1.000000
vn 0.000000 0.000000 -1.000000
vn 0.000000 0.000000 -1.000000
vn 0.000000 0.000000 -1.000000
vn 1.000000 0.000000 0.000000
vn 1.000000 0.000000 0.000000
vn 1.000000 0.000000 0.000000
vn 1.000000 0.000000 0.000000
vn 0.000000 0.000000 -1.000000
vn 0.000000 0.000000 -1.000000
vn 0.000000 0.000000 -1.000000
vn 0.000000 0.000000 -1.000000
vn -1.000000 0.000000 0.000000
vn -1.000000 0.000000 0.000000
vn -1.000000 0.000000 0.000000
vn -1.000000 0.000000 0.000000
vn 0.000000 0.000000 -1.000000
vn 0.000000 0.000000 -1.000000
vn 0.000000 0.000000 -1.000000
vn 0.000000 0.000000 -1.000000
vn 1.000000 0.000000 0.000000
vn 0.982170 0.000000 -0.187994
vn 0.982189 0.000000 -0.187898
vn 1.000000 0.000000 0.000000
vn 0.982189 0.000000 -0.187898
vn 0.925024 0.000000 -0.379910
vn 0.925024 0.000000 -0.379910
vn 0.699769 0.000000 -0.714369
vn 0.699819 0.000000 -0.714320
vn 0.363411 0.000000 -0.931629
vn 0.363411 0.000000 -0.931629
vn 0.179607 0.000000 -0.983738
vn 0.179704 0.000000 -0.983721
vn 0.000000 0.000000 -1.000000
vn 0.000000 0.000000 -1.000000
vn 0.179607 0.000000 -0.983738
vn 0.363411 0.000000 -0.931629
vn 0.925024 0.000000 -0.379910
vn 1.000000 0.000000 0.000000
vn 1.000000 0.000000 0.000000
vn 1.000000 0.000000 0.000000
vn 1.000000 0.000000 0.000000
vn 0.000000 -0.000000 1.000000
vn 0.000000 -0.000000 1.000000
vn 0.000000 -0.000000 1.000000
vn 0.000000 -0.000000 1.000000
vn -1.000000 0.000000 0.000000
vn -1.000000 0.000000 0.000000
vn -1.000000 0.000000 0.000000
vn -1.000000 0.000000 0.000000
vn 0.000000 -0.000000 1.000000
vn 0.000000 -0.000000 1.000000
vn 0.000000 -0.000000 1.000000
vn 0.000000 -0.000000 1.000000
vn 1.000000 0.000000 0.000000
vn 1.000000 0.000000 0.000000
vn 1.000000 0.000000 0.000000
vn 1.000000 0.000000 0.000000
vn 0.000000 -0.000000 1.000000
vn 0.000000 -0.000000 1.000000
vn 0.000000 -0.000000 1.000000
vn 0.000000 -0.000000 1.000000
vn -1.000000 0.000000 0.000000
vn -1.000000 0.000000 0.000000
vn -1.000000 0.000000 0.000000
vn -1.000000 0.000000 0.000000
vn 0.000000 -0.000000 1.000000
vn 0.000000 -0.000000 1.000000
vn 0.000000 -0.000000 1.000000
vn 0.000000 -0.000000 1.000000
vn 1.000000 0.000000 0.000000
vn 1.000000 0.000000 0.000000
vn 1.000000 0.000000 0.000000
vn 1.000000 0.000000 0.000000
vn 0.000000 -0.000000 1.000000
vn 0.000000 -0.000000 1.000000
vn 0.000000 -0.000000 1.000000
vn 0.000000 -0.000000 1.000000
vn 0.000000 -1.000000 -0.000000
vn 0.000000 -1.000000 -0.000000
vn 0.000000 -1.000000 -0.000000
vn 0.000000 -1.000000 -0.000000
vn 0.000000 -1.000000 -0.000000
vn 0.000000 -1.000000 -0.000000
vn 0.000000 -1.000000 -0.000000
vn 0.000000 -1.000000 -0.000000
vn 0.000000 -1.000000 -0.000000
vn 0.000000 -1.000000 -0.000000
vn 0.000000 -1.000000 -0.000000
vn 0.000000 -1.000000 -0.000000
vn 0.000000 -1.000000 -0.000000
vn 0.000000 -1.000000 -0.000000
vn 0.000000 -1.000000 -0.000000
vn 0.000000 -1.000000 -0.000000
vn 0.000000 -1.000000 -0.000000
vn 0.000000 -1.000000 -0.000000
vn 0.000000 -1.000000 -0.000000
vn 0.000000 -1.000000 -0.000000
vn 0.000000 -1.000000 -0.000000
vn 0.000000 -1.000000 -0.000000
vn 0.000000 -1.000000 -0.000000
vn 0.000000 -1.000000 -0.000000
vn 0.000000 -1.000000 -0.000000
vn 0.000000 -1.000000 -0.000000
vn 0.000000 -1.000000 -0.000000
vn 0.000000 -1.000000 -0.000000
vn 0.000000 -1.000000 -0.000000
vn 0.000000 -1.000000 -0.000000
vn 0.000000 -1.000000 -0.000000
vn 0.000000 -1.000000 -0.000000
f 1//1 3//3 2//2
f 3//3 1//1 4//4
f 4//4 5//5 3//3
f 6//6 7//7 5//5
f 7//7 3//3 5//5
f 10//10 7//7 8//8
f 9//9 8//8 7//7
f 9//9 7//7 6//6
f 8//8 12//12 10//10
f 10//10 11//11 13//13
f 11//11 10//10 12//12
f 14//14 13//13 15//15
f 15//15 13//13 16//16
f 17//17 16//16 13//13
f 13//13 11//11 17//17
f 16//16 17//17 18//18
f 20//20 15//15 19//19
f 15//15 20//20 14//14
f 20//20 19//19 21//21
f 19//19 23//23 21//21
f 22//22 21//21 23//23
f 23//23 2//2 22//22
f 22//22 2//2 3//3
f 12//12 24//24 11//11
f 9//9 6//6 25//25
f 6//6 26//26 25//25
f 26//26 27//27 25//25
f 27//27 28//28 25//25
f 29//29 28//28 27//27
f 27//27 30//30 29//29
f 26//26 6//6 32//32
f 26//26 32//32 31//31
f 34//34 33//33 35//35
f 34//34 35//35 36//36
f 38//38 37//37 39//39
f 38//38 39//39 40//40
f 41//41 42//42 40//40
f 41//41 40//40 39//39
f 44//44 43//43 45//45
f 44//44 45//45 46//46
f 48//48 47//47 49//49
f 48//48 49//49 50//50
f 52//52 54//54 53//53
f 52//52 53//53 51//51
f 55//55 54//54 52//52
f 55//55 52//52 56//56
f 57//57 55//55 56//56
f 57//57 56//56 58//58
f 60//60 59//59 57//57
f 60//60 57//57 58//58
f 62//62 64//64 63//63
f 62//62 63//63 61//61
f 65//65 64//64 62//62
f 65//65 62//62 66//66
f 67//67 65//65 66//66
f 67//67 66//66 68//68
f 70//70 69//69 67//67
f 70//70 67//67 68//68
f 72//72 71//71 73//73
f 72//72 73//73 74//74
f 76//76 75//75 77//77
f 76//76 77//77 78//78
f 80//80 79//79 81//81
f 80//80 81//81 82//82
f 84//84 83//83 85//85
f 84//84 85//85 86//86
f 88//88 87//87 89//89
f 88//88 89//89 90//90
f 92//92 91//91 93//93
f 92//92 93//93 94//94
f 95//95 96//96 98//98
f 96//96 95//95 97//97
f 99//99 98//98 96//96
f 100//100 99//99 96//96
f 100//100 96//96 101//101
f 102//102 100//100 101//101
f 102//102 103//103 104//104
f 103//103 102//102 101//101
f 104//104 105//105 102//102
f 106//106 105//105 104//104
f 106//106 104//104 107//107
f 106//106 107//107 108//108
f 109//109 108//108 107//107
f 107//107 110//110 109//109
f 107//107 104//104 111//111
f 107//107 111//111 110//110
f 103//103 111//111 104//104
f 101//101 112//112 103//103
f 101//101 96//96 97//97
f 101//101 97//97 112//112
f 114//114 113//113 115//115
f 114//114 115//115 116//116
f 118//118 117//117 119//119
f 118//118 119//119 120//120
f 122//122 121//121 123//123
f 122//122 123//123 124//124
f 126//126 125//125 127//127
f 126//126 127//127 128//128
f 130//130 129//129 131//131
f 130//130 131//131 132//132
f 134//134 133//133 135//135
f 134//134 135//135 136//136
f 138//138 137//137 139//139
f 138//138 139//139 140//140
f 142//142 141//141 143//143
f 142//142 143//143 144//144
f 146//146 145//145 147//147
f 146//146 147//147 148//148
f 150//150 149//149 151//151
f 150//150 151//151 152//152
f 154//154 156//156 153//153
f 153//153 155//155 154//154
f 156//156 154//154 157//157
f 158//158 157//157 159//159
f 159//159 157//157 154//154
f 162//162 160//160 159//159
f 161//161 159//159 160//160
f 161//161 158//158 159//159
f 160//160 162//162 164//164
f 162//162 165//165 163//163
f 163//163 164//164 162//162
f 166//166 167//167 165//165
f 167//167 168//168 165//165
f 169//169 165//165 168//168
f 165//165 169//169 163//163
f 168//168 170//170 169//169
f 172//172 171//171 167//167
f 167//167 166//166 172//172
f 172//172 173//173 171//171
f 171//171 173//173 175//175
f 174//174 175//175 173//173
f 175//175 174//174 155//155
f 174//174 154//154 155//155
f 164//164 163//163 176//176
f 161//161 177//177 158//158
f 158//158 177//177 178//178
f 178//178 177//177 179//179
f 179//179 177//177 180//180
f 181//181 179//179 180//180
f 179//179 181//181 182//182
f 178//178 183//183 184//184
f 178//178 184//184 158//158
