# joint_34 exported from /models/guards/joint_34.glb
# units: meters
v 0.051914 0.001000 0.013103
v 0.049959 0.001000 0.016132
v 0.049914 0.001000 0.013133
v 0.051959 0.001000 0.016118
v 0.033835 0.001000 0.018245
v 0.068692 0.001000 0.018001
v 0.067801 0.001000 0.016007
v 0.096530 0.001000 -0.015585
v 0.098541 0.001000 -0.014824
v 0.096311 0.001000 -0.030209
v 0.098127 0.001000 -0.042506
v 0.096281 0.001000 -0.032208
v 0.096251 0.001000 -0.034208
v 0.096221 0.001000 -0.036208
v 0.096127 0.001000 -0.042476
v 0.093221 0.001000 -0.036163
v 0.093251 0.001000 -0.034163
v 0.093281 0.001000 -0.032163
v 0.093311 0.001000 -0.030164
v 0.045935 0.001000 0.016160
v 0.034873 0.001000 0.016238
v 0.047959 0.001000 0.016146
v 0.021096 0.001000 -0.000014
v -0.021296 0.001000 0.000621
v 0.022129 0.001000 -0.002030
v -0.022388 0.001000 -0.001363
v -0.034579 0.001000 0.017278
v -0.045816 0.001000 0.017536
v -0.033482 0.001000 0.019253
v -0.051815 0.001000 0.017673
v -0.068330 0.001000 0.020052
v -0.049815 0.001000 0.017627
v -0.047816 0.001000 0.017581
v -0.047861 0.001000 0.014582
v -0.045861 0.001000 0.014552
v -0.049860 0.001000 0.014628
v -0.051860 0.001000 0.014658
v -0.067500 0.001000 0.018033
v -0.099149 0.001000 -0.011864
v -0.099563 0.001000 -0.039546
v -0.097161 0.001000 -0.012685
v -0.097380 0.001000 -0.027309
v -0.097410 0.001000 -0.029308
v -0.094380 0.001000 -0.027354
v -0.094410 0.001000 -0.029353
v -0.097440 0.001000 -0.031308
v -0.097470 0.001000 -0.033308
v -0.094440 0.001000 -0.031353
v -0.094470 0.001000 -0.033353
v -0.097564 0.001000 -0.039576
v 0.047914 0.001000 0.013147
v 0.045914 0.001000 0.013177
v 0.051914 -0.001000 0.013103
v 0.051959 -0.001000 0.016118
v 0.051914 0.001000 0.013103
v 0.051959 0.001000 0.016118
v 0.051959 -0.001000 0.016118
v 0.067801 -0.001000 0.016007
v 0.051959 0.001000 0.016118
v 0.067801 0.001000 0.016007
v 0.067801 -0.001000 0.016007
v 0.096530 -0.001000 -0.015585
v 0.067801 0.001000 0.016007
v 0.096530 0.001000 -0.015585
v 0.096530 -0.001000 -0.015585
v 0.096311 -0.001000 -0.030209
v 0.096530 0.001000 -0.015585
v 0.096311 0.001000 -0.030209
v 0.096311 -0.001000 -0.030209
v 0.093311 -0.001000 -0.030164
v 0.096311 0.001000 -0.030209
v 0.093311 0.001000 -0.030164
v 0.093311 -0.001000 -0.030164
v 0.093281 -0.001000 -0.032163
v 0.093311 0.001000 -0.030164
v 0.093281 0.001000 -0.032163
v 0.093281 -0.001000 -0.032163
v 0.096281 -0.001000 -0.032208
v 0.093281 0.001000 -0.032163
v 0.096281 0.001000 -0.032208
v 0.096281 -0.001000 -0.032208
v 0.096251 -0.001000 -0.034208
v 0.096281 0.001000 -0.032208
v 0.096251 0.001000 -0.034208
v 0.096251 -0.001000 -0.034208
v 0.093251 -0.001000 -0.034163
v 0.096251 0.001000 -0.034208
v 0.093251 0.001000 -0.034163
v 0.093251 -0.001000 -0.034163
v 0.093221 -0.001000 -0.036163
v 0.093251 0.001000 -0.034163
v 0.093221 0.001000 -0.036163
v 0.093221 -0.001000 -0.036163
v 0.096221 -0.001000 -0.036208
v 0.093221 0.001000 -0.036163
v 0.096221 0.001000 -0.036208
v 0.096221 -0.001000 -0.036208
v 0.096127 -0.001000 -0.042476
v 0.096221 0.001000 -0.036208
v 0.096127 0.001000 -0.042476
v 0.096127 -0.001000 -0.042476
v 0.098127 -0.001000 -0.042506
v 0.096127 0.001000 -0.042476
v 0.098127 0.001000 -0.042506
v 0.098127 -0.001000 -0.042506
v 0.098196 0.000000 -0.037892
v 0.098196 -0.001000 -0.037892
v 0.098127 0.001000 -0.042506
v 0.098196 0.001000 -0.037892
v 0.098265 0.001000 -0.033278
v 0.098265 0.000000 -0.033278
v 0.098403 0.001000 -0.024051
v 0.098403 0.000000 -0.024051
v 0.098472 0.001000 -0.019438
v 0.098472 0.000000 -0.019438
v 0.098541 0.001000 -0.014824
v 0.098541 -0.001000 -0.014824
v 0.098472 -0.001000 -0.019438
v 0.098403 -0.001000 -0.024051
v 0.098265 -0.001000 -0.033278
v 0.098541 -0.001000 -0.014824
v 0.094810 0.000000 -0.010721
v 0.094810 -0.001000 -0.010721
v 0.098541 0.001000 -0.014824
v 0.094810 0.001000 -0.010721
v 0.091079 0.001000 -0.006618
v 0.091079 0.000000 -0.006618
v 0.083616 0.001000 0.001588
v 0.083616 -0.001000 0.001588
v 0.076154 -0.000000 0.009795
v 0.076154 0.001000 0.009795
v 0.072423 0.001000 0.013898
v 0.072423 -0.000000 0.013898
v 0.068692 0.001000 0.018001
v 0.068692 -0.001000 0.018001
v 0.072423 -0.001000 0.013898
v 0.076154 -0.001000 0.009795
v 0.091079 -0.001000 -0.006618
v 0.068692 -0.001000 0.018001
v 0.062882 -0.000000 0.018042
v 0.062882 -0.001000 0.018042
v 0.068692 0.001000 0.018001
v 0.062882 0.001000 0.018042
v 0.057073 0.001000 0.018082
v 0.057073 -0.000000 0.018082
v 0.045454 0.001000 0.018164
v 0.045454 -0.000000 0.018164
v 0.039644 0.001000 0.018205
v 0.039644 -0.000000 0.018205
v 0.033835 0.001000 0.018245
v 0.033835 -0.001000 0.018245
v 0.039644 -0.001000 0.018205
v 0.045454 -0.001000 0.018164
v 0.057073 -0.001000 0.018082
v 0.033835 -0.001000 0.018245
v 0.030650 -0.000000 0.013681
v 0.030650 -0.001000 0.013681
v 0.033835 0.001000 0.018245
v 0.030650 0.001000 0.013681
v 0.027466 0.001000 0.009116
v 0.027466 -0.000000 0.009116
v 0.024281 0.001000 0.004551
v 0.024281 -0.000000 0.004551
v 0.021096 0.001000 -0.000014
v 0.021096 -0.001000 -0.000014
v 0.024281 -0.001000 0.004551
v 0.027466 -0.001000 0.009116
v 0.021096 -0.001000 -0.000014
v 0.015797 -0.000000 0.000065
v 0.015797 -0.001000 0.000065
v 0.021096 0.001000 -0.000014
v 0.015797 0.001000 0.000065
v 0.010498 0.001000 0.000145
v 0.010498 -0.000000 0.000145
v -0.000100 0.001000 0.000303
v -0.010698 -0.000000 0.000462
v -0.010698 0.001000 0.000462
v -0.000100 -0.001000 0.000303
v 0.010498 -0.001000 0.000145
v -0.010698 -0.001000 0.000462
v -0.015996 -0.001000 0.000541
v -0.021296 -0.001000 0.000621
v -0.015996 -0.000000 0.000541
v -0.015996 0.001000 0.000541
v -0.021296 0.001000 0.000621
v -0.021296 -0.001000 0.000621
v -0.024342 -0.000000 0.005279
v -0.024342 -0.001000 0.005279
v -0.021296 0.001000 0.000621
v -0.024342 0.001000 0.005279
v -0.027389 0.001000 0.009937
v -0.027389 -0.000000 0.009937
v -0.030435 0.001000 0.014595
v -0.030435 -0.000000 0.014595
v -0.033482 0.001000 0.019253
v -0.033482 -0.001000 0.019253
v -0.030435 -0.001000 0.014595
v -0.027389 -0.001000 0.009937
v -0.033482 -0.001000 0.019253
v -0.039290 -0.000000 0.019386
v -0.039290 -0.001000 0.019386
v -0.033482 0.001000 0.019253
v -0.039290 0.001000 0.019386
v -0.045098 0.001000 0.019520
v -0.045098 -0.000000 0.019520
v -0.056714 0.001000 0.019786
v -0.056714 -0.000000 0.019786
v -0.062522 0.001000 0.019919
v -0.062522 -0.000000 0.019919
v -0.068330 0.001000 0.020052
v -0.068330 -0.001000 0.020052
v -0.062522 -0.001000 0.019919
v -0.056714 -0.001000 0.019786
v -0.045098 -0.001000 0.019520
v -0.068330 -0.001000 0.020052
v -0.072182 -0.000000 0.016063
v -0.072182 -0.001000 0.016063
v -0.068330 0.001000 0.020052
v -0.072182 0.001000 0.016063
v -0.076035 0.001000 0.012073
v -0.076035 -0.000000 0.012073
v -0.083740 0.001000 0.004094
v -0.091444 0.000000 -0.003885
v -0.091444 0.001000 -0.003885
v -0.083740 -0.001000 0.004094
v -0.076035 -0.001000 0.012073
v -0.091444 -0.001000 -0.003885
v -0.095297 -0.001000 -0.007875
v -0.099149 -0.001000 -0.011864
v -0.095297 0.000000 -0.007875
v -0.095297 0.001000 -0.007875
v -0.099149 0.001000 -0.011864
v -0.099149 -0.001000 -0.011864
v -0.099217 0.000000 -0.016428
v -0.099217 -0.001000 -0.016428
v -0.099149 0.001000 -0.011864
v -0.099217 0.001000 -0.016428
v -0.099286 0.001000 -0.020991
v -0.099286 0.000000 -0.020991
v -0.099425 0.001000 -0.030319
v -0.099425 0.000000 -0.030319
v -0.099494 0.001000 -0.034932
v -0.099494 0.000000 -0.034932
v -0.099563 0.001000 -0.039546
v -0.099563 -0.001000 -0.039546
v -0.099494 -0.001000 -0.034932
v -0.099425 -0.001000 -0.030319
v -0.099286 -0.001000 -0.020991
v -0.099563 -0.001000 -0.039546
v -0.097564 -0.001000 -0.039576
v -0.099563 0.001000 -0.039546
v -0.097564 0.001000 -0.039576
v -0.097564 -0.001000 -0.039576
v -0.097470 -0.001000 -0.033308
v -0.097564 0.001000 -0.039576
v -0.097470 0.001000 -0.033308
v -0.097470 -0.001000 -0.033308
v -0.094470 -0.001000 -0.033353
v -0.097470 0.001000 -0.033308
v -0.094470 0.001000 -0.033353
v -0.094470 -0.001000 -0.033353
v -0.094440 -0.001000 -0.031353
v -0.094470 0.001000 -0.033353
v -0.094440 0.001000 -0.031353
v -0.094440 -0.001000 -0.031353
v -0.097440 -0.001000 -0.031308
v -0.094440 0.001000 -0.031353
v -0.097440 0.001000 -0.031308
v -0.097440 -0.001000 -0.031308
v -0.097410 -0.001000 -0.029308
v -0.097440 0.001000 -0.031308
v -0.097410 0.001000 -0.029308
v -0.097410 -0.001000 -0.029308
v -0.094410 -0.001000 -0.029353
v -0.097410 0.001000 -0.029308
v -0.094410 0.001000 -0.029353
v -0.094410 -0.001000 -0.029353
v -0.094380 -0.001000 -0.027354
v -0.094410 0.001000 -0.029353
v -0.094380 0.001000 -0.027354
v -0.094380 -0.001000 -0.027354
v -0.097380 -0.001000 -0.027309
v -0.094380 0.001000 -0.027354
v -0.097380 0.001000 -0.027309
v -0.097380 -0.001000 -0.027309
v -0.097161 -0.001000 -0.012685
v -0.097380 0.001000 -0.027309
v -0.097161 0.001000 -0.012685
v -0.097161 -0.001000 -0.012685
v -0.067500 -0.001000 0.018033
v -0.097161 0.001000 -0.012685
v -0.067500 0.001000 0.018033
v -0.067500 -0.001000 0.018033
v -0.059657 -0.001000 0.017853
v -0.067500 0.001000 0.018033
v -0.059657 0.001000 0.017853
v -0.051815 0.001000 0.017673
v -0.051815 -0.001000 0.017673
v -0.051815 -0.001000 0.017673
v -0.051860 -0.001000 0.014658
v -0.051815 0.001000 0.017673
v -0.051860 0.001000 0.014658
v -0.051860 -0.001000 0.014658
v -0.049860 -0.001000 0.014628
v -0.051860 0.001000 0.014658
v -0.049860 0.001000 0.014628
v -0.049860 -0.001000 0.014628
v -0.049815 -0.001000 0.017627
v -0.049860 0.001000 0.014628
v -0.049815 0.001000 0.017627
v -0.049815 -0.001000 0.017627
v -0.048816 -0.001000 0.017604
v -0.049815 0.001000 0.017627
v -0.048816 0.001000 0.017604
v -0.047816 0.001000 0.017581
v -0.047816 -0.001000 0.017581
v -0.047816 -0.001000 0.017581
v -0.047861 -0.001000 0.014582
v -0.047816 0.001000 0.017581
v -0.047861 0.001000 0.014582
v -0.047861 -0.001000 0.014582
v -0.045861 -0.001000 0.014552
v -0.047861 0.001000 0.014582
v -0.045861 0.001000 0.014552
v -0.045816 -0.001000 0.017536
v -0.034579 -0.001000 0.017278
v -0.045816 0.001000 0.017536
v -0.034579 0.001000 0.017278
v -0.034579 -0.001000 0.017278
v -0.022388 -0.001000 -0.001363
v -0.034579 0.001000 0.017278
v -0.022388 0.001000 -0.001363
v -0.022388 -0.001000 -0.001363
v 0.022129 -0.001000 -0.002030
v -0.022388 0.001000 -0.001363
v 0.022129 0.001000 -0.002030
v 0.022129 -0.001000 -0.002030
v 0.034873 -0.001000 0.016238
v 0.022129 0.001000 -0.002030
v 0.034873 0.001000 0.016238
v 0.034873 -0.001000 0.016238
v 0.045935 -0.001000 0.016160
v 0.034873 0.001000 0.016238
v 0.045935 0.001000 0.016160
v 0.045935 -0.001000 0.016160
v 0.045914 -0.001000 0.013177
v 0.045935 0.001000 0.016160
v 0.045914 0.001000 0.013177
v 0.045914 -0.001000 0.013177
v 0.047914 -0.001000 0.013147
v 0.045914 0.001000 0.013177
v 0.047914 0.001000 0.013147
v 0.047914 -0.001000 0.013147
v 0.047959 -0.001000 0.016146
v 0.047914 0.001000 0.013147
v 0.047959 0.001000 0.016146
v 0.047959 -0.001000 0.016146
v 0.048959 -0.001000 0.016139
v 0.047959 0.001000 0.016146
v 0.048959 0.001000 0.016139
v 0.049959 0.001000 0.016132
v 0.049959 -0.001000 0.016132
v 0.049959 -0.001000 0.016132
v 0.049914 -0.001000 0.013133
v 0.049959 0.001000 0.016132
v 0.049914 0.001000 0.013133
v 0.049914 -0.001000 0.013133
v 0.051914 -0.001000 0.013103
v 0.049914 0.001000 0.013133
v 0.051914 0.001000 0.013103
v 0.051959 -0.001000 0.016118
v 0.067801 -0.001000 0.016007
v 0.068692 -0.001000 0.018001
v 0.033835 -0.001000 0.018245
v 0.049959 -0.001000 0.016132
v 0.051914 -0.001000 0.013103
v 0.049914 -0.001000 0.013133
v 0.047959 -0.001000 0.016146
v 0.045935 -0.001000 0.016160
v 0.047914 -0.001000 0.013147
v 0.045914 -0.001000 0.013177
v 0.034873 -0.001000 0.016238
v 0.021096 -0.001000 -0.000014
v 0.022129 -0.001000 -0.002030
v -0.022388 -0.001000 -0.001363
v -0.021296 -0.001000 0.000621
v -0.034579 -0.001000 0.017278
v -0.045816 -0.001000 0.017536
v -0.033482 -0.001000 0.019253
v -0.051815 -0.001000 0.017673
v -0.047816 -0.001000 0.017581
v -0.049815 -0.001000 0.017627
v -0.068330 -0.001000 0.020052
v -0.067500 -0.001000 0.018033
v -0.099149 -0.001000 -0.011864
v -0.097161 -0.001000 -0.012685
v -0.097380 -0.001000 -0.027309
v -0.099563 -0.001000 -0.039546
v -0.097470 -0.001000 -0.033308
v -0.097564 -0.001000 -0.039576
v -0.097410 -0.001000 -0.029308
v -0.097440 -0.001000 -0.031308
v -0.094440 -0.001000 -0.031353
v -0.094470 -0.001000 -0.033353
v -0.094410 -0.001000 -0.029353
v -0.094380 -0.001000 -0.027354
v -0.049860 -0.001000 0.014628
v -0.051860 -0.001000 0.014658
v -0.047861 -0.001000 0.014582
v -0.045861 -0.001000 0.014552
v 0.098541 -0.001000 -0.014824
v 0.096530 -0.001000 -0.015585
v 0.096311 -0.001000 -0.030209
v 0.098127 -0.001000 -0.042506
v 0.096281 -0.001000 -0.032208
v 0.096221 -0.001000 -0.036208
v 0.096251 -0.001000 -0.034208
v 0.096127 -0.001000 -0.042476
v 0.093251 -0.001000 -0.034163
v 0.093221 -0.001000 -0.036163
v 0.093281 -0.001000 -0.032163
v 0.093311 -0.001000 -0.030164
vn 0.000000 1.000000 0.000000
vn 0.000000 1.000000 0.000000
vn 0.000000 1.000000 0.000000
vn 0.000000 1.000000 0.000000
vn 0.000000 1.000000 0.000000
vn 0.000000 1.000000 0.000000
vn 0.000000 1.000000 0.000000
vn 0.000000 1.000000 0.000000
vn 0.000000 1.000000 0.000000
vn 0.000000 1.000000 0.000000
vn 0.000000 1.000000 0.000000
vn 0.000000 1.000000 0.000000
vn 0.000000 1.000000 0.000000
vn 0.000000 1.000000 0.000000
vn 0.000000 1.000000 0.000000
vn 0.000000 1.000000 0.000000
vn 0.000000 1.000000 0.000000
vn 0.000000 1.000000 0.000000
vn 0.000000 1.000000 0.000000
vn 0.000000 1.000000 0.000000
vn 0.000000 1.000000 0.000000
vn 0.000000 1.000000 0.000000
vn 0.000000 1.000000 0.000000
vn 0.000000 1.000000 0.000000
vn 0.000000 1.000000 0.000000
vn 0.000000 1.000000 0.000000
vn 0.000000 1.000000 0.000000
vn 0.000000 1.000000 0.000000
vn 0.000000 1.000000 0.000000
vn 0.000000 1.000000 0.000000
vn 0.000000 1.000000 0.000000
vn 0.000000 1.000000 0.000000
vn 0.000000 1.000000 0.000000
vn 0.000000 1.000000 0.000000
vn 0.000000 1.000000 0.000000
vn 0.000000 1.000000 0.000000
vn 0.000000 1.000000 0.000000
vn 0.000000 1.000000 0.000000
vn 0.000000 1.000000 0.000000
vn 0.000000 1.000000 0.000000
vn 0.000000 1.000000 0.000000
vn 0.000000 1.000000 0.000000
vn 0.000000 1.000000 0.000000
vn 0.000000 1.000000 0.000000
vn 0.000000 1.000000 0.000000
vn 0.000000 1.000000 0.000000
vn 0.000000 1.000000 0.000000
vn 0.000000 1.000000 0.000000
vn 0.000000 1.000000 0.000000
vn 0.000000 1.000000 0.000000
vn 0.000000 1.000000 0.000000
vn 0.000000 1.000000 0.000000
vn 0.999887 0.000000 -0.015000
vn 0.999887 0.000000 -0.015000
vn 0.999887 0.000000 -0.015000
vn 0.999887 0.000000 -0.015000
vn -0.007000 0.000000 -0.999976
vn -0.007000 0.000000 -0.999976
vn -0.007000 0.000000 -0.999976
vn -0.007000 0.000000 -0.999976
vn -0.739813 0.000000 -0.672812
vn -0.739813 0.000000 -0.672812
vn -0.739813 0.000000 -0.672812
vn -0.739813 0.000000 -0.672812
vn -0.999887 -0.000000 0.015000
vn -0.999887 -0.000000 0.015000
vn -0.999887 -0.000000 0.015000
vn -0.999887 -0.000000 0.015000
vn 0.015000 -0.000000 0.999887
vn 0.015000 -0.000000 0.999887
vn 0.015000 -0.000000 0.999887
vn 0.015000 -0.000000 0.999887
vn -0.999887 -0.000000 0.015000
vn -0.999887 -0.000000 0.015000
vn -0.999887 -0.000000 0.015000
vn -0.999887 -0.000000 0.015000
vn -0.015000 0.000000 -0.999887
vn -0.015000 0.000000 -0.999887
vn -0.015000 0.000000 -0.999887
vn -0.015000 0.000000 -0.999887
vn -0.999887 -0.000000 0.015000
vn -0.999887 -0.000000 0.015000
vn -0.999887 -0.000000 0.015000
vn -0.999887 -0.000000 0.015000
vn 0.015000 -0.000000 0.999887
vn 0.015000 -0.000000 0.999887
vn 0.015000 -0.000000 0.999887
vn 0.015000 -0.000000 0.999887
vn -0.999887 -0.000000 0.015000
vn -0.999887 -0.000000 0.015000
vn -0.999887 -0.000000 0.015000
vn -0.999887 -0.000000 0.015000
vn -0.015000 0.000000 -0.999887
vn -0.015000 0.000000 -0.999887
vn -0.015000 0.000000 -0.999887
vn -0.015000 0.000000 -0.999887
vn -0.999887 -0.000000 0.015000
vn -0.999887 -0.000000 0.015000
vn -0.999887 -0.000000 0.015000
vn -0.999887 -0.000000 0.015000
vn -0.015000 0.000000 -0.999887
vn -0.015000 0.000000 -0.999887
vn -0.015000 0.000000 -0.999887
vn -0.015000 0.000000 -0.999887
vn 0.999887 0.000000 -0.015000
vn 0.999887 0.000000 -0.015000
vn 0.999887 0.000000 -0.015000
vn 0.999887 0.000000 -0.015000
vn 0.999887 0.000000 -0.015000
vn 0.999887 0.000000 -0.015000
vn 0.999887 0.000000 -0.015000
vn 0.999887 0.000000 -0.015000
vn 0.999887 0.000000 -0.015000
vn 0.999887 0.000000 -0.015000
vn 0.999887 0.000000 -0.015000
vn 0.999887 0.000000 -0.015000
vn 0.999887 0.000000 -0.015000
vn 0.999887 0.000000 -0.015000
vn 0.999887 0.000000 -0.015000
vn 0.999887 0.000000 -0.015000
vn 0.739813 -0.000000 0.672812
vn 0.739813 -0.000000 0.672812
vn 0.739813 -0.000000 0.672812
vn 0.739813 -0.000000 0.672812
vn 0.739813 -0.000000 0.672812
vn 0.739813 -0.000000 0.672812
vn 0.739813 -0.000000 0.672812
vn 0.739813 -0.000000 0.672812
vn 0.739813 -0.000000 0.672812
vn 0.739813 -0.000000 0.672812
vn 0.739813 -0.000000 0.672812
vn 0.739813 -0.000000 0.672812
vn 0.739813 -0.000000 0.672812
vn 0.739813 -0.000000 0.672812
vn 0.739813 -0.000000 0.672812
vn 0.739813 -0.000000 0.672812
vn 0.739813 -0.000000 0.672812
vn 0.739813 -0.000000 0.672812
vn 0.007000 -0.000000 0.999976
vn 0.007000 -0.000000 0.999976
vn 0.007000 -0.000000 0.999976
vn 0.007000 -0.000000 0.999976
vn 0.007000 -0.000000 0.999976
vn 0.007000 -0.000000 0.999976
vn 0.007000 -0.000000 0.999976
vn 0.007000 -0.000000 0.999976
vn 0.007000 -0.000000 0.999976
vn 0.007000 -0.000000 0.999976
vn 0.007000 -0.000000 0.999976
vn 0.007000 -0.000000 0.999976
vn 0.007000 -0.000000 0.999976
vn 0.007000 -0.000000 0.999976
vn 0.007000 -0.000000 0.999976
vn 0.007000 -0.000000 0.999976
vn -0.820109 -0.000000 0.572207
vn -0.820109 -0.000000 0.572207
vn -0.820109 -0.000000 0.572207
vn -0.820109 -0.000000 0.572207
vn -0.820109 -0.000000 0.572207
vn -0.820109 -0.000000 0.572207
vn -0.820109 -0.000000 0.572207
vn -0.820109 -0.000000 0.572207
vn -0.820109 -0.000000 0.572207
vn -0.820109 -0.000000 0.572207
vn -0.820109 -0.000000 0.572207
vn -0.820109 -0.000000 0.572207
vn -0.820109 -0.000000 0.572207
vn 0.015000 -0.000000 0.999887
vn 0.015000 -0.000000 0.999887
vn 0.015000 -0.000000 0.999887
vn 0.015000 -0.000000 0.999887
vn 0.015000 -0.000000 0.999887
vn 0.015000 -0.000000 0.999887
vn 0.015000 -0.000000 0.999887
vn 0.015000 -0.000000 0.999887
vn 0.015000 -0.000000 0.999887
vn 0.015000 -0.000000 0.999887
vn 0.015000 -0.000000 0.999887
vn 0.015000 -0.000000 0.999887
vn 0.015000 -0.000000 0.999887
vn 0.015000 -0.000000 0.999887
vn 0.015000 -0.000000 0.999887
vn 0.015000 -0.000000 0.999887
vn 0.015000 -0.000000 0.999887
vn 0.015000 -0.000000 0.999887
vn 0.836926 -0.000000 0.547317
vn 0.836926 -0.000000 0.547317
vn 0.836926 -0.000000 0.547317
vn 0.836926 -0.000000 0.547317
vn 0.836926 -0.000000 0.547317
vn 0.836926 -0.000000 0.547317
vn 0.836926 -0.000000 0.547317
vn 0.836880 -0.000000 0.547387
vn 0.836880 -0.000000 0.547387
vn 0.836880 -0.000000 0.547387
vn 0.836880 -0.000000 0.547387
vn 0.836880 -0.000000 0.547387
vn 0.836926 -0.000000 0.547317
vn 0.022901 -0.000000 0.999738
vn 0.022901 -0.000000 0.999738
vn 0.022901 -0.000000 0.999738
vn 0.022901 -0.000000 0.999738
vn 0.022901 -0.000000 0.999738
vn 0.022901 -0.000000 0.999738
vn 0.022901 -0.000000 0.999738
vn 0.022901 -0.000000 0.999738
vn 0.022901 -0.000000 0.999738
vn 0.022901 -0.000000 0.999738
vn 0.022901 -0.000000 0.999738
vn 0.022901 -0.000000 0.999738
vn 0.022901 -0.000000 0.999738
vn 0.022901 -0.000000 0.999738
vn 0.022901 -0.000000 0.999738
vn 0.022901 -0.000000 0.999738
vn -0.719398 -0.000000 0.694598
vn -0.719398 -0.000000 0.694598
vn -0.719398 -0.000000 0.694598
vn -0.719398 -0.000000 0.694598
vn -0.719398 -0.000000 0.694598
vn -0.719398 -0.000000 0.694598
vn -0.719398 -0.000000 0.694598
vn -0.719398 -0.000000 0.694598
vn -0.719398 -0.000000 0.694598
vn -0.719398 -0.000000 0.694598
vn -0.719398 -0.000000 0.694598
vn -0.719398 -0.000000 0.694598
vn -0.719398 -0.000000 0.694598
vn -0.719398 -0.000000 0.694598
vn -0.719398 -0.000000 0.694598
vn -0.719398 -0.000000 0.694598
vn -0.719398 -0.000000 0.694598
vn -0.719398 -0.000000 0.694598
vn -0.999887 -0.000000 0.015000
vn -0.999887 -0.000000 0.015000
vn -0.999887 -0.000000 0.015000
vn -0.999887 -0.000000 0.015000
vn -0.999887 -0.000000 0.015000
vn -0.999887 -0.000000 0.015000
vn -0.999887 -0.000000 0.015000
vn -0.999887 -0.000000 0.015000
vn -0.999887 -0.000000 0.015000
vn -0.999887 -0.000000 0.015000
vn -0.999887 -0.000000 0.015000
vn -0.999887 -0.000000 0.015000
vn -0.999887 -0.000000 0.015000
vn -0.999887 -0.000000 0.015000
vn -0.999887 -0.000000 0.015000
vn -0.999887 -0.000000 0.015000
vn -0.015000 0.000000 -0.999887
vn -0.015000 0.000000 -0.999887
vn -0.015000 0.000000 -0.999887
vn -0.015000 0.000000 -0.999887
vn 0.999887 0.000000 -0.015000
vn 0.999887 0.000000 -0.015000
vn 0.999887 0.000000 -0.015000
vn 0.999887 0.000000 -0.015000
vn -0.015000 0.000000 -0.999887
vn -0.015000 0.000000 -0.999887
vn -0.015000 0.000000 -0.999887
vn -0.015000 0.000000 -0.999887
vn 0.999887 0.000000 -0.015000
vn 0.999887 0.000000 -0.015000
vn 0.999887 0.000000 -0.015000
vn 0.999887 0.000000 -0.015000
vn 0.015000 -0.000000 0.999887
vn 0.015000 -0.000000 0.999887
vn 0.015000 -0.000000 0.999887
vn 0.015000 -0.000000 0.999887
vn 0.999887 0.000000 -0.015000
vn 0.999887 0.000000 -0.015000
vn 0.999887 0.000000 -0.015000
vn 0.999887 0.000000 -0.015000
vn -0.015000 0.000000 -0.999887
vn -0.015000 0.000000 -0.999887
vn -0.015000 0.000000 -0.999887
vn -0.015000 0.000000 -0.999887
vn 0.999887 0.000000 -0.015000
vn 0.999887 0.000000 -0.015000
vn 0.999887 0.000000 -0.015000
vn 0.999887 0.000000 -0.015000
vn 0.015000 -0.000000 0.999887
vn 0.015000 -0.000000 0.999887
vn 0.015000 -0.000000 0.999887
vn 0.015000 -0.000000 0.999887
vn 0.999887 0.000000 -0.015000
vn 0.999887 0.000000 -0.015000
vn 0.999887 0.000000 -0.015000
vn 0.999887 0.000000 -0.015000
vn 0.719398 0.000000 -0.694598
vn 0.719398 0.000000 -0.694598
vn 0.719398 0.000000 -0.694598
vn 0.719398 0.000000 -0.694598
vn -0.022901 0.000000 -0.999738
vn -0.022901 0.000000 -0.999738
vn -0.022901 0.000000 -0.999738
vn -0.022901 0.000000 -0.999738
vn -0.022901 0.000000 -0.999738
vn -0.022901 0.000000 -0.999738
vn -0.999887 -0.000000 0.015000
vn -0.999887 -0.000000 0.015000
vn -0.999887 -0.000000 0.015000
vn -0.999887 -0.000000 0.015000
vn -0.015000 0.000000 -0.999887
vn -0.015000 0.000000 -0.999887
vn -0.015000 0.000000 -0.999887
vn -0.015000 0.000000 -0.999887
vn 0.999887 0.000000 -0.015000
vn 0.999887 0.000000 -0.015000
vn 0.999887 0.000000 -0.015000
vn 0.999887 0.000000 -0.015000
vn -0.022901 0.000000 -0.999738
vn -0.022901 0.000000 -0.999738
vn -0.022901 0.000000 -0.999738
vn -0.022901 0.000000 -0.999738
vn -0.022901 0.000000 -0.999738
vn -0.022901 0.000000 -0.999738
vn -0.999889 -0.000000 0.014900
vn -0.999889 -0.000000 0.014900
vn -0.999889 -0.000000 0.014900
vn -0.999889 -0.000000 0.014900
vn -0.015000 0.000000 -0.999887
vn -0.015000 0.000000 -0.999887
vn -0.015000 0.000000 -0.999887
vn -0.015000 0.000000 -0.999887
vn -0.022901 0.000000 -0.999738
vn -0.022901 0.000000 -0.999738
vn -0.022901 0.000000 -0.999738
vn -0.022901 0.000000 -0.999738
vn -0.836926 0.000000 -0.547317
vn -0.836926 0.000000 -0.547317
vn -0.836926 0.000000 -0.547317
vn -0.836926 0.000000 -0.547317
vn -0.015000 0.000000 -0.999887
vn -0.015000 0.000000 -0.999887
vn -0.015000 0.000000 -0.999887
vn -0.015000 0.000000 -0.999887
vn 0.820109 0.000000 -0.572207
vn 0.820109 0.000000 -0.572207
vn 0.820109 0.000000 -0.572207
vn 0.820109 0.000000 -0.572207
vn -0.007000 0.000000 -0.999976
vn -0.007000 0.000000 -0.999976
vn -0.007000 0.000000 -0.999976
vn -0.007000 0.000000 -0.999976
vn -0.999976 -0.000000 0.007000
vn -0.999976 -0.000000 0.007000
vn -0.999976 -0.000000 0.007000
vn -0.999976 -0.000000 0.007000
vn -0.015000 0.000000 -0.999887
vn -0.015000 0.000000 -0.999887
vn -0.015000 0.000000 -0.999887
vn -0.015000 0.000000 -0.999887
vn 0.999889 0.000000 -0.014900
vn 0.999889 0.000000 -0.014900
vn 0.999889 0.000000 -0.014900
vn 0.999889 0.000000 -0.014900
vn -0.007000 0.000000 -0.999976
vn -0.007000 0.000000 -0.999976
vn -0.007000 0.000000 -0.999976
vn -0.007000 0.000000 -0.999976
vn -0.007000 0.000000 -0.999976
vn -0.007000 0.000000 -0.999976
vn -0.999887 -0.000000 0.015000
vn -0.999887 -0.000000 0.015000
vn -0.999887 -0.000000 0.015000
vn -0.999887 -0.000000 0.015000
vn -0.015000 0.000000 -0.999887
vn -0.015000 0.000000 -0.999887
vn -0.015000 0.000000 -0.999887
vn -0.015000 0.000000 -0.999887
vn 0.000000 -1.000000 -0.000000
vn 0.000000 -1.000000 -0.000000
vn 0.000000 -1.000000 -0.000000
vn 0.000000 -1.000000 -0.000000
vn 0.000000 -1.000000 -0.000000
vn 0.000000 -1.000000 -0.000000
vn 0.000000 -1.000000 -0.000000
vn 0.000000 -1.000000 -0.000000
vn 0.000000 -1.000000 -0.000000
vn 0.000000 -1.000000 -0.000000
vn 0.000000 -1.000000 -0.000000
vn 0.000000 -1.000000 -0.000000
vn 0.000000 -1.000000 -0.000000
vn 0.000000 -1.000000 -0.000000
vn 0.000000 -1.000000 -0.000000
vn 0.000000 -1.000000 -0.000000
vn 0.000000 -1.000000 -0.000000
vn 0.000000 -1.000000 -0.000000
vn 0.000000 -1.000000 -0.000000
vn 0.000000 -1.000000 -0.000000
vn 0.000000 -1.000000 -0.000000
vn 0.000000 -1.000000 -0.000000
vn 0.000000 -1.000000 -0.000000
vn 0.000000 -1.000000 -0.000000
vn 0.000000 -1.000000 -0.000000
vn 0.000000 -1.000000 -0.000000
vn 0.000000 -1.000000 -0.000000
vn 0.000000 -1.000000 -0.000000
vn 0.000000 -1.000000 -0.000000
vn 0.000000 -1.000000 -0.000000
vn 0.000000 -1.000000 -0.000000
vn 0.000000 -1.000000 -0.000000
vn 0.000000 -1.000000 -0.000000
vn 0.000000 -1.000000 -0.000000
vn 0.000000 -1.000000 -0.000000
vn 0.000000 -1.000000 -0.000000
vn 0.000000 -1.000000 -0.000000
vn 0.000000 -1.000000 -0.000000
vn 0.000000 -1.000000 -0.000000
vn 0.000000 -1.000000 -0.000000
vn 0.000000 -1.000000 -0.000000
vn 0.000000 -1.000000 -0.000000
vn 0.000000 -1.000000 -0.000000
vn 0.000000 -1.000000 -0.000000
vn 0.000000 -1.000000 -0.000000
vn 0.000000 -1.000000 -0.000000
vn 0.000000 -1.000000 -0.000000
vn 0.000000 -1.000000 -0.000000
vn 0.000000 -1.000000 -0.000000
vn 0.000000 -1.000000 -0.000000
vn 0.000000 -1.000000 -0.000000
vn 0.000000 -1.000000 -0.000000
f 1//1 2//2 4//4
f 1//1 3//3 2//2
f 4//4 2//2 5//5
f 5//5 6//6 4//4
f 4//4 6//6 7//7
f 8//8 7//7 9//9
f 9//9 7//7 6//6
f 10//10 8//8 9//9
f 10//10 9//9 11//11
f 10//10 11//11 12//12
f 12//12 11//11 13//13
f 13//13 11//11 14//14
f 15//15 14//14 11//11
f 17//17 13//13 14//14
f 17//17 14//14 16//16
f 19//19 10//10 12//12
f 19//19 12//12 18//18
f 22//22 20//20 5//5
f 20//20 21//21 5//5
f 21//21 23//23 5//5
f 22//22 5//5 2//2
f 26//26 24//24 23//23
f 26//26 23//23 25//25
f 23//23 21//21 25//25
f 26//26 27//27 24//24
f 28//28 29//29 27//27
f 29//29 24//24 27//27
f 29//29 32//32 30//30
f 30//30 31//31 29//29
f 32//32 29//29 33//33
f 29//29 28//28 33//33
f 35//35 34//34 33//33
f 35//35 33//33 28//28
f 36//36 37//37 30//30
f 36//36 30//30 32//32
f 30//30 38//38 31//31
f 39//39 31//31 38//38
f 39//39 41//41 42//42
f 39//39 42//42 40//40
f 38//38 41//41 39//39
f 45//45 43//43 42//42
f 45//45 42//42 44//44
f 43//43 40//40 42//42
f 46//46 40//40 43//43
f 46//46 48//48 49//49
f 46//46 49//49 47//47
f 46//46 47//47 40//40
f 47//47 50//50 40//40
f 20//20 22//22 51//51
f 20//20 51//51 52//52
f 54//54 53//53 55//55
f 54//54 55//55 56//56
f 58//58 57//57 59//59
f 58//58 59//59 60//60
f 62//62 61//61 63//63
f 62//62 63//63 64//64
f 66//66 65//65 67//67
f 66//66 67//67 68//68
f 70//70 69//69 71//71
f 70//70 71//71 72//72
f 74//74 73//73 75//75
f 74//74 75//75 76//76
f 78//78 77//77 79//79
f 78//78 79//79 80//80
f 82//82 81//81 83//83
f 82//82 83//83 84//84
f 86//86 85//85 87//87
f 86//86 87//87 88//88
f 90//90 89//89 91//91
f 90//90 91//91 92//92
f 94//94 93//93 95//95
f 94//94 95//95 96//96
f 98//98 97//97 99//99
f 98//98 99//99 100//100
f 102//102 101//101 103//103
f 102//102 103//103 104//104
f 106//106 105//105 108//108
f 106//106 107//107 105//105
f 108//108 109//109 106//106
f 110//110 111//111 106//106
f 110//110 106//106 109//109
f 111//111 110//110 112//112
f 111//111 112//112 113//113
f 114//114 115//115 113//113
f 114//114 113//113 112//112
f 116//116 115//115 114//114
f 117//117 115//115 116//116
f 115//115 117//117 118//118
f 115//115 118//118 119//119
f 115//115 119//119 113//113
f 113//113 119//119 120//120
f 113//113 120//120 111//111
f 111//111 120//120 107//107
f 111//111 107//107 106//106
f 122//122 121//121 124//124
f 122//122 123//123 121//121
f 124//124 125//125 122//122
f 126//126 127//127 122//122
f 126//126 122//122 125//125
f 127//127 126//126 128//128
f 129//129 128//128 130//130
f 128//128 129//129 127//127
f 128//128 131//131 130//130
f 132//132 133//133 130//130
f 132//132 130//130 131//131
f 134//134 133//133 132//132
f 135//135 133//133 134//134
f 133//133 135//135 136//136
f 133//133 136//136 137//137
f 133//133 137//137 130//130
f 130//130 137//137 129//129
f 129//129 138//138 127//127
f 127//127 138//138 123//123
f 127//127 123//123 122//122
f 140//140 139//139 142//142
f 140//140 141//141 139//139
f 142//142 143//143 140//140
f 144//144 145//145 140//140
f 144//144 140//140 143//143
f 145//145 144//144 146//146
f 145//145 146//146 147//147
f 148//148 149//149 147//147
f 148//148 147//147 146//146
f 150//150 149//149 148//148
f 151//151 149//149 150//150
f 149//149 151//151 152//152
f 149//149 152//152 153//153
f 149//149 153//153 147//147
f 147//147 153//153 154//154
f 147//147 154//154 145//145
f 145//145 154//154 141//141
f 145//145 141//141 140//140
f 156//156 155//155 158//158
f 156//156 157//157 155//155
f 158//158 159//159 156//156
f 160//160 161//161 156//156
f 160//160 156//156 159//159
f 162//162 163//163 161//161
f 162//162 161//161 160//160
f 164//164 163//163 162//162
f 165//165 163//163 164//164
f 163//163 165//165 166//166
f 163//163 166//166 167//167
f 163//163 167//167 161//161
f 161//161 167//167 157//157
f 161//161 157//157 156//156
f 169//169 168//168 171//171
f 169//169 170//170 168//168
f 171//171 172//172 169//169
f 173//173 174//174 169//169
f 173//173 169//169 172//172
f 174//174 173//173 175//175
f 175//175 178//178 174//174
f 178//178 175//175 176//176
f 175//175 177//177 176//176
f 178//178 179//179 174//174
f 176//176 180//180 178//178
f 183//183 181//181 180//180
f 183//183 180//180 176//176
f 183//183 182//182 181//181
f 182//182 183//183 185//185
f 185//185 183//183 184//184
f 184//184 183//183 176//176
f 184//184 176//176 177//177
f 174//174 179//179 170//170
f 174//174 170//170 169//169
f 187//187 186//186 189//189
f 187//187 188//188 186//186
f 189//189 190//190 187//187
f 191//191 192//192 187//187
f 191//191 187//187 190//190
f 193//193 194//194 192//192
f 193//193 192//192 191//191
f 195//195 194//194 193//193
f 196//196 194//194 195//195
f 194//194 196//196 197//197
f 194//194 197//197 198//198
f 194//194 198//198 192//192
f 192//192 198//198 188//188
f 192//192 188//188 187//187
f 200//200 199//199 202//202
f 200//200 201//201 199//199
f 202//202 203//203 200//200
f 204//204 205//205 200//200
f 204//204 200//200 203//203
f 205//205 204//204 206//206
f 205//205 206//206 207//207
f 208//208 209//209 207//207
f 208//208 207//207 206//206
f 210//210 209//209 208//208
f 211//211 209//209 210//210
f 209//209 211//211 212//212
f 209//209 212//212 213//213
f 209//209 213//213 207//207
f 207//207 213//213 214//214
f 207//207 214//214 205//205
f 205//205 214//214 201//201
f 205//205 201//201 200//200
f 216//216 215//215 218//218
f 216//216 217//217 215//215
f 218//218 219//219 216//216
f 220//220 221//221 216//216
f 220//220 216//216 219//219
f 221//221 220//220 222//222
f 222//222 225//225 221//221
f 225//225 222//222 223//223
f 222//222 224//224 223//223
f 225//225 226//226 221//221
f 223//223 227//227 225//225
f 230//230 228//228 227//227
f 230//230 227//227 223//223
f 230//230 229//229 228//228
f 229//229 230//230 232//232
f 232//232 230//230 231//231
f 231//231 230//230 223//223
f 231//231 223//223 224//224
f 221//221 226//226 217//217
f 221//221 217//217 216//216
f 234//234 233//233 236//236
f 234//234 235//235 233//233
f 236//236 237//237 234//234
f 238//238 239//239 234//234
f 238//238 234//234 237//237
f 239//239 238//238 240//240
f 239//239 240//240 241//241
f 242//242 243//243 241//241
f 242//242 241//241 240//240
f 244//244 243//243 242//242
f 245//245 243//243 244//244
f 243//243 245//245 246//246
f 243//243 246//246 247//247
f 243//243 247//247 241//241
f 241//241 247//247 248//248
f 241//241 248//248 239//239
f 239//239 248//248 235//235
f 239//239 235//235 234//234
f 250//250 249//249 251//251
f 250//250 251//251 252//252
f 254//254 253//253 255//255
f 254//254 255//255 256//256
f 258//258 257//257 259//259
f 258//258 259//259 260//260
f 262//262 261//261 263//263
f 262//262 263//263 264//264
f 266//266 265//265 267//267
f 266//266 267//267 268//268
f 270//270 269//269 271//271
f 270//270 271//271 272//272
f 274//274 273//273 275//275
f 274//274 275//275 276//276
f 278//278 277//277 279//279
f 278//278 279//279 280//280
f 282//282 281//281 283//283
f 282//282 283//283 284//284
f 286//286 285//285 287//287
f 286//286 287//287 288//288
f 290//290 289//289 291//291
f 290//290 291//291 292//292
f 294//294 293//293 295//295
f 294//294 295//295 296//296
f 298//298 294//294 296//296
f 298//298 296//296 297//297
f 300//300 299//299 301//301
f 300//300 301//301 302//302
f 304//304 303//303 305//305
f 304//304 305//305 306//306
f 308//308 307//307 309//309
f 308//308 309//309 310//310
f 312//312 311//311 313//313
f 312//312 313//313 314//314
f 316//316 312//312 314//314
f 316//316 314//314 315//315
f 318//318 317//317 319//319
f 318//318 319//319 320//320
f 322//322 321//321 323//323
f 322//322 323//323 324//324
f 326//326 325//325 327//327
f 326//326 327//327 328//328
f 330//330 329//329 331//331
f 330//330 331//331 332//332
f 334//334 333//333 335//335
f 334//334 335//335 336//336
f 338//338 337//337 339//339
f 338//338 339//339 340//340
f 342//342 341//341 343//343
f 342//342 343//343 344//344
f 346//346 345//345 347//347
f 346//346 347//347 348//348
f 350//350 349//349 351//351
f 350//350 351//351 352//352
f 354//354 353//353 355//355
f 354//354 355//355 356//356
f 358//358 357//357 359//359
f 358//358 359//359 360//360
f 362//362 358//358 360//360
f 362//362 360//360 361//361
f 364//364 363//363 365//365
f 364//364 365//365 366//366
f 368//368 367//367 369//369
f 368//368 369//369 370//370
f 372//372 373//373 371//371
f 371//371 373//373 374//374
f 374//374 375//375 371//371
f 371//371 375//375 376//376
f 377//377 376//376 375//375
f 378//378 375//375 374//374
f 380//380 378//378 379//379
f 378//378 374//374 379//379
f 379//379 381//381 380//380
f 382//382 379//379 374//374
f 382//382 374//374 383//383
f 384//384 382//382 383//383
f 386//386 385//385 384//384
f 386//386 384//384 383//383
f 386//386 387//387 385//385
f 387//387 389//389 388//388
f 387//387 386//386 389//389
f 389//389 393//393 390//390
f 389//389 390//390 392//392
f 388//388 389//389 391//391
f 392//392 391//391 389//389
f 394//394 390//390 393//393
f 395//395 394//394 393//393
f 396//396 394//394 395//395
f 397//397 396//396 395//395
f 398//398 397//397 395//395
f 398//398 400//400 399//399
f 399//399 402//402 398//398
f 397//397 398//398 401//401
f 402//402 401//401 398//398
f 403//403 402//402 399//399
f 403//403 399//399 404//404
f 401//401 405//405 406//406
f 401//401 406//406 397//397
f 392//392 390//390 408//408
f 392//392 408//408 407//407
f 409//409 410//410 388//388
f 409//409 388//388 391//391
f 411//411 373//373 372//372
f 411//411 372//372 412//412
f 412//412 413//413 411//411
f 411//411 413//413 414//414
f 414//414 415//415 417//417
f 414//414 413//413 415//415
f 416//416 418//418 414//414
f 414//414 417//417 416//416
f 420//420 416//416 417//417
f 420//420 417//417 419//419
f 421//421 415//415 413//413
f 421//421 413//413 422//422
