# joint_14 exported from /models/guards/joint_14.glb
# units: meters
v 0.010993 0.001000 0.034002
v 0.003922 0.001000 0.034108
v 0.011969 0.001000 0.041917
v 0.012428 0.001000 0.035395
v 0.001818 0.001000 0.032636
v -0.005875 0.001000 0.014053
v 0.013442 0.001000 0.031478
v 0.002330 0.001000 0.005599
v 0.008288 0.001000 0.000051
v -0.000897 0.001000 0.010676
v 0.002880 0.001000 -0.020064
v 0.003289 0.001000 0.000125
v 0.002166 0.001000 -0.005317
v -0.002072 0.001000 -0.014962
v 0.010307 0.001000 -0.027718
v 0.012499 0.001000 -0.031517
v 0.005356 0.001000 -0.022616
v 0.007832 0.001000 -0.025167
v 0.002722 0.001000 -0.030125
v 0.002905 0.001000 -0.033861
v 0.000246 0.001000 -0.027574
v 0.005198 0.001000 -0.032676
v 0.000846 0.001000 -0.032327
v -0.001849 0.001000 -0.031646
v -0.004592 0.001000 -0.032092
v -0.007339 0.001000 -0.029982
v -0.002230 0.001000 -0.025023
v -0.006776 0.001000 -0.033442
v -0.008309 0.001000 -0.035501
v -0.008990 0.001000 -0.038196
v -0.017276 0.001000 -0.038989
v 0.021686 0.001000 -0.072804
v 0.002945 0.001000 -0.052883
v -0.001642 0.001000 -0.048752
v -0.005886 0.001000 -0.044523
v -0.007194 0.001000 -0.043122
v -0.008544 0.001000 -0.040939
v -0.027920 0.001000 -0.019581
v -0.012291 0.001000 -0.024879
v -0.006288 0.001000 -0.013522
v -0.011761 0.001000 -0.014481
v -0.017204 0.001000 -0.013358
v -0.022182 0.001000 -0.009981
v -0.025408 0.001000 -0.004904
v -0.031369 0.001000 0.000562
v -0.026368 0.001000 0.000569
v -0.025245 0.001000 0.006012
v -0.021868 0.001000 0.010990
v -0.027318 0.001000 0.020582
v -0.016612 0.001000 0.020467
v -0.021564 0.001000 0.025569
v -0.016099 0.001000 0.039637
v -0.011345 0.001000 0.035486
v 0.023857 0.001000 0.072175
v 0.004532 0.001000 0.053121
v -0.004546 0.001000 0.045028
v -0.000177 0.001000 0.049129
v -0.007310 0.001000 0.041525
v -0.005895 0.001000 0.043668
v -0.007837 0.001000 0.038797
v -0.007237 0.001000 0.036083
v -0.008869 0.001000 0.032935
v -0.005766 0.001000 0.033979
v -0.006393 0.001000 0.030384
v -0.003624 0.001000 0.032564
v -0.000895 0.001000 0.032037
v -0.011317 0.001000 0.015176
v -0.016791 0.001000 0.014216
v 0.009560 0.001000 0.056995
v 0.014885 0.001000 0.060743
v 0.021866 0.001000 0.067717
v 0.020485 0.001000 0.064357
v 0.023103 0.001000 0.066442
v 0.026334 0.001000 0.067832
v 0.027318 0.001000 0.068422
v 0.025658 0.001000 0.068921
v 0.024420 0.001000 0.070196
v 0.028213 0.001000 0.071400
v 0.028667 0.001000 0.073464
v 0.030135 0.001000 0.072485
v 0.026975 0.001000 0.072676
v 0.025221 0.001000 0.073294
v 0.026926 0.001000 0.073750
v 0.031399 0.001000 0.071182
v 0.030689 0.001000 0.068849
v 0.032213 0.001000 0.069984
v 0.032575 0.001000 0.068478
v 0.031927 0.001000 0.067573
v 0.032366 0.001000 0.066944
v 0.031677 0.001000 0.065670
v 0.017199 0.001000 0.052769
v 0.014935 0.001000 0.048415
v 0.014152 0.001000 0.033618
v 0.019643 0.001000 0.057025
v 0.029372 0.001000 0.065094
v 0.028134 0.001000 0.066370
v 0.022237 0.001000 0.061139
v 0.024736 0.001000 0.064768
v 0.012872 0.001000 0.044011
v -0.001211 0.001000 -0.010295
v 0.007855 0.001000 -0.056906
v 0.013066 0.001000 -0.060812
v 0.018554 0.001000 -0.064592
v 0.024297 0.001000 -0.068241
v 0.023452 0.001000 -0.071932
v 0.025263 0.001000 -0.068860
v 0.028561 0.001000 -0.066973
v 0.026007 0.001000 -0.069453
v 0.022792 0.001000 -0.065130
v 0.029702 0.001000 -0.066240
v 0.020402 0.001000 -0.061428
v 0.017932 0.001000 -0.057238
v 0.015617 0.001000 -0.052911
v 0.013484 0.001000 -0.048491
v 0.013144 0.001000 -0.033677
v 0.011368 0.001000 -0.035402
v 0.010714 0.001000 -0.041907
v 0.011554 0.001000 -0.044027
v 0.009975 0.001000 -0.033966
v 0.030357 0.001000 -0.067544
v 0.029799 0.001000 -0.068249
v 0.030519 0.001000 -0.069083
v 0.027245 0.001000 -0.070728
v 0.030109 0.001000 -0.070571
v 0.029259 0.001000 -0.071741
v 0.027957 0.001000 -0.073005
v 0.026460 0.001000 -0.073940
v 0.024690 0.001000 -0.073208
v 0.024711 0.001000 -0.074174
v 0.027318 0.001000 0.068422
v 0.026334 0.001000 0.067832
v 0.027318 -0.000000 0.068422
v 0.026334 -0.000000 0.067832
v 0.027318 -0.001000 0.068422
v 0.026334 -0.001000 0.067832
v -0.005895 0.001000 0.043668
v -0.006683 0.001000 0.042695
v -0.005895 -0.001000 0.043668
v -0.006683 -0.001000 0.042695
v -0.007310 -0.001000 0.041525
v -0.007310 0.001000 0.041525
v -0.007710 -0.001000 0.040203
v -0.007710 0.001000 0.040203
v -0.007837 -0.001000 0.038797
v -0.007837 0.001000 0.038797
v -0.007673 -0.001000 0.037395
v -0.007673 0.001000 0.037395
v -0.007237 -0.001000 0.036083
v -0.007237 0.001000 0.036083
v -0.006580 -0.001000 0.034931
v -0.006580 0.001000 0.034931
v -0.005766 -0.001000 0.033979
v -0.005766 0.001000 0.033979
v -0.004793 -0.001000 0.033191
v -0.004793 0.001000 0.033191
v -0.003624 -0.001000 0.032564
v -0.003624 0.001000 0.032564
v -0.002301 -0.001000 0.032164
v -0.002301 0.001000 0.032164
v -0.000895 -0.001000 0.032037
v -0.000895 0.001000 0.032037
v 0.000507 -0.001000 0.032201
v 0.000507 0.001000 0.032201
v 0.001818 -0.001000 0.032636
v 0.001818 0.001000 0.032636
v 0.002971 -0.001000 0.033294
v 0.002971 0.001000 0.033294
v 0.003922 -0.001000 0.034108
v 0.003922 0.001000 0.034108
v 0.003922 0.001000 0.034108
v 0.007946 0.001000 0.038012
v 0.003922 -0.001000 0.034108
v 0.007946 -0.001000 0.038012
v 0.011969 -0.001000 0.041917
v 0.011969 0.001000 0.041917
v 0.011969 0.001000 0.041917
v 0.012872 0.001000 0.044011
v 0.011969 -0.001000 0.041917
v 0.012872 -0.001000 0.044011
v 0.013880 -0.001000 0.046223
v 0.013880 0.001000 0.046223
v 0.014935 -0.001000 0.048415
v 0.014935 0.001000 0.048415
v 0.016044 -0.001000 0.050604
v 0.016044 0.001000 0.050604
v 0.017199 -0.001000 0.052769
v 0.017199 0.001000 0.052769
v 0.018399 -0.001000 0.054910
v 0.018399 0.001000 0.054910
v 0.019643 -0.001000 0.057025
v 0.019643 0.001000 0.057025
v 0.020918 -0.001000 0.059096
v 0.020918 0.001000 0.059096
v 0.022237 -0.001000 0.061139
v 0.022237 0.001000 0.061139
v 0.023469 -0.001000 0.062966
v 0.023469 0.001000 0.062966
v 0.024736 -0.001000 0.064768
v 0.024736 0.001000 0.064768
v 0.026009 -0.001000 0.066529
v 0.026009 0.001000 0.066529
v 0.027318 -0.001000 0.068422
v 0.027318 -0.000000 0.068422
v 0.027318 0.001000 0.068422
v -0.005895 0.001000 0.043668
v -0.005895 -0.001000 0.043668
v -0.004546 0.001000 0.045028
v -0.002388 0.001000 0.047107
v -0.004546 -0.001000 0.045028
v -0.002388 -0.001000 0.047107
v -0.000177 -0.001000 0.049129
v 0.002153 -0.001000 0.051153
v -0.000177 0.001000 0.049129
v 0.002153 0.001000 0.051153
v 0.004532 0.001000 0.053121
v 0.004532 -0.001000 0.053121
v 0.007024 0.001000 0.055086
v 0.007024 -0.001000 0.055086
v 0.009560 0.001000 0.056995
v 0.009560 -0.001000 0.056995
v 0.012203 0.001000 0.058896
v 0.012203 -0.001000 0.058896
v 0.014885 0.001000 0.060743
v 0.017668 0.001000 0.062577
v 0.014885 -0.001000 0.060743
v 0.017668 -0.001000 0.062577
v 0.020485 -0.001000 0.064357
v 0.023394 -0.001000 0.066121
v 0.020485 0.001000 0.064357
v 0.023394 0.001000 0.066121
v 0.026334 0.001000 0.067832
v 0.026334 -0.000000 0.067832
v 0.026334 -0.001000 0.067832
v -0.026368 0.001000 0.000569
v -0.026080 0.001000 0.003264
v -0.026368 -0.001000 0.000569
v -0.026080 -0.001000 0.003264
v -0.025245 -0.001000 0.006012
v -0.023829 -0.001000 0.008648
v -0.025245 0.001000 0.006012
v -0.023829 0.001000 0.008648
v -0.021868 0.001000 0.010990
v -0.019468 0.001000 0.012880
v -0.021868 -0.001000 0.010990
v -0.019468 -0.001000 0.012880
v -0.016791 -0.001000 0.014216
v -0.014019 -0.001000 0.014969
v -0.016791 0.001000 0.014216
v -0.014019 0.001000 0.014969
v -0.011317 0.001000 0.015176
v -0.008623 0.001000 0.014888
v -0.011317 -0.001000 0.015176
v -0.008623 -0.001000 0.014888
v -0.005875 -0.001000 0.014053
v -0.003239 -0.001000 0.012637
v -0.005875 0.001000 0.014053
v -0.003239 0.001000 0.012637
v -0.000897 0.001000 0.010676
v 0.000993 0.001000 0.008276
v -0.000897 -0.001000 0.010676
v 0.000993 -0.001000 0.008276
v 0.002330 -0.001000 0.005599
v 0.003082 -0.001000 0.002827
v 0.002330 0.001000 0.005599
v 0.003082 0.001000 0.002827
v 0.003289 0.001000 0.000125
v 0.003001 0.001000 -0.002569
v 0.003289 -0.001000 0.000125
v 0.003001 -0.001000 -0.002569
v 0.002166 -0.001000 -0.005317
v 0.000750 -0.001000 -0.007953
v 0.002166 0.001000 -0.005317
v 0.000750 0.001000 -0.007953
v -0.001211 0.001000 -0.010295
v -0.003611 0.001000 -0.012185
v -0.001211 -0.001000 -0.010295
v -0.003611 -0.001000 -0.012185
v -0.006288 -0.001000 -0.013522
v -0.009060 -0.001000 -0.014274
v -0.006288 0.001000 -0.013522
v -0.009060 0.001000 -0.014274
v -0.011761 0.001000 -0.014481
v -0.014456 0.001000 -0.014193
v -0.011761 -0.001000 -0.014481
v -0.014456 -0.001000 -0.014193
v -0.017204 -0.001000 -0.013358
v -0.019840 -0.001000 -0.011942
v -0.017204 0.001000 -0.013358
v -0.019840 0.001000 -0.011942
v -0.022182 0.001000 -0.009981
v -0.024072 0.001000 -0.007581
v -0.022182 -0.001000 -0.009981
v -0.024072 -0.001000 -0.007581
v -0.025408 -0.001000 -0.004904
v -0.026161 -0.001000 -0.002132
v -0.025408 0.001000 -0.004904
v -0.026161 0.001000 -0.002132
v -0.026368 0.001000 0.000569
v -0.026368 -0.001000 0.000569
v 0.025263 0.001000 -0.068860
v 0.025263 0.000000 -0.068860
v 0.024297 0.001000 -0.068241
v 0.024297 0.000000 -0.068241
v 0.024297 -0.001000 -0.068241
v 0.025263 -0.001000 -0.068860
v -0.007194 0.001000 -0.043122
v -0.007952 0.001000 -0.042126
v -0.007194 -0.001000 -0.043122
v -0.007952 -0.001000 -0.042126
v -0.008544 -0.001000 -0.040939
v -0.008905 -0.001000 -0.039605
v -0.008544 0.001000 -0.040939
v -0.008905 0.001000 -0.039605
v -0.008990 0.001000 -0.038196
v -0.008784 0.001000 -0.036799
v -0.008990 -0.001000 -0.038196
v -0.008784 -0.001000 -0.036799
v -0.008309 -0.001000 -0.035501
v -0.007617 -0.001000 -0.034369
v -0.008309 0.001000 -0.035501
v -0.007617 0.001000 -0.034369
v -0.006776 0.001000 -0.033442
v -0.005779 0.001000 -0.032684
v -0.006776 -0.001000 -0.033442
v -0.005779 -0.001000 -0.032684
v -0.004592 -0.001000 -0.032092
v -0.003258 -0.001000 -0.031731
v -0.004592 0.001000 -0.032092
v -0.003258 0.001000 -0.031731
v -0.001849 0.001000 -0.031646
v -0.000452 0.001000 -0.031852
v -0.001849 -0.001000 -0.031646
v -0.000452 -0.001000 -0.031852
v 0.000846 -0.001000 -0.032327
v 0.001978 -0.001000 -0.033019
v 0.000846 0.001000 -0.032327
v 0.001978 0.001000 -0.033019
v 0.002905 0.001000 -0.033861
v 0.002905 -0.001000 -0.033861
v 0.002905 0.001000 -0.033861
v 0.006810 0.001000 -0.037884
v 0.002905 -0.001000 -0.033861
v 0.006810 -0.001000 -0.037884
v 0.010714 -0.001000 -0.041907
v 0.010714 0.001000 -0.041907
v 0.010714 0.001000 -0.041907
v 0.011554 0.001000 -0.044027
v 0.010714 -0.001000 -0.041907
v 0.011554 -0.001000 -0.044027
v 0.012495 -0.001000 -0.046269
v 0.012495 0.001000 -0.046269
v 0.013484 -0.001000 -0.048491
v 0.014527 -0.001000 -0.050712
v 0.013484 0.001000 -0.048491
v 0.014527 0.001000 -0.050712
v 0.015617 0.001000 -0.052911
v 0.016752 0.001000 -0.055087
v 0.015617 -0.001000 -0.052911
v 0.016752 -0.001000 -0.055087
v 0.017932 -0.001000 -0.057238
v 0.019145 -0.001000 -0.059346
v 0.017932 0.001000 -0.057238
v 0.019145 0.001000 -0.059346
v 0.020402 0.001000 -0.061428
v 0.020402 -0.001000 -0.061428
v 0.021579 0.001000 -0.063291
v 0.021579 -0.001000 -0.063291
v 0.022792 0.001000 -0.065130
v 0.022792 -0.001000 -0.065130
v 0.024011 0.001000 -0.066929
v 0.025263 0.000000 -0.068860
v 0.024011 -0.001000 -0.066929
v 0.025263 0.001000 -0.068860
v 0.025263 -0.001000 -0.068860
v -0.007194 0.001000 -0.043122
v -0.005886 0.001000 -0.044523
v -0.007194 -0.001000 -0.043122
v -0.005886 -0.001000 -0.044523
v -0.003792 -0.001000 -0.046665
v -0.003792 0.001000 -0.046665
v -0.001642 -0.001000 -0.048752
v 0.000626 -0.001000 -0.050845
v -0.001642 0.001000 -0.048752
v 0.000626 0.001000 -0.050845
v 0.002945 0.001000 -0.052883
v 0.002945 -0.001000 -0.052883
v 0.005377 0.001000 -0.054922
v 0.005377 -0.001000 -0.054922
v 0.007855 0.001000 -0.056906
v 0.010440 0.001000 -0.058886
v 0.007855 -0.001000 -0.056906
v 0.010440 -0.001000 -0.058886
v 0.013066 -0.001000 -0.060812
v 0.015792 -0.001000 -0.062728
v 0.013066 0.001000 -0.060812
v 0.015792 0.001000 -0.062728
v 0.018554 0.001000 -0.064592
v 0.021409 0.001000 -0.066442
v 0.018554 -0.001000 -0.064592
v 0.021409 -0.001000 -0.066442
v 0.024297 -0.001000 -0.068241
v 0.024297 0.000000 -0.068241
v 0.024297 0.001000 -0.068241
v 0.010993 -0.001000 0.034002
v 0.010993 -0.000000 0.034002
v 0.013442 -0.001000 0.031478
v 0.013442 0.001000 0.031478
v 0.010993 0.001000 0.034002
v 0.013442 -0.001000 0.031478
v 0.011949 -0.001000 0.026396
v 0.011949 -0.000000 0.026396
v 0.013442 0.001000 0.031478
v 0.011949 0.001000 0.026396
v 0.010700 0.001000 0.021215
v 0.010700 -0.000000 0.021215
v 0.008971 0.001000 0.010674
v 0.008288 0.001000 -0.000005
v 0.008971 -0.001000 0.010674
v 0.010700 -0.001000 0.021215
v 0.008288 -0.001000 -0.000005
v 0.008662 -0.001000 -0.010699
v 0.008662 0.001000 -0.010699
v 0.010080 0.000000 -0.021253
v 0.010080 -0.001000 -0.021253
v 0.011168 -0.000500 -0.026430
v 0.011168 -0.001000 -0.026430
v 0.011803 -0.001000 -0.028986
v 0.012499 -0.001000 -0.031517
v 0.011803 -0.000500 -0.028986
v 0.011803 0.000000 -0.028986
v 0.011168 0.000000 -0.026430
v 0.011803 0.000500 -0.028986
v 0.012499 0.000000 -0.031517
v 0.012499 0.001000 -0.031517
v 0.011803 0.001000 -0.028986
v 0.011168 0.001000 -0.026430
v 0.011168 0.000500 -0.026430
v 0.010080 0.001000 -0.021253
v 0.012499 -0.001000 -0.031517
v 0.011215 -0.001000 -0.032763
v 0.012499 0.000000 -0.031517
v 0.012499 0.001000 -0.031517
v 0.011215 0.001000 -0.032763
v 0.009975 0.001000 -0.033966
v 0.009975 0.000000 -0.033966
v 0.009975 -0.001000 -0.033966
v 0.009975 -0.001000 -0.033966
v 0.011368 -0.001000 -0.035402
v 0.009975 0.000000 -0.033966
v 0.009975 0.001000 -0.033966
v 0.011368 0.000000 -0.035402
v 0.011368 0.001000 -0.035402
v 0.011368 -0.001000 -0.035402
v 0.013144 -0.001000 -0.033677
v 0.011368 0.000000 -0.035402
v 0.011368 0.001000 -0.035402
v 0.013144 0.000000 -0.033677
v 0.013144 0.001000 -0.033677
v 0.027957 -0.001000 -0.073005
v 0.027957 0.000000 -0.073005
v 0.026454 -0.001000 -0.073942
v 0.026454 0.001000 -0.073942
v 0.024711 0.000000 -0.074174
v 0.024711 -0.001000 -0.074174
v 0.024711 0.001000 -0.074174
v 0.027957 0.001000 -0.073005
v 0.024711 -0.001000 -0.074174
v 0.024711 0.000000 -0.074174
v 0.021686 -0.001000 -0.072804
v 0.021686 0.001000 -0.072804
v 0.024711 0.001000 -0.074174
v 0.021686 -0.001000 -0.072804
v 0.016649 0.000000 -0.069610
v 0.016649 -0.001000 -0.069610
v 0.021686 0.001000 -0.072804
v 0.016649 0.001000 -0.069610
v 0.011788 0.001000 -0.066310
v 0.011788 0.000000 -0.066310
v 0.002384 0.001000 -0.059182
v 0.002384 -0.001000 -0.059182
v -0.006433 0.001000 -0.051304
v -0.006433 -0.001000 -0.051304
v -0.014698 0.001000 -0.042293
v -0.014698 -0.001000 -0.042293
v -0.021437 0.001000 -0.032882
v -0.026619 0.001000 -0.022909
v -0.021437 -0.001000 -0.032882
v -0.026619 -0.001000 -0.022909
v -0.030153 -0.001000 -0.011758
v -0.030153 0.001000 -0.011758
v -0.031375 -0.001000 -0.000215
v -0.031375 0.001000 -0.000215
v -0.030139 -0.001000 0.011291
v -0.030139 0.001000 0.011291
v -0.026595 -0.001000 0.022342
v -0.026595 0.001000 0.022342
v -0.021103 -0.001000 0.032649
v -0.021103 0.001000 0.032649
v -0.014091 -0.001000 0.042079
v -0.014091 0.001000 0.042079
v -0.006270 -0.001000 0.050310
v -0.006270 0.001000 0.050310
v 0.002758 -0.001000 0.058097
v 0.002758 0.001000 0.058097
v 0.012310 -0.000000 0.065035
v 0.012310 -0.001000 0.065035
v 0.017967 -0.000500 0.068679
v 0.017967 -0.001000 0.068679
v 0.020884 -0.001000 0.070446
v 0.020884 -0.000500 0.070446
v 0.023857 -0.001000 0.072175
v 0.023857 -0.000000 0.072175
v 0.020884 -0.000000 0.070446
v 0.023857 0.001000 0.072175
v 0.020884 0.000500 0.070446
v 0.020884 0.001000 0.070446
v 0.017967 0.001000 0.068679
v 0.017967 0.000500 0.068679
v 0.012310 0.001000 0.065035
v 0.017967 -0.000000 0.068679
v 0.011788 -0.001000 -0.066310
v 0.031677 -0.001000 0.065670
v 0.030295 -0.000500 0.063887
v 0.030295 -0.001000 0.063887
v 0.031677 -0.000000 0.065670
v 0.031677 0.001000 0.065670
v 0.030295 -0.000000 0.063887
v 0.030295 0.000500 0.063887
v 0.030295 0.001000 0.063887
v 0.028937 0.000500 0.062057
v 0.026306 0.001000 0.058262
v 0.028937 0.001000 0.062057
v 0.026306 -0.000000 0.058262
v 0.028937 -0.000000 0.062057
v 0.028937 -0.000500 0.062057
v 0.026306 -0.001000 0.058262
v 0.028937 -0.001000 0.062057
v 0.021630 -0.001000 0.050519
v 0.021630 0.001000 0.050519
v 0.017560 -0.000000 0.042295
v 0.017560 -0.001000 0.042295
v 0.015767 -0.000500 0.038006
v 0.015767 -0.001000 0.038006
v 0.014937 -0.001000 0.035824
v 0.014152 -0.001000 0.033618
v 0.014937 -0.000500 0.035824
v 0.014937 -0.000000 0.035824
v 0.015767 -0.000000 0.038006
v 0.014937 0.000500 0.035824
v 0.014152 -0.000000 0.033618
v 0.014152 0.001000 0.033618
v 0.014937 0.001000 0.035824
v 0.015767 0.001000 0.038006
v 0.017560 0.001000 0.042295
v 0.015767 0.000500 0.038006
v 0.014152 -0.001000 0.033618
v 0.014152 -0.000000 0.033618
v 0.012428 -0.001000 0.035395
v 0.012428 -0.000000 0.035395
v 0.012428 0.001000 0.035395
v 0.014152 0.001000 0.033618
v 0.012428 -0.001000 0.035395
v 0.012428 -0.000000 0.035395
v 0.010993 -0.001000 0.034002
v 0.010993 -0.000000 0.034002
v 0.010993 0.001000 0.034002
v 0.012428 0.001000 0.035395
v 0.013144 -0.001000 -0.033677
v 0.013829 -0.000500 -0.035798
v 0.013829 -0.001000 -0.035798
v 0.013144 0.000000 -0.033677
v 0.013829 0.000000 -0.035798
v 0.013829 0.000500 -0.035798
v 0.013144 0.001000 -0.033677
v 0.013829 0.001000 -0.035798
v 0.014573 0.001000 -0.037941
v 0.016237 0.001000 -0.042271
v 0.014573 0.000500 -0.037941
v 0.014573 0.000000 -0.037941
v 0.016237 0.000000 -0.042271
v 0.020117 0.001000 -0.050729
v 0.016237 -0.001000 -0.042271
v 0.020117 -0.001000 -0.050729
v 0.014573 -0.000500 -0.037941
v 0.014573 -0.001000 -0.037941
v 0.024672 0.000000 -0.058827
v 0.024672 -0.001000 -0.058827
v 0.027142 -0.000500 -0.062639
v 0.027142 -0.001000 -0.062639
v 0.028413 -0.001000 -0.064468
v 0.028413 -0.000500 -0.064468
v 0.029702 -0.001000 -0.066240
v 0.029702 0.000000 -0.066240
v 0.028413 0.000000 -0.064468
v 0.028413 0.000500 -0.064468
v 0.029702 0.001000 -0.066240
v 0.028413 0.001000 -0.064468
v 0.027142 0.001000 -0.062639
v 0.027142 0.000500 -0.062639
v 0.024672 0.001000 -0.058827
v 0.027142 0.000000 -0.062639
v 0.029702 -0.001000 -0.066240
v 0.029702 0.000000 -0.066240
v 0.030366 -0.001000 -0.067574
v 0.030366 0.001000 -0.067574
v 0.030517 -0.001000 -0.069108
v 0.030517 0.001000 -0.069108
v 0.030104 -0.001000 -0.070582
v 0.030104 0.001000 -0.070582
v 0.029259 -0.001000 -0.071741
v 0.029259 0.000000 -0.071741
v 0.029259 0.001000 -0.071741
v 0.029702 0.001000 -0.066240
v 0.029259 -0.001000 -0.071741
v 0.029259 0.000000 -0.071741
v 0.027957 -0.001000 -0.073005
v 0.027957 0.000000 -0.073005
v 0.027957 0.001000 -0.073005
v 0.029259 0.001000 -0.071741
v 0.023857 -0.001000 0.072175
v 0.025227 -0.001000 0.073297
v 0.023857 -0.000000 0.072175
v 0.023857 0.001000 0.072175
v 0.025227 0.001000 0.073297
v 0.026926 0.001000 0.073750
v 0.026926 -0.001000 0.073750
v 0.028673 0.001000 0.073461
v 0.028673 -0.001000 0.073461
v 0.030135 0.001000 0.072485
v 0.030135 -0.000000 0.072485
v 0.030135 -0.001000 0.072485
v 0.030135 -0.001000 0.072485
v 0.030135 -0.000000 0.072485
v 0.031399 -0.001000 0.071182
v 0.031399 -0.000000 0.071182
v 0.031399 0.001000 0.071182
v 0.030135 0.001000 0.072485
v 0.031399 -0.001000 0.071182
v 0.032229 -0.001000 0.069946
v 0.031399 -0.000000 0.071182
v 0.031399 0.001000 0.071182
v 0.032229 0.001000 0.069946
v 0.032577 0.001000 0.068445
v 0.032577 -0.001000 0.068445
v 0.032361 0.001000 0.066929
v 0.031677 0.001000 0.065670
v 0.031677 -0.000000 0.065670
v 0.032361 -0.001000 0.066929
v 0.031677 -0.001000 0.065670
v 0.013442 -0.001000 0.031478
v -0.000897 -0.001000 0.010676
v -0.005875 -0.001000 0.014053
v 0.002330 -0.001000 0.005599
v 0.008288 -0.001000 0.000051
v 0.010993 -0.001000 0.034002
v 0.001818 -0.001000 0.032636
v 0.003922 -0.001000 0.034108
v 0.011969 -0.001000 0.041917
v 0.012428 -0.001000 0.035395
v 0.012872 -0.001000 0.044011
v 0.014152 -0.001000 0.033618
v 0.014935 -0.001000 0.048415
v 0.031677 -0.001000 0.065670
v 0.017199 -0.001000 0.052769
v 0.019643 -0.001000 0.057025
v 0.029372 -0.001000 0.065094
v 0.031927 -0.001000 0.067573
v 0.032366 -0.001000 0.066944
v 0.032575 -0.001000 0.068478
v 0.030689 -0.001000 0.068849
v 0.032213 -0.001000 0.069984
v 0.031399 -0.001000 0.071182
v 0.027318 -0.001000 0.068422
v 0.030135 -0.001000 0.072485
v 0.028213 -0.001000 0.071400
v 0.028667 -0.001000 0.073464
v 0.026975 -0.001000 0.072676
v 0.026926 -0.001000 0.073750
v 0.025221 -0.001000 0.073294
v 0.024420 -0.001000 0.070196
v 0.023857 -0.001000 0.072175
v 0.004532 -0.001000 0.053121
v -0.016099 -0.001000 0.039637
v 0.009560 -0.001000 0.056995
v 0.014885 -0.001000 0.060743
v 0.021866 -0.001000 0.067717
v 0.020485 -0.001000 0.064357
v 0.023103 -0.001000 0.066442
v 0.026334 -0.001000 0.067832
v 0.025658 -0.001000 0.068921
v -0.011345 -0.001000 0.035486
v -0.021564 -0.001000 0.025569
v -0.027318 -0.001000 0.020582
v -0.007310 -0.001000 0.041525
v -0.004546 -0.001000 0.045028
v -0.005895 -0.001000 0.043668
v -0.000177 -0.001000 0.049129
v -0.007837 -0.001000 0.038797
v -0.007237 -0.001000 0.036083
v -0.005766 -0.001000 0.033979
v -0.008869 -0.001000 0.032935
v -0.006393 -0.001000 0.030384
v -0.016612 -0.001000 0.020467
v -0.021868 -0.001000 0.010990
v -0.016791 -0.001000 0.014216
v -0.011317 -0.001000 0.015176
v -0.000895 -0.001000 0.032037
v -0.003624 -0.001000 0.032564
v -0.025245 -0.001000 0.006012
v -0.031369 -0.001000 0.000562
v -0.026368 -0.001000 0.000569
v -0.025408 -0.001000 -0.004904
v -0.022182 -0.001000 -0.009981
v -0.027920 -0.001000 -0.019581
v -0.017276 -0.001000 -0.038989
v -0.012291 -0.001000 -0.024879
v -0.011761 -0.001000 -0.014481
v -0.017204 -0.001000 -0.013358
v -0.006288 -0.001000 -0.013522
v -0.001211 -0.001000 -0.010295
v -0.002072 -0.001000 -0.014962
v -0.002230 -0.001000 -0.025023
v 0.002880 -0.001000 -0.020064
v 0.002166 -0.001000 -0.005317
v 0.003289 -0.001000 0.000125
v 0.005356 -0.001000 -0.022616
v 0.000246 -0.001000 -0.027574
v 0.007832 -0.001000 -0.025167
v 0.002722 -0.001000 -0.030125
v 0.010307 -0.001000 -0.027718
v 0.009975 -0.001000 -0.033966
v 0.012499 -0.001000 -0.031517
v 0.005198 -0.001000 -0.032676
v 0.002905 -0.001000 -0.033861
v 0.010714 -0.001000 -0.041907
v 0.000846 -0.001000 -0.032327
v -0.001849 -0.001000 -0.031646
v -0.004592 -0.001000 -0.032092
v -0.007339 -0.001000 -0.029982
v -0.006776 -0.001000 -0.033442
v -0.008309 -0.001000 -0.035501
v -0.008990 -0.001000 -0.038196
v -0.008544 -0.001000 -0.040939
v -0.007194 -0.001000 -0.043122
v -0.005886 -0.001000 -0.044523
v -0.001642 -0.001000 -0.048752
v 0.002945 -0.001000 -0.052883
v 0.021686 -0.001000 -0.072804
v 0.007855 -0.001000 -0.056906
v 0.013066 -0.001000 -0.060812
v 0.018554 -0.001000 -0.064592
v 0.024297 -0.001000 -0.068241
v 0.025263 -0.001000 -0.068860
v 0.023452 -0.001000 -0.071932
v 0.024690 -0.001000 -0.073208
v 0.026007 -0.001000 -0.069453
v 0.028561 -0.001000 -0.066973
v 0.027245 -0.001000 -0.070728
v 0.029799 -0.001000 -0.068249
v 0.026460 -0.001000 -0.073940
v 0.027957 -0.001000 -0.073005
v 0.029259 -0.001000 -0.071741
v 0.030519 -0.001000 -0.069083
v 0.030109 -0.001000 -0.070571
v 0.030357 -0.001000 -0.067544
v 0.029702 -0.001000 -0.066240
v 0.022792 -0.001000 -0.065130
v 0.020402 -0.001000 -0.061428
v 0.017932 -0.001000 -0.057238
v 0.015617 -0.001000 -0.052911
v 0.013144 -0.001000 -0.033677
v 0.013484 -0.001000 -0.048491
v 0.011554 -0.001000 -0.044027
v 0.011368 -0.001000 -0.035402
v 0.024711 -0.001000 -0.074174
v 0.028134 -0.001000 0.066370
v 0.024736 -0.001000 0.064768
v 0.022237 -0.001000 0.061139
vn 0.000000 1.000000 0.000000
vn 0.000000 1.000000 0.000000
vn 0.000000 1.000000 0.000000
vn 0.000000 1.000000 0.000000
vn 0.000000 1.000000 0.000000
vn 0.000000 1.000000 0.000000
vn 0.000000 1.000000 0.000000
vn 0.000000 1.000000 0.000000
vn 0.000000 1.000000 0.000000
vn 0.000000 1.000000 0.000000
vn 0.000000 1.000000 0.000000
vn 0.000000 1.000000 0.000000
vn 0.000000 1.000000 0.000000
vn 0.000000 1.000000 0.000000
vn 0.000000 1.000000 0.000000
vn 0.000000 1.000000 0.000000
vn 0.000000 1.000000 0.000000
vn 0.000000 1.000000 0.000000
vn 0.000000 1.000000 0.000000
vn 0.000000 1.000000 0.000000
vn 0.000000 1.000000 0.000000
vn 0.000000 1.000000 0.000000
vn 0.000000 1.000000 0.000000
vn 0.000000 1.000000 0.000000
vn 0.000000 1.000000 0.000000
vn 0.000000 1.000000 0.000000
vn 0.000000 1.000000 0.000000
vn 0.000000 1.000000 0.000000
vn 0.000000 1.000000 0.000000
vn 0.000000 1.000000 0.000000
vn 0.000000 1.000000 0.000000
vn 0.000000 1.000000 0.000000
vn 0.000000 1.000000 0.000000
vn 0.000000 1.000000 0.000000
vn 0.000000 1.000000 0.000000
vn 0.000000 1.000000 0.000000
vn 0.000000 1.000000 0.000000
vn 0.000000 1.000000 0.000000
vn 0.000000 1.000000 0.000000
vn 0.000000 1.000000 0.000000
vn 0.000000 1.000000 0.000000
vn 0.000000 1.000000 0.000000
vn 0.000000 1.000000 0.000000
vn 0.000000 1.000000 0.000000
vn 0.000000 1.000000 0.000000
vn 0.000000 1.000000 0.000000
vn 0.000000 1.000000 0.000000
vn 0.000000 1.000000 0.000000
vn 0.000000 1.000000 0.000000
vn 0.000000 1.000000 0.000000
vn 0.000000 1.000000 0.000000
vn 0.000000 1.000000 0.000000
vn 0.000000 1.000000 0.000000
vn 0.000000 1.000000 0.000000
vn 0.000000 1.000000 0.000000
vn 0.000000 1.000000 0.000000
vn 0.000000 1.000000 0.000000
vn 0.000000 1.000000 0.000000
vn 0.000000 1.000000 0.000000
vn 0.000000 1.000000 0.000000
vn 0.000000 1.000000 0.000000
vn 0.000000 1.000000 0.000000
vn 0.000000 1.000000 0.000000
vn 0.000000 1.000000 0.000000
vn 0.000000 1.000000 0.000000
vn 0.000000 1.000000 0.000000
vn 0.000000 1.000000 0.000000
vn 0.000000 1.000000 0.000000
vn 0.000000 1.000000 0.000000
vn 0.000000 1.000000 0.000000
vn 0.000000 1.000000 0.000000
vn 0.000000 1.000000 0.000000
vn 0.000000 1.000000 0.000000
vn 0.000000 1.000000 0.000000
vn 0.000000 1.000000 0.000000
vn 0.000000 1.000000 0.000000
vn 0.000000 1.000000 0.000000
vn 0.000000 1.000000 0.000000
vn 0.000000 1.000000 0.000000
vn 0.000000 1.000000 0.000000
vn 0.000000 1.000000 0.000000
vn 0.000000 1.000000 0.000000
vn 0.000000 1.000000 0.000000
vn 0.000000 1.000000 0.000000
vn 0.000000 1.000000 0.000000
vn 0.000000 1.000000 0.000000
vn 0.000000 1.000000 0.000000
vn 0.000000 1.000000 0.000000
vn 0.000000 1.000000 0.000000
vn 0.000000 1.000000 0.000000
vn 0.000000 1.000000 0.000000
vn 0.000000 1.000000 0.000000
vn 0.000000 1.000000 0.000000
vn 0.000000 1.000000 0.000000
vn 0.000000 1.000000 0.000000
vn 0.000000 1.000000 0.000000
vn 0.000000 1.000000 0.000000
vn 0.000000 1.000000 0.000000
vn 0.000000 1.000000 0.000000
vn 0.000000 1.000000 0.000000
vn 0.000000 1.000000 0.000000
vn 0.000000 1.000000 0.000000
vn 0.000000 1.000000 0.000000
vn 0.000000 1.000000 0.000000
vn 0.000000 1.000000 0.000000
vn 0.000000 1.000000 0.000000
vn 0.000000 1.000000 0.000000
vn 0.000000 1.000000 0.000000
vn 0.000000 1.000000 0.000000
vn 0.000000 1.000000 0.000000
vn 0.000000 1.000000 0.000000
vn 0.000000 1.000000 0.000000
vn 0.000000 1.000000 0.000000
vn 0.000000 1.000000 0.000000
vn 0.000000 1.000000 0.000000
vn 0.000000 1.000000 0.000000
vn 0.000000 1.000000 0.000000
vn 0.000000 1.000000 0.000000
vn 0.000000 1.000000 0.000000
vn 0.000000 1.000000 0.000000
vn 0.000000 1.000000 0.000000
vn 0.000000 1.000000 0.000000
vn 0.000000 1.000000 0.000000
vn 0.000000 1.000000 0.000000
vn 0.000000 1.000000 0.000000
vn 0.000000 1.000000 0.000000
vn 0.000000 1.000000 0.000000
vn 0.000000 1.000000 0.000000
vn 0.000000 1.000000 0.000000
vn 0.513996 0.000000 -0.857793
vn 0.513996 0.000000 -0.857793
vn 0.513996 0.000000 -0.857793
vn 0.513996 0.000000 -0.857793
vn 0.513996 0.000000 -0.857793
vn 0.513996 0.000000 -0.857793
vn 0.716494 0.000000 -0.697594
vn 0.831388 0.000000 -0.555692
vn 0.716494 0.000000 -0.697594
vn 0.831388 0.000000 -0.555692
vn 0.922950 0.000000 -0.384921
vn 0.922950 0.000000 -0.384921
vn 0.981395 0.000000 -0.191999
vn 0.981395 0.000000 -0.191999
vn 0.999912 -0.000000 0.013300
vn 0.999912 -0.000000 0.013300
vn 0.975972 -0.000000 0.217894
vn 0.975972 -0.000000 0.217894
vn 0.912400 -0.000000 0.409300
vn 0.912400 -0.000000 0.409300
vn 0.816394 -0.000000 0.577496
vn 0.816394 -0.000000 0.577496
vn 0.697695 -0.000000 0.716395
vn 0.697695 -0.000000 0.716395
vn 0.555623 -0.000000 0.831434
vn 0.555623 -0.000000 0.831434
vn 0.384885 -0.000000 0.922964
vn 0.384885 -0.000000 0.922964
vn 0.191903 -0.000000 0.981414
vn 0.191903 -0.000000 0.981414
vn -0.013300 -0.000000 0.999912
vn -0.013300 -0.000000 0.999912
vn -0.217894 -0.000000 0.975972
vn -0.217894 -0.000000 0.975972
vn -0.409300 -0.000000 0.912400
vn -0.409300 -0.000000 0.912400
vn -0.577496 -0.000000 0.816394
vn -0.577496 -0.000000 0.816394
vn -0.716395 -0.000000 0.697695
vn -0.716395 -0.000000 0.697695
vn -0.696427 -0.000000 0.717628
vn -0.696427 -0.000000 0.717628
vn -0.696427 -0.000000 0.717628
vn -0.696427 -0.000000 0.717628
vn -0.696427 -0.000000 0.717628
vn -0.696427 -0.000000 0.717628
vn -0.922255 -0.000000 0.386581
vn -0.914404 -0.000000 0.404802
vn -0.922255 -0.000000 0.386581
vn -0.914404 -0.000000 0.404802
vn -0.905574 -0.000000 0.424188
vn -0.905574 -0.000000 0.424188
vn -0.896577 -0.000000 0.442889
vn -0.896577 -0.000000 0.442889
vn -0.887194 -0.000000 0.461397
vn -0.887194 -0.000000 0.461397
vn -0.877425 -0.000000 0.479714
vn -0.877425 -0.000000 0.479714
vn -0.867294 -0.000000 0.497797
vn -0.867294 -0.000000 0.497797
vn -0.856777 -0.000000 0.515686
vn -0.856777 -0.000000 0.515686
vn -0.845845 -0.000000 0.533429
vn -0.845845 -0.000000 0.533429
vn -0.834504 -0.000000 0.551002
vn -0.834504 -0.000000 0.551002
vn -0.823508 -0.000000 0.567305
vn -0.823508 -0.000000 0.567305
vn -0.812190 -0.000000 0.583393
vn -0.812190 -0.000000 0.583393
vn -0.812902 -0.000000 0.582401
vn -0.812902 -0.000000 0.582401
vn -0.834381 -0.000000 0.551188
vn -0.834381 -0.000000 0.551188
vn -0.834381 -0.000000 0.551188
vn 0.716395 0.000000 -0.697695
vn 0.716395 0.000000 -0.697695
vn 0.703699 0.000000 -0.710499
vn 0.684403 0.000000 -0.729104
vn 0.703699 0.000000 -0.710499
vn 0.684403 0.000000 -0.729104
vn 0.665338 0.000000 -0.746542
vn 0.646673 0.000000 -0.762768
vn 0.665338 0.000000 -0.746542
vn 0.646673 0.000000 -0.762768
vn 0.628286 0.000000 -0.777983
vn 0.628286 0.000000 -0.777983
vn 0.610286 0.000000 -0.792181
vn 0.610286 0.000000 -0.792181
vn 0.592711 0.000000 -0.805415
vn 0.592711 0.000000 -0.805415
vn 0.575501 0.000000 -0.817801
vn 0.575501 0.000000 -0.817801
vn 0.558732 0.000000 -0.829348
vn 0.542293 0.000000 -0.840189
vn 0.558732 0.000000 -0.829348
vn 0.542293 0.000000 -0.840189
vn 0.526372 0.000000 -0.850255
vn 0.510800 0.000000 -0.859700
vn 0.526372 0.000000 -0.850255
vn 0.510800 0.000000 -0.859700
vn 0.495503 0.000000 -0.868606
vn 0.495503 0.000000 -0.868606
vn 0.495503 0.000000 -0.868606
vn 0.999887 0.000000 -0.015000
vn 0.980465 0.000000 -0.196693
vn 0.999887 0.000000 -0.015000
vn 0.980465 0.000000 -0.196693
vn 0.924203 0.000000 -0.381901
vn 0.828619 0.000000 -0.559813
vn 0.924203 0.000000 -0.381901
vn 0.828619 0.000000 -0.559813
vn 0.696427 0.000000 -0.717628
vn 0.534602 0.000000 -0.845104
vn 0.696427 0.000000 -0.717628
vn 0.534602 0.000000 -0.845104
vn 0.354190 0.000000 -0.935174
vn 0.167204 0.000000 -0.985922
vn 0.354190 0.000000 -0.935174
vn 0.167204 0.000000 -0.985922
vn -0.015000 0.000000 -0.999887
vn -0.196693 0.000000 -0.980465
vn -0.015000 0.000000 -0.999887
vn -0.196693 0.000000 -0.980465
vn -0.381987 0.000000 -0.924168
vn -0.559813 0.000000 -0.828619
vn -0.381987 0.000000 -0.924168
vn -0.559813 0.000000 -0.828619
vn -0.717628 0.000000 -0.696427
vn -0.845104 0.000000 -0.534602
vn -0.717628 0.000000 -0.696427
vn -0.845104 0.000000 -0.534602
vn -0.935173 0.000000 -0.354190
vn -0.985906 0.000000 -0.167301
vn -0.935173 0.000000 -0.354190
vn -0.985906 0.000000 -0.167301
vn -0.999887 -0.000000 0.015000
vn -0.980465 -0.000000 0.196693
vn -0.999887 -0.000000 0.015000
vn -0.980465 -0.000000 0.196693
vn -0.924168 -0.000000 0.381987
vn -0.828697 -0.000000 0.559698
vn -0.924168 -0.000000 0.381987
vn -0.828697 -0.000000 0.559698
vn -0.696427 -0.000000 0.717628
vn -0.534602 -0.000000 0.845104
vn -0.696427 -0.000000 0.717628
vn -0.534602 -0.000000 0.845104
vn -0.354190 -0.000000 0.935174
vn -0.167301 -0.000000 0.985906
vn -0.354190 -0.000000 0.935174
vn -0.167301 -0.000000 0.985906
vn 0.015000 -0.000000 0.999887
vn 0.196693 -0.000000 0.980465
vn 0.015000 -0.000000 0.999887
vn 0.196693 -0.000000 0.980465
vn 0.381987 -0.000000 0.924168
vn 0.559698 -0.000000 0.828697
vn 0.381987 -0.000000 0.924168
vn 0.559698 -0.000000 0.828697
vn 0.717628 -0.000000 0.696427
vn 0.845030 -0.000000 0.534719
vn 0.717628 -0.000000 0.696427
vn 0.845030 -0.000000 0.534719
vn 0.935173 -0.000000 0.354190
vn 0.985906 -0.000000 0.167301
vn 0.935173 -0.000000 0.354190
vn 0.985906 -0.000000 0.167301
vn 0.999889 0.000000 -0.014900
vn 0.999889 0.000000 -0.014900
vn 0.539493 -0.000000 0.841990
vn 0.539493 -0.000000 0.841990
vn 0.539493 -0.000000 0.841990
vn 0.539493 -0.000000 0.841990
vn 0.539493 -0.000000 0.841990
vn 0.539493 -0.000000 0.841990
vn 0.736996 -0.000000 0.675897
vn 0.847689 -0.000000 0.530493
vn 0.736996 -0.000000 0.675897
vn 0.847689 -0.000000 0.530493
vn 0.934024 -0.000000 0.357209
vn 0.986708 -0.000000 0.162501
vn 0.934024 -0.000000 0.357209
vn 0.986708 -0.000000 0.162501
vn 0.999067 0.000000 -0.043199
vn 0.969015 0.000000 -0.247004
vn 0.999067 0.000000 -0.043199
vn 0.969015 0.000000 -0.247004
vn 0.899762 0.000000 -0.436382
vn 0.798714 0.000000 -0.601711
vn 0.899762 0.000000 -0.436382
vn 0.798714 0.000000 -0.601711
vn 0.675897 0.000000 -0.736996
vn 0.530493 0.000000 -0.847689
vn 0.675897 0.000000 -0.736996
vn 0.530493 0.000000 -0.847689
vn 0.357001 0.000000 -0.934104
vn 0.162501 0.000000 -0.986708
vn 0.357001 0.000000 -0.934104
vn 0.162501 0.000000 -0.986708
vn -0.043199 0.000000 -0.999067
vn -0.247004 0.000000 -0.969015
vn -0.043199 0.000000 -0.999067
vn -0.247004 0.000000 -0.969015
vn -0.436381 0.000000 -0.899762
vn -0.601711 0.000000 -0.798714
vn -0.436381 0.000000 -0.899762
vn -0.601711 0.000000 -0.798714
vn -0.736996 0.000000 -0.675897
vn -0.736996 0.000000 -0.675897
vn -0.717628 0.000000 -0.696427
vn -0.717628 0.000000 -0.696427
vn -0.717628 0.000000 -0.696427
vn -0.717628 0.000000 -0.696427
vn -0.717628 0.000000 -0.696427
vn -0.717628 0.000000 -0.696427
vn -0.933413 0.000000 -0.358805
vn -0.925924 0.000000 -0.377710
vn -0.933413 0.000000 -0.358805
vn -0.925924 0.000000 -0.377710
vn -0.917868 0.000000 -0.396886
vn -0.917868 0.000000 -0.396886
vn -0.909409 0.000000 -0.415904
vn -0.900580 0.000000 -0.434690
vn -0.909409 0.000000 -0.415904
vn -0.900580 0.000000 -0.434690
vn -0.891367 0.000000 -0.453283
vn -0.881768 0.000000 -0.471683
vn -0.891367 0.000000 -0.453283
vn -0.881768 0.000000 -0.471683
vn -0.871826 0.000000 -0.489815
vn -0.861412 0.000000 -0.507907
vn -0.871826 0.000000 -0.489815
vn -0.861412 0.000000 -0.507907
vn -0.850795 0.000000 -0.525497
vn -0.850795 0.000000 -0.525497
vn -0.840114 0.000000 -0.542409
vn -0.840114 0.000000 -0.542409
vn -0.829302 0.000000 -0.558801
vn -0.829302 0.000000 -0.558801
vn -0.829983 0.000000 -0.557789
vn -0.850489 0.000000 -0.525993
vn -0.829983 0.000000 -0.557789
vn -0.850489 0.000000 -0.525993
vn -0.850489 0.000000 -0.525993
vn 0.736996 -0.000000 0.675897
vn 0.724585 -0.000000 0.689186
vn 0.736996 -0.000000 0.675897
vn 0.724585 -0.000000 0.689186
vn 0.705906 -0.000000 0.708306
vn 0.705906 -0.000000 0.708306
vn 0.687389 -0.000000 0.726289
vn 0.669191 -0.000000 0.743090
vn 0.687389 -0.000000 0.726289
vn 0.669191 -0.000000 0.743090
vn 0.651310 -0.000000 0.758812
vn 0.651310 -0.000000 0.758812
vn 0.633798 -0.000000 0.773498
vn 0.633798 -0.000000 0.773498
vn 0.616589 -0.000000 0.787286
vn 0.599776 -0.000000 0.800168
vn 0.616589 -0.000000 0.787286
vn 0.599776 -0.000000 0.800168
vn 0.583327 -0.000000 0.812238
vn 0.567237 -0.000000 0.823554
vn 0.583327 -0.000000 0.812238
vn 0.567237 -0.000000 0.823554
vn 0.551604 -0.000000 0.834106
vn 0.536312 -0.000000 0.844020
vn 0.551604 -0.000000 0.834106
vn 0.536312 -0.000000 0.844020
vn 0.521288 -0.000000 0.853381
vn 0.521288 -0.000000 0.853381
vn 0.521288 -0.000000 0.853381
vn 0.717628 -0.000000 0.696427
vn 0.717628 -0.000000 0.696427
vn 0.717628 -0.000000 0.696427
vn 0.717628 -0.000000 0.696427
vn 0.717628 -0.000000 0.696427
vn 0.952318 0.000000 -0.305106
vn 0.966117 0.000000 -0.258105
vn 0.966117 0.000000 -0.258105
vn 0.952318 0.000000 -0.305106
vn 0.966117 0.000000 -0.258105
vn 0.977615 0.000000 -0.210403
vn 0.977615 0.000000 -0.210403
vn 0.993595 0.000000 -0.112999
vn 0.999895 0.000000 -0.014500
vn 0.993595 0.000000 -0.112999
vn 0.977615 0.000000 -0.210403
vn 0.999895 0.000000 -0.014500
vn 0.996449 -0.000000 0.084196
vn 0.996449 -0.000000 0.084196
vn 0.983356 -0.000000 0.181692
vn 0.983352 -0.000000 0.181710
vn 0.973308 -0.000000 0.229502
vn 0.973308 -0.000000 0.229502
vn 0.967438 -0.000000 0.253110
vn 0.961013 -0.000000 0.276504
vn 0.967438 -0.000000 0.253110
vn 0.967438 -0.000000 0.253110
vn 0.973308 -0.000000 0.229502
vn 0.967438 -0.000000 0.253110
vn 0.961013 -0.000000 0.276504
vn 0.961013 -0.000000 0.276504
vn 0.967438 -0.000000 0.253110
vn 0.973308 -0.000000 0.229502
vn 0.973308 -0.000000 0.229502
vn 0.983352 -0.000000 0.181710
vn 0.696478 0.000000 -0.717578
vn 0.696427 0.000000 -0.717628
vn 0.696478 0.000000 -0.717578
vn 0.696478 0.000000 -0.717578
vn 0.696427 0.000000 -0.717628
vn 0.696427 0.000000 -0.717628
vn 0.696427 0.000000 -0.717628
vn 0.696427 0.000000 -0.717628
vn 0.717628 -0.000000 0.696427
vn 0.717628 -0.000000 0.696427
vn 0.717628 -0.000000 0.696427
vn 0.717628 -0.000000 0.696427
vn 0.717628 -0.000000 0.696427
vn 0.717628 -0.000000 0.696427
vn -0.696478 -0.000000 0.717578
vn -0.696478 -0.000000 0.717578
vn -0.696478 -0.000000 0.717578
vn -0.696478 -0.000000 0.717578
vn -0.696478 -0.000000 0.717578
vn -0.696478 -0.000000 0.717578
vn 0.696325 0.000000 -0.717726
vn 0.696377 0.000000 -0.717676
vn 0.337299 0.000000 -0.941398
vn 0.337299 0.000000 -0.941398
vn -0.078998 0.000000 -0.996875
vn -0.078998 0.000000 -0.996875
vn -0.078998 0.000000 -0.996875
vn 0.696325 0.000000 -0.717726
vn -0.309409 0.000000 -0.950929
vn -0.309500 0.000000 -0.950900
vn -0.551974 0.000000 -0.833861
vn -0.551974 0.000000 -0.833861
vn -0.309409 0.000000 -0.950929
vn -0.522897 0.000000 -0.852396
vn -0.548292 0.000000 -0.836287
vn -0.548709 0.000000 -0.836014
vn -0.522897 0.000000 -0.852396
vn -0.548709 0.000000 -0.836014
vn -0.575206 0.000000 -0.818009
vn -0.575206 0.000000 -0.818009
vn -0.633798 0.000000 -0.773498
vn -0.633798 0.000000 -0.773498
vn -0.699516 0.000000 -0.714617
vn -0.699516 0.000000 -0.714617
vn -0.774803 0.000000 -0.632203
vn -0.774803 0.000000 -0.632203
vn -0.850416 0.000000 -0.526110
vn -0.921196 0.000000 -0.389098
vn -0.850416 0.000000 -0.526110
vn -0.921196 0.000000 -0.389098
vn -0.978173 0.000000 -0.207794
vn -0.978173 0.000000 -0.207794
vn -1.000000 -0.000000 0.000800
vn -1.000000 -0.000000 0.000800
vn -0.977701 -0.000000 0.210000
vn -0.977701 -0.000000 0.210000
vn -0.919248 -0.000000 0.393678
vn -0.919248 -0.000000 0.393678
vn -0.842304 -0.000000 0.539003
vn -0.842304 -0.000000 0.539003
vn -0.761715 -0.000000 0.647913
vn -0.761715 -0.000000 0.647913
vn -0.688416 -0.000000 0.725317
vn -0.688416 -0.000000 0.725317
vn -0.618824 -0.000000 0.785530
vn -0.618824 -0.000000 0.785530
vn -0.557536 -0.000000 0.830153
vn -0.557536 -0.000000 0.830153
vn -0.525804 -0.000000 0.850606
vn -0.525804 -0.000000 0.850606
vn -0.510490 -0.000000 0.859884
vn -0.510490 -0.000000 0.859884
vn -0.495503 -0.000000 0.868606
vn -0.495503 -0.000000 0.868606
vn -0.510490 -0.000000 0.859884
vn -0.495503 -0.000000 0.868606
vn -0.510490 -0.000000 0.859884
vn -0.510490 -0.000000 0.859884
vn -0.525804 -0.000000 0.850606
vn -0.525804 -0.000000 0.850606
vn -0.557536 -0.000000 0.830153
vn -0.525804 -0.000000 0.850606
vn -0.575206 0.000000 -0.818009
vn 0.783942 0.000000 -0.620834
vn 0.796821 0.000000 -0.604216
vn 0.796821 0.000000 -0.604216
vn 0.783942 0.000000 -0.620834
vn 0.783942 0.000000 -0.620834
vn 0.796821 0.000000 -0.604216
vn 0.796821 0.000000 -0.604216
vn 0.796821 0.000000 -0.604216
vn 0.809427 0.000000 -0.587220
vn 0.833785 0.000000 -0.552090
vn 0.809427 0.000000 -0.587220
vn 0.833785 0.000000 -0.552090
vn 0.809427 0.000000 -0.587220
vn 0.809427 0.000000 -0.587220
vn 0.833785 0.000000 -0.552090
vn 0.809427 0.000000 -0.587220
vn 0.876889 0.000000 -0.480694
vn 0.876889 0.000000 -0.480694
vn 0.914133 0.000000 -0.405415
vn 0.914149 0.000000 -0.405378
vn 0.930694 0.000000 -0.365798
vn 0.930728 0.000000 -0.365711
vn 0.938449 0.000000 -0.345418
vn 0.945743 0.000000 -0.324915
vn 0.938449 0.000000 -0.345418
vn 0.938449 0.000000 -0.345418
vn 0.930728 0.000000 -0.365711
vn 0.938449 0.000000 -0.345418
vn 0.945743 0.000000 -0.324915
vn 0.945743 0.000000 -0.324915
vn 0.938449 0.000000 -0.345418
vn 0.930728 0.000000 -0.365711
vn 0.914149 0.000000 -0.405378
vn 0.930694 0.000000 -0.365798
vn -0.717628 0.000000 -0.696427
vn -0.717628 0.000000 -0.696427
vn -0.717628 0.000000 -0.696427
vn -0.717628 0.000000 -0.696427
vn -0.717628 0.000000 -0.696427
vn -0.717628 0.000000 -0.696427
vn 0.696478 0.000000 -0.717578
vn 0.696478 0.000000 -0.717578
vn 0.696478 0.000000 -0.717578
vn 0.696478 0.000000 -0.717578
vn 0.696478 0.000000 -0.717578
vn 0.696478 0.000000 -0.717578
vn 0.955030 -0.000000 0.296509
vn 0.948222 -0.000000 0.317608
vn 0.948222 -0.000000 0.317608
vn 0.955030 -0.000000 0.296509
vn 0.948222 -0.000000 0.317608
vn 0.948222 -0.000000 0.317608
vn 0.955030 -0.000000 0.296509
vn 0.948222 -0.000000 0.317608
vn 0.941002 -0.000000 0.338401
vn 0.925517 -0.000000 0.378707
vn 0.941002 -0.000000 0.338401
vn 0.941002 -0.000000 0.338401
vn 0.925517 -0.000000 0.378707
vn 0.891001 -0.000000 0.454001
vn 0.925517 -0.000000 0.378707
vn 0.891001 -0.000000 0.454001
vn 0.941002 -0.000000 0.338401
vn 0.941002 -0.000000 0.338401
vn 0.850416 -0.000000 0.526110
vn 0.850416 -0.000000 0.526110
vn 0.827360 -0.000000 0.561673
vn 0.827360 -0.000000 0.561673
vn 0.815029 -0.000000 0.579421
vn 0.815029 -0.000000 0.579421
vn 0.802179 -0.000000 0.597084
vn 0.802179 -0.000000 0.597084
vn 0.815029 -0.000000 0.579421
vn 0.815029 -0.000000 0.579421
vn 0.802179 -0.000000 0.597084
vn 0.815029 -0.000000 0.579421
vn 0.827360 -0.000000 0.561673
vn 0.827360 -0.000000 0.561673
vn 0.850416 -0.000000 0.526110
vn 0.827360 -0.000000 0.561673
vn 0.802262 -0.000000 0.596972
vn 0.802227 -0.000000 0.597020
vn 0.960027 -0.000000 0.279908
vn 0.960062 -0.000000 0.279789
vn 0.996076 0.000000 -0.088498
vn 0.996076 0.000000 -0.088498
vn 0.897052 0.000000 -0.441926
vn 0.897052 0.000000 -0.441926
vn 0.696478 0.000000 -0.717578
vn 0.696478 0.000000 -0.717578
vn 0.696478 0.000000 -0.717578
vn 0.802262 -0.000000 0.596972
vn 0.696478 0.000000 -0.717578
vn 0.696478 0.000000 -0.717578
vn 0.696478 0.000000 -0.717578
vn 0.696478 0.000000 -0.717578
vn 0.696478 0.000000 -0.717578
vn 0.696478 0.000000 -0.717578
vn -0.782612 0.000100 0.622510
vn -0.455793 -0.000000 0.890086
vn -0.782612 -0.000000 0.622510
vn -0.782612 -0.000000 0.622510
vn -0.455395 -0.000000 0.890290
vn -0.049299 -0.000000 0.998784
vn -0.049299 -0.000000 0.998784
vn 0.368216 -0.000000 0.929740
vn 0.368216 -0.000000 0.929740
vn 0.717529 -0.000000 0.696528
vn 0.717529 -0.000000 0.696528
vn 0.717529 -0.000000 0.696528
vn 0.717628 -0.000000 0.696427
vn 0.717628 -0.000000 0.696427
vn 0.717628 -0.000000 0.696427
vn 0.717628 -0.000000 0.696427
vn 0.717628 -0.000000 0.696427
vn 0.717628 -0.000000 0.696427
vn 0.717676 -0.000000 0.696377
vn 0.916029 -0.000000 0.401113
vn 0.717676 -0.000000 0.696377
vn 0.717676 -0.000000 0.696377
vn 0.916029 -0.000000 0.401113
vn 0.999096 -0.000000 0.042500
vn 0.999096 -0.000000 0.042500
vn 0.947487 0.000000 -0.319796
vn 0.784030 0.000000 -0.620724
vn 0.783981 0.000000 -0.620785
vn 0.947487 0.000000 -0.319796
vn 0.784030 0.000000 -0.620724
vn 0.000000 -1.000000 -0.000000
vn 0.000000 -1.000000 -0.000000
vn 0.000000 -1.000000 -0.000000
vn 0.000000 -1.000000 -0.000000
vn 0.000000 -1.000000 -0.000000
vn 0.000000 -1.000000 -0.000000
vn 0.000000 -1.000000 -0.000000
vn 0.000000 -1.000000 -0.000000
vn 0.000000 -1.000000 -0.000000
vn 0.000000 -1.000000 -0.000000
vn 0.000000 -1.000000 -0.000000
vn 0.000000 -1.000000 -0.000000
vn 0.000000 -1.000000 -0.000000
vn 0.000000 -1.000000 -0.000000
vn 0.000000 -1.000000 -0.000000
vn 0.000000 -1.000000 -0.000000
vn 0.000000 -1.000000 -0.000000
vn 0.000000 -1.000000 -0.000000
vn 0.000000 -1.000000 -0.000000
vn 0.000000 -1.000000 -0.000000
vn 0.000000 -1.000000 -0.000000
vn 0.000000 -1.000000 -0.000000
vn 0.000000 -1.000000 -0.000000
vn 0.000000 -1.000000 -0.000000
vn 0.000000 -1.000000 -0.000000
vn 0.000000 -1.000000 -0.000000
vn 0.000000 -1.000000 -0.000000
vn 0.000000 -1.000000 -0.000000
vn 0.000000 -1.000000 -0.000000
vn 0.000000 -1.000000 -0.000000
vn 0.000000 -1.000000 -0.000000
vn 0.000000 -1.000000 -0.000000
vn 0.000000 -1.000000 -0.000000
vn 0.000000 -1.000000 -0.000000
vn 0.000000 -1.000000 -0.000000
vn 0.000000 -1.000000 -0.000000
vn 0.000000 -1.000000 -0.000000
vn 0.000000 -1.000000 -0.000000
vn 0.000000 -1.000000 -0.000000
vn 0.000000 -1.000000 -0.000000
vn 0.000000 -1.000000 -0.000000
vn 0.000000 -1.000000 -0.000000
vn 0.000000 -1.000000 -0.000000
vn 0.000000 -1.000000 -0.000000
vn 0.000000 -1.000000 -0.000000
vn 0.000000 -1.000000 -0.000000
vn 0.000000 -1.000000 -0.000000
vn 0.000000 -1.000000 -0.000000
vn 0.000000 -1.000000 -0.000000
vn 0.000000 -1.000000 -0.000000
vn 0.000000 -1.000000 -0.000000
vn 0.000000 -1.000000 -0.000000
vn 0.000000 -1.000000 -0.000000
vn 0.000000 -1.000000 -0.000000
vn 0.000000 -1.000000 -0.000000
vn 0.000000 -1.000000 -0.000000
vn 0.000000 -1.000000 -0.000000
vn 0.000000 -1.000000 -0.000000
vn 0.000000 -1.000000 -0.000000
vn 0.000000 -1.000000 -0.000000
vn 0.000000 -1.000000 -0.000000
vn 0.000000 -1.000000 -0.000000
vn 0.000000 -1.000000 -0.000000
vn 0.000000 -1.000000 -0.000000
vn 0.000000 -1.000000 -0.000000
vn 0.000000 -1.000000 -0.000000
vn 0.000000 -1.000000 -0.000000
vn 0.000000 -1.000000 -0.000000
vn 0.000000 -1.000000 -0.000000
vn 0.000000 -1.000000 -0.000000
vn 0.000000 -1.000000 -0.000000
vn 0.000000 -1.000000 -0.000000
vn 0.000000 -1.000000 -0.000000
vn 0.000000 -1.000000 -0.000000
vn 0.000000 -1.000000 -0.000000
vn 0.000000 -1.000000 -0.000000
vn 0.000000 -1.000000 -0.000000
vn 0.000000 -1.000000 -0.000000
vn 0.000000 -1.000000 -0.000000
vn 0.000000 -1.000000 -0.000000
vn 0.000000 -1.000000 -0.000000
vn 0.000000 -1.000000 -0.000000
vn 0.000000 -1.000000 -0.000000
vn 0.000000 -1.000000 -0.000000
vn 0.000000 -1.000000 -0.000000
vn 0.000000 -1.000000 -0.000000
vn 0.000000 -1.000000 -0.000000
vn 0.000000 -1.000000 -0.000000
vn 0.000000 -1.000000 -0.000000
vn 0.000000 -1.000000 -0.000000
vn 0.000000 -1.000000 -0.000000
vn 0.000000 -1.000000 -0.000000
vn 0.000000 -1.000000 -0.000000
vn 0.000000 -1.000000 -0.000000
vn 0.000000 -1.000000 -0.000000
vn 0.000000 -1.000000 -0.000000
vn 0.000000 -1.000000 -0.000000
vn 0.000000 -1.000000 -0.000000
vn 0.000000 -1.000000 -0.000000
vn 0.000000 -1.000000 -0.000000
vn 0.000000 -1.000000 -0.000000
vn 0.000000 -1.000000 -0.000000
vn 0.000000 -1.000000 -0.000000
vn 0.000000 -1.000000 -0.000000
vn 0.000000 -1.000000 -0.000000
vn 0.000000 -1.000000 -0.000000
vn 0.000000 -1.000000 -0.000000
vn 0.000000 -1.000000 -0.000000
vn 0.000000 -1.000000 -0.000000
vn 0.000000 -1.000000 -0.000000
vn 0.000000 -1.000000 -0.000000
vn 0.000000 -1.000000 -0.000000
vn 0.000000 -1.000000 -0.000000
vn 0.000000 -1.000000 -0.000000
vn 0.000000 -1.000000 -0.000000
vn 0.000000 -1.000000 -0.000000
vn 0.000000 -1.000000 -0.000000
vn 0.000000 -1.000000 -0.000000
vn 0.000000 -1.000000 -0.000000
vn 0.000000 -1.000000 -0.000000
vn 0.000000 -1.000000 -0.000000
vn 0.000000 -1.000000 -0.000000
vn 0.000000 -1.000000 -0.000000
vn 0.000000 -1.000000 -0.000000
vn 0.000000 -1.000000 -0.000000
vn 0.000000 -1.000000 -0.000000
vn 0.000000 -1.000000 -0.000000
vn 0.000000 -1.000000 -0.000000
vn 0.000000 -1.000000 -0.000000
f 2//2 1//1 5//5
f 2//2 3//3 1//1
f 4//4 1//1 3//3
f 1//1 6//6 5//5
f 6//6 1//1 7//7
f 8//8 10//10 7//7
f 7//7 9//9 8//8
f 6//6 7//7 10//10
f 14//14 9//9 11//11
f 17//17 11//11 9//9
f 12//12 8//8 9//9
f 9//9 13//13 12//12
f 14//14 13//13 9//9
f 15//15 18//18 9//9
f 9//9 16//16 15//15
f 18//18 17//17 9//9
f 21//21 17//17 18//18
f 21//21 18//18 19//19
f 19//19 18//18 15//15
f 19//19 15//15 22//22
f 23//23 19//19 20//20
f 19//19 22//22 20//20
f 19//19 24//24 21//21
f 24//24 19//19 23//23
f 25//25 21//21 24//24
f 25//25 28//28 26//26
f 27//27 25//25 26//26
f 27//27 21//21 25//25
f 26//26 28//28 29//29
f 31//31 29//29 30//30
f 26//26 29//29 31//31
f 31//31 33//33 32//32
f 26//26 31//31 39//39
f 33//33 31//31 34//34
f 31//31 35//35 34//34
f 31//31 36//36 35//35
f 37//37 36//36 31//31
f 31//31 30//30 37//37
f 38//38 39//39 31//31
f 39//39 14//14 27//27
f 27//27 26//26 39//39
f 14//14 39//39 40//40
f 38//38 41//41 39//39
f 40//40 39//39 41//41
f 41//41 38//38 42//42
f 38//38 43//43 42//42
f 38//38 44//44 43//43
f 44//44 38//38 45//45
f 46//46 44//44 45//45
f 45//45 47//47 46//46
f 48//48 47//47 49//49
f 49//49 47//47 45//45
f 49//49 50//50 48//48
f 51//51 50//50 49//49
f 51//51 49//49 52//52
f 52//52 53//53 51//51
f 58//58 53//53 52//52
f 54//54 55//55 52//52
f 52//52 55//55 57//57
f 56//56 59//59 52//52
f 52//52 57//57 56//56
f 58//58 52//52 59//59
f 53//53 58//58 60//60
f 60//60 61//61 53//53
f 63//63 62//62 61//61
f 61//61 62//62 53//53
f 62//62 63//63 64//64
f 65//65 64//64 63//63
f 64//64 65//65 66//66
f 66//66 67//67 64//64
f 66//66 5//5 67//67
f 5//5 6//6 67//67
f 67//67 50//50 64//64
f 50//50 67//67 68//68
f 48//48 50//50 68//68
f 62//62 64//64 50//50
f 50//50 51//51 62//62
f 51//51 53//53 62//62
f 55//55 54//54 69//69
f 70//70 69//69 54//54
f 71//71 72//72 70//70
f 70//70 54//54 71//71
f 73//73 72//72 71//71
f 74//74 72//72 73//73
f 75//75 74//74 76//76
f 74//74 73//73 76//76
f 77//77 81//81 78//78
f 77//77 78//78 76//76
f 71//71 77//77 76//76
f 71//71 76//76 73//73
f 78//78 75//75 76//76
f 75//75 78//78 80//80
f 81//81 79//79 78//78
f 79//79 80//80 78//78
f 82//82 81//81 77//77
f 81//81 82//82 83//83
f 83//83 79//79 81//81
f 82//82 77//77 54//54
f 80//80 84//84 75//75
f 75//75 84//84 85//85
f 84//84 86//86 85//85
f 87//87 85//85 86//86
f 89//89 88//88 87//87
f 85//85 87//87 88//88
f 90//90 88//88 89//89
f 90//90 91//91 94//94
f 91//91 90//90 92//92
f 90//90 93//93 92//92
f 95//95 90//90 94//94
f 90//90 95//95 88//88
f 96//96 95//95 98//98
f 96//96 85//85 88//88
f 96//96 88//88 95//95
f 95//95 94//94 97//97
f 98//98 95//95 97//97
f 98//98 75//75 96//96
f 75//75 85//85 96//96
f 92//92 93//93 99//99
f 93//93 4//4 99//99
f 99//99 4//4 3//3
f 77//77 71//71 54//54
f 14//14 40//40 100//100
f 13//13 14//14 100//100
f 33//33 101//101 32//32
f 32//32 101//101 102//102
f 102//102 103//103 32//32
f 103//103 104//104 32//32
f 32//32 104//104 105//105
f 104//104 106//106 105//105
f 106//106 109//109 107//107
f 108//108 106//106 107//107
f 106//106 108//108 105//105
f 107//107 109//109 110//110
f 109//109 111//111 110//110
f 112//112 110//110 111//111
f 113//113 110//110 112//112
f 113//113 114//114 115//115
f 113//113 115//115 110//110
f 116//116 115//115 117//117
f 118//118 117//117 115//115
f 114//114 118//118 115//115
f 117//117 20//20 119//119
f 117//117 119//119 116//116
f 15//15 119//119 22//22
f 119//119 15//15 16//16
f 119//119 20//20 22//22
f 120//120 107//107 110//110
f 107//107 120//120 121//121
f 122//122 121//121 120//120
f 122//122 123//123 121//121
f 123//123 122//122 124//124
f 124//124 125//125 123//123
f 125//125 126//126 123//123
f 123//123 126//126 127//127
f 127//127 129//129 128//128
f 128//128 123//123 127//127
f 32//32 128//128 129//129
f 128//128 32//32 105//105
f 105//105 108//108 123//123
f 105//105 123//123 128//128
f 108//108 107//107 121//121
f 108//108 121//121 123//123
f 27//27 11//11 17//17
f 27//27 17//17 21//21
f 14//14 11//11 27//27
f 131//131 130//130 132//132
f 131//131 132//132 133//133
f 134//134 135//135 133//133
f 134//134 133//133 132//132
f 137//137 136//136 138//138
f 137//137 138//138 139//139
f 141//141 137//137 139//139
f 141//141 139//139 140//140
f 143//143 141//141 140//140
f 143//143 140//140 142//142
f 145//145 143//143 142//142
f 145//145 142//142 144//144
f 147//147 145//145 144//144
f 147//147 144//144 146//146
f 149//149 147//147 146//146
f 149//149 146//146 148//148
f 151//151 149//149 148//148
f 151//151 148//148 150//150
f 153//153 151//151 150//150
f 153//153 150//150 152//152
f 155//155 153//153 152//152
f 155//155 152//152 154//154
f 157//157 155//155 154//154
f 157//157 154//154 156//156
f 159//159 157//157 156//156
f 159//159 156//156 158//158
f 161//161 159//159 158//158
f 161//161 158//158 160//160
f 163//163 161//161 160//160
f 163//163 160//160 162//162
f 165//165 163//163 162//162
f 165//165 162//162 164//164
f 167//167 165//165 164//164
f 167//167 164//164 166//166
f 169//169 167//167 166//166
f 169//169 166//166 168//168
f 171//171 170//170 172//172
f 171//171 172//172 173//173
f 175//175 171//171 173//173
f 175//175 173//173 174//174
f 177//177 176//176 178//178
f 177//177 178//178 179//179
f 181//181 177//177 179//179
f 181//181 179//179 180//180
f 183//183 181//181 180//180
f 183//183 180//180 182//182
f 185//185 183//183 182//182
f 185//185 182//182 184//184
f 187//187 185//185 184//184
f 187//187 184//184 186//186
f 189//189 187//187 186//186
f 189//189 186//186 188//188
f 191//191 189//189 188//188
f 191//191 188//188 190//190
f 193//193 191//191 190//190
f 193//193 190//190 192//192
f 195//195 193//193 192//192
f 195//195 192//192 194//194
f 197//197 195//195 194//194
f 197//197 194//194 196//196
f 199//199 197//197 196//196
f 199//199 196//196 198//198
f 201//201 199//199 198//198
f 201//201 198//198 200//200
f 201//201 200//200 203//203
f 203//203 200//200 202//202
f 203//203 204//204 201//201
f 205//205 207//207 209//209
f 205//205 209//209 206//206
f 207//207 208//208 210//210
f 207//207 210//210 209//209
f 208//208 213//213 211//211
f 208//208 211//211 210//210
f 213//213 214//214 212//212
f 213//213 212//212 211//211
f 214//214 215//215 216//216
f 214//214 216//216 212//212
f 215//215 217//217 218//218
f 215//215 218//218 216//216
f 217//217 219//219 220//220
f 217//217 220//220 218//218
f 219//219 221//221 222//222
f 219//219 222//222 220//220
f 221//221 223//223 225//225
f 221//221 225//225 222//222
f 223//223 224//224 226//226
f 223//223 226//226 225//225
f 224//224 229//229 227//227
f 224//224 227//227 226//226
f 229//229 230//230 228//228
f 229//229 228//228 227//227
f 232//232 230//230 231//231
f 230//230 232//232 228//228
f 228//228 232//232 233//233
f 235//235 237//237 236//236
f 235//235 236//236 234//234
f 240//240 238//238 237//237
f 240//240 237//237 235//235
f 241//241 239//239 238//238
f 241//241 238//238 240//240
f 242//242 244//244 239//239
f 242//242 239//239 241//241
f 243//243 245//245 244//244
f 243//243 244//244 242//242
f 248//248 246//246 245//245
f 248//248 245//245 243//243
f 249//249 247//247 246//246
f 249//249 246//246 248//248
f 250//250 252//252 247//247
f 250//250 247//247 249//249
f 251//251 253//253 252//252
f 251//251 252//252 250//250
f 256//256 254//254 253//253
f 256//256 253//253 251//251
f 257//257 255//255 254//254
f 257//257 254//254 256//256
f 258//258 260//260 255//255
f 258//258 255//255 257//257
f 259//259 261//261 260//260
f 259//259 260//260 258//258
f 264//264 262//262 261//261
f 264//264 261//261 259//259
f 265//265 263//263 262//262
f 265//265 262//262 264//264
f 266//266 268//268 263//263
f 266//266 263//263 265//265
f 267//267 269//269 268//268
f 267//267 268//268 266//266
f 272//272 270//270 269//269
f 272//272 269//269 267//267
f 273//273 271//271 270//270
f 273//273 270//270 272//272
f 274//274 276//276 271//271
f 274//274 271//271 273//273
f 275//275 277//277 276//276
f 275//275 276//276 274//274
f 280//280 278//278 277//277
f 280//280 277//277 275//275
f 281//281 279//279 278//278
f 281//281 278//278 280//280
f 282//282 284//284 279//279
f 282//282 279//279 281//281
f 283//283 285//285 284//284
f 283//283 284//284 282//282
f 288//288 286//286 285//285
f 288//288 285//285 283//283
f 289//289 287//287 286//286
f 289//289 286//286 288//288
f 290//290 292//292 287//287
f 290//290 287//287 289//289
f 291//291 293//293 292//292
f 291//291 292//292 290//290
f 296//296 294//294 293//293
f 296//296 293//293 291//291
f 297//297 295//295 294//294
f 297//297 294//294 296//296
f 298//298 299//299 295//295
f 298//298 295//295 297//297
f 300//300 302//302 303//303
f 300//300 303//303 301//301
f 304//304 305//305 301//301
f 304//304 301//301 303//303
f 307//307 309//309 308//308
f 307//307 308//308 306//306
f 312//312 310//310 309//309
f 312//312 309//309 307//307
f 313//313 311//311 310//310
f 313//313 310//310 312//312
f 314//314 316//316 311//311
f 314//314 311//311 313//313
f 315//315 317//317 316//316
f 315//315 316//316 314//314
f 320//320 318//318 317//317
f 320//320 317//317 315//315
f 321//321 319//319 318//318
f 321//321 318//318 320//320
f 322//322 324//324 319//319
f 322//322 319//319 321//321
f 323//323 325//325 324//324
f 323//323 324//324 322//322
f 328//328 326//326 325//325
f 328//328 325//325 323//323
f 329//329 327//327 326//326
f 329//329 326//326 328//328
f 330//330 332//332 327//327
f 330//330 327//327 329//329
f 331//331 333//333 332//332
f 331//331 332//332 330//330
f 336//336 334//334 333//333
f 336//336 333//333 331//331
f 337//337 335//335 334//334
f 337//337 334//334 336//336
f 338//338 339//339 335//335
f 338//338 335//335 337//337
f 341//341 343//343 342//342
f 341//341 342//342 340//340
f 345//345 344//344 343//343
f 345//345 343//343 341//341
f 347//347 349//349 348//348
f 347//347 348//348 346//346
f 351//351 350//350 349//349
f 351//351 349//349 347//347
f 354//354 352//352 350//350
f 354//354 350//350 351//351
f 355//355 353//353 352//352
f 355//355 352//352 354//354
f 356//356 358//358 353//353
f 356//356 353//353 355//355
f 357//357 359//359 358//358
f 357//357 358//358 356//356
f 362//362 360//360 359//359
f 362//362 359//359 357//357
f 363//363 361//361 360//360
f 363//363 360//360 362//362
f 364//364 365//365 361//361
f 364//364 361//361 363//363
f 366//366 367//367 365//365
f 366//366 365//365 364//364
f 368//368 369//369 367//367
f 368//368 367//367 366//366
f 370//370 372//372 369//369
f 370//370 369//369 368//368
f 370//370 371//371 372//372
f 371//371 370//370 373//373
f 371//371 374//374 372//372
f 375//375 377//377 378//378
f 375//375 378//378 376//376
f 376//376 378//378 379//379
f 376//376 379//379 380//380
f 380//380 379//379 381//381
f 380//380 381//381 383//383
f 383//383 381//381 382//382
f 383//383 382//382 384//384
f 384//384 382//382 386//386
f 384//384 386//386 385//385
f 385//385 386//386 388//388
f 385//385 388//388 387//387
f 387//387 388//388 391//391
f 387//387 391//391 389//389
f 389//389 391//391 392//392
f 389//389 392//392 390//390
f 390//390 392//392 393//393
f 390//390 393//393 395//395
f 395//395 393//393 394//394
f 395//395 394//394 396//396
f 396//396 394//394 399//399
f 396//396 399//399 397//397
f 397//397 399//399 400//400
f 397//397 400//400 398//398
f 400//400 401//401 402//402
f 398//398 400//400 402//402
f 402//402 403//403 398//398
f 405//405 404//404 406//406
f 406//406 407//407 405//405
f 407//407 408//408 405//405
f 410//410 411//411 409//409
f 412//412 409//409 411//411
f 412//412 411//411 413//413
f 414//414 413//413 411//411
f 414//414 411//411 415//415
f 415//415 416//416 414//414
f 416//416 415//415 418//418
f 417//417 416//416 418//418
f 417//417 418//418 420//420
f 418//418 415//415 419//419
f 422//422 417//417 420//420
f 422//422 420//420 421//421
f 421//421 423//423 422//422
f 423//423 421//421 424//424
f 424//424 425//425 423//423
f 425//425 424//424 426//426
f 429//429 425//425 426//426
f 429//429 426//426 427//427
f 428//428 429//429 427//427
f 433//433 430//430 429//429
f 433//433 429//429 428//428
f 430//430 431//431 425//425
f 430//430 425//425 429//429
f 432//432 437//437 431//431
f 432//432 431//431 430//430
f 430//430 433//433 432//432
f 434//434 432//432 433//433
f 432//432 434//434 435//435
f 435//435 436//436 437//437
f 435//435 437//437 432//432
f 438//438 437//437 436//436
f 422//422 423//423 438//438
f 423//423 437//437 438//438
f 437//437 423//423 431//431
f 423//423 425//425 431//431
f 415//415 411//411 410//410
f 415//415 410//410 419//419
f 440//440 441//441 439//439
f 443//443 442//442 441//441
f 443//443 441//441 440//440
f 440//440 445//445 444//444
f 440//440 444//444 443//443
f 440//440 446//446 445//445
f 448//448 451//451 449//449
f 448//448 449//449 447//447
f 450//450 449//449 451//451
f 450//450 451//451 452//452
f 454//454 457//457 455//455
f 454//454 455//455 453//453
f 456//456 455//455 457//457
f 456//456 457//457 458//458
f 460//460 459//459 461//461
f 460//460 461//461 462//462
f 461//461 463//463 465//465
f 461//461 465//465 462//462
f 461//461 464//464 463//463
f 462//462 466//466 460//460
f 468//468 467//467 469//469
f 469//469 470//470 468//468
f 470//470 471//471 468//468
f 472//472 473//473 475//475
f 473//473 472//472 474//474
f 476//476 475//475 473//473
f 477//477 476//476 473//473
f 477//477 473//473 478//478
f 478//478 479//479 477//477
f 481//481 479//479 480//480
f 481//481 480//480 482//482
f 479//479 478//478 480//480
f 483//483 481//481 482//482
f 483//483 482//482 484//484
f 485//485 483//483 484//484
f 485//485 484//484 487//487
f 486//486 485//485 487//487
f 486//486 487//487 488//488
f 490//490 486//486 488//488
f 490//490 488//488 489//489
f 492//492 490//490 489//489
f 492//492 489//489 491//491
f 494//494 492//492 491//491
f 494//494 491//491 493//493
f 496//496 494//494 493//493
f 496//496 493//493 495//495
f 498//498 496//496 495//495
f 498//498 495//495 497//497
f 500//500 498//498 497//497
f 500//500 497//497 499//499
f 502//502 500//500 499//499
f 502//502 499//499 501//501
f 504//504 502//502 501//501
f 504//504 501//501 503//503
f 503//503 505//505 504//504
f 505//505 503//503 506//506
f 506//506 507//507 505//505
f 507//507 506//506 508//508
f 510//510 507//507 508//508
f 510//510 508//508 509//509
f 512//512 510//510 509//509
f 512//512 509//509 511//511
f 510//510 512//512 513//513
f 514//514 515//515 513//513
f 514//514 513//513 512//512
f 515//515 514//514 516//516
f 516//516 517//517 518//518
f 516//516 518//518 515//515
f 519//519 518//518 517//517
f 504//504 505//505 519//519
f 505//505 518//518 519//519
f 518//518 505//505 520//520
f 515//515 518//518 520//520
f 515//515 520//520 513//513
f 505//505 507//507 520//520
f 513//513 520//520 507//507
f 513//513 507//507 510//510
f 480//480 478//478 521//521
f 478//478 473//473 474//474
f 478//478 474//474 521//521
f 525//525 522//522 523//523
f 523//523 522//522 524//524
f 526//526 525//525 528//528
f 523//523 527//527 525//525
f 525//525 527//527 528//528
f 528//528 529//529 526//526
f 532//532 529//529 528//528
f 532//532 528//528 530//530
f 530//530 528//528 527//527
f 530//530 527//527 534//534
f 531//531 530//530 533//533
f 530//530 531//531 532//532
f 533//533 530//530 534//534
f 535//535 533//533 534//534
f 534//534 527//527 523//523
f 534//534 523//523 535//535
f 535//535 523//523 524//524
f 535//535 524//524 537//537
f 533//533 535//535 536//536
f 536//536 535//535 537//537
f 538//538 533//533 536//536
f 539//539 533//533 538//538
f 538//538 540//540 539//539
f 540//540 538//538 541//541
f 541//541 542//542 540//540
f 542//542 541//541 543//543
f 546//546 542//542 543//543
f 546//546 543//543 544//544
f 546//546 544//544 545//545
f 547//547 548//548 542//542
f 547//547 542//542 546//546
f 550//550 547//547 546//546
f 550//550 546//546 545//545
f 549//549 555//555 548//548
f 549//549 548//548 547//547
f 549//549 547//547 550//550
f 551//551 549//549 550//550
f 549//549 551//551 552//552
f 552//552 553//553 555//555
f 552//552 555//555 549//549
f 554//554 555//555 553//553
f 540//540 555//555 554//554
f 555//555 540//540 548//548
f 539//539 540//540 554//554
f 540//540 542//542 548//548
f 533//533 539//539 531//531
f 559//559 557//557 556//556
f 559//559 556//556 558//558
f 557//557 559//559 560//560
f 557//557 560//560 561//561
f 565//565 563//563 562//562
f 565//565 562//562 564//564
f 563//563 565//565 566//566
f 563//563 566//566 567//567
f 571//571 568//568 569//569
f 569//569 568//568 570//570
f 569//569 572//572 571//571
f 571//571 572//572 573//573
f 574//574 571//571 573//573
f 573//573 575//575 574//574
f 576//576 575//575 573//573
f 576//576 573//573 578//578
f 578//578 577//577 576//576
f 577//577 578//578 580//580
f 578//578 573//573 572//572
f 578//578 572//572 579//579
f 580//580 578//578 579//579
f 580//580 581//581 577//577
f 581//581 580//580 583//583
f 583//583 580//580 582//582
f 580//580 584//584 582//582
f 584//584 580//580 579//579
f 579//579 572//572 569//569
f 579//579 569//569 584//584
f 584//584 569//569 570//570
f 584//584 570//570 585//585
f 582//582 584//584 585//585
f 583//583 586//586 581//581
f 586//586 583//583 587//587
f 587//587 588//588 586//586
f 588//588 587//587 589//589
f 591//591 588//588 589//589
f 591//591 589//589 590//590
f 591//591 590//590 592//592
f 593//593 594//594 591//591
f 593//593 591//591 592//592
f 595//595 594//594 593//593
f 596//596 597//597 595//595
f 596//596 595//595 593//593
f 597//597 598//598 599//599
f 597//597 599//599 595//595
f 600//600 599//599 598//598
f 581//581 586//586 600//600
f 586//586 599//599 600//600
f 599//599 586//586 601//601
f 595//595 599//599 601//601
f 595//595 601//601 594//594
f 586//586 588//588 601//601
f 594//594 601//601 588//588
f 594//594 588//588 591//591
f 603//603 602//602 604//604
f 605//605 603//603 604//604
f 607//607 605//605 604//604
f 607//607 604//604 606//606
f 609//609 607//607 606//606
f 609//609 606//606 608//608
f 608//608 611//611 609//609
f 610//610 611//611 608//608
f 609//609 611//611 612//612
f 605//605 613//613 603//603
f 614//614 616//616 617//617
f 614//614 617//617 615//615
f 618//618 619//619 615//615
f 618//618 615//615 617//617
f 621//621 622//622 620//620
f 624//624 623//623 622//622
f 624//624 622//622 621//621
f 625//625 624//624 621//621
f 625//625 621//621 626//626
f 627//627 625//625 626//626
f 627//627 626//626 628//628
f 627//627 628//628 630//630
f 629//629 627//627 630//630
f 628//628 631//631 630//630
f 632//632 634//634 635//635
f 632//632 635//635 633//633
f 636//636 637//637 633//633
f 636//636 633//633 635//635
f 639//639 640//640 638//638
f 640//640 639//639 642//642
f 641//641 640//640 642//642
f 643//643 642//642 639//639
f 643//643 639//639 644//644
f 645//645 643//643 644//644
f 645//645 644//644 648//648
f 646//646 645//645 647//647
f 645//645 648//648 647//647
f 648//648 649//649 647//647
f 653//653 650//650 651//651
f 651//651 650//650 652//652
f 652//652 650//650 655//655
f 650//650 653//653 654//654
f 652//652 655//655 656//656
f 657//657 656//656 655//655
f 657//657 655//655 658//658
f 658//658 655//655 659//659
f 660//660 658//658 659//659
f 659//659 661//661 660//660
f 661//661 662//662 660//660
f 661//661 663//663 662//662
f 664//664 663//663 665//665
f 664//664 662//662 663//663
f 665//665 663//663 666//666
f 663//663 667//667 666//666
f 663//663 668//668 667//667
f 669//669 667//667 668//668
f 670//670 667//667 669//669
f 669//669 671//671 670//670
f 671//671 672//672 670//670
f 672//672 674//674 673//673
f 673//673 670//670 672//672
f 674//674 675//675 673//673
f 674//674 676//676 675//675
f 676//676 678//678 677//677
f 677//677 675//675 676//676
f 678//678 679//679 677//677
f 677//677 679//679 680//680
f 679//679 681//681 680//680
f 686//686 680//680 681//681
f 682//682 684//684 681//681
f 681//681 683//683 682//682
f 681//681 684//684 685//685
f 685//685 686//686 681//681
f 680//680 686//686 688//688
f 680//680 688//688 690//690
f 686//686 687//687 688//688
f 685//685 687//687 686//686
f 687//687 689//689 688//688
f 689//689 690//690 688//688
f 677//677 680//680 690//690
f 677//677 690//690 675//675
f 675//675 690//690 673//673
f 690//690 689//689 673//673
f 683//683 691//691 694//694
f 683//683 692//692 691//691
f 693//693 692//692 683//683
f 694//694 696//696 683//683
f 683//683 695//695 697//697
f 695//695 683//683 696//696
f 697//697 682//682 683//683
f 694//694 691//691 698//698
f 691//691 699//699 698//698
f 699//699 701//701 700//700
f 699//699 691//691 701//701
f 701//701 691//691 692//692
f 692//692 703//703 701//701
f 701//701 702//702 700//700
f 703//703 702//702 701//701
f 693//693 704//704 703//703
f 703//703 704//704 705//705
f 706//706 703//703 705//705
f 706//706 702//702 703//703
f 703//703 692//692 693//693
f 656//656 707//707 706//706
f 656//656 706//706 652//652
f 707//707 702//702 706//706
f 702//702 707//707 708//708
f 708//708 700//700 702//702
f 709//709 704//704 693//693
f 693//693 710//710 709//709
f 710//710 711//711 709//709
f 711//711 710//710 712//712
f 713//713 712//712 714//714
f 712//712 710//710 714//714
f 715//715 716//716 714//714
f 714//714 716//716 717//717
f 714//714 718//718 713//713
f 714//714 717//717 718//718
f 717//717 716//716 719//719
f 720//720 719//719 721//721
f 721//721 719//719 716//716
f 724//724 721//721 654//654
f 654//654 721//721 723//723
f 721//721 716//716 722//722
f 722//722 723//723 721//721
f 724//724 720//720 721//721
f 725//725 724//724 654//654
f 725//725 654//654 653//653
f 723//723 726//726 654//654
f 723//723 722//722 727//727
f 723//723 727//727 726//726
f 726//726 727//727 729//729
f 726//726 729//729 728//728
f 654//654 726//726 728//728
f 728//728 729//729 733//733
f 728//728 733//733 730//730
f 728//728 730//730 654//654
f 731//731 732//732 730//730
f 733//733 731//731 730//730
f 654//654 730//730 732//732
f 731//731 733//733 734//734
f 729//729 734//734 733//733
f 731//731 734//734 735//735
f 736//736 734//734 729//729
f 737//737 736//736 729//729
f 738//738 737//737 727//727
f 729//729 727//727 737//737
f 738//738 739//739 740//740
f 739//739 738//738 722//722
f 738//738 727//727 722//722
f 740//740 739//739 741//741
f 715//715 742//742 741//741
f 741//741 739//739 715//715
f 715//715 743//743 742//742
f 715//715 744//744 743//743
f 715//715 745//745 744//744
f 746//746 745//745 715//715
f 746//746 715//715 747//747
f 748//748 749//749 747//747
f 715//715 748//748 747//747
f 748//748 750//750 749//749
f 751//751 750//750 748//748
f 751//751 748//748 752//752
f 754//754 752//752 748//748
f 753//753 752//752 754//754
f 755//755 754//754 748//748
f 756//756 754//754 755//755
f 756//756 755//755 758//758
f 756//756 753//753 754//754
f 756//756 757//757 753//753
f 757//757 756//756 758//758
f 757//757 758//758 759//759
f 763//763 759//759 758//758
f 760//760 758//758 755//755
f 758//758 760//760 761//761
f 758//758 761//761 762//762
f 758//758 762//762 764//764
f 758//758 764//764 763//763
f 763//763 765//765 759//759
f 765//765 766//766 757//757
f 757//757 759//759 765//765
f 757//757 766//766 767//767
f 767//767 766//766 768//768
f 769//769 768//768 766//766
f 770//770 769//769 766//766
f 770//770 766//766 771//771
f 770//770 771//771 772//772
f 772//772 771//771 773//773
f 771//771 735//735 773//773
f 771//771 774//774 735//735
f 731//731 735//735 774//774
f 757//757 767//767 753//753
f 760//760 755//755 775//775
f 748//748 775//775 755//755
f 716//716 715//715 739//739
f 716//716 739//739 722//722
f 670//670 673//673 776//776
f 777//777 776//776 673//673
f 777//777 666//666 776//776
f 777//777 778//778 666//666
f 665//665 666//666 778//778
f 670//670 776//776 666//666
f 670//670 666//666 667//667
