# joint_38 exported from /models/guards/joint_38.glb
# units: meters
v -0.016057 -0.001000 0.004909
v 0.000000 -0.001000 0.004909
v -0.016057 0.001000 0.004909
v 0.000000 0.001000 0.004909
v 0.000000 -0.001000 0.004909
v 0.016057 -0.001000 0.004909
v 0.000000 0.001000 0.004909
v 0.016057 0.001000 0.004909
v 0.016057 -0.001000 0.004909
v 0.032694 -0.001000 -0.022123
v 0.016057 0.001000 0.004909
v 0.032694 0.001000 -0.022123
v 0.032694 -0.001000 -0.022123
v 0.063006 -0.001000 -0.022123
v 0.032694 0.001000 -0.022123
v 0.063006 0.001000 -0.022123
v 0.063006 -0.001000 -0.022123
v 0.096431 -0.001000 0.017702
v 0.063006 0.001000 -0.022123
v 0.096431 0.001000 0.017702
v 0.096431 -0.001000 0.017702
v 0.096431 -0.001000 0.043321
v 0.096431 0.001000 0.017702
v 0.096431 0.001000 0.043321
v 0.096431 -0.001000 0.043321
v 0.094431 -0.001000 0.043321
v 0.096431 0.001000 0.043321
v 0.094431 0.001000 0.043321
v 0.094431 -0.001000 0.043321
v 0.094431 -0.001000 0.028380
v 0.094431 0.001000 0.043321
v 0.094431 0.001000 0.028380
v 0.094431 -0.001000 0.028380
v 0.091431 -0.001000 0.028380
v 0.094431 0.001000 0.028380
v 0.091431 0.001000 0.028380
v 0.091431 -0.001000 0.028380
v 0.091431 -0.001000 0.026380
v 0.091431 0.001000 0.028380
v 0.091431 0.001000 0.026380
v 0.091431 -0.001000 0.026380
v 0.094431 -0.001000 0.026380
v 0.091431 0.001000 0.026380
v 0.094431 0.001000 0.026380
v 0.094431 -0.001000 0.026380
v 0.094431 -0.001000 0.024380
v 0.094431 0.001000 0.026380
v 0.094431 0.001000 0.024380
v 0.094431 -0.001000 0.024380
v 0.091431 -0.001000 0.024380
v 0.094431 0.001000 0.024380
v 0.091431 0.001000 0.024380
v 0.091431 -0.001000 0.024380
v 0.091431 -0.001000 0.022380
v 0.091431 0.001000 0.024380
v 0.091431 0.001000 0.022380
v 0.091431 -0.001000 0.022380
v 0.094431 -0.001000 0.022380
v 0.091431 0.001000 0.022380
v 0.094431 0.001000 0.022380
v 0.094431 -0.001000 0.022380
v 0.094431 -0.001000 0.018451
v 0.094431 0.001000 0.022380
v 0.094431 0.001000 0.018451
v 0.094431 -0.001000 0.018451
v 0.062074 -0.001000 -0.020123
v 0.094431 0.001000 0.018451
v 0.062074 0.001000 -0.020123
v 0.062074 -0.001000 -0.020123
v 0.051928 -0.001000 -0.020123
v 0.062074 0.001000 -0.020123
v 0.051928 0.001000 -0.020123
v 0.051928 -0.001000 -0.020123
v 0.051928 -0.001000 -0.017123
v 0.051928 0.001000 -0.020123
v 0.051928 0.001000 -0.017123
v 0.051928 -0.001000 -0.017123
v 0.049928 -0.001000 -0.017123
v 0.051928 0.001000 -0.017123
v 0.049928 0.001000 -0.017123
v 0.049928 -0.001000 -0.017123
v 0.049928 -0.001000 -0.020123
v 0.049928 0.001000 -0.017123
v 0.049928 0.001000 -0.020123
v 0.049928 -0.001000 -0.020123
v 0.047928 -0.001000 -0.020123
v 0.049928 0.001000 -0.020123
v 0.047928 0.001000 -0.020123
v 0.047928 -0.001000 -0.020123
v 0.047928 -0.001000 -0.017123
v 0.047928 0.001000 -0.020123
v 0.047928 0.001000 -0.017123
v 0.047928 -0.001000 -0.017123
v 0.045928 -0.001000 -0.017123
v 0.047928 0.001000 -0.017123
v 0.045928 0.001000 -0.017123
v 0.045928 -0.001000 -0.017123
v 0.045928 -0.001000 -0.020123
v 0.045928 0.001000 -0.017123
v 0.045928 0.001000 -0.020123
v 0.045928 -0.001000 -0.020123
v 0.033812 -0.001000 -0.020123
v 0.045928 0.001000 -0.020123
v 0.033812 0.001000 -0.020123
v 0.033812 -0.001000 -0.020123
v 0.017175 -0.001000 0.006909
v 0.033812 0.001000 -0.020123
v 0.017175 0.001000 0.006909
v 0.017175 -0.001000 0.006909
v -0.017175 -0.001000 0.006909
v 0.017175 0.001000 0.006909
v -0.017175 0.001000 0.006909
v -0.017175 -0.001000 0.006909
v -0.033812 -0.001000 -0.020123
v -0.017175 0.001000 0.006909
v -0.033812 0.001000 -0.020123
v -0.033812 -0.001000 -0.020123
v -0.045928 -0.001000 -0.020123
v -0.033812 0.001000 -0.020123
v -0.045928 0.001000 -0.020123
v -0.045928 -0.001000 -0.020123
v -0.045928 -0.001000 -0.017123
v -0.045928 0.001000 -0.020123
v -0.045928 0.001000 -0.017123
v -0.045928 -0.001000 -0.017123
v -0.047928 -0.001000 -0.017123
v -0.045928 0.001000 -0.017123
v -0.047928 0.001000 -0.017123
v -0.047928 -0.001000 -0.017123
v -0.047928 -0.001000 -0.020123
v -0.047928 0.001000 -0.017123
v -0.047928 0.001000 -0.020123
v -0.047928 -0.001000 -0.020123
v -0.049928 -0.001000 -0.020123
v -0.047928 0.001000 -0.020123
v -0.049928 0.001000 -0.020123
v -0.049928 -0.001000 -0.020123
v -0.049928 -0.001000 -0.017123
v -0.049928 0.001000 -0.020123
v -0.049928 0.001000 -0.017123
v -0.049928 -0.001000 -0.017123
v -0.051928 -0.001000 -0.017123
v -0.049928 0.001000 -0.017123
v -0.051928 0.001000 -0.017123
v -0.051928 -0.001000 -0.017123
v -0.051928 -0.001000 -0.020123
v -0.051928 0.001000 -0.017123
v -0.051928 0.001000 -0.020123
v -0.051928 -0.001000 -0.020123
v -0.062074 -0.001000 -0.020123
v -0.051928 0.001000 -0.020123
v -0.062074 0.001000 -0.020123
v -0.062074 -0.001000 -0.020123
v -0.094431 -0.001000 0.018451
v -0.062074 0.001000 -0.020123
v -0.094431 0.001000 0.018451
v -0.094431 -0.001000 0.018451
v -0.094431 -0.001000 0.022380
v -0.094431 0.001000 0.018451
v -0.094431 0.001000 0.022380
v -0.094431 -0.001000 0.022380
v -0.091431 -0.001000 0.022380
v -0.094431 0.001000 0.022380
v -0.091431 0.001000 0.022380
v -0.091431 -0.001000 0.022380
v -0.091431 -0.001000 0.024380
v -0.091431 0.001000 0.022380
v -0.091431 0.001000 0.024380
v -0.091431 -0.001000 0.024380
v -0.094431 -0.001000 0.024380
v -0.091431 0.001000 0.024380
v -0.094431 0.001000 0.024380
v -0.094431 -0.001000 0.024380
v -0.094431 -0.001000 0.026380
v -0.094431 0.001000 0.024380
v -0.094431 0.001000 0.026380
v -0.094431 -0.001000 0.026380
v -0.091431 -0.001000 0.026380
v -0.094431 0.001000 0.026380
v -0.091431 0.001000 0.026380
v -0.091431 -0.001000 0.026380
v -0.091431 -0.001000 0.028380
v -0.091431 0.001000 0.026380
v -0.091431 0.001000 0.028380
v -0.091431 -0.001000 0.028380
v -0.094431 -0.001000 0.028380
v -0.091431 0.001000 0.028380
v -0.094431 0.001000 0.028380
v -0.094431 -0.001000 0.028380
v -0.094431 -0.001000 0.043321
v -0.094431 0.001000 0.028380
v -0.094431 0.001000 0.043321
v -0.094431 -0.001000 0.043321
v -0.096431 -0.001000 0.043321
v -0.094431 0.001000 0.043321
v -0.096431 0.001000 0.043321
v -0.096431 -0.001000 0.043321
v -0.096431 -0.001000 0.017702
v -0.096431 0.001000 0.043321
v -0.096431 0.001000 0.017702
v -0.096431 -0.001000 0.017702
v -0.063006 -0.001000 -0.022123
v -0.096431 0.001000 0.017702
v -0.063006 0.001000 -0.022123
v -0.063006 -0.001000 -0.022123
v -0.032694 -0.001000 -0.022123
v -0.063006 0.001000 -0.022123
v -0.032694 0.001000 -0.022123
v -0.032694 -0.001000 -0.022123
v -0.016057 -0.001000 0.004909
v -0.032694 0.001000 -0.022123
v -0.016057 0.001000 0.004909
v 0.000000 0.001000 0.004909
v 0.016057 0.001000 0.004909
v -0.016057 0.001000 0.004909
v -0.032694 0.001000 -0.022123
v -0.063006 0.001000 -0.022123
v -0.096431 0.001000 0.017702
v -0.096431 0.001000 0.043321
v -0.094431 0.001000 0.043321
v -0.094431 0.001000 0.028380
v -0.091431 0.001000 0.028380
v -0.091431 0.001000 0.026380
v -0.094431 0.001000 0.026380
v -0.094431 0.001000 0.024380
v -0.091431 0.001000 0.024380
v -0.091431 0.001000 0.022380
v -0.094431 0.001000 0.022380
v -0.094431 0.001000 0.018451
v -0.062074 0.001000 -0.020123
v -0.051928 0.001000 -0.020123
v -0.051928 0.001000 -0.017123
v -0.049928 0.001000 -0.017123
v -0.049928 0.001000 -0.020123
v -0.047928 0.001000 -0.020123
v -0.047928 0.001000 -0.017123
v -0.045928 0.001000 -0.017123
v -0.045928 0.001000 -0.020123
v -0.033812 0.001000 -0.020123
v -0.017175 0.001000 0.006909
v 0.017175 0.001000 0.006909
v 0.033812 0.001000 -0.020123
v 0.045928 0.001000 -0.020123
v 0.045928 0.001000 -0.017123
v 0.047928 0.001000 -0.017123
v 0.047928 0.001000 -0.020123
v 0.049928 0.001000 -0.020123
v 0.049928 0.001000 -0.017123
v 0.051928 0.001000 -0.017123
v 0.051928 0.001000 -0.020123
v 0.062074 0.001000 -0.020123
v 0.094431 0.001000 0.018451
v 0.094431 0.001000 0.022380
v 0.091431 0.001000 0.022380
v 0.091431 0.001000 0.024380
v 0.094431 0.001000 0.024380
v 0.094431 0.001000 0.026380
v 0.091431 0.001000 0.026380
v 0.091431 0.001000 0.028380
v 0.094431 0.001000 0.028380
v 0.094431 0.001000 0.043321
v 0.096431 0.001000 0.043321
v 0.096431 0.001000 0.017702
v 0.063006 0.001000 -0.022123
v 0.032694 0.001000 -0.022123
v 0.000000 -0.001000 0.004909
v -0.016057 -0.001000 0.004909
v 0.016057 -0.001000 0.004909
v 0.032694 -0.001000 -0.022123
v 0.063006 -0.001000 -0.022123
v 0.096431 -0.001000 0.017702
v 0.096431 -0.001000 0.043321
v 0.094431 -0.001000 0.043321
v 0.094431 -0.001000 0.028380
v 0.091431 -0.001000 0.028380
v 0.091431 -0.001000 0.026380
v 0.094431 -0.001000 0.026380
v 0.094431 -0.001000 0.024380
v 0.091431 -0.001000 0.024380
v 0.091431 -0.001000 0.022380
v 0.094431 -0.001000 0.022380
v 0.094431 -0.001000 0.018451
v 0.062074 -0.001000 -0.020123
v 0.051928 -0.001000 -0.020123
v 0.051928 -0.001000 -0.017123
v 0.049928 -0.001000 -0.017123
v 0.049928 -0.001000 -0.020123
v 0.047928 -0.001000 -0.020123
v 0.047928 -0.001000 -0.017123
v 0.045928 -0.001000 -0.017123
v 0.045928 -0.001000 -0.020123
v 0.033812 -0.001000 -0.020123
v 0.017175 -0.001000 0.006909
v -0.017175 -0.001000 0.006909
v -0.033812 -0.001000 -0.020123
v -0.045928 -0.001000 -0.020123
v -0.045928 -0.001000 -0.017123
v -0.047928 -0.001000 -0.017123
v -0.047928 -0.001000 -0.020123
v -0.049928 -0.001000 -0.020123
v -0.049928 -0.001000 -0.017123
v -0.051928 -0.001000 -0.017123
v -0.051928 -0.001000 -0.020123
v -0.062074 -0.001000 -0.020123
v -0.094431 -0.001000 0.018451
v -0.094431 -0.001000 0.022380
v -0.091431 -0.001000 0.022380
v -0.091431 -0.001000 0.024380
v -0.094431 -0.001000 0.024380
v -0.094431 -0.001000 0.026380
v -0.091431 -0.001000 0.026380
v -0.091431 -0.001000 0.028380
v -0.094431 -0.001000 0.028380
v -0.094431 -0.001000 0.043321
v -0.096431 -0.001000 0.043321
v -0.096431 -0.001000 0.017702
v -0.063006 -0.001000 -0.022123
v -0.032694 -0.001000 -0.022123
vn 0.000000 0.000000 -1.000000
vn 0.000000 0.000000 -1.000000
vn 0.000000 0.000000 -1.000000
vn 0.000000 0.000000 -1.000000
vn 0.000000 0.000000 -1.000000
vn 0.000000 0.000000 -1.000000
vn 0.000000 0.000000 -1.000000
vn 0.000000 0.000000 -1.000000
vn -0.851641 0.000000 -0.524125
vn -0.851641 0.000000 -0.524125
vn -0.851641 0.000000 -0.524125
vn -0.851641 0.000000 -0.524125
vn 0.000000 0.000000 -1.000000
vn 0.000000 0.000000 -1.000000
vn 0.000000 0.000000 -1.000000
vn 0.000000 0.000000 -1.000000
vn 0.765971 0.000000 -0.642876
vn 0.765971 0.000000 -0.642876
vn 0.765971 0.000000 -0.642876
vn 0.765971 0.000000 -0.642876
vn 1.000000 0.000000 0.000000
vn 1.000000 0.000000 0.000000
vn 1.000000 0.000000 0.000000
vn 1.000000 0.000000 0.000000
vn 0.000000 -0.000000 1.000000
vn 0.000000 -0.000000 1.000000
vn 0.000000 -0.000000 1.000000
vn 0.000000 -0.000000 1.000000
vn -1.000000 0.000000 0.000000
vn -1.000000 0.000000 0.000000
vn -1.000000 0.000000 0.000000
vn -1.000000 0.000000 0.000000
vn 0.000000 -0.000000 1.000000
vn 0.000000 -0.000000 1.000000
vn 0.000000 -0.000000 1.000000
vn 0.000000 -0.000000 1.000000
vn -1.000000 0.000000 0.000000
vn -1.000000 0.000000 0.000000
vn -1.000000 0.000000 0.000000
vn -1.000000 0.000000 0.000000
vn 0.000000 0.000000 -1.000000
vn 0.000000 0.000000 -1.000000
vn 0.000000 0.000000 -1.000000
vn 0.000000 0.000000 -1.000000
vn -1.000000 0.000000 0.000000
vn -1.000000 0.000000 0.000000
vn -1.000000 0.000000 0.000000
vn -1.000000 0.000000 0.000000
vn 0.000000 -0.000000 1.000000
vn 0.000000 -0.000000 1.000000
vn 0.000000 -0.000000 1.000000
vn 0.000000 -0.000000 1.000000
vn -1.000000 0.000000 0.000000
vn -1.000000 0.000000 0.000000
vn -1.000000 0.000000 0.000000
vn -1.000000 0.000000 0.000000
vn 0.000000 0.000000 -1.000000
vn 0.000000 0.000000 -1.000000
vn 0.000000 0.000000 -1.000000
vn 0.000000 0.000000 -1.000000
vn -1.000000 0.000000 0.000000
vn -1.000000 0.000000 0.000000
vn -1.000000 0.000000 0.000000
vn -1.000000 0.000000 0.000000
vn -0.766152 -0.000000 0.642660
vn -0.766152 -0.000000 0.642660
vn -0.766152 -0.000000 0.642660
vn -0.766152 -0.000000 0.642660
vn 0.000000 -0.000000 1.000000
vn 0.000000 -0.000000 1.000000
vn 0.000000 -0.000000 1.000000
vn 0.000000 -0.000000 1.000000
vn 1.000000 0.000000 0.000000
vn 1.000000 0.000000 0.000000
vn 1.000000 0.000000 0.000000
vn 1.000000 0.000000 0.000000
vn 0.000000 -0.000000 1.000000
vn 0.000000 -0.000000 1.000000
vn 0.000000 -0.000000 1.000000
vn 0.000000 -0.000000 1.000000
vn -1.000000 0.000000 0.000000
vn -1.000000 0.000000 0.000000
vn -1.000000 0.000000 0.000000
vn -1.000000 0.000000 0.000000
vn 0.000000 -0.000000 1.000000
vn 0.000000 -0.000000 1.000000
vn 0.000000 -0.000000 1.000000
vn 0.000000 -0.000000 1.000000
vn 1.000000 0.000000 0.000000
vn 1.000000 0.000000 0.000000
vn 1.000000 0.000000 0.000000
vn 1.000000 0.000000 0.000000
vn 0.000000 -0.000000 1.000000
vn 0.000000 -0.000000 1.000000
vn 0.000000 -0.000000 1.000000
vn 0.000000 -0.000000 1.000000
vn -1.000000 0.000000 0.000000
vn -1.000000 0.000000 0.000000
vn -1.000000 0.000000 0.000000
vn -1.000000 0.000000 0.000000
vn 0.000000 -0.000000 1.000000
vn 0.000000 -0.000000 1.000000
vn 0.000000 -0.000000 1.000000
vn 0.000000 -0.000000 1.000000
vn 0.851641 -0.000000 0.524125
vn 0.851641 -0.000000 0.524125
vn 0.851641 -0.000000 0.524125
vn 0.851641 -0.000000 0.524125
vn 0.000000 -0.000000 1.000000
vn 0.000000 -0.000000 1.000000
vn 0.000000 -0.000000 1.000000
vn 0.000000 -0.000000 1.000000
vn -0.851641 -0.000000 0.524125
vn -0.851641 -0.000000 0.524125
vn -0.851641 -0.000000 0.524125
vn -0.851641 -0.000000 0.524125
vn 0.000000 -0.000000 1.000000
vn 0.000000 -0.000000 1.000000
vn 0.000000 -0.000000 1.000000
vn 0.000000 -0.000000 1.000000
vn 1.000000 0.000000 0.000000
vn 1.000000 0.000000 0.000000
vn 1.000000 0.000000 0.000000
vn 1.000000 0.000000 0.000000
vn 0.000000 -0.000000 1.000000
vn 0.000000 -0.000000 1.000000
vn 0.000000 -0.000000 1.000000
vn 0.000000 -0.000000 1.000000
vn -1.000000 0.000000 0.000000
vn -1.000000 0.000000 0.000000
vn -1.000000 0.000000 0.000000
vn -1.000000 0.000000 0.000000
vn 0.000000 -0.000000 1.000000
vn 0.000000 -0.000000 1.000000
vn 0.000000 -0.000000 1.000000
vn 0.000000 -0.000000 1.000000
vn 1.000000 0.000000 0.000000
vn 1.000000 0.000000 0.000000
vn 1.000000 0.000000 0.000000
vn 1.000000 0.000000 0.000000
vn 0.000000 -0.000000 1.000000
vn 0.000000 -0.000000 1.000000
vn 0.000000 -0.000000 1.000000
vn 0.000000 -0.000000 1.000000
vn -1.000000 0.000000 0.000000
vn -1.000000 0.000000 0.000000
vn -1.000000 0.000000 0.000000
vn -1.000000 0.000000 0.000000
vn 0.000000 -0.000000 1.000000
vn 0.000000 -0.000000 1.000000
vn 0.000000 -0.000000 1.000000
vn 0.000000 -0.000000 1.000000
vn 0.766152 -0.000000 0.642660
vn 0.766152 -0.000000 0.642660
vn 0.766152 -0.000000 0.642660
vn 0.766152 -0.000000 0.642660
vn 1.000000 0.000000 0.000000
vn 1.000000 0.000000 0.000000
vn 1.000000 0.000000 0.000000
vn 1.000000 0.000000 0.000000
vn 0.000000 0.000000 -1.000000
vn 0.000000 0.000000 -1.000000
vn 0.000000 0.000000 -1.000000
vn 0.000000 0.000000 -1.000000
vn 1.000000 0.000000 0.000000
vn 1.000000 0.000000 0.000000
vn 1.000000 0.000000 0.000000
vn 1.000000 0.000000 0.000000
vn 0.000000 -0.000000 1.000000
vn 0.000000 -0.000000 1.000000
vn 0.000000 -0.000000 1.000000
vn 0.000000 -0.000000 1.000000
vn 1.000000 0.000000 0.000000
vn 1.000000 0.000000 0.000000
vn 1.000000 0.000000 0.000000
vn 1.000000 0.000000 0.000000
vn 0.000000 0.000000 -1.000000
vn 0.000000 0.000000 -1.000000
vn 0.000000 0.000000 -1.000000
vn 0.000000 0.000000 -1.000000
vn 1.000000 0.000000 0.000000
vn 1.000000 0.000000 0.000000
vn 1.000000 0.000000 0.000000
vn 1.000000 0.000000 0.000000
vn 0.000000 -0.000000 1.000000
vn 0.000000 -0.000000 1.000000
vn 0.000000 -0.000000 1.000000
vn 0.000000 -0.000000 1.000000
vn 1.000000 0.000000 0.000000
vn 1.000000 0.000000 0.000000
vn 1.000000 0.000000 0.000000
vn 1.000000 0.000000 0.000000
vn 0.000000 -0.000000 1.000000
vn 0.000000 -0.000000 1.000000
vn 0.000000 -0.000000 1.000000
vn 0.000000 -0.000000 1.000000
vn -1.000000 0.000000 0.000000
vn -1.000000 0.000000 0.000000
vn -1.000000 0.000000 0.000000
vn -1.000000 0.000000 0.000000
vn -0.765971 0.000000 -0.642876
vn -0.765971 0.000000 -0.642876
vn -0.765971 0.000000 -0.642876
vn -0.765971 0.000000 -0.642876
vn 0.000000 0.000000 -1.000000
vn 0.000000 0.000000 -1.000000
vn 0.000000 0.000000 -1.000000
vn 0.000000 0.000000 -1.000000
vn 0.851641 0.000000 -0.524125
vn 0.851641 0.000000 -0.524125
vn 0.851641 0.000000 -0.524125
vn 0.851641 0.000000 -0.524125
vn 0.000000 1.000000 0.000000
vn 0.000000 1.000000 0.000000
vn 0.000000 1.000000 0.000000
vn 0.000000 1.000000 0.000000
vn 0.000000 1.000000 0.000000
vn 0.000000 1.000000 0.000000
vn 0.000000 1.000000 0.000000
vn 0.000000 1.000000 0.000000
vn 0.000000 1.000000 0.000000
vn 0.000000 1.000000 0.000000
vn 0.000000 1.000000 0.000000
vn 0.000000 1.000000 0.000000
vn 0.000000 1.000000 0.000000
vn 0.000000 1.000000 0.000000
vn 0.000000 1.000000 0.000000
vn 0.000000 1.000000 0.000000
vn 0.000000 1.000000 0.000000
vn 0.000000 1.000000 0.000000
vn 0.000000 1.000000 0.000000
vn 0.000000 1.000000 0.000000
vn 0.000000 1.000000 0.000000
vn 0.000000 1.000000 0.000000
vn 0.000000 1.000000 0.000000
vn 0.000000 1.000000 0.000000
vn 0.000000 1.000000 0.000000
vn 0.000000 1.000000 0.000000
vn 0.000000 1.000000 0.000000
vn 0.000000 1.000000 0.000000
vn 0.000000 1.000000 0.000000
vn 0.000000 1.000000 0.000000
vn 0.000000 1.000000 0.000000
vn 0.000000 1.000000 0.000000
vn 0.000000 1.000000 0.000000
vn 0.000000 1.000000 0.000000
vn 0.000000 1.000000 0.000000
vn 0.000000 1.000000 0.000000
vn 0.000000 1.000000 0.000000
vn 0.000000 1.000000 0.000000
vn 0.000000 1.000000 0.000000
vn 0.000000 1.000000 0.000000
vn 0.000000 1.000000 0.000000
vn 0.000000 1.000000 0.000000
vn 0.000000 1.000000 0.000000
vn 0.000000 1.000000 0.000000
vn 0.000000 1.000000 0.000000
vn 0.000000 1.000000 0.000000
vn 0.000000 1.000000 0.000000
vn 0.000000 1.000000 0.000000
vn 0.000000 1.000000 0.000000
vn 0.000000 1.000000 0.000000
vn 0.000000 1.000000 0.000000
vn 0.000000 1.000000 0.000000
vn 0.000000 1.000000 0.000000
vn 0.000000 -1.000000 -0.000000
vn 0.000000 -1.000000 -0.000000
vn 0.000000 -1.000000 -0.000000
vn 0.000000 -1.000000 -0.000000
vn 0.000000 -1.000000 -0.000000
vn 0.000000 -1.000000 -0.000000
vn 0.000000 -1.000000 -0.000000
vn 0.000000 -1.000000 -0.000000
vn 0.000000 -1.000000 -0.000000
vn 0.000000 -1.000000 -0.000000
vn 0.000000 -1.000000 -0.000000
vn 0.000000 -1.000000 -0.000000
vn 0.000000 -1.000000 -0.000000
vn 0.000000 -1.000000 -0.000000
vn 0.000000 -1.000000 -0.000000
vn 0.000000 -1.000000 -0.000000
vn 0.000000 -1.000000 -0.000000
vn 0.000000 -1.000000 -0.000000
vn 0.000000 -1.000000 -0.000000
vn 0.000000 -1.000000 -0.000000
vn 0.000000 -1.000000 -0.000000
vn 0.000000 -1.000000 -0.000000
vn 0.000000 -1.000000 -0.000000
vn 0.000000 -1.000000 -0.000000
vn 0.000000 -1.000000 -0.000000
vn 0.000000 -1.000000 -0.000000
vn 0.000000 -1.000000 -0.000000
vn 0.000000 -1.000000 -0.000000
vn 0.000000 -1.000000 -0.000000
vn 0.000000 -1.000000 -0.000000
vn 0.000000 -1.000000 -0.000000
vn 0.000000 -1.000000 -0.000000
vn 0.000000 -1.000000 -0.000000
vn 0.000000 -1.000000 -0.000000
vn 0.000000 -1.000000 -0.000000
vn 0.000000 -1.000000 -0.000000
vn 0.000000 -1.000000 -0.000000
vn 0.000000 -1.000000 -0.000000
vn 0.000000 -1.000000 -0.000000
vn 0.000000 -1.000000 -0.000000
vn 0.000000 -1.000000 -0.000000
vn 0.000000 -1.000000 -0.000000
vn 0.000000 -1.000000 -0.000000
vn 0.000000 -1.000000 -0.000000
vn 0.000000 -1.000000 -0.000000
vn 0.000000 -1.000000 -0.000000
vn 0.000000 -1.000000 -0.000000
vn 0.000000 -1.000000 -0.000000
vn 0.000000 -1.000000 -0.000000
vn 0.000000 -1.000000 -0.000000
vn 0.000000 -1.000000 -0.000000
vn 0.000000 -1.000000 -0.000000
vn 0.000000 -1.000000 -0.000000
f 2//2 1//1 3//3
f 2//2 3//3 4//4
f 6//6 5//5 7//7
f 6//6 7//7 8//8
f 10//10 9//9 11//11
f 10//10 11//11 12//12
f 14//14 13//13 15//15
f 14//14 15//15 16//16
f 18//18 17//17 19//19
f 18//18 19//19 20//20
f 22//22 21//21 23//23
f 22//22 23//23 24//24
f 26//26 25//25 27//27
f 26//26 27//27 28//28
f 30//30 29//29 31//31
f 30//30 31//31 32//32
f 34//34 33//33 35//35
f 34//34 35//35 36//36
f 38//38 37//37 39//39
f 38//38 39//39 40//40
f 42//42 41//41 43//43
f 42//42 43//43 44//44
f 46//46 45//45 47//47
f 46//46 47//47 48//48
f 50//50 49//49 51//51
f 50//50 51//51 52//52
f 54//54 53//53 55//55
f 54//54 55//55 56//56
f 58//58 57//57 59//59
f 58//58 59//59 60//60
f 62//62 61//61 63//63
f 62//62 63//63 64//64
f 66//66 65//65 67//67
f 66//66 67//67 68//68
f 70//70 69//69 71//71
f 70//70 71//71 72//72
f 74//74 73//73 75//75
f 74//74 75//75 76//76
f 78//78 77//77 79//79
f 78//78 79//79 80//80
f 82//82 81//81 83//83
f 82//82 83//83 84//84
f 86//86 85//85 87//87
f 86//86 87//87 88//88
f 90//90 89//89 91//91
f 90//90 91//91 92//92
f 94//94 93//93 95//95
f 94//94 95//95 96//96
f 98//98 97//97 99//99
f 98//98 99//99 100//100
f 102//102 101//101 103//103
f 102//102 103//103 104//104
f 106//106 105//105 107//107
f 106//106 107//107 108//108
f 110//110 109//109 111//111
f 110//110 111//111 112//112
f 114//114 113//113 115//115
f 114//114 115//115 116//116
f 118//118 117//117 119//119
f 118//118 119//119 120//120
f 122//122 121//121 123//123
f 122//122 123//123 124//124
f 126//126 125//125 127//127
f 126//126 127//127 128//128
f 130//130 129//129 131//131
f 130//130 131//131 132//132
f 134//134 133//133 135//135
f 134//134 135//135 136//136
f 138//138 137//137 139//139
f 138//138 139//139 140//140
f 142//142 141//141 143//143
f 142//142 143//143 144//144
f 146//146 145//145 147//147
f 146//146 147//147 148//148
f 150//150 149//149 151//151
f 150//150 151//151 152//152
f 154//154 153//153 155//155
f 154//154 155//155 156//156
f 158//158 157//157 159//159
f 158//158 159//159 160//160
f 162//162 161//161 163//163
f 162//162 163//163 164//164
f 166//166 165//165 167//167
f 166//166 167//167 168//168
f 170//170 169//169 171//171
f 170//170 171//171 172//172
f 174//174 173//173 175//175
f 174//174 175//175 176//176
f 178//178 177//177 179//179
f 178//178 179//179 180//180
f 182//182 181//181 183//183
f 182//182 183//183 184//184
f 186//186 185//185 187//187
f 186//186 187//187 188//188
f 190//190 189//189 191//191
f 190//190 191//191 192//192
f 194//194 193//193 195//195
f 194//194 195//195 196//196
f 198//198 197//197 199//199
f 198//198 199//199 200//200
f 202//202 201//201 203//203
f 202//202 203//203 204//204
f 206//206 205//205 207//207
f 206//206 207//207 208//208
f 210//210 209//209 211//211
f 210//210 211//211 212//212
f 230//230 231//231 217//217
f 234//234 217//217 231//231
f 218//218 230//230 217//217
f 233//233 234//234 231//231
f 233//233 231//231 232//232
f 234//234 235//235 217//217
f 238//238 216//216 235//235
f 217//217 235//235 216//216
f 239//239 216//216 238//238
f 235//235 236//236 237//237
f 235//235 237//237 238//238
f 239//239 240//240 215//215
f 216//216 239//239 215//215
f 228//228 229//229 218//218
f 229//229 230//230 218//218
f 225//225 228//228 218//218
f 221//221 219//219 220//220
f 219//219 221//221 218//218
f 218//218 224//224 225//225
f 225//225 226//226 227//227
f 225//225 227//227 228//228
f 218//218 221//221 224//224
f 221//221 222//222 223//223
f 221//221 223//223 224//224
f 240//240 213//213 215//215
f 243//243 246//246 265//265
f 264//264 265//265 246//246
f 245//245 243//243 244//244
f 242//242 243//243 265//265
f 245//245 246//246 243//243
f 251//251 264//264 250//250
f 247//247 250//250 264//264
f 263//263 264//264 251//251
f 247//247 248//248 249//249
f 249//249 250//250 247//247
f 246//246 247//247 264//264
f 263//263 251//251 252//252
f 214//214 213//213 241//241
f 254//254 255//255 253//253
f 258//258 259//259 260//260
f 258//258 260//260 257//257
f 256//256 263//263 253//253
f 252//252 253//253 263//263
f 257//257 263//263 256//256
f 260//260 263//263 257//257
f 260//260 261//261 262//262
f 260//260 262//262 263//263
f 253//253 255//255 256//256
f 241//241 242//242 214//214
f 213//213 240//240 241//241
f 242//242 265//265 214//214
f 313//313 314//314 315//315
f 316//316 313//313 315//315
f 309//309 310//310 316//316
f 313//313 316//316 310//310
f 306//306 309//309 316//316
f 310//310 311//311 312//312
f 310//310 312//312 313//313
f 306//306 307//307 308//308
f 306//306 308//308 309//309
f 316//316 305//305 306//306
f 295//295 267//267 294//294
f 304//304 305//305 316//316
f 302//302 303//303 300//300
f 302//302 300//300 301//301
f 300//300 303//303 317//317
f 304//304 317//317 303//303
f 299//299 300//300 317//317
f 316//316 317//317 304//304
f 298//298 299//299 296//296
f 298//298 296//296 297//297
f 318//318 296//296 299//299
f 296//296 318//318 295//295
f 317//317 318//318 299//299
f 267//267 266//266 294//294
f 279//279 280//280 281//281
f 283//283 271//271 282//282
f 277//277 274//274 275//275
f 277//277 275//275 276//276
f 272//272 273//273 274//274
f 271//271 272//272 274//274
f 281//281 278//278 279//279
f 281//281 271//271 278//278
f 277//277 278//278 271//271
f 271//271 274//274 277//277
f 282//282 271//271 281//281
f 293//293 294//294 266//266
f 292//292 268//268 269//269
f 293//293 266//266 268//268
f 292//292 293//293 268//268
f 291//291 292//292 269//269
f 318//318 267//267 295//295
f 269//269 288//288 291//291
f 291//291 288//288 289//289
f 270//270 288//288 269//269
f 289//289 290//290 291//291
f 285//285 286//286 287//287
f 270//270 284//284 287//287
f 284//284 285//285 287//287
f 284//284 270//270 283//283
f 271//271 283//283 270//270
f 288//288 270//270 287//287
