# joint_32 exported from /models/guards/joint_32.glb
# units: meters
v -0.097434 0.001000 -0.032046
v -0.100159 0.001000 -0.030777
v -0.101068 0.001000 -0.017506
v -0.081212 0.001000 -0.007040
v -0.082971 0.001000 -0.003471
v -0.083705 0.001000 -0.003319
v -0.082233 0.001000 -0.003341
v -0.081093 0.001000 -0.002235
v -0.081548 0.001000 -0.002906
v -0.072839 0.001000 0.005733
v -0.072154 0.001000 0.006168
v -0.057588 0.001000 0.013164
v -0.071547 0.001000 0.007573
v -0.071699 0.001000 0.006839
v -0.062267 0.001000 0.013762
v -0.063005 0.001000 0.013632
v -0.061582 0.001000 0.014197
v -0.060975 0.001000 0.015602
v -0.061127 0.001000 0.014868
v -0.029125 0.001000 0.025660
v -0.049080 0.001000 0.021326
v -0.049803 0.001000 0.021129
v -0.050608 0.001000 0.021232
v -0.061540 0.001000 0.017025
v -0.061104 0.001000 0.016340
v -0.051305 0.001000 0.021645
v -0.051755 0.001000 0.022245
v -0.062211 0.001000 0.017481
v -0.062945 0.001000 0.017632
v -0.063683 0.001000 0.017503
v -0.051952 0.001000 0.022968
v -0.051850 0.001000 0.023773
v -0.051436 0.001000 0.024471
v -0.050836 0.001000 0.024920
v -0.037786 0.001000 0.033483
v 0.000551 0.001000 0.036401
v -0.074031 0.001000 0.013703
v -0.083649 0.001000 0.000399
v -0.084334 0.001000 -0.000036
v -0.075395 0.001000 0.008367
v -0.073517 0.001000 0.009603
v -0.074255 0.001000 0.009473
v -0.072783 0.001000 0.009451
v -0.074940 0.001000 0.009038
v -0.064975 0.001000 0.015662
v -0.064845 0.001000 0.014924
v -0.064410 0.001000 0.014239
v -0.064823 0.001000 0.016396
v -0.064368 0.001000 0.017067
v -0.063739 0.001000 0.013784
v -0.072112 0.001000 0.008996
v -0.071677 0.001000 0.008311
v -0.075547 0.001000 0.007633
v -0.075417 0.001000 0.006895
v -0.082911 0.001000 0.000529
v -0.074982 0.001000 0.006210
v -0.074311 0.001000 0.005755
v -0.073577 0.001000 0.005603
v -0.082177 0.001000 0.000377
v -0.081506 0.001000 -0.000078
v -0.081071 0.001000 -0.000763
v -0.080941 0.001000 -0.001501
v -0.084790 0.001000 -0.000707
v -0.084941 0.001000 -0.001441
v -0.084812 0.001000 -0.002179
v -0.084376 0.001000 -0.002864
v 0.038784 0.001000 0.032337
v 0.000596 0.001000 0.039401
v 0.051572 0.001000 0.023387
v 0.064191 0.001000 0.015588
v 0.052158 0.001000 0.022920
v 0.074421 0.001000 0.011480
v 0.100511 0.001000 -0.020524
v 0.075624 0.001000 0.006106
v 0.083636 0.001000 -0.002105
v 0.084308 0.001000 -0.002561
v 0.074518 0.001000 0.007246
v 0.075189 0.001000 0.006791
v 0.073046 0.001000 0.007268
v 0.073784 0.001000 0.007397
v 0.064135 0.001000 0.011869
v 0.064820 0.001000 0.012305
v 0.065275 0.001000 0.012976
v 0.065297 0.001000 0.014448
v 0.065427 0.001000 0.013710
v 0.064862 0.001000 0.015133
v 0.072361 0.001000 0.006833
v 0.063397 0.001000 0.011740
v 0.062663 0.001000 0.011891
v 0.071754 0.001000 0.005428
v 0.057972 0.001000 0.011435
v 0.071906 0.001000 0.006162
v 0.029893 0.001000 0.024776
v 0.072319 0.001000 0.004005
v 0.080983 0.001000 -0.009466
v 0.071883 0.001000 0.004689
v 0.051233 0.001000 0.019707
v 0.050425 0.001000 0.019629
v 0.049709 0.001000 0.019847
v 0.061557 0.001000 0.013031
v 0.061992 0.001000 0.012347
v 0.061427 0.001000 0.013770
v 0.061579 0.001000 0.014504
v 0.062034 0.001000 0.015175
v 0.062719 0.001000 0.015610
v 0.051943 0.001000 0.020099
v 0.052410 0.001000 0.020685
v 0.063457 0.001000 0.015739
v 0.052629 0.001000 0.021402
v 0.052550 0.001000 0.022210
v 0.000491 0.001000 0.032402
v 0.000446 0.001000 0.029402
v 0.072990 0.001000 0.003549
v 0.081002 0.001000 -0.004662
v 0.081437 0.001000 -0.005346
v 0.082108 0.001000 -0.005802
v 0.083581 0.001000 -0.005824
v 0.082842 0.001000 -0.005953
v 0.084265 0.001000 -0.005389
v 0.096453 0.001000 -0.034945
v 0.099217 0.001000 -0.033791
v 0.099988 0.001000 -0.035637
v 0.097223 0.001000 -0.036791
v 0.113365 0.001000 -0.057171
v 0.103508 0.001000 -0.058857
v 0.084721 0.001000 -0.004717
v 0.084872 0.001000 -0.003983
v 0.084743 0.001000 -0.003245
v 0.080873 0.001000 -0.003924
v 0.081024 0.001000 -0.003190
v 0.073724 0.001000 0.003398
v 0.081479 0.001000 -0.002518
v 0.074462 0.001000 0.003527
v 0.075147 0.001000 0.003962
v 0.082164 0.001000 -0.002083
v 0.082902 0.001000 -0.001954
v 0.075602 0.001000 0.004634
v 0.075754 0.001000 0.005368
v -0.115013 0.001000 -0.053752
v -0.100985 0.001000 -0.032599
v -0.098278 0.001000 -0.033859
v -0.105211 0.001000 -0.055732
v 0.065427 0.001000 0.013710
v 0.065275 0.001000 0.012976
v 0.065427 -0.001000 0.013710
v 0.065275 -0.001000 0.012976
v 0.064820 -0.001000 0.012305
v 0.064135 -0.001000 0.011869
v 0.064820 0.001000 0.012305
v 0.064135 0.001000 0.011869
v 0.063397 0.001000 0.011740
v 0.062663 0.001000 0.011891
v 0.063397 -0.001000 0.011740
v 0.062663 -0.001000 0.011891
v 0.061992 -0.001000 0.012347
v 0.061557 -0.001000 0.013031
v 0.061992 0.001000 0.012347
v 0.061557 0.001000 0.013031
v 0.061427 0.001000 0.013770
v 0.061579 0.001000 0.014504
v 0.061427 -0.001000 0.013770
v 0.061579 -0.001000 0.014504
v 0.062034 -0.001000 0.015175
v 0.062719 -0.001000 0.015610
v 0.062034 0.001000 0.015175
v 0.062719 0.001000 0.015610
v 0.063457 0.001000 0.015739
v 0.064191 0.001000 0.015588
v 0.063457 -0.001000 0.015739
v 0.064191 -0.001000 0.015588
v 0.064862 -0.001000 0.015133
v 0.065297 -0.001000 0.014448
v 0.064862 0.001000 0.015133
v 0.065297 0.001000 0.014448
v 0.065427 0.001000 0.013710
v 0.065427 -0.001000 0.013710
v 0.071754 0.001000 0.005428
v 0.071906 0.001000 0.006162
v 0.071754 -0.001000 0.005428
v 0.071883 0.001000 0.004689
v 0.071883 -0.001000 0.004689
v 0.072319 0.001000 0.004005
v 0.072990 0.001000 0.003549
v 0.072319 -0.001000 0.004005
v 0.072990 -0.001000 0.003549
v 0.073724 -0.001000 0.003398
v 0.073724 0.001000 0.003398
v 0.074462 -0.001000 0.003527
v 0.075147 -0.001000 0.003962
v 0.074462 0.001000 0.003527
v 0.075147 0.001000 0.003962
v 0.075602 0.001000 0.004634
v 0.075754 0.001000 0.005368
v 0.075602 -0.001000 0.004634
v 0.075754 -0.001000 0.005368
v 0.071906 -0.001000 0.006162
v 0.072361 -0.001000 0.006833
v 0.073046 -0.001000 0.007268
v 0.072361 0.001000 0.006833
v 0.073046 0.001000 0.007268
v 0.073784 0.001000 0.007397
v 0.074518 0.001000 0.007246
v 0.073784 -0.001000 0.007397
v 0.074518 -0.001000 0.007246
v 0.075189 -0.001000 0.006791
v 0.075624 -0.001000 0.006106
v 0.075189 0.001000 0.006791
v 0.075624 0.001000 0.006106
v 0.075754 0.001000 0.005368
v 0.075754 -0.001000 0.005368
v 0.082902 0.001000 -0.001954
v 0.083636 0.001000 -0.002105
v 0.082902 -0.001000 -0.001954
v 0.082164 0.001000 -0.002083
v 0.081479 0.001000 -0.002518
v 0.082164 -0.001000 -0.002083
v 0.081479 -0.001000 -0.002518
v 0.081024 -0.001000 -0.003190
v 0.080873 -0.001000 -0.003924
v 0.081024 0.001000 -0.003190
v 0.080873 0.001000 -0.003924
v 0.081002 0.001000 -0.004662
v 0.081437 0.001000 -0.005346
v 0.081002 -0.001000 -0.004662
v 0.081437 -0.001000 -0.005346
v 0.082108 -0.001000 -0.005802
v 0.082108 0.001000 -0.005802
v 0.082842 -0.001000 -0.005953
v 0.083581 -0.001000 -0.005824
v 0.082842 0.001000 -0.005953
v 0.083581 0.001000 -0.005824
v 0.084265 0.001000 -0.005389
v 0.084265 -0.001000 -0.005389
v 0.084721 0.001000 -0.004717
v 0.084721 -0.001000 -0.004717
v 0.084872 0.001000 -0.003983
v 0.084872 -0.001000 -0.003983
v 0.083636 -0.001000 -0.002105
v 0.084308 -0.001000 -0.002561
v 0.084743 -0.001000 -0.003245
v 0.084308 0.001000 -0.002561
v 0.084743 0.001000 -0.003245
v 0.084872 0.001000 -0.003983
v 0.084872 -0.001000 -0.003983
v -0.063005 0.001000 0.013632
v -0.062267 0.001000 0.013762
v -0.063005 -0.001000 0.013632
v -0.063739 0.001000 0.013784
v -0.063739 -0.001000 0.013784
v -0.064410 0.001000 0.014239
v -0.064845 0.001000 0.014924
v -0.064410 -0.001000 0.014239
v -0.064845 -0.001000 0.014924
v -0.064975 -0.001000 0.015662
v -0.064975 0.001000 0.015662
v -0.062267 -0.001000 0.013762
v -0.061582 -0.001000 0.014197
v -0.061582 0.001000 0.014197
v -0.061127 -0.001000 0.014868
v -0.060975 -0.001000 0.015602
v -0.061127 0.001000 0.014868
v -0.060975 0.001000 0.015602
v -0.061104 0.001000 0.016340
v -0.061104 -0.001000 0.016340
v -0.061540 0.001000 0.017025
v -0.062211 0.001000 0.017481
v -0.061540 -0.001000 0.017025
v -0.062211 -0.001000 0.017481
v -0.062945 -0.001000 0.017632
v -0.062945 0.001000 0.017632
v -0.063683 -0.001000 0.017503
v -0.063683 0.001000 0.017503
v -0.064368 -0.001000 0.017067
v -0.064368 0.001000 0.017067
v -0.064823 -0.001000 0.016396
v -0.064975 -0.001000 0.015662
v -0.064823 0.001000 0.016396
v -0.064975 0.001000 0.015662
v -0.075547 0.001000 0.007633
v -0.075417 0.001000 0.006895
v -0.075547 -0.001000 0.007633
v -0.075417 -0.001000 0.006895
v -0.074982 -0.001000 0.006210
v -0.074982 0.001000 0.006210
v -0.074311 -0.001000 0.005755
v -0.074311 0.001000 0.005755
v -0.073577 -0.001000 0.005603
v -0.073577 0.001000 0.005603
v -0.072839 -0.001000 0.005733
v -0.072839 0.001000 0.005733
v -0.072154 -0.001000 0.006168
v -0.072154 0.001000 0.006168
v -0.071699 -0.001000 0.006839
v -0.071699 0.001000 0.006839
v -0.071547 -0.001000 0.007573
v -0.071547 0.001000 0.007573
v -0.071677 -0.001000 0.008311
v -0.071677 0.001000 0.008311
v -0.072112 -0.001000 0.008996
v -0.072112 0.001000 0.008996
v -0.072783 -0.001000 0.009451
v -0.072783 0.001000 0.009451
v -0.073517 -0.001000 0.009603
v -0.073517 0.001000 0.009603
v -0.074255 -0.001000 0.009473
v -0.074255 0.001000 0.009473
v -0.074940 -0.001000 0.009038
v -0.074940 0.001000 0.009038
v -0.075395 -0.001000 0.008367
v -0.075395 0.001000 0.008367
v -0.075547 -0.001000 0.007633
v -0.075547 0.001000 0.007633
v -0.084941 0.001000 -0.001441
v -0.084812 0.001000 -0.002179
v -0.084941 -0.001000 -0.001441
v -0.084812 -0.001000 -0.002179
v -0.084376 -0.001000 -0.002864
v -0.084376 0.001000 -0.002864
v -0.083705 -0.001000 -0.003319
v -0.083705 0.001000 -0.003319
v -0.082971 -0.001000 -0.003471
v -0.082971 0.001000 -0.003471
v -0.082233 -0.001000 -0.003341
v -0.082233 0.001000 -0.003341
v -0.081548 -0.001000 -0.002906
v -0.081548 0.001000 -0.002906
v -0.081093 -0.001000 -0.002235
v -0.081093 0.001000 -0.002235
v -0.080941 -0.001000 -0.001501
v -0.080941 0.001000 -0.001501
v -0.081071 -0.001000 -0.000763
v -0.081071 0.001000 -0.000763
v -0.081506 -0.001000 -0.000078
v -0.081506 0.001000 -0.000078
v -0.082177 -0.001000 0.000377
v -0.082177 0.001000 0.000377
v -0.082911 -0.001000 0.000529
v -0.082911 0.001000 0.000529
v -0.083649 -0.001000 0.000399
v -0.083649 0.001000 0.000399
v -0.084334 -0.001000 -0.000036
v -0.084334 0.001000 -0.000036
v -0.084790 -0.001000 -0.000707
v -0.084790 0.001000 -0.000707
v -0.084941 -0.001000 -0.001441
v -0.084941 0.001000 -0.001441
v -0.050836 0.001000 0.024920
v -0.044970 0.001000 0.027583
v -0.048208 0.000500 0.026163
v -0.050836 -0.000000 0.024920
v -0.048208 -0.000000 0.026163
v -0.048208 -0.000500 0.026163
v -0.050836 -0.001000 0.024920
v -0.044970 -0.001000 0.027583
v -0.045534 -0.000500 0.027344
v -0.038889 -0.001000 0.029934
v -0.032617 -0.001000 0.031949
v -0.045534 -0.000000 0.027344
v -0.038889 0.001000 0.029934
v -0.032617 0.001000 0.031949
v -0.045534 0.000500 0.027344
v -0.026182 0.001000 0.033609
v -0.019614 0.001000 0.034896
v -0.026182 -0.001000 0.033609
v -0.019614 -0.001000 0.034896
v -0.012946 -0.001000 0.035797
v -0.012946 0.001000 0.035797
v -0.006212 -0.001000 0.036300
v -0.006212 0.001000 0.036300
v 0.000551 -0.001000 0.036401
v 0.007309 -0.001000 0.036098
v 0.000551 0.001000 0.036401
v 0.007309 0.001000 0.036098
v 0.014024 0.001000 0.035393
v 0.020662 0.001000 0.034293
v 0.014024 -0.001000 0.035393
v 0.020662 -0.001000 0.034293
v 0.027188 -0.001000 0.032810
v 0.033571 -0.001000 0.030958
v 0.027188 0.001000 0.032810
v 0.033571 0.001000 0.030958
v 0.039780 0.001000 0.028756
v 0.045788 0.001000 0.026224
v 0.046465 -0.000000 0.025913
v 0.046465 0.000500 0.025913
v 0.039780 -0.001000 0.028756
v 0.046465 -0.000500 0.025913
v 0.045788 -0.001000 0.026224
v 0.049042 -0.000500 0.024678
v 0.051572 -0.001000 0.023387
v 0.051572 -0.000000 0.023387
v 0.051572 0.001000 0.023387
v 0.049042 0.000500 0.024678
v 0.049042 -0.000000 0.024678
v 0.051572 0.001000 0.023387
v 0.051572 -0.000000 0.023387
v 0.052158 0.001000 0.022920
v 0.052550 0.001000 0.022210
v 0.052158 -0.001000 0.022920
v 0.051572 -0.001000 0.023387
v 0.052550 -0.001000 0.022210
v 0.052629 -0.001000 0.021402
v 0.052410 -0.001000 0.020685
v 0.052629 0.001000 0.021402
v 0.052410 0.001000 0.020685
v 0.051943 0.001000 0.020099
v 0.051233 0.001000 0.019707
v 0.051943 -0.001000 0.020099
v 0.051233 -0.001000 0.019707
v 0.050425 -0.001000 0.019629
v 0.049709 -0.001000 0.019847
v 0.049709 -0.000000 0.019847
v 0.050425 0.001000 0.019629
v 0.049709 0.001000 0.019847
v 0.049709 0.001000 0.019847
v 0.044129 0.001000 0.022584
v 0.047211 0.000500 0.021121
v 0.049709 -0.000000 0.019847
v 0.049709 -0.001000 0.019847
v 0.047211 -0.000000 0.021121
v 0.047211 -0.000500 0.021121
v 0.044666 -0.000500 0.022338
v 0.044129 -0.001000 0.022584
v 0.038333 -0.001000 0.025026
v 0.044666 -0.000000 0.022338
v 0.044666 0.000500 0.022338
v 0.038333 0.001000 0.025026
v 0.032344 0.001000 0.027151
v 0.026187 0.001000 0.028937
v 0.032344 -0.001000 0.027151
v 0.026187 -0.001000 0.028937
v 0.019891 -0.001000 0.030368
v 0.019891 0.001000 0.030368
v 0.013488 -0.001000 0.031429
v 0.007010 -0.001000 0.032109
v 0.013488 0.001000 0.031429
v 0.007010 0.001000 0.032109
v 0.000491 0.001000 0.032402
v -0.006033 0.001000 0.032304
v 0.000491 -0.001000 0.032402
v -0.006033 -0.001000 0.032304
v -0.012529 -0.001000 0.031818
v -0.012529 0.001000 0.031818
v -0.018961 -0.001000 0.030950
v -0.018961 0.001000 0.030950
v -0.025297 -0.001000 0.029708
v -0.031504 -0.001000 0.028107
v -0.025297 0.001000 0.029708
v -0.031504 0.001000 0.028107
v -0.037555 0.001000 0.026163
v -0.043421 0.001000 0.023895
v -0.037555 -0.001000 0.026163
v -0.044083 0.000500 0.023614
v -0.044083 -0.000000 0.023614
v -0.044083 -0.000500 0.023614
v -0.046603 -0.000000 0.022499
v -0.049080 -0.000000 0.021326
v -0.046603 -0.000500 0.022499
v -0.046603 0.000500 0.022499
v -0.049080 0.001000 0.021326
v -0.043421 -0.001000 0.023895
v -0.049080 -0.001000 0.021326
v -0.049080 0.001000 0.021326
v -0.049080 -0.000000 0.021326
v -0.049803 0.001000 0.021129
v -0.050608 0.001000 0.021232
v -0.049803 -0.001000 0.021129
v -0.050608 -0.001000 0.021232
v -0.049080 -0.001000 0.021326
v -0.051305 -0.001000 0.021645
v -0.051755 -0.001000 0.022245
v -0.051305 0.001000 0.021645
v -0.051755 0.001000 0.022245
v -0.051952 0.001000 0.022968
v -0.051850 0.001000 0.023773
v -0.051952 -0.001000 0.022968
v -0.051850 -0.001000 0.023773
v -0.051436 -0.001000 0.024471
v -0.051436 0.001000 0.024471
v -0.050836 -0.001000 0.024920
v -0.050836 -0.000000 0.024920
v -0.050836 0.001000 0.024920
v -0.097434 -0.001000 -0.032046
v -0.094886 0.000000 -0.026924
v -0.094886 -0.001000 -0.026924
v -0.097434 0.001000 -0.032046
v -0.094886 0.001000 -0.026924
v -0.092023 0.001000 -0.021875
v -0.092023 0.000000 -0.021875
v -0.085526 0.001000 -0.012329
v -0.085526 -0.001000 -0.012329
v -0.077870 0.001000 -0.003378
v -0.069247 0.001000 0.004690
v -0.077870 -0.001000 -0.003378
v -0.069247 -0.001000 0.004690
v -0.059736 -0.001000 0.011780
v -0.059736 0.001000 0.011780
v -0.049478 -0.001000 0.017772
v -0.049478 0.001000 0.017772
v -0.038670 -0.001000 0.022560
v -0.038670 0.001000 0.022560
v -0.027522 -0.001000 0.026084
v -0.027522 0.001000 0.026084
v -0.016250 -0.001000 0.028333
v -0.016250 0.001000 0.028333
v -0.005059 -0.001000 0.029342
v -0.005059 0.001000 0.029342
v 0.006253 -0.001000 0.029156
v 0.006253 0.001000 0.029156
v 0.017619 -0.001000 0.027743
v 0.017619 0.001000 0.027743
v 0.028976 -0.001000 0.025052
v 0.028976 0.001000 0.025052
v 0.040106 -0.001000 0.021074
v 0.040106 0.001000 0.021074
v 0.050732 -0.001000 0.015879
v 0.050732 0.001000 0.015879
v 0.060758 -0.001000 0.009503
v 0.060758 0.001000 0.009503
v 0.069992 -0.001000 0.002062
v 0.069992 0.001000 0.002062
v 0.078277 -0.001000 -0.006292
v 0.078277 0.001000 -0.006292
v 0.085491 -0.001000 -0.015377
v 0.085491 0.001000 -0.015377
v 0.091560 0.000000 -0.024995
v 0.091560 -0.001000 -0.024995
v 0.094153 -0.001000 -0.029941
v 0.094153 0.000000 -0.029941
v 0.096453 -0.001000 -0.034945
v 0.096453 0.001000 -0.034945
v 0.094153 0.001000 -0.029941
v 0.091560 0.001000 -0.024995
v -0.092023 -0.001000 -0.021875
v 0.096453 -0.001000 -0.034945
v 0.099217 0.000000 -0.033791
v 0.099217 -0.001000 -0.033791
v 0.096453 0.001000 -0.034945
v 0.099217 0.001000 -0.033791
v 0.099217 -0.001000 -0.033791
v 0.099988 -0.001000 -0.035637
v 0.099217 0.000000 -0.033791
v 0.099217 0.001000 -0.033791
v 0.099988 0.000000 -0.035637
v 0.099988 0.001000 -0.035637
v 0.099988 -0.001000 -0.035637
v 0.099988 0.000000 -0.035637
v 0.097223 -0.001000 -0.036791
v 0.097223 0.001000 -0.036791
v 0.099988 0.001000 -0.035637
v 0.097223 -0.001000 -0.036791
v 0.099239 0.000000 -0.042169
v 0.099239 -0.001000 -0.042169
v 0.097223 0.001000 -0.036791
v 0.099239 0.001000 -0.042169
v 0.100963 0.001000 -0.047657
v 0.100963 0.000000 -0.047657
v 0.102388 0.001000 -0.053227
v 0.103508 0.001000 -0.058857
v 0.102388 0.000000 -0.053227
v 0.103508 -0.001000 -0.058857
v 0.102388 -0.001000 -0.053227
v 0.100963 -0.001000 -0.047657
v 0.103508 -0.001000 -0.058857
v 0.108436 -0.001000 -0.058014
v 0.103508 0.001000 -0.058857
v 0.108436 0.001000 -0.058014
v 0.113365 0.001000 -0.057171
v 0.113365 -0.001000 -0.057171
v 0.113365 -0.001000 -0.057171
v 0.112232 0.000000 -0.051424
v 0.112232 -0.001000 -0.051424
v 0.113365 0.001000 -0.057171
v 0.112232 0.001000 -0.051424
v 0.110784 0.001000 -0.045645
v 0.110784 0.000000 -0.045645
v 0.107099 0.001000 -0.034574
v 0.107099 -0.001000 -0.034574
v 0.102184 0.001000 -0.023661
v 0.102184 -0.001000 -0.023661
v 0.096037 0.001000 -0.013105
v 0.096037 -0.001000 -0.013105
v 0.088848 0.001000 -0.003291
v 0.088848 -0.001000 -0.003291
v 0.080608 0.001000 0.005780
v 0.071422 0.001000 0.013962
v 0.080608 -0.001000 0.005780
v 0.071422 -0.001000 0.013962
v 0.061440 -0.001000 0.021115
v 0.061440 0.001000 0.021115
v 0.050840 -0.001000 0.027134
v 0.050840 0.001000 0.027134
v 0.039812 -0.001000 0.031955
v 0.039812 0.001000 0.031955
v 0.028553 -0.001000 0.035554
v 0.028553 0.001000 0.035554
v 0.017251 -0.001000 0.037948
v 0.017251 0.001000 0.037948
v 0.005511 -0.001000 0.039223
v 0.005511 0.001000 0.039223
v -0.005342 -0.001000 0.039338
v -0.005342 0.001000 0.039338
v -0.016967 -0.001000 0.038331
v -0.016967 0.001000 0.038331
v -0.028584 -0.001000 0.036126
v -0.028584 0.001000 0.036126
v -0.040176 -0.001000 0.032660
v -0.040176 0.001000 0.032660
v -0.051446 -0.001000 0.027958
v -0.051446 0.001000 0.027958
v -0.062155 -0.001000 0.022102
v -0.062155 0.001000 0.022102
v -0.072256 -0.001000 0.015105
v -0.072256 0.001000 0.015105
v -0.081569 -0.001000 0.007072
v -0.081569 0.001000 0.007072
v -0.089945 -0.001000 -0.001858
v -0.089945 0.001000 -0.001858
v -0.097266 -0.001000 -0.011519
v -0.097266 0.001000 -0.011519
v -0.103452 -0.001000 -0.021725
v -0.103452 0.001000 -0.021725
v -0.108466 -0.001000 -0.032289
v -0.108466 0.001000 -0.032289
v -0.112308 0.000000 -0.043022
v -0.112308 -0.001000 -0.043022
v -0.113799 -0.001000 -0.048397
v -0.115013 -0.001000 -0.053752
v -0.113799 0.000000 -0.048397
v -0.113799 0.001000 -0.048397
v -0.115013 0.001000 -0.053752
v -0.112308 0.001000 -0.043022
v 0.110784 -0.001000 -0.045645
v -0.115013 -0.001000 -0.053752
v -0.110112 -0.001000 -0.054742
v -0.115013 0.001000 -0.053752
v -0.110112 0.001000 -0.054742
v -0.105211 0.001000 -0.055732
v -0.105211 -0.001000 -0.055732
v -0.105211 -0.001000 -0.055732
v -0.103923 0.000000 -0.050135
v -0.103923 -0.001000 -0.050135
v -0.105211 0.001000 -0.055732
v -0.103923 0.001000 -0.050135
v -0.102333 0.001000 -0.044607
v -0.102333 0.000000 -0.044607
v -0.100449 0.001000 -0.039174
v -0.098278 0.001000 -0.033859
v -0.100449 0.000000 -0.039174
v -0.098278 -0.001000 -0.033859
v -0.100449 -0.001000 -0.039174
v -0.102333 -0.001000 -0.044607
v -0.098278 -0.001000 -0.033859
v -0.100985 0.000000 -0.032599
v -0.100985 -0.001000 -0.032599
v -0.098278 0.001000 -0.033859
v -0.100985 0.001000 -0.032599
v -0.100985 -0.001000 -0.032599
v -0.100159 -0.001000 -0.030777
v -0.100985 0.000000 -0.032599
v -0.100985 0.001000 -0.032599
v -0.100159 0.000000 -0.030777
v -0.100159 0.001000 -0.030777
v -0.100159 -0.001000 -0.030777
v -0.100159 0.000000 -0.030777
v -0.097434 -0.001000 -0.032046
v -0.097434 0.001000 -0.032046
v -0.100159 0.001000 -0.030777
v 0.096453 -0.001000 -0.034945
v 0.080983 -0.001000 -0.009466
v 0.100511 -0.001000 -0.020524
v 0.099217 -0.001000 -0.033791
v 0.099988 -0.001000 -0.035637
v 0.113365 -0.001000 -0.057171
v 0.097223 -0.001000 -0.036791
v 0.103508 -0.001000 -0.058857
v 0.074421 -0.001000 0.011480
v 0.084872 -0.001000 -0.003983
v 0.085042 -0.001000 -0.005618
v 0.085352 -0.001000 -0.007428
v 0.084743 -0.001000 -0.003245
v 0.084308 -0.001000 -0.002561
v 0.079658 -0.001000 0.004636
v 0.075602 -0.001000 0.004634
v 0.075754 -0.001000 0.005368
v 0.075624 -0.001000 0.006106
v 0.076285 -0.001000 0.003127
v 0.075357 -0.001000 0.008556
v 0.075189 -0.001000 0.006791
v 0.076131 -0.001000 0.004032
v 0.082350 -0.001000 -0.000491
v 0.075202 -0.001000 0.009461
v 0.079967 -0.001000 0.002826
v 0.076440 -0.001000 0.002223
v 0.080277 -0.001000 0.001017
v 0.080586 -0.001000 -0.000793
v 0.076750 -0.001000 0.000413
v 0.077059 -0.001000 -0.001396
v 0.074676 -0.001000 0.001921
v 0.073222 -0.001000 -0.000190
v 0.069076 -0.001000 0.002826
v 0.072913 -0.001000 0.001619
v 0.073532 -0.001000 -0.002000
v 0.057972 -0.001000 0.011435
v 0.077369 -0.001000 -0.003206
v 0.077523 -0.001000 -0.004111
v 0.077833 -0.001000 -0.005920
v 0.064930 -0.001000 0.005841
v 0.077678 -0.001000 -0.005015
v 0.079442 -0.001000 -0.004714
v 0.080873 -0.001000 -0.003924
v 0.079597 -0.001000 -0.005618
v 0.079287 -0.001000 -0.003809
v 0.081002 -0.001000 -0.004662
v 0.081437 -0.001000 -0.005346
v 0.082108 -0.001000 -0.005802
v 0.081515 -0.001000 -0.006221
v 0.081824 -0.001000 -0.008031
v 0.082842 -0.001000 -0.005953
v 0.083278 -0.001000 -0.005920
v 0.083581 -0.001000 -0.005824
v 0.084265 -0.001000 -0.005389
v 0.084721 -0.001000 -0.004717
v 0.081024 -0.001000 -0.003190
v 0.079132 -0.001000 -0.002904
v 0.080896 -0.001000 -0.002602
v 0.080741 -0.001000 -0.001698
v 0.081479 -0.001000 -0.002518
v 0.082505 -0.001000 -0.001396
v 0.082164 -0.001000 -0.002083
v 0.082902 -0.001000 -0.001954
v 0.083636 -0.001000 -0.002105
v 0.068921 -0.001000 0.003730
v 0.060474 -0.001000 0.010666
v 0.068767 -0.001000 0.004635
v 0.068612 -0.001000 0.005540
v 0.068457 -0.001000 0.006445
v 0.064620 -0.001000 0.007651
v 0.068148 -0.001000 0.008254
v 0.064311 -0.001000 0.009460
v 0.067838 -0.001000 0.010064
v 0.064001 -0.001000 0.011270
v 0.062238 -0.001000 0.010968
v 0.065765 -0.001000 0.011571
v 0.067529 -0.001000 0.011873
v 0.065610 -0.001000 0.012476
v 0.064135 -0.001000 0.011869
v 0.064820 -0.001000 0.012305
v 0.065275 -0.001000 0.012976
v 0.067374 -0.001000 0.012778
v 0.065427 -0.001000 0.013710
v 0.065297 -0.001000 0.014448
v 0.071056 -0.001000 0.012476
v 0.064862 -0.001000 0.015133
v 0.064191 -0.001000 0.015588
v 0.058926 -0.001000 0.019714
v 0.063457 -0.001000 0.015739
v 0.061309 -0.001000 0.016397
v 0.062719 -0.001000 0.015610
v 0.061464 -0.001000 0.015492
v 0.062034 -0.001000 0.015175
v 0.061579 -0.001000 0.014504
v 0.061427 -0.001000 0.013770
v 0.059855 -0.001000 0.014285
v 0.059700 -0.001000 0.015190
v 0.056328 -0.001000 0.013682
v 0.061557 -0.001000 0.013031
v 0.061992 -0.001000 0.012347
v 0.060319 -0.001000 0.011571
v 0.062083 -0.001000 0.011873
v 0.062663 -0.001000 0.011891
v 0.063397 -0.001000 0.011740
v 0.052491 -0.001000 0.014888
v 0.056018 -0.001000 0.015492
v 0.055709 -0.001000 0.017301
v 0.059545 -0.001000 0.016095
v 0.059236 -0.001000 0.017904
v 0.052182 -0.001000 0.016698
v 0.055399 -0.001000 0.019111
v 0.053636 -0.001000 0.018809
v 0.051872 -0.001000 0.018507
v 0.053481 -0.001000 0.019714
v 0.051943 -0.001000 0.020099
v 0.053326 -0.001000 0.020618
v 0.055244 -0.001000 0.020015
v 0.051717 -0.001000 0.019412
v 0.049954 -0.001000 0.019110
v 0.051233 -0.001000 0.019707
v 0.050425 -0.001000 0.019629
v 0.049709 -0.001000 0.019847
v 0.029893 -0.001000 0.024776
v 0.000491 -0.001000 0.032402
v 0.048190 -0.001000 0.018809
v 0.048345 -0.001000 0.017904
v 0.050108 -0.001000 0.018206
v -0.049080 -0.001000 0.021326
v 0.000446 -0.001000 0.029402
v -0.029125 -0.001000 0.025660
v -0.046149 -0.001000 0.018503
v -0.057588 -0.001000 0.013164
v -0.046614 -0.001000 0.021217
v -0.046459 -0.001000 0.020313
v -0.048223 -0.001000 0.020011
v -0.049986 -0.001000 0.019709
v -0.048377 -0.001000 0.020916
v -0.049677 -0.001000 0.017900
v -0.051750 -0.001000 0.019408
v -0.053204 -0.001000 0.017297
v -0.056422 -0.001000 0.014884
v -0.056731 -0.001000 0.016693
v -0.059949 -0.001000 0.014280
v -0.060104 -0.001000 0.015185
v -0.059794 -0.001000 0.013376
v -0.061558 -0.001000 0.013074
v -0.059640 -0.001000 0.012471
v -0.062857 -0.001000 0.010058
v -0.061403 -0.001000 0.012169
v -0.063167 -0.001000 0.011868
v -0.063322 -0.001000 0.012772
v -0.066694 -0.001000 0.011264
v -0.070221 -0.001000 0.010661
v -0.067004 -0.001000 0.013074
v -0.070067 -0.001000 0.009756
v -0.066385 -0.001000 0.009455
v -0.065240 -0.001000 0.013375
v -0.064410 -0.001000 0.014239
v -0.065395 -0.001000 0.014280
v -0.063739 -0.001000 0.013784
v -0.063005 -0.001000 0.013632
v -0.062267 -0.001000 0.013762
v -0.061582 -0.001000 0.014197
v -0.061127 -0.001000 0.014868
v -0.060975 -0.001000 0.015602
v -0.061104 -0.001000 0.016340
v -0.060259 -0.001000 0.016090
v -0.060413 -0.001000 0.016995
v -0.060568 -0.001000 0.017899
v -0.061540 -0.001000 0.017025
v -0.057041 -0.001000 0.018503
v -0.057350 -0.001000 0.020312
v -0.053668 -0.001000 0.020011
v -0.053514 -0.001000 0.019106
v -0.060723 -0.001000 0.018804
v -0.062486 -0.001000 0.018503
v -0.060878 -0.001000 0.019709
v -0.062641 -0.001000 0.019407
v -0.057660 -0.001000 0.022122
v -0.074031 -0.001000 0.013703
v -0.037786 -0.001000 0.033483
v -0.054133 -0.001000 0.022725
v -0.053978 -0.001000 0.021820
v -0.054287 -0.001000 0.023630
v -0.050836 -0.001000 0.024920
v -0.052524 -0.001000 0.023931
v -0.051436 -0.001000 0.024471
v -0.051850 -0.001000 0.023773
v -0.051952 -0.001000 0.022968
v -0.051755 -0.001000 0.022245
v -0.052214 -0.001000 0.022122
v -0.052059 -0.001000 0.021217
v -0.051305 -0.001000 0.021645
v -0.050608 -0.001000 0.021232
v -0.049803 -0.001000 0.021129
v -0.050141 -0.001000 0.020614
v -0.051905 -0.001000 0.020312
v -0.053823 -0.001000 0.020916
v 0.000551 -0.001000 0.036401
v 0.038784 -0.001000 0.032337
v 0.051572 -0.001000 0.023387
v 0.000596 -0.001000 0.039401
v 0.052158 -0.001000 0.022920
v 0.054780 -0.001000 0.022730
v 0.053017 -0.001000 0.022428
v 0.054935 -0.001000 0.021825
v 0.055090 -0.001000 0.020920
v 0.053171 -0.001000 0.021523
v 0.052410 -0.001000 0.020685
v 0.052629 -0.001000 0.021402
v 0.052550 -0.001000 0.022210
v -0.101068 -0.001000 -0.017506
v -0.074058 -0.001000 0.011867
v -0.077276 -0.001000 0.009454
v -0.070531 -0.001000 0.012471
v -0.067623 -0.001000 0.016693
v -0.070840 -0.001000 0.014280
v -0.067313 -0.001000 0.014883
v -0.067158 -0.001000 0.013979
v -0.067468 -0.001000 0.015788
v -0.065704 -0.001000 0.016090
v -0.064823 -0.001000 0.016396
v -0.064975 -0.001000 0.015662
v -0.065859 -0.001000 0.016994
v -0.065549 -0.001000 0.015185
v -0.064845 -0.001000 0.014924
v -0.063683 -0.001000 0.017503
v -0.064368 -0.001000 0.017067
v -0.062945 -0.001000 0.017632
v -0.062211 -0.001000 0.017481
v -0.071985 -0.001000 0.010359
v -0.073749 -0.001000 0.010058
v -0.071830 -0.001000 0.009455
v -0.072783 -0.001000 0.009451
v -0.073517 -0.001000 0.009603
v -0.074255 -0.001000 0.009473
v -0.075512 -0.001000 0.009756
v -0.074940 -0.001000 0.009038
v -0.075395 -0.001000 0.008367
v -0.077121 -0.001000 0.008550
v -0.075547 -0.001000 0.007633
v -0.080184 -0.001000 0.005232
v -0.083649 -0.001000 0.000399
v -0.084334 -0.001000 -0.000036
v -0.076502 -0.001000 0.004931
v -0.079875 -0.001000 0.003423
v -0.076657 -0.001000 0.005835
v -0.074738 -0.001000 0.005232
v -0.075417 -0.001000 0.006895
v -0.074982 -0.001000 0.006210
v -0.074311 -0.001000 0.005755
v -0.073577 -0.001000 0.005603
v -0.072820 -0.001000 0.004629
v -0.074584 -0.001000 0.004328
v -0.072839 -0.001000 0.005733
v -0.071211 -0.001000 0.005836
v -0.072154 -0.001000 0.006168
v -0.071699 -0.001000 0.006839
v -0.071547 -0.001000 0.007573
v -0.069602 -0.001000 0.007042
v -0.069448 -0.001000 0.006137
v -0.066075 -0.001000 0.007645
v -0.069757 -0.001000 0.007947
v -0.069912 -0.001000 0.008851
v -0.071677 -0.001000 0.008311
v -0.072112 -0.001000 0.008996
v -0.069293 -0.001000 0.005232
v -0.075419 -0.001000 -0.001403
v -0.081212 -0.001000 -0.007040
v -0.078946 -0.001000 -0.002006
v -0.079101 -0.001000 -0.001101
v -0.075728 -0.001000 0.000407
v -0.072511 -0.001000 0.002820
v -0.078791 -0.001000 -0.002911
v -0.078637 -0.001000 -0.003815
v -0.080400 -0.001000 -0.004117
v -0.080555 -0.001000 -0.003212
v -0.082164 -0.001000 -0.004419
v -0.082971 -0.001000 -0.003471
v -0.082233 -0.001000 -0.003341
v -0.083927 -0.001000 -0.004720
v -0.085382 -0.001000 -0.006832
v -0.088909 -0.001000 -0.007435
v -0.085691 -0.001000 -0.005022
v -0.085846 -0.001000 -0.004117
v -0.089218 -0.001000 -0.005625
v -0.084790 -0.001000 -0.000707
v -0.084941 -0.001000 -0.001441
v -0.084812 -0.001000 -0.002179
v -0.084376 -0.001000 -0.002864
v -0.084082 -0.001000 -0.003816
v -0.083705 -0.001000 -0.003319
v -0.081548 -0.001000 -0.002906
v -0.081093 -0.001000 -0.002235
v -0.080941 -0.001000 -0.001501
v -0.081071 -0.001000 -0.000763
v -0.079256 -0.001000 -0.000196
v -0.081506 -0.001000 -0.000078
v -0.081174 -0.001000 0.000407
v -0.082177 -0.001000 0.000377
v -0.081329 -0.001000 0.001311
v -0.082911 -0.001000 0.000529
v -0.079565 -0.001000 0.001613
v -0.079410 -0.001000 0.000708
v -0.076038 -0.001000 0.002216
v -0.076347 -0.001000 0.004026
v -0.071056 -0.001000 0.004931
v -0.097434 -0.001000 -0.032046
v -0.100159 -0.001000 -0.030777
v -0.100985 -0.001000 -0.032599
v -0.098278 -0.001000 -0.033859
v -0.115013 -0.001000 -0.053752
v -0.105211 -0.001000 -0.055732
v 0.071365 -0.001000 0.010667
v 0.073438 -0.001000 0.009159
v 0.071675 -0.001000 0.008857
v 0.071830 -0.001000 0.007953
v 0.071984 -0.001000 0.007048
v 0.070221 -0.001000 0.006746
v 0.073593 -0.001000 0.008254
v 0.073046 -0.001000 0.007268
v 0.073784 -0.001000 0.007397
v 0.072361 -0.001000 0.006833
v 0.071906 -0.001000 0.006162
v 0.070375 -0.001000 0.005841
v 0.071754 -0.001000 0.005428
v 0.071883 -0.001000 0.004689
v 0.070530 -0.001000 0.004937
v 0.070685 -0.001000 0.004032
v 0.070840 -0.001000 0.003127
v 0.072319 -0.001000 0.004005
v 0.072990 -0.001000 0.003549
v 0.073724 -0.001000 0.003398
v 0.072758 -0.001000 0.002524
v 0.074522 -0.001000 0.002826
v 0.074462 -0.001000 0.003527
v 0.075147 -0.001000 0.003962
v 0.074518 -0.001000 0.007246
vn 0.000000 1.000000 0.000000
vn 0.000000 1.000000 0.000000
vn 0.000000 1.000000 0.000000
vn 0.000000 1.000000 0.000000
vn 0.000000 1.000000 0.000000
vn 0.000000 1.000000 0.000000
vn 0.000000 1.000000 0.000000
vn 0.000000 1.000000 0.000000
vn 0.000000 1.000000 0.000000
vn 0.000000 1.000000 0.000000
vn 0.000000 1.000000 0.000000
vn 0.000000 1.000000 0.000000
vn 0.000000 1.000000 0.000000
vn 0.000000 1.000000 0.000000
vn 0.000000 1.000000 0.000000
vn 0.000000 1.000000 0.000000
vn 0.000000 1.000000 0.000000
vn 0.000000 1.000000 0.000000
vn 0.000000 1.000000 0.000000
vn 0.000000 1.000000 0.000000
vn 0.000000 1.000000 0.000000
vn 0.000000 1.000000 0.000000
vn 0.000000 1.000000 0.000000
vn 0.000000 1.000000 0.000000
vn 0.000000 1.000000 0.000000
vn 0.000000 1.000000 0.000000
vn 0.000000 1.000000 0.000000
vn 0.000000 1.000000 0.000000
vn 0.000000 1.000000 0.000000
vn 0.000000 1.000000 0.000000
vn 0.000000 1.000000 0.000000
vn 0.000000 1.000000 0.000000
vn 0.000000 1.000000 0.000000
vn 0.000000 1.000000 0.000000
vn 0.000000 1.000000 0.000000
vn 0.000000 1.000000 0.000000
vn 0.000000 1.000000 0.000000
vn 0.000000 1.000000 0.000000
vn 0.000000 1.000000 0.000000
vn 0.000000 1.000000 0.000000
vn 0.000000 1.000000 0.000000
vn 0.000000 1.000000 0.000000
vn 0.000000 1.000000 0.000000
vn 0.000000 1.000000 0.000000
vn 0.000000 1.000000 0.000000
vn 0.000000 1.000000 0.000000
vn 0.000000 1.000000 0.000000
vn 0.000000 1.000000 0.000000
vn 0.000000 1.000000 0.000000
vn 0.000000 1.000000 0.000000
vn 0.000000 1.000000 0.000000
vn 0.000000 1.000000 0.000000
vn 0.000000 1.000000 0.000000
vn 0.000000 1.000000 0.000000
vn 0.000000 1.000000 0.000000
vn 0.000000 1.000000 0.000000
vn 0.000000 1.000000 0.000000
vn 0.000000 1.000000 0.000000
vn 0.000000 1.000000 0.000000
vn 0.000000 1.000000 0.000000
vn 0.000000 1.000000 0.000000
vn 0.000000 1.000000 0.000000
vn 0.000000 1.000000 0.000000
vn 0.000000 1.000000 0.000000
vn 0.000000 1.000000 0.000000
vn 0.000000 1.000000 0.000000
vn 0.000000 1.000000 0.000000
vn 0.000000 1.000000 0.000000
vn 0.000000 1.000000 0.000000
vn 0.000000 1.000000 0.000000
vn 0.000000 1.000000 0.000000
vn 0.000000 1.000000 0.000000
vn 0.000000 1.000000 0.000000
vn 0.000000 1.000000 0.000000
vn 0.000000 1.000000 0.000000
vn 0.000000 1.000000 0.000000
vn 0.000000 1.000000 0.000000
vn 0.000000 1.000000 0.000000
vn 0.000000 1.000000 0.000000
vn 0.000000 1.000000 0.000000
vn 0.000000 1.000000 0.000000
vn 0.000000 1.000000 0.000000
vn 0.000000 1.000000 0.000000
vn 0.000000 1.000000 0.000000
vn 0.000000 1.000000 0.000000
vn 0.000000 1.000000 0.000000
vn 0.000000 1.000000 0.000000
vn 0.000000 1.000000 0.000000
vn 0.000000 1.000000 0.000000
vn 0.000000 1.000000 0.000000
vn 0.000000 1.000000 0.000000
vn 0.000000 1.000000 0.000000
vn 0.000000 1.000000 0.000000
vn 0.000000 1.000000 0.000000
vn 0.000000 1.000000 0.000000
vn 0.000000 1.000000 0.000000
vn 0.000000 1.000000 0.000000
vn 0.000000 1.000000 0.000000
vn 0.000000 1.000000 0.000000
vn 0.000000 1.000000 0.000000
vn 0.000000 1.000000 0.000000
vn 0.000000 1.000000 0.000000
vn 0.000000 1.000000 0.000000
vn 0.000000 1.000000 0.000000
vn 0.000000 1.000000 0.000000
vn 0.000000 1.000000 0.000000
vn 0.000000 1.000000 0.000000
vn 0.000000 1.000000 0.000000
vn 0.000000 1.000000 0.000000
vn 0.000000 1.000000 0.000000
vn 0.000000 1.000000 0.000000
vn 0.000000 1.000000 0.000000
vn 0.000000 1.000000 0.000000
vn 0.000000 1.000000 0.000000
vn 0.000000 1.000000 0.000000
vn 0.000000 1.000000 0.000000
vn 0.000000 1.000000 0.000000
vn 0.000000 1.000000 0.000000
vn 0.000000 1.000000 0.000000
vn 0.000000 1.000000 0.000000
vn 0.000000 1.000000 0.000000
vn 0.000000 1.000000 0.000000
vn 0.000000 1.000000 0.000000
vn 0.000000 1.000000 0.000000
vn 0.000000 1.000000 0.000000
vn 0.000000 1.000000 0.000000
vn 0.000000 1.000000 0.000000
vn 0.000000 1.000000 0.000000
vn 0.000000 1.000000 0.000000
vn 0.000000 1.000000 0.000000
vn 0.000000 1.000000 0.000000
vn 0.000000 1.000000 0.000000
vn 0.000000 1.000000 0.000000
vn 0.000000 1.000000 0.000000
vn 0.000000 1.000000 0.000000
vn 0.000000 1.000000 0.000000
vn 0.000000 1.000000 0.000000
vn 0.000000 1.000000 0.000000
vn 0.000000 1.000000 0.000000
vn 0.000000 1.000000 0.000000
vn 0.000000 1.000000 0.000000
vn 0.000000 1.000000 0.000000
vn -0.999886 -0.000000 0.015100
vn -0.924168 -0.000000 0.381987
vn -0.999886 -0.000000 0.015100
vn -0.924168 -0.000000 0.381987
vn -0.696427 -0.000000 0.717628
vn -0.354190 -0.000000 0.935174
vn -0.696427 -0.000000 0.717628
vn -0.354190 -0.000000 0.935174
vn 0.015000 -0.000000 0.999887
vn 0.381987 -0.000000 0.924168
vn 0.015000 -0.000000 0.999887
vn 0.381987 -0.000000 0.924168
vn 0.717628 -0.000000 0.696427
vn 0.935173 -0.000000 0.354190
vn 0.717628 -0.000000 0.696427
vn 0.935173 -0.000000 0.354190
vn 0.999889 0.000000 -0.014900
vn 0.924168 0.000000 -0.381987
vn 0.999889 0.000000 -0.014900
vn 0.924168 0.000000 -0.381987
vn 0.696427 0.000000 -0.717628
vn 0.354190 0.000000 -0.935174
vn 0.696427 0.000000 -0.717628
vn 0.354190 0.000000 -0.935174
vn -0.015000 0.000000 -0.999887
vn -0.381987 0.000000 -0.924168
vn -0.015000 0.000000 -0.999887
vn -0.381987 0.000000 -0.924168
vn -0.717628 0.000000 -0.696427
vn -0.935173 0.000000 -0.354190
vn -0.717628 0.000000 -0.696427
vn -0.935173 0.000000 -0.354190
vn -0.999889 -0.000000 0.014900
vn -0.999889 -0.000000 0.014900
vn 0.999887 0.000000 -0.015000
vn 0.924168 0.000000 -0.381987
vn 0.999887 0.000000 -0.015000
vn 0.935173 -0.000000 0.354190
vn 0.935173 -0.000000 0.354190
vn 0.717628 -0.000000 0.696427
vn 0.381987 -0.000000 0.924168
vn 0.717628 -0.000000 0.696427
vn 0.381987 -0.000000 0.924168
vn 0.015000 -0.000000 0.999887
vn 0.015000 -0.000000 0.999887
vn -0.354102 -0.000000 0.935207
vn -0.696478 -0.000000 0.717578
vn -0.354102 -0.000000 0.935207
vn -0.696478 -0.000000 0.717578
vn -0.924168 -0.000000 0.381987
vn -0.999886 -0.000000 0.015100
vn -0.924168 -0.000000 0.381987
vn -0.999886 -0.000000 0.015100
vn 0.924168 0.000000 -0.381987
vn 0.696427 0.000000 -0.717628
vn 0.354102 0.000000 -0.935207
vn 0.696427 0.000000 -0.717628
vn 0.354102 0.000000 -0.935207
vn -0.015000 0.000000 -0.999887
vn -0.381987 0.000000 -0.924168
vn -0.015000 0.000000 -0.999887
vn -0.381987 0.000000 -0.924168
vn -0.717628 0.000000 -0.696427
vn -0.935173 0.000000 -0.354190
vn -0.717628 0.000000 -0.696427
vn -0.935173 0.000000 -0.354190
vn -0.999889 -0.000000 0.014900
vn -0.999889 -0.000000 0.014900
vn -0.015000 0.000000 -0.999887
vn -0.381987 0.000000 -0.924168
vn -0.015000 0.000000 -0.999887
vn 0.354190 0.000000 -0.935174
vn 0.696427 0.000000 -0.717628
vn 0.354190 0.000000 -0.935174
vn 0.696427 0.000000 -0.717628
vn 0.924168 0.000000 -0.381987
vn 0.999889 0.000000 -0.014900
vn 0.924168 0.000000 -0.381987
vn 0.999889 0.000000 -0.014900
vn 0.935207 -0.000000 0.354103
vn 0.717628 -0.000000 0.696427
vn 0.935207 -0.000000 0.354103
vn 0.717628 -0.000000 0.696427
vn 0.381987 -0.000000 0.924168
vn 0.381987 -0.000000 0.924168
vn 0.015000 -0.000000 0.999887
vn -0.354190 -0.000000 0.935174
vn 0.015000 -0.000000 0.999887
vn -0.354190 -0.000000 0.935174
vn -0.696478 -0.000000 0.717578
vn -0.696478 -0.000000 0.717578
vn -0.924168 -0.000000 0.381987
vn -0.924168 -0.000000 0.381987
vn -0.999886 -0.000000 0.015100
vn -0.999886 -0.000000 0.015100
vn -0.381987 0.000000 -0.924168
vn -0.717628 0.000000 -0.696427
vn -0.935173 0.000000 -0.354190
vn -0.717628 0.000000 -0.696427
vn -0.935173 0.000000 -0.354190
vn -0.999889 -0.000000 0.014900
vn -0.999889 -0.000000 0.014900
vn 0.015000 -0.000000 0.999887
vn -0.354102 -0.000000 0.935207
vn 0.015000 -0.000000 0.999887
vn 0.381987 -0.000000 0.924168
vn 0.381987 -0.000000 0.924168
vn 0.717628 -0.000000 0.696427
vn 0.935207 -0.000000 0.354103
vn 0.717628 -0.000000 0.696427
vn 0.935207 -0.000000 0.354103
vn 0.999889 0.000000 -0.014900
vn 0.999889 0.000000 -0.014900
vn -0.354102 -0.000000 0.935207
vn -0.696478 -0.000000 0.717578
vn -0.696478 -0.000000 0.717578
vn -0.924168 -0.000000 0.381987
vn -0.999887 -0.000000 0.015000
vn -0.924168 -0.000000 0.381987
vn -0.999887 -0.000000 0.015000
vn -0.935173 0.000000 -0.354190
vn -0.935173 0.000000 -0.354190
vn -0.717628 0.000000 -0.696427
vn -0.381987 0.000000 -0.924168
vn -0.717628 0.000000 -0.696427
vn -0.381987 0.000000 -0.924168
vn -0.015000 0.000000 -0.999887
vn -0.015000 0.000000 -0.999887
vn 0.354102 0.000000 -0.935207
vn 0.354102 0.000000 -0.935207
vn 0.696427 0.000000 -0.717628
vn 0.696427 0.000000 -0.717628
vn 0.924168 0.000000 -0.381987
vn 0.999886 0.000000 -0.015100
vn 0.924168 0.000000 -0.381987
vn 0.999886 0.000000 -0.015100
vn 0.999889 0.000000 -0.014900
vn 0.935173 -0.000000 0.354190
vn 0.999889 0.000000 -0.014900
vn 0.935173 -0.000000 0.354190
vn 0.717628 -0.000000 0.696427
vn 0.717628 -0.000000 0.696427
vn 0.381987 -0.000000 0.924168
vn 0.381987 -0.000000 0.924168
vn 0.015000 -0.000000 0.999887
vn 0.015000 -0.000000 0.999887
vn -0.354102 -0.000000 0.935207
vn -0.354102 -0.000000 0.935207
vn -0.696427 -0.000000 0.717628
vn -0.696427 -0.000000 0.717628
vn -0.924168 -0.000000 0.381987
vn -0.924168 -0.000000 0.381987
vn -0.999889 -0.000000 0.014900
vn -0.999889 -0.000000 0.014900
vn -0.935173 0.000000 -0.354190
vn -0.935173 0.000000 -0.354190
vn -0.717628 0.000000 -0.696427
vn -0.717628 0.000000 -0.696427
vn -0.381987 0.000000 -0.924168
vn -0.381987 0.000000 -0.924168
vn -0.015000 0.000000 -0.999887
vn -0.015000 0.000000 -0.999887
vn 0.354102 0.000000 -0.935207
vn 0.354102 0.000000 -0.935207
vn 0.696427 0.000000 -0.717628
vn 0.696427 0.000000 -0.717628
vn 0.924168 0.000000 -0.381987
vn 0.924168 0.000000 -0.381987
vn 0.999886 0.000000 -0.015100
vn 0.999886 0.000000 -0.015100
vn 0.999889 0.000000 -0.014900
vn 0.935173 -0.000000 0.354190
vn 0.999889 0.000000 -0.014900
vn 0.935173 -0.000000 0.354190
vn 0.717628 -0.000000 0.696427
vn 0.717628 -0.000000 0.696427
vn 0.381987 -0.000000 0.924168
vn 0.381987 -0.000000 0.924168
vn 0.015000 -0.000000 0.999887
vn 0.015000 -0.000000 0.999887
vn -0.354190 -0.000000 0.935174
vn -0.354190 -0.000000 0.935174
vn -0.696427 -0.000000 0.717628
vn -0.696427 -0.000000 0.717628
vn -0.924168 -0.000000 0.381987
vn -0.924168 -0.000000 0.381987
vn -0.999889 -0.000000 0.014900
vn -0.999889 -0.000000 0.014900
vn -0.935173 0.000000 -0.354190
vn -0.935173 0.000000 -0.354190
vn -0.717628 0.000000 -0.696427
vn -0.717628 0.000000 -0.696427
vn -0.381987 0.000000 -0.924168
vn -0.381987 0.000000 -0.924168
vn -0.015000 0.000000 -0.999887
vn -0.015000 0.000000 -0.999887
vn 0.354190 0.000000 -0.935174
vn 0.354190 0.000000 -0.935174
vn 0.696427 0.000000 -0.717628
vn 0.696427 0.000000 -0.717628
vn 0.924168 0.000000 -0.381987
vn 0.924168 0.000000 -0.381987
vn 0.999886 0.000000 -0.015100
vn 0.999886 0.000000 -0.015100
vn 0.439115 0.000000 -0.898431
vn 0.387283 0.000000 -0.921961
vn 0.415904 0.000000 -0.909409
vn 0.439115 0.000000 -0.898431
vn 0.415821 0.000000 -0.909446
vn 0.415904 0.000100 -0.909409
vn 0.439115 0.000000 -0.898431
vn 0.387198 0.000000 -0.921996
vn 0.392277 0.000000 -0.919847
vn 0.333605 0.000000 -0.942713
vn 0.277995 0.000000 -0.960583
vn 0.392193 0.000000 -0.919883
vn 0.333605 0.000000 -0.942713
vn 0.277995 0.000000 -0.960583
vn 0.392193 0.000000 -0.919883
vn 0.221111 0.000000 -0.975249
vn 0.163102 0.000000 -0.986609
vn 0.221111 0.000000 -0.975249
vn 0.163102 0.000000 -0.986609
vn 0.104195 0.000000 -0.994557
vn 0.104195 0.000000 -0.994557
vn 0.044800 0.000000 -0.998996
vn 0.044800 0.000000 -0.998996
vn -0.015000 0.000000 -0.999887
vn -0.074700 0.000000 -0.997206
vn -0.015000 0.000000 -0.999887
vn -0.074700 0.000000 -0.997206
vn -0.133998 0.000000 -0.990982
vn -0.192596 0.000000 -0.981278
vn -0.133998 0.000000 -0.990982
vn -0.192596 0.000000 -0.981278
vn -0.250199 0.000000 -0.968195
vn -0.306611 0.000000 -0.951835
vn -0.250199 0.000000 -0.968195
vn -0.306611 0.000000 -0.951835
vn -0.361611 0.000000 -0.932329
vn -0.414684 0.000000 -0.909965
vn -0.420700 0.000000 -0.907200
vn -0.420700 0.000000 -0.907200
vn -0.361611 0.000000 -0.932329
vn -0.420700 0.000000 -0.907200
vn -0.414684 0.000000 -0.909965
vn -0.443409 -0.000100 -0.896319
vn -0.465796 0.000000 -0.884892
vn -0.465796 0.000000 -0.884892
vn -0.465796 0.000000 -0.884892
vn -0.443409 0.000000 -0.896319
vn -0.443409 0.000000 -0.896319
vn -0.465874 0.000000 -0.884851
vn -0.465915 0.000000 -0.884829
vn -0.758812 0.000000 -0.651310
vn -0.955095 0.000000 -0.296299
vn -0.758812 0.000000 -0.651310
vn -0.465874 0.000000 -0.884851
vn -0.955095 0.000000 -0.296299
vn -0.994216 -0.000000 0.107402
vn -0.884892 -0.000000 0.465796
vn -0.994216 -0.000000 0.107402
vn -0.884892 -0.000000 0.465796
vn -0.651310 -0.000000 0.758812
vn -0.296299 -0.000000 0.955095
vn -0.651310 -0.000000 0.758812
vn -0.296299 -0.000000 0.955095
vn 0.107402 -0.000000 0.994216
vn 0.465718 -0.000000 0.884933
vn 0.465718 -0.000000 0.884933
vn 0.107402 -0.000000 0.994216
vn 0.465718 -0.000000 0.884933
vn 0.465796 -0.000000 0.884892
vn 0.414684 -0.000200 0.909965
vn 0.442888 0.000100 0.896577
vn 0.465796 -0.000000 0.884892
vn 0.465796 -0.000000 0.884892
vn 0.442888 -0.000000 0.896577
vn 0.442888 -0.000100 0.896577
vn 0.419603 -0.000100 0.907708
vn 0.414684 0.000100 0.909965
vn 0.361611 -0.000000 0.932329
vn 0.419603 -0.000000 0.907708
vn 0.419603 0.000100 0.907708
vn 0.361611 -0.000000 0.932329
vn 0.306611 -0.000000 0.951835
vn 0.250199 -0.000000 0.968195
vn 0.306611 -0.000000 0.951835
vn 0.250199 -0.000000 0.968195
vn 0.192596 -0.000000 0.981278
vn 0.192596 -0.000000 0.981278
vn 0.133998 -0.000000 0.990982
vn 0.074700 -0.000000 0.997206
vn 0.133998 -0.000000 0.990982
vn 0.074700 -0.000000 0.997206
vn 0.015000 -0.000000 0.999887
vn -0.044800 -0.000000 0.998996
vn 0.015000 -0.000000 0.999887
vn -0.044800 -0.000000 0.998996
vn -0.104195 -0.000000 0.994557
vn -0.104195 -0.000000 0.994557
vn -0.163102 -0.000000 0.986609
vn -0.163102 -0.000000 0.986609
vn -0.221111 -0.000000 0.975249
vn -0.278483 -0.000000 0.960441
vn -0.221111 -0.000000 0.975249
vn -0.278483 -0.000000 0.960441
vn -0.333605 -0.000000 0.942713
vn -0.387283 0.000100 0.921961
vn -0.333484 -0.000000 0.942756
vn -0.393304 0.000100 0.919409
vn -0.393304 -0.000000 0.919409
vn -0.393304 -0.000100 0.919409
vn -0.416393 -0.000000 0.909185
vn -0.439076 -0.000000 0.898450
vn -0.416393 0.000100 0.909185
vn -0.416393 -0.000000 0.909185
vn -0.439115 -0.000000 0.898431
vn -0.387198 0.000100 0.921996
vn -0.439115 -0.000000 0.898431
vn -0.438995 -0.000000 0.898490
vn -0.438995 -0.000000 0.898490
vn -0.077599 -0.000000 0.996985
vn 0.324795 -0.000000 0.945785
vn -0.077599 -0.000000 0.996985
vn 0.324795 -0.000000 0.945785
vn -0.438995 -0.000000 0.898490
vn 0.673702 -0.000000 0.739003
vn 0.898450 -0.000000 0.439076
vn 0.673702 -0.000000 0.739003
vn 0.898450 -0.000000 0.439076
vn 0.996992 -0.000000 0.077499
vn 0.945785 0.000000 -0.324795
vn 0.996992 -0.000000 0.077499
vn 0.945785 0.000000 -0.324795
vn 0.739003 0.000000 -0.673702
vn 0.739003 0.000000 -0.673702
vn 0.439196 0.000000 -0.898391
vn 0.439196 0.000000 -0.898391
vn 0.439196 0.000000 -0.898391
vn 0.907012 0.000000 -0.421105
vn 0.882925 0.000000 -0.469514
vn 0.882925 0.000000 -0.469514
vn 0.907012 0.000000 -0.421105
vn 0.882925 0.000000 -0.469514
vn 0.856060 0.000000 -0.516876
vn 0.856060 0.000000 -0.516876
vn 0.794786 0.000000 -0.606890
vn 0.794786 0.000000 -0.606890
vn 0.722681 0.000000 -0.691182
vn 0.641403 0.000000 -0.767204
vn 0.722681 0.000000 -0.691182
vn 0.641403 0.000000 -0.767204
vn 0.551905 0.000000 -0.833907
vn 0.551905 0.000000 -0.833907
vn 0.454997 0.000000 -0.890493
vn 0.454997 0.000000 -0.890493
vn 0.353807 0.000000 -0.935318
vn 0.353807 0.000000 -0.935318
vn 0.248907 0.000000 -0.968527
vn 0.248907 0.000000 -0.968527
vn 0.142401 0.000000 -0.989809
vn 0.142401 0.000000 -0.989809
vn 0.036701 0.000000 -0.999326
vn 0.036701 0.000000 -0.999326
vn -0.070003 0.000000 -0.997547
vn -0.070003 0.000000 -0.997547
vn -0.177196 0.000000 -0.984176
vn -0.177196 0.000000 -0.984176
vn -0.284007 0.000000 -0.958822
vn -0.284007 0.000000 -0.958822
vn -0.388517 0.000000 -0.921441
vn -0.388517 0.000000 -0.921441
vn -0.488679 0.000000 -0.872463
vn -0.488679 0.000000 -0.872463
vn -0.582921 0.000000 -0.812529
vn -0.582921 0.000000 -0.812529
vn -0.670135 0.000000 -0.742239
vn -0.670135 0.000000 -0.742239
vn -0.747718 0.000000 -0.664016
vn -0.747718 0.000000 -0.664016
vn -0.815977 0.000000 -0.578084
vn -0.815608 0.000000 -0.578605
vn -0.873075 0.000000 -0.487586
vn -0.873075 0.000000 -0.487586
vn -0.897407 0.000000 -0.441204
vn -0.897407 0.000000 -0.441204
vn -0.919161 0.000000 -0.393883
vn -0.919161 0.000000 -0.393883
vn -0.897407 0.000000 -0.441204
vn -0.873075 0.000000 -0.487586
vn 0.856060 0.000000 -0.516876
vn 0.385091 0.000000 -0.922879
vn 0.385091 0.000000 -0.922879
vn 0.385091 0.000000 -0.922879
vn 0.385091 0.000000 -0.922879
vn 0.385091 0.000000 -0.922879
vn -0.919285 0.000000 -0.393593
vn -0.926344 0.000000 -0.376677
vn -0.919285 0.000000 -0.393593
vn -0.919285 0.000000 -0.393593
vn -0.926330 0.000000 -0.376712
vn -0.926330 0.000000 -0.376712
vn -0.385091 -0.000000 0.922879
vn -0.385091 -0.000000 0.922879
vn -0.385091 -0.000000 0.922879
vn -0.385091 -0.000000 0.922879
vn -0.385091 -0.000000 0.922879
vn -0.926617 0.000000 -0.376007
vn -0.945548 0.000000 -0.325482
vn -0.945548 0.000000 -0.325482
vn -0.926617 0.000000 -0.376007
vn -0.945548 0.000000 -0.325482
vn -0.961761 0.000000 -0.273889
vn -0.961761 0.000000 -0.273889
vn -0.975162 0.000000 -0.221491
vn -0.985685 0.000000 -0.168597
vn -0.975162 0.000000 -0.221491
vn -0.985685 0.000000 -0.168597
vn -0.975162 0.000000 -0.221491
vn -0.961761 0.000000 -0.273889
vn 0.168597 0.000000 -0.985685
vn 0.168597 0.000000 -0.985685
vn 0.168597 0.000000 -0.985685
vn 0.168597 0.000000 -0.985685
vn 0.168597 0.000000 -0.985685
vn 0.168597 0.000000 -0.985685
vn 0.985685 -0.000000 0.168597
vn 0.975883 -0.000000 0.218296
vn 0.975972 -0.000000 0.217894
vn 0.985685 -0.000000 0.168597
vn 0.975972 -0.000000 0.217894
vn 0.963476 -0.000000 0.267793
vn 0.963476 -0.000000 0.267793
vn 0.931710 -0.000000 0.363204
vn 0.931514 -0.000000 0.363705
vn 0.889412 -0.000000 0.457106
vn 0.889412 -0.000000 0.457106
vn 0.836606 -0.000000 0.547804
vn 0.836606 -0.000000 0.547804
vn 0.774536 -0.000000 0.632530
vn 0.774536 -0.000000 0.632530
vn 0.703648 -0.000000 0.710549
vn 0.624683 -0.000000 0.780879
vn 0.703648 -0.000000 0.710549
vn 0.624683 -0.000000 0.780879
vn 0.538886 -0.000000 0.842379
vn 0.538886 -0.000000 0.842379
vn 0.447813 -0.000000 0.894127
vn 0.447813 -0.000000 0.894127
vn 0.352679 -0.000000 0.935744
vn 0.352679 -0.000000 0.935744
vn 0.255807 -0.000000 0.966728
vn 0.255807 -0.000000 0.966728
vn 0.158299 -0.000000 0.987391
vn 0.158299 -0.000000 0.987391
vn 0.057298 -0.000000 0.998357
vn 0.057298 -0.000000 0.998357
vn -0.036102 -0.000000 0.999348
vn -0.036102 -0.000000 0.999348
vn -0.136505 -0.000000 0.990639
vn -0.136505 -0.000000 0.990639
vn -0.236295 -0.000000 0.971681
vn -0.236295 -0.000000 0.971681
vn -0.335810 -0.000000 0.941930
vn -0.335810 -0.000000 0.941930
vn -0.432998 -0.000000 0.901395
vn -0.432998 -0.000000 0.901395
vn -0.524929 -0.000000 0.851146
vn -0.524929 -0.000000 0.851146
vn -0.612201 -0.000000 0.790702
vn -0.612201 -0.000000 0.790702
vn -0.692203 -0.000000 0.721703
vn -0.692203 -0.000000 0.721703
vn -0.764553 -0.000000 0.644561
vn -0.764553 -0.000000 0.644561
vn -0.827406 -0.000000 0.561604
vn -0.827406 -0.000000 0.561604
vn -0.880583 -0.000000 0.473891
vn -0.880583 -0.000000 0.473891
vn -0.923585 -0.000000 0.383394
vn -0.923585 -0.000000 0.383394
vn -0.956905 -0.000000 0.290402
vn -0.956905 -0.000000 0.290402
vn -0.969700 -0.000000 0.244300
vn -0.980202 -0.000000 0.198000
vn -0.969700 -0.000000 0.244300
vn -0.969700 -0.000000 0.244300
vn -0.980202 -0.000000 0.198000
vn -0.956905 -0.000000 0.290402
vn 0.963476 -0.000000 0.267793
vn -0.198000 0.000000 -0.980202
vn -0.198000 0.000000 -0.980202
vn -0.198000 0.000000 -0.980202
vn -0.198000 0.000000 -0.980202
vn -0.198000 0.000000 -0.980202
vn -0.198000 0.000000 -0.980202
vn 0.980202 0.000000 -0.198000
vn 0.968140 0.000000 -0.250410
vn 0.968140 0.000000 -0.250410
vn 0.980202 0.000000 -0.198000
vn 0.968140 0.000000 -0.250410
vn 0.953250 0.000000 -0.302184
vn 0.953250 0.000000 -0.302184
vn 0.935620 0.000000 -0.353008
vn 0.915290 0.000000 -0.402796
vn 0.935620 0.000000 -0.353008
vn 0.915290 0.000000 -0.402796
vn 0.935620 0.000000 -0.353008
vn 0.953250 0.000000 -0.302184
vn 0.422119 -0.000000 0.906541
vn 0.422119 -0.000000 0.906541
vn 0.422119 -0.000000 0.906541
vn 0.422119 -0.000000 0.906541
vn 0.422119 -0.000000 0.906541
vn 0.914532 0.000000 -0.404514
vn 0.906973 0.000000 -0.421188
vn 0.914532 0.000000 -0.404514
vn 0.914532 0.000000 -0.404514
vn 0.906973 0.000000 -0.421188
vn 0.906973 0.000000 -0.421188
vn -0.422119 0.000000 -0.906541
vn -0.422119 0.000000 -0.906541
vn -0.422119 0.000000 -0.906541
vn -0.422119 0.000000 -0.906541
vn -0.422119 0.000000 -0.906541
vn 0.000000 -1.000000 -0.000000
vn 0.000000 -1.000000 -0.000000
vn 0.000000 -1.000000 -0.000000
vn 0.000000 -1.000000 -0.000000
vn 0.000000 -1.000000 -0.000000
vn 0.000000 -1.000000 -0.000000
vn 0.000000 -1.000000 -0.000000
vn 0.000000 -1.000000 -0.000000
vn 0.000000 -1.000000 -0.000000
vn 0.000000 -1.000000 -0.000000
vn 0.000000 -1.000000 -0.000000
vn 0.000000 -1.000000 -0.000000
vn 0.000000 -1.000000 -0.000000
vn 0.000000 -1.000000 -0.000000
vn 0.000000 -1.000000 -0.000000
vn 0.000000 -1.000000 -0.000000
vn 0.000000 -1.000000 -0.000000
vn 0.000000 -1.000000 -0.000000
vn 0.000000 -1.000000 -0.000000
vn 0.000000 -1.000000 -0.000000
vn 0.000000 -1.000000 -0.000000
vn 0.000000 -1.000000 -0.000000
vn 0.000000 -1.000000 -0.000000
vn 0.000000 -1.000000 -0.000000
vn 0.000000 -1.000000 -0.000000
vn 0.000000 -1.000000 -0.000000
vn 0.000000 -1.000000 -0.000000
vn 0.000000 -1.000000 -0.000000
vn 0.000000 -1.000000 -0.000000
vn 0.000000 -1.000000 -0.000000
vn 0.000000 -1.000000 -0.000000
vn 0.000000 -1.000000 -0.000000
vn 0.000000 -1.000000 -0.000000
vn 0.000000 -1.000000 -0.000000
vn 0.000000 -1.000000 -0.000000
vn 0.000000 -1.000000 -0.000000
vn 0.000000 -1.000000 -0.000000
vn 0.000000 -1.000000 -0.000000
vn 0.000000 -1.000000 -0.000000
vn 0.000000 -1.000000 -0.000000
vn 0.000000 -1.000000 -0.000000
vn 0.000000 -1.000000 -0.000000
vn 0.000000 -1.000000 -0.000000
vn 0.000000 -1.000000 -0.000000
vn 0.000000 -1.000000 -0.000000
vn 0.000000 -1.000000 -0.000000
vn 0.000000 -1.000000 -0.000000
vn 0.000000 -1.000000 -0.000000
vn 0.000000 -1.000000 -0.000000
vn 0.000000 -1.000000 -0.000000
vn 0.000000 -1.000000 -0.000000
vn 0.000000 -1.000000 -0.000000
vn 0.000000 -1.000000 -0.000000
vn 0.000000 -1.000000 -0.000000
vn 0.000000 -1.000000 -0.000000
vn 0.000000 -1.000000 -0.000000
vn 0.000000 -1.000000 -0.000000
vn 0.000000 -1.000000 -0.000000
vn 0.000000 -1.000000 -0.000000
vn 0.000000 -1.000000 -0.000000
vn 0.000000 -1.000000 -0.000000
vn 0.000000 -1.000000 -0.000000
vn 0.000000 -1.000000 -0.000000
vn 0.000000 -1.000000 -0.000000
vn 0.000000 -1.000000 -0.000000
vn 0.000000 -1.000000 -0.000000
vn 0.000000 -1.000000 -0.000000
vn 0.000000 -1.000000 -0.000000
vn 0.000000 -1.000000 -0.000000
vn 0.000000 -1.000000 -0.000000
vn 0.000000 -1.000000 -0.000000
vn 0.000000 -1.000000 -0.000000
vn 0.000000 -1.000000 -0.000000
vn 0.000000 -1.000000 -0.000000
vn 0.000000 -1.000000 -0.000000
vn 0.000000 -1.000000 -0.000000
vn 0.000000 -1.000000 -0.000000
vn 0.000000 -1.000000 -0.000000
vn 0.000000 -1.000000 -0.000000
vn 0.000000 -1.000000 -0.000000
vn 0.000000 -1.000000 -0.000000
vn 0.000000 -1.000000 -0.000000
vn 0.000000 -1.000000 -0.000000
vn 0.000000 -1.000000 -0.000000
vn 0.000000 -1.000000 -0.000000
vn 0.000000 -1.000000 -0.000000
vn 0.000000 -1.000000 -0.000000
vn 0.000000 -1.000000 -0.000000
vn 0.000000 -1.000000 -0.000000
vn 0.000000 -1.000000 -0.000000
vn 0.000000 -1.000000 -0.000000
vn 0.000000 -1.000000 -0.000000
vn 0.000000 -1.000000 -0.000000
vn 0.000000 -1.000000 -0.000000
vn 0.000000 -1.000000 -0.000000
vn 0.000000 -1.000000 -0.000000
vn 0.000000 -1.000000 -0.000000
vn 0.000000 -1.000000 -0.000000
vn 0.000000 -1.000000 -0.000000
vn 0.000000 -1.000000 -0.000000
vn 0.000000 -1.000000 -0.000000
vn 0.000000 -1.000000 -0.000000
vn 0.000000 -1.000000 -0.000000
vn 0.000000 -1.000000 -0.000000
vn 0.000000 -1.000000 -0.000000
vn 0.000000 -1.000000 -0.000000
vn 0.000000 -1.000000 -0.000000
vn 0.000000 -1.000000 -0.000000
vn 0.000000 -1.000000 -0.000000
vn 0.000000 -1.000000 -0.000000
vn 0.000000 -1.000000 -0.000000
vn 0.000000 -1.000000 -0.000000
vn 0.000000 -1.000000 -0.000000
vn 0.000000 -1.000000 -0.000000
vn 0.000000 -1.000000 -0.000000
vn 0.000000 -1.000000 -0.000000
vn 0.000000 -1.000000 -0.000000
vn 0.000000 -1.000000 -0.000000
vn 0.000000 -1.000000 -0.000000
vn 0.000000 -1.000000 -0.000000
vn 0.000000 -1.000000 -0.000000
vn 0.000000 -1.000000 -0.000000
vn 0.000000 -1.000000 -0.000000
vn 0.000000 -1.000000 -0.000000
vn 0.000000 -1.000000 -0.000000
vn 0.000000 -1.000000 -0.000000
vn 0.000000 -1.000000 -0.000000
vn 0.000000 -1.000000 -0.000000
vn 0.000000 -1.000000 -0.000000
vn 0.000000 -1.000000 -0.000000
vn 0.000000 -1.000000 -0.000000
vn 0.000000 -1.000000 -0.000000
vn 0.000000 -1.000000 -0.000000
vn 0.000000 -1.000000 -0.000000
vn 0.000000 -1.000000 -0.000000
vn 0.000000 -1.000000 -0.000000
vn 0.000000 -1.000000 -0.000000
vn 0.000000 -1.000000 -0.000000
vn 0.000000 -1.000000 -0.000000
vn 0.000000 -1.000000 -0.000000
vn 0.000000 -1.000000 -0.000000
vn 0.000000 -1.000000 -0.000000
vn 0.000000 -1.000000 -0.000000
vn 0.000000 -1.000000 -0.000000
vn 0.000000 -1.000000 -0.000000
vn 0.000000 -1.000000 -0.000000
vn 0.000000 -1.000000 -0.000000
vn 0.000000 -1.000000 -0.000000
vn 0.000000 -1.000000 -0.000000
vn 0.000000 -1.000000 -0.000000
vn 0.000000 -1.000000 -0.000000
vn 0.000000 -1.000000 -0.000000
vn 0.000000 -1.000000 -0.000000
vn 0.000000 -1.000000 -0.000000
vn 0.000000 -1.000000 -0.000000
vn 0.000000 -1.000000 -0.000000
vn 0.000000 -1.000000 -0.000000
vn 0.000000 -1.000000 -0.000000
vn 0.000000 -1.000000 -0.000000
vn 0.000000 -1.000000 -0.000000
vn 0.000000 -1.000000 -0.000000
vn 0.000000 -1.000000 -0.000000
vn 0.000000 -1.000000 -0.000000
vn 0.000000 -1.000000 -0.000000
vn 0.000000 -1.000000 -0.000000
vn 0.000000 -1.000000 -0.000000
vn 0.000000 -1.000000 -0.000000
vn 0.000000 -1.000000 -0.000000
vn 0.000000 -1.000000 -0.000000
vn 0.000000 -1.000000 -0.000000
vn 0.000000 -1.000000 -0.000000
vn 0.000000 -1.000000 -0.000000
vn 0.000000 -1.000000 -0.000000
vn 0.000000 -1.000000 -0.000000
vn 0.000000 -1.000000 -0.000000
vn 0.000000 -1.000000 -0.000000
vn 0.000000 -1.000000 -0.000000
vn 0.000000 -1.000000 -0.000000
vn 0.000000 -1.000000 -0.000000
vn 0.000000 -1.000000 -0.000000
vn 0.000000 -1.000000 -0.000000
vn 0.000000 -1.000000 -0.000000
vn 0.000000 -1.000000 -0.000000
vn 0.000000 -1.000000 -0.000000
vn 0.000000 -1.000000 -0.000000
vn 0.000000 -1.000000 -0.000000
vn 0.000000 -1.000000 -0.000000
vn 0.000000 -1.000000 -0.000000
vn 0.000000 -1.000000 -0.000000
vn 0.000000 -1.000000 -0.000000
vn 0.000000 -1.000000 -0.000000
vn 0.000000 -1.000000 -0.000000
vn 0.000000 -1.000000 -0.000000
vn 0.000000 -1.000000 -0.000000
vn 0.000000 -1.000000 -0.000000
vn 0.000000 -1.000000 -0.000000
vn 0.000000 -1.000000 -0.000000
vn 0.000000 -1.000000 -0.000000
vn 0.000000 -1.000000 -0.000000
vn 0.000000 -1.000000 -0.000000
vn 0.000000 -1.000000 -0.000000
vn 0.000000 -1.000000 -0.000000
vn 0.000000 -1.000000 -0.000000
vn 0.000000 -1.000000 -0.000000
vn 0.000000 -1.000000 -0.000000
vn 0.000000 -1.000000 -0.000000
vn 0.000000 -1.000000 -0.000000
vn 0.000000 -1.000000 -0.000000
vn 0.000000 -1.000000 -0.000000
vn 0.000000 -1.000000 -0.000000
vn 0.000000 -1.000000 -0.000000
vn 0.000000 -1.000000 -0.000000
vn 0.000000 -1.000000 -0.000000
vn 0.000000 -1.000000 -0.000000
vn 0.000000 -1.000000 -0.000000
vn 0.000000 -1.000000 -0.000000
vn 0.000000 -1.000000 -0.000000
vn 0.000000 -1.000000 -0.000000
vn 0.000000 -1.000000 -0.000000
vn 0.000000 -1.000000 -0.000000
vn 0.000000 -1.000000 -0.000000
vn 0.000000 -1.000000 -0.000000
vn 0.000000 -1.000000 -0.000000
vn 0.000000 -1.000000 -0.000000
vn 0.000000 -1.000000 -0.000000
vn 0.000000 -1.000000 -0.000000
vn 0.000000 -1.000000 -0.000000
vn 0.000000 -1.000000 -0.000000
vn 0.000000 -1.000000 -0.000000
vn 0.000000 -1.000000 -0.000000
vn 0.000000 -1.000000 -0.000000
vn 0.000000 -1.000000 -0.000000
vn 0.000000 -1.000000 -0.000000
vn 0.000000 -1.000000 -0.000000
vn 0.000000 -1.000000 -0.000000
vn 0.000000 -1.000000 -0.000000
vn 0.000000 -1.000000 -0.000000
vn 0.000000 -1.000000 -0.000000
vn 0.000000 -1.000000 -0.000000
vn 0.000000 -1.000000 -0.000000
vn 0.000000 -1.000000 -0.000000
vn 0.000000 -1.000000 -0.000000
vn 0.000000 -1.000000 -0.000000
vn 0.000000 -1.000000 -0.000000
vn 0.000000 -1.000000 -0.000000
vn 0.000000 -1.000000 -0.000000
vn 0.000000 -1.000000 -0.000000
vn 0.000000 -1.000000 -0.000000
vn 0.000000 -1.000000 -0.000000
vn 0.000000 -1.000000 -0.000000
vn 0.000000 -1.000000 -0.000000
vn 0.000000 -1.000000 -0.000000
vn 0.000000 -1.000000 -0.000000
vn 0.000000 -1.000000 -0.000000
vn 0.000000 -1.000000 -0.000000
vn 0.000000 -1.000000 -0.000000
vn 0.000000 -1.000000 -0.000000
vn 0.000000 -1.000000 -0.000000
vn 0.000000 -1.000000 -0.000000
vn 0.000000 -1.000000 -0.000000
vn 0.000000 -1.000000 -0.000000
vn 0.000000 -1.000000 -0.000000
vn 0.000000 -1.000000 -0.000000
vn 0.000000 -1.000000 -0.000000
vn 0.000000 -1.000000 -0.000000
vn 0.000000 -1.000000 -0.000000
vn 0.000000 -1.000000 -0.000000
vn 0.000000 -1.000000 -0.000000
vn 0.000000 -1.000000 -0.000000
vn 0.000000 -1.000000 -0.000000
vn 0.000000 -1.000000 -0.000000
vn 0.000000 -1.000000 -0.000000
vn 0.000000 -1.000000 -0.000000
vn 0.000000 -1.000000 -0.000000
vn 0.000000 -1.000000 -0.000000
vn 0.000000 -1.000000 -0.000000
vn 0.000000 -1.000000 -0.000000
vn 0.000000 -1.000000 -0.000000
vn 0.000000 -1.000000 -0.000000
vn 0.000000 -1.000000 -0.000000
vn 0.000000 -1.000000 -0.000000
vn 0.000000 -1.000000 -0.000000
vn 0.000000 -1.000000 -0.000000
vn 0.000000 -1.000000 -0.000000
vn 0.000000 -1.000000 -0.000000
vn 0.000000 -1.000000 -0.000000
vn 0.000000 -1.000000 -0.000000
vn 0.000000 -1.000000 -0.000000
vn 0.000000 -1.000000 -0.000000
vn 0.000000 -1.000000 -0.000000
vn 0.000000 -1.000000 -0.000000
vn 0.000000 -1.000000 -0.000000
vn 0.000000 -1.000000 -0.000000
vn 0.000000 -1.000000 -0.000000
vn 0.000000 -1.000000 -0.000000
vn 0.000000 -1.000000 -0.000000
vn 0.000000 -1.000000 -0.000000
vn 0.000000 -1.000000 -0.000000
vn 0.000000 -1.000000 -0.000000
vn 0.000000 -1.000000 -0.000000
vn 0.000000 -1.000000 -0.000000
vn 0.000000 -1.000000 -0.000000
vn 0.000000 -1.000000 -0.000000
vn 0.000000 -1.000000 -0.000000
vn 0.000000 -1.000000 -0.000000
vn 0.000000 -1.000000 -0.000000
vn 0.000000 -1.000000 -0.000000
vn 0.000000 -1.000000 -0.000000
vn 0.000000 -1.000000 -0.000000
vn 0.000000 -1.000000 -0.000000
vn 0.000000 -1.000000 -0.000000
vn 0.000000 -1.000000 -0.000000
vn 0.000000 -1.000000 -0.000000
vn 0.000000 -1.000000 -0.000000
vn 0.000000 -1.000000 -0.000000
vn 0.000000 -1.000000 -0.000000
vn 0.000000 -1.000000 -0.000000
vn 0.000000 -1.000000 -0.000000
vn 0.000000 -1.000000 -0.000000
vn 0.000000 -1.000000 -0.000000
vn 0.000000 -1.000000 -0.000000
vn 0.000000 -1.000000 -0.000000
vn 0.000000 -1.000000 -0.000000
vn 0.000000 -1.000000 -0.000000
vn 0.000000 -1.000000 -0.000000
vn 0.000000 -1.000000 -0.000000
vn 0.000000 -1.000000 -0.000000
vn 0.000000 -1.000000 -0.000000
vn 0.000000 -1.000000 -0.000000
vn 0.000000 -1.000000 -0.000000
vn 0.000000 -1.000000 -0.000000
vn 0.000000 -1.000000 -0.000000
vn 0.000000 -1.000000 -0.000000
vn 0.000000 -1.000000 -0.000000
vn 0.000000 -1.000000 -0.000000
vn 0.000000 -1.000000 -0.000000
vn 0.000000 -1.000000 -0.000000
vn 0.000000 -1.000000 -0.000000
f 2//2 3//3 1//1
f 1//1 3//3 4//4
f 5//5 7//7 4//4
f 5//5 4//4 6//6
f 6//6 4//4 3//3
f 4//4 7//7 9//9
f 10//10 4//4 8//8
f 8//8 4//4 9//9
f 10//10 11//11 4//4
f 12//12 4//4 11//11
f 12//12 13//13 16//16
f 12//12 14//14 13//13
f 12//12 11//11 14//14
f 12//12 15//15 17//17
f 12//12 16//16 15//15
f 12//12 17//17 19//19
f 12//12 18//18 22//22
f 12//12 19//19 18//18
f 20//20 12//12 21//21
f 12//12 22//22 21//21
f 22//22 18//18 23//23
f 26//26 23//23 24//24
f 23//23 25//25 24//24
f 25//25 23//23 18//18
f 26//26 24//24 28//28
f 26//26 28//28 27//27
f 27//27 28//28 29//29
f 32//32 29//29 30//30
f 27//27 29//29 31//31
f 31//31 29//29 32//32
f 32//32 30//30 33//33
f 33//33 30//30 34//34
f 34//34 30//30 37//37
f 37//37 35//35 34//34
f 35//35 36//36 34//34
f 40//40 38//38 37//37
f 38//38 39//39 37//37
f 37//37 39//39 3//3
f 40//40 37//37 44//44
f 37//37 43//43 41//41
f 41//41 42//42 37//37
f 37//37 42//42 44//44
f 47//47 43//43 37//37
f 37//37 48//48 45//45
f 45//45 46//46 37//37
f 47//47 37//37 46//46
f 49//49 48//48 37//37
f 37//37 30//30 49//49
f 43//43 47//47 50//50
f 50//50 16//16 51//51
f 43//43 50//50 51//51
f 16//16 52//52 51//51
f 16//16 13//13 52//52
f 53//53 38//38 40//40
f 54//54 38//38 53//53
f 54//54 55//55 38//38
f 56//56 55//55 54//54
f 56//56 57//57 55//55
f 57//57 58//58 59//59
f 59//59 55//55 57//57
f 58//58 60//60 59//59
f 60//60 58//58 61//61
f 58//58 10//10 61//61
f 62//62 61//61 10//10
f 10//10 8//8 62//62
f 3//3 39//39 63//63
f 3//3 63//63 64//64
f 3//3 64//64 65//65
f 3//3 65//65 66//66
f 6//6 3//3 66//66
f 67//67 36//36 68//68
f 67//67 69//69 36//36
f 35//35 68//68 36//36
f 72//72 69//69 67//67
f 70//70 69//69 72//72
f 70//70 71//71 69//69
f 76//76 72//72 73//73
f 72//72 74//74 78//78
f 72//72 75//75 74//74
f 76//76 75//75 72//72
f 77//77 80//80 72//72
f 72//72 78//78 77//77
f 81//81 72//72 79//79
f 72//72 80//80 79//79
f 82//82 72//72 81//81
f 72//72 82//82 83//83
f 85//85 72//72 83//83
f 72//72 84//84 86//86
f 72//72 85//85 84//84
f 72//72 86//86 70//70
f 81//81 79//79 87//87
f 81//81 87//87 88//88
f 88//88 87//87 92//92
f 91//91 89//89 88//88
f 88//88 90//90 91//91
f 88//88 92//92 90//90
f 91//91 93//93 99//99
f 91//91 96//96 94//94
f 94//94 95//95 91//91
f 91//91 90//90 96//96
f 97//97 103//103 91//91
f 91//91 98//98 97//97
f 91//91 99//99 98//98
f 91//91 102//102 100//100
f 100//100 101//101 91//91
f 89//89 91//91 101//101
f 91//91 103//103 102//102
f 103//103 97//97 104//104
f 106//106 105//105 104//104
f 104//104 97//97 106//106
f 105//105 106//106 107//107
f 107//107 108//108 105//105
f 107//107 109//109 108//108
f 108//108 109//109 110//110
f 110//110 71//71 70//70
f 108//108 110//110 70//70
f 111//111 99//99 93//93
f 21//21 111//111 20//20
f 112//112 20//20 111//111
f 93//93 112//112 111//111
f 113//113 95//95 94//94
f 113//113 114//114 95//95
f 95//95 114//114 115//115
f 115//115 116//116 95//95
f 116//116 118//118 95//95
f 117//117 119//119 95//95
f 95//95 118//118 117//117
f 95//95 73//73 120//120
f 73//73 95//95 119//119
f 120//120 73//73 121//121
f 73//73 122//122 121//121
f 123//123 122//122 124//124
f 124//124 122//122 73//73
f 124//124 125//125 123//123
f 73//73 119//119 126//126
f 127//127 73//73 126//126
f 73//73 127//127 128//128
f 73//73 128//128 76//76
f 114//114 113//113 129//129
f 129//129 113//113 131//131
f 130//130 129//129 131//131
f 131//131 132//132 130//130
f 131//131 133//133 132//132
f 135//135 132//132 133//133
f 135//135 133//133 134//134
f 134//134 136//136 135//135
f 136//136 134//134 137//137
f 137//137 138//138 136//136
f 136//136 138//138 75//75
f 138//138 74//74 75//75
f 3//3 140//140 139//139
f 2//2 140//140 3//3
f 141//141 139//139 140//140
f 142//142 139//139 141//141
f 144//144 146//146 145//145
f 144//144 145//145 143//143
f 149//149 147//147 146//146
f 149//149 146//146 144//144
f 150//150 148//148 147//147
f 150//150 147//147 149//149
f 151//151 153//153 148//148
f 151//151 148//148 150//150
f 152//152 154//154 153//153
f 152//152 153//153 151//151
f 157//157 155//155 154//154
f 157//157 154//154 152//152
f 158//158 156//156 155//155
f 158//158 155//155 157//157
f 159//159 161//161 156//156
f 159//159 156//156 158//158
f 160//160 162//162 161//161
f 160//160 161//161 159//159
f 165//165 163//163 162//162
f 165//165 162//162 160//160
f 166//166 164//164 163//163
f 166//166 163//163 165//165
f 167//167 169//169 164//164
f 167//167 164//164 166//166
f 168//168 170//170 169//169
f 168//168 169//169 167//167
f 173//173 171//171 170//170
f 173//173 170//170 168//168
f 174//174 172//172 171//171
f 174//174 171//171 173//173
f 175//175 176//176 172//172
f 175//175 172//172 174//174
f 178//178 196//196 179//179
f 178//178 179//179 177//177
f 177//177 179//179 181//181
f 177//177 181//181 180//180
f 180//180 181//181 184//184
f 180//180 184//184 182//182
f 182//182 184//184 185//185
f 182//182 185//185 183//183
f 183//183 185//185 186//186
f 183//183 186//186 187//187
f 187//187 186//186 188//188
f 187//187 188//188 190//190
f 190//190 188//188 189//189
f 190//190 189//189 191//191
f 191//191 189//189 194//194
f 191//191 194//194 192//192
f 192//192 194//194 195//195
f 192//192 195//195 193//193
f 199//199 197//197 196//196
f 199//199 196//196 178//178
f 200//200 198//198 197//197
f 200//200 197//197 199//199
f 201//201 203//203 198//198
f 201//201 198//198 200//200
f 202//202 204//204 203//203
f 202//202 203//203 201//201
f 207//207 205//205 204//204
f 207//207 204//204 202//202
f 208//208 206//206 205//205
f 208//208 205//205 207//207
f 209//209 210//210 206//206
f 209//209 206//206 208//208
f 212//212 238//238 213//213
f 212//212 213//213 211//211
f 211//211 213//213 216//216
f 211//211 216//216 214//214
f 214//214 216//216 217//217
f 214//214 217//217 215//215
f 215//215 217//217 218//218
f 215//215 218//218 220//220
f 220//220 218//218 219//219
f 220//220 219//219 221//221
f 221//221 219//219 224//224
f 221//221 224//224 222//222
f 222//222 224//224 225//225
f 222//222 225//225 223//223
f 223//223 225//225 226//226
f 223//223 226//226 227//227
f 227//227 226//226 228//228
f 227//227 228//228 230//230
f 230//230 228//228 229//229
f 230//230 229//229 231//231
f 231//231 229//229 233//233
f 231//231 233//233 232//232
f 232//232 233//233 235//235
f 232//232 235//235 234//234
f 234//234 235//235 237//237
f 234//234 237//237 236//236
f 241//241 239//239 238//238
f 241//241 238//238 212//212
f 242//242 240//240 239//239
f 242//242 239//239 241//241
f 243//243 244//244 240//240
f 243//243 240//240 242//242
f 246//246 245//245 247//247
f 246//246 247//247 256//256
f 245//245 248//248 249//249
f 245//245 249//249 247//247
f 248//248 250//250 252//252
f 248//248 252//252 249//249
f 250//250 251//251 253//253
f 250//250 253//253 252//252
f 251//251 255//255 254//254
f 251//251 254//254 253//253
f 258//258 246//246 256//256
f 258//258 256//256 257//257
f 261//261 258//258 257//257
f 261//261 257//257 259//259
f 262//262 261//261 259//259
f 262//262 259//259 260//260
f 263//263 262//262 260//260
f 263//263 260//260 264//264
f 265//265 263//263 264//264
f 265//265 264//264 267//267
f 266//266 265//265 267//267
f 266//266 267//267 268//268
f 270//270 266//266 268//268
f 270//270 268//268 269//269
f 272//272 270//270 269//269
f 272//272 269//269 271//271
f 274//274 272//272 271//271
f 274//274 271//271 273//273
f 277//277 274//274 273//273
f 277//277 273//273 275//275
f 278//278 277//277 275//275
f 278//278 275//275 276//276
f 280//280 279//279 281//281
f 280//280 281//281 282//282
f 284//284 280//280 282//282
f 284//284 282//282 283//283
f 286//286 284//284 283//283
f 286//286 283//283 285//285
f 288//288 286//286 285//285
f 288//288 285//285 287//287
f 290//290 288//288 287//287
f 290//290 287//287 289//289
f 292//292 290//290 289//289
f 292//292 289//289 291//291
f 294//294 292//292 291//291
f 294//294 291//291 293//293
f 296//296 294//294 293//293
f 296//296 293//293 295//295
f 298//298 296//296 295//295
f 298//298 295//295 297//297
f 300//300 298//298 297//297
f 300//300 297//297 299//299
f 302//302 300//300 299//299
f 302//302 299//299 301//301
f 304//304 302//302 301//301
f 304//304 301//301 303//303
f 306//306 304//304 303//303
f 306//306 303//303 305//305
f 308//308 306//306 305//305
f 308//308 305//305 307//307
f 310//310 308//308 307//307
f 310//310 307//307 309//309
f 312//312 310//310 309//309
f 312//312 309//309 311//311
f 314//314 313//313 315//315
f 314//314 315//315 316//316
f 318//318 314//314 316//316
f 318//318 316//316 317//317
f 320//320 318//318 317//317
f 320//320 317//317 319//319
f 322//322 320//320 319//319
f 322//322 319//319 321//321
f 324//324 322//322 321//321
f 324//324 321//321 323//323
f 326//326 324//324 323//323
f 326//326 323//323 325//325
f 328//328 326//326 325//325
f 328//328 325//325 327//327
f 330//330 328//328 327//327
f 330//330 327//327 329//329
f 332//332 330//330 329//329
f 332//332 329//329 331//331
f 334//334 332//332 331//331
f 334//334 331//331 333//333
f 336//336 334//334 333//333
f 336//336 333//333 335//335
f 338//338 336//336 335//335
f 338//338 335//335 337//337
f 340//340 338//338 337//337
f 340//340 337//337 339//339
f 342//342 340//340 339//339
f 342//342 339//339 341//341
f 344//344 342//342 341//341
f 344//344 341//341 343//343
f 346//346 344//344 343//343
f 346//346 343//343 345//345
f 348//348 361//361 349//349
f 348//348 349//349 347//347
f 347//347 349//349 350//350
f 352//352 350//350 351//351
f 351//351 350//350 349//349
f 350//350 352//352 353//353
f 353//353 352//352 354//354
f 355//355 356//356 354//354
f 354//354 352//352 355//355
f 360//360 357//357 356//356
f 360//360 356//356 359//359
f 358//358 356//356 355//355
f 359//359 356//356 358//358
f 358//358 361//361 359//359
f 361//361 348//348 359//359
f 358//358 351//351 349//349
f 358//358 349//349 361//361
f 362//362 364//364 357//357
f 362//362 357//357 360//360
f 363//363 365//365 364//364
f 363//363 364//364 362//362
f 367//367 366//366 365//365
f 367//367 365//365 363//363
f 369//369 368//368 366//366
f 369//369 366//366 367//367
f 372//372 370//370 368//368
f 372//372 368//368 369//369
f 373//373 371//371 370//370
f 373//373 370//370 372//372
f 374//374 376//376 371//371
f 374//374 371//371 373//373
f 375//375 377//377 376//376
f 375//375 376//376 374//374
f 380//380 378//378 377//377
f 380//380 377//377 375//375
f 381//381 379//379 378//378
f 381//381 378//378 380//380
f 382//382 386//386 379//379
f 382//382 379//379 381//381
f 385//385 382//382 383//383
f 382//382 384//384 386//386
f 384//384 382//382 385//385
f 387//387 388//388 386//386
f 386//386 384//384 387//387
f 389//389 390//390 388//388
f 388//388 387//387 389//389
f 390//390 389//389 391//391
f 391//391 393//393 392//392
f 393//393 391//391 394//394
f 391//391 389//389 394//394
f 394//394 384//384 385//385
f 394//394 385//385 393//393
f 389//389 387//387 384//384
f 389//389 384//384 394//394
f 392//392 393//393 385//385
f 392//392 385//385 383//383
f 355//355 352//352 351//351
f 355//355 351//351 358//358
f 396//396 395//395 397//397
f 398//398 401//401 399//399
f 398//398 399//399 397//397
f 399//399 396//396 397//397
f 400//400 396//396 399//399
f 404//404 402//402 401//401
f 404//404 401//401 398//398
f 405//405 403//403 402//402
f 405//405 402//402 404//404
f 406//406 408//408 403//403
f 406//406 403//403 405//405
f 407//407 409//409 408//408
f 407//407 408//408 406//406
f 413//413 410//410 409//409
f 413//413 409//409 407//407
f 412//412 411//411 410//410
f 413//413 412//412 410//410
f 413//413 414//414 412//412
f 416//416 426//426 417//417
f 416//416 417//417 415//415
f 418//418 415//415 417//417
f 421//421 419//419 418//418
f 417//417 420//420 418//418
f 421//421 418//418 420//420
f 422//422 421//421 420//420
f 422//422 420//420 425//425
f 419//419 421//421 422//422
f 419//419 422//422 423//423
f 424//424 423//423 422//422
f 422//422 425//425 424//424
f 426//426 427//427 425//425
f 425//425 420//420 417//417
f 425//425 417//417 426//426
f 424//424 425//425 427//427
f 426//426 416//416 427//427
f 428//428 430//430 424//424
f 428//428 424//424 427//427
f 429//429 431//431 430//430
f 429//429 430//430 428//428
f 433//433 432//432 431//431
f 433//433 431//431 429//429
f 436//436 434//434 432//432
f 436//436 432//432 433//433
f 437//437 435//435 434//434
f 437//437 434//434 436//436
f 438//438 440//440 435//435
f 438//438 435//435 437//437
f 439//439 441//441 440//440
f 439//439 440//440 438//438
f 443//443 442//442 441//441
f 443//443 441//441 439//439
f 445//445 444//444 442//442
f 445//445 442//442 443//443
f 448//448 446//446 444//444
f 448//448 444//444 445//445
f 449//449 447//447 446//446
f 449//449 446//446 448//448
f 450//450 452//452 447//447
f 450//450 447//447 449//449
f 451//451 453//453 450//450
f 450//450 454//454 452//452
f 454//454 450//450 453//453
f 452//452 454//454 455//455
f 458//458 455//455 454//454
f 458//458 454//454 456//456
f 456//456 454//454 453//453
f 456//456 453//453 459//459
f 462//462 458//458 456//456
f 462//462 456//456 457//457
f 459//459 457//457 456//456
f 459//459 453//453 451//451
f 457//457 459//459 460//460
f 451//451 460//460 459//459
f 458//458 462//462 461//461
f 455//455 458//458 461//461
f 455//455 461//461 452//452
f 464//464 463//463 465//465
f 464//464 465//465 467//467
f 466//466 468//468 467//467
f 466//466 467//467 465//465
f 467//467 469//469 464//464
f 472//472 470//470 468//468
f 472//472 468//468 466//466
f 473//473 471//471 470//470
f 473//473 470//470 472//472
f 474//474 476//476 471//471
f 474//474 471//471 473//473
f 475//475 477//477 476//476
f 475//475 476//476 474//474
f 479//479 478//478 477//477
f 479//479 477//477 475//475
f 479//479 481//481 480//480
f 479//479 480//480 478//478
f 482//482 481//481 479//479
f 484//484 483//483 486//486
f 484//484 485//485 483//483
f 486//486 487//487 484//484
f 488//488 489//489 484//484
f 488//488 484//484 487//487
f 489//489 488//488 490//490
f 492//492 494//494 491//491
f 492//492 491//491 490//490
f 490//490 491//491 489//489
f 493//493 495//495 494//494
f 493//493 494//494 492//492
f 497//497 496//496 495//495
f 497//497 495//495 493//493
f 499//499 498//498 496//496
f 499//499 496//496 497//497
f 501//501 500//500 498//498
f 501//501 498//498 499//499
f 503//503 502//502 500//500
f 503//503 500//500 501//501
f 505//505 504//504 502//502
f 505//505 502//502 503//503
f 507//507 506//506 504//504
f 507//507 504//504 505//505
f 509//509 508//508 506//506
f 509//509 506//506 507//507
f 511//511 510//510 508//508
f 511//511 508//508 509//509
f 513//513 512//512 510//510
f 513//513 510//510 511//511
f 515//515 514//514 512//512
f 515//515 512//512 513//513
f 517//517 516//516 514//514
f 517//517 514//514 515//515
f 519//519 518//518 516//516
f 519//519 516//516 517//517
f 521//521 520//520 518//518
f 521//521 518//518 519//519
f 523//523 522//522 520//520
f 523//523 520//520 521//521
f 525//525 524//524 522//522
f 525//525 522//522 523//523
f 524//524 525//525 526//526
f 526//526 527//527 524//524
f 529//529 528//528 527//527
f 529//529 527//527 526//526
f 529//529 530//530 528//528
f 530//530 529//529 531//531
f 531//531 529//529 532//532
f 532//532 529//529 526//526
f 532//532 526//526 533//533
f 525//525 533//533 526//526
f 491//491 534//534 489//489
f 489//489 534//534 485//485
f 489//489 485//485 484//484
f 535//535 538//538 536//536
f 536//536 537//537 535//535
f 539//539 536//536 538//538
f 541//541 540//540 542//542
f 541//541 542//542 544//544
f 543//543 545//545 544//544
f 543//543 544//544 542//542
f 547//547 548//548 546//546
f 548//548 547//547 549//549
f 549//549 547//547 550//550
f 552//552 551//551 554//554
f 552//552 553//553 551//551
f 554//554 555//555 552//552
f 556//556 557//557 552//552
f 556//556 552//552 555//555
f 558//558 560//560 557//557
f 558//558 557//557 556//556
f 559//559 560//560 558//558
f 561//561 560//560 559//559
f 560//560 562//562 563//563
f 560//560 563//563 557//557
f 560//560 561//561 562//562
f 557//557 563//563 553//553
f 557//557 553//553 552//552
f 565//565 564//564 566//566
f 565//565 566//566 567//567
f 569//569 565//565 567//567
f 569//569 567//567 568//568
f 571//571 570//570 573//573
f 571//571 572//572 570//570
f 573//573 574//574 571//571
f 575//575 576//576 571//571
f 575//575 571//571 574//574
f 576//576 575//575 577//577
f 579//579 580//580 578//578
f 579//579 578//578 577//577
f 577//577 578//578 576//576
f 581//581 582//582 580//580
f 581//581 580//580 579//579
f 583//583 584//584 582//582
f 583//583 582//582 581//581
f 585//585 587//587 584//584
f 585//585 584//584 583//583
f 586//586 588//588 587//587
f 586//586 587//587 585//585
f 590//590 589//589 588//588
f 590//590 588//588 586//586
f 592//592 591//591 589//589
f 592//592 589//589 590//590
f 594//594 593//593 591//591
f 594//594 591//591 592//592
f 596//596 595//595 593//593
f 596//596 593//593 594//594
f 598//598 597//597 595//595
f 598//598 595//595 596//596
f 600//600 599//599 597//597
f 600//600 597//597 598//598
f 602//602 601//601 599//599
f 602//602 599//599 600//600
f 604//604 603//603 601//601
f 604//604 601//601 602//602
f 606//606 605//605 603//603
f 606//606 603//603 604//604
f 608//608 607//607 605//605
f 608//608 605//605 606//606
f 610//610 609//609 607//607
f 610//610 607//607 608//608
f 612//612 611//611 609//609
f 612//612 609//609 610//610
f 614//614 613//613 611//611
f 614//614 611//611 612//612
f 616//616 615//615 613//613
f 616//616 613//613 614//614
f 618//618 617//617 615//615
f 618//618 615//615 616//616
f 620//620 619//619 617//617
f 620//620 617//617 618//618
f 622//622 621//621 619//619
f 622//622 619//619 620//620
f 624//624 623//623 621//621
f 624//624 621//621 622//622
f 623//623 624//624 625//625
f 625//625 626//626 623//623
f 629//629 627//627 626//626
f 629//629 626//626 625//625
f 629//629 628//628 627//627
f 628//628 629//629 631//631
f 631//631 629//629 630//630
f 630//630 629//629 625//625
f 630//630 625//625 632//632
f 624//624 632//632 625//625
f 578//578 633//633 576//576
f 576//576 633//633 572//572
f 576//576 572//572 571//571
f 635//635 634//634 636//636
f 635//635 636//636 637//637
f 639//639 635//635 637//637
f 639//639 637//637 638//638
f 641//641 640//640 643//643
f 641//641 642//642 640//640
f 643//643 644//644 641//641
f 645//645 646//646 641//641
f 645//645 641//641 644//644
f 647//647 649//649 646//646
f 647//647 646//646 645//645
f 648//648 649//649 647//647
f 650//650 649//649 648//648
f 649//649 651//651 652//652
f 649//649 652//652 646//646
f 649//649 650//650 651//651
f 646//646 652//652 642//642
f 646//646 642//642 641//641
f 653//653 656//656 654//654
f 654//654 655//655 653//653
f 657//657 654//654 656//656
f 659//659 658//658 660//660
f 659//659 660//660 662//662
f 661//661 663//663 662//662
f 661//661 662//662 660//660
f 665//665 666//666 664//664
f 666//666 665//665 667//667
f 667//667 665//665 668//668
f 669//669 671//671 670//670
f 671//671 669//669 672//672
f 673//673 671//671 672//672
f 671//671 673//673 674//674
f 675//675 674//674 673//673
f 674//674 675//675 676//676
f 677//677 683//683 671//671
f 671//671 681//681 678//678
f 678//678 679//679 671//671
f 671//671 679//679 680//680
f 680//680 670//670 671//671
f 671//671 682//682 681//681
f 671//671 683//683 682//682
f 685//685 684//684 683//683
f 684//684 690//690 683//683
f 683//683 677//677 692//692
f 685//685 683//683 686//686
f 683//683 689//689 686//686
f 683//683 687//687 693//693
f 687//687 683//683 690//690
f 683//683 692//692 688//688
f 688//688 689//689 683//683
f 683//683 691//691 682//682
f 691//691 683//683 693//693
f 694//694 697//697 695//695
f 694//694 695//695 693//693
f 693//693 687//687 694//694
f 691//691 693//693 695//695
f 691//691 695//695 696//696
f 697//697 698//698 696//696
f 697//697 696//696 695//695
f 699//699 697//697 694//694
f 700//700 703//703 698//698
f 700//700 698//698 697//697
f 697//697 699//699 700//700
f 700//700 701//701 703//703
f 701//701 700//700 702//702
f 700//700 699//699 702//702
f 708//708 704//704 703//703
f 703//703 704//704 670//670
f 705//705 698//698 703//703
f 706//706 705//705 703//703
f 703//703 709//709 706//706
f 707//707 703//703 670//670
f 703//703 707//707 709//709
f 701//701 708//708 703//703
f 706//706 709//709 710//710
f 706//706 710//710 713//713
f 709//709 707//707 712//712
f 709//709 712//712 710//710
f 714//714 711//711 710//710
f 713//713 710//710 711//711
f 710//710 712//712 714//714
f 712//712 715//715 714//714
f 716//716 715//715 717//717
f 712//712 717//717 715//715
f 716//716 717//717 719//719
f 717//717 707//707 718//718
f 718//718 720//720 717//717
f 720//720 719//719 717//717
f 707//707 717//717 712//712
f 680//680 720//720 718//718
f 720//720 680//680 679//679
f 720//720 679//679 721//721
f 721//721 719//719 720//720
f 721//721 679//679 722//722
f 723//723 722//722 679//679
f 723//723 679//679 678//678
f 670//670 680//680 718//718
f 707//707 670//670 718//718
f 705//705 706//706 713//713
f 705//705 713//713 725//725
f 724//724 725//725 713//713
f 724//724 713//713 711//711
f 725//725 698//698 705//705
f 726//726 725//725 724//724
f 727//727 725//725 726//726
f 727//727 698//698 725//725
f 728//728 727//727 726//726
f 730//730 727//727 728//728
f 696//696 727//727 729//729
f 696//696 729//729 691//691
f 698//698 727//727 696//696
f 727//727 730//730 729//729
f 731//731 729//729 730//730
f 729//729 731//731 732//732
f 682//682 691//691 732//732
f 732//732 691//691 729//729
f 726//726 724//724 728//728
f 708//708 701//701 733//733
f 708//708 733//733 735//735
f 734//734 704//704 708//708
f 738//738 734//734 708//708
f 735//735 736//736 708//708
f 737//737 708//708 736//736
f 738//738 708//708 737//737
f 738//738 737//737 739//739
f 740//740 738//738 739//739
f 740//740 739//739 741//741
f 734//734 738//738 740//740
f 741//741 744//744 740//740
f 743//743 740//740 742//742
f 740//740 744//744 742//742
f 740//740 743//743 734//734
f 744//744 741//741 745//745
f 747//747 742//742 744//744
f 746//746 744//744 745//745
f 746//746 745//745 750//750
f 746//746 748//748 744//744
f 747//747 744//744 748//748
f 749//749 748//748 746//746
f 750//750 749//749 746//746
f 749//749 750//750 751//751
f 752//752 751//751 750//750
f 750//750 753//753 752//752
f 752//752 753//753 754//754
f 753//753 755//755 754//754
f 756//756 755//755 677//677
f 755//755 753//753 677//677
f 757//757 755//755 756//756
f 758//758 757//757 756//756
f 758//758 759//759 757//757
f 759//759 758//758 760//760
f 761//761 759//759 760//760
f 762//762 761//761 760//760
f 762//762 760//760 764//764
f 763//763 762//762 764//764
f 766//766 704//704 764//764
f 767//767 764//764 704//704
f 764//764 760//760 765//765
f 765//765 766//766 764//764
f 764//764 767//767 763//763
f 704//704 769//769 767//767
f 768//768 767//767 769//769
f 769//769 704//704 734//734
f 769//769 770//770 768//768
f 769//769 734//734 743//743
f 769//769 743//743 770//770
f 743//743 771//771 770//770
f 768//768 770//770 771//771
f 772//772 771//771 743//743
f 772//772 742//742 747//747
f 772//772 743//743 742//742
f 773//773 704//704 766//766
f 766//766 765//765 774//774
f 773//773 766//766 774//774
f 775//775 774//774 776//776
f 775//775 776//776 777//777
f 778//778 773//773 774//774
f 778//778 774//774 775//775
f 774//774 765//765 776//776
f 758//758 777//777 776//776
f 776//776 765//765 760//760
f 776//776 760//760 758//758
f 779//779 775//775 777//777
f 779//779 777//777 756//756
f 758//758 756//756 777//777
f 775//775 780//780 778//778
f 780//780 775//775 779//779
f 778//778 780//780 781//781
f 786//786 781//781 780//780
f 786//786 780//780 782//782
f 782//782 780//780 779//779
f 782//782 779//779 785//785
f 784//784 783//783 782//782
f 783//783 786//786 782//782
f 784//784 782//782 785//785
f 784//784 785//785 875//875
f 786//786 783//783 788//788
f 787//787 795//795 781//781
f 787//787 781//781 786//786
f 787//787 786//786 788//788
f 788//788 789//789 787//787
f 787//787 789//789 790//790
f 790//790 791//791 793//793
f 791//791 790//790 792//792
f 793//793 787//787 790//790
f 793//793 791//791 794//794
f 793//793 794//794 795//795
f 793//793 795//795 787//787
f 778//778 795//795 794//794
f 794//794 773//773 778//778
f 794//794 791//791 773//773
f 778//778 781//781 795//795
f 792//792 797//797 791//791
f 792//792 796//796 798//798
f 798//798 797//797 792//792
f 796//796 801//801 798//798
f 799//799 798//798 802//802
f 799//799 800//800 798//798
f 802//802 798//798 801//801
f 803//803 799//799 802//802
f 805//805 803//803 802//802
f 805//805 802//802 801//801
f 806//806 803//803 804//804
f 864//864 804//804 803//803
f 864//864 803//803 805//805
f 799//799 803//803 806//806
f 800//800 806//806 809//809
f 800//800 799//799 806//806
f 807//807 806//806 804//804
f 806//806 807//807 808//808
f 808//808 809//809 806//806
f 810//810 809//809 808//808
f 810//810 812//812 809//809
f 813//813 800//800 809//809
f 809//809 811//811 813//813
f 809//809 812//812 811//811
f 811//811 814//814 813//813
f 814//814 817//817 815//815
f 814//814 815//815 813//813
f 800//800 813//813 815//815
f 817//817 816//816 815//815
f 815//815 816//816 800//800
f 817//817 818//818 816//816
f 819//819 818//818 817//817
f 819//819 817//817 814//814
f 819//819 820//820 818//818
f 820//820 824//824 816//816
f 820//820 816//816 818//818
f 823//823 820//820 821//821
f 883//883 821//821 820//820
f 883//883 820//820 822//822
f 825//825 822//822 820//820
f 820//820 823//823 824//824
f 825//825 820//820 819//819
f 887//887 822//822 825//825
f 887//887 825//825 827//827
f 827//827 825//825 826//826
f 825//825 828//828 826//826
f 825//825 819//819 828//828
f 829//829 828//828 819//819
f 829//829 819//819 830//830
f 814//814 831//831 830//830
f 830//830 819//819 814//814
f 811//811 831//831 814//814
f 811//811 832//832 831//831
f 833//833 832//832 812//812
f 812//812 832//832 811//811
f 833//833 812//812 835//835
f 833//833 835//835 834//834
f 834//834 835//835 836//836
f 810//810 836//836 835//835
f 812//812 810//810 835//835
f 838//838 836//836 837//837
f 836//836 839//839 837//837
f 836//836 838//838 834//834
f 839//839 836//836 810//810
f 839//839 810//810 808//808
f 839//839 808//808 842//842
f 840//840 843//843 839//839
f 839//839 841//841 840//840
f 841//841 839//839 842//842
f 839//839 843//843 837//837
f 844//844 837//837 843//843
f 846//846 844//844 843//843
f 846//846 843//843 845//845
f 843//843 840//840 845//845
f 847//847 845//845 840//840
f 847//847 846//846 845//845
f 840//840 851//851 847//847
f 847//847 848//848 846//846
f 848//848 847//847 849//849
f 849//849 847//847 852//852
f 852//852 847//847 850//850
f 847//847 851//851 850//850
f 850//850 854//854 852//852
f 852//852 855//855 853//853
f 852//852 853//853 849//849
f 855//855 852//852 854//854
f 854//854 856//856 855//855
f 854//854 857//857 856//856
f 854//854 850//850 857//857
f 857//857 859//859 858//858
f 859//859 857//857 850//850
f 859//859 850//850 851//851
f 851//851 866//866 860//860
f 851//851 860//860 859//859
f 861//861 859//859 860//860
f 859//859 861//861 858//858
f 860//860 862//862 861//861
f 862//862 860//860 865//865
f 863//863 862//862 864//864
f 864//864 862//862 865//865
f 841//841 842//842 807//807
f 841//841 807//807 865//865
f 866//866 841//841 865//865
f 866//866 865//865 860//860
f 865//865 807//807 804//804
f 865//865 804//804 864//864
f 863//863 864//864 805//805
f 863//863 805//805 796//796
f 851//851 840//840 866//866
f 840//840 841//841 866//866
f 867//867 849//849 853//853
f 869//869 868//868 867//867
f 867//867 868//868 870//870
f 867//867 870//870 849//849
f 872//872 868//868 869//869
f 869//869 871//871 872//872
f 872//872 871//871 873//873
f 873//873 876//876 874//874
f 873//873 874//874 872//872
f 756//756 872//872 874//874
f 677//677 868//868 872//872
f 677//677 872//872 756//756
f 756//756 874//874 875//875
f 876//876 784//784 875//875
f 876//876 875//875 874//874
f 876//876 873//873 879//879
f 877//877 876//876 878//878
f 877//877 784//784 876//876
f 879//879 878//878 876//876
f 871//871 879//879 873//873
f 783//783 784//784 877//877
f 875//875 785//785 756//756
f 848//848 880//880 882//882
f 883//883 848//848 881//881
f 848//848 882//882 881//881
f 883//883 885//885 848//848
f 884//884 846//846 848//848
f 884//884 848//848 885//885
f 888//888 885//885 886//886
f 885//885 887//887 886//886
f 883//883 887//887 885//885
f 885//885 888//888 884//884
f 888//888 886//886 893//893
f 888//888 893//893 889//889
f 884//884 888//888 889//889
f 884//884 889//889 892//892
f 891//891 890//890 889//889
f 890//890 892//892 889//889
f 889//889 893//893 891//891
f 886//886 887//887 827//827
f 886//886 827//827 893//893
f 894//894 891//891 893//893
f 827//827 894//894 893//893
f 827//827 826//826 894//894
f 892//892 890//890 896//896
f 846//846 884//884 892//892
f 895//895 846//846 892//892
f 892//892 896//896 895//895
f 897//897 844//844 895//895
f 846//846 895//895 844//844
f 897//897 898//898 844//844
f 898//898 838//838 837//837
f 844//844 898//898 837//837
f 887//887 883//883 822//822
f 881//881 899//899 883//883
f 883//883 899//899 821//821
f 899//899 900//900 903//903
f 899//899 881//881 900//900
f 899//899 902//902 901//901
f 899//899 901//901 823//823
f 899//899 823//823 821//821
f 903//903 902//902 899//899
f 900//900 904//904 903//903
f 905//905 904//904 900//900
f 906//906 904//904 905//905
f 906//906 908//908 907//907
f 905//905 908//908 906//906
f 882//882 910//910 908//908
f 908//908 905//905 882//882
f 908//908 909//909 907//907
f 909//909 908//908 910//910
f 910//910 912//912 911//911
f 911//911 914//914 910//910
f 912//912 910//910 882//882
f 914//914 913//913 910//910
f 910//910 913//913 915//915
f 915//915 909//909 910//910
f 913//913 916//916 915//915
f 918//918 915//915 916//916
f 909//909 915//915 917//917
f 917//917 915//915 918//918
f 918//918 916//916 919//919
f 920//920 919//919 916//916
f 923//923 920//920 921//921
f 920//920 922//922 921//921
f 916//916 922//922 920//920
f 921//921 924//924 923//923
f 923//923 924//924 925//925
f 924//924 926//926 925//925
f 927//927 926//926 928//928
f 924//924 928//928 926//926
f 928//928 929//929 930//930
f 928//928 924//924 929//929
f 930//930 931//931 928//928
f 928//928 931//931 927//927
f 933//933 927//927 931//931
f 933//933 931//931 932//932
f 931//931 824//824 932//932
f 824//824 931//931 930//930
f 934//934 933//933 932//932
f 902//902 934//934 901//901
f 901//901 934//934 823//823
f 823//823 934//934 932//932
f 824//824 823//823 932//932
f 930//930 929//929 935//935
f 800//800 816//816 930//930
f 930//930 936//936 800//800
f 936//936 930//930 935//935
f 930//930 816//816 824//824
f 800//800 936//936 937//937
f 937//937 936//936 943//943
f 936//936 938//938 942//942
f 936//936 939//939 938//938
f 940//940 939//939 936//936
f 936//936 941//941 940//940
f 941//941 936//936 935//935
f 942//942 943//943 936//936
f 943//943 944//944 937//937
f 945//945 944//944 943//943
f 945//945 943//943 942//942
f 946//946 937//937 944//944
f 945//945 946//946 944//944
f 946//946 948//948 947//947
f 947//947 949//949 946//946
f 948//948 946//946 945//945
f 937//937 946//946 950//950
f 949//949 950//950 946//946
f 950//950 951//951 937//937
f 954//954 951//951 950//950
f 954//954 950//950 952//952
f 950//950 949//949 952//952
f 953//953 954//954 952//952
f 953//953 952//952 949//949
f 953//953 949//949 959//959
f 954//954 880//880 951//951
f 954//954 955//955 912//912
f 954//954 912//912 882//882
f 882//882 880//880 954//954
f 955//955 954//954 956//956
f 957//957 954//954 953//953
f 954//954 957//957 956//956
f 953//953 958//958 957//957
f 953//953 959//959 958//958
f 958//958 959//959 960//960
f 959//959 947//947 960//960
f 947//947 959//959 949//949
f 951//951 880//880 937//937
f 961//961 948//948 945//945
f 961//961 945//945 962//962
f 938//938 963//963 962//962
f 962//962 945//945 938//938
f 939//939 964//964 963//963
f 963//963 938//938 939//939
f 965//965 966//966 964//964
f 965//965 964//964 939//939
f 966//966 965//965 967//967
f 968//968 966//966 967//967
f 967//967 969//969 968//968
f 969//969 970//970 968//968
f 969//969 911//911 970//970
f 969//969 971//971 914//914
f 969//969 967//967 972//972
f 969//969 972//972 971//971
f 969//969 914//914 911//911
f 914//914 971//971 973//973
f 914//914 973//973 974//974
f 972//972 973//973 971//971
f 973//973 922//922 974//974
f 941//941 922//922 973//973
f 973//973 940//940 941//941
f 973//973 972//972 940//940
f 913//913 974//974 922//922
f 913//913 922//922 916//916
f 913//913 914//914 974//974
f 972//972 967//967 965//965
f 940//940 972//972 965//965
f 939//939 940//940 965//965
f 938//938 945//945 942//942
f 941//941 935//935 975//975
f 922//922 941//941 921//921
f 975//975 921//921 941//941
f 924//924 921//921 975//975
f 924//924 975//975 935//935
f 924//924 935//935 929//929
f 937//937 880//880 976//976
f 976//976 880//880 977//977
f 978//978 977//977 880//880
f 978//978 980//980 979//979
f 880//880 980//980 978//978
f 981//981 979//979 980//980
f 882//882 905//905 881//881
f 900//900 881//881 905//905
f 808//808 807//807 842//842
f 796//796 805//805 801//801
f 791//791 704//704 773//773
f 756//756 785//785 779//779
f 677//677 753//753 982//982
f 745//745 741//741 982//982
f 745//745 982//982 753//753
f 753//753 750//750 745//745
f 741//741 739//739 984//984
f 741//741 984//984 982//982
f 982//982 983//983 677//677
f 983//983 982//982 984//984
f 739//739 985//985 984//984
f 984//984 985//985 988//988
f 984//984 988//988 983//983
f 986//986 989//989 985//985
f 985//985 987//987 986//986
f 985//985 739//739 987//987
f 988//988 985//985 989//989
f 990//990 988//988 989//989
f 986//986 991//991 989//989
f 992//992 991//991 986//986
f 986//986 987//987 992//992
f 993//993 992//992 987//987
f 994//994 992//992 993//993
f 994//994 996//996 995//995
f 993//993 996//996 994//994
f 735//735 733//733 997//997
f 735//735 997//997 996//996
f 736//736 735//735 996//996
f 736//736 996//996 993//993
f 997//997 995//995 996//996
f 733//733 701//701 998//998
f 733//733 998//998 997//997
f 998//998 999//999 997//997
f 995//995 997//997 999//999
f 1000//1000 999//999 998//998
f 1000//1000 1002//1002 1001//1001
f 998//998 1002//1002 1000//1000
f 998//998 701//701 1002//1002
f 701//701 702//702 1002//1002
f 1001//1001 1002//1002 1003//1003
f 1002//1002 702//702 699//699
f 1002//1002 699//699 1003//1003
f 1003//1003 687//687 1004//1004
f 1003//1003 699//699 694//694
f 1003//1003 694//694 687//687
f 1004//1004 1001//1001 1003//1003
f 1004//1004 687//687 1005//1005
f 1005//1005 690//690 684//684
f 690//690 1005//1005 687//687
f 737//737 736//736 993//993
f 737//737 993//993 987//987
f 990//990 1006//1006 688//688
f 688//688 988//988 990//990
f 1006//1006 689//689 688//688
f 983//983 988//988 688//688
f 983//983 688//688 692//692
f 987//987 739//739 737//737
f 692//692 677//677 983//983
