# joint_29 exported from /models/guards/joint_29.glb
# units: meters
v -0.109710 0.001000 0.048316
v -0.109808 0.001000 0.041778
v -0.106581 0.001000 0.048269
v -0.106550 0.001000 0.050356
v -0.096615 0.001000 0.040151
v -0.103535 0.001000 0.051354
v -0.099449 0.001000 0.051293
v -0.096251 0.001000 0.064462
v -0.099296 0.001000 0.061507
v -0.099381 0.001000 0.064509
v -0.102425 0.001000 0.061554
v -0.102345 0.001000 0.066923
v -0.075505 0.001000 0.094719
v -0.099363 0.001000 0.065692
v -0.074260 0.001000 0.091689
v -0.072319 0.001000 0.091645
v -0.069275 0.001000 0.094576
v -0.069323 0.001000 0.091374
v -0.072367 0.001000 0.088419
v -0.068195 0.001000 0.088357
v -0.065151 0.001000 0.091295
v -0.068195 0.001000 0.088340
v -0.059108 0.001000 0.091204
v -0.047618 0.001000 0.088032
v -0.035256 0.001000 0.074612
v -0.036894 0.001000 0.071636
v -0.033024 0.001000 0.078665
v -0.031386 0.001000 0.081641
v -0.044104 0.001000 0.101087
v -0.055873 0.001000 0.098243
v -0.055826 0.001000 0.101356
v -0.059047 0.001000 0.095290
v -0.057959 0.001000 0.098274
v -0.060045 0.001000 0.098322
v -0.057912 0.001000 0.101403
v -0.059998 0.001000 0.101451
v -0.061003 0.001000 0.095336
v -0.062131 0.001000 0.098353
v -0.062084 0.001000 0.101499
v -0.065128 0.001000 0.098568
v -0.065175 0.001000 0.095399
v -0.077201 0.001000 0.098845
v -0.078446 0.001000 0.101874
v -0.109388 0.001000 0.069830
v -0.109617 0.001000 0.054575
v -0.106407 0.001000 0.068600
v -0.106572 0.001000 0.057529
v -0.103443 0.001000 0.057483
v -0.106488 0.001000 0.054528
v -0.106519 0.001000 0.052442
v -0.109648 0.001000 0.052489
v -0.109679 0.001000 0.050402
v -0.061004 0.001000 0.095320
v 0.015053 0.001000 0.080945
v 0.028348 0.001000 0.100002
v 0.031468 0.001000 0.086847
v 0.016602 0.001000 0.077922
v 0.018711 0.001000 0.073804
v 0.020260 0.001000 0.070780
v 0.051886 0.001000 0.086541
v 0.042889 0.001000 0.089676
v 0.039866 0.001000 0.096808
v 0.041952 0.001000 0.096777
v 0.042950 0.001000 0.093762
v 0.039888 0.001000 0.099921
v 0.044907 0.001000 0.093749
v 0.044907 0.001000 0.093733
v 0.044038 0.001000 0.096762
v 0.046124 0.001000 0.096731
v 0.044085 0.001000 0.099892
v 0.041999 0.001000 0.099906
v 0.046172 0.001000 0.099877
v 0.049079 0.001000 0.093687
v 0.049127 0.001000 0.096856
v 0.061363 0.001000 0.096770
v 0.062698 0.001000 0.099761
v 0.092667 0.001000 0.066805
v 0.092439 0.001000 0.051550
v 0.089650 0.001000 0.065664
v 0.089484 0.001000 0.054594
v 0.086355 0.001000 0.054641
v 0.089310 0.001000 0.051596
v 0.089278 0.001000 0.049510
v 0.086263 0.001000 0.048512
v 0.089247 0.001000 0.047424
v 0.082177 0.001000 0.048573
v 0.089216 0.001000 0.045338
v 0.092247 0.001000 0.038753
v 0.092345 0.001000 0.045291
v 0.079012 0.001000 0.037521
v 0.079375 0.001000 0.061833
v 0.075950 0.001000 0.020947
v 0.078936 0.001000 0.019972
v 0.071883 0.001000 0.022276
v 0.068897 0.001000 0.023252
v 0.068097 0.001000 -0.030238
v 0.071110 0.001000 -0.029352
v 0.077779 0.001000 -0.044804
v 0.087745 0.001000 -0.052923
v 0.090972 0.001000 -0.046431
v 0.078229 0.001000 -0.027260
v 0.080613 0.001000 -0.055946
v 0.075215 0.001000 -0.028146
v 0.077415 0.001000 -0.069115
v 0.080460 0.001000 -0.066160
v 0.080544 0.001000 -0.069162
v 0.083508 0.001000 -0.071576
v 0.080526 0.001000 -0.070345
v 0.083589 0.001000 -0.066207
v 0.055423 0.001000 -0.096342
v 0.053322 0.001000 -0.096294
v 0.056669 0.001000 -0.099372
v 0.050278 0.001000 -0.099225
v 0.050326 0.001000 -0.096023
v 0.046154 0.001000 -0.095961
v 0.046154 0.001000 -0.095944
v 0.053370 0.001000 -0.093069
v 0.049198 0.001000 -0.093006
v 0.049198 0.001000 -0.092990
v 0.028780 0.001000 -0.092684
v 0.040111 0.001000 -0.095854
v 0.036876 0.001000 -0.102892
v 0.040050 0.001000 -0.099940
v 0.042006 0.001000 -0.099986
v 0.042007 0.001000 -0.099969
v 0.038962 0.001000 -0.102924
v 0.041048 0.001000 -0.102971
v 0.041001 0.001000 -0.106101
v 0.043134 0.001000 -0.103003
v 0.046131 0.001000 -0.103218
v 0.043087 0.001000 -0.106149
v 0.046179 0.001000 -0.100048
v 0.059610 0.001000 -0.106527
v 0.058365 0.001000 -0.103498
v 0.090552 0.001000 -0.074483
v 0.087570 0.001000 -0.073253
v 0.090780 0.001000 -0.059228
v 0.087736 0.001000 -0.062183
v 0.087651 0.001000 -0.059181
v 0.084607 0.001000 -0.062136
v 0.087682 0.001000 -0.057095
v 0.084698 0.001000 -0.056007
v 0.087714 0.001000 -0.055009
v 0.090812 0.001000 -0.057142
v 0.090843 0.001000 -0.055056
v 0.038915 0.001000 -0.106053
v 0.036805 0.001000 -0.106005
v 0.025267 0.001000 -0.105740
v 0.012549 0.001000 -0.086294
v -0.033890 0.001000 -0.085599
v 0.014188 0.001000 -0.083318
v 0.016419 0.001000 -0.079265
v -0.035438 0.001000 -0.082575
v -0.050306 0.001000 -0.091501
v -0.037548 0.001000 -0.078457
v 0.018058 0.001000 -0.076289
v -0.039096 0.001000 -0.075433
v -0.058863 0.001000 -0.101460
v -0.061886 0.001000 -0.094328
v -0.070883 0.001000 -0.091193
v -0.047184 0.001000 -0.104655
v -0.058909 0.001000 -0.104573
v -0.067928 0.001000 -0.094238
v -0.070883 0.001000 -0.091210
v -0.075055 0.001000 -0.091147
v -0.072101 0.001000 -0.094192
v -0.072149 0.001000 -0.097394
v -0.067929 0.001000 -0.094254
v -0.075104 0.001000 -0.094373
v -0.077045 0.001000 -0.094359
v -0.078381 0.001000 -0.097350
v -0.104376 0.001000 -0.068763
v -0.101359 0.001000 -0.067622
v -0.101341 0.001000 -0.066439
v -0.104296 0.001000 -0.063394
v -0.101167 0.001000 -0.063441
v -0.098212 0.001000 -0.066486
v -0.101014 0.001000 -0.053226
v -0.108052 0.001000 -0.049991
v -0.097848 0.001000 -0.042174
v -0.105100 0.001000 -0.053165
v -0.108146 0.001000 -0.056250
v -0.108084 0.001000 -0.052077
v -0.105191 0.001000 -0.059294
v -0.108115 0.001000 -0.054163
v -0.111244 0.001000 -0.054117
v -0.111213 0.001000 -0.052030
v -0.108321 0.001000 -0.059247
v -0.111275 0.001000 -0.056203
v -0.111504 0.001000 -0.071458
v -0.108486 0.001000 -0.070317
v -0.080200 0.001000 -0.101423
v -0.068124 0.001000 -0.101508
v -0.081535 0.001000 -0.104414
v -0.065169 0.001000 -0.104529
v -0.065121 0.001000 -0.101383
v -0.063904 0.001000 -0.098401
v -0.068076 0.001000 -0.098339
v -0.063035 0.001000 -0.101414
v -0.061947 0.001000 -0.098414
v -0.060949 0.001000 -0.101429
v -0.063082 0.001000 -0.104544
v -0.060996 0.001000 -0.104558
v -0.063904 0.001000 -0.098385
v -0.097772 0.001000 -0.024625
v -0.111084 0.001000 -0.043406
v -0.094786 0.001000 -0.025600
v -0.090720 0.001000 -0.026929
v -0.087734 0.001000 -0.027905
v -0.089947 0.001000 0.024699
v -0.086933 0.001000 0.025585
v -0.094052 0.001000 0.023493
v -0.097065 0.001000 0.022607
v -0.111182 0.001000 -0.049944
v 0.090874 0.001000 -0.052969
v 0.082505 0.001000 0.061786
v 0.082330 0.001000 0.058788
v 0.085459 0.001000 0.058741
v 0.085540 0.001000 0.064110
v 0.058209 0.001000 0.089706
v 0.082522 0.001000 0.062969
v 0.059544 0.001000 0.092697
v 0.053152 0.001000 0.092741
v 0.056107 0.001000 0.089721
v 0.056059 0.001000 0.086495
v 0.053104 0.001000 0.089540
v 0.051886 0.001000 0.086558
v 0.048932 0.001000 0.089586
v 0.048932 0.001000 0.089602
v 0.092376 0.001000 0.047377
v 0.092408 0.001000 0.049463
v -0.065150 0.001000 0.091311
v 0.086355 0.001000 0.054641
v 0.086263 0.001000 0.048512
v 0.086355 -0.001000 0.054641
v 0.086263 -0.001000 0.048512
v 0.086263 0.001000 0.048512
v 0.082177 0.001000 0.048573
v 0.086263 -0.001000 0.048512
v 0.082177 -0.001000 0.048573
v 0.082177 0.001000 0.048573
v 0.082330 0.001000 0.058788
v 0.082177 -0.001000 0.048573
v 0.082330 -0.001000 0.058788
v 0.082330 0.001000 0.058788
v 0.085459 0.001000 0.058741
v 0.082330 -0.001000 0.058788
v 0.085459 -0.001000 0.058741
v 0.085459 0.001000 0.058741
v 0.085540 0.001000 0.064110
v 0.085459 -0.001000 0.058741
v 0.085540 -0.001000 0.064110
v 0.085540 0.001000 0.064110
v 0.059544 0.001000 0.092697
v 0.085540 -0.001000 0.064110
v 0.059544 -0.001000 0.092697
v 0.059544 0.001000 0.092697
v 0.053152 0.001000 0.092741
v 0.059544 -0.001000 0.092697
v 0.053152 -0.001000 0.092741
v 0.053104 0.001000 0.089540
v 0.053152 0.001000 0.092741
v 0.053104 -0.001000 0.089540
v 0.053152 -0.001000 0.092741
v 0.053104 0.001000 0.089540
v 0.048932 0.001000 0.089602
v 0.053104 -0.001000 0.089540
v 0.048932 -0.001000 0.089602
v 0.048932 0.001000 0.089602
v 0.048932 0.001000 0.089586
v 0.048932 -0.001000 0.089602
v 0.048932 -0.001000 0.089586
v 0.048932 0.001000 0.089586
v 0.042889 0.001000 0.089676
v 0.048932 -0.001000 0.089586
v 0.042889 -0.001000 0.089676
v 0.042889 0.001000 0.089676
v 0.042950 0.001000 0.093762
v 0.042889 -0.001000 0.089676
v 0.042950 -0.001000 0.093762
v 0.042950 0.001000 0.093762
v 0.044907 0.001000 0.093733
v 0.042950 -0.001000 0.093762
v 0.044907 -0.001000 0.093733
v 0.044907 0.001000 0.093749
v 0.049079 0.001000 0.093687
v 0.044907 -0.001000 0.093749
v 0.049079 -0.001000 0.093687
v 0.049079 0.001000 0.093687
v 0.049127 0.001000 0.096856
v 0.049079 -0.001000 0.093687
v 0.049127 -0.001000 0.096856
v 0.049127 0.001000 0.096856
v 0.061363 0.001000 0.096770
v 0.049127 -0.001000 0.096856
v 0.061363 -0.001000 0.096770
v 0.061363 0.001000 0.096770
v 0.089650 0.001000 0.065664
v 0.061363 -0.001000 0.096770
v 0.089650 -0.001000 0.065664
v 0.089650 0.001000 0.065664
v 0.089484 0.001000 0.054594
v 0.089650 -0.001000 0.065664
v 0.089484 -0.001000 0.054594
v 0.086355 0.001000 0.054641
v 0.089484 0.001000 0.054594
v 0.086355 -0.001000 0.054641
v 0.089484 -0.001000 0.054594
v 0.016419 0.001000 -0.079265
v 0.014188 0.001000 -0.083318
v 0.016419 -0.001000 -0.079265
v 0.014188 -0.001000 -0.083318
v -0.035438 0.001000 -0.082575
v 0.014188 0.001000 -0.083318
v -0.035438 -0.001000 -0.082575
v 0.014188 -0.001000 -0.083318
v -0.037548 0.001000 -0.078457
v -0.035438 0.001000 -0.082575
v -0.037548 -0.001000 -0.078457
v -0.035438 -0.001000 -0.082575
v 0.016419 0.001000 -0.079265
v -0.037548 0.001000 -0.078457
v 0.002928 0.000500 -0.079063
v 0.009674 0.000500 -0.079164
v 0.009674 0.000000 -0.079164
v 0.016419 -0.001000 -0.079265
v 0.002928 -0.000500 -0.079063
v 0.009674 -0.000500 -0.079164
v -0.037548 -0.001000 -0.078457
v -0.030802 0.000000 -0.078558
v -0.030802 -0.000500 -0.078558
v -0.024056 -0.000500 -0.078659
v -0.024056 0.000000 -0.078659
v -0.024056 0.000500 -0.078659
v 0.002928 0.000000 -0.079063
v -0.030802 0.000500 -0.078558
v -0.069323 0.001000 0.091374
v -0.069323 -0.001000 0.091374
v -0.069275 0.001000 0.094576
v -0.069275 -0.001000 0.094576
v -0.065150 0.001000 0.091311
v -0.065150 -0.001000 0.091311
v -0.069323 0.001000 0.091374
v -0.069323 -0.001000 0.091374
v -0.059108 0.001000 0.091204
v -0.059108 -0.001000 0.091204
v -0.065151 0.001000 0.091295
v -0.065151 -0.001000 0.091295
v -0.059047 0.001000 0.095290
v -0.059047 -0.001000 0.095290
v -0.059108 0.001000 0.091204
v -0.059108 -0.001000 0.091204
v -0.061004 0.001000 0.095320
v -0.061004 -0.001000 0.095320
v -0.059047 0.001000 0.095290
v -0.059047 -0.001000 0.095290
v -0.061003 0.001000 0.095336
v -0.061003 -0.001000 0.095336
v -0.061004 0.001000 0.095320
v -0.061004 -0.001000 0.095320
v -0.065175 0.001000 0.095399
v -0.065175 -0.001000 0.095399
v -0.061003 0.001000 0.095336
v -0.061003 -0.001000 0.095336
v -0.065128 0.001000 0.098568
v -0.065128 -0.001000 0.098568
v -0.065175 0.001000 0.095399
v -0.065175 -0.001000 0.095399
v -0.077201 0.001000 0.098845
v -0.077201 -0.001000 0.098845
v -0.065128 0.001000 0.098568
v -0.065128 -0.001000 0.098568
v -0.033024 0.001000 0.078665
v -0.035256 0.001000 0.074612
v -0.033024 -0.001000 0.078665
v -0.035256 -0.001000 0.074612
v -0.035256 0.001000 0.074612
v -0.021764 0.000500 0.074410
v -0.028510 0.000500 0.074511
v -0.028510 -0.000000 0.074511
v -0.035256 -0.001000 0.074612
v 0.018711 0.001000 0.073804
v 0.005219 0.000500 0.074006
v 0.011965 0.000500 0.073905
v 0.011965 -0.000000 0.073905
v 0.018711 -0.001000 0.073804
v 0.005219 -0.000500 0.074006
v 0.011965 -0.000500 0.073905
v -0.021764 -0.000500 0.074410
v 0.005219 -0.000000 0.074006
v -0.021764 -0.000000 0.074410
v -0.028510 -0.000500 0.074511
v 0.016602 0.001000 0.077922
v 0.016602 -0.001000 0.077922
v 0.018711 0.001000 0.073804
v 0.018711 -0.001000 0.073804
v -0.033024 0.001000 0.078665
v -0.033024 -0.001000 0.078665
v 0.016602 0.001000 0.077922
v 0.016602 -0.001000 0.077922
v 0.075950 0.001000 0.020947
v 0.071883 0.001000 0.022276
v 0.075950 -0.001000 0.020947
v 0.071883 -0.001000 0.022276
v 0.071110 0.001000 -0.029352
v 0.071110 -0.001000 -0.029352
v 0.071883 0.001000 0.022276
v 0.071883 -0.001000 0.022276
v 0.075215 0.001000 -0.028146
v 0.075215 -0.001000 -0.028146
v 0.071110 0.001000 -0.029352
v 0.071110 -0.001000 -0.029352
v 0.075950 0.001000 0.020947
v 0.075950 -0.001000 0.020947
v 0.075215 0.001000 -0.028146
v 0.075215 -0.001000 -0.028146
v 0.083508 0.001000 -0.071576
v 0.056669 0.001000 -0.099372
v 0.083508 -0.001000 -0.071576
v 0.056669 -0.001000 -0.099372
v 0.083589 0.001000 -0.066207
v 0.083508 0.001000 -0.071576
v 0.083589 -0.001000 -0.066207
v 0.083508 -0.001000 -0.071576
v 0.080460 0.001000 -0.066160
v 0.083589 0.001000 -0.066207
v 0.080460 -0.001000 -0.066160
v 0.083589 -0.001000 -0.066207
v 0.080613 0.001000 -0.055946
v 0.080460 0.001000 -0.066160
v 0.080613 -0.001000 -0.055946
v 0.080460 -0.001000 -0.066160
v 0.084698 0.001000 -0.056007
v 0.080613 0.001000 -0.055946
v 0.084698 -0.001000 -0.056007
v 0.080613 -0.001000 -0.055946
v 0.084607 0.001000 -0.062136
v 0.084698 0.001000 -0.056007
v 0.084607 -0.001000 -0.062136
v 0.084698 -0.001000 -0.056007
v 0.087736 0.001000 -0.062183
v 0.084607 0.001000 -0.062136
v 0.087736 -0.001000 -0.062183
v 0.084607 -0.001000 -0.062136
v 0.087570 0.001000 -0.073253
v 0.087736 0.001000 -0.062183
v 0.087570 -0.001000 -0.073253
v 0.087736 -0.001000 -0.062183
v 0.058365 0.001000 -0.103498
v 0.087570 0.001000 -0.073253
v 0.058365 -0.001000 -0.103498
v 0.087570 -0.001000 -0.073253
v -0.070883 0.001000 -0.091193
v -0.050306 0.001000 -0.091501
v -0.070883 -0.001000 -0.091193
v -0.050306 -0.001000 -0.091501
v -0.050306 0.001000 -0.091501
v -0.039096 0.001000 -0.075433
v -0.050306 -0.001000 -0.091501
v -0.039096 -0.001000 -0.075433
v -0.039096 0.001000 -0.075433
v 0.018058 0.001000 -0.076289
v -0.039096 -0.001000 -0.075433
v 0.018058 -0.001000 -0.076289
v 0.018058 0.001000 -0.076289
v 0.028780 0.001000 -0.092684
v 0.018058 -0.001000 -0.076289
v 0.028780 -0.001000 -0.092684
v 0.049198 0.001000 -0.092990
v 0.049198 -0.001000 -0.092990
v 0.028780 0.001000 -0.092684
v 0.028780 -0.001000 -0.092684
v 0.080526 0.001000 -0.070345
v 0.080526 -0.001000 -0.070345
v 0.055423 0.001000 -0.096342
v 0.055423 -0.001000 -0.096342
v 0.077415 0.001000 -0.069115
v 0.077415 -0.001000 -0.069115
v 0.080544 0.001000 -0.069162
v 0.080544 -0.001000 -0.069162
v 0.077779 0.001000 -0.044804
v 0.077779 -0.001000 -0.044804
v 0.077415 0.001000 -0.069115
v 0.077415 -0.001000 -0.069115
v 0.068097 0.001000 -0.030238
v 0.068097 -0.001000 -0.030238
v 0.077779 0.001000 -0.044804
v 0.077779 -0.001000 -0.044804
v 0.068897 0.001000 0.023252
v 0.068897 -0.001000 0.023252
v 0.068097 0.001000 -0.030238
v 0.068097 -0.001000 -0.030238
v 0.079012 0.001000 0.037521
v 0.079012 -0.001000 0.037521
v 0.068897 0.001000 0.023252
v 0.068897 -0.001000 0.023252
v 0.079375 0.001000 0.061833
v 0.079375 -0.001000 0.061833
v 0.079012 0.001000 0.037521
v 0.079012 -0.001000 0.037521
v 0.082505 0.001000 0.061786
v 0.082505 -0.001000 0.061786
v 0.079375 0.001000 0.061833
v 0.079375 -0.001000 0.061833
v 0.082522 0.001000 0.062969
v 0.082522 -0.001000 0.062969
v 0.082505 0.001000 0.061786
v 0.082505 -0.001000 0.061786
v 0.082522 0.001000 0.062969
v 0.058209 0.001000 0.089706
v 0.082522 -0.001000 0.062969
v 0.058209 -0.001000 0.089706
v 0.058209 0.001000 0.089706
v 0.056107 0.001000 0.089721
v 0.058209 -0.001000 0.089706
v 0.056107 -0.001000 0.089721
v 0.056059 0.001000 0.086495
v 0.056059 -0.001000 0.086495
v 0.056107 0.001000 0.089721
v 0.056107 -0.001000 0.089721
v 0.051886 0.001000 0.086558
v 0.051886 -0.001000 0.086558
v 0.056059 0.001000 0.086495
v 0.056059 -0.001000 0.086495
v 0.051886 0.001000 0.086541
v 0.051886 -0.001000 0.086541
v 0.051886 0.001000 0.086558
v 0.051886 -0.001000 0.086558
v 0.051886 0.001000 0.086541
v 0.031468 0.001000 0.086847
v 0.051886 -0.001000 0.086541
v 0.031468 -0.001000 0.086847
v 0.020260 0.001000 0.070780
v 0.020260 -0.001000 0.070780
v 0.031468 0.001000 0.086847
v 0.031468 -0.001000 0.086847
v 0.020260 0.001000 0.070780
v -0.036894 0.001000 0.071636
v 0.020260 -0.001000 0.070780
v -0.036894 -0.001000 0.071636
v -0.036894 0.001000 0.071636
v -0.047618 0.001000 0.088032
v -0.036894 -0.001000 0.071636
v -0.047618 -0.001000 0.088032
v -0.068195 0.001000 0.088340
v -0.068195 -0.001000 0.088340
v -0.047618 0.001000 0.088032
v -0.047618 -0.001000 0.088032
v -0.068195 0.001000 0.088357
v -0.068195 -0.001000 0.088357
v -0.068195 0.001000 0.088340
v -0.068195 -0.001000 0.088340
v -0.068195 0.001000 0.088357
v -0.072367 0.001000 0.088419
v -0.068195 -0.001000 0.088357
v -0.072367 -0.001000 0.088419
v -0.047184 -0.001000 -0.104655
v -0.033890 -0.001000 -0.085599
v -0.047184 0.001000 -0.104655
v -0.033890 0.001000 -0.085599
v -0.033890 -0.001000 -0.085599
v 0.012549 -0.001000 -0.086294
v -0.033890 0.001000 -0.085599
v 0.012549 0.001000 -0.086294
v 0.012549 -0.001000 -0.086294
v 0.015729 0.000000 -0.091155
v 0.015729 -0.001000 -0.091155
v 0.012549 0.001000 -0.086294
v 0.015729 0.001000 -0.091155
v 0.018908 0.001000 -0.096017
v 0.018908 0.000000 -0.096017
v 0.022088 0.001000 -0.100879
v 0.022088 0.000000 -0.100879
v 0.025267 0.001000 -0.105740
v 0.025267 -0.001000 -0.105740
v 0.022088 -0.001000 -0.100879
v 0.018908 -0.001000 -0.096017
v 0.059610 -0.001000 -0.106527
v 0.090552 -0.001000 -0.074483
v 0.059610 0.001000 -0.106527
v 0.090552 0.001000 -0.074483
v 0.090552 -0.001000 -0.074483
v 0.090780 -0.001000 -0.059228
v 0.090552 0.001000 -0.074483
v 0.090780 0.001000 -0.059228
v 0.090780 -0.001000 -0.059228
v 0.087651 -0.001000 -0.059181
v 0.090780 0.001000 -0.059228
v 0.087651 0.001000 -0.059181
v 0.087682 -0.001000 -0.057095
v 0.090812 -0.001000 -0.057142
v 0.087682 0.001000 -0.057095
v 0.090812 0.001000 -0.057142
v 0.090812 -0.001000 -0.057142
v 0.090843 -0.001000 -0.055056
v 0.090812 0.001000 -0.057142
v 0.090843 0.001000 -0.055056
v 0.090843 -0.001000 -0.055056
v 0.087714 -0.001000 -0.055009
v 0.090843 0.001000 -0.055056
v 0.087714 0.001000 -0.055009
v 0.087714 -0.001000 -0.055009
v 0.087745 -0.001000 -0.052923
v 0.087714 0.001000 -0.055009
v 0.087745 0.001000 -0.052923
v 0.087745 -0.001000 -0.052923
v 0.090874 -0.001000 -0.052969
v 0.087745 0.001000 -0.052923
v 0.090874 0.001000 -0.052969
v 0.090874 -0.001000 -0.052969
v 0.090972 -0.001000 -0.046431
v 0.090874 0.001000 -0.052969
v 0.090972 0.001000 -0.046431
v 0.090972 -0.001000 -0.046431
v 0.078229 -0.001000 -0.027260
v 0.090972 0.001000 -0.046431
v 0.078229 0.001000 -0.027260
v 0.078229 -0.001000 -0.027260
v 0.078317 0.000000 -0.021356
v 0.078317 -0.001000 -0.021356
v 0.078229 0.001000 -0.027260
v 0.078317 0.001000 -0.021356
v 0.078405 0.001000 -0.015452
v 0.078405 0.000000 -0.015452
v 0.078582 0.001000 -0.003644
v 0.078582 -0.001000 -0.003644
v 0.078759 -0.000000 0.008164
v 0.078759 0.001000 0.008164
v 0.078847 0.001000 0.014068
v 0.078936 0.001000 0.019972
v 0.078847 -0.000000 0.014068
v 0.078936 -0.001000 0.019972
v 0.078847 -0.001000 0.014068
v 0.078759 -0.001000 0.008164
v 0.078405 -0.001000 -0.015452
v 0.078936 -0.001000 0.019972
v 0.092247 -0.001000 0.038753
v 0.078936 0.001000 0.019972
v 0.092247 0.001000 0.038753
v 0.092247 -0.001000 0.038753
v 0.092345 -0.001000 0.045291
v 0.092247 0.001000 0.038753
v 0.092345 0.001000 0.045291
v 0.092345 -0.001000 0.045291
v 0.089216 -0.001000 0.045338
v 0.092345 0.001000 0.045291
v 0.089216 0.001000 0.045338
v 0.089216 -0.001000 0.045338
v 0.089247 -0.001000 0.047424
v 0.089216 0.001000 0.045338
v 0.089247 0.001000 0.047424
v 0.089247 -0.001000 0.047424
v 0.092376 -0.001000 0.047377
v 0.089247 0.001000 0.047424
v 0.092376 0.001000 0.047377
v 0.092376 -0.001000 0.047377
v 0.092408 -0.001000 0.049463
v 0.092376 0.001000 0.047377
v 0.092408 0.001000 0.049463
v 0.092408 -0.001000 0.049463
v 0.089278 -0.001000 0.049510
v 0.092408 0.001000 0.049463
v 0.089278 0.001000 0.049510
v 0.089278 -0.001000 0.049510
v 0.089310 -0.001000 0.051596
v 0.089278 0.001000 0.049510
v 0.089310 0.001000 0.051596
v 0.089310 -0.001000 0.051596
v 0.092439 -0.001000 0.051550
v 0.089310 0.001000 0.051596
v 0.092439 0.001000 0.051550
v 0.092439 -0.001000 0.051550
v 0.092667 -0.001000 0.066805
v 0.092439 0.001000 0.051550
v 0.092667 0.001000 0.066805
v 0.092667 -0.001000 0.066805
v 0.062698 -0.001000 0.099761
v 0.092667 0.001000 0.066805
v 0.062698 0.001000 0.099761
v 0.062698 -0.001000 0.099761
v 0.046172 -0.001000 0.099877
v 0.062698 0.001000 0.099761
v 0.046172 0.001000 0.099877
v 0.046172 -0.001000 0.099877
v 0.046148 -0.001000 0.098304
v 0.046172 0.001000 0.099877
v 0.046148 0.001000 0.098304
v 0.046124 0.001000 0.096731
v 0.046124 -0.001000 0.096731
v 0.046124 -0.001000 0.096731
v 0.044038 -0.001000 0.096762
v 0.046124 0.001000 0.096731
v 0.044038 0.001000 0.096762
v 0.044038 -0.001000 0.096762
v 0.044062 -0.001000 0.098327
v 0.044038 0.001000 0.096762
v 0.044062 0.001000 0.098327
v 0.044085 0.001000 0.099892
v 0.044085 -0.001000 0.099892
v 0.044085 -0.001000 0.099892
v 0.041999 -0.001000 0.099906
v 0.044085 0.001000 0.099892
v 0.041999 0.001000 0.099906
v 0.041999 -0.001000 0.099906
v 0.041952 -0.001000 0.096777
v 0.041999 0.001000 0.099906
v 0.041952 0.001000 0.096777
v 0.041952 -0.001000 0.096777
v 0.039866 -0.001000 0.096808
v 0.041952 0.001000 0.096777
v 0.039866 0.001000 0.096808
v 0.039866 -0.001000 0.096808
v 0.039888 -0.001000 0.099921
v 0.039866 0.001000 0.096808
v 0.039888 0.001000 0.099921
v 0.039888 -0.001000 0.099921
v 0.028348 -0.001000 0.100002
v 0.039888 0.001000 0.099921
v 0.028348 0.001000 0.100002
v 0.028348 -0.001000 0.100002
v 0.015053 -0.001000 0.080945
v 0.028348 0.001000 0.100002
v 0.015053 0.001000 0.080945
v 0.015053 -0.001000 0.080945
v -0.031386 -0.001000 0.081641
v 0.015053 0.001000 0.080945
v -0.031386 0.001000 0.081641
v -0.031386 -0.001000 0.081641
v -0.034565 -0.000000 0.086502
v -0.034565 -0.001000 0.086502
v -0.031386 0.001000 0.081641
v -0.034565 0.001000 0.086502
v -0.037745 0.001000 0.091364
v -0.037745 -0.000000 0.091364
v -0.040924 0.001000 0.096225
v -0.040924 -0.000000 0.096225
v -0.044104 0.001000 0.101087
v -0.044104 -0.001000 0.101087
v -0.040924 -0.001000 0.096225
v -0.037745 -0.001000 0.091364
v -0.044104 -0.001000 0.101087
v -0.055826 -0.001000 0.101356
v -0.044104 0.001000 0.101087
v -0.055826 0.001000 0.101356
v -0.055826 -0.001000 0.101356
v -0.055873 -0.001000 0.098243
v -0.055826 0.001000 0.101356
v -0.055873 0.001000 0.098243
v -0.055873 -0.001000 0.098243
v -0.057959 -0.001000 0.098274
v -0.055873 0.001000 0.098243
v -0.057959 0.001000 0.098274
v -0.057959 -0.001000 0.098274
v -0.057936 -0.001000 0.099839
v -0.057959 0.001000 0.098274
v -0.057936 0.001000 0.099839
v -0.057912 0.001000 0.101403
v -0.057912 -0.001000 0.101403
v -0.057912 -0.001000 0.101403
v -0.059998 -0.001000 0.101451
v -0.057912 0.001000 0.101403
v -0.059998 0.001000 0.101451
v -0.059998 -0.001000 0.101451
v -0.060021 -0.001000 0.099887
v -0.059998 0.001000 0.101451
v -0.060021 0.001000 0.099887
v -0.060045 0.001000 0.098322
v -0.060045 -0.001000 0.098322
v -0.060045 -0.001000 0.098322
v -0.062131 -0.001000 0.098353
v -0.060045 0.001000 0.098322
v -0.062131 0.001000 0.098353
v -0.062131 -0.001000 0.098353
v -0.062084 -0.001000 0.101499
v -0.062131 0.001000 0.098353
v -0.062084 0.001000 0.101499
v -0.062084 -0.001000 0.101499
v -0.078446 -0.001000 0.101874
v -0.062084 0.001000 0.101499
v -0.078446 0.001000 0.101874
v -0.109808 -0.001000 0.041778
v -0.106581 -0.001000 0.048269
v -0.109710 -0.001000 0.048316
v -0.096615 -0.001000 0.040151
v -0.097065 -0.001000 0.022607
v -0.097772 -0.001000 -0.024625
v -0.094052 -0.001000 0.023493
v -0.094786 -0.001000 -0.025600
v -0.089947 -0.001000 0.024699
v -0.087734 -0.001000 -0.027905
v -0.086933 -0.001000 0.025585
v -0.090720 -0.001000 -0.026929
v -0.097848 -0.001000 -0.042174
v -0.108052 -0.001000 -0.049991
v -0.098212 -0.001000 -0.066486
v -0.101014 -0.001000 -0.053226
v -0.111084 -0.001000 -0.043406
v -0.111182 -0.001000 -0.049944
v -0.101167 -0.001000 -0.063441
v -0.105100 -0.001000 -0.053165
v -0.105191 -0.001000 -0.059294
v -0.108146 -0.001000 -0.056250
v -0.108115 -0.001000 -0.054163
v -0.108084 -0.001000 -0.052077
v -0.111213 -0.001000 -0.052030
v -0.111244 -0.001000 -0.054117
v -0.111275 -0.001000 -0.056203
v -0.108321 -0.001000 -0.059247
v -0.111504 -0.001000 -0.071458
v -0.108486 -0.001000 -0.070317
v -0.080200 -0.001000 -0.101423
v -0.081535 -0.001000 -0.104414
v -0.068124 -0.001000 -0.101508
v -0.068076 -0.001000 -0.098339
v -0.065121 -0.001000 -0.101383
v -0.065169 -0.001000 -0.104529
v -0.063035 -0.001000 -0.101414
v -0.063904 -0.001000 -0.098401
v -0.061947 -0.001000 -0.098414
v -0.063904 -0.001000 -0.098385
v -0.058863 -0.001000 -0.101460
v -0.060949 -0.001000 -0.101429
v -0.061886 -0.001000 -0.094328
v -0.070883 -0.001000 -0.091193
v -0.050306 -0.001000 -0.091501
v -0.067928 -0.001000 -0.094238
v -0.070883 -0.001000 -0.091210
v -0.072101 -0.001000 -0.094192
v -0.067929 -0.001000 -0.094254
v -0.072149 -0.001000 -0.097394
v -0.075104 -0.001000 -0.094373
v -0.075055 -0.001000 -0.091147
v -0.077045 -0.001000 -0.094359
v -0.078381 -0.001000 -0.097350
v -0.104376 -0.001000 -0.068763
v -0.101341 -0.001000 -0.066439
v -0.101359 -0.001000 -0.067622
v -0.104296 -0.001000 -0.063394
v -0.037548 -0.001000 -0.078457
v -0.039096 -0.001000 -0.075433
v -0.035438 -0.001000 -0.082575
v -0.033890 -0.001000 -0.085599
v -0.047184 -0.001000 -0.104655
v -0.058909 -0.001000 -0.104573
v 0.012549 -0.001000 -0.086294
v 0.025267 -0.001000 -0.105740
v 0.014188 -0.001000 -0.083318
v 0.028780 -0.001000 -0.092684
v 0.036876 -0.001000 -0.102892
v 0.016419 -0.001000 -0.079265
v 0.018058 -0.001000 -0.076289
v 0.049198 -0.001000 -0.092990
v 0.040111 -0.001000 -0.095854
v 0.046154 -0.001000 -0.095944
v 0.040050 -0.001000 -0.099940
v 0.038962 -0.001000 -0.102924
v 0.042006 -0.001000 -0.099986
v 0.042007 -0.001000 -0.099969
v 0.041048 -0.001000 -0.102971
v 0.043134 -0.001000 -0.103003
v 0.041001 -0.001000 -0.106101
v 0.038915 -0.001000 -0.106053
v 0.043087 -0.001000 -0.106149
v 0.046179 -0.001000 -0.100048
v 0.046131 -0.001000 -0.103218
v 0.058365 -0.001000 -0.103498
v 0.059610 -0.001000 -0.106527
v 0.090552 -0.001000 -0.074483
v 0.090780 -0.001000 -0.059228
v 0.087570 -0.001000 -0.073253
v 0.087736 -0.001000 -0.062183
v 0.087651 -0.001000 -0.059181
v 0.084607 -0.001000 -0.062136
v 0.084698 -0.001000 -0.056007
v 0.080613 -0.001000 -0.055946
v 0.087745 -0.001000 -0.052923
v 0.087714 -0.001000 -0.055009
v 0.087682 -0.001000 -0.057095
v 0.090812 -0.001000 -0.057142
v 0.090843 -0.001000 -0.055056
v 0.090972 -0.001000 -0.046431
v 0.090874 -0.001000 -0.052969
v 0.077779 -0.001000 -0.044804
v 0.078229 -0.001000 -0.027260
v 0.077415 -0.001000 -0.069115
v 0.075215 -0.001000 -0.028146
v 0.071110 -0.001000 -0.029352
v 0.068097 -0.001000 -0.030238
v 0.068897 -0.001000 0.023252
v 0.071883 -0.001000 0.022276
v 0.079012 -0.001000 0.037521
v 0.075950 -0.001000 0.020947
v 0.078936 -0.001000 0.019972
v 0.092247 -0.001000 0.038753
v 0.089216 -0.001000 0.045338
v 0.092345 -0.001000 0.045291
v 0.089247 -0.001000 0.047424
v 0.082177 -0.001000 0.048573
v 0.086263 -0.001000 0.048512
v 0.089278 -0.001000 0.049510
v 0.086355 -0.001000 0.054641
v 0.089310 -0.001000 0.051596
v 0.092439 -0.001000 0.051550
v 0.089484 -0.001000 0.054594
v 0.089650 -0.001000 0.065664
v 0.092667 -0.001000 0.066805
v 0.061363 -0.001000 0.096770
v 0.049127 -0.001000 0.096856
v 0.062698 -0.001000 0.099761
v 0.046172 -0.001000 0.099877
v 0.046124 -0.001000 0.096731
v 0.044038 -0.001000 0.096762
v 0.044907 -0.001000 0.093749
v 0.049079 -0.001000 0.093687
v 0.042950 -0.001000 0.093762
v 0.044907 -0.001000 0.093733
v 0.042889 -0.001000 0.089676
v 0.039866 -0.001000 0.096808
v 0.041952 -0.001000 0.096777
v 0.041999 -0.001000 0.099906
v 0.044085 -0.001000 0.099892
v 0.028348 -0.001000 0.100002
v 0.039888 -0.001000 0.099921
v 0.031468 -0.001000 0.086847
v 0.051886 -0.001000 0.086541
v 0.016602 -0.001000 0.077922
v 0.015053 -0.001000 0.080945
v 0.020260 -0.001000 0.070780
v 0.018711 -0.001000 0.073804
v -0.035256 -0.001000 0.074612
v -0.036894 -0.001000 0.071636
v -0.047618 -0.001000 0.088032
v -0.033024 -0.001000 0.078665
v -0.031386 -0.001000 0.081641
v -0.044104 -0.001000 0.101087
v -0.055873 -0.001000 0.098243
v -0.055826 -0.001000 0.101356
v -0.057959 -0.001000 0.098274
v -0.059047 -0.001000 0.095290
v -0.059108 -0.001000 0.091204
v -0.065151 -0.001000 0.091295
v -0.068195 -0.001000 0.088340
v -0.068195 -0.001000 0.088357
v -0.072367 -0.001000 0.088419
v -0.069323 -0.001000 0.091374
v -0.065150 -0.001000 0.091311
v -0.072319 -0.001000 0.091645
v -0.069275 -0.001000 0.094576
v -0.075505 -0.001000 0.094719
v -0.074260 -0.001000 0.091689
v -0.102345 -0.001000 0.066923
v -0.099363 -0.001000 0.065692
v -0.102425 -0.001000 0.061554
v -0.099381 -0.001000 0.064509
v -0.096251 -0.001000 0.064462
v -0.099296 -0.001000 0.061507
v -0.099449 -0.001000 0.051293
v -0.103535 -0.001000 0.051354
v -0.106550 -0.001000 0.050356
v -0.103443 -0.001000 0.057483
v -0.106519 -0.001000 0.052442
v -0.106488 -0.001000 0.054528
v -0.106572 -0.001000 0.057529
v -0.109617 -0.001000 0.054575
v -0.109388 -0.001000 0.069830
v -0.106407 -0.001000 0.068600
v -0.077201 -0.001000 0.098845
v -0.078446 -0.001000 0.101874
v -0.065128 -0.001000 0.098568
v -0.062084 -0.001000 0.101499
v -0.062131 -0.001000 0.098353
v -0.061003 -0.001000 0.095336
v -0.065175 -0.001000 0.095399
v -0.060045 -0.001000 0.098322
v -0.059998 -0.001000 0.101451
v -0.057912 -0.001000 0.101403
v -0.061004 -0.001000 0.095320
v -0.109648 -0.001000 0.052489
v -0.109679 -0.001000 0.050402
v 0.051886 -0.001000 0.086558
v 0.048932 -0.001000 0.089586
v 0.048932 -0.001000 0.089602
v 0.053104 -0.001000 0.089540
v 0.053152 -0.001000 0.092741
v 0.056107 -0.001000 0.089721
v 0.056059 -0.001000 0.086495
v 0.058209 -0.001000 0.089706
v 0.059544 -0.001000 0.092697
v 0.085540 -0.001000 0.064110
v 0.085459 -0.001000 0.058741
v 0.082505 -0.001000 0.061786
v 0.082522 -0.001000 0.062969
v 0.079375 -0.001000 0.061833
v 0.082330 -0.001000 0.058788
v 0.092408 -0.001000 0.049463
v 0.092376 -0.001000 0.047377
v 0.080544 -0.001000 -0.069162
v 0.080460 -0.001000 -0.066160
v 0.083589 -0.001000 -0.066207
v 0.083508 -0.001000 -0.071576
v 0.055423 -0.001000 -0.096342
v 0.080526 -0.001000 -0.070345
v 0.056669 -0.001000 -0.099372
v 0.053322 -0.001000 -0.096294
v 0.050278 -0.001000 -0.099225
v 0.050326 -0.001000 -0.096023
v 0.053370 -0.001000 -0.093069
v 0.046154 -0.001000 -0.095961
v 0.049198 -0.001000 -0.093006
v 0.036805 -0.001000 -0.106005
v -0.060996 -0.001000 -0.104558
v -0.063082 -0.001000 -0.104544
vn 0.000000 1.000000 0.000000
vn 0.000000 1.000000 0.000000
vn 0.000000 1.000000 0.000000
vn 0.000000 1.000000 0.000000
vn 0.000000 1.000000 0.000000
vn 0.000000 1.000000 0.000000
vn 0.000000 1.000000 0.000000
vn 0.000000 1.000000 0.000000
vn 0.000000 1.000000 0.000000
vn 0.000000 1.000000 0.000000
vn 0.000000 1.000000 0.000000
vn 0.000000 1.000000 0.000000
vn 0.000000 1.000000 0.000000
vn 0.000000 1.000000 0.000000
vn 0.000000 1.000000 0.000000
vn 0.000000 1.000000 0.000000
vn 0.000000 1.000000 0.000000
vn 0.000000 1.000000 0.000000
vn 0.000000 1.000000 0.000000
vn 0.000000 1.000000 0.000000
vn 0.000000 1.000000 0.000000
vn 0.000000 1.000000 0.000000
vn 0.000000 1.000000 0.000000
vn 0.000000 1.000000 0.000000
vn 0.000000 1.000000 0.000000
vn 0.000000 1.000000 0.000000
vn 0.000000 1.000000 0.000000
vn 0.000000 1.000000 0.000000
vn 0.000000 1.000000 0.000000
vn 0.000000 1.000000 0.000000
vn 0.000000 1.000000 0.000000
vn 0.000000 1.000000 0.000000
vn 0.000000 1.000000 0.000000
vn 0.000000 1.000000 0.000000
vn 0.000000 1.000000 0.000000
vn 0.000000 1.000000 0.000000
vn 0.000000 1.000000 0.000500
vn 0.000000 1.000000 0.000000
vn 0.000000 1.000000 0.000000
vn 0.000000 1.000000 0.000000
vn 0.000000 1.000000 0.000000
vn 0.000000 1.000000 0.000000
vn 0.000000 1.000000 0.000000
vn 0.000000 1.000000 0.000000
vn 0.000000 1.000000 0.000000
vn 0.000000 1.000000 0.000000
vn 0.000000 1.000000 0.000000
vn 0.000000 1.000000 0.000000
vn 0.000000 1.000000 0.000000
vn 0.000000 1.000000 0.000000
vn 0.000000 1.000000 0.000000
vn 0.000000 1.000000 0.000000
vn 0.000000 1.000000 0.000900
vn 0.000000 1.000000 0.000000
vn 0.000000 1.000000 0.000000
vn 0.000000 1.000000 0.000000
vn 0.000000 1.000000 0.000000
vn 0.000000 1.000000 0.000000
vn 0.000000 1.000000 0.000000
vn 0.000000 1.000000 0.000000
vn 0.000000 1.000000 0.000000
vn 0.000000 1.000000 0.000000
vn 0.000000 1.000000 0.000000
vn 0.000000 1.000000 0.000000
vn 0.000000 1.000000 0.000000
vn 0.000000 1.000000 0.000000
vn 0.000000 1.000000 -0.000900
vn 0.000000 1.000000 0.000000
vn 0.000000 1.000000 0.000000
vn 0.000000 1.000000 0.000000
vn 0.000000 1.000000 0.000000
vn 0.000000 1.000000 0.000000
vn 0.000000 1.000000 0.000000
vn 0.000000 1.000000 0.000000
vn 0.000000 1.000000 0.000000
vn 0.000000 1.000000 0.000000
vn 0.000000 1.000000 0.000000
vn 0.000000 1.000000 0.000000
vn 0.000000 1.000000 0.000000
vn 0.000000 1.000000 0.000000
vn 0.000000 1.000000 0.000000
vn 0.000000 1.000000 0.000000
vn 0.000000 1.000000 0.000000
vn 0.000000 1.000000 0.000000
vn 0.000000 1.000000 0.000000
vn 0.000000 1.000000 0.000000
vn 0.000000 1.000000 0.000000
vn 0.000000 1.000000 0.000000
vn 0.000000 1.000000 0.000000
vn 0.000000 1.000000 0.000000
vn 0.000000 1.000000 0.000000
vn 0.000000 1.000000 0.000000
vn 0.000000 1.000000 0.000000
vn 0.000000 1.000000 0.000000
vn 0.000000 1.000000 0.000000
vn 0.000000 1.000000 0.000000
vn 0.000000 1.000000 0.000000
vn 0.000000 1.000000 0.000000
vn 0.000000 1.000000 0.000000
vn 0.000000 1.000000 0.000000
vn 0.000000 1.000000 0.000000
vn 0.000000 1.000000 0.000000
vn 0.000000 1.000000 0.000000
vn 0.000000 1.000000 0.000000
vn 0.000000 1.000000 0.000000
vn 0.000000 1.000000 0.000000
vn 0.000000 1.000000 0.000000
vn 0.000000 1.000000 0.000000
vn 0.000000 1.000000 0.000000
vn 0.000000 1.000000 0.000000
vn 0.000000 1.000000 0.000000
vn 0.000000 1.000000 0.000000
vn 0.000000 1.000000 0.000000
vn 0.000000 1.000000 0.000000
vn 0.000000 1.000000 0.000000
vn 0.000000 1.000000 0.000000
vn 0.000000 1.000000 0.000000
vn 0.000000 1.000000 0.000000
vn 0.000000 1.000000 0.000000
vn 0.000000 1.000000 0.000000
vn 0.000000 1.000000 0.000000
vn 0.000000 1.000000 0.000000
vn 0.000000 1.000000 0.000000
vn 0.000000 1.000000 0.000000
vn 0.000000 1.000000 0.000000
vn 0.000000 1.000000 0.000000
vn 0.000000 1.000000 0.000000
vn 0.000000 1.000000 0.000000
vn 0.000000 1.000000 0.000000
vn 0.000000 1.000000 0.000000
vn 0.000000 1.000000 0.000000
vn 0.000000 1.000000 0.000000
vn 0.000000 1.000000 0.000000
vn 0.000000 1.000000 0.000000
vn 0.000000 1.000000 0.000000
vn 0.000000 1.000000 0.000000
vn 0.000000 1.000000 0.000000
vn 0.000000 1.000000 0.000000
vn 0.000000 1.000000 0.000000
vn 0.000000 1.000000 0.000000
vn 0.000000 1.000000 0.000000
vn 0.000000 1.000000 0.000000
vn 0.000000 1.000000 0.000000
vn 0.000000 1.000000 0.000000
vn 0.000000 1.000000 0.000000
vn 0.000000 1.000000 0.000000
vn 0.000000 1.000000 0.000000
vn 0.000000 1.000000 0.000000
vn 0.000000 1.000000 0.000000
vn 0.000000 1.000000 0.000000
vn 0.000000 1.000000 0.000000
vn 0.000000 1.000000 0.000000
vn 0.000000 1.000000 0.000000
vn 0.000000 1.000000 0.000000
vn 0.000000 1.000000 0.000000
vn 0.000000 1.000000 0.000000
vn 0.000000 1.000000 0.000000
vn 0.000000 1.000000 0.000000
vn 0.000000 1.000000 0.000000
vn 0.000000 1.000000 0.000000
vn 0.000000 1.000000 0.000000
vn 0.000000 1.000000 0.000000
vn 0.000000 1.000000 0.000000
vn 0.000000 1.000000 0.000000
vn 0.000000 1.000000 0.000000
vn 0.000000 1.000000 0.000000
vn 0.000000 1.000000 0.000000
vn 0.000000 1.000000 0.000000
vn 0.000000 1.000000 0.000000
vn 0.000000 1.000000 0.000000
vn 0.000000 1.000000 0.000000
vn 0.000000 1.000000 0.000000
vn 0.000000 1.000000 0.000000
vn 0.000000 1.000000 0.000000
vn 0.000000 1.000000 0.000000
vn 0.000000 1.000000 0.000000
vn 0.000000 1.000000 0.000000
vn 0.000000 1.000000 0.000000
vn 0.000000 1.000000 0.000000
vn 0.000000 1.000000 0.000000
vn 0.000000 1.000000 0.000000
vn 0.000000 1.000000 0.000000
vn 0.000000 1.000000 0.000000
vn 0.000000 1.000000 0.000000
vn 0.000000 1.000000 0.000000
vn 0.000000 1.000000 0.000000
vn 0.000000 1.000000 0.000000
vn 0.000000 1.000000 0.000000
vn 0.000000 1.000000 0.000000
vn 0.000000 1.000000 0.000000
vn 0.000000 1.000000 0.000000
vn 0.000000 1.000000 0.000000
vn 0.000000 1.000000 0.000000
vn 0.000000 1.000000 0.000000
vn 0.000000 1.000000 0.000000
vn 0.000000 1.000000 0.000000
vn 0.000000 1.000000 0.000000
vn 0.000000 1.000000 0.000000
vn 0.000000 1.000000 0.000000
vn 0.000000 1.000000 0.000000
vn 0.000000 1.000000 0.000000
vn 0.000000 1.000000 0.000000
vn 0.000000 1.000000 0.000000
vn 0.000000 1.000000 0.000000
vn 0.000000 1.000000 0.000000
vn 0.000000 1.000000 0.000000
vn 0.000000 1.000000 0.000000
vn 0.000000 1.000000 0.000000
vn 0.000000 1.000000 0.000000
vn 0.000000 1.000000 0.000000
vn 0.000000 1.000000 0.000000
vn 0.000000 1.000000 0.000000
vn 0.000000 1.000000 0.000000
vn 0.000000 1.000000 0.000000
vn 0.000000 1.000000 0.000000
vn 0.000000 1.000000 0.000000
vn 0.000000 1.000000 0.000000
vn 0.000000 1.000000 0.000000
vn 0.000000 1.000000 0.000000
vn 0.000000 1.000000 0.000000
vn 0.000000 1.000000 0.000000
vn 0.000000 1.000000 0.000000
vn 0.000000 1.000000 0.000000
vn 0.000000 1.000000 0.000000
vn 0.000000 1.000000 0.000000
vn 0.000000 1.000000 0.000000
vn 0.000000 1.000000 0.000000
vn 0.000000 1.000000 0.000000
vn 0.000000 1.000000 -0.000600
vn 0.000000 1.000000 0.000000
vn 0.000000 1.000000 0.000000
vn 0.000000 1.000000 0.000000
vn -0.999887 -0.000000 0.015000
vn -0.999887 -0.000000 0.015000
vn -0.999887 -0.000000 0.015000
vn -0.999887 -0.000000 0.015000
vn 0.015000 -0.000000 0.999887
vn 0.015000 -0.000000 0.999887
vn 0.015000 -0.000000 0.999887
vn 0.015000 -0.000000 0.999887
vn 0.999887 0.000000 -0.015000
vn 0.999887 0.000000 -0.015000
vn 0.999887 0.000000 -0.015000
vn 0.999887 0.000000 -0.015000
vn -0.015000 0.000000 -0.999887
vn -0.015000 0.000000 -0.999887
vn -0.015000 0.000000 -0.999887
vn -0.015000 0.000000 -0.999887
vn 0.999887 0.000000 -0.015000
vn 0.999887 0.000000 -0.015000
vn 0.999887 0.000000 -0.015000
vn 0.999887 0.000000 -0.015000
vn 0.739813 -0.000000 0.672812
vn 0.739813 -0.000000 0.672812
vn 0.739813 -0.000000 0.672812
vn 0.739813 -0.000000 0.672812
vn 0.007000 -0.000000 0.999976
vn 0.007000 -0.000000 0.999976
vn 0.007000 -0.000000 0.999976
vn 0.007000 -0.000000 0.999976
vn -0.999887 -0.000000 0.015000
vn -0.999887 -0.000000 0.015000
vn -0.999887 -0.000000 0.015000
vn -0.999887 -0.000000 0.015000
vn 0.015000 -0.000000 0.999887
vn 0.015000 -0.000000 0.999887
vn 0.015000 -0.000000 0.999887
vn 0.015000 -0.000000 0.999887
vn -0.999884 -0.000000 0.015200
vn -0.999884 -0.000000 0.015200
vn -0.999884 -0.000000 0.015200
vn -0.999884 -0.000000 0.015200
vn 0.015000 -0.000000 0.999887
vn 0.015000 -0.000000 0.999887
vn 0.015000 -0.000000 0.999887
vn 0.015000 -0.000000 0.999887
vn 0.999887 0.000000 -0.015000
vn 0.999887 0.000000 -0.015000
vn 0.999887 0.000000 -0.015000
vn 0.999887 0.000000 -0.015000
vn -0.015000 0.000000 -0.999887
vn -0.015000 0.000000 -0.999887
vn -0.015000 0.000000 -0.999887
vn -0.015000 0.000000 -0.999887
vn -0.015000 0.000000 -0.999887
vn -0.015000 0.000000 -0.999887
vn -0.015000 0.000000 -0.999887
vn -0.015000 0.000000 -0.999887
vn 0.999889 0.000000 -0.014900
vn 0.999889 0.000000 -0.014900
vn 0.999889 0.000000 -0.014900
vn 0.999889 0.000000 -0.014900
vn -0.007000 0.000000 -0.999976
vn -0.007000 0.000000 -0.999976
vn -0.007000 0.000000 -0.999976
vn -0.007000 0.000000 -0.999976
vn -0.739813 0.000000 -0.672812
vn -0.739813 0.000000 -0.672812
vn -0.739813 0.000000 -0.672812
vn -0.739813 0.000000 -0.672812
vn -0.999887 -0.000000 0.015000
vn -0.999887 -0.000000 0.015000
vn -0.999887 -0.000000 0.015000
vn -0.999887 -0.000000 0.015000
vn 0.015000 -0.000000 0.999887
vn 0.015000 -0.000000 0.999887
vn 0.015000 -0.000000 0.999887
vn 0.015000 -0.000000 0.999887
vn -0.876005 -0.000000 0.482303
vn -0.876005 -0.000000 0.482303
vn -0.876005 -0.000000 0.482303
vn -0.876005 -0.000000 0.482303
vn 0.015000 -0.000000 0.999887
vn 0.015000 -0.000000 0.999887
vn 0.015000 -0.000000 0.999887
vn 0.015000 -0.000000 0.999887
vn 0.890025 -0.000000 0.455913
vn 0.890025 -0.000000 0.455913
vn 0.890025 -0.000000 0.455913
vn 0.890025 -0.000000 0.455913
vn -0.015000 0.000000 -0.999887
vn -0.015000 0.000000 -0.999887
vn -0.015000 0.000000 -0.999887
vn -0.015000 0.000000 -0.999887
vn -0.015000 0.000000 -0.999887
vn -0.015000 0.000000 -0.999887
vn -0.015000 0.000000 -0.999887
vn -0.015000 0.000000 -0.999887
vn -0.015000 0.000000 -0.999887
vn -0.015000 0.000000 -0.999887
vn -0.015000 0.000100 -0.999887
vn -0.015000 0.000000 -0.999887
vn -0.015000 0.000000 -0.999887
vn -0.015000 0.000000 -0.999887
vn -0.015000 0.000000 -0.999887
vn -0.015000 -0.000100 -0.999887
vn 0.999887 0.000000 -0.015000
vn 0.999887 0.000000 -0.015000
vn 0.999887 0.000000 -0.015000
vn 0.999887 0.000000 -0.015000
vn 0.015000 -0.000000 0.999887
vn 0.015000 -0.000000 0.999887
vn 0.015000 -0.000000 0.999887
vn 0.015000 -0.000000 0.999887
vn 0.015000 -0.000000 0.999887
vn 0.015000 -0.000000 0.999887
vn 0.015000 -0.000000 0.999887
vn 0.015000 -0.000000 0.999887
vn -0.999887 -0.000000 0.015000
vn -0.999887 -0.000000 0.015000
vn -0.999887 -0.000000 0.015000
vn -0.999887 -0.000000 0.015000
vn -0.015000 0.000000 -0.999887
vn -0.015000 0.000000 -0.999887
vn -0.015000 0.000000 -0.999887
vn -0.015000 0.000000 -0.999887
vn -0.999892 -0.000000 0.014700
vn -0.999892 -0.000000 0.014700
vn -0.999892 -0.000000 0.014700
vn -0.999892 -0.000000 0.014700
vn -0.015000 0.000000 -0.999887
vn -0.015000 0.000000 -0.999887
vn -0.015000 0.000000 -0.999887
vn -0.015000 0.000000 -0.999887
vn -0.999887 -0.000000 0.015000
vn -0.999887 -0.000000 0.015000
vn -0.999887 -0.000000 0.015000
vn -0.999887 -0.000000 0.015000
vn -0.022901 0.000000 -0.999738
vn -0.022901 0.000000 -0.999738
vn -0.022901 0.000000 -0.999738
vn -0.022901 0.000000 -0.999738
vn 0.876005 0.000000 -0.482303
vn 0.876005 0.000000 -0.482303
vn 0.876005 0.000000 -0.482303
vn 0.876005 0.000000 -0.482303
vn 0.015000 -0.000000 0.999887
vn 0.015000 -0.000000 0.999887
vn 0.015000 -0.000000 0.999887
vn 0.015000 -0.000000 0.999887
vn 0.015000 -0.000000 0.999887
vn 0.015000 -0.000000 0.999887
vn 0.015000 -0.000000 0.999887
vn 0.015000 -0.000000 0.999887
vn 0.015000 -0.000000 0.999887
vn 0.015000 -0.000000 0.999887
vn 0.015000 -0.000000 0.999887
vn 0.015000 -0.000000 0.999887
vn 0.015000 -0.000000 0.999887
vn 0.015000 -0.000000 0.999887
vn 0.015000 -0.000000 0.999887
vn 0.015000 -0.000000 0.999887
vn -0.890025 0.000000 -0.455913
vn -0.890025 0.000000 -0.455913
vn -0.890025 0.000000 -0.455913
vn -0.890025 0.000000 -0.455913
vn -0.015000 0.000000 -0.999887
vn -0.015000 0.000000 -0.999887
vn -0.015000 0.000000 -0.999887
vn -0.015000 0.000000 -0.999887
vn -0.310582 0.000000 -0.950546
vn -0.310582 0.000000 -0.950546
vn -0.310582 0.000000 -0.950546
vn -0.310582 0.000000 -0.950546
vn 0.999887 0.000000 -0.015000
vn 0.999887 0.000000 -0.015000
vn 0.999887 0.000000 -0.015000
vn 0.999887 0.000000 -0.015000
vn -0.282004 -0.000000 0.959413
vn -0.282004 -0.000000 0.959413
vn -0.282004 -0.000000 0.959413
vn -0.282004 -0.000000 0.959413
vn -0.999887 -0.000000 0.015000
vn -0.999887 -0.000000 0.015000
vn -0.999887 -0.000000 0.015000
vn -0.999887 -0.000000 0.015000
vn 0.719398 0.000000 -0.694598
vn 0.719398 0.000000 -0.694598
vn 0.719398 0.000000 -0.694598
vn 0.719398 0.000000 -0.694598
vn 0.999887 0.000000 -0.015000
vn 0.999887 0.000000 -0.015000
vn 0.999887 0.000000 -0.015000
vn 0.999887 0.000000 -0.015000
vn 0.015000 -0.000000 0.999887
vn 0.015000 -0.000000 0.999887
vn 0.015000 -0.000000 0.999887
vn 0.015000 -0.000000 0.999887
vn 0.999887 0.000000 -0.015000
vn 0.999887 0.000000 -0.015000
vn 0.999887 0.000000 -0.015000
vn 0.999887 0.000000 -0.015000
vn -0.015000 0.000000 -0.999887
vn -0.015000 0.000000 -0.999887
vn -0.015000 0.000000 -0.999887
vn -0.015000 0.000000 -0.999887
vn -0.999887 -0.000000 0.015000
vn -0.999887 -0.000000 0.015000
vn -0.999887 -0.000000 0.015000
vn -0.999887 -0.000000 0.015000
vn -0.015000 0.000000 -0.999887
vn -0.015000 0.000000 -0.999887
vn -0.015000 0.000000 -0.999887
vn -0.015000 0.000000 -0.999887
vn -0.999887 -0.000000 0.015000
vn -0.999887 -0.000000 0.015000
vn -0.999887 -0.000000 0.015000
vn -0.999887 -0.000000 0.015000
vn -0.719398 -0.000000 0.694598
vn -0.719398 -0.000000 0.694598
vn -0.719398 -0.000000 0.694598
vn -0.719398 -0.000000 0.694598
vn 0.015000 -0.000000 0.999887
vn 0.015000 -0.000000 0.999887
vn 0.015000 -0.000000 0.999887
vn 0.015000 -0.000000 0.999887
vn -0.820109 -0.000000 0.572207
vn -0.820109 -0.000000 0.572207
vn -0.820109 -0.000000 0.572207
vn -0.820109 -0.000000 0.572207
vn 0.015000 -0.000000 0.999887
vn 0.015000 -0.000000 0.999887
vn 0.015000 -0.000000 0.999887
vn 0.015000 -0.000000 0.999887
vn 0.836926 -0.000000 0.547317
vn 0.836926 -0.000000 0.547317
vn 0.836926 -0.000000 0.547317
vn 0.836926 -0.000000 0.547317
vn 0.015000 -0.000000 0.999887
vn 0.015000 -0.000000 0.999887
vn 0.015000 -0.000000 0.999887
vn 0.015000 -0.000000 0.999887
vn -0.719398 -0.000000 0.694598
vn -0.719398 -0.000000 0.694598
vn -0.719398 -0.000000 0.694598
vn -0.719398 -0.000000 0.694598
vn -0.015000 0.000000 -0.999887
vn -0.015000 0.000000 -0.999887
vn -0.015000 0.000000 -0.999887
vn -0.015000 0.000000 -0.999887
vn -0.999887 -0.000000 0.015000
vn -0.999887 -0.000000 0.015000
vn -0.999887 -0.000000 0.015000
vn -0.999887 -0.000000 0.015000
vn -0.832788 0.000000 -0.553592
vn -0.832788 0.000000 -0.553592
vn -0.832788 0.000000 -0.553592
vn -0.832788 0.000000 -0.553592
vn -0.999887 -0.000000 0.015000
vn -0.999887 -0.000000 0.015000
vn -0.999887 -0.000000 0.015000
vn -0.999887 -0.000000 0.015000
vn -0.815816 -0.000000 0.578311
vn -0.815816 -0.000000 0.578311
vn -0.815816 -0.000000 0.578311
vn -0.815816 -0.000000 0.578311
vn -0.999887 -0.000000 0.015000
vn -0.999887 -0.000000 0.015000
vn -0.999887 -0.000000 0.015000
vn -0.999887 -0.000000 0.015000
vn 0.015000 -0.000000 0.999887
vn 0.015000 -0.000000 0.999887
vn 0.015000 -0.000000 0.999887
vn 0.015000 -0.000000 0.999887
vn -0.999887 -0.000000 0.015000
vn -0.999887 -0.000000 0.015000
vn -0.999887 -0.000000 0.015000
vn -0.999887 -0.000000 0.015000
vn -0.739813 0.000000 -0.672812
vn -0.739813 0.000000 -0.672812
vn -0.739813 0.000000 -0.672812
vn -0.739813 0.000000 -0.672812
vn -0.007000 0.000000 -0.999976
vn -0.007000 0.000000 -0.999976
vn -0.007000 0.000000 -0.999976
vn -0.007000 0.000000 -0.999976
vn 0.999889 0.000000 -0.014900
vn 0.999889 0.000000 -0.014900
vn 0.999889 0.000000 -0.014900
vn 0.999889 0.000000 -0.014900
vn -0.015000 0.000000 -0.999887
vn -0.015000 0.000000 -0.999887
vn -0.015000 0.000000 -0.999887
vn -0.015000 0.000000 -0.999887
vn 0.999892 0.000000 -0.014700
vn 0.999892 0.000000 -0.014700
vn 0.999892 0.000000 -0.014700
vn 0.999892 0.000000 -0.014700
vn -0.015000 0.000000 -0.999887
vn -0.015000 0.000000 -0.999887
vn -0.015000 0.000000 -0.999887
vn -0.015000 0.000000 -0.999887
vn 0.820109 0.000000 -0.572207
vn 0.820109 0.000000 -0.572207
vn 0.820109 0.000000 -0.572207
vn 0.820109 0.000000 -0.572207
vn -0.015000 0.000000 -0.999887
vn -0.015000 0.000000 -0.999887
vn -0.015000 0.000000 -0.999887
vn -0.015000 0.000000 -0.999887
vn -0.836880 0.000000 -0.547387
vn -0.836880 0.000000 -0.547387
vn -0.836880 0.000000 -0.547387
vn -0.836880 0.000000 -0.547387
vn -0.015000 0.000000 -0.999887
vn -0.015000 0.000000 -0.999887
vn -0.015000 0.000000 -0.999887
vn -0.015000 0.000000 -0.999887
vn -0.999892 -0.000000 0.014700
vn -0.999892 -0.000000 0.014700
vn -0.999892 -0.000000 0.014700
vn -0.999892 -0.000000 0.014700
vn -0.015000 0.000000 -0.999887
vn -0.015000 0.000000 -0.999887
vn -0.015000 0.000000 -0.999887
vn -0.015000 0.000000 -0.999887
vn 0.820109 0.000000 -0.572207
vn 0.820109 0.000000 -0.572207
vn 0.820109 0.000000 -0.572207
vn 0.820109 0.000000 -0.572207
vn -0.015000 0.000000 -0.999887
vn -0.015000 0.000000 -0.999887
vn -0.015000 0.000000 -0.999887
vn -0.015000 0.000000 -0.999887
vn -0.836926 0.000000 -0.547317
vn -0.836926 0.000000 -0.547317
vn -0.836926 0.000000 -0.547317
vn -0.836926 0.000000 -0.547317
vn -0.836926 0.000000 -0.547317
vn -0.836926 0.000000 -0.547317
vn -0.836926 0.000000 -0.547317
vn -0.836926 0.000000 -0.547317
vn -0.836926 0.000000 -0.547317
vn -0.836926 0.000000 -0.547317
vn -0.836926 0.000000 -0.547317
vn -0.836926 0.000000 -0.547317
vn -0.836926 0.000000 -0.547317
vn 0.719398 0.000000 -0.694598
vn 0.719398 0.000000 -0.694598
vn 0.719398 0.000000 -0.694598
vn 0.719398 0.000000 -0.694598
vn 0.999887 0.000000 -0.015000
vn 0.999887 0.000000 -0.015000
vn 0.999887 0.000000 -0.015000
vn 0.999887 0.000000 -0.015000
vn 0.015000 -0.000000 0.999887
vn 0.015000 -0.000000 0.999887
vn 0.015000 -0.000000 0.999887
vn 0.015000 -0.000000 0.999887
vn -0.015000 0.000000 -0.999887
vn -0.015000 0.000000 -0.999887
vn -0.015000 0.000000 -0.999887
vn -0.015000 0.000000 -0.999887
vn 0.999887 0.000000 -0.015000
vn 0.999887 0.000000 -0.015000
vn 0.999887 0.000000 -0.015000
vn 0.999887 0.000000 -0.015000
vn 0.015000 -0.000000 0.999887
vn 0.015000 -0.000000 0.999887
vn 0.015000 -0.000000 0.999887
vn 0.015000 -0.000000 0.999887
vn 0.999887 0.000000 -0.015000
vn 0.999887 0.000000 -0.015000
vn 0.999887 0.000000 -0.015000
vn 0.999887 0.000000 -0.015000
vn -0.015000 0.000000 -0.999887
vn -0.015000 0.000000 -0.999887
vn -0.015000 0.000000 -0.999887
vn -0.015000 0.000000 -0.999887
vn 0.999887 0.000000 -0.015000
vn 0.999887 0.000000 -0.015000
vn 0.999887 0.000000 -0.015000
vn 0.999887 0.000000 -0.015000
vn 0.832788 -0.000000 0.553592
vn 0.832788 -0.000000 0.553592
vn 0.832788 -0.000000 0.553592
vn 0.832788 -0.000000 0.553592
vn 0.999887 0.000000 -0.015000
vn 0.999887 0.000000 -0.015000
vn 0.999887 0.000000 -0.015000
vn 0.999887 0.000000 -0.015000
vn 0.999887 0.000000 -0.015000
vn 0.999887 0.000000 -0.015000
vn 0.999887 0.000000 -0.015000
vn 0.999887 0.000000 -0.015000
vn 0.999887 0.000000 -0.015000
vn 0.999887 0.000000 -0.015000
vn 0.999887 0.000000 -0.015000
vn 0.999887 0.000000 -0.015000
vn 0.999887 0.000000 -0.015000
vn 0.999887 0.000000 -0.015000
vn 0.999887 0.000000 -0.015000
vn 0.999887 0.000000 -0.015000
vn 0.999887 0.000000 -0.015000
vn 0.999887 0.000000 -0.015000
vn 0.815816 0.000000 -0.578311
vn 0.815816 0.000000 -0.578311
vn 0.815816 0.000000 -0.578311
vn 0.815816 0.000000 -0.578311
vn 0.999887 0.000000 -0.015000
vn 0.999887 0.000000 -0.015000
vn 0.999887 0.000000 -0.015000
vn 0.999887 0.000000 -0.015000
vn 0.015000 -0.000000 0.999887
vn 0.015000 -0.000000 0.999887
vn 0.015000 -0.000000 0.999887
vn 0.015000 -0.000000 0.999887
vn 0.999887 0.000000 -0.015000
vn 0.999887 0.000000 -0.015000
vn 0.999887 0.000000 -0.015000
vn 0.999887 0.000000 -0.015000
vn -0.015000 0.000000 -0.999887
vn -0.015000 0.000000 -0.999887
vn -0.015000 0.000000 -0.999887
vn -0.015000 0.000000 -0.999887
vn 0.999887 0.000000 -0.015000
vn 0.999887 0.000000 -0.015000
vn 0.999887 0.000000 -0.015000
vn 0.999887 0.000000 -0.015000
vn 0.015000 -0.000000 0.999887
vn 0.015000 -0.000000 0.999887
vn 0.015000 -0.000000 0.999887
vn 0.015000 -0.000000 0.999887
vn 0.999887 0.000000 -0.015000
vn 0.999887 0.000000 -0.015000
vn 0.999887 0.000000 -0.015000
vn 0.999887 0.000000 -0.015000
vn -0.015000 0.000000 -0.999887
vn -0.015000 0.000000 -0.999887
vn -0.015000 0.000000 -0.999887
vn -0.015000 0.000000 -0.999887
vn 0.999887 0.000000 -0.015000
vn 0.999887 0.000000 -0.015000
vn 0.999887 0.000000 -0.015000
vn 0.999887 0.000000 -0.015000
vn 0.739813 -0.000000 0.672812
vn 0.739813 -0.000000 0.672812
vn 0.739813 -0.000000 0.672812
vn 0.739813 -0.000000 0.672812
vn 0.007000 -0.000000 0.999976
vn 0.007000 -0.000000 0.999976
vn 0.007000 -0.000000 0.999976
vn 0.007000 -0.000000 0.999976
vn -0.999887 -0.000000 0.015000
vn -0.999887 -0.000000 0.015000
vn -0.999887 -0.000000 0.015000
vn -0.999887 -0.000000 0.015000
vn -0.999887 -0.000000 0.015000
vn -0.999887 -0.000000 0.015000
vn 0.015000 -0.000000 0.999887
vn 0.015000 -0.000000 0.999887
vn 0.015000 -0.000000 0.999887
vn 0.015000 -0.000000 0.999887
vn 0.999887 0.000000 -0.015000
vn 0.999887 0.000000 -0.015000
vn 0.999887 0.000000 -0.015000
vn 0.999887 0.000000 -0.015000
vn 0.999887 0.000000 -0.015000
vn 0.999887 0.000000 -0.015000
vn 0.007000 -0.000000 0.999976
vn 0.007000 -0.000000 0.999976
vn 0.007000 -0.000000 0.999976
vn 0.007000 -0.000000 0.999976
vn -0.999889 -0.000000 0.014900
vn -0.999889 -0.000000 0.014900
vn -0.999889 -0.000000 0.014900
vn -0.999889 -0.000000 0.014900
vn 0.015000 -0.000000 0.999887
vn 0.015000 -0.000000 0.999887
vn 0.015000 -0.000000 0.999887
vn 0.015000 -0.000000 0.999887
vn 0.999976 0.000000 -0.007000
vn 0.999976 0.000000 -0.007000
vn 0.999976 0.000000 -0.007000
vn 0.999976 0.000000 -0.007000
vn 0.007000 -0.000000 0.999976
vn 0.007000 -0.000000 0.999976
vn 0.007000 -0.000000 0.999976
vn 0.007000 -0.000000 0.999976
vn -0.820109 -0.000000 0.572207
vn -0.820109 -0.000000 0.572207
vn -0.820109 -0.000000 0.572207
vn -0.820109 -0.000000 0.572207
vn 0.015000 -0.000000 0.999887
vn 0.015000 -0.000000 0.999887
vn 0.015000 -0.000000 0.999887
vn 0.015000 -0.000000 0.999887
vn 0.836926 -0.000000 0.547317
vn 0.836880 -0.000000 0.547387
vn 0.836880 -0.000000 0.547387
vn 0.836926 -0.000000 0.547317
vn 0.836880 -0.000000 0.547387
vn 0.836880 -0.000000 0.547387
vn 0.836880 -0.000000 0.547387
vn 0.836926 -0.000000 0.547317
vn 0.836926 -0.000000 0.547317
vn 0.836926 -0.000000 0.547317
vn 0.836926 -0.000000 0.547317
vn 0.836926 -0.000000 0.547317
vn 0.836880 -0.000000 0.547387
vn 0.022901 -0.000000 0.999738
vn 0.022901 -0.000000 0.999738
vn 0.022901 -0.000000 0.999738
vn 0.022901 -0.000000 0.999738
vn -0.999887 -0.000000 0.015000
vn -0.999887 -0.000000 0.015000
vn -0.999887 -0.000000 0.015000
vn -0.999887 -0.000000 0.015000
vn 0.015000 -0.000000 0.999887
vn 0.015000 -0.000000 0.999887
vn 0.015000 -0.000000 0.999887
vn 0.015000 -0.000000 0.999887
vn 0.999887 0.000000 -0.015000
vn 0.999889 0.000000 -0.014900
vn 0.999887 0.000000 -0.015000
vn 0.999889 0.000000 -0.014900
vn 0.999889 0.000000 -0.014900
vn 0.999889 0.000000 -0.014900
vn 0.022901 -0.000000 0.999738
vn 0.022901 -0.000000 0.999738
vn 0.022901 -0.000000 0.999738
vn 0.022901 -0.000000 0.999738
vn -0.999887 -0.000000 0.015000
vn -0.999887 -0.000000 0.015000
vn -0.999887 -0.000000 0.015000
vn -0.999887 -0.000000 0.015000
vn -0.999887 -0.000000 0.015000
vn -0.999887 -0.000000 0.015000
vn 0.015000 -0.000000 0.999887
vn 0.015000 -0.000000 0.999887
vn 0.015000 -0.000000 0.999887
vn 0.015000 -0.000000 0.999887
vn 0.999887 0.000000 -0.015000
vn 0.999887 0.000000 -0.015000
vn 0.999887 0.000000 -0.015000
vn 0.999887 0.000000 -0.015000
vn 0.022901 -0.000000 0.999738
vn 0.022901 -0.000000 0.999738
vn 0.022901 -0.000000 0.999738
vn 0.022901 -0.000000 0.999738
vn 0.000000 -1.000000 -0.000000
vn 0.000000 -1.000000 -0.000000
vn 0.000000 -1.000000 -0.000000
vn 0.000000 -1.000000 -0.000000
vn 0.000000 -1.000000 -0.000000
vn 0.000000 -1.000000 -0.000000
vn 0.000000 -1.000000 -0.000000
vn 0.000000 -1.000000 -0.000000
vn 0.000000 -1.000000 -0.000000
vn 0.000000 -1.000000 -0.000000
vn 0.000000 -1.000000 -0.000000
vn 0.000000 -1.000000 -0.000000
vn 0.000000 -1.000000 -0.000000
vn 0.000000 -1.000000 -0.000000
vn 0.000000 -1.000000 -0.000000
vn 0.000000 -1.000000 -0.000000
vn 0.000000 -1.000000 -0.000000
vn 0.000000 -1.000000 -0.000000
vn 0.000000 -1.000000 -0.000000
vn 0.000000 -1.000000 -0.000000
vn 0.000000 -1.000000 -0.000000
vn 0.000000 -1.000000 -0.000000
vn 0.000000 -1.000000 -0.000000
vn 0.000000 -1.000000 -0.000000
vn 0.000000 -1.000000 -0.000000
vn 0.000000 -1.000000 -0.000000
vn 0.000000 -1.000000 -0.000000
vn 0.000000 -1.000000 -0.000000
vn 0.000000 -1.000000 -0.000000
vn 0.000000 -1.000000 -0.000000
vn 0.000000 -1.000000 -0.000000
vn 0.000000 -1.000000 -0.000000
vn 0.000000 -1.000000 -0.000000
vn 0.000000 -1.000000 -0.000000
vn 0.000000 -1.000000 -0.000000
vn 0.000000 -1.000000 -0.000000
vn 0.000000 -1.000000 -0.000000
vn 0.000000 -1.000000 -0.000000
vn 0.000000 -1.000000 -0.000000
vn 0.000000 -1.000000 0.000500
vn 0.000000 -1.000000 -0.000000
vn 0.000000 -1.000000 -0.000000
vn 0.000000 -1.000000 -0.000000
vn 0.000000 -1.000000 -0.000000
vn 0.000000 -1.000000 -0.000000
vn 0.000000 -1.000000 -0.000000
vn 0.000000 -1.000000 -0.000000
vn 0.000000 -1.000000 -0.000000
vn 0.000000 -1.000000 -0.000000
vn 0.000000 -1.000000 -0.000000
vn 0.000000 -1.000000 -0.000000
vn 0.000000 -1.000000 -0.000000
vn 0.000000 -1.000000 -0.000000
vn 0.000000 -1.000000 -0.000000
vn 0.000000 -1.000000 -0.000000
vn 0.000000 -1.000000 -0.000000
vn 0.000000 -1.000000 -0.000000
vn 0.000000 -1.000000 -0.000000
vn 0.000000 -1.000000 -0.000000
vn 0.000000 -1.000000 -0.000000
vn 0.000000 -1.000000 -0.000000
vn 0.000000 -1.000000 -0.000000
vn 0.000000 -1.000000 -0.000000
vn 0.000000 -1.000000 -0.000000
vn 0.000000 -1.000000 -0.000000
vn 0.000000 -1.000000 -0.000000
vn 0.000000 -1.000000 -0.000000
vn 0.000000 -1.000000 -0.000000
vn 0.000000 -1.000000 -0.000000
vn 0.000000 -1.000000 -0.000000
vn 0.000000 -1.000000 -0.000000
vn 0.000000 -1.000000 -0.000000
vn 0.000000 -1.000000 -0.000000
vn 0.000000 -1.000000 -0.000000
vn 0.000000 -1.000000 -0.000000
vn 0.000000 -1.000000 -0.000000
vn 0.000000 -1.000000 -0.000000
vn 0.000000 -1.000000 -0.000000
vn 0.000000 -1.000000 -0.000000
vn 0.000000 -1.000000 -0.000000
vn 0.000000 -1.000000 -0.000000
vn 0.000000 -1.000000 -0.000000
vn 0.000000 -1.000000 -0.000000
vn 0.000000 -1.000000 -0.000000
vn 0.000000 -1.000000 -0.000000
vn 0.000000 -1.000000 -0.000000
vn 0.000000 -1.000000 -0.000000
vn 0.000000 -1.000000 -0.000000
vn 0.000000 -1.000000 -0.000000
vn 0.000000 -1.000000 -0.000000
vn 0.000000 -1.000000 -0.000000
vn 0.000000 -1.000000 -0.000000
vn 0.000000 -1.000000 -0.000000
vn 0.000000 -1.000000 -0.000000
vn 0.000000 -1.000000 -0.000000
vn 0.000000 -1.000000 -0.000000
vn 0.000000 -1.000000 -0.000000
vn 0.000000 -1.000000 -0.000000
vn 0.000000 -1.000000 -0.000000
vn 0.000000 -1.000000 -0.000000
vn 0.000000 -1.000000 -0.000000
vn 0.000000 -1.000000 -0.000000
vn 0.000000 -1.000000 -0.000000
vn 0.000000 -1.000000 -0.000000
vn 0.000000 -1.000000 -0.000000
vn 0.000000 -1.000000 -0.000000
vn 0.000000 -1.000000 -0.000000
vn 0.000000 -1.000000 -0.000000
vn 0.000000 -1.000000 -0.000000
vn 0.000000 -1.000000 -0.000000
vn 0.000000 -1.000000 -0.000000
vn 0.000000 -1.000000 -0.000000
vn 0.000000 -1.000000 -0.000000
vn 0.000000 -1.000000 -0.000000
vn 0.000000 -1.000000 -0.000000
vn 0.000000 -1.000000 -0.000000
vn 0.000000 -1.000000 -0.000000
vn 0.000000 -1.000000 -0.000000
vn 0.000000 -1.000000 -0.000000
vn 0.000000 -1.000000 -0.000000
vn 0.000000 -1.000000 -0.000000
vn 0.000000 -1.000000 -0.000000
vn 0.000000 -1.000000 -0.000000
vn 0.000000 -1.000000 -0.000000
vn 0.000000 -1.000000 -0.000000
vn 0.000000 -1.000000 -0.000000
vn 0.000000 -1.000000 -0.000000
vn 0.000000 -1.000000 -0.000000
vn 0.000000 -1.000000 -0.000000
vn 0.000000 -1.000000 -0.000000
vn 0.000000 -1.000000 -0.000000
vn 0.000000 -1.000000 -0.000000
vn 0.000000 -1.000000 -0.000000
vn 0.000000 -1.000000 -0.000000
vn 0.000000 -1.000000 -0.000000
vn 0.000000 -1.000000 0.000900
vn 0.000000 -1.000000 -0.000000
vn 0.000000 -1.000000 -0.000000
vn 0.000000 -1.000000 -0.000000
vn 0.000000 -1.000000 -0.000000
vn 0.000000 -1.000000 -0.000000
vn 0.000000 -1.000000 -0.000000
vn 0.000000 -1.000000 -0.000000
vn 0.000000 -1.000000 -0.000000
vn 0.000000 -1.000000 -0.000000
vn 0.000000 -1.000000 -0.000000
vn 0.000000 -1.000000 -0.000000
vn 0.000000 -1.000000 -0.000000
vn 0.000000 -1.000000 -0.000000
vn 0.000000 -1.000000 -0.000000
vn 0.000000 -1.000000 -0.000000
vn 0.000000 -1.000000 -0.000000
vn 0.000000 -1.000000 -0.000000
vn 0.000000 -1.000000 -0.000000
vn 0.000000 -1.000000 -0.000000
vn 0.000000 -1.000000 -0.000000
vn 0.000000 -1.000000 -0.000000
vn 0.000000 -1.000000 -0.000000
vn 0.000000 -1.000000 -0.000000
vn 0.000000 -1.000000 -0.000000
vn 0.000000 -1.000000 -0.000000
vn 0.000000 -1.000000 -0.000000
vn 0.000000 -1.000000 -0.000000
vn 0.000000 -1.000000 -0.000000
vn 0.000000 -1.000000 -0.000000
vn 0.000000 -1.000000 -0.000000
vn 0.000000 -1.000000 -0.000000
vn 0.000000 -1.000000 -0.000000
vn 0.000000 -1.000000 -0.000000
vn 0.000000 -1.000000 -0.000000
vn 0.000000 -1.000000 -0.000000
vn 0.000000 -1.000000 -0.000000
vn 0.000000 -1.000000 -0.000000
vn 0.000000 -1.000000 -0.000000
vn 0.000000 -1.000000 -0.000000
vn 0.000000 -1.000000 -0.000000
vn 0.000000 -1.000000 -0.000000
vn 0.000000 -1.000000 -0.000000
vn 0.000000 -1.000000 -0.000000
vn 0.000000 -1.000000 -0.000000
vn 0.000000 -1.000000 -0.000000
vn 0.000000 -1.000000 -0.000000
vn 0.000000 -1.000000 -0.000000
vn 0.000000 -1.000000 -0.000000
vn 0.000000 -1.000000 -0.000000
vn 0.000000 -1.000000 -0.000000
vn 0.000000 -1.000000 -0.000000
vn 0.000000 -1.000000 -0.000000
vn 0.000000 -1.000000 -0.000000
vn 0.000000 -1.000000 -0.000000
vn 0.000000 -1.000000 -0.000000
vn 0.000000 -1.000000 -0.000500
vn 0.000000 -1.000000 -0.000000
vn 0.000000 -1.000000 -0.000000
vn 0.000000 -1.000000 -0.000000
vn 0.000000 -1.000000 -0.000000
vn 0.000000 -1.000000 -0.000900
vn 0.000000 -1.000000 -0.000000
vn 0.000000 -1.000000 -0.000000
vn 0.000000 -1.000000 -0.000000
vn 0.000000 -1.000000 -0.000000
vn 0.000000 -1.000000 0.000900
vn 0.000000 -1.000000 -0.000000
vn 0.000000 -1.000000 -0.000000
vn 0.000000 -1.000000 -0.000000
vn 0.000000 -1.000000 -0.000000
vn 0.000000 -1.000000 -0.000000
vn 0.000000 -1.000000 -0.000000
vn 0.000000 -1.000000 -0.000000
vn 0.000000 -1.000000 -0.000000
vn 0.000000 -1.000000 -0.000000
vn 0.000000 -1.000000 -0.000000
vn 0.000000 -1.000000 -0.000000
vn 0.000000 -1.000000 -0.000000
vn 0.000000 -1.000000 -0.000000
vn 0.000000 -1.000000 -0.000000
vn 0.000000 -1.000000 -0.000000
vn 0.000000 -1.000000 -0.000000
vn 0.000000 -1.000000 -0.000000
vn 0.000000 -1.000000 -0.000000
vn 0.000000 -1.000000 -0.000000
vn 0.000000 -1.000000 -0.000000
vn 0.000000 -1.000000 -0.000000
vn 0.000000 -1.000000 -0.000000
vn 0.000000 -1.000000 -0.000000
vn 0.000000 -1.000000 -0.000000
vn 0.000000 -1.000000 -0.000000
vn 0.000000 -1.000000 -0.000000
vn 0.000000 -1.000000 -0.000000
vn 0.000000 -1.000000 -0.000000
vn 0.000000 -1.000000 -0.000000
vn 0.000000 -1.000000 -0.000000
f 1//1 3//3 2//2
f 4//4 6//6 3//3
f 3//3 7//7 5//5
f 5//5 2//2 3//3
f 7//7 3//3 6//6
f 9//9 8//8 7//7
f 8//8 5//5 7//7
f 10//10 8//8 9//9
f 9//9 11//11 10//10
f 10//10 11//11 12//12
f 12//12 14//14 10//10
f 13//13 15//15 12//12
f 14//14 12//12 15//15
f 13//13 16//16 15//15
f 13//13 17//17 16//16
f 18//18 16//16 17//17
f 16//16 18//18 19//19
f 18//18 20//20 19//19
f 20//20 18//18 21//21
f 21//21 22//22 20//20
f 21//21 23//23 22//22
f 23//23 24//24 22//22
f 27//27 25//25 24//24
f 25//25 26//26 24//24
f 24//24 28//28 27//27
f 30//30 24//24 23//23
f 29//29 28//28 24//24
f 30//30 29//29 24//24
f 31//31 29//29 30//30
f 32//32 30//30 23//23
f 32//32 33//33 30//30
f 33//33 34//34 36//36
f 33//33 36//36 35//35
f 33//33 32//32 34//34
f 37//37 34//34 32//32
f 37//37 38//38 34//34
f 39//39 38//38 40//40
f 38//38 41//41 40//40
f 38//38 37//37 41//41
f 40//40 42//42 43//43
f 39//39 40//40 43//43
f 43//43 42//42 44//44
f 47//47 45//45 44//44
f 47//47 44//44 46//46
f 42//42 46//46 44//44
f 49//49 45//45 47//47
f 48//48 49//49 47//47
f 49//49 6//6 50//50
f 6//6 49//49 48//48
f 51//51 50//50 4//4
f 51//51 4//4 52//52
f 6//6 4//4 50//50
f 37//37 32//32 53//53
f 54//54 27//27 28//28
f 55//55 56//56 54//54
f 57//57 27//27 54//54
f 56//56 57//57 54//54
f 56//56 58//58 57//57
f 56//56 59//59 58//58
f 58//58 59//59 25//25
f 26//26 25//25 59//59
f 56//56 55//55 62//62
f 56//56 61//61 60//60
f 62//62 61//61 56//56
f 63//63 64//64 62//62
f 64//64 61//61 62//62
f 65//65 62//62 55//55
f 67//67 64//64 66//66
f 68//68 66//66 64//64
f 68//68 64//64 63//63
f 66//66 68//68 69//69
f 68//68 63//63 71//71
f 68//68 71//71 70//70
f 69//69 72//72 74//74
f 69//69 73//73 66//66
f 74//74 73//73 69//69
f 72//72 76//76 74//74
f 74//74 76//76 75//75
f 76//76 77//77 75//75
f 78//78 80//80 79//79
f 78//78 79//79 77//77
f 75//75 77//77 79//79
f 80//80 82//82 81//81
f 82//82 80//80 78//78
f 83//83 84//84 82//82
f 84//84 81//81 82//82
f 84//84 85//85 87//87
f 84//84 83//83 85//85
f 86//86 84//84 87//87
f 90//90 87//87 88//88
f 89//89 88//88 87//87
f 90//90 86//86 87//87
f 91//91 217//217 86//86
f 91//91 86//86 90//90
f 90//90 92//92 94//94
f 90//90 93//93 92//92
f 88//88 93//93 90//90
f 94//94 95//95 90//90
f 96//96 95//95 94//94
f 98//98 96//96 97//97
f 97//97 96//96 94//94
f 98//98 100//100 99//99
f 102//102 98//98 99//99
f 100//100 98//98 101//101
f 103//103 101//101 98//98
f 102//102 104//104 98//98
f 98//98 97//97 103//103
f 102//102 105//105 104//104
f 106//106 104//104 105//105
f 109//109 106//106 105//105
f 106//106 109//109 107//107
f 107//107 108//108 106//106
f 107//107 110//110 108//108
f 111//111 110//110 112//112
f 110//110 107//107 112//112
f 113//113 111//111 112//112
f 111//111 113//113 114//114
f 115//115 116//116 114//114
f 118//118 114//114 116//116
f 117//117 111//111 114//114
f 118//118 117//117 114//114
f 119//119 118//118 116//116
f 120//120 119//119 121//121
f 121//121 119//119 116//116
f 121//121 122//122 120//120
f 123//123 122//122 121//121
f 127//127 123//123 124//124
f 124//124 123//123 125//125
f 122//122 123//123 126//126
f 126//126 123//123 127//127
f 126//126 127//127 128//128
f 126//126 128//128 146//146
f 129//129 127//127 124//124
f 130//130 129//129 132//132
f 130//130 131//131 129//129
f 124//124 132//132 129//129
f 133//133 131//131 130//130
f 130//130 134//134 133//133
f 135//135 133//133 134//134
f 134//134 136//136 135//135
f 138//138 137//137 135//135
f 138//138 135//135 136//136
f 138//138 139//139 137//137
f 140//140 139//139 138//138
f 142//142 141//141 139//139
f 142//142 139//139 140//140
f 142//142 143//143 141//141
f 143//143 145//145 144//144
f 143//143 144//144 141//141
f 142//142 99//99 143//143
f 142//142 102//102 99//99
f 122//122 147//147 148//148
f 122//122 148//148 120//120
f 148//148 149//149 120//120
f 150//150 153//153 151//151
f 150//150 151//151 149//149
f 151//151 120//120 149//149
f 152//152 120//120 151//151
f 154//154 153//153 150//150
f 154//154 155//155 153//153
f 155//155 156//156 152//152
f 155//155 157//157 156//156
f 155//155 154//154 157//157
f 152//152 156//156 120//120
f 159//159 154//154 158//158
f 154//154 161//161 158//158
f 159//159 160//160 154//154
f 150//150 161//161 154//154
f 161//161 162//162 158//158
f 163//163 160//160 159//159
f 163//163 164//164 160//160
f 164//164 166//166 165//165
f 163//163 166//166 164//164
f 166//166 167//167 169//169
f 166//166 163//163 168//168
f 169//169 165//165 166//166
f 170//170 169//169 171//171
f 169//169 167//167 171//171
f 172//172 170//170 171//171
f 170//170 172//172 173//173
f 172//172 174//174 173//173
f 175//175 174//174 172//172
f 175//175 176//176 174//174
f 174//174 176//176 177//177
f 178//178 177//177 176//176
f 180//180 177//177 178//178
f 179//179 180//180 178//178
f 178//178 181//181 179//179
f 181//181 184//184 182//182
f 181//181 182//182 185//185
f 183//183 179//179 181//181
f 183//183 181//181 185//185
f 187//187 183//183 185//185
f 187//187 185//185 186//186
f 184//184 188//188 182//182
f 188//188 189//189 182//182
f 188//188 190//190 189//189
f 191//191 190//190 188//188
f 192//192 190//190 191//191
f 193//193 194//194 192//192
f 194//194 190//190 192//192
f 195//195 194//194 193//193
f 195//195 193//193 196//196
f 193//193 198//198 196//196
f 199//199 196//196 197//197
f 197//197 196//196 198//198
f 197//197 200//200 199//199
f 201//201 199//199 200//200
f 203//203 202//202 199//199
f 203//203 199//199 201//201
f 200//200 158//158 201//201
f 158//158 200//200 159//159
f 197//197 204//204 200//200
f 207//207 180//180 205//205
f 206//206 205//205 180//180
f 179//179 206//206 180//180
f 208//208 180//180 207//207
f 208//208 209//209 180//180
f 211//211 209//209 210//210
f 210//210 209//209 208//208
f 210//210 5//5 211//211
f 210//210 212//212 5//5
f 207//207 213//213 212//212
f 212//212 213//213 5//5
f 213//213 2//2 5//5
f 213//213 207//207 205//205
f 179//179 214//214 206//206
f 92//92 93//93 101//101
f 92//92 101//101 103//103
f 99//99 100//100 215//215
f 216//216 217//217 91//91
f 218//218 217//217 216//216
f 216//216 219//219 218//218
f 220//220 219//219 221//221
f 220//220 222//222 219//219
f 221//221 219//219 216//216
f 224//224 222//222 220//220
f 222//222 224//224 223//223
f 225//225 226//226 224//224
f 226//226 223//223 224//224
f 227//227 228//228 226//226
f 226//226 225//225 227//227
f 226//226 228//228 229//229
f 60//60 228//228 227//227
f 61//61 228//228 60//60
f 83//83 231//231 230//230
f 83//83 230//230 85//85
f 21//21 18//18 232//232
f 234//234 236//236 235//235
f 234//234 235//235 233//233
f 238//238 240//240 239//239
f 238//238 239//239 237//237
f 242//242 244//244 243//243
f 242//242 243//243 241//241
f 246//246 248//248 247//247
f 246//246 247//247 245//245
f 250//250 252//252 251//251
f 250//250 251//251 249//249
f 254//254 256//256 255//255
f 254//254 255//255 253//253
f 258//258 260//260 259//259
f 258//258 259//259 257//257
f 261//261 263//263 264//264
f 261//261 264//264 262//262
f 266//266 268//268 267//267
f 266//266 267//267 265//265
f 270//270 272//272 271//271
f 270//270 271//271 269//269
f 274//274 276//276 275//275
f 274//274 275//275 273//273
f 278//278 280//280 279//279
f 278//278 279//279 277//277
f 282//282 284//284 283//283
f 282//282 283//283 281//281
f 286//286 288//288 287//287
f 286//286 287//287 285//285
f 290//290 292//292 291//291
f 290//290 291//291 289//289
f 294//294 296//296 295//295
f 294//294 295//295 293//293
f 298//298 300//300 299//299
f 298//298 299//299 297//297
f 302//302 304//304 303//303
f 302//302 303//303 301//301
f 305//305 307//307 308//308
f 305//305 308//308 306//306
f 310//310 312//312 311//311
f 310//310 311//311 309//309
f 313//313 315//315 316//316
f 313//313 316//316 314//314
f 317//317 319//319 320//320
f 317//317 320//320 318//318
f 334//334 322//322 321//321
f 334//334 321//321 323//323
f 324//324 323//323 321//321
f 325//325 324//324 321//321
f 321//321 326//326 325//325
f 327//327 328//328 326//326
f 329//329 332//332 327//327
f 329//329 327//327 326//326
f 325//325 326//326 328//328
f 329//329 330//330 331//331
f 330//330 329//329 322//322
f 331//331 332//332 329//329
f 335//335 327//327 332//332
f 335//335 332//332 333//333
f 332//332 331//331 330//330
f 332//332 330//330 333//333
f 333//333 334//334 323//323
f 333//333 323//323 335//335
f 333//333 330//330 336//336
f 333//333 336//336 334//334
f 328//328 327//327 335//335
f 328//328 335//335 325//325
f 325//325 335//335 323//323
f 325//325 323//323 324//324
f 334//334 336//336 322//322
f 330//330 322//322 336//336
f 337//337 339//339 340//340
f 337//337 340//340 338//338
f 341//341 343//343 344//344
f 341//341 344//344 342//342
f 345//345 347//347 348//348
f 345//345 348//348 346//346
f 349//349 351//351 352//352
f 349//349 352//352 350//350
f 353//353 355//355 356//356
f 353//353 356//356 354//354
f 357//357 359//359 360//360
f 357//357 360//360 358//358
f 361//361 363//363 364//364
f 361//361 364//364 362//362
f 365//365 367//367 368//368
f 365//365 368//368 366//366
f 369//369 371//371 372//372
f 369//369 372//372 370//370
f 374//374 373//373 375//375
f 374//374 375//375 376//376
f 378//378 383//383 382//382
f 378//378 382//382 377//377
f 378//378 377//377 379//379
f 380//380 379//379 377//377
f 380//380 377//377 381//381
f 384//384 382//382 383//383
f 385//385 382//382 384//384
f 382//382 385//385 386//386
f 381//381 386//386 387//387
f 381//381 387//387 389//389
f 387//387 386//386 388//388
f 385//385 388//388 386//386
f 388//388 385//385 390//390
f 388//388 390//390 387//387
f 390//390 391//391 389//389
f 390//390 389//389 387//387
f 385//385 384//384 383//383
f 385//385 383//383 390//390
f 391//391 390//390 383//383
f 391//391 383//383 378//378
f 389//389 391//391 380//380
f 389//389 380//380 392//392
f 391//391 378//378 379//379
f 391//391 379//379 380//380
f 392//392 381//381 389//389
f 381//381 392//392 380//380
f 393//393 395//395 396//396
f 393//393 396//396 394//394
f 397//397 399//399 400//400
f 397//397 400//400 398//398
f 402//402 401//401 403//403
f 402//402 403//403 404//404
f 405//405 407//407 408//408
f 405//405 408//408 406//406
f 409//409 411//411 412//412
f 409//409 412//412 410//410
f 413//413 415//415 416//416
f 413//413 416//416 414//414
f 417//417 419//419 420//420
f 417//417 420//420 418//418
f 421//421 423//423 424//424
f 421//421 424//424 422//422
f 425//425 427//427 428//428
f 425//425 428//428 426//426
f 429//429 431//431 432//432
f 429//429 432//432 430//430
f 433//433 435//435 436//436
f 433//433 436//436 434//434
f 437//437 439//439 440//440
f 437//437 440//440 438//438
f 441//441 443//443 444//444
f 441//441 444//444 442//442
f 445//445 447//447 448//448
f 445//445 448//448 446//446
f 449//449 451//451 452//452
f 449//449 452//452 450//450
f 454//454 453//453 455//455
f 454//454 455//455 456//456
f 458//458 457//457 459//459
f 458//458 459//459 460//460
f 462//462 461//461 463//463
f 462//462 463//463 464//464
f 466//466 465//465 467//467
f 466//466 467//467 468//468
f 469//469 471//471 472//472
f 469//469 472//472 470//470
f 473//473 475//475 476//476
f 473//473 476//476 474//474
f 477//477 479//479 480//480
f 477//477 480//480 478//478
f 481//481 483//483 484//484
f 481//481 484//484 482//482
f 485//485 487//487 488//488
f 485//485 488//488 486//486
f 489//489 491//491 492//492
f 489//489 492//492 490//490
f 493//493 495//495 496//496
f 493//493 496//496 494//494
f 497//497 499//499 500//500
f 497//497 500//500 498//498
f 501//501 503//503 504//504
f 501//501 504//504 502//502
f 505//505 507//507 508//508
f 505//505 508//508 506//506
f 510//510 509//509 511//511
f 510//510 511//511 512//512
f 514//514 513//513 515//515
f 514//514 515//515 516//516
f 517//517 519//519 520//520
f 517//517 520//520 518//518
f 521//521 523//523 524//524
f 521//521 524//524 522//522
f 525//525 527//527 528//528
f 525//525 528//528 526//526
f 530//530 529//529 531//531
f 530//530 531//531 532//532
f 533//533 535//535 536//536
f 533//533 536//536 534//534
f 538//538 537//537 539//539
f 538//538 539//539 540//540
f 542//542 541//541 543//543
f 542//542 543//543 544//544
f 545//545 547//547 548//548
f 545//545 548//548 546//546
f 549//549 551//551 552//552
f 549//549 552//552 550//550
f 554//554 553//553 555//555
f 554//554 555//555 556//556
f 558//558 557//557 559//559
f 558//558 559//559 560//560
f 562//562 561//561 563//563
f 562//562 563//563 564//564
f 566//566 565//565 568//568
f 566//566 567//567 565//565
f 568//568 569//569 566//566
f 570//570 571//571 566//566
f 570//570 566//566 569//569
f 572//572 573//573 571//571
f 572//572 571//571 570//570
f 574//574 573//573 572//572
f 575//575 573//573 574//574
f 573//573 575//575 576//576
f 573//573 576//576 577//577
f 573//573 577//577 571//571
f 571//571 577//577 567//567
f 571//571 567//567 566//566
f 579//579 578//578 580//580
f 579//579 580//580 581//581
f 583//583 582//582 584//584
f 583//583 584//584 585//585
f 587//587 586//586 588//588
f 587//587 588//588 589//589
f 591//591 590//590 592//592
f 591//591 592//592 593//593
f 595//595 594//594 596//596
f 595//595 596//596 597//597
f 599//599 598//598 600//600
f 599//599 600//600 601//601
f 603//603 602//602 604//604
f 603//603 604//604 605//605
f 607//607 606//606 608//608
f 607//607 608//608 609//609
f 611//611 610//610 612//612
f 611//611 612//612 613//613
f 615//615 614//614 616//616
f 615//615 616//616 617//617
f 619//619 618//618 621//621
f 619//619 620//620 618//618
f 621//621 622//622 619//619
f 623//623 624//624 619//619
f 623//623 619//619 622//622
f 624//624 623//623 625//625
f 626//626 625//625 627//627
f 625//625 626//626 624//624
f 625//625 628//628 627//627
f 629//629 631//631 627//627
f 629//629 627//627 628//628
f 630//630 631//631 629//629
f 631//631 633//633 634//634
f 631//631 634//634 627//627
f 632//632 631//631 630//630
f 631//631 632//632 633//633
f 627//627 634//634 626//626
f 626//626 635//635 624//624
f 624//624 635//635 620//620
f 624//624 620//620 619//619
f 637//637 636//636 638//638
f 637//637 638//638 639//639
f 641//641 640//640 642//642
f 641//641 642//642 643//643
f 645//645 644//644 646//646
f 645//645 646//646 647//647
f 649//649 648//648 650//650
f 649//649 650//650 651//651
f 653//653 652//652 654//654
f 653//653 654//654 655//655
f 657//657 656//656 658//658
f 657//657 658//658 659//659
f 661//661 660//660 662//662
f 661//661 662//662 663//663
f 665//665 664//664 666//666
f 665//665 666//666 667//667
f 669//669 668//668 670//670
f 669//669 670//670 671//671
f 673//673 672//672 674//674
f 673//673 674//674 675//675
f 677//677 676//676 678//678
f 677//677 678//678 679//679
f 681//681 680//680 682//682
f 681//681 682//682 683//683
f 685//685 684//684 686//686
f 685//685 686//686 687//687
f 689//689 685//685 687//687
f 689//689 687//687 688//688
f 691//691 690//690 692//692
f 691//691 692//692 693//693
f 695//695 694//694 696//696
f 695//695 696//696 697//697
f 699//699 695//695 697//697
f 699//699 697//697 698//698
f 701//701 700//700 702//702
f 701//701 702//702 703//703
f 705//705 704//704 706//706
f 705//705 706//706 707//707
f 709//709 708//708 710//710
f 709//709 710//710 711//711
f 713//713 712//712 714//714
f 713//713 714//714 715//715
f 717//717 716//716 718//718
f 717//717 718//718 719//719
f 721//721 720//720 722//722
f 721//721 722//722 723//723
f 725//725 724//724 726//726
f 725//725 726//726 727//727
f 729//729 728//728 731//731
f 729//729 730//730 728//728
f 731//731 732//732 729//729
f 733//733 734//734 729//729
f 733//733 729//729 732//732
f 735//735 736//736 734//734
f 735//735 734//734 733//733
f 737//737 736//736 735//735
f 738//738 736//736 737//737
f 736//736 738//738 739//739
f 736//736 739//739 740//740
f 736//736 740//740 734//734
f 734//734 740//740 730//730
f 734//734 730//730 729//729
f 742//742 741//741 743//743
f 742//742 743//743 744//744
f 746//746 745//745 747//747
f 746//746 747//747 748//748
f 750//750 749//749 751//751
f 750//750 751//751 752//752
f 754//754 753//753 755//755
f 754//754 755//755 756//756
f 758//758 754//754 756//756
f 758//758 756//756 757//757
f 760//760 759//759 761//761
f 760//760 761//761 762//762
f 764//764 763//763 765//765
f 764//764 765//765 766//766
f 768//768 764//764 766//766
f 768//768 766//766 767//767
f 770//770 769//769 771//771
f 770//770 771//771 772//772
f 774//774 773//773 775//775
f 774//774 775//775 776//776
f 778//778 777//777 779//779
f 778//778 779//779 780//780
f 782//782 781//781 784//784
f 782//782 783//783 781//781
f 781//781 785//785 784//784
f 787//787 785//785 786//786
f 787//787 786//786 788//788
f 787//787 784//784 785//785
f 784//784 787//787 789//789
f 790//790 789//789 792//792
f 790//790 791//791 789//789
f 784//784 789//789 791//791
f 792//792 793//793 790//790
f 792//792 788//788 793//793
f 794//794 796//796 793//793
f 793//793 797//797 794//794
f 788//788 786//786 793//793
f 795//795 793//793 796//796
f 786//786 797//797 793//793
f 798//798 794//794 797//797
f 796//796 794//794 800//800
f 799//799 795//795 796//796
f 804//804 800//800 794//794
f 801//801 800//800 802//802
f 802//802 800//800 803//803
f 800//800 804//804 803//803
f 806//806 803//803 804//804
f 806//806 804//804 805//805
f 808//808 802//802 807//807
f 801//801 802//802 808//808
f 810//810 808//808 809//809
f 809//809 808//808 807//807
f 811//811 810//810 809//809
f 813//813 811//811 812//812
f 812//812 811//811 809//809
f 816//816 813//813 812//812
f 815//815 814//814 813//813
f 813//813 816//816 815//815
f 817//817 818//818 815//815
f 815//815 818//818 814//814
f 818//818 817//817 819//819
f 819//819 820//820 818//818
f 819//819 821//821 823//823
f 819//819 822//822 821//821
f 822//822 819//819 817//817
f 823//823 825//825 824//824
f 826//826 823//823 824//824
f 821//821 825//825 823//823
f 827//827 828//828 826//826
f 826//826 824//824 827//827
f 826//826 828//828 829//829
f 828//828 827//827 832//832
f 828//828 831//831 830//830
f 831//831 828//828 832//832
f 834//834 831//831 833//833
f 834//834 830//830 831//831
f 833//833 835//835 834//834
f 836//836 838//838 835//835
f 835//835 837//837 836//836
f 837//837 835//835 833//833
f 799//799 838//838 836//836
f 836//836 795//795 799//799
f 821//821 843//843 825//825
f 841//841 839//839 825//825
f 839//839 840//840 825//825
f 825//825 842//842 841//841
f 843//843 842//842 825//825
f 844//844 843//843 821//821
f 845//845 841//841 842//842
f 846//846 848//848 845//845
f 847//847 841//841 845//845
f 848//848 847//847 845//845
f 848//848 846//846 849//849
f 849//849 853//853 848//848
f 848//848 850//850 847//847
f 848//848 851//851 850//850
f 848//848 853//853 852//852
f 853//853 854//854 852//852
f 855//855 853//853 849//849
f 859//859 855//855 856//856
f 856//856 855//855 849//849
f 858//858 855//855 857//857
f 859//859 857//857 855//855
f 857//857 859//859 860//860
f 859//859 856//856 862//862
f 859//859 862//862 861//861
f 860//860 863//863 865//865
f 860//860 864//864 857//857
f 865//865 864//864 860//860
f 865//865 867//867 866//866
f 863//863 867//867 865//865
f 867//867 868//868 866//866
f 869//869 871//871 870//870
f 869//869 870//870 868//868
f 866//866 868//868 870//870
f 872//872 871//871 869//869
f 871//871 872//872 873//873
f 874//874 873//873 872//872
f 878//878 874//874 872//872
f 875//875 874//874 876//876
f 874//874 877//877 876//876
f 874//874 878//878 877//877
f 878//878 879//879 880//880
f 878//878 880//880 877//877
f 883//883 876//876 881//881
f 882//882 881//881 876//876
f 883//883 875//875 876//876
f 881//881 884//884 883//883
f 884//884 886//886 883//883
f 875//875 883//883 885//885
f 886//886 887//887 883//883
f 887//887 888//888 883//883
f 888//888 890//890 889//889
f 890//890 888//888 887//887
f 890//890 891//891 889//889
f 890//890 892//892 891//891
f 891//891 892//892 893//893
f 893//893 892//892 886//886
f 893//893 886//886 884//884
f 894//894 891//891 893//893
f 891//891 894//894 895//895
f 895//895 894//894 896//896
f 899//899 895//895 897//897
f 899//899 898//898 895//895
f 898//898 891//891 895//895
f 899//899 900//900 902//902
f 899//899 897//897 900//900
f 899//899 902//902 901//901
f 904//904 902//902 903//903
f 901//901 902//902 904//904
f 904//904 903//903 906//906
f 904//904 906//906 905//905
f 907//907 905//905 906//906
f 908//908 907//907 909//909
f 906//906 909//909 907//907
f 909//909 910//910 908//908
f 908//908 910//910 911//911
f 911//911 912//912 913//913
f 908//908 911//911 914//914
f 913//913 914//914 911//911
f 912//912 915//915 913//913
f 913//913 915//915 916//916
f 919//919 915//915 912//912
f 915//915 918//918 917//917
f 918//918 915//915 919//919
f 919//919 912//912 921//921
f 919//919 921//921 920//920
f 918//918 923//923 922//922
f 918//918 922//922 924//924
f 917//917 918//918 924//924
f 924//924 925//925 917//917
f 929//929 924//924 926//926
f 924//924 927//927 926//926
f 922//922 927//927 924//924
f 924//924 929//929 928//928
f 928//928 929//929 930//930
f 928//928 930//930 931//931
f 930//930 932//932 931//931
f 933//933 932//932 930//930
f 927//927 934//934 933//933
f 933//933 934//934 932//932
f 926//926 927//927 933//933
f 934//934 935//935 932//932
f 932//932 935//935 936//936
f 935//935 937//937 936//936
f 939//939 936//936 938//938
f 936//936 939//939 940//940
f 940//940 932//932 936//936
f 941//941 942//942 940//940
f 940//940 942//942 932//932
f 941//941 943//943 942//942
f 943//943 945//945 944//944
f 941//941 945//945 943//943
f 947//947 944//944 945//945
f 945//945 941//941 946//946
f 945//945 948//948 947//947
f 947//947 948//948 949//949
f 950//950 947//947 949//949
f 951//951 950//950 949//949
f 950//950 951//951 952//952
f 951//951 954//954 952//952
f 953//953 954//954 951//951
f 953//953 956//956 954//954
f 954//954 956//956 955//955
f 955//955 956//956 957//957
f 957//957 958//958 782//782
f 784//784 955//955 957//957
f 782//782 784//784 957//957
f 959//959 782//782 958//958
f 959//959 958//958 961//961
f 958//958 960//960 962//962
f 958//958 962//962 961//961
f 960//960 963//963 962//962
f 963//963 964//964 962//962
f 963//963 965//965 964//964
f 967//967 965//965 966//966
f 966//966 965//965 963//963
f 968//968 965//965 967//967
f 970//970 968//968 969//969
f 969//969 968//968 967//967
f 970//970 969//969 971//971
f 969//969 973//973 971//971
f 974//974 971//971 972//972
f 972//972 971//971 973//973
f 972//972 939//939 974//974
f 938//938 974//974 939//939
f 976//976 975//975 974//974
f 976//976 974//974 938//938
f 972//972 977//977 939//939
f 979//979 959//959 961//961
f 979//979 961//961 978//978
f 925//925 980//980 981//981
f 917//917 925//925 981//981
f 980//980 983//983 981//981
f 982//982 981//981 983//983
f 980//980 986//986 983//983
f 985//985 984//984 983//983
f 986//986 985//985 983//983
f 985//985 987//987 988//988
f 984//984 985//985 988//988
f 987//987 989//989 988//988
f 991//991 990//990 989//989
f 989//989 992//992 991//991
f 989//989 987//987 992//992
f 991//991 993//993 994//994
f 990//990 991//991 994//994
f 994//994 993//993 898//898
f 898//898 993//993 891//891
f 897//897 996//996 995//995
f 897//897 995//995 900//900
f 997//997 998//998 885//885
f 875//875 885//885 998//998
f 999//999 998//998 997//997
f 997//997 1000//1000 999//999
f 1001//1001 1000//1000 1002//1002
f 1001//1001 1003//1003 1000//1000
f 1002//1002 1000//1000 997//997
f 1004//1004 1003//1003 1001//1001
f 1003//1003 1004//1004 1005//1005
f 1006//1006 1005//1005 1004//1004
f 1007//1007 1006//1006 1004//1004
f 1006//1006 1007//1007 1009//1009
f 1006//1006 854//854 1008//1008
f 1009//1009 854//854 1006//1006
f 852//852 854//854 1009//1009
f 840//840 839//839 851//851
f 839//839 850//850 851//851
f 1010//1010 849//849 846//846
f 822//822 817//817 1012//1012
f 822//822 1012//1012 1011//1011
