# joint_19 exported from /models/guards/joint_19.glb
# units: meters
v -0.027379 0.001000 -0.042247
v -0.024037 0.001000 -0.038631
v -0.023763 0.001000 -0.020347
v -0.023840 0.001000 -0.039530
v -0.023187 0.001000 -0.040366
v -0.027203 0.001000 -0.043099
v -0.026683 0.001000 -0.043794
v -0.026945 0.001000 -0.013220
v -0.021884 0.001000 -0.018124
v -0.020624 0.001000 -0.012314
v -0.022862 0.001000 -0.018638
v -0.026930 0.001000 -0.012220
v -0.023522 0.001000 -0.019418
v -0.020737 0.001000 -0.017956
v -0.014271 0.001000 -0.009205
v -0.020591 0.001000 -0.010111
v -0.018634 0.001000 -0.018701
v -0.019596 0.001000 -0.018158
v -0.017998 0.001000 -0.019501
v -0.017784 0.001000 -0.020437
v -0.018058 0.001000 -0.038720
v -0.014908 0.001000 -0.051747
v -0.018281 0.001000 -0.039614
v -0.018959 0.001000 -0.040430
v -0.019981 0.001000 -0.040957
v -0.021084 0.001000 -0.041112
v -0.016559 0.001000 -0.052491
v -0.015497 0.001000 -0.052644
v -0.015800 0.001000 -0.052726
v -0.016099 0.001000 -0.052714
v -0.015235 0.001000 -0.052472
v -0.015046 0.001000 -0.052240
v -0.022182 0.001000 -0.040924
v -0.021730 0.001000 -0.006515
v -0.026882 0.001000 -0.009016
v -0.026897 0.001000 -0.010016
v -0.020634 0.001000 -0.006957
v -0.019453 0.001000 -0.006964
v -0.018268 0.001000 -0.006482
v -0.017373 0.001000 -0.005569
v -0.016931 0.001000 -0.004473
v -0.014331 0.001000 0.002822
v -0.012520 0.001000 -0.000719
v -0.007255 0.001000 0.007042
v 0.000660 0.001000 0.012073
v -0.002825 0.001000 0.013989
v -0.009450 0.001000 0.009305
v 0.004544 0.001000 0.016369
v 0.005653 0.001000 0.016778
v 0.009195 0.001000 0.013569
v 0.042426 0.001000 0.013071
v 0.006593 0.001000 0.017646
v 0.019349 0.001000 0.017661
v 0.021017 0.001000 0.016782
v 0.020110 0.001000 0.017017
v 0.010289 0.001000 0.019859
v 0.012493 0.001000 0.019826
v 0.013588 0.001000 0.026117
v 0.012588 0.001000 0.026132
v 0.018881 0.001000 0.020847
v 0.018848 0.001000 0.018615
v 0.018683 0.001000 0.019734
v 0.019411 0.001000 0.021785
v 0.020191 0.001000 0.022406
v 0.021104 0.001000 0.022614
v 0.038939 0.001000 0.022347
v 0.051926 0.001000 0.025543
v 0.039811 0.001000 0.022129
v 0.040607 0.001000 0.021468
v 0.041121 0.001000 0.020471
v 0.041272 0.001000 0.019395
v 0.052670 0.001000 0.023891
v 0.043973 0.001000 0.013768
v 0.052823 0.001000 0.024953
v 0.052905 0.001000 0.024650
v 0.052893 0.001000 0.024351
v 0.052651 0.001000 0.025216
v 0.052418 0.001000 0.025405
v 0.041089 0.001000 0.018324
v 0.040545 0.001000 0.017344
v 0.043277 0.001000 0.013247
v 0.039730 0.001000 0.016706
v 0.038852 0.001000 0.016515
v 0.009384 0.001000 0.026180
v 0.010384 0.001000 0.026165
v 0.006730 0.001000 0.021105
v 0.007138 0.001000 0.019996
v 0.007110 0.001000 0.018815
v 0.005862 0.001000 0.022045
v 0.004693 0.001000 0.022562
v 0.003511 0.001000 0.022590
v -0.005627 0.001000 0.019638
v -0.003806 0.001000 0.023868
v -0.016038 0.001000 0.016093
v -0.024176 0.001000 0.004098
v -0.019894 0.001000 0.005792
v -0.013842 0.001000 0.013830
v -0.023118 0.001000 -0.003254
v -0.023126 0.001000 -0.004435
v -0.022643 0.001000 -0.005620
v -0.024037 0.001000 -0.038631
v -0.023840 0.001000 -0.039530
v -0.024037 0.000000 -0.038631
v -0.023840 -0.001000 -0.039530
v -0.024037 -0.001000 -0.038631
v -0.023187 -0.001000 -0.040366
v -0.022182 -0.001000 -0.040924
v -0.023187 0.001000 -0.040366
v -0.022182 0.001000 -0.040924
v -0.021084 0.001000 -0.041112
v -0.021084 -0.001000 -0.041112
v -0.019981 0.001000 -0.040957
v -0.018959 0.001000 -0.040430
v -0.019981 -0.001000 -0.040957
v -0.018959 -0.001000 -0.040430
v -0.018281 -0.001000 -0.039614
v -0.018058 -0.001000 -0.038720
v -0.018281 0.001000 -0.039614
v -0.018058 0.000000 -0.038720
v -0.018058 0.001000 -0.038720
v -0.023763 0.001000 -0.020347
v -0.023832 0.001000 -0.024918
v -0.023797 0.000500 -0.022633
v -0.023763 0.000000 -0.020347
v -0.023797 0.000000 -0.022633
v -0.023797 -0.000500 -0.022633
v -0.023763 -0.001000 -0.020347
v -0.023832 -0.001000 -0.024918
v -0.023900 -0.001000 -0.029489
v -0.023832 -0.000500 -0.024918
v -0.023832 0.000000 -0.024918
v -0.023969 0.000000 -0.034060
v -0.023900 0.001000 -0.029489
v -0.023832 0.000500 -0.024918
v -0.023969 0.001000 -0.034060
v -0.023969 0.000500 -0.034060
v -0.024003 0.000500 -0.036345
v -0.024037 0.001000 -0.038631
v -0.024003 0.000000 -0.036345
v -0.024037 0.000000 -0.038631
v -0.024003 -0.000500 -0.036345
v -0.023969 -0.000500 -0.034060
v -0.024037 -0.001000 -0.038631
v -0.023969 -0.001000 -0.034060
v -0.017784 0.001000 -0.020437
v -0.017998 0.001000 -0.019501
v -0.017784 0.000000 -0.020437
v -0.017998 -0.001000 -0.019501
v -0.017784 -0.001000 -0.020437
v -0.018634 -0.001000 -0.018701
v -0.019596 -0.001000 -0.018158
v -0.018634 0.001000 -0.018701
v -0.019596 0.001000 -0.018158
v -0.020737 0.001000 -0.017956
v -0.021884 0.001000 -0.018124
v -0.020737 -0.001000 -0.017956
v -0.021884 -0.001000 -0.018124
v -0.022862 -0.001000 -0.018638
v -0.023522 -0.001000 -0.019418
v -0.022862 0.001000 -0.018638
v -0.023522 0.001000 -0.019418
v -0.023763 0.001000 -0.020347
v -0.023763 0.000000 -0.020347
v -0.023763 -0.001000 -0.020347
v -0.018058 0.001000 -0.038720
v -0.018024 0.000500 -0.036435
v -0.017990 0.001000 -0.034149
v -0.018058 0.000000 -0.038720
v -0.018058 -0.001000 -0.038720
v -0.018024 -0.000500 -0.036435
v -0.018024 0.000000 -0.036435
v -0.017990 0.000000 -0.034149
v -0.017990 -0.000500 -0.034149
v -0.017990 0.000500 -0.034149
v -0.017921 0.001000 -0.029578
v -0.017921 -0.001000 -0.029578
v -0.017853 -0.000500 -0.025008
v -0.017853 -0.001000 -0.025008
v -0.017990 -0.001000 -0.034149
v -0.017853 0.000000 -0.025008
v -0.017853 0.000500 -0.025008
v -0.017818 0.000000 -0.022722
v -0.017784 0.000000 -0.020437
v -0.017818 0.000500 -0.022722
v -0.017818 -0.000500 -0.022722
v -0.017784 -0.001000 -0.020437
v -0.017784 0.001000 -0.020437
v -0.017853 0.001000 -0.025008
v 0.038852 0.001000 0.016515
v 0.039730 0.001000 0.016706
v 0.038852 -0.000000 0.016515
v 0.039730 -0.001000 0.016706
v 0.038852 -0.001000 0.016515
v 0.040545 -0.001000 0.017344
v 0.040545 0.001000 0.017344
v 0.041089 -0.001000 0.018324
v 0.041272 -0.001000 0.019395
v 0.041089 0.001000 0.018324
v 0.041272 0.001000 0.019395
v 0.041121 0.001000 0.020471
v 0.041121 -0.001000 0.020471
v 0.040607 0.001000 0.021468
v 0.040607 -0.001000 0.021468
v 0.039811 0.001000 0.022129
v 0.038939 -0.000000 0.022347
v 0.038939 0.001000 0.022347
v 0.039811 -0.001000 0.022129
v 0.038939 -0.001000 0.022347
v 0.038852 0.001000 0.016515
v 0.032907 0.001000 0.016604
v 0.036622 0.000500 0.016548
v 0.038852 -0.000000 0.016515
v 0.036622 -0.000000 0.016548
v 0.036622 -0.000500 0.016548
v 0.038852 -0.001000 0.016515
v 0.032907 -0.001000 0.016604
v 0.026962 -0.001000 0.016693
v 0.034393 -0.000000 0.016581
v 0.034393 -0.000500 0.016581
v 0.034393 0.000500 0.016581
v 0.025475 -0.000000 0.016715
v 0.026962 0.001000 0.016693
v 0.025475 -0.000500 0.016715
v 0.023246 -0.000000 0.016748
v 0.025475 0.000500 0.016715
v 0.023246 0.000500 0.016748
v 0.021017 0.001000 0.016782
v 0.021017 -0.000000 0.016782
v 0.021017 -0.001000 0.016782
v 0.023246 -0.000500 0.016748
v 0.021017 0.001000 0.016782
v 0.021017 -0.000000 0.016782
v 0.020110 0.001000 0.017017
v 0.020110 -0.001000 0.017017
v 0.019349 0.001000 0.017661
v 0.018848 0.001000 0.018615
v 0.019349 -0.001000 0.017661
v 0.018848 -0.001000 0.018615
v 0.018683 -0.001000 0.019734
v 0.018683 0.001000 0.019734
v 0.018881 -0.001000 0.020847
v 0.018881 0.001000 0.020847
v 0.019411 -0.001000 0.021785
v 0.020191 -0.001000 0.022406
v 0.019411 0.001000 0.021785
v 0.020191 0.001000 0.022406
v 0.021104 -0.000000 0.022614
v 0.021104 0.001000 0.022614
v 0.021104 -0.001000 0.022614
v 0.021017 -0.001000 0.016782
v 0.021104 0.001000 0.022614
v 0.027049 0.001000 0.022525
v 0.023333 0.000500 0.022581
v 0.021104 -0.000000 0.022614
v 0.023333 -0.000000 0.022581
v 0.023333 -0.000500 0.022581
v 0.021104 -0.001000 0.022614
v 0.027049 -0.001000 0.022525
v 0.032994 -0.001000 0.022436
v 0.025563 -0.000000 0.022547
v 0.025563 -0.000500 0.022547
v 0.025563 0.000500 0.022547
v 0.034480 -0.000000 0.022414
v 0.034480 -0.000500 0.022414
v 0.036710 -0.000000 0.022381
v 0.034480 0.000500 0.022414
v 0.032994 0.001000 0.022436
v 0.038939 0.001000 0.022347
v 0.036710 0.000500 0.022381
v 0.038939 -0.000000 0.022347
v 0.038939 -0.001000 0.022347
v 0.036710 -0.000500 0.022381
v 0.004544 0.001000 0.016369
v 0.005653 0.001000 0.016778
v 0.004544 -0.000000 0.016369
v 0.005653 -0.001000 0.016778
v 0.004544 -0.001000 0.016369
v 0.006593 -0.001000 0.017646
v 0.007110 -0.001000 0.018815
v 0.006593 0.001000 0.017646
v 0.007110 0.001000 0.018815
v 0.007138 0.001000 0.019996
v 0.006730 0.001000 0.021105
v 0.007138 -0.001000 0.019996
v 0.006730 -0.001000 0.021105
v 0.005862 -0.001000 0.022045
v 0.005862 0.001000 0.022045
v 0.004693 -0.001000 0.022562
v 0.003511 -0.001000 0.022590
v 0.004693 0.001000 0.022562
v 0.003511 -0.000000 0.022590
v 0.003511 0.001000 0.022590
v -0.016931 0.001000 -0.004473
v -0.015924 0.001000 -0.000792
v -0.016931 -0.000000 -0.004473
v -0.016931 -0.001000 -0.004473
v -0.015924 -0.001000 -0.000792
v -0.014331 -0.001000 0.002822
v -0.012157 -0.001000 0.006233
v -0.014331 0.001000 0.002822
v -0.012157 0.001000 0.006233
v -0.009450 0.001000 0.009305
v -0.009450 -0.001000 0.009305
v -0.006300 0.001000 0.011918
v -0.002825 0.001000 0.013989
v -0.006300 -0.001000 0.011918
v -0.002825 -0.001000 0.013989
v 0.000836 -0.001000 0.015473
v 0.004544 -0.001000 0.016369
v 0.004544 -0.000000 0.016369
v 0.000836 0.001000 0.015473
v 0.004544 0.001000 0.016369
v -0.016931 0.001000 -0.004473
v -0.016931 -0.000000 -0.004473
v -0.017373 0.001000 -0.005569
v -0.017373 -0.001000 -0.005569
v -0.018268 0.001000 -0.006482
v -0.018268 -0.001000 -0.006482
v -0.019453 0.001000 -0.006964
v -0.019453 -0.001000 -0.006964
v -0.020634 0.001000 -0.006957
v -0.021730 0.001000 -0.006515
v -0.020634 -0.001000 -0.006957
v -0.021730 -0.001000 -0.006515
v -0.022643 -0.001000 -0.005620
v -0.023126 -0.001000 -0.004435
v -0.022643 0.001000 -0.005620
v -0.023126 0.001000 -0.004435
v -0.023118 0.001000 -0.003254
v -0.023118 -0.000000 -0.003254
v -0.023118 -0.001000 -0.003254
v -0.016931 -0.001000 -0.004473
v 0.003511 0.001000 0.022590
v -0.001088 0.001000 0.021478
v 0.001231 0.000500 0.022128
v 0.003511 -0.000000 0.022590
v 0.003511 -0.001000 0.022590
v 0.001231 -0.000000 0.022128
v -0.001054 -0.000000 0.021489
v 0.001231 -0.000500 0.022128
v -0.001088 -0.001000 0.021478
v -0.001054 -0.000500 0.021489
v -0.005627 -0.001000 0.019638
v -0.005627 0.001000 0.019638
v -0.009935 -0.001000 0.017071
v -0.013842 -0.001000 0.013830
v -0.009935 0.001000 0.017071
v -0.013842 0.001000 0.013830
v -0.017199 0.001000 0.010022
v -0.017199 -0.001000 0.010022
v -0.019894 0.001000 0.005792
v -0.019894 -0.001000 0.005792
v -0.021839 -0.000000 0.001395
v -0.021869 0.001000 0.001310
v -0.021839 0.000500 0.001395
v -0.022571 0.000500 -0.000929
v -0.023118 0.001000 -0.003254
v -0.023118 -0.000000 -0.003254
v -0.022571 -0.000000 -0.000929
v -0.022571 -0.000500 -0.000929
v -0.021839 -0.000500 0.001395
v -0.021869 -0.001000 0.001310
v -0.023118 -0.001000 -0.003254
v -0.001054 0.000500 0.021489
v 0.042426 -0.001000 0.013071
v 0.039657 -0.000500 0.013113
v 0.039657 -0.001000 0.013113
v 0.042426 -0.000000 0.013071
v 0.039657 -0.000000 0.013113
v 0.039657 0.000500 0.013113
v 0.042426 0.001000 0.013071
v 0.039657 0.001000 0.013113
v 0.036888 0.001000 0.013154
v 0.031349 0.001000 0.013237
v 0.036888 0.000500 0.013154
v 0.036888 -0.000000 0.013154
v 0.031349 -0.000000 0.013237
v 0.031349 -0.001000 0.013237
v 0.020272 -0.000000 0.013403
v 0.036888 -0.000500 0.013154
v 0.036888 -0.001000 0.013154
v 0.014734 -0.000000 0.013486
v 0.020272 -0.001000 0.013403
v 0.020272 0.001000 0.013403
v 0.014734 0.001000 0.013486
v 0.009195 0.001000 0.013569
v 0.009195 -0.001000 0.013569
v 0.014734 -0.001000 0.013486
v -0.027230 -0.001000 -0.032238
v -0.027304 -0.001000 -0.037243
v -0.027304 -0.000500 -0.037243
v -0.027230 0.000000 -0.032238
v -0.027080 -0.001000 -0.022229
v -0.027080 0.000000 -0.022229
v -0.026997 -0.001000 -0.016674
v -0.026997 -0.000000 -0.016674
v -0.026930 -0.001000 -0.012220
v -0.026930 0.001000 -0.012220
v -0.026997 0.001000 -0.016674
v -0.027080 0.001000 -0.022229
v -0.027230 0.001000 -0.032238
v -0.027304 0.000500 -0.037243
v -0.027304 0.001000 -0.037243
v -0.027342 0.001000 -0.039745
v -0.027379 0.001000 -0.042247
v -0.027342 0.000500 -0.039745
v -0.027342 0.000000 -0.039745
v -0.027379 0.000000 -0.042247
v -0.027379 -0.001000 -0.042247
v -0.027342 -0.000500 -0.039745
v -0.027342 -0.001000 -0.039745
v -0.027304 0.000000 -0.037243
v -0.026930 -0.001000 -0.012220
v -0.023777 -0.001000 -0.012267
v -0.026930 0.001000 -0.012220
v -0.023777 0.001000 -0.012267
v -0.020624 0.001000 -0.012314
v -0.020624 -0.000000 -0.012314
v -0.020624 -0.001000 -0.012314
v -0.020624 -0.001000 -0.012314
v -0.020624 -0.000000 -0.012314
v -0.020591 -0.001000 -0.010111
v -0.020591 -0.000000 -0.010111
v -0.020591 0.001000 -0.010111
v -0.020624 0.001000 -0.012314
v -0.020591 -0.001000 -0.010111
v -0.023744 -0.001000 -0.010063
v -0.020591 -0.000000 -0.010111
v -0.020591 0.001000 -0.010111
v -0.023744 0.001000 -0.010063
v -0.026897 -0.000000 -0.010016
v -0.026897 0.001000 -0.010016
v -0.026897 -0.001000 -0.010016
v 0.009384 -0.001000 0.026180
v 0.010384 -0.001000 0.026165
v 0.009384 -0.000000 0.026180
v 0.009384 0.001000 0.026180
v 0.010384 -0.000000 0.026165
v 0.010384 0.001000 0.026165
v 0.010384 -0.001000 0.026165
v 0.010337 -0.001000 0.023012
v 0.010384 -0.000000 0.026165
v 0.010337 0.001000 0.023012
v 0.010384 0.001000 0.026165
v 0.010289 -0.000000 0.019859
v 0.010289 0.001000 0.019859
v 0.010289 -0.001000 0.019859
v 0.010289 -0.001000 0.019859
v 0.010289 -0.000000 0.019859
v 0.011391 -0.001000 0.019843
v 0.011391 0.001000 0.019843
v 0.012493 -0.000000 0.019826
v 0.012493 -0.001000 0.019826
v 0.012493 0.001000 0.019826
v 0.010289 0.001000 0.019859
v 0.012493 -0.001000 0.019826
v 0.012493 -0.000000 0.019826
v 0.012541 -0.001000 0.022979
v 0.012541 0.001000 0.022979
v 0.012588 -0.001000 0.026132
v 0.012588 0.001000 0.026132
v 0.012493 0.001000 0.019826
v 0.009195 -0.001000 0.013569
v 0.004844 -0.000000 0.013222
v 0.004844 -0.001000 0.013222
v 0.009195 0.001000 0.013569
v 0.004844 0.001000 0.013222
v 0.000386 0.001000 0.011967
v 0.000386 -0.000000 0.011967
v -0.007427 0.001000 0.006873
v -0.012564 0.001000 -0.000826
v -0.012564 -0.000000 -0.000826
v -0.007427 -0.001000 0.006873
v 0.000386 -0.001000 0.011967
v -0.012564 -0.001000 -0.000826
v -0.013833 -0.001000 -0.005058
v -0.013833 -0.000000 -0.005058
v -0.014271 -0.001000 -0.009205
v -0.014271 0.001000 -0.009205
v -0.013833 0.001000 -0.005058
v -0.026882 -0.001000 -0.009016
v -0.026743 -0.000500 -0.006363
v -0.026743 -0.001000 -0.006363
v -0.026882 -0.000000 -0.009016
v -0.026882 0.001000 -0.009016
v -0.026743 -0.000000 -0.006363
v -0.026743 0.000500 -0.006363
v -0.026743 0.001000 -0.006363
v -0.026396 0.000500 -0.003653
v -0.025021 0.001000 0.001843
v -0.026396 0.001000 -0.003653
v -0.025021 -0.000000 0.001843
v -0.026396 -0.000000 -0.003653
v -0.026396 -0.000500 -0.003653
v -0.025021 -0.001000 0.001843
v -0.026396 -0.001000 -0.003653
v -0.019653 -0.001000 0.012003
v -0.019653 0.001000 0.012003
v -0.011235 -0.001000 0.020006
v -0.011235 0.001000 0.020006
v -0.001003 -0.000000 0.024799
v -0.001003 -0.001000 0.024799
v 0.004267 -0.000500 0.025889
v 0.004267 -0.001000 0.025889
v 0.006854 -0.001000 0.026128
v 0.006854 -0.000500 0.026128
v 0.009384 -0.001000 0.026180
v 0.009384 -0.000000 0.026180
v 0.009384 0.001000 0.026180
v 0.006854 0.000500 0.026128
v 0.006854 -0.000000 0.026128
v 0.004267 -0.000000 0.025889
v 0.004267 0.000500 0.025889
v 0.004267 0.001000 0.025889
v -0.001003 0.001000 0.024799
v 0.006854 0.001000 0.026128
v -0.014271 -0.001000 -0.009205
v -0.014351 -0.000000 -0.014523
v -0.014351 -0.001000 -0.014523
v -0.014271 0.001000 -0.009205
v -0.014351 0.001000 -0.014523
v -0.014430 0.001000 -0.019841
v -0.014430 0.000000 -0.019841
v -0.014589 0.001000 -0.030476
v -0.014589 -0.001000 -0.030476
v -0.014749 0.001000 -0.041112
v -0.014749 0.000000 -0.041112
v -0.014828 0.000000 -0.046429
v -0.014828 -0.000500 -0.046429
v -0.014828 0.000500 -0.046429
v -0.014749 -0.001000 -0.041112
v -0.014828 -0.001000 -0.046429
v -0.014868 -0.001000 -0.049088
v -0.014908 -0.001000 -0.051747
v -0.014868 -0.000500 -0.049088
v -0.014868 0.000000 -0.049088
v -0.014908 0.000000 -0.051747
v -0.014908 0.001000 -0.051747
v -0.014868 0.000500 -0.049088
v -0.014868 0.001000 -0.049088
v -0.014828 0.001000 -0.046429
v -0.014430 -0.001000 -0.019841
v -0.016559 -0.001000 -0.052491
v -0.016559 0.000000 -0.052491
v -0.016099 -0.001000 -0.052714
v -0.015800 -0.001000 -0.052726
v -0.016099 0.001000 -0.052714
v -0.016559 0.001000 -0.052491
v -0.015800 0.001000 -0.052726
v -0.015497 0.001000 -0.052644
v -0.015497 -0.001000 -0.052644
v -0.015235 0.001000 -0.052472
v -0.015235 -0.001000 -0.052472
v -0.015046 0.001000 -0.052240
v -0.015046 -0.001000 -0.052240
v -0.014908 0.001000 -0.051747
v -0.014908 0.000000 -0.051747
v -0.014908 -0.001000 -0.051747
v 0.012588 -0.001000 0.026132
v 0.016955 -0.000000 0.026066
v 0.016955 -0.001000 0.026066
v 0.012588 0.001000 0.026132
v 0.016955 0.001000 0.026066
v 0.022422 0.001000 0.025984
v 0.022422 -0.000000 0.025984
v 0.032257 0.001000 0.025837
v 0.032257 -0.001000 0.025837
v 0.042092 0.001000 0.025690
v 0.042092 -0.000000 0.025690
v 0.047009 -0.000000 0.025616
v 0.047009 -0.000500 0.025616
v 0.047009 0.000500 0.025616
v 0.042092 -0.001000 0.025690
v 0.047009 -0.001000 0.025616
v 0.049467 -0.001000 0.025580
v 0.049467 -0.000500 0.025580
v 0.051926 -0.001000 0.025543
v 0.051926 -0.000000 0.025543
v 0.051926 0.001000 0.025543
v 0.049467 -0.000000 0.025580
v 0.049467 0.000500 0.025580
v 0.049467 0.001000 0.025580
v 0.047009 0.001000 0.025616
v 0.022422 -0.001000 0.025984
v 0.052670 -0.001000 0.023891
v 0.052670 -0.000000 0.023891
v 0.052893 -0.001000 0.024351
v 0.052905 -0.001000 0.024650
v 0.052893 0.001000 0.024351
v 0.052905 0.001000 0.024650
v 0.052670 0.001000 0.023891
v 0.052823 0.001000 0.024953
v 0.052823 -0.001000 0.024953
v 0.052651 0.001000 0.025216
v 0.052651 -0.001000 0.025216
v 0.052418 0.001000 0.025405
v 0.052418 -0.001000 0.025405
v 0.051926 0.001000 0.025543
v 0.051926 -0.000000 0.025543
v 0.051926 -0.001000 0.025543
v 0.048321 -0.001000 0.018829
v 0.048321 -0.000000 0.018829
v 0.050496 -0.001000 0.021360
v 0.046147 -0.001000 0.016299
v 0.046147 -0.000000 0.016299
v 0.043973 -0.001000 0.013768
v 0.043973 -0.000000 0.013768
v 0.043973 0.001000 0.013768
v 0.046147 0.001000 0.016299
v 0.048321 0.001000 0.018829
v 0.050496 0.001000 0.021360
v 0.050496 -0.000000 0.021360
v 0.052670 0.001000 0.023891
v 0.052670 -0.000000 0.023891
v 0.052670 -0.001000 0.023891
v 0.042426 -0.001000 0.013071
v 0.043277 -0.001000 0.013247
v 0.042426 -0.000000 0.013071
v 0.042426 0.001000 0.013071
v 0.043277 0.001000 0.013247
v 0.043973 0.001000 0.013768
v 0.043973 -0.000000 0.013768
v 0.043973 -0.001000 0.013768
v -0.016559 -0.001000 -0.052491
v -0.016559 0.000000 -0.052491
v -0.019090 -0.001000 -0.050317
v -0.019090 0.000000 -0.050317
v -0.021621 -0.001000 -0.048143
v -0.021621 0.000000 -0.048143
v -0.024152 -0.001000 -0.045968
v -0.026683 -0.001000 -0.043794
v -0.024152 0.000000 -0.045968
v -0.026683 0.000000 -0.043794
v -0.024152 0.001000 -0.045968
v -0.026683 0.001000 -0.043794
v -0.021621 0.001000 -0.048143
v -0.019090 0.001000 -0.050317
v -0.016559 0.001000 -0.052491
v -0.027379 -0.001000 -0.042247
v -0.027203 -0.001000 -0.043099
v -0.027379 0.000000 -0.042247
v -0.027379 0.001000 -0.042247
v -0.027203 0.001000 -0.043099
v -0.026683 0.001000 -0.043794
v -0.026683 0.000000 -0.043794
v -0.026683 -0.001000 -0.043794
v -0.026683 -0.001000 -0.043794
v -0.027203 -0.001000 -0.043099
v -0.027379 -0.001000 -0.042247
v -0.023187 -0.001000 -0.040366
v -0.022182 -0.001000 -0.040924
v -0.021084 -0.001000 -0.041112
v -0.016559 -0.001000 -0.052491
v -0.019981 -0.001000 -0.040957
v -0.015800 -0.001000 -0.052726
v -0.016099 -0.001000 -0.052714
v -0.015497 -0.001000 -0.052644
v -0.014908 -0.001000 -0.051747
v -0.015235 -0.001000 -0.052472
v -0.015046 -0.001000 -0.052240
v -0.018058 -0.001000 -0.038720
v -0.018281 -0.001000 -0.039614
v -0.018959 -0.001000 -0.040430
v -0.014271 -0.001000 -0.009205
v -0.017998 -0.001000 -0.019501
v -0.018634 -0.001000 -0.018701
v -0.017784 -0.001000 -0.020437
v -0.020624 -0.001000 -0.012314
v -0.020591 -0.001000 -0.010111
v -0.018268 -0.001000 -0.006482
v -0.017373 -0.001000 -0.005569
v -0.016931 -0.001000 -0.004473
v -0.012520 -0.001000 -0.000719
v -0.014331 -0.001000 0.002822
v -0.007255 -0.001000 0.007042
v -0.002825 -0.001000 0.013989
v -0.009450 -0.001000 0.009305
v 0.000660 -0.001000 0.012073
v 0.004544 -0.001000 0.016369
v 0.009195 -0.001000 0.013569
v 0.005653 -0.001000 0.016778
v 0.006593 -0.001000 0.017646
v 0.010289 -0.001000 0.019859
v 0.012493 -0.001000 0.019826
v 0.019349 -0.001000 0.017661
v 0.042426 -0.001000 0.013071
v 0.021017 -0.001000 0.016782
v 0.020110 -0.001000 0.017017
v 0.038852 -0.001000 0.016515
v 0.039730 -0.001000 0.016706
v 0.040545 -0.001000 0.017344
v 0.041089 -0.001000 0.018324
v 0.043973 -0.001000 0.013768
v 0.043277 -0.001000 0.013247
v 0.041272 -0.001000 0.019395
v 0.052670 -0.001000 0.023891
v 0.052905 -0.001000 0.024650
v 0.052893 -0.001000 0.024351
v 0.052823 -0.001000 0.024953
v 0.051926 -0.001000 0.025543
v 0.041121 -0.001000 0.020471
v 0.040607 -0.001000 0.021468
v 0.039811 -0.001000 0.022129
v 0.038939 -0.001000 0.022347
v 0.013588 -0.001000 0.026117
v 0.021104 -0.001000 0.022614
v 0.020191 -0.001000 0.022406
v 0.019411 -0.001000 0.021785
v 0.018881 -0.001000 0.020847
v 0.018683 -0.001000 0.019734
v 0.018848 -0.001000 0.018615
v 0.012588 -0.001000 0.026132
v 0.052651 -0.001000 0.025216
v 0.052418 -0.001000 0.025405
v 0.007110 -0.001000 0.018815
v 0.007138 -0.001000 0.019996
v 0.006730 -0.001000 0.021105
v 0.009384 -0.001000 0.026180
v 0.010384 -0.001000 0.026165
v 0.005862 -0.001000 0.022045
v 0.004693 -0.001000 0.022562
v 0.003511 -0.001000 0.022590
v -0.003806 -0.001000 0.023868
v -0.005627 -0.001000 0.019638
v -0.016038 -0.001000 0.016093
v -0.013842 -0.001000 0.013830
v -0.019894 -0.001000 0.005792
v -0.024176 -0.001000 0.004098
v -0.023118 -0.001000 -0.003254
v -0.026882 -0.001000 -0.009016
v -0.026897 -0.001000 -0.010016
v -0.021730 -0.001000 -0.006515
v -0.023126 -0.001000 -0.004435
v -0.022643 -0.001000 -0.005620
v -0.020634 -0.001000 -0.006957
v -0.019453 -0.001000 -0.006964
v -0.026945 -0.001000 -0.013220
v -0.026930 -0.001000 -0.012220
v -0.021884 -0.001000 -0.018124
v -0.020737 -0.001000 -0.017956
v -0.019596 -0.001000 -0.018158
v -0.022862 -0.001000 -0.018638
v -0.023522 -0.001000 -0.019418
v -0.023763 -0.001000 -0.020347
v -0.024037 -0.001000 -0.038631
v -0.023840 -0.001000 -0.039530
vn 0.000000 1.000000 0.000000
vn 0.000000 1.000000 0.000000
vn 0.000000 1.000000 0.000000
vn 0.000000 1.000000 0.000000
vn 0.000000 1.000000 0.000000
vn 0.000000 1.000000 0.000000
vn 0.000000 1.000000 0.000000
vn 0.000000 1.000000 0.000000
vn 0.000000 1.000000 0.000000
vn 0.000000 1.000000 0.000000
vn 0.000000 1.000000 0.000000
vn 0.000000 1.000000 0.000000
vn 0.000000 1.000000 0.000000
vn 0.000000 1.000000 0.000000
vn 0.000000 1.000000 0.000000
vn 0.000000 1.000000 0.000000
vn 0.000000 1.000000 0.000000
vn 0.000000 1.000000 0.000000
vn 0.000000 1.000000 0.000000
vn 0.000000 1.000000 0.000000
vn 0.000000 1.000000 0.000000
vn 0.000000 1.000000 0.000000
vn 0.000000 1.000000 0.000000
vn 0.000000 1.000000 0.000000
vn 0.000000 1.000000 0.000000
vn 0.000000 1.000000 0.000000
vn 0.000000 1.000000 0.000000
vn 0.000000 1.000000 0.000000
vn 0.000000 1.000000 0.000000
vn 0.000000 1.000000 0.000000
vn 0.000000 1.000000 0.000000
vn 0.000000 1.000000 0.000000
vn 0.000000 1.000000 0.000000
vn 0.000000 1.000000 0.000000
vn 0.000000 1.000000 0.000000
vn 0.000000 1.000000 0.000000
vn 0.000000 1.000000 0.000000
vn 0.000000 1.000000 0.000000
vn 0.000000 1.000000 0.000000
vn 0.000000 1.000000 0.000000
vn 0.000000 1.000000 0.000000
vn 0.000000 1.000000 0.000000
vn 0.000000 1.000000 0.000000
vn 0.000000 1.000000 0.000000
vn 0.000000 1.000000 0.000000
vn 0.000000 1.000000 0.000000
vn 0.000000 1.000000 0.000000
vn 0.000000 1.000000 0.000000
vn 0.000000 1.000000 0.000000
vn 0.000000 1.000000 0.000000
vn 0.000000 1.000000 0.000000
vn 0.000000 1.000000 0.000000
vn 0.000000 1.000000 0.000000
vn 0.000000 1.000000 0.000000
vn 0.000000 1.000000 0.000000
vn 0.000000 1.000000 0.000000
vn 0.000000 1.000000 0.000000
vn 0.000000 1.000000 0.000000
vn 0.000000 1.000000 0.000000
vn 0.000000 1.000000 0.000000
vn 0.000000 1.000000 0.000000
vn 0.000000 1.000000 0.000000
vn 0.000000 1.000000 0.000000
vn 0.000000 1.000000 0.000000
vn 0.000000 1.000000 0.000000
vn 0.000000 1.000000 0.000000
vn 0.000000 1.000000 0.000000
vn 0.000000 1.000000 0.000000
vn 0.000000 1.000000 0.000000
vn 0.000000 1.000000 0.000000
vn 0.000000 1.000000 0.000000
vn 0.000000 1.000000 0.000000
vn 0.000000 1.000000 0.000000
vn 0.000000 1.000000 0.000000
vn 0.000000 1.000000 0.000000
vn 0.000000 1.000000 0.000000
vn 0.000000 1.000000 0.000000
vn 0.000000 1.000000 0.000000
vn 0.000000 1.000000 0.000000
vn 0.000000 1.000000 0.000000
vn 0.000000 1.000000 0.000000
vn 0.000000 1.000000 0.000000
vn 0.000000 1.000000 0.000000
vn 0.000000 1.000000 0.000000
vn 0.000000 1.000000 0.000000
vn 0.000000 1.000000 0.000000
vn 0.000000 1.000000 0.000000
vn 0.000000 1.000000 0.000000
vn 0.000000 1.000000 0.000000
vn 0.000000 1.000000 0.000000
vn 0.000000 1.000000 0.000000
vn 0.000000 1.000000 0.000000
vn 0.000000 1.000000 0.000000
vn 0.000000 1.000000 0.000000
vn 0.000000 1.000000 0.000000
vn 0.000000 1.000000 0.000000
vn 0.000000 1.000000 0.000000
vn 0.000000 1.000000 0.000000
vn 0.000000 1.000000 0.000000
vn 0.000000 1.000000 0.000000
vn 0.999889 0.000000 -0.014900
vn 0.905935 -0.000000 0.423416
vn 0.999889 0.000000 -0.014900
vn 0.905935 -0.000000 0.423416
vn 0.999889 0.000000 -0.014900
vn 0.643307 -0.000000 0.765608
vn 0.321293 -0.000000 0.946980
vn 0.643307 -0.000000 0.765608
vn 0.321293 -0.000000 0.946980
vn 0.015000 -0.000000 0.999887
vn 0.015000 -0.000000 0.999887
vn -0.292793 -0.000000 0.956176
vn -0.620111 -0.000000 0.784514
vn -0.292793 -0.000000 0.956176
vn -0.620111 -0.000000 0.784514
vn -0.892821 -0.000000 0.450411
vn -0.999886 -0.000000 0.015100
vn -0.892882 -0.000000 0.450291
vn -0.999886 -0.000000 0.015100
vn -0.999886 -0.000000 0.015100
vn 0.999887 0.000000 -0.015000
vn 0.999887 0.000000 -0.015000
vn 0.999887 0.000000 -0.015000
vn 0.999887 0.000000 -0.015000
vn 0.999887 0.000000 -0.015000
vn 0.999887 -0.000100 -0.015000
vn 0.999887 0.000000 -0.015000
vn 0.999887 0.000000 -0.015000
vn 0.999887 0.000100 -0.015000
vn 0.999887 0.000000 -0.015000
vn 0.999887 0.000000 -0.015000
vn 0.999887 0.000000 -0.015000
vn 0.999887 -0.000100 -0.015000
vn 0.999887 0.000000 -0.015000
vn 0.999887 0.000000 -0.015000
vn 0.999887 0.000000 -0.015000
vn 0.999887 0.000000 -0.015000
vn 0.999887 0.000000 -0.015000
vn 0.999887 0.000000 -0.015000
vn 0.999887 0.000000 -0.015000
vn 0.999887 0.000000 -0.015000
vn 0.999887 0.000000 -0.015000
vn 0.999887 0.000000 -0.015000
vn 0.999887 0.000000 -0.015000
vn -0.999889 -0.000000 0.014900
vn -0.898155 0.000000 -0.439678
vn -0.999889 -0.000000 0.014900
vn -0.898155 0.000000 -0.439678
vn -0.999889 -0.000000 0.014900
vn -0.643307 0.000000 -0.765608
vn -0.333991 0.000000 -0.942576
vn -0.643307 0.000000 -0.765608
vn -0.333991 0.000000 -0.942576
vn -0.015000 0.000000 -0.999887
vn 0.305588 0.000000 -0.952164
vn -0.015000 0.000000 -0.999887
vn 0.305588 0.000000 -0.952164
vn 0.620111 0.000000 -0.784514
vn 0.884580 0.000000 -0.466389
vn 0.620111 0.000000 -0.784514
vn 0.884580 0.000000 -0.466389
vn 0.999887 0.000000 -0.015000
vn 0.999886 0.000000 -0.015100
vn 0.999887 0.000000 -0.015000
vn -0.999887 -0.000000 0.015000
vn -0.999887 -0.000000 0.015000
vn -0.999887 -0.000000 0.015000
vn -0.999887 -0.000000 0.015000
vn -0.999887 -0.000000 0.015000
vn -0.999887 -0.000000 0.015000
vn -0.999887 -0.000000 0.015000
vn -0.999887 -0.000000 0.015000
vn -0.999887 -0.000000 0.015000
vn -0.999887 -0.000000 0.015000
vn -0.999887 -0.000000 0.015000
vn -0.999887 -0.000000 0.015000
vn -0.999887 -0.000000 0.015000
vn -0.999887 -0.000000 0.015000
vn -0.999887 -0.000000 0.015000
vn -0.999887 -0.000000 0.015000
vn -0.999887 -0.000000 0.015000
vn -0.999887 -0.000000 0.015000
vn -0.999887 -0.000000 0.015000
vn -0.999887 -0.000000 0.015000
vn -0.999887 0.000100 0.015000
vn -0.999887 -0.000000 0.015000
vn -0.999887 -0.000000 0.015000
vn -0.999887 -0.000000 0.015000
vn 0.014900 -0.000000 0.999889
vn -0.423581 -0.000000 0.905858
vn 0.014900 -0.000000 0.999889
vn -0.423498 -0.000000 0.905897
vn 0.014900 -0.000000 0.999889
vn -0.765608 -0.000000 0.643307
vn -0.765608 -0.000000 0.643307
vn -0.946980 -0.000000 0.321293
vn -0.999887 -0.000000 0.015000
vn -0.946980 -0.000000 0.321293
vn -0.999887 -0.000000 0.015000
vn -0.956176 0.000000 -0.292793
vn -0.956176 0.000000 -0.292793
vn -0.784514 0.000000 -0.620111
vn -0.784514 0.000000 -0.620111
vn -0.450371 0.000000 -0.892842
vn -0.015100 0.000000 -0.999886
vn -0.015100 0.000000 -0.999886
vn -0.450371 0.000000 -0.892842
vn -0.015100 0.000000 -0.999886
vn 0.014900 -0.000000 0.999889
vn 0.015000 -0.000100 0.999887
vn 0.015000 -0.000100 0.999887
vn 0.014900 -0.000000 0.999889
vn 0.014900 -0.000000 0.999889
vn 0.015000 -0.000000 0.999887
vn 0.014900 -0.000000 0.999889
vn 0.015000 0.000100 0.999887
vn 0.015000 -0.000000 0.999887
vn 0.015000 -0.000000 0.999887
vn 0.015000 0.000100 0.999887
vn 0.015000 -0.000100 0.999887
vn 0.015000 -0.000000 0.999887
vn 0.015000 -0.000000 0.999887
vn 0.015000 -0.000000 0.999887
vn 0.015000 -0.000000 0.999887
vn 0.015000 -0.000000 0.999887
vn 0.015000 -0.000000 0.999887
vn 0.015000 -0.000000 0.999887
vn 0.014900 -0.000000 0.999889
vn 0.015000 -0.000000 0.999887
vn 0.015000 -0.000000 0.999887
vn 0.015100 -0.000000 0.999886
vn 0.015100 -0.000000 0.999886
vn 0.466311 -0.000000 0.884621
vn 0.466311 -0.000000 0.884621
vn 0.784514 -0.000000 0.620111
vn 0.952125 -0.000000 0.305708
vn 0.784514 -0.000000 0.620111
vn 0.952125 -0.000000 0.305708
vn 0.999887 0.000000 -0.015000
vn 0.999887 0.000000 -0.015000
vn 0.942545 0.000000 -0.334080
vn 0.942545 0.000000 -0.334080
vn 0.765608 0.000000 -0.643307
vn 0.439678 0.000000 -0.898155
vn 0.765608 0.000000 -0.643307
vn 0.439597 0.000000 -0.898195
vn -0.014900 0.000000 -0.999889
vn -0.015000 0.000000 -0.999887
vn -0.015000 0.000000 -0.999887
vn 0.015100 -0.000000 0.999886
vn -0.015000 0.000000 -0.999887
vn -0.015000 0.000000 -0.999887
vn -0.015000 0.000100 -0.999887
vn -0.015000 0.000000 -0.999887
vn -0.015000 0.000000 -0.999887
vn -0.015000 -0.000100 -0.999887
vn -0.015000 0.000000 -0.999887
vn -0.015000 0.000000 -0.999887
vn -0.015000 0.000000 -0.999887
vn -0.015000 0.000000 -0.999887
vn -0.014900 0.000000 -0.999889
vn -0.015000 0.000000 -0.999887
vn -0.015000 0.000000 -0.999887
vn -0.015000 0.000100 -0.999887
vn -0.015000 0.000000 -0.999887
vn -0.015000 -0.000100 -0.999887
vn -0.015000 0.000000 -0.999887
vn -0.015000 0.000000 -0.999887
vn -0.015000 -0.000100 -0.999887
vn -0.015000 0.000000 -0.999887
vn -0.015000 0.000000 -0.999887
vn -0.015000 0.000100 -0.999887
vn -0.163799 -0.000000 0.986494
vn -0.515495 -0.000000 0.856892
vn -0.163896 -0.000000 0.986478
vn -0.515495 -0.000000 0.856892
vn -0.163799 -0.000000 0.986494
vn -0.813402 -0.000000 0.581702
vn -0.977528 -0.000000 0.210806
vn -0.813402 -0.000000 0.581702
vn -0.977528 -0.000000 0.210806
vn -0.986494 0.000000 -0.163799
vn -0.856936 0.000000 -0.515422
vn -0.986494 0.000000 -0.163799
vn -0.856936 0.000000 -0.515422
vn -0.581702 0.000000 -0.813402
vn -0.581702 0.000000 -0.813402
vn -0.210806 0.000000 -0.977528
vn 0.163702 0.000000 -0.986510
vn -0.210806 0.000000 -0.977528
vn 0.163702 0.000000 -0.986510
vn 0.163702 0.000000 -0.986510
vn -0.981138 -0.000000 0.193308
vn -0.942787 -0.000000 0.333395
vn -0.981138 -0.000000 0.193308
vn -0.981138 -0.000000 0.193308
vn -0.942756 -0.000000 0.333484
vn -0.882190 -0.000000 0.470894
vn -0.799484 -0.000000 0.600688
vn -0.882190 -0.000000 0.470894
vn -0.799484 -0.000000 0.600688
vn -0.696427 -0.000000 0.717628
vn -0.696427 -0.000000 0.717628
vn -0.576907 -0.000000 0.816810
vn -0.444211 -0.000000 0.895922
vn -0.576907 -0.000000 0.816810
vn -0.444211 -0.000000 0.895922
vn -0.304986 -0.000000 0.952357
vn -0.163896 -0.000000 0.986478
vn -0.163896 -0.000000 0.986478
vn -0.304986 -0.000000 0.952357
vn -0.163896 -0.000000 0.986478
vn -0.981119 -0.000000 0.193404
vn -0.981119 -0.000000 0.193404
vn -0.841091 -0.000000 0.540894
vn -0.841091 -0.000000 0.540894
vn -0.557121 -0.000000 0.830431
vn -0.557121 -0.000000 0.830431
vn -0.181402 -0.000000 0.983409
vn -0.181402 -0.000000 0.983409
vn 0.193307 -0.000000 0.981138
vn 0.540894 -0.000000 0.841091
vn 0.193307 -0.000000 0.981138
vn 0.540894 -0.000000 0.841091
vn 0.830431 -0.000000 0.557121
vn 0.983391 -0.000000 0.181498
vn 0.830431 -0.000000 0.557121
vn 0.983391 -0.000000 0.181498
vn 0.981161 0.000000 -0.193192
vn 0.981161 0.000000 -0.193192
vn 0.981161 0.000000 -0.193192
vn -0.981119 -0.000000 0.193404
vn 0.163799 0.000000 -0.986494
vn 0.304986 -0.000100 -0.952357
vn 0.233796 0.000000 -0.972286
vn 0.163799 0.000000 -0.986494
vn 0.163799 0.000000 -0.986494
vn 0.234103 0.000000 -0.972212
vn 0.303901 0.000000 -0.952704
vn 0.233796 0.000000 -0.972286
vn 0.304986 0.000100 -0.952357
vn 0.303992 0.000000 -0.952675
vn 0.444291 0.000000 -0.895882
vn 0.444411 0.000000 -0.895823
vn 0.576907 0.000000 -0.816810
vn 0.696427 0.000000 -0.717628
vn 0.576907 0.000000 -0.816810
vn 0.696427 0.000000 -0.717628
vn 0.799183 0.000000 -0.601088
vn 0.799183 0.000000 -0.601088
vn 0.882190 0.000000 -0.470894
vn 0.882190 0.000000 -0.470894
vn 0.941866 0.000000 -0.335988
vn 0.942787 -0.000200 -0.333395
vn 0.941866 0.000100 -0.335988
vn 0.964361 -0.000200 -0.264589
vn 0.981138 0.000000 -0.193308
vn 0.981138 0.000000 -0.193308
vn 0.964387 0.000000 -0.264496
vn 0.964361 0.000100 -0.264589
vn 0.941866 0.000200 -0.335988
vn 0.942818 0.000300 -0.333307
vn 0.981138 0.000000 -0.193308
vn 0.303901 0.000000 -0.952704
vn -0.015000 0.000000 -0.999887
vn -0.015000 0.000000 -0.999887
vn -0.015000 0.000000 -0.999887
vn -0.015000 0.000000 -0.999887
vn -0.015000 0.000000 -0.999887
vn -0.015000 0.000000 -0.999887
vn -0.015000 0.000000 -0.999887
vn -0.015000 0.000000 -0.999887
vn -0.015000 0.000000 -0.999887
vn -0.015000 0.000000 -0.999887
vn -0.015000 0.000000 -0.999887
vn -0.015000 0.000000 -0.999887
vn -0.015000 0.000000 -0.999887
vn -0.015000 0.000000 -0.999887
vn -0.015000 0.000000 -0.999887
vn -0.015000 0.000000 -0.999887
vn -0.015000 0.000000 -0.999887
vn -0.015000 0.000000 -0.999887
vn -0.015000 0.000000 -0.999887
vn -0.015000 0.000000 -0.999887
vn -0.015000 0.000000 -0.999887
vn -0.015000 0.000000 -0.999887
vn -0.015000 0.000000 -0.999887
vn -0.015000 0.000000 -0.999887
vn -0.999887 -0.000000 0.015000
vn -0.999887 -0.000000 0.015000
vn -0.999887 -0.000000 0.015000
vn -0.999887 -0.000000 0.015000
vn -0.999887 -0.000000 0.015000
vn -0.999887 -0.000000 0.015000
vn -0.999887 -0.000000 0.015000
vn -0.999887 -0.000000 0.015000
vn -0.999887 -0.000000 0.015000
vn -0.999887 -0.000000 0.015000
vn -0.999887 -0.000000 0.015000
vn -0.999887 -0.000000 0.015000
vn -0.999887 -0.000000 0.015000
vn -0.999887 -0.000000 0.015000
vn -0.999887 -0.000000 0.015000
vn -0.999887 -0.000000 0.015000
vn -0.999887 -0.000000 0.015000
vn -0.999887 -0.000000 0.015000
vn -0.999887 -0.000000 0.015000
vn -0.999887 -0.000000 0.015000
vn -0.999887 -0.000000 0.015000
vn -0.999887 -0.000000 0.015000
vn -0.999887 -0.000000 0.015000
vn -0.999887 -0.000000 0.015000
vn 0.015000 -0.000000 0.999887
vn 0.015000 -0.000000 0.999887
vn 0.015000 -0.000000 0.999887
vn 0.015000 -0.000000 0.999887
vn 0.014900 -0.000000 0.999889
vn 0.014900 -0.000000 0.999889
vn 0.014900 -0.000000 0.999889
vn -0.999887 -0.000000 0.015000
vn -0.999887 -0.000000 0.015000
vn -0.999887 -0.000000 0.015000
vn -0.999887 -0.000000 0.015000
vn -0.999887 -0.000000 0.015000
vn -0.999887 -0.000000 0.015000
vn -0.015000 0.000000 -0.999887
vn -0.015000 0.000000 -0.999887
vn -0.015000 0.000000 -0.999887
vn -0.015000 0.000000 -0.999887
vn -0.015000 0.000000 -0.999887
vn -0.014900 0.000000 -0.999889
vn -0.014900 0.000000 -0.999889
vn -0.014900 0.000000 -0.999889
vn 0.015000 -0.000000 0.999887
vn 0.015000 -0.000000 0.999887
vn 0.015000 -0.000000 0.999887
vn 0.015000 -0.000000 0.999887
vn 0.015000 -0.000000 0.999887
vn 0.015000 -0.000000 0.999887
vn 0.999889 0.000000 -0.014900
vn 0.999887 0.000000 -0.015000
vn 0.999889 0.000000 -0.014900
vn 0.999887 0.000000 -0.015000
vn 0.999889 0.000000 -0.014900
vn 0.999887 0.000000 -0.015000
vn 0.999887 0.000000 -0.015000
vn 0.999887 0.000000 -0.015000
vn 0.015300 -0.000000 0.999883
vn 0.015000 -0.000000 0.999887
vn 0.015000 -0.000000 0.999887
vn 0.015000 -0.000000 0.999887
vn 0.015000 -0.000000 0.999887
vn 0.015300 -0.000000 0.999883
vn 0.015000 -0.000000 0.999887
vn 0.015300 -0.000000 0.999883
vn -0.999887 -0.000000 0.015000
vn -0.999887 -0.000000 0.015000
vn -0.999887 -0.000000 0.015000
vn -0.999887 -0.000000 0.015000
vn -0.999887 -0.000000 0.015000
vn -0.999887 -0.000000 0.015000
vn -0.999887 -0.000000 0.015000
vn -0.014900 0.000000 -0.999889
vn 0.173198 0.000000 -0.984887
vn 0.173198 0.000000 -0.984887
vn -0.014900 0.000000 -0.999889
vn 0.173198 0.000000 -0.984887
vn 0.366005 0.000000 -0.930613
vn 0.366005 0.000000 -0.930613
vn 0.703899 0.000000 -0.710300
vn 0.926057 0.000000 -0.377383
vn 0.926057 0.000000 -0.377383
vn 0.703899 0.000000 -0.710300
vn 0.366005 0.000000 -0.930613
vn 0.926057 0.000000 -0.377383
vn 0.980941 0.000000 -0.194308
vn 0.980921 0.000000 -0.194404
vn 0.999887 0.000000 -0.015000
vn 0.999887 0.000000 -0.015000
vn 0.980941 0.000000 -0.194308
vn -0.999887 -0.000000 0.015000
vn -0.996023 -0.000000 0.089102
vn -0.995996 -0.000000 0.089400
vn -0.999887 -0.000000 0.015000
vn -0.999887 -0.000000 0.015000
vn -0.996014 -0.000000 0.089201
vn -0.996014 -0.000000 0.089201
vn -0.996014 -0.000000 0.089201
vn -0.986277 -0.000000 0.165096
vn -0.947790 -0.000000 0.318897
vn -0.986277 -0.000000 0.165096
vn -0.947790 -0.000000 0.318897
vn -0.986277 -0.000000 0.165096
vn -0.986277 -0.000000 0.165096
vn -0.947790 -0.000000 0.318897
vn -0.986277 -0.000000 0.165096
vn -0.797461 -0.000000 0.603371
vn -0.797461 -0.000000 0.603371
vn -0.562201 -0.000000 0.827001
vn -0.562201 -0.000000 0.827001
vn -0.275712 -0.000000 0.961240
vn -0.275712 -0.000000 0.961240
vn -0.128304 -0.000000 0.991735
vn -0.128304 -0.000000 0.991735
vn -0.055703 -0.000000 0.998447
vn -0.055802 -0.000000 0.998442
vn 0.015000 -0.000000 0.999887
vn 0.015000 -0.000000 0.999887
vn 0.015000 -0.000000 0.999887
vn -0.055802 -0.000000 0.998442
vn -0.055703 -0.000000 0.998447
vn -0.128206 -0.000000 0.991748
vn -0.128304 -0.000000 0.991735
vn -0.128304 -0.000000 0.991735
vn -0.275712 -0.000000 0.961240
vn -0.055703 -0.000000 0.998447
vn 0.999887 0.000000 -0.015000
vn 0.999887 0.000000 -0.015000
vn 0.999887 0.000000 -0.015000
vn 0.999887 0.000000 -0.015000
vn 0.999887 0.000000 -0.015000
vn 0.999887 0.000000 -0.015000
vn 0.999887 0.000000 -0.015000
vn 0.999887 0.000000 -0.015000
vn 0.999887 0.000000 -0.015000
vn 0.999887 0.000000 -0.015000
vn 0.999887 0.000000 -0.015000
vn 0.999887 0.000000 -0.015000
vn 0.999887 0.000000 -0.015000
vn 0.999887 0.000000 -0.015000
vn 0.999887 0.000000 -0.015000
vn 0.999887 0.000000 -0.015000
vn 0.999887 0.000000 -0.015000
vn 0.999887 0.000000 -0.015000
vn 0.999887 0.000000 -0.015000
vn 0.999887 0.000000 -0.015000
vn 0.999887 0.000000 -0.015000
vn 0.999887 0.000000 -0.015000
vn 0.999887 0.000000 -0.015000
vn 0.999887 0.000000 -0.015000
vn 0.999887 0.000000 -0.015000
vn 0.999887 0.000000 -0.015000
vn -0.651582 0.000000 -0.758579
vn -0.651524 0.000000 -0.758628
vn -0.191402 0.000000 -0.981512
vn 0.107599 0.000000 -0.994194
vn -0.191402 0.000000 -0.981512
vn -0.651582 0.000000 -0.758579
vn 0.107599 0.000000 -0.994194
vn 0.410523 0.000000 -0.911850
vn 0.410523 0.000000 -0.911850
vn 0.673021 0.000000 -0.739623
vn 0.673021 0.000000 -0.739623
vn 0.861777 0.000000 -0.507287
vn 0.861777 0.000000 -0.507287
vn 0.999887 0.000000 -0.015000
vn 0.999887 0.000000 -0.015000
vn 0.999887 0.000000 -0.015000
vn 0.015000 -0.000000 0.999887
vn 0.015000 -0.000000 0.999887
vn 0.015000 -0.000000 0.999887
vn 0.015000 -0.000000 0.999887
vn 0.015000 -0.000000 0.999887
vn 0.015000 -0.000000 0.999887
vn 0.015000 -0.000000 0.999887
vn 0.015000 -0.000000 0.999887
vn 0.015000 -0.000000 0.999887
vn 0.015000 -0.000000 0.999887
vn 0.015000 -0.000000 0.999887
vn 0.015000 -0.000000 0.999887
vn 0.015000 -0.000000 0.999887
vn 0.015000 -0.000000 0.999887
vn 0.015000 -0.000000 0.999887
vn 0.015000 -0.000000 0.999887
vn 0.015000 -0.000000 0.999887
vn 0.015000 -0.000000 0.999887
vn 0.015000 -0.000000 0.999887
vn 0.015000 -0.000000 0.999887
vn 0.015000 -0.000000 0.999887
vn 0.015000 -0.000000 0.999887
vn 0.015000 -0.000000 0.999887
vn 0.015000 -0.000000 0.999887
vn 0.015000 -0.000000 0.999887
vn 0.015000 -0.000000 0.999887
vn 0.758628 0.000000 -0.651524
vn 0.758579 0.000000 -0.651582
vn 0.981512 0.000000 -0.191402
vn 0.994194 -0.000000 0.107599
vn 0.981512 0.000000 -0.191402
vn 0.994194 -0.000000 0.107599
vn 0.758579 0.000000 -0.651582
vn 0.911850 -0.000000 0.410523
vn 0.911850 -0.000000 0.410523
vn 0.739573 -0.000000 0.673076
vn 0.739573 -0.000000 0.673076
vn 0.507287 -0.000000 0.861777
vn 0.507287 -0.000000 0.861777
vn 0.014800 -0.000000 0.999890
vn 0.015200 -0.000000 0.999884
vn 0.014800 -0.000000 0.999890
vn 0.758579 0.000000 -0.651582
vn 0.758579 0.000000 -0.651582
vn 0.758536 0.000000 -0.651631
vn 0.758579 0.000000 -0.651582
vn 0.758579 0.000000 -0.651582
vn 0.758579 0.000000 -0.651582
vn 0.758579 0.000000 -0.651582
vn 0.758579 0.000000 -0.651582
vn 0.758579 0.000000 -0.651582
vn 0.758579 0.000000 -0.651582
vn 0.758536 0.000000 -0.651631
vn 0.758536 0.000000 -0.651631
vn 0.758536 0.000000 -0.651631
vn 0.758536 0.000000 -0.651631
vn 0.758536 0.000000 -0.651631
vn -0.014700 0.000000 -0.999892
vn 0.410606 0.000000 -0.911813
vn -0.014900 0.000000 -0.999889
vn -0.014700 -0.000100 -0.999892
vn 0.410606 0.000000 -0.911813
vn 0.758579 0.000000 -0.651582
vn 0.758487 0.000000 -0.651689
vn 0.758579 0.000000 -0.651582
vn -0.651582 0.000000 -0.758579
vn -0.651582 0.000000 -0.758579
vn -0.651582 0.000000 -0.758579
vn -0.651582 0.000000 -0.758579
vn -0.651631 0.000000 -0.758536
vn -0.651631 0.000000 -0.758536
vn -0.651631 0.000000 -0.758536
vn -0.651582 0.000000 -0.758579
vn -0.651631 0.000000 -0.758536
vn -0.651582 0.000000 -0.758579
vn -0.651631 0.000000 -0.758536
vn -0.651582 0.000000 -0.758579
vn -0.651631 0.000000 -0.758536
vn -0.651582 0.000000 -0.758579
vn -0.651582 0.000000 -0.758579
vn -0.999889 -0.000000 0.014900
vn -0.911813 0.000000 -0.410606
vn -0.999889 -0.000000 0.014900
vn -0.999889 -0.000000 0.014900
vn -0.911813 0.000000 -0.410606
vn -0.651631 0.000000 -0.758536
vn -0.651689 0.000000 -0.758487
vn -0.651631 0.000000 -0.758536
vn 0.000000 -1.000000 -0.000000
vn 0.000000 -1.000000 -0.000000
vn 0.000000 -1.000000 -0.000000
vn 0.000000 -1.000000 -0.000000
vn 0.000000 -1.000000 -0.000000
vn 0.000000 -1.000000 -0.000000
vn 0.000000 -1.000000 -0.000000
vn 0.000000 -1.000000 -0.000000
vn 0.000000 -1.000000 -0.000000
vn 0.000000 -1.000000 -0.000000
vn 0.000000 -1.000000 -0.000000
vn 0.000000 -1.000000 -0.000000
vn 0.000000 -1.000000 -0.000000
vn 0.000000 -1.000000 -0.000000
vn 0.000000 -1.000000 -0.000000
vn 0.000000 -1.000000 -0.000000
vn 0.000000 -1.000000 -0.000000
vn 0.000000 -1.000000 -0.000000
vn 0.000000 -1.000000 -0.000000
vn 0.000000 -1.000000 -0.000000
vn 0.000000 -1.000000 -0.000000
vn 0.000000 -1.000000 -0.000000
vn 0.000000 -1.000000 -0.000000
vn 0.000000 -1.000000 -0.000000
vn 0.000000 -1.000000 -0.000000
vn 0.000000 -1.000000 -0.000000
vn 0.000000 -1.000000 -0.000000
vn 0.000000 -1.000000 -0.000000
vn 0.000000 -1.000000 -0.000000
vn 0.000000 -1.000000 -0.000000
vn 0.000000 -1.000000 -0.000000
vn 0.000000 -1.000000 -0.000000
vn 0.000000 -1.000000 -0.000000
vn 0.000000 -1.000000 -0.000000
vn 0.000000 -1.000000 -0.000000
vn 0.000000 -1.000000 -0.000000
vn 0.000000 -1.000000 -0.000000
vn 0.000000 -1.000000 -0.000000
vn 0.000000 -1.000000 -0.000000
vn 0.000000 -1.000000 -0.000000
vn 0.000000 -1.000000 -0.000000
vn 0.000000 -1.000000 -0.000000
vn 0.000000 -1.000000 -0.000000
vn 0.000000 -1.000000 -0.000000
vn 0.000000 -1.000000 -0.000000
vn 0.000000 -1.000000 -0.000000
vn 0.000000 -1.000000 -0.000000
vn 0.000000 -1.000000 -0.000000
vn 0.000000 -1.000000 -0.000000
vn 0.000000 -1.000000 -0.000000
vn 0.000000 -1.000000 -0.000000
vn 0.000000 -1.000000 -0.000000
vn 0.000000 -1.000000 -0.000000
vn 0.000000 -1.000000 -0.000000
vn 0.000000 -1.000000 -0.000000
vn 0.000000 -1.000000 -0.000000
vn 0.000000 -1.000000 -0.000000
vn 0.000000 -1.000000 -0.000000
vn 0.000000 -1.000000 -0.000000
vn 0.000000 -1.000000 -0.000000
vn 0.000000 -1.000000 -0.000000
vn 0.000000 -1.000000 -0.000000
vn 0.000000 -1.000000 -0.000000
vn 0.000000 -1.000000 -0.000000
vn 0.000000 -1.000000 -0.000000
vn 0.000000 -1.000000 -0.000000
vn 0.000000 -1.000000 -0.000000
vn 0.000000 -1.000000 -0.000000
vn 0.000000 -1.000000 -0.000000
vn 0.000000 -1.000000 -0.000000
vn 0.000000 -1.000000 -0.000000
vn 0.000000 -1.000000 -0.000000
vn 0.000000 -1.000000 -0.000000
vn 0.000000 -1.000000 -0.000000
vn 0.000000 -1.000000 -0.000000
vn 0.000000 -1.000000 -0.000000
vn 0.000000 -1.000000 -0.000000
vn 0.000000 -1.000000 -0.000000
vn 0.000000 -1.000000 -0.000000
vn 0.000000 -1.000000 -0.000000
vn 0.000000 -1.000000 -0.000000
vn 0.000000 -1.000000 -0.000000
vn 0.000000 -1.000000 -0.000000
vn 0.000000 -1.000000 -0.000000
vn 0.000000 -1.000000 -0.000000
vn 0.000000 -1.000000 -0.000000
vn 0.000000 -1.000000 -0.000000
vn 0.000000 -1.000000 -0.000000
vn 0.000000 -1.000000 -0.000000
vn 0.000000 -1.000000 -0.000000
vn 0.000000 -1.000000 -0.000000
vn 0.000000 -1.000000 -0.000000
vn 0.000000 -1.000000 -0.000000
vn 0.000000 -1.000000 -0.000000
vn 0.000000 -1.000000 -0.000000
vn 0.000000 -1.000000 -0.000000
vn 0.000000 -1.000000 -0.000000
vn 0.000000 -1.000000 -0.000000
vn 0.000000 -1.000000 -0.000000
vn 0.000000 -1.000000 -0.000000
f 1//1 2//2 4//4
f 1//1 3//3 2//2
f 8//8 3//3 1//1
f 1//1 4//4 5//5
f 7//7 1//1 5//5
f 6//6 1//1 7//7
f 11//11 8//8 9//9
f 9//9 8//8 10//10
f 8//8 12//12 10//10
f 8//8 11//11 13//13
f 13//13 3//3 8//8
f 14//14 10//10 18//18
f 14//14 9//9 10//10
f 15//15 17//17 10//10
f 15//15 10//10 16//16
f 10//10 17//17 18//18
f 15//15 19//19 17//17
f 20//20 19//19 15//15
f 21//21 20//20 15//15
f 21//21 15//15 22//22
f 22//22 23//23 21//21
f 22//22 24//24 23//23
f 24//24 22//22 25//25
f 27//27 25//25 22//22
f 25//25 27//27 26//26
f 27//27 22//22 28//28
f 28//28 29//29 27//27
f 30//30 27//27 29//29
f 27//27 7//7 26//26
f 22//22 31//31 28//28
f 31//31 22//22 32//32
f 7//7 33//33 26//26
f 7//7 5//5 33//33
f 34//34 37//37 16//16
f 34//34 16//16 35//35
f 35//35 16//16 36//36
f 38//38 16//16 37//37
f 39//39 15//15 16//16
f 38//38 39//39 16//16
f 15//15 39//39 40//40
f 15//15 40//40 41//41
f 15//15 41//41 43//43
f 41//41 42//42 43//43
f 44//44 43//43 42//42
f 45//45 44//44 46//46
f 42//42 47//47 44//44
f 44//44 47//47 46//46
f 46//46 48//48 45//45
f 49//49 50//50 48//48
f 50//50 45//45 48//48
f 50//50 54//54 51//51
f 50//50 52//52 56//56
f 52//52 50//50 49//49
f 50//50 53//53 55//55
f 50//50 57//57 53//53
f 50//50 55//55 54//54
f 56//56 57//57 50//50
f 58//58 60//60 57//57
f 58//58 57//57 59//59
f 57//57 60//60 62//62
f 57//57 61//61 53//53
f 57//57 62//62 61//61
f 63//63 60//60 58//58
f 63//63 58//58 64//64
f 58//58 65//65 64//64
f 65//65 58//58 66//66
f 67//67 66//66 58//58
f 67//67 68//68 66//66
f 68//68 67//67 69//69
f 70//70 69//69 67//67
f 70//70 72//72 71//71
f 70//70 67//67 72//72
f 73//73 71//71 72//72
f 72//72 67//67 74//74
f 75//75 72//72 74//74
f 75//75 76//76 72//72
f 74//74 67//67 77//77
f 77//77 67//67 78//78
f 73//73 79//79 71//71
f 73//73 80//80 79//79
f 73//73 51//51 80//80
f 73//73 81//81 51//51
f 82//82 80//80 51//51
f 83//83 82//82 51//51
f 51//51 54//54 83//83
f 84//84 56//56 86//86
f 56//56 84//84 85//85
f 87//87 86//86 56//56
f 88//88 87//87 56//56
f 88//88 56//56 52//52
f 86//86 89//89 84//84
f 89//89 90//90 84//84
f 84//84 90//90 91//91
f 91//91 92//92 93//93
f 91//91 93//93 84//84
f 94//94 93//93 92//92
f 95//95 94//94 96//96
f 94//94 97//97 96//96
f 97//97 94//94 92//92
f 96//96 98//98 95//95
f 99//99 35//35 98//98
f 98//98 35//35 95//95
f 35//35 99//99 100//100
f 35//35 100//100 34//34
f 102//102 101//101 103//103
f 103//103 105//105 104//104
f 102//102 103//103 104//104
f 102//102 104//104 106//106
f 102//102 106//106 108//108
f 108//108 106//106 107//107
f 108//108 107//107 109//109
f 109//109 107//107 111//111
f 109//109 111//111 110//110
f 110//110 111//111 114//114
f 110//110 114//114 112//112
f 112//112 114//114 115//115
f 112//112 115//115 113//113
f 113//113 115//115 116//116
f 113//113 116//116 118//118
f 117//117 119//119 116//116
f 116//116 119//119 118//118
f 119//119 120//120 118//118
f 121//121 123//123 134//134
f 121//121 134//134 122//122
f 124//124 125//125 123//123
f 124//124 123//123 121//121
f 126//126 125//125 124//124
f 124//124 127//127 126//126
f 127//127 128//128 126//126
f 128//128 129//129 130//130
f 130//130 126//126 128//128
f 126//126 130//130 131//131
f 126//126 131//131 125//125
f 130//130 129//129 131//131
f 132//132 131//131 129//129
f 133//133 131//131 132//132
f 134//134 131//131 133//133
f 125//125 131//131 134//134
f 125//125 134//134 123//123
f 134//134 133//133 122//122
f 132//132 136//136 133//133
f 133//133 136//136 135//135
f 132//132 139//139 137//137
f 132//132 137//137 136//136
f 136//136 137//137 135//135
f 138//138 137//137 139//139
f 138//138 139//139 140//140
f 135//135 137//137 138//138
f 141//141 140//140 139//139
f 142//142 141//141 139//139
f 142//142 139//139 132//132
f 140//140 141//141 143//143
f 144//144 141//141 142//142
f 143//143 141//141 144//144
f 142//142 129//129 144//144
f 142//142 132//132 129//129
f 146//146 145//145 147//147
f 147//147 149//149 148//148
f 146//146 147//147 148//148
f 146//146 148//148 150//150
f 146//146 150//150 152//152
f 152//152 150//150 151//151
f 152//152 151//151 153//153
f 153//153 151//151 156//156
f 153//153 156//156 154//154
f 154//154 156//156 157//157
f 154//154 157//157 155//155
f 155//155 157//157 158//158
f 155//155 158//158 160//160
f 160//160 158//158 159//159
f 160//160 159//159 161//161
f 163//163 162//162 161//161
f 159//159 163//163 161//161
f 164//164 163//163 159//159
f 168//168 166//166 165//165
f 166//166 167//167 165//165
f 168//168 169//169 170//170
f 166//166 168//168 171//171
f 170//170 171//171 168//168
f 171//171 172//172 174//174
f 171//171 174//174 166//166
f 170//170 173//173 172//172
f 170//170 172//172 171//171
f 173//173 176//176 172//172
f 175//175 174//174 172//172
f 176//176 175//175 172//172
f 177//177 176//176 178//178
f 177//177 180//180 176//176
f 176//176 180//180 175//175
f 179//179 176//176 173//173
f 180//180 181//181 175//175
f 180//180 182//182 184//184
f 180//180 184//184 181//181
f 177//177 185//185 182//182
f 177//177 182//182 180//180
f 185//185 183//183 182//182
f 183//183 184//184 182//182
f 178//178 185//185 177//177
f 185//185 178//178 186//186
f 186//186 183//183 185//185
f 183//183 187//187 184//184
f 188//188 181//181 184//184
f 188//188 184//184 187//187
f 175//175 181//181 188//188
f 173//173 170//170 179//179
f 169//169 179//179 170//170
f 174//174 175//175 167//167
f 167//167 166//166 174//174
f 189//189 191//191 190//190
f 192//192 191//191 193//193
f 190//190 191//191 192//192
f 190//190 192//192 194//194
f 190//190 194//194 195//195
f 195//195 194//194 196//196
f 195//195 196//196 198//198
f 198//198 196//196 197//197
f 198//198 197//197 199//199
f 199//199 197//197 201//201
f 199//199 201//201 200//200
f 200//200 201//201 203//203
f 200//200 203//203 202//202
f 202//202 203//203 207//207
f 202//202 207//207 204//204
f 205//205 204//204 207//207
f 205//205 206//206 204//204
f 207//207 208//208 205//205
f 210//210 220//220 211//211
f 210//210 211//211 209//209
f 212//212 209//209 211//211
f 214//214 212//212 213//213
f 212//212 211//211 213//213
f 215//215 212//212 214//214
f 215//215 214//214 216//216
f 221//221 217//217 216//216
f 221//221 216//216 218//218
f 218//218 216//216 219//219
f 219//219 216//216 214//214
f 219//219 214//214 213//213
f 219//219 213//213 218//218
f 210//210 218//218 220//220
f 218//218 213//213 211//211
f 218//218 211//211 220//220
f 222//222 221//221 218//218
f 222//222 218//218 210//210
f 223//223 217//217 221//221
f 222//222 225//225 221//221
f 230//230 223//223 221//221
f 230//230 221//221 224//224
f 224//224 221//221 225//225
f 224//224 225//225 226//226
f 227//227 226//226 225//225
f 227//227 225//225 222//222
f 228//228 224//224 226//226
f 228//228 226//226 227//227
f 228//228 229//229 230//230
f 230//230 224//224 228//228
f 217//217 223//223 230//230
f 217//217 230//230 229//229
f 232//232 231//231 233//233
f 234//234 232//232 233//233
f 235//235 237//237 234//234
f 235//235 234//234 233//233
f 236//236 238//238 237//237
f 236//236 237//237 235//235
f 240//240 239//239 238//238
f 240//240 238//238 236//236
f 242//242 241//241 239//239
f 242//242 239//239 240//240
f 245//245 243//243 241//241
f 245//245 241//241 242//242
f 246//246 244//244 243//243
f 246//246 243//243 245//245
f 246//246 247//247 244//244
f 246//246 248//248 247//247
f 247//247 249//249 244//244
f 250//250 232//232 234//234
f 252//252 262//262 253//253
f 252//252 253//253 251//251
f 254//254 251//251 253//253
f 254//254 253//253 255//255
f 256//256 254//254 255//255
f 257//257 254//254 256//256
f 257//257 256//256 258//258
f 258//258 260//260 263//263
f 258//258 263//263 259//259
f 260//260 258//258 261//261
f 261//261 258//258 256//256
f 261//261 256//256 255//255
f 261//261 255//255 260//260
f 252//252 260//260 262//262
f 260//260 255//255 253//253
f 260//260 253//253 262//262
f 267//267 263//263 260//260
f 267//267 260//260 252//252
f 259//259 263//263 264//264
f 272//272 264//264 263//263
f 272//272 263//263 265//265
f 265//265 263//263 266//266
f 265//265 266//266 269//269
f 263//263 267//267 266//266
f 268//268 269//269 266//266
f 268//268 266//266 267//267
f 268//268 270//270 269//269
f 271//271 272//272 265//265
f 271//271 265//265 270//270
f 270//270 265//265 269//269
f 259//259 264//264 272//272
f 259//259 272//272 271//271
f 273//273 275//275 274//274
f 276//276 275//275 277//277
f 274//274 275//275 276//276
f 274//274 276//276 278//278
f 274//274 278//278 280//280
f 280//280 278//278 279//279
f 280//280 279//279 281//281
f 281//281 279//279 284//284
f 281//281 284//284 282//282
f 282//282 284//284 285//285
f 282//282 285//285 283//283
f 283//283 285//285 286//286
f 283//283 286//286 287//287
f 287//287 286//286 288//288
f 287//287 288//288 290//290
f 288//288 289//289 291//291
f 291//291 290//290 288//288
f 291//291 292//292 290//290
f 293//293 295//295 294//294
f 294//294 295//295 296//296
f 294//294 296//296 297//297
f 294//294 297//297 298//298
f 294//294 298//298 300//300
f 300//300 298//298 299//299
f 300//300 299//299 301//301
f 301//301 299//299 303//303
f 301//301 303//303 302//302
f 302//302 303//303 306//306
f 302//302 306//306 304//304
f 304//304 306//306 307//307
f 304//304 307//307 305//305
f 305//305 307//307 308//308
f 305//305 308//308 311//311
f 308//308 309//309 310//310
f 310//310 311//311 308//308
f 310//310 312//312 311//311
f 314//314 313//313 315//315
f 316//316 314//314 315//315
f 317//317 318//318 316//316
f 317//317 316//316 315//315
f 319//319 320//320 318//318
f 319//319 318//318 317//317
f 321//321 323//323 320//320
f 321//321 320//320 319//319
f 322//322 324//324 323//323
f 322//322 323//323 321//321
f 327//327 325//325 324//324
f 327//327 324//324 322//322
f 328//328 326//326 325//325
f 328//328 325//325 327//327
f 328//328 329//329 330//330
f 328//328 330//330 326//326
f 330//330 331//331 326//326
f 332//332 314//314 316//316
f 333//333 335//335 364//364
f 333//333 364//364 334//334
f 335//335 333//333 336//336
f 337//337 340//340 338//338
f 337//337 338//338 336//336
f 338//338 335//335 336//336
f 338//338 339//339 364//364
f 338//338 364//364 335//335
f 340//340 342//342 339//339
f 340//340 339//339 338//338
f 340//340 337//337 341//341
f 340//340 341//341 342//342
f 343//343 339//339 342//342
f 342//342 341//341 343//343
f 344//344 339//339 343//343
f 344//344 343//343 345//345
f 344//344 345//345 347//347
f 347//347 345//345 346//346
f 347//347 346//346 348//348
f 348//348 346//346 350//350
f 348//348 350//350 349//349
f 349//349 350//350 352//352
f 349//349 352//352 351//351
f 351//351 352//352 353//353
f 355//355 351//351 353//353
f 351//351 355//355 354//354
f 353//353 359//359 356//356
f 353//353 356//356 355//355
f 354//354 355//355 356//356
f 356//356 357//357 354//354
f 357//357 356//356 358//358
f 359//359 358//358 356//356
f 359//359 360//360 358//358
f 361//361 360//360 359//359
f 361//361 359//359 353//353
f 362//362 360//360 361//361
f 362//362 363//363 360//360
f 358//358 360//360 363//363
f 361//361 352//352 362//362
f 352//352 361//361 353//353
f 364//364 339//339 344//344
f 364//364 344//344 334//334
f 368//368 365//365 366//366
f 366//366 365//365 367//367
f 368//368 366//366 369//369
f 369//369 370//370 368//368
f 371//371 368//368 370//370
f 372//372 371//371 370//370
f 373//373 372//372 370//370
f 373//373 370//370 375//375
f 375//375 374//374 373//373
f 375//375 370//370 369//369
f 375//375 369//369 376//376
f 377//377 375//375 376//376
f 374//374 375//375 377//377
f 379//379 377//377 378//378
f 379//379 378//378 383//383
f 377//377 380//380 378//378
f 377//377 379//379 384//384
f 377//377 384//384 374//374
f 380//380 377//377 376//376
f 380//380 366//366 367//367
f 380//380 367//367 381//381
f 378//378 380//380 381//381
f 376//376 369//369 366//366
f 376//376 366//366 380//380
f 385//385 384//384 379//379
f 385//385 379//379 382//382
f 382//382 379//379 383//383
f 382//382 383//383 388//388
f 382//382 386//386 385//385
f 387//387 386//386 382//382
f 382//382 388//388 387//387
f 389//389 391//391 390//390
f 392//392 391//391 389//389
f 394//394 392//392 389//389
f 394//394 389//389 393//393
f 396//396 394//394 393//393
f 396//396 393//393 395//395
f 396//396 395//395 397//397
f 397//397 398//398 396//396
f 396//396 398//398 399//399
f 399//399 400//400 394//394
f 399//399 394//394 396//396
f 392//392 394//394 400//400
f 392//392 400//400 401//401
f 401//401 402//402 392//392
f 402//402 401//401 403//403
f 403//403 404//404 406//406
f 403//403 406//406 402//402
f 408//408 406//406 404//404
f 408//408 404//404 405//405
f 408//408 407//407 406//406
f 402//402 406//406 407//407
f 402//402 407//407 412//412
f 408//408 409//409 410//410
f 408//408 410//410 407//407
f 412//412 407//407 410//410
f 412//412 410//410 391//391
f 391//391 410//410 411//411
f 391//391 411//411 390//390
f 411//411 410//410 409//409
f 392//392 402//402 412//412
f 391//391 392//392 412//412
f 414//414 416//416 415//415
f 414//414 415//415 413//413
f 414//414 418//418 417//417
f 414//414 417//417 416//416
f 418//418 414//414 419//419
f 420//420 422//422 423//423
f 420//420 423//423 421//421
f 424//424 425//425 421//421
f 424//424 421//421 423//423
f 427//427 428//428 426//426
f 429//429 428//428 430//430
f 430//430 428//428 427//427
f 430//430 431//431 432//432
f 427//427 431//431 430//430
f 427//427 433//433 431//431
f 435//435 438//438 436//436
f 435//435 436//436 434//434
f 437//437 436//436 438//438
f 437//437 438//438 439//439
f 441//441 442//442 440//440
f 443//443 442//442 441//441
f 444//444 442//442 443//443
f 441//441 445//445 443//443
f 443//443 445//445 446//446
f 441//441 447//447 445//445
f 449//449 448//448 450//450
f 449//449 450//450 451//451
f 450//450 452//452 454//454
f 450//450 454//454 451//451
f 450//450 453//453 452//452
f 451//451 455//455 449//449
f 457//457 456//456 458//458
f 457//457 458//458 459//459
f 460//460 461//461 459//459
f 460//460 459//459 458//458
f 459//459 462//462 457//457
f 464//464 466//466 463//463
f 464//464 463//463 465//465
f 466//466 464//464 467//467
f 468//468 467//467 464//464
f 468//468 464//464 469//469
f 469//469 470//470 468//468
f 470//470 469//469 473//473
f 470//470 472//472 471//471
f 473//473 472//472 470//470
f 473//473 469//469 474//474
f 472//472 473//473 475//475
f 477//477 472//472 475//475
f 477//477 475//475 476//476
f 477//477 476//476 478//478
f 478//478 479//479 477//477
f 479//479 480//480 477//477
f 480//480 471//471 472//472
f 480//480 472//472 477//477
f 469//469 464//464 465//465
f 469//469 465//465 474//474
f 481//481 482//482 484//484
f 482//482 481//481 483//483
f 485//485 484//484 487//487
f 486//486 487//487 484//484
f 486//486 484//484 482//482
f 489//489 487//487 486//486
f 489//489 486//486 493//493
f 487//487 488//488 485//485
f 491//491 488//488 487//487
f 491//491 487//487 489//489
f 490//490 489//489 492//492
f 489//489 490//490 491//491
f 492//492 489//489 493//493
f 494//494 492//492 493//493
f 493//493 486//486 482//482
f 493//493 482//482 494//494
f 494//494 482//482 483//483
f 494//494 483//483 496//496
f 492//492 494//494 495//495
f 495//495 494//494 496//496
f 497//497 492//492 495//495
f 498//498 492//492 497//497
f 500//500 498//498 497//497
f 500//500 497//497 499//499
f 499//499 501//501 500//500
f 501//501 499//499 502//502
f 502//502 503//503 501//501
f 503//503 502//502 504//504
f 506//506 503//503 504//504
f 506//506 504//504 505//505
f 506//506 505//505 507//507
f 508//508 506//506 507//507
f 509//509 510//510 508//508
f 506//506 508//508 511//511
f 511//511 508//508 510//510
f 511//511 512//512 503//503
f 511//511 503//503 506//506
f 510//510 513//513 512//512
f 510//510 512//512 511//511
f 513//513 501//501 512//512
f 501//501 503//503 512//512
f 515//515 513//513 514//514
f 516//516 514//514 513//513
f 516//516 513//513 510//510
f 501//501 513//513 515//515
f 500//500 501//501 515//515
f 510//510 509//509 516//516
f 492//492 498//498 490//490
f 517//517 518//518 520//520
f 518//518 517//517 519//519
f 521//521 520//520 518//518
f 522//522 521//521 518//518
f 522//522 518//518 523//523
f 523//523 524//524 522//522
f 525//525 527//527 524//524
f 524//524 523//523 525//525
f 524//524 527//527 526//526
f 530//530 527//527 528//528
f 527//527 529//529 528//528
f 531//531 529//529 527//527
f 527//527 530//530 526//526
f 527//527 525//525 531//531
f 529//529 531//531 532//532
f 535//535 529//529 532//532
f 535//535 532//532 533//533
f 537//537 535//535 533//533
f 537//537 533//533 534//534
f 535//535 537//537 536//536
f 536//536 528//528 529//529
f 536//536 529//529 535//535
f 538//538 539//539 536//536
f 538//538 536//536 537//537
f 539//539 538//538 540//540
f 540//540 541//541 530//530
f 540//540 530//530 539//539
f 526//526 530//530 541//541
f 539//539 530//530 528//528
f 539//539 528//528 536//536
f 525//525 523//523 542//542
f 523//523 518//518 519//519
f 523//523 519//519 542//542
f 544//544 545//545 543//543
f 544//544 547//547 545//545
f 546//546 545//545 547//547
f 546//546 547//547 549//549
f 548//548 547//547 544//544
f 551//551 546//546 549//549
f 551//551 549//549 550//550
f 553//553 551//551 550//550
f 553//553 550//550 552//552
f 555//555 553//553 552//552
f 555//555 552//552 554//554
f 557//557 555//555 554//554
f 557//557 554//554 556//556
f 555//555 557//557 558//558
f 559//559 560//560 562//562
f 560//560 559//559 561//561
f 563//563 562//562 560//560
f 564//564 563//563 560//560
f 564//564 560//560 565//565
f 565//565 566//566 564//564
f 567//567 569//569 566//566
f 566//566 565//565 567//567
f 566//566 569//569 568//568
f 569//569 572//572 568//568
f 572//572 569//569 570//570
f 569//569 571//571 570//570
f 573//573 571//571 569//569
f 569//569 567//567 573//573
f 571//571 573//573 574//574
f 576//576 571//571 574//574
f 576//576 574//574 575//575
f 578//578 576//576 575//575
f 578//578 575//575 577//577
f 579//579 581//581 580//580
f 579//579 580//580 578//578
f 576//576 578//578 580//580
f 580//580 570//570 571//571
f 580//580 571//571 576//576
f 581//581 572//572 570//570
f 581//581 570//570 580//580
f 581//581 579//579 582//582
f 582//582 583//583 572//572
f 582//582 572//572 581//581
f 568//568 572//572 583//583
f 567//567 565//565 584//584
f 565//565 560//560 561//561
f 565//565 561//561 584//584
f 586//586 587//587 585//585
f 589//589 587//587 586//586
f 588//588 587//587 589//589
f 588//588 589//589 590//590
f 589//589 586//586 591//591
f 593//593 588//588 590//590
f 593//593 590//590 592//592
f 595//595 593//593 592//592
f 595//595 592//592 594//594
f 597//597 595//595 594//594
f 597//597 594//594 596//596
f 596//596 599//599 597//597
f 596//596 598//598 599//599
f 597//597 599//599 600//600
f 605//605 602//602 601//601
f 605//605 601//601 604//604
f 602//602 612//612 603//603
f 602//602 603//603 601//601
f 606//606 607//607 605//605
f 606//606 605//605 604//604
f 609//609 605//605 607//607
f 609//609 607//607 608//608
f 609//609 610//610 602//602
f 609//609 602//602 605//605
f 610//610 611//611 612//612
f 610//610 612//612 602//602
f 614//614 612//612 611//611
f 614//614 611//611 613//613
f 612//612 614//614 615//615
f 612//612 615//615 603//603
f 617//617 616//616 618//618
f 619//619 620//620 618//618
f 620//620 617//617 618//618
f 617//617 620//620 622//622
f 620//620 621//621 622//622
f 617//617 622//622 623//623
f 627//627 625//625 624//624
f 627//627 624//624 626//626
f 629//629 627//627 626//626
f 629//629 626//626 628//628
f 632//632 629//629 628//628
f 632//632 628//628 630//630
f 633//633 632//632 630//630
f 633//633 630//630 631//631
f 634//634 636//636 629//629
f 634//634 629//629 632//632
f 632//632 633//633 635//635
f 632//632 635//635 634//634
f 636//636 637//637 627//627
f 636//636 627//627 629//629
f 625//625 627//627 637//637
f 625//625 637//637 638//638
f 640//640 639//639 641//641
f 642//642 643//643 641//641
f 643//643 640//640 641//641
f 643//643 644//644 645//645
f 640//640 643//643 645//645
f 640//640 645//645 646//646
f 647//647 649//649 648//648
f 647//647 650//650 649//649
f 651//651 650//650 647//647
f 647//647 652//652 651//651
f 653//653 652//652 647//647
f 652//652 653//653 654//654
f 653//653 658//658 654//654
f 657//657 653//653 655//655
f 655//655 653//653 656//656
f 658//658 653//653 657//657
f 659//659 658//658 657//657
f 659//659 660//660 658//658
f 664//664 661//661 658//658
f 661//661 662//662 658//658
f 663//663 658//658 662//662
f 663//663 654//654 658//658
f 664//664 665//665 667//667
f 664//664 666//666 665//665
f 664//664 668//668 666//666
f 664//664 667//667 661//661
f 668//668 664//664 669//669
f 669//669 664//664 670//670
f 671//671 670//670 664//664
f 672//672 671//671 664//664
f 672//672 664//664 673//673
f 672//672 673//673 674//674
f 675//675 674//674 673//673
f 674//674 675//675 677//677
f 678//678 676//676 675//675
f 676//676 677//677 675//675
f 676//676 678//678 679//679
f 679//679 678//678 680//680
f 681//681 679//679 680//680
f 682//682 681//681 680//680
f 683//683 682//682 680//680
f 680//680 684//684 683//683
f 684//684 680//680 685//685
f 688//688 685//685 680//680
f 686//686 687//687 680//680
f 680//680 687//687 688//688
f 686//686 689//689 687//687
f 686//686 690//690 689//689
f 691//691 690//690 686//686
f 693//693 691//691 686//686
f 692//692 691//691 693//693
f 693//693 686//686 694//694
f 693//693 695//695 692//692
f 695//695 693//693 696//696
f 696//696 701//701 695//695
f 696//696 697//697 699//699
f 697//697 696//696 698//698
f 700//700 696//696 699//699
f 696//696 700//700 701//701
f 700//700 702//702 701//701
f 700//700 703//703 702//702
f 700//700 704//704 703//703
f 705//705 704//704 700//700
f 706//706 704//704 705//705
f 705//705 707//707 706//706
f 705//705 708//708 707//707
f 705//705 709//709 708//708
f 710//710 709//709 684//684
f 705//705 684//684 709//709
f 684//684 711//711 710//710
f 684//684 685//685 711//711
f 712//712 684//684 705//705
f 699//699 713//713 700//700
f 714//714 700//700 713//713
f 683//683 716//716 715//715
f 715//715 682//682 683//683
f 716//716 683//683 717//717
f 718//718 717//717 683//683
f 683//683 719//719 718//718
f 717//717 718//718 720//720
f 720//720 718//718 721//721
f 718//718 722//722 721//721
f 718//718 723//723 722//722
f 722//722 723//723 724//724
f 725//725 724//724 723//723
f 724//724 725//725 726//726
f 726//726 725//725 727//727
f 728//728 727//727 725//725
f 729//729 727//727 728//728
f 728//728 730//730 729//729
f 669//669 732//732 730//730
f 669//669 730//730 731//731
f 730//730 732//732 734//734
f 733//733 729//729 730//730
f 734//734 733//733 730//730
f 732//732 669//669 735//735
f 669//669 736//736 735//735
f 670//670 736//736 669//669
f 737//737 739//739 668//668
f 737//737 668//668 738//738
f 739//739 740//740 668//668
f 741//741 668//668 740//740
f 666//666 668//668 741//741
f 739//739 737//737 742//742
f 737//737 743//743 742//742
f 737//737 744//744 743//743
f 745//745 744//744 737//737
f 745//745 737//737 649//649
f 649//649 746//746 745//745
f 650//650 746//746 649//649
