# joint_41 exported from /models/guards/joint_41.glb
# units: meters
v 0.039154 -0.001001 -0.063554
v 0.039154 0.000999 -0.063554
v 0.037339 -0.001001 -0.063554
v 0.037339 0.000999 -0.063554
v 0.037339 -0.001001 -0.063554
v 0.037339 0.000999 -0.063554
v 0.035873 -0.001001 -0.063289
v 0.035873 0.000999 -0.063289
v 0.034554 -0.001001 -0.062493
v 0.034554 0.000999 -0.062493
v 0.033617 -0.001001 -0.061282
v 0.033617 0.000999 -0.061282
v 0.033190 -0.001001 -0.059914
v 0.033190 0.000999 -0.059914
v 0.033190 -0.000001 -0.059914
v -0.025197 -0.001001 0.022575
v -0.025197 0.000999 0.022575
v -0.033561 -0.001001 0.026381
v -0.033561 0.000999 0.026381
v -0.042333 -0.001001 0.029500
v -0.042333 0.000999 0.029500
v -0.051243 -0.001001 0.031833
v -0.051243 0.000999 0.031833
v -0.060095 -0.001001 0.033371
v -0.060095 0.000999 0.033371
v -0.060095 -0.000001 0.033371
v -0.055682 -0.000001 0.032699
v -0.057893 -0.000001 0.033059
v -0.055682 -0.000501 0.032699
v -0.057893 -0.000501 0.033059
v -0.055682 0.000499 0.032699
v -0.057893 0.000499 0.033059
v -0.025197 -0.000001 0.022575
v -0.029355 -0.000001 0.024574
v -0.029355 0.000499 0.024574
v -0.027269 -0.000001 0.023598
v -0.027269 0.000499 0.023598
v -0.029355 -0.000501 0.024574
v -0.027269 -0.000501 0.023598
v -0.060095 -0.001001 0.033371
v -0.060095 0.000999 0.033371
v -0.061514 -0.001001 0.033824
v -0.061514 0.000999 0.033824
v -0.062718 -0.001001 0.034785
v -0.062718 0.000999 0.034785
v -0.063490 -0.001001 0.036108
v -0.063490 0.000999 0.036108
v -0.063735 -0.001001 0.037520
v -0.063735 0.000999 0.037520
v -0.060095 -0.000001 0.033371
v -0.063735 -0.001001 0.037520
v -0.063735 0.000999 0.037520
v -0.063735 -0.001001 0.039335
v -0.063735 0.000999 0.039335
v -0.063735 -0.001001 0.039335
v -0.063735 0.000999 0.039335
v -0.054871 -0.001001 0.042875
v -0.054871 0.000999 0.042875
v -0.043978 -0.001001 0.040544
v -0.043978 0.000999 0.040544
v -0.033303 -0.001001 0.037181
v -0.033303 0.000999 0.037181
v -0.022779 -0.001001 0.032723
v -0.022779 0.000999 0.032723
v -0.012607 -0.001001 0.027196
v -0.012607 0.000999 0.027196
v -0.003055 -0.001001 0.020725
v -0.003055 0.000999 0.020725
v 0.005881 -0.001001 0.013303
v 0.005881 0.000999 0.013303
v 0.014064 -0.001001 0.005023
v 0.014064 0.000999 0.005023
v 0.021376 -0.001001 -0.003996
v 0.021376 0.000999 -0.003996
v 0.027726 -0.001001 -0.013612
v 0.027726 0.000999 -0.013612
v 0.033053 -0.001001 -0.023673
v 0.033053 0.000999 -0.023673
v 0.037327 -0.001001 -0.034022
v 0.037327 0.000999 -0.034022
v 0.040546 -0.001001 -0.044502
v 0.040546 0.000999 -0.044502
v 0.042821 -0.001001 -0.055471
v 0.042821 0.000999 -0.055471
v 0.039154 -0.001001 -0.063554
v 0.039154 0.000999 -0.063554
v -0.023197 0.000999 0.021534
v -0.023197 -0.001001 0.025051
v -0.023197 -0.001001 0.021534
v -0.023197 -0.001001 0.024534
v -0.023197 0.000999 0.025051
v -0.023197 0.000999 0.024534
v -0.025197 0.000999 0.022575
v -0.025197 -0.000001 0.022575
v -0.025197 -0.001001 0.025051
v -0.025197 -0.001001 0.022575
v -0.025197 -0.001001 0.024534
v -0.025197 0.000999 0.025051
v -0.025197 0.000999 0.024534
v 0.021353 -0.001001 -0.023016
v 0.021353 0.000999 -0.023016
v 0.015897 -0.001001 -0.013901
v 0.015897 0.000999 -0.013901
v 0.009537 -0.001001 -0.005318
v 0.009537 0.000999 -0.005318
v 0.002350 -0.001001 0.002609
v 0.002350 0.000999 0.002609
v -0.005585 -0.001001 0.009789
v -0.005585 0.000999 0.009789
v -0.014146 -0.001001 0.016121
v -0.014146 0.000999 0.016121
v -0.023197 -0.001001 0.021534
v -0.023197 0.000999 0.021534
v -0.023197 -0.001001 0.025051
v -0.025197 -0.001001 0.025051
v -0.023197 0.000999 0.025051
v -0.025197 0.000999 0.025051
v 0.021353 -0.001001 -0.023016
v 0.021353 0.000999 -0.023016
v 0.024869 -0.001001 -0.023016
v 0.024869 0.000999 -0.023016
v 0.024353 0.000999 -0.023016
v 0.024353 -0.001001 -0.023016
v 0.033190 -0.001001 -0.059914
v 0.033190 0.000999 -0.059914
v 0.031615 -0.001001 -0.050895
v 0.031615 0.000999 -0.050895
v 0.029315 -0.001001 -0.042142
v 0.029315 0.000999 -0.042142
v 0.026250 -0.001001 -0.033505
v 0.022394 -0.001001 -0.025016
v 0.033190 -0.000001 -0.059914
v 0.032503 -0.000001 -0.055418
v 0.032503 0.000499 -0.055418
v 0.032871 -0.000001 -0.057670
v 0.032871 0.000499 -0.057670
v 0.032503 -0.000501 -0.055418
v 0.032871 -0.000501 -0.057670
v 0.022394 0.000999 -0.025016
v 0.022394 -0.000001 -0.025016
v 0.024421 -0.000001 -0.029236
v 0.023432 -0.000001 -0.027119
v 0.024421 -0.000501 -0.029236
v 0.023432 -0.000501 -0.027119
v 0.024421 0.000499 -0.029236
v 0.023432 0.000499 -0.027119
v 0.024869 -0.001001 -0.023016
v 0.024869 -0.001001 -0.025016
v 0.024869 0.000999 -0.023016
v 0.024869 0.000999 -0.025016
v 0.022394 -0.001001 -0.025016
v 0.022394 0.000999 -0.025016
v 0.022394 -0.000001 -0.025016
v 0.024869 -0.001001 -0.025016
v 0.024869 0.000999 -0.025016
v 0.024353 0.000999 -0.025016
v 0.024353 -0.001001 -0.025016
v 0.039154 -0.001001 -0.063554
v 0.037339 -0.001001 -0.063554
v 0.035873 -0.001001 -0.063289
v 0.034554 -0.001001 -0.062493
v 0.033617 -0.001001 -0.061282
v 0.033190 -0.001001 -0.059914
v -0.025197 -0.001001 0.022575
v -0.033561 -0.001001 0.026381
v -0.042333 -0.001001 0.029500
v -0.051243 -0.001001 0.031833
v -0.060095 -0.001001 0.033371
v -0.061514 -0.001001 0.033824
v -0.062718 -0.001001 0.034785
v -0.063490 -0.001001 0.036108
v -0.063735 -0.001001 0.037520
v -0.063735 -0.001001 0.039335
v -0.054871 -0.001001 0.042875
v -0.043978 -0.001001 0.040544
v -0.033303 -0.001001 0.037181
v -0.022779 -0.001001 0.032723
v -0.012607 -0.001001 0.027196
v -0.003055 -0.001001 0.020725
v 0.005881 -0.001001 0.013303
v 0.014064 -0.001001 0.005023
v 0.021376 -0.001001 -0.003996
v 0.027726 -0.001001 -0.013612
v 0.033053 -0.001001 -0.023673
v 0.037327 -0.001001 -0.034022
v 0.040546 -0.001001 -0.044502
v 0.042821 -0.001001 -0.055471
v 0.021353 -0.001001 -0.023016
v 0.015897 -0.001001 -0.013901
v 0.009537 -0.001001 -0.005318
v 0.002350 -0.001001 0.002609
v -0.005585 -0.001001 0.009789
v -0.014146 -0.001001 0.016121
v -0.023197 -0.001001 0.021534
v -0.023197 -0.001001 0.025051
v -0.025197 -0.001001 0.025051
v 0.031615 -0.001001 -0.050895
v 0.029315 -0.001001 -0.042142
v 0.026250 -0.001001 -0.033505
v 0.022394 -0.001001 -0.025016
v 0.024869 -0.001001 -0.025016
v 0.024869 -0.001001 -0.023016
v -0.023197 -0.001001 0.024534
v -0.025197 -0.001001 0.024534
v 0.024353 -0.001001 -0.023016
v 0.024353 -0.001001 -0.025016
v 0.039154 0.000999 -0.063554
v 0.037339 0.000999 -0.063554
v 0.035873 0.000999 -0.063289
v 0.034554 0.000999 -0.062493
v 0.033617 0.000999 -0.061282
v 0.033190 0.000999 -0.059914
v -0.025197 0.000999 0.022575
v -0.033561 0.000999 0.026381
v -0.042333 0.000999 0.029500
v -0.051243 0.000999 0.031833
v -0.060095 0.000999 0.033371
v -0.061514 0.000999 0.033824
v -0.062718 0.000999 0.034785
v -0.063490 0.000999 0.036108
v -0.063735 0.000999 0.037520
v -0.063735 0.000999 0.039335
v -0.054871 0.000999 0.042875
v -0.043978 0.000999 0.040544
v -0.033303 0.000999 0.037181
v -0.022779 0.000999 0.032723
v -0.012607 0.000999 0.027196
v -0.003055 0.000999 0.020725
v 0.005881 0.000999 0.013303
v 0.014064 0.000999 0.005023
v 0.021376 0.000999 -0.003996
v 0.027726 0.000999 -0.013612
v 0.033053 0.000999 -0.023673
v 0.037327 0.000999 -0.034022
v 0.040546 0.000999 -0.044502
v 0.042821 0.000999 -0.055471
v 0.021353 0.000999 -0.023016
v 0.015897 0.000999 -0.013901
v 0.009537 0.000999 -0.005318
v 0.002350 0.000999 0.002609
v -0.005585 0.000999 0.009789
v -0.014146 0.000999 0.016121
v -0.023197 0.000999 0.021534
v -0.023197 0.000999 0.025051
v -0.025197 0.000999 0.025051
v 0.031615 0.000999 -0.050895
v 0.029315 0.000999 -0.042142
v 0.022394 0.000999 -0.025016
v 0.024869 0.000999 -0.025016
v 0.024869 0.000999 -0.023016
v -0.023197 0.000999 0.024534
v -0.025197 0.000999 0.024534
v 0.024353 0.000999 -0.023016
v 0.024353 0.000999 -0.025016
vn 0.000000 0.000000 -1.000000
vn 0.000000 0.000000 -1.000000
vn 0.000000 0.000000 -1.000000
vn 0.000000 0.000000 -1.000000
vn 0.000000 0.000000 -1.000000
vn 0.000000 0.000000 -1.000000
vn -0.350104 0.000000 -0.936711
vn -0.350104 0.000000 -0.936711
vn -0.665288 0.000000 -0.746587
vn -0.665288 0.000000 -0.746587
vn -0.889412 0.000000 -0.457106
vn -0.889412 0.000000 -0.457106
vn -0.991488 0.000000 -0.130198
vn -0.991488 0.000000 -0.130198
vn -0.991488 0.000000 -0.130198
vn -0.452406 0.000000 -0.891812
vn -0.452406 0.000000 -0.891812
vn -0.375180 0.000000 -0.926952
vn -0.375180 0.000000 -0.926952
vn -0.294093 0.000000 -0.955777
vn -0.294093 0.000000 -0.955777
vn -0.211898 0.000000 -0.977292
vn -0.211898 0.000000 -0.977292
vn -0.130198 0.000000 -0.991488
vn -0.130198 0.000000 -0.991488
vn -0.130198 0.000000 -0.991488
vn -0.170995 0.000000 -0.985272
vn -0.150599 0.000000 -0.988595
vn -0.170995 0.000000 -0.985272
vn -0.150501 0.000000 -0.988610
vn -0.170898 0.000000 -0.985289
vn -0.150501 0.000000 -0.988610
vn -0.452406 0.000000 -0.891812
vn -0.413991 0.000000 -0.910281
vn -0.413991 0.000000 -0.910281
vn -0.433280 0.000000 -0.901259
vn -0.433280 0.000000 -0.901259
vn -0.413991 0.000000 -0.910281
vn -0.433280 0.000000 -0.901259
vn -0.130198 0.000000 -0.991488
vn -0.130198 0.000000 -0.991488
vn -0.469119 0.000000 -0.883135
vn -0.469119 0.000000 -0.883135
vn -0.756866 0.000000 -0.653570
vn -0.756866 0.000000 -0.653570
vn -0.941323 0.000000 -0.337508
vn -0.941323 0.000000 -0.337508
vn -1.000000 0.000000 0.000000
vn -1.000000 0.000000 0.000000
vn -0.130198 0.000000 -0.991488
vn -1.000000 0.000000 0.000000
vn -1.000000 0.000000 0.000000
vn -1.000000 0.000000 0.000000
vn -1.000000 0.000000 0.000000
vn -1.000000 0.000000 0.000000
vn -1.000000 0.000000 0.000000
vn 0.163102 -0.000000 0.986609
vn 0.163102 -0.000100 0.986609
vn 0.254798 -0.000000 0.966994
vn 0.254798 -0.000000 0.966994
vn 0.345089 -0.000000 0.938570
vn 0.345089 -0.000000 0.938570
vn 0.434005 -0.000000 0.900910
vn 0.434005 -0.000000 0.900910
vn 0.519795 -0.000000 0.854291
vn 0.519795 -0.000000 0.854291
vn 0.600224 -0.000000 0.799832
vn 0.600224 -0.000000 0.799832
vn 0.675897 -0.000000 0.736996
vn 0.675897 -0.000000 0.736996
vn 0.744888 -0.000000 0.667189
vn 0.744888 -0.000000 0.667189
vn 0.806894 -0.000000 0.590696
vn 0.806894 -0.000000 0.590696
vn 0.860111 -0.000000 0.510107
vn 0.860111 -0.000000 0.510107
vn 0.905290 -0.000000 0.424795
vn 0.905290 -0.000000 0.424795
vn 0.941259 -0.000000 0.337685
vn 0.941259 -0.000000 0.337685
vn 0.968527 -0.000000 0.248907
vn 0.968527 -0.000000 0.248907
vn 0.987678 0.000100 0.156497
vn 0.987678 -0.000000 0.156497
vn 0.000100 0.000000 -1.000000
vn 0.000100 0.000000 -1.000000
vn -1.000000 0.000000 0.000000
vn -1.000000 0.000000 0.000000
vn -1.000000 0.000000 0.000000
vn -1.000000 0.000000 0.000000
vn -1.000000 0.000000 0.000000
vn -1.000000 0.000000 0.000000
vn 1.000000 0.000000 0.000000
vn 1.000000 0.000000 0.000000
vn 1.000000 0.000000 0.000000
vn 1.000000 0.000000 0.000000
vn 1.000000 0.000000 0.000000
vn 1.000000 0.000000 0.000000
vn 1.000000 0.000000 0.000000
vn -0.882190 0.000000 -0.470894
vn -0.882190 0.000000 -0.470894
vn -0.831789 0.000000 -0.555093
vn -0.831789 0.000000 -0.555093
vn -0.773092 0.000000 -0.634294
vn -0.773092 0.000000 -0.634294
vn -0.706707 0.000000 -0.707507
vn -0.706707 0.000000 -0.707507
vn -0.633581 0.000000 -0.773677
vn -0.633581 0.000000 -0.773677
vn -0.554377 0.000000 -0.832266
vn -0.554377 0.000000 -0.832266
vn -0.470894 0.000000 -0.882190
vn -0.470894 0.000000 -0.882190
vn 0.000000 0.000000 -1.000000
vn 0.000000 0.000000 -1.000000
vn 0.000000 0.000000 -1.000000
vn 0.000000 0.000000 -1.000000
vn 0.000000 0.000000 -1.000000
vn 0.000000 0.000000 -1.000000
vn 0.000000 0.000000 -1.000000
vn 0.000000 0.000000 -1.000000
vn 0.000000 0.000000 -1.000000
vn 0.000000 0.000000 -1.000000
vn -0.991488 0.000000 -0.130198
vn -0.991488 0.000000 -0.130198
vn -0.976941 0.000000 -0.213509
vn -0.976941 0.000000 -0.213509
vn -0.955740 0.000000 -0.294212
vn -0.955712 0.000000 -0.294304
vn -0.927425 0.000000 -0.374010
vn -0.891812 0.000000 -0.452406
vn -0.991488 0.000000 -0.130198
vn -0.985151 0.000000 -0.171691
vn -0.985148 0.000000 -0.171708
vn -0.988548 0.000000 -0.150907
vn -0.988548 0.000000 -0.150907
vn -0.985148 0.000000 -0.171708
vn -0.988548 0.000000 -0.150907
vn -0.891812 0.000000 -0.452406
vn -0.891812 0.000000 -0.452406
vn -0.910503 0.000000 -0.413502
vn -0.901395 0.000000 -0.432998
vn -0.910541 0.000000 -0.413419
vn -0.901395 0.000000 -0.432998
vn -0.910503 0.000000 -0.413502
vn -0.901395 0.000000 -0.432998
vn -1.000000 0.000000 0.000000
vn -1.000000 0.000000 0.000000
vn -1.000000 0.000000 0.000000
vn -1.000000 0.000000 0.000000
vn 0.000000 -0.000000 1.000000
vn 0.000000 -0.000000 1.000000
vn 0.000000 -0.000000 1.000000
vn 0.000000 -0.000000 1.000000
vn 0.000000 -0.000000 1.000000
vn 0.000000 -0.000000 1.000000
vn 0.000000 -0.000000 1.000000
vn 0.000000 -1.000000 -0.000000
vn 0.000000 -1.000000 -0.000000
vn 0.000000 -1.000000 -0.000000
vn 0.000000 -1.000000 -0.000000
vn 0.000000 -1.000000 -0.000000
vn 0.000000 -1.000000 -0.000000
vn 0.000000 -1.000000 -0.000000
vn 0.000000 -1.000000 -0.000000
vn 0.000000 -1.000000 -0.000000
vn 0.000000 -1.000000 -0.000000
vn 0.000000 -1.000000 -0.000000
vn 0.000000 -1.000000 -0.000000
vn 0.000000 -1.000000 -0.000000
vn 0.000000 -1.000000 -0.000000
vn 0.000000 -1.000000 -0.000000
vn 0.000000 -1.000000 -0.000000
vn 0.000000 -1.000000 -0.000000
vn 0.000000 -1.000000 -0.000000
vn 0.000000 -1.000000 -0.000000
vn 0.000000 -1.000000 -0.000000
vn 0.000000 -1.000000 -0.000000
vn 0.000000 -1.000000 -0.000000
vn 0.000000 -1.000000 -0.000000
vn 0.000000 -1.000000 -0.000000
vn 0.000000 -1.000000 -0.000000
vn 0.000000 -1.000000 -0.000000
vn 0.000000 -1.000000 -0.000000
vn 0.000000 -1.000000 -0.000000
vn 0.000000 -1.000000 -0.000000
vn 0.000000 -1.000000 -0.000000
vn 0.000000 -1.000000 -0.000000
vn 0.000000 -1.000000 -0.000000
vn 0.000000 -1.000000 -0.000000
vn 0.000000 -1.000000 -0.000000
vn 0.000000 -1.000000 -0.000000
vn 0.000000 -1.000000 -0.000000
vn 0.000000 -1.000000 -0.000000
vn 0.000000 -1.000000 -0.000000
vn 0.000000 -1.000000 -0.000000
vn 0.000000 -1.000000 -0.000000
vn 0.000000 -1.000000 -0.000000
vn 0.000000 -1.000000 -0.000000
vn 0.000000 -1.000000 -0.000000
vn 0.000000 -1.000000 -0.000000
vn 0.000000 -1.000000 -0.000000
vn 0.000000 -1.000000 -0.000000
vn 0.000000 -1.000000 -0.000000
vn 0.000000 -1.000000 -0.000000
vn 0.000000 -1.000000 -0.000000
vn 0.000000 1.000000 0.000000
vn 0.000000 1.000000 0.000000
vn 0.000000 1.000000 0.000000
vn 0.000000 1.000000 0.000000
vn 0.000000 1.000000 0.000000
vn 0.000000 1.000000 0.000000
vn 0.000000 1.000000 0.000000
vn 0.000000 1.000000 0.000000
vn 0.000000 1.000000 0.000000
vn 0.000000 1.000000 0.000000
vn 0.000000 1.000000 0.000000
vn 0.000000 1.000000 0.000000
vn 0.000000 1.000000 0.000000
vn 0.000000 1.000000 0.000000
vn 0.000000 1.000000 0.000000
vn 0.000000 1.000000 0.000000
vn 0.000000 1.000000 0.000000
vn 0.000000 1.000000 0.000000
vn 0.000000 1.000000 0.000000
vn 0.000000 1.000000 0.000000
vn 0.000000 1.000000 0.000000
vn 0.000000 1.000000 0.000000
vn 0.000000 1.000000 0.000000
vn 0.000000 1.000000 0.000000
vn 0.000000 1.000000 0.000000
vn 0.000000 1.000000 0.000000
vn 0.000000 1.000000 0.000000
vn 0.000000 1.000000 0.000000
vn 0.000000 1.000000 0.000000
vn 0.000000 1.000000 0.000000
vn 0.000000 1.000000 0.000000
vn 0.000000 1.000000 0.000000
vn 0.000000 1.000000 0.000000
vn 0.000000 1.000000 0.000000
vn 0.000000 1.000000 0.000000
vn 0.000000 1.000000 0.000000
vn 0.000000 1.000000 0.000000
vn 0.000000 1.000000 0.000000
vn 0.000000 1.000000 0.000000
vn 0.000000 1.000000 0.000000
vn 0.000000 1.000000 0.000000
vn 0.000000 1.000000 0.000000
vn 0.000000 1.000000 0.000000
vn 0.000000 1.000000 0.000000
vn 0.000000 1.000000 0.000000
vn 0.000000 1.000000 0.000000
vn 0.000000 1.000000 0.000000
vn 0.000000 1.000000 0.000000
f 2//2 1//1 3//3
f 2//2 3//3 4//4
f 7//7 8//8 6//6
f 7//7 6//6 5//5
f 8//8 7//7 9//9
f 8//8 9//9 10//10
f 15//15 11//11 13//13
f 12//12 11//11 15//15
f 11//11 12//12 10//10
f 11//11 10//10 9//9
f 15//15 14//14 12//12
f 35//35 37//37 36//36
f 35//35 36//36 34//34
f 34//34 36//36 39//39
f 34//34 39//39 38//38
f 32//32 31//31 27//27
f 32//32 27//27 28//28
f 28//28 27//27 29//29
f 28//28 29//29 30//30
f 33//33 16//16 39//39
f 38//38 39//39 16//16
f 39//39 36//36 33//33
f 18//18 34//34 38//38
f 16//16 18//18 38//38
f 19//19 18//18 20//20
f 19//19 20//20 21//21
f 17//17 33//33 36//36
f 17//17 36//36 37//37
f 35//35 17//17 37//37
f 35//35 34//34 19//19
f 18//18 19//19 34//34
f 17//17 35//35 19//19
f 27//27 22//22 29//29
f 24//24 29//29 22//22
f 23//23 22//22 27//27
f 26//26 30//30 24//24
f 29//29 24//24 30//30
f 26//26 28//28 30//30
f 23//23 27//27 31//31
f 22//22 23//23 21//21
f 22//22 21//21 20//20
f 25//25 23//23 31//31
f 28//28 26//26 32//32
f 25//25 32//32 26//26
f 31//31 32//32 25//25
f 50//50 40//40 42//42
f 41//41 50//50 43//43
f 42//42 43//43 50//50
f 43//43 42//42 44//44
f 43//43 44//44 45//45
f 46//46 47//47 45//45
f 46//46 45//45 44//44
f 48//48 49//49 47//47
f 48//48 47//47 46//46
f 52//52 51//51 53//53
f 52//52 53//53 54//54
f 57//57 58//58 56//56
f 57//57 56//56 55//55
f 61//61 62//62 60//60
f 61//61 60//60 59//59
f 59//59 60//60 58//58
f 59//59 58//58 57//57
f 65//65 66//66 64//64
f 65//65 64//64 63//63
f 69//69 70//70 68//68
f 69//69 68//68 67//67
f 67//67 68//68 66//66
f 67//67 66//66 65//65
f 63//63 64//64 62//62
f 63//63 62//62 61//61
f 70//70 69//69 71//71
f 70//70 71//71 72//72
f 73//73 74//74 72//72
f 73//73 72//72 71//71
f 77//77 78//78 76//76
f 77//77 76//76 75//75
f 75//75 76//76 74//74
f 75//75 74//74 73//73
f 81//81 82//82 80//80
f 81//81 80//80 79//79
f 85//85 86//86 84//84
f 85//85 84//84 83//83
f 83//83 84//84 82//82
f 83//83 82//82 81//81
f 79//79 80//80 78//78
f 79//79 78//78 77//77
f 90//90 88//88 91//91
f 90//90 91//91 92//92
f 92//92 87//87 89//89
f 92//92 89//89 90//90
f 97//97 99//99 98//98
f 97//97 98//98 95//95
f 94//94 93//93 99//99
f 94//94 97//97 96//96
f 99//99 97//97 94//94
f 102//102 103//103 101//101
f 102//102 101//101 100//100
f 104//104 105//105 103//103
f 104//104 103//103 102//102
f 106//106 107//107 105//105
f 106//106 105//105 104//104
f 110//110 111//111 109//109
f 110//110 109//109 108//108
f 112//112 113//113 111//111
f 112//112 111//111 110//110
f 108//108 109//109 107//107
f 108//108 107//107 106//106
f 115//115 117//117 116//116
f 115//115 116//116 114//114
f 123//123 122//122 121//121
f 123//123 121//121 120//120
f 122//122 123//123 118//118
f 122//122 118//118 119//119
f 134//134 136//136 135//135
f 134//134 135//135 133//133
f 133//133 135//135 138//138
f 133//133 138//138 137//137
f 146//146 145//145 141//141
f 146//146 141//141 142//142
f 142//142 141//141 143//143
f 142//142 143//143 144//144
f 132//132 124//124 138//138
f 132//132 138//138 135//135
f 137//137 138//138 124//124
f 124//124 126//126 137//137
f 126//126 133//133 137//137
f 125//125 132//132 136//136
f 136//136 132//132 135//135
f 134//134 125//125 136//136
f 134//134 133//133 127//127
f 126//126 127//127 133//133
f 125//125 134//134 127//127
f 127//127 126//126 128//128
f 127//127 128//128 129//129
f 128//128 130//130 129//129
f 131//131 143//143 130//130
f 143//143 141//141 130//130
f 143//143 131//131 144//144
f 140//140 144//144 131//131
f 141//141 145//145 130//130
f 129//129 130//130 145//145
f 139//139 129//129 145//145
f 139//139 146//146 140//140
f 142//142 140//140 146//146
f 145//145 146//146 139//139
f 140//140 142//142 144//144
f 148//148 147//147 149//149
f 148//148 149//149 150//150
f 157//157 154//154 155//155
f 157//157 155//155 156//156
f 153//153 156//156 152//152
f 153//153 151//151 157//157
f 156//156 153//153 157//157
f 195//195 178//178 177//177
f 203//203 178//178 195//195
f 196//196 195//195 177//177
f 204//204 196//196 165//165
f 203//203 194//194 178//178
f 165//165 196//196 177//177
f 192//192 180//180 179//179
f 191//191 180//180 192//192
f 193//193 192//192 179//179
f 193//193 178//178 194//194
f 193//193 179//179 178//178
f 164//164 204//204 165//165
f 168//168 174//174 173//173
f 174//174 167//167 175//175
f 172//172 168//168 173//173
f 168//168 172//172 171//171
f 166//166 176//176 175//175
f 175//175 167//167 166//166
f 176//176 166//166 165//165
f 169//169 168//168 170//170
f 168//168 171//171 170//170
f 167//167 174//174 168//168
f 165//165 177//177 176//176
f 186//186 185//185 198//198
f 187//187 186//186 197//197
f 199//199 185//185 184//184
f 197//197 186//186 198//198
f 198//198 185//185 199//199
f 197//197 163//163 187//187
f 158//158 163//163 159//159
f 160//160 159//159 163//163
f 163//163 162//162 160//160
f 161//161 160//160 162//162
f 187//187 163//163 158//158
f 189//189 183//183 182//182
f 188//188 183//183 189//189
f 190//190 189//189 182//182
f 191//191 190//190 181//181
f 182//182 181//181 190//190
f 180//180 191//191 181//181
f 183//183 202//202 184//184
f 202//202 201//201 184//184
f 206//206 199//199 201//201
f 205//205 183//183 188//188
f 199//199 206//206 200//200
f 202//202 183//183 205//205
f 201//201 199//199 184//184
f 227//227 244//244 226//226
f 243//243 251//251 227//227
f 251//251 244//244 227//227
f 252//252 214//214 245//245
f 226//226 244//244 245//245
f 214//214 226//226 245//245
f 241//241 228//228 229//229
f 240//240 241//241 229//229
f 242//242 228//228 241//241
f 242//242 243//243 227//227
f 242//242 227//227 228//228
f 213//213 214//214 252//252
f 217//217 222//222 223//223
f 223//223 224//224 216//216
f 221//221 222//222 217//217
f 217//217 220//220 221//221
f 215//215 224//224 225//225
f 224//224 215//215 216//216
f 225//225 214//214 215//215
f 218//218 219//219 217//217
f 217//217 219//219 220//220
f 216//216 217//217 223//223
f 214//214 225//225 226//226
f 235//235 247//247 234//234
f 236//236 246//246 235//235
f 249//249 233//233 234//234
f 246//246 247//247 235//235
f 247//247 249//249 234//234
f 246//246 236//236 212//212
f 207//207 208//208 212//212
f 209//209 212//212 208//208
f 212//212 209//209 211//211
f 210//210 211//211 209//209
f 236//236 207//207 212//212
f 238//238 231//231 232//232
f 237//237 238//238 232//232
f 239//239 231//231 238//238
f 240//240 230//230 239//239
f 231//231 239//239 230//230
f 229//229 230//230 240//240
f 233//233 250//250 232//232
f 232//232 253//253 237//237
f 247//247 248//248 254//254
f 254//254 249//249 247//247
f 250//250 253//253 232//232
f 250//250 233//233 249//249
