# joint_40 exported from /models/guards/joint_40.glb
# units: meters
v -0.012343 -0.001000 0.006657
v -0.010843 -0.001000 0.020913
v -0.010843 -0.001000 0.009657
v -0.007843 -0.001000 0.009657
v -0.007843 -0.001000 0.020913
v 0.009657 -0.001000 -0.010843
v 0.020913 -0.001000 -0.010843
v 0.020913 -0.001000 -0.007843
v 0.009657 -0.001000 -0.007843
v 0.006657 -0.001000 -0.009343
v 0.004657 -0.001000 -0.009343
v 0.004657 -0.001000 -0.012343
v 0.020913 -0.001000 -0.012343
v 0.006657 -0.001000 -0.012343
v -0.009343 -0.001000 0.004657
v -0.009343 -0.001000 0.006657
v -0.012343 -0.001000 0.004657
v 0.001564 -0.001000 -0.012059
v -0.001601 -0.001000 -0.011150
v -0.004646 -0.001000 -0.009572
v -0.007364 -0.001000 -0.007364
v -0.009572 -0.001000 -0.004646
v -0.011149 -0.001000 -0.001601
v -0.012059 -0.001000 0.001563
v -0.012343 -0.001000 0.020913
v -0.012132 -0.001000 0.022017
v -0.011464 -0.001000 0.023034
v -0.010447 -0.001000 0.023702
v -0.009343 -0.001000 0.023913
v -0.008239 -0.001000 0.023702
v -0.007222 -0.001000 0.023034
v -0.006554 -0.001000 0.022017
v -0.006343 -0.001000 0.020913
v -0.006343 -0.001000 0.004657
v -0.006159 -0.001000 0.002655
v -0.005571 -0.001000 0.000608
v -0.004550 -0.001000 -0.001362
v -0.003121 -0.001000 -0.003121
v -0.001362 -0.001000 -0.004550
v 0.000608 -0.001000 -0.005571
v 0.002655 -0.001000 -0.006159
v 0.004657 -0.001000 -0.006343
v 0.020913 -0.001000 -0.006343
v 0.022017 -0.001000 -0.006554
v 0.023034 -0.001000 -0.007222
v 0.023703 -0.001000 -0.008239
v 0.023913 -0.001000 -0.009343
v 0.023703 -0.001000 -0.010447
v 0.023034 -0.001000 -0.011464
v 0.022017 -0.001000 -0.012132
v -0.007948 -0.001000 0.021465
v -0.008282 -0.001000 0.021974
v -0.008791 -0.001000 0.022308
v -0.009343 -0.001000 0.022413
v -0.009895 -0.001000 0.022308
v -0.010404 -0.001000 0.021974
v -0.010738 -0.001000 0.021465
v -0.010729 -0.001000 0.009083
v -0.010404 -0.001000 0.008596
v -0.009917 -0.001000 0.008271
v -0.009343 -0.001000 0.008157
v -0.008769 -0.001000 0.008271
v -0.008282 -0.001000 0.008596
v -0.007957 -0.001000 0.009083
v 0.021465 -0.001000 -0.010738
v 0.021974 -0.001000 -0.010404
v 0.022308 -0.001000 -0.009895
v 0.022413 -0.001000 -0.009343
v 0.022308 -0.001000 -0.008791
v 0.021974 -0.001000 -0.008282
v 0.021465 -0.001000 -0.007948
v 0.009083 -0.001000 -0.007957
v 0.008596 -0.001000 -0.008282
v 0.008271 -0.001000 -0.008769
v 0.008157 -0.001000 -0.009343
v 0.008271 -0.001000 -0.009917
v 0.008596 -0.001000 -0.010404
v 0.009083 -0.001000 -0.010729
v 0.002425 -0.001000 -0.007642
v 0.000667 -0.001000 -0.007189
v -0.001064 -0.001000 -0.006457
v -0.002702 -0.001000 -0.005448
v -0.004182 -0.001000 -0.004182
v -0.005448 -0.001000 -0.002702
v -0.006457 -0.001000 -0.001064
v -0.007189 -0.001000 0.000667
v -0.007642 -0.001000 0.002425
v -0.007844 -0.001000 0.002949
v -0.008264 -0.001000 0.003390
v -0.008824 -0.001000 0.003628
v -0.009386 -0.001000 0.003633
v -0.009910 -0.001000 0.003431
v -0.010351 -0.001000 0.003011
v -0.010589 -0.001000 0.002451
v -0.010594 -0.001000 0.001889
v -0.010356 -0.001000 0.000800
v -0.010032 -0.001000 -0.000291
v -0.009622 -0.001000 -0.001373
v -0.009125 -0.001000 -0.002437
v -0.008541 -0.001000 -0.003472
v -0.007873 -0.001000 -0.004468
v -0.007125 -0.001000 -0.005415
v -0.006303 -0.001000 -0.006303
v -0.005415 -0.001000 -0.007125
v -0.004468 -0.001000 -0.007873
v -0.003472 -0.001000 -0.008541
v -0.002437 -0.001000 -0.009125
v -0.001373 -0.001000 -0.009622
v -0.000291 -0.001000 -0.010032
v 0.000800 -0.001000 -0.010356
v 0.001889 -0.001000 -0.010594
v 0.002451 -0.001000 -0.010589
v 0.003011 -0.001000 -0.010351
v 0.003431 -0.001000 -0.009910
v 0.003633 -0.001000 -0.009386
v 0.003628 -0.001000 -0.008824
v 0.003390 -0.001000 -0.008264
v 0.002949 -0.001000 -0.007844
v -0.006343 -0.001000 0.006657
v 0.006657 -0.001000 -0.006343
v -0.012343 0.001000 0.006657
v -0.010843 0.001000 0.020913
v -0.010843 0.001000 0.009657
v -0.007843 0.001000 0.009657
v -0.007843 0.001000 0.020913
v 0.009657 0.001000 -0.010843
v 0.020913 0.001000 -0.010843
v 0.020913 0.001000 -0.007843
v 0.009657 0.001000 -0.007843
v 0.006657 0.001000 -0.009343
v 0.004657 0.001000 -0.009343
v 0.020913 0.001000 -0.012343
v -0.009343 0.001000 0.004657
v -0.009343 0.001000 0.006657
v 0.004657 0.001000 -0.012343
v 0.001564 0.001000 -0.012059
v -0.001601 0.001000 -0.011150
v -0.004646 0.001000 -0.009572
v -0.007364 0.001000 -0.007364
v -0.009572 0.001000 -0.004646
v -0.011149 0.001000 -0.001601
v -0.012059 0.001000 0.001563
v -0.012343 0.001000 0.020913
v -0.012132 0.001000 0.022017
v -0.011464 0.001000 0.023034
v -0.010447 0.001000 0.023702
v -0.009343 0.001000 0.023913
v -0.008239 0.001000 0.023702
v -0.007222 0.001000 0.023034
v -0.006554 0.001000 0.022017
v -0.006343 0.001000 0.020913
v -0.006343 0.001000 0.004657
v -0.006159 0.001000 0.002655
v -0.005571 0.001000 0.000608
v -0.004550 0.001000 -0.001362
v -0.003121 0.001000 -0.003121
v -0.001362 0.001000 -0.004550
v 0.000608 0.001000 -0.005571
v 0.002655 0.001000 -0.006159
v 0.004657 0.001000 -0.006343
v 0.020913 0.001000 -0.006343
v 0.022017 0.001000 -0.006554
v 0.023034 0.001000 -0.007222
v 0.023703 0.001000 -0.008239
v 0.023913 0.001000 -0.009343
v 0.023703 0.001000 -0.010447
v 0.023034 0.001000 -0.011464
v 0.022017 0.001000 -0.012132
v 0.006657 0.001000 -0.012343
v -0.012343 0.001000 0.004657
v -0.007948 0.001000 0.021465
v -0.008282 0.001000 0.021974
v -0.008791 0.001000 0.022308
v -0.009343 0.001000 0.022413
v -0.009895 0.001000 0.022308
v -0.010404 0.001000 0.021974
v -0.010738 0.001000 0.021465
v -0.010729 0.001000 0.009083
v -0.010404 0.001000 0.008596
v -0.009917 0.001000 0.008271
v -0.009343 0.001000 0.008157
v -0.008769 0.001000 0.008271
v -0.008282 0.001000 0.008596
v -0.007957 0.001000 0.009083
v 0.021465 0.001000 -0.010738
v 0.021974 0.001000 -0.010404
v 0.022308 0.001000 -0.009895
v 0.022413 0.001000 -0.009343
v 0.022308 0.001000 -0.008791
v 0.021974 0.001000 -0.008282
v 0.021465 0.001000 -0.007948
v 0.009083 0.001000 -0.007957
v 0.008596 0.001000 -0.008282
v 0.008271 0.001000 -0.008769
v 0.008157 0.001000 -0.009343
v 0.008271 0.001000 -0.009917
v 0.008596 0.001000 -0.010404
v 0.009083 0.001000 -0.010729
v 0.002425 0.001000 -0.007642
v 0.000667 0.001000 -0.007189
v -0.001064 0.001000 -0.006457
v -0.002702 0.001000 -0.005448
v -0.004182 0.001000 -0.004182
v -0.005448 0.001000 -0.002702
v -0.006457 0.001000 -0.001064
v -0.007189 0.001000 0.000667
v -0.007642 0.001000 0.002425
v -0.007844 0.001000 0.002949
v -0.008264 0.001000 0.003390
v -0.008824 0.001000 0.003628
v -0.009386 0.001000 0.003633
v -0.009910 0.001000 0.003431
v -0.010351 0.001000 0.003011
v -0.010589 0.001000 0.002451
v -0.010594 0.001000 0.001889
v -0.010356 0.001000 0.000800
v -0.010032 0.001000 -0.000291
v -0.009622 0.001000 -0.001373
v -0.009125 0.001000 -0.002437
v -0.008541 0.001000 -0.003472
v -0.007873 0.001000 -0.004468
v -0.007125 0.001000 -0.005415
v -0.006303 0.001000 -0.006303
v -0.005415 0.001000 -0.007125
v -0.004468 0.001000 -0.007873
v -0.003472 0.001000 -0.008541
v -0.002437 0.001000 -0.009125
v -0.001373 0.001000 -0.009622
v -0.000291 0.001000 -0.010032
v 0.000800 0.001000 -0.010356
v 0.001889 0.001000 -0.010594
v 0.002451 0.001000 -0.010589
v 0.003011 0.001000 -0.010351
v 0.003431 0.001000 -0.009910
v 0.003633 0.001000 -0.009386
v 0.003628 0.001000 -0.008824
v 0.003390 0.001000 -0.008264
v 0.002949 0.001000 -0.007844
v -0.006343 0.001000 0.006657
v 0.006657 0.001000 -0.006343
v 0.004657 -0.001000 -0.012343
v 0.001564 -0.001000 -0.012059
v -0.001601 -0.001000 -0.011150
v -0.004646 -0.001000 -0.009572
v -0.007364 -0.001000 -0.007364
v -0.009572 -0.001000 -0.004646
v -0.011149 -0.001000 -0.001601
v -0.012059 -0.001000 0.001563
v -0.012059 0.001000 0.001563
v -0.011149 0.001000 -0.001601
v -0.009572 0.001000 -0.004646
v -0.007364 0.001000 -0.007364
v -0.004646 0.001000 -0.009572
v -0.001601 0.001000 -0.011150
v 0.001564 0.001000 -0.012059
v 0.004657 0.001000 -0.012343
v -0.012343 -0.001000 0.006657
v -0.012343 -0.001000 0.020913
v -0.012343 0.001000 0.020913
v -0.012343 0.000000 0.020913
v -0.012343 0.001000 0.006657
v -0.012343 -0.001000 0.020913
v -0.009343 -0.001000 0.023913
v -0.006343 -0.001000 0.020913
v -0.006343 0.001000 0.020913
v -0.012343 0.001000 0.020913
v -0.012343 0.000000 0.020913
v -0.012132 -0.001000 0.022017
v -0.011464 -0.001000 0.023034
v -0.010447 -0.001000 0.023702
v -0.008239 -0.001000 0.023702
v -0.007222 -0.001000 0.023034
v -0.006554 -0.001000 0.022017
v -0.006554 0.001000 0.022017
v -0.007222 0.001000 0.023034
v -0.008239 0.001000 0.023702
v -0.009343 0.001000 0.023913
v -0.010447 0.001000 0.023702
v -0.011464 0.001000 0.023034
v -0.012132 0.001000 0.022017
v -0.006343 -0.001000 0.020913
v -0.006343 0.001000 0.020913
v -0.006343 -0.001000 0.004657
v -0.006343 -0.001000 0.006657
v -0.006343 0.001000 0.004657
v -0.006343 0.001000 0.006657
v -0.006343 -0.001000 0.004657
v 0.004657 -0.001000 -0.006343
v 0.004657 0.001000 -0.006343
v -0.006343 0.001000 0.004657
v -0.006159 -0.001000 0.002655
v -0.005571 -0.001000 0.000608
v -0.004550 -0.001000 -0.001362
v -0.003121 -0.001000 -0.003121
v -0.001362 -0.001000 -0.004550
v 0.000608 -0.001000 -0.005571
v 0.002655 -0.001000 -0.006159
v 0.002655 0.001000 -0.006159
v 0.000608 0.001000 -0.005571
v -0.001362 0.001000 -0.004550
v -0.003121 0.001000 -0.003121
v -0.004550 0.001000 -0.001362
v -0.005571 0.001000 0.000608
v -0.006159 0.001000 0.002655
v 0.004657 -0.001000 -0.006343
v 0.004657 0.001000 -0.006343
v 0.020913 -0.001000 -0.006343
v 0.006657 -0.001000 -0.006343
v 0.020913 0.001000 -0.006343
v 0.006657 0.001000 -0.006343
v 0.020913 -0.001000 -0.006343
v 0.020913 0.001000 -0.006343
v 0.023913 -0.001000 -0.009343
v 0.023913 0.001000 -0.009343
v 0.020913 -0.001000 -0.012343
v 0.020913 0.001000 -0.012343
v 0.022017 -0.001000 -0.006554
v 0.023034 -0.001000 -0.007222
v 0.023703 -0.001000 -0.008239
v 0.023703 -0.001000 -0.010447
v 0.023034 -0.001000 -0.011464
v 0.022017 -0.001000 -0.012132
v 0.022017 0.001000 -0.012132
v 0.023034 0.001000 -0.011464
v 0.023703 0.001000 -0.010447
v 0.023703 0.001000 -0.008239
v 0.023034 0.001000 -0.007222
v 0.022017 0.001000 -0.006554
v 0.020913 -0.001000 -0.012343
v 0.020913 0.001000 -0.012343
v 0.006657 -0.001000 -0.012343
v 0.006657 0.001000 -0.012343
v 0.006657 -0.001000 -0.012343
v 0.006657 0.001000 -0.009343
v 0.006657 -0.001000 -0.009343
v 0.006657 0.001000 -0.012343
v 0.006657 0.001000 -0.009343
v 0.006657 -0.001000 -0.009343
v 0.004657 0.001000 -0.009343
v 0.004657 -0.001000 -0.009343
v 0.004657 0.001000 -0.009343
v 0.004657 -0.001000 -0.009343
v 0.004657 -0.001000 -0.012343
v 0.004657 0.001000 -0.012343
v -0.009343 0.001000 0.004657
v -0.009343 -0.001000 0.004657
v -0.009343 0.001000 0.006657
v -0.009343 -0.001000 0.006657
v -0.009343 -0.001000 0.006657
v -0.012343 0.001000 0.006657
v -0.012343 -0.001000 0.006657
v -0.009343 0.001000 0.006657
v -0.007843 -0.001000 0.020913
v -0.007843 0.001000 0.020913
v -0.009343 -0.001000 0.022413
v -0.010843 -0.001000 0.020913
v -0.007948 -0.001000 0.021465
v -0.008282 -0.001000 0.021974
v -0.008791 -0.001000 0.022308
v -0.009895 -0.001000 0.022308
v -0.010404 -0.001000 0.021974
v -0.010738 -0.001000 0.021465
v -0.010843 0.001000 0.020913
v -0.010738 0.001000 0.021465
v -0.010404 0.001000 0.021974
v -0.009895 0.001000 0.022308
v -0.009343 0.001000 0.022413
v -0.008791 0.001000 0.022308
v -0.008282 0.001000 0.021974
v -0.007948 0.001000 0.021465
v -0.010843 0.001000 0.020913
v -0.010843 -0.001000 0.009657
v -0.010843 -0.001000 0.020913
v -0.010843 0.001000 0.009657
v -0.010843 0.000000 0.009657
v -0.010843 -0.001000 0.009657
v -0.007843 0.001000 0.009657
v -0.010843 0.001000 0.009657
v -0.010843 0.000000 0.009657
v -0.010729 -0.001000 0.009083
v -0.010404 -0.001000 0.008596
v -0.009917 -0.001000 0.008271
v -0.009343 -0.001000 0.008157
v -0.008769 -0.001000 0.008271
v -0.008282 -0.001000 0.008596
v -0.007957 -0.001000 0.009083
v -0.007957 0.001000 0.009083
v -0.008282 0.001000 0.008596
v -0.008769 0.001000 0.008271
v -0.009343 0.001000 0.008157
v -0.009917 0.001000 0.008271
v -0.010404 0.001000 0.008596
v -0.010729 0.001000 0.009083
v -0.007843 -0.001000 0.009657
v -0.007843 0.000000 0.009657
v -0.007843 0.001000 0.009657
v -0.007843 -0.001000 0.020913
v -0.007843 -0.001000 0.009657
v -0.007843 0.001000 0.020913
v -0.007843 0.000000 0.009657
v 0.020913 -0.001000 -0.007843
v 0.020913 0.001000 -0.007843
v 0.022413 0.001000 -0.009343
v 0.021465 -0.001000 -0.007948
v 0.021974 -0.001000 -0.008282
v 0.022308 -0.001000 -0.008791
v 0.022413 -0.001000 -0.009343
v 0.022308 -0.001000 -0.009895
v 0.021974 -0.001000 -0.010404
v 0.021465 -0.001000 -0.010738
v 0.020913 0.001000 -0.010843
v 0.021465 0.001000 -0.010738
v 0.021974 0.001000 -0.010404
v 0.022308 0.001000 -0.009895
v 0.022308 0.001000 -0.008791
v 0.021974 0.001000 -0.008282
v 0.021465 0.001000 -0.007948
v 0.020913 -0.001000 -0.010843
v 0.020913 0.000000 -0.010843
v 0.020913 0.001000 -0.010843
v 0.009657 -0.001000 -0.010843
v 0.020913 -0.001000 -0.010843
v 0.009657 0.001000 -0.010843
v 0.020913 0.000000 -0.010843
v 0.009657 0.000000 -0.010843
v 0.009657 -0.001000 -0.010843
v 0.009657 0.001000 -0.007843
v 0.009657 0.001000 -0.010843
v 0.009657 0.000000 -0.010843
v 0.009083 -0.001000 -0.010729
v 0.008596 -0.001000 -0.010404
v 0.008271 -0.001000 -0.009917
v 0.008157 -0.001000 -0.009343
v 0.008271 -0.001000 -0.008769
v 0.008596 -0.001000 -0.008282
v 0.009083 -0.001000 -0.007957
v 0.009083 0.001000 -0.007957
v 0.008596 0.001000 -0.008282
v 0.008271 0.001000 -0.008769
v 0.008157 0.001000 -0.009343
v 0.008271 0.001000 -0.009917
v 0.008596 0.001000 -0.010404
v 0.009083 0.001000 -0.010729
v 0.009657 -0.001000 -0.007843
v 0.009657 0.000000 -0.007843
v 0.009657 0.001000 -0.007843
v 0.020913 -0.001000 -0.007843
v 0.009657 -0.001000 -0.007843
v 0.020913 0.001000 -0.007843
v 0.009657 0.000000 -0.007843
v -0.007642 -0.001000 0.002425
v 0.002425 -0.001000 -0.007642
v 0.002425 0.001000 -0.007642
v -0.007189 -0.001000 0.000667
v -0.006457 -0.001000 -0.001064
v -0.005448 -0.001000 -0.002702
v -0.004182 -0.001000 -0.004182
v -0.002702 -0.001000 -0.005448
v -0.001064 -0.001000 -0.006457
v 0.000667 -0.001000 -0.007189
v 0.000667 0.001000 -0.007189
v -0.001064 0.001000 -0.006457
v -0.002702 0.001000 -0.005448
v -0.004182 0.001000 -0.004182
v -0.005448 0.001000 -0.002702
v -0.006457 0.001000 -0.001064
v -0.007189 0.001000 0.000667
v 0.002425 0.000000 -0.007642
v -0.007642 0.001000 0.002425
v -0.007642 0.000000 0.002425
v 0.002425 -0.001000 -0.007642
v 0.002425 0.001000 -0.007642
v -0.007642 -0.001000 0.002425
v 0.002425 0.000000 -0.007642
v -0.007642 0.000000 0.002425
v 0.002949 -0.001000 -0.007844
v 0.003390 -0.001000 -0.008264
v 0.003628 -0.001000 -0.008824
v 0.003633 -0.001000 -0.009386
v 0.003431 -0.001000 -0.009910
v 0.003011 -0.001000 -0.010351
v 0.002451 -0.001000 -0.010589
v 0.001889 -0.001000 -0.010594
v 0.000800 -0.001000 -0.010356
v -0.000291 -0.001000 -0.010032
v -0.001373 -0.001000 -0.009622
v -0.002437 -0.001000 -0.009125
v -0.003472 -0.001000 -0.008541
v -0.004468 -0.001000 -0.007873
v -0.005415 -0.001000 -0.007125
v -0.006303 -0.001000 -0.006303
v -0.007125 -0.001000 -0.005415
v -0.007873 -0.001000 -0.004468
v -0.008541 -0.001000 -0.003472
v -0.009125 -0.001000 -0.002437
v -0.009622 -0.001000 -0.001373
v -0.010032 -0.001000 -0.000291
v -0.010356 -0.001000 0.000800
v -0.010594 -0.001000 0.001889
v -0.010589 -0.001000 0.002451
v -0.010351 -0.001000 0.003011
v -0.009910 -0.001000 0.003431
v -0.009386 -0.001000 0.003633
v -0.008824 -0.001000 0.003628
v -0.008264 -0.001000 0.003390
v -0.007844 -0.001000 0.002949
v -0.007642 0.001000 0.002425
v -0.007844 0.001000 0.002949
v -0.008264 0.001000 0.003390
v -0.008824 0.001000 0.003628
v -0.009386 0.001000 0.003633
v -0.009910 0.001000 0.003431
v -0.010351 0.001000 0.003011
v -0.010589 0.001000 0.002451
v -0.010594 0.001000 0.001889
v -0.010356 0.001000 0.000800
v -0.010032 0.001000 -0.000291
v -0.009622 0.001000 -0.001373
v -0.009125 0.001000 -0.002437
v -0.008541 0.001000 -0.003472
v -0.007873 0.001000 -0.004468
v -0.007125 0.001000 -0.005415
v -0.006303 0.001000 -0.006303
v -0.005415 0.001000 -0.007125
v -0.004468 0.001000 -0.007873
v -0.003472 0.001000 -0.008541
v -0.002437 0.001000 -0.009125
v -0.001373 0.001000 -0.009622
v -0.000291 0.001000 -0.010032
v 0.000800 0.001000 -0.010356
v 0.001889 0.001000 -0.010594
v 0.002451 0.001000 -0.010589
v 0.003011 0.001000 -0.010351
v 0.003431 0.001000 -0.009910
v 0.003633 0.001000 -0.009386
v 0.003628 0.001000 -0.008824
v 0.003390 0.001000 -0.008264
v 0.002949 0.001000 -0.007844
v -0.012059 0.001000 0.001563
v -0.012059 -0.001000 0.001563
v -0.012343 -0.001000 0.004657
v -0.012343 -0.001000 0.004657
v -0.012343 -0.001000 0.004657
v -0.012343 0.001000 0.004657
v -0.012343 0.001000 0.004657
v -0.009343 0.001000 0.004657
v -0.012343 -0.001000 0.004657
v -0.012343 0.001000 0.004657
v -0.009343 0.001000 0.004657
v -0.009343 -0.001000 0.004657
v -0.012343 -0.001000 0.004657
v -0.012343 0.001000 0.004657
v -0.012343 -0.001000 0.004657
v -0.012343 -0.001000 0.004657
vn 0.000000 -1.000000 -0.000000
vn 0.000000 -1.000000 -0.000000
vn 0.000000 -1.000000 -0.000000
vn 0.000000 -1.000000 -0.000000
vn 0.000000 -1.000000 -0.000000
vn 0.000000 -1.000000 -0.000000
vn 0.000000 -1.000000 -0.000000
vn 0.000000 -1.000000 -0.000000
vn 0.000000 -1.000000 -0.000000
vn 0.000000 -1.000000 -0.000000
vn 0.000000 -1.000000 -0.000000
vn 0.000000 -1.000000 -0.000000
vn 0.000000 -1.000000 -0.000000
vn 0.000000 -1.000000 -0.000000
vn 0.000000 -1.000000 -0.000000
vn 0.000000 -1.000000 -0.000000
vn 0.000000 -1.000000 -0.000000
vn 0.000000 -1.000000 -0.000000
vn 0.000000 -1.000000 -0.000000
vn 0.000000 -1.000000 -0.000000
vn 0.000000 -1.000000 -0.000000
vn 0.000000 -1.000000 -0.000000
vn 0.000000 -1.000000 -0.000000
vn 0.000000 -1.000000 -0.000000
vn 0.000000 -1.000000 -0.000000
vn 0.000000 -1.000000 -0.000000
vn 0.000000 -1.000000 -0.000000
vn 0.000000 -1.000000 -0.000000
vn 0.000000 -1.000000 -0.000000
vn 0.000000 -1.000000 -0.000000
vn 0.000000 -1.000000 -0.000000
vn 0.000000 -1.000000 -0.000000
vn 0.000000 -1.000000 -0.000000
vn 0.000000 -1.000000 -0.000000
vn 0.000000 -1.000000 -0.000000
vn 0.000000 -1.000000 -0.000000
vn 0.000000 -1.000000 -0.000000
vn 0.000000 -1.000000 -0.000000
vn 0.000000 -1.000000 -0.000000
vn 0.000000 -1.000000 -0.000000
vn 0.000000 -1.000000 -0.000000
vn 0.000000 -1.000000 -0.000000
vn 0.000000 -1.000000 -0.000000
vn 0.000000 -1.000000 -0.000000
vn 0.000000 -1.000000 -0.000000
vn 0.000000 -1.000000 -0.000000
vn 0.000000 -1.000000 -0.000000
vn 0.000000 -1.000000 -0.000000
vn 0.000000 -1.000000 -0.000000
vn 0.000000 -1.000000 -0.000000
vn 0.000000 -1.000000 -0.000000
vn 0.000000 -1.000000 -0.000000
vn 0.000000 -1.000000 -0.000000
vn 0.000000 -1.000000 -0.000000
vn 0.000000 -1.000000 -0.000000
vn 0.000000 -1.000000 -0.000000
vn 0.000000 -1.000000 -0.000000
vn 0.000000 -1.000000 -0.000000
vn 0.000000 -1.000000 -0.000000
vn 0.000000 -1.000000 -0.000000
vn 0.000000 -1.000000 -0.000000
vn 0.000000 -1.000000 -0.000000
vn 0.000000 -1.000000 -0.000000
vn 0.000000 -1.000000 -0.000000
vn 0.000000 -1.000000 -0.000000
vn 0.000000 -1.000000 -0.000000
vn 0.000000 -1.000000 -0.000000
vn 0.000000 -1.000000 -0.000000
vn 0.000000 -1.000000 -0.000000
vn 0.000000 -1.000000 -0.000000
vn 0.000000 -1.000000 -0.000000
vn 0.000000 -1.000000 -0.000000
vn 0.000000 -1.000000 -0.000000
vn 0.000000 -1.000000 -0.000000
vn 0.000000 -1.000000 -0.000000
vn 0.000000 -1.000000 -0.000000
vn 0.000000 -1.000000 -0.000000
vn 0.000000 -1.000000 -0.000000
vn 0.000000 -1.000000 -0.000000
vn 0.000000 -1.000000 -0.000000
vn 0.000000 -1.000000 -0.000000
vn 0.000000 -1.000000 -0.000000
vn 0.000000 -1.000000 -0.000000
vn 0.000000 -1.000000 -0.000000
vn 0.000000 -1.000000 -0.000000
vn 0.000000 -1.000000 -0.000000
vn 0.000000 -1.000000 -0.000000
vn 0.000000 -1.000000 -0.000000
vn 0.000000 -1.000000 -0.000000
vn 0.000000 -1.000000 -0.000000
vn 0.000000 -1.000000 -0.000000
vn 0.000000 -1.000000 -0.000000
vn 0.000000 -1.000000 -0.000000
vn 0.000000 -1.000000 -0.000000
vn 0.000000 -1.000000 -0.000000
vn 0.000000 -1.000000 -0.000000
vn 0.000000 -1.000000 -0.000000
vn 0.000000 -1.000000 -0.000000
vn 0.000000 -1.000000 -0.000000
vn 0.000000 -1.000000 -0.000000
vn 0.000000 -1.000000 -0.000000
vn 0.000000 -1.000000 -0.000000
vn 0.000000 -1.000000 -0.000000
vn 0.000000 -1.000000 -0.000000
vn 0.000000 -1.000000 -0.000000
vn 0.000000 -1.000000 -0.000000
vn 0.000000 -1.000000 -0.000000
vn 0.000000 -1.000000 -0.000000
vn 0.000000 -1.000000 -0.000000
vn 0.000000 -1.000000 -0.000000
vn 0.000000 -1.000000 -0.000000
vn 0.000000 -1.000000 -0.000000
vn 0.000000 -1.000000 -0.000000
vn 0.000000 -1.000000 -0.000000
vn 0.000000 -1.000000 -0.000000
vn 0.000000 -1.000000 -0.000000
vn 0.000000 -1.000000 -0.000000
vn 0.000000 -1.000000 -0.000000
vn 0.000000 -1.000000 -0.000000
vn 0.000000 -1.000000 -0.000000
vn 0.000000 1.000000 0.000000
vn 0.000000 1.000000 0.000000
vn 0.000000 1.000000 0.000000
vn 0.000000 1.000000 0.000000
vn 0.000000 1.000000 0.000000
vn 0.000000 1.000000 0.000000
vn 0.000000 1.000000 0.000000
vn 0.000000 1.000000 0.000000
vn 0.000000 1.000000 0.000000
vn 0.000000 1.000000 0.000000
vn 0.000000 1.000000 0.000000
vn 0.000000 1.000000 0.000000
vn 0.000000 1.000000 0.000000
vn 0.000000 1.000000 0.000000
vn 0.000000 1.000000 0.000000
vn 0.000000 1.000000 0.000000
vn 0.000000 1.000000 0.000000
vn 0.000000 1.000000 0.000000
vn 0.000000 1.000000 0.000000
vn 0.000000 1.000000 0.000000
vn 0.000000 1.000000 0.000000
vn 0.000000 1.000000 0.000000
vn 0.000000 1.000000 0.000000
vn 0.000000 1.000000 0.000000
vn 0.000000 1.000000 0.000000
vn 0.000000 1.000000 0.000000
vn 0.000000 1.000000 0.000000
vn 0.000000 1.000000 0.000000
vn 0.000000 1.000000 0.000000
vn 0.000000 1.000000 0.000000
vn 0.000000 1.000000 0.000000
vn 0.000000 1.000000 0.000000
vn 0.000000 1.000000 0.000000
vn 0.000000 1.000000 0.000000
vn 0.000000 1.000000 0.000000
vn 0.000000 1.000000 0.000000
vn 0.000000 1.000000 0.000000
vn 0.000000 1.000000 0.000000
vn 0.000000 1.000000 0.000000
vn 0.000000 1.000000 0.000000
vn 0.000000 1.000000 0.000000
vn 0.000000 1.000000 0.000000
vn 0.000000 1.000000 0.000000
vn 0.000000 1.000000 0.000000
vn 0.000000 1.000000 0.000000
vn 0.000000 1.000000 0.000000
vn 0.000000 1.000000 0.000000
vn 0.000000 1.000000 0.000000
vn 0.000000 1.000000 0.000000
vn 0.000000 1.000000 0.000000
vn 0.000000 1.000000 0.000000
vn 0.000000 1.000000 0.000000
vn 0.000000 1.000000 0.000000
vn 0.000000 1.000000 0.000000
vn 0.000000 1.000000 0.000000
vn 0.000000 1.000000 0.000000
vn 0.000000 1.000000 0.000000
vn 0.000000 1.000000 0.000000
vn 0.000000 1.000000 0.000000
vn 0.000000 1.000000 0.000000
vn 0.000000 1.000000 0.000000
vn 0.000000 1.000000 0.000000
vn 0.000000 1.000000 0.000000
vn 0.000000 1.000000 0.000000
vn 0.000000 1.000000 0.000000
vn 0.000000 1.000000 0.000000
vn 0.000000 1.000000 0.000000
vn 0.000000 1.000000 0.000000
vn 0.000000 1.000000 0.000000
vn 0.000000 1.000000 0.000000
vn 0.000000 1.000000 0.000000
vn 0.000000 1.000000 0.000000
vn 0.000000 1.000000 0.000000
vn 0.000000 1.000000 0.000000
vn 0.000000 1.000000 0.000000
vn 0.000000 1.000000 0.000000
vn 0.000000 1.000000 0.000000
vn 0.000000 1.000000 0.000000
vn 0.000000 1.000000 0.000000
vn 0.000000 1.000000 0.000000
vn 0.000000 1.000000 0.000000
vn 0.000000 1.000000 0.000000
vn 0.000000 1.000000 0.000000
vn 0.000000 1.000000 0.000000
vn 0.000000 1.000000 0.000000
vn 0.000000 1.000000 0.000000
vn 0.000000 1.000000 0.000000
vn 0.000000 1.000000 0.000000
vn 0.000000 1.000000 0.000000
vn 0.000000 1.000000 0.000000
vn 0.000000 1.000000 0.000000
vn 0.000000 1.000000 0.000000
vn 0.000000 1.000000 0.000000
vn 0.000000 1.000000 0.000000
vn 0.000000 1.000000 0.000000
vn 0.000000 1.000000 0.000000
vn 0.000000 1.000000 0.000000
vn 0.000000 1.000000 0.000000
vn 0.000000 1.000000 0.000000
vn 0.000000 1.000000 0.000000
vn 0.000000 1.000000 0.000000
vn 0.000000 1.000000 0.000000
vn 0.000000 1.000000 0.000000
vn 0.000000 1.000000 0.000000
vn 0.000000 1.000000 0.000000
vn 0.000000 1.000000 0.000000
vn 0.000000 1.000000 0.000000
vn 0.000000 1.000000 0.000000
vn 0.000000 1.000000 0.000000
vn 0.000000 1.000000 0.000000
vn 0.000000 1.000000 0.000000
vn 0.000000 1.000000 0.000000
vn 0.000000 1.000000 0.000000
vn 0.000000 1.000000 0.000000
vn 0.000000 1.000000 0.000000
vn 0.000000 1.000000 0.000000
vn 0.000000 1.000000 0.000000
vn 0.000000 1.000000 0.000000
vn 0.000000 1.000000 0.000000
vn 0.000000 1.000000 0.000000
vn 0.000000 0.000000 -1.000000
vn -0.182000 0.000000 -0.983299
vn -0.368095 0.000000 -0.929788
vn -0.547201 0.000000 -0.837001
vn -0.707107 0.000000 -0.707107
vn -0.837001 0.000000 -0.547201
vn -0.929788 0.000000 -0.368095
vn -0.983299 0.000000 -0.182000
vn -0.983299 0.000000 -0.182000
vn -0.929788 0.000000 -0.368095
vn -0.837001 0.000000 -0.547201
vn -0.707107 0.000000 -0.707107
vn -0.547201 0.000000 -0.837001
vn -0.368095 0.000000 -0.929788
vn -0.182000 0.000000 -0.983299
vn 0.000000 0.000000 -1.000000
vn -1.000000 0.000000 0.000000
vn -1.000000 0.000000 0.000000
vn -1.000000 0.000000 0.000000
vn -1.000000 0.000000 0.000000
vn -1.000000 0.000000 0.000000
vn -1.000000 0.000000 0.000000
vn 0.000000 -0.000000 1.000000
vn 1.000000 0.000000 0.000000
vn 1.000000 0.000000 0.000000
vn -1.000000 0.000000 0.000000
vn -1.000000 0.000000 0.000000
vn -0.929788 -0.000000 0.368095
vn -0.707107 -0.000000 0.707107
vn -0.368095 -0.000000 0.929788
vn 0.368095 -0.000000 0.929788
vn 0.707107 -0.000000 0.707107
vn 0.929788 -0.000000 0.368095
vn 0.929788 -0.000000 0.368095
vn 0.707107 -0.000000 0.707107
vn 0.368095 -0.000000 0.929788
vn 0.000000 -0.000000 1.000000
vn -0.368095 -0.000000 0.929788
vn -0.707107 -0.000000 0.707107
vn -0.929788 -0.000000 0.368095
vn 1.000000 0.000000 0.000000
vn 1.000000 0.000000 0.000000
vn 1.000000 0.000000 0.000000
vn 1.000000 0.000000 0.000000
vn 1.000000 0.000000 0.000000
vn 1.000000 0.000000 0.000000
vn 1.000000 0.000000 0.000000
vn 0.000000 -0.000000 1.000000
vn 0.000000 -0.000000 1.000000
vn 1.000000 0.000000 0.000000
vn 0.983299 -0.000000 0.182000
vn 0.929788 -0.000000 0.368095
vn 0.837001 -0.000000 0.547201
vn 0.707107 -0.000000 0.707107
vn 0.547201 -0.000000 0.837001
vn 0.368095 -0.000000 0.929788
vn 0.182000 -0.000000 0.983299
vn 0.182000 -0.000000 0.983299
vn 0.368095 -0.000000 0.929788
vn 0.547201 -0.000000 0.837001
vn 0.707107 -0.000000 0.707107
vn 0.837001 -0.000000 0.547201
vn 0.929788 -0.000000 0.368095
vn 0.983299 -0.000000 0.182000
vn 0.000000 -0.000000 1.000000
vn 0.000000 -0.000000 1.000000
vn 0.000000 -0.000000 1.000000
vn 0.000000 -0.000000 1.000000
vn 0.000000 -0.000000 1.000000
vn 0.000000 -0.000000 1.000000
vn 0.000000 -0.000000 1.000000
vn 0.000000 -0.000000 1.000000
vn 1.000000 0.000000 0.000000
vn 1.000000 0.000000 0.000000
vn 0.000000 0.000000 -1.000000
vn 0.000000 0.000000 -1.000000
vn 0.368095 -0.000000 0.929788
vn 0.707107 -0.000000 0.707107
vn 0.929788 -0.000000 0.368095
vn 0.929788 0.000000 -0.368095
vn 0.707107 0.000000 -0.707107
vn 0.368095 0.000000 -0.929788
vn 0.368095 0.000000 -0.929788
vn 0.707107 0.000000 -0.707107
vn 0.929788 0.000000 -0.368095
vn 0.929788 -0.000000 0.368095
vn 0.707107 -0.000000 0.707107
vn 0.368095 -0.000000 0.929788
vn 0.000000 0.000000 -1.000000
vn 0.000000 0.000000 -1.000000
vn 0.000000 0.000000 -1.000000
vn 0.000000 0.000000 -1.000000
vn -1.000000 0.000000 0.000000
vn -1.000000 0.000000 0.000000
vn -1.000000 0.000000 0.000000
vn -1.000000 0.000000 0.000000
vn 0.000000 0.000000 -1.000000
vn 0.000000 0.000000 -1.000000
vn 0.000000 0.000000 -1.000000
vn 0.000000 0.000000 -1.000000
vn 1.000000 0.000000 0.000000
vn 1.000000 0.000000 0.000000
vn 1.000000 0.000000 0.000000
vn 1.000000 0.000000 0.000000
vn -1.000000 0.000000 0.000000
vn -1.000000 0.000000 0.000000
vn -1.000000 0.000000 0.000000
vn -1.000000 0.000000 0.000000
vn 0.000000 0.000000 -1.000000
vn 0.000000 0.000000 -1.000000
vn 0.000000 0.000000 -1.000000
vn 0.000000 0.000000 -1.000000
vn -1.000000 0.000000 0.000000
vn -1.000000 0.000000 0.000000
vn 0.000000 0.000000 -1.000000
vn 1.000000 0.000000 0.000000
vn -0.929788 0.000000 -0.368095
vn -0.707107 0.000000 -0.707107
vn -0.368095 0.000000 -0.929788
vn 0.368095 0.000000 -0.929788
vn 0.707107 0.000000 -0.707107
vn 0.929788 0.000000 -0.368095
vn 1.000000 0.000000 0.000000
vn 0.929788 0.000000 -0.368095
vn 0.707107 0.000000 -0.707107
vn 0.368095 0.000000 -0.929788
vn 0.000000 0.000000 -1.000000
vn -0.368095 0.000000 -0.929788
vn -0.707107 0.000000 -0.707107
vn -0.929788 0.000000 -0.368095
vn 1.000000 0.000000 0.000000
vn 1.000000 0.000000 0.000000
vn 1.000000 0.000000 0.000000
vn 1.000000 0.000000 0.000000
vn 1.000000 0.000000 0.000000
vn 1.000000 0.000000 0.000000
vn -1.000000 0.000000 0.000000
vn 1.000000 0.000000 0.000000
vn 1.000000 0.000000 0.000000
vn 0.923877 -0.000000 0.382690
vn 0.707107 -0.000000 0.707107
vn 0.382690 -0.000000 0.923877
vn 0.000000 -0.000000 1.000000
vn -0.382690 -0.000000 0.923877
vn -0.707107 -0.000000 0.707107
vn -0.923877 -0.000000 0.382690
vn -0.923877 -0.000000 0.382690
vn -0.707107 -0.000000 0.707107
vn -0.382690 -0.000000 0.923877
vn 0.000000 -0.000000 1.000000
vn 0.382690 -0.000000 0.923877
vn 0.707107 -0.000000 0.707107
vn 0.923877 -0.000000 0.382690
vn -1.000000 0.000000 0.000000
vn -1.000000 0.000000 0.000000
vn -1.000000 0.000000 0.000000
vn -1.000000 0.000000 0.000000
vn -1.000000 0.000000 0.000000
vn -1.000000 0.000000 0.000000
vn -1.000000 0.000000 0.000000
vn 0.000000 0.000000 -1.000000
vn 0.000000 0.000000 -1.000000
vn -1.000000 0.000000 0.000000
vn -0.368095 0.000000 -0.929788
vn -0.707107 0.000000 -0.707107
vn -0.929788 0.000000 -0.368095
vn -1.000000 0.000000 0.000000
vn -0.929788 -0.000000 0.368095
vn -0.707107 -0.000000 0.707107
vn -0.368095 -0.000000 0.929788
vn 0.000000 -0.000000 1.000000
vn -0.368095 -0.000000 0.929788
vn -0.707107 -0.000000 0.707107
vn -0.929788 -0.000000 0.368095
vn -0.929788 0.000000 -0.368095
vn -0.707107 0.000000 -0.707107
vn -0.368095 0.000000 -0.929788
vn 0.000000 -0.000000 1.000000
vn 0.000000 -0.000000 1.000000
vn 0.000000 -0.000000 1.000000
vn 0.000000 -0.000000 1.000000
vn 0.000000 -0.000000 1.000000
vn 0.000000 -0.000000 1.000000
vn 0.000000 -0.000000 1.000000
vn 0.000000 -0.000000 1.000000
vn 0.000000 -0.000000 1.000000
vn 0.000000 0.000000 -1.000000
vn 0.000000 -0.000000 1.000000
vn 0.000000 -0.000000 1.000000
vn 0.382690 -0.000000 0.923877
vn 0.707107 -0.000000 0.707107
vn 0.923877 -0.000000 0.382690
vn 1.000000 0.000000 0.000000
vn 0.923877 0.000000 -0.382690
vn 0.707107 0.000000 -0.707107
vn 0.382690 0.000000 -0.923877
vn 0.382690 0.000000 -0.923877
vn 0.707107 0.000000 -0.707107
vn 0.923877 0.000000 -0.382690
vn 1.000000 0.000000 0.000000
vn 0.923877 -0.000000 0.382690
vn 0.707107 -0.000000 0.707107
vn 0.382690 -0.000000 0.923877
vn 0.000100 0.000000 -1.000000
vn 0.000000 0.000000 -1.000000
vn 0.000000 0.000000 -1.000000
vn 0.000000 0.000000 -1.000000
vn 0.000000 0.000000 -1.000000
vn 0.000000 0.000000 -1.000000
vn 0.000000 0.000000 -1.000000
vn -0.983921 0.000000 -0.178604
vn -0.178604 0.000000 -0.983921
vn -0.178604 0.000000 -0.983921
vn -0.947658 0.000000 -0.319286
vn -0.889105 0.000000 -0.457703
vn -0.808368 0.000000 -0.588677
vn -0.707107 0.000000 -0.707107
vn -0.588677 0.000000 -0.808368
vn -0.457703 0.000000 -0.889105
vn -0.319286 0.000000 -0.947658
vn -0.319286 0.000000 -0.947658
vn -0.457703 0.000000 -0.889105
vn -0.588677 0.000000 -0.808368
vn -0.707107 0.000000 -0.707107
vn -0.808368 0.000000 -0.588677
vn -0.889105 0.000000 -0.457703
vn -0.947689 0.000000 -0.319196
vn -0.178604 0.000000 -0.983921
vn -0.983921 0.000000 -0.178604
vn -0.983921 0.000000 -0.178604
vn -0.178604 0.000000 -0.983921
vn -0.178604 0.000000 -0.983921
vn -0.983921 0.000000 -0.178604
vn -0.178604 0.000000 -0.983921
vn -0.983921 0.000000 -0.178604
vn -0.528209 0.000000 -0.849114
vn -0.821994 0.000000 -0.569496
vn -0.980585 0.000000 -0.196097
vn -0.983921 -0.000000 0.178604
vn -0.849114 -0.000000 0.528209
vn -0.569496 -0.000000 0.821994
vn -0.196097 -0.000000 0.980585
vn 0.178604 -0.000000 0.983921
vn 0.248907 -0.000000 0.968527
vn 0.319496 -0.000000 0.947588
vn 0.389304 -0.000000 0.921109
vn 0.457901 -0.000000 0.889003
vn 0.524315 -0.000000 0.851524
vn 0.588790 -0.000000 0.808286
vn 0.649803 -0.000000 0.760103
vn 0.707107 -0.000000 0.707107
vn 0.760103 -0.000000 0.649803
vn 0.808286 -0.000000 0.588790
vn 0.851363 -0.000000 0.524577
vn 0.889003 -0.000000 0.457902
vn 0.921319 -0.000000 0.388808
vn 0.947588 -0.000000 0.319496
vn 0.968527 -0.000000 0.248907
vn 0.983921 -0.000000 0.178604
vn 0.980585 0.000000 -0.196097
vn 0.821994 0.000000 -0.569496
vn 0.528209 0.000000 -0.849114
vn 0.178604 0.000000 -0.983921
vn -0.196097 0.000000 -0.980585
vn -0.569496 0.000000 -0.821994
vn -0.849114 0.000000 -0.528209
vn -0.983921 0.000000 -0.178604
vn -0.849114 0.000000 -0.528209
vn -0.569496 0.000000 -0.821994
vn -0.196097 0.000000 -0.980585
vn 0.178604 0.000000 -0.983921
vn 0.528209 0.000000 -0.849114
vn 0.821994 0.000000 -0.569496
vn 0.980585 0.000000 -0.196097
vn 0.983921 -0.000000 0.178604
vn 0.968527 -0.000000 0.248907
vn 0.947588 -0.000000 0.319496
vn 0.921319 -0.000000 0.388808
vn 0.889003 -0.000000 0.457902
vn 0.851363 -0.000000 0.524577
vn 0.808286 -0.000000 0.588790
vn 0.760103 -0.000000 0.649803
vn 0.707107 -0.000000 0.707107
vn 0.649803 -0.000000 0.760103
vn 0.588790 -0.000000 0.808286
vn 0.524315 -0.000000 0.851524
vn 0.457901 -0.000000 0.889003
vn 0.389304 -0.000000 0.921109
vn 0.319496 -0.000000 0.947588
vn 0.248907 -0.000000 0.968527
vn 0.178604 -0.000000 0.983921
vn -0.196097 -0.000000 0.980585
vn -0.569496 -0.000000 0.821994
vn -0.849114 -0.000000 0.528209
vn -0.983921 -0.000000 0.178604
vn -0.980585 0.000000 -0.196097
vn -0.821994 0.000000 -0.569496
vn -0.528209 0.000000 -0.849114
vn 0.000000 1.000000 0.000000
vn 0.000000 -1.000000 -0.000000
vn -1.000000 0.000000 0.000000
vn -1.000000 -0.000000 0.000100
vn -1.000000 0.000000 0.000000
vn -1.000000 0.000000 0.000000
vn -1.000000 0.000000 0.000000
vn 0.000000 -0.000000 1.000000
vn 0.000000 -0.000000 1.000000
vn 0.000000 -0.000000 1.000000
vn 0.000000 -0.000000 1.000000
vn 0.000000 -0.000000 1.000000
vn 0.000000 -0.000000 1.000000
vn 0.000000 -0.000100 1.000000
vn 0.000000 -0.000000 1.000000
vn -0.000100 0.000400 1.000000
f 57//57 27//27 26//26
f 56//56 27//27 57//57
f 2//2 57//57 26//26
f 55//55 29//29 28//28
f 28//28 56//56 55//55
f 27//27 56//56 28//28
f 3//3 2//2 25//25
f 26//26 25//25 2//2
f 58//58 3//3 1//1
f 25//25 1//1 3//3
f 1//1 59//59 58//58
f 16//16 60//60 1//1
f 1//1 60//60 59//59
f 61//61 60//60 16//16
f 54//54 29//29 55//55
f 30//30 54//54 53//53
f 31//31 53//53 52//52
f 31//31 52//52 32//32
f 33//33 32//32 51//51
f 32//32 52//52 51//51
f 30//30 53//53 31//31
f 30//30 29//29 54//54
f 63//63 62//62 119//119
f 62//62 16//16 119//119
f 16//16 62//62 61//61
f 119//119 64//64 63//63
f 4//4 33//33 5//5
f 51//51 5//5 33//33
f 64//64 119//119 4//4
f 33//33 4//4 119//119
f 119//119 16//16 15//15
f 94//94 93//93 17//17
f 92//92 17//17 93//93
f 24//24 94//94 17//17
f 90//90 15//15 91//91
f 92//92 91//91 15//15
f 90//90 89//89 15//15
f 17//17 92//92 15//15
f 96//96 95//95 24//24
f 94//94 24//24 95//95
f 97//97 96//96 23//23
f 24//24 23//23 96//96
f 98//98 23//23 99//99
f 100//100 99//99 22//22
f 99//99 23//23 22//22
f 97//97 23//23 98//98
f 34//34 89//89 88//88
f 35//35 88//88 87//87
f 87//87 86//86 35//35
f 85//85 36//36 86//86
f 35//35 86//86 36//36
f 34//34 88//88 35//35
f 34//34 15//15 89//89
f 101//101 22//22 102//102
f 103//103 102//102 21//21
f 102//102 22//22 21//21
f 100//100 22//22 101//101
f 85//85 84//84 37//37
f 21//21 104//104 103//103
f 20//20 104//104 21//21
f 37//37 36//36 85//85
f 34//34 119//119 15//15
f 84//84 83//83 38//38
f 82//82 38//38 83//83
f 39//39 82//82 81//81
f 38//38 82//82 39//39
f 40//40 39//39 81//81
f 41//41 40//40 80//80
f 20//20 107//107 106//106
f 20//20 106//106 105//105
f 40//40 81//81 80//80
f 118//118 117//117 42//42
f 118//118 41//41 79//79
f 80//80 79//79 41//41
f 42//42 41//41 118//118
f 104//104 20//20 105//105
f 117//117 11//11 42//42
f 43//43 120//120 9//9
f 9//9 120//120 72//72
f 71//71 43//43 8//8
f 45//45 44//44 70//70
f 71//71 44//44 43//43
f 9//9 8//8 43//43
f 73//73 120//120 74//74
f 120//120 10//10 74//74
f 42//42 10//10 120//120
f 72//72 120//120 73//73
f 71//71 70//70 44//44
f 69//69 46//46 45//45
f 69//69 45//45 70//70
f 69//69 68//68 46//46
f 116//116 11//11 117//117
f 19//19 107//107 20//20
f 19//19 108//108 107//107
f 109//109 108//108 19//19
f 12//12 11//11 114//114
f 10//10 42//42 11//11
f 11//11 115//115 114//114
f 115//115 11//11 116//116
f 18//18 111//111 110//110
f 110//110 19//19 18//18
f 18//18 112//112 111//111
f 109//109 19//19 110//110
f 12//12 113//113 112//112
f 114//114 113//113 12//12
f 18//18 12//12 112//112
f 14//14 76//76 10//10
f 14//14 77//77 76//76
f 10//10 76//76 75//75
f 48//48 68//68 67//67
f 74//74 10//10 75//75
f 67//67 66//66 49//49
f 47//47 68//68 48//48
f 14//14 6//6 78//78
f 65//65 7//7 13//13
f 6//6 13//13 7//7
f 14//14 13//13 6//6
f 66//66 50//50 49//49
f 66//66 65//65 50//50
f 13//13 50//50 65//65
f 67//67 49//49 48//48
f 14//14 78//78 77//77
f 46//46 68//68 47//47
f 84//84 38//38 37//37
f 177//177 144//144 145//145
f 176//176 177//177 145//145
f 122//122 144//144 177//177
f 175//175 146//146 147//147
f 146//146 175//175 176//176
f 145//145 146//146 176//176
f 123//123 143//143 122//122
f 144//144 122//122 143//143
f 178//178 121//121 123//123
f 143//143 123//123 121//121
f 121//121 178//178 179//179
f 134//134 121//121 180//180
f 121//121 179//179 180//180
f 181//181 134//134 180//180
f 174//174 175//175 147//147
f 148//148 173//173 174//174
f 149//149 172//172 173//173
f 149//149 150//150 172//172
f 151//151 171//171 150//150
f 150//150 171//171 172//172
f 148//148 149//149 173//173
f 148//148 174//174 147//147
f 183//183 239//239 182//182
f 182//182 239//239 134//134
f 134//134 181//181 182//182
f 239//239 183//183 184//184
f 124//124 125//125 151//151
f 171//171 151//151 125//125
f 184//184 124//124 239//239
f 151//151 239//239 124//124
f 239//239 133//133 134//134
f 214//214 170//170 213//213
f 212//212 213//213 170//170
f 142//142 170//170 214//214
f 210//210 211//211 133//133
f 212//212 133//133 211//211
f 210//210 133//133 209//209
f 170//170 133//133 212//212
f 216//216 142//142 215//215
f 214//214 215//215 142//142
f 217//217 141//141 216//216
f 142//142 216//216 141//141
f 218//218 219//219 141//141
f 220//220 140//140 219//219
f 219//219 140//140 141//141
f 217//217 218//218 141//141
f 152//152 208//208 209//209
f 153//153 207//207 208//208
f 207//207 153//153 206//206
f 205//205 206//206 154//154
f 153//153 154//154 206//206
f 152//152 153//153 208//208
f 152//152 209//209 133//133
f 221//221 222//222 140//140
f 223//223 139//139 222//222
f 222//222 139//139 140//140
f 220//220 221//221 140//140
f 205//205 155//155 204//204
f 139//139 223//223 224//224
f 138//138 139//139 224//224
f 155//155 205//205 154//154
f 152//152 133//133 239//239
f 204//204 156//156 203//203
f 202//202 203//203 156//156
f 157//157 201//201 202//202
f 156//156 157//157 202//202
f 158//158 201//201 157//157
f 159//159 200//200 158//158
f 138//138 226//226 227//227
f 138//138 225//225 226//226
f 158//158 200//200 201//201
f 238//238 160//160 237//237
f 238//238 199//199 159//159
f 200//200 159//159 199//199
f 160//160 238//238 159//159
f 224//224 225//225 138//138
f 237//237 160//160 131//131
f 161//161 129//129 240//240
f 129//129 192//192 240//240
f 191//191 128//128 161//161
f 163//163 190//190 162//162
f 191//191 161//161 162//162
f 129//129 161//161 128//128
f 193//193 194//194 240//240
f 240//240 194//194 130//130
f 160//160 240//240 130//130
f 192//192 193//193 240//240
f 191//191 162//162 190//190
f 189//189 163//163 164//164
f 189//189 190//190 163//163
f 189//189 164//164 188//188
f 236//236 237//237 131//131
f 137//137 138//138 227//227
f 137//137 227//227 228//228
f 229//229 137//137 228//228
f 135//135 234//234 131//131
f 130//130 131//131 160//160
f 131//131 234//234 235//235
f 235//235 236//236 131//131
f 136//136 230//230 231//231
f 230//230 136//136 137//137
f 136//136 231//231 232//232
f 229//229 230//230 137//137
f 135//135 232//232 233//233
f 234//234 135//135 233//233
f 136//136 232//232 135//135
f 169//169 130//130 196//196
f 169//169 196//196 197//197
f 130//130 195//195 196//196
f 166//166 187//187 188//188
f 194//194 195//195 130//130
f 187//187 167//167 186//186
f 165//165 166//166 188//188
f 169//169 198//198 126//126
f 185//185 132//132 127//127
f 126//126 127//127 132//132
f 169//169 126//126 132//132
f 186//186 167//167 168//168
f 186//186 168//168 185//185
f 132//132 185//185 168//168
f 187//187 166//166 167//167
f 169//169 197//197 198//198
f 164//164 165//165 188//188
f 204//204 155//155 156//156
f 241//241 242//242 255//255
f 241//241 255//255 256//256
f 243//243 244//244 253//253
f 243//243 253//253 254//254
f 242//242 243//243 254//254
f 242//242 254//254 255//255
f 244//244 245//245 252//252
f 244//244 252//252 253//253
f 246//246 247//247 250//250
f 246//246 250//250 251//251
f 247//247 248//248 249//249
f 247//247 249//249 250//250
f 251//251 252//252 245//245
f 251//251 245//245 246//246
f 261//261 257//257 258//258
f 261//261 258//258 260//260
f 261//261 260//260 259//259
f 267//267 262//262 268//268
f 269//269 270//270 278//278
f 269//269 278//278 279//279
f 269//269 279//279 280//280
f 269//269 280//280 268//268
f 280//280 266//266 267//267
f 268//268 280//280 267//267
f 270//270 263//263 277//277
f 270//270 277//277 278//278
f 263//263 271//271 276//276
f 263//263 276//276 277//277
f 272//272 273//273 274//274
f 272//272 274//274 275//275
f 273//273 264//264 265//265
f 273//273 265//265 274//274
f 271//271 272//272 275//275
f 271//271 275//275 276//276
f 282//282 281//281 284//284
f 282//282 284//284 286//286
f 283//283 285//285 286//286
f 283//283 286//286 284//284
f 287//287 291//291 304//304
f 287//287 304//304 290//290
f 292//292 293//293 302//302
f 292//292 302//302 303//303
f 291//291 292//292 303//303
f 291//291 303//303 304//304
f 293//293 294//294 301//301
f 293//293 301//301 302//302
f 295//295 296//296 299//299
f 295//295 299//299 300//300
f 297//297 288//288 289//289
f 297//297 289//289 298//298
f 296//296 297//297 298//298
f 296//296 298//298 299//299
f 300//300 301//301 294//294
f 300//300 294//294 295//295
f 305//305 308//308 310//310
f 305//305 310//310 306//306
f 309//309 310//310 308//308
f 309//309 308//308 307//307
f 311//311 317//317 328//328
f 311//311 328//328 312//312
f 319//319 326//326 327//327
f 319//319 327//327 318//318
f 317//317 318//318 327//327
f 317//317 327//327 328//328
f 313//313 314//314 326//326
f 313//313 326//326 319//319
f 320//320 321//321 324//324
f 320//320 324//324 325//325
f 322//322 315//315 316//316
f 322//322 316//316 323//323
f 321//321 322//322 323//323
f 321//321 323//323 324//324
f 325//325 314//314 313//313
f 325//325 313//313 320//320
f 330//330 329//329 331//331
f 330//330 331//331 332//332
f 333//333 335//335 334//334
f 333//333 334//334 336//336
f 338//338 340//340 339//339
f 338//338 339//339 337//337
f 342//342 343//343 344//344
f 342//342 344//344 341//341
f 346//346 348//348 347//347
f 346//346 347//347 345//345
f 349//349 351//351 350//350
f 349//349 350//350 352//352
f 353//353 357//357 370//370
f 353//353 370//370 354//354
f 358//358 359//359 368//368
f 358//358 368//368 369//369
f 357//357 358//358 369//369
f 357//357 369//369 370//370
f 367//367 368//368 359//359
f 367//367 359//359 355//355
f 366//366 367//367 355//355
f 366//366 355//355 360//360
f 361//361 362//362 364//364
f 361//361 364//364 365//365
f 360//360 361//361 365//365
f 360//360 365//365 366//366
f 363//363 364//364 362//362
f 363//363 362//362 356//356
f 371//371 373//373 375//375
f 371//371 375//375 374//374
f 373//373 372//372 375//375
f 379//379 376//376 380//380
f 381//381 382//382 391//391
f 381//381 391//391 392//392
f 390//390 391//391 382//382
f 390//390 382//382 383//383
f 380//380 381//381 392//392
f 380//380 392//392 393//393
f 393//393 378//378 379//379
f 380//380 393//393 379//379
f 384//384 385//385 388//388
f 384//384 388//388 389//389
f 395//395 386//386 394//394
f 386//386 387//387 388//388
f 386//386 388//388 385//385
f 386//386 395//395 387//387
f 389//389 390//390 383//383
f 389//389 383//383 384//384
f 395//395 377//377 387//387
f 397//397 400//400 398//398
f 396//396 400//400 399//399
f 397//397 399//399 400//400
f 404//404 401//401 402//402
f 404//404 402//402 417//417
f 405//405 416//416 415//415
f 405//405 415//415 406//406
f 404//404 417//417 416//416
f 404//404 416//416 405//405
f 406//406 415//415 403//403
f 406//406 403//403 407//407
f 408//408 414//414 413//413
f 408//408 413//413 409//409
f 419//419 418//418 410//410
f 409//409 413//413 412//412
f 409//409 412//412 410//410
f 410//410 412//412 419//419
f 414//414 408//408 407//407
f 414//414 407//407 403//403
f 419//419 412//412 411//411
f 424//424 425//425 421//421
f 424//424 421//421 422//422
f 420//420 423//423 425//425
f 420//420 425//425 424//424
f 429//429 430//430 426//426
f 431//431 442//442 441//441
f 431//431 441//441 432//432
f 440//440 433//433 432//432
f 440//440 432//432 441//441
f 430//430 443//443 442//442
f 430//430 442//442 431//431
f 443//443 429//429 428//428
f 430//430 429//429 443//443
f 434//434 439//439 438//438
f 434//434 438//438 435//435
f 445//445 444//444 436//436
f 436//436 435//435 438//438
f 436//436 438//438 437//437
f 437//437 427//427 445//445
f 437//437 445//445 436//436
f 439//439 434//434 433//433
f 439//439 433//433 440//440
f 447//447 448//448 450//450
f 446//446 449//449 450//450
f 447//447 450//450 449//449
f 470//470 454//454 451//451
f 455//455 466//466 465//465
f 455//455 465//465 456//456
f 465//465 464//464 457//457
f 465//465 457//457 456//456
f 454//454 467//467 466//466
f 454//454 466//466 455//455
f 467//467 470//470 469//469
f 454//454 470//470 467//467
f 458//458 463//463 462//462
f 458//458 462//462 459//459
f 468//468 452//452 460//460
f 459//459 462//462 461//461
f 459//459 461//461 460//460
f 460//460 461//461 468//468
f 463//463 458//458 457//457
f 463//463 457//457 464//464
f 468//468 461//461 453//453
f 474//474 476//476 471//471
f 477//477 537//537 536//536
f 477//477 536//536 478//478
f 476//476 538//538 537//537
f 476//476 537//537 477//477
f 480//480 479//479 535//535
f 480//480 535//535 534//534
f 481//481 533//533 532//532
f 481//481 532//532 482//482
f 480//480 534//534 533//533
f 480//480 533//533 481//481
f 479//479 478//478 536//536
f 479//479 536//536 535//535
f 483//483 531//531 530//530
f 483//483 530//530 484//484
f 485//485 529//529 528//528
f 485//485 528//528 486//486
f 484//484 530//530 529//529
f 484//484 529//529 485//485
f 487//487 527//527 526//526
f 487//487 526//526 488//488
f 489//489 525//525 524//524
f 489//489 524//524 490//490
f 523//523 491//491 490//490
f 523//523 490//490 524//524
f 488//488 526//526 525//525
f 488//488 525//525 489//489
f 486//486 528//528 527//527
f 486//486 527//527 487//487
f 483//483 482//482 532//532
f 483//483 532//532 531//531
f 538//538 474//474 472//472
f 476//476 474//474 538//538
f 492//492 522//522 521//521
f 492//492 521//521 493//493
f 494//494 520//520 519//519
f 494//494 519//519 495//495
f 493//493 521//521 520//520
f 493//493 520//520 494//494
f 496//496 518//518 517//517
f 496//496 517//517 497//497
f 498//498 516//516 515//515
f 498//498 515//515 499//499
f 497//497 517//517 516//516
f 497//497 516//516 498//498
f 496//496 495//495 519//519
f 496//496 519//519 518//518
f 500//500 514//514 513//513
f 500//500 513//513 501//501
f 503//503 502//502 512//512
f 503//503 512//512 511//511
f 501//501 513//513 512//512
f 501//501 512//512 502//502
f 504//504 510//510 509//509
f 504//504 509//509 505//505
f 475//475 473//473 506//506
f 505//505 509//509 508//508
f 505//505 508//508 506//506
f 503//503 511//511 510//510
f 503//503 510//510 504//504
f 500//500 499//499 515//515
f 500//500 515//515 514//514
f 506//506 508//508 475//475
f 492//492 491//491 523//523
f 492//492 523//523 522//522
f 475//475 508//508 507//507
f 539//539 540//540 545//545
f 540//540 541//541 545//545
f 542//542 543//543 544//544
f 546//546 548//548 547//547
f 549//549 551//551 550//550
f 552//552 554//554 553//553
