# joint_12 exported from /models/guards/joint_12.glb
# units: meters
v -0.001597 0.001000 0.029277
v -0.003019 0.001000 0.028712
v -0.002335 0.001000 0.029147
v -0.003626 0.001000 0.027307
v 0.007818 0.001000 0.022829
v 0.006913 0.001000 0.029149
v 0.007913 0.001000 0.029134
v 0.010022 0.001000 0.022796
v 0.008826 0.001000 0.016507
v 0.002418 0.001000 0.016603
v 0.002622 0.001000 0.016600
v 0.004028 0.001000 0.015993
v 0.003356 0.001000 0.016448
v 0.004463 0.001000 0.015308
v 0.004592 0.001000 0.014570
v 0.004463 0.001000 0.005959
v 0.008493 0.001000 -0.005715
v 0.004312 0.001000 0.005225
v 0.003856 0.001000 0.004553
v 0.003172 0.001000 0.004118
v 0.002434 0.001000 0.003989
v 0.002229 0.001000 0.003992
v -0.004070 0.001000 -0.002323
v 0.005449 0.001000 -0.008670
v -0.004221 0.001000 -0.003057
v -0.004067 0.001000 -0.002119
v 0.001495 0.001000 0.004143
v -0.004196 0.001000 -0.001380
v 0.000824 0.001000 0.004599
v -0.004631 0.001000 -0.000696
v -0.004839 0.001000 0.004977
v -0.005303 0.001000 -0.000240
v -0.005866 0.001000 0.004324
v -0.006037 0.001000 -0.000089
v -0.006974 0.001000 0.004130
v -0.014648 0.001000 0.000040
v -0.015386 0.001000 -0.000089
v -0.027196 0.001000 0.004433
v -0.029226 0.001000 0.002463
v -0.028619 0.001000 0.003868
v -0.027934 0.001000 0.004303
v -0.016071 0.001000 -0.000524
v -0.016526 0.001000 -0.001196
v -0.016678 0.001000 -0.001930
v -0.023063 0.001000 -0.007141
v -0.016774 0.001000 -0.008337
v -0.023096 0.001000 -0.009345
v -0.029353 0.001000 -0.006047
v -0.029368 0.001000 -0.007047
v -0.016681 0.001000 -0.002134
v -0.016551 0.001000 -0.002872
v -0.016116 0.001000 -0.003557
v -0.015445 0.001000 -0.004012
v -0.014711 0.001000 -0.004164
v -0.006100 0.001000 -0.004293
v -0.005361 0.001000 -0.004163
v -0.004677 0.001000 -0.003728
v -0.029416 0.001000 -0.010250
v -0.029401 0.001000 -0.009250
v -0.024018 0.001000 -0.014946
v -0.023280 0.001000 -0.014816
v -0.023075 0.001000 -0.014819
v -0.022341 0.001000 -0.014971
v -0.021670 0.001000 -0.015426
v -0.021235 0.001000 -0.016111
v -0.021106 0.001000 -0.016849
v -0.017334 0.001000 -0.045772
v -0.021446 0.001000 -0.039565
v -0.021597 0.001000 -0.040299
v -0.022053 0.001000 -0.040970
v -0.022737 0.001000 -0.041405
v -0.018077 0.001000 -0.047298
v -0.023475 0.001000 -0.041534
v -0.023680 0.001000 -0.041531
v -0.028456 0.001000 -0.055687
v -0.024414 0.001000 -0.041380
v -0.030084 0.001000 -0.054894
v -0.025085 0.001000 -0.040924
v -0.025520 0.001000 -0.040240
v -0.025649 0.001000 -0.039502
v -0.025309 0.001000 -0.016786
v -0.025158 0.001000 -0.016052
v -0.024702 0.001000 -0.015381
v -0.029522 0.001000 -0.055808
v -0.029779 0.001000 -0.055628
v -0.029961 0.001000 -0.055391
v -0.029222 0.001000 -0.055900
v -0.028923 0.001000 -0.055896
v -0.017536 0.001000 -0.046617
v -0.029074 0.001000 0.003197
v -0.004156 0.001000 0.005983
v 0.000389 0.001000 0.005283
v 0.000260 0.001000 0.006022
v -0.003929 0.001000 0.007084
v 0.000389 0.001000 0.014633
v 0.000540 0.001000 0.015367
v 0.000995 0.001000 0.016038
v 0.001680 0.001000 0.016473
v 0.007583 0.001000 -0.007823
v 0.006556 0.001000 -0.008476
v 0.008266 0.001000 -0.006816
v 0.046261 0.001000 0.015946
v 0.016058 0.001000 0.021189
v 0.017463 0.001000 0.020582
v 0.016729 0.001000 0.020734
v 0.040033 0.001000 0.020244
v 0.040771 0.001000 0.020374
v 0.041456 0.001000 0.020809
v 0.041911 0.001000 0.021480
v 0.047808 0.001000 0.016643
v 0.042062 0.001000 0.022214
v 0.042065 0.001000 0.022418
v 0.041936 0.001000 0.023156
v 0.056504 0.001000 0.026766
v 0.055760 0.001000 0.028418
v 0.056657 0.001000 0.027829
v 0.056740 0.001000 0.027526
v 0.056727 0.001000 0.027227
v 0.056485 0.001000 0.028091
v 0.056253 0.001000 0.028280
v 0.011116 0.001000 0.029086
v 0.040096 0.001000 0.024448
v 0.040830 0.001000 0.024296
v 0.041501 0.001000 0.023841
v 0.017526 0.001000 0.024786
v 0.016788 0.001000 0.024656
v 0.016103 0.001000 0.024221
v 0.015648 0.001000 0.023550
v 0.015497 0.001000 0.022816
v 0.015494 0.001000 0.022612
v 0.015623 0.001000 0.021874
v 0.010117 0.001000 0.029101
v 0.047112 0.001000 0.016123
v -0.003475 0.001000 0.028041
v -0.023680 0.001000 -0.041531
v -0.023475 0.001000 -0.041534
v -0.023680 -0.001000 -0.041531
v -0.023475 -0.001000 -0.041534
v -0.025649 0.001000 -0.039502
v -0.025309 0.001000 -0.016786
v -0.025649 -0.001000 -0.039502
v -0.025309 -0.001000 -0.016786
v -0.023280 0.001000 -0.014816
v -0.023075 0.001000 -0.014819
v -0.023280 -0.001000 -0.014816
v -0.023075 -0.001000 -0.014819
v -0.021446 0.001000 -0.039565
v -0.021106 0.001000 -0.016849
v -0.021446 -0.001000 -0.039565
v -0.021106 -0.001000 -0.016849
v -0.025649 -0.001000 -0.039502
v -0.025520 -0.001000 -0.040240
v -0.025649 0.001000 -0.039502
v -0.025520 0.001000 -0.040240
v -0.025085 0.001000 -0.040924
v -0.024414 0.001000 -0.041380
v -0.025085 -0.001000 -0.040924
v -0.024414 -0.001000 -0.041380
v -0.023680 -0.001000 -0.041531
v -0.023680 0.001000 -0.041531
v -0.023280 -0.001000 -0.014816
v -0.024018 -0.001000 -0.014946
v -0.023280 0.001000 -0.014816
v -0.024018 0.001000 -0.014946
v -0.024702 0.001000 -0.015381
v -0.025158 0.001000 -0.016052
v -0.024702 -0.001000 -0.015381
v -0.025158 -0.001000 -0.016052
v -0.025309 -0.001000 -0.016786
v -0.025309 0.001000 -0.016786
v -0.021106 -0.001000 -0.016849
v -0.021235 -0.001000 -0.016111
v -0.021106 0.001000 -0.016849
v -0.021235 0.001000 -0.016111
v -0.021670 0.001000 -0.015426
v -0.022341 0.001000 -0.014971
v -0.021670 -0.001000 -0.015426
v -0.022341 -0.001000 -0.014971
v -0.023075 -0.001000 -0.014819
v -0.023075 0.001000 -0.014819
v -0.023475 -0.001000 -0.041534
v -0.022737 -0.001000 -0.041405
v -0.023475 0.001000 -0.041534
v -0.022737 0.001000 -0.041405
v -0.022053 0.001000 -0.040970
v -0.021597 0.001000 -0.040299
v -0.022053 -0.001000 -0.040970
v -0.021597 -0.001000 -0.040299
v -0.021446 -0.001000 -0.039565
v -0.021446 0.001000 -0.039565
v -0.004070 0.001000 -0.002323
v -0.004067 0.001000 -0.002119
v -0.004070 -0.001000 -0.002323
v -0.004067 -0.001000 -0.002119
v -0.006100 0.001000 -0.004293
v -0.014711 0.001000 -0.004164
v -0.006100 -0.001000 -0.004293
v -0.014711 -0.001000 -0.004164
v -0.016681 -0.001000 -0.002134
v -0.016678 -0.001000 -0.001930
v -0.016681 0.001000 -0.002134
v -0.016678 0.001000 -0.001930
v -0.014648 0.001000 0.000040
v -0.006037 0.001000 -0.000089
v -0.014648 -0.001000 0.000040
v -0.006037 -0.001000 -0.000089
v -0.006100 -0.001000 -0.004293
v -0.005361 -0.001000 -0.004163
v -0.006100 0.001000 -0.004293
v -0.005361 0.001000 -0.004163
v -0.004677 0.001000 -0.003728
v -0.004221 0.001000 -0.003057
v -0.004677 -0.001000 -0.003728
v -0.004221 -0.001000 -0.003057
v -0.004070 -0.001000 -0.002323
v -0.004070 0.001000 -0.002323
v -0.016681 -0.001000 -0.002134
v -0.016551 -0.001000 -0.002872
v -0.016681 0.001000 -0.002134
v -0.016551 0.001000 -0.002872
v -0.016116 0.001000 -0.003557
v -0.015445 0.001000 -0.004012
v -0.016116 -0.001000 -0.003557
v -0.015445 -0.001000 -0.004012
v -0.014711 -0.001000 -0.004164
v -0.014711 0.001000 -0.004164
v -0.014648 -0.001000 0.000040
v -0.015386 -0.001000 -0.000089
v -0.014648 0.001000 0.000040
v -0.015386 0.001000 -0.000089
v -0.016071 0.001000 -0.000524
v -0.016526 0.001000 -0.001196
v -0.016071 -0.001000 -0.000524
v -0.016526 -0.001000 -0.001196
v -0.016678 -0.001000 -0.001930
v -0.016678 0.001000 -0.001930
v -0.004067 -0.001000 -0.002119
v -0.004196 -0.001000 -0.001380
v -0.004067 0.001000 -0.002119
v -0.004196 0.001000 -0.001380
v -0.004631 0.001000 -0.000696
v -0.005303 0.001000 -0.000240
v -0.004631 -0.001000 -0.000696
v -0.005303 -0.001000 -0.000240
v -0.006037 -0.001000 -0.000089
v -0.006037 0.001000 -0.000089
v 0.002622 0.001000 0.016600
v 0.002418 0.001000 0.016603
v 0.002622 -0.001000 0.016600
v 0.002418 -0.001000 0.016603
v 0.000260 0.001000 0.006022
v 0.000260 -0.001000 0.006022
v 0.000389 0.001000 0.014633
v 0.000389 -0.001000 0.014633
v 0.002229 0.001000 0.003992
v 0.002434 0.001000 0.003989
v 0.002229 -0.001000 0.003992
v 0.002434 -0.001000 0.003989
v 0.004463 0.001000 0.005959
v 0.004592 0.001000 0.014570
v 0.004463 -0.001000 0.005959
v 0.004592 -0.001000 0.014570
v 0.000389 0.001000 0.014633
v 0.000540 0.001000 0.015367
v 0.000389 -0.001000 0.014633
v 0.000540 -0.001000 0.015367
v 0.000995 -0.001000 0.016038
v 0.000995 0.001000 0.016038
v 0.001680 -0.001000 0.016473
v 0.002418 -0.001000 0.016603
v 0.001680 0.001000 0.016473
v 0.002418 0.001000 0.016603
v 0.002229 0.001000 0.003992
v 0.001495 0.001000 0.004143
v 0.002229 -0.001000 0.003992
v 0.001495 -0.001000 0.004143
v 0.000824 -0.001000 0.004599
v 0.000824 0.001000 0.004599
v 0.000389 -0.001000 0.005283
v 0.000260 -0.001000 0.006022
v 0.000389 0.001000 0.005283
v 0.000260 0.001000 0.006022
v 0.004463 0.001000 0.005959
v 0.004312 0.001000 0.005225
v 0.004463 -0.001000 0.005959
v 0.004312 -0.001000 0.005225
v 0.003856 -0.001000 0.004553
v 0.003856 0.001000 0.004553
v 0.003172 -0.001000 0.004118
v 0.002434 -0.001000 0.003989
v 0.003172 0.001000 0.004118
v 0.002434 0.001000 0.003989
v 0.002622 0.001000 0.016600
v 0.003356 0.001000 0.016448
v 0.002622 -0.001000 0.016600
v 0.003356 -0.001000 0.016448
v 0.004028 -0.001000 0.015993
v 0.004463 -0.001000 0.015308
v 0.004028 0.001000 0.015993
v 0.004463 0.001000 0.015308
v 0.004592 0.001000 0.014570
v 0.004592 -0.001000 0.014570
v 0.042062 0.001000 0.022214
v 0.042065 0.001000 0.022418
v 0.042062 -0.001000 0.022214
v 0.042065 -0.001000 0.022418
v 0.040033 0.001000 0.020244
v 0.017463 0.001000 0.020582
v 0.040033 -0.001000 0.020244
v 0.017463 -0.001000 0.020582
v 0.040033 -0.001000 0.020244
v 0.040771 -0.001000 0.020374
v 0.040033 0.001000 0.020244
v 0.040771 0.001000 0.020374
v 0.041456 0.001000 0.020809
v 0.041911 0.001000 0.021480
v 0.041456 -0.001000 0.020809
v 0.041911 -0.001000 0.021480
v 0.042062 -0.001000 0.022214
v 0.042062 0.001000 0.022214
v 0.042065 -0.001000 0.022418
v 0.041936 -0.001000 0.023156
v 0.042065 0.001000 0.022418
v 0.041936 0.001000 0.023156
v 0.041501 0.001000 0.023841
v 0.040830 0.001000 0.024296
v 0.041501 -0.001000 0.023841
v 0.040830 -0.001000 0.024296
v 0.040096 -0.001000 0.024448
v 0.040096 0.001000 0.024448
v 0.015494 0.001000 0.022612
v 0.015497 0.001000 0.022816
v 0.015494 -0.001000 0.022612
v 0.015497 -0.001000 0.022816
v 0.017526 0.001000 0.024786
v 0.040096 0.001000 0.024448
v 0.017526 -0.001000 0.024786
v 0.040096 -0.001000 0.024448
v 0.015494 -0.001000 0.022612
v 0.015623 -0.001000 0.021874
v 0.015494 0.001000 0.022612
v 0.015623 0.001000 0.021874
v 0.016058 0.001000 0.021189
v 0.016729 0.001000 0.020734
v 0.016058 -0.001000 0.021189
v 0.016729 -0.001000 0.020734
v 0.017463 -0.001000 0.020582
v 0.017463 0.001000 0.020582
v 0.017526 -0.001000 0.024786
v 0.016788 -0.001000 0.024656
v 0.017526 0.001000 0.024786
v 0.016788 0.001000 0.024656
v 0.016103 0.001000 0.024221
v 0.015648 0.001000 0.023550
v 0.016103 -0.001000 0.024221
v 0.015648 -0.001000 0.023550
v 0.015497 -0.001000 0.022816
v 0.015497 0.001000 0.022816
v -0.027196 -0.001000 0.004433
v -0.022140 -0.000000 0.004357
v -0.022140 -0.001000 0.004357
v -0.027196 0.001000 0.004433
v -0.022140 0.001000 0.004357
v -0.017085 0.001000 0.004281
v -0.017085 -0.000000 0.004281
v -0.012029 0.001000 0.004205
v -0.012029 -0.000000 0.004205
v -0.006974 0.001000 0.004130
v -0.006974 -0.001000 0.004130
v -0.012029 -0.001000 0.004205
v -0.017085 -0.001000 0.004281
v -0.001597 -0.001000 0.029277
v 0.003158 -0.001000 0.029205
v -0.001597 0.001000 0.029277
v 0.003158 0.001000 0.029205
v 0.007913 0.001000 0.029134
v 0.007913 -0.001000 0.029134
v 0.007913 -0.001000 0.029134
v 0.007818 -0.001000 0.022829
v 0.007913 0.001000 0.029134
v 0.007818 0.001000 0.022829
v 0.007818 -0.001000 0.022829
v 0.010022 -0.001000 0.022796
v 0.007818 0.001000 0.022829
v 0.010022 0.001000 0.022796
v 0.010022 -0.001000 0.022796
v 0.010117 -0.001000 0.029101
v 0.010022 0.001000 0.022796
v 0.010117 0.001000 0.029101
v 0.046261 -0.001000 0.015946
v 0.008826 -0.001000 0.016507
v 0.046261 0.001000 0.015946
v 0.008826 0.001000 0.016507
v -0.016774 -0.001000 -0.008337
v 0.005449 -0.001000 -0.008670
v -0.016774 0.001000 -0.008337
v 0.005449 0.001000 -0.008670
v -0.030084 -0.001000 -0.054894
v -0.029999 0.000000 -0.049189
v -0.029999 -0.001000 -0.049189
v -0.030084 0.001000 -0.054894
v -0.029999 0.001000 -0.049189
v -0.029914 0.001000 -0.043483
v -0.029914 0.000000 -0.043483
v -0.029743 0.001000 -0.032072
v -0.029572 0.001000 -0.020661
v -0.029572 0.000000 -0.020661
v -0.029743 -0.001000 -0.032072
v -0.029914 -0.001000 -0.043483
v -0.029572 -0.001000 -0.020661
v -0.029478 -0.001000 -0.014405
v -0.029478 0.000000 -0.014405
v -0.029401 -0.001000 -0.009250
v -0.029401 0.001000 -0.009250
v -0.029478 0.001000 -0.014405
v -0.029401 -0.001000 -0.009250
v -0.023096 -0.001000 -0.009345
v -0.029401 0.001000 -0.009250
v -0.023096 0.001000 -0.009345
v -0.023096 -0.001000 -0.009345
v -0.023063 -0.001000 -0.007141
v -0.023096 0.001000 -0.009345
v -0.023063 0.001000 -0.007141
v -0.023063 -0.001000 -0.007141
v -0.029368 -0.001000 -0.007047
v -0.023063 0.001000 -0.007141
v -0.029368 0.001000 -0.007047
v -0.003929 0.001000 0.007084
v -0.004156 0.001000 0.005983
v -0.003929 -0.001000 0.007084
v -0.004156 -0.001000 0.005983
v -0.004839 -0.001000 0.004977
v -0.005866 -0.001000 0.004324
v -0.004839 0.001000 0.004977
v -0.005866 0.001000 0.004324
v -0.006974 0.001000 0.004130
v -0.006974 -0.001000 0.004130
v 0.008826 -0.001000 0.016507
v 0.008493 -0.001000 -0.005715
v 0.008826 0.001000 0.016507
v 0.008493 0.001000 -0.005715
v 0.005449 -0.001000 -0.008670
v 0.006556 -0.001000 -0.008476
v 0.005449 0.001000 -0.008670
v 0.006556 0.001000 -0.008476
v 0.007583 0.001000 -0.007823
v 0.007583 -0.001000 -0.007823
v 0.008266 0.001000 -0.006816
v 0.008493 0.001000 -0.005715
v 0.008266 -0.001000 -0.006816
v 0.008493 -0.001000 -0.005715
v -0.028456 -0.001000 -0.055687
v -0.018077 -0.001000 -0.047298
v -0.028456 0.001000 -0.055687
v -0.018077 0.001000 -0.047298
v -0.030084 -0.001000 -0.054894
v -0.029961 -0.001000 -0.055391
v -0.030084 0.001000 -0.054894
v -0.029961 0.001000 -0.055391
v -0.029779 0.001000 -0.055628
v -0.029779 -0.001000 -0.055628
v -0.029522 0.001000 -0.055808
v -0.029522 -0.001000 -0.055808
v -0.029222 0.001000 -0.055900
v -0.029222 -0.001000 -0.055900
v -0.028923 0.001000 -0.055896
v -0.028923 -0.001000 -0.055896
v -0.028456 0.001000 -0.055687
v -0.028456 -0.001000 -0.055687
v 0.010117 -0.001000 0.029101
v 0.015271 -0.000000 0.029024
v 0.015271 -0.001000 0.029024
v 0.010117 0.001000 0.029101
v 0.015271 0.001000 0.029024
v 0.021527 0.001000 0.028930
v 0.021527 -0.000000 0.028930
v 0.032938 0.001000 0.028760
v 0.044349 0.001000 0.028589
v 0.044349 -0.000000 0.028589
v 0.032938 -0.001000 0.028760
v 0.021527 -0.001000 0.028930
v 0.044349 -0.001000 0.028589
v 0.050055 -0.001000 0.028503
v 0.050055 -0.000000 0.028503
v 0.055760 -0.001000 0.028418
v 0.055760 0.001000 0.028418
v 0.050055 0.001000 0.028503
v 0.056504 -0.001000 0.026766
v 0.056727 -0.001000 0.027227
v 0.056504 0.001000 0.026766
v 0.056727 0.001000 0.027227
v 0.056740 0.001000 0.027526
v 0.056740 -0.001000 0.027526
v 0.056657 0.001000 0.027829
v 0.056657 -0.001000 0.027829
v 0.056485 0.001000 0.028091
v 0.056485 -0.001000 0.028091
v 0.056253 0.001000 0.028280
v 0.056253 -0.001000 0.028280
v 0.055760 0.001000 0.028418
v 0.055760 -0.001000 0.028418
v 0.056504 -0.001000 0.026766
v 0.047808 -0.001000 0.016643
v 0.056504 0.001000 0.026766
v 0.047808 0.001000 0.016643
v 0.046261 -0.001000 0.015946
v 0.047112 -0.001000 0.016123
v 0.046261 0.001000 0.015946
v 0.047112 0.001000 0.016123
v 0.047808 0.001000 0.016643
v 0.047808 -0.001000 0.016643
v -0.016774 -0.001000 -0.008337
v -0.017334 -0.001000 -0.045772
v -0.016774 0.001000 -0.008337
v -0.017334 0.001000 -0.045772
v -0.018077 -0.001000 -0.047298
v -0.017536 -0.001000 -0.046617
v -0.018077 0.001000 -0.047298
v -0.017536 0.001000 -0.046617
v -0.017334 0.001000 -0.045772
v -0.017334 -0.001000 -0.045772
v -0.029368 -0.001000 -0.007047
v -0.029297 -0.001000 -0.002292
v -0.029368 0.001000 -0.007047
v -0.029297 0.001000 -0.002292
v -0.029226 0.001000 0.002463
v -0.029226 -0.001000 0.002463
v -0.027196 -0.001000 0.004433
v -0.027934 -0.001000 0.004303
v -0.027196 0.001000 0.004433
v -0.027934 0.001000 0.004303
v -0.028619 0.001000 0.003868
v -0.028619 -0.001000 0.003868
v -0.029074 0.001000 0.003197
v -0.029074 -0.001000 0.003197
v -0.029226 0.001000 0.002463
v -0.029226 -0.001000 0.002463
v -0.003626 -0.001000 0.027307
v -0.003929 -0.001000 0.007084
v -0.003626 0.001000 0.027307
v -0.003929 0.001000 0.007084
v -0.001597 -0.001000 0.029277
v -0.002335 -0.001000 0.029147
v -0.001597 0.001000 0.029277
v -0.002335 0.001000 0.029147
v -0.003019 0.001000 0.028712
v -0.003019 -0.001000 0.028712
v -0.003475 0.001000 0.028041
v -0.003475 -0.001000 0.028041
v -0.003626 0.001000 0.027307
v -0.003626 -0.001000 0.027307
v -0.003626 -0.001000 0.027307
v -0.003929 -0.001000 0.007084
v 0.000389 -0.001000 0.014633
v 0.000995 -0.001000 0.016038
v 0.001680 -0.001000 0.016473
v 0.000540 -0.001000 0.015367
v 0.002418 -0.001000 0.016603
v 0.007818 -0.001000 0.022829
v -0.003019 -0.001000 0.028712
v -0.003475 -0.001000 0.028041
v -0.001597 -0.001000 0.029277
v 0.006913 -0.001000 0.029149
v -0.002335 -0.001000 0.029147
v 0.007913 -0.001000 0.029134
v 0.010022 -0.001000 0.022796
v 0.002622 -0.001000 0.016600
v 0.003356 -0.001000 0.016448
v 0.004028 -0.001000 0.015993
v 0.008826 -0.001000 0.016507
v 0.008493 -0.001000 -0.005715
v 0.004592 -0.001000 0.014570
v 0.004463 -0.001000 0.005959
v 0.004463 -0.001000 0.015308
v 0.017463 -0.001000 0.020582
v 0.016729 -0.001000 0.020734
v 0.046261 -0.001000 0.015946
v 0.016058 -0.001000 0.021189
v 0.015623 -0.001000 0.021874
v 0.015494 -0.001000 0.022612
v 0.015497 -0.001000 0.022816
v 0.015648 -0.001000 0.023550
v 0.011116 -0.001000 0.029086
v 0.016103 -0.001000 0.024221
v 0.016788 -0.001000 0.024656
v 0.017526 -0.001000 0.024786
v 0.040096 -0.001000 0.024448
v 0.040830 -0.001000 0.024296
v 0.055760 -0.001000 0.028418
v 0.056504 -0.001000 0.026766
v 0.056657 -0.001000 0.027829
v 0.056485 -0.001000 0.028091
v 0.056253 -0.001000 0.028280
v 0.041501 -0.001000 0.023841
v 0.041936 -0.001000 0.023156
v 0.042065 -0.001000 0.022418
v 0.047808 -0.001000 0.016643
v 0.042062 -0.001000 0.022214
v 0.041911 -0.001000 0.021480
v 0.041456 -0.001000 0.020809
v 0.040771 -0.001000 0.020374
v 0.040033 -0.001000 0.020244
v 0.047112 -0.001000 0.016123
v 0.056740 -0.001000 0.027526
v 0.056727 -0.001000 0.027227
v 0.010117 -0.001000 0.029101
v 0.004312 -0.001000 0.005225
v 0.003856 -0.001000 0.004553
v 0.003172 -0.001000 0.004118
v 0.002434 -0.001000 0.003989
v -0.004070 -0.001000 -0.002323
v 0.002229 -0.001000 0.003992
v 0.001495 -0.001000 0.004143
v -0.004067 -0.001000 -0.002119
v -0.004196 -0.001000 -0.001380
v 0.000824 -0.001000 0.004599
v -0.004631 -0.001000 -0.000696
v -0.005303 -0.001000 -0.000240
v -0.004839 -0.001000 0.004977
v -0.004156 -0.001000 0.005983
v 0.000389 -0.001000 0.005283
v -0.005866 -0.001000 0.004324
v -0.006037 -0.001000 -0.000089
v -0.006974 -0.001000 0.004130
v -0.014648 -0.001000 0.000040
v -0.027196 -0.001000 0.004433
v -0.028619 -0.001000 0.003868
v -0.027934 -0.001000 0.004303
v -0.029226 -0.001000 0.002463
v -0.016526 -0.001000 -0.001196
v -0.016678 -0.001000 -0.001930
v -0.015386 -0.001000 -0.000089
v -0.016071 -0.001000 -0.000524
v -0.023063 -0.001000 -0.007141
v -0.029368 -0.001000 -0.007047
v -0.016681 -0.001000 -0.002134
v -0.016551 -0.001000 -0.002872
v -0.016116 -0.001000 -0.003557
v -0.016774 -0.001000 -0.008337
v -0.023096 -0.001000 -0.009345
v -0.029353 -0.001000 -0.006047
v -0.029401 -0.001000 -0.009250
v -0.029416 -0.001000 -0.010250
v -0.024018 -0.001000 -0.014946
v -0.022341 -0.001000 -0.014971
v -0.023075 -0.001000 -0.014819
v -0.023280 -0.001000 -0.014816
v -0.021670 -0.001000 -0.015426
v -0.021235 -0.001000 -0.016111
v -0.021106 -0.001000 -0.016849
v -0.017334 -0.001000 -0.045772
v -0.021446 -0.001000 -0.039565
v -0.021597 -0.001000 -0.040299
v -0.022053 -0.001000 -0.040970
v -0.022737 -0.001000 -0.041405
v -0.023475 -0.001000 -0.041534
v -0.018077 -0.001000 -0.047298
v -0.028456 -0.001000 -0.055687
v -0.023680 -0.001000 -0.041531
v -0.017536 -0.001000 -0.046617
v -0.024414 -0.001000 -0.041380
v -0.030084 -0.001000 -0.054894
v -0.025085 -0.001000 -0.040924
v -0.025520 -0.001000 -0.040240
v -0.025649 -0.001000 -0.039502
v -0.025309 -0.001000 -0.016786
v -0.025158 -0.001000 -0.016052
v -0.024702 -0.001000 -0.015381
v -0.029522 -0.001000 -0.055808
v -0.029779 -0.001000 -0.055628
v -0.029961 -0.001000 -0.055391
v -0.029222 -0.001000 -0.055900
v -0.028923 -0.001000 -0.055896
v -0.006100 -0.001000 -0.004293
v 0.005449 -0.001000 -0.008670
v -0.015445 -0.001000 -0.004012
v -0.014711 -0.001000 -0.004164
v -0.004677 -0.001000 -0.003728
v -0.004221 -0.001000 -0.003057
v -0.005361 -0.001000 -0.004163
v 0.007583 -0.001000 -0.007823
v 0.006556 -0.001000 -0.008476
v 0.008266 -0.001000 -0.006816
v -0.029074 -0.001000 0.003197
v 0.000260 -0.001000 0.006022
vn 0.000000 1.000000 0.000000
vn 0.000000 1.000000 0.000000
vn 0.000000 1.000000 0.000000
vn 0.000000 1.000000 0.000000
vn 0.000000 1.000000 0.000000
vn 0.000000 1.000000 0.000000
vn 0.000000 1.000000 0.000000
vn 0.000000 1.000000 0.000000
vn 0.000000 1.000000 0.000000
vn 0.000000 1.000000 0.000000
vn 0.000000 1.000000 0.000000
vn 0.000000 1.000000 0.000000
vn 0.000000 1.000000 0.000000
vn 0.000000 1.000000 0.000000
vn 0.000000 1.000000 0.000000
vn 0.000000 1.000000 0.000000
vn 0.000000 1.000000 0.000000
vn 0.000000 1.000000 0.000000
vn 0.000000 1.000000 0.000000
vn 0.000000 1.000000 0.000000
vn 0.000000 1.000000 0.000000
vn 0.000000 1.000000 0.000000
vn 0.000000 1.000000 0.000000
vn 0.000000 1.000000 0.000000
vn 0.000000 1.000000 0.000000
vn 0.000000 1.000000 0.000000
vn 0.000000 1.000000 0.000000
vn 0.000000 1.000000 0.000000
vn 0.000000 1.000000 0.000000
vn 0.000000 1.000000 0.000000
vn 0.000000 1.000000 0.000000
vn 0.000000 1.000000 0.000000
vn 0.000000 1.000000 0.000000
vn 0.000000 1.000000 0.000000
vn 0.000000 1.000000 0.000000
vn 0.000000 1.000000 0.000000
vn 0.000000 1.000000 0.000000
vn 0.000000 1.000000 0.000000
vn 0.000000 1.000000 0.000000
vn 0.000000 1.000000 0.000000
vn 0.000000 1.000000 0.000000
vn 0.000000 1.000000 0.000000
vn 0.000000 1.000000 0.000000
vn 0.000000 1.000000 0.000000
vn 0.000000 1.000000 0.000000
vn 0.000000 1.000000 0.000000
vn 0.000000 1.000000 0.000000
vn 0.000000 1.000000 0.000000
vn 0.000000 1.000000 0.000000
vn 0.000000 1.000000 0.000000
vn 0.000000 1.000000 0.000000
vn 0.000000 1.000000 0.000000
vn 0.000000 1.000000 0.000000
vn 0.000000 1.000000 0.000000
vn 0.000000 1.000000 0.000000
vn 0.000000 1.000000 0.000000
vn 0.000000 1.000000 0.000000
vn 0.000000 1.000000 0.000000
vn 0.000000 1.000000 0.000000
vn 0.000000 1.000000 0.000000
vn 0.000000 1.000000 0.000000
vn 0.000000 1.000000 0.000000
vn 0.000000 1.000000 0.000000
vn 0.000000 1.000000 0.000000
vn 0.000000 1.000000 0.000000
vn 0.000000 1.000000 0.000000
vn 0.000000 1.000000 0.000000
vn 0.000000 1.000000 0.000000
vn 0.000000 1.000000 0.000000
vn 0.000000 1.000000 0.000000
vn 0.000000 1.000000 0.000000
vn 0.000000 1.000000 0.000000
vn 0.000000 1.000000 0.000000
vn 0.000000 1.000000 0.000000
vn 0.000000 1.000000 0.000000
vn 0.000000 1.000000 0.000000
vn 0.000000 1.000000 0.000000
vn 0.000000 1.000000 0.000000
vn 0.000000 1.000000 0.000000
vn 0.000000 1.000000 0.000000
vn 0.000000 1.000000 0.000000
vn 0.000000 1.000000 0.000000
vn 0.000000 1.000000 0.000000
vn 0.000000 1.000000 0.000000
vn 0.000000 1.000000 0.000000
vn 0.000000 1.000000 0.000000
vn 0.000000 1.000000 0.000000
vn 0.000000 1.000000 0.000000
vn 0.000000 1.000000 0.000000
vn 0.000000 1.000000 0.000000
vn 0.000000 1.000000 0.000000
vn 0.000000 1.000000 0.000000
vn 0.000000 1.000000 0.000000
vn 0.000000 1.000000 0.000000
vn 0.000000 1.000000 0.000000
vn 0.000000 1.000000 0.000000
vn 0.000000 1.000000 0.000000
vn 0.000000 1.000000 0.000000
vn 0.000000 1.000000 0.000000
vn 0.000000 1.000000 0.000000
vn 0.000000 1.000000 0.000000
vn 0.000000 1.000000 0.000000
vn 0.000000 1.000000 0.000000
vn 0.000000 1.000000 0.000000
vn 0.000000 1.000000 0.000000
vn 0.000000 1.000000 0.000000
vn 0.000000 1.000000 0.000000
vn 0.000000 1.000000 0.000000
vn 0.000000 1.000000 0.000000
vn 0.000000 1.000000 0.000000
vn 0.000000 1.000000 0.000000
vn 0.000000 1.000000 0.000000
vn 0.000000 1.000000 0.000000
vn 0.000000 1.000000 0.000000
vn 0.000000 1.000000 0.000000
vn 0.000000 1.000000 0.000000
vn 0.000000 1.000000 0.000000
vn 0.000000 1.000000 0.000000
vn 0.000000 1.000000 0.000000
vn 0.000000 1.000000 0.000000
vn 0.000000 1.000000 0.000000
vn 0.000000 1.000000 0.000000
vn 0.000000 1.000000 0.000000
vn 0.000000 1.000000 0.000000
vn 0.000000 1.000000 0.000000
vn 0.000000 1.000000 0.000000
vn 0.000000 1.000000 0.000000
vn 0.000000 1.000000 0.000000
vn 0.000000 1.000000 0.000000
vn 0.000000 1.000000 0.000000
vn 0.000000 1.000000 0.000000
vn 0.000000 1.000000 0.000000
vn 0.000000 1.000000 0.000000
vn 0.000000 1.000000 0.000000
vn 0.015000 -0.000000 0.999887
vn 0.015000 -0.000000 0.999887
vn 0.015000 -0.000000 0.999887
vn 0.015000 -0.000000 0.999887
vn 0.999887 0.000000 -0.015000
vn 0.999887 0.000000 -0.015000
vn 0.999887 0.000000 -0.015000
vn 0.999887 0.000000 -0.015000
vn -0.015000 0.000000 -0.999887
vn -0.015000 0.000000 -0.999887
vn -0.015000 0.000000 -0.999887
vn -0.015000 0.000000 -0.999887
vn -0.999887 -0.000000 0.015000
vn -0.999887 -0.000000 0.015000
vn -0.999887 -0.000000 0.015000
vn -0.999887 -0.000000 0.015000
vn 0.999889 0.000000 -0.014900
vn 0.935173 -0.000000 0.354190
vn 0.999889 0.000000 -0.014900
vn 0.935173 -0.000000 0.354190
vn 0.717578 -0.000000 0.696478
vn 0.381987 -0.000000 0.924168
vn 0.717578 -0.000000 0.696478
vn 0.381987 -0.000000 0.924168
vn 0.015100 -0.000000 0.999886
vn 0.015100 -0.000000 0.999886
vn -0.014900 0.000000 -0.999889
vn 0.354190 0.000000 -0.935174
vn -0.014900 0.000000 -0.999889
vn 0.354190 0.000000 -0.935174
vn 0.696478 0.000000 -0.717578
vn 0.924168 0.000000 -0.381987
vn 0.696478 0.000000 -0.717578
vn 0.924168 0.000000 -0.381987
vn 0.999886 0.000000 -0.015100
vn 0.999886 0.000000 -0.015100
vn -0.999889 -0.000000 0.014900
vn -0.935173 0.000000 -0.354190
vn -0.999889 -0.000000 0.014900
vn -0.935173 0.000000 -0.354190
vn -0.717578 0.000000 -0.696478
vn -0.381987 0.000000 -0.924168
vn -0.717578 0.000000 -0.696478
vn -0.381987 0.000000 -0.924168
vn -0.015100 0.000000 -0.999886
vn -0.015100 0.000000 -0.999886
vn 0.014900 -0.000000 0.999889
vn -0.354190 -0.000000 0.935174
vn 0.014900 -0.000000 0.999889
vn -0.354190 -0.000000 0.935174
vn -0.696478 -0.000000 0.717578
vn -0.924168 -0.000000 0.381987
vn -0.696478 -0.000000 0.717578
vn -0.924168 -0.000000 0.381987
vn -0.999886 -0.000000 0.015100
vn -0.999886 -0.000000 0.015100
vn -0.999887 -0.000000 0.015000
vn -0.999887 -0.000000 0.015000
vn -0.999887 -0.000000 0.015000
vn -0.999887 -0.000000 0.015000
vn 0.015000 -0.000000 0.999887
vn 0.015000 -0.000000 0.999887
vn 0.015000 -0.000000 0.999887
vn 0.015000 -0.000000 0.999887
vn 0.999887 0.000000 -0.015000
vn 0.999887 0.000000 -0.015000
vn 0.999887 0.000000 -0.015000
vn 0.999887 0.000000 -0.015000
vn -0.015000 0.000000 -0.999887
vn -0.015000 0.000000 -0.999887
vn -0.015000 0.000000 -0.999887
vn -0.015000 0.000000 -0.999887
vn 0.014900 -0.000000 0.999889
vn -0.354190 -0.000000 0.935174
vn 0.014900 -0.000000 0.999889
vn -0.354190 -0.000000 0.935174
vn -0.696478 -0.000000 0.717578
vn -0.924168 -0.000000 0.381987
vn -0.696478 -0.000000 0.717578
vn -0.924168 -0.000000 0.381987
vn -0.999886 -0.000000 0.015100
vn -0.999886 -0.000000 0.015100
vn 0.999889 0.000000 -0.014900
vn 0.935173 -0.000000 0.354190
vn 0.999889 0.000000 -0.014900
vn 0.935173 -0.000000 0.354190
vn 0.717578 -0.000000 0.696478
vn 0.381987 -0.000000 0.924168
vn 0.717578 -0.000000 0.696478
vn 0.381987 -0.000000 0.924168
vn 0.015100 -0.000000 0.999886
vn 0.015100 -0.000000 0.999886
vn -0.014900 0.000000 -0.999889
vn 0.354102 0.000000 -0.935207
vn -0.014900 0.000000 -0.999889
vn 0.354102 0.000000 -0.935207
vn 0.696427 0.000000 -0.717628
vn 0.924168 0.000000 -0.381987
vn 0.696427 0.000000 -0.717628
vn 0.924168 0.000000 -0.381987
vn 0.999886 0.000000 -0.015100
vn 0.999886 0.000000 -0.015100
vn -0.999889 -0.000000 0.014900
vn -0.935207 0.000000 -0.354103
vn -0.999889 -0.000000 0.014900
vn -0.935207 0.000000 -0.354103
vn -0.717628 0.000000 -0.696427
vn -0.381987 0.000000 -0.924168
vn -0.717628 0.000000 -0.696427
vn -0.381987 0.000000 -0.924168
vn -0.015100 0.000000 -0.999886
vn -0.015100 0.000000 -0.999886
vn -0.015000 0.000000 -0.999887
vn -0.015000 0.000000 -0.999887
vn -0.015000 0.000000 -0.999887
vn -0.015000 0.000000 -0.999887
vn 0.999887 0.000000 -0.015000
vn 0.999887 0.000000 -0.015000
vn 0.999887 0.000000 -0.015000
vn 0.999887 0.000000 -0.015000
vn 0.015000 -0.000000 0.999887
vn 0.015000 -0.000000 0.999887
vn 0.015000 -0.000000 0.999887
vn 0.015000 -0.000000 0.999887
vn -0.999887 -0.000000 0.015000
vn -0.999887 -0.000000 0.015000
vn -0.999887 -0.000000 0.015000
vn -0.999887 -0.000000 0.015000
vn 0.999886 0.000000 -0.015100
vn 0.924168 0.000000 -0.381987
vn 0.999886 0.000000 -0.015100
vn 0.924168 0.000000 -0.381987
vn 0.696427 0.000000 -0.717628
vn 0.696427 0.000000 -0.717628
vn 0.354102 0.000000 -0.935207
vn -0.014900 0.000000 -0.999889
vn 0.354102 0.000000 -0.935207
vn -0.014900 0.000000 -0.999889
vn 0.015100 -0.000000 0.999886
vn 0.381987 -0.000000 0.924168
vn 0.015100 -0.000000 0.999886
vn 0.381987 -0.000000 0.924168
vn 0.717628 -0.000000 0.696427
vn 0.717628 -0.000000 0.696427
vn 0.935207 -0.000000 0.354103
vn 0.999889 0.000000 -0.014900
vn 0.935207 -0.000000 0.354103
vn 0.999889 0.000000 -0.014900
vn -0.999886 -0.000000 0.015100
vn -0.924168 -0.000000 0.381987
vn -0.999886 -0.000000 0.015100
vn -0.924168 -0.000000 0.381987
vn -0.696427 -0.000000 0.717628
vn -0.696427 -0.000000 0.717628
vn -0.354102 -0.000000 0.935207
vn 0.014900 -0.000000 0.999889
vn -0.354102 -0.000000 0.935207
vn 0.014900 -0.000000 0.999889
vn -0.015100 0.000000 -0.999886
vn -0.381987 0.000000 -0.924168
vn -0.015100 0.000000 -0.999886
vn -0.381987 0.000000 -0.924168
vn -0.717578 0.000000 -0.696478
vn -0.935173 0.000000 -0.354190
vn -0.717578 0.000000 -0.696478
vn -0.935173 0.000000 -0.354190
vn -0.999889 -0.000000 0.014900
vn -0.999889 -0.000000 0.014900
vn -0.999887 -0.000000 0.015000
vn -0.999887 -0.000000 0.015000
vn -0.999887 -0.000000 0.015000
vn -0.999887 -0.000000 0.015000
vn 0.015000 -0.000000 0.999887
vn 0.015000 -0.000000 0.999887
vn 0.015000 -0.000000 0.999887
vn 0.015000 -0.000000 0.999887
vn 0.014900 -0.000000 0.999889
vn -0.354102 -0.000000 0.935207
vn 0.014900 -0.000000 0.999889
vn -0.354102 -0.000000 0.935207
vn -0.696427 -0.000000 0.717628
vn -0.924168 -0.000000 0.381987
vn -0.696427 -0.000000 0.717628
vn -0.924168 -0.000000 0.381987
vn -0.999886 -0.000000 0.015100
vn -0.999886 -0.000000 0.015100
vn -0.999889 -0.000000 0.014900
vn -0.935207 0.000000 -0.354103
vn -0.999889 -0.000000 0.014900
vn -0.935207 0.000000 -0.354103
vn -0.717628 0.000000 -0.696427
vn -0.381987 0.000000 -0.924168
vn -0.717628 0.000000 -0.696427
vn -0.381987 0.000000 -0.924168
vn -0.015100 0.000000 -0.999886
vn -0.015100 0.000000 -0.999886
vn 0.999887 0.000000 -0.015000
vn 0.999887 0.000000 -0.015000
vn 0.999887 0.000000 -0.015000
vn 0.999887 0.000000 -0.015000
vn -0.015000 0.000000 -0.999887
vn -0.015000 0.000000 -0.999887
vn -0.015000 0.000000 -0.999887
vn -0.015000 0.000000 -0.999887
vn 0.999889 0.000000 -0.014900
vn 0.935207 -0.000000 0.354103
vn 0.999889 0.000000 -0.014900
vn 0.935207 -0.000000 0.354103
vn 0.717628 -0.000000 0.696427
vn 0.381987 -0.000000 0.924168
vn 0.717628 -0.000000 0.696427
vn 0.381987 -0.000000 0.924168
vn 0.015100 -0.000000 0.999886
vn 0.015100 -0.000000 0.999886
vn -0.014900 0.000000 -0.999889
vn 0.354102 0.000000 -0.935207
vn -0.014900 0.000000 -0.999889
vn 0.354102 0.000000 -0.935207
vn 0.696427 0.000000 -0.717628
vn 0.924168 0.000000 -0.381987
vn 0.696427 0.000000 -0.717628
vn 0.924168 0.000000 -0.381987
vn 0.999886 0.000000 -0.015100
vn 0.999886 0.000000 -0.015100
vn 0.015000 -0.000000 0.999887
vn 0.015000 -0.000000 0.999887
vn 0.015000 -0.000000 0.999887
vn 0.015000 -0.000000 0.999887
vn 0.015000 -0.000000 0.999887
vn 0.015000 -0.000000 0.999887
vn 0.015000 -0.000000 0.999887
vn 0.015000 -0.000000 0.999887
vn 0.015000 -0.000000 0.999887
vn 0.015000 -0.000000 0.999887
vn 0.015000 -0.000000 0.999887
vn 0.015000 -0.000000 0.999887
vn 0.015000 -0.000000 0.999887
vn 0.015000 -0.000000 0.999887
vn 0.015000 -0.000000 0.999887
vn 0.015000 -0.000000 0.999887
vn 0.015000 -0.000000 0.999887
vn 0.015000 -0.000000 0.999887
vn 0.015000 -0.000000 0.999887
vn 0.999887 0.000000 -0.015000
vn 0.999887 0.000000 -0.015000
vn 0.999887 0.000000 -0.015000
vn 0.999887 0.000000 -0.015000
vn 0.015000 -0.000000 0.999887
vn 0.015000 -0.000000 0.999887
vn 0.015000 -0.000000 0.999887
vn 0.015000 -0.000000 0.999887
vn -0.999887 -0.000000 0.015000
vn -0.999887 -0.000000 0.015000
vn -0.999887 -0.000000 0.015000
vn -0.999887 -0.000000 0.015000
vn -0.015000 0.000000 -0.999887
vn -0.015000 0.000000 -0.999887
vn -0.015000 0.000000 -0.999887
vn -0.015000 0.000000 -0.999887
vn -0.015000 0.000000 -0.999887
vn -0.015000 0.000000 -0.999887
vn -0.015000 0.000000 -0.999887
vn -0.015000 0.000000 -0.999887
vn -0.999887 -0.000000 0.015000
vn -0.999887 -0.000000 0.015000
vn -0.999887 -0.000000 0.015000
vn -0.999887 -0.000000 0.015000
vn -0.999887 -0.000000 0.015000
vn -0.999887 -0.000000 0.015000
vn -0.999887 -0.000000 0.015000
vn -0.999887 -0.000000 0.015000
vn -0.999887 -0.000000 0.015000
vn -0.999887 -0.000000 0.015000
vn -0.999887 -0.000000 0.015000
vn -0.999887 -0.000000 0.015000
vn -0.999887 -0.000000 0.015000
vn -0.999887 -0.000000 0.015000
vn -0.999887 -0.000000 0.015000
vn -0.999887 -0.000000 0.015000
vn -0.999887 -0.000000 0.015000
vn -0.999887 -0.000000 0.015000
vn 0.015000 -0.000000 0.999887
vn 0.015000 -0.000000 0.999887
vn 0.015000 -0.000000 0.999887
vn 0.015000 -0.000000 0.999887
vn -0.999887 -0.000000 0.015000
vn -0.999887 -0.000000 0.015000
vn -0.999887 -0.000000 0.015000
vn -0.999887 -0.000000 0.015000
vn -0.015000 0.000000 -0.999887
vn -0.015000 0.000000 -0.999887
vn -0.015000 0.000000 -0.999887
vn -0.015000 0.000000 -0.999887
vn -0.999886 -0.000000 0.015100
vn -0.924168 -0.000000 0.381987
vn -0.999886 -0.000000 0.015100
vn -0.924168 -0.000000 0.381987
vn -0.696478 -0.000000 0.717578
vn -0.354102 -0.000000 0.935207
vn -0.696478 -0.000000 0.717578
vn -0.354102 -0.000000 0.935207
vn 0.014900 -0.000000 0.999889
vn 0.014900 -0.000000 0.999889
vn 0.999887 0.000000 -0.015000
vn 0.999887 0.000000 -0.015000
vn 0.999887 0.000000 -0.015000
vn 0.999887 0.000000 -0.015000
vn -0.014900 0.000000 -0.999889
vn 0.354102 0.000000 -0.935207
vn -0.014900 0.000000 -0.999889
vn 0.354102 0.000000 -0.935207
vn 0.696478 0.000000 -0.717578
vn 0.696478 0.000000 -0.717578
vn 0.924168 0.000000 -0.381987
vn 0.999886 0.000000 -0.015100
vn 0.924168 0.000000 -0.381987
vn 0.999886 0.000000 -0.015100
vn 0.628614 0.000000 -0.777717
vn 0.628614 0.000000 -0.777717
vn 0.628614 0.000000 -0.777717
vn 0.628614 0.000000 -0.777717
vn -0.999889 -0.000000 0.014900
vn -0.876566 0.000000 -0.481281
vn -0.999889 -0.000000 0.014900
vn -0.876566 0.000000 -0.481281
vn -0.695005 0.000000 -0.719005
vn -0.695005 0.000000 -0.719005
vn -0.437789 0.000000 -0.899078
vn -0.437789 0.000000 -0.899078
vn -0.137304 0.000000 -0.990529
vn -0.137304 0.000000 -0.990529
vn 0.161999 0.000000 -0.986791
vn 0.161999 0.000000 -0.986791
vn 0.628565 0.000000 -0.777757
vn 0.628565 0.000000 -0.777757
vn 0.015000 -0.000000 0.999887
vn 0.015000 -0.000000 0.999887
vn 0.015000 -0.000000 0.999887
vn 0.015000 -0.000000 0.999887
vn 0.015000 -0.000000 0.999887
vn 0.015000 -0.000000 0.999887
vn 0.015000 -0.000000 0.999887
vn 0.015000 -0.000000 0.999887
vn 0.015000 -0.000000 0.999887
vn 0.015000 -0.000000 0.999887
vn 0.015000 -0.000000 0.999887
vn 0.015000 -0.000000 0.999887
vn 0.015000 -0.000000 0.999887
vn 0.015000 -0.000000 0.999887
vn 0.015000 -0.000000 0.999887
vn 0.015000 -0.000000 0.999887
vn 0.015000 -0.000000 0.999887
vn 0.015000 -0.000000 0.999887
vn 0.758579 0.000000 -0.651582
vn 0.981512 0.000000 -0.191402
vn 0.758579 0.000000 -0.651582
vn 0.981512 0.000000 -0.191402
vn 0.994205 -0.000000 0.107501
vn 0.994205 -0.000000 0.107501
vn 0.911867 -0.000000 0.410485
vn 0.911867 -0.000000 0.410485
vn 0.739573 -0.000000 0.673076
vn 0.739573 -0.000000 0.673076
vn 0.507287 -0.000000 0.861777
vn 0.507287 -0.000000 0.861777
vn 0.015100 -0.000000 0.999886
vn 0.015100 -0.000000 0.999886
vn 0.758579 0.000000 -0.651582
vn 0.758579 0.000000 -0.651582
vn 0.758579 0.000000 -0.651582
vn 0.758579 0.000000 -0.651582
vn -0.014900 0.000000 -0.999889
vn 0.410606 0.000000 -0.911813
vn -0.014900 0.000000 -0.999889
vn 0.410606 0.000000 -0.911813
vn 0.758487 0.000000 -0.651689
vn 0.758487 0.000000 -0.651689
vn 0.999887 0.000000 -0.015000
vn 0.999887 0.000000 -0.015000
vn 0.999887 0.000000 -0.015000
vn 0.999887 0.000000 -0.015000
vn 0.628675 0.000000 -0.777669
vn 0.899117 0.000000 -0.437708
vn 0.628675 0.000000 -0.777669
vn 0.899117 0.000000 -0.437708
vn 0.999886 0.000000 -0.015100
vn 0.999886 0.000100 -0.015100
vn -0.999887 -0.000000 0.015000
vn -0.999887 -0.000000 0.015000
vn -0.999887 -0.000000 0.015000
vn -0.999887 -0.000000 0.015000
vn -0.999887 -0.000000 0.015000
vn -0.999887 -0.000000 0.015000
vn 0.014900 -0.000000 0.999889
vn -0.354102 -0.000000 0.935207
vn 0.014900 -0.000000 0.999889
vn -0.354102 -0.000000 0.935207
vn -0.696478 -0.000000 0.717578
vn -0.696478 -0.000000 0.717578
vn -0.924168 -0.000000 0.381987
vn -0.924168 -0.000000 0.381987
vn -0.999886 -0.000000 0.015100
vn -0.999886 -0.000000 0.015100
vn -0.999887 -0.000000 0.015000
vn -0.999887 -0.000000 0.015000
vn -0.999887 -0.000000 0.015000
vn -0.999887 -0.000000 0.015000
vn 0.014900 -0.000000 0.999889
vn -0.354102 -0.000000 0.935207
vn 0.014900 -0.000100 0.999889
vn -0.354102 -0.000000 0.935207
vn -0.696377 -0.000000 0.717676
vn -0.696377 -0.000000 0.717676
vn -0.924168 -0.000000 0.381987
vn -0.924168 -0.000000 0.381987
vn -0.999886 -0.000000 0.015100
vn -0.999886 0.000100 0.015100
vn 0.000000 -1.000000 -0.000000
vn 0.000000 -1.000000 -0.000000
vn 0.000000 -1.000000 -0.000000
vn 0.000000 -1.000000 -0.000000
vn 0.000000 -1.000000 -0.000000
vn 0.000000 -1.000000 -0.000000
vn 0.000000 -1.000000 -0.000000
vn 0.000000 -1.000000 -0.000000
vn 0.000000 -1.000000 -0.000000
vn 0.000000 -1.000000 -0.000000
vn 0.000000 -1.000000 -0.000000
vn 0.000000 -1.000000 -0.000000
vn 0.000000 -1.000000 -0.000000
vn 0.000000 -1.000000 -0.000000
vn 0.000000 -1.000000 -0.000000
vn 0.000000 -1.000000 -0.000000
vn 0.000000 -1.000000 -0.000000
vn 0.000000 -1.000000 -0.000000
vn 0.000000 -1.000000 -0.000000
vn 0.000000 -1.000000 -0.000000
vn 0.000000 -1.000000 -0.000000
vn 0.000000 -1.000000 -0.000000
vn 0.000000 -1.000000 -0.000000
vn 0.000000 -1.000000 -0.000000
vn 0.000000 -1.000000 -0.000000
vn 0.000000 -1.000000 -0.000000
vn 0.000000 -1.000000 -0.000000
vn 0.000000 -1.000000 -0.000000
vn 0.000000 -1.000000 -0.000000
vn 0.000000 -1.000000 -0.000000
vn 0.000000 -1.000000 -0.000000
vn 0.000000 -1.000000 -0.000000
vn 0.000000 -1.000000 -0.000000
vn 0.000000 -1.000000 -0.000000
vn 0.000000 -1.000000 -0.000000
vn 0.000000 -1.000000 -0.000000
vn 0.000000 -1.000000 -0.000000
vn 0.000000 -1.000000 -0.000000
vn 0.000000 -1.000000 -0.000000
vn 0.000000 -1.000000 -0.000000
vn 0.000000 -1.000000 -0.000000
vn 0.000000 -1.000000 -0.000000
vn 0.000000 -1.000000 -0.000000
vn 0.000000 -1.000000 -0.000000
vn 0.000000 -1.000000 -0.000000
vn 0.000000 -1.000000 -0.000000
vn 0.000000 -1.000000 -0.000000
vn 0.000000 -1.000000 -0.000000
vn 0.000000 -1.000000 -0.000000
vn 0.000000 -1.000000 -0.000000
vn 0.000000 -1.000000 -0.000000
vn 0.000000 -1.000000 -0.000000
vn 0.000000 -1.000000 -0.000000
vn 0.000000 -1.000000 -0.000000
vn 0.000000 -1.000000 -0.000000
vn 0.000000 -1.000000 -0.000000
vn 0.000000 -1.000000 -0.000000
vn 0.000000 -1.000000 -0.000000
vn 0.000000 -1.000000 -0.000000
vn 0.000000 -1.000000 -0.000000
vn 0.000000 -1.000000 -0.000000
vn 0.000000 -1.000000 -0.000000
vn 0.000000 -1.000000 -0.000000
vn 0.000000 -1.000000 -0.000000
vn 0.000000 -1.000000 -0.000000
vn 0.000000 -1.000000 -0.000000
vn 0.000000 -1.000000 -0.000000
vn 0.000000 -1.000000 -0.000000
vn 0.000000 -1.000000 -0.000000
vn 0.000000 -1.000000 -0.000000
vn 0.000000 -1.000000 -0.000000
vn 0.000000 -1.000000 -0.000000
vn 0.000000 -1.000000 -0.000000
vn 0.000000 -1.000000 -0.000000
vn 0.000000 -1.000000 -0.000000
vn 0.000000 -1.000000 -0.000000
vn 0.000000 -1.000000 -0.000000
vn 0.000000 -1.000000 -0.000000
vn 0.000000 -1.000000 -0.000000
vn 0.000000 -1.000000 -0.000000
vn 0.000000 -1.000000 -0.000000
vn 0.000000 -1.000000 -0.000000
vn 0.000000 -1.000000 -0.000000
vn 0.000000 -1.000000 -0.000000
vn 0.000000 -1.000000 -0.000000
vn 0.000000 -1.000000 -0.000000
vn 0.000000 -1.000000 -0.000000
vn 0.000000 -1.000000 -0.000000
vn 0.000000 -1.000000 -0.000000
vn 0.000000 -1.000000 -0.000000
vn 0.000000 -1.000000 -0.000000
vn 0.000000 -1.000000 -0.000000
vn 0.000000 -1.000000 -0.000000
vn 0.000000 -1.000000 -0.000000
vn 0.000000 -1.000000 -0.000000
vn 0.000000 -1.000000 -0.000000
vn 0.000000 -1.000000 -0.000000
vn 0.000000 -1.000000 -0.000000
vn 0.000000 -1.000000 -0.000000
vn 0.000000 -1.000000 -0.000000
vn 0.000000 -1.000000 -0.000000
vn 0.000000 -1.000000 -0.000000
vn 0.000000 -1.000000 -0.000000
vn 0.000000 -1.000000 -0.000000
vn 0.000000 -1.000000 -0.000000
vn 0.000000 -1.000000 -0.000000
vn 0.000000 -1.000000 -0.000000
vn 0.000000 -1.000000 -0.000000
vn 0.000000 -1.000000 -0.000000
vn 0.000000 -1.000000 -0.000000
vn 0.000000 -1.000000 -0.000000
vn 0.000000 -1.000000 -0.000000
vn 0.000000 -1.000000 -0.000000
vn 0.000000 -1.000000 -0.000000
vn 0.000000 -1.000000 -0.000000
vn 0.000000 -1.000000 -0.000000
vn 0.000000 -1.000000 -0.000000
vn 0.000000 -1.000000 -0.000000
vn 0.000000 -1.000000 -0.000000
vn 0.000000 -1.000000 -0.000000
vn 0.000000 -1.000000 -0.000000
vn 0.000000 -1.000000 -0.000000
vn 0.000000 -1.000000 -0.000000
vn 0.000000 -1.000000 -0.000000
vn 0.000000 -1.000000 -0.000000
vn 0.000000 -1.000000 -0.000000
vn 0.000000 -1.000000 -0.000000
vn 0.000000 -1.000000 -0.000000
vn 0.000000 -1.000000 -0.000000
vn 0.000000 -1.000000 -0.000000
vn 0.000000 -1.000000 -0.000000
vn 0.000000 -1.000000 -0.000000
vn 0.000000 -1.000000 -0.000000
vn 0.000000 -1.000000 -0.000000
f 4//4 2//2 1//1
f 2//2 3//3 1//1
f 4//4 1//1 5//5
f 5//5 1//1 6//6
f 7//7 5//5 6//6
f 10//10 4//4 5//5
f 8//8 9//9 5//5
f 5//5 9//9 12//12
f 11//11 10//10 5//5
f 11//11 5//5 13//13
f 12//12 13//13 5//5
f 12//12 9//9 14//14
f 15//15 14//14 9//9
f 15//15 9//9 16//16
f 16//16 9//9 17//17
f 17//17 18//18 16//16
f 18//18 17//17 19//19
f 19//19 17//17 20//20
f 20//20 17//17 21//21
f 23//23 22//22 21//21
f 23//23 21//21 17//17
f 25//25 23//23 24//24
f 17//17 24//24 23//23
f 26//26 22//22 23//23
f 26//26 27//27 22//22
f 27//27 26//26 28//28
f 27//27 28//28 29//29
f 30//30 29//29 28//28
f 30//30 32//32 31//31
f 31//31 29//29 30//30
f 31//31 32//32 33//33
f 32//32 34//34 33//33
f 34//34 35//35 33//33
f 35//35 34//34 36//36
f 36//36 37//37 38//38
f 35//35 36//36 38//38
f 45//45 39//39 38//38
f 38//38 39//39 40//40
f 38//38 40//40 41//41
f 38//38 42//42 43//43
f 42//42 38//38 37//37
f 43//43 44//44 38//38
f 44//44 45//45 38//38
f 47//47 45//45 46//46
f 46//46 45//45 52//52
f 48//48 39//39 45//45
f 48//48 45//45 49//49
f 45//45 44//44 50//50
f 45//45 50//50 51//51
f 45//45 51//51 52//52
f 52//52 53//53 46//46
f 54//54 46//46 53//53
f 55//55 46//46 54//54
f 55//55 24//24 46//46
f 24//24 55//55 56//56
f 57//57 24//24 56//56
f 25//25 24//24 57//57
f 47//47 46//46 64//64
f 47//47 58//58 59//59
f 47//47 60//60 58//58
f 60//60 47//47 61//61
f 61//61 47//47 62//62
f 63//63 62//62 47//47
f 63//63 47//47 64//64
f 65//65 64//64 46//46
f 46//46 66//66 65//65
f 66//66 46//46 67//67
f 67//67 68//68 66//66
f 67//67 69//69 68//68
f 69//69 67//67 70//70
f 67//67 71//71 70//70
f 67//67 72//72 71//71
f 73//73 71//71 72//72
f 72//72 74//74 73//73
f 75//75 74//74 72//72
f 75//75 76//76 74//74
f 76//76 77//77 78//78
f 77//77 76//76 75//75
f 78//78 77//77 79//79
f 77//77 80//80 79//79
f 58//58 81//81 80//80
f 77//77 58//58 80//80
f 82//82 81//81 58//58
f 58//58 83//83 82//82
f 58//58 60//60 83//83
f 84//84 77//77 75//75
f 77//77 84//84 85//85
f 85//85 86//86 77//77
f 75//75 87//87 84//84
f 88//88 87//87 75//75
f 89//89 72//72 67//67
f 40//40 39//39 90//90
f 91//91 92//92 31//31
f 92//92 29//29 31//31
f 92//92 91//91 93//93
f 91//91 94//94 93//93
f 93//93 94//94 95//95
f 95//95 94//94 4//4
f 95//95 4//4 96//96
f 97//97 96//96 4//4
f 98//98 97//97 4//4
f 4//4 10//10 98//98
f 17//17 99//99 24//24
f 100//100 24//24 99//99
f 99//99 17//17 101//101
f 104//104 102//102 9//9
f 105//105 9//9 103//103
f 103//103 9//9 8//8
f 105//105 104//104 9//9
f 102//102 104//104 106//106
f 106//106 107//107 102//102
f 107//107 108//108 102//102
f 109//109 102//102 108//108
f 110//110 102//102 109//109
f 111//111 110//110 109//109
f 112//112 110//110 111//111
f 112//112 114//114 110//110
f 112//112 113//113 114//114
f 114//114 113//113 115//115
f 115//115 116//116 114//114
f 114//114 116//116 117//117
f 117//117 118//118 114//114
f 119//119 116//116 115//115
f 119//119 115//115 120//120
f 115//115 122//122 121//121
f 123//123 122//122 115//115
f 115//115 113//113 124//124
f 124//124 123//123 115//115
f 125//125 121//121 122//122
f 121//121 125//125 126//126
f 127//127 121//121 126//126
f 121//121 127//127 128//128
f 129//129 8//8 128//128
f 121//121 128//128 8//8
f 129//129 130//130 8//8
f 130//130 131//131 8//8
f 8//8 131//131 103//103
f 121//121 8//8 132//132
f 110//110 133//133 102//102
f 134//134 2//2 4//4
f 135//135 137//137 138//138
f 135//135 138//138 136//136
f 140//140 142//142 141//141
f 140//140 141//141 139//139
f 144//144 146//146 145//145
f 144//144 145//145 143//143
f 147//147 149//149 150//150
f 147//147 150//150 148//148
f 152//152 154//154 153//153
f 152//152 153//153 151//151
f 157//157 155//155 154//154
f 157//157 154//154 152//152
f 158//158 156//156 155//155
f 158//158 155//155 157//157
f 159//159 160//160 156//156
f 159//159 156//156 158//158
f 162//162 164//164 163//163
f 162//162 163//163 161//161
f 167//167 165//165 164//164
f 167//167 164//164 162//162
f 168//168 166//166 165//165
f 168//168 165//165 167//167
f 169//169 170//170 166//166
f 169//169 166//166 168//168
f 172//172 174//174 173//173
f 172//172 173//173 171//171
f 177//177 175//175 174//174
f 177//177 174//174 172//172
f 178//178 176//176 175//175
f 178//178 175//175 177//177
f 179//179 180//180 176//176
f 179//179 176//176 178//178
f 182//182 184//184 183//183
f 182//182 183//183 181//181
f 187//187 185//185 184//184
f 187//187 184//184 182//182
f 188//188 186//186 185//185
f 188//188 185//185 187//187
f 189//189 190//190 186//186
f 189//189 186//186 188//188
f 191//191 193//193 194//194
f 191//191 194//194 192//192
f 196//196 198//198 197//197
f 196//196 197//197 195//195
f 202//202 200//200 199//199
f 202//202 199//199 201//201
f 204//204 206//206 205//205
f 204//204 205//205 203//203
f 208//208 210//210 209//209
f 208//208 209//209 207//207
f 213//213 211//211 210//210
f 213//213 210//210 208//208
f 214//214 212//212 211//211
f 214//214 211//211 213//213
f 215//215 216//216 212//212
f 215//215 212//212 214//214
f 218//218 220//220 219//219
f 218//218 219//219 217//217
f 223//223 221//221 220//220
f 223//223 220//220 218//218
f 224//224 222//222 221//221
f 224//224 221//221 223//223
f 225//225 226//226 222//222
f 225//225 222//222 224//224
f 228//228 230//230 229//229
f 228//228 229//229 227//227
f 233//233 231//231 230//230
f 233//233 230//230 228//228
f 234//234 232//232 231//231
f 234//234 231//231 233//233
f 235//235 236//236 232//232
f 235//235 232//232 234//234
f 238//238 240//240 239//239
f 238//238 239//239 237//237
f 243//243 241//241 240//240
f 243//243 240//240 238//238
f 244//244 242//242 241//241
f 244//244 241//241 243//243
f 245//245 246//246 242//242
f 245//245 242//242 244//244
f 248//248 247//247 249//249
f 248//248 249//249 250//250
f 251//251 253//253 254//254
f 251//251 254//254 252//252
f 256//256 255//255 257//257
f 256//256 257//257 258//258
f 260//260 259//259 261//261
f 260//260 261//261 262//262
f 264//264 266//266 265//265
f 264//264 265//265 263//263
f 268//268 267//267 266//266
f 268//268 266//266 264//264
f 271//271 269//269 267//267
f 271//271 267//267 268//268
f 272//272 270//270 269//269
f 272//272 269//269 271//271
f 274//274 276//276 275//275
f 274//274 275//275 273//273
f 278//278 277//277 276//276
f 278//278 276//276 274//274
f 281//281 279//279 277//277
f 281//281 277//277 278//278
f 282//282 280//280 279//279
f 282//282 279//279 281//281
f 284//284 286//286 285//285
f 284//284 285//285 283//283
f 288//288 287//287 286//286
f 288//288 286//286 284//284
f 291//291 289//289 287//287
f 291//291 287//287 288//288
f 292//292 290//290 289//289
f 292//292 289//289 291//291
f 294//294 296//296 295//295
f 294//294 295//295 293//293
f 299//299 297//297 296//296
f 299//299 296//296 294//294
f 300//300 298//298 297//297
f 300//300 297//297 299//299
f 301//301 302//302 298//298
f 301//301 298//298 300//300
f 303//303 305//305 306//306
f 303//303 306//306 304//304
f 308//308 310//310 309//309
f 308//308 309//309 307//307
f 312//312 314//314 313//313
f 312//312 313//313 311//311
f 317//317 315//315 314//314
f 317//317 314//314 312//312
f 318//318 316//316 315//315
f 318//318 315//315 317//317
f 319//319 320//320 316//316
f 319//319 316//316 318//318
f 322//322 324//324 323//323
f 322//322 323//323 321//321
f 327//327 325//325 324//324
f 327//327 324//324 322//322
f 328//328 326//326 325//325
f 328//328 325//325 327//327
f 329//329 330//330 326//326
f 329//329 326//326 328//328
f 332//332 334//334 333//333
f 332//332 333//333 331//331
f 336//336 338//338 337//337
f 336//336 337//337 335//335
f 340//340 342//342 341//341
f 340//340 341//341 339//339
f 345//345 343//343 342//342
f 345//345 342//342 340//340
f 346//346 344//344 343//343
f 346//346 343//343 345//345
f 347//347 348//348 344//344
f 347//347 344//344 346//346
f 350//350 352//352 351//351
f 350//350 351//351 349//349
f 355//355 353//353 352//352
f 355//355 352//352 350//350
f 356//356 354//354 353//353
f 356//356 353//353 355//355
f 357//357 358//358 354//354
f 357//357 354//354 356//356
f 360//360 362//362 359//359
f 360//360 359//359 361//361
f 362//362 360//360 363//363
f 364//364 363//363 360//360
f 364//364 360//360 365//365
f 366//366 364//364 365//365
f 366//366 365//365 367//367
f 368//368 366//366 367//367
f 369//369 368//368 367//367
f 367//367 370//370 369//369
f 367//367 365//365 371//371
f 367//367 371//371 370//370
f 365//365 360//360 361//361
f 365//365 361//361 371//371
f 373//373 375//375 374//374
f 373//373 374//374 372//372
f 377//377 376//376 375//375
f 377//377 375//375 373//373
f 379//379 381//381 380//380
f 379//379 380//380 378//378
f 383//383 385//385 384//384
f 383//383 384//384 382//382
f 387//387 389//389 388//388
f 387//387 388//388 386//386
f 391//391 393//393 392//392
f 391//391 392//392 390//390
f 394//394 396//396 397//397
f 394//394 397//397 395//395
f 399//399 401//401 398//398
f 399//399 398//398 400//400
f 401//401 399//399 402//402
f 403//403 402//402 399//399
f 403//403 399//399 404//404
f 404//404 405//405 403//403
f 405//405 404//404 408//408
f 405//405 407//407 406//406
f 408//408 407//407 405//405
f 408//408 404//404 409//409
f 407//407 408//408 410//410
f 412//412 407//407 410//410
f 412//412 410//410 411//411
f 412//412 411//411 413//413
f 413//413 414//414 412//412
f 414//414 415//415 412//412
f 415//415 406//406 407//407
f 415//415 407//407 412//412
f 404//404 399//399 400//400
f 404//404 400//400 409//409
f 417//417 419//419 418//418
f 417//417 418//418 416//416
f 421//421 423//423 422//422
f 421//421 422//422 420//420
f 425//425 427//427 426//426
f 425//425 426//426 424//424
f 429//429 431//431 430//430
f 429//429 430//430 428//428
f 434//434 432//432 431//431
f 434//434 431//431 429//429
f 435//435 433//433 432//432
f 435//435 432//432 434//434
f 436//436 437//437 433//433
f 436//436 433//433 435//435
f 439//439 441//441 440//440
f 439//439 440//440 438//438
f 443//443 442//442 444//444
f 443//443 444//444 445//445
f 447//447 443//443 445//445
f 447//447 445//445 446//446
f 450//450 447//447 446//446
f 450//450 446//446 448//448
f 451//451 450//450 448//448
f 451//451 448//448 449//449
f 452//452 454//454 455//455
f 452//452 455//455 453//453
f 457//457 456//456 458//458
f 457//457 458//458 459//459
f 461//461 457//457 459//459
f 461//461 459//459 460//460
f 463//463 461//461 460//460
f 463//463 460//460 462//462
f 465//465 463//463 462//462
f 465//465 462//462 464//464
f 467//467 465//465 464//464
f 467//467 464//464 466//466
f 469//469 467//467 466//466
f 469//469 466//466 468//468
f 471//471 473//473 470//470
f 471//471 470//470 472//472
f 473//473 471//471 474//474
f 475//475 474//474 471//471
f 475//475 471//471 476//476
f 476//476 477//477 475//475
f 477//477 476//476 480//480
f 477//477 479//479 478//478
f 480//480 479//479 477//477
f 480//480 476//476 481//481
f 479//479 480//480 482//482
f 484//484 479//479 482//482
f 484//484 482//482 483//483
f 484//484 483//483 485//485
f 485//485 486//486 484//484
f 486//486 487//487 484//484
f 487//487 478//478 479//479
f 487//487 479//479 484//484
f 476//476 471//471 472//472
f 476//476 472//472 481//481
f 489//489 488//488 490//490
f 489//489 490//490 491//491
f 493//493 489//489 491//491
f 493//493 491//491 492//492
f 495//495 493//493 492//492
f 495//495 492//492 494//494
f 497//497 495//495 494//494
f 497//497 494//494 496//496
f 499//499 497//497 496//496
f 499//499 496//496 498//498
f 501//501 499//499 498//498
f 501//501 498//498 500//500
f 503//503 505//505 504//504
f 503//503 504//504 502//502
f 507//507 506//506 508//508
f 507//507 508//508 509//509
f 511//511 507//507 509//509
f 511//511 509//509 510//510
f 513//513 515//515 514//514
f 513//513 514//514 512//512
f 517//517 516//516 518//518
f 517//517 518//518 519//519
f 521//521 517//517 519//519
f 521//521 519//519 520//520
f 523//523 525//525 524//524
f 523//523 524//524 522//522
f 527//527 526//526 525//525
f 527//527 525//525 523//523
f 529//529 528//528 530//530
f 529//529 530//530 531//531
f 533//533 529//529 531//531
f 533//533 531//531 532//532
f 535//535 533//533 532//532
f 535//535 532//532 534//534
f 537//537 535//535 534//534
f 537//537 534//534 536//536
f 538//538 540//540 541//541
f 538//538 541//541 539//539
f 543//543 542//542 544//544
f 543//543 544//544 545//545
f 547//547 543//543 545//545
f 547//547 545//545 546//546
f 549//549 547//547 546//546
f 549//549 546//546 548//548
f 551//551 549//549 548//548
f 551//551 548//548 550//550
f 553//553 554//554 552//552
f 554//554 557//557 552//552
f 552//552 557//557 555//555
f 555//555 556//556 552//552
f 556//556 558//558 552//552
f 558//558 559//559 552//552
f 562//562 552//552 559//559
f 560//560 552//552 562//562
f 560//560 561//561 552//552
f 563//563 562//562 559//559
f 560//560 562//562 564//564
f 559//559 565//565 563//563
f 570//570 566//566 559//559
f 559//559 567//567 568//568
f 567//567 559//559 558//558
f 568//568 569//569 559//559
f 570//570 559//559 569//569
f 571//571 570//570 573//573
f 574//574 572//572 570//570
f 572//572 573//573 570//570
f 570//570 569//569 574//574
f 575//575 570//570 577//577
f 575//575 576//576 570//570
f 578//578 570//570 576//576
f 566//566 570//570 578//578
f 566//566 578//578 579//579
f 566//566 579//579 580//580
f 581//581 566//566 580//580
f 581//581 582//582 566//566
f 582//582 584//584 583//583
f 583//583 566//566 582//582
f 583//583 584//584 585//585
f 583//583 585//585 586//586
f 586//586 587//587 583//583
f 583//583 587//587 589//589
f 589//589 587//587 588//588
f 589//589 595//595 590//590
f 590//590 591//591 589//589
f 589//589 591//591 592//592
f 589//589 592//592 593//593
f 589//589 594//594 595//595
f 589//589 588//588 594//594
f 590//590 595//595 596//596
f 596//596 597//597 590//590
f 598//598 597//597 596//596
f 598//598 599//599 597//597
f 597//597 599//599 577//577
f 600//600 577//577 599//599
f 600//600 601//601 577//577
f 577//577 601//601 602//602
f 575//575 577//577 602//602
f 597//597 577//577 603//603
f 604//604 591//591 590//590
f 604//604 590//590 605//605
f 606//606 566//566 583//583
f 571//571 573//573 607//607
f 571//571 607//607 608//608
f 609//609 571//571 608//608
f 571//571 609//609 610//610
f 611//611 571//571 610//610
f 611//611 610//610 612//612
f 613//613 614//614 612//612
f 614//614 611//611 612//612
f 614//614 613//613 615//615
f 615//615 613//613 616//616
f 617//617 615//615 616//616
f 617//617 616//616 619//619
f 619//619 618//618 617//617
f 621//621 620//620 619//619
f 616//616 621//621 619//619
f 618//618 619//619 622//622
f 622//622 623//623 618//618
f 623//623 622//622 624//624
f 624//624 625//625 623//623
f 625//625 624//624 626//626
f 626//626 627//627 629//629
f 627//627 626//626 628//628
f 634//634 626//626 629//629
f 630//630 633//633 626//626
f 626//626 631//631 630//630
f 626//626 634//634 631//631
f 625//625 626//626 632//632
f 632//632 626//626 633//633
f 641//641 635//635 634//634
f 636//636 634//634 637//637
f 636//636 631//631 634//634
f 638//638 637//637 634//634
f 639//639 638//638 634//634
f 634//634 640//640 639//639
f 641//641 634//634 629//629
f 642//642 643//643 640//640
f 644//644 640//640 643//643
f 647//647 640//640 644//644
f 640//640 645//645 648//648
f 645//645 640//640 646//646
f 647//647 646//646 640//640
f 639//639 640//640 648//648
f 649//649 639//639 648//648
f 639//639 649//649 650//650
f 639//639 650//650 651//651
f 651//651 650//650 652//652
f 651//651 652//652 653//653
f 653//653 654//654 651//651
f 651//651 654//654 655//655
f 655//655 656//656 657//657
f 657//657 651//651 655//655
f 659//659 658//658 657//657
f 657//657 656//656 659//659
f 651//651 657//657 660//660
f 659//659 661//661 658//658
f 658//658 661//661 662//662
f 662//662 661//661 663//663
f 664//664 662//662 663//663
f 664//664 665//665 662//662
f 643//643 665//665 666//666
f 662//662 665//665 643//643
f 667//667 643//643 666//666
f 643//643 667//667 668//668
f 643//643 668//668 644//644
f 662//662 669//669 658//658
f 662//662 670//670 669//669
f 670//670 662//662 671//671
f 672//672 658//658 669//669
f 658//658 672//672 673//673
f 639//639 674//674 677//677
f 674//674 639//639 675//675
f 638//638 639//639 676//676
f 677//677 676//676 639//639
f 680//680 674//674 675//675
f 675//675 678//678 680//680
f 678//678 675//675 679//679
f 675//675 611//611 679//679
f 675//675 571//571 611//611
f 675//675 681//681 571//571
f 682//682 681//681 675//675
f 681//681 683//683 571//571
f 627//627 684//684 629//629
f 620//620 621//621 685//685
f 685//685 554//554 553//553
f 553//553 620//620 685//685
