# joint_20 exported from /models/guards/joint_20.glb
# units: meters
v 0.019878 0.001000 -0.074179
v 0.019949 0.001000 -0.073034
v 0.018170 0.001000 -0.073613
v 0.021627 0.001000 -0.073945
v 0.023123 0.001000 -0.073010
v 0.022413 0.001000 -0.070644
v 0.019986 0.001000 -0.070608
v 0.021218 0.001000 -0.069412
v 0.022450 0.001000 -0.068217
v 0.024876 0.001000 -0.068253
v 0.025686 0.001000 -0.069088
v 0.024426 0.001000 -0.071746
v 0.025276 0.001000 -0.070576
v 0.025524 0.001000 -0.067549
v 0.024869 0.001000 -0.066245
v 0.008311 0.001000 -0.033682
v 0.023084 0.001000 -0.066406
v 0.021093 0.001000 -0.066022
v 0.023681 0.001000 -0.067021
v 0.006535 0.001000 -0.035407
v 0.021377 0.001000 -0.066692
v -0.003274 0.001000 -0.027229
v -0.005898 0.001000 -0.024942
v 0.007665 0.001000 -0.031522
v 0.005142 0.001000 -0.033971
v -0.010187 0.001000 -0.015450
v -0.014494 0.001000 -0.007142
v -0.015572 0.001000 -0.013219
v -0.011870 0.001000 -0.018640
v -0.013494 0.001000 -0.016491
v -0.009088 0.001000 -0.021817
v -0.017208 0.001000 -0.009887
v -0.018383 0.001000 -0.006498
v -0.015631 0.001000 0.001148
v -0.018791 0.001000 -0.004787
v -0.019077 0.001000 -0.003067
v -0.019276 0.001000 0.000386
v -0.018974 0.001000 0.003831
v -0.018177 0.001000 0.007240
v -0.013673 0.001000 0.009277
v -0.008796 0.001000 0.017112
v -0.015166 0.001000 0.013874
v -0.016901 0.001000 0.010592
v -0.012991 0.001000 0.017082
v -0.011304 0.001000 0.019182
v -0.008428 0.001000 0.022274
v -0.005146 0.001000 0.025302
v -0.002454 0.001000 0.027509
v 0.007595 0.001000 0.035390
v 0.006160 0.001000 0.033997
v 0.008609 0.001000 0.031473
v 0.023062 0.001000 0.065555
v 0.022638 0.001000 0.064680
v 0.022004 0.001000 0.062868
v 0.023199 0.001000 0.061637
v 0.023236 0.001000 0.064064
v 0.025663 0.001000 0.064028
v 0.024468 0.001000 0.065259
v 0.023870 0.001000 0.065875
v 0.027742 0.001000 0.068473
v 0.027533 0.001000 0.066939
v 0.026844 0.001000 0.065665
v 0.009319 0.001000 0.033613
v 0.027380 0.001000 0.069979
v 0.025736 0.001000 0.068882
v 0.024504 0.001000 0.067686
v 0.023907 0.001000 0.068302
v 0.023406 0.001000 0.066998
v 0.023366 0.001000 0.066216
v 0.023142 0.001000 0.067736
v 0.023309 0.001000 0.068918
v 0.022661 0.001000 0.068281
v 0.022712 0.001000 0.069533
v 0.021988 0.001000 0.068809
v 0.021435 0.001000 0.069115
v 0.020779 0.001000 0.069235
v 0.022114 0.001000 0.070149
v 0.021517 0.001000 0.070765
v 0.023346 0.001000 0.071344
v 0.023834 0.001000 0.073459
v 0.023944 0.001000 0.070729
v 0.022748 0.001000 0.071960
v 0.025302 0.001000 0.072480
v 0.024541 0.001000 0.070113
v 0.026566 0.001000 0.071177
v 0.025139 0.001000 0.069497
v 0.022151 0.001000 0.072576
v 0.020919 0.001000 0.071380
v 0.022093 0.001000 0.073745
v 0.020387 0.001000 0.073211
v 0.019027 0.001000 0.072362
v 0.018492 0.001000 0.071416
v 0.019687 0.001000 0.070185
v 0.018456 0.001000 0.068990
v 0.016029 0.001000 0.069026
v 0.016161 0.001000 0.066231
v 0.011723 0.001000 0.062572
v 0.007495 0.001000 0.058775
v 0.003495 0.001000 0.054844
v -0.012442 0.001000 0.039630
v 0.017224 0.001000 0.067794
v 0.019560 0.001000 0.068839
v 0.020120 0.001000 0.069131
v -0.021315 0.001000 0.020517
v -0.003753 0.001000 0.046610
v -0.000260 0.001000 0.050786
v -0.006970 0.001000 0.042323
v -0.014820 0.001000 0.028892
v -0.012516 0.001000 0.033454
v -0.009895 0.001000 0.037934
v -0.016798 0.001000 0.024259
v -0.018441 0.001000 0.019567
v -0.019741 0.001000 0.014826
v -0.020695 0.001000 0.010047
v -0.024567 0.001000 0.000470
v -0.021298 0.001000 0.005242
v -0.021547 0.001000 0.000420
v -0.021442 0.001000 -0.004407
v -0.020984 0.001000 -0.009229
v -0.021936 0.001000 -0.019665
v -0.020173 0.001000 -0.014034
v -0.019015 0.001000 -0.018812
v -0.017513 0.001000 -0.023551
v -0.015675 0.001000 -0.028241
v -0.013659 0.001000 -0.039034
v -0.013509 0.001000 -0.032869
v -0.011023 0.001000 -0.037426
v -0.008231 0.001000 -0.041900
v -0.005144 0.001000 -0.046282
v -0.001777 0.001000 -0.050561
v 0.001855 0.001000 -0.054729
v 0.016783 0.001000 -0.072687
v 0.005735 0.001000 -0.058778
v 0.009848 0.001000 -0.062701
v 0.014174 0.001000 -0.066491
v 0.017493 0.001000 -0.069199
v 0.018044 0.001000 -0.069508
v 0.018157 0.001000 -0.071187
v 0.018700 0.001000 -0.069631
v 0.019389 0.001000 -0.069992
v 0.019359 0.001000 -0.069532
v 0.019921 0.001000 -0.069242
v 0.020610 0.001000 -0.068735
v 0.021107 0.001000 -0.068204
v 0.021852 0.001000 -0.067601
v 0.021393 0.001000 -0.067475
v 0.018754 0.001000 -0.071803
v -0.002454 0.001000 0.027509
v -0.003813 0.001000 0.026421
v -0.002454 -0.001000 0.027509
v -0.003813 -0.001000 0.026421
v -0.005146 -0.001000 0.025302
v -0.005146 0.001000 0.025302
v -0.006814 -0.001000 0.023817
v -0.006814 0.001000 0.023817
v -0.008428 -0.001000 0.022274
v -0.008428 0.001000 0.022274
v -0.009898 -0.001000 0.020757
v -0.011304 -0.001000 0.019182
v -0.009898 0.001000 0.020757
v -0.011304 0.001000 0.019182
v -0.012164 0.001000 0.018145
v -0.012991 0.001000 0.017082
v -0.012164 -0.001000 0.018145
v -0.012991 -0.001000 0.017082
v -0.014120 -0.001000 0.015506
v -0.015166 -0.001000 0.013874
v -0.014120 0.001000 0.015506
v -0.015166 0.001000 0.013874
v -0.016082 0.001000 0.012258
v -0.016901 0.001000 0.010592
v -0.016082 -0.001000 0.012258
v -0.016901 -0.001000 0.010592
v -0.017593 -0.001000 0.008937
v -0.018177 -0.001000 0.007240
v -0.017593 0.001000 0.008937
v -0.018177 0.001000 0.007240
v -0.018634 0.001000 0.005549
v -0.018974 0.001000 0.003831
v -0.018634 -0.001000 0.005549
v -0.018974 -0.001000 0.003831
v -0.019187 -0.001000 0.002114
v -0.019276 -0.001000 0.000386
v -0.019187 0.001000 0.002114
v -0.019276 0.001000 0.000386
v -0.019239 0.001000 -0.001344
v -0.019077 0.001000 -0.003067
v -0.019239 -0.001000 -0.001344
v -0.019077 -0.001000 -0.003067
v -0.018791 -0.001000 -0.004787
v -0.018383 -0.001000 -0.006498
v -0.018791 0.001000 -0.004787
v -0.018383 0.001000 -0.006498
v -0.017850 0.001000 -0.008211
v -0.017208 0.001000 -0.009887
v -0.017850 -0.001000 -0.008211
v -0.017208 -0.001000 -0.009887
v -0.016438 -0.001000 -0.011576
v -0.015572 -0.001000 -0.013219
v -0.016438 0.001000 -0.011576
v -0.015572 0.001000 -0.013219
v -0.014575 0.001000 -0.014882
v -0.013494 0.001000 -0.016491
v -0.014575 -0.001000 -0.014882
v -0.013494 -0.001000 -0.016491
v -0.012698 -0.001000 -0.017578
v -0.011870 -0.001000 -0.018640
v -0.012698 0.001000 -0.017578
v -0.011870 0.001000 -0.018640
v -0.010512 0.001000 -0.020257
v -0.009088 0.001000 -0.021817
v -0.010512 -0.001000 -0.020257
v -0.009088 -0.001000 -0.021817
v -0.007521 -0.001000 -0.023408
v -0.005898 -0.001000 -0.024942
v -0.007521 0.001000 -0.023408
v -0.005898 0.001000 -0.024942
v -0.004599 0.001000 -0.026101
v -0.003274 0.001000 -0.027229
v -0.004599 -0.001000 -0.026101
v -0.003274 -0.001000 -0.027229
v -0.003274 0.001000 -0.027229
v -0.000576 0.001000 -0.031092
v -0.003274 -0.001000 -0.027229
v -0.000576 -0.001000 -0.031092
v 0.001921 -0.001000 -0.034946
v 0.001921 0.001000 -0.034946
v 0.004367 -0.001000 -0.038937
v 0.004367 0.001000 -0.038937
v 0.006912 -0.001000 -0.043209
v 0.009707 -0.001000 -0.047909
v 0.006912 0.001000 -0.043209
v 0.009707 0.001000 -0.047909
v 0.012902 0.001000 -0.053181
v 0.016647 0.001000 -0.059170
v 0.017733 0.000500 -0.060867
v 0.017733 0.000000 -0.060867
v 0.012902 -0.001000 -0.053181
v 0.016647 -0.001000 -0.059170
v 0.017733 -0.000500 -0.060867
v 0.019358 -0.000500 -0.063379
v 0.021093 0.000000 -0.066022
v 0.021093 -0.001000 -0.066022
v 0.019358 0.000000 -0.063379
v 0.019358 0.000500 -0.063379
v 0.021093 0.001000 -0.066022
v 0.020610 -0.001000 -0.068735
v 0.019921 -0.001000 -0.069242
v 0.020610 0.000000 -0.068735
v 0.019921 0.000000 -0.069242
v 0.020610 0.001000 -0.068735
v 0.019921 0.001000 -0.069242
v 0.017493 -0.001000 -0.069199
v 0.015824 -0.001000 -0.067857
v 0.017493 0.000000 -0.069199
v 0.017493 0.001000 -0.069199
v 0.015824 0.001000 -0.067857
v 0.014174 0.001000 -0.066491
v 0.011991 0.001000 -0.064618
v 0.014174 -0.001000 -0.066491
v 0.011991 -0.001000 -0.064618
v 0.009848 -0.001000 -0.062701
v 0.007770 -0.001000 -0.060762
v 0.009848 0.001000 -0.062701
v 0.007770 0.001000 -0.060762
v 0.005735 0.001000 -0.058778
v 0.003772 0.001000 -0.056776
v 0.005735 -0.001000 -0.058778
v 0.003772 -0.001000 -0.056776
v 0.001855 -0.001000 -0.054729
v 0.000014 -0.001000 -0.052667
v 0.001855 0.001000 -0.054729
v 0.000014 0.001000 -0.052667
v -0.001777 0.001000 -0.050561
v -0.003488 0.001000 -0.048443
v -0.001777 -0.001000 -0.050561
v -0.003488 -0.001000 -0.048443
v -0.005144 -0.001000 -0.046282
v -0.006717 -0.001000 -0.044112
v -0.005144 0.001000 -0.046282
v -0.006717 0.001000 -0.044112
v -0.008231 0.001000 -0.041900
v -0.009659 0.001000 -0.039683
v -0.008231 -0.001000 -0.041900
v -0.009659 -0.001000 -0.039683
v -0.011023 -0.001000 -0.037426
v -0.012300 -0.001000 -0.035166
v -0.011023 0.001000 -0.037426
v -0.012300 0.001000 -0.035166
v -0.013509 0.001000 -0.032869
v -0.014628 0.001000 -0.030572
v -0.013509 -0.001000 -0.032869
v -0.014628 -0.001000 -0.030572
v -0.015675 -0.001000 -0.028241
v -0.016633 -0.001000 -0.025911
v -0.015675 0.001000 -0.028241
v -0.016633 0.001000 -0.025911
v -0.017513 0.001000 -0.023551
v -0.018304 0.001000 -0.021194
v -0.017513 -0.001000 -0.023551
v -0.018304 -0.001000 -0.021194
v -0.019015 -0.001000 -0.018812
v -0.019015 0.001000 -0.018812
v -0.019636 -0.001000 -0.016433
v -0.020173 -0.001000 -0.014034
v -0.019636 0.001000 -0.016433
v -0.020173 0.001000 -0.014034
v -0.020622 0.001000 -0.011639
v -0.020622 -0.001000 -0.011639
v -0.020984 0.001000 -0.009229
v -0.020984 -0.001000 -0.009229
v -0.021257 0.001000 -0.006822
v -0.021442 0.001000 -0.004407
v -0.021257 -0.001000 -0.006822
v -0.021442 -0.001000 -0.004407
v -0.021539 -0.001000 -0.001995
v -0.021539 0.001000 -0.001995
v -0.021547 -0.001000 0.000420
v -0.021547 0.001000 0.000420
v -0.021467 -0.001000 0.002833
v -0.021467 0.001000 0.002833
v -0.021298 -0.001000 0.005242
v -0.021040 -0.001000 0.007650
v -0.021298 0.001000 0.005242
v -0.021040 0.001000 0.007650
v -0.020695 0.001000 0.010047
v -0.020695 -0.001000 0.010047
v -0.020261 0.001000 0.012445
v -0.020261 -0.001000 0.012445
v -0.019741 0.001000 0.014826
v -0.019132 0.001000 0.017208
v -0.019741 -0.001000 0.014826
v -0.019132 -0.001000 0.017208
v -0.018441 -0.001000 0.019567
v -0.017659 -0.001000 0.021927
v -0.018441 0.001000 0.019567
v -0.017659 0.001000 0.021927
v -0.016798 0.001000 0.024259
v -0.015847 0.001000 0.026592
v -0.016798 -0.001000 0.024259
v -0.015847 -0.001000 0.026592
v -0.014820 -0.001000 0.028892
v -0.013704 -0.001000 0.031191
v -0.014820 0.001000 0.028892
v -0.013704 0.001000 0.031191
v -0.012516 0.001000 0.033454
v -0.011239 0.001000 0.035713
v -0.012516 -0.001000 0.033454
v -0.011239 -0.001000 0.035713
v -0.009895 -0.001000 0.037934
v -0.008464 -0.001000 0.040149
v -0.009895 0.001000 0.037934
v -0.008464 0.001000 0.040149
v -0.006970 0.001000 0.042323
v -0.005391 0.001000 0.044488
v -0.006970 -0.001000 0.042323
v -0.005391 -0.001000 0.044488
v -0.003753 -0.001000 0.046610
v -0.002033 -0.001000 0.048721
v -0.003753 0.001000 0.046610
v -0.002033 0.001000 0.048721
v -0.000260 0.001000 0.050786
v 0.001593 0.001000 0.052838
v -0.000260 -0.001000 0.050786
v 0.001593 -0.001000 0.052838
v 0.003495 -0.001000 0.054844
v 0.005473 -0.001000 0.056832
v 0.003495 0.001000 0.054844
v 0.005473 0.001000 0.056832
v 0.007495 0.001000 0.058775
v 0.009589 0.001000 0.060697
v 0.007495 -0.001000 0.058775
v 0.009589 -0.001000 0.060697
v 0.011723 -0.001000 0.062572
v 0.013923 -0.001000 0.064425
v 0.011723 0.001000 0.062572
v 0.013923 0.001000 0.064425
v 0.016161 0.001000 0.066231
v 0.017851 0.001000 0.067547
v 0.016161 -0.001000 0.066231
v 0.017851 -0.001000 0.067547
v 0.019560 -0.000000 0.068839
v 0.019560 -0.001000 0.068839
v 0.019560 0.001000 0.068839
v 0.017493 -0.001000 -0.069199
v 0.017493 0.000000 -0.069199
v 0.018044 -0.001000 -0.069508
v 0.018700 -0.001000 -0.069631
v 0.018044 0.001000 -0.069508
v 0.017493 0.001000 -0.069199
v 0.018700 0.001000 -0.069631
v 0.019359 0.001000 -0.069532
v 0.019359 -0.001000 -0.069532
v 0.019921 0.001000 -0.069242
v 0.019921 0.000000 -0.069242
v 0.019921 -0.001000 -0.069242
v 0.020610 -0.001000 -0.068735
v 0.021107 -0.001000 -0.068204
v 0.020610 0.000000 -0.068735
v 0.021107 0.001000 -0.068204
v 0.020610 0.001000 -0.068735
v 0.021393 0.001000 -0.067475
v 0.021393 -0.001000 -0.067475
v 0.021377 0.001000 -0.066692
v 0.021093 0.001000 -0.066022
v 0.021093 0.000000 -0.066022
v 0.021377 -0.001000 -0.066692
v 0.021093 -0.001000 -0.066022
v 0.021988 -0.001000 0.068809
v 0.022661 -0.001000 0.068281
v 0.021988 -0.000000 0.068809
v 0.021988 0.001000 0.068809
v 0.022661 -0.000000 0.068281
v 0.022661 0.001000 0.068281
v -0.002454 -0.001000 0.027509
v -0.002454 0.001000 0.027509
v 0.000358 -0.001000 0.031290
v 0.000358 0.001000 0.031290
v 0.002969 -0.001000 0.035068
v 0.002969 0.001000 0.035068
v 0.005533 -0.001000 0.038983
v 0.005533 0.001000 0.038983
v 0.008206 -0.001000 0.043178
v 0.011140 -0.001000 0.047791
v 0.008206 0.001000 0.043178
v 0.011140 0.001000 0.047791
v 0.014491 0.001000 0.052965
v 0.019611 0.000500 0.060593
v 0.018414 0.001000 0.058839
v 0.014491 -0.001000 0.052965
v 0.019611 -0.000000 0.060593
v 0.021282 -0.000000 0.063012
v 0.019611 -0.000500 0.060593
v 0.018414 -0.001000 0.058839
v 0.021282 -0.000500 0.063012
v 0.023062 -0.001000 0.065555
v 0.023062 -0.000000 0.065555
v 0.023062 0.001000 0.065555
v 0.021282 0.000500 0.063012
v 0.021988 -0.001000 0.068809
v 0.021988 -0.000000 0.068809
v 0.021435 -0.001000 0.069115
v 0.020779 -0.001000 0.069235
v 0.021435 0.001000 0.069115
v 0.021988 0.001000 0.068809
v 0.020779 0.001000 0.069235
v 0.020120 0.001000 0.069131
v 0.020120 -0.001000 0.069131
v 0.019560 0.001000 0.068839
v 0.019560 -0.000000 0.068839
v 0.019560 -0.001000 0.068839
v 0.023062 -0.001000 0.065555
v 0.023366 -0.001000 0.066216
v 0.023062 -0.000000 0.065555
v 0.023366 0.001000 0.066216
v 0.023062 0.001000 0.065555
v 0.023406 0.001000 0.066998
v 0.023406 -0.001000 0.066998
v 0.023142 0.001000 0.067736
v 0.022661 -0.000000 0.068281
v 0.023142 -0.001000 0.067736
v 0.022661 0.001000 0.068281
v 0.022661 -0.001000 0.068281
v 0.019878 -0.001000 -0.074179
v 0.018228 -0.001000 -0.073641
v 0.019878 0.000000 -0.074179
v 0.019878 0.001000 -0.074179
v 0.018228 0.001000 -0.073641
v 0.016783 0.000000 -0.072687
v 0.016783 0.001000 -0.072687
v 0.016783 -0.001000 -0.072687
v 0.016783 -0.001000 -0.072687
v 0.014547 -0.000500 -0.070913
v 0.014547 -0.001000 -0.070913
v 0.016783 0.000000 -0.072687
v 0.014547 0.000000 -0.070913
v 0.014547 0.000500 -0.070913
v 0.016783 0.001000 -0.072687
v 0.014547 0.001000 -0.070913
v 0.012354 0.001000 -0.069105
v 0.012354 0.000500 -0.069105
v 0.008103 0.001000 -0.065388
v 0.008103 0.000000 -0.065388
v -0.000628 0.001000 -0.056660
v -0.000628 -0.001000 -0.056660
v -0.008063 0.001000 -0.047565
v -0.008063 -0.001000 -0.047565
v -0.014264 0.001000 -0.037979
v -0.014264 -0.001000 -0.037979
v -0.019128 0.001000 -0.027913
v -0.019128 -0.001000 -0.027913
v -0.022575 0.001000 -0.017209
v -0.022575 -0.001000 -0.017209
v -0.024381 0.001000 -0.005778
v -0.024381 -0.001000 -0.005778
v -0.024280 0.001000 0.005778
v -0.024280 -0.001000 0.005778
v -0.022276 0.001000 0.017159
v -0.022276 -0.001000 0.017159
v -0.018505 0.001000 0.028097
v -0.018505 -0.001000 0.028097
v -0.013446 0.001000 0.037983
v -0.013446 -0.001000 0.037983
v -0.007020 0.001000 0.047429
v -0.007020 -0.001000 0.047429
v 0.000638 0.001000 0.056350
v 0.000638 -0.001000 0.056350
v 0.009375 0.001000 0.064677
v 0.009375 -0.000000 0.064677
v 0.009375 -0.001000 0.064677
v 0.014097 -0.000000 0.068602
v 0.014097 -0.000500 0.068602
v 0.014097 0.000500 0.068602
v 0.016537 0.000500 0.070503
v 0.014097 0.001000 0.068602
v 0.016537 0.001000 0.070503
v 0.019027 0.001000 0.072362
v 0.019027 -0.000000 0.072362
v 0.016537 -0.000500 0.070503
v 0.016537 -0.000000 0.070503
v 0.019027 -0.001000 0.072362
v 0.016537 -0.001000 0.070503
v 0.014097 -0.001000 0.068602
v 0.008103 -0.001000 -0.065388
v 0.012354 -0.001000 -0.069105
v 0.012354 -0.000500 -0.069105
v 0.012354 0.000000 -0.069105
v 0.019027 -0.001000 0.072362
v 0.020451 -0.001000 0.073239
v 0.019027 -0.000000 0.072362
v 0.019027 0.001000 0.072362
v 0.020451 0.001000 0.073239
v 0.022093 0.001000 0.073745
v 0.022093 -0.000000 0.073745
v 0.022093 -0.001000 0.073745
v 0.026844 -0.001000 0.065665
v 0.025461 -0.000500 0.063881
v 0.025461 -0.001000 0.063881
v 0.026844 -0.000000 0.065665
v 0.026844 0.001000 0.065665
v 0.025461 -0.000000 0.063881
v 0.025461 0.000500 0.063881
v 0.024104 0.000500 0.062052
v 0.025461 0.001000 0.063881
v 0.024104 0.001000 0.062052
v 0.021473 0.001000 0.058257
v 0.021473 -0.000000 0.058257
v 0.016797 0.001000 0.050514
v 0.016797 -0.001000 0.050514
v 0.012727 0.001000 0.042290
v 0.012727 -0.000000 0.042290
v 0.012727 -0.001000 0.042290
v 0.010934 -0.000000 0.038001
v 0.010934 -0.000500 0.038001
v 0.010934 0.000500 0.038001
v 0.010104 0.000500 0.035819
v 0.010934 0.001000 0.038001
v 0.010104 0.001000 0.035819
v 0.009319 0.001000 0.033613
v 0.009319 -0.000000 0.033613
v 0.010104 -0.000500 0.035819
v 0.010104 -0.000000 0.035819
v 0.009319 -0.001000 0.033613
v 0.010104 -0.001000 0.035819
v 0.010934 -0.001000 0.038001
v 0.021473 -0.001000 0.058257
v 0.024104 -0.001000 0.062052
v 0.024104 -0.000500 0.062052
v 0.024104 -0.000000 0.062052
v 0.009319 -0.001000 0.033613
v 0.009319 -0.000000 0.033613
v 0.007595 -0.001000 0.035390
v 0.007595 -0.000000 0.035390
v 0.007595 0.001000 0.035390
v 0.009319 0.001000 0.033613
v 0.007595 -0.001000 0.035390
v 0.006160 -0.001000 0.033997
v 0.007595 -0.000000 0.035390
v 0.007595 0.001000 0.035390
v 0.006160 -0.000000 0.033997
v 0.006160 0.001000 0.033997
v 0.006160 -0.001000 0.033997
v 0.006160 -0.000000 0.033997
v 0.008609 -0.001000 0.031473
v 0.008609 0.001000 0.031473
v 0.006160 0.001000 0.033997
v 0.008609 -0.001000 0.031473
v 0.003539 -0.000000 0.028168
v 0.003539 -0.001000 0.028168
v 0.008609 0.001000 0.031473
v 0.003539 0.001000 0.028168
v -0.001021 0.001000 0.024737
v -0.001021 -0.000000 0.024737
v -0.009494 0.001000 0.016234
v -0.009494 -0.001000 0.016234
v -0.014749 0.001000 0.006296
v -0.014749 -0.001000 0.006296
v -0.015119 0.001000 -0.004865
v -0.015119 -0.001000 -0.004865
v -0.010338 0.001000 -0.015237
v -0.010338 -0.001000 -0.015237
v -0.002445 0.001000 -0.023899
v -0.002445 0.000000 -0.023899
v -0.002445 -0.001000 -0.023899
v 0.002276 0.000000 -0.027751
v 0.002276 -0.001000 -0.027751
v 0.007665 -0.001000 -0.031522
v 0.007665 0.001000 -0.031522
v 0.002276 0.001000 -0.027751
v -0.001021 -0.001000 0.024737
v 0.007665 -0.001000 -0.031522
v 0.005142 0.000000 -0.033971
v 0.005142 -0.001000 -0.033971
v 0.007665 0.001000 -0.031522
v 0.005142 0.001000 -0.033971
v 0.005142 -0.001000 -0.033971
v 0.005142 0.000000 -0.033971
v 0.006535 -0.001000 -0.035407
v 0.006535 0.000000 -0.035407
v 0.006535 0.001000 -0.035407
v 0.005142 0.001000 -0.033971
v 0.006535 -0.001000 -0.035407
v 0.006535 0.000000 -0.035407
v 0.008311 -0.001000 -0.033682
v 0.008311 0.000000 -0.033682
v 0.008311 0.001000 -0.033682
v 0.006535 0.001000 -0.035407
v 0.023123 -0.001000 -0.073010
v 0.023123 0.000000 -0.073010
v 0.021621 -0.001000 -0.073947
v 0.021621 0.001000 -0.073947
v 0.019878 0.000000 -0.074179
v 0.019878 -0.001000 -0.074179
v 0.019878 0.001000 -0.074179
v 0.023123 0.001000 -0.073010
v 0.022093 -0.001000 0.073745
v 0.022093 -0.000000 0.073745
v 0.023840 -0.001000 0.073456
v 0.023840 0.001000 0.073456
v 0.025302 -0.000000 0.072480
v 0.025302 -0.001000 0.072480
v 0.025302 0.001000 0.072480
v 0.022093 0.001000 0.073745
v 0.025302 -0.001000 0.072480
v 0.025302 -0.000000 0.072480
v 0.026566 -0.001000 0.071177
v 0.026566 -0.000000 0.071177
v 0.026566 0.001000 0.071177
v 0.025302 0.001000 0.072480
v 0.026566 -0.001000 0.071177
v 0.027396 -0.001000 0.069941
v 0.026566 -0.000000 0.071177
v 0.027396 0.001000 0.069941
v 0.026566 0.001000 0.071177
v 0.027744 0.001000 0.068440
v 0.027528 0.001000 0.066924
v 0.027744 -0.001000 0.068440
v 0.027528 -0.001000 0.066924
v 0.026844 -0.000000 0.065665
v 0.026844 -0.001000 0.065665
v 0.026844 0.001000 0.065665
v 0.008311 -0.001000 -0.033682
v 0.008996 -0.000500 -0.035803
v 0.008996 -0.001000 -0.035803
v 0.008311 0.000000 -0.033682
v 0.008996 0.000000 -0.035803
v 0.008996 0.000500 -0.035803
v 0.008311 0.001000 -0.033682
v 0.008996 0.001000 -0.035803
v 0.009740 0.001000 -0.037946
v 0.009740 0.000500 -0.037946
v 0.011404 0.001000 -0.042276
v 0.011404 0.000000 -0.042276
v 0.015284 0.001000 -0.050734
v 0.015284 -0.001000 -0.050734
v 0.019839 0.001000 -0.058832
v 0.019839 0.000000 -0.058832
v 0.019839 -0.001000 -0.058832
v 0.022309 0.000000 -0.062644
v 0.022309 -0.000500 -0.062644
v 0.022309 0.000500 -0.062644
v 0.023580 0.000500 -0.064473
v 0.022309 0.001000 -0.062644
v 0.023580 0.001000 -0.064473
v 0.024869 0.001000 -0.066245
v 0.024869 0.000000 -0.066245
v 0.024869 -0.001000 -0.066245
v 0.023580 0.000000 -0.064473
v 0.023580 -0.000500 -0.064473
v 0.023580 -0.001000 -0.064473
v 0.022309 -0.001000 -0.062644
v 0.011404 -0.001000 -0.042276
v 0.009740 -0.001000 -0.037946
v 0.009740 -0.000500 -0.037946
v 0.009740 0.000000 -0.037946
v 0.024869 -0.001000 -0.066245
v 0.025533 -0.001000 -0.067579
v 0.024869 0.000000 -0.066245
v 0.024869 0.001000 -0.066245
v 0.025533 0.001000 -0.067579
v 0.025684 0.001000 -0.069113
v 0.025684 -0.001000 -0.069113
v 0.025271 0.001000 -0.070587
v 0.024426 0.001000 -0.071746
v 0.024426 0.000000 -0.071746
v 0.025271 -0.001000 -0.070587
v 0.024426 -0.001000 -0.071746
v 0.024426 -0.001000 -0.071746
v 0.024426 0.000000 -0.071746
v 0.023123 -0.001000 -0.073010
v 0.023123 0.000000 -0.073010
v 0.023123 0.001000 -0.073010
v 0.024426 0.001000 -0.071746
v 0.016783 -0.001000 -0.072687
v 0.018700 -0.001000 -0.069631
v 0.018170 -0.001000 -0.073613
v 0.018044 -0.001000 -0.069508
v 0.017493 -0.001000 -0.069199
v 0.005735 -0.001000 -0.058778
v 0.009848 -0.001000 -0.062701
v 0.014174 -0.001000 -0.066491
v 0.001855 -0.001000 -0.054729
v -0.013659 -0.001000 -0.039034
v -0.021936 -0.001000 -0.019665
v -0.015675 -0.001000 -0.028241
v -0.013509 -0.001000 -0.032869
v -0.011023 -0.001000 -0.037426
v -0.008231 -0.001000 -0.041900
v -0.005144 -0.001000 -0.046282
v -0.001777 -0.001000 -0.050561
v -0.017513 -0.001000 -0.023551
v -0.019015 -0.001000 -0.018812
v -0.020173 -0.001000 -0.014034
v -0.020984 -0.001000 -0.009229
v -0.021442 -0.001000 -0.004407
v -0.024567 -0.001000 0.000470
v -0.021315 -0.001000 0.020517
v -0.020695 -0.001000 0.010047
v -0.021298 -0.001000 0.005242
v -0.021547 -0.001000 0.000420
v -0.019741 -0.001000 0.014826
v -0.018441 -0.001000 0.019567
v -0.016798 -0.001000 0.024259
v -0.014820 -0.001000 0.028892
v -0.012442 -0.001000 0.039630
v -0.012516 -0.001000 0.033454
v -0.009895 -0.001000 0.037934
v -0.006970 -0.001000 0.042323
v -0.003753 -0.001000 0.046610
v -0.000260 -0.001000 0.050786
v 0.003495 -0.001000 0.054844
v 0.019027 -0.001000 0.072362
v 0.007495 -0.001000 0.058775
v 0.011723 -0.001000 0.062572
v 0.016161 -0.001000 0.066231
v 0.019560 -0.001000 0.068839
v 0.020120 -0.001000 0.069131
v 0.020779 -0.001000 0.069235
v 0.021435 -0.001000 0.069115
v 0.020387 -0.001000 0.073211
v 0.022093 -0.001000 0.073745
v 0.023834 -0.001000 0.073459
v 0.025302 -0.001000 0.072480
v 0.021988 -0.001000 0.068809
v 0.022661 -0.001000 0.068281
v 0.023142 -0.001000 0.067736
v 0.026566 -0.001000 0.071177
v 0.027380 -0.001000 0.069979
v 0.027742 -0.001000 0.068473
v 0.027533 -0.001000 0.066939
v 0.023406 -0.001000 0.066998
v 0.026844 -0.001000 0.065665
v 0.023366 -0.001000 0.066216
v 0.023062 -0.001000 0.065555
v 0.007595 -0.001000 0.035390
v 0.009319 -0.001000 0.033613
v -0.002454 -0.001000 0.027509
v 0.006160 -0.001000 0.033997
v -0.005146 -0.001000 0.025302
v -0.008796 -0.001000 0.017112
v 0.008609 -0.001000 0.031473
v -0.013673 -0.001000 0.009277
v -0.015166 -0.001000 0.013874
v -0.012991 -0.001000 0.017082
v -0.011304 -0.001000 0.019182
v -0.008428 -0.001000 0.022274
v -0.016901 -0.001000 0.010592
v -0.018177 -0.001000 0.007240
v -0.018974 -0.001000 0.003831
v -0.015631 -0.001000 0.001148
v -0.014494 -0.001000 -0.007142
v -0.019276 -0.001000 0.000386
v -0.019077 -0.001000 -0.003067
v -0.018791 -0.001000 -0.004787
v -0.018383 -0.001000 -0.006498
v -0.017208 -0.001000 -0.009887
v -0.015572 -0.001000 -0.013219
v -0.013494 -0.001000 -0.016491
v -0.010187 -0.001000 -0.015450
v 0.007665 -0.001000 -0.031522
v -0.003274 -0.001000 -0.027229
v -0.005898 -0.001000 -0.024942
v -0.009088 -0.001000 -0.021817
v -0.011870 -0.001000 -0.018640
v 0.005142 -0.001000 -0.033971
v 0.021093 -0.001000 -0.066022
v 0.006535 -0.001000 -0.035407
v 0.008311 -0.001000 -0.033682
v 0.024869 -0.001000 -0.066245
v 0.025524 -0.001000 -0.067549
v 0.021393 -0.001000 -0.067475
v 0.021377 -0.001000 -0.066692
v 0.021107 -0.001000 -0.068204
v 0.025686 -0.001000 -0.069088
v 0.025276 -0.001000 -0.070576
v 0.024426 -0.001000 -0.071746
v 0.023123 -0.001000 -0.073010
v 0.020610 -0.001000 -0.068735
v 0.019921 -0.001000 -0.069242
v 0.019359 -0.001000 -0.069532
v 0.021627 -0.001000 -0.073945
v 0.019878 -0.001000 -0.074179
vn 0.000000 1.000000 0.000000
vn 0.000000 1.000000 0.000000
vn 0.000000 1.000000 0.000000
vn 0.000000 1.000000 0.000000
vn 0.000000 1.000000 0.000000
vn 0.000000 1.000000 0.000000
vn 0.000000 1.000000 0.000000
vn 0.000000 1.000000 0.000000
vn 0.000000 1.000000 0.000000
vn 0.000000 1.000000 0.000000
vn 0.000000 1.000000 0.000000
vn 0.000000 1.000000 0.000000
vn 0.000000 1.000000 0.000000
vn 0.000000 1.000000 0.000000
vn 0.000000 1.000000 0.000000
vn 0.000000 1.000000 0.000000
vn 0.000000 1.000000 0.000000
vn 0.000000 1.000000 0.000000
vn 0.000000 1.000000 0.000000
vn 0.000000 1.000000 0.000000
vn 0.000000 1.000000 0.000000
vn 0.000000 1.000000 0.000000
vn 0.000000 1.000000 0.000000
vn 0.000000 1.000000 0.000000
vn 0.000000 1.000000 0.000000
vn 0.000000 1.000000 0.000000
vn 0.000000 1.000000 0.000000
vn 0.000000 1.000000 0.000000
vn 0.000000 1.000000 0.000000
vn 0.000000 1.000000 0.000000
vn 0.000000 1.000000 0.000000
vn 0.000000 1.000000 0.000000
vn 0.000000 1.000000 0.000000
vn 0.000000 1.000000 0.000000
vn 0.000000 1.000000 0.000000
vn 0.000000 1.000000 0.000000
vn 0.000000 1.000000 0.000000
vn 0.000000 1.000000 0.000000
vn 0.000000 1.000000 0.000000
vn 0.000000 1.000000 0.000000
vn 0.000000 1.000000 0.000000
vn 0.000000 1.000000 0.000000
vn 0.000000 1.000000 0.000000
vn 0.000000 1.000000 0.000000
vn 0.000000 1.000000 0.000000
vn 0.000000 1.000000 0.000000
vn 0.000000 1.000000 0.000000
vn 0.000000 1.000000 0.000000
vn 0.000000 1.000000 0.000000
vn 0.000000 1.000000 0.000000
vn 0.000000 1.000000 0.000000
vn 0.000000 1.000000 0.000000
vn 0.000000 1.000000 0.000000
vn 0.000000 1.000000 0.000000
vn 0.000000 1.000000 0.000000
vn 0.000000 1.000000 0.000000
vn 0.000000 1.000000 0.000000
vn 0.000000 1.000000 0.000000
vn 0.000000 1.000000 0.000000
vn 0.000000 1.000000 0.000000
vn 0.000000 1.000000 0.000000
vn 0.000000 1.000000 0.000000
vn 0.000000 1.000000 0.000000
vn 0.000000 1.000000 0.000000
vn 0.000000 1.000000 0.000000
vn 0.000000 1.000000 0.000000
vn 0.000000 1.000000 0.000000
vn 0.000000 1.000000 0.000000
vn 0.000000 1.000000 0.000000
vn 0.000000 1.000000 0.000000
vn 0.000000 1.000000 0.000000
vn 0.000000 1.000000 0.000000
vn 0.000000 1.000000 0.000000
vn 0.000000 1.000000 0.000000
vn 0.000000 1.000000 0.000000
vn 0.000000 1.000000 0.000000
vn 0.000000 1.000000 0.000000
vn 0.000000 1.000000 0.000000
vn 0.000000 1.000000 0.000000
vn 0.000000 1.000000 0.000000
vn 0.000000 1.000000 0.000000
vn 0.000000 1.000000 0.000000
vn 0.000000 1.000000 0.000000
vn 0.000000 1.000000 0.000000
vn 0.000000 1.000000 0.000000
vn 0.000000 1.000000 0.000000
vn 0.000000 1.000000 0.000000
vn 0.000000 1.000000 0.000000
vn 0.000000 1.000000 0.000000
vn 0.000000 1.000000 0.000000
vn 0.000000 1.000000 0.000000
vn 0.000000 1.000000 0.000000
vn 0.000000 1.000000 0.000000
vn 0.000000 1.000000 0.000000
vn 0.000000 1.000000 0.000000
vn 0.000000 1.000000 0.000000
vn 0.000000 1.000000 0.000000
vn 0.000000 1.000000 0.000000
vn 0.000000 1.000000 0.000000
vn 0.000000 1.000000 0.000000
vn 0.000000 1.000000 0.000000
vn 0.000000 1.000000 0.000000
vn 0.000000 1.000000 0.000000
vn 0.000000 1.000000 0.000000
vn 0.000000 1.000000 0.000000
vn 0.000000 1.000000 0.000000
vn 0.000000 1.000000 0.000000
vn 0.000000 1.000000 0.000000
vn 0.000000 1.000000 0.000000
vn 0.000000 1.000000 0.000000
vn 0.000000 1.000000 0.000000
vn 0.000000 1.000000 0.000000
vn 0.000000 1.000000 0.000000
vn 0.000000 1.000000 0.000000
vn 0.000000 1.000000 0.000000
vn 0.000000 1.000000 0.000000
vn 0.000000 1.000000 0.000000
vn 0.000000 1.000000 0.000000
vn 0.000000 1.000000 0.000000
vn 0.000000 1.000000 0.000000
vn 0.000000 1.000000 0.000000
vn 0.000000 1.000000 0.000000
vn 0.000000 1.000000 0.000000
vn 0.000000 1.000000 0.000000
vn 0.000000 1.000000 0.000000
vn 0.000000 1.000000 0.000000
vn 0.000000 1.000000 0.000000
vn 0.000000 1.000000 0.000000
vn 0.000000 1.000000 0.000000
vn 0.000000 1.000000 0.000000
vn 0.000000 1.000000 0.000000
vn 0.000000 1.000000 0.000000
vn 0.000000 1.000000 0.000000
vn 0.000000 1.000000 0.000000
vn 0.000000 1.000000 0.000000
vn 0.000000 1.000000 0.000000
vn 0.000000 1.000000 0.000000
vn 0.000000 1.000000 0.000000
vn 0.000000 1.000000 0.000000
vn 0.000000 1.000000 0.000000
vn 0.000000 1.000000 0.000000
vn 0.000000 1.000000 0.000000
vn 0.000000 1.000000 0.000000
vn 0.000000 1.000000 0.000000
vn 0.000000 1.000000 0.000000
vn 0.000000 1.000000 0.000000
vn 0.000000 1.000000 0.000000
vn -0.616368 -0.000000 0.787459
vn -0.634125 -0.000000 0.773231
vn -0.616368 -0.000000 0.787459
vn -0.634125 -0.000000 0.773231
vn -0.652388 -0.000000 0.757886
vn -0.652388 -0.000000 0.757886
vn -0.678085 -0.000000 0.734984
vn -0.678085 -0.000000 0.734984
vn -0.704703 -0.000000 0.709503
vn -0.704703 -0.000000 0.709503
vn -0.731906 -0.000000 0.681406
vn -0.760378 -0.000000 0.649481
vn -0.731906 -0.000000 0.681406
vn -0.760378 -0.000000 0.649481
vn -0.779276 -0.000000 0.626681
vn -0.798714 -0.000000 0.601711
vn -0.779276 -0.000000 0.626681
vn -0.798714 -0.000000 0.601711
vn -0.827406 -0.000000 0.561604
vn -0.856291 -0.000000 0.516494
vn -0.827406 -0.000000 0.561604
vn -0.856291 -0.000000 0.516494
vn -0.883722 -0.000000 0.468012
vn -0.910411 -0.000000 0.413705
vn -0.883722 -0.000000 0.468012
vn -0.910411 -0.000000 0.413705
vn -0.934408 -0.000000 0.356203
vn -0.955870 -0.000000 0.293791
vn -0.934408 -0.000000 0.356203
vn -0.955870 -0.000000 0.293791
vn -0.973757 -0.000000 0.227590
vn -0.987360 -0.000000 0.158494
vn -0.973757 -0.000000 0.227590
vn -0.987360 -0.000000 0.158494
vn -0.996182 -0.000000 0.087298
vn -0.999887 -0.000000 0.015000
vn -0.996182 -0.000000 0.087298
vn -0.999887 -0.000000 0.015000
vn -0.998345 0.000000 -0.057503
vn -0.991671 0.000000 -0.128796
vn -0.998345 0.000000 -0.057503
vn -0.991671 0.000000 -0.128796
vn -0.980163 0.000000 -0.198193
vn -0.964329 0.000000 -0.264708
vn -0.980163 0.000000 -0.198193
vn -0.964329 0.000000 -0.264708
vn -0.944711 0.000000 -0.327904
vn -0.922205 0.000000 -0.386702
vn -0.944711 0.000000 -0.327904
vn -0.922205 0.000000 -0.386702
vn -0.897367 0.000000 -0.441284
vn -0.871389 0.000000 -0.490594
vn -0.897367 0.000000 -0.441284
vn -0.871389 0.000000 -0.490594
vn -0.843781 0.000000 -0.536688
vn -0.816347 0.000000 -0.577562
vn -0.843781 0.000000 -0.536688
vn -0.816347 0.000000 -0.577562
vn -0.797895 0.000000 -0.602796
vn -0.779501 0.000000 -0.626401
vn -0.797895 0.000000 -0.602796
vn -0.779501 0.000000 -0.626401
vn -0.751889 0.000000 -0.659290
vn -0.725608 0.000000 -0.688108
vn -0.751889 0.000000 -0.659290
vn -0.725608 0.000000 -0.688108
vn -0.699769 0.000000 -0.714369
vn -0.674800 0.000000 -0.738000
vn -0.699769 0.000000 -0.714369
vn -0.674800 0.000000 -0.738000
vn -0.656619 0.000000 -0.754222
vn -0.639604 0.000000 -0.768705
vn -0.656619 0.000000 -0.754222
vn -0.639604 0.000000 -0.768705
vn -0.808710 0.000000 -0.588207
vn -0.830462 0.000000 -0.557075
vn -0.808710 0.000000 -0.588207
vn -0.830462 0.000000 -0.557075
vn -0.846997 0.000000 -0.531598
vn -0.846997 0.000000 -0.531598
vn -0.856892 0.000000 -0.515495
vn -0.856892 0.000000 -0.515495
vn -0.860181 0.000000 -0.509989
vn -0.858022 0.000000 -0.513613
vn -0.860181 0.000000 -0.509989
vn -0.858022 0.000000 -0.513613
vn -0.851974 0.000000 -0.523584
vn -0.843707 0.000000 -0.536804
vn -0.841286 0.000100 -0.540591
vn -0.841331 0.000000 -0.540520
vn -0.851974 0.000000 -0.523584
vn -0.843707 0.000000 -0.536804
vn -0.841286 -0.000200 -0.540591
vn -0.837790 0.000000 -0.545993
vn -0.834305 0.000000 -0.551303
vn -0.834305 0.000000 -0.551303
vn -0.837790 0.000000 -0.545993
vn -0.837790 0.000100 -0.545993
vn -0.834305 0.000000 -0.551303
vn -0.592889 -0.000000 0.805285
vn -0.592889 -0.000000 0.805285
vn -0.592889 -0.000000 0.805285
vn -0.592889 -0.000000 0.805285
vn -0.592889 -0.000000 0.805285
vn -0.592889 -0.000000 0.805285
vn 0.621005 -0.000000 0.783807
vn 0.632203 -0.000000 0.774803
vn 0.621005 -0.000000 0.783807
vn 0.621005 -0.000000 0.783807
vn 0.632203 -0.000000 0.774803
vn 0.643415 -0.000000 0.765518
vn 0.658915 -0.000000 0.752217
vn 0.643415 -0.000000 0.765518
vn 0.658915 -0.000000 0.752217
vn 0.674487 -0.000000 0.738286
vn 0.690209 -0.000000 0.723610
vn 0.674487 -0.000000 0.738286
vn 0.690209 -0.000000 0.723610
vn 0.706006 -0.000000 0.708206
vn 0.721899 -0.000000 0.691999
vn 0.706006 -0.000000 0.708206
vn 0.721899 -0.000000 0.691999
vn 0.737905 -0.000000 0.674905
vn 0.753944 -0.000000 0.656939
vn 0.737905 -0.000000 0.674905
vn 0.753944 -0.000000 0.656939
vn 0.769932 -0.000000 0.638126
vn 0.785704 -0.000000 0.618603
vn 0.769932 -0.000000 0.638126
vn 0.785704 -0.000000 0.618603
vn 0.801796 -0.000000 0.597597
vn 0.817513 -0.000000 0.575910
vn 0.801796 -0.000000 0.597597
vn 0.817513 -0.000000 0.575910
vn 0.833034 -0.000000 0.553222
vn 0.848307 -0.000000 0.529505
vn 0.833034 -0.000000 0.553222
vn 0.848307 -0.000000 0.529505
vn 0.863340 -0.000000 0.504623
vn 0.877918 -0.000000 0.478810
vn 0.863340 -0.000000 0.504623
vn 0.877918 -0.000000 0.478810
vn 0.892075 -0.000000 0.451887
vn 0.905669 -0.000000 0.423986
vn 0.892075 -0.000000 0.451887
vn 0.905669 -0.000000 0.423986
vn 0.918684 -0.000000 0.394993
vn 0.931040 -0.000000 0.364916
vn 0.918684 -0.000000 0.394993
vn 0.931040 -0.000000 0.364916
vn 0.942576 -0.000000 0.333992
vn 0.953278 -0.000000 0.302093
vn 0.942576 -0.000000 0.333992
vn 0.953278 -0.000000 0.302093
vn 0.963085 -0.000000 0.269196
vn 0.963085 -0.000000 0.269196
vn 0.971847 -0.000000 0.235611
vn 0.979528 -0.000000 0.201306
vn 0.971847 -0.000000 0.235611
vn 0.979528 -0.000000 0.201306
vn 0.986076 -0.000000 0.166296
vn 0.986076 -0.000000 0.166296
vn 0.991422 -0.000000 0.130703
vn 0.991422 -0.000000 0.130703
vn 0.995506 -0.000000 0.094701
vn 0.998299 -0.000000 0.058300
vn 0.995506 -0.000000 0.094701
vn 0.998299 -0.000000 0.058300
vn 0.999765 -0.000000 0.021699
vn 0.999765 -0.000000 0.021699
vn 0.999887 0.000000 -0.015000
vn 0.999887 0.000000 -0.015000
vn 0.998663 0.000000 -0.051698
vn 0.998663 0.000000 -0.051698
vn 0.996103 0.000000 -0.088200
vn 0.992232 0.000000 -0.124404
vn 0.996103 0.000000 -0.088200
vn 0.992232 0.000000 -0.124404
vn 0.987069 0.000000 -0.160295
vn 0.987069 0.000000 -0.160295
vn 0.980665 0.000000 -0.195693
vn 0.980665 0.000000 -0.195693
vn 0.973074 0.000000 -0.230494
vn 0.964361 0.000000 -0.264589
vn 0.973074 0.000000 -0.230494
vn 0.964361 0.000000 -0.264589
vn 0.954569 0.000000 -0.297990
vn 0.943805 0.000000 -0.330502
vn 0.954569 0.000000 -0.297990
vn 0.943805 0.000000 -0.330502
vn 0.932181 0.000000 -0.361993
vn 0.919708 0.000000 -0.392603
vn 0.932181 0.000000 -0.361993
vn 0.919708 0.000000 -0.392603
vn 0.906464 0.000000 -0.422283
vn 0.892378 0.000000 -0.451289
vn 0.906464 0.000000 -0.422283
vn 0.892378 0.000000 -0.451289
vn 0.878132 0.000000 -0.478418
vn 0.863183 0.000000 -0.504890
vn 0.878132 0.000000 -0.478418
vn 0.863183 0.000000 -0.504890
vn 0.847807 0.000000 -0.530305
vn 0.832112 0.000000 -0.554608
vn 0.847807 0.000000 -0.530305
vn 0.832112 0.000000 -0.554608
vn 0.816105 0.000000 -0.577904
vn 0.799916 0.000000 -0.600112
vn 0.816105 0.000000 -0.577904
vn 0.799916 0.000000 -0.600112
vn 0.783496 0.000000 -0.621397
vn 0.766703 0.000000 -0.642002
vn 0.783496 0.000000 -0.621397
vn 0.766703 0.000000 -0.642002
vn 0.750485 0.000000 -0.660887
vn 0.733929 0.000000 -0.679227
vn 0.750485 0.000000 -0.660887
vn 0.733929 0.000000 -0.679227
vn 0.717381 0.000000 -0.696681
vn 0.700577 0.000000 -0.713577
vn 0.717381 0.000000 -0.696681
vn 0.700577 0.000000 -0.713577
vn 0.684506 0.000000 -0.729007
vn 0.668241 0.000000 -0.743945
vn 0.684506 0.000000 -0.729007
vn 0.668241 0.000000 -0.743945
vn 0.652116 0.000000 -0.758119
vn 0.636103 0.000000 -0.771604
vn 0.652116 0.000000 -0.758119
vn 0.636103 0.000000 -0.771604
vn 0.620331 0.000000 -0.784340
vn 0.608763 0.000000 -0.793352
vn 0.620331 0.000000 -0.784340
vn 0.608763 0.000000 -0.793352
vn 0.597309 0.000000 -0.802012
vn 0.597309 0.000000 -0.802012
vn 0.597309 0.000000 -0.802012
vn 0.621115 -0.000000 0.783719
vn 0.620895 -0.000000 0.783894
vn 0.345594 -0.000000 0.938384
vn 0.017701 -0.000000 0.999843
vn 0.345594 -0.000000 0.938384
vn 0.621115 -0.000000 0.783719
vn 0.017701 -0.000000 0.999843
vn -0.311995 -0.000000 0.950084
vn -0.311995 -0.000000 0.950084
vn -0.592889 -0.000000 0.805285
vn -0.592711 -0.000000 0.805415
vn -0.592889 -0.000000 0.805285
vn -0.592824 -0.000000 0.805332
vn -0.841721 -0.000000 0.539913
vn -0.592889 -0.000000 0.805285
vn -0.841721 -0.000000 0.539913
vn -0.592824 -0.000000 0.805332
vn -0.984532 -0.000000 0.175206
vn -0.984532 -0.000000 0.175206
vn -0.976305 0.000000 -0.216401
vn -0.834305 0.000000 -0.551303
vn -0.834305 0.000000 -0.551303
vn -0.976305 0.000000 -0.216401
vn -0.834305 0.000000 -0.551303
vn -0.616872 0.000000 -0.787064
vn -0.616872 0.000000 -0.787064
vn -0.616872 0.000000 -0.787064
vn -0.616872 0.000000 -0.787064
vn -0.616872 0.000000 -0.787064
vn -0.616872 0.000000 -0.787064
vn -0.790750 -0.000000 0.612139
vn -0.790750 -0.000000 0.612139
vn -0.813402 -0.000000 0.581702
vn -0.813402 -0.000000 0.581702
vn -0.830663 -0.000000 0.556775
vn -0.830663 -0.000000 0.556775
vn -0.841091 -0.000000 0.540894
vn -0.841091 -0.000000 0.540894
vn -0.844525 -0.000000 0.535516
vn -0.842184 -0.000000 0.539190
vn -0.844525 -0.000000 0.535516
vn -0.842184 -0.000000 0.539190
vn -0.835937 -0.000000 0.548825
vn -0.824608 -0.000000 0.565705
vn -0.827250 0.000100 0.561834
vn -0.835937 -0.000000 0.548825
vn -0.824608 -0.000000 0.565705
vn -0.821013 -0.000000 0.570909
vn -0.824608 -0.000100 0.565705
vn -0.827203 -0.000200 0.561902
vn -0.821013 0.000100 0.570909
vn -0.817386 -0.000000 0.576090
vn -0.817433 -0.000000 0.576023
vn -0.817386 -0.000000 0.576090
vn -0.821013 -0.000000 0.570909
vn -0.616920 0.000000 -0.787026
vn -0.616699 0.000000 -0.787199
vn -0.340514 0.000000 -0.940239
vn -0.012300 0.000000 -0.999924
vn -0.340514 0.000000 -0.940239
vn -0.616920 0.000000 -0.787026
vn -0.012300 0.000000 -0.999924
vn 0.317188 0.000000 -0.948363
vn 0.317188 0.000000 -0.948363
vn 0.597196 0.000000 -0.802095
vn 0.597196 0.000000 -0.802095
vn 0.597196 0.000000 -0.802095
vn -0.817433 -0.000000 0.576023
vn -0.969373 -0.000000 0.245593
vn -0.817433 -0.000000 0.576023
vn -0.969373 -0.000000 0.245593
vn -0.817433 -0.000000 0.576023
vn -0.989343 0.000000 -0.145606
vn -0.989343 0.000000 -0.145606
vn -0.857608 0.000000 -0.514305
vn -0.616920 0.000000 -0.787026
vn -0.857608 0.000000 -0.514305
vn -0.616920 0.000000 -0.787026
vn -0.616920 0.000000 -0.787026
vn -0.191691 0.000000 -0.981455
vn -0.425402 0.000000 -0.905004
vn -0.191595 0.000000 -0.981474
vn -0.191691 0.000000 -0.981455
vn -0.425402 0.000000 -0.905004
vn -0.680110 0.000000 -0.733110
vn -0.680110 0.000000 -0.733110
vn -0.680110 0.000000 -0.733110
vn -0.614335 0.000000 -0.789045
vn -0.628893 0.000000 -0.777492
vn -0.628893 0.000000 -0.777492
vn -0.614335 0.000000 -0.789045
vn -0.628893 0.000000 -0.777492
vn -0.628893 0.000000 -0.777492
vn -0.614335 0.000000 -0.789045
vn -0.628893 0.000000 -0.777492
vn -0.643523 0.000000 -0.765427
vn -0.643415 0.000000 -0.765518
vn -0.673180 0.000000 -0.739478
vn -0.673180 0.000000 -0.739478
vn -0.740813 0.000000 -0.671712
vn -0.740813 0.000000 -0.671712
vn -0.807107 0.000000 -0.590405
vn -0.807107 0.000000 -0.590405
vn -0.870706 0.000000 -0.491804
vn -0.870706 0.000000 -0.491804
vn -0.927341 0.000000 -0.374217
vn -0.927341 0.000000 -0.374217
vn -0.971996 0.000000 -0.234999
vn -0.971996 0.000000 -0.234999
vn -0.997213 0.000000 -0.074601
vn -0.997213 0.000000 -0.074601
vn -0.995769 -0.000000 0.091897
vn -0.995769 -0.000000 0.091897
vn -0.967652 -0.000000 0.252288
vn -0.967652 -0.000000 0.252288
vn -0.918508 -0.000000 0.395403
vn -0.918508 -0.000000 0.395403
vn -0.859288 -0.000000 0.511493
vn -0.859288 -0.000000 0.511493
vn -0.793010 -0.000000 0.609208
vn -0.793010 -0.000000 0.609208
vn -0.724195 -0.000000 0.689595
vn -0.724195 -0.000000 0.689595
vn -0.655924 -0.000000 0.754827
vn -0.655924 -0.000000 0.754827
vn -0.655874 -0.000000 0.754870
vn -0.622681 -0.000000 0.782476
vn -0.622681 -0.000000 0.782476
vn -0.622681 -0.000000 0.782476
vn -0.606429 -0.000000 0.795138
vn -0.622681 -0.000000 0.782476
vn -0.606429 -0.000000 0.795138
vn -0.590292 -0.000000 0.807190
vn -0.590292 -0.000000 0.807190
vn -0.606429 -0.000000 0.795138
vn -0.606429 -0.000000 0.795138
vn -0.590292 -0.000000 0.807190
vn -0.606429 -0.000000 0.795138
vn -0.622681 -0.000000 0.782476
vn -0.673180 0.000000 -0.739478
vn -0.643415 0.000000 -0.765518
vn -0.643415 0.000000 -0.765518
vn -0.643473 0.000000 -0.765468
vn -0.657421 0.000100 0.753524
vn -0.402098 -0.000000 0.915596
vn -0.657421 -0.000000 0.753524
vn -0.657421 -0.000000 0.753524
vn -0.402098 -0.000000 0.915596
vn -0.187300 -0.000000 0.982303
vn -0.187300 -0.000000 0.982303
vn -0.187300 -0.000000 0.982303
vn 0.783981 0.000000 -0.620785
vn 0.796857 0.000000 -0.604168
vn 0.796857 0.000000 -0.604168
vn 0.783981 0.000000 -0.620785
vn 0.783981 0.000000 -0.620785
vn 0.796857 0.000000 -0.604168
vn 0.796857 0.000000 -0.604168
vn 0.809427 0.000000 -0.587220
vn 0.796857 0.000000 -0.604168
vn 0.809427 0.000000 -0.587220
vn 0.833785 0.000000 -0.552090
vn 0.833785 0.000000 -0.552090
vn 0.876889 0.000000 -0.480694
vn 0.876716 0.000000 -0.481009
vn 0.914149 0.000000 -0.405378
vn 0.914133 0.000000 -0.405415
vn 0.914149 0.000000 -0.405378
vn 0.930728 0.000000 -0.365711
vn 0.930728 0.000000 -0.365711
vn 0.930728 0.000000 -0.365711
vn 0.938449 0.000000 -0.345418
vn 0.930728 0.000000 -0.365711
vn 0.938449 0.000000 -0.345418
vn 0.945754 0.000000 -0.324884
vn 0.945754 0.000000 -0.324884
vn 0.938449 0.000000 -0.345418
vn 0.938449 0.000000 -0.345418
vn 0.945754 0.000000 -0.324884
vn 0.938449 0.000000 -0.345418
vn 0.930728 0.000000 -0.365711
vn 0.833785 0.000000 -0.552090
vn 0.809427 0.000000 -0.587220
vn 0.809427 0.000000 -0.587220
vn 0.809427 0.000000 -0.587220
vn -0.717628 0.000000 -0.696427
vn -0.717628 0.000000 -0.696427
vn -0.717628 0.000000 -0.696427
vn -0.717628 0.000000 -0.696427
vn -0.717628 0.000000 -0.696427
vn -0.717628 0.000000 -0.696427
vn 0.696478 0.000000 -0.717578
vn 0.696478 0.000000 -0.717578
vn 0.696478 0.000000 -0.717578
vn 0.696478 0.000000 -0.717578
vn 0.696478 0.000000 -0.717578
vn 0.696478 0.000000 -0.717578
vn 0.717628 -0.000000 0.696427
vn 0.717628 -0.000000 0.696427
vn 0.717628 -0.000000 0.696427
vn 0.717628 -0.000000 0.696427
vn 0.717628 -0.000000 0.696427
vn 0.520908 0.000000 -0.853613
vn 0.572798 0.000000 -0.819697
vn 0.572912 0.000000 -0.819617
vn 0.520908 0.000000 -0.853613
vn 0.572912 0.000000 -0.819617
vn 0.631210 0.000000 -0.775612
vn 0.631161 0.000000 -0.775652
vn 0.791179 0.000000 -0.611584
vn 0.791179 0.000000 -0.611584
vn 0.960204 0.000000 -0.279301
vn 0.960204 0.000000 -0.279301
vn 0.976126 -0.000000 0.217206
vn 0.976126 -0.000000 0.217206
vn 0.818423 -0.000000 0.574616
vn 0.818423 -0.000000 0.574616
vn 0.664122 -0.000000 0.747624
vn 0.664178 -0.000000 0.747575
vn 0.664122 -0.000000 0.747624
vn 0.601998 -0.000000 0.798498
vn 0.601998 -0.000000 0.798498
vn 0.546179 -0.000000 0.837668
vn 0.546179 -0.000000 0.837668
vn 0.601998 -0.000000 0.798498
vn 0.631210 0.000000 -0.775612
vn 0.696478 0.000000 -0.717578
vn 0.696478 0.000000 -0.717578
vn 0.696478 0.000000 -0.717578
vn 0.696478 0.000000 -0.717578
vn 0.696478 0.000000 -0.717578
vn 0.717578 -0.000000 0.696478
vn 0.717578 -0.000000 0.696478
vn 0.717578 -0.000000 0.696478
vn 0.717578 -0.000000 0.696478
vn 0.717578 -0.000000 0.696478
vn 0.717578 -0.000000 0.696478
vn -0.696478 -0.000000 0.717578
vn -0.696478 -0.000000 0.717578
vn -0.696478 -0.000000 0.717578
vn -0.696478 -0.000000 0.717578
vn -0.696478 -0.000000 0.717578
vn -0.696478 -0.000000 0.717578
vn 0.696427 0.000000 -0.717628
vn 0.696377 0.000000 -0.717676
vn 0.337210 0.000000 -0.941429
vn 0.337299 0.000000 -0.941398
vn -0.079097 0.000000 -0.996867
vn -0.079097 0.000000 -0.996867
vn -0.079097 -0.000100 -0.996867
vn 0.696427 0.000000 -0.717628
vn -0.049100 -0.000000 0.998794
vn -0.049199 -0.000000 0.998789
vn 0.368216 -0.000000 0.929740
vn 0.368095 -0.000000 0.929788
vn 0.717529 -0.000000 0.696528
vn 0.717529 -0.000000 0.696528
vn 0.717529 -0.000000 0.696528
vn -0.049100 -0.000000 0.998794
vn 0.717628 -0.000000 0.696427
vn 0.717628 -0.000000 0.696427
vn 0.717628 -0.000000 0.696427
vn 0.717628 -0.000000 0.696427
vn 0.717628 -0.000000 0.696427
vn 0.717628 -0.000000 0.696427
vn 0.717676 -0.000000 0.696377
vn 0.916029 -0.000000 0.401113
vn 0.717676 -0.000000 0.696377
vn 0.916029 -0.000000 0.401113
vn 0.717676 -0.000000 0.696377
vn 0.999105 -0.000000 0.042300
vn 0.947456 0.000000 -0.319885
vn 0.999105 -0.000000 0.042300
vn 0.947456 0.000000 -0.319885
vn 0.783981 0.000000 -0.620785
vn 0.783981 0.000000 -0.620785
vn 0.783981 0.000000 -0.620785
vn 0.955067 -0.000000 0.296390
vn 0.948222 -0.000000 0.317608
vn 0.948222 -0.000000 0.317608
vn 0.955067 -0.000000 0.296390
vn 0.948222 -0.000000 0.317608
vn 0.948222 -0.000000 0.317608
vn 0.955067 -0.000000 0.296390
vn 0.948222 -0.000000 0.317608
vn 0.941002 -0.000000 0.338401
vn 0.941002 -0.000000 0.338401
vn 0.925517 -0.000000 0.378707
vn 0.925517 -0.000000 0.378707
vn 0.891001 -0.000000 0.454001
vn 0.891001 -0.000000 0.454001
vn 0.850416 -0.000000 0.526110
vn 0.850416 -0.000000 0.526110
vn 0.850372 -0.000000 0.526183
vn 0.827360 -0.000000 0.561673
vn 0.827360 -0.000000 0.561673
vn 0.827360 -0.000000 0.561673
vn 0.815029 -0.000000 0.579421
vn 0.827360 -0.000000 0.561673
vn 0.815029 -0.000000 0.579421
vn 0.802179 -0.000000 0.597084
vn 0.802179 -0.000000 0.597084
vn 0.802179 -0.000000 0.597084
vn 0.815029 -0.000000 0.579421
vn 0.815029 -0.000000 0.579421
vn 0.815029 -0.000000 0.579421
vn 0.827360 -0.000000 0.561673
vn 0.925517 -0.000000 0.378707
vn 0.941002 -0.000000 0.338401
vn 0.941002 -0.000000 0.338401
vn 0.941034 -0.000000 0.338312
vn 0.802227 -0.000000 0.597020
vn 0.960027 -0.000000 0.279908
vn 0.802227 -0.000000 0.597020
vn 0.802227 -0.000000 0.597020
vn 0.960062 -0.000000 0.279789
vn 0.996076 0.000000 -0.088498
vn 0.996076 0.000000 -0.088498
vn 0.897071 0.000000 -0.441886
vn 0.696478 0.000000 -0.717578
vn 0.696478 0.000000 -0.717578
vn 0.897071 0.000000 -0.441886
vn 0.696478 0.000000 -0.717578
vn 0.696427 0.000000 -0.717628
vn 0.696427 0.000000 -0.717628
vn 0.696427 0.000000 -0.717628
vn 0.696427 0.000000 -0.717628
vn 0.696427 0.000000 -0.717628
vn 0.696427 0.000000 -0.717628
vn 0.000000 -1.000000 -0.000000
vn 0.000000 -1.000000 -0.000000
vn 0.000000 -1.000000 -0.000000
vn 0.000000 -1.000000 -0.000000
vn 0.000000 -1.000000 -0.000000
vn 0.000000 -1.000000 -0.000000
vn 0.000000 -1.000000 -0.000000
vn 0.000000 -1.000000 -0.000000
vn 0.000000 -1.000000 -0.000000
vn 0.000000 -1.000000 -0.000000
vn 0.000000 -1.000000 -0.000000
vn 0.000000 -1.000000 -0.000000
vn 0.000000 -1.000000 -0.000000
vn 0.000000 -1.000000 -0.000000
vn 0.000000 -1.000000 -0.000000
vn 0.000000 -1.000000 -0.000000
vn 0.000000 -1.000000 -0.000000
vn 0.000000 -1.000000 -0.000000
vn 0.000000 -1.000000 -0.000000
vn 0.000000 -1.000000 -0.000000
vn 0.000000 -1.000000 -0.000000
vn 0.000000 -1.000000 -0.000000
vn 0.000000 -1.000000 -0.000000
vn 0.000000 -1.000000 -0.000000
vn 0.000000 -1.000000 -0.000000
vn 0.000000 -1.000000 -0.000000
vn 0.000000 -1.000000 -0.000000
vn 0.000000 -1.000000 -0.000000
vn 0.000000 -1.000000 -0.000000
vn 0.000000 -1.000000 -0.000000
vn 0.000000 -1.000000 -0.000000
vn 0.000000 -1.000000 -0.000000
vn 0.000000 -1.000000 -0.000000
vn 0.000000 -1.000000 -0.000000
vn 0.000000 -1.000000 -0.000000
vn 0.000000 -1.000000 -0.000000
vn 0.000000 -1.000000 -0.000000
vn 0.000000 -1.000000 -0.000000
vn 0.000000 -1.000000 -0.000000
vn 0.000000 -1.000000 -0.000000
vn 0.000000 -1.000000 -0.000000
vn 0.000000 -1.000000 -0.000000
vn 0.000000 -1.000000 -0.000000
vn 0.000000 -1.000000 -0.000000
vn 0.000000 -1.000000 -0.000000
vn 0.000000 -1.000000 -0.000000
vn 0.000000 -1.000000 -0.000000
vn 0.000000 -1.000000 -0.000000
vn 0.000000 -1.000000 -0.000000
vn 0.000000 -1.000000 -0.000000
vn 0.000000 -1.000000 -0.000000
vn 0.000000 -1.000000 -0.000000
vn 0.000000 -1.000000 -0.000000
vn 0.000000 -1.000000 -0.000000
vn 0.000000 -1.000000 -0.000000
vn 0.000000 -1.000000 -0.000000
vn 0.000000 -1.000000 -0.000000
vn 0.000000 -1.000000 -0.000000
vn 0.000000 -1.000000 -0.000000
vn 0.000000 -1.000000 -0.000000
vn 0.000000 -1.000000 -0.000000
vn 0.000000 -1.000000 -0.000000
vn 0.000000 -1.000000 -0.000000
vn 0.000000 -1.000000 -0.000000
vn 0.000000 -1.000000 -0.000000
vn 0.000000 -1.000000 -0.000000
vn 0.000000 -1.000000 -0.000000
vn 0.000000 -1.000000 -0.000000
vn 0.000000 -1.000000 -0.000000
vn 0.000000 -1.000000 -0.000000
vn 0.000000 -1.000000 -0.000000
vn 0.000000 -1.000000 -0.000000
vn 0.000000 -1.000000 -0.000000
vn 0.000000 -1.000000 -0.000000
vn 0.000000 -1.000000 -0.000000
vn 0.000000 -1.000000 -0.000000
vn 0.000000 -1.000000 -0.000000
vn 0.000000 -1.000000 -0.000000
vn 0.000000 -1.000000 -0.000000
vn 0.000000 -1.000000 -0.000000
vn 0.000000 -1.000000 -0.000000
vn 0.000000 -1.000000 -0.000000
vn 0.000000 -1.000000 -0.000000
vn 0.000000 -1.000000 -0.000000
vn 0.000000 -1.000000 -0.000000
vn 0.000000 -1.000000 -0.000000
vn 0.000000 -1.000000 -0.000000
vn 0.000000 -1.000000 -0.000000
vn 0.000000 -1.000000 -0.000000
vn 0.000000 -1.000000 -0.000000
vn 0.000000 -1.000000 -0.000000
vn 0.000000 -1.000000 -0.000000
vn 0.000000 -1.000000 -0.000000
vn 0.000000 -1.000000 -0.000000
vn 0.000000 -1.000000 -0.000000
vn 0.000000 -1.000000 -0.000000
vn 0.000000 -1.000000 -0.000000
vn 0.000000 -1.000000 -0.000000
vn 0.000000 -1.000000 -0.000000
vn 0.000000 -1.000000 -0.000000
vn 0.000000 -1.000000 -0.000000
vn 0.000000 -1.000000 -0.000000
vn 0.000000 -1.000000 -0.000000
vn 0.000000 -1.000000 -0.000000
vn 0.000000 -1.000000 -0.000000
vn 0.000000 -1.000000 -0.000000
vn 0.000000 -1.000000 -0.000000
vn 0.000000 -1.000000 -0.000000
vn 0.000000 -1.000000 -0.000000
f 4//4 1//1 2//2
f 1//1 3//3 2//2
f 5//5 4//4 6//6
f 6//6 4//4 2//2
f 6//6 2//2 7//7
f 7//7 8//8 6//6
f 6//6 8//8 9//9
f 10//10 6//6 9//9
f 10//10 11//11 6//6
f 11//11 13//13 6//6
f 5//5 6//6 12//12
f 12//12 6//6 13//13
f 14//14 11//11 10//10
f 10//10 15//15 14//14
f 15//15 18//18 16//16
f 17//17 15//15 19//19
f 17//17 18//18 15//15
f 15//15 10//10 19//19
f 9//9 19//19 10//10
f 9//9 145//145 17//17
f 9//9 17//17 19//19
f 20//20 18//18 22//22
f 20//20 16//16 18//18
f 21//21 18//18 17//17
f 23//23 26//26 22//22
f 26//26 24//24 22//22
f 24//24 25//25 22//22
f 20//20 22//22 25//25
f 28//28 27//27 26//26
f 28//28 26//26 30//30
f 29//29 26//26 31//31
f 29//29 30//30 26//26
f 23//23 31//31 26//26
f 32//32 27//27 28//28
f 27//27 32//32 33//33
f 35//35 34//34 33//33
f 34//34 27//27 33//33
f 35//35 36//36 34//34
f 37//37 34//34 36//36
f 37//37 38//38 34//34
f 38//38 39//39 40//40
f 40//40 34//34 38//38
f 41//41 40//40 42//42
f 42//42 40//40 43//43
f 40//40 39//39 43//43
f 42//42 44//44 41//41
f 44//44 45//45 41//41
f 45//45 46//46 41//41
f 46//46 47//47 41//41
f 41//41 47//47 48//48
f 50//50 48//48 49//49
f 54//54 49//49 48//48
f 50//50 51//51 48//48
f 48//48 51//51 41//41
f 52//52 53//53 48//48
f 53//53 54//54 48//48
f 55//55 49//49 54//54
f 55//55 54//54 56//56
f 53//53 56//56 54//54
f 57//57 55//55 56//56
f 56//56 53//53 59//59
f 56//56 59//59 58//58
f 56//56 58//58 57//57
f 58//58 62//62 57//57
f 58//58 59//59 60//60
f 60//60 61//61 58//58
f 61//61 62//62 58//58
f 63//63 57//57 62//62
f 63//63 55//55 57//57
f 63//63 49//49 55//55
f 65//65 64//64 60//60
f 65//65 60//60 66//66
f 59//59 66//66 60//60
f 66//66 67//67 86//86
f 66//66 86//86 65//65
f 68//68 67//67 66//66
f 68//68 66//66 69//69
f 69//69 66//66 59//59
f 69//69 59//59 52//52
f 67//67 68//68 70//70
f 67//67 70//70 71//71
f 72//72 71//71 70//70
f 73//73 71//71 72//72
f 72//72 74//74 73//73
f 73//73 74//74 75//75
f 77//77 75//75 76//76
f 75//75 77//77 73//73
f 73//73 77//77 79//79
f 73//73 79//79 81//81
f 78//78 77//77 76//76
f 77//77 78//78 82//82
f 77//77 82//82 79//79
f 80//80 79//79 82//82
f 79//79 80//80 83//83
f 83//83 81//81 79//79
f 83//83 85//85 84//84
f 81//81 83//83 84//84
f 86//86 85//85 65//65
f 86//86 84//84 85//85
f 85//85 64//64 65//65
f 67//67 71//71 84//84
f 67//67 84//84 86//86
f 71//71 73//73 81//81
f 71//71 81//81 84//84
f 87//87 80//80 82//82
f 78//78 88//88 87//87
f 78//78 87//87 82//82
f 88//88 89//89 87//87
f 80//80 87//87 89//89
f 89//89 88//88 90//90
f 90//90 92//92 91//91
f 92//92 90//90 88//88
f 88//88 93//93 92//92
f 92//92 93//93 94//94
f 95//95 92//92 94//94
f 95//95 91//91 92//92
f 97//97 95//95 96//96
f 101//101 96//96 95//95
f 98//98 95//95 97//97
f 98//98 99//99 95//95
f 95//95 99//99 100//100
f 91//91 95//95 100//100
f 94//94 101//101 95//95
f 101//101 94//94 102//102
f 101//101 102//102 96//96
f 93//93 103//103 102//102
f 93//93 102//102 94//94
f 103//103 93//93 78//78
f 78//78 76//76 103//103
f 104//104 100//100 108//108
f 99//99 106//106 100//100
f 100//100 105//105 107//107
f 105//105 100//100 106//106
f 100//100 107//107 110//110
f 100//100 109//109 108//108
f 100//100 110//110 109//109
f 111//111 104//104 108//108
f 111//111 112//112 104//104
f 113//113 104//104 112//112
f 114//114 104//104 113//113
f 116//116 115//115 114//114
f 115//115 104//104 114//114
f 115//115 116//116 117//117
f 118//118 115//115 117//117
f 119//119 115//115 118//118
f 121//121 120//120 119//119
f 120//120 115//115 119//119
f 122//122 120//120 121//121
f 122//122 123//123 120//120
f 123//123 124//124 120//120
f 120//120 124//124 125//125
f 125//125 124//124 126//126
f 125//125 126//126 127//127
f 125//125 127//127 128//128
f 128//128 129//129 125//125
f 125//125 129//129 130//130
f 130//130 131//131 125//125
f 131//131 132//132 125//125
f 133//133 132//132 131//131
f 132//132 133//133 134//134
f 132//132 134//134 135//135
f 135//135 136//136 132//132
f 132//132 136//136 137//137
f 138//138 132//132 137//137
f 137//137 139//139 138//138
f 140//140 138//138 139//139
f 140//140 139//139 141//141
f 140//140 141//141 142//142
f 8//8 142//142 143//143
f 7//7 140//140 142//142
f 7//7 142//142 8//8
f 8//8 143//143 144//144
f 144//144 9//9 8//8
f 9//9 144//144 145//145
f 146//146 145//145 144//144
f 145//145 146//146 17//17
f 21//21 17//17 146//146
f 147//147 138//138 140//140
f 147//147 140//140 7//7
f 132//132 138//138 147//147
f 147//147 2//2 3//3
f 3//3 132//132 147//147
f 2//2 147//147 7//7
f 93//93 88//88 78//78
f 52//52 59//59 53//53
f 149//149 151//151 150//150
f 149//149 150//150 148//148
f 153//153 152//152 151//151
f 153//153 151//151 149//149
f 155//155 154//154 152//152
f 155//155 152//152 153//153
f 157//157 156//156 154//154
f 157//157 154//154 155//155
f 160//160 158//158 156//156
f 160//160 156//156 157//157
f 161//161 159//159 158//158
f 161//161 158//158 160//160
f 162//162 164//164 159//159
f 162//162 159//159 161//161
f 163//163 165//165 164//164
f 163//163 164//164 162//162
f 168//168 166//166 165//165
f 168//168 165//165 163//163
f 169//169 167//167 166//166
f 169//169 166//166 168//168
f 170//170 172//172 167//167
f 170//170 167//167 169//169
f 171//171 173//173 172//172
f 171//171 172//172 170//170
f 176//176 174//174 173//173
f 176//176 173//173 171//171
f 177//177 175//175 174//174
f 177//177 174//174 176//176
f 178//178 180//180 175//175
f 178//178 175//175 177//177
f 179//179 181//181 180//180
f 179//179 180//180 178//178
f 184//184 182//182 181//181
f 184//184 181//181 179//179
f 185//185 183//183 182//182
f 185//185 182//182 184//184
f 186//186 188//188 183//183
f 186//186 183//183 185//185
f 187//187 189//189 188//188
f 187//187 188//188 186//186
f 192//192 190//190 189//189
f 192//192 189//189 187//187
f 193//193 191//191 190//190
f 193//193 190//190 192//192
f 194//194 196//196 191//191
f 194//194 191//191 193//193
f 195//195 197//197 196//196
f 195//195 196//196 194//194
f 200//200 198//198 197//197
f 200//200 197//197 195//195
f 201//201 199//199 198//198
f 201//201 198//198 200//200
f 202//202 204//204 199//199
f 202//202 199//199 201//201
f 203//203 205//205 204//204
f 203//203 204//204 202//202
f 208//208 206//206 205//205
f 208//208 205//205 203//203
f 209//209 207//207 206//206
f 209//209 206//206 208//208
f 210//210 212//212 207//207
f 210//210 207//207 209//209
f 211//211 213//213 212//212
f 211//211 212//212 210//210
f 216//216 214//214 213//213
f 216//216 213//213 211//211
f 217//217 215//215 214//214
f 217//217 214//214 216//216
f 218//218 220//220 215//215
f 218//218 215//215 217//217
f 219//219 221//221 220//220
f 219//219 220//220 218//218
f 223//223 225//225 224//224
f 223//223 224//224 222//222
f 227//227 226//226 225//225
f 227//227 225//225 223//223
f 229//229 228//228 226//226
f 229//229 226//226 227//227
f 232//232 230//230 228//228
f 232//232 228//228 229//229
f 233//233 231//231 230//230
f 233//233 230//230 232//232
f 234//234 238//238 231//231
f 234//234 231//231 233//233
f 236//236 234//234 235//235
f 234//234 236//236 237//237
f 238//238 234//234 237//237
f 237//237 240//240 238//238
f 238//238 240//240 239//239
f 240//240 241//241 239//239
f 241//241 240//240 237//237
f 241//241 237//237 244//244
f 242//242 243//243 241//241
f 241//241 244//244 242//242
f 239//239 241//241 243//243
f 242//242 244//244 245//245
f 242//242 245//245 246//246
f 244//244 237//237 236//236
f 244//244 236//236 245//245
f 246//246 245//245 236//236
f 246//246 236//236 235//235
f 248//248 247//247 249//249
f 248//248 249//249 250//250
f 251//251 252//252 250//250
f 251//251 250//250 249//249
f 253//253 255//255 254//254
f 255//255 256//256 257//257
f 257//257 254//254 255//255
f 258//258 260//260 254//254
f 258//258 254//254 257//257
f 259//259 261//261 260//260
f 259//259 260//260 258//258
f 264//264 262//262 261//261
f 264//264 261//261 259//259
f 265//265 263//263 262//262
f 265//265 262//262 264//264
f 266//266 268//268 263//263
f 266//266 263//263 265//265
f 267//267 269//269 268//268
f 267//267 268//268 266//266
f 272//272 270//270 269//269
f 272//272 269//269 267//267
f 273//273 271//271 270//270
f 273//273 270//270 272//272
f 274//274 276//276 271//271
f 274//274 271//271 273//273
f 275//275 277//277 276//276
f 275//275 276//276 274//274
f 280//280 278//278 277//277
f 280//280 277//277 275//275
f 281//281 279//279 278//278
f 281//281 278//278 280//280
f 282//282 284//284 279//279
f 282//282 279//279 281//281
f 283//283 285//285 284//284
f 283//283 284//284 282//282
f 288//288 286//286 285//285
f 288//288 285//285 283//283
f 289//289 287//287 286//286
f 289//289 286//286 288//288
f 290//290 292//292 287//287
f 290//290 287//287 289//289
f 291//291 293//293 292//292
f 291//291 292//292 290//290
f 296//296 294//294 293//293
f 296//296 293//293 291//291
f 297//297 295//295 294//294
f 297//297 294//294 296//296
f 298//298 300//300 295//295
f 298//298 295//295 297//297
f 299//299 301//301 300//300
f 299//299 300//300 298//298
f 303//303 302//302 301//301
f 303//303 301//301 299//299
f 306//306 304//304 302//302
f 306//306 302//302 303//303
f 307//307 305//305 304//304
f 307//307 304//304 306//306
f 308//308 309//309 305//305
f 308//308 305//305 307//307
f 310//310 311//311 309//309
f 310//310 309//309 308//308
f 312//312 314//314 311//311
f 312//312 311//311 310//310
f 313//313 315//315 314//314
f 313//313 314//314 312//312
f 317//317 316//316 315//315
f 317//317 315//315 313//313
f 319//319 318//318 316//316
f 319//319 316//316 317//317
f 321//321 320//320 318//318
f 321//321 318//318 319//319
f 324//324 322//322 320//320
f 324//324 320//320 321//321
f 325//325 323//323 322//322
f 325//325 322//322 324//324
f 326//326 327//327 323//323
f 326//326 323//323 325//325
f 328//328 329//329 327//327
f 328//328 327//327 326//326
f 330//330 332//332 329//329
f 330//330 329//329 328//328
f 331//331 333//333 332//332
f 331//331 332//332 330//330
f 336//336 334//334 333//333
f 336//336 333//333 331//331
f 337//337 335//335 334//334
f 337//337 334//334 336//336
f 338//338 340//340 335//335
f 338//338 335//335 337//337
f 339//339 341//341 340//340
f 339//339 340//340 338//338
f 344//344 342//342 341//341
f 344//344 341//341 339//339
f 345//345 343//343 342//342
f 345//345 342//342 344//344
f 346//346 348//348 343//343
f 346//346 343//343 345//345
f 347//347 349//349 348//348
f 347//347 348//348 346//346
f 352//352 350//350 349//349
f 352//352 349//349 347//347
f 353//353 351//351 350//350
f 353//353 350//350 352//352
f 354//354 356//356 351//351
f 354//354 351//351 353//353
f 355//355 357//357 356//356
f 355//355 356//356 354//354
f 360//360 358//358 357//357
f 360//360 357//357 355//355
f 361//361 359//359 358//358
f 361//361 358//358 360//360
f 362//362 364//364 359//359
f 362//362 359//359 361//361
f 363//363 365//365 364//364
f 363//363 364//364 362//362
f 368//368 366//366 365//365
f 368//368 365//365 363//363
f 369//369 367//367 366//366
f 369//369 366//366 368//368
f 370//370 372//372 367//367
f 370//370 367//367 369//369
f 371//371 373//373 372//372
f 371//371 372//372 370//370
f 376//376 374//374 373//373
f 376//376 373//373 371//371
f 377//377 375//375 374//374
f 377//377 374//374 376//376
f 378//378 380//380 375//375
f 378//378 375//375 377//377
f 379//379 381//381 380//380
f 379//379 380//380 378//378
f 379//379 382//382 381//381
f 382//382 383//383 381//381
f 379//379 384//384 382//382
f 386//386 385//385 387//387
f 388//388 391//391 389//389
f 388//388 389//389 387//387
f 387//387 389//389 386//386
f 389//389 390//390 386//386
f 393//393 392//392 391//391
f 393//393 391//391 388//388
f 393//393 395//395 392//392
f 392//392 395//395 394//394
f 396//396 395//395 393//393
f 398//398 399//399 397//397
f 398//398 400//400 399//399
f 401//401 399//399 400//400
f 403//403 402//402 400//400
f 403//403 400//400 398//398
f 407//407 404//404 402//402
f 407//407 402//402 403//403
f 405//405 404//404 406//406
f 404//404 407//407 406//406
f 407//407 408//408 406//406
f 410//410 409//409 411//411
f 410//410 411//411 413//413
f 412//412 414//414 413//413
f 412//412 413//413 411//411
f 416//416 415//415 417//417
f 416//416 417//417 418//418
f 418//418 417//417 419//419
f 418//418 419//419 420//420
f 420//420 419//419 421//421
f 420//420 421//421 422//422
f 422//422 421//421 423//423
f 422//422 423//423 425//425
f 425//425 423//423 424//424
f 425//425 424//424 426//426
f 426//426 424//424 430//430
f 426//426 430//430 427//427
f 427//427 431//431 428//428
f 428//428 429//429 427//427
f 427//427 430//430 431//431
f 431//431 432//432 439//439
f 431//431 439//439 428//428
f 433//433 435//435 432//432
f 433//433 432//432 431//431
f 430//430 433//433 431//431
f 434//434 433//433 430//430
f 433//433 434//434 435//435
f 435//435 436//436 437//437
f 436//436 435//435 434//434
f 435//435 437//437 432//432
f 438//438 439//439 437//437
f 432//432 437//437 439//439
f 429//429 428//428 439//439
f 429//429 439//439 438//438
f 441//441 440//440 442//442
f 443//443 446//446 444//444
f 443//443 444//444 442//442
f 442//442 444//444 441//441
f 444//444 445//445 441//441
f 448//448 447//447 446//446
f 448//448 446//446 443//443
f 448//448 450//450 447//447
f 447//447 450//450 449//449
f 451//451 450//450 448//448
f 453//453 454//454 452//452
f 453//453 455//455 454//454
f 456//456 454//454 455//455
f 458//458 457//457 455//455
f 458//458 455//455 453//453
f 461//461 459//459 457//457
f 461//461 457//457 458//458
f 459//459 461//461 460//460
f 462//462 459//459 460//460
f 461//461 463//463 460//460
f 465//465 466//466 464//464
f 468//468 466//466 465//465
f 467//467 466//466 468//468
f 465//465 469//469 468//468
f 468//468 469//469 470//470
f 465//465 471//471 469//469
f 472//472 473//473 475//475
f 473//473 472//472 474//474
f 476//476 477//477 475//475
f 476//476 475//475 473//473
f 478//478 475//475 477//477
f 477//477 479//479 478//478
f 480//480 479//479 477//477
f 480//480 477//477 481//481
f 481//481 482//482 480//480
f 482//482 481//481 483//483
f 483//483 484//484 482//482
f 484//484 483//483 485//485
f 486//486 484//484 485//485
f 486//486 485//485 487//487
f 488//488 486//486 487//487
f 488//488 487//487 489//489
f 490//490 488//488 489//489
f 490//490 489//489 491//491
f 492//492 490//490 491//491
f 492//492 491//491 493//493
f 494//494 492//492 493//493
f 494//494 493//493 495//495
f 496//496 494//494 495//495
f 496//496 495//495 497//497
f 498//498 496//496 497//497
f 498//498 497//497 499//499
f 500//500 498//498 499//499
f 500//500 499//499 501//501
f 502//502 500//500 501//501
f 502//502 501//501 503//503
f 504//504 502//502 503//503
f 504//504 503//503 505//505
f 506//506 504//504 505//505
f 506//506 505//505 507//507
f 507//507 509//509 506//506
f 506//506 509//509 508//508
f 509//509 507//507 510//510
f 510//510 512//512 509//509
f 509//509 513//513 508//508
f 513//513 509//509 511//511
f 509//509 512//512 511//511
f 514//514 513//513 511//511
f 514//514 511//511 520//520
f 516//516 515//515 513//513
f 516//516 513//513 514//514
f 508//508 513//513 515//515
f 514//514 517//517 516//516
f 517//517 514//514 518//518
f 519//519 518//518 520//520
f 518//518 519//519 521//521
f 520//520 518//518 514//514
f 519//519 522//522 521//521
f 519//519 512//512 523//523
f 519//519 523//523 522//522
f 512//512 510//510 523//523
f 520//520 511//511 512//512
f 520//520 512//512 519//519
f 485//485 483//483 524//524
f 524//524 526//526 525//525
f 483//483 526//526 524//524
f 526//526 483//483 527//527
f 526//526 473//473 474//474
f 526//526 474//474 525//525
f 527//527 476//476 473//473
f 527//527 473//473 526//526
f 483//483 481//481 527//527
f 481//481 477//477 476//476
f 481//481 476//476 527//527
f 529//529 530//530 528//528
f 532//532 531//531 530//530
f 532//532 530//530 529//529
f 529//529 534//534 533//533
f 529//529 533//533 532//532
f 529//529 535//535 534//534
f 536//536 537//537 539//539
f 537//537 536//536 538//538
f 542//542 540//540 539//539
f 541//541 539//539 537//537
f 542//542 539//539 541//541
f 543//543 542//542 541//541
f 543//543 541//541 569//569
f 545//545 544//544 542//542
f 545//545 542//542 543//543
f 542//542 544//544 540//540
f 543//543 546//546 545//545
f 546//546 543//543 547//547
f 547//547 548//548 546//546
f 549//549 551//551 548//548
f 548//548 547//547 549//549
f 548//548 551//551 550//550
f 551//551 555//555 550//550
f 551//551 549//549 552//552
f 552//552 554//554 551//551
f 555//555 551//551 553//553
f 551//551 554//554 553//553
f 550//550 555//555 557//557
f 558//558 557//557 555//555
f 558//558 555//555 556//556
f 556//556 555//555 553//553
f 556//556 553//553 562//562
f 556//556 559//559 558//558
f 559//559 556//556 562//562
f 559//559 562//562 560//560
f 561//561 560//560 562//562
f 563//563 560//560 561//561
f 561//561 564//564 563//563
f 561//561 554//554 565//565
f 561//561 565//565 564//564
f 554//554 552//552 565//565
f 562//562 553//553 554//554
f 562//562 554//554 561//561
f 549//549 547//547 566//566
f 566//566 568//568 567//567
f 547//547 568//568 566//566
f 568//568 547//547 569//569
f 568//568 537//537 538//538
f 568//568 538//538 567//567
f 569//569 541//541 537//537
f 569//569 537//537 568//568
f 547//547 543//543 569//569
f 573//573 571//571 570//570
f 573//573 570//570 572//572
f 571//571 573//573 574//574
f 571//571 574//574 575//575
f 577//577 580//580 578//578
f 577//577 578//578 576//576
f 579//579 578//578 580//580
f 579//579 580//580 581//581
f 583//583 582//582 584//584
f 584//584 585//585 583//583
f 585//585 586//586 583//583
f 588//588 590//590 587//587
f 588//588 587//587 589//589
f 590//590 588//588 591//591
f 592//592 591//591 588//588
f 592//592 588//588 593//593
f 593//593 594//594 592//592
f 594//594 593//593 595//595
f 596//596 594//594 595//595
f 596//596 595//595 597//597
f 598//598 596//596 597//597
f 598//598 597//597 599//599
f 600//600 598//598 599//599
f 600//600 599//599 601//601
f 601//601 603//603 600//600
f 600//600 603//603 602//602
f 603//603 601//601 604//604
f 605//605 603//603 604//604
f 605//605 604//604 606//606
f 609//609 602//602 603//603
f 609//609 603//603 605//605
f 605//605 606//606 607//607
f 607//607 608//608 605//605
f 608//608 609//609 605//605
f 595//595 593//593 610//610
f 593//593 588//588 589//589
f 593//593 589//589 610//610
f 611//611 612//612 614//614
f 612//612 611//611 613//613
f 615//615 614//614 612//612
f 616//616 618//618 619//619
f 616//616 619//619 617//617
f 620//620 621//621 617//617
f 620//620 617//617 619//619
f 622//622 624//624 625//625
f 622//622 625//625 623//623
f 626//626 627//627 623//623
f 626//626 623//623 625//625
f 629//629 628//628 630//630
f 629//629 630//630 631//631
f 630//630 632//632 634//634
f 630//630 634//634 631//631
f 630//630 633//633 632//632
f 631//631 635//635 629//629
f 637//637 636//636 638//638
f 637//637 638//638 639//639
f 638//638 640//640 642//642
f 638//638 642//642 639//639
f 638//638 641//641 640//640
f 639//639 643//643 637//637
f 644//644 646//646 647//647
f 644//644 647//647 645//645
f 648//648 649//649 645//645
f 648//648 645//645 647//647
f 651//651 652//652 650//650
f 654//654 652//652 653//653
f 652//652 651//651 653//653
f 655//655 653//653 651//651
f 655//655 651//651 657//657
f 656//656 655//655 657//657
f 656//656 657//657 658//658
f 656//656 658//658 659//659
f 658//658 660//660 659//659
f 661//661 656//656 659//659
f 662//662 663//663 665//665
f 663//663 662//662 664//664
f 666//666 667//667 665//665
f 666//666 665//665 663//663
f 668//668 665//665 667//667
f 667//667 669//669 668//668
f 670//670 669//669 667//667
f 670//670 667//667 671//671
f 671//671 672//672 670//670
f 672//672 671//671 673//673
f 673//673 674//674 672//672
f 675//675 677//677 674//674
f 674//674 673//673 675//675
f 674//674 677//677 676//676
f 677//677 675//675 678//678
f 678//678 680//680 677//677
f 677//677 681//681 676//676
f 681//681 677//677 679//679
f 677//677 680//680 679//679
f 682//682 681//681 679//679
f 682//682 679//679 688//688
f 684//684 683//683 681//681
f 684//684 681//681 682//682
f 676//676 681//681 683//683
f 682//682 685//685 684//684
f 685//685 682//682 686//686
f 686//686 688//688 689//689
f 686//686 689//689 687//687
f 688//688 686//686 682//682
f 688//688 679//679 680//680
f 688//688 680//680 689//689
f 689//689 690//690 687//687
f 689//689 680//680 691//691
f 689//689 691//691 690//690
f 680//680 678//678 691//691
f 675//675 673//673 692//692
f 692//692 694//694 693//693
f 673//673 694//694 692//692
f 694//694 673//673 695//695
f 694//694 663//663 664//664
f 694//694 664//664 693//693
f 695//695 666//666 663//663
f 695//695 663//663 694//694
f 673//673 671//671 695//695
f 671//671 667//667 666//666
f 671//671 666//666 695//695
f 697//697 698//698 696//696
f 698//698 697//697 700//700
f 699//699 698//698 700//700
f 701//701 700//700 697//697
f 701//701 697//697 702//702
f 703//703 701//701 702//702
f 703//703 702//702 706//706
f 704//704 703//703 705//705
f 703//703 706//706 705//705
f 706//706 707//707 705//705
f 708//708 710//710 711//711
f 708//708 711//711 709//709
f 712//712 713//713 709//709
f 712//712 709//709 711//711
f 714//714 715//715 717//717
f 715//715 714//714 716//716
f 714//714 717//717 718//718
f 714//714 718//718 721//721
f 719//719 722//722 714//714
f 714//714 720//720 719//719
f 714//714 721//721 720//720
f 722//722 723//723 714//714
f 723//723 725//725 724//724
f 723//723 726//726 725//725
f 727//727 726//726 723//723
f 723//723 728//728 727//727
f 723//723 729//729 728//728
f 723//723 730//730 729//729
f 730//730 723//723 722//722
f 724//724 725//725 731//731
f 731//731 732//732 724//724
f 724//724 732//732 733//733
f 724//724 733//733 734//734
f 734//734 736//736 724//724
f 736//736 734//734 735//735
f 736//736 738//738 737//737
f 735//735 740//740 736//736
f 738//738 736//736 739//739
f 739//739 736//736 740//740
f 738//738 741//741 737//737
f 742//742 737//737 741//741
f 737//737 742//742 743//743
f 737//737 743//743 744//744
f 737//737 744//744 745//745
f 745//745 744//744 746//746
f 746//746 747//747 745//745
f 748//748 745//745 747//747
f 745//745 748//748 749//749
f 745//745 749//749 750//750
f 751//751 745//745 750//750
f 745//745 751//751 752//752
f 751//751 753//753 752//752
f 752//752 753//753 754//754
f 754//754 755//755 752//752
f 752//752 755//755 756//756
f 752//752 756//756 757//757
f 757//757 758//758 752//752
f 758//758 759//759 760//760
f 760//760 752//752 758//758
f 759//759 761//761 760//760
f 761//761 759//759 762//762
f 763//763 762//762 764//764
f 762//762 759//759 764//764
f 763//763 764//764 765//765
f 763//763 765//765 767//767
f 765//765 766//766 767//767
f 767//767 766//766 768//768
f 766//766 769//769 768//768
f 770//770 769//769 771//771
f 769//769 766//766 771//771
f 772//772 771//771 773//773
f 772//772 770//770 771//771
f 774//774 772//772 773//773
f 774//774 777//777 775//775
f 775//775 776//776 774//774
f 774//774 776//776 772//772
f 778//778 777//777 781//781
f 778//778 775//775 777//777
f 779//779 780//780 777//777
f 777//777 780//780 781//781
f 783//783 782//782 780//780
f 784//784 783//783 780//780
f 780//780 785//785 784//784
f 786//786 785//785 780//780
f 779//779 786//786 780//780
f 787//787 782//782 783//783
f 788//788 782//782 787//787
f 789//789 790//790 788//788
f 788//788 790//790 782//782
f 790//790 793//793 791//791
f 792//792 790//790 789//789
f 792//792 793//793 790//790
f 791//791 793//793 794//794
f 794//794 795//795 791//791
f 791//791 795//795 796//796
f 797//797 791//791 796//796
f 799//799 797//797 798//798
f 791//791 797//797 799//799
f 801//801 800//800 799//799
f 801//801 799//799 802//802
f 802//802 799//799 803//803
f 799//799 804//804 803//803
f 799//799 798//798 804//804
f 801//801 807//807 805//805
f 805//805 800//800 801//801
f 801//801 806//806 807//807
f 808//808 807//807 806//806
f 808//808 806//806 809//809
f 810//810 809//809 811//811
f 811//811 809//809 812//812
f 809//809 806//806 812//812
f 814//814 811//811 813//813
f 814//814 810//810 811//811
f 814//814 813//813 815//815
f 815//815 813//813 816//816
f 818//818 817//817 816//816
f 813//813 818//818 816//816
f 819//819 817//817 818//818
f 819//819 821//821 817//817
f 821//821 819//819 820//820
f 822//822 821//821 820//820
f 822//822 820//820 716//716
f 716//716 820//820 715//715
