# joint_13 exported from /models/guards/joint_13.glb
# units: meters
v -0.014066 0.001000 -0.008947
v -0.015257 0.001000 -0.006442
v -0.015221 0.001000 -0.004013
v -0.015330 0.001000 -0.011300
v -0.015403 0.001000 -0.016158
v -0.015475 0.001000 -0.021016
v -0.015548 0.001000 -0.025874
v -0.014578 0.001000 -0.043115
v -0.012316 0.001000 -0.000461
v -0.007050 0.001000 0.007300
v -0.009246 0.001000 0.009562
v -0.014126 0.001000 0.003080
v -0.016727 0.001000 -0.004215
v -0.017168 0.001000 -0.005311
v -0.016472 0.001000 -0.006424
v -0.017723 0.001000 -0.008835
v -0.018064 0.001000 -0.006224
v -0.019248 0.001000 -0.006706
v -0.018937 0.001000 -0.008816
v -0.018973 0.001000 -0.011245
v -0.020387 0.001000 -0.009853
v -0.020420 0.001000 -0.012057
v -0.023759 0.001000 -0.006315
v -0.026692 0.001000 -0.009758
v -0.021526 0.001000 -0.006257
v -0.020430 0.001000 -0.006699
v -0.022439 0.001000 -0.005362
v -0.022921 0.001000 -0.004177
v -0.022914 0.001000 -0.002996
v -0.023722 0.001000 -0.003886
v -0.023686 0.001000 -0.001457
v -0.024937 0.001000 -0.003867
v -0.026677 0.001000 -0.008758
v -0.024900 0.001000 -0.001439
v -0.024973 0.001000 -0.006297
v -0.023972 0.001000 0.004356
v -0.019689 0.001000 0.006050
v -0.015834 0.001000 0.016350
v -0.013638 0.001000 0.014088
v -0.005422 0.001000 0.019896
v -0.003601 0.001000 0.024126
v 0.003716 0.001000 0.022848
v 0.009588 0.001000 0.026438
v 0.004897 0.001000 0.022820
v 0.009469 0.001000 0.022342
v 0.008255 0.001000 0.022361
v 0.006067 0.001000 0.022302
v 0.010588 0.001000 0.026423
v 0.010494 0.001000 0.020117
v 0.009433 0.001000 0.019913
v 0.012698 0.001000 0.020084
v 0.009397 0.001000 0.017484
v 0.008182 0.001000 0.017503
v 0.009400 0.001000 0.013827
v 0.004749 0.001000 0.016627
v 0.000865 0.001000 0.012331
v 0.005858 0.001000 0.017036
v 0.019113 0.001000 0.017339
v 0.022756 0.001000 0.017284
v 0.021542 0.001000 0.017303
v 0.016684 0.001000 0.017375
v 0.014255 0.001000 0.017412
v 0.043568 0.001000 0.013315
v 0.045895 0.001000 0.013723
v 0.038637 0.001000 0.017459
v 0.024961 0.001000 0.017664
v 0.040974 0.001000 0.017012
v 0.045832 0.001000 0.016939
v 0.043403 0.001000 0.016975
v 0.043476 0.001000 0.021833
v 0.041010 0.001000 0.019441
v 0.040353 0.001000 0.018847
v 0.040493 0.001000 0.019668
v 0.040378 0.001000 0.020493
v 0.041046 0.001000 0.021870
v 0.041083 0.001000 0.024299
v 0.039832 0.001000 0.021888
v 0.039983 0.001000 0.021257
v 0.039373 0.001000 0.021765
v 0.038704 0.001000 0.021931
v 0.039868 0.001000 0.024317
v 0.013792 0.001000 0.026375
v 0.043756 0.001000 0.025926
v 0.025028 0.001000 0.022136
v 0.024328 0.001000 0.021977
v 0.022829 0.001000 0.022142
v 0.023323 0.001000 0.020781
v 0.022793 0.001000 0.019713
v 0.021614 0.001000 0.022161
v 0.023729 0.001000 0.021501
v 0.019185 0.001000 0.022197
v 0.021578 0.001000 0.019732
v 0.016756 0.001000 0.022233
v 0.014327 0.001000 0.022270
v 0.014364 0.001000 0.024699
v 0.013149 0.001000 0.024717
v 0.012792 0.001000 0.026390
v 0.013113 0.001000 0.022288
v 0.023172 0.001000 0.019927
v 0.023298 0.001000 0.019069
v 0.023682 0.001000 0.018338
v 0.024266 0.001000 0.017844
v 0.045904 0.001000 0.021797
v 0.046071 0.001000 0.025449
v 0.048187 0.001000 0.024012
v 0.049559 0.001000 0.021854
v 0.048334 0.001000 0.021761
v 0.049967 0.001000 0.019526
v 0.048261 0.001000 0.016903
v 0.049490 0.001000 0.017212
v 0.048054 0.001000 0.015095
v 0.039936 0.001000 0.018095
v 0.039311 0.001000 0.017606
v 0.006797 0.001000 0.017904
v 0.007315 0.001000 0.019073
v 0.008219 0.001000 0.019932
v 0.007343 0.001000 0.020254
v 0.006934 0.001000 0.021363
v -0.002620 0.001000 0.014247
v -0.025082 0.001000 -0.013584
v -0.026725 0.001000 -0.011962
v -0.022690 0.001000 -0.016049
v -0.021475 0.001000 -0.016067
v -0.020261 0.001000 -0.016085
v -0.020297 0.001000 -0.018514
v -0.019046 0.001000 -0.016103
v -0.017759 0.001000 -0.011264
v -0.017832 0.001000 -0.016122
v -0.017868 0.001000 -0.018551
v -0.017904 0.001000 -0.020980
v -0.019082 0.001000 -0.018533
v -0.019243 0.001000 -0.021169
v -0.019963 0.001000 -0.020763
v -0.020817 0.001000 -0.020611
v -0.021511 0.001000 -0.018496
v -0.021675 0.001000 -0.020737
v -0.022726 0.001000 -0.018478
v -0.022406 0.001000 -0.021122
v -0.022762 0.001000 -0.020907
v -0.022900 0.001000 -0.021705
v -0.023080 0.001000 -0.022400
v -0.023977 0.001000 -0.020889
v -0.025119 0.001000 -0.016013
v -0.024013 0.001000 -0.023318
v -0.025191 0.001000 -0.020871
v -0.025228 0.001000 -0.023300
v -0.026333 0.001000 -0.015994
v -0.026297 0.001000 -0.013565
v -0.026740 0.001000 -0.012962
v -0.025264 0.001000 -0.025729
v -0.027189 0.001000 -0.042926
v -0.026781 0.001000 -0.045254
v -0.025409 0.001000 -0.035445
v -0.025482 0.001000 -0.040303
v -0.025446 0.001000 -0.037874
v -0.025555 0.001000 -0.045161
v -0.024268 0.001000 -0.040321
v -0.025409 0.001000 -0.047413
v -0.023126 0.001000 -0.045197
v -0.020978 0.001000 -0.049326
v -0.023292 0.001000 -0.048849
v -0.023053 0.001000 -0.040339
v -0.021839 0.001000 -0.040357
v -0.020697 0.001000 -0.045233
v -0.018650 0.001000 -0.048918
v -0.018268 0.001000 -0.045270
v -0.020624 0.001000 -0.040375
v -0.019410 0.001000 -0.040394
v -0.018195 0.001000 -0.040412
v -0.020251 0.001000 -0.037817
v -0.019487 0.001000 -0.037423
v -0.018159 0.001000 -0.037983
v -0.018812 0.001000 -0.036144
v -0.018123 0.001000 -0.035554
v -0.015766 0.001000 -0.040448
v -0.018980 0.001000 -0.036812
v -0.015693 0.001000 -0.035590
v -0.015621 0.001000 -0.030732
v -0.018050 0.001000 -0.030696
v -0.017977 0.001000 -0.025838
v -0.018608 0.001000 -0.022467
v -0.018768 0.001000 -0.021767
v -0.017941 0.001000 -0.023409
v -0.015839 0.001000 -0.045306
v -0.015055 0.001000 -0.045429
v -0.016492 0.001000 -0.047546
v -0.021076 0.001000 -0.037933
v -0.021897 0.001000 -0.037793
v -0.022649 0.001000 -0.037375
v -0.023017 0.001000 -0.037910
v -0.024231 0.001000 -0.037892
v -0.023138 0.001000 -0.036750
v -0.023285 0.001000 -0.036077
v -0.024050 0.001000 -0.025747
v -0.024195 0.001000 -0.035463
v -0.023285 0.001000 -0.036077
v -0.023138 0.001000 -0.036750
v -0.023285 0.000000 -0.036077
v -0.023138 -0.001000 -0.036750
v -0.023285 -0.001000 -0.036077
v -0.022649 -0.001000 -0.037375
v -0.021897 -0.001000 -0.037793
v -0.022649 0.001000 -0.037375
v -0.021897 0.001000 -0.037793
v -0.021076 0.001000 -0.037933
v -0.021076 -0.001000 -0.037933
v -0.020251 0.001000 -0.037817
v -0.020251 -0.001000 -0.037817
v -0.019487 0.001000 -0.037423
v -0.018980 0.001000 -0.036812
v -0.019487 -0.001000 -0.037423
v -0.018980 -0.001000 -0.036812
v -0.018812 -0.001000 -0.036144
v -0.018812 0.000000 -0.036144
v -0.018812 0.001000 -0.036144
v -0.023285 0.001000 -0.036077
v -0.023217 0.001000 -0.031518
v -0.023285 0.000000 -0.036077
v -0.023285 -0.001000 -0.036077
v -0.023217 -0.001000 -0.031518
v -0.023149 -0.001000 -0.026959
v -0.023149 0.001000 -0.026959
v -0.023080 -0.001000 -0.022400
v -0.023080 0.000000 -0.022400
v -0.023080 0.001000 -0.022400
v -0.023080 0.001000 -0.022400
v -0.023080 0.000000 -0.022400
v -0.022900 0.001000 -0.021705
v -0.022406 0.001000 -0.021122
v -0.022900 -0.001000 -0.021705
v -0.023080 -0.001000 -0.022400
v -0.022406 -0.001000 -0.021122
v -0.021675 -0.001000 -0.020737
v -0.021675 0.001000 -0.020737
v -0.020817 -0.001000 -0.020611
v -0.020817 0.001000 -0.020611
v -0.019963 -0.001000 -0.020763
v -0.019963 0.001000 -0.020763
v -0.019243 -0.001000 -0.021169
v -0.018768 -0.001000 -0.021767
v -0.019243 0.001000 -0.021169
v -0.018768 0.001000 -0.021767
v -0.018608 0.001000 -0.022467
v -0.018608 0.000000 -0.022467
v -0.018608 -0.001000 -0.022467
v -0.018812 0.001000 -0.036144
v -0.018744 0.001000 -0.031585
v -0.018812 0.000000 -0.036144
v -0.018744 -0.001000 -0.031585
v -0.018812 -0.001000 -0.036144
v -0.018676 -0.001000 -0.027026
v -0.018676 0.001000 -0.027026
v -0.018608 -0.001000 -0.022467
v -0.018608 0.000000 -0.022467
v -0.018608 0.001000 -0.022467
v 0.003716 0.001000 0.022848
v 0.003716 -0.000000 0.022848
v 0.004897 0.001000 0.022820
v 0.004897 -0.001000 0.022820
v 0.006067 0.001000 0.022302
v 0.006067 -0.001000 0.022302
v 0.006934 0.001000 0.021363
v 0.006934 -0.001000 0.021363
v 0.007343 0.001000 0.020254
v 0.007315 0.001000 0.019073
v 0.007343 -0.001000 0.020254
v 0.007315 -0.001000 0.019073
v 0.006797 -0.001000 0.017904
v 0.005858 -0.001000 0.017036
v 0.006797 0.001000 0.017904
v 0.005858 0.001000 0.017036
v 0.004749 0.001000 0.016627
v 0.004749 -0.000000 0.016627
v 0.004749 -0.001000 0.016627
v 0.003716 -0.001000 0.022848
v -0.016727 0.001000 -0.004215
v -0.015719 0.001000 -0.000534
v -0.016727 0.000000 -0.004215
v -0.015719 -0.001000 -0.000534
v -0.016727 -0.001000 -0.004215
v -0.014126 -0.001000 0.003080
v -0.011953 -0.001000 0.006491
v -0.014126 0.001000 0.003080
v -0.011953 0.001000 0.006491
v -0.009246 0.001000 0.009562
v -0.006095 0.001000 0.012176
v -0.009246 -0.001000 0.009562
v -0.006095 -0.001000 0.012176
v -0.002620 -0.001000 0.014247
v -0.002620 0.001000 0.014247
v 0.001040 -0.001000 0.015731
v 0.004749 -0.001000 0.016627
v 0.004749 -0.000000 0.016627
v 0.001040 0.001000 0.015731
v 0.004749 0.001000 0.016627
v -0.016727 0.001000 -0.004215
v -0.016727 0.000000 -0.004215
v -0.017168 0.001000 -0.005311
v -0.018064 0.001000 -0.006224
v -0.017168 -0.001000 -0.005311
v -0.016727 -0.001000 -0.004215
v -0.018064 -0.001000 -0.006224
v -0.019248 -0.001000 -0.006706
v -0.019248 0.001000 -0.006706
v -0.020430 -0.001000 -0.006699
v -0.020430 0.001000 -0.006699
v -0.021526 -0.001000 -0.006257
v -0.021526 0.001000 -0.006257
v -0.022439 -0.001000 -0.005362
v -0.022921 -0.001000 -0.004177
v -0.022439 0.001000 -0.005362
v -0.022921 0.001000 -0.004177
v -0.022914 0.001000 -0.002996
v -0.022914 0.000000 -0.002996
v -0.022914 -0.001000 -0.002996
v -0.022914 0.001000 -0.002996
v -0.021665 0.001000 0.001568
v -0.022367 0.000500 -0.000671
v -0.022914 0.000000 -0.002996
v -0.022367 -0.000500 -0.000671
v -0.022367 -0.000000 -0.000671
v -0.022914 -0.001000 -0.002996
v -0.021665 -0.001000 0.001568
v -0.021635 -0.000500 0.001653
v -0.019689 -0.001000 0.006050
v -0.016994 -0.001000 0.010279
v -0.019689 0.001000 0.006050
v -0.021635 -0.000000 0.001653
v -0.021635 0.000500 0.001653
v -0.016994 0.001000 0.010279
v -0.013638 0.001000 0.014088
v -0.009731 0.001000 0.017329
v -0.013638 -0.001000 0.014088
v -0.009731 -0.001000 0.017329
v -0.005422 -0.001000 0.019896
v -0.000849 -0.000500 0.021747
v -0.005422 0.001000 0.019896
v -0.000883 -0.001000 0.021736
v -0.000849 -0.000000 0.021747
v 0.001436 -0.000000 0.022385
v -0.000849 0.000500 0.021747
v 0.001436 0.000500 0.022385
v -0.000883 0.001000 0.021736
v 0.003716 0.001000 0.022848
v 0.003716 -0.000000 0.022848
v 0.003716 -0.001000 0.022848
v 0.001436 -0.000500 0.022385
v 0.038704 0.001000 0.021931
v 0.038704 -0.000000 0.021931
v 0.039373 0.001000 0.021765
v 0.039983 0.001000 0.021257
v 0.039373 -0.001000 0.021765
v 0.038704 -0.001000 0.021931
v 0.039983 -0.001000 0.021257
v 0.040378 -0.001000 0.020493
v 0.040378 0.001000 0.020493
v 0.040493 -0.001000 0.019668
v 0.040493 0.001000 0.019668
v 0.040353 -0.001000 0.018847
v 0.040353 0.001000 0.018847
v 0.039936 -0.001000 0.018095
v 0.039311 -0.001000 0.017606
v 0.039936 0.001000 0.018095
v 0.039311 0.001000 0.017606
v 0.038637 0.001000 0.017459
v 0.038637 -0.000000 0.017459
v 0.038637 -0.001000 0.017459
v 0.024961 0.001000 0.017664
v 0.028380 0.001000 0.017613
v 0.024961 -0.000000 0.017664
v 0.024961 -0.001000 0.017664
v 0.028380 -0.001000 0.017613
v 0.031799 -0.001000 0.017561
v 0.035218 -0.001000 0.017510
v 0.031799 0.001000 0.017561
v 0.035218 0.001000 0.017510
v 0.038637 0.001000 0.017459
v 0.038637 -0.000000 0.017459
v 0.038637 -0.001000 0.017459
v 0.024961 0.001000 0.017664
v 0.024961 -0.000000 0.017664
v 0.024266 0.001000 0.017844
v 0.023682 0.001000 0.018338
v 0.024266 -0.001000 0.017844
v 0.024961 -0.001000 0.017664
v 0.023682 -0.001000 0.018338
v 0.023298 -0.001000 0.019069
v 0.023298 0.001000 0.019069
v 0.023172 -0.001000 0.019927
v 0.023172 0.001000 0.019927
v 0.023323 -0.001000 0.020781
v 0.023323 0.001000 0.020781
v 0.023729 -0.001000 0.021501
v 0.024328 -0.001000 0.021977
v 0.023729 0.001000 0.021501
v 0.024328 0.001000 0.021977
v 0.025028 0.001000 0.022136
v 0.025028 -0.000000 0.022136
v 0.025028 -0.001000 0.022136
v 0.038704 0.001000 0.021931
v 0.035285 0.001000 0.021983
v 0.038704 -0.000000 0.021931
v 0.038704 -0.001000 0.021931
v 0.035285 -0.001000 0.021983
v 0.031866 -0.001000 0.022034
v 0.028447 -0.001000 0.022085
v 0.031866 0.001000 0.022034
v 0.028447 0.001000 0.022085
v 0.025028 0.001000 0.022136
v 0.025028 -0.000000 0.022136
v 0.025028 -0.001000 0.022136
v -0.014066 -0.001000 -0.008947
v -0.014152 0.000000 -0.014642
v -0.014152 -0.001000 -0.014642
v -0.014066 0.001000 -0.008947
v -0.014152 0.001000 -0.014642
v -0.014237 0.001000 -0.020336
v -0.014237 0.000000 -0.020336
v -0.014407 0.001000 -0.031726
v -0.014407 0.000000 -0.031726
v -0.014493 0.001000 -0.037420
v -0.014493 0.000500 -0.037420
v -0.014535 0.000500 -0.040268
v -0.014493 0.000000 -0.037420
v -0.014535 0.000000 -0.040268
v -0.014493 -0.000500 -0.037420
v -0.014535 -0.000500 -0.040268
v -0.014493 -0.001000 -0.037420
v -0.014407 -0.001000 -0.031726
v -0.014237 -0.001000 -0.020336
v -0.014535 -0.001000 -0.040268
v -0.014578 -0.001000 -0.043115
v -0.014578 0.000000 -0.043115
v -0.014578 0.001000 -0.043115
v -0.014535 0.001000 -0.040268
v -0.027189 -0.001000 -0.042926
v -0.027150 -0.000500 -0.040346
v -0.027150 -0.001000 -0.040346
v -0.027189 0.000000 -0.042926
v -0.027150 0.000000 -0.040346
v -0.027150 0.000500 -0.040346
v -0.027189 0.001000 -0.042926
v -0.027150 0.001000 -0.040346
v -0.027112 0.001000 -0.037766
v -0.027112 0.000500 -0.037766
v -0.027034 0.001000 -0.032605
v -0.027034 0.000000 -0.032605
v -0.026880 0.001000 -0.022283
v -0.026880 0.000000 -0.022283
v -0.026794 0.001000 -0.016572
v -0.026725 0.001000 -0.011962
v -0.026794 0.000000 -0.016572
v -0.026794 -0.001000 -0.016572
v -0.026725 -0.001000 -0.011962
v -0.026880 -0.001000 -0.022283
v -0.027034 -0.001000 -0.032605
v -0.027112 -0.001000 -0.037766
v -0.027112 -0.000500 -0.037766
v -0.027112 0.000000 -0.037766
v -0.026725 -0.001000 -0.011962
v -0.023573 -0.001000 -0.012009
v -0.026725 0.001000 -0.011962
v -0.023573 0.001000 -0.012009
v -0.020420 0.001000 -0.012057
v -0.020420 0.000000 -0.012057
v -0.020420 -0.001000 -0.012057
v -0.020420 -0.001000 -0.012057
v -0.020420 0.000000 -0.012057
v -0.020387 -0.001000 -0.009853
v -0.020387 0.000000 -0.009853
v -0.020387 0.001000 -0.009853
v -0.020420 0.001000 -0.012057
v -0.020387 -0.001000 -0.009853
v -0.020387 0.000000 -0.009853
v -0.023540 -0.001000 -0.009806
v -0.023540 0.001000 -0.009806
v -0.026692 0.000000 -0.009758
v -0.026692 -0.001000 -0.009758
v -0.026692 0.001000 -0.009758
v -0.020387 0.001000 -0.009853
v 0.009588 -0.001000 0.026438
v 0.010588 -0.001000 0.026423
v 0.009588 -0.000000 0.026438
v 0.009588 0.001000 0.026438
v 0.010588 -0.000000 0.026423
v 0.010588 0.001000 0.026423
v 0.010588 -0.001000 0.026423
v 0.010541 -0.001000 0.023270
v 0.010588 -0.000000 0.026423
v 0.010588 0.001000 0.026423
v 0.010541 0.001000 0.023270
v 0.010494 0.001000 0.020117
v 0.010494 -0.000000 0.020117
v 0.010494 -0.001000 0.020117
v 0.010494 -0.001000 0.020117
v 0.010494 -0.000000 0.020117
v 0.011596 -0.001000 0.020101
v 0.011596 0.001000 0.020101
v 0.012698 -0.000000 0.020084
v 0.012698 -0.001000 0.020084
v 0.012698 0.001000 0.020084
v 0.010494 0.001000 0.020117
v 0.012698 -0.001000 0.020084
v 0.012698 -0.000000 0.020084
v 0.012745 -0.001000 0.023237
v 0.012745 0.001000 0.023237
v 0.012792 -0.001000 0.026390
v 0.012792 0.001000 0.026390
v 0.012698 0.001000 0.020084
v 0.012792 -0.001000 0.026390
v 0.017659 -0.000000 0.026317
v 0.017659 -0.001000 0.026317
v 0.012792 0.001000 0.026390
v 0.017659 0.001000 0.026317
v 0.023081 0.001000 0.026236
v 0.023081 -0.000000 0.026236
v 0.033435 0.001000 0.026081
v 0.033435 -0.000000 0.026081
v 0.038596 0.001000 0.026003
v 0.038596 0.000500 0.026003
v 0.041176 0.000500 0.025965
v 0.038596 -0.000000 0.026003
v 0.041176 -0.000000 0.025965
v 0.038596 -0.000500 0.026003
v 0.041176 -0.000500 0.025965
v 0.038596 -0.001000 0.026003
v 0.033435 -0.001000 0.026081
v 0.023081 -0.001000 0.026236
v 0.041176 -0.001000 0.025965
v 0.043756 -0.001000 0.025926
v 0.043756 -0.000000 0.025926
v 0.043756 0.001000 0.025926
v 0.041176 0.001000 0.025965
v 0.043756 -0.001000 0.025926
v 0.046145 -0.001000 0.025417
v 0.043756 -0.000000 0.025926
v 0.043756 0.001000 0.025926
v 0.046145 0.001000 0.025417
v 0.048233 0.001000 0.023965
v 0.049571 0.001000 0.021824
v 0.048233 -0.001000 0.023965
v 0.049571 -0.001000 0.021824
v 0.049967 -0.001000 0.019526
v 0.049967 0.001000 0.019526
v 0.049459 -0.001000 0.017138
v 0.049459 0.001000 0.017138
v 0.048007 -0.001000 0.015050
v 0.048007 0.001000 0.015050
v 0.045866 -0.001000 0.013712
v 0.045866 0.001000 0.013712
v 0.043568 -0.000000 0.013315
v 0.043568 -0.001000 0.013315
v 0.043568 0.001000 0.013315
v 0.043568 -0.001000 0.013315
v 0.040720 -0.000500 0.013358
v 0.040720 -0.001000 0.013358
v 0.043568 -0.000000 0.013315
v 0.040720 -0.000000 0.013358
v 0.040720 0.000500 0.013358
v 0.043568 0.001000 0.013315
v 0.040720 0.001000 0.013358
v 0.037873 0.001000 0.013400
v 0.037873 0.000500 0.013400
v 0.032178 0.001000 0.013486
v 0.032178 -0.000000 0.013486
v 0.020789 0.001000 0.013656
v 0.020789 -0.000000 0.013656
v 0.015094 0.001000 0.013741
v 0.009400 0.001000 0.013827
v 0.015094 -0.000000 0.013741
v 0.009400 -0.001000 0.013827
v 0.015094 -0.001000 0.013741
v 0.020789 -0.001000 0.013656
v 0.032178 -0.001000 0.013486
v 0.037873 -0.001000 0.013400
v 0.037873 -0.000500 0.013400
v 0.037873 -0.000000 0.013400
v 0.009400 -0.001000 0.013827
v 0.005049 -0.000000 0.013480
v 0.005049 -0.001000 0.013480
v 0.009400 0.001000 0.013827
v 0.005049 0.001000 0.013480
v 0.000590 0.001000 0.012225
v 0.000590 -0.000000 0.012225
v -0.007222 0.001000 0.007131
v -0.012360 0.001000 -0.000568
v -0.012360 -0.000000 -0.000568
v -0.007222 -0.001000 0.007131
v 0.000590 -0.001000 0.012225
v -0.012360 -0.001000 -0.000568
v -0.013628 -0.001000 -0.004800
v -0.013628 0.000000 -0.004800
v -0.014066 -0.001000 -0.008947
v -0.014066 0.001000 -0.008947
v -0.013628 0.001000 -0.004800
v -0.014578 -0.001000 -0.043115
v -0.014578 0.000000 -0.043115
v -0.015087 -0.001000 -0.045503
v -0.015087 0.001000 -0.045503
v -0.016539 -0.001000 -0.047591
v -0.016539 0.001000 -0.047591
v -0.018680 -0.001000 -0.048929
v -0.018680 0.001000 -0.048929
v -0.020978 -0.001000 -0.049326
v -0.020978 0.001000 -0.049326
v -0.023366 -0.001000 -0.048817
v -0.023366 0.001000 -0.048817
v -0.025454 -0.001000 -0.047365
v -0.025454 0.001000 -0.047365
v -0.026792 -0.001000 -0.045224
v -0.026792 0.001000 -0.045224
v -0.027189 -0.001000 -0.042926
v -0.027189 0.000000 -0.042926
v -0.027189 0.001000 -0.042926
v -0.014578 0.001000 -0.043115
v -0.026692 -0.001000 -0.009758
v -0.026692 0.000000 -0.009758
v -0.026677 -0.001000 -0.008758
v -0.026677 0.000000 -0.008758
v -0.026677 0.001000 -0.008758
v -0.026692 0.001000 -0.009758
v -0.026677 -0.001000 -0.008758
v -0.026539 -0.000500 -0.006105
v -0.026539 -0.001000 -0.006105
v -0.026677 0.000000 -0.008758
v -0.026677 0.001000 -0.008758
v -0.026539 0.000000 -0.006105
v -0.026539 0.000500 -0.006105
v -0.026539 0.001000 -0.006105
v -0.026191 0.000500 -0.003395
v -0.026191 0.000000 -0.003395
v -0.024816 0.001000 0.002101
v -0.026191 0.001000 -0.003395
v -0.024816 -0.000000 0.002101
v -0.019449 0.001000 0.012261
v -0.024816 -0.001000 0.002101
v -0.026191 -0.000500 -0.003395
v -0.019449 -0.001000 0.012261
v -0.011031 -0.001000 0.020263
v -0.011031 0.001000 0.020263
v -0.000799 -0.000000 0.025057
v -0.000799 -0.001000 0.025057
v 0.004471 -0.000500 0.026147
v 0.004471 -0.001000 0.026147
v 0.007059 -0.001000 0.026386
v 0.007059 -0.000500 0.026386
v 0.009588 -0.001000 0.026438
v 0.009588 -0.000000 0.026438
v 0.009588 0.001000 0.026438
v 0.007059 -0.000000 0.026386
v 0.007059 0.000500 0.026386
v 0.004471 0.000500 0.026147
v 0.007059 0.001000 0.026386
v 0.004471 0.001000 0.026147
v -0.000799 0.001000 0.025057
v 0.004471 -0.000000 0.026147
v -0.026191 -0.001000 -0.003395
v -0.014578 -0.001000 -0.043115
v -0.015839 -0.001000 -0.045306
v -0.015766 -0.001000 -0.040448
v -0.015693 -0.001000 -0.035590
v -0.015621 -0.001000 -0.030732
v -0.015548 -0.001000 -0.025874
v -0.014066 -0.001000 -0.008947
v -0.015055 -0.001000 -0.045429
v -0.016492 -0.001000 -0.047546
v -0.018650 -0.001000 -0.048918
v -0.018268 -0.001000 -0.045270
v -0.019410 -0.001000 -0.040394
v -0.020697 -0.001000 -0.045233
v -0.018195 -0.001000 -0.040412
v -0.018159 -0.001000 -0.037983
v -0.018812 -0.001000 -0.036144
v -0.018123 -0.001000 -0.035554
v -0.018980 -0.001000 -0.036812
v -0.019487 -0.001000 -0.037423
v -0.020251 -0.001000 -0.037817
v -0.020624 -0.001000 -0.040375
v -0.021076 -0.001000 -0.037933
v -0.021839 -0.001000 -0.040357
v -0.021897 -0.001000 -0.037793
v -0.023017 -0.001000 -0.037910
v -0.022649 -0.001000 -0.037375
v -0.023053 -0.001000 -0.040339
v -0.024268 -0.001000 -0.040321
v -0.023126 -0.001000 -0.045197
v -0.023292 -0.001000 -0.048849
v -0.020978 -0.001000 -0.049326
v -0.025555 -0.001000 -0.045161
v -0.025409 -0.001000 -0.047413
v -0.026781 -0.001000 -0.045254
v -0.027189 -0.001000 -0.042926
v -0.026740 -0.001000 -0.012962
v -0.025446 -0.001000 -0.037874
v -0.025482 -0.001000 -0.040303
v -0.025409 -0.001000 -0.035445
v -0.025264 -0.001000 -0.025729
v -0.026333 -0.001000 -0.015994
v -0.025191 -0.001000 -0.020871
v -0.025119 -0.001000 -0.016013
v -0.026297 -0.001000 -0.013565
v -0.025228 -0.001000 -0.023300
v -0.024013 -0.001000 -0.023318
v -0.023080 -0.001000 -0.022400
v -0.023977 -0.001000 -0.020889
v -0.024050 -0.001000 -0.025747
v -0.024195 -0.001000 -0.035463
v -0.023285 -0.001000 -0.036077
v -0.024231 -0.001000 -0.037892
v -0.023138 -0.001000 -0.036750
v -0.022762 -0.001000 -0.020907
v -0.022900 -0.001000 -0.021705
v -0.022726 -0.001000 -0.018478
v -0.022690 -0.001000 -0.016049
v -0.021511 -0.001000 -0.018496
v -0.022406 -0.001000 -0.021122
v -0.021675 -0.001000 -0.020737
v -0.020817 -0.001000 -0.020611
v -0.020297 -0.001000 -0.018514
v -0.019963 -0.001000 -0.020763
v -0.019082 -0.001000 -0.018533
v -0.019243 -0.001000 -0.021169
v -0.018768 -0.001000 -0.021767
v -0.017904 -0.001000 -0.020980
v -0.017868 -0.001000 -0.018551
v -0.015475 -0.001000 -0.021016
v -0.017941 -0.001000 -0.023409
v -0.018608 -0.001000 -0.022467
v -0.017977 -0.001000 -0.025838
v -0.018050 -0.001000 -0.030696
v -0.015403 -0.001000 -0.016158
v -0.015330 -0.001000 -0.011300
v -0.017832 -0.001000 -0.016122
v -0.017759 -0.001000 -0.011264
v -0.019046 -0.001000 -0.016103
v -0.020261 -0.001000 -0.016085
v -0.020420 -0.001000 -0.012057
v -0.021475 -0.001000 -0.016067
v -0.018973 -0.001000 -0.011245
v -0.018937 -0.001000 -0.008816
v -0.020387 -0.001000 -0.009853
v -0.026692 -0.001000 -0.009758
v -0.023759 -0.001000 -0.006315
v -0.020430 -0.001000 -0.006699
v -0.019248 -0.001000 -0.006706
v -0.021526 -0.001000 -0.006257
v -0.022439 -0.001000 -0.005362
v -0.022921 -0.001000 -0.004177
v -0.023722 -0.001000 -0.003886
v -0.022914 -0.001000 -0.002996
v -0.023686 -0.001000 -0.001457
v -0.019689 -0.001000 0.006050
v -0.015834 -0.001000 0.016350
v -0.013638 -0.001000 0.014088
v -0.023972 -0.001000 0.004356
v -0.024900 -0.001000 -0.001439
v -0.026677 -0.001000 -0.008758
v -0.024973 -0.001000 -0.006297
v -0.024937 -0.001000 -0.003867
v -0.005422 -0.001000 0.019896
v 0.003716 -0.001000 0.022848
v -0.003601 -0.001000 0.024126
v 0.009588 -0.001000 0.026438
v 0.009469 -0.001000 0.022342
v 0.010588 -0.001000 0.026423
v 0.008255 -0.001000 0.022361
v 0.006067 -0.001000 0.022302
v 0.004897 -0.001000 0.022820
v 0.006934 -0.001000 0.021363
v 0.007343 -0.001000 0.020254
v 0.008219 -0.001000 0.019932
v 0.007315 -0.001000 0.019073
v 0.006797 -0.001000 0.017904
v 0.008182 -0.001000 0.017503
v 0.009397 -0.001000 0.017484
v 0.005858 -0.001000 0.017036
v 0.009400 -0.001000 0.013827
v 0.000865 -0.001000 0.012331
v 0.004749 -0.001000 0.016627
v 0.012698 -0.001000 0.020084
v 0.014255 -0.001000 0.017412
v 0.016684 -0.001000 0.017375
v 0.019113 -0.001000 0.017339
v 0.021542 -0.001000 0.017303
v 0.022756 -0.001000 0.017284
v 0.043568 -0.001000 0.013315
v 0.040974 -0.001000 0.017012
v 0.043403 -0.001000 0.016975
v 0.045832 -0.001000 0.016939
v 0.045895 -0.001000 0.013723
v 0.038637 -0.001000 0.017459
v 0.024961 -0.001000 0.017664
v 0.024266 -0.001000 0.017844
v 0.023682 -0.001000 0.018338
v 0.023298 -0.001000 0.019069
v 0.022793 -0.001000 0.019713
v 0.023172 -0.001000 0.019927
v 0.023323 -0.001000 0.020781
v 0.022829 -0.001000 0.022142
v 0.023729 -0.001000 0.021501
v 0.024328 -0.001000 0.021977
v 0.025028 -0.001000 0.022136
v 0.039868 -0.001000 0.024317
v 0.038704 -0.001000 0.021931
v 0.013792 -0.001000 0.026375
v 0.043756 -0.001000 0.025926
v 0.019185 -0.001000 0.022197
v 0.016756 -0.001000 0.022233
v 0.021614 -0.001000 0.022161
v 0.014364 -0.001000 0.024699
v 0.012792 -0.001000 0.026390
v 0.013149 -0.001000 0.024717
v 0.013113 -0.001000 0.022288
v 0.014327 -0.001000 0.022270
v 0.021578 -0.001000 0.019732
v 0.046071 -0.001000 0.025449
v 0.041083 -0.001000 0.024299
v 0.043476 -0.001000 0.021833
v 0.045904 -0.001000 0.021797
v 0.048334 -0.001000 0.021761
v 0.048187 -0.001000 0.024012
v 0.049559 -0.001000 0.021854
v 0.049967 -0.001000 0.019526
v 0.049490 -0.001000 0.017212
v 0.048261 -0.001000 0.016903
v 0.048054 -0.001000 0.015095
v 0.041046 -0.001000 0.021870
v 0.041010 -0.001000 0.019441
v 0.040378 -0.001000 0.020493
v 0.040493 -0.001000 0.019668
v 0.040353 -0.001000 0.018847
v 0.039936 -0.001000 0.018095
v 0.039311 -0.001000 0.017606
v 0.039983 -0.001000 0.021257
v 0.039373 -0.001000 0.021765
v 0.039832 -0.001000 0.021888
v 0.010494 -0.001000 0.020117
v 0.009433 -0.001000 0.019913
v -0.002620 -0.001000 0.014247
v -0.009246 -0.001000 0.009562
v -0.007050 -0.001000 0.007300
v -0.012316 -0.001000 -0.000461
v -0.015221 -0.001000 -0.004013
v -0.014126 -0.001000 0.003080
v -0.016727 -0.001000 -0.004215
v -0.016472 -0.001000 -0.006424
v -0.017168 -0.001000 -0.005311
v -0.018064 -0.001000 -0.006224
v -0.017723 -0.001000 -0.008835
v -0.015257 -0.001000 -0.006442
v -0.025082 -0.001000 -0.013584
v -0.026725 -0.001000 -0.011962
vn 0.000000 1.000000 0.000000
vn 0.000000 1.000000 0.000000
vn 0.000000 1.000000 0.000000
vn 0.000000 1.000000 0.000000
vn 0.000000 1.000000 0.000000
vn 0.000000 1.000000 0.000000
vn 0.000000 1.000000 0.000000
vn 0.000000 1.000000 0.000000
vn 0.000000 1.000000 0.000000
vn 0.000000 1.000000 0.000000
vn 0.000000 1.000000 0.000000
vn 0.000000 1.000000 0.000000
vn 0.000000 1.000000 0.000000
vn 0.000000 1.000000 0.000000
vn 0.000000 1.000000 0.000000
vn 0.000000 1.000000 0.000000
vn 0.000000 1.000000 0.000000
vn 0.000000 1.000000 0.000000
vn 0.000000 1.000000 0.000000
vn 0.000000 1.000000 0.000000
vn 0.000000 1.000000 0.000000
vn 0.000000 1.000000 0.000000
vn 0.000000 1.000000 0.000000
vn 0.000000 1.000000 0.000000
vn 0.000000 1.000000 0.000000
vn 0.000000 1.000000 0.000000
vn 0.000000 1.000000 0.000000
vn 0.000000 1.000000 0.000000
vn 0.000000 1.000000 0.000000
vn 0.000000 1.000000 0.000000
vn 0.000000 1.000000 0.000000
vn 0.000000 1.000000 0.000000
vn 0.000000 1.000000 0.000000
vn 0.000000 1.000000 0.000000
vn 0.000000 1.000000 0.000000
vn 0.000000 1.000000 0.000000
vn 0.000000 1.000000 0.000000
vn 0.000000 1.000000 0.000000
vn 0.000000 1.000000 0.000000
vn 0.000000 1.000000 0.000000
vn 0.000000 1.000000 0.000000
vn 0.000000 1.000000 0.000000
vn 0.000000 1.000000 0.000000
vn 0.000000 1.000000 0.000000
vn 0.000000 1.000000 0.000000
vn 0.000000 1.000000 0.000000
vn 0.000000 1.000000 0.000000
vn 0.000000 1.000000 0.000000
vn 0.000000 1.000000 0.000000
vn 0.000000 1.000000 0.000000
vn 0.000000 1.000000 0.000000
vn 0.000000 1.000000 0.000000
vn 0.000000 1.000000 0.000000
vn 0.000000 1.000000 0.000000
vn 0.000000 1.000000 0.000000
vn 0.000000 1.000000 0.000000
vn 0.000000 1.000000 0.000000
vn 0.000000 1.000000 0.000000
vn 0.000000 1.000000 0.000000
vn 0.000000 1.000000 0.000000
vn 0.000000 1.000000 0.000000
vn 0.000000 1.000000 0.000000
vn 0.000000 1.000000 0.000000
vn 0.000000 1.000000 0.000000
vn 0.000000 1.000000 0.000000
vn 0.000000 1.000000 0.000000
vn 0.000000 1.000000 0.000000
vn 0.000000 1.000000 0.000000
vn 0.000000 1.000000 0.000000
vn 0.000000 1.000000 0.000000
vn 0.000000 1.000000 0.000000
vn 0.000000 1.000000 0.000000
vn 0.000000 1.000000 0.000000
vn 0.000000 1.000000 0.000000
vn 0.000000 1.000000 0.000000
vn 0.000000 1.000000 0.000000
vn 0.000000 1.000000 0.000000
vn 0.000000 1.000000 0.000000
vn 0.000000 1.000000 0.000000
vn 0.000000 1.000000 0.000000
vn 0.000000 1.000000 0.000000
vn 0.000000 1.000000 0.000000
vn 0.000000 1.000000 0.000000
vn 0.000000 1.000000 0.000000
vn 0.000000 1.000000 0.000000
vn 0.000000 1.000000 0.000000
vn 0.000000 1.000000 0.000000
vn 0.000000 1.000000 0.000000
vn 0.000000 1.000000 0.000000
vn 0.000000 1.000000 0.000000
vn 0.000000 1.000000 0.000000
vn 0.000000 1.000000 0.000000
vn 0.000000 1.000000 0.000000
vn 0.000000 1.000000 0.000000
vn 0.000000 1.000000 0.000000
vn 0.000000 1.000000 0.000000
vn 0.000000 1.000000 0.000000
vn 0.000000 1.000000 0.000000
vn 0.000000 1.000000 0.000000
vn 0.000000 1.000000 0.000000
vn 0.000000 1.000000 0.000000
vn 0.000000 1.000000 0.000000
vn 0.000000 1.000000 0.000000
vn 0.000000 1.000000 0.000000
vn 0.000000 1.000000 0.000000
vn 0.000000 1.000000 0.000000
vn 0.000000 1.000000 0.000000
vn 0.000000 1.000000 0.000000
vn 0.000000 1.000000 0.000000
vn 0.000000 1.000000 0.000000
vn 0.000000 1.000000 0.000000
vn 0.000000 1.000000 0.000000
vn 0.000000 1.000000 0.000000
vn 0.000000 1.000000 0.000000
vn 0.000000 1.000000 0.000000
vn 0.000000 1.000000 0.000000
vn 0.000000 1.000000 0.000000
vn 0.000000 1.000000 0.000000
vn 0.000000 1.000000 0.000000
vn 0.000000 1.000000 0.000000
vn 0.000000 1.000000 0.000000
vn 0.000000 1.000000 0.000000
vn 0.000000 1.000000 0.000000
vn 0.000000 1.000000 0.000000
vn 0.000000 1.000000 0.000000
vn 0.000000 1.000000 0.000000
vn 0.000000 1.000000 0.000000
vn 0.000000 1.000000 0.000000
vn 0.000000 1.000000 0.000000
vn 0.000000 1.000000 0.000000
vn 0.000000 1.000000 0.000000
vn 0.000000 1.000000 0.000000
vn 0.000000 1.000000 0.000000
vn 0.000000 1.000000 0.000000
vn 0.000000 1.000000 0.000000
vn 0.000000 1.000000 0.000000
vn 0.000000 1.000000 0.000000
vn 0.000000 1.000000 0.000000
vn 0.000000 1.000000 0.000000
vn 0.000000 1.000000 0.000000
vn 0.000000 1.000000 0.000000
vn 0.000000 1.000000 0.000000
vn 0.000000 1.000000 0.000000
vn 0.000000 1.000000 0.000000
vn 0.000000 1.000000 0.000000
vn 0.000000 1.000000 0.000000
vn 0.000000 1.000000 0.000000
vn 0.000000 1.000000 0.000000
vn 0.000000 1.000000 0.000000
vn 0.000000 1.000000 0.000000
vn 0.000000 1.000000 0.000000
vn 0.000000 1.000000 0.000000
vn 0.000000 1.000000 0.000000
vn 0.000000 1.000000 0.000000
vn 0.000000 1.000000 0.000000
vn 0.000000 1.000000 0.000000
vn 0.000000 1.000000 0.000000
vn 0.000000 1.000000 0.000000
vn 0.000000 1.000000 0.000000
vn 0.000000 1.000000 0.000000
vn 0.000000 1.000000 0.000000
vn 0.000000 1.000000 0.000000
vn 0.000000 1.000000 0.000000
vn 0.000000 1.000000 0.000000
vn 0.000000 1.000000 0.000000
vn 0.000000 1.000000 0.000000
vn 0.000000 1.000000 0.000000
vn 0.000000 1.000000 0.000000
vn 0.000000 1.000000 0.000000
vn 0.000000 1.000000 0.000000
vn 0.000000 1.000000 0.000000
vn 0.000000 1.000000 0.000000
vn 0.000000 1.000000 0.000000
vn 0.000000 1.000000 0.000000
vn 0.000000 1.000000 0.000000
vn 0.000000 1.000000 0.000000
vn 0.000000 1.000000 0.000000
vn 0.000000 1.000000 0.000000
vn 0.000000 1.000000 0.000000
vn 0.000000 1.000000 0.000000
vn 0.000000 1.000000 0.000000
vn 0.000000 1.000000 0.000000
vn 0.000000 1.000000 0.000000
vn 0.000000 1.000000 0.000000
vn 0.000000 1.000000 0.000000
vn 0.000000 1.000000 0.000000
vn 0.000000 1.000000 0.000000
vn 0.000000 1.000000 0.000000
vn 0.000000 1.000000 0.000000
vn 0.000000 1.000000 0.000000
vn 0.000000 1.000000 0.000000
vn 0.000000 1.000000 0.000000
vn 0.000000 1.000000 0.000000
vn 0.000000 1.000000 0.000000
vn 0.000000 1.000000 0.000000
vn 0.999889 0.000000 -0.014900
vn 0.905935 -0.000000 0.423416
vn 0.999889 0.000000 -0.014900
vn 0.905935 -0.000000 0.423416
vn 0.999889 0.000000 -0.014900
vn 0.643307 -0.000000 0.765608
vn 0.321293 -0.000000 0.946980
vn 0.643307 -0.000000 0.765608
vn 0.321293 -0.000000 0.946980
vn 0.015000 -0.000000 0.999887
vn 0.015000 -0.000000 0.999887
vn -0.292793 -0.000000 0.956176
vn -0.292793 -0.000000 0.956176
vn -0.620111 -0.000000 0.784514
vn -0.892821 -0.000000 0.450411
vn -0.620111 -0.000000 0.784514
vn -0.892821 -0.000000 0.450411
vn -0.999886 -0.000000 0.015100
vn -0.999886 -0.000000 0.015100
vn -0.999886 -0.000000 0.015100
vn 0.999887 0.000000 -0.015000
vn 0.999887 0.000000 -0.015000
vn 0.999887 0.000000 -0.015000
vn 0.999887 0.000000 -0.015000
vn 0.999887 0.000000 -0.015000
vn 0.999887 0.000000 -0.015000
vn 0.999887 0.000000 -0.015000
vn 0.999887 0.000000 -0.015000
vn 0.999887 0.000000 -0.015000
vn 0.999887 0.000000 -0.015000
vn 0.999887 0.000000 -0.015000
vn 0.999886 0.000000 -0.015100
vn 0.884580 0.000000 -0.466389
vn 0.620111 0.000000 -0.784514
vn 0.884580 0.000000 -0.466389
vn 0.999887 0.000000 -0.015000
vn 0.620111 0.000000 -0.784514
vn 0.305708 0.000000 -0.952125
vn 0.305708 0.000000 -0.952125
vn -0.015000 0.000000 -0.999887
vn -0.015000 0.000000 -0.999887
vn -0.334080 0.000000 -0.942545
vn -0.334080 0.000000 -0.942545
vn -0.643307 0.000000 -0.765608
vn -0.898195 0.000000 -0.439598
vn -0.643307 0.000000 -0.765608
vn -0.898155 0.000000 -0.439678
vn -0.999889 -0.000000 0.014900
vn -0.999889 -0.000000 0.014900
vn -0.999889 -0.000000 0.014900
vn -0.999887 -0.000000 0.015000
vn -0.999887 -0.000000 0.015000
vn -0.999887 -0.000000 0.015000
vn -0.999887 -0.000000 0.015000
vn -0.999887 -0.000000 0.015000
vn -0.999887 -0.000000 0.015000
vn -0.999887 -0.000000 0.015000
vn -0.999887 -0.000000 0.015000
vn -0.999887 -0.000000 0.015000
vn -0.999887 -0.000000 0.015000
vn 0.163702 0.000000 -0.986510
vn 0.163702 0.000000 -0.986510
vn -0.210806 0.000000 -0.977528
vn -0.210806 0.000000 -0.977528
vn -0.581702 0.000000 -0.813402
vn -0.581702 0.000000 -0.813402
vn -0.856936 0.000000 -0.515422
vn -0.856936 0.000000 -0.515422
vn -0.986494 0.000000 -0.163799
vn -0.977528 -0.000000 0.210806
vn -0.986494 0.000000 -0.163799
vn -0.977528 -0.000000 0.210806
vn -0.813402 -0.000000 0.581702
vn -0.515422 -0.000000 0.856937
vn -0.813402 -0.000000 0.581702
vn -0.515422 -0.000000 0.856937
vn -0.163994 -0.000000 0.986461
vn -0.163896 -0.000000 0.986478
vn -0.163994 -0.000000 0.986461
vn 0.163702 0.000000 -0.986510
vn -0.981138 -0.000000 0.193308
vn -0.942787 -0.000000 0.333395
vn -0.981138 -0.000000 0.193308
vn -0.942756 -0.000000 0.333484
vn -0.981138 -0.000000 0.193308
vn -0.882190 -0.000000 0.470894
vn -0.799484 -0.000000 0.600688
vn -0.882190 -0.000000 0.470894
vn -0.799484 -0.000000 0.600688
vn -0.696427 -0.000000 0.717628
vn -0.576907 -0.000000 0.816810
vn -0.696427 -0.000000 0.717628
vn -0.576907 -0.000000 0.816810
vn -0.444371 -0.000000 0.895843
vn -0.444371 -0.000000 0.895843
vn -0.305106 -0.000000 0.952318
vn -0.163896 -0.000000 0.986478
vn -0.163896 -0.000000 0.986478
vn -0.305197 -0.000000 0.952289
vn -0.163896 -0.000000 0.986478
vn -0.981119 -0.000000 0.193404
vn -0.981119 -0.000000 0.193404
vn -0.841091 -0.000000 0.540894
vn -0.557121 -0.000000 0.830431
vn -0.841091 -0.000000 0.540894
vn -0.981119 -0.000000 0.193404
vn -0.557121 -0.000000 0.830431
vn -0.181402 -0.000000 0.983409
vn -0.181402 -0.000000 0.983409
vn 0.193307 -0.000000 0.981138
vn 0.193307 -0.000000 0.981138
vn 0.540894 -0.000000 0.841091
vn 0.540894 -0.000000 0.841091
vn 0.830431 -0.000000 0.557121
vn 0.983391 -0.000000 0.181498
vn 0.830431 -0.000000 0.557121
vn 0.983391 -0.000000 0.181498
vn 0.981161 0.000000 -0.193192
vn 0.981161 0.000000 -0.193192
vn 0.981161 0.000000 -0.193192
vn 0.981138 0.000000 -0.193308
vn 0.942787 0.000200 -0.333395
vn 0.964354 -0.000100 -0.264615
vn 0.981138 0.000000 -0.193308
vn 0.964361 0.000100 -0.264589
vn 0.964387 0.000000 -0.264496
vn 0.981138 0.000000 -0.193308
vn 0.942787 -0.000200 -0.333395
vn 0.941898 -0.000100 -0.335899
vn 0.882190 0.000000 -0.470894
vn 0.799183 0.000000 -0.601088
vn 0.882190 0.000000 -0.470894
vn 0.941866 0.000000 -0.335988
vn 0.941898 0.000100 -0.335899
vn 0.799183 0.000000 -0.601088
vn 0.696427 0.000000 -0.717628
vn 0.576907 0.000000 -0.816810
vn 0.696427 0.000000 -0.717628
vn 0.576907 0.000000 -0.816810
vn 0.444291 0.000000 -0.895882
vn 0.303901 -0.000100 -0.952704
vn 0.444411 0.000000 -0.895823
vn 0.304986 -0.000200 -0.952357
vn 0.303992 0.000000 -0.952675
vn 0.234197 0.000000 -0.972189
vn 0.303901 0.000100 -0.952704
vn 0.233796 0.000000 -0.972286
vn 0.304986 0.000200 -0.952357
vn 0.163799 0.000000 -0.986494
vn 0.163896 0.000000 -0.986478
vn 0.163799 0.000000 -0.986494
vn 0.233796 0.000000 -0.972286
vn -0.015100 0.000000 -0.999886
vn -0.015100 0.000000 -0.999886
vn -0.450411 0.000000 -0.892821
vn -0.784514 0.000000 -0.620111
vn -0.450291 0.000000 -0.892882
vn -0.015100 0.000000 -0.999886
vn -0.784514 0.000000 -0.620111
vn -0.956176 0.000000 -0.292793
vn -0.956176 0.000000 -0.292793
vn -0.999887 -0.000000 0.015000
vn -0.999887 -0.000000 0.015000
vn -0.946980 -0.000000 0.321293
vn -0.946980 -0.000000 0.321293
vn -0.765608 -0.000000 0.643307
vn -0.423498 -0.000000 0.905897
vn -0.765608 -0.000000 0.643307
vn -0.423498 -0.000000 0.905897
vn 0.014900 -0.000000 0.999889
vn 0.014900 -0.000000 0.999889
vn 0.014900 -0.000000 0.999889
vn 0.015000 -0.000000 0.999887
vn 0.015000 -0.000000 0.999887
vn 0.015000 -0.000000 0.999887
vn 0.015000 -0.000000 0.999887
vn 0.015000 -0.000000 0.999887
vn 0.015000 -0.000000 0.999887
vn 0.015000 -0.000000 0.999887
vn 0.015000 -0.000000 0.999887
vn 0.015000 -0.000000 0.999887
vn 0.015000 -0.000000 0.999887
vn 0.015000 -0.000000 0.999887
vn 0.015000 -0.000000 0.999887
vn 0.015100 -0.000000 0.999886
vn 0.015100 -0.000000 0.999886
vn 0.466389 -0.000000 0.884580
vn 0.784514 -0.000000 0.620111
vn 0.466389 -0.000000 0.884580
vn 0.015100 -0.000000 0.999886
vn 0.784514 -0.000000 0.620111
vn 0.952164 -0.000000 0.305588
vn 0.952164 -0.000000 0.305588
vn 0.999887 0.000000 -0.015000
vn 0.999887 0.000000 -0.015000
vn 0.942545 0.000000 -0.334080
vn 0.942545 0.000000 -0.334080
vn 0.765608 0.000000 -0.643307
vn 0.439597 0.000000 -0.898195
vn 0.765608 0.000000 -0.643307
vn 0.439597 0.000000 -0.898195
vn -0.015000 0.000000 -0.999887
vn -0.014900 0.000000 -0.999889
vn -0.015000 0.000000 -0.999887
vn -0.015000 0.000000 -0.999887
vn -0.015000 0.000000 -0.999887
vn -0.015000 0.000000 -0.999887
vn -0.015000 0.000000 -0.999887
vn -0.015000 0.000000 -0.999887
vn -0.015000 0.000000 -0.999887
vn -0.015000 0.000000 -0.999887
vn -0.015000 0.000000 -0.999887
vn -0.015000 0.000000 -0.999887
vn -0.015000 0.000000 -0.999887
vn -0.015000 0.000000 -0.999887
vn -0.015000 0.000000 -0.999887
vn 0.999887 0.000000 -0.015000
vn 0.999887 0.000000 -0.015000
vn 0.999887 0.000000 -0.015000
vn 0.999887 0.000000 -0.015000
vn 0.999887 0.000000 -0.015000
vn 0.999887 0.000000 -0.015000
vn 0.999887 0.000000 -0.015000
vn 0.999887 0.000000 -0.015000
vn 0.999887 0.000000 -0.015000
vn 0.999887 0.000000 -0.015000
vn 0.999887 0.000000 -0.015000
vn 0.999887 0.000000 -0.015000
vn 0.999887 0.000000 -0.015000
vn 0.999887 0.000000 -0.015000
vn 0.999887 0.000000 -0.015000
vn 0.999887 0.000000 -0.015000
vn 0.999887 0.000000 -0.015000
vn 0.999887 0.000000 -0.015000
vn 0.999887 0.000000 -0.015000
vn 0.999887 0.000000 -0.015000
vn 0.999887 0.000000 -0.015000
vn 0.999887 0.000000 -0.015000
vn 0.999887 0.000000 -0.015000
vn 0.999887 0.000000 -0.015000
vn -0.999887 -0.000000 0.015000
vn -0.999887 -0.000000 0.015000
vn -0.999887 -0.000000 0.015000
vn -0.999887 -0.000000 0.015000
vn -0.999887 -0.000000 0.015000
vn -0.999887 -0.000000 0.015000
vn -0.999887 -0.000000 0.015000
vn -0.999887 -0.000000 0.015000
vn -0.999887 -0.000000 0.015000
vn -0.999887 -0.000000 0.015000
vn -0.999887 -0.000000 0.015000
vn -0.999887 -0.000000 0.015000
vn -0.999887 -0.000000 0.015000
vn -0.999887 -0.000000 0.015000
vn -0.999887 -0.000000 0.015000
vn -0.999887 -0.000000 0.015000
vn -0.999887 -0.000000 0.015000
vn -0.999887 -0.000000 0.015000
vn -0.999887 -0.000000 0.015000
vn -0.999887 -0.000000 0.015000
vn -0.999887 -0.000000 0.015000
vn -0.999887 -0.000000 0.015000
vn -0.999887 -0.000000 0.015000
vn -0.999887 -0.000000 0.015000
vn 0.015000 -0.000000 0.999887
vn 0.015000 -0.000000 0.999887
vn 0.015000 -0.000000 0.999887
vn 0.015000 -0.000000 0.999887
vn 0.015000 -0.000000 0.999887
vn 0.015000 -0.000000 0.999887
vn 0.015000 -0.000000 0.999887
vn -0.999887 -0.000000 0.015000
vn -0.999887 -0.000000 0.015000
vn -0.999887 -0.000000 0.015000
vn -0.999887 -0.000000 0.015000
vn -0.999887 -0.000000 0.015000
vn -0.999887 -0.000000 0.015000
vn -0.014900 0.000000 -0.999889
vn -0.014900 0.000000 -0.999889
vn -0.015000 0.000000 -0.999887
vn -0.015000 0.000000 -0.999887
vn -0.015000 0.000000 -0.999887
vn -0.015000 0.000000 -0.999887
vn -0.015000 0.000000 -0.999887
vn -0.014900 0.000000 -0.999889
vn 0.015000 -0.000000 0.999887
vn 0.015000 -0.000000 0.999887
vn 0.015000 -0.000000 0.999887
vn 0.015000 -0.000000 0.999887
vn 0.015000 -0.000000 0.999887
vn 0.015000 -0.000000 0.999887
vn 0.999887 0.000000 -0.015000
vn 0.999887 0.000000 -0.015000
vn 0.999887 0.000000 -0.015000
vn 0.999887 0.000000 -0.015000
vn 0.999887 0.000000 -0.015000
vn 0.999887 0.000000 -0.015000
vn 0.999887 0.000000 -0.015000
vn 0.999887 0.000000 -0.015000
vn 0.015000 -0.000000 0.999887
vn 0.015000 -0.000000 0.999887
vn 0.015000 -0.000000 0.999887
vn 0.015000 -0.000000 0.999887
vn 0.015100 -0.000000 0.999886
vn 0.015100 -0.000000 0.999886
vn 0.015100 -0.000000 0.999886
vn 0.015000 -0.000000 0.999887
vn -0.999887 -0.000000 0.015000
vn -0.999887 -0.000000 0.015000
vn -0.999887 -0.000000 0.015000
vn -0.999887 -0.000000 0.015000
vn -0.999887 -0.000000 0.015000
vn -0.999887 -0.000000 0.015000
vn -0.999887 -0.000000 0.015000
vn 0.015000 -0.000000 0.999887
vn 0.015000 -0.000000 0.999887
vn 0.015000 -0.000000 0.999887
vn 0.015000 -0.000000 0.999887
vn 0.015000 -0.000000 0.999887
vn 0.015000 -0.000000 0.999887
vn 0.015000 -0.000000 0.999887
vn 0.015000 -0.000000 0.999887
vn 0.015000 -0.000000 0.999887
vn 0.015000 -0.000000 0.999887
vn 0.015000 -0.000000 0.999887
vn 0.015000 -0.000000 0.999887
vn 0.015000 -0.000000 0.999887
vn 0.015000 -0.000000 0.999887
vn 0.015000 -0.000000 0.999887
vn 0.015000 -0.000000 0.999887
vn 0.015000 -0.000000 0.999887
vn 0.015000 -0.000000 0.999887
vn 0.015000 -0.000000 0.999887
vn 0.015000 -0.000000 0.999887
vn 0.015000 -0.000000 0.999887
vn 0.015000 -0.000000 0.999887
vn 0.015000 -0.000000 0.999887
vn 0.015000 -0.000000 0.999887
vn 0.015100 -0.000000 0.999886
vn 0.393714 -0.000000 0.919233
vn 0.015100 -0.000000 0.999886
vn 0.015100 -0.000000 0.999886
vn 0.393714 -0.000000 0.919233
vn 0.724877 -0.000000 0.688878
vn 0.936977 -0.000000 0.349391
vn 0.724877 -0.000000 0.688878
vn 0.936977 -0.000000 0.349391
vn 0.999887 0.000000 -0.015000
vn 0.999887 0.000000 -0.015000
vn 0.919233 0.000000 -0.393714
vn 0.919233 0.000000 -0.393714
vn 0.688981 0.000000 -0.724780
vn 0.688981 0.000000 -0.724780
vn 0.349479 0.000000 -0.936944
vn 0.349479 0.000000 -0.936944
vn -0.014900 0.000000 -0.999889
vn -0.014900 0.000000 -0.999889
vn -0.014900 0.000000 -0.999889
vn -0.015000 0.000000 -0.999887
vn -0.015000 0.000000 -0.999887
vn -0.015000 0.000000 -0.999887
vn -0.015000 0.000000 -0.999887
vn -0.015000 0.000000 -0.999887
vn -0.015000 0.000000 -0.999887
vn -0.015000 0.000000 -0.999887
vn -0.015000 0.000000 -0.999887
vn -0.015000 0.000000 -0.999887
vn -0.015000 0.000000 -0.999887
vn -0.015000 0.000000 -0.999887
vn -0.015000 0.000000 -0.999887
vn -0.015000 0.000000 -0.999887
vn -0.015000 0.000000 -0.999887
vn -0.015000 0.000000 -0.999887
vn -0.015000 0.000000 -0.999887
vn -0.015000 0.000000 -0.999887
vn -0.015000 0.000000 -0.999887
vn -0.015000 0.000000 -0.999887
vn -0.015000 0.000000 -0.999887
vn -0.015000 0.000000 -0.999887
vn -0.015000 0.000000 -0.999887
vn -0.015000 0.000000 -0.999887
vn -0.015000 0.000000 -0.999887
vn -0.014900 0.000000 -0.999889
vn 0.173198 0.000000 -0.984887
vn 0.173101 0.000000 -0.984904
vn -0.014900 0.000000 -0.999889
vn 0.173101 0.000000 -0.984904
vn 0.366005 0.000000 -0.930613
vn 0.366005 0.000000 -0.930613
vn 0.703899 0.000000 -0.710300
vn 0.926057 0.000000 -0.377383
vn 0.926092 0.000000 -0.377297
vn 0.703899 0.000000 -0.710300
vn 0.366005 0.000000 -0.930613
vn 0.926057 0.000000 -0.377383
vn 0.980941 0.000000 -0.194308
vn 0.980941 0.000000 -0.194308
vn 0.999887 0.000000 -0.015000
vn 0.999887 0.000000 -0.015000
vn 0.980941 0.000000 -0.194308
vn 0.999886 0.000000 -0.015100
vn 0.999886 0.000000 -0.015100
vn 0.919233 0.000000 -0.393714
vn 0.919233 0.000000 -0.393714
vn 0.688928 0.000000 -0.724830
vn 0.688928 0.000000 -0.724830
vn 0.349391 0.000000 -0.936977
vn 0.349391 0.000000 -0.936977
vn -0.015000 0.000000 -0.999887
vn -0.015000 0.000000 -0.999887
vn -0.393714 0.000000 -0.919233
vn -0.393714 0.000000 -0.919233
vn -0.724780 0.000000 -0.688981
vn -0.724780 0.000000 -0.688981
vn -0.936944 0.000000 -0.349479
vn -0.936944 0.000000 -0.349479
vn -0.999889 -0.000000 0.014900
vn -0.999889 -0.000000 0.014900
vn -0.999889 -0.000000 0.014900
vn 0.999886 0.000000 -0.015100
vn -0.999887 -0.000000 0.015000
vn -0.999887 -0.000000 0.015000
vn -0.999887 -0.000000 0.015000
vn -0.999887 -0.000000 0.015000
vn -0.999887 -0.000000 0.015000
vn -0.999887 -0.000000 0.015000
vn -0.999887 -0.000000 0.015000
vn -0.995969 -0.000000 0.089697
vn -0.996014 -0.000000 0.089201
vn -0.999887 -0.000000 0.015000
vn -0.999887 -0.000000 0.015000
vn -0.996014 -0.000000 0.089201
vn -0.995969 -0.000000 0.089697
vn -0.996014 -0.000000 0.089201
vn -0.986277 -0.000000 0.165096
vn -0.986277 -0.000000 0.165096
vn -0.947790 -0.000000 0.318897
vn -0.986277 -0.000000 0.165096
vn -0.947790 -0.000000 0.318897
vn -0.797461 -0.000000 0.603371
vn -0.947790 -0.000000 0.318897
vn -0.986277 -0.000000 0.165096
vn -0.797461 -0.000000 0.603371
vn -0.562132 -0.000000 0.827047
vn -0.562017 -0.000000 0.827126
vn -0.275712 -0.000000 0.961240
vn -0.275712 -0.000000 0.961240
vn -0.128206 -0.000000 0.991748
vn -0.128206 -0.000000 0.991748
vn -0.055802 -0.000000 0.998442
vn -0.055703 -0.000000 0.998447
vn 0.015000 -0.000000 0.999887
vn 0.015000 -0.000000 0.999887
vn 0.015000 -0.000000 0.999887
vn -0.055802 -0.000000 0.998442
vn -0.055703 -0.000000 0.998447
vn -0.128206 -0.000000 0.991748
vn -0.055802 -0.000000 0.998442
vn -0.128206 -0.000000 0.991748
vn -0.275712 -0.000000 0.961240
vn -0.128206 -0.000000 0.991748
vn -0.986277 -0.000000 0.165096
vn 0.000000 -1.000000 -0.000000
vn 0.000000 -1.000000 -0.000000
vn 0.000000 -1.000000 -0.000000
vn 0.000000 -1.000000 -0.000000
vn 0.000000 -1.000000 -0.000000
vn 0.000000 -1.000000 -0.000000
vn 0.000000 -1.000000 -0.000000
vn 0.000000 -1.000000 -0.000000
vn 0.000000 -1.000000 -0.000000
vn 0.000000 -1.000000 -0.000000
vn 0.000000 -1.000000 -0.000000
vn 0.000000 -1.000000 -0.000000
vn 0.000000 -1.000000 -0.000000
vn 0.000000 -1.000000 -0.000000
vn 0.000000 -1.000000 -0.000000
vn 0.000000 -1.000000 -0.000000
vn 0.000000 -1.000000 -0.000000
vn 0.000000 -1.000000 -0.000000
vn 0.000000 -1.000000 -0.000000
vn 0.000000 -1.000000 -0.000000
vn 0.000000 -1.000000 -0.000000
vn 0.000000 -1.000000 -0.000000
vn 0.000000 -1.000000 -0.000000
vn 0.000000 -1.000000 -0.000000
vn 0.000000 -1.000000 -0.000000
vn 0.000000 -1.000000 -0.000000
vn 0.000000 -1.000000 -0.000000
vn 0.000000 -1.000000 -0.000000
vn 0.000000 -1.000000 -0.000000
vn 0.000000 -1.000000 -0.000000
vn 0.000000 -1.000000 -0.000000
vn 0.000000 -1.000000 -0.000000
vn 0.000000 -1.000000 -0.000000
vn 0.000000 -1.000000 -0.000000
vn 0.000000 -1.000000 -0.000000
vn 0.000000 -1.000000 -0.000000
vn 0.000000 -1.000000 -0.000000
vn 0.000000 -1.000000 -0.000000
vn 0.000000 -1.000000 -0.000000
vn 0.000000 -1.000000 -0.000000
vn 0.000000 -1.000000 -0.000000
vn 0.000000 -1.000000 -0.000000
vn 0.000000 -1.000000 -0.000000
vn 0.000000 -1.000000 -0.000000
vn 0.000000 -1.000000 -0.000000
vn 0.000000 -1.000000 -0.000000
vn 0.000000 -1.000000 -0.000000
vn 0.000000 -1.000000 -0.000000
vn 0.000000 -1.000000 -0.000000
vn 0.000000 -1.000000 -0.000000
vn 0.000000 -1.000000 -0.000000
vn 0.000000 -1.000000 -0.000000
vn 0.000000 -1.000000 -0.000000
vn 0.000000 -1.000000 -0.000000
vn 0.000000 -1.000000 -0.000000
vn 0.000000 -1.000000 -0.000000
vn 0.000000 -1.000000 -0.000000
vn 0.000000 -1.000000 -0.000000
vn 0.000000 -1.000000 -0.000000
vn 0.000000 -1.000000 -0.000000
vn 0.000000 -1.000000 -0.000000
vn 0.000000 -1.000000 -0.000000
vn 0.000000 -1.000000 -0.000000
vn 0.000000 -1.000000 -0.000000
vn 0.000000 -1.000000 -0.000000
vn 0.000000 -1.000000 -0.000000
vn 0.000000 -1.000000 -0.000000
vn 0.000000 -1.000000 -0.000000
vn 0.000000 -1.000000 -0.000000
vn 0.000000 -1.000000 -0.000000
vn 0.000000 -1.000000 -0.000000
vn 0.000000 -1.000000 -0.000000
vn 0.000000 -1.000000 -0.000000
vn 0.000000 -1.000000 -0.000000
vn 0.000000 -1.000000 -0.000000
vn 0.000000 -1.000000 -0.000000
vn 0.000000 -1.000000 -0.000000
vn 0.000000 -1.000000 -0.000000
vn 0.000000 -1.000000 -0.000000
vn 0.000000 -1.000000 -0.000000
vn 0.000000 -1.000000 -0.000000
vn 0.000000 -1.000000 -0.000000
vn 0.000000 -1.000000 -0.000000
vn 0.000000 -1.000000 -0.000000
vn 0.000000 -1.000000 -0.000000
vn 0.000000 -1.000000 -0.000000
vn 0.000000 -1.000000 -0.000000
vn 0.000000 -1.000000 -0.000000
vn 0.000000 -1.000000 -0.000000
vn 0.000000 -1.000000 -0.000000
vn 0.000000 -1.000000 -0.000000
vn 0.000000 -1.000000 -0.000000
vn 0.000000 -1.000000 -0.000000
vn 0.000000 -1.000000 -0.000000
vn 0.000000 -1.000000 -0.000000
vn 0.000000 -1.000000 -0.000000
vn 0.000000 -1.000000 -0.000000
vn 0.000000 -1.000000 -0.000000
vn 0.000000 -1.000000 -0.000000
vn 0.000000 -1.000000 -0.000000
vn 0.000000 -1.000000 -0.000000
vn 0.000000 -1.000000 -0.000000
vn 0.000000 -1.000000 -0.000000
vn 0.000000 -1.000000 -0.000000
vn 0.000000 -1.000000 -0.000000
vn 0.000000 -1.000000 -0.000000
vn 0.000000 -1.000000 -0.000000
vn 0.000000 -1.000000 -0.000000
vn 0.000000 -1.000000 -0.000000
vn 0.000000 -1.000000 -0.000000
vn 0.000000 -1.000000 -0.000000
vn 0.000000 -1.000000 -0.000000
vn 0.000000 -1.000000 -0.000000
vn 0.000000 -1.000000 -0.000000
vn 0.000000 -1.000000 -0.000000
vn 0.000000 -1.000000 -0.000000
vn 0.000000 -1.000000 -0.000000
vn 0.000000 -1.000000 -0.000000
vn 0.000000 -1.000000 -0.000000
vn 0.000000 -1.000000 -0.000000
vn 0.000000 -1.000000 -0.000000
vn 0.000000 -1.000000 -0.000000
vn 0.000000 -1.000000 -0.000000
vn 0.000000 -1.000000 -0.000000
vn 0.000000 -1.000000 -0.000000
vn 0.000000 -1.000000 -0.000000
vn 0.000000 -1.000000 -0.000000
vn 0.000000 -1.000000 -0.000000
vn 0.000000 -1.000000 -0.000000
vn 0.000000 -1.000000 -0.000000
vn 0.000000 -1.000000 -0.000000
vn 0.000000 -1.000000 -0.000000
vn 0.000000 -1.000000 -0.000000
vn 0.000000 -1.000000 -0.000000
vn 0.000000 -1.000000 -0.000000
vn 0.000000 -1.000000 -0.000000
vn 0.000000 -1.000000 -0.000000
vn 0.000000 -1.000000 -0.000000
vn 0.000000 -1.000000 -0.000000
vn 0.000000 -1.000000 -0.000000
vn 0.000000 -1.000000 -0.000000
vn 0.000000 -1.000000 -0.000000
vn 0.000000 -1.000000 -0.000000
vn 0.000000 -1.000000 -0.000000
vn 0.000000 -1.000000 -0.000000
vn 0.000000 -1.000000 -0.000000
vn 0.000000 -1.000000 -0.000000
vn 0.000000 -1.000000 -0.000000
vn 0.000000 -1.000000 -0.000000
vn 0.000000 -1.000000 -0.000000
vn 0.000000 -1.000000 -0.000000
vn 0.000000 -1.000000 -0.000000
vn 0.000000 -1.000000 -0.000000
vn 0.000000 -1.000000 -0.000000
vn 0.000000 -1.000000 -0.000000
vn 0.000000 -1.000000 -0.000000
vn 0.000000 -1.000000 -0.000000
vn 0.000000 -1.000000 -0.000000
vn 0.000000 -1.000000 -0.000000
vn 0.000000 -1.000000 -0.000000
vn 0.000000 -1.000000 -0.000000
vn 0.000000 -1.000000 -0.000000
vn 0.000000 -1.000000 -0.000000
vn 0.000000 -1.000000 -0.000000
vn 0.000000 -1.000000 -0.000000
vn 0.000000 -1.000000 -0.000000
vn 0.000000 -1.000000 -0.000000
vn 0.000000 -1.000000 -0.000000
vn 0.000000 -1.000000 -0.000000
vn 0.000000 -1.000000 -0.000000
vn 0.000000 -1.000000 -0.000000
vn 0.000000 -1.000000 -0.000000
vn 0.000000 -1.000000 -0.000000
vn 0.000000 -1.000000 -0.000000
vn 0.000000 -1.000000 -0.000000
vn 0.000000 -1.000000 -0.000000
vn 0.000000 -1.000000 -0.000000
vn 0.000000 -1.000000 -0.000000
vn 0.000000 -1.000000 -0.000000
vn 0.000000 -1.000000 -0.000000
vn 0.000000 -1.000000 -0.000000
vn 0.000000 -1.000000 -0.000000
vn 0.000000 -1.000000 -0.000000
vn 0.000000 -1.000000 -0.000000
vn 0.000000 -1.000000 -0.000000
vn 0.000000 -1.000000 -0.000000
vn 0.000000 -1.000000 -0.000000
vn 0.000000 -1.000000 -0.000000
vn 0.000000 -1.000000 -0.000000
vn 0.000000 -1.000000 -0.000000
vn 0.000000 -1.000000 -0.000000
vn 0.000000 -1.000000 -0.000000
vn 0.000000 -1.000000 -0.000000
vn 0.000000 -1.000000 -0.000000
vn 0.000000 -1.000000 -0.000000
f 1//1 4//4 2//2
f 2//2 3//3 1//1
f 3//3 9//9 1//1
f 1//1 5//5 4//4
f 1//1 6//6 5//5
f 7//7 6//6 1//1
f 1//1 8//8 178//178
f 1//1 178//178 7//7
f 10//10 9//9 11//11
f 11//11 9//9 12//12
f 9//9 3//3 12//12
f 3//3 13//13 12//12
f 14//14 13//13 15//15
f 15//15 13//13 3//3
f 4//4 16//16 15//15
f 16//16 17//17 15//15
f 17//17 14//14 15//15
f 4//4 15//15 2//2
f 3//3 2//2 15//15
f 19//19 18//18 17//17
f 16//16 19//19 17//17
f 127//127 20//20 19//19
f 127//127 19//19 16//16
f 19//19 21//21 18//18
f 19//19 20//20 21//21
f 20//20 22//22 21//21
f 25//25 21//21 23//23
f 21//21 24//24 23//23
f 26//26 21//21 25//25
f 21//21 26//26 18//18
f 25//25 23//23 27//27
f 28//28 27//27 23//23
f 28//28 30//30 29//29
f 23//23 30//30 28//28
f 31//31 29//29 30//30
f 30//30 32//32 34//34
f 30//30 34//34 31//31
f 23//23 35//35 32//32
f 23//23 32//32 30//30
f 33//33 34//34 32//32
f 33//33 32//32 35//35
f 35//35 23//23 24//24
f 24//24 33//33 35//35
f 31//31 34//34 36//36
f 33//33 36//36 34//34
f 36//36 37//37 31//31
f 38//38 37//37 36//36
f 38//38 39//39 37//37
f 40//40 39//39 38//38
f 41//41 40//40 38//38
f 40//40 41//41 42//42
f 41//41 43//43 42//42
f 43//43 44//44 42//42
f 43//43 47//47 44//44
f 43//43 48//48 45//45
f 45//45 46//46 43//43
f 43//43 46//46 47//47
f 45//45 48//48 49//49
f 49//49 52//52 50//50
f 50//50 45//45 49//49
f 49//49 51//51 52//52
f 52//52 53//53 116//116
f 52//52 116//116 50//50
f 53//53 52//52 54//54
f 52//52 51//51 54//54
f 55//55 57//57 54//54
f 55//55 54//54 56//56
f 57//57 53//53 54//54
f 54//54 58//58 60//60
f 54//54 61//61 58//58
f 54//54 60//60 59//59
f 54//54 59//59 63//63
f 51//51 62//62 54//54
f 62//62 61//61 54//54
f 63//63 68//68 64//64
f 67//67 63//63 65//65
f 65//65 63//63 66//66
f 59//59 66//66 63//63
f 67//67 69//69 63//63
f 63//63 69//69 68//68
f 69//69 67//67 71//71
f 68//68 69//69 70//70
f 68//68 70//70 103//103
f 70//70 69//69 71//71
f 72//72 71//71 67//67
f 73//73 71//71 72//72
f 74//74 71//71 73//73
f 75//75 71//71 74//74
f 71//71 75//75 70//70
f 76//76 70//70 75//75
f 75//75 77//77 81//81
f 75//75 81//81 76//76
f 78//78 77//77 75//75
f 74//74 78//78 75//75
f 77//77 78//78 79//79
f 80//80 81//81 79//79
f 79//79 81//81 77//77
f 82//82 83//83 81//81
f 82//82 81//81 84//84
f 81//81 80//80 84//84
f 83//83 76//76 81//81
f 82//82 84//84 86//86
f 85//85 86//86 84//84
f 86//86 90//90 87//87
f 86//86 87//87 88//88
f 88//88 92//92 89//89
f 88//88 89//89 86//86
f 89//89 82//82 86//86
f 86//86 85//85 90//90
f 82//82 89//89 91//91
f 91//91 89//89 92//92
f 58//58 91//91 92//92
f 92//92 60//60 58//58
f 59//59 60//60 92//92
f 59//59 92//92 88//88
f 58//58 61//61 93//93
f 58//58 93//93 91//91
f 91//91 93//93 82//82
f 61//61 62//62 94//94
f 61//61 94//94 93//93
f 95//95 93//93 94//94
f 95//95 82//82 93//93
f 95//95 96//96 82//82
f 94//94 98//98 96//96
f 94//94 96//96 95//95
f 97//97 96//96 98//98
f 96//96 97//97 82//82
f 51//51 98//98 94//94
f 51//51 97//97 98//98
f 62//62 51//51 94//94
f 99//99 88//88 87//87
f 88//88 99//99 100//100
f 100//100 59//59 88//88
f 101//101 59//59 100//100
f 101//101 102//102 59//59
f 102//102 66//66 59//59
f 83//83 70//70 76//76
f 83//83 103//103 70//70
f 83//83 104//104 103//103
f 104//104 105//105 103//103
f 105//105 107//107 103//103
f 106//106 107//107 105//105
f 109//109 68//68 103//103
f 109//109 103//103 107//107
f 108//108 107//107 106//106
f 109//109 107//107 108//108
f 111//111 68//68 109//109
f 108//108 110//110 109//109
f 111//111 109//109 110//110
f 111//111 64//64 68//68
f 72//72 67//67 112//112
f 113//113 112//112 67//67
f 113//113 67//67 65//65
f 57//57 114//114 53//53
f 53//53 114//114 115//115
f 53//53 115//115 116//116
f 116//116 115//115 117//117
f 46//46 116//116 117//117
f 117//117 118//118 46//46
f 118//118 47//47 46//46
f 50//50 116//116 46//46
f 50//50 46//46 45//45
f 10//10 119//119 56//56
f 119//119 55//55 56//56
f 10//10 11//11 119//119
f 29//29 31//31 37//37
f 122//122 120//120 22//22
f 22//22 120//120 121//121
f 123//123 122//122 22//22
f 124//124 123//123 22//22
f 22//22 20//20 124//124
f 125//125 135//135 123//123
f 125//125 123//123 124//124
f 131//131 125//125 124//124
f 131//131 124//124 126//126
f 126//126 124//124 127//127
f 127//127 124//124 20//20
f 127//127 128//128 126//126
f 5//5 128//128 127//127
f 5//5 127//127 4//4
f 4//4 127//127 16//16
f 129//129 128//128 5//5
f 129//129 131//131 126//126
f 129//129 126//126 128//128
f 6//6 130//130 129//129
f 131//131 129//129 130//130
f 5//5 6//6 129//129
f 133//133 125//125 131//131
f 132//132 131//131 130//130
f 132//132 133//133 131//131
f 134//134 125//125 133//133
f 135//135 125//125 134//134
f 134//134 136//136 135//135
f 135//135 136//136 137//137
f 136//136 138//138 137//137
f 138//138 139//139 137//137
f 138//138 140//140 139//139
f 141//141 142//142 140//140
f 142//142 139//139 140//140
f 137//137 142//142 143//143
f 142//142 145//145 143//143
f 144//144 142//142 141//141
f 144//144 146//146 145//145
f 144//144 145//145 142//142
f 137//137 139//139 142//142
f 146//146 147//147 145//145
f 147//147 143//143 145//145
f 143//143 147//147 148//148
f 143//143 148//148 120//120
f 147//147 149//149 148//148
f 151//151 149//149 147//147
f 146//146 150//150 147//147
f 147//147 150//150 151//151
f 151//151 156//156 152//152
f 153//153 155//155 151//151
f 151//151 150//150 153//153
f 156//156 151//151 154//154
f 154//154 151//151 155//155
f 156//156 154//154 157//157
f 159//159 156//156 157//157
f 156//156 159//159 158//158
f 158//158 152//152 156//156
f 159//159 164//164 160//160
f 159//159 160//160 161//161
f 158//158 159//159 161//161
f 157//157 162//162 159//159
f 159//159 162//162 163//163
f 164//164 159//159 163//163
f 166//166 165//165 164//164
f 165//165 160//160 164//164
f 166//166 164//164 168//168
f 164//164 167//167 168//168
f 163//163 167//167 164//164
f 172//172 169//169 168//168
f 168//168 169//169 166//166
f 170//170 168//168 167//167
f 170//170 171//171 168//168
f 172//172 168//168 171//171
f 175//175 169//169 172//172
f 174//174 172//172 173//173
f 172//172 176//176 173//173
f 172//172 174//174 177//177
f 177//177 175//175 172//172
f 172//172 171//171 176//176
f 177//177 174//174 179//179
f 177//177 179//179 178//178
f 8//8 175//175 177//177
f 8//8 177//177 178//178
f 178//178 179//179 180//180
f 178//178 180//180 7//7
f 174//174 173//173 179//179
f 180//180 179//179 181//181
f 181//181 179//179 173//173
f 183//183 180//180 181//181
f 181//181 182//182 130//130
f 130//130 183//183 181//181
f 7//7 180//180 183//183
f 6//6 7//7 183//183
f 183//183 130//130 6//6
f 130//130 182//182 132//132
f 184//184 166//166 169//169
f 184//184 169//169 175//175
f 175//175 8//8 184//184
f 166//166 184//184 186//186
f 185//185 184//184 8//8
f 186//186 184//184 185//185
f 186//186 165//165 166//166
f 167//167 187//187 170//170
f 167//167 163//163 187//187
f 163//163 188//188 187//187
f 188//188 163//163 162//162
f 188//188 162//162 190//190
f 190//190 189//189 188//188
f 162//162 157//157 191//191
f 162//162 191//191 190//190
f 191//191 192//192 190//190
f 192//192 189//189 190//190
f 193//193 192//192 191//191
f 193//193 194//194 141//141
f 193//193 195//195 194//194
f 193//193 191//191 195//195
f 191//191 155//155 153//153
f 191//191 153//153 195//195
f 153//153 150//150 194//194
f 153//153 194//194 195//195
f 194//194 144//144 141//141
f 194//194 150//150 146//146
f 194//194 146//146 144//144
f 157//157 154//154 155//155
f 157//157 155//155 191//191
f 121//121 148//148 149//149
f 120//120 148//148 121//121
f 143//143 122//122 137//137
f 143//143 120//120 122//122
f 135//135 137//137 122//122
f 135//135 122//122 123//123
f 196//196 198//198 197//197
f 199//199 198//198 200//200
f 197//197 198//198 199//199
f 197//197 199//199 201//201
f 197//197 201//201 203//203
f 203//203 201//201 202//202
f 203//203 202//202 204//204
f 204//204 202//202 206//206
f 204//204 206//206 205//205
f 205//205 206//206 208//208
f 205//205 208//208 207//207
f 207//207 208//208 211//211
f 207//207 211//211 209//209
f 209//209 211//211 212//212
f 209//209 212//212 210//210
f 212//212 213//213 214//214
f 214//214 210//210 212//212
f 214//214 215//215 210//210
f 217//217 218//218 216//216
f 219//219 218//218 220//220
f 218//218 217//217 220//220
f 222//222 221//221 220//220
f 222//222 220//220 217//217
f 221//221 222//222 224//224
f 223//223 221//221 224//224
f 222//222 225//225 224//224
f 227//227 226//226 228//228
f 229//229 232//232 230//230
f 229//229 230//230 228//228
f 230//230 227//227 228//228
f 231//231 227//227 230//230
f 234//234 233//233 232//232
f 234//234 232//232 229//229
f 236//236 235//235 233//233
f 236//236 233//233 234//234
f 238//238 237//237 235//235
f 238//238 235//235 236//236
f 241//241 239//239 237//237
f 241//241 237//237 238//238
f 242//242 240//240 239//239
f 242//242 239//239 241//241
f 242//242 243//243 244//244
f 242//242 244//244 240//240
f 244//244 245//245 240//240
f 247//247 246//246 248//248
f 249//249 247//247 248//248
f 250//250 249//249 248//248
f 247//247 249//249 251//251
f 247//247 251//251 252//252
f 251//251 253//253 254//254
f 251//251 254//254 252//252
f 252//252 254//254 255//255
f 257//257 256//256 258//258
f 259//259 257//257 258//258
f 260//260 261//261 259//259
f 260//260 259//259 258//258
f 262//262 263//263 261//261
f 262//262 261//261 260//260
f 264//264 266//266 263//263
f 264//264 263//263 262//262
f 265//265 267//267 266//266
f 265//265 266//266 264//264
f 270//270 268//268 267//267
f 270//270 267//267 265//265
f 271//271 269//269 268//268
f 271//271 268//268 270//270
f 271//271 273//273 269//269
f 271//271 272//272 273//273
f 273//273 274//274 269//269
f 275//275 257//257 259//259
f 277//277 276//276 278//278
f 278//278 280//280 279//279
f 277//277 278//278 279//279
f 277//277 279//279 281//281
f 277//277 281//281 283//283
f 283//283 281//281 282//282
f 283//283 282//282 284//284
f 284//284 282//282 287//287
f 284//284 287//287 285//285
f 285//285 287//287 288//288
f 285//285 288//288 286//286
f 286//286 288//288 289//289
f 286//286 289//289 290//290
f 290//290 289//289 291//291
f 290//290 291//291 294//294
f 292//292 293//293 291//291
f 291//291 293//293 294//294
f 293//293 295//295 294//294
f 297//297 296//296 298//298
f 299//299 302//302 300//300
f 299//299 300//300 298//298
f 300//300 297//297 298//298
f 301//301 297//297 300//300
f 304//304 303//303 302//302
f 304//304 302//302 299//299
f 306//306 305//305 303//303
f 306//306 303//303 304//304
f 308//308 307//307 305//305
f 308//308 305//305 306//306
f 311//311 309//309 307//307
f 311//311 307//307 308//308
f 312//312 310//310 309//309
f 312//312 309//309 311//311
f 312//312 314//314 310//310
f 312//312 313//313 314//314
f 314//314 315//315 310//310
f 317//317 318//318 316//316
f 319//319 316//316 318//318
f 319//319 318//318 321//321
f 319//319 320//320 322//322
f 320//320 319//319 321//321
f 323//323 322//322 320//320
f 320//320 324//324 323//323
f 325//325 323//323 324//324
f 328//328 325//325 324//324
f 330//330 326//326 325//325
f 330//330 325//325 327//327
f 325//325 328//328 327//327
f 327//327 328//328 329//329
f 328//328 321//321 318//318
f 328//328 318//318 329//329
f 324//324 320//320 321//321
f 324//324 321//321 328//328
f 329//329 318//318 317//317
f 317//317 327//327 329//329
f 331//331 333//333 326//326
f 331//331 326//326 330//330
f 332//332 334//334 333//333
f 332//332 333//333 331//331
f 337//337 335//335 334//334
f 337//337 334//334 332//332
f 335//335 336//336 338//338
f 335//335 339//339 336//336
f 339//339 335//335 337//337
f 347//347 336//336 339//339
f 347//347 339//339 340//340
f 340//340 339//339 341//341
f 340//340 341//341 342//342
f 339//339 337//337 341//341
f 342//342 341//341 343//343
f 337//337 343//343 341//341
f 343//343 344//344 342//342
f 345//345 342//342 344//344
f 345//345 346//346 347//347
f 342//342 345//345 340//340
f 340//340 345//345 347//347
f 336//336 347//347 338//338
f 338//338 347//347 346//346
f 349//349 348//348 350//350
f 351//351 354//354 352//352
f 351//351 352//352 350//350
f 352//352 349//349 350//350
f 353//353 349//349 352//352
f 356//356 355//355 354//354
f 356//356 354//354 351//351
f 358//358 357//357 355//355
f 358//358 355//355 356//356
f 360//360 359//359 357//357
f 360//360 357//357 358//358
f 363//363 361//361 359//359
f 363//363 359//359 360//360
f 364//364 362//362 361//361
f 364//364 361//361 363//363
f 364//364 366//366 362//362
f 364//364 365//365 366//366
f 366//366 367//367 362//362
f 369//369 368//368 370//370
f 371//371 372//372 370//370
f 372//372 369//369 370//370
f 369//369 372//372 373//373
f 369//369 373//373 375//375
f 375//375 373//373 374//374
f 375//375 374//374 376//376
f 376//376 378//378 377//377
f 376//376 374//374 378//378
f 379//379 378//378 374//374
f 381//381 380//380 382//382
f 383//383 386//386 384//384
f 383//383 384//384 382//382
f 384//384 381//381 382//382
f 385//385 381//381 384//384
f 388//388 387//387 386//386
f 388//388 386//386 383//383
f 390//390 389//389 387//387
f 390//390 387//387 388//388
f 392//392 391//391 389//389
f 392//392 389//389 390//390
f 395//395 393//393 391//391
f 395//395 391//391 392//392
f 396//396 394//394 393//393
f 396//396 393//393 395//395
f 396//396 398//398 394//394
f 396//396 397//397 398//398
f 398//398 399//399 394//394
f 400//400 402//402 401//401
f 404//404 402//402 403//403
f 401//401 402//402 404//404
f 401//401 404//404 405//405
f 401//401 405//405 407//407
f 407//407 405//405 406//406
f 407//407 406//406 408//408
f 410//410 409//409 408//408
f 408//408 406//406 410//410
f 406//406 411//411 410//410
f 412//412 413//413 415//415
f 413//413 412//412 414//414
f 416//416 415//415 413//413
f 417//417 416//416 413//413
f 417//417 413//413 418//418
f 418//418 420//420 419//419
f 418//418 419//419 417//417
f 420//420 422//422 419//419
f 419//419 422//422 421//421
f 435//435 421//421 422//422
f 435//435 422//422 423//423
f 423//423 422//422 424//424
f 423//423 424//424 425//425
f 422//422 420//420 424//424
f 420//420 426//426 424//424
f 425//425 424//424 426//426
f 425//425 426//426 427//427
f 427//427 426//426 428//428
f 427//427 428//428 431//431
f 426//426 429//429 428//428
f 429//429 426//426 420//420
f 420//420 418//418 430//430
f 420//420 430//430 429//429
f 418//418 413//413 414//414
f 418//418 414//414 430//430
f 433//433 427//427 431//431
f 433//433 431//431 432//432
f 434//434 423//423 425//425
f 434//434 425//425 433//433
f 427//427 433//433 425//425
f 423//423 434//434 435//435
f 439//439 436//436 437//437
f 437//437 436//436 438//438
f 439//439 437//437 440//440
f 440//440 441//441 439//439
f 442//442 439//439 441//441
f 443//443 442//442 441//441
f 444//444 443//443 441//441
f 444//444 441//441 445//445
f 445//445 446//446 444//444
f 446//446 445//445 447//447
f 447//447 449//449 448//448
f 447//447 448//448 446//446
f 450//450 448//448 449//449
f 450//450 449//449 452//452
f 452//452 451//451 450//450
f 454//454 451//451 452//452
f 452//452 453//453 454//454
f 452//452 449//449 455//455
f 452//452 455//455 453//453
f 449//449 447//447 456//456
f 449//449 456//456 455//455
f 456//456 458//458 457//457
f 447//447 458//458 456//456
f 458//458 447//447 459//459
f 458//458 437//437 438//438
f 458//458 438//438 457//457
f 459//459 440//440 437//437
f 459//459 437//437 458//458
f 447//447 445//445 459//459
f 445//445 441//441 440//440
f 445//445 440//440 459//459
f 461//461 463//463 462//462
f 461//461 462//462 460//460
f 461//461 465//465 464//464
f 461//461 464//464 463//463
f 465//465 461//461 466//466
f 467//467 469//469 470//470
f 467//467 470//470 468//468
f 471//471 472//472 468//468
f 471//471 468//468 470//470
f 474//474 473//473 475//475
f 474//474 475//475 476//476
f 475//475 477//477 479//479
f 475//475 479//479 476//476
f 475//475 478//478 477//477
f 476//476 480//480 474//474
f 482//482 485//485 483//483
f 482//482 483//483 481//481
f 484//484 483//483 485//485
f 484//484 485//485 486//486
f 488//488 489//489 487//487
f 490//490 489//489 491//491
f 491//491 489//489 488//488
f 491//491 493//493 492//492
f 488//488 493//493 491//491
f 488//488 494//494 493//493
f 496//496 495//495 497//497
f 496//496 497//497 498//498
f 497//497 499//499 501//501
f 497//497 501//501 498//498
f 497//497 500//500 499//499
f 498//498 502//502 496//496
f 504//504 503//503 505//505
f 504//504 505//505 506//506
f 507//507 508//508 506//506
f 507//507 506//506 505//505
f 506//506 509//509 504//504
f 510//510 511//511 513//513
f 511//511 510//510 512//512
f 514//514 513//513 511//511
f 515//515 514//514 511//511
f 515//515 511//511 516//516
f 516//516 518//518 517//517
f 516//516 517//517 515//515
f 518//518 520//520 517//517
f 517//517 520//520 519//519
f 533//533 519//519 520//520
f 533//533 520//520 521//521
f 521//521 520//520 522//522
f 521//521 522//522 523//523
f 520//520 518//518 522//522
f 518//518 524//524 522//522
f 523//523 522//522 524//524
f 523//523 524//524 525//525
f 525//525 524//524 526//526
f 525//525 526//526 529//529
f 524//524 527//527 526//526
f 527//527 524//524 518//518
f 518//518 516//516 528//528
f 518//518 528//528 527//527
f 516//516 511//511 512//512
f 516//516 512//512 528//528
f 531//531 525//525 529//529
f 531//531 529//529 530//530
f 525//525 531//531 523//523
f 532//532 521//521 523//523
f 532//532 523//523 531//531
f 521//521 532//532 533//533
f 535//535 536//536 534//534
f 538//538 537//537 536//536
f 538//538 536//536 535//535
f 539//539 538//538 535//535
f 539//539 535//535 541//541
f 540//540 539//539 541//541
f 540//540 541//541 542//542
f 544//544 540//540 542//542
f 544//544 542//542 543//543
f 546//546 544//544 543//543
f 546//546 543//543 545//545
f 548//548 546//546 545//545
f 548//548 545//545 547//547
f 550//550 548//548 547//547
f 550//550 547//547 549//549
f 550//550 549//549 551//551
f 549//549 552//552 551//551
f 553//553 550//550 551//551
f 557//557 554//554 555//555
f 555//555 554//554 556//556
f 557//557 555//555 558//558
f 558//558 559//559 557//557
f 560//560 557//557 559//559
f 561//561 560//560 559//559
f 562//562 561//561 559//559
f 562//562 559//559 563//563
f 563//563 564//564 562//562
f 564//564 563//563 565//565
f 565//565 567//567 566//566
f 565//565 566//566 564//564
f 568//568 566//566 567//567
f 568//568 567//567 570//570
f 570//570 569//569 568//568
f 571//571 569//569 570//570
f 570//570 572//572 571//571
f 570//570 567//567 573//573
f 570//570 573//573 572//572
f 567//567 565//565 574//574
f 567//567 574//574 573//573
f 574//574 576//576 575//575
f 565//565 576//576 574//574
f 576//576 565//565 577//577
f 576//576 555//555 556//556
f 576//576 556//556 575//575
f 577//577 558//558 555//555
f 577//577 555//555 576//576
f 565//565 563//563 577//577
f 563//563 559//559 558//558
f 563//563 558//558 577//577
f 579//579 581//581 578//578
f 579//579 578//578 580//580
f 581//581 579//579 582//582
f 583//583 582//582 579//579
f 583//583 579//579 584//584
f 584//584 585//585 583//583
f 585//585 584//584 588//588
f 585//585 587//587 586//586
f 588//588 587//587 585//585
f 588//588 584//584 589//589
f 587//587 588//588 590//590
f 592//592 587//587 590//590
f 592//592 590//590 591//591
f 592//592 591//591 593//593
f 593//593 594//594 592//592
f 594//594 595//595 592//592
f 595//595 586//586 587//587
f 595//595 587//587 592//592
f 584//584 579//579 580//580
f 584//584 580//580 589//589
f 597//597 596//596 598//598
f 599//599 597//597 598//598
f 601//601 599//599 598//598
f 601//601 598//598 600//600
f 603//603 601//601 600//600
f 603//603 600//600 602//602
f 605//605 603//603 602//602
f 605//605 602//602 604//604
f 607//607 605//605 604//604
f 607//607 604//604 606//606
f 609//609 607//607 606//606
f 609//609 606//606 608//608
f 611//611 609//609 608//608
f 611//611 608//608 610//610
f 610//610 613//613 611//611
f 612//612 613//613 610//610
f 611//611 613//613 614//614
f 599//599 615//615 597//597
f 619//619 617//617 616//616
f 619//619 616//616 618//618
f 617//617 619//619 620//620
f 617//617 620//620 621//621
f 622//622 623//623 625//625
f 623//623 622//622 624//624
f 626//626 625//625 628//628
f 627//627 628//628 625//625
f 627//627 625//625 623//623
f 630//630 628//628 627//627
f 630//630 627//627 631//631
f 628//628 629//629 626//626
f 633//633 629//629 628//628
f 633//633 628//628 630//630
f 634//634 630//630 631//631
f 632//632 630//630 634//634
f 630//630 632//632 633//633
f 634//634 635//635 632//632
f 635//635 634//634 638//638
f 638//638 634//634 636//636
f 634//634 637//637 636//636
f 637//637 634//634 631//631
f 640//640 635//635 638//638
f 640//640 638//638 639//639
f 639//639 641//641 640//640
f 641//641 639//639 642//642
f 642//642 643//643 641//641
f 643//643 642//642 644//644
f 646//646 643//643 644//644
f 646//646 644//644 645//645
f 646//646 645//645 647//647
f 648//648 650//650 646//646
f 648//648 646//646 647//647
f 649//649 651//651 648//648
f 650//650 648//648 651//651
f 653//653 654//654 652//652
f 653//653 652//652 651//651
f 651//651 652//652 656//656
f 651//651 656//656 650//650
f 651//651 649//649 653//653
f 655//655 652//652 654//654
f 640//640 641//641 655//655
f 641//641 652//652 655//655
f 652//652 641//641 656//656
f 641//641 643//643 656//656
f 650//650 656//656 643//643
f 650//650 643//643 646//646
f 637//637 623//623 624//624
f 637//637 624//624 657//657
f 636//636 637//637 657//657
f 631//631 627//627 623//623
f 631//631 623//623 637//637
f 658//658 659//659 665//665
f 658//658 660//660 659//659
f 658//658 661//661 660//660
f 658//658 662//662 661//661
f 663//663 662//662 658//658
f 663//663 658//658 664//664
f 659//659 666//666 665//665
f 668//668 667//667 666//666
f 659//659 668//668 666//666
f 670//670 668//668 669//669
f 668//668 671//671 669//669
f 667//667 668//668 670//670
f 660//660 671//671 668//668
f 660//660 668//668 659//659
f 669//669 671//671 672//672
f 672//672 671//671 660//660
f 673//673 672//672 674//674
f 672//672 673//673 675//675
f 661//661 674//674 672//672
f 675//675 676//676 672//672
f 672//672 676//676 669//669
f 660//660 661//661 672//672
f 669//669 676//676 677//677
f 678//678 669//669 677//677
f 678//678 677//677 679//679
f 680//680 678//678 679//679
f 681//681 680//680 679//679
f 681//681 682//682 684//684
f 681//681 683//683 682//682
f 684//684 680//680 681//681
f 682//682 709//709 685//685
f 682//682 685//685 684//684
f 686//686 684//684 685//685
f 680//680 684//684 686//686
f 688//688 686//686 687//687
f 686//686 690//690 687//687
f 688//688 670//670 686//686
f 689//689 686//686 685//685
f 686//686 689//689 690//690
f 686//686 670//670 680//680
f 690//690 689//689 691//691
f 692//692 691//691 689//689
f 692//692 698//698 693//693
f 689//689 695//695 692//692
f 696//696 692//692 694//694
f 694//694 692//692 695//695
f 692//692 696//696 697//697
f 698//698 692//692 697//697
f 698//698 701//701 693//693
f 700//700 698//698 699//699
f 702//702 699//699 698//698
f 851//851 701//701 698//698
f 851//851 698//698 700//700
f 702//702 698//698 697//697
f 703//703 702//702 697//697
f 703//703 697//697 706//706
f 705//705 699//699 702//702
f 705//705 702//702 703//703
f 705//705 703//703 704//704
f 704//704 703//703 706//706
f 706//706 707//707 708//708
f 706//706 708//708 704//704
f 697//697 696//696 707//707
f 697//697 707//707 706//706
f 707//707 696//696 694//694
f 707//707 694//694 709//709
f 709//709 708//708 707//707
f 710//710 709//709 682//682
f 708//708 709//709 710//710
f 709//709 694//694 695//695
f 709//709 695//695 685//685
f 710//710 682//682 683//683
f 712//712 711//711 705//705
f 705//705 711//711 713//713
f 704//704 712//712 705//705
f 705//705 713//713 700//700
f 700//700 699//699 705//705
f 713//713 711//711 716//716
f 713//713 714//714 700//700
f 738//738 714//714 713//713
f 738//738 713//713 715//715
f 715//715 713//713 717//717
f 717//717 713//713 716//716
f 715//715 717//717 718//718
f 719//719 715//715 718//718
f 719//719 718//718 720//720
f 720//720 721//721 719//719
f 720//720 722//722 721//721
f 724//724 722//722 723//723
f 722//722 724//724 721//721
f 724//724 725//725 721//721
f 725//725 724//724 726//726
f 726//726 724//724 727//727
f 727//727 724//724 728//728
f 724//724 723//723 728//728
f 727//727 728//728 729//729
f 729//729 728//728 730//730
f 728//728 673//673 730//730
f 663//663 729//729 730//730
f 663//663 730//730 662//662
f 662//662 730//730 674//674
f 662//662 674//674 661//661
f 730//730 673//673 674//674
f 727//727 729//729 663//663
f 663//663 726//726 727//727
f 664//664 731//731 726//726
f 726//726 663//663 664//664
f 726//726 731//731 725//725
f 732//732 731//731 664//664
f 731//731 733//733 725//725
f 732//732 734//734 733//733
f 732//732 733//733 731//731
f 735//735 733//733 734//734
f 733//733 735//735 721//721
f 733//733 721//721 725//725
f 735//735 736//736 719//719
f 735//735 719//719 721//721
f 736//736 735//735 734//734
f 739//739 736//736 734//734
f 737//737 736//736 739//739
f 736//736 737//737 738//738
f 736//736 738//738 715//715
f 736//736 715//715 719//719
f 740//740 741//741 739//739
f 849//849 740//740 739//739
f 849//849 739//739 734//734
f 741//741 737//737 739//739
f 741//741 743//743 742//742
f 741//741 746//746 743//743
f 746//746 741//741 744//744
f 741//741 745//745 744//744
f 740//740 745//745 741//741
f 747//747 743//743 746//746
f 748//748 743//743 747//747
f 749//749 743//743 748//748
f 748//748 750//750 749//749
f 752//752 751//751 750//750
f 751//751 749//749 750//750
f 755//755 752//752 753//753
f 752//752 754//754 753//753
f 752//752 755//755 751//751
f 755//755 756//756 751//751
f 757//757 756//756 755//755
f 759//759 757//757 758//758
f 757//757 742//742 758//758
f 757//757 759//759 756//756
f 749//749 759//759 758//758
f 749//749 758//758 743//743
f 751//751 756//756 759//759
f 751//751 759//759 749//749
f 758//758 742//742 743//743
f 754//754 760//760 753//753
f 753//753 760//760 762//762
f 762//762 760//760 761//761
f 761//761 763//763 762//762
f 763//763 764//764 765//765
f 763//763 766//766 764//764
f 763//763 767//767 766//766
f 767//767 763//763 768//768
f 768//768 763//763 761//761
f 766//766 767//767 769//769
f 770//770 766//766 769//769
f 771//771 770//770 772//772
f 771//771 766//766 770//770
f 773//773 774//774 772//772
f 772//772 774//774 771//771
f 775//775 774//774 777//777
f 838//838 771//771 774//774
f 838//838 774//774 775//775
f 776//776 774//774 773//773
f 776//776 777//777 774//774
f 779//779 778//778 777//777
f 777//777 776//776 779//779
f 777//777 780//780 775//775
f 777//777 781//781 780//780
f 777//777 782//782 781//781
f 777//777 783//783 782//782
f 783//783 777//777 784//784
f 777//777 785//785 784//784
f 785//785 777//777 786//786
f 787//787 791//791 786//786
f 786//786 788//788 787//787
f 786//786 789//789 788//788
f 786//786 790//790 789//789
f 792//792 785//785 786//786
f 791//791 792//792 786//786
f 785//785 792//792 793//793
f 785//785 793//793 794//794
f 785//785 794//794 795//795
f 796//796 785//785 795//795
f 795//795 797//797 796//796
f 797//797 798//798 796//796
f 796//796 798//798 799//799
f 799//799 798//798 800//800
f 800//800 801//801 799//799
f 799//799 801//801 802//802
f 803//803 805//805 802//802
f 802//802 804//804 803//803
f 799//799 802//802 805//805
f 805//805 803//803 806//806
f 805//805 807//807 809//809
f 805//805 808//808 807//807
f 808//808 805//805 810//810
f 805//805 809//809 799//799
f 812//812 810//810 805//805
f 812//812 805//805 811//811
f 811//811 780//780 813//813
f 811//811 813//813 812//812
f 810//810 812//812 813//813
f 810//810 813//813 814//814
f 780//780 814//814 813//813
f 808//808 810//810 814//814
f 808//808 814//814 781//781
f 808//808 781//781 782//782
f 814//814 780//780 781//781
f 799//799 809//809 815//815
f 799//799 815//815 796//796
f 815//815 809//809 807//807
f 783//783 784//784 815//815
f 796//796 815//815 784//784
f 796//796 784//784 785//785
f 807//807 783//783 815//815
f 807//807 808//808 782//782
f 807//807 782//782 783//783
f 806//806 819//819 816//816
f 817//817 818//818 806//806
f 806//806 803//803 817//817
f 818//818 819//819 806//806
f 819//819 818//818 788//788
f 819//819 788//788 789//789
f 820//820 819//819 789//789
f 820//820 789//789 825//825
f 820//820 821//821 819//819
f 821//821 816//816 819//819
f 822//822 821//821 820//820
f 823//823 822//822 820//820
f 825//825 824//824 823//823
f 820//820 825//825 823//823
f 826//826 825//825 789//789
f 824//824 825//825 826//826
f 789//789 790//790 826//826
f 788//788 818//818 828//828
f 818//818 817//817 827//827
f 818//818 827//827 828//828
f 828//828 787//787 788//788
f 829//829 828//828 827//827
f 828//828 829//829 830//830
f 830//830 831//831 828//828
f 828//828 831//831 787//787
f 787//787 831//831 832//832
f 787//787 832//832 833//833
f 833//833 791//791 787//787
f 834//834 829//829 827//827
f 835//835 834//834 836//836
f 834//834 827//827 836//836
f 835//835 836//836 803//803
f 817//817 803//803 836//836
f 817//817 836//836 827//827
f 803//803 804//804 835//835
f 837//837 775//775 780//780
f 838//838 775//775 837//837
f 838//838 837//837 764//764
f 764//764 837//837 765//765
f 764//764 766//766 771//771
f 764//764 771//771 838//838
f 779//779 839//839 778//778
f 839//839 840//840 841//841
f 841//841 778//778 839//839
f 841//841 840//840 842//842
f 842//842 843//843 664//664
f 843//843 842//842 844//844
f 842//842 840//840 844//844
f 843//843 844//844 845//845
f 846//846 843//843 845//845
f 846//846 845//845 847//847
f 847//847 848//848 846//846
f 740//740 849//849 848//848
f 848//848 745//745 740//740
f 846//846 848//848 849//849
f 849//849 732//732 846//846
f 732//732 849//849 734//734
f 846//846 732//732 850//850
f 846//846 850//850 843//843
f 732//732 664//664 850//850
f 843//843 850//850 664//664
f 738//738 737//737 714//714
f 714//714 737//737 851//851
f 852//852 851//851 737//737
f 851//851 852//852 701//701
f 852//852 693//693 701//701
f 851//851 700//700 714//714
f 716//716 711//711 712//712
f 685//685 695//695 689//689
f 667//667 670//670 688//688
f 670//670 678//678 680//680
f 669//669 678//678 670//670
