# joint_33 exported from /models/guards/joint_33.glb
# units: meters
v 0.089729 0.001000 -0.018586
v 0.082625 0.001000 -0.011267
v 0.085306 0.001000 -0.008618
v 0.109317 0.001000 -0.027282
v 0.098205 0.001000 -0.031691
v 0.101020 0.001000 -0.047043
v 0.100966 0.001000 -0.050630
v 0.104916 0.001000 -0.050690
v 0.108703 0.001000 -0.068297
v 0.104886 0.001000 -0.052729
v 0.100704 0.001000 -0.068178
v 0.100936 0.001000 -0.052669
v 0.100962 0.001000 -0.069654
v 0.108400 0.001000 -0.069765
v 0.107489 0.001000 -0.071108
v 0.101833 0.001000 -0.071023
v 0.106120 0.001000 -0.071978
v 0.103175 0.001000 -0.071934
v 0.104643 0.001000 -0.072237
v 0.045238 0.001000 0.038745
v 0.083873 0.001000 -0.007167
v 0.056228 0.001000 0.015933
v 0.081205 0.001000 -0.009803
v 0.040171 0.001000 0.027013
v 0.021096 0.001000 0.031105
v -0.036792 0.001000 0.039973
v -0.012890 0.001000 0.031614
v -0.032079 0.001000 0.028095
v -0.048461 0.001000 0.017500
v -0.076785 0.001000 -0.004762
v -0.074197 0.001000 -0.007477
v -0.102819 0.001000 -0.024106
v -0.078261 0.001000 -0.006169
v -0.082980 0.001000 -0.016000
v -0.075660 0.001000 -0.008897
v -0.091844 0.001000 -0.028846
v -0.095118 0.001000 -0.044106
v -0.099121 0.001000 -0.047635
v -0.095171 0.001000 -0.047694
v -0.103433 0.001000 -0.065121
v -0.099152 0.001000 -0.049674
v -0.095434 0.001000 -0.065241
v -0.095202 0.001000 -0.049733
v -0.095737 0.001000 -0.066709
v -0.103174 0.001000 -0.066598
v -0.096648 0.001000 -0.068052
v -0.102304 0.001000 -0.067967
v -0.098017 0.001000 -0.068922
v -0.099494 0.001000 -0.069181
v -0.100962 0.001000 -0.068878
v -0.095434 -0.001000 -0.065241
v -0.095434 0.000000 -0.065241
v -0.095757 -0.001000 -0.066756
v -0.095757 0.001000 -0.066756
v -0.096678 -0.001000 -0.068080
v -0.096678 0.001000 -0.068080
v -0.098036 -0.001000 -0.068929
v -0.098036 0.001000 -0.068929
v -0.099494 -0.001000 -0.069181
v -0.099494 0.001000 -0.069181
v -0.101008 -0.001000 -0.068858
v -0.101008 0.001000 -0.068858
v -0.102333 -0.001000 -0.067937
v -0.102333 0.001000 -0.067937
v -0.103181 -0.001000 -0.066579
v -0.103181 0.001000 -0.066579
v -0.103433 -0.001000 -0.065121
v -0.103433 0.000000 -0.065121
v -0.103433 0.001000 -0.065121
v -0.095434 0.001000 -0.065241
v -0.103433 -0.001000 -0.065121
v -0.103395 -0.000500 -0.062558
v -0.103395 -0.001000 -0.062558
v -0.103433 0.000000 -0.065121
v -0.103395 0.000000 -0.062558
v -0.103395 0.000500 -0.062558
v -0.103433 0.001000 -0.065121
v -0.103395 0.001000 -0.062558
v -0.103356 0.001000 -0.059994
v -0.103356 0.000500 -0.059994
v -0.103280 0.001000 -0.054867
v -0.103280 0.000000 -0.054867
v -0.103126 0.001000 -0.044614
v -0.103126 -0.001000 -0.044614
v -0.102973 0.001000 -0.034360
v -0.102973 0.000000 -0.034360
v -0.102896 -0.000000 -0.029233
v -0.102973 -0.001000 -0.034360
v -0.102896 -0.001000 -0.029233
v -0.102819 -0.001000 -0.024106
v -0.102819 0.001000 -0.024106
v -0.102896 0.001000 -0.029233
v -0.103280 -0.001000 -0.054867
v -0.103356 -0.001000 -0.059994
v -0.103356 -0.000500 -0.059994
v -0.103356 0.000000 -0.059994
v -0.102819 -0.001000 -0.024106
v -0.098692 -0.000000 -0.020101
v -0.098692 -0.001000 -0.020101
v -0.102819 0.001000 -0.024106
v -0.098692 0.001000 -0.020101
v -0.094566 0.001000 -0.016096
v -0.094566 -0.000000 -0.016096
v -0.086312 0.001000 -0.008087
v -0.086312 -0.001000 -0.008087
v -0.078059 0.001000 -0.000077
v -0.078059 -0.001000 -0.000077
v -0.069806 0.001000 0.007933
v -0.069806 -0.001000 0.007933
v -0.061552 0.001000 0.015943
v -0.053299 0.001000 0.023953
v -0.061552 -0.001000 0.015943
v -0.053299 -0.001000 0.023953
v -0.045045 -0.000000 0.031963
v -0.045045 -0.001000 0.031963
v -0.040919 -0.001000 0.035968
v -0.040919 -0.000000 0.035968
v -0.036792 -0.001000 0.039973
v -0.036792 0.001000 0.039973
v -0.040919 0.001000 0.035968
v -0.045045 0.001000 0.031963
v -0.094566 -0.001000 -0.016096
v -0.036792 -0.001000 0.039973
v -0.030933 -0.000000 0.039885
v -0.030933 -0.001000 0.039885
v -0.036792 0.001000 0.039973
v -0.030933 0.001000 0.039885
v -0.025074 0.001000 0.039797
v -0.025074 -0.000000 0.039797
v -0.013355 0.001000 0.039622
v -0.013355 -0.001000 0.039622
v -0.001637 0.001000 0.039446
v -0.001637 -0.001000 0.039446
v 0.010082 0.001000 0.039271
v 0.010082 -0.001000 0.039271
v 0.021801 0.001000 0.039096
v 0.021801 -0.001000 0.039096
v 0.033519 0.001000 0.038920
v 0.033519 -0.000000 0.038920
v 0.033519 -0.001000 0.038920
v 0.039378 -0.000000 0.038832
v 0.039378 0.001000 0.038832
v 0.039378 -0.001000 0.038832
v 0.045238 -0.001000 0.038745
v 0.045238 0.001000 0.038745
v -0.025074 -0.001000 0.039797
v 0.045238 -0.001000 0.038745
v 0.049243 -0.000000 0.034618
v 0.049243 -0.001000 0.034618
v 0.045238 0.001000 0.038745
v 0.049243 0.001000 0.034618
v 0.053248 0.001000 0.030491
v 0.053248 -0.000000 0.030491
v 0.061257 0.001000 0.022238
v 0.061257 -0.001000 0.022238
v 0.069267 0.001000 0.013985
v 0.077277 0.001000 0.005731
v 0.069267 -0.001000 0.013985
v 0.077277 -0.001000 0.005731
v 0.085287 -0.001000 -0.002522
v 0.085287 0.001000 -0.002522
v 0.093297 -0.001000 -0.010776
v 0.093297 0.001000 -0.010776
v 0.101307 -0.000000 -0.019029
v 0.101307 -0.001000 -0.019029
v 0.105312 -0.001000 -0.023156
v 0.105312 -0.000000 -0.023156
v 0.109317 -0.001000 -0.027282
v 0.109317 0.001000 -0.027282
v 0.105312 0.001000 -0.023156
v 0.101307 0.001000 -0.019029
v 0.053248 -0.001000 0.030491
v -0.095202 -0.001000 -0.049733
v -0.095318 0.000000 -0.057487
v -0.095318 -0.001000 -0.057487
v -0.095202 0.001000 -0.049733
v -0.095318 0.001000 -0.057487
v -0.095376 0.001000 -0.061364
v -0.095434 0.001000 -0.065241
v -0.095376 0.000000 -0.061364
v -0.095434 0.000000 -0.065241
v -0.095376 -0.001000 -0.061364
v -0.095434 -0.001000 -0.065241
v 0.072880 -0.001000 -0.001224
v 0.072880 -0.000000 -0.001224
v 0.077042 -0.001000 -0.005514
v 0.064554 -0.001000 0.007354
v 0.064554 -0.000000 0.007354
v 0.060391 -0.001000 0.011644
v 0.060391 -0.000000 0.011644
v 0.056228 -0.001000 0.015933
v 0.056228 0.001000 0.015933
v 0.060391 0.001000 0.011644
v 0.064554 0.001000 0.007354
v 0.072880 0.001000 -0.001224
v 0.077042 0.001000 -0.005514
v 0.077042 -0.000000 -0.005514
v 0.081205 0.001000 -0.009803
v 0.081205 -0.001000 -0.009803
v -0.076785 -0.001000 -0.004762
v -0.078261 -0.001000 -0.006169
v -0.076785 0.001000 -0.004762
v -0.078261 0.001000 -0.006169
v -0.079320 -0.001000 -0.012449
v -0.075660 -0.001000 -0.008897
v -0.079320 0.001000 -0.012449
v -0.082980 -0.001000 -0.016000
v -0.082980 0.001000 -0.016000
v -0.075660 0.001000 -0.008897
v -0.075660 -0.001000 -0.008897
v -0.078261 -0.001000 -0.006169
v -0.075660 0.001000 -0.008897
v -0.078261 0.001000 -0.006169
v -0.076785 -0.001000 -0.004762
v -0.074197 -0.000000 -0.007477
v -0.074197 -0.001000 -0.007477
v -0.076785 0.001000 -0.004762
v -0.074197 0.001000 -0.007477
v -0.095171 -0.001000 -0.047694
v -0.099121 -0.001000 -0.047635
v -0.095171 0.001000 -0.047694
v -0.099121 0.001000 -0.047635
v -0.099152 -0.001000 -0.049674
v -0.095202 -0.001000 -0.049733
v -0.099152 0.001000 -0.049674
v -0.095202 0.001000 -0.049733
v 0.021096 -0.001000 0.031105
v 0.015432 -0.000000 0.031190
v 0.015432 -0.001000 0.031190
v 0.021096 0.001000 0.031105
v 0.015432 0.001000 0.031190
v 0.009767 0.001000 0.031275
v 0.009767 -0.000000 0.031275
v -0.001561 0.001000 0.031444
v -0.001561 -0.000000 0.031444
v -0.007226 0.001000 0.031529
v -0.007226 -0.000000 0.031529
v -0.012890 0.001000 0.031614
v -0.012890 -0.001000 0.031614
v -0.007226 -0.001000 0.031529
v -0.001561 -0.001000 0.031444
v 0.009767 -0.001000 0.031275
v 0.021096 0.001000 0.031105
v 0.025910 0.001000 0.030800
v 0.021096 -0.001000 0.031105
v 0.025910 -0.001000 0.030800
v 0.030742 -0.001000 0.030019
v 0.035519 -0.001000 0.028753
v 0.030742 0.001000 0.030019
v 0.035519 0.001000 0.028753
v 0.040171 0.001000 0.027013
v 0.044627 0.001000 0.024820
v 0.040171 -0.001000 0.027013
v 0.044627 -0.001000 0.024820
v 0.048824 -0.001000 0.022210
v 0.048824 0.001000 0.022210
v 0.052706 -0.001000 0.019229
v 0.056228 -0.001000 0.015933
v 0.052706 0.001000 0.019229
v 0.056228 0.001000 0.015933
v -0.048461 -0.001000 0.017500
v -0.052750 -0.001000 0.013338
v -0.052750 -0.000000 0.013338
v -0.048461 0.001000 0.017500
v -0.052750 0.001000 0.013338
v -0.057039 0.001000 0.009175
v -0.057039 -0.000000 0.009175
v -0.065618 0.001000 0.000849
v -0.065618 -0.000000 0.000849
v -0.069908 0.001000 -0.003314
v -0.069908 0.000500 -0.003314
v -0.069908 -0.000000 -0.003314
v -0.072052 0.000500 -0.005395
v -0.072052 0.001000 -0.005395
v -0.072052 -0.000000 -0.005395
v -0.074197 0.001000 -0.007477
v -0.074197 -0.000000 -0.007477
v -0.074197 -0.001000 -0.007477
v -0.072052 -0.000500 -0.005395
v -0.069908 -0.000500 -0.003314
v -0.072052 -0.001000 -0.005395
v -0.069908 -0.001000 -0.003314
v -0.065618 -0.001000 0.000849
v -0.057039 -0.001000 0.009175
v -0.048461 0.001000 0.017500
v -0.044841 0.001000 0.020689
v -0.048461 -0.001000 0.017500
v -0.044841 -0.001000 0.020689
v -0.040872 -0.001000 0.023552
v -0.040872 0.001000 0.023552
v -0.036599 -0.001000 0.026036
v -0.032079 -0.001000 0.028095
v -0.036599 0.001000 0.026036
v -0.032079 0.001000 0.028095
v -0.027377 0.001000 0.029695
v -0.022564 0.001000 0.030817
v -0.027377 -0.001000 0.029695
v -0.022564 -0.001000 0.030817
v -0.017711 -0.001000 0.031454
v -0.012890 -0.001000 0.031614
v -0.017711 0.001000 0.031454
v -0.012890 0.001000 0.031614
v -0.095118 -0.001000 -0.044106
v -0.095171 -0.001000 -0.047694
v -0.095118 0.001000 -0.044106
v -0.095171 0.001000 -0.047694
v -0.095118 0.001000 -0.044106
v -0.094248 0.001000 -0.036390
v -0.095118 -0.001000 -0.044106
v -0.094248 -0.001000 -0.036390
v -0.093236 -0.001000 -0.032567
v -0.093236 0.001000 -0.032567
v -0.091844 -0.001000 -0.028846
v -0.090090 -0.001000 -0.025281
v -0.091844 0.001000 -0.028846
v -0.090090 0.001000 -0.025281
v -0.088001 0.001000 -0.021924
v -0.088001 -0.001000 -0.021924
v -0.082980 0.001000 -0.016000
v -0.082980 -0.001000 -0.016000
v 0.101020 -0.001000 -0.047043
v 0.104916 -0.001000 -0.050690
v 0.100966 -0.001000 -0.050630
v 0.109317 -0.001000 -0.027282
v 0.098205 -0.001000 -0.031691
v 0.089729 -0.001000 -0.018586
v 0.085306 -0.001000 -0.008618
v 0.082625 -0.001000 -0.011267
v 0.083873 -0.001000 -0.007167
v 0.045238 -0.001000 0.038745
v 0.056228 -0.001000 0.015933
v 0.081205 -0.001000 -0.009803
v 0.040171 -0.001000 0.027013
v 0.021096 -0.001000 0.031105
v -0.012890 -0.001000 0.031614
v -0.036792 -0.001000 0.039973
v -0.076785 -0.001000 -0.004762
v -0.048461 -0.001000 0.017500
v -0.032079 -0.001000 0.028095
v -0.102819 -0.001000 -0.024106
v -0.099121 -0.001000 -0.047635
v -0.103433 -0.001000 -0.065121
v -0.095118 -0.001000 -0.044106
v -0.091844 -0.001000 -0.028846
v -0.078261 -0.001000 -0.006169
v -0.082980 -0.001000 -0.016000
v -0.075660 -0.001000 -0.008897
v -0.095171 -0.001000 -0.047694
v -0.095737 -0.001000 -0.066709
v -0.103174 -0.001000 -0.066598
v -0.099152 -0.001000 -0.049674
v -0.095434 -0.001000 -0.065241
v -0.095202 -0.001000 -0.049733
v -0.096648 -0.001000 -0.068052
v -0.102304 -0.001000 -0.067967
v -0.100962 -0.001000 -0.068878
v -0.098017 -0.001000 -0.068922
v -0.099494 -0.001000 -0.069181
v -0.074197 -0.001000 -0.007477
v 0.108703 -0.001000 -0.068297
v 0.100704 -0.001000 -0.068178
v 0.104886 -0.001000 -0.052729
v 0.108400 -0.001000 -0.069765
v 0.100962 -0.001000 -0.069654
v 0.107489 -0.001000 -0.071108
v 0.101833 -0.001000 -0.071023
v 0.106120 -0.001000 -0.071978
v 0.103175 -0.001000 -0.071934
v 0.104643 -0.001000 -0.072237
v 0.100936 -0.001000 -0.052669
vn 0.000000 1.000000 0.000000
vn 0.000000 1.000000 0.000000
vn 0.000000 1.000000 0.000000
vn 0.000000 1.000000 0.000000
vn 0.000000 1.000000 0.000000
vn 0.000000 1.000000 0.000000
vn 0.000000 1.000000 0.000000
vn 0.000000 1.000000 0.000000
vn 0.000000 1.000000 0.000000
vn 0.000000 1.000000 0.000000
vn 0.000000 1.000000 0.000000
vn 0.000000 1.000000 0.000000
vn 0.000000 1.000000 0.000000
vn 0.000000 1.000000 0.000000
vn 0.000000 1.000000 0.000000
vn 0.000000 1.000000 0.000000
vn 0.000000 1.000000 0.000000
vn 0.000000 1.000000 0.000000
vn 0.000000 1.000000 0.000000
vn 0.000000 1.000000 0.000000
vn 0.000000 1.000000 0.000000
vn 0.000000 1.000000 0.000000
vn 0.000000 1.000000 0.000000
vn 0.000000 1.000000 0.000000
vn 0.000000 1.000000 0.000000
vn 0.000000 1.000000 0.000000
vn 0.000000 1.000000 0.000000
vn 0.000000 1.000000 0.000000
vn 0.000000 1.000000 0.000000
vn 0.000000 1.000000 0.000000
vn 0.000000 1.000000 0.000000
vn 0.000000 1.000000 0.000000
vn 0.000000 1.000000 0.000000
vn 0.000000 1.000000 0.000000
vn 0.000000 1.000000 0.000000
vn 0.000000 1.000000 0.000000
vn 0.000000 1.000000 0.000000
vn 0.000000 1.000000 0.000000
vn 0.000000 1.000000 0.000000
vn 0.000000 1.000000 0.000000
vn 0.000000 1.000000 0.000000
vn 0.000000 1.000000 0.000000
vn 0.000000 1.000000 0.000000
vn 0.000000 1.000000 0.000000
vn 0.000000 1.000000 0.000000
vn 0.000000 1.000000 0.000000
vn 0.000000 1.000000 0.000000
vn 0.000000 1.000000 0.000000
vn 0.000000 1.000000 0.000000
vn 0.000000 1.000000 0.000000
vn 0.999886 0.000000 -0.015100
vn 0.999886 0.000000 -0.015100
vn 0.919233 0.000000 -0.393714
vn 0.919233 0.000000 -0.393714
vn 0.688826 0.000000 -0.724927
vn 0.688826 0.000000 -0.724927
vn 0.349391 0.000000 -0.936977
vn 0.349391 0.000000 -0.936977
vn -0.015000 0.000000 -0.999887
vn -0.015000 0.000000 -0.999887
vn -0.393714 0.000000 -0.919233
vn -0.393714 0.000000 -0.919233
vn -0.724780 0.000000 -0.688981
vn -0.724780 0.000000 -0.688981
vn -0.936932 0.000000 -0.349512
vn -0.936932 0.000000 -0.349512
vn -0.999889 -0.000000 0.014900
vn -0.999889 -0.000000 0.014900
vn -0.999889 -0.000000 0.014900
vn 0.999886 0.000000 -0.015100
vn -0.999887 -0.000000 0.015000
vn -0.999887 -0.000000 0.015000
vn -0.999887 -0.000000 0.015000
vn -0.999887 -0.000000 0.015000
vn -0.999887 -0.000000 0.015000
vn -0.999887 -0.000000 0.015000
vn -0.999887 -0.000000 0.015000
vn -0.999887 -0.000000 0.015000
vn -0.999887 -0.000000 0.015000
vn -0.999887 -0.000000 0.015000
vn -0.999887 -0.000000 0.015000
vn -0.999887 -0.000000 0.015000
vn -0.999887 -0.000000 0.015000
vn -0.999887 -0.000000 0.015000
vn -0.999887 -0.000000 0.015000
vn -0.999887 -0.000000 0.015000
vn -0.999887 -0.000000 0.015000
vn -0.999887 -0.000000 0.015000
vn -0.999887 -0.000000 0.015000
vn -0.999887 -0.000000 0.015000
vn -0.999887 -0.000000 0.015000
vn -0.999887 -0.000000 0.015000
vn -0.999887 -0.000000 0.015000
vn -0.999887 -0.000000 0.015000
vn -0.999887 -0.000000 0.015000
vn -0.999887 -0.000000 0.015000
vn -0.696427 -0.000000 0.717628
vn -0.696427 -0.000000 0.717628
vn -0.696427 -0.000000 0.717628
vn -0.696427 -0.000000 0.717628
vn -0.696427 -0.000000 0.717628
vn -0.696427 -0.000000 0.717628
vn -0.696427 -0.000000 0.717628
vn -0.696427 -0.000000 0.717628
vn -0.696427 -0.000000 0.717628
vn -0.696427 -0.000000 0.717628
vn -0.696427 -0.000000 0.717628
vn -0.696427 -0.000000 0.717628
vn -0.696427 -0.000000 0.717628
vn -0.696427 -0.000000 0.717628
vn -0.696427 -0.000000 0.717628
vn -0.696427 -0.000000 0.717628
vn -0.696427 -0.000000 0.717628
vn -0.696427 -0.000000 0.717628
vn -0.696427 -0.000000 0.717628
vn -0.696427 -0.000000 0.717628
vn -0.696427 -0.000000 0.717628
vn -0.696427 -0.000000 0.717628
vn -0.696427 -0.000000 0.717628
vn -0.696427 -0.000000 0.717628
vn -0.696427 -0.000000 0.717628
vn -0.696427 -0.000000 0.717628
vn 0.015000 -0.000000 0.999887
vn 0.015000 -0.000000 0.999887
vn 0.015000 -0.000000 0.999887
vn 0.015000 -0.000000 0.999887
vn 0.015000 -0.000000 0.999887
vn 0.015000 -0.000000 0.999887
vn 0.015000 -0.000000 0.999887
vn 0.015000 -0.000000 0.999887
vn 0.015000 -0.000000 0.999887
vn 0.015000 -0.000000 0.999887
vn 0.015000 -0.000000 0.999887
vn 0.015000 -0.000000 0.999887
vn 0.015000 -0.000000 0.999887
vn 0.015000 -0.000000 0.999887
vn 0.015000 -0.000000 0.999887
vn 0.015000 -0.000000 0.999887
vn 0.015000 -0.000000 0.999887
vn 0.015000 -0.000000 0.999887
vn 0.015000 -0.000000 0.999887
vn 0.015000 -0.000000 0.999887
vn 0.015000 -0.000000 0.999887
vn 0.015000 -0.000000 0.999887
vn 0.015000 -0.000000 0.999887
vn 0.015000 -0.000000 0.999887
vn 0.717628 -0.000000 0.696427
vn 0.717628 -0.000000 0.696427
vn 0.717628 -0.000000 0.696427
vn 0.717628 -0.000000 0.696427
vn 0.717628 -0.000000 0.696427
vn 0.717628 -0.000000 0.696427
vn 0.717628 -0.000000 0.696427
vn 0.717628 -0.000000 0.696427
vn 0.717628 -0.000000 0.696427
vn 0.717628 -0.000000 0.696427
vn 0.717628 -0.000000 0.696427
vn 0.717628 -0.000000 0.696427
vn 0.717628 -0.000000 0.696427
vn 0.717628 -0.000000 0.696427
vn 0.717628 -0.000000 0.696427
vn 0.717628 -0.000000 0.696427
vn 0.717628 -0.000000 0.696427
vn 0.717628 -0.000000 0.696427
vn 0.717628 -0.000000 0.696427
vn 0.717628 -0.000000 0.696427
vn 0.717628 -0.000000 0.696427
vn 0.717628 -0.000000 0.696427
vn 0.717628 -0.000000 0.696427
vn 0.717628 -0.000000 0.696427
vn 0.717628 -0.000000 0.696427
vn 0.717628 -0.000000 0.696427
vn 0.999887 0.000000 -0.015000
vn 0.999887 0.000000 -0.015000
vn 0.999887 0.000000 -0.015000
vn 0.999887 0.000000 -0.015000
vn 0.999887 0.000000 -0.015000
vn 0.999887 0.000000 -0.015000
vn 0.999887 0.000000 -0.015000
vn 0.999887 0.000000 -0.015000
vn 0.999887 0.000000 -0.015000
vn 0.999887 0.000000 -0.015000
vn 0.999887 0.000000 -0.015000
vn -0.717628 0.000000 -0.696427
vn -0.717628 0.000000 -0.696427
vn -0.717628 0.000000 -0.696427
vn -0.717628 0.000000 -0.696427
vn -0.717628 0.000000 -0.696427
vn -0.717628 0.000000 -0.696427
vn -0.717628 0.000000 -0.696427
vn -0.717628 0.000000 -0.696427
vn -0.717628 0.000000 -0.696427
vn -0.717628 0.000000 -0.696427
vn -0.717628 0.000000 -0.696427
vn -0.717628 0.000000 -0.696427
vn -0.717628 0.000000 -0.696427
vn -0.717628 0.000000 -0.696427
vn -0.717628 0.000000 -0.696427
vn -0.717628 0.000000 -0.696427
vn 0.690005 0.000000 -0.723805
vn 0.690005 0.000000 -0.723805
vn 0.690005 0.000000 -0.723805
vn 0.690005 0.000000 -0.723805
vn 0.696427 0.000000 -0.717628
vn 0.696427 0.000000 -0.717628
vn 0.696427 0.000000 -0.717628
vn 0.696427 0.000000 -0.717628
vn 0.696427 0.000000 -0.717628
vn 0.696427 0.000000 -0.717628
vn 0.723852 -0.000000 0.689955
vn 0.723852 -0.000000 0.689955
vn 0.723852 -0.000000 0.689955
vn 0.723852 -0.000000 0.689955
vn -0.723805 0.000000 -0.690005
vn -0.723805 0.000000 -0.690005
vn -0.723805 0.000000 -0.690005
vn -0.723805 0.000000 -0.690005
vn -0.723805 0.000000 -0.690005
vn -0.015000 0.000000 -0.999887
vn -0.015000 0.000000 -0.999887
vn -0.015000 0.000000 -0.999887
vn -0.015000 0.000000 -0.999887
vn 0.015000 -0.000000 0.999887
vn 0.015000 -0.000000 0.999887
vn 0.015000 -0.000000 0.999887
vn 0.015000 -0.000000 0.999887
vn -0.015000 0.000000 -0.999887
vn -0.015000 0.000000 -0.999887
vn -0.015000 0.000000 -0.999887
vn -0.015000 0.000000 -0.999887
vn -0.015000 0.000000 -0.999887
vn -0.015000 0.000000 -0.999887
vn -0.015000 0.000000 -0.999887
vn -0.015000 0.000000 -0.999887
vn -0.015000 0.000000 -0.999887
vn -0.015000 0.000000 -0.999887
vn -0.015000 0.000000 -0.999887
vn -0.015000 0.000000 -0.999887
vn -0.015000 0.000000 -0.999887
vn -0.015000 0.000000 -0.999887
vn -0.015000 0.000000 -0.999887
vn -0.015000 0.000000 -0.999887
vn -0.015000 0.000000 -0.999887
vn -0.111595 0.000000 -0.993754
vn -0.015000 0.000000 -0.999887
vn -0.111595 0.000000 -0.993754
vn -0.207794 0.000000 -0.978173
vn -0.303600 0.000000 -0.952800
vn -0.207794 0.000000 -0.978173
vn -0.303600 0.000000 -0.952800
vn -0.396513 0.000000 -0.918029
vn -0.485516 0.000000 -0.874228
vn -0.396513 0.000000 -0.918029
vn -0.485516 0.000000 -0.874228
vn -0.569314 0.000000 -0.822120
vn -0.569314 0.000000 -0.822120
vn -0.646888 0.000000 -0.762585
vn -0.717628 0.000000 -0.696427
vn -0.646888 0.000000 -0.762585
vn -0.717628 0.000000 -0.696427
vn 0.696427 0.000000 -0.717628
vn 0.696427 0.000000 -0.717628
vn 0.696427 0.000000 -0.717628
vn 0.696427 0.000000 -0.717628
vn 0.696427 0.000000 -0.717628
vn 0.696427 0.000000 -0.717628
vn 0.696427 0.000000 -0.717628
vn 0.696427 0.000000 -0.717628
vn 0.696427 0.000000 -0.717628
vn 0.696427 0.000000 -0.717628
vn 0.696427 0.000000 -0.717628
vn 0.696427 0.000000 -0.717628
vn 0.696427 0.000000 -0.717628
vn 0.696427 0.000000 -0.717628
vn 0.696427 0.000000 -0.717628
vn 0.696427 0.000000 -0.717628
vn 0.696427 0.000000 -0.717628
vn 0.696427 0.000000 -0.717628
vn 0.696427 0.000000 -0.717628
vn 0.696427 0.000000 -0.717628
vn 0.696427 0.000000 -0.717628
vn 0.696427 0.000000 -0.717628
vn 0.696427 0.000000 -0.717628
vn 0.696427 0.000000 -0.717628
vn 0.696427 0.000000 -0.717628
vn 0.623792 0.000000 -0.781590
vn 0.696427 0.000000 -0.717628
vn 0.623792 0.000000 -0.781590
vn 0.544482 0.000000 -0.838772
vn 0.544482 0.000000 -0.838772
vn 0.459094 0.000000 -0.888388
vn 0.368803 0.000000 -0.929508
vn 0.459094 0.000000 -0.888388
vn 0.368803 0.000000 -0.929508
vn 0.274893 0.000000 -0.961475
vn 0.178701 0.000000 -0.983903
vn 0.274893 0.000000 -0.961475
vn 0.178701 0.000000 -0.983903
vn 0.081299 0.000000 -0.996690
vn -0.014900 0.000000 -0.999889
vn 0.081299 0.000000 -0.996690
vn -0.014900 0.000000 -0.999889
vn 0.999887 0.000000 -0.015000
vn 0.999887 0.000000 -0.015000
vn 0.999887 0.000000 -0.015000
vn 0.999887 0.000000 -0.015000
vn 0.999887 0.000000 -0.015000
vn 0.978152 0.000000 -0.207890
vn 0.999887 0.000000 -0.015000
vn 0.978152 0.000000 -0.207890
vn 0.952800 0.000000 -0.303600
vn 0.952800 0.000000 -0.303600
vn 0.918029 0.000000 -0.396513
vn 0.874228 0.000000 -0.485516
vn 0.918029 0.000000 -0.396513
vn 0.874228 0.000000 -0.485516
vn 0.821994 0.000000 -0.569496
vn 0.821994 0.000000 -0.569496
vn 0.696478 0.000000 -0.717578
vn 0.696478 0.000000 -0.717578
vn 0.000000 -1.000000 -0.000000
vn 0.000000 -1.000000 -0.000000
vn 0.000000 -1.000000 -0.000000
vn 0.000000 -1.000000 -0.000000
vn 0.000000 -1.000000 -0.000000
vn 0.000000 -1.000000 -0.000000
vn 0.000000 -1.000000 -0.000000
vn 0.000000 -1.000000 -0.000000
vn 0.000000 -1.000000 -0.000000
vn 0.000000 -1.000000 -0.000000
vn 0.000000 -1.000000 -0.000000
vn 0.000000 -1.000000 -0.000000
vn 0.000000 -1.000000 -0.000000
vn 0.000000 -1.000000 -0.000000
vn 0.000000 -1.000000 -0.000000
vn 0.000000 -1.000000 -0.000000
vn 0.000000 -1.000000 -0.000000
vn 0.000000 -1.000000 -0.000000
vn 0.000000 -1.000000 -0.000000
vn 0.000000 -1.000000 -0.000000
vn 0.000000 -1.000000 -0.000000
vn 0.000000 -1.000000 -0.000000
vn 0.000000 -1.000000 -0.000000
vn 0.000000 -1.000000 -0.000000
vn 0.000000 -1.000000 -0.000000
vn 0.000000 -1.000000 -0.000000
vn 0.000000 -1.000000 -0.000000
vn 0.000000 -1.000000 -0.000000
vn 0.000000 -1.000000 -0.000000
vn 0.000000 -1.000000 -0.000000
vn 0.000000 -1.000000 -0.000000
vn 0.000000 -1.000000 -0.000000
vn 0.000000 -1.000000 -0.000000
vn 0.000000 -1.000000 -0.000000
vn 0.000000 -1.000000 -0.000000
vn 0.000000 -1.000000 -0.000000
vn 0.000000 -1.000000 -0.000000
vn 0.000000 -1.000000 -0.000000
vn 0.000000 -1.000000 -0.000000
vn 0.000000 -1.000000 -0.000000
vn 0.000000 -1.000000 -0.000000
vn 0.000000 -1.000000 -0.000000
vn 0.000000 -1.000000 -0.000000
vn 0.000000 -1.000000 -0.000000
vn 0.000000 -1.000000 -0.000000
vn 0.000000 -1.000000 -0.000000
vn 0.000000 -1.000000 -0.000000
vn 0.000000 -1.000000 -0.000000
vn 0.000000 -1.000000 -0.000000
vn 0.000000 -1.000000 -0.000000
f 2//2 3//3 1//1
f 4//4 1//1 3//3
f 1//1 4//4 5//5
f 6//6 5//5 4//4
f 8//8 7//7 6//6
f 8//8 6//6 4//4
f 4//4 9//9 8//8
f 9//9 10//10 8//8
f 10//10 9//9 11//11
f 12//12 10//10 11//11
f 11//11 14//14 13//13
f 9//9 14//14 11//11
f 13//13 14//14 15//15
f 15//15 17//17 16//16
f 16//16 13//13 15//15
f 17//17 19//19 18//18
f 18//18 16//16 17//17
f 4//4 21//21 20//20
f 4//4 3//3 21//21
f 20//20 21//21 22//22
f 22//22 21//21 23//23
f 22//22 24//24 20//20
f 24//24 25//25 20//20
f 26//26 20//20 25//25
f 25//25 27//27 26//26
f 28//28 26//26 27//27
f 29//29 26//26 28//28
f 29//29 30//30 26//26
f 29//29 31//31 30//30
f 26//26 30//30 32//32
f 32//32 30//30 33//33
f 32//32 33//33 34//34
f 33//33 35//35 34//34
f 34//34 36//36 32//32
f 37//37 32//32 36//36
f 38//38 32//32 37//37
f 39//39 38//38 37//37
f 32//32 38//38 40//40
f 41//41 40//40 38//38
f 41//41 42//42 40//40
f 42//42 41//41 43//43
f 40//40 42//42 44//44
f 44//44 46//46 45//45
f 45//45 40//40 44//44
f 45//45 46//46 47//47
f 46//46 48//48 47//47
f 49//49 50//50 48//48
f 50//50 47//47 48//48
f 52//52 51//51 53//53
f 54//54 52//52 53//53
f 56//56 54//54 53//53
f 56//56 53//53 55//55
f 58//58 56//56 55//55
f 58//58 55//55 57//57
f 60//60 58//58 57//57
f 60//60 57//57 59//59
f 62//62 60//60 59//59
f 62//62 59//59 61//61
f 64//64 62//62 61//61
f 64//64 61//61 63//63
f 66//66 64//64 63//63
f 66//66 63//63 65//65
f 65//65 68//68 69//69
f 65//65 69//69 66//66
f 67//67 68//68 65//65
f 54//54 70//70 52//52
f 74//74 71//71 72//72
f 72//72 71//71 73//73
f 74//74 72//72 75//75
f 75//75 76//76 74//74
f 77//77 74//74 76//76
f 78//78 77//77 76//76
f 79//79 78//78 76//76
f 79//79 76//76 80//80
f 80//80 81//81 79//79
f 81//81 80//80 82//82
f 82//82 83//83 81//81
f 84//84 86//86 83//83
f 83//83 82//82 84//84
f 83//83 86//86 85//85
f 92//92 85//85 86//86
f 92//92 86//86 87//87
f 87//87 86//86 88//88
f 87//87 88//88 89//89
f 86//86 84//84 88//88
f 87//87 89//89 90//90
f 90//90 91//91 87//87
f 87//87 91//91 92//92
f 84//84 82//82 93//93
f 93//93 95//95 94//94
f 82//82 95//95 93//93
f 95//95 72//72 73//73
f 95//95 73//73 94//94
f 96//96 75//75 72//72
f 96//96 72//72 95//95
f 95//95 82//82 96//96
f 82//82 80//80 96//96
f 80//80 76//76 75//75
f 80//80 75//75 96//96
f 98//98 100//100 97//97
f 98//98 97//97 99//99
f 100//100 98//98 101//101
f 102//102 101//101 98//98
f 102//102 98//98 103//103
f 103//103 104//104 102//102
f 106//106 104//104 105//105
f 106//106 105//105 107//107
f 104//104 103//103 105//105
f 108//108 106//106 107//107
f 108//108 107//107 109//109
f 110//110 108//108 109//109
f 110//110 109//109 112//112
f 111//111 110//110 112//112
f 111//111 112//112 113//113
f 113//113 114//114 111//111
f 114//114 113//113 115//115
f 117//117 114//114 115//115
f 117//117 115//115 116//116
f 117//117 116//116 118//118
f 118//118 119//119 117//117
f 119//119 120//120 117//117
f 120//120 121//121 114//114
f 120//120 114//114 117//117
f 111//111 114//114 121//121
f 105//105 103//103 122//122
f 103//103 98//98 99//99
f 103//103 99//99 122//122
f 124//124 126//126 123//123
f 124//124 123//123 125//125
f 126//126 124//124 127//127
f 128//128 127//127 124//124
f 128//128 124//124 129//129
f 129//129 130//130 128//128
f 130//130 129//129 131//131
f 132//132 130//130 131//131
f 132//132 131//131 133//133
f 134//134 132//132 133//133
f 134//134 133//133 135//135
f 136//136 134//134 135//135
f 136//136 135//135 137//137
f 137//137 139//139 136//136
f 136//136 139//139 138//138
f 139//139 137//137 140//140
f 141//141 139//139 140//140
f 141//141 140//140 143//143
f 142//142 138//138 139//139
f 142//142 139//139 141//141
f 145//145 142//142 141//141
f 141//141 143//143 144//144
f 144//144 145//145 141//141
f 131//131 129//129 146//146
f 129//129 124//124 125//125
f 129//129 125//125 146//146
f 148//148 150//150 147//147
f 148//148 147//147 149//149
f 150//150 148//148 151//151
f 152//152 151//151 148//148
f 152//152 148//148 153//153
f 153//153 154//154 152//152
f 156//156 154//154 155//155
f 156//156 155//155 158//158
f 154//154 153//153 155//155
f 157//157 156//156 158//158
f 157//157 158//158 159//159
f 161//161 157//157 159//159
f 161//161 159//159 160//160
f 163//163 161//161 160//160
f 163//163 160//160 162//162
f 162//162 164//164 163//163
f 164//164 162//162 165//165
f 167//167 164//164 165//165
f 167//167 165//165 166//166
f 167//167 166//166 168//168
f 168//168 169//169 167//167
f 169//169 170//170 167//167
f 170//170 171//171 164//164
f 170//170 164//164 167//167
f 163//163 164//164 171//171
f 155//155 153//153 172//172
f 153//153 148//148 149//149
f 153//153 149//149 172//172
f 174//174 176//176 173//173
f 174//174 173//173 175//175
f 176//176 174//174 177//177
f 178//178 177//177 174//174
f 178//178 174//174 180//180
f 178//178 180//180 181//181
f 178//178 181//181 179//179
f 183//183 181//181 180//180
f 183//183 180//180 182//182
f 180//180 174//174 175//175
f 180//180 175//175 182//182
f 188//188 185//185 184//184
f 188//188 184//184 187//187
f 185//185 197//197 186//186
f 185//185 186//186 184//184
f 190//190 188//188 187//187
f 190//190 187//187 189//189
f 190//190 189//189 191//191
f 191//191 192//192 190//190
f 192//192 193//193 190//190
f 193//193 194//194 188//188
f 193//193 188//188 190//190
f 185//185 188//188 194//194
f 185//185 194//194 195//195
f 195//195 196//196 197//197
f 195//195 197//197 185//185
f 198//198 197//197 196//196
f 197//197 198//198 199//199
f 197//197 199//199 186//186
f 201//201 203//203 202//202
f 201//201 202//202 200//200
f 204//204 206//206 209//209
f 204//204 209//209 205//205
f 207//207 208//208 206//206
f 207//207 206//206 204//204
f 210//210 212//212 213//213
f 210//210 213//213 211//211
f 214//214 217//217 215//215
f 215//215 216//216 214//214
f 217//217 218//218 215//215
f 220//220 222//222 221//221
f 220//220 221//221 219//219
f 224//224 226//226 225//225
f 224//224 225//225 223//223
f 228//228 230//230 227//227
f 228//228 227//227 229//229
f 230//230 228//228 231//231
f 232//232 231//231 228//228
f 232//232 228//228 233//233
f 233//233 235//235 234//234
f 233//233 234//234 232//232
f 236//236 234//234 235//235
f 236//236 235//235 237//237
f 238//238 236//236 237//237
f 239//239 238//238 237//237
f 237//237 240//240 239//239
f 237//237 235//235 241//241
f 237//237 241//241 240//240
f 235//235 233//233 242//242
f 235//235 242//242 241//241
f 233//233 228//228 229//229
f 233//233 229//229 242//242
f 244//244 246//246 245//245
f 244//244 245//245 243//243
f 249//249 247//247 246//246
f 249//249 246//246 244//244
f 250//250 248//248 247//247
f 250//250 247//247 249//249
f 251//251 253//253 248//248
f 251//251 248//248 250//250
f 252//252 254//254 253//253
f 252//252 253//253 251//251
f 256//256 255//255 254//254
f 256//256 254//254 252//252
f 259//259 257//257 255//255
f 259//259 255//255 256//256
f 260//260 258//258 257//257
f 260//260 257//257 259//259
f 262//262 263//263 261//261
f 264//264 261//261 263//263
f 264//264 263//263 265//265
f 266//266 265//265 263//263
f 266//266 263//263 267//267
f 267//267 269//269 268//268
f 267//267 268//268 266//266
f 269//269 271//271 268//268
f 268//268 271//271 270//270
f 271//271 269//269 272//272
f 273//273 271//271 272//272
f 273//273 272//272 275//275
f 274//274 270//270 271//271
f 274//274 271//271 273//273
f 273//273 276//276 274//274
f 275//275 277//277 273//273
f 276//276 273//273 277//277
f 277//277 279//279 278//278
f 279//279 277//277 275//275
f 275//275 272//272 280//280
f 275//275 280//280 279//279
f 279//279 280//280 282//282
f 279//279 282//282 281//281
f 278//278 279//279 281//281
f 280//280 283//283 282//282
f 269//269 267//267 284//284
f 269//269 284//284 283//283
f 283//283 280//280 269//269
f 267//267 263//263 262//262
f 267//267 262//262 284//284
f 269//269 280//280 272//272
f 286//286 288//288 287//287
f 286//286 287//287 285//285
f 290//290 289//289 288//288
f 290//290 288//288 286//286
f 293//293 291//291 289//289
f 293//293 289//289 290//290
f 294//294 292//292 291//291
f 294//294 291//291 293//293
f 295//295 297//297 292//292
f 295//295 292//292 294//294
f 296//296 298//298 297//297
f 296//296 297//297 295//295
f 301//301 299//299 298//298
f 301//301 298//298 296//296
f 302//302 300//300 299//299
f 302//302 299//299 301//301
f 304//304 306//306 305//305
f 304//304 305//305 303//303
f 308//308 310//310 309//309
f 308//308 309//309 307//307
f 312//312 311//311 310//310
f 312//312 310//310 308//308
f 315//315 313//313 311//311
f 315//315 311//311 312//312
f 316//316 314//314 313//313
f 316//316 313//313 315//315
f 317//317 318//318 314//314
f 317//317 314//314 316//316
f 319//319 320//320 318//318
f 319//319 318//318 317//317
f 321//321 322//322 324//324
f 321//321 323//323 322//322
f 324//324 325//325 321//321
f 325//325 324//324 326//326
f 328//328 326//326 327//327
f 327//327 326//326 324//324
f 324//324 329//329 327//327
f 330//330 329//329 324//324
f 331//331 329//329 330//330
f 331//331 332//332 329//329
f 331//331 330//330 333//333
f 330//330 334//334 333//333
f 336//336 334//334 330//330
f 334//334 336//336 335//335
f 340//340 337//337 336//336
f 337//337 338//338 336//336
f 339//339 336//336 338//338
f 336//336 339//339 335//335
f 341//341 343//343 340//340
f 340//340 342//342 341//341
f 340//340 343//343 344//344
f 344//344 346//346 340//340
f 337//337 340//340 345//345
f 345//345 340//340 346//346
f 346//346 347//347 345//345
f 348//348 343//343 341//341
f 342//342 349//349 352//352
f 349//349 342//342 350//350
f 352//352 351//351 342//342
f 351//351 341//341 342//342
f 353//353 351//351 352//352
f 350//350 354//354 349//349
f 354//354 350//350 355//355
f 356//356 357//357 355//355
f 355//355 357//357 354//354
f 357//357 356//356 358//358
f 338//338 337//337 359//359
f 324//324 322//322 360//360
f 360//360 361//361 363//363
f 361//361 360//360 362//362
f 362//362 360//360 322//322
f 363//363 361//361 364//364
f 364//364 365//365 363//363
f 366//366 365//365 364//364
f 366//366 367//367 365//365
f 366//366 368//368 367//367
f 369//369 367//367 368//368
f 362//362 370//370 361//361
