# joint_03 exported from /models/guards/joint_03.glb
# units: meters
v 0.005393 0.001000 0.039778
v 0.004634 0.001000 0.042032
v 0.006567 0.001000 0.043418
v 0.018050 0.001000 0.043246
v 0.016102 0.001000 0.032307
v 0.005009 0.001000 0.040128
v 0.004540 0.001000 0.041311
v 0.004693 0.001000 0.040646
v 0.018931 0.001000 0.020886
v 0.015796 0.001000 0.011889
v 0.029258 0.001000 0.035428
v 0.026064 0.001000 0.023909
v 0.026033 0.001000 0.021823
v 0.023017 0.001000 0.020825
v 0.029177 0.001000 0.023887
v 0.026018 0.001000 0.019737
v 0.023005 0.001000 0.018868
v 0.022988 0.001000 0.018869
v 0.025987 0.001000 0.017651
v 0.022942 0.001000 0.014696
v 0.026112 0.001000 0.014649
v 0.026026 0.001000 0.002412
v 0.029016 0.001000 0.001077
v 0.029132 0.001000 0.017604
v -0.003940 0.001000 -0.028892
v -0.019195 0.001000 -0.028664
v -0.005081 0.001000 -0.025875
v -0.016151 0.001000 -0.025709
v -0.016104 0.001000 -0.022580
v -0.019149 0.001000 -0.025535
v -0.021235 0.001000 -0.025503
v -0.022233 0.001000 -0.022488
v -0.022172 0.001000 -0.018402
v -0.025407 0.001000 -0.025441
v -0.023321 0.001000 -0.025472
v -0.023368 0.001000 -0.028601
v -0.021282 0.001000 -0.028633
v -0.033224 0.001000 -0.015236
v -0.031993 0.001000 -0.028472
v -0.025454 0.001000 -0.028570
v -0.047677 0.001000 -0.017355
v -0.047551 0.001000 -0.008921
v -0.044394 0.001000 -0.007319
v -0.046456 0.001000 -0.007167
v -0.045318 0.001000 -0.006964
v -0.045889 0.001000 -0.006980
v -0.046942 0.001000 -0.007514
v -0.047291 0.001000 -0.007966
v -0.008912 0.001000 -0.015601
v -0.008959 0.001000 -0.018730
v -0.011957 0.001000 -0.018555
v -0.012004 0.001000 -0.021684
v -0.006635 0.001000 -0.021765
v -0.007776 0.001000 -0.018747
v 0.021952 0.001000 0.004231
v 0.018961 0.001000 0.005566
v 0.018976 0.001000 0.007668
v 0.015750 0.001000 0.007717
v 0.018795 0.001000 0.010671
v 0.021997 0.001000 0.010623
v 0.015813 0.001000 0.011889
v 0.018841 0.001000 0.014844
v 0.018857 0.001000 0.014844
v 0.029147 0.001000 0.019690
v 0.029162 0.001000 0.021776
v 0.006051 0.001000 0.043358
v 0.004980 0.001000 0.042672
v 0.005492 0.001000 0.043123
v -0.016104 0.001000 -0.022580
v -0.022233 0.001000 -0.022488
v -0.016104 -0.001000 -0.022580
v -0.022233 -0.001000 -0.022488
v -0.022233 0.001000 -0.022488
v -0.022172 0.001000 -0.018402
v -0.022233 -0.001000 -0.022488
v -0.022172 -0.001000 -0.018402
v -0.022172 0.001000 -0.018402
v -0.011957 0.001000 -0.018555
v -0.022172 -0.001000 -0.018402
v -0.011957 -0.001000 -0.018555
v -0.011957 0.001000 -0.018555
v -0.012004 0.001000 -0.021684
v -0.011957 -0.001000 -0.018555
v -0.012004 -0.001000 -0.021684
v -0.006635 0.001000 -0.021765
v 0.021952 0.001000 0.004231
v -0.006635 -0.001000 -0.021765
v 0.021952 -0.001000 0.004231
v 0.021952 0.001000 0.004231
v 0.021997 0.001000 0.010623
v 0.021952 -0.001000 0.004231
v 0.021997 -0.001000 0.010623
v 0.018795 0.001000 0.010671
v 0.021997 0.001000 0.010623
v 0.018795 -0.001000 0.010671
v 0.021997 -0.001000 0.010623
v 0.018795 0.001000 0.010671
v 0.018857 0.001000 0.014844
v 0.018795 -0.001000 0.010671
v 0.018857 -0.001000 0.014844
v 0.018857 0.001000 0.014844
v 0.018841 0.001000 0.014844
v 0.018857 -0.001000 0.014844
v 0.018841 -0.001000 0.014844
v 0.018841 0.001000 0.014844
v 0.018931 0.001000 0.020886
v 0.018841 -0.001000 0.014844
v 0.018931 -0.001000 0.020886
v 0.018931 0.001000 0.020886
v 0.023017 0.001000 0.020825
v 0.018931 -0.001000 0.020886
v 0.023017 -0.001000 0.020825
v 0.023017 0.001000 0.020825
v 0.022988 0.001000 0.018869
v 0.023017 -0.001000 0.020825
v 0.022988 -0.001000 0.018869
v 0.023005 0.001000 0.018868
v 0.022942 0.001000 0.014696
v 0.023005 -0.001000 0.018868
v 0.022942 -0.001000 0.014696
v 0.022942 0.001000 0.014696
v 0.026112 0.001000 0.014649
v 0.022942 -0.001000 0.014696
v 0.026112 -0.001000 0.014649
v 0.026112 0.001000 0.014649
v 0.026026 0.001000 0.002412
v 0.026112 -0.001000 0.014649
v 0.026026 -0.001000 0.002412
v 0.026026 0.001000 0.002412
v -0.005081 0.001000 -0.025875
v 0.026026 -0.001000 0.002412
v -0.005081 -0.001000 -0.025875
v -0.005081 0.001000 -0.025875
v -0.016151 0.001000 -0.025709
v -0.005081 -0.001000 -0.025875
v -0.016151 -0.001000 -0.025709
v -0.016104 0.001000 -0.022580
v -0.016151 0.001000 -0.025709
v -0.016104 -0.001000 -0.022580
v -0.016151 -0.001000 -0.025709
v -0.047677 -0.001000 -0.017355
v -0.031993 -0.001000 -0.028472
v -0.047677 0.001000 -0.017355
v -0.031993 0.001000 -0.028472
v -0.031993 -0.001000 -0.028472
v -0.025454 -0.001000 -0.028570
v -0.031993 0.001000 -0.028472
v -0.025454 0.001000 -0.028570
v -0.025454 -0.001000 -0.028570
v -0.025407 -0.001000 -0.025441
v -0.025454 0.001000 -0.028570
v -0.025407 0.001000 -0.025441
v -0.025407 -0.001000 -0.025441
v -0.023321 -0.001000 -0.025472
v -0.025407 0.001000 -0.025441
v -0.023321 0.001000 -0.025472
v -0.023321 -0.001000 -0.025472
v -0.023368 -0.001000 -0.028601
v -0.023321 0.001000 -0.025472
v -0.023368 0.001000 -0.028601
v -0.023368 -0.001000 -0.028601
v -0.021282 -0.001000 -0.028633
v -0.023368 0.001000 -0.028601
v -0.021282 0.001000 -0.028633
v -0.021282 -0.001000 -0.028633
v -0.021235 -0.001000 -0.025503
v -0.021282 0.001000 -0.028633
v -0.021235 0.001000 -0.025503
v -0.021235 -0.001000 -0.025503
v -0.019149 -0.001000 -0.025535
v -0.021235 0.001000 -0.025503
v -0.019149 0.001000 -0.025535
v -0.019149 -0.001000 -0.025535
v -0.019195 -0.001000 -0.028664
v -0.019149 0.001000 -0.025535
v -0.019195 0.001000 -0.028664
v -0.019195 -0.001000 -0.028664
v -0.003940 -0.001000 -0.028892
v -0.019195 0.001000 -0.028664
v -0.003940 0.001000 -0.028892
v -0.003940 -0.001000 -0.028892
v 0.029016 -0.001000 0.001077
v -0.003940 0.001000 -0.028892
v 0.029016 0.001000 0.001077
v 0.029016 -0.001000 0.001077
v 0.029132 -0.001000 0.017604
v 0.029016 0.001000 0.001077
v 0.029132 0.001000 0.017604
v 0.029132 -0.001000 0.017604
v 0.025987 -0.001000 0.017651
v 0.029132 0.001000 0.017604
v 0.025987 0.001000 0.017651
v 0.025987 -0.001000 0.017651
v 0.026002 -0.001000 0.018694
v 0.025987 0.001000 0.017651
v 0.026002 0.001000 0.018694
v 0.026018 0.001000 0.019737
v 0.026018 -0.001000 0.019737
v 0.026018 -0.001000 0.019737
v 0.029147 -0.001000 0.019690
v 0.026018 0.001000 0.019737
v 0.029147 0.001000 0.019690
v 0.029147 -0.001000 0.019690
v 0.029162 -0.001000 0.021776
v 0.029147 0.001000 0.019690
v 0.029162 0.001000 0.021776
v 0.029162 -0.001000 0.021776
v 0.026033 -0.001000 0.021823
v 0.029162 0.001000 0.021776
v 0.026033 0.001000 0.021823
v 0.026033 -0.001000 0.021823
v 0.026048 -0.001000 0.022866
v 0.026033 0.001000 0.021823
v 0.026048 0.001000 0.022866
v 0.026064 0.001000 0.023909
v 0.026064 -0.001000 0.023909
v 0.026064 -0.001000 0.023909
v 0.027620 -0.001000 0.023898
v 0.026064 0.001000 0.023909
v 0.027620 0.001000 0.023898
v 0.029177 0.001000 0.023887
v 0.029177 -0.001000 0.023887
v 0.029177 -0.001000 0.023887
v 0.029258 -0.001000 0.035428
v 0.029177 0.001000 0.023887
v 0.029258 0.001000 0.035428
v -0.033224 0.001000 -0.015236
v -0.033224 -0.001000 -0.015236
v -0.044394 0.001000 -0.007319
v -0.044394 -0.001000 -0.007319
v -0.008912 0.001000 -0.015601
v -0.008912 -0.001000 -0.015601
v -0.033224 0.001000 -0.015236
v -0.033224 -0.001000 -0.015236
v -0.008959 0.001000 -0.018730
v -0.008959 -0.001000 -0.018730
v -0.008912 0.001000 -0.015601
v -0.008912 -0.001000 -0.015601
v -0.007776 0.001000 -0.018747
v -0.007776 -0.001000 -0.018747
v -0.008959 0.001000 -0.018730
v -0.008959 -0.001000 -0.018730
v -0.007776 0.001000 -0.018747
v 0.018961 0.001000 0.005566
v -0.007776 -0.001000 -0.018747
v 0.018961 -0.001000 0.005566
v 0.015750 0.001000 0.007717
v 0.015750 -0.001000 0.007717
v 0.018976 0.001000 0.007668
v 0.018976 -0.001000 0.007668
v 0.015813 0.001000 0.011889
v 0.015813 -0.001000 0.011889
v 0.015750 0.001000 0.007717
v 0.015750 -0.001000 0.007717
v 0.015796 0.001000 0.011889
v 0.015797 0.000937 0.011889
v 0.015813 0.001000 0.011889
v 0.015797 0.000875 0.011889
v 0.015797 0.000937 0.011889
v 0.015796 -0.001000 0.011889
v 0.015813 -0.001000 0.011889
v 0.015797 -0.000875 0.011889
v 0.015797 -0.000937 0.011889
v 0.015797 -0.000937 0.011889
v 0.015812 -0.000937 0.011889
v 0.015797 -0.000875 0.011889
v 0.015797 -0.000875 0.011889
v 0.015797 -0.000750 0.011889
v 0.015797 -0.000750 0.011889
v 0.015797 -0.000500 0.011889
v 0.015797 0.000750 0.011889
v 0.015797 0.000500 0.011889
v 0.015797 0.000750 0.011889
v 0.015797 0.000875 0.011889
v 0.015797 0.000875 0.011889
v 0.015812 0.000875 0.011889
v 0.015798 0.000750 0.011889
v 0.015801 0.000500 0.011889
v 0.015798 0.000500 0.011889
v 0.015811 0.000750 0.011889
v 0.015811 0.000500 0.011889
v 0.015812 0.000750 0.011889
v 0.015809 0.000500 0.011889
v 0.015809 -0.000000 0.011889
v 0.015801 -0.000000 0.011889
v 0.015811 -0.000000 0.011889
v 0.015809 -0.000500 0.011889
v 0.015811 -0.000500 0.011889
v 0.015801 -0.000500 0.011889
v 0.015811 -0.000750 0.011889
v 0.015812 -0.000750 0.011889
v 0.015812 -0.000875 0.011889
v 0.015798 -0.000750 0.011889
v 0.015798 -0.000500 0.011889
v 0.015798 -0.000000 0.011889
v 0.015812 -0.000875 0.011889
v 0.015812 -0.000750 0.011889
v 0.015813 -0.000875 0.011889
v 0.015813 -0.000937 0.011889
v 0.015813 0.000875 0.011889
v 0.015812 0.000750 0.011889
v 0.015812 0.000875 0.011889
v 0.015813 0.000937 0.011889
v 0.015812 0.000937 0.011889
v 0.015812 0.000500 0.011889
v 0.015812 -0.000500 0.011889
v 0.015796 0.001000 0.011889
v 0.016102 0.001000 0.032307
v 0.015796 -0.001000 0.011889
v 0.016102 -0.001000 0.032307
v -0.047551 0.001000 -0.008921
v -0.047551 -0.001000 -0.008921
v -0.047677 0.001000 -0.017355
v -0.047677 -0.001000 -0.017355
v 0.029258 -0.001000 0.035428
v 0.018050 -0.001000 0.043246
v 0.029258 0.001000 0.035428
v 0.018050 0.001000 0.043246
v 0.006567 -0.001000 0.043418
v 0.006567 0.001000 0.043418
v 0.018050 -0.001000 0.043246
v 0.018050 0.001000 0.043246
v -0.044394 0.001000 -0.007319
v -0.045318 0.001000 -0.006964
v -0.044394 -0.001000 -0.007319
v -0.045318 -0.001000 -0.006964
v -0.045889 -0.001000 -0.006980
v -0.046456 -0.001000 -0.007167
v -0.045889 0.001000 -0.006980
v -0.046456 0.001000 -0.007167
v -0.046942 0.001000 -0.007514
v -0.047291 0.001000 -0.007966
v -0.046942 -0.001000 -0.007514
v -0.047291 -0.001000 -0.007966
v -0.047551 -0.001000 -0.008921
v -0.047551 0.001000 -0.008921
v 0.016102 0.001000 0.032307
v 0.005393 0.001000 0.039778
v 0.016102 -0.001000 0.032307
v 0.005393 -0.001000 0.039778
v 0.005393 0.001000 0.039778
v 0.005009 0.001000 0.040128
v 0.005393 -0.001000 0.039778
v 0.005009 -0.001000 0.040128
v 0.004693 -0.001000 0.040646
v 0.004693 0.001000 0.040646
v 0.004540 -0.001000 0.041311
v 0.004540 0.001000 0.041311
v 0.004634 -0.001000 0.042032
v 0.004980 -0.001000 0.042672
v 0.004634 0.001000 0.042032
v 0.004980 0.001000 0.042672
v 0.005492 0.001000 0.043123
v 0.006051 0.001000 0.043358
v 0.005492 -0.001000 0.043123
v 0.006051 -0.001000 0.043358
v 0.006567 -0.001000 0.043418
v 0.006567 0.001000 0.043418
v 0.006567 -0.001000 0.043418
v 0.012075 -0.001000 0.042172
v 0.018050 -0.001000 0.043246
v 0.009623 -0.001000 0.042208
v 0.007180 -0.001000 0.042827
v 0.005954 -0.001000 0.042845
v 0.006051 -0.001000 0.043358
v 0.005492 -0.001000 0.043123
v 0.004980 -0.001000 0.042672
v 0.004634 -0.001000 0.042032
v 0.005945 -0.001000 0.042264
v 0.007171 -0.001000 0.042245
v 0.005927 -0.001000 0.041100
v 0.007153 -0.001000 0.041082
v 0.004693 -0.001000 0.040646
v 0.005919 -0.001000 0.040518
v 0.004540 -0.001000 0.041311
v 0.007145 -0.001000 0.040500
v 0.005910 -0.001000 0.039936
v 0.005009 -0.001000 0.040128
v 0.005393 -0.001000 0.039778
v 0.016102 -0.001000 0.032307
v 0.007136 -0.001000 0.039918
v 0.009571 -0.001000 0.038718
v 0.009588 -0.001000 0.039881
v 0.012023 -0.001000 0.038681
v 0.012040 -0.001000 0.039844
v 0.016926 -0.001000 0.038607
v 0.016961 -0.001000 0.040935
v 0.029258 -0.001000 0.035428
v 0.026064 -0.001000 0.023909
v 0.029177 -0.001000 0.023887
v 0.024039 -0.001000 0.022207
v 0.026033 -0.001000 0.021823
v 0.021621 -0.001000 0.024571
v 0.021587 -0.001000 0.022243
v 0.019135 -0.001000 0.022280
v 0.016717 -0.001000 0.024644
v 0.016683 -0.001000 0.022317
v 0.016665 -0.001000 0.021153
v 0.016595 -0.001000 0.016499
v 0.018931 -0.001000 0.020886
v 0.015922 -0.001000 0.012435
v 0.015796 -0.001000 0.011889
v 0.015813 -0.001000 0.011889
v 0.015917 -0.001000 0.012144
v 0.015837 -0.001000 0.011927
v 0.015915 -0.001000 0.011999
v 0.015914 -0.001000 0.011926
v 0.015837 -0.001000 0.011891
v 0.015837 -0.001000 0.011873
v 0.015913 -0.001000 0.011890
v 0.015913 -0.001000 0.011853
v 0.016067 -0.001000 0.011924
v 0.016066 -0.001000 0.011851
v 0.015912 -0.001000 0.011817
v 0.016065 -0.001000 0.011778
v 0.016219 -0.001000 0.011849
v 0.016220 -0.001000 0.011921
v 0.016218 -0.001000 0.011776
v 0.016526 -0.001000 0.011844
v 0.016528 -0.001000 0.011990
v 0.016524 -0.001000 0.011699
v 0.017139 -0.001000 0.011835
v 0.017135 -0.001000 0.011544
v 0.017143 -0.001000 0.012126
v 0.017752 -0.001000 0.011826
v 0.017747 -0.001000 0.011535
v 0.017756 -0.001000 0.012117
v 0.018795 -0.001000 0.010671
v 0.021997 -0.001000 0.010623
v 0.021395 -0.001000 0.009443
v 0.018943 -0.001000 0.009480
v 0.018857 -0.001000 0.014844
v 0.018711 -0.001000 0.014430
v 0.017734 -0.001000 0.010662
v 0.017761 -0.001000 0.012408
v 0.017743 -0.001000 0.011244
v 0.017130 -0.001000 0.011253
v 0.016517 -0.001000 0.011262
v 0.016508 -0.001000 0.010680
v 0.016491 -0.001000 0.009517
v 0.015904 -0.001000 0.011271
v 0.015750 -0.001000 0.007717
v 0.015909 -0.001000 0.011562
v 0.016215 -0.001000 0.011558
v 0.015835 -0.001000 0.011782
v 0.015912 -0.001000 0.011780
v 0.015911 -0.001000 0.011708
v 0.015836 -0.001000 0.011818
v 0.015836 -0.001000 0.011854
v 0.016064 -0.001000 0.011705
v 0.016217 -0.001000 0.011703
v 0.016521 -0.001000 0.011553
v 0.016474 -0.001000 0.008353
v 0.018976 -0.001000 0.007668
v 0.018961 -0.001000 0.005566
v 0.018926 -0.001000 0.008316
v 0.021378 -0.001000 0.008280
v 0.021952 -0.001000 0.004231
v -0.006635 -0.001000 -0.021765
v -0.007776 -0.001000 -0.018747
v -0.008959 -0.001000 -0.018730
v -0.008912 -0.001000 -0.015601
v -0.012004 -0.001000 -0.021684
v -0.011957 -0.001000 -0.018555
v -0.010881 -0.001000 -0.016843
v -0.010899 -0.001000 -0.018006
v -0.013351 -0.001000 -0.017970
v -0.013333 -0.001000 -0.016806
v -0.022172 -0.001000 -0.018402
v -0.028045 -0.001000 -0.016586
v -0.028115 -0.001000 -0.021240
v -0.022233 -0.001000 -0.022488
v -0.016104 -0.001000 -0.022580
v -0.023321 -0.001000 -0.025472
v -0.019149 -0.001000 -0.025535
v -0.025407 -0.001000 -0.025441
v -0.021235 -0.001000 -0.025503
v -0.021282 -0.001000 -0.028633
v -0.023368 -0.001000 -0.028601
v -0.025454 -0.001000 -0.028570
v -0.031993 -0.001000 -0.028472
v -0.037923 -0.001000 -0.021094
v -0.037853 -0.001000 -0.016439
v -0.047677 -0.001000 -0.017355
v -0.047551 -0.001000 -0.008921
v -0.045087 -0.001000 -0.008183
v -0.047291 -0.001000 -0.007966
v -0.046313 -0.001000 -0.008165
v -0.046304 -0.001000 -0.007583
v -0.045078 -0.001000 -0.007602
v -0.046942 -0.001000 -0.007514
v -0.046456 -0.001000 -0.007167
v -0.045889 -0.001000 -0.006980
v -0.045318 -0.001000 -0.006964
v -0.044394 -0.001000 -0.007319
v -0.033224 -0.001000 -0.015236
v -0.019195 -0.001000 -0.028664
v -0.016151 -0.001000 -0.025709
v -0.005081 -0.001000 -0.025875
v 0.029016 -0.001000 0.001077
v -0.003940 -0.001000 -0.028892
v 0.026026 -0.001000 0.002412
v 0.026112 -0.001000 0.014649
v 0.029132 -0.001000 0.017604
v 0.023934 -0.001000 0.015225
v 0.026386 -0.001000 0.015188
v 0.022942 -0.001000 0.014696
v 0.023005 -0.001000 0.018868
v 0.023062 -0.001000 0.018438
v 0.023951 -0.001000 0.016388
v 0.023969 -0.001000 0.017552
v 0.026403 -0.001000 0.016352
v 0.025195 -0.001000 0.017534
v 0.023365 -0.001000 0.018143
v 0.023978 -0.001000 0.018134
v 0.023369 -0.001000 0.018434
v 0.023982 -0.001000 0.018425
v 0.023371 -0.001000 0.018579
v 0.023373 -0.001000 0.018725
v 0.023220 -0.001000 0.018727
v 0.023065 -0.001000 0.018584
v 0.023680 -0.001000 0.018720
v 0.023986 -0.001000 0.018716
v 0.023374 -0.001000 0.018798
v 0.023682 -0.001000 0.018866
v 0.023377 -0.001000 0.018943
v 0.023375 -0.001000 0.018870
v 0.023684 -0.001000 0.019011
v 0.023988 -0.001000 0.018861
v 0.023991 -0.001000 0.019007
v 0.024604 -0.001000 0.018997
v 0.024599 -0.001000 0.018707
v 0.025204 -0.001000 0.018115
v 0.025212 -0.001000 0.018697
v 0.025217 -0.001000 0.018988
v 0.026018 -0.001000 0.019737
v 0.025987 -0.001000 0.017651
v 0.029147 -0.001000 0.019690
v 0.025230 -0.001000 0.019861
v 0.025221 -0.001000 0.019279
v 0.024608 -0.001000 0.019288
v 0.023995 -0.001000 0.019297
v 0.023999 -0.001000 0.019588
v 0.024004 -0.001000 0.019879
v 0.023386 -0.001000 0.019598
v 0.023382 -0.001000 0.019307
v 0.023075 -0.001000 0.019311
v 0.023391 -0.001000 0.019888
v 0.023017 -0.001000 0.020825
v 0.022795 -0.001000 0.021061
v 0.024021 -0.001000 0.021043
v 0.021569 -0.001000 0.021080
v 0.022988 -0.001000 0.018869
v 0.023073 -0.001000 0.019166
v 0.023071 -0.001000 0.019020
v 0.023070 -0.001000 0.018948
v 0.023070 -0.001000 0.018911
v 0.023222 -0.001000 0.018873
v 0.023069 -0.001000 0.018875
v 0.023223 -0.001000 0.018945
v 0.023224 -0.001000 0.019018
v 0.023380 -0.001000 0.019161
v 0.023378 -0.001000 0.019016
v 0.023068 -0.001000 0.018839
v 0.023221 -0.001000 0.018800
v 0.023068 -0.001000 0.018802
v 0.023067 -0.001000 0.018729
v 0.029162 -0.001000 0.021776
v 0.017769 -0.001000 0.012989
v 0.017148 -0.001000 0.012417
v 0.016543 -0.001000 0.013008
v 0.016535 -0.001000 0.012426
v 0.016530 -0.001000 0.012135
v 0.016224 -0.001000 0.012140
v 0.016222 -0.001000 0.011994
v 0.016068 -0.001000 0.011996
v 0.016552 -0.001000 0.013589
v 0.016561 -0.001000 0.014171
v 0.017778 -0.001000 0.013571
v 0.018400 -0.001000 0.014144
v 0.017787 -0.001000 0.014153
v 0.017791 -0.001000 0.014444
v 0.017182 -0.001000 0.014744
v 0.018404 -0.001000 0.014435
v 0.018406 -0.001000 0.014580
v 0.018102 -0.001000 0.014730
v 0.017795 -0.001000 0.014735
v 0.017798 -0.001000 0.014880
v 0.017187 -0.001000 0.015035
v 0.017800 -0.001000 0.015026
v 0.018104 -0.001000 0.014876
v 0.018411 -0.001000 0.014871
v 0.018106 -0.001000 0.015021
v 0.018412 -0.001000 0.014944
v 0.018410 -0.001000 0.014798
v 0.018408 -0.001000 0.014726
v 0.018563 -0.001000 0.014796
v 0.018717 -0.001000 0.014830
v 0.018562 -0.001000 0.014723
v 0.018716 -0.001000 0.014794
v 0.018564 -0.001000 0.014869
v 0.018717 -0.001000 0.014866
v 0.018565 -0.001000 0.014941
v 0.018718 -0.001000 0.014903
v 0.018718 -0.001000 0.014939
v 0.018794 -0.001000 0.014902
v 0.018832 -0.001000 0.014865
v 0.018794 -0.001000 0.014865
v 0.018795 -0.001000 0.014938
v 0.018724 -0.001000 0.015303
v 0.018719 -0.001000 0.015012
v 0.018721 -0.001000 0.015157
v 0.018415 -0.001000 0.015162
v 0.018566 -0.001000 0.015014
v 0.018413 -0.001000 0.015016
v 0.018417 -0.001000 0.015307
v 0.017804 -0.001000 0.015317
v 0.017808 -0.001000 0.015607
v 0.017191 -0.001000 0.015326
v 0.016578 -0.001000 0.015335
v 0.016587 -0.001000 0.015917
v 0.017813 -0.001000 0.015898
v 0.017821 -0.001000 0.016480
v 0.018426 -0.001000 0.015889
v 0.018421 -0.001000 0.015598
v 0.016574 -0.001000 0.015044
v 0.016569 -0.001000 0.014753
v 0.018841 -0.001000 0.014844
v 0.018793 -0.001000 0.014847
v 0.018831 -0.001000 0.014828
v 0.018793 -0.001000 0.014793
v 0.018793 -0.001000 0.014829
v 0.018713 -0.001000 0.014576
v 0.018715 -0.001000 0.014721
v 0.012057 -0.001000 0.041008
v 0.009605 -0.001000 0.041045
vn 0.000000 1.000000 0.000000
vn 0.000000 1.000000 0.000000
vn 0.000000 1.000000 0.000000
vn 0.000000 1.000000 0.000000
vn 0.000000 1.000000 0.000000
vn 0.000000 1.000000 0.000000
vn 0.000000 1.000000 0.000000
vn 0.000000 1.000000 0.000000
vn 0.000000 1.000000 0.000000
vn 0.000000 1.000000 0.000000
vn 0.000000 1.000000 0.000000
vn 0.000000 1.000000 0.000000
vn 0.000000 1.000000 0.000000
vn 0.000000 1.000000 0.000000
vn 0.000000 1.000000 0.000000
vn 0.000000 1.000000 0.000000
vn 0.000000 1.000000 0.000000
vn 0.000000 1.000000 0.000000
vn 0.000000 1.000000 0.000000
vn 0.000000 1.000000 0.000000
vn 0.000000 1.000000 0.000000
vn 0.000000 1.000000 0.000000
vn 0.000000 1.000000 0.000000
vn 0.000000 1.000000 0.000000
vn 0.000000 1.000000 0.000000
vn 0.000000 1.000000 0.000000
vn 0.000000 1.000000 0.000000
vn 0.000000 1.000000 0.000000
vn 0.000000 1.000000 0.000000
vn 0.000000 1.000000 0.000000
vn 0.000000 1.000000 0.000000
vn 0.000000 1.000000 0.000000
vn 0.000000 1.000000 0.000000
vn 0.000000 1.000000 0.000000
vn 0.000000 1.000000 0.000000
vn 0.000000 1.000000 0.000000
vn 0.000000 1.000000 0.000000
vn 0.000000 1.000000 0.000000
vn 0.000000 1.000000 0.000000
vn 0.000000 1.000000 0.000000
vn 0.000000 1.000000 0.000000
vn 0.000000 1.000000 0.000000
vn 0.000000 1.000000 0.000000
vn 0.000000 1.000000 0.000000
vn 0.000000 1.000000 0.000000
vn 0.000000 1.000000 0.000000
vn 0.000000 1.000000 0.000000
vn 0.000000 1.000000 0.000000
vn 0.000000 1.000000 0.000000
vn 0.000000 1.000000 0.000000
vn 0.000000 1.000000 0.000000
vn 0.000000 1.000000 0.000000
vn 0.000000 1.000000 0.000000
vn 0.000000 1.000000 0.000000
vn 0.000000 1.000000 0.000000
vn 0.000000 1.000000 0.000000
vn 0.000000 1.000000 0.000000
vn 0.000000 1.000000 0.000000
vn 0.000000 1.000000 0.000000
vn 0.000000 1.000000 0.000000
vn 0.000000 1.000000 0.000000
vn 0.000000 1.000000 0.000000
vn 0.000000 1.000000 0.000000
vn 0.000000 1.000000 0.000000
vn 0.000000 1.000000 0.000000
vn 0.000000 1.000000 0.000000
vn 0.000000 1.000000 0.000000
vn 0.000000 1.000000 0.000000
vn 0.015000 -0.000000 0.999887
vn 0.015000 -0.000000 0.999887
vn 0.015000 -0.000000 0.999887
vn 0.015000 -0.000000 0.999887
vn 0.999887 0.000000 -0.015000
vn 0.999887 0.000000 -0.015000
vn 0.999887 0.000000 -0.015000
vn 0.999887 0.000000 -0.015000
vn -0.015000 0.000000 -0.999887
vn -0.015000 0.000000 -0.999887
vn -0.015000 0.000000 -0.999887
vn -0.015000 0.000000 -0.999887
vn -0.999889 -0.000000 0.014900
vn -0.999889 -0.000000 0.014900
vn -0.999889 -0.000000 0.014900
vn -0.999889 -0.000000 0.014900
vn 0.672812 0.000000 -0.739813
vn 0.672812 0.000000 -0.739813
vn 0.672812 0.000000 -0.739813
vn 0.672812 0.000000 -0.739813
vn 0.999976 0.000000 -0.007000
vn 0.999976 0.000000 -0.007000
vn 0.999976 0.000000 -0.007000
vn 0.999976 0.000000 -0.007000
vn 0.015000 -0.000000 0.999887
vn 0.015000 -0.000000 0.999887
vn 0.015000 -0.000000 0.999887
vn 0.015000 -0.000000 0.999887
vn 0.999887 0.000000 -0.015000
vn 0.999887 0.000000 -0.015000
vn 0.999887 0.000000 -0.015000
vn 0.999887 0.000000 -0.015000
vn 0.016199 -0.000000 0.999869
vn 0.016199 -0.000000 0.999869
vn 0.016199 -0.000000 0.999869
vn 0.016199 -0.000000 0.999869
vn 0.999887 0.000000 -0.015000
vn 0.999887 0.000000 -0.015000
vn 0.999887 0.000000 -0.015000
vn 0.999887 0.000000 -0.015000
vn -0.015000 0.000000 -0.999887
vn -0.015000 0.000000 -0.999887
vn -0.015000 0.000000 -0.999887
vn -0.015000 0.000000 -0.999887
vn -0.999887 -0.000000 0.015000
vn -0.999887 -0.000000 0.015000
vn -0.999887 -0.000000 0.015000
vn -0.999887 -0.000000 0.015000
vn -0.999887 -0.000000 0.015000
vn -0.999887 -0.000000 0.015000
vn -0.999887 -0.000000 0.015000
vn -0.999887 -0.000000 0.015000
vn -0.015000 0.000000 -0.999887
vn -0.015000 0.000000 -0.999887
vn -0.015000 0.000000 -0.999887
vn -0.015000 0.000000 -0.999887
vn -0.999976 -0.000000 0.007000
vn -0.999976 -0.000000 0.007000
vn -0.999976 -0.000000 0.007000
vn -0.999976 -0.000000 0.007000
vn -0.672812 -0.000000 0.739813
vn -0.672812 -0.000000 0.739813
vn -0.672812 -0.000000 0.739813
vn -0.672812 -0.000000 0.739813
vn 0.015000 -0.000000 0.999887
vn 0.015000 -0.000000 0.999887
vn 0.015000 -0.000000 0.999887
vn 0.015000 -0.000000 0.999887
vn 0.999887 0.000000 -0.015000
vn 0.999887 0.000000 -0.015000
vn 0.999887 0.000000 -0.015000
vn 0.999887 0.000000 -0.015000
vn -0.578311 0.000000 -0.815816
vn -0.578311 0.000000 -0.815816
vn -0.578311 0.000000 -0.815816
vn -0.578311 0.000000 -0.815816
vn -0.015000 0.000000 -0.999887
vn -0.015000 0.000000 -0.999887
vn -0.015000 0.000000 -0.999887
vn -0.015000 0.000000 -0.999887
vn 0.999889 0.000000 -0.014900
vn 0.999889 0.000000 -0.014900
vn 0.999889 0.000000 -0.014900
vn 0.999889 0.000000 -0.014900
vn -0.015000 0.000000 -0.999887
vn -0.015000 0.000000 -0.999887
vn -0.015000 0.000000 -0.999887
vn -0.015000 0.000000 -0.999887
vn -0.999889 -0.000000 0.014900
vn -0.999889 -0.000000 0.014900
vn -0.999889 -0.000000 0.014900
vn -0.999889 -0.000000 0.014900
vn -0.015000 0.000000 -0.999887
vn -0.015000 0.000000 -0.999887
vn -0.015000 0.000000 -0.999887
vn -0.015000 0.000000 -0.999887
vn 0.999887 0.000000 -0.015000
vn 0.999887 0.000000 -0.015000
vn 0.999887 0.000000 -0.015000
vn 0.999887 0.000000 -0.015000
vn -0.015000 0.000000 -0.999887
vn -0.015000 0.000000 -0.999887
vn -0.015000 0.000000 -0.999887
vn -0.015000 0.000000 -0.999887
vn -0.999887 -0.000000 0.015000
vn -0.999887 -0.000000 0.015000
vn -0.999887 -0.000000 0.015000
vn -0.999887 -0.000000 0.015000
vn -0.015000 0.000000 -0.999887
vn -0.015000 0.000000 -0.999887
vn -0.015000 0.000000 -0.999887
vn -0.015000 0.000000 -0.999887
vn 0.672812 0.000000 -0.739813
vn 0.672812 0.000000 -0.739813
vn 0.672812 0.000000 -0.739813
vn 0.672812 0.000000 -0.739813
vn 0.999976 0.000000 -0.007000
vn 0.999976 0.000000 -0.007000
vn 0.999976 0.000000 -0.007000
vn 0.999976 0.000000 -0.007000
vn 0.015000 -0.000000 0.999887
vn 0.015000 -0.000000 0.999887
vn 0.015000 -0.000000 0.999887
vn 0.015000 -0.000000 0.999887
vn 0.999889 0.000000 -0.014900
vn 0.999887 0.000000 -0.015000
vn 0.999889 0.000000 -0.014900
vn 0.999887 0.000000 -0.015000
vn 0.999887 0.000000 -0.015000
vn 0.999887 0.000000 -0.015000
vn -0.015000 0.000000 -0.999887
vn -0.015000 0.000000 -0.999887
vn -0.015000 0.000000 -0.999887
vn -0.015000 0.000000 -0.999887
vn 0.999976 0.000000 -0.007000
vn 0.999976 0.000000 -0.007000
vn 0.999976 0.000000 -0.007000
vn 0.999976 0.000000 -0.007000
vn 0.014900 -0.000000 0.999889
vn 0.014900 -0.000000 0.999889
vn 0.014900 -0.000000 0.999889
vn 0.014900 -0.000000 0.999889
vn 0.999889 0.000000 -0.014900
vn 0.999887 0.000000 -0.015000
vn 0.999889 0.000000 -0.014900
vn 0.999887 0.000000 -0.015000
vn 0.999887 0.000000 -0.015000
vn 0.999887 0.000000 -0.015000
vn -0.007000 0.000000 -0.999976
vn -0.007000 0.000000 -0.999976
vn -0.007000 0.000000 -0.999976
vn -0.007000 0.000000 -0.999976
vn -0.007100 0.000000 -0.999975
vn -0.007100 0.000000 -0.999975
vn 0.999976 0.000000 -0.007000
vn 0.999976 0.000000 -0.007000
vn 0.999976 0.000000 -0.007000
vn 0.999976 0.000000 -0.007000
vn 0.578264 -0.000000 0.815850
vn 0.578264 -0.000000 0.815850
vn 0.578264 -0.000000 0.815850
vn 0.578264 -0.000000 0.815850
vn 0.015000 -0.000000 0.999887
vn 0.015000 -0.000000 0.999887
vn 0.015000 -0.000000 0.999887
vn 0.015000 -0.000000 0.999887
vn 0.999889 0.000000 -0.014900
vn 0.999889 0.000000 -0.014900
vn 0.999889 0.000000 -0.014900
vn 0.999889 0.000000 -0.014900
vn 0.015000 -0.000000 0.999887
vn 0.015000 -0.000000 0.999887
vn 0.015000 -0.000000 0.999887
vn 0.015000 -0.000000 0.999887
vn -0.672812 -0.000000 0.739813
vn -0.672812 -0.000000 0.739813
vn -0.672812 -0.000000 0.739813
vn -0.672812 -0.000000 0.739813
vn -0.015000 0.000000 -0.999887
vn -0.015000 0.000000 -0.999887
vn -0.015000 0.000000 -0.999887
vn -0.015000 0.000000 -0.999887
vn -0.999887 -0.000000 0.015000
vn -0.999887 -0.000000 0.015000
vn -0.999887 -0.000000 0.015000
vn -0.999887 -0.000000 0.015000
vn -0.020500 0.000000 -0.999790
vn -0.016499 0.000000 -0.999864
vn -0.020700 0.000000 -0.999786
vn -0.015300 0.000000 -0.999883
vn -0.299892 0.000100 -0.953973
vn -0.019600 0.000000 -0.999808
vn -0.020800 0.000000 -0.999784
vn -0.015100 0.000000 -0.999886
vn -0.016499 0.000000 -0.999864
vn -0.012600 0.000000 -0.999921
vn -0.016499 -0.000400 -0.999864
vn -0.014800 -0.000100 -0.999890
vn -0.015000 0.000000 -0.999887
vn -0.273400 -0.000100 -0.961900
vn -0.045399 0.000000 -0.998969
vn -0.067601 0.000000 -0.997712
vn -0.273400 0.000000 -0.961900
vn -0.067601 0.000000 -0.997712
vn -0.045399 0.000000 -0.998969
vn -0.015000 0.000000 -0.999887
vn -0.014800 0.000000 -0.999890
vn -0.014600 0.000000 -0.999893
vn -0.042500 0.000000 -0.999096
vn -0.010000 0.000000 -0.999950
vn 0.004800 0.000000 -0.999988
vn -0.012100 0.000000 -0.999927
vn -0.015000 0.000000 -0.999887
vn -0.015000 0.000000 -0.999887
vn -0.009999 0.000000 -0.999950
vn -0.009500 0.000000 -0.999955
vn -0.009500 0.000000 -0.999955
vn -0.015000 0.000000 -0.999887
vn -0.009999 0.000000 -0.999950
vn -0.015000 0.000000 -0.999887
vn -0.010000 0.000000 -0.999950
vn -0.012100 0.000000 -0.999927
vn -0.015000 0.000000 -0.999887
vn -0.014600 0.000000 -0.999893
vn -0.042500 0.000000 -0.999096
vn 0.004800 0.000000 -0.999988
vn -0.070799 0.000000 -0.997491
vn -0.015000 0.000000 -0.999887
vn 0.245593 0.000000 -0.969373
vn -0.173603 0.000000 -0.984816
vn -0.173506 -0.000400 -0.984833
vn -0.173603 0.000000 -0.984816
vn 0.245593 0.000100 -0.969373
vn -0.015000 0.000000 -0.999887
vn -0.169294 0.000400 -0.985566
vn -0.016499 0.000400 -0.999864
vn -0.086297 0.000000 -0.996269
vn -0.086297 0.000000 -0.996269
vn -0.999887 -0.000000 0.015000
vn -0.999887 -0.000000 0.015000
vn -0.999887 -0.000000 0.015000
vn -0.999887 -0.000000 0.015000
vn -0.999887 -0.000000 0.015000
vn -0.999887 -0.000000 0.015000
vn -0.999887 -0.000000 0.015000
vn -0.999887 -0.000000 0.015000
vn 0.572207 -0.000000 0.820110
vn 0.572207 -0.000000 0.820110
vn 0.572207 -0.000000 0.820110
vn 0.572207 -0.000000 0.820110
vn 0.015000 -0.000000 0.999887
vn 0.015000 -0.000000 0.999887
vn 0.015000 -0.000000 0.999887
vn 0.015000 -0.000000 0.999887
vn 0.578198 -0.000000 0.815897
vn 0.116400 -0.000000 0.993202
vn 0.578198 -0.000000 0.815897
vn 0.116400 -0.000000 0.993202
vn -0.169197 -0.000000 0.985582
vn -0.452526 -0.000000 0.891751
vn -0.169197 -0.000000 0.985582
vn -0.452526 -0.000000 0.891751
vn -0.695565 -0.000000 0.718464
vn -0.870309 -0.000000 0.492505
vn -0.695565 -0.000000 0.718464
vn -0.870309 -0.000000 0.492505
vn -0.999886 -0.000000 0.015100
vn -0.999886 -0.000000 0.015100
vn -0.572207 0.000000 -0.820110
vn -0.572207 0.000000 -0.820110
vn -0.572207 0.000000 -0.820110
vn -0.572207 0.000000 -0.820110
vn -0.572207 0.000000 -0.820110
vn -0.764239 0.000000 -0.644933
vn -0.572207 0.000000 -0.820110
vn -0.764239 0.000000 -0.644933
vn -0.922448 0.000000 -0.386120
vn -0.922448 0.000000 -0.386120
vn -0.998563 0.000000 -0.053598
vn -0.998563 0.000000 -0.053598
vn -0.951709 -0.000000 0.307003
vn -0.779012 -0.000000 0.627009
vn -0.951709 -0.000000 0.307003
vn -0.779012 -0.000000 0.627009
vn -0.522897 -0.000000 0.852396
vn -0.243288 -0.000000 0.969954
vn -0.522897 -0.000000 0.852396
vn -0.243288 -0.000000 0.969954
vn 0.014900 -0.000000 0.999889
vn 0.014900 -0.000000 0.999889
vn 0.000000 -1.000000 -0.000000
vn 0.000000 -1.000000 -0.000000
vn 0.000000 -1.000000 -0.000000
vn 0.000000 -1.000000 -0.000000
vn 0.000000 -1.000000 -0.000000
vn 0.000000 -1.000000 -0.000000
vn 0.000000 -1.000000 -0.000000
vn 0.000000 -1.000000 -0.000000
vn 0.000000 -1.000000 -0.000000
vn 0.000000 -1.000000 -0.000000
vn 0.000000 -1.000000 -0.000000
vn 0.000000 -1.000000 -0.000000
vn 0.000000 -1.000000 -0.000000
vn 0.000000 -1.000000 -0.000000
vn 0.000000 -1.000000 -0.000000
vn 0.000000 -1.000000 -0.000000
vn 0.000000 -1.000000 -0.000000
vn 0.000000 -1.000000 -0.000000
vn 0.000000 -1.000000 -0.000000
vn 0.000000 -1.000000 -0.000000
vn 0.000000 -1.000000 -0.000000
vn 0.000000 -1.000000 -0.000000
vn 0.000000 -1.000000 -0.000000
vn 0.000000 -1.000000 -0.000000
vn 0.000000 -1.000000 -0.000000
vn 0.000000 -1.000000 -0.000000
vn 0.000000 -1.000000 -0.000000
vn 0.000000 -1.000000 -0.000000
vn 0.000000 -1.000000 -0.000000
vn 0.000000 -1.000000 -0.000000
vn 0.000000 -1.000000 -0.000000
vn 0.000000 -1.000000 -0.000000
vn 0.000000 -1.000000 -0.000000
vn 0.000000 -1.000000 -0.000000
vn 0.000000 -1.000000 -0.000000
vn 0.000000 -1.000000 -0.000000
vn 0.000000 -1.000000 -0.000000
vn 0.000000 -1.000000 -0.000000
vn 0.000000 -1.000000 -0.000000
vn 0.000000 -1.000000 -0.000000
vn 0.000000 -1.000000 -0.000000
vn 0.000000 -1.000000 -0.000000
vn 0.000000 -1.000000 -0.000000
vn 0.000000 -1.000000 -0.000500
vn 0.000000 -1.000000 -0.000300
vn 0.000000 -1.000000 -0.000000
vn 0.000000 -1.000000 -0.000000
vn 0.000000 -1.000000 -0.000000
vn 0.000000 -1.000000 -0.000000
vn 0.000000 -1.000000 0.000300
vn 0.000000 -1.000000 -0.000000
vn 0.000000 -1.000000 -0.000000
vn 0.000000 -1.000000 -0.000000
vn 0.000000 -1.000000 -0.000000
vn 0.000000 -1.000000 -0.000000
vn 0.000000 -1.000000 -0.000000
vn 0.000000 -1.000000 -0.000000
vn 0.000000 -1.000000 -0.000000
vn 0.000000 -1.000000 -0.000000
vn 0.000000 -1.000000 -0.000000
vn 0.000000 -1.000000 -0.000000
vn 0.000000 -1.000000 -0.000000
vn 0.000000 -1.000000 -0.000000
vn 0.000000 -1.000000 -0.000000
vn 0.000000 -1.000000 -0.000000
vn 0.000000 -1.000000 -0.000000
vn 0.000000 -1.000000 -0.000000
vn 0.000000 -1.000000 -0.000000
vn 0.000000 -1.000000 -0.000000
vn 0.000000 -1.000000 -0.000000
vn 0.000000 -1.000000 -0.000000
vn 0.000000 -1.000000 -0.000000
vn 0.000000 -1.000000 -0.000000
vn 0.000000 -1.000000 -0.000000
vn 0.000000 -1.000000 -0.000000
vn 0.000000 -1.000000 -0.000000
vn 0.000000 -1.000000 -0.000000
vn 0.000000 -1.000000 -0.000000
vn 0.000000 -1.000000 -0.000000
vn 0.000000 -1.000000 -0.000000
vn 0.000000 -1.000000 -0.000000
vn 0.000000 -1.000000 -0.000000
vn 0.000000 -1.000000 -0.000000
vn 0.000000 -1.000000 -0.000000
vn 0.000000 -1.000000 -0.000000
vn 0.000000 -1.000000 -0.000000
vn 0.000000 -1.000000 0.000300
vn 0.000000 -1.000000 -0.000000
vn 0.000000 -1.000000 -0.000000
vn 0.000000 -1.000000 -0.000000
vn 0.000000 -1.000000 -0.000000
vn 0.000000 -1.000000 -0.000000
vn 0.000000 -1.000000 -0.000000
vn 0.000000 -1.000000 -0.000000
vn 0.000000 -1.000000 -0.000000
vn 0.000000 -1.000000 -0.000000
vn 0.000000 -1.000000 -0.000000
vn 0.000000 -1.000000 -0.000000
vn 0.000000 -1.000000 -0.000000
vn 0.000000 -1.000000 -0.000000
vn 0.000000 -1.000000 -0.000000
vn 0.000000 -1.000000 -0.000000
vn 0.000000 -1.000000 -0.000000
vn 0.000000 -1.000000 -0.000000
vn 0.000000 -1.000000 -0.000000
vn 0.000000 -1.000000 -0.000000
vn 0.000000 -1.000000 -0.000000
vn 0.000000 -1.000000 -0.000000
vn 0.000000 -1.000000 -0.000000
vn 0.000000 -1.000000 -0.000000
vn 0.000000 -1.000000 -0.000000
vn 0.000000 -1.000000 -0.000000
vn 0.000000 -1.000000 -0.000000
vn 0.000000 -1.000000 -0.000000
vn 0.000000 -1.000000 -0.000000
vn 0.000000 -1.000000 -0.000000
vn 0.000000 -1.000000 -0.000000
vn 0.000000 -1.000000 -0.000000
vn 0.000000 -1.000000 -0.000000
vn 0.000000 -1.000000 -0.000000
vn 0.000000 -1.000000 -0.000000
vn 0.000000 -1.000000 -0.000000
vn 0.000000 -1.000000 -0.000000
vn 0.000000 -1.000000 -0.000000
vn 0.000000 -1.000000 -0.000000
vn 0.000000 -1.000000 -0.000000
vn 0.000000 -1.000000 -0.000000
vn 0.000000 -1.000000 -0.000000
vn 0.000000 -1.000000 -0.000000
vn 0.000000 -1.000000 -0.000000
vn 0.000000 -1.000000 -0.000000
vn 0.000000 -1.000000 -0.000000
vn 0.000000 -1.000000 -0.000000
vn 0.000000 -1.000000 -0.000000
vn 0.000000 -1.000000 -0.000000
vn 0.000000 -1.000000 -0.000000
vn 0.000000 -1.000000 -0.000000
vn 0.000000 -1.000000 -0.000000
vn 0.000000 -1.000000 -0.000000
vn 0.000000 -1.000000 -0.000000
vn 0.000000 -1.000000 -0.000000
vn 0.000000 -1.000000 -0.000000
vn 0.000000 -1.000000 -0.000000
vn 0.000000 -1.000000 -0.000000
vn 0.000000 -1.000000 -0.000000
vn 0.000000 -1.000000 -0.000000
vn 0.000000 -1.000000 -0.000000
vn 0.000000 -1.000000 -0.000000
vn 0.000000 -1.000000 -0.000000
vn 0.000000 -1.000000 -0.000900
vn 0.000000 -1.000000 -0.000000
vn 0.000000 -1.000000 -0.000000
vn 0.000000 -1.000000 -0.000000
vn 0.000000 -1.000000 -0.000000
vn 0.000000 -1.000000 -0.000000
vn 0.000000 -1.000000 -0.000000
vn 0.000000 -1.000000 -0.000000
vn 0.000000 -1.000000 -0.000000
vn 0.000000 -1.000000 -0.000000
vn 0.000000 -1.000000 -0.000000
vn 0.000000 -1.000000 -0.000000
vn 0.000000 -1.000000 -0.000000
vn 0.000000 -1.000000 -0.000000
vn 0.000000 -1.000000 -0.000000
vn 0.000000 -1.000000 -0.000000
vn 0.000000 -1.000000 -0.000000
vn 0.000000 -1.000000 -0.000000
vn 0.000000 -1.000000 -0.000000
vn 0.000000 -1.000000 -0.000000
vn 0.000000 -1.000000 -0.000000
vn 0.000000 -1.000000 -0.000000
vn 0.000000 -1.000000 -0.000000
vn 0.000000 -1.000000 -0.000000
vn 0.000000 -1.000000 -0.000000
vn 0.000000 -1.000000 -0.000000
vn 0.000000 -1.000000 -0.000000
vn 0.000000 -1.000000 -0.000000
vn 0.000000 -1.000000 -0.000000
vn 0.000000 -1.000000 -0.000000
vn 0.000000 -1.000000 -0.000000
vn 0.000000 -1.000000 -0.000000
vn 0.000000 -1.000000 -0.000000
vn 0.000000 -1.000000 -0.000000
vn 0.000000 -1.000000 -0.000000
vn 0.000000 -1.000000 -0.000000
vn 0.000000 -1.000000 -0.000000
vn 0.000000 -1.000000 -0.000000
vn 0.000000 -1.000000 -0.000000
vn 0.000000 -1.000000 -0.000000
vn 0.000000 -1.000000 -0.000000
vn 0.000000 -1.000000 -0.000000
vn 0.000000 -1.000000 -0.000000
vn 0.000000 -1.000000 -0.000000
vn 0.000000 -1.000000 -0.000000
vn 0.000000 -1.000000 -0.000300
vn 0.000000 -1.000000 -0.000000
vn 0.000000 -1.000000 -0.000000
vn 0.000000 -1.000000 -0.000000
vn 0.000000 -1.000000 -0.000000
vn 0.000000 -1.000000 -0.000000
vn 0.000000 -1.000000 0.000300
vn 0.000000 -1.000000 -0.000000
vn 0.000000 -1.000000 -0.000000
vn 0.000000 -1.000000 -0.000000
vn 0.000000 -1.000000 -0.000000
vn 0.000000 -1.000000 -0.000000
vn 0.000000 -1.000000 -0.000000
vn 0.000000 -1.000000 -0.000000
vn 0.000000 -1.000000 -0.000000
vn 0.000000 -1.000000 -0.000000
vn 0.000000 -1.000000 -0.000000
vn 0.000000 -1.000000 -0.000000
vn 0.000000 -1.000000 -0.000000
vn 0.000000 -1.000000 -0.000000
vn 0.000000 -1.000000 -0.000000
vn 0.000000 -1.000000 -0.000000
vn 0.000000 -1.000000 -0.000000
vn 0.000000 -1.000000 -0.000000
vn 0.000000 -1.000000 -0.000000
vn 0.000000 -1.000000 -0.000000
vn 0.000000 -1.000000 -0.000000
vn 0.000000 -1.000000 -0.000000
vn 0.000000 -1.000000 -0.000000
vn 0.000000 -1.000000 -0.000000
vn 0.000000 -1.000000 -0.000000
vn 0.000000 -1.000000 -0.000000
vn 0.000000 -1.000000 -0.000000
vn 0.000000 -1.000000 -0.000000
vn 0.000000 -1.000000 -0.000000
vn 0.000000 -1.000000 -0.000000
vn 0.000000 -1.000000 -0.000000
vn 0.000000 -1.000000 -0.000000
vn 0.000000 -1.000000 -0.000000
vn 0.000000 -1.000000 -0.000000
vn 0.000000 -1.000000 -0.000000
vn 0.000000 -1.000000 -0.000000
vn 0.000000 -1.000000 -0.000000
vn 0.000000 -1.000000 -0.000000
vn 0.000000 -1.000000 -0.000000
vn 0.000000 -1.000000 -0.000000
vn 0.000000 -1.000000 -0.000000
vn 0.000000 -1.000000 -0.000000
vn 0.000000 -1.000000 -0.000000
vn 0.000000 -1.000000 -0.000000
vn 0.000000 -1.000000 -0.000000
vn 0.000000 -1.000000 -0.000000
vn 0.000000 -1.000000 -0.000000
vn 0.000000 -1.000000 -0.000000
vn 0.000000 -1.000000 -0.000000
vn 0.000000 -1.000000 -0.000000
vn 0.000000 -1.000000 -0.000000
vn 0.000000 -1.000000 -0.000000
vn 0.000000 -1.000000 -0.000000
vn 0.000000 -1.000000 -0.000000
vn 0.000000 -1.000000 -0.000000
vn 0.000000 -1.000000 -0.000000
vn 0.000000 -1.000000 -0.000000
vn 0.000000 -1.000000 -0.000000
vn 0.000000 -1.000000 -0.000000
vn 0.000000 -1.000000 -0.000000
vn 0.000000 -1.000000 -0.000000
vn 0.000000 -1.000000 -0.000000
vn 0.000000 -1.000000 -0.000000
vn 0.000000 -1.000000 -0.000000
vn 0.000000 -1.000000 -0.000000
vn 0.000000 -1.000000 -0.000000
vn 0.000000 -1.000000 -0.000000
vn 0.000000 -1.000000 -0.000000
vn 0.000000 -1.000000 -0.000000
vn 0.000000 -1.000000 -0.000000
vn 0.000000 -1.000000 -0.000000
vn 0.000000 -1.000000 0.000300
vn 0.000000 -1.000000 -0.000000
vn 0.000000 -1.000000 -0.000000
vn 0.000000 -1.000000 -0.000000
vn 0.000000 -1.000000 -0.000000
vn 0.000000 -1.000000 -0.000000
vn 0.000000 -1.000000 -0.000000
f 6//6 2//2 1//1
f 2//2 3//3 1//1
f 1//1 3//3 4//4
f 4//4 5//5 1//1
f 6//6 7//7 2//2
f 7//7 6//6 8//8
f 11//11 5//5 4//4
f 9//9 5//5 12//12
f 9//9 10//10 5//5
f 12//12 5//5 11//11
f 14//14 12//12 13//13
f 12//12 14//14 9//9
f 12//12 11//11 15//15
f 17//17 14//14 16//16
f 13//13 16//16 14//14
f 14//14 17//17 18//18
f 17//17 16//16 19//19
f 20//20 17//17 19//19
f 20//20 19//19 21//21
f 24//24 21//21 19//19
f 21//21 23//23 22//22
f 21//21 24//24 23//23
f 23//23 25//25 22//22
f 27//27 25//25 26//26
f 27//27 26//26 28//28
f 22//22 25//25 27//27
f 30//30 29//29 28//28
f 26//26 30//30 28//28
f 31//31 32//32 30//30
f 32//32 29//29 30//30
f 32//32 34//34 33//33
f 32//32 31//31 35//35
f 32//32 35//35 34//34
f 31//31 37//37 36//36
f 31//31 36//36 35//35
f 34//34 39//39 38//38
f 33//33 34//34 38//38
f 34//34 40//40 39//39
f 41//41 38//38 39//39
f 41//41 42//42 43//43
f 38//38 41//41 43//43
f 44//44 46//46 43//43
f 43//43 42//42 44//44
f 43//43 46//46 45//45
f 42//42 47//47 44//44
f 47//47 42//42 48//48
f 49//49 51//51 33//33
f 49//49 33//33 38//38
f 50//50 51//51 49//49
f 50//50 52//52 51//51
f 50//50 53//53 52//52
f 56//56 53//53 54//54
f 53//53 50//50 54//54
f 56//56 55//55 53//53
f 56//56 57//57 55//55
f 57//57 58//58 59//59
f 60//60 57//57 59//59
f 55//55 57//57 60//60
f 62//62 59//59 61//61
f 59//59 58//58 61//61
f 59//59 62//62 63//63
f 62//62 61//61 10//10
f 62//62 10//10 9//9
f 65//65 64//64 16//16
f 65//65 16//16 13//13
f 3//3 2//2 66//66
f 2//2 67//67 66//66
f 66//66 67//67 68//68
f 70//70 72//72 71//71
f 70//70 71//71 69//69
f 74//74 76//76 75//75
f 74//74 75//75 73//73
f 78//78 80//80 79//79
f 78//78 79//79 77//77
f 82//82 84//84 83//83
f 82//82 83//83 81//81
f 86//86 88//88 87//87
f 86//86 87//87 85//85
f 90//90 92//92 91//91
f 90//90 91//91 89//89
f 93//93 95//95 96//96
f 93//93 96//96 94//94
f 98//98 100//100 99//99
f 98//98 99//99 97//97
f 102//102 104//104 103//103
f 102//102 103//103 101//101
f 106//106 108//108 107//107
f 106//106 107//107 105//105
f 110//110 112//112 111//111
f 110//110 111//111 109//109
f 114//114 116//116 115//115
f 114//114 115//115 113//113
f 118//118 120//120 119//119
f 118//118 119//119 117//117
f 122//122 124//124 123//123
f 122//122 123//123 121//121
f 126//126 128//128 127//127
f 126//126 127//127 125//125
f 130//130 132//132 131//131
f 130//130 131//131 129//129
f 134//134 136//136 135//135
f 134//134 135//135 133//133
f 137//137 139//139 140//140
f 137//137 140//140 138//138
f 142//142 141//141 143//143
f 142//142 143//143 144//144
f 146//146 145//145 147//147
f 146//146 147//147 148//148
f 150//150 149//149 151//151
f 150//150 151//151 152//152
f 154//154 153//153 155//155
f 154//154 155//155 156//156
f 158//158 157//157 159//159
f 158//158 159//159 160//160
f 162//162 161//161 163//163
f 162//162 163//163 164//164
f 166//166 165//165 167//167
f 166//166 167//167 168//168
f 170//170 169//169 171//171
f 170//170 171//171 172//172
f 174//174 173//173 175//175
f 174//174 175//175 176//176
f 178//178 177//177 179//179
f 178//178 179//179 180//180
f 182//182 181//181 183//183
f 182//182 183//183 184//184
f 186//186 185//185 187//187
f 186//186 187//187 188//188
f 190//190 189//189 191//191
f 190//190 191//191 192//192
f 194//194 193//193 195//195
f 194//194 195//195 196//196
f 198//198 194//194 196//196
f 198//198 196//196 197//197
f 200//200 199//199 201//201
f 200//200 201//201 202//202
f 204//204 203//203 205//205
f 204//204 205//205 206//206
f 208//208 207//207 209//209
f 208//208 209//209 210//210
f 212//212 211//211 213//213
f 212//212 213//213 214//214
f 216//216 212//212 214//214
f 216//216 214//214 215//215
f 218//218 217//217 219//219
f 218//218 219//219 220//220
f 222//222 218//218 220//220
f 222//222 220//220 221//221
f 224//224 223//223 225//225
f 224//224 225//225 226//226
f 227//227 229//229 230//230
f 227//227 230//230 228//228
f 231//231 233//233 234//234
f 231//231 234//234 232//232
f 235//235 237//237 238//238
f 235//235 238//238 236//236
f 239//239 241//241 242//242
f 239//239 242//242 240//240
f 244//244 243//243 245//245
f 244//244 245//245 246//246
f 247//247 249//249 250//250
f 247//247 250//250 248//248
f 251//251 253//253 254//254
f 251//251 254//254 252//252
f 256//256 259//259 255//255
f 304//304 256//256 255//255
f 304//304 255//255 257//257
f 258//258 262//262 260//260
f 258//258 260//260 255//255
f 258//258 255//255 259//259
f 263//263 265//265 261//261
f 263//263 261//261 260//260
f 262//262 264//264 260//260
f 263//263 260//260 264//264
f 264//264 262//262 267//267
f 264//264 267//267 263//263
f 265//265 263//263 266//266
f 265//265 266//266 292//292
f 263//263 267//267 266//266
f 262//262 268//268 267//267
f 267//267 268//268 269//269
f 267//267 269//269 266//266
f 268//268 270//270 269//269
f 262//262 258//258 271//271
f 262//262 271//271 268//268
f 268//268 271//271 272//272
f 268//268 272//272 270//270
f 272//272 271//271 273//273
f 271//271 274//274 275//275
f 271//271 275//275 273//273
f 258//258 274//274 271//271
f 274//274 256//256 275//275
f 258//258 259//259 256//256
f 258//258 256//256 274//274
f 280//280 277//277 275//275
f 280//280 275//275 276//276
f 276//276 275//275 256//256
f 276//276 256//256 304//304
f 275//275 277//277 273//273
f 279//279 277//277 278//278
f 283//283 278//278 277//277
f 283//283 277//277 280//280
f 272//272 273//273 277//277
f 272//272 277//277 279//279
f 283//283 280//280 281//281
f 281//281 280//280 282//282
f 281//281 282//282 305//305
f 276//276 282//282 280//280
f 284//284 285//285 278//278
f 284//284 278//278 283//283
f 284//284 283//283 281//281
f 284//284 281//281 286//286
f 285//285 284//284 287//287
f 285//285 287//287 289//289
f 287//287 284//284 286//286
f 287//287 286//286 288//288
f 288//288 290//290 287//287
f 290//290 293//293 289//289
f 290//290 289//289 287//287
f 290//290 288//288 306//306
f 290//290 306//306 291//291
f 290//290 291//291 292//292
f 292//292 266//266 293//293
f 292//292 293//293 290//290
f 266//266 269//269 293//293
f 269//269 270//270 294//294
f 269//269 294//294 293//293
f 293//293 294//294 289//289
f 270//270 295//295 294//294
f 294//294 295//295 285//285
f 294//294 285//285 289//289
f 295//295 279//279 278//278
f 295//295 278//278 285//285
f 279//279 295//295 272//272
f 295//295 270//270 272//272
f 292//292 291//291 297//297
f 292//292 297//297 296//296
f 296//296 265//265 292//292
f 298//298 296//296 297//297
f 265//265 296//296 298//298
f 265//265 298//298 299//299
f 300//300 298//298 297//297
f 300//300 297//297 301//301
f 299//299 298//298 261//261
f 298//298 300//300 257//257
f 298//298 257//257 261//261
f 302//302 300//300 301//301
f 302//302 304//304 303//303
f 302//302 303//303 300//300
f 303//303 257//257 300//300
f 304//304 257//257 303//303
f 276//276 304//304 302//302
f 282//282 276//276 302//302
f 282//282 302//302 301//301
f 301//301 297//297 306//306
f 301//301 306//306 305//305
f 282//282 301//301 305//305
f 286//286 281//281 305//305
f 306//306 286//286 305//305
f 306//306 288//288 286//286
f 291//291 306//306 297//297
f 265//265 299//299 261//261
f 308//308 307//307 309//309
f 308//308 309//309 310//310
f 312//312 311//311 313//313
f 312//312 313//313 314//314
f 316//316 315//315 317//317
f 316//316 317//317 318//318
f 319//319 321//321 322//322
f 319//319 322//322 320//320
f 324//324 326//326 325//325
f 324//324 325//325 323//323
f 329//329 327//327 326//326
f 329//329 326//326 324//324
f 330//330 328//328 327//327
f 330//330 327//327 329//329
f 331//331 333//333 328//328
f 331//331 328//328 330//330
f 332//332 334//334 333//333
f 332//332 333//333 331//331
f 336//336 335//335 334//334
f 336//336 334//334 332//332
f 338//338 337//337 339//339
f 338//338 339//339 340//340
f 342//342 341//341 343//343
f 342//342 343//343 344//344
f 346//346 342//342 344//344
f 346//346 344//344 345//345
f 348//348 346//346 345//345
f 348//348 345//345 347//347
f 351//351 348//348 347//347
f 351//351 347//347 349//349
f 352//352 351//351 349//349
f 352//352 349//349 350//350
f 353//353 352//352 350//350
f 353//353 350//350 355//355
f 354//354 353//353 355//355
f 354//354 355//355 356//356
f 358//358 354//354 356//356
f 358//358 356//356 357//357
f 362//362 360//360 359//359
f 360//360 361//361 359//359
f 362//362 359//359 363//363
f 363//363 359//359 364//364
f 365//365 364//364 359//359
f 366//366 364//364 365//365
f 366//366 367//367 364//364
f 368//368 369//369 367//367
f 367//367 369//369 364//364
f 368//368 371//371 369//369
f 372//372 370//370 369//369
f 372//372 369//369 371//371
f 369//369 370//370 363//363
f 369//369 363//363 364//364
f 368//368 375//375 371//371
f 374//374 376//376 372//372
f 374//374 372//372 371//371
f 373//373 371//371 375//375
f 373//373 374//374 371//371
f 377//377 381//381 376//376
f 377//377 376//376 374//374
f 378//378 377//377 374//374
f 374//374 373//373 378//378
f 377//377 378//378 379//379
f 382//382 379//379 380//380
f 379//379 381//381 377//377
f 381//381 379//379 382//382
f 383//383 381//381 382//382
f 382//382 384//384 385//385
f 382//382 385//385 383//383
f 382//382 380//380 384//384
f 386//386 384//384 380//380
f 386//386 385//385 384//384
f 387//387 385//385 386//386
f 388//388 386//386 380//380
f 388//388 387//387 386//386
f 388//388 361//361 387//387
f 389//389 388//388 380//380
f 389//389 390//390 388//388
f 391//391 389//389 393//393
f 391//391 392//392 389//389
f 393//393 389//389 380//380
f 393//393 394//394 391//391
f 393//393 395//395 394//394
f 396//396 395//395 393//393
f 380//380 396//396 393//393
f 396//396 380//380 397//397
f 395//395 396//396 397//397
f 402//402 398//398 397//397
f 402//402 397//397 380//380
f 398//398 395//395 397//397
f 400//400 398//398 399//399
f 398//398 401//401 399//399
f 395//395 398//398 400//400
f 398//398 402//402 401//401
f 403//403 405//405 402//402
f 405//405 404//404 402//402
f 404//404 401//401 402//402
f 406//406 405//405 407//407
f 405//405 406//406 404//404
f 408//408 405//405 403//403
f 408//408 410//410 407//407
f 408//408 407//407 405//405
f 403//403 409//409 408//408
f 409//409 410//410 408//408
f 413//413 410//410 411//411
f 410//410 409//409 411//411
f 410//410 412//412 407//407
f 412//412 410//410 413//413
f 414//414 413//413 411//411
f 413//413 416//416 417//417
f 413//413 417//417 412//412
f 413//413 414//414 415//415
f 415//415 418//418 416//416
f 415//415 416//416 413//413
f 419//419 417//417 416//416
f 418//418 419//419 416//416
f 420//420 417//417 419//419
f 422//422 420//420 419//419
f 419//419 418//418 421//421
f 421//421 422//422 419//419
f 422//422 421//421 423//423
f 423//423 426//426 425//425
f 423//423 425//425 422//422
f 422//422 425//425 427//427
f 422//422 427//427 424//424
f 424//424 420//420 422//422
f 428//428 425//425 426//426
f 427//427 425//425 428//428
f 428//428 430//430 429//429
f 430//430 428//428 431//431
f 436//436 428//428 426//426
f 435//435 427//427 428//428
f 428//428 434//434 431//431
f 428//428 432//432 433//433
f 435//435 428//428 433//433
f 428//428 436//436 434//434
f 437//437 434//434 436//436
f 437//437 436//436 426//426
f 437//437 426//426 423//423
f 438//438 437//437 423//423
f 438//438 423//423 452//452
f 439//439 437//437 438//438
f 434//434 437//437 439//439
f 438//438 441//441 439//439
f 440//440 434//434 439//439
f 440//440 439//439 441//441
f 438//438 444//444 441//441
f 442//442 440//440 441//441
f 403//403 442//442 441//441
f 445//445 403//403 441//441
f 441//441 443//443 445//445
f 441//441 444//444 443//443
f 448//448 403//403 445//445
f 446//446 445//445 447//447
f 445//445 446//446 414//414
f 445//445 414//414 448//448
f 447//447 445//445 443//443
f 448//448 449//449 403//403
f 448//448 414//414 411//411
f 448//448 411//411 449//449
f 411//411 409//409 449//449
f 449//449 409//409 403//403
f 447//447 450//450 415//415
f 447//447 415//415 446//446
f 443//443 450//450 447//447
f 450//450 451//451 418//418
f 450//450 418//418 415//415
f 444//444 450//450 443//443
f 450//450 444//444 451//451
f 444//444 452//452 421//421
f 444//444 421//421 451//451
f 421//421 418//418 451//451
f 415//415 414//414 446//446
f 444//444 438//438 452//452
f 423//423 421//421 452//452
f 453//453 440//440 442//442
f 454//454 453//453 442//442
f 455//455 457//457 454//454
f 454//454 456//456 453//453
f 454//454 457//457 456//456
f 455//455 458//458 457//457
f 456//456 457//457 430//430
f 456//456 430//430 431//431
f 430//430 457//457 429//429
f 458//458 429//429 457//457
f 458//458 460//460 459//459
f 458//458 455//455 460//460
f 461//461 459//459 460//460
f 461//461 462//462 465//465
f 459//459 461//461 463//463
f 463//463 461//461 464//464
f 461//461 466//466 464//464
f 465//465 466//466 461//461
f 467//467 464//464 466//466
f 467//467 466//466 465//465
f 467//467 465//465 468//468
f 467//467 468//468 469//469
f 467//467 469//469 464//464
f 470//470 471//471 469//469
f 469//469 468//468 470//470
f 471//471 472//472 469//469
f 475//475 473//473 472//472
f 472//472 476//476 474//474
f 477//477 472//472 474//474
f 472//472 477//477 475//475
f 476//476 472//472 471//471
f 474//474 479//479 478//478
f 474//474 478//478 477//477
f 476//476 481//481 480//480
f 482//482 481//481 476//476
f 471//471 482//482 476//476
f 482//482 471//471 470//470
f 482//482 470//470 483//483
f 483//483 484//484 482//482
f 481//481 482//482 484//484
f 485//485 484//484 483//483
f 486//486 488//488 485//485
f 485//485 483//483 486//486
f 487//487 485//485 488//488
f 488//488 486//486 490//490
f 488//488 490//490 489//489
f 488//488 489//489 487//487
f 491//491 487//487 489//489
f 490//490 493//493 489//489
f 489//489 492//492 491//491
f 492//492 489//489 493//493
f 493//493 490//490 494//494
f 490//490 495//495 494//494
f 486//486 495//495 490//490
f 495//495 486//486 496//496
f 470//470 496//496 483//483
f 462//462 496//496 470//470
f 483//483 496//496 486//486
f 498//498 475//475 497//497
f 475//475 498//498 473//473
f 498//498 497//497 501//501
f 498//498 501//501 499//499
f 499//499 501//501 500//500
f 500//500 502//502 499//499
f 502//502 500//500 503//503
f 500//500 504//504 503//503
f 506//506 503//503 504//504
f 507//507 503//503 505//505
f 503//503 506//506 505//505
f 505//505 510//510 507//507
f 507//507 509//509 508//508
f 510//510 509//509 507//507
f 505//505 506//506 512//512
f 505//505 512//512 510//510
f 510//510 511//511 514//514
f 513//513 511//511 510//510
f 512//512 513//513 510//510
f 514//514 509//509 510//510
f 511//511 515//515 514//514
f 514//514 515//515 517//517
f 514//514 517//517 516//516
f 516//516 509//509 514//514
f 517//517 518//518 516//516
f 509//509 516//516 518//518
f 509//509 518//518 521//521
f 518//518 522//522 519//519
f 520//520 518//518 519//519
f 518//518 520//520 521//521
f 518//518 517//517 522//522
f 522//522 524//524 519//519
f 522//522 523//523 529//529
f 522//522 529//529 525//525
f 522//522 517//517 523//523
f 525//525 524//524 522//522
f 528//528 526//526 525//525
f 525//525 526//526 527//527
f 524//524 525//525 527//527
f 525//525 529//529 530//530
f 525//525 530//530 528//528
f 532//532 529//529 523//523
f 529//529 531//531 530//530
f 531//531 529//529 532//532
f 532//532 534//534 535//535
f 532//532 535//535 531//531
f 517//517 533//533 532//532
f 532//532 533//533 534//534
f 517//517 532//532 523//523
f 536//536 535//535 534//534
f 533//533 537//537 534//534
f 534//534 537//537 536//536
f 537//537 513//513 512//512
f 512//512 504//504 537//537
f 513//513 537//537 533//533
f 539//539 536//536 392//392
f 392//392 536//536 538//538
f 392//392 538//538 568//568
f 540//540 536//536 539//539
f 536//536 540//540 535//535
f 539//539 541//541 540//540
f 531//531 535//535 540//540
f 531//531 540//540 541//541
f 530//530 531//531 541//541
f 530//530 541//541 542//542
f 541//541 543//543 542//542
f 541//541 539//539 543//543
f 543//543 539//539 544//544
f 545//545 543//543 544//544
f 545//545 544//544 548//548
f 546//546 542//542 543//543
f 546//546 543//543 545//545
f 545//545 547//547 546//546
f 547//547 545//545 548//548
f 548//548 549//549 547//547
f 549//549 548//548 544//544
f 552//552 549//549 550//550
f 550//550 549//549 551//551
f 549//549 544//544 551//551
f 400//400 549//549 552//552
f 553//553 547//547 549//549
f 547//547 553//553 554//554
f 555//555 554//554 553//553
f 553//553 556//556 555//555
f 553//553 557//557 556//556
f 557//557 553//553 508//508
f 557//557 560//560 556//556
f 560//560 557//557 558//558
f 558//558 557//557 559//559
f 559//559 557//557 508//508
f 556//556 560//560 561//561
f 556//556 561//561 555//555
f 558//558 527//527 526//526
f 558//558 526//526 560//560
f 560//560 526//526 563//563
f 560//560 563//563 561//561
f 561//561 554//554 555//555
f 554//554 561//561 562//562
f 562//562 561//561 563//563
f 526//526 528//528 563//563
f 528//528 562//562 563//563
f 562//562 542//542 546//546
f 554//554 562//562 546//546
f 554//554 546//546 547//547
f 528//528 542//542 562//562
f 564//564 558//558 559//559
f 564//564 559//559 508//508
f 558//558 564//564 565//565
f 565//565 564//564 566//566
f 508//508 566//566 564//564
f 508//508 567//567 566//566
f 567//567 520//520 565//565
f 567//567 565//565 566//566
f 508//508 521//521 567//567
f 521//521 520//520 567//567
f 520//520 519//519 524//524
f 520//520 524//524 565//565
f 565//565 524//524 527//527
f 565//565 527//527 558//558
f 395//395 400//400 552//552
f 550//550 394//394 552//552
f 395//395 552//552 394//394
f 391//391 550//550 551//551
f 551//551 544//544 539//539
f 551//551 539//539 392//392
f 551//551 392//392 391//391
f 394//394 550//550 391//391
f 542//542 528//528 530//530
f 511//511 513//513 533//533
f 511//511 533//533 515//515
f 533//533 517//517 515//515
f 521//521 508//508 509//509
f 504//504 512//512 506//506
f 462//462 470//470 468//468
f 462//462 468//468 465//465
f 453//453 456//456 431//431
f 453//453 431//431 440//440
f 431//431 434//434 440//440
f 569//569 435//435 433//433
f 569//569 570//570 435//435
f 424//424 427//427 435//435
f 424//424 435//435 570//570
f 573//573 424//424 570//570
f 573//573 570//570 572//572
f 571//571 570//570 569//569
f 570//570 571//571 572//572
f 571//571 401//401 572//572
f 572//572 574//574 573//573
f 401//401 574//574 572//572
f 574//574 401//401 404//404
f 575//575 420//420 573//573
f 575//575 573//573 574//574
f 404//404 576//576 574//574
f 574//574 576//576 575//575
f 412//412 417//417 575//575
f 412//412 575//575 576//576
f 407//407 412//412 576//576
f 407//407 576//576 406//406
f 576//576 404//404 406//406
f 417//417 420//420 575//575
f 420//420 424//424 573//573
f 577//577 401//401 571//571
f 571//571 569//569 579//579
f 571//571 579//579 577//577
f 401//401 577//577 578//578
f 577//577 579//579 581//581
f 577//577 581//581 578//578
f 580//580 579//579 569//569
f 580//580 581//581 579//579
f 582//582 578//578 581//581
f 581//581 580//580 584//584
f 581//581 584//584 582//582
f 583//583 578//578 582//582
f 583//583 582//582 587//587
f 585//585 582//582 584//584
f 586//586 582//582 585//585
f 582//582 586//586 587//587
f 588//588 583//583 587//587
f 587//587 586//586 591//591
f 587//587 591//591 588//588
f 583//583 588//588 589//589
f 589//589 588//588 590//590
f 588//588 591//591 593//593
f 588//588 593//593 590//590
f 586//586 595//595 591//591
f 591//591 595//595 592//592
f 594//594 591//591 592//592
f 591//591 594//594 593//593
f 596//596 599//599 597//597
f 596//596 597//597 595//595
f 595//595 586//586 596//596
f 595//595 597//597 601//601
f 595//595 601//601 592//592
f 597//597 598//598 601//601
f 598//598 597//597 600//600
f 599//599 634//634 600//600
f 599//599 600//600 597//597
f 592//592 601//601 603//603
f 592//592 603//603 594//594
f 601//601 598//598 602//602
f 604//604 601//601 602//602
f 601//601 604//604 603//603
f 604//604 606//606 609//609
f 604//604 609//609 605//605
f 603//603 604//604 605//605
f 602//602 608//608 606//606
f 602//602 606//606 604//604
f 608//608 607//607 606//606
f 606//606 607//607 609//609
f 611//611 605//605 609//609
f 609//609 607//607 610//610
f 610//610 612//612 609//609
f 609//609 612//612 611//611
f 613//613 612//612 610//610
f 613//613 610//610 616//616
f 613//613 614//614 612//612
f 612//612 614//614 611//611
f 614//614 613//613 615//615
f 603//603 605//605 611//611
f 603//603 611//611 614//614
f 594//594 603//603 614//614
f 594//594 614//614 615//615
f 613//613 593//593 615//615
f 593//593 594//594 615//615
f 613//613 617//617 593//593
f 617//617 613//613 616//616
f 617//617 616//616 625//625
f 617//617 625//625 618//618
f 618//618 619//619 617//617
f 589//589 590//590 617//617
f 589//589 617//617 619//619
f 593//593 617//617 590//590
f 626//626 589//589 619//619
f 626//626 619//619 620//620
f 619//619 621//621 620//620
f 618//618 621//621 619//619
f 621//621 399//399 401//401
f 621//621 622//622 623//623
f 621//621 623//623 399//399
f 401//401 620//620 621//621
f 621//621 618//618 622//622
f 623//623 622//622 624//624
f 618//618 625//625 624//624
f 618//618 624//624 622//622
f 624//624 610//610 400//400
f 624//624 400//400 623//623
f 624//624 625//625 610//610
f 616//616 610//610 625//625
f 399//399 623//623 400//400
f 620//620 401//401 626//626
f 626//626 401//401 627//627
f 627//627 583//583 589//589
f 627//627 589//589 626//626
f 401//401 578//578 627//627
f 578//578 583//583 627//627
f 610//610 628//628 400//400
f 610//610 607//607 628//628
f 630//630 628//628 629//629
f 628//628 607//607 629//629
f 628//628 630//630 432//432
f 630//630 629//629 632//632
f 630//630 632//632 631//631
f 631//631 432//432 630//630
f 600//600 631//631 632//632
f 600//600 632//632 598//598
f 629//629 598//598 632//632
f 432//432 631//631 633//633
f 631//631 634//634 633//633
f 631//631 600//600 634//634
f 599//599 633//633 634//634
f 633//633 599//599 585//585
f 633//633 433//433 432//432
f 584//584 433//433 633//633
f 584//584 633//633 585//585
f 629//629 607//607 608//608
f 598//598 629//629 602//602
f 602//602 629//629 608//608
f 585//585 599//599 596//596
f 586//586 585//585 596//596
f 584//584 580//580 433//433
f 569//569 433//433 580//580
f 385//385 387//387 635//635
f 387//387 361//361 360//360
f 360//360 635//635 387//387
f 383//383 385//385 635//635
f 383//383 635//635 636//636
f 636//636 635//635 360//360
f 636//636 360//360 362//362
f 372//372 636//636 362//362
f 372//372 362//362 370//370
f 636//636 376//376 383//383
f 376//376 636//636 372//372
f 383//383 376//376 381//381
f 362//362 363//363 370//370
