# joint_18 exported from /models/guards/joint_18.glb
# units: meters
v 0.037882 0.001000 0.000707
v 0.014989 0.001000 0.007613
v 0.013715 0.001000 0.007632
v 0.016263 0.001000 0.007594
v -0.007918 0.001000 0.011230
v 0.038303 0.001000 0.004924
v 0.017536 0.001000 0.007575
v 0.016899 0.001000 0.007584
v 0.038675 0.001000 0.000686
v 0.039111 0.001000 0.002207
v 0.040385 0.001000 0.002188
v 0.039149 0.001000 0.004729
v 0.038719 0.001000 0.004917
v 0.039413 0.001000 0.000975
v 0.051503 0.001000 0.008772
v 0.044244 0.001000 0.004653
v 0.048102 0.001000 0.007117
v 0.046828 0.001000 0.007136
v 0.044281 0.001000 0.007174
v 0.042989 0.001000 0.005933
v 0.042970 0.001000 0.004672
v 0.042333 0.001000 0.004681
v 0.041696 0.001000 0.004691
v 0.042352 0.001000 0.005942
v 0.042034 0.001000 0.005947
v 0.042043 0.001000 0.006577
v 0.041715 0.001000 0.005952
v 0.041725 0.001000 0.006582
v 0.041397 0.001000 0.005956
v 0.041078 0.001000 0.005961
v 0.041463 0.001000 0.006742
v 0.041060 0.001000 0.004700
v 0.040423 0.001000 0.004710
v 0.039102 0.001000 0.005081
v 0.041645 0.001000 0.006907
v 0.041795 0.001000 0.007140
v 0.042052 0.001000 0.007208
v 0.041880 0.001000 0.007433
v 0.042062 0.001000 0.007838
v 0.041869 0.001000 0.007753
v 0.041758 0.001000 0.008054
v 0.041753 0.001000 0.008473
v 0.041568 0.001000 0.008293
v 0.042071 0.001000 0.008469
v 0.042390 0.001000 0.008464
v 0.041772 0.001000 0.009734
v 0.042409 0.001000 0.009725
v 0.043083 0.001000 0.012237
v 0.043045 0.001000 0.009715
v 0.041791 0.001000 0.010995
v 0.041154 0.001000 0.011004
v 0.041810 0.001000 0.012256
v 0.041173 0.001000 0.012265
v 0.018961 0.001000 0.017642
v 0.014714 0.001000 0.018898
v 0.018286 0.001000 0.015130
v 0.018923 0.001000 0.015121
v 0.017687 0.001000 0.017661
v 0.037989 0.001000 0.012313
v 0.039262 0.001000 0.012294
v 0.040536 0.001000 0.012275
v 0.040517 0.001000 0.011014
v 0.039861 0.001000 0.009763
v 0.040498 0.001000 0.009753
v 0.040817 0.001000 0.009748
v 0.041135 0.001000 0.009744
v 0.040807 0.001000 0.009118
v 0.041126 0.001000 0.009113
v 0.040489 0.001000 0.009123
v 0.041110 0.001000 0.008535
v 0.037951 0.001000 0.009791
v 0.041341 0.001000 0.008452
v 0.018199 0.001000 0.013767
v 0.017825 0.001000 0.013781
v 0.017649 0.001000 0.015140
v 0.017444 0.001000 0.013639
v 0.016994 0.001000 0.013888
v 0.017152 0.001000 0.013358
v 0.017001 0.001000 0.013015
v 0.016338 0.001000 0.012637
v 0.016319 0.001000 0.011376
v 0.016357 0.001000 0.013898
v 0.016532 0.001000 0.010957
v 0.016518 0.001000 0.010583
v 0.016300 0.001000 0.010115
v 0.016659 0.001000 0.010203
v 0.016940 0.001000 0.009911
v 0.016918 0.001000 0.008845
v 0.016282 0.001000 0.008855
v 0.015027 0.001000 0.010135
v 0.015064 0.001000 0.012656
v 0.013753 0.001000 0.010154
v 0.011413 0.001000 0.012488
v 0.013617 0.001000 0.012455
v 0.013829 0.001000 0.015197
v 0.013717 0.001000 0.019125
v 0.013866 0.001000 0.017718
v 0.015140 0.001000 0.017699
v 0.016414 0.001000 0.017680
v 0.015102 0.001000 0.015178
v 0.016376 0.001000 0.015159
v 0.017013 0.001000 0.015149
v 0.011520 0.001000 0.019625
v 0.008772 0.001000 0.017795
v 0.010523 0.001000 0.019852
v 0.008697 0.001000 0.012751
v 0.006149 0.001000 0.012790
v 0.006187 0.001000 0.015311
v 0.006112 0.001000 0.010268
v 0.004838 0.001000 0.010287
v 0.004876 0.001000 0.012809
v 0.003772 0.001000 0.012948
v 0.004172 0.001000 0.013111
v 0.002291 0.001000 0.010325
v 0.002329 0.001000 0.012847
v 0.003378 0.001000 0.012959
v 0.001017 0.001000 0.010344
v 0.001055 0.001000 0.012866
v -0.015279 0.001000 0.017251
v -0.016222 0.001000 0.017240
v -0.016081 0.001000 0.016906
v -0.015464 0.001000 0.015635
v -0.014190 0.001000 0.015616
v -0.014228 0.001000 0.013095
v -0.009332 0.001000 0.011213
v -0.010077 0.001000 0.010911
v -0.010737 0.001000 0.010401
v -0.011231 0.001000 0.009729
v -0.011514 0.001000 0.008978
v -0.011497 0.001000 0.007563
v -0.013105 0.001000 0.002989
v -0.011832 0.001000 0.002970
v -0.009360 0.001000 -0.002111
v -0.000594 0.001000 -0.035119
v -0.002172 0.001000 -0.032485
v -0.002209 0.001000 -0.035006
v -0.006964 0.001000 -0.012236
v -0.000539 0.001000 -0.035774
v -0.000698 0.001000 -0.036412
v -0.002247 0.001000 -0.037528
v -0.003596 0.001000 -0.042552
v -0.007463 0.001000 -0.051968
v -0.006219 0.001000 -0.047557
v -0.007549 0.001000 -0.051320
v -0.007558 0.001000 -0.051951
v -0.007594 0.001000 -0.052188
v -0.004907 0.001000 -0.045055
v -0.004870 0.001000 -0.042533
v -0.005506 0.001000 -0.042523
v -0.006181 0.001000 -0.045035
v -0.006143 0.001000 -0.042514
v -0.007455 0.001000 -0.045016
v -0.006780 0.001000 -0.042504
v -0.007417 0.001000 -0.042495
v -0.006443 0.001000 -0.041248
v -0.006761 0.001000 -0.041243
v -0.007080 0.001000 -0.041239
v -0.007398 0.001000 -0.041234
v -0.007070 0.001000 -0.040608
v -0.007389 0.001000 -0.040603
v -0.007293 0.001000 -0.040150
v -0.006752 0.001000 -0.040613
v -0.006951 0.001000 -0.040126
v -0.006653 0.001000 -0.039998
v -0.006433 0.001000 -0.040618
v -0.006424 0.001000 -0.039987
v -0.006432 0.001000 -0.039807
v -0.006293 0.001000 -0.039595
v -0.005450 0.001000 -0.038741
v -0.004809 0.001000 -0.036571
v -0.006105 0.001000 -0.039992
v -0.006115 0.001000 -0.040623
v -0.005469 0.001000 -0.040002
v -0.004832 0.001000 -0.040011
v -0.005488 0.001000 -0.041263
v -0.006124 0.001000 -0.041253
v -0.004851 0.001000 -0.041272
v -0.003558 0.001000 -0.040030
v -0.003521 0.001000 -0.037509
v -0.004157 0.001000 -0.037499
v -0.004813 0.001000 -0.038750
v -0.004794 0.001000 -0.037490
v -0.004139 0.001000 -0.036238
v -0.004738 0.001000 -0.035883
v -0.003502 0.001000 -0.036248
v -0.004120 0.001000 -0.034978
v -0.004712 0.001000 -0.036233
v -0.003445 0.001000 -0.032466
v -0.003483 0.001000 -0.034987
v -0.004719 0.001000 -0.032447
v -0.004756 0.001000 -0.034968
v -0.008351 0.001000 -0.019781
v -0.007077 0.001000 -0.019800
v -0.008332 0.001000 -0.018521
v -0.008968 0.001000 -0.018511
v -0.008950 0.001000 -0.017250
v -0.009392 0.001000 -0.017635
v -0.009538 0.001000 -0.017314
v -0.009807 0.001000 -0.017049
v -0.009568 0.001000 -0.015980
v -0.009549 0.001000 -0.014719
v -0.008275 0.001000 -0.014738
v -0.010204 0.001000 -0.015970
v -0.010841 0.001000 -0.015961
v -0.010186 0.001000 -0.014710
v -0.010155 0.001000 -0.016903
v -0.010507 0.001000 -0.016893
v -0.012708 0.001000 -0.017219
v -0.012096 0.001000 -0.014681
v -0.013369 0.001000 -0.014662
v -0.013081 0.001000 -0.017354
v -0.013395 0.001000 -0.017655
v -0.013407 0.001000 -0.017183
v -0.014044 0.001000 -0.017174
v -0.014681 0.001000 -0.017164
v -0.014063 0.001000 -0.018435
v -0.014643 0.001000 -0.014643
v -0.013551 0.001000 -0.018060
v -0.013530 0.001000 -0.018457
v -0.014082 0.001000 -0.019696
v -0.008159 0.001000 -0.039403
v -0.013445 0.001000 -0.019705
v -0.013483 0.001000 -0.022227
v -0.009252 0.001000 -0.037423
v -0.009889 0.001000 -0.037413
v -0.009271 0.001000 -0.038684
v -0.008634 0.001000 -0.038693
v -0.008643 0.001000 -0.039324
v -0.008325 0.001000 -0.039328
v -0.008334 0.001000 -0.039959
v -0.008066 0.001000 -0.039639
v -0.008025 0.001000 -0.040594
v -0.008671 0.001000 -0.041215
v -0.008653 0.001000 -0.039954
v -0.008016 0.001000 -0.039964
v -0.007889 0.001000 -0.039871
v -0.007707 0.001000 -0.040599
v -0.007624 0.001000 -0.040056
v -0.007716 0.001000 -0.041229
v -0.008035 0.001000 -0.041224
v -0.008054 0.001000 -0.042485
v -0.008690 0.001000 -0.042476
v -0.008728 0.001000 -0.044997
v -0.010002 0.001000 -0.044978
v -0.008766 0.001000 -0.047519
v -0.010040 0.001000 -0.047500
v -0.007492 0.001000 -0.047538
v -0.008167 0.001000 -0.050050
v -0.008804 0.001000 -0.050040
v -0.008504 0.001000 -0.051306
v -0.008822 0.001000 -0.051301
v -0.009141 0.001000 -0.051296
v -0.009348 0.001000 -0.051817
v -0.009150 0.001000 -0.051927
v -0.008832 0.001000 -0.051932
v -0.009073 0.001000 -0.052290
v -0.009254 0.001000 -0.052055
v -0.008799 0.001000 -0.052476
v -0.008459 0.001000 -0.052566
v -0.008514 0.001000 -0.051936
v -0.008195 0.001000 -0.051941
v -0.008109 0.001000 -0.052532
v -0.008186 0.001000 -0.051311
v -0.007877 0.001000 -0.051946
v -0.007810 0.001000 -0.052391
v -0.007867 0.001000 -0.051316
v -0.007530 0.001000 -0.050059
v -0.017266 0.001000 -0.019648
v -0.018798 0.001000 -0.014907
v -0.011238 0.001000 -0.042438
v -0.009964 0.001000 -0.042457
v -0.011200 0.001000 -0.039916
v -0.016030 0.001000 -0.022189
v -0.015992 0.001000 -0.019667
v -0.011162 0.001000 -0.037394
v -0.014756 0.001000 -0.022208
v -0.014718 0.001000 -0.019686
v -0.014700 0.001000 -0.018425
v -0.015954 0.001000 -0.017145
v -0.017228 0.001000 -0.017126
v -0.009907 0.001000 -0.038674
v -0.009926 0.001000 -0.039935
v -0.009289 0.001000 -0.039945
v -0.019055 0.001000 -0.013903
v -0.012494 0.001000 -0.014001
v -0.012058 0.001000 -0.012159
v -0.012461 0.001000 -0.011797
v -0.013294 0.001000 -0.009619
v -0.014567 0.001000 -0.009600
v -0.015841 0.001000 -0.009581
v -0.019621 0.001000 -0.011690
v -0.012020 0.001000 -0.009638
v -0.011983 0.001000 -0.007116
v -0.010709 0.001000 -0.007135
v -0.010785 0.001000 -0.012178
v -0.012619 0.001000 -0.007107
v -0.013256 0.001000 -0.007097
v -0.012601 0.001000 -0.005846
v -0.013237 0.001000 -0.005836
v -0.012582 0.001000 -0.004585
v -0.012963 0.001000 -0.005075
v -0.012789 0.001000 -0.004656
v -0.011964 0.001000 -0.005855
v -0.011945 0.001000 -0.004595
v -0.010671 0.001000 -0.004614
v -0.009398 0.001000 -0.004633
v -0.010634 0.001000 -0.002092
v -0.011926 0.001000 -0.003334
v -0.011907 0.001000 -0.002073
v -0.012563 0.001000 -0.003324
v -0.012544 0.001000 -0.002063
v -0.012807 0.001000 -0.004245
v -0.013181 0.001000 -0.002054
v -0.013143 0.001000 0.000468
v -0.016775 0.001000 0.013133
v -0.017665 0.001000 0.014808
v -0.016737 0.001000 0.015654
v -0.017677 0.001000 0.015750
v -0.017488 0.001000 0.016251
v -0.017158 0.001000 0.016699
v -0.016718 0.001000 0.017039
v -0.016100 0.001000 0.015645
v -0.015501 0.001000 0.013114
v -0.011869 0.001000 0.000449
v -0.009435 0.001000 -0.007154
v -0.009511 0.001000 -0.012198
v -0.008237 0.001000 -0.012217
v -0.013305 0.001000 -0.005374
v -0.013699 0.001000 -0.005489
v -0.014511 0.001000 -0.005817
v -0.013874 0.001000 -0.005827
v -0.015958 0.001000 -0.005662
v -0.016440 0.001000 -0.007049
v -0.015803 0.001000 -0.007059
v -0.016293 0.001000 -0.005631
v -0.016617 0.001000 -0.005477
v -0.017077 0.001000 -0.007040
v -0.016866 0.001000 -0.005220
v -0.017003 0.001000 -0.004913
v -0.023058 0.001000 0.018703
v -0.018275 0.001000 -0.001978
v -0.018313 0.001000 -0.004499
v -0.018351 0.001000 -0.007021
v -0.019624 0.001000 -0.007002
v -0.018388 0.001000 -0.009542
v -0.017115 0.001000 -0.009562
v -0.019662 0.001000 -0.009523
v -0.019878 0.001000 -0.010686
v -0.026888 0.001000 0.018329
v -0.029252 0.001000 0.025927
v -0.028685 0.001000 0.025922
v -0.029264 0.001000 0.026870
v -0.028086 0.001000 0.023391
v -0.026812 0.001000 0.023372
v -0.027411 0.001000 0.025903
v -0.028048 0.001000 0.025912
v -0.028029 0.001000 0.027173
v -0.028308 0.001000 0.028159
v -0.027812 0.001000 0.028360
v -0.028666 0.001000 0.027183
v -0.027393 0.001000 0.027164
v -0.026756 0.001000 0.027154
v -0.026870 0.001000 0.028373
v -0.025501 0.001000 0.025874
v -0.024228 0.001000 0.025855
v -0.019484 0.001000 0.022373
v 0.003716 0.001000 0.020393
v 0.004989 0.001000 0.020373
v 0.006263 0.001000 0.020354
v 0.006225 0.001000 0.017833
v 0.004951 0.001000 0.017852
v 0.004854 0.001000 0.016234
v 0.004871 0.001000 0.015879
v 0.004701 0.001000 0.016582
v 0.004428 0.001000 0.016847
v 0.004102 0.001000 0.016986
v 0.004315 0.001000 0.017861
v 0.003678 0.001000 0.017871
v 0.004593 0.001000 0.013801
v 0.004465 0.001000 0.013428
v -0.020898 0.001000 0.022354
v -0.022992 0.001000 0.023315
v -0.021642 0.001000 0.022052
v -0.022301 0.001000 0.021541
v -0.022794 0.001000 0.020869
v -0.024303 0.001000 0.020812
v -0.023077 0.001000 0.020117
v -0.024341 0.001000 0.018290
v -0.019548 0.001000 -0.001959
v -0.019586 0.001000 -0.004480
v -0.024265 0.001000 0.023334
v -0.025539 0.001000 0.023353
v -0.026775 0.001000 0.025893
v -0.029076 0.001000 0.027371
v -0.028747 0.001000 0.027819
v -0.014530 0.001000 -0.007078
v -0.013893 0.001000 -0.007088
v -0.010822 0.001000 -0.014700
v -0.007002 0.001000 -0.014757
v -0.008313 0.001000 -0.017260
v -0.007039 0.001000 -0.017279
v 0.017282 0.001000 0.009760
v 0.017555 0.001000 0.008836
v 0.039225 0.001000 0.009772
v 0.051183 0.001000 0.010587
v 0.048140 0.001000 0.009639
v 0.051416 0.001000 0.010503
v 0.051333 0.001000 0.010222
v 0.050696 0.001000 0.010231
v 0.051015 0.001000 0.010226
v 0.051005 0.001000 0.009596
v 0.050687 0.001000 0.009601
v 0.051324 0.001000 0.009591
v 0.051642 0.001000 0.009586
v 0.051646 0.001000 0.010340
v 0.051837 0.001000 0.010095
v 0.051946 0.001000 0.009786
v 0.051949 0.001000 0.009458
v 0.051854 0.001000 0.009162
v 0.051693 0.001000 0.008931
v 0.046866 0.001000 0.009658
v 0.044319 0.001000 0.009696
v 0.043026 0.001000 0.008454
v 0.043008 0.001000 0.007193
v 0.042380 0.001000 0.007833
v 0.042371 0.001000 0.007203
v 0.042361 0.001000 0.006573
v -0.004809 0.001000 -0.036571
v -0.006293 0.000000 -0.039595
v -0.006293 0.001000 -0.039595
v -0.004809 -0.001000 -0.036571
v -0.006293 -0.001000 -0.039595
v -0.008159 0.001000 -0.039403
v -0.008159 0.000000 -0.039403
v -0.013530 0.001000 -0.018457
v -0.013530 -0.001000 -0.018457
v -0.008159 -0.001000 -0.039403
v -0.012708 0.001000 -0.017219
v -0.010507 0.001000 -0.016893
v -0.012708 -0.001000 -0.017219
v -0.010507 -0.001000 -0.016893
v -0.004738 0.001000 -0.035883
v -0.009392 0.001000 -0.017635
v -0.004738 -0.001000 -0.035883
v -0.009392 -0.001000 -0.017635
v -0.008159 -0.001000 -0.039403
v -0.008159 0.000000 -0.039403
v -0.008066 -0.001000 -0.039639
v -0.007889 -0.001000 -0.039871
v -0.007847 0.000000 -0.039909
v -0.008066 0.001000 -0.039639
v -0.008159 0.001000 -0.039403
v -0.007889 0.001000 -0.039871
v -0.007624 0.001000 -0.040056
v -0.007293 0.001000 -0.040150
v -0.007574 0.000000 -0.040079
v -0.007280 0.000000 -0.040151
v -0.007624 -0.001000 -0.040056
v -0.007293 -0.001000 -0.040150
v -0.006951 -0.001000 -0.040126
v -0.006653 -0.001000 -0.039998
v -0.006976 0.000000 -0.040132
v -0.006951 0.001000 -0.040126
v -0.006693 0.000000 -0.040022
v -0.006653 0.001000 -0.039998
v -0.006455 0.000000 -0.039832
v -0.006293 0.000000 -0.039595
v -0.006432 0.001000 -0.039807
v -0.006432 -0.001000 -0.039807
v -0.006293 -0.001000 -0.039595
v -0.006293 0.001000 -0.039595
v -0.012708 -0.001000 -0.017219
v -0.013081 -0.001000 -0.017354
v -0.012708 0.001000 -0.017219
v -0.013081 0.001000 -0.017354
v -0.013395 0.001000 -0.017655
v -0.013551 0.001000 -0.018060
v -0.013395 -0.001000 -0.017655
v -0.013551 -0.001000 -0.018060
v -0.013530 -0.001000 -0.018457
v -0.013530 0.001000 -0.018457
v -0.009392 -0.001000 -0.017635
v -0.009538 -0.001000 -0.017314
v -0.009392 0.001000 -0.017635
v -0.009538 0.001000 -0.017314
v -0.009807 0.001000 -0.017049
v -0.010155 0.001000 -0.016903
v -0.009807 -0.001000 -0.017049
v -0.010155 -0.001000 -0.016903
v -0.010507 -0.001000 -0.016893
v -0.010507 0.001000 -0.016893
v -0.004809 -0.001000 -0.036571
v -0.004712 -0.001000 -0.036233
v -0.004809 0.001000 -0.036571
v -0.004712 0.001000 -0.036233
v -0.004738 0.001000 -0.035883
v -0.004738 -0.001000 -0.035883
v 0.039102 0.001000 0.005081
v 0.041463 -0.000000 0.006742
v 0.041463 0.001000 0.006742
v 0.039102 -0.001000 0.005081
v 0.041463 -0.001000 0.006742
v 0.041463 -0.001000 0.006742
v 0.041645 -0.001000 0.006907
v 0.041570 -0.000500 0.006829
v 0.041463 -0.000000 0.006742
v 0.041570 0.000500 0.006829
v 0.041570 -0.000000 0.006829
v 0.041463 0.001000 0.006742
v 0.041645 0.001000 0.006907
v 0.041671 0.000500 0.006939
v 0.041795 0.001000 0.007140
v 0.041671 -0.000000 0.006939
v 0.041880 0.001000 0.007433
v 0.041884 -0.000000 0.007478
v 0.041869 0.001000 0.007753
v 0.041867 -0.000000 0.007764
v 0.041758 0.001000 0.008054
v 0.041768 -0.000000 0.008034
v 0.041568 0.001000 0.008293
v 0.041597 -0.000000 0.008265
v 0.041341 0.001000 0.008452
v 0.041356 -0.000000 0.008443
v 0.041110 0.001000 0.008535
v 0.041110 -0.000000 0.008535
v 0.041110 -0.001000 0.008535
v 0.041341 -0.001000 0.008452
v 0.041568 -0.001000 0.008293
v 0.041758 -0.001000 0.008054
v 0.041869 -0.001000 0.007753
v 0.041880 -0.001000 0.007433
v 0.041795 -0.001000 0.007140
v 0.041671 -0.000500 0.006939
v 0.038303 0.001000 0.004924
v 0.017282 0.001000 0.009760
v 0.038303 -0.001000 0.004924
v 0.017282 -0.001000 0.009760
v 0.038303 -0.001000 0.004924
v 0.038719 -0.001000 0.004917
v 0.038303 0.001000 0.004924
v 0.038719 0.001000 0.004917
v 0.039102 0.001000 0.005081
v 0.039102 -0.001000 0.005081
v 0.016532 0.001000 0.010957
v 0.017001 0.001000 0.013015
v 0.016532 -0.001000 0.010957
v 0.017001 -0.001000 0.013015
v 0.018199 0.001000 0.013767
v 0.041110 -0.000000 0.008535
v 0.041110 0.001000 0.008535
v 0.018199 -0.001000 0.013767
v 0.041110 -0.001000 0.008535
v 0.018199 -0.001000 0.013767
v 0.017825 -0.001000 0.013781
v 0.018199 0.001000 0.013767
v 0.017825 0.001000 0.013781
v 0.017444 0.001000 0.013639
v 0.017152 0.001000 0.013358
v 0.017444 -0.001000 0.013639
v 0.017152 -0.001000 0.013358
v 0.017001 -0.001000 0.013015
v 0.017001 0.001000 0.013015
v 0.016532 -0.001000 0.010957
v 0.016518 -0.001000 0.010583
v 0.016532 0.001000 0.010957
v 0.016518 0.001000 0.010583
v 0.016659 0.001000 0.010203
v 0.016940 0.001000 0.009911
v 0.016659 -0.001000 0.010203
v 0.016940 -0.001000 0.009911
v 0.017282 -0.001000 0.009760
v 0.017282 0.001000 0.009760
v -0.012807 0.001000 -0.004245
v -0.017665 0.001000 0.014808
v -0.012807 -0.001000 -0.004245
v -0.017665 -0.001000 0.014808
v -0.017665 0.001000 0.014808
v -0.017677 0.001000 0.015750
v -0.017665 -0.001000 0.014808
v -0.017677 -0.001000 0.015750
v -0.017488 -0.001000 0.016251
v -0.017488 0.001000 0.016251
v -0.017158 -0.001000 0.016699
v -0.016718 -0.001000 0.017039
v -0.017158 0.001000 0.016699
v -0.016718 0.001000 0.017039
v -0.016222 0.001000 0.017240
v -0.015279 0.001000 0.017251
v -0.016222 -0.001000 0.017240
v -0.015279 -0.001000 0.017251
v -0.019484 0.001000 0.022373
v 0.004102 0.001000 0.016986
v -0.019484 -0.001000 0.022373
v 0.004102 -0.001000 0.016986
v -0.019484 -0.001000 0.022373
v -0.020898 -0.001000 0.022354
v -0.019484 0.001000 0.022373
v -0.020898 0.001000 0.022354
v -0.021642 0.001000 0.022052
v -0.021642 -0.001000 0.022052
v -0.022301 0.001000 0.021541
v -0.022794 0.001000 0.020869
v -0.022301 -0.001000 0.021541
v -0.022794 -0.001000 0.020869
v -0.023077 -0.001000 0.020117
v -0.023077 0.001000 0.020117
v -0.023058 -0.001000 0.018703
v -0.023058 0.001000 0.018703
v -0.013699 0.001000 -0.005489
v -0.015958 0.001000 -0.005662
v -0.013699 -0.001000 -0.005489
v -0.015958 -0.001000 -0.005662
v -0.017003 0.001000 -0.004913
v -0.023058 0.001000 0.018703
v -0.017003 -0.001000 -0.004913
v -0.023058 -0.001000 0.018703
v 0.004871 0.001000 0.015879
v 0.004593 0.001000 0.013801
v 0.004871 -0.001000 0.015879
v 0.004593 -0.001000 0.013801
v 0.003378 0.001000 0.012959
v -0.015279 0.001000 0.017251
v 0.003378 -0.001000 0.012959
v -0.015279 -0.001000 0.017251
v -0.013699 -0.001000 -0.005489
v -0.013305 -0.001000 -0.005374
v -0.013699 0.001000 -0.005489
v -0.013305 0.001000 -0.005374
v -0.012963 0.001000 -0.005075
v -0.012789 0.001000 -0.004656
v -0.012963 -0.001000 -0.005075
v -0.012789 -0.001000 -0.004656
v -0.012807 -0.001000 -0.004245
v -0.012807 0.001000 -0.004245
v -0.017003 -0.001000 -0.004913
v -0.016866 -0.001000 -0.005220
v -0.017003 0.001000 -0.004913
v -0.016866 0.001000 -0.005220
v -0.016617 0.001000 -0.005477
v -0.016293 0.001000 -0.005631
v -0.016617 -0.001000 -0.005477
v -0.016293 -0.001000 -0.005631
v -0.015958 -0.001000 -0.005662
v -0.015958 0.001000 -0.005662
v 0.004871 -0.001000 0.015879
v 0.004854 -0.001000 0.016234
v 0.004871 0.001000 0.015879
v 0.004854 0.001000 0.016234
v 0.004701 0.001000 0.016582
v 0.004428 0.001000 0.016847
v 0.004701 -0.001000 0.016582
v 0.004428 -0.001000 0.016847
v 0.004102 -0.001000 0.016986
v 0.004102 0.001000 0.016986
v 0.003378 -0.001000 0.012959
v 0.003772 -0.001000 0.012948
v 0.003378 0.001000 0.012959
v 0.003772 0.001000 0.012948
v 0.004172 0.001000 0.013111
v 0.004465 0.001000 0.013428
v 0.004172 -0.001000 0.013111
v 0.004465 -0.001000 0.013428
v 0.004593 -0.001000 0.013801
v 0.004593 0.001000 0.013801
v 0.014982 -0.001000 0.005968
v 0.026432 -0.001000 0.003338
v 0.026432 -0.000500 0.003338
v 0.014982 -0.000000 0.005968
v 0.003532 -0.000500 0.008599
v 0.003532 -0.001000 0.008599
v -0.002193 -0.001000 0.009914
v -0.002193 -0.000500 0.009914
v -0.007918 -0.001000 0.011230
v -0.002193 -0.000000 0.009914
v -0.007918 0.001000 0.011230
v -0.002193 0.000500 0.009914
v -0.002193 0.001000 0.009914
v 0.003532 0.001000 0.008599
v 0.014982 0.001000 0.005968
v 0.003532 0.000500 0.008599
v 0.003532 -0.000000 0.008599
v 0.026432 0.000500 0.003338
v 0.026432 0.001000 0.003338
v 0.032157 0.001000 0.002022
v 0.032157 0.000500 0.002022
v 0.037882 0.001000 0.000707
v 0.032157 0.000000 0.002022
v 0.037882 -0.001000 0.000707
v 0.032157 -0.001000 0.002022
v 0.032157 -0.000500 0.002022
v 0.026432 0.000000 0.003338
v -0.011775 -0.001000 -0.042338
v -0.010562 -0.001000 -0.047078
v -0.010562 -0.000500 -0.047078
v -0.011775 0.000000 -0.042338
v -0.014202 -0.001000 -0.032860
v -0.014202 0.001000 -0.032860
v -0.016628 0.000000 -0.023382
v -0.016628 -0.001000 -0.023382
v -0.017983 -0.001000 -0.018089
v -0.017983 0.000000 -0.018089
v -0.019055 -0.001000 -0.013903
v -0.019055 0.001000 -0.013903
v -0.017983 0.001000 -0.018089
v -0.016628 0.001000 -0.023382
v -0.011775 0.001000 -0.042338
v -0.010562 0.000500 -0.047078
v -0.010562 0.001000 -0.047078
v -0.009955 0.001000 -0.049447
v -0.009348 0.001000 -0.051817
v -0.009955 0.000500 -0.049447
v -0.009955 0.000000 -0.049447
v -0.009348 0.000000 -0.051817
v -0.009348 -0.001000 -0.051817
v -0.009955 -0.000500 -0.049447
v -0.009955 -0.001000 -0.049447
v -0.010562 0.000000 -0.047078
v -0.019055 -0.001000 -0.013903
v -0.015774 -0.001000 -0.013952
v -0.019055 0.001000 -0.013903
v -0.015774 0.001000 -0.013952
v -0.012494 0.001000 -0.014001
v -0.012494 -0.001000 -0.014001
v -0.012494 -0.001000 -0.014001
v -0.012461 -0.001000 -0.011797
v -0.012494 0.001000 -0.014001
v -0.012461 0.001000 -0.011797
v -0.012461 -0.001000 -0.011797
v -0.019621 -0.001000 -0.011690
v -0.012461 0.001000 -0.011797
v -0.019621 0.001000 -0.011690
v -0.017272 -0.001000 0.026186
v -0.017272 -0.000000 0.026186
v -0.022071 -0.001000 0.027280
v -0.007675 -0.001000 0.023999
v -0.007675 0.001000 0.023999
v 0.001923 -0.000000 0.021812
v 0.001923 -0.001000 0.021812
v 0.007271 -0.001000 0.020594
v 0.007271 -0.000000 0.020594
v 0.011520 -0.001000 0.019625
v 0.011520 0.001000 0.019625
v 0.007271 0.001000 0.020594
v 0.001923 0.001000 0.021812
v -0.017272 0.001000 0.026186
v -0.022071 0.001000 0.027280
v -0.026870 0.001000 0.028373
v -0.022071 -0.000000 0.027280
v -0.026870 -0.001000 0.028373
v 0.011520 -0.001000 0.019625
v 0.011467 -0.001000 0.016057
v 0.011520 0.001000 0.019625
v 0.011467 0.001000 0.016057
v 0.011413 0.001000 0.012488
v 0.011413 -0.001000 0.012488
v 0.011413 -0.001000 0.012488
v 0.013617 -0.001000 0.012455
v 0.011413 0.001000 0.012488
v 0.013617 0.001000 0.012455
v 0.013617 -0.001000 0.012455
v 0.013717 -0.001000 0.019125
v 0.013617 0.001000 0.012455
v 0.013717 0.001000 0.019125
v -0.019621 -0.001000 -0.011690
v -0.020683 0.000000 -0.007541
v -0.020683 -0.001000 -0.007541
v -0.019621 0.001000 -0.011690
v -0.020683 0.001000 -0.007541
v -0.022029 0.001000 -0.002286
v -0.022029 0.000000 -0.002286
v -0.024437 0.001000 0.007119
v -0.024437 -0.001000 0.007119
v -0.026844 0.001000 0.016523
v -0.026844 -0.000000 0.016523
v -0.028048 -0.000000 0.021225
v -0.026844 -0.001000 0.016523
v -0.028048 -0.001000 0.021225
v -0.029252 -0.001000 0.025927
v -0.029252 0.001000 0.025927
v -0.028048 0.001000 0.021225
v -0.022029 -0.001000 -0.002286
v -0.026870 -0.001000 0.028373
v -0.027812 -0.001000 0.028360
v -0.026870 0.001000 0.028373
v -0.027812 0.001000 0.028360
v -0.028308 0.001000 0.028159
v -0.028308 -0.001000 0.028159
v -0.028747 0.001000 0.027819
v -0.028747 -0.001000 0.027819
v -0.029076 0.001000 0.027371
v -0.029076 -0.001000 0.027371
v -0.029264 0.001000 0.026870
v -0.029264 -0.001000 0.026870
v -0.029252 0.001000 0.025927
v -0.029252 -0.001000 0.025927
v -0.011497 0.001000 0.007563
v -0.011514 0.001000 0.008978
v -0.011497 -0.001000 0.007563
v -0.011514 -0.001000 0.008978
v -0.011231 -0.001000 0.009729
v -0.010737 -0.001000 0.010401
v -0.011231 0.001000 0.009729
v -0.010737 0.001000 0.010401
v -0.010077 0.001000 0.010911
v -0.009332 0.001000 0.011213
v -0.010077 -0.001000 0.010911
v -0.009332 -0.001000 0.011213
v -0.007918 -0.001000 0.011230
v -0.007918 0.001000 0.011230
v 0.014714 -0.001000 0.018898
v 0.051183 -0.000000 0.010587
v 0.051183 -0.001000 0.010587
v 0.014714 0.001000 0.018898
v 0.051183 0.001000 0.010587
v -0.000698 0.001000 -0.036412
v -0.007463 0.001000 -0.051968
v -0.007463 0.000000 -0.051968
v -0.000698 -0.001000 -0.036412
v -0.007463 -0.001000 -0.051968
v -0.009348 -0.001000 -0.051817
v -0.009348 0.000000 -0.051817
v -0.009254 -0.001000 -0.052055
v -0.009254 0.001000 -0.052055
v -0.009073 -0.001000 -0.052290
v -0.009028 0.000000 -0.052330
v -0.009073 0.001000 -0.052290
v -0.008760 0.000000 -0.052494
v -0.008799 0.001000 -0.052476
v -0.008799 -0.001000 -0.052476
v -0.008459 0.000000 -0.052566
v -0.008150 0.000000 -0.052542
v -0.008459 -0.001000 -0.052566
v -0.008459 0.001000 -0.052566
v -0.008109 0.001000 -0.052532
v -0.007810 0.001000 -0.052391
v -0.007863 0.000000 -0.052425
v -0.007594 0.001000 -0.052188
v -0.007626 0.000000 -0.052226
v -0.007463 0.001000 -0.051968
v -0.007463 0.000000 -0.051968
v -0.007463 -0.001000 -0.051968
v -0.007594 -0.001000 -0.052188
v -0.007810 -0.001000 -0.052391
v -0.008109 -0.001000 -0.052532
v -0.009348 0.001000 -0.051817
v 0.051503 -0.001000 0.008772
v 0.051503 -0.000000 0.008772
v 0.039413 -0.001000 0.000975
v 0.039413 0.001000 0.000975
v 0.051503 0.001000 0.008772
v -0.011497 -0.001000 0.007563
v -0.000594 -0.001000 -0.035119
v -0.011497 0.001000 0.007563
v -0.000594 0.001000 -0.035119
v 0.037882 -0.001000 0.000707
v 0.038675 -0.001000 0.000686
v 0.037882 0.001000 0.000707
v 0.038675 0.001000 0.000686
v 0.039413 0.001000 0.000975
v 0.039413 -0.001000 0.000975
v -0.000698 -0.001000 -0.036412
v -0.000539 -0.001000 -0.035774
v -0.000698 0.001000 -0.036412
v -0.000539 0.001000 -0.035774
v -0.000594 0.001000 -0.035119
v -0.000594 -0.001000 -0.035119
v -0.000594 -0.001000 -0.035119
v -0.011497 -0.001000 0.007563
v -0.009392 -0.001000 -0.017635
v -0.004738 -0.001000 -0.035883
v -0.000698 -0.001000 -0.036412
v -0.000539 -0.001000 -0.035774
v -0.006432 -0.001000 -0.039807
v -0.006293 -0.001000 -0.039595
v -0.004712 -0.001000 -0.036233
v -0.004809 -0.001000 -0.036571
v -0.007463 -0.001000 -0.051968
v -0.008459 -0.001000 -0.052566
v -0.007594 -0.001000 -0.052188
v -0.009348 -0.001000 -0.051817
v -0.007293 -0.001000 -0.040150
v -0.006951 -0.001000 -0.040126
v -0.006653 -0.001000 -0.039998
v -0.007624 -0.001000 -0.040056
v -0.007889 -0.001000 -0.039871
v -0.008066 -0.001000 -0.039639
v -0.008159 -0.001000 -0.039403
v -0.018798 -0.001000 -0.014907
v -0.013530 -0.001000 -0.018457
v -0.013551 -0.001000 -0.018060
v -0.013395 -0.001000 -0.017655
v -0.013081 -0.001000 -0.017354
v -0.012494 -0.001000 -0.014001
v -0.012461 -0.001000 -0.011797
v -0.019055 -0.001000 -0.013903
v -0.012708 -0.001000 -0.017219
v -0.009807 -0.001000 -0.017049
v -0.010155 -0.001000 -0.016903
v -0.010507 -0.001000 -0.016893
v -0.009538 -0.001000 -0.017314
v -0.012789 -0.001000 -0.004656
v -0.012807 -0.001000 -0.004245
v -0.017665 -0.001000 0.014808
v -0.015279 -0.001000 0.017251
v -0.011514 -0.001000 0.008978
v -0.011231 -0.001000 0.009729
v -0.017158 -0.001000 0.016699
v -0.017488 -0.001000 0.016251
v -0.010737 -0.001000 0.010401
v -0.017677 -0.001000 0.015750
v -0.010077 -0.001000 0.010911
v -0.009332 -0.001000 0.011213
v -0.007918 -0.001000 0.011230
v 0.003378 -0.001000 0.012959
v 0.017282 -0.001000 0.009760
v 0.037882 -0.001000 0.000707
v 0.016940 -0.001000 0.009911
v 0.003772 -0.001000 0.012948
v 0.004172 -0.001000 0.013111
v 0.011413 -0.001000 0.012488
v 0.013617 -0.001000 0.012455
v 0.004465 -0.001000 0.013428
v 0.010523 -0.001000 0.019852
v 0.004871 -0.001000 0.015879
v 0.016659 -0.001000 0.010203
v 0.004593 -0.001000 0.013801
v 0.011520 -0.001000 0.019625
v 0.016518 -0.001000 0.010583
v 0.016532 -0.001000 0.010957
v 0.017001 -0.001000 0.013015
v 0.017152 -0.001000 0.013358
v 0.014714 -0.001000 0.018898
v 0.017444 -0.001000 0.013639
v 0.017825 -0.001000 0.013781
v 0.018199 -0.001000 0.013767
v 0.041110 -0.001000 0.008535
v 0.051183 -0.001000 0.010587
v 0.041341 -0.001000 0.008452
v 0.041568 -0.001000 0.008293
v 0.041758 -0.001000 0.008054
v 0.041869 -0.001000 0.007753
v 0.041880 -0.001000 0.007433
v 0.051503 -0.001000 0.008772
v 0.039413 -0.001000 0.000975
v 0.041795 -0.001000 0.007140
v 0.041645 -0.001000 0.006907
v 0.051693 -0.001000 0.008931
v 0.051854 -0.001000 0.009162
v 0.051949 -0.001000 0.009458
v 0.051416 -0.001000 0.010503
v 0.051946 -0.001000 0.009786
v 0.051837 -0.001000 0.010095
v 0.051646 -0.001000 0.010340
v 0.041463 -0.001000 0.006742
v 0.039102 -0.001000 0.005081
v 0.038719 -0.001000 0.004917
v 0.038303 -0.001000 0.004924
v 0.038675 -0.001000 0.000686
v 0.013717 -0.001000 0.019125
v 0.004854 -0.001000 0.016234
v 0.004701 -0.001000 0.016582
v 0.004428 -0.001000 0.016847
v 0.004102 -0.001000 0.016986
v -0.019484 -0.001000 0.022373
v -0.026870 -0.001000 0.028373
v -0.020898 -0.001000 0.022354
v -0.021642 -0.001000 0.022052
v -0.022301 -0.001000 0.021541
v -0.029252 -0.001000 0.025927
v -0.022794 -0.001000 0.020869
v -0.023077 -0.001000 0.020117
v -0.023058 -0.001000 0.018703
v -0.017003 -0.001000 -0.004913
v -0.019878 -0.001000 -0.010686
v -0.016293 -0.001000 -0.005631
v -0.016617 -0.001000 -0.005477
v -0.016866 -0.001000 -0.005220
v -0.019621 -0.001000 -0.011690
v -0.015958 -0.001000 -0.005662
v -0.013699 -0.001000 -0.005489
v -0.013305 -0.001000 -0.005374
v -0.012963 -0.001000 -0.005075
v -0.028747 -0.001000 0.027819
v -0.029076 -0.001000 0.027371
v -0.029264 -0.001000 0.026870
v -0.028308 -0.001000 0.028159
v -0.027812 -0.001000 0.028360
v -0.016718 -0.001000 0.017039
v -0.016222 -0.001000 0.017240
v -0.009254 -0.001000 -0.052055
v -0.008799 -0.001000 -0.052476
v -0.009073 -0.001000 -0.052290
v -0.008109 -0.001000 -0.052532
v -0.007810 -0.001000 -0.052391
vn 0.000000 1.000000 0.000000
vn 0.000000 1.000000 0.000000
vn 0.000000 1.000000 0.000000
vn 0.000000 1.000000 0.000000
vn 0.000000 1.000000 0.000000
vn 0.000000 1.000000 0.000000
vn 0.000000 1.000000 0.000000
vn 0.000000 1.000000 0.000000
vn 0.000000 1.000000 0.000000
vn 0.000000 1.000000 0.000000
vn 0.000000 1.000000 0.000000
vn 0.000000 1.000000 0.000000
vn 0.000000 1.000000 0.000000
vn 0.000000 1.000000 0.000000
vn 0.000000 1.000000 0.000000
vn 0.000000 1.000000 0.000000
vn 0.000000 1.000000 0.000000
vn 0.000000 1.000000 0.000000
vn 0.000000 1.000000 0.000000
vn 0.000000 1.000000 0.000000
vn 0.000000 1.000000 0.000000
vn 0.000000 1.000000 0.000000
vn 0.000000 1.000000 0.000000
vn 0.000000 1.000000 0.000000
vn 0.000000 1.000000 0.000000
vn 0.000000 1.000000 0.000000
vn 0.000000 1.000000 0.000000
vn 0.000000 1.000000 0.000000
vn 0.000000 1.000000 0.000000
vn 0.000000 1.000000 0.000000
vn 0.000000 1.000000 0.000000
vn 0.000000 1.000000 0.000000
vn 0.000000 1.000000 0.000000
vn 0.000000 1.000000 0.000000
vn 0.000000 1.000000 0.000000
vn 0.000000 1.000000 0.000000
vn 0.000000 1.000000 0.000000
vn 0.000000 1.000000 0.000000
vn 0.000000 1.000000 0.000000
vn 0.000000 1.000000 0.000000
vn 0.000000 1.000000 0.000000
vn 0.000000 1.000000 0.000000
vn 0.000000 1.000000 0.000000
vn 0.000000 1.000000 0.000000
vn 0.000000 1.000000 0.000000
vn 0.000000 1.000000 0.000000
vn 0.000000 1.000000 0.000000
vn 0.000000 1.000000 0.000000
vn 0.000000 1.000000 0.000000
vn 0.000000 1.000000 0.000000
vn 0.000000 1.000000 0.000000
vn 0.000000 1.000000 0.000000
vn 0.000000 1.000000 0.000000
vn 0.000000 1.000000 0.000000
vn 0.000000 1.000000 0.000000
vn 0.000000 1.000000 0.000000
vn 0.000000 1.000000 0.000000
vn 0.000000 1.000000 0.000000
vn 0.000000 1.000000 0.000000
vn 0.000000 1.000000 0.000000
vn 0.000000 1.000000 0.000000
vn 0.000000 1.000000 0.000000
vn 0.000000 1.000000 0.000000
vn 0.000000 1.000000 0.000000
vn 0.000000 1.000000 0.000000
vn 0.000000 1.000000 0.000000
vn 0.000000 1.000000 0.000000
vn 0.000000 1.000000 0.000000
vn 0.000000 1.000000 0.000000
vn 0.000000 1.000000 0.000000
vn 0.000000 1.000000 0.000000
vn 0.000000 1.000000 0.000000
vn 0.000000 1.000000 0.000000
vn 0.000000 1.000000 0.000000
vn 0.000000 1.000000 0.000000
vn 0.000000 1.000000 0.000000
vn 0.000000 1.000000 0.000000
vn 0.000000 1.000000 0.000000
vn 0.000000 1.000000 0.000000
vn 0.000000 1.000000 0.000000
vn 0.000000 1.000000 0.000000
vn 0.000000 1.000000 0.000000
vn 0.000000 1.000000 0.000000
vn 0.000000 1.000000 0.000000
vn 0.000000 1.000000 0.000000
vn 0.000000 1.000000 0.000000
vn 0.000000 1.000000 0.000000
vn 0.000000 1.000000 0.000000
vn 0.000000 1.000000 0.000000
vn 0.000000 1.000000 0.000000
vn 0.000000 1.000000 0.000000
vn 0.000000 1.000000 0.000000
vn 0.000000 1.000000 0.000000
vn 0.000000 1.000000 0.000000
vn 0.000000 1.000000 0.000000
vn 0.000000 1.000000 0.000000
vn 0.000000 1.000000 0.000000
vn 0.000000 1.000000 0.000000
vn 0.000000 1.000000 0.000000
vn 0.000000 1.000000 0.000000
vn 0.000000 1.000000 0.000000
vn 0.000000 1.000000 0.000000
vn 0.000000 1.000000 0.000000
vn 0.000000 1.000000 0.000000
vn 0.000000 1.000000 0.000000
vn 0.000000 1.000000 0.000000
vn 0.000000 1.000000 0.000000
vn 0.000000 1.000000 0.000000
vn 0.000000 1.000000 0.000000
vn 0.000000 1.000000 0.000000
vn 0.000000 1.000000 0.000000
vn 0.000000 1.000000 0.000000
vn 0.000000 1.000000 0.000000
vn 0.000000 1.000000 0.000000
vn 0.000000 1.000000 0.000000
vn 0.000000 1.000000 0.000000
vn 0.000000 1.000000 0.000000
vn 0.000000 1.000000 0.000000
vn 0.000000 1.000000 0.000000
vn 0.000000 1.000000 0.000000
vn 0.000000 1.000000 0.000000
vn 0.000000 1.000000 0.000000
vn 0.000000 1.000000 0.000000
vn 0.000000 1.000000 0.000000
vn 0.000000 1.000000 0.000000
vn 0.000000 1.000000 0.000000
vn 0.000000 1.000000 0.000000
vn 0.000000 1.000000 0.000000
vn 0.000000 1.000000 0.000000
vn 0.000000 1.000000 0.000000
vn 0.000000 1.000000 0.000000
vn 0.000000 1.000000 0.000000
vn 0.000000 1.000000 0.000000
vn 0.000000 1.000000 0.000000
vn 0.000000 1.000000 0.000000
vn 0.000000 1.000000 0.000000
vn 0.000000 1.000000 0.000000
vn 0.000000 1.000000 0.000000
vn 0.000000 1.000000 0.000000
vn 0.000000 1.000000 0.000000
vn 0.000000 1.000000 0.000000
vn 0.000000 1.000000 0.000000
vn 0.000000 1.000000 0.000000
vn 0.000000 1.000000 0.000000
vn 0.000000 1.000000 0.000000
vn 0.000000 1.000000 0.000000
vn 0.000000 1.000000 0.000000
vn 0.000000 1.000000 0.000000
vn 0.000000 1.000000 0.000000
vn 0.000000 1.000000 0.000000
vn 0.000000 1.000000 0.000000
vn 0.000000 1.000000 0.000000
vn 0.000000 1.000000 0.000000
vn 0.000000 1.000000 0.000000
vn 0.000000 1.000000 0.000000
vn 0.000000 1.000000 0.000000
vn 0.000000 1.000000 0.000000
vn 0.000000 1.000000 0.000000
vn 0.000000 1.000000 0.000000
vn 0.000000 1.000000 0.000000
vn 0.000000 1.000000 0.000000
vn 0.000000 1.000000 0.000000
vn 0.000000 1.000000 0.000000
vn 0.000000 1.000000 0.000000
vn 0.000000 1.000000 0.000000
vn 0.000000 1.000000 0.000000
vn 0.000000 1.000000 0.000000
vn 0.000000 1.000000 0.000000
vn 0.000000 1.000000 0.000000
vn 0.000000 1.000000 0.000000
vn 0.000000 1.000000 0.000000
vn 0.000000 1.000000 0.000000
vn 0.000000 1.000000 0.000000
vn 0.000000 1.000000 0.000000
vn 0.000000 1.000000 0.000000
vn 0.000000 1.000000 0.000000
vn 0.000000 1.000000 0.000000
vn 0.000000 1.000000 0.000000
vn 0.000000 1.000000 0.000000
vn 0.000000 1.000000 0.000000
vn 0.000000 1.000000 0.000000
vn 0.000000 1.000000 0.000000
vn 0.000000 1.000000 0.000000
vn 0.000000 1.000000 0.000000
vn 0.000000 1.000000 0.000000
vn 0.000000 1.000000 0.000000
vn 0.000000 1.000000 0.000000
vn 0.000000 1.000000 0.000000
vn 0.000000 1.000000 0.000000
vn 0.000000 1.000000 0.000000
vn 0.000000 1.000000 0.000000
vn 0.000000 1.000000 0.000000
vn 0.000000 1.000000 0.000000
vn 0.000000 1.000000 0.000000
vn 0.000000 1.000000 0.000000
vn 0.000000 1.000000 0.000000
vn 0.000000 1.000000 0.000000
vn 0.000000 1.000000 0.000000
vn 0.000000 1.000000 0.000000
vn 0.000000 1.000000 0.000000
vn 0.000000 1.000000 0.000000
vn 0.000000 1.000000 0.000000
vn 0.000000 1.000000 0.000000
vn 0.000000 1.000000 0.000000
vn 0.000000 1.000000 0.000000
vn 0.000000 1.000000 0.000000
vn 0.000000 1.000000 0.000000
vn 0.000000 1.000000 0.000000
vn 0.000000 1.000000 0.000000
vn 0.000000 1.000000 0.000000
vn 0.000000 1.000000 0.000000
vn 0.000000 1.000000 0.000000
vn 0.000000 1.000000 0.000000
vn 0.000000 1.000000 0.000000
vn 0.000000 1.000000 0.000000
vn 0.000000 1.000000 0.000000
vn 0.000000 1.000000 0.000000
vn 0.000000 1.000000 0.000000
vn 0.000000 1.000000 0.000000
vn 0.000000 1.000000 0.000000
vn 0.000000 1.000000 0.000000
vn 0.000000 1.000000 0.000000
vn 0.000000 1.000000 0.000000
vn 0.000000 1.000000 0.000000
vn 0.000000 1.000000 0.000000
vn 0.000000 1.000000 0.000000
vn 0.000000 1.000000 0.000000
vn 0.000000 1.000000 0.000000
vn 0.000000 1.000000 0.000000
vn 0.000000 1.000000 0.000000
vn 0.000000 1.000000 0.000000
vn 0.000000 1.000000 0.000000
vn 0.000000 1.000000 0.000000
vn 0.000000 1.000000 0.000000
vn 0.000000 1.000000 0.000000
vn 0.000000 1.000000 0.000000
vn 0.000000 1.000000 0.000000
vn 0.000000 1.000000 0.000000
vn 0.000000 1.000000 0.000000
vn 0.000000 1.000000 0.000000
vn 0.000000 1.000000 0.000000
vn 0.000000 1.000000 0.000000
vn 0.000000 1.000000 0.000000
vn 0.000000 1.000000 0.000000
vn 0.000000 1.000000 0.000000
vn 0.000000 1.000000 0.000000
vn 0.000000 1.000000 0.000000
vn 0.000000 1.000000 0.000000
vn 0.000000 1.000000 0.000000
vn 0.000000 1.000000 0.000000
vn 0.000000 1.000000 0.000000
vn 0.000000 1.000000 0.000000
vn 0.000000 1.000000 0.000000
vn 0.000000 1.000000 0.000000
vn 0.000000 1.000000 0.000000
vn 0.000000 1.000000 0.000000
vn 0.000000 1.000000 0.000000
vn 0.000000 1.000000 0.000000
vn 0.000000 1.000000 0.000000
vn 0.000000 1.000000 0.000000
vn 0.000000 1.000000 0.000000
vn 0.000000 1.000000 0.000000
vn 0.000000 1.000000 0.000000
vn 0.000000 1.000000 0.000000
vn 0.000000 1.000000 0.000000
vn 0.000000 1.000000 0.000000
vn 0.000000 1.000000 0.000000
vn 0.000000 1.000000 0.000000
vn 0.000000 1.000000 0.000000
vn 0.000000 1.000000 0.000000
vn 0.000000 1.000000 0.000000
vn 0.000000 1.000000 0.000000
vn 0.000000 1.000000 0.000000
vn 0.000000 1.000000 0.000000
vn 0.000000 1.000000 0.000000
vn 0.000000 1.000000 0.000000
vn 0.000000 1.000000 0.000000
vn 0.000000 1.000000 0.000000
vn 0.000000 1.000000 0.000000
vn 0.000000 1.000000 0.000000
vn 0.000000 1.000000 0.000000
vn 0.000000 1.000000 0.000000
vn 0.000000 1.000000 0.000000
vn 0.000000 1.000000 0.000000
vn 0.000000 1.000000 0.000000
vn 0.000000 1.000000 0.000000
vn 0.000000 1.000000 0.000000
vn 0.000000 1.000000 0.000000
vn 0.000000 1.000000 0.000000
vn 0.000000 1.000000 0.000000
vn 0.000000 1.000000 0.000000
vn 0.000000 1.000000 0.000000
vn 0.000000 1.000000 0.000000
vn 0.000000 1.000000 0.000000
vn 0.000000 1.000000 0.000000
vn 0.000000 1.000000 0.000000
vn 0.000000 1.000000 0.000000
vn 0.000000 1.000000 0.000000
vn 0.000000 1.000000 0.000000
vn 0.000000 1.000000 0.000000
vn 0.000000 1.000000 0.000000
vn 0.000000 1.000000 0.000000
vn 0.000000 1.000000 0.000000
vn 0.000000 1.000000 0.000000
vn 0.000000 1.000000 0.000000
vn 0.000000 1.000000 0.000000
vn 0.000000 1.000000 0.000000
vn 0.000000 1.000000 0.000000
vn 0.000000 1.000000 0.000000
vn 0.000000 1.000000 0.000000
vn 0.000000 1.000000 0.000000
vn 0.000000 1.000000 0.000000
vn 0.000000 1.000000 0.000000
vn 0.000000 1.000000 0.000000
vn 0.000000 1.000000 0.000000
vn 0.000000 1.000000 0.000000
vn 0.000000 1.000000 0.000000
vn 0.000000 1.000000 0.000000
vn 0.000000 1.000000 0.000000
vn 0.000000 1.000000 0.000000
vn 0.000000 1.000000 0.000000
vn 0.000000 1.000000 0.000000
vn 0.000000 1.000000 0.000000
vn 0.000000 1.000000 0.000000
vn 0.000000 1.000000 0.000000
vn 0.000000 1.000000 0.000000
vn 0.000000 1.000000 0.000000
vn 0.000000 1.000000 0.000000
vn 0.000000 1.000000 0.000000
vn 0.000000 1.000000 0.000000
vn 0.000000 1.000000 0.000000
vn 0.000000 1.000000 0.000000
vn 0.000000 1.000000 0.000000
vn 0.000000 1.000000 0.000000
vn 0.000000 1.000000 0.000000
vn 0.000000 1.000000 0.000000
vn 0.000000 1.000000 0.000000
vn 0.000000 1.000000 0.000000
vn 0.000000 1.000000 0.000000
vn 0.000000 1.000000 0.000000
vn 0.000000 1.000000 0.000000
vn 0.000000 1.000000 0.000000
vn 0.000000 1.000000 0.000000
vn 0.000000 1.000000 0.000000
vn 0.000000 1.000000 0.000000
vn 0.000000 1.000000 0.000000
vn 0.000000 1.000000 0.000000
vn 0.000000 1.000000 0.000000
vn 0.000000 1.000000 0.000000
vn 0.000000 1.000000 0.000000
vn 0.000000 1.000000 0.000000
vn 0.000000 1.000000 0.000000
vn 0.000000 1.000000 0.000000
vn 0.000000 1.000000 0.000000
vn 0.000000 1.000000 0.000000
vn 0.000000 1.000000 0.000000
vn 0.000000 1.000000 0.000000
vn 0.000000 1.000000 0.000000
vn 0.000000 1.000000 0.000000
vn 0.000000 1.000000 0.000000
vn 0.000000 1.000000 0.000000
vn 0.000000 1.000000 0.000000
vn 0.000000 1.000000 0.000000
vn 0.000000 1.000000 0.000000
vn 0.000000 1.000000 0.000000
vn 0.000000 1.000000 0.000000
vn 0.000000 1.000000 0.000000
vn 0.000000 1.000000 0.000000
vn 0.000000 1.000000 0.000000
vn 0.000000 1.000000 0.000000
vn 0.000000 1.000000 0.000000
vn 0.000000 1.000000 0.000000
vn 0.000000 1.000000 0.000000
vn 0.000000 1.000000 0.000000
vn 0.000000 1.000000 0.000000
vn 0.000000 1.000000 0.000000
vn 0.000000 1.000000 0.000000
vn 0.000000 1.000000 0.000000
vn 0.000000 1.000000 0.000000
vn 0.000000 1.000000 0.000000
vn 0.000000 1.000000 0.000000
vn 0.000000 1.000000 0.000000
vn 0.000000 1.000000 0.000000
vn 0.000000 1.000000 0.000000
vn 0.000000 1.000000 0.000000
vn 0.000000 1.000000 0.000000
vn 0.000000 1.000000 0.000000
vn 0.000000 1.000000 0.000000
vn 0.000000 1.000000 0.000000
vn 0.000000 1.000000 0.000000
vn 0.000000 1.000000 0.000000
vn 0.000000 1.000000 0.000000
vn 0.000000 1.000000 0.000000
vn 0.000000 1.000000 0.000000
vn 0.000000 1.000000 0.000000
vn 0.000000 1.000000 0.000000
vn 0.000000 1.000000 0.000000
vn 0.000000 1.000000 0.000000
vn 0.000000 1.000000 0.000000
vn 0.000000 1.000000 0.000000
vn 0.000000 1.000000 0.000000
vn 0.000000 1.000000 0.000000
vn 0.000000 1.000000 0.000000
vn 0.000000 1.000000 0.000000
vn 0.000000 1.000000 0.000000
vn 0.000000 1.000000 0.000000
vn 0.000000 1.000000 0.000000
vn 0.000000 1.000000 0.000000
vn 0.000000 1.000000 0.000000
vn 0.000000 1.000000 0.000000
vn 0.000000 1.000000 0.000000
vn 0.000000 1.000000 0.000000
vn 0.000000 1.000000 0.000000
vn 0.000000 1.000000 0.000000
vn 0.000000 1.000000 0.000000
vn 0.000000 1.000000 0.000000
vn 0.000000 1.000000 0.000000
vn 0.000000 1.000000 0.000000
vn 0.000000 1.000000 0.000000
vn 0.000000 1.000000 0.000000
vn 0.000000 1.000000 0.000000
vn 0.000000 1.000000 0.000000
vn 0.000000 1.000000 0.000000
vn 0.000000 1.000000 0.000000
vn 0.000000 1.000000 0.000000
vn 0.000000 1.000000 0.000000
vn 0.000000 1.000000 0.000000
vn -0.897801 -0.000000 0.440401
vn -0.897801 -0.000000 0.440401
vn -0.897801 -0.000000 0.440401
vn -0.897801 -0.000000 0.440401
vn -0.897801 -0.000000 0.440401
vn 0.968660 -0.000000 0.248390
vn 0.968660 -0.000000 0.248390
vn 0.968660 -0.000000 0.248390
vn 0.968660 -0.000000 0.248390
vn 0.968660 -0.000000 0.248390
vn 0.146697 0.000000 -0.989181
vn 0.146697 0.000000 -0.989181
vn 0.146697 0.000000 -0.989181
vn 0.146697 0.000000 -0.989181
vn -0.968991 0.000000 -0.247098
vn -0.968991 0.000000 -0.247098
vn -0.968991 0.000000 -0.247098
vn -0.968991 0.000000 -0.247098
vn 0.968606 -0.000000 0.248602
vn 0.968684 -0.000000 0.248296
vn 0.875118 -0.000000 0.483910
vn 0.698505 -0.000000 0.715605
vn 0.656676 -0.000000 0.754173
vn 0.875118 -0.000000 0.483910
vn 0.968606 -0.000000 0.248602
vn 0.698505 -0.000000 0.715605
vn 0.432796 -0.000000 0.901492
vn 0.102196 -0.000000 0.994764
vn 0.383188 -0.000000 0.923670
vn 0.088597 -0.000000 0.996068
vn 0.432796 -0.000000 0.901492
vn 0.102196 -0.000000 0.994764
vn -0.240088 -0.000000 0.970751
vn -0.537904 -0.000000 0.843006
vn -0.214410 -0.000000 0.976744
vn -0.240111 -0.000000 0.970745
vn -0.497990 -0.000000 0.867183
vn -0.537904 -0.000300 0.843006
vn -0.735512 -0.000000 0.677511
vn -0.897762 -0.000000 0.440481
vn -0.758303 -0.000000 0.651902
vn -0.758303 -0.000000 0.651902
vn -0.897762 -0.000000 0.440481
vn -0.897762 -0.000000 0.440481
vn 0.146795 0.000000 -0.989167
vn 0.519795 0.000000 -0.854291
vn 0.146795 0.000000 -0.989167
vn 0.519795 0.000000 -0.854291
vn 0.832988 0.000000 -0.553292
vn 0.989002 0.000000 -0.147900
vn 0.832988 0.000000 -0.553292
vn 0.989002 0.000000 -0.147900
vn 0.968684 -0.000000 0.248296
vn 0.968684 -0.000000 0.248296
vn -0.968967 0.000000 -0.247192
vn -0.823098 0.000000 -0.567899
vn -0.968967 0.000000 -0.247192
vn -0.823098 0.000000 -0.567899
vn -0.554123 0.000000 -0.832435
vn -0.205607 0.000000 -0.978635
vn -0.554123 0.000000 -0.832435
vn -0.205607 0.000000 -0.978635
vn 0.146599 0.000000 -0.989196
vn 0.146599 0.000000 -0.989196
vn -0.897841 -0.000000 0.440320
vn -0.994682 -0.000000 0.102998
vn -0.897841 -0.000000 0.440320
vn -0.994682 -0.000000 0.102998
vn -0.969015 0.000000 -0.247004
vn -0.969015 0.000000 -0.247004
vn -0.575434 -0.000000 0.817848
vn -0.575434 -0.000000 0.817848
vn -0.575434 -0.000000 0.817848
vn -0.575434 -0.000000 0.817848
vn -0.575434 -0.000000 0.817848
vn -0.575092 0.000100 0.818089
vn -0.756823 -0.000200 0.653620
vn -0.682699 -0.000100 0.730699
vn -0.575092 -0.000000 0.818089
vn -0.682699 0.000100 0.730699
vn -0.682129 -0.000000 0.731232
vn -0.575092 -0.000100 0.818089
vn -0.756773 0.000300 0.653677
vn -0.783719 0.000100 0.621115
vn -0.907426 0.000200 0.420212
vn -0.783496 -0.000000 0.621397
vn -0.991865 -0.000100 0.127295
vn -0.996583 -0.000000 0.082599
vn -0.981180 0.000000 -0.193096
vn -0.978972 0.000000 -0.203994
vn -0.869692 0.000000 -0.493595
vn -0.880519 0.000000 -0.474010
vn -0.680524 0.000100 -0.732726
vn -0.709054 0.000000 -0.705154
vn -0.452884 0.000000 -0.891569
vn -0.468604 0.000000 -0.883408
vn -0.222909 0.001100 -0.974839
vn -0.222909 0.000000 -0.974839
vn -0.222909 0.000100 -0.974839
vn -0.452884 0.000000 -0.891569
vn -0.680524 0.000000 -0.732726
vn -0.869692 0.000000 -0.493595
vn -0.981180 0.000000 -0.193096
vn -0.991865 -0.000000 0.127296
vn -0.907426 -0.000100 0.420212
vn -0.783719 -0.000100 0.621115
vn 0.224209 -0.000000 0.974541
vn 0.224209 -0.000000 0.974541
vn 0.224209 -0.000000 0.974541
vn 0.224209 -0.000000 0.974541
vn 0.224093 -0.000000 0.974568
vn -0.192307 -0.000000 0.981335
vn 0.224093 -0.000000 0.974568
vn -0.192307 -0.000000 0.981335
vn -0.575387 -0.000000 0.817881
vn -0.575387 -0.000000 0.817881
vn 0.974909 0.000000 -0.222602
vn 0.974909 0.000000 -0.222602
vn 0.974909 0.000000 -0.222602
vn 0.974909 0.000000 -0.222602
vn -0.222602 0.000000 -0.974909
vn -0.222602 0.000000 -0.974909
vn -0.222602 0.000000 -0.974909
vn -0.222602 0.000000 -0.974909
vn -0.222602 0.000000 -0.974909
vn -0.222507 0.000000 -0.974931
vn 0.151802 0.000000 -0.988411
vn -0.222507 0.000000 -0.974931
vn 0.151802 0.000000 -0.988411
vn 0.531903 0.000000 -0.846805
vn 0.824482 0.000000 -0.565888
vn 0.531903 0.000000 -0.846805
vn 0.824482 0.000000 -0.565888
vn 0.974888 0.000000 -0.222697
vn 0.974888 0.000000 -0.222697
vn 0.974931 0.000000 -0.222507
vn 0.988458 -0.000000 0.151494
vn 0.974931 0.000000 -0.222507
vn 0.988458 -0.000000 0.151494
vn 0.847233 -0.000000 0.531221
vn 0.566894 -0.000000 0.823791
vn 0.847233 -0.000000 0.531221
vn 0.566894 -0.000000 0.823791
vn 0.224304 -0.000000 0.974519
vn 0.224304 -0.000000 0.974519
vn -0.968991 0.000000 -0.247098
vn -0.968991 0.000000 -0.247098
vn -0.968991 0.000000 -0.247098
vn -0.968991 0.000000 -0.247098
vn -0.969015 0.000000 -0.247004
vn -0.974519 -0.000000 0.224304
vn -0.969015 0.000000 -0.247004
vn -0.974519 -0.000000 0.224304
vn -0.880095 -0.000000 0.474797
vn -0.880095 -0.000000 0.474797
vn -0.715408 -0.000000 0.698707
vn -0.495385 -0.000000 0.868674
vn -0.715408 -0.000000 0.698707
vn -0.495385 -0.000000 0.868674
vn -0.247098 -0.000000 0.968991
vn 0.224093 -0.000000 0.974568
vn -0.247098 -0.000000 0.968991
vn 0.224093 -0.000000 0.974568
vn -0.222602 0.000000 -0.974909
vn -0.222602 0.000000 -0.974909
vn -0.222602 0.000000 -0.974909
vn -0.222602 0.000000 -0.974909
vn -0.222602 0.000000 -0.974909
vn 0.248695 0.000000 -0.968582
vn -0.222602 0.000000 -0.974909
vn 0.248695 0.000000 -0.968582
vn 0.496710 0.000000 -0.867917
vn 0.496710 0.000000 -0.867917
vn 0.716395 0.000000 -0.697695
vn 0.880795 0.000000 -0.473497
vn 0.716395 0.000000 -0.697695
vn 0.880795 0.000000 -0.473497
vn 0.974839 0.000000 -0.222909
vn 0.974839 0.000000 -0.222909
vn 0.968684 -0.000000 0.248296
vn 0.968684 -0.000000 0.248296
vn -0.076100 -0.000000 0.997100
vn -0.076100 -0.000000 0.997100
vn -0.076100 -0.000000 0.997100
vn -0.076100 -0.000000 0.997100
vn 0.968660 -0.000000 0.248390
vn 0.968660 -0.000000 0.248390
vn 0.968660 -0.000000 0.248390
vn 0.968660 -0.000000 0.248390
vn -0.991223 -0.000000 0.132203
vn -0.991223 -0.000000 0.132203
vn -0.991223 -0.000000 0.132203
vn -0.991223 -0.000000 0.132203
vn 0.224209 -0.000000 0.974541
vn 0.224209 -0.000000 0.974541
vn 0.224209 -0.000000 0.974541
vn 0.224209 -0.000000 0.974541
vn -0.076199 -0.000000 0.997093
vn -0.471092 -0.000000 0.882084
vn -0.076199 -0.000000 0.997093
vn -0.471092 -0.000000 0.882084
vn -0.812482 -0.000000 0.582987
vn -0.986478 -0.000000 0.163896
vn -0.812482 -0.000000 0.582987
vn -0.986478 -0.000000 0.163896
vn -0.968991 0.000000 -0.247098
vn -0.968991 0.000000 -0.247098
vn 0.968630 -0.000000 0.248508
vn 0.831434 -0.000000 0.555623
vn 0.968630 -0.000000 0.248508
vn 0.831434 -0.000000 0.555623
vn 0.582581 -0.000000 0.812773
vn 0.258808 -0.000000 0.965929
vn 0.582581 -0.000000 0.812773
vn 0.258808 -0.000000 0.965929
vn -0.076001 -0.000000 0.997108
vn -0.076001 -0.000000 0.997108
vn -0.991223 -0.000000 0.132203
vn -0.975001 0.000000 -0.222200
vn -0.991223 -0.000000 0.132203
vn -0.975001 0.000000 -0.222200
vn -0.821425 0.000000 -0.570317
vn -0.549010 0.000000 -0.835816
vn -0.821425 0.000000 -0.570317
vn -0.549010 0.000000 -0.835816
vn -0.222697 0.000000 -0.974888
vn -0.222697 0.000000 -0.974888
vn 0.224093 -0.000000 0.974568
vn -0.170299 -0.000000 0.985392
vn 0.224093 -0.000000 0.974568
vn -0.170299 -0.000000 0.985392
vn -0.569610 -0.000000 0.821915
vn -0.862845 -0.000000 0.505468
vn -0.569610 -0.000000 0.821915
vn -0.862845 -0.000000 0.505468
vn -0.991210 -0.000000 0.132301
vn -0.991210 -0.000000 0.132301
vn -0.223903 0.000000 -0.974612
vn -0.223903 0.000000 -0.974612
vn -0.223903 0.000000 -0.974612
vn -0.223903 0.000000 -0.974612
vn -0.223903 0.000000 -0.974612
vn -0.223903 0.000000 -0.974612
vn -0.223903 0.000000 -0.974612
vn -0.223903 0.000000 -0.974612
vn -0.223903 0.000000 -0.974612
vn -0.223903 0.000000 -0.974612
vn -0.223903 0.000000 -0.974612
vn -0.223903 0.000000 -0.974612
vn -0.223903 0.000000 -0.974612
vn -0.223903 0.000000 -0.974612
vn -0.223903 0.000000 -0.974612
vn -0.223903 0.000000 -0.974612
vn -0.223903 0.000000 -0.974612
vn -0.223903 0.000000 -0.974612
vn -0.223903 0.000000 -0.974612
vn -0.223903 0.000000 -0.974612
vn -0.223903 0.000000 -0.974612
vn -0.223903 0.000000 -0.974612
vn -0.223903 0.000000 -0.974612
vn -0.223903 0.000000 -0.974612
vn -0.223903 0.000000 -0.974612
vn -0.223903 0.000000 -0.974612
vn -0.223903 0.000000 -0.974612
vn -0.968762 0.000000 -0.247990
vn -0.968762 0.000000 -0.247990
vn -0.968762 0.000000 -0.247990
vn -0.968762 0.000000 -0.247990
vn -0.968762 0.000000 -0.247990
vn -0.968762 0.000000 -0.247990
vn -0.968762 0.000000 -0.247990
vn -0.968762 0.000000 -0.247990
vn -0.968762 0.000000 -0.247990
vn -0.968762 0.000000 -0.247990
vn -0.968762 0.000000 -0.247990
vn -0.968762 0.000000 -0.247990
vn -0.968762 0.000000 -0.247990
vn -0.968762 0.000000 -0.247990
vn -0.968762 0.000000 -0.247990
vn -0.968762 0.000000 -0.247990
vn -0.968762 0.000000 -0.247990
vn -0.968762 0.000000 -0.247990
vn -0.968762 0.000000 -0.247990
vn -0.968762 0.000000 -0.247990
vn -0.968762 0.000000 -0.247990
vn -0.968762 0.000000 -0.247990
vn -0.968762 0.000000 -0.247990
vn -0.968762 0.000000 -0.247990
vn -0.968762 0.000000 -0.247990
vn -0.968762 0.000000 -0.247990
vn 0.015000 -0.000000 0.999887
vn 0.015000 -0.000000 0.999887
vn 0.015000 -0.000000 0.999887
vn 0.015000 -0.000000 0.999887
vn 0.015000 -0.000000 0.999887
vn 0.015000 -0.000000 0.999887
vn -0.999887 -0.000000 0.015000
vn -0.999887 -0.000000 0.015000
vn -0.999887 -0.000000 0.015000
vn -0.999887 -0.000000 0.015000
vn -0.015000 0.000000 -0.999887
vn -0.015000 0.000000 -0.999887
vn -0.015000 0.000000 -0.999887
vn -0.015000 0.000000 -0.999887
vn 0.222200 -0.000000 0.975001
vn 0.222200 -0.000000 0.975001
vn 0.222200 -0.000000 0.975001
vn 0.222200 -0.000000 0.975001
vn 0.222200 -0.000000 0.975001
vn 0.222200 -0.000000 0.975001
vn 0.222200 -0.000000 0.975001
vn 0.222200 -0.000000 0.975001
vn 0.222200 -0.000000 0.975001
vn 0.222200 -0.000000 0.975001
vn 0.222200 -0.000000 0.975001
vn 0.222200 -0.000000 0.975001
vn 0.222200 -0.000000 0.975001
vn 0.222200 -0.000000 0.975001
vn 0.222200 -0.000000 0.975001
vn 0.222200 -0.000000 0.975001
vn 0.222200 -0.000000 0.975001
vn 0.222200 -0.000000 0.975001
vn 0.999887 0.000000 -0.015000
vn 0.999887 0.000000 -0.015000
vn 0.999887 0.000000 -0.015000
vn 0.999887 0.000000 -0.015000
vn 0.999889 0.000000 -0.014900
vn 0.999889 0.000000 -0.014900
vn 0.015000 -0.000000 0.999887
vn 0.015000 -0.000000 0.999887
vn 0.015000 -0.000000 0.999887
vn 0.015000 -0.000000 0.999887
vn -0.999887 -0.000000 0.015000
vn -0.999887 -0.000000 0.015000
vn -0.999887 -0.000000 0.015000
vn -0.999887 -0.000000 0.015000
vn -0.968762 0.000000 -0.247990
vn -0.968762 0.000000 -0.247990
vn -0.968762 0.000000 -0.247990
vn -0.968762 0.000000 -0.247990
vn -0.968762 0.000000 -0.247990
vn -0.968762 0.000000 -0.247990
vn -0.968762 0.000000 -0.247990
vn -0.968762 0.000000 -0.247990
vn -0.968762 0.000000 -0.247990
vn -0.968762 0.000000 -0.247990
vn -0.968762 0.000000 -0.247990
vn -0.968762 0.000000 -0.247990
vn -0.968762 0.000000 -0.247990
vn -0.968762 0.000000 -0.247990
vn -0.968762 0.000000 -0.247990
vn -0.968762 0.000000 -0.247990
vn -0.968762 0.000000 -0.247990
vn -0.968762 0.000000 -0.247990
vn 0.222105 -0.000000 0.975023
vn -0.249001 -0.000000 0.968503
vn 0.222105 -0.000000 0.975023
vn -0.249001 -0.000000 0.968503
vn -0.496903 -0.000000 0.867806
vn -0.496903 -0.000000 0.867806
vn -0.716494 -0.000000 0.697594
vn -0.716494 -0.000000 0.697594
vn -0.880731 -0.000000 0.473617
vn -0.880731 -0.000000 0.473617
vn -0.974796 -0.000000 0.223099
vn -0.974796 -0.000000 0.223099
vn -0.968787 0.000000 -0.247897
vn -0.968787 0.000000 -0.247897
vn 0.968913 -0.000000 0.247403
vn 0.974612 0.000000 -0.223903
vn 0.968913 -0.000000 0.247403
vn 0.974612 0.000000 -0.223903
vn 0.880307 0.000000 -0.474404
vn 0.715605 0.000000 -0.698505
vn 0.880307 0.000000 -0.474404
vn 0.715605 0.000000 -0.698505
vn 0.495697 0.000000 -0.868495
vn 0.247403 0.000000 -0.968913
vn 0.495697 0.000000 -0.868495
vn 0.247403 0.000000 -0.968913
vn -0.223808 0.000000 -0.974633
vn -0.223808 0.000000 -0.974633
vn 0.222200 -0.000000 0.975001
vn 0.222200 -0.000000 0.975001
vn 0.222200 -0.000000 0.975001
vn 0.222200 -0.000000 0.975001
vn 0.222200 -0.000000 0.975001
vn 0.917032 0.000000 -0.398814
vn 0.917032 0.000000 -0.398814
vn 0.917032 0.000000 -0.398814
vn 0.917032 0.000000 -0.398814
vn 0.917032 0.000000 -0.398814
vn -0.968732 0.000000 -0.248108
vn -0.968732 0.000000 -0.248108
vn -0.873969 0.000100 -0.485983
vn -0.873969 -0.000100 -0.485983
vn -0.693071 0.000100 -0.720870
vn -0.648235 0.000000 -0.761441
vn -0.693071 -0.000100 -0.720870
vn -0.379910 0.000000 -0.925024
vn -0.419686 0.000000 -0.907669
vn -0.419806 0.000000 -0.907614
vn -0.079602 0.000000 -0.996827
vn 0.229195 0.000000 -0.973380
vn -0.079801 -0.000100 -0.996811
vn -0.079801 0.000100 -0.996811
vn 0.270294 0.000000 -0.962778
vn 0.569792 0.000200 -0.821789
vn 0.516421 0.000000 -0.856335
vn 0.785617 0.000100 -0.618713
vn 0.753802 0.000000 -0.657102
vn 0.917032 0.000200 -0.398814
vn 0.916995 0.000000 -0.398898
vn 0.917032 -0.000200 -0.398814
vn 0.785617 -0.000100 -0.618713
vn 0.569792 0.000000 -0.821789
vn 0.270294 0.000000 -0.962778
vn -0.968732 0.000000 -0.248108
vn 0.541990 0.000000 -0.840385
vn 0.541990 0.000000 -0.840385
vn 0.541990 0.000000 -0.840385
vn 0.541990 0.000000 -0.840385
vn 0.541990 0.000000 -0.840385
vn 0.968889 -0.000000 0.247497
vn 0.968889 -0.000000 0.247497
vn 0.968889 -0.000000 0.247497
vn 0.968889 -0.000000 0.247497
vn -0.223808 0.000000 -0.974633
vn 0.172599 0.000000 -0.984992
vn -0.223808 0.000000 -0.974633
vn 0.172599 0.000000 -0.984992
vn 0.541920 0.000000 -0.840430
vn 0.541920 0.000000 -0.840430
vn 0.917084 0.000000 -0.398693
vn 0.996803 0.000000 -0.079900
vn 0.917084 0.000000 -0.398693
vn 0.996803 0.000000 -0.079900
vn 0.968913 -0.000000 0.247403
vn 0.968913 -0.000000 0.247403
vn 0.000000 -1.000000 -0.000000
vn 0.000000 -1.000000 -0.000000
vn 0.000000 -1.000000 -0.000000
vn 0.000000 -1.000000 -0.000000
vn 0.000000 -1.000000 -0.000000
vn 0.000000 -1.000000 -0.000000
vn 0.000000 -1.000000 -0.000000
vn 0.000000 -1.000000 -0.000000
vn 0.000000 -1.000000 -0.000000
vn 0.000000 -1.000000 -0.000000
vn 0.000000 -1.000000 -0.000000
vn 0.000000 -1.000000 -0.000000
vn 0.000000 -1.000000 -0.000000
vn 0.000000 -1.000000 -0.000000
vn 0.000000 -1.000000 -0.000000
vn 0.000000 -1.000000 -0.000000
vn 0.000000 -1.000000 -0.000000
vn 0.000000 -1.000000 -0.000000
vn 0.000000 -1.000000 -0.000000
vn 0.000000 -1.000000 -0.000000
vn 0.000000 -1.000000 -0.000000
vn 0.000000 -1.000000 -0.000000
vn 0.000000 -1.000000 -0.000000
vn 0.000000 -1.000000 -0.000000
vn 0.000000 -1.000000 -0.000000
vn 0.000000 -1.000000 -0.000000
vn 0.000000 -1.000000 -0.000000
vn 0.000000 -1.000000 -0.000000
vn 0.000000 -1.000000 -0.000000
vn 0.000000 -1.000000 -0.000000
vn 0.000000 -1.000000 -0.000000
vn 0.000000 -1.000000 -0.000000
vn 0.000000 -1.000000 -0.000000
vn 0.000000 -1.000000 -0.000000
vn 0.000000 -1.000000 -0.000000
vn 0.000000 -1.000000 -0.000000
vn 0.000000 -1.000000 -0.000000
vn 0.000000 -1.000000 -0.000000
vn 0.000000 -1.000000 -0.000000
vn 0.000000 -1.000000 -0.000000
vn 0.000000 -1.000000 -0.000000
vn 0.000000 -1.000000 -0.000000
vn 0.000000 -1.000000 -0.000000
vn 0.000000 -1.000000 -0.000000
vn 0.000000 -1.000000 -0.000000
vn 0.000000 -1.000000 -0.000000
vn 0.000000 -1.000000 -0.000000
vn 0.000000 -1.000000 -0.000000
vn 0.000000 -1.000000 -0.000000
vn 0.000000 -1.000000 -0.000000
vn 0.000000 -1.000000 -0.000000
vn 0.000000 -1.000000 -0.000000
vn 0.000000 -1.000000 -0.000000
vn 0.000000 -1.000000 -0.000000
vn 0.000000 -1.000000 -0.000000
vn 0.000000 -1.000000 -0.000000
vn 0.000000 -1.000000 -0.000000
vn 0.000000 -1.000000 -0.000000
vn 0.000000 -1.000000 -0.000000
vn 0.000000 -1.000000 -0.000000
vn 0.000000 -1.000000 -0.000000
vn 0.000000 -1.000000 -0.000000
vn 0.000000 -1.000000 -0.000000
vn 0.000000 -1.000000 -0.000000
vn 0.000000 -1.000000 -0.000000
vn 0.000000 -1.000000 -0.000000
vn 0.000000 -1.000000 -0.000000
vn 0.000000 -1.000000 -0.000000
vn 0.000000 -1.000000 -0.000000
vn 0.000000 -1.000000 -0.000000
vn 0.000000 -1.000000 -0.000000
vn 0.000000 -1.000000 -0.000000
vn 0.000000 -1.000000 -0.000000
vn 0.000000 -1.000000 -0.000000
vn 0.000000 -1.000000 -0.000000
vn 0.000000 -1.000000 -0.000000
vn 0.000000 -1.000000 -0.000000
vn 0.000000 -1.000000 -0.000000
vn 0.000000 -1.000000 -0.000000
vn 0.000000 -1.000000 -0.000000
vn 0.000000 -1.000000 -0.000000
vn 0.000000 -1.000000 -0.000000
vn 0.000000 -1.000000 -0.000000
vn 0.000000 -1.000000 -0.000000
vn 0.000000 -1.000000 -0.000000
vn 0.000000 -1.000000 -0.000000
vn 0.000000 -1.000000 0.000300
vn 0.000000 -1.000000 -0.000000
vn 0.000000 -1.000000 -0.000000
vn 0.000000 -1.000000 -0.000000
vn 0.000000 -1.000000 -0.000000
vn 0.000000 -1.000000 -0.000000
vn 0.000000 -1.000000 -0.000000
vn 0.000000 -1.000000 -0.000000
vn 0.000000 -1.000000 -0.000000
vn 0.000000 -1.000000 -0.000000
vn 0.000000 -1.000000 -0.000000
vn 0.000000 -1.000000 -0.000000
vn 0.000000 -1.000000 -0.000000
vn 0.000000 -1.000000 -0.000000
vn 0.000000 -1.000000 -0.000000
vn 0.000000 -1.000000 -0.000000
vn 0.000000 -1.000000 -0.000000
vn 0.000000 -1.000000 -0.000000
vn 0.000000 -1.000000 -0.000000
vn 0.000000 -1.000000 -0.000000
vn 0.000000 -1.000000 -0.000000
vn 0.000000 -1.000000 -0.000000
vn 0.000000 -1.000000 -0.000000
vn 0.000000 -1.000000 -0.000000
vn 0.000000 -1.000000 -0.000000
vn 0.000000 -1.000000 -0.000000
vn 0.000000 -1.000000 -0.000000
vn 0.000000 -1.000000 -0.000000
vn 0.000000 -1.000000 -0.000000
vn 0.000000 -1.000000 -0.000000
vn 0.000000 -1.000000 -0.000000
vn 0.000000 -1.000000 -0.000000
vn 0.000000 -1.000000 -0.000000
vn 0.000000 -1.000000 -0.000000
vn 0.000000 -1.000000 -0.000000
vn 0.000000 -1.000000 -0.000000
vn 0.000000 -1.000000 -0.000000
vn 0.000000 -1.000000 -0.000000
vn 0.000000 -1.000000 -0.000000
vn 0.000000 -1.000000 -0.000000
vn 0.000000 -1.000000 -0.000000
vn 0.000000 -1.000000 -0.000500
f 4//4 1//1 2//2
f 2//2 1//1 3//3
f 1//1 5//5 3//3
f 8//8 1//1 4//4
f 10//10 1//1 6//6
f 6//6 1//1 7//7
f 7//7 1//1 8//8
f 9//9 1//1 10//10
f 14//14 10//10 11//11
f 11//11 10//10 12//12
f 11//11 12//12 33//33
f 12//12 10//10 13//13
f 13//13 10//10 6//6
f 14//14 9//9 10//10
f 14//14 16//16 15//15
f 16//16 14//14 11//11
f 17//17 15//15 16//16
f 17//17 16//16 18//18
f 16//16 19//19 18//18
f 11//11 21//21 16//16
f 19//19 16//16 20//20
f 16//16 21//21 20//20
f 11//11 22//22 21//21
f 21//21 22//22 24//24
f 21//21 24//24 20//20
f 11//11 23//23 22//22
f 22//22 23//23 25//25
f 25//25 24//24 22//22
f 24//24 25//25 26//26
f 24//24 26//26 427//427
f 23//23 27//27 25//25
f 25//25 27//27 28//28
f 25//25 28//28 26//26
f 29//29 27//27 23//23
f 28//28 27//27 29//29
f 31//31 29//29 30//30
f 32//32 30//30 29//29
f 23//23 32//32 29//29
f 29//29 31//31 28//28
f 11//11 32//32 23//23
f 33//33 32//32 11//11
f 32//32 33//33 30//30
f 33//33 34//34 30//30
f 33//33 12//12 34//34
f 13//13 34//34 12//12
f 31//31 30//30 34//34
f 28//28 31//31 35//35
f 36//36 28//28 35//35
f 26//26 36//36 37//37
f 37//37 36//36 38//38
f 28//28 36//36 26//26
f 37//37 38//38 39//39
f 38//38 40//40 39//39
f 41//41 39//39 40//40
f 44//44 41//41 42//42
f 41//41 43//43 42//42
f 39//39 41//41 44//44
f 47//47 45//45 44//44
f 425//425 39//39 44//44
f 425//425 44//44 45//45
f 46//46 47//47 44//44
f 44//44 42//42 46//46
f 47//47 46//46 50//50
f 47//47 50//50 48//48
f 48//48 49//49 47//47
f 423//423 45//45 47//47
f 423//423 47//47 49//49
f 46//46 66//66 51//51
f 46//46 51//51 50//50
f 50//50 51//51 53//53
f 50//50 53//53 52//52
f 50//50 52//52 48//48
f 53//53 54//54 52//52
f 54//54 48//48 52//52
f 54//54 58//58 55//55
f 48//48 54//54 55//55
f 58//58 54//54 56//56
f 54//54 57//57 56//56
f 57//57 54//54 59//59
f 60//60 59//59 54//54
f 54//54 61//61 60//60
f 54//54 53//53 61//61
f 51//51 62//62 61//61
f 51//51 61//61 53//53
f 60//60 61//61 62//62
f 62//62 63//63 60//60
f 62//62 64//64 63//63
f 62//62 51//51 65//65
f 65//65 64//64 62//62
f 51//51 66//66 65//65
f 68//68 67//67 65//65
f 68//68 65//65 66//66
f 67//67 69//69 64//64
f 67//67 64//64 65//65
f 70//70 67//67 68//68
f 69//69 67//67 70//70
f 69//69 70//70 71//71
f 71//71 70//70 73//73
f 72//72 70//70 68//68
f 71//71 73//73 57//57
f 73//73 56//56 57//57
f 56//56 73//73 74//74
f 56//56 74//74 75//75
f 75//75 74//74 76//76
f 76//76 77//77 75//75
f 76//76 78//78 77//77
f 77//77 78//78 79//79
f 82//82 79//79 80//80
f 80//80 79//79 81//81
f 79//79 83//83 81//81
f 77//77 79//79 82//82
f 81//81 83//83 84//84
f 86//86 85//85 84//84
f 85//85 81//81 84//84
f 89//89 85//85 86//86
f 87//87 88//88 86//86
f 88//88 89//89 86//86
f 90//90 85//85 89//89
f 8//8 4//4 89//89
f 8//8 89//89 88//88
f 89//89 4//4 2//2
f 2//2 90//90 89//89
f 81//81 85//85 90//90
f 90//90 91//91 81//81
f 2//2 3//3 92//92
f 2//2 92//92 90//90
f 91//91 90//90 92//92
f 93//93 92//92 3//3
f 94//94 92//92 93//93
f 92//92 94//94 91//91
f 94//94 95//95 91//91
f 94//94 96//96 95//95
f 95//95 96//96 97//97
f 55//55 97//97 96//96
f 100//100 95//95 97//97
f 100//100 97//97 98//98
f 98//98 97//97 55//55
f 55//55 99//99 98//98
f 101//101 100//100 98//98
f 101//101 98//98 99//99
f 91//91 100//100 82//82
f 100//100 101//101 82//82
f 95//95 100//100 91//91
f 77//77 82//82 101//101
f 77//77 101//101 102//102
f 102//102 101//101 99//99
f 75//75 77//77 102//102
f 99//99 58//58 102//102
f 58//58 75//75 102//102
f 99//99 55//55 58//58
f 105//105 103//103 93//93
f 93//93 3//3 106//106
f 93//93 106//106 104//104
f 93//93 104//104 105//105
f 104//104 106//106 108//108
f 106//106 109//109 107//107
f 106//106 107//107 108//108
f 106//106 3//3 109//109
f 110//110 109//109 3//3
f 109//109 110//110 111//111
f 109//109 111//111 107//107
f 110//110 3//3 114//114
f 113//113 111//111 110//110
f 114//114 112//112 110//110
f 110//110 112//112 113//113
f 3//3 117//117 114//114
f 116//116 114//114 115//115
f 114//114 117//117 118//118
f 114//114 118//118 115//115
f 114//114 116//116 112//112
f 118//118 117//117 5//5
f 5//5 117//117 3//3
f 116//116 115//115 118//118
f 118//118 5//5 119//119
f 116//116 118//118 119//119
f 123//123 119//119 5//5
f 119//119 121//121 120//120
f 119//119 122//122 121//121
f 123//123 122//122 119//119
f 123//123 5//5 125//125
f 127//127 124//124 123//123
f 124//124 323//323 122//122
f 124//124 122//122 123//123
f 123//123 125//125 126//126
f 126//126 127//127 123//123
f 124//124 127//127 128//128
f 124//124 128//128 129//129
f 130//130 124//124 129//129
f 130//130 131//131 124//124
f 131//131 130//130 132//132
f 130//130 133//133 132//132
f 133//133 130//130 134//134
f 137//137 133//133 134//134
f 137//137 134//134 135//135
f 134//134 136//136 135//135
f 134//134 139//139 136//136
f 138//138 139//139 134//134
f 136//136 139//139 140//140
f 141//141 140//140 139//139
f 139//139 142//142 141//141
f 143//143 147//147 142//142
f 143//143 142//142 144//144
f 145//145 144//144 142//142
f 146//146 145//145 142//142
f 147//147 141//141 142//142
f 147//147 148//148 141//141
f 149//149 148//148 147//147
f 147//147 150//150 149//149
f 147//147 143//143 150//150
f 150//150 151//151 149//149
f 153//153 151//151 150//150
f 150//150 152//152 153//153
f 143//143 247//247 152//152
f 143//143 152//152 150//150
f 151//151 153//153 155//155
f 152//152 154//154 153//153
f 153//153 154//154 157//157
f 153//153 156//156 155//155
f 157//157 156//156 153//153
f 154//154 158//158 157//157
f 156//156 157//157 159//159
f 156//156 159//159 162//162
f 157//157 158//158 160//160
f 157//157 160//160 159//159
f 159//159 160//160 161//161
f 161//161 163//163 159//159
f 163//163 162//162 159//159
f 164//164 162//162 163//163
f 165//165 162//162 164//164
f 164//164 166//166 165//165
f 167//167 166//166 164//164
f 166//166 167//167 168//168
f 169//169 171//171 168//168
f 168//168 170//170 169//169
f 171//171 166//166 168//168
f 172//172 165//165 166//166
f 172//172 166//166 171//171
f 172//172 171//171 173//173
f 173//173 171//171 169//169
f 174//174 173//173 169//169
f 174//174 169//169 181//181
f 177//177 175//175 173//173
f 177//177 173//173 174//174
f 173//173 175//175 172//172
f 175//175 176//176 172//172
f 149//149 151//151 176//176
f 149//149 176//176 175//175
f 148//148 149//149 175//175
f 148//148 175//175 177//177
f 177//177 174//174 178//178
f 141//141 148//148 177//177
f 178//178 141//141 177//177
f 178//178 174//174 181//181
f 141//141 178//178 140//140
f 140//140 178//178 179//179
f 180//180 179//179 178//178
f 181//181 180//180 178//178
f 181//181 169//169 182//182
f 181//181 182//182 180//180
f 170//170 180//180 182//182
f 182//182 169//169 170//170
f 179//179 180//180 183//183
f 179//179 183//183 185//185
f 170//170 183//183 180//180
f 184//184 183//183 187//187
f 183//183 184//184 186//186
f 185//185 183//183 186//186
f 185//185 186//186 189//189
f 187//187 183//183 170//170
f 184//184 191//191 186//186
f 190//190 188//188 186//186
f 188//188 189//189 186//186
f 186//186 191//191 190//190
f 192//192 190//190 191//191
f 192//192 191//191 184//184
f 184//184 195//195 192//192
f 190//190 192//192 193//193
f 193//193 192//192 194//194
f 195//195 194//194 192//192
f 184//184 197//197 195//195
f 194//194 195//195 196//196
f 194//194 196//196 400//400
f 195//195 197//197 196//196
f 196//196 197//197 198//198
f 199//199 200//200 198//198
f 196//196 198//198 200//200
f 200//200 199//199 203//203
f 202//202 200//200 201//201
f 200//200 203//203 205//205
f 200//200 205//205 201//201
f 202//202 196//196 200//200
f 207//207 204//204 203//203
f 203//203 204//204 398//398
f 203//203 398//398 205//205
f 203//203 199//199 206//206
f 206//206 207//207 203//203
f 207//207 208//208 204//204
f 208//208 209//209 204//204
f 208//208 210//210 209//209
f 208//208 211//211 210//210
f 212//212 213//213 211//211
f 211//211 213//213 210//210
f 210//210 213//213 214//214
f 213//213 212//212 214//214
f 214//214 215//215 217//217
f 216//216 278//278 215//215
f 216//216 215//215 214//214
f 216//216 214//214 218//218
f 217//217 210//210 214//214
f 212//212 218//218 214//214
f 218//218 219//219 216//216
f 216//216 219//219 220//220
f 219//219 222//222 220//220
f 221//221 222//222 219//219
f 224//224 223//223 222//222
f 220//220 222//222 223//223
f 222//222 221//221 224//224
f 223//223 224//224 225//225
f 224//224 221//221 227//227
f 226//226 281//281 225//225
f 226//226 225//225 224//224
f 227//227 226//226 224//224
f 227//227 221//221 229//229
f 226//226 227//227 228//228
f 227//227 229//229 228//228
f 230//230 229//229 221//221
f 230//230 234//234 228//228
f 230//230 228//228 229//229
f 231//231 230//230 221//221
f 230//230 231//231 235//235
f 230//230 232//232 233//233
f 230//230 235//235 232//232
f 233//233 234//234 230//230
f 235//235 231//231 236//236
f 232//232 235//235 236//236
f 236//236 237//237 232//232
f 236//236 238//238 237//237
f 238//238 160//160 237//237
f 161//161 160//160 238//238
f 158//158 239//239 237//237
f 158//158 237//237 160//160
f 239//239 240//240 232//232
f 239//239 232//232 237//237
f 241//241 240//240 239//239
f 154//154 241//241 239//239
f 239//239 158//158 154//154
f 241//241 154//154 152//152
f 241//241 242//242 233//233
f 241//241 233//233 240//240
f 243//243 242//242 241//241
f 152//152 243//243 241//241
f 247//247 245//245 243//243
f 247//247 243//243 152//152
f 243//243 244//244 271//271
f 243//243 271//271 242//242
f 245//245 246//246 244//244
f 245//245 244//244 243//243
f 249//249 246//246 245//245
f 245//245 247//247 248//248
f 248//248 249//249 245//245
f 249//249 248//248 250//250
f 250//250 251//251 249//249
f 251//251 252//252 249//249
f 252//252 246//246 249//249
f 252//252 254//254 253//253
f 246//246 252//252 253//253
f 255//255 254//254 252//252
f 255//255 252//252 251//251
f 255//255 256//256 254//254
f 254//254 257//257 253//253
f 257//257 254//254 256//256
f 256//256 255//255 258//258
f 260//260 259//259 258//258
f 258//258 255//255 260//260
f 260//260 255//255 251//251
f 260//260 251//251 250//250
f 261//261 260//260 250//250
f 261//261 250//250 263//263
f 259//259 260//260 261//261
f 261//261 264//264 262//262
f 259//259 261//261 262//262
f 264//264 261//261 263//263
f 264//264 263//263 266//266
f 145//145 146//146 264//264
f 145//145 264//264 266//266
f 145//145 266//266 144//144
f 265//265 264//264 146//146
f 262//262 264//264 265//265
f 248//248 267//267 266//266
f 266//266 263//263 248//248
f 267//267 144//144 266//266
f 267//267 247//247 143//143
f 247//247 267//267 248//248
f 267//267 143//143 144//144
f 248//248 263//263 250//250
f 270//270 253//253 268//268
f 253//253 269//269 268//268
f 270//270 246//246 253//253
f 270//270 271//271 244//244
f 271//271 270//270 272//272
f 271//271 272//272 282//282
f 272//272 270//270 273//273
f 270//270 244//244 246//246
f 270//270 268//268 273//273
f 273//273 268//268 274//274
f 276//276 273//273 274//274
f 276//276 274//274 277//277
f 275//275 272//272 273//273
f 275//275 273//273 276//276
f 276//276 277//277 220//220
f 223//223 276//276 220//220
f 275//275 276//276 223//223
f 278//278 277//277 274//274
f 220//220 277//277 278//278
f 220//220 278//278 216//216
f 279//279 215//215 278//278
f 274//274 279//279 278//278
f 279//279 217//217 215//215
f 279//279 280//280 217//217
f 274//274 268//268 280//280
f 274//274 280//280 279//279
f 269//269 280//280 268//268
f 217//217 280//280 269//269
f 223//223 225//225 275//275
f 275//275 225//225 281//281
f 272//272 275//275 281//281
f 281//281 282//282 272//272
f 283//283 282//282 281//281
f 283//283 281//281 226//226
f 271//271 282//282 283//283
f 283//283 233//233 271//271
f 283//283 234//234 233//233
f 283//283 226//226 228//228
f 228//228 234//234 283//283
f 233//233 242//242 271//271
f 217//217 269//269 284//284
f 285//285 217//217 284//284
f 217//217 285//285 210//210
f 210//210 285//285 209//209
f 285//285 286//286 209//209
f 285//285 287//287 286//286
f 287//287 288//288 292//292
f 288//288 287//287 289//289
f 289//289 287//287 290//290
f 290//290 287//287 291//291
f 292//292 286//286 287//287
f 296//296 293//293 292//292
f 292//292 293//293 294//294
f 294//294 295//295 292//292
f 295//295 286//286 292//292
f 292//292 288//288 296//296
f 293//293 296//296 298//298
f 293//293 298//298 303//303
f 288//288 297//297 296//296
f 296//296 297//297 299//299
f 296//296 299//299 298//298
f 299//299 301//301 298//298
f 298//298 302//302 300//300
f 303//303 298//298 300//300
f 303//303 300//300 304//304
f 301//301 302//302 298//298
f 294//294 293//293 303//303
f 303//303 304//304 305//305
f 305//305 294//294 303//303
f 306//306 305//305 307//307
f 306//306 307//307 133//133
f 325//325 294//294 305//305
f 325//325 305//305 306//306
f 307//307 305//305 308//308
f 305//305 304//304 308//308
f 308//308 309//309 307//307
f 308//308 310//310 311//311
f 308//308 311//311 309//309
f 304//304 300//300 310//310
f 304//304 310//310 308//308
f 310//310 300//300 312//312
f 310//310 313//313 311//311
f 312//312 313//313 310//310
f 316//316 313//313 312//312
f 311//311 313//313 314//314
f 314//314 313//313 315//315
f 315//315 313//313 316//316
f 315//315 316//316 317//317
f 317//317 316//316 318//318
f 319//319 317//317 318//318
f 319//319 320//320 317//317
f 317//317 320//320 321//321
f 121//121 317//317 321//321
f 121//121 321//321 120//120
f 315//315 317//317 322//322
f 317//317 121//121 322//322
f 122//122 322//322 121//121
f 322//322 122//122 323//323
f 323//323 315//315 322//322
f 131//131 323//323 124//124
f 323//323 131//131 315//315
f 131//131 314//314 315//315
f 314//314 324//324 311//311
f 324//324 314//314 131//131
f 324//324 131//131 132//132
f 324//324 309//309 311//311
f 309//309 324//324 307//307
f 307//307 324//324 132//132
f 300//300 302//302 312//312
f 133//133 307//307 132//132
f 137//137 325//325 306//306
f 133//133 137//137 306//306
f 294//294 325//325 326//326
f 294//294 326//326 295//295
f 326//326 325//325 327//327
f 327//327 325//325 137//137
f 202//202 201//201 326//326
f 202//202 326//326 327//327
f 399//399 202//202 327//327
f 399//399 327//327 137//137
f 326//326 201//201 205//205
f 295//295 326//326 205//205
f 301//301 299//299 328//328
f 299//299 329//329 328//328
f 329//329 330//330 332//332
f 330//330 329//329 331//331
f 331//331 329//329 299//299
f 334//334 333//333 332//332
f 333//333 335//335 332//332
f 332//332 330//330 334//334
f 333//333 336//336 335//335
f 333//333 337//337 336//336
f 337//337 338//338 336//336
f 337//337 339//339 338//338
f 341//341 340//340 339//339
f 341//341 339//339 342//342
f 343//343 342//342 339//339
f 343//343 339//339 337//337
f 343//343 344//344 390//390
f 343//343 390//390 342//342
f 345//345 347//347 344//344
f 345//345 344//344 343//343
f 346//346 345//345 343//343
f 346//346 343//343 337//337
f 345//345 346//346 291//291
f 291//291 347//347 345//345
f 291//291 348//348 347//347
f 344//344 347//347 348//348
f 344//344 348//348 349//349
f 348//348 350//350 349//349
f 353//353 350//350 351//351
f 350//350 352//352 351//351
f 349//349 350//350 353//353
f 349//349 353//353 354//354
f 354//354 353//353 355//355
f 353//353 356//356 355//355
f 351//351 356//356 353//353
f 355//355 356//356 357//357
f 355//355 357//357 361//361
f 356//356 351//351 360//360
f 356//356 360//360 357//357
f 359//359 357//357 358//358
f 358//358 357//357 360//360
f 359//359 361//361 357//357
f 362//362 361//361 363//363
f 393//393 355//355 361//361
f 393//393 361//361 362//362
f 359//359 363//363 361//361
f 363//363 364//364 362//362
f 364//364 363//363 365//365
f 366//366 365//365 363//363
f 366//366 363//363 367//367
f 368//368 367//367 363//363
f 363//363 369//369 368//368
f 105//105 369//369 363//363
f 104//104 370//370 369//369
f 370//370 371//371 368//368
f 370//370 368//368 369//369
f 105//105 104//104 369//369
f 372//372 370//370 108//108
f 108//108 370//370 104//104
f 370//370 372//372 371//371
f 108//108 373//373 372//372
f 374//374 371//371 372//372
f 371//371 374//374 375//375
f 375//375 376//376 377//377
f 375//375 377//377 371//371
f 376//376 378//378 377//377
f 377//377 378//378 367//367
f 368//368 371//371 377//377
f 367//367 368//368 377//377
f 366//366 367//367 378//378
f 378//378 376//376 366//366
f 379//379 373//373 108//108
f 111//111 380//380 379//379
f 379//379 108//108 111//111
f 111//111 113//113 380//380
f 366//366 381//381 365//365
f 383//383 382//382 381//381
f 382//382 365//365 381//381
f 384//384 382//382 383//383
f 384//384 385//385 382//382
f 382//382 385//385 386//386
f 385//385 387//387 386//386
f 388//388 386//386 387//387
f 340//340 388//388 387//387
f 389//389 349//349 388//388
f 389//389 388//388 340//340
f 386//386 388//388 349//349
f 349//349 389//389 390//390
f 342//342 390//390 389//389
f 342//342 389//389 341//341
f 340//340 341//341 389//389
f 349//349 390//390 344//344
f 386//386 391//391 382//382
f 392//392 391//391 386//386
f 392//392 386//386 349//349
f 391//391 392//392 364//364
f 391//391 364//364 365//365
f 349//349 354//354 392//392
f 392//392 354//354 393//393
f 392//392 393//393 364//364
f 382//382 391//391 365//365
f 393//393 362//362 364//364
f 355//355 393//393 354//354
f 351//351 352//352 360//360
f 352//352 394//394 360//360
f 360//360 394//394 395//395
f 395//395 358//358 360//360
f 290//290 291//291 346//346
f 346//346 337//337 333//333
f 290//290 346//346 333//333
f 333//333 334//334 290//290
f 289//289 290//290 334//334
f 289//289 334//334 396//396
f 334//334 330//330 396//396
f 289//289 396//396 397//397
f 397//397 396//396 330//330
f 397//397 330//330 331//331
f 288//288 289//289 397//397
f 397//397 297//297 288//288
f 297//297 397//397 331//331
f 297//297 331//331 299//299
f 205//205 398//398 295//295
f 398//398 209//209 286//286
f 398//398 286//286 295//295
f 209//209 398//398 204//204
f 232//232 240//240 233//233
f 401//401 400//400 202//202
f 401//401 202//202 399//399
f 196//196 202//202 400//400
f 194//194 400//400 401//401
f 401//401 193//193 194//194
f 401//401 135//135 193//193
f 135//135 401//401 399//399
f 135//135 399//399 137//137
f 135//135 188//188 193//193
f 188//188 190//190 193//193
f 136//136 189//189 188//188
f 136//136 188//188 135//135
f 185//185 189//189 136//136
f 140//140 179//179 185//185
f 136//136 140//140 185//185
f 155//155 176//176 151//151
f 176//176 155//155 165//165
f 176//176 165//165 172//172
f 155//155 156//156 162//162
f 155//155 162//162 165//165
f 111//111 108//108 107//107
f 82//82 80//80 91//91
f 91//91 80//80 81//81
f 7//7 8//8 88//88
f 7//7 88//88 403//403
f 88//88 87//87 402//402
f 88//88 402//402 403//403
f 403//403 402//402 6//6
f 403//403 6//6 7//7
f 56//56 75//75 58//58
f 72//72 42//42 43//43
f 68//68 46//46 72//72
f 42//42 72//72 46//46
f 69//69 71//71 404//404
f 404//404 71//71 59//59
f 404//404 59//59 60//60
f 57//57 59//59 71//71
f 69//69 404//404 63//63
f 63//63 404//404 60//60
f 69//69 63//63 64//64
f 66//66 46//46 68//68
f 48//48 55//55 405//405
f 48//48 405//405 406//406
f 409//409 406//406 405//405
f 407//407 408//408 405//405
f 408//408 410//410 405//405
f 409//409 405//405 410//410
f 413//413 411//411 410//410
f 413//413 410//410 408//408
f 411//411 412//412 409//409
f 411//411 409//409 410//410
f 413//413 15//15 411//411
f 411//411 15//15 412//412
f 15//15 413//413 414//414
f 414//414 413//413 408//408
f 420//420 15//15 414//414
f 416//416 414//414 415//415
f 414//414 408//408 415//415
f 414//414 416//416 417//417
f 417//417 418//418 414//414
f 419//419 414//414 418//418
f 414//414 419//419 420//420
f 415//415 408//408 407//407
f 17//17 412//412 15//15
f 412//412 406//406 409//409
f 17//17 406//406 412//412
f 17//17 18//18 421//421
f 17//17 421//421 406//406
f 421//421 48//48 406//406
f 421//421 18//18 19//19
f 421//421 19//19 422//422
f 48//48 421//421 422//422
f 422//422 19//19 423//423
f 423//423 49//49 422//422
f 48//48 422//422 49//49
f 19//19 424//424 423//423
f 423//423 424//424 425//425
f 425//425 45//45 423//423
f 426//426 37//37 39//39
f 426//426 39//39 425//425
f 424//424 426//426 425//425
f 427//427 426//426 424//424
f 427//427 26//26 37//37
f 427//427 37//37 426//426
f 20//20 24//24 427//427
f 424//424 20//20 427//427
f 20//20 424//424 19//19
f 428//428 429//429 431//431
f 429//429 428//428 430//430
f 432//432 431//431 429//429
f 434//434 433//433 435//435
f 435//435 436//436 434//434
f 436//436 437//437 434//434
f 439//439 441//441 440//440
f 439//439 440//440 438//438
f 442//442 444//444 445//445
f 442//442 445//445 443//443
f 447//447 446//446 448//448
f 447//447 448//448 451//451
f 450//450 448//448 449//449
f 448//448 450//450 451//451
f 452//452 447//447 451//451
f 450//450 453//453 451//451
f 456//456 454//454 453//453
f 456//456 453//453 450//450
f 457//457 455//455 454//454
f 457//457 454//454 456//456
f 458//458 456//456 450//450
f 458//458 450//450 449//449
f 456//456 458//458 459//459
f 456//456 459//459 457//457
f 460//460 462//462 457//457
f 460//460 457//457 459//459
f 461//461 464//464 462//462
f 461//461 462//462 460//460
f 463//463 462//462 464//464
f 463//463 464//464 465//465
f 462//462 463//463 455//455
f 462//462 455//455 457//457
f 466//466 468//468 465//465
f 466//466 465//465 464//464
f 469//469 466//466 464//464
f 469//469 464//464 461//461
f 467//467 471//471 468//468
f 467//467 468//468 466//466
f 470//470 467//467 466//466
f 470//470 466//466 469//469
f 473//473 475//475 474//474
f 473//473 474//474 472//472
f 478//478 476//476 475//475
f 478//478 475//475 473//473
f 479//479 477//477 476//476
f 479//479 476//476 478//478
f 480//480 481//481 477//477
f 480//480 477//477 479//479
f 483//483 485//485 484//484
f 483//483 484//484 482//482
f 488//488 486//486 485//485
f 488//488 485//485 483//483
f 489//489 487//487 486//486
f 489//489 486//486 488//488
f 490//490 491//491 487//487
f 490//490 487//487 489//489
f 493//493 495//495 494//494
f 493//493 494//494 492//492
f 497//497 496//496 495//495
f 497//497 495//495 493//493
f 498//498 501//501 499//499
f 499//499 500//500 498//498
f 501//501 502//502 499//499
f 504//504 505//505 503//503
f 506//506 503//503 505//505
f 506//506 505//505 508//508
f 506//506 507//507 509//509
f 507//507 506//506 508//508
f 509//509 507//507 510//510
f 511//511 512//512 510//510
f 510//510 507//507 511//511
f 512//512 511//511 513//513
f 515//515 514//514 512//512
f 515//515 512//512 513//513
f 517//517 516//516 514//514
f 517//517 514//514 515//515
f 519//519 518//518 516//516
f 519//519 516//516 517//517
f 521//521 520//520 518//518
f 521//521 518//518 519//519
f 523//523 522//522 520//520
f 523//523 520//520 521//521
f 525//525 524//524 522//522
f 525//525 522//522 523//523
f 526//526 525//525 523//523
f 526//526 523//523 527//527
f 527//527 523//523 521//521
f 527//527 521//521 528//528
f 528//528 521//521 519//519
f 528//528 519//519 529//529
f 529//529 519//519 517//517
f 529//529 517//517 530//530
f 530//530 517//517 515//515
f 530//530 515//515 531//531
f 515//515 532//532 531//531
f 515//515 513//513 532//532
f 532//532 513//513 533//533
f 532//532 533//533 504//504
f 513//513 508//508 505//505
f 513//513 505//505 533//533
f 533//533 505//505 504//504
f 511//511 507//507 508//508
f 511//511 508//508 513//513
f 535//535 537//537 536//536
f 535//535 536//536 534//534
f 539//539 541//541 540//540
f 539//539 540//540 538//538
f 543//543 542//542 541//541
f 543//543 541//541 539//539
f 545//545 547//547 546//546
f 545//545 546//546 544//544
f 548//548 549//549 551//551
f 549//549 548//548 550//550
f 552//552 551//551 549//549
f 554//554 556//556 555//555
f 554//554 555//555 553//553
f 559//559 557//557 556//556
f 559//559 556//556 554//554
f 560//560 558//558 557//557
f 560//560 557//557 559//559
f 561//561 562//562 558//558
f 561//561 558//558 560//560
f 564//564 566//566 565//565
f 564//564 565//565 563//563
f 569//569 567//567 566//566
f 569//569 566//566 564//564
f 570//570 568//568 567//567
f 570//570 567//567 569//569
f 571//571 572//572 568//568
f 571//571 568//568 570//570
f 573//573 575//575 576//576
f 573//573 576//576 574//574
f 578//578 577//577 579//579
f 578//578 579//579 580//580
f 582//582 578//578 580//580
f 582//582 580//580 581//581
f 585//585 582//582 581//581
f 585//585 581//581 583//583
f 586//586 585//585 583//583
f 586//586 583//583 584//584
f 587//587 586//586 584//584
f 587//587 584//584 589//589
f 588//588 587//587 589//589
f 588//588 589//589 590//590
f 592//592 594//594 593//593
f 592//592 593//593 591//591
f 596//596 598//598 597//597
f 596//596 597//597 595//595
f 600//600 599//599 598//598
f 600//600 598//598 596//596
f 603//603 601//601 599//599
f 603//603 599//599 600//600
f 604//604 602//602 601//601
f 604//604 601//601 603//603
f 605//605 606//606 602//602
f 605//605 602//602 604//604
f 607//607 608//608 606//606
f 607//607 606//606 605//605
f 610//610 612//612 611//611
f 610//610 611//611 609//609
f 614//614 616//616 615//615
f 614//614 615//615 613//613
f 618//618 620//620 619//619
f 618//618 619//619 617//617
f 622//622 624//624 623//623
f 622//622 623//623 621//621
f 626//626 628//628 627//627
f 626//626 627//627 625//625
f 631//631 629//629 628//628
f 631//631 628//628 626//626
f 632//632 630//630 629//629
f 632//632 629//629 631//631
f 633//633 634//634 630//630
f 633//633 630//630 632//632
f 636//636 638//638 637//637
f 636//636 637//637 635//635
f 641//641 639//639 638//638
f 641//641 638//638 636//636
f 642//642 640//640 639//639
f 642//642 639//639 641//641
f 643//643 644//644 640//640
f 643//643 640//640 642//642
f 646//646 648//648 647//647
f 646//646 647//647 645//645
f 651//651 649//649 648//648
f 651//651 648//648 646//646
f 652//652 650//650 649//649
f 652//652 649//649 651//651
f 653//653 654//654 650//650
f 653//653 650//650 652//652
f 656//656 658//658 657//657
f 656//656 657//657 655//655
f 661//661 659//659 658//658
f 661//661 658//658 656//656
f 662//662 660//660 659//659
f 662//662 659//659 661//661
f 663//663 664//664 660//660
f 663//663 660//660 662//662
f 665//665 667//667 666//666
f 668//668 667//667 665//665
f 665//665 669//669 668//668
f 669//669 665//665 670//670
f 672//672 669//669 670//670
f 672//672 670//670 671//671
f 672//672 671//671 673//673
f 674//674 672//672 673//673
f 673//673 675//675 674//674
f 675//675 676//676 674//674
f 676//676 675//675 677//677
f 677//677 678//678 680//680
f 677//677 680//680 676//676
f 679//679 680//680 678//678
f 676//676 680//680 681//681
f 676//676 681//681 674//674
f 668//668 680//680 679//679
f 680//680 668//668 681//681
f 668//668 669//669 681//681
f 674//674 681//681 669//669
f 674//674 669//669 672//672
f 679//679 682//682 668//668
f 682//682 679//679 683//683
f 683//683 684//684 685//685
f 683//683 685//685 682//682
f 684//684 686//686 685//685
f 687//687 685//685 686//686
f 687//687 686//686 688//688
f 689//689 690//690 688//688
f 687//687 688//688 690//690
f 691//691 687//687 690//690
f 691//691 690//690 667//667
f 667//667 690//690 689//689
f 667//667 689//689 666//666
f 682//682 685//685 687//687
f 682//682 687//687 691//691
f 668//668 682//682 691//691
f 667//667 668//668 691//691
f 692//692 694//694 693//693
f 695//695 694//694 692//692
f 696//696 695//695 692//692
f 697//697 695//695 696//696
f 696//696 698//698 697//697
f 698//698 696//696 699//699
f 701//701 698//698 699//699
f 701//701 699//699 700//700
f 701//701 700//700 702//702
f 702//702 703//703 701//701
f 701//701 703//703 704//704
f 704//704 705//705 698//698
f 704//704 698//698 701//701
f 697//697 698//698 705//705
f 695//695 697//697 706//706
f 706//706 707//707 695//695
f 707//707 706//706 708//708
f 708//708 709//709 711//711
f 708//708 711//711 707//707
f 713//713 711//711 709//709
f 713//713 709//709 710//710
f 707//707 711//711 712//712
f 707//707 712//712 717//717
f 713//713 712//712 711//711
f 713//713 714//714 715//715
f 713//713 715//715 712//712
f 717//717 712//712 715//715
f 717//717 715//715 694//694
f 694//694 715//715 716//716
f 694//694 716//716 693//693
f 716//716 715//715 714//714
f 694//694 695//695 717//717
f 695//695 707//707 717//717
f 719//719 721//721 720//720
f 719//719 720//720 718//718
f 723//723 722//722 721//721
f 723//723 721//721 719//719
f 725//725 727//727 726//726
f 725//725 726//726 724//724
f 729//729 731//731 730//730
f 729//729 730//730 728//728
f 735//735 733//733 732//732
f 733//733 748//748 734//734
f 733//733 734//734 732//732
f 736//736 733//733 735//735
f 735//735 737//737 736//736
f 737//737 735//735 738//738
f 740//740 737//737 738//738
f 740//740 738//738 739//739
f 740//740 739//739 741//741
f 741//741 742//742 740//740
f 742//742 743//743 740//740
f 743//743 744//744 737//737
f 743//743 737//737 740//740
f 736//736 737//737 744//744
f 733//733 736//736 745//745
f 745//745 746//746 748//748
f 745//745 748//748 733//733
f 747//747 748//748 746//746
f 748//748 749//749 734//734
f 748//748 747//747 749//749
f 751//751 753//753 752//752
f 751//751 752//752 750//750
f 755//755 754//754 753//753
f 755//755 753//753 751//751
f 757//757 759//759 758//758
f 757//757 758//758 756//756
f 761//761 763//763 762//762
f 761//761 762//762 760//760
f 765//765 767//767 764//764
f 765//765 764//764 766//766
f 767//767 765//765 768//768
f 769//769 768//768 765//765
f 769//769 765//765 770//770
f 770//770 771//771 769//769
f 772//772 774//774 771//771
f 771//771 770//770 772//772
f 771//771 774//774 773//773
f 780//780 773//773 774//774
f 780//780 774//774 775//775
f 775//775 774//774 776//776
f 775//775 776//776 777//777
f 774//774 772//772 776//776
f 775//775 777//777 778//778
f 778//778 779//779 775//775
f 779//779 780//780 775//775
f 772//772 770//770 781//781
f 770//770 765//765 766//766
f 770//770 766//766 781//781
f 783//783 782//782 784//784
f 783//783 784//784 785//785
f 787//787 783//783 785//785
f 787//787 785//785 786//786
f 789//789 787//787 786//786
f 789//789 786//786 788//788
f 791//791 789//789 788//788
f 791//791 788//788 790//790
f 793//793 791//791 790//790
f 793//793 790//790 792//792
f 795//795 793//793 792//792
f 795//795 792//792 794//794
f 797//797 799//799 798//798
f 797//797 798//798 796//796
f 802//802 800//800 799//799
f 802//802 799//799 797//797
f 803//803 801//801 800//800
f 803//803 800//800 802//802
f 804//804 806//806 801//801
f 804//804 801//801 803//803
f 805//805 807//807 806//806
f 805//805 806//806 804//804
f 809//809 808//808 807//807
f 809//809 807//807 805//805
f 810//810 811//811 813//813
f 811//811 810//810 812//812
f 814//814 813//813 811//811
f 816//816 815//815 817//817
f 818//818 817//817 815//815
f 817//817 818//818 819//819
f 821//821 822//822 820//820
f 821//821 823//823 822//822
f 822//822 823//823 825//825
f 825//825 824//824 822//822
f 825//825 823//823 826//826
f 827//827 825//825 826//826
f 827//827 826//826 828//828
f 829//829 824//824 825//825
f 829//829 825//825 827//827
f 830//830 827//827 828//828
f 830//830 828//828 833//833
f 827//827 830//830 832//832
f 827//827 832//832 829//829
f 831//831 830//830 833//833
f 831//831 833//833 834//834
f 844//844 832//832 830//830
f 844//844 830//830 831//831
f 834//834 835//835 836//836
f 834//834 836//836 831//831
f 838//838 836//836 835//835
f 838//838 835//835 837//837
f 840//840 838//838 837//837
f 840//840 837//837 839//839
f 841//841 842//842 838//838
f 841//841 838//838 840//840
f 842//842 843//843 836//836
f 842//842 836//836 838//838
f 843//843 844//844 831//831
f 843//843 831//831 836//836
f 845//845 823//823 821//821
f 847//847 846//846 848//848
f 848//848 849//849 847//847
f 849//849 850//850 847//847
f 852//852 854//854 853//853
f 852//852 853//853 851//851
f 856//856 855//855 857//857
f 856//856 857//857 858//858
f 860//860 856//856 858//858
f 860//860 858//858 859//859
f 862//862 861//861 863//863
f 862//862 863//863 864//864
f 866//866 862//862 864//864
f 866//866 864//864 865//865
f 868//868 869//869 867//867
f 870//870 867//867 869//869
f 870//870 871//871 867//867
f 871//871 872//872 867//867
f 871//871 873//873 877//877
f 873//873 871//871 874//874
f 874//874 871//871 876//876
f 871//871 870//870 875//875
f 875//875 876//876 871//871
f 879//879 877//877 878//878
f 880//880 878//878 877//877
f 877//877 881//881 880//880
f 881//881 877//877 882//882
f 877//877 883//883 882//882
f 873//873 883//883 877//877
f 881//881 884//884 880//880
f 880//880 884//884 885//885
f 886//886 880//880 885//885
f 880//880 886//886 887//887
f 880//880 887//887 888//888
f 887//887 889//889 888//888
f 888//888 889//889 890//890
f 891//891 888//888 890//890
f 892//892 893//893 891//891
f 888//888 891//891 893//893
f 893//893 897//897 894//894
f 893//893 895//895 888//888
f 896//896 893//893 892//892
f 899//899 893//893 896//896
f 893//893 898//898 897//897
f 898//898 893//893 899//899
f 897//897 900//900 894//894
f 901//901 900//900 902//902
f 900//900 901//901 894//894
f 868//868 902//902 900//900
f 900//900 869//869 868//868
f 903//903 902//902 868//868
f 907//907 903//903 904//904
f 909//909 904//904 903//903
f 868//868 905//905 903//903
f 903//903 905//905 906//906
f 903//903 906//906 909//909
f 907//907 908//908 903//903
f 908//908 910//910 903//903
f 904//904 909//909 911//911
f 904//904 911//911 912//912
f 912//912 913//913 904//904
f 914//914 904//904 913//913
f 913//913 918//918 914//914
f 917//917 913//913 915//915
f 913//913 916//916 915//915
f 913//913 917//917 918//918
f 919//919 918//918 920//920
f 917//917 920//920 918//918
f 925//925 921//921 920//920
f 920//920 917//917 925//925
f 920//920 922//922 919//919
f 922//922 920//920 926//926
f 927//927 923//923 920//920
f 923//923 924//924 920//920
f 920//920 924//924 926//926
f 921//921 925//925 928//928
f 921//921 928//928 929//929
f 921//921 929//929 930//930
f 921//921 930//930 931//931
f 932//932 931//931 933//933
f 932//932 921//921 931//931
f 932//932 933//933 934//934
f 932//932 934//934 935//935
f 936//936 932//932 935//935
f 937//937 932//932 936//936
f 938//938 937//937 936//936
f 937//937 938//938 939//939
f 940//940 937//937 939//939
f 940//940 941//941 937//937
f 942//942 943//943 941//941
f 941//941 943//943 937//937
f 943//943 946//946 944//944
f 943//943 945//945 946//946
f 943//943 942//942 945//945
f 937//937 943//943 947//947
f 947//947 950//950 937//937
f 948//948 949//949 947//947
f 947//947 949//949 951//951
f 947//947 951//951 950//950
f 950//950 951//951 952//952
f 953//953 950//950 952//952
f 944//944 946//946 954//954
f 955//955 944//944 954//954
f 944//944 955//955 956//956
f 957//957 944//944 956//956
f 915//915 916//916 957//957
f 944//944 957//957 916//916
f 958//958 944//944 916//916
f 959//959 921//921 932//932
f 924//924 923//923 960//960
f 923//923 961//961 960//960
f 962//962 961//961 923//923
f 923//923 963//963 962//962
f 964//964 963//963 923//923
f 965//965 964//964 923//923
f 965//965 966//966 964//964
f 965//965 967//967 966//966
f 965//965 968//968 967//967
f 965//965 969//969 968//968
f 969//969 970//970 968//968
f 969//969 971//971 970//970
f 969//969 972//972 971//971
f 972//972 969//969 974//974
f 972//972 974//974 973//973
f 974//974 979//979 975//975
f 975//975 976//976 974//974
f 974//974 976//976 977//977
f 973//973 974//974 977//977
f 974//974 894//894 979//979
f 974//974 978//978 894//894
f 980//980 979//979 894//894
f 980//980 894//894 981//981
f 982//982 981//981 894//894
f 901//901 982//982 894//894
f 983//983 969//969 965//965
f 969//969 983//983 984//984
f 984//984 985//985 969//969
f 986//986 983//983 965//965
f 986//986 965//965 987//987
f 907//907 904//904 988//988
f 988//988 904//904 989//989
f 990//990 878//878 880//880
f 878//878 990//990 991//991
f 990//990 992//992 991//991
f 993//993 879//879 878//878
f 879//879 993//993 994//994
