# joint_16 exported from /models/guards/joint_16.glb
# units: meters
v -0.036708 0.001000 0.028072
v -0.046903 0.001000 0.028243
v -0.043028 0.001000 0.025938
v -0.042375 0.001000 0.025496
v -0.041952 0.001000 0.024830
v -0.036767 0.001000 0.024147
v -0.034767 0.001000 0.024117
v -0.043082 0.001000 0.022324
v -0.041826 0.001000 0.024113
v -0.041974 0.001000 0.023399
v -0.042416 0.001000 0.022747
v -0.043799 0.001000 0.022198
v -0.047024 0.001000 0.020244
v -0.048550 0.001000 0.020572
v -0.045588 0.001000 0.023453
v -0.045165 0.001000 0.022788
v -0.044513 0.001000 0.022345
v -0.018427 0.001000 0.019210
v -0.021972 0.001000 0.022299
v -0.022506 0.001000 0.022452
v -0.012530 0.001000 0.020732
v -0.017713 0.001000 0.021771
v -0.004698 0.001000 0.015220
v -0.007716 0.001000 0.019289
v 0.000775 0.001000 0.015209
v -0.003281 0.001000 0.017448
v 0.004461 0.001000 0.012575
v 0.006803 0.001000 0.006857
v 0.007780 0.001000 0.009541
v 0.010741 0.001000 0.006103
v 0.013345 0.001000 0.002254
v 0.014290 0.001000 -0.005256
v 0.017486 0.001000 -0.006702
v 0.015594 0.001000 -0.002013
v 0.019010 0.001000 -0.011781
v 0.018012 0.001000 -0.019084
v 0.020908 0.001000 -0.022589
v 0.020150 0.001000 -0.017166
v 0.021070 0.001000 -0.023122
v 0.018739 0.001000 -0.047663
v 0.022888 0.001000 -0.035291
v 0.022858 0.001000 -0.037291
v 0.021450 0.001000 -0.023588
v 0.021009 0.001000 -0.043891
v 0.022537 0.001000 -0.023920
v 0.021983 0.001000 -0.023867
v 0.026930 0.001000 -0.035352
v 0.023082 0.001000 -0.023762
v 0.023561 0.001000 -0.023375
v 0.023844 0.001000 -0.022829
v 0.025622 0.001000 -0.016087
v 0.023890 0.001000 -0.022263
v 0.023106 0.001000 -0.016658
v 0.021918 0.001000 -0.011043
v 0.021116 0.001000 -0.000861
v 0.020318 0.001000 -0.005712
v 0.018317 0.001000 -0.000753
v 0.015920 0.001000 0.003794
v 0.013125 0.001000 0.007924
v 0.012547 0.001000 0.012430
v 0.009933 0.001000 0.011630
v 0.006348 0.001000 0.014907
v -0.000111 0.001000 0.021887
v -0.015193 0.001000 0.026792
v -0.006712 0.001000 0.022116
v -0.001982 0.001000 0.020151
v 0.002374 0.001000 0.017748
v -0.011806 0.001000 0.023644
v -0.017249 0.001000 0.024735
v -0.021692 0.001000 0.025286
v -0.034708 0.001000 0.028052
v -0.022258 0.001000 0.025231
v -0.022801 0.001000 0.024938
v -0.023179 0.001000 0.024451
v -0.023328 0.001000 0.023903
v -0.023265 0.001000 0.023350
v -0.022977 0.001000 0.022824
v 0.020862 0.001000 -0.044605
v 0.021452 0.001000 -0.043239
v 0.022118 0.001000 -0.042816
v 0.022835 0.001000 -0.042690
v 0.023549 0.001000 -0.042837
v 0.026906 0.001000 -0.037352
v 0.024201 0.001000 -0.043280
v 0.024624 0.001000 -0.043945
v 0.026738 0.001000 -0.047782
v 0.024750 0.001000 -0.044663
v 0.024603 0.001000 -0.045376
v 0.024160 0.001000 -0.046029
v 0.023494 0.001000 -0.046452
v 0.022777 0.001000 -0.046578
v 0.025524 0.001000 -0.050593
v 0.026411 0.001000 -0.049308
v 0.024214 0.001000 -0.051441
v 0.022679 0.001000 -0.051722
v 0.021153 0.001000 -0.051395
v 0.019868 0.001000 -0.050508
v 0.022064 0.001000 -0.046430
v 0.019021 0.001000 -0.049198
v 0.021411 0.001000 -0.045988
v 0.020988 0.001000 -0.045322
v -0.045714 0.001000 0.024171
v -0.049834 0.001000 0.021458
v -0.050682 0.001000 0.022769
v -0.050963 0.001000 0.024304
v -0.050636 0.001000 0.025830
v -0.049749 0.001000 0.027114
v -0.045567 0.001000 0.024884
v -0.048438 0.001000 0.027962
v -0.045124 0.001000 0.025537
v -0.044459 0.001000 0.025960
v -0.043741 0.001000 0.026086
v -0.043799 -0.001000 0.022198
v -0.043082 -0.001000 0.022324
v -0.043799 0.001000 0.022198
v -0.043082 0.001000 0.022324
v -0.042416 0.001000 0.022747
v -0.041974 0.001000 0.023399
v -0.042416 -0.001000 0.022747
v -0.041974 -0.001000 0.023399
v -0.041826 -0.001000 0.024113
v -0.041952 -0.001000 0.024830
v -0.041826 0.001000 0.024113
v -0.041952 0.001000 0.024830
v -0.042375 0.001000 0.025496
v -0.043028 0.001000 0.025938
v -0.042375 -0.001000 0.025496
v -0.043028 -0.001000 0.025938
v -0.043741 -0.001000 0.026086
v -0.044459 -0.001000 0.025960
v -0.043741 0.001000 0.026086
v -0.044459 0.001000 0.025960
v -0.045124 0.001000 0.025537
v -0.045567 0.001000 0.024884
v -0.045124 -0.001000 0.025537
v -0.045567 -0.001000 0.024884
v -0.045714 -0.001000 0.024171
v -0.045588 -0.001000 0.023453
v -0.045714 0.001000 0.024171
v -0.045588 0.001000 0.023453
v -0.045165 0.001000 0.022788
v -0.044513 0.001000 0.022345
v -0.045165 -0.001000 0.022788
v -0.044513 -0.001000 0.022345
v -0.043799 -0.001000 0.022198
v -0.043799 0.001000 0.022198
v 0.020862 -0.001000 -0.044605
v 0.021009 -0.001000 -0.043891
v 0.020862 0.001000 -0.044605
v 0.021009 0.001000 -0.043891
v 0.021452 0.001000 -0.043239
v 0.021452 -0.001000 -0.043239
v 0.022118 0.001000 -0.042816
v 0.022118 -0.001000 -0.042816
v 0.022835 0.001000 -0.042690
v 0.022835 -0.001000 -0.042690
v 0.023549 0.001000 -0.042837
v 0.023549 -0.001000 -0.042837
v 0.024201 0.001000 -0.043280
v 0.024201 -0.001000 -0.043280
v 0.024624 0.001000 -0.043945
v 0.024624 -0.001000 -0.043945
v 0.024750 0.001000 -0.044663
v 0.024603 0.001000 -0.045376
v 0.024750 -0.001000 -0.044663
v 0.024603 -0.001000 -0.045376
v 0.024160 -0.001000 -0.046029
v 0.023494 -0.001000 -0.046452
v 0.024160 0.001000 -0.046029
v 0.023494 0.001000 -0.046452
v 0.022777 0.001000 -0.046578
v 0.022064 0.001000 -0.046430
v 0.022777 -0.001000 -0.046578
v 0.022064 -0.001000 -0.046430
v 0.021411 -0.001000 -0.045988
v 0.020988 -0.001000 -0.045322
v 0.021411 0.001000 -0.045988
v 0.020988 0.001000 -0.045322
v 0.020862 0.001000 -0.044605
v 0.020862 -0.001000 -0.044605
v 0.020908 -0.001000 -0.022589
v 0.021070 -0.001000 -0.023122
v 0.020908 0.000000 -0.022589
v 0.020908 0.001000 -0.022589
v 0.021070 0.001000 -0.023122
v 0.021450 0.001000 -0.023588
v 0.021450 -0.001000 -0.023588
v 0.021983 0.001000 -0.023867
v 0.021983 -0.001000 -0.023867
v 0.022537 0.000000 -0.023920
v 0.022537 0.001000 -0.023920
v 0.022537 -0.001000 -0.023920
v 0.022537 -0.001000 -0.023920
v 0.023082 -0.001000 -0.023762
v 0.022537 0.000000 -0.023920
v 0.022537 0.001000 -0.023920
v 0.023082 0.001000 -0.023762
v 0.023561 0.001000 -0.023375
v 0.023561 -0.001000 -0.023375
v 0.023844 0.001000 -0.022829
v 0.023844 -0.001000 -0.022829
v 0.023890 0.000000 -0.022263
v 0.023890 0.001000 -0.022263
v 0.023890 -0.001000 -0.022263
v 0.023890 -0.001000 -0.022263
v 0.023890 0.000000 -0.022263
v 0.023533 -0.001000 -0.019392
v 0.023533 0.001000 -0.019392
v 0.023106 -0.001000 -0.016658
v 0.023106 0.001000 -0.016658
v 0.022568 -0.001000 -0.013840
v 0.021918 -0.001000 -0.011043
v 0.022568 0.001000 -0.013840
v 0.021918 0.001000 -0.011043
v 0.021180 0.001000 -0.008374
v 0.021180 -0.001000 -0.008374
v 0.020318 0.001000 -0.005712
v 0.019377 0.001000 -0.003208
v 0.020318 -0.001000 -0.005712
v 0.019377 -0.001000 -0.003208
v 0.018317 -0.001000 -0.000753
v 0.018317 0.001000 -0.000753
v 0.017178 -0.001000 0.001552
v 0.017178 0.001000 0.001552
v 0.015920 -0.001000 0.003794
v 0.014581 -0.001000 0.005899
v 0.015920 0.001000 0.003794
v 0.014581 0.001000 0.005899
v 0.013125 0.001000 0.007924
v 0.011584 0.001000 0.009824
v 0.013125 -0.001000 0.007924
v 0.011584 -0.001000 0.009824
v 0.009933 -0.001000 0.011630
v 0.008189 -0.001000 0.013322
v 0.009933 0.001000 0.011630
v 0.008189 0.001000 0.013322
v 0.006348 0.001000 0.014907
v 0.004403 0.001000 0.016386
v 0.006348 -0.001000 0.014907
v 0.004403 -0.001000 0.016386
v 0.002374 -0.001000 0.017748
v 0.002374 0.001000 0.017748
v 0.000230 -0.001000 0.019012
v -0.001982 -0.001000 0.020151
v 0.000230 0.001000 0.019012
v -0.001982 0.001000 0.020151
v -0.004320 0.001000 0.021197
v -0.006712 0.001000 0.022116
v -0.004320 -0.001000 0.021197
v -0.006712 -0.001000 0.022116
v -0.009242 -0.001000 0.022943
v -0.011806 -0.001000 0.023644
v -0.009242 0.001000 0.022943
v -0.011806 0.001000 0.023644
v -0.014516 0.001000 0.024250
v -0.017249 0.001000 0.024735
v -0.014516 -0.001000 0.024250
v -0.017249 -0.001000 0.024735
v -0.019459 -0.001000 0.025044
v -0.019459 0.001000 0.025044
v -0.021692 -0.000000 0.025286
v -0.021692 -0.001000 0.025286
v -0.021692 0.001000 0.025286
v 0.023890 0.001000 -0.022263
v -0.021692 -0.001000 0.025286
v -0.021692 -0.000000 0.025286
v -0.022258 -0.001000 0.025231
v -0.022801 -0.001000 0.024938
v -0.022258 0.001000 0.025231
v -0.021692 0.001000 0.025286
v -0.022801 0.001000 0.024938
v -0.023179 0.001000 0.024451
v -0.023179 -0.001000 0.024451
v -0.023328 0.001000 0.023903
v -0.023328 -0.001000 0.023903
v -0.023265 0.001000 0.023350
v -0.023265 -0.001000 0.023350
v -0.022977 0.001000 0.022824
v -0.022506 0.001000 0.022452
v -0.022977 -0.001000 0.022824
v -0.022506 -0.001000 0.022452
v -0.021972 -0.001000 0.022299
v -0.021972 -0.000000 0.022299
v -0.021972 0.001000 0.022299
v -0.021972 -0.001000 0.022299
v -0.021972 -0.000000 0.022299
v -0.019831 -0.001000 0.022067
v -0.017713 -0.001000 0.021771
v -0.019831 0.001000 0.022067
v -0.021972 0.001000 0.022299
v -0.017713 0.001000 0.021771
v -0.015110 0.001000 0.021309
v -0.012530 0.001000 0.020732
v -0.015110 -0.001000 0.021309
v -0.012530 -0.001000 0.020732
v -0.010107 -0.001000 0.020070
v -0.010107 0.001000 0.020070
v -0.007716 -0.001000 0.019289
v -0.007716 0.001000 0.019289
v -0.005474 -0.001000 0.018428
v -0.003281 -0.001000 0.017448
v -0.005474 0.001000 0.018428
v -0.003281 0.001000 0.017448
v -0.001221 0.001000 0.016386
v 0.000775 0.001000 0.015209
v -0.001221 -0.001000 0.016386
v 0.000775 -0.001000 0.015209
v 0.002657 -0.001000 0.013947
v 0.002657 0.001000 0.013947
v 0.004461 -0.001000 0.012575
v 0.004461 0.001000 0.012575
v 0.006166 -0.001000 0.011108
v 0.006166 0.001000 0.011108
v 0.007780 -0.001000 0.009541
v 0.007780 0.001000 0.009541
v 0.009311 -0.001000 0.007866
v 0.009311 0.001000 0.007866
v 0.010741 -0.001000 0.006103
v 0.012098 -0.001000 0.004215
v 0.010741 0.001000 0.006103
v 0.012098 0.001000 0.004215
v 0.013345 0.001000 0.002254
v 0.013345 -0.001000 0.002254
v 0.014526 0.001000 0.000150
v 0.015594 0.001000 -0.002013
v 0.014526 -0.001000 0.000150
v 0.015594 -0.001000 -0.002013
v 0.016597 -0.001000 -0.004334
v 0.016597 0.001000 -0.004334
v 0.017486 -0.001000 -0.006702
v 0.017486 0.001000 -0.006702
v 0.018307 -0.001000 -0.009238
v 0.019010 -0.001000 -0.011781
v 0.018307 0.001000 -0.009238
v 0.019010 0.001000 -0.011781
v 0.019633 0.001000 -0.014464
v 0.020150 0.001000 -0.017166
v 0.019633 -0.001000 -0.014464
v 0.020150 -0.001000 -0.017166
v 0.020562 -0.001000 -0.019810
v 0.020562 0.001000 -0.019810
v 0.020908 -0.001000 -0.022589
v 0.020908 0.000000 -0.022589
v 0.020908 0.001000 -0.022589
v -0.047024 -0.001000 0.020244
v -0.044154 -0.000500 0.020211
v -0.044154 -0.001000 0.020211
v -0.047024 -0.000000 0.020244
v -0.044154 -0.000000 0.020211
v -0.044154 0.000500 0.020211
v -0.047024 0.001000 0.020244
v -0.044154 0.001000 0.020211
v -0.041296 0.001000 0.020145
v -0.041296 0.000500 0.020145
v -0.035561 0.001000 0.020066
v -0.035561 -0.000000 0.020066
v -0.024096 0.001000 0.019798
v -0.024096 -0.001000 0.019798
v -0.012803 0.001000 0.018095
v -0.012803 -0.001000 0.018095
v -0.002139 0.001000 0.013905
v 0.006803 0.001000 0.006857
v -0.002139 -0.001000 0.013905
v 0.006803 -0.001000 0.006857
v 0.013133 -0.001000 -0.002640
v 0.013133 0.001000 -0.002640
v 0.016905 -0.001000 -0.013458
v 0.016905 0.001000 -0.013458
v 0.018665 -0.001000 -0.024748
v 0.018665 0.001000 -0.024748
v 0.018912 0.000000 -0.036211
v 0.018912 -0.001000 -0.036211
v 0.018820 -0.000500 -0.041941
v 0.018820 -0.001000 -0.041941
v 0.018787 -0.001000 -0.044796
v 0.018787 -0.000500 -0.044796
v 0.018739 -0.001000 -0.047663
v 0.018739 0.000000 -0.047663
v 0.018739 0.001000 -0.047663
v 0.018787 0.000000 -0.044796
v 0.018787 0.000500 -0.044796
v 0.018787 0.001000 -0.044796
v 0.018820 0.000500 -0.041941
v 0.018820 0.001000 -0.041941
v 0.018820 0.000000 -0.041941
v 0.018912 0.001000 -0.036211
v -0.035561 -0.001000 0.020066
v -0.041296 -0.000500 0.020145
v -0.041296 -0.001000 0.020145
v -0.041296 -0.000000 0.020145
v -0.046903 -0.001000 0.028243
v -0.048443 -0.001000 0.027960
v -0.046903 -0.000000 0.028243
v -0.046903 0.001000 0.028243
v -0.048443 0.001000 0.027960
v -0.049749 0.001000 0.027114
v -0.049749 -0.001000 0.027114
v -0.050638 0.001000 0.025825
v -0.050638 -0.001000 0.025825
v -0.050963 0.001000 0.024304
v -0.050963 -0.001000 0.024304
v -0.050680 0.001000 0.022764
v -0.050680 -0.001000 0.022764
v -0.049834 0.001000 0.021458
v -0.049834 -0.001000 0.021458
v -0.048545 0.001000 0.020570
v -0.048545 -0.001000 0.020570
v -0.047024 0.001000 0.020244
v -0.047024 -0.000000 0.020244
v -0.047024 -0.001000 0.020244
v 0.018739 -0.001000 -0.047663
v 0.019022 -0.001000 -0.049202
v 0.018739 0.000000 -0.047663
v 0.018739 0.001000 -0.047663
v 0.019022 0.001000 -0.049202
v 0.019868 0.001000 -0.050508
v 0.019868 -0.001000 -0.050508
v 0.021157 0.001000 -0.051397
v 0.021157 -0.001000 -0.051397
v 0.022679 0.001000 -0.051722
v 0.024218 0.001000 -0.051439
v 0.022679 -0.001000 -0.051722
v 0.024218 -0.001000 -0.051439
v 0.025524 -0.001000 -0.050593
v 0.025524 0.001000 -0.050593
v 0.026413 -0.001000 -0.049304
v 0.026413 0.001000 -0.049304
v 0.026738 -0.001000 -0.047782
v 0.026738 0.000000 -0.047782
v 0.026738 0.001000 -0.047782
v 0.026906 -0.001000 -0.037352
v 0.022858 -0.001000 -0.037291
v 0.026906 0.001000 -0.037352
v 0.022858 0.001000 -0.037291
v 0.022888 -0.001000 -0.035291
v 0.026930 -0.001000 -0.035352
v 0.022888 0.000000 -0.035291
v 0.026930 0.001000 -0.035352
v 0.022888 0.001000 -0.035291
v 0.026738 -0.001000 -0.047782
v 0.026775 -0.000500 -0.045170
v 0.026775 -0.001000 -0.045170
v 0.026738 0.000000 -0.047782
v 0.026738 0.001000 -0.047782
v 0.026775 0.000000 -0.045170
v 0.026775 0.000500 -0.045170
v 0.026775 0.001000 -0.045170
v 0.026816 0.000500 -0.042566
v 0.026906 0.001000 -0.037352
v 0.026816 0.001000 -0.042566
v 0.026816 0.000000 -0.042566
v 0.026816 -0.000500 -0.042566
v 0.026906 -0.001000 -0.037352
v 0.026816 -0.001000 -0.042566
v 0.022858 0.001000 -0.037291
v 0.022858 -0.001000 -0.037291
v 0.022873 0.001000 -0.036291
v 0.022888 0.001000 -0.035291
v 0.022888 0.000000 -0.035291
v 0.022873 -0.001000 -0.036291
v 0.022888 -0.001000 -0.035291
v -0.036708 -0.001000 0.028072
v -0.036767 -0.001000 0.024147
v -0.036708 0.001000 0.028072
v -0.036767 0.001000 0.024147
v -0.034708 0.001000 0.028052
v -0.034767 0.001000 0.024117
v -0.034767 -0.000000 0.024117
v -0.034708 -0.001000 0.028052
v -0.034767 -0.001000 0.024117
v 0.026930 -0.001000 -0.035352
v 0.026897 0.000000 -0.029647
v 0.026897 -0.001000 -0.029647
v 0.026930 0.001000 -0.035352
v 0.026897 0.001000 -0.029647
v 0.026612 0.001000 -0.023963
v 0.026612 0.000000 -0.023963
v 0.024948 0.001000 -0.012711
v 0.024948 -0.001000 -0.012711
v 0.021535 0.001000 -0.001842
v 0.021535 -0.001000 -0.001842
v 0.016052 0.001000 0.008121
v 0.016052 -0.001000 0.008121
v 0.008322 0.001000 0.016416
v 0.008322 -0.001000 0.016416
v -0.001302 0.001000 0.022467
v -0.001302 -0.001000 0.022467
v -0.012064 0.001000 0.026154
v -0.023318 -0.000000 0.027750
v -0.023318 0.001000 0.027750
v -0.012064 -0.001000 0.026154
v -0.023318 -0.001000 0.027750
v -0.029006 -0.001000 0.027982
v -0.029006 -0.000000 0.027982
v -0.034708 -0.001000 0.028052
v -0.034708 0.001000 0.028052
v -0.029006 0.001000 0.027982
v 0.026612 -0.001000 -0.023963
v -0.036708 -0.001000 0.028072
v -0.041804 -0.001000 0.028162
v -0.041804 -0.000500 0.028162
v -0.041804 -0.000000 0.028162
v -0.036708 0.001000 0.028072
v -0.041804 0.000500 0.028162
v -0.041804 0.001000 0.028162
v -0.044350 0.001000 0.028218
v -0.044350 0.000500 0.028218
v -0.046903 0.001000 0.028243
v -0.046903 -0.000000 0.028243
v -0.046903 -0.001000 0.028243
v -0.044350 -0.000000 0.028218
v -0.044350 -0.000500 0.028218
v -0.044350 -0.001000 0.028218
v -0.036767 0.001000 0.024147
v -0.035767 0.001000 0.024132
v -0.036767 -0.001000 0.024147
v -0.035767 -0.001000 0.024132
v -0.034767 -0.000000 0.024117
v -0.034767 -0.001000 0.024117
v -0.034767 0.001000 0.024117
v -0.034708 -0.001000 0.028052
v -0.021692 -0.001000 0.025286
v -0.015193 -0.001000 0.026792
v -0.022258 -0.001000 0.025231
v -0.023179 -0.001000 0.024451
v -0.022801 -0.001000 0.024938
v -0.034767 -0.001000 0.024117
v -0.047024 -0.001000 0.020244
v -0.036767 -0.001000 0.024147
v -0.023328 -0.001000 0.023903
v -0.022977 -0.001000 0.022824
v -0.022506 -0.001000 0.022452
v -0.023265 -0.001000 0.023350
v -0.043082 -0.001000 0.022324
v -0.018427 -0.001000 0.019210
v -0.004698 -0.001000 0.015220
v -0.021972 -0.001000 0.022299
v -0.017713 -0.001000 0.021771
v -0.012530 -0.001000 0.020732
v -0.007716 -0.001000 0.019289
v -0.003281 -0.001000 0.017448
v 0.000775 -0.001000 0.015209
v 0.004461 -0.001000 0.012575
v 0.007780 -0.001000 0.009541
v 0.006803 -0.001000 0.006857
v 0.014290 -0.001000 -0.005256
v 0.010741 -0.001000 0.006103
v 0.013345 -0.001000 0.002254
v 0.015594 -0.001000 -0.002013
v 0.017486 -0.001000 -0.006702
v 0.019010 -0.001000 -0.011781
v 0.020150 -0.001000 -0.017166
v 0.018012 -0.001000 -0.019084
v 0.018739 -0.001000 -0.047663
v 0.020908 -0.001000 -0.022589
v 0.021070 -0.001000 -0.023122
v 0.022888 -0.001000 -0.035291
v 0.026930 -0.001000 -0.035352
v 0.022858 -0.001000 -0.037291
v 0.021009 -0.001000 -0.043891
v 0.023082 -0.001000 -0.023762
v 0.022537 -0.001000 -0.023920
v 0.021983 -0.001000 -0.023867
v 0.021450 -0.001000 -0.023588
v 0.023561 -0.001000 -0.023375
v 0.023844 -0.001000 -0.022829
v 0.023890 -0.001000 -0.022263
v 0.025622 -0.001000 -0.016087
v 0.021116 -0.001000 -0.000861
v 0.023106 -0.001000 -0.016658
v 0.021918 -0.001000 -0.011043
v 0.020318 -0.001000 -0.005712
v 0.018317 -0.001000 -0.000753
v 0.015920 -0.001000 0.003794
v 0.012547 -0.001000 0.012430
v 0.013125 -0.001000 0.007924
v 0.009933 -0.001000 0.011630
v 0.006348 -0.001000 0.014907
v 0.002374 -0.001000 0.017748
v -0.000111 -0.001000 0.021887
v -0.006712 -0.001000 0.022116
v -0.001982 -0.001000 0.020151
v -0.011806 -0.001000 0.023644
v -0.017249 -0.001000 0.024735
v 0.020862 -0.001000 -0.044605
v 0.021452 -0.001000 -0.043239
v 0.022118 -0.001000 -0.042816
v 0.022835 -0.001000 -0.042690
v 0.023549 -0.001000 -0.042837
v 0.026906 -0.001000 -0.037352
v 0.024201 -0.001000 -0.043280
v 0.024624 -0.001000 -0.043945
v 0.024750 -0.001000 -0.044663
v 0.026738 -0.001000 -0.047782
v 0.024603 -0.001000 -0.045376
v 0.026411 -0.001000 -0.049308
v 0.023494 -0.001000 -0.046452
v 0.024160 -0.001000 -0.046029
v 0.025524 -0.001000 -0.050593
v 0.022777 -0.001000 -0.046578
v 0.022064 -0.001000 -0.046430
v 0.024214 -0.001000 -0.051441
v 0.022679 -0.001000 -0.051722
v 0.021153 -0.001000 -0.051395
v 0.019868 -0.001000 -0.050508
v 0.019021 -0.001000 -0.049198
v 0.021411 -0.001000 -0.045988
v 0.020988 -0.001000 -0.045322
v -0.043799 -0.001000 0.022198
v -0.042416 -0.001000 0.022747
v -0.041974 -0.001000 0.023399
v -0.041826 -0.001000 0.024113
v -0.041952 -0.001000 0.024830
v -0.036708 -0.001000 0.028072
v -0.042375 -0.001000 0.025496
v -0.043028 -0.001000 0.025938
v -0.046903 -0.001000 0.028243
v -0.043741 -0.001000 0.026086
v -0.044459 -0.001000 0.025960
v -0.045124 -0.001000 0.025537
v -0.045567 -0.001000 0.024884
v -0.045714 -0.001000 0.024171
v -0.050636 -0.001000 0.025830
v -0.049749 -0.001000 0.027114
v -0.048438 -0.001000 0.027962
v -0.050963 -0.001000 0.024304
v -0.050682 -0.001000 0.022769
v -0.049834 -0.001000 0.021458
v -0.048550 -0.001000 0.020572
v -0.045588 -0.001000 0.023453
v -0.045165 -0.001000 0.022788
v -0.044513 -0.001000 0.022345
vn 0.000000 1.000000 0.000000
vn 0.000000 1.000000 0.000000
vn 0.000000 1.000000 0.000000
vn 0.000000 1.000000 0.000000
vn 0.000000 1.000000 0.000000
vn 0.000000 1.000000 0.000000
vn 0.000000 1.000000 0.000000
vn 0.000000 1.000000 0.000000
vn 0.000000 1.000000 0.000000
vn 0.000000 1.000000 0.000000
vn 0.000000 1.000000 0.000000
vn 0.000000 1.000000 0.000000
vn 0.000000 1.000000 0.000000
vn 0.000000 1.000000 0.000000
vn 0.000000 1.000000 0.000000
vn 0.000000 1.000000 0.000000
vn 0.000000 1.000000 0.000000
vn 0.000000 1.000000 0.000000
vn 0.000000 1.000000 0.000000
vn 0.000000 1.000000 0.000000
vn 0.000000 1.000000 0.000000
vn 0.000000 1.000000 0.000000
vn 0.000000 1.000000 0.000000
vn 0.000000 1.000000 0.000000
vn 0.000000 1.000000 0.000000
vn 0.000000 1.000000 0.000000
vn 0.000000 1.000000 0.000000
vn 0.000000 1.000000 0.000000
vn 0.000000 1.000000 0.000000
vn 0.000000 1.000000 0.000000
vn 0.000000 1.000000 0.000000
vn 0.000000 1.000000 0.000000
vn 0.000000 1.000000 0.000000
vn 0.000000 1.000000 0.000000
vn 0.000000 1.000000 0.000000
vn 0.000000 1.000000 0.000000
vn 0.000000 1.000000 0.000000
vn 0.000000 1.000000 0.000000
vn 0.000000 1.000000 0.000000
vn 0.000000 1.000000 0.000000
vn 0.000000 1.000000 0.000000
vn 0.000000 1.000000 0.000000
vn 0.000000 1.000000 0.000000
vn 0.000000 1.000000 0.000000
vn 0.000000 1.000000 0.000000
vn 0.000000 1.000000 0.000000
vn 0.000000 1.000000 0.000000
vn 0.000000 1.000000 0.000000
vn 0.000000 1.000000 0.000000
vn 0.000000 1.000000 0.000000
vn 0.000000 1.000000 0.000000
vn 0.000000 1.000000 0.000000
vn 0.000000 1.000000 0.000000
vn 0.000000 1.000000 0.000000
vn 0.000000 1.000000 0.000000
vn 0.000000 1.000000 0.000000
vn 0.000000 1.000000 0.000000
vn 0.000000 1.000000 0.000000
vn 0.000000 1.000000 0.000000
vn 0.000000 1.000000 0.000000
vn 0.000000 1.000000 0.000000
vn 0.000000 1.000000 0.000000
vn 0.000000 1.000000 0.000000
vn 0.000000 1.000000 0.000000
vn 0.000000 1.000000 0.000000
vn 0.000000 1.000000 0.000000
vn 0.000000 1.000000 0.000000
vn 0.000000 1.000000 0.000000
vn 0.000000 1.000000 0.000000
vn 0.000000 1.000000 0.000000
vn 0.000000 1.000000 0.000000
vn 0.000000 1.000000 0.000000
vn 0.000000 1.000000 0.000000
vn 0.000000 1.000000 0.000000
vn 0.000000 1.000000 0.000000
vn 0.000000 1.000000 0.000000
vn 0.000000 1.000000 0.000000
vn 0.000000 1.000000 0.000000
vn 0.000000 1.000000 0.000000
vn 0.000000 1.000000 0.000000
vn 0.000000 1.000000 0.000000
vn 0.000000 1.000000 0.000000
vn 0.000000 1.000000 0.000000
vn 0.000000 1.000000 0.000000
vn 0.000000 1.000000 0.000000
vn 0.000000 1.000000 0.000000
vn 0.000000 1.000000 0.000000
vn 0.000000 1.000000 0.000000
vn 0.000000 1.000000 0.000000
vn 0.000000 1.000000 0.000000
vn 0.000000 1.000000 0.000000
vn 0.000000 1.000000 0.000000
vn 0.000000 1.000000 0.000000
vn 0.000000 1.000000 0.000000
vn 0.000000 1.000000 0.000000
vn 0.000000 1.000000 0.000000
vn 0.000000 1.000000 0.000000
vn 0.000000 1.000000 0.000000
vn 0.000000 1.000000 0.000000
vn 0.000000 1.000000 0.000000
vn 0.000000 1.000000 0.000000
vn 0.000000 1.000000 0.000000
vn 0.000000 1.000000 0.000000
vn 0.000000 1.000000 0.000000
vn 0.000000 1.000000 0.000000
vn 0.000000 1.000000 0.000000
vn 0.000000 1.000000 0.000000
vn 0.000000 1.000000 0.000000
vn 0.000000 1.000000 0.000000
vn 0.000000 1.000000 0.000000
vn 0.000000 1.000000 0.000000
vn 0.000000 1.000000 0.000000
vn 0.014900 -0.000000 0.999889
vn -0.354102 -0.000000 0.935207
vn 0.014900 -0.000000 0.999889
vn -0.354102 -0.000000 0.935207
vn -0.696427 -0.000000 0.717628
vn -0.924168 -0.000000 0.381987
vn -0.696427 -0.000000 0.717628
vn -0.924168 -0.000000 0.381987
vn -0.999887 -0.000000 0.015000
vn -0.935207 0.000000 -0.354103
vn -0.999887 -0.000000 0.015000
vn -0.935207 0.000000 -0.354103
vn -0.717578 0.000000 -0.696478
vn -0.381987 0.000000 -0.924168
vn -0.717578 0.000000 -0.696478
vn -0.381987 0.000000 -0.924168
vn -0.014900 0.000000 -0.999889
vn 0.354102 0.000000 -0.935207
vn -0.014900 0.000000 -0.999889
vn 0.354102 0.000000 -0.935207
vn 0.696427 0.000000 -0.717628
vn 0.924168 0.000000 -0.381987
vn 0.696427 0.000000 -0.717628
vn 0.924168 0.000000 -0.381987
vn 0.999887 0.000000 -0.015000
vn 0.935173 -0.000000 0.354190
vn 0.999887 0.000000 -0.015000
vn 0.935173 -0.000000 0.354190
vn 0.717628 -0.000000 0.696427
vn 0.381987 -0.000000 0.924168
vn 0.717628 -0.000000 0.696427
vn 0.381987 -0.000000 0.924168
vn 0.015100 -0.000000 0.999886
vn 0.015100 -0.000000 0.999886
vn 0.999886 0.000000 -0.015100
vn 0.924168 0.000000 -0.381987
vn 0.999886 0.000000 -0.015100
vn 0.924168 0.000000 -0.381987
vn 0.696427 0.000000 -0.717628
vn 0.696427 0.000000 -0.717628
vn 0.354102 0.000000 -0.935207
vn 0.354102 0.000000 -0.935207
vn -0.015000 0.000000 -0.999887
vn -0.015000 0.000000 -0.999887
vn -0.381987 0.000000 -0.924168
vn -0.381987 0.000000 -0.924168
vn -0.717628 0.000000 -0.696427
vn -0.717628 0.000000 -0.696427
vn -0.935207 0.000000 -0.354103
vn -0.935207 0.000000 -0.354103
vn -0.999887 -0.000000 0.015000
vn -0.924168 -0.000000 0.381987
vn -0.999887 -0.000000 0.015000
vn -0.924168 -0.000000 0.381987
vn -0.696427 -0.000000 0.717628
vn -0.354102 -0.000000 0.935207
vn -0.696427 -0.000000 0.717628
vn -0.354102 -0.000000 0.935207
vn 0.015000 -0.000000 0.999887
vn 0.381987 -0.000000 0.924168
vn 0.015000 -0.000000 0.999887
vn 0.381987 -0.000000 0.924168
vn 0.717578 -0.000000 0.696478
vn 0.935207 -0.000000 0.354103
vn 0.717578 -0.000000 0.696478
vn 0.935207 -0.000000 0.354103
vn 0.999889 0.000000 -0.014900
vn 0.999889 0.000000 -0.014900
vn 0.994052 -0.000000 0.108906
vn 0.885931 -0.000000 0.463816
vn 0.994052 -0.000000 0.108906
vn 0.994052 -0.000000 0.108906
vn 0.885931 -0.000000 0.463816
vn 0.632589 -0.000000 0.774487
vn 0.632589 -0.000000 0.774487
vn 0.277507 -0.000000 0.960724
vn 0.277507 -0.000000 0.960724
vn -0.091798 -0.000000 0.995778
vn -0.091798 -0.000000 0.995778
vn -0.091798 -0.000000 0.995778
vn -0.091798 -0.000000 0.995778
vn -0.455315 -0.000000 0.890330
vn -0.091996 -0.000000 0.995759
vn -0.091798 -0.000000 0.995778
vn -0.455196 -0.000000 0.890391
vn -0.774536 -0.000000 0.632530
vn -0.774536 -0.000000 0.632530
vn -0.963333 -0.000000 0.268309
vn -0.963333 -0.000000 0.268309
vn -0.994064 0.000000 -0.108796
vn -0.994064 0.000000 -0.108796
vn -0.994064 0.000000 -0.108796
vn -0.994053 0.000000 -0.108895
vn -0.994053 0.000000 -0.108895
vn -0.990320 0.000000 -0.138803
vn -0.990320 0.000000 -0.138803
vn -0.985409 0.000000 -0.170202
vn -0.985409 0.000000 -0.170202
vn -0.978469 0.000000 -0.206394
vn -0.969140 0.000000 -0.246510
vn -0.978469 0.000000 -0.206394
vn -0.969140 0.000000 -0.246510
vn -0.957964 0.000000 -0.286889
vn -0.957964 0.000000 -0.286889
vn -0.944014 0.000000 -0.329905
vn -0.927591 0.000000 -0.373597
vn -0.944014 0.000000 -0.329905
vn -0.927591 0.000000 -0.373597
vn -0.907614 0.000000 -0.419806
vn -0.907614 0.000000 -0.419806
vn -0.884621 0.000000 -0.466311
vn -0.884621 0.000000 -0.466311
vn -0.858163 0.000000 -0.513378
vn -0.828417 0.000000 -0.560112
vn -0.858163 0.000000 -0.513378
vn -0.828417 0.000000 -0.560112
vn -0.794701 0.000000 -0.607001
vn -0.757793 0.000000 -0.652494
vn -0.794701 0.000000 -0.607001
vn -0.757793 0.000000 -0.652494
vn -0.717628 0.000000 -0.696427
vn -0.674592 0.000000 -0.738191
vn -0.717628 0.000000 -0.696427
vn -0.674592 0.000000 -0.738191
vn -0.629063 0.000000 -0.777354
vn -0.581635 0.000000 -0.813450
vn -0.629063 0.000000 -0.777354
vn -0.581635 0.000000 -0.813450
vn -0.532773 0.000000 -0.846258
vn -0.532773 0.000000 -0.846258
vn -0.483085 0.000000 -0.875573
vn -0.433199 0.000000 -0.901298
vn -0.483085 0.000000 -0.875573
vn -0.433199 0.000000 -0.901298
vn -0.383600 0.000000 -0.923499
vn -0.334797 0.000000 -0.942290
vn -0.383600 0.000000 -0.923499
vn -0.334797 0.000000 -0.942290
vn -0.287192 0.000000 -0.957873
vn -0.241100 0.000000 -0.970500
vn -0.287192 0.000000 -0.957873
vn -0.241100 0.000000 -0.970500
vn -0.196289 0.000000 -0.980546
vn -0.154108 0.000000 -0.988054
vn -0.196289 0.000000 -0.980546
vn -0.154108 0.000000 -0.988054
vn -0.123001 0.000000 -0.992407
vn -0.123001 0.000000 -0.992407
vn -0.093096 0.000000 -0.995657
vn -0.093096 0.000000 -0.995657
vn -0.093096 0.000000 -0.995657
vn -0.994053 0.000000 -0.108895
vn -0.092997 0.000000 -0.995666
vn -0.092997 0.000000 -0.995666
vn 0.284098 0.000000 -0.958795
vn 0.645696 0.000000 -0.763595
vn 0.284098 0.000000 -0.958795
vn -0.092997 0.000000 -0.995666
vn 0.645696 0.000000 -0.763595
vn 0.898333 0.000000 -0.439316
vn 0.898333 0.000000 -0.439316
vn 0.997281 0.000000 -0.073699
vn 0.997281 0.000000 -0.073699
vn 0.955619 -0.000000 0.294606
vn 0.955619 -0.000000 0.294606
vn 0.763595 -0.000000 0.645696
vn 0.449212 -0.000000 0.893425
vn 0.763595 -0.000000 0.645696
vn 0.449212 -0.000000 0.893425
vn 0.092997 -0.000000 0.995666
vn 0.093204 -0.000000 0.995647
vn 0.092997 -0.000000 0.995666
vn 0.093096 -0.000000 0.995657
vn 0.093096 -0.000000 0.995657
vn 0.123001 -0.000000 0.992407
vn 0.154093 -0.000000 0.988056
vn 0.123001 -0.000000 0.992407
vn 0.093096 -0.000000 0.995657
vn 0.154093 -0.000000 0.988056
vn 0.196001 -0.000000 0.980604
vn 0.241006 -0.000000 0.970524
vn 0.196001 -0.000000 0.980604
vn 0.241006 -0.000000 0.970524
vn 0.286706 -0.000000 0.958019
vn 0.286706 -0.000000 0.958019
vn 0.334708 -0.000000 0.942322
vn 0.334708 -0.000000 0.942322
vn 0.383188 -0.000000 0.923670
vn 0.433199 -0.000000 0.901298
vn 0.383188 -0.000000 0.923670
vn 0.433199 -0.000000 0.901298
vn 0.482617 -0.000000 0.875831
vn 0.532702 -0.000000 0.846303
vn 0.482617 -0.000000 0.875831
vn 0.532702 -0.000000 0.846303
vn 0.581588 -0.000000 0.813483
vn 0.581588 -0.000000 0.813483
vn 0.629063 -0.000000 0.777354
vn 0.629063 -0.000000 0.777354
vn 0.674592 -0.000000 0.738191
vn 0.674592 -0.000000 0.738191
vn 0.717628 -0.000000 0.696427
vn 0.717628 -0.000000 0.696427
vn 0.757793 -0.000000 0.652494
vn 0.757793 -0.000000 0.652494
vn 0.794701 -0.000000 0.607001
vn 0.828215 -0.000000 0.560410
vn 0.794701 -0.000000 0.607001
vn 0.828215 -0.000000 0.560410
vn 0.858207 -0.000000 0.513304
vn 0.858207 -0.000000 0.513304
vn 0.884955 -0.000000 0.465676
vn 0.907614 -0.000000 0.419806
vn 0.884955 -0.000000 0.465676
vn 0.907614 -0.000000 0.419806
vn 0.927390 -0.000000 0.374096
vn 0.927390 -0.000000 0.374096
vn 0.944045 -0.000000 0.329816
vn 0.944045 -0.000000 0.329816
vn 0.957964 -0.000000 0.286889
vn 0.969170 -0.000000 0.246392
vn 0.957964 -0.000000 0.286889
vn 0.969170 -0.000000 0.246392
vn 0.978530 -0.000000 0.206106
vn 0.985392 -0.000000 0.170299
vn 0.978530 -0.000000 0.206106
vn 0.985392 -0.000000 0.170299
vn 0.990377 -0.000000 0.138397
vn 0.990377 -0.000000 0.138397
vn 0.994053 -0.000000 0.108895
vn 0.994053 -0.000000 0.108895
vn 0.994053 -0.000000 0.108895
vn 0.004000 0.000000 -0.999992
vn -0.021399 0.000000 -0.999771
vn -0.021499 0.000000 -0.999769
vn 0.004000 0.000000 -0.999992
vn -0.021499 0.000000 -0.999769
vn -0.021399 0.000000 -0.999771
vn 0.004000 0.000000 -0.999992
vn -0.021499 0.000000 -0.999769
vn -0.021899 0.000000 -0.999760
vn -0.021899 0.000000 -0.999760
vn -0.006800 0.000000 -0.999977
vn -0.006800 0.000000 -0.999977
vn -0.065397 0.000000 -0.997859
vn -0.065397 0.000000 -0.997859
vn -0.246698 0.000000 -0.969092
vn -0.246698 0.000000 -0.969092
vn -0.489188 0.000000 -0.872178
vn -0.737333 0.000000 -0.675530
vn -0.489188 0.000000 -0.872178
vn -0.737333 0.000000 -0.675530
vn -0.901821 0.000000 -0.432110
vn -0.901821 0.000000 -0.432110
vn -0.972070 0.000000 -0.234693
vn -0.972070 0.000000 -0.234693
vn -0.996992 0.000000 -0.077499
vn -0.996992 0.000000 -0.077499
vn -0.999890 -0.000000 0.014800
vn -0.999890 -0.000000 0.014800
vn -0.999905 -0.000000 0.013800
vn -0.999912 -0.000000 0.013300
vn -0.999934 -0.000000 0.011500
vn -0.999934 -0.000000 0.011500
vn -0.999662 -0.000000 0.025999
vn -0.999662 -0.000000 0.025999
vn -0.999662 -0.000000 0.025999
vn -0.999934 -0.000000 0.011500
vn -0.999934 -0.000000 0.011500
vn -0.999934 -0.000000 0.011500
vn -0.999905 -0.000000 0.013800
vn -0.999912 -0.000000 0.013300
vn -0.999910 -0.000000 0.013400
vn -0.999890 -0.000000 0.014800
vn -0.006800 0.000000 -0.999977
vn -0.021899 0.000000 -0.999760
vn -0.021899 0.000000 -0.999760
vn -0.021899 0.000000 -0.999760
vn 0.015200 -0.000000 0.999884
vn -0.369217 -0.000000 0.929343
vn 0.015100 -0.000000 0.999886
vn 0.015200 -0.000000 0.999884
vn -0.369217 -0.000000 0.929343
vn -0.696427 -0.000000 0.717628
vn -0.696427 -0.000000 0.717628
vn -0.918258 -0.000000 0.395982
vn -0.918258 -0.000000 0.395982
vn -0.999889 -0.000000 0.014900
vn -0.999889 -0.000000 0.014900
vn -0.929075 0.000000 -0.369890
vn -0.929075 0.000000 -0.369890
vn -0.717775 0.000000 -0.696276
vn -0.717775 0.000000 -0.696276
vn -0.395608 0.000000 -0.918419
vn -0.395608 0.000000 -0.918419
vn -0.015100 0.000000 -0.999886
vn -0.015100 0.000000 -0.999886
vn -0.015100 0.000000 -0.999886
vn -0.999889 -0.000000 0.014900
vn -0.929275 0.000000 -0.369390
vn -0.999889 -0.000000 0.014900
vn -0.999889 -0.000000 0.014900
vn -0.929110 0.000000 -0.369804
vn -0.717676 0.000000 -0.696377
vn -0.717676 0.000000 -0.696377
vn -0.395198 0.000000 -0.918596
vn -0.395198 0.000000 -0.918596
vn -0.015000 0.000000 -0.999887
vn 0.369390 0.000000 -0.929275
vn -0.015000 0.000000 -0.999887
vn 0.369390 0.000000 -0.929275
vn 0.696630 0.000000 -0.717431
vn 0.696630 0.000000 -0.717431
vn 0.918295 0.000000 -0.395898
vn 0.918295 0.000000 -0.395898
vn 0.999887 0.000100 -0.015000
vn 0.999887 0.000000 -0.015000
vn 0.999887 0.000000 -0.015000
vn 0.015000 -0.000000 0.999887
vn 0.015000 -0.000000 0.999887
vn 0.015000 -0.000000 0.999887
vn 0.015000 -0.000000 0.999887
vn -0.014900 0.000000 -0.999889
vn -0.014900 0.000000 -0.999889
vn -0.014900 0.000000 -0.999889
vn -0.014900 0.000000 -0.999889
vn -0.014900 0.000000 -0.999889
vn 0.999896 0.000000 -0.014400
vn 0.999889 0.000000 -0.014900
vn 0.999889 0.000000 -0.014900
vn 0.999896 0.000000 -0.014400
vn 0.999896 0.000000 -0.014400
vn 0.999889 0.000000 -0.014900
vn 0.999889 0.000000 -0.014900
vn 0.999889 0.000000 -0.014900
vn 0.999859 0.000000 -0.016799
vn 0.999890 0.000000 -0.014800
vn 0.999854 0.000000 -0.017099
vn 0.999864 0.000000 -0.016499
vn 0.999859 0.000000 -0.016799
vn 0.999890 0.000000 -0.014800
vn 0.999854 0.000000 -0.017099
vn 0.999887 0.000000 -0.015000
vn 0.999887 0.000000 -0.015000
vn 0.999887 0.000000 -0.015000
vn 0.999889 0.000000 -0.014900
vn 0.999889 0.000000 -0.014900
vn 0.999887 0.000000 -0.015000
vn 0.999889 0.000000 -0.014900
vn 0.999887 0.000000 -0.015000
vn 0.999887 0.000000 -0.015000
vn 0.999887 0.000000 -0.015000
vn 0.999887 0.000000 -0.015000
vn -0.999887 -0.000000 0.015000
vn -0.999887 -0.000000 0.015000
vn -0.999887 -0.000000 0.015000
vn -0.999887 -0.000000 0.015000
vn -0.999887 -0.000000 0.015000
vn 0.999960 0.000000 -0.008900
vn 0.999700 -0.000000 0.024500
vn 0.999700 -0.000000 0.024500
vn 0.999960 0.000000 -0.008900
vn 0.999700 -0.000000 0.024500
vn 0.996914 -0.000000 0.078501
vn 0.996914 -0.000000 0.078501
vn 0.975835 -0.000000 0.218508
vn 0.975835 -0.000000 0.218508
vn 0.922964 -0.000000 0.384885
vn 0.922964 -0.000000 0.384885
vn 0.813693 -0.000000 0.581295
vn 0.813693 -0.000000 0.581295
vn 0.635609 -0.000000 0.772011
vn 0.635609 -0.000000 0.772011
vn 0.425282 -0.000000 0.905061
vn 0.425282 -0.000000 0.905061
vn 0.225487 -0.000000 0.974246
vn 0.066001 -0.000000 0.997820
vn 0.066001 -0.000000 0.997820
vn 0.225509 -0.000000 0.974241
vn 0.066001 -0.000000 0.997820
vn 0.020800 -0.000000 0.999784
vn 0.020800 -0.000000 0.999784
vn 0.009000 -0.000000 0.999960
vn 0.009000 -0.000000 0.999960
vn 0.020800 -0.000000 0.999784
vn 0.996914 -0.000000 0.078501
vn 0.011800 -0.000000 0.999930
vn 0.022701 -0.000000 0.999742
vn 0.022601 -0.000000 0.999745
vn 0.022701 -0.000000 0.999742
vn 0.011800 -0.000000 0.999930
vn 0.022601 -0.000000 0.999745
vn 0.022701 -0.000000 0.999742
vn 0.018900 -0.000000 0.999821
vn 0.018900 -0.000000 0.999821
vn -0.003400 -0.000000 0.999994
vn -0.003400 -0.000000 0.999994
vn -0.003400 -0.000000 0.999994
vn 0.018900 -0.000000 0.999821
vn 0.018900 -0.000000 0.999821
vn 0.018900 -0.000000 0.999821
vn 0.014900 -0.000000 0.999889
vn 0.015000 -0.000000 0.999887
vn 0.014900 -0.000000 0.999889
vn 0.015000 -0.000000 0.999887
vn 0.015000 -0.000000 0.999887
vn 0.015000 -0.000000 0.999887
vn 0.015000 -0.000000 0.999887
vn 0.000000 -1.000000 -0.000000
vn 0.000000 -1.000000 -0.000000
vn 0.000000 -1.000000 -0.000000
vn 0.000000 -1.000000 -0.000000
vn 0.000000 -1.000000 -0.000000
vn 0.000000 -1.000000 -0.000000
vn 0.000000 -1.000000 -0.000000
vn 0.000000 -1.000000 -0.000000
vn 0.000000 -1.000000 -0.000000
vn 0.000000 -1.000000 -0.000000
vn 0.000000 -1.000000 -0.000000
vn 0.000000 -1.000000 -0.000000
vn 0.000000 -1.000000 -0.000000
vn 0.000000 -1.000000 -0.000000
vn 0.000000 -1.000000 -0.000000
vn 0.000000 -1.000000 -0.000000
vn 0.000000 -1.000000 -0.000000
vn 0.000000 -1.000000 -0.000000
vn 0.000000 -1.000000 -0.000000
vn 0.000000 -1.000000 -0.000000
vn 0.000000 -1.000000 -0.000000
vn 0.000000 -1.000000 -0.000000
vn 0.000000 -1.000000 -0.000000
vn 0.000000 -1.000000 -0.000000
vn 0.000000 -1.000000 -0.000000
vn 0.000000 -1.000000 -0.000000
vn 0.000000 -1.000000 -0.000000
vn 0.000000 -1.000000 -0.000000
vn 0.000000 -1.000000 -0.000000
vn 0.000000 -1.000000 -0.000000
vn 0.000000 -1.000000 -0.000000
vn 0.000000 -1.000000 -0.000000
vn 0.000000 -1.000000 -0.000000
vn 0.000000 -1.000000 -0.000000
vn 0.000000 -1.000000 -0.000000
vn 0.000000 -1.000000 -0.000000
vn 0.000000 -1.000000 -0.000000
vn 0.000000 -1.000000 -0.000000
vn 0.000000 -1.000000 -0.000000
vn 0.000000 -1.000000 -0.000000
vn 0.000000 -1.000000 -0.000000
vn 0.000000 -1.000000 -0.000000
vn 0.000000 -1.000000 -0.000000
vn 0.000000 -1.000000 -0.000000
vn 0.000000 -1.000000 -0.000000
vn 0.000000 -1.000000 -0.000000
vn 0.000000 -1.000000 -0.000000
vn 0.000000 -1.000000 -0.000000
vn 0.000000 -1.000000 -0.000000
vn 0.000000 -1.000000 -0.000000
vn 0.000000 -1.000000 -0.000000
vn 0.000000 -1.000000 -0.000000
vn 0.000000 -1.000000 -0.000000
vn 0.000000 -1.000000 -0.000000
vn 0.000000 -1.000000 -0.000000
vn 0.000000 -1.000000 -0.000000
vn 0.000000 -1.000000 -0.000000
vn 0.000000 -1.000000 -0.000000
vn 0.000000 -1.000000 -0.000000
vn 0.000000 -1.000000 -0.000000
vn 0.000000 -1.000000 -0.000000
vn 0.000000 -1.000000 -0.000000
vn 0.000000 -1.000000 -0.000000
vn 0.000000 -1.000000 -0.000000
vn 0.000000 -1.000000 -0.000000
vn 0.000000 -1.000000 -0.000000
vn 0.000000 -1.000000 -0.000000
vn 0.000000 -1.000000 -0.000000
vn 0.000000 -1.000000 -0.000000
vn 0.000000 -1.000000 -0.000000
vn 0.000000 -1.000000 -0.000000
vn 0.000000 -1.000000 -0.000000
vn 0.000000 -1.000000 -0.000000
vn 0.000000 -1.000000 -0.000000
vn 0.000000 -1.000000 -0.000000
vn 0.000000 -1.000000 -0.000000
vn 0.000000 -1.000000 -0.000000
vn 0.000000 -1.000000 -0.000000
vn 0.000000 -1.000000 -0.000000
vn 0.000000 -1.000000 -0.000000
vn 0.000000 -1.000000 -0.000000
vn 0.000000 -1.000000 -0.000000
vn 0.000000 -1.000000 -0.000000
vn 0.000000 -1.000000 -0.000000
vn 0.000000 -1.000000 -0.000000
vn 0.000000 -1.000000 -0.000000
vn 0.000000 -1.000000 -0.000000
vn 0.000000 -1.000000 -0.000000
vn 0.000000 -1.000000 -0.000000
vn 0.000000 -1.000000 -0.000000
vn 0.000000 -1.000000 -0.000000
vn 0.000000 -1.000000 -0.000000
vn 0.000000 -1.000000 -0.000000
vn 0.000000 -1.000000 -0.000000
vn 0.000000 -1.000000 -0.000000
vn 0.000000 -1.000000 -0.000000
vn 0.000000 -1.000000 -0.000000
vn 0.000000 -1.000000 -0.000000
vn 0.000000 -1.000000 -0.000000
vn 0.000000 -1.000000 -0.000000
vn 0.000000 -1.000000 -0.000000
vn 0.000000 -1.000000 -0.000000
vn 0.000000 -1.000000 -0.000000
vn 0.000000 -1.000000 -0.000000
vn 0.000000 -1.000000 -0.000000
vn 0.000000 -1.000000 -0.000000
vn 0.000000 -1.000000 -0.000000
vn 0.000000 -1.000000 -0.000000
vn 0.000000 -1.000000 -0.000000
vn 0.000000 -1.000000 -0.000000
vn 0.000000 -1.000000 -0.000000
vn 0.000000 -1.000000 -0.000000
f 1//1 3//3 2//2
f 4//4 3//3 1//1
f 5//5 4//4 1//1
f 1//1 6//6 5//5
f 8//8 6//6 7//7
f 9//9 5//5 6//6
f 6//6 8//8 11//11
f 6//6 10//10 9//9
f 6//6 11//11 10//10
f 13//13 12//12 8//8
f 8//8 7//7 13//13
f 14//14 15//15 13//13
f 16//16 13//13 15//15
f 13//13 16//16 17//17
f 12//12 13//13 17//17
f 18//18 13//13 7//7
f 20//20 18//18 7//7
f 18//18 19//19 22//22
f 19//19 18//18 20//20
f 18//18 21//21 23//23
f 18//18 22//22 21//21
f 24//24 26//26 23//23
f 24//24 23//23 21//21
f 27//27 23//23 25//25
f 25//25 23//23 26//26
f 28//28 23//23 27//27
f 27//27 29//29 28//28
f 28//28 29//29 30//30
f 31//31 28//28 30//30
f 31//31 32//32 28//28
f 32//32 33//33 35//35
f 33//33 32//32 34//34
f 31//31 34//34 32//32
f 35//35 36//36 32//32
f 35//35 38//38 36//36
f 39//39 36//36 37//37
f 37//37 36//36 38//38
f 41//41 36//36 39//39
f 40//40 36//36 41//41
f 42//42 44//44 41//41
f 41//41 39//39 43//43
f 41//41 43//43 46//46
f 41//41 44//44 40//40
f 48//48 41//41 45//45
f 45//45 41//41 46//46
f 47//47 41//41 48//48
f 49//49 47//47 48//48
f 50//50 47//47 49//49
f 47//47 50//50 51//51
f 50//50 52//52 51//51
f 52//52 53//53 51//51
f 54//54 51//51 53//53
f 51//51 54//54 55//55
f 55//55 54//54 56//56
f 56//56 57//57 55//55
f 55//55 57//57 58//58
f 59//59 60//60 58//58
f 58//58 60//60 55//55
f 59//59 61//61 60//60
f 62//62 60//60 61//61
f 63//63 60//60 62//62
f 63//63 65//65 64//64
f 66//66 65//65 63//63
f 63//63 67//67 66//66
f 62//62 67//67 63//63
f 64//64 65//65 68//68
f 64//64 68//68 69//69
f 69//69 70//70 64//64
f 64//64 70//70 71//71
f 72//72 71//71 70//70
f 72//72 73//73 71//71
f 73//73 74//74 71//71
f 74//74 7//7 71//71
f 75//75 7//7 74//74
f 75//75 76//76 7//7
f 77//77 7//7 76//76
f 7//7 77//77 20//20
f 44//44 78//78 40//40
f 42//42 79//79 44//44
f 80//80 79//79 42//42
f 42//42 81//81 80//80
f 82//82 81//81 42//42
f 83//83 84//84 82//82
f 82//82 42//42 83//83
f 83//83 85//85 84//84
f 83//83 86//86 85//85
f 86//86 87//87 85//85
f 86//86 88//88 87//87
f 86//86 89//89 88//88
f 89//89 86//86 90//90
f 91//91 90//90 92//92
f 93//93 92//92 90//90
f 86//86 93//93 90//90
f 91//91 92//92 94//94
f 91//91 94//94 95//95
f 95//95 96//96 91//91
f 96//96 97//97 98//98
f 98//98 91//91 96//96
f 98//98 97//97 99//99
f 98//98 99//99 40//40
f 40//40 100//100 98//98
f 40//40 101//101 100//100
f 101//101 40//40 78//78
f 103//103 15//15 14//14
f 15//15 103//103 102//102
f 104//104 102//102 103//103
f 105//105 102//102 104//104
f 105//105 106//106 102//102
f 108//108 106//106 107//107
f 102//102 106//106 108//108
f 2//2 110//110 108//108
f 109//109 2//2 108//108
f 107//107 109//109 108//108
f 110//110 2//2 111//111
f 112//112 111//111 2//2
f 112//112 2//2 3//3
f 114//114 116//116 115//115
f 114//114 115//115 113//113
f 119//119 117//117 116//116
f 119//119 116//116 114//114
f 120//120 118//118 117//117
f 120//120 117//117 119//119
f 121//121 123//123 118//118
f 121//121 118//118 120//120
f 122//122 124//124 123//123
f 122//122 123//123 121//121
f 127//127 125//125 124//124
f 127//127 124//124 122//122
f 128//128 126//126 125//125
f 128//128 125//125 127//127
f 129//129 131//131 126//126
f 129//129 126//126 128//128
f 130//130 132//132 131//131
f 130//130 131//131 129//129
f 135//135 133//133 132//132
f 135//135 132//132 130//130
f 136//136 134//134 133//133
f 136//136 133//133 135//135
f 137//137 139//139 134//134
f 137//137 134//134 136//136
f 138//138 140//140 139//139
f 138//138 139//139 137//137
f 143//143 141//141 140//140
f 143//143 140//140 138//138
f 144//144 142//142 141//141
f 144//144 141//141 143//143
f 145//145 146//146 142//142
f 145//145 142//142 144//144
f 148//148 147//147 149//149
f 148//148 149//149 150//150
f 152//152 148//148 150//150
f 152//152 150//150 151//151
f 154//154 152//152 151//151
f 154//154 151//151 153//153
f 156//156 154//154 153//153
f 156//156 153//153 155//155
f 158//158 156//156 155//155
f 158//158 155//155 157//157
f 160//160 158//158 157//157
f 160//160 157//157 159//159
f 162//162 160//160 159//159
f 162//162 159//159 161//161
f 165//165 162//162 161//161
f 165//165 161//161 163//163
f 166//166 165//165 163//163
f 166//166 163//163 164//164
f 167//167 166//166 164//164
f 167//167 164//164 169//169
f 168//168 167//167 169//169
f 168//168 169//169 170//170
f 173//173 168//168 170//170
f 173//173 170//170 171//171
f 174//174 173//173 171//171
f 174//174 171//171 172//172
f 175//175 174//174 172//172
f 175//175 172//172 177//177
f 176//176 175//175 177//177
f 176//176 177//177 178//178
f 180//180 176//176 178//178
f 180//180 178//178 179//179
f 182//182 183//183 181//181
f 184//184 183//183 185//185
f 182//182 185//185 183//183
f 187//187 186//186 185//185
f 187//187 185//185 182//182
f 189//189 188//188 186//186
f 189//189 186//186 187//187
f 188//188 189//189 190//190
f 191//191 188//188 190//190
f 189//189 192//192 190//190
f 194//194 195//195 193//193
f 196//196 195//195 197//197
f 194//194 197//197 195//195
f 199//199 198//198 197//197
f 199//199 197//197 194//194
f 201//201 200//200 198//198
f 201//201 198//198 199//199
f 200//200 201//201 202//202
f 203//203 200//200 202//202
f 201//201 204//204 202//202
f 206//206 205//205 207//207
f 207//207 208//208 206//206
f 209//209 210//210 208//208
f 209//209 208//208 207//207
f 211//211 213//213 210//210
f 211//211 210//210 209//209
f 212//212 214//214 213//213
f 212//212 213//213 211//211
f 216//216 215//215 214//214
f 216//216 214//214 212//212
f 219//219 217//217 215//215
f 219//219 215//215 216//216
f 220//220 218//218 217//217
f 220//220 217//217 219//219
f 221//221 222//222 218//218
f 221//221 218//218 220//220
f 223//223 224//224 222//222
f 223//223 222//222 221//221
f 225//225 227//227 224//224
f 225//225 224//224 223//223
f 226//226 228//228 227//227
f 226//226 227//227 225//225
f 231//231 229//229 228//228
f 231//231 228//228 226//226
f 232//232 230//230 229//229
f 232//232 229//229 231//231
f 233//233 235//235 230//230
f 233//233 230//230 232//232
f 234//234 236//236 235//235
f 234//234 235//235 233//233
f 239//239 237//237 236//236
f 239//239 236//236 234//234
f 240//240 238//238 237//237
f 240//240 237//237 239//239
f 241//241 242//242 238//238
f 241//241 238//238 240//240
f 243//243 245//245 242//242
f 243//243 242//242 241//241
f 244//244 246//246 245//245
f 244//244 245//245 243//243
f 249//249 247//247 246//246
f 249//249 246//246 244//244
f 250//250 248//248 247//247
f 250//250 247//247 249//249
f 251//251 253//253 248//248
f 251//251 248//248 250//250
f 252//252 254//254 253//253
f 252//252 253//253 251//251
f 257//257 255//255 254//254
f 257//257 254//254 252//252
f 258//258 256//256 255//255
f 258//258 255//255 257//257
f 259//259 260//260 256//256
f 259//259 256//256 258//258
f 260//260 259//259 261//261
f 259//259 262//262 261//261
f 260//260 261//261 263//263
f 208//208 264//264 206//206
f 266//266 265//265 267//267
f 268//268 271//271 269//269
f 268//268 269//269 267//267
f 269//269 266//266 267//267
f 270//270 266//266 269//269
f 273//273 272//272 271//271
f 273//273 271//271 268//268
f 275//275 274//274 272//272
f 275//275 272//272 273//273
f 277//277 276//276 274//274
f 277//277 274//274 275//275
f 280//280 278//278 276//276
f 280//280 276//276 277//277
f 281//281 279//279 278//278
f 281//281 278//278 280//280
f 281//281 282//282 283//283
f 281//281 283//283 279//279
f 283//283 284//284 279//279
f 286//286 285//285 287//287
f 287//287 289//289 286//286
f 288//288 291//291 289//289
f 288//288 289//289 287//287
f 290//290 286//286 289//289
f 294//294 292//292 291//291
f 294//294 291//291 288//288
f 295//295 293//293 292//292
f 295//295 292//292 294//294
f 296//296 297//297 293//293
f 296//296 293//293 295//295
f 298//298 299//299 297//297
f 298//298 297//297 296//296
f 300//300 302//302 299//299
f 300//300 299//299 298//298
f 301//301 303//303 302//302
f 301//301 302//302 300//300
f 306//306 304//304 303//303
f 306//306 303//303 301//301
f 307//307 305//305 304//304
f 307//307 304//304 306//306
f 308//308 309//309 305//305
f 308//308 305//305 307//307
f 310//310 311//311 309//309
f 310//310 309//309 308//308
f 312//312 313//313 311//311
f 312//312 311//311 310//310
f 314//314 315//315 313//313
f 314//314 313//313 312//312
f 316//316 317//317 315//315
f 316//316 315//315 314//314
f 318//318 320//320 317//317
f 318//318 317//317 316//316
f 319//319 321//321 320//320
f 319//319 320//320 318//318
f 323//323 322//322 321//321
f 323//323 321//321 319//319
f 326//326 324//324 322//322
f 326//326 322//322 323//323
f 327//327 325//325 324//324
f 327//327 324//324 326//326
f 328//328 329//329 325//325
f 328//328 325//325 327//327
f 330//330 331//331 329//329
f 330//330 329//329 328//328
f 332//332 334//334 331//331
f 332//332 331//331 330//330
f 333//333 335//335 334//334
f 333//333 334//334 332//332
f 338//338 336//336 335//335
f 338//338 335//335 333//333
f 339//339 337//337 336//336
f 339//339 336//336 338//338
f 340//340 341//341 337//337
f 340//340 337//337 339//339
f 340//340 343//343 341//341
f 340//340 342//342 343//343
f 343//343 344//344 341//341
f 345//345 348//348 346//346
f 346//346 347//347 345//345
f 349//349 348//348 350//350
f 349//349 346//346 348//348
f 351//351 350//350 348//348
f 350//350 351//351 352//352
f 353//353 354//354 350//350
f 353//353 350//350 352//352
f 354//354 353//353 355//355
f 355//355 356//356 354//354
f 356//356 355//355 357//357
f 359//359 360//360 358//358
f 359//359 358//358 357//357
f 357//357 358//358 356//356
f 361//361 363//363 360//360
f 361//361 360//360 359//359
f 362//362 364//364 363//363
f 362//362 363//363 361//361
f 366//366 365//365 364//364
f 366//366 364//364 362//362
f 368//368 367//367 365//365
f 368//368 365//365 366//366
f 370//370 369//369 367//367
f 370//370 367//367 368//368
f 369//369 370//370 371//371
f 371//371 372//372 369//369
f 372//372 371//371 373//373
f 373//373 374//374 372//372
f 376//376 375//375 374//374
f 376//376 374//374 373//373
f 376//376 377//377 375//375
f 378//378 377//377 376//376
f 378//378 376//376 380//380
f 379//379 378//378 381//381
f 380//380 381//381 378//378
f 381//381 382//382 379//379
f 382//382 381//381 383//383
f 382//382 383//383 384//384
f 381//381 380//380 385//385
f 381//381 385//385 383//383
f 386//386 384//384 383//383
f 371//371 386//386 383//383
f 383//383 385//385 371//371
f 370//370 386//386 371//371
f 371//371 385//385 373//373
f 380//380 376//376 373//373
f 380//380 373//373 385//385
f 358//358 387//387 356//356
f 356//356 387//387 388//388
f 387//387 389//389 388//388
f 388//388 389//389 347//347
f 388//388 347//347 346//346
f 390//390 388//388 346//346
f 390//390 346//346 349//349
f 388//388 390//390 356//356
f 356//356 390//390 354//354
f 354//354 390//390 349//349
f 354//354 349//349 350//350
f 392//392 391//391 393//393
f 393//393 395//395 392//392
f 394//394 395//395 393//393
f 396//396 397//397 392//392
f 396//396 392//392 395//395
f 398//398 399//399 397//397
f 398//398 397//397 396//396
f 400//400 401//401 399//399
f 400//400 399//399 398//398
f 402//402 403//403 401//401
f 402//402 401//401 400//400
f 404//404 405//405 403//403
f 404//404 403//403 402//402
f 406//406 407//407 405//405
f 406//406 405//405 404//404
f 406//406 409//409 407//407
f 408//408 409//409 406//406
f 407//407 409//409 410//410
f 412//412 411//411 413//413
f 413//413 415//415 412//412
f 414//414 415//415 413//413
f 416//416 417//417 412//412
f 416//416 412//412 415//415
f 418//418 419//419 417//417
f 418//418 417//417 416//416
f 420//420 422//422 419//419
f 420//420 419//419 418//418
f 421//421 423//423 422//422
f 421//421 422//422 420//420
f 425//425 424//424 423//423
f 425//425 423//423 421//421
f 427//427 426//426 424//424
f 427//427 424//424 425//425
f 427//427 429//429 426//426
f 426//426 429//429 428//428
f 430//430 429//429 427//427
f 432//432 431//431 433//433
f 432//432 433//433 434//434
f 436//436 435//435 437//437
f 436//436 437//437 438//438
f 439//439 438//438 437//437
f 443//443 441//441 440//440
f 441//441 442//442 440//440
f 446//446 443//443 444//444
f 445//445 441//441 443//443
f 446//446 445//445 443//443
f 446//446 444//444 447//447
f 450//450 448//448 446//446
f 450//450 446//446 447//447
f 448//448 451//451 445//445
f 448//448 445//445 446//446
f 448//448 450//450 449//449
f 449//449 451//451 448//448
f 453//453 451//451 449//449
f 451//451 452//452 441//441
f 451//451 441//441 445//445
f 451//451 453//453 452//452
f 452//452 453//453 454//454
f 452//452 454//454 442//442
f 452//452 442//442 441//441
f 460//460 456//456 455//455
f 460//460 455//455 457//457
f 459//459 457//457 458//458
f 457//457 459//459 460//460
f 459//459 461//461 460//460
f 463//463 465//465 464//464
f 463//463 464//464 462//462
f 467//467 468//468 466//466
f 469//469 466//466 468//468
f 469//469 468//468 470//470
f 472//472 471//471 474//474
f 472//472 473//473 471//471
f 474//474 475//475 472//472
f 476//476 477//477 472//472
f 476//476 472//472 475//475
f 477//477 476//476 478//478
f 480//480 481//481 479//479
f 480//480 479//479 478//478
f 478//478 479//479 477//477
f 482//482 483//483 481//481
f 482//482 481//481 480//480
f 484//484 485//485 483//483
f 484//484 483//483 482//482
f 486//486 487//487 485//485
f 486//486 485//485 484//484
f 488//488 491//491 487//487
f 488//488 487//487 486//486
f 491//491 488//488 489//489
f 488//488 490//490 489//489
f 489//489 492//492 491//491
f 494//494 493//493 492//492
f 494//494 492//492 489//489
f 494//494 495//495 493//493
f 495//495 494//494 496//496
f 496//496 494//494 497//497
f 497//497 494//494 489//489
f 497//497 489//489 490//490
f 479//479 498//498 477//477
f 477//477 498//498 473//473
f 477//477 473//473 472//472
f 500//500 499//499 501//501
f 502//502 501//501 499//499
f 502//502 499//499 503//503
f 504//504 502//502 503//503
f 504//504 503//503 505//505
f 506//506 507//507 504//504
f 506//506 504//504 505//505
f 507//507 506//506 508//508
f 508//508 509//509 507//507
f 509//509 510//510 512//512
f 509//509 512//512 511//511
f 511//511 507//507 509//509
f 511//511 512//512 501//501
f 511//511 501//501 502//502
f 507//507 511//511 502//502
f 507//507 502//502 504//504
f 512//512 510//510 513//513
f 512//512 513//513 500//500
f 512//512 500//500 501//501
f 517//517 515//515 514//514
f 517//517 514//514 516//516
f 515//515 517//517 518//518
f 518//518 517//517 519//519
f 518//518 520//520 515//515
f 522//522 521//521 524//524
f 522//522 523//523 521//521
f 521//521 526//526 524//524
f 521//521 527//527 525//525
f 525//525 526//526 521//521
f 534//534 528//528 527//527
f 528//528 535//535 527//527
f 534//534 527//527 529//529
f 527//527 533//533 530//530
f 530//530 525//525 527//527
f 533//533 527//527 531//531
f 527//527 532//532 531//531
f 532//532 527//527 535//535
f 535//535 536//536 539//539
f 535//535 537//537 532//532
f 537//537 535//535 538//538
f 535//535 539//539 538//538
f 540//540 539//539 536//536
f 540//540 536//536 541//541
f 542//542 541//541 536//536
f 536//536 543//543 542//542
f 543//543 545//545 544//544
f 545//545 543//543 536//536
f 545//545 546//546 548//548
f 548//548 547//547 545//545
f 547//547 544//544 545//545
f 548//548 546//546 549//549
f 550//550 549//549 546//546
f 546//546 551//551 550//550
f 551//551 553//553 552//552
f 546//546 553//553 551//551
f 554//554 557//557 553//553
f 553//553 555//555 552//552
f 556//556 555//555 553//553
f 557//557 556//556 553//553
f 558//558 561//561 557//557
f 559//559 557//557 560//560
f 557//557 554//554 560//560
f 561//561 562//562 557//557
f 562//562 563//563 557//557
f 557//557 563//563 564//564
f 556//556 557//557 564//564
f 565//565 561//561 558//558
f 566//566 565//565 558//558
f 567//567 566//566 568//568
f 558//558 568//568 566//566
f 571//571 568//568 569//569
f 567//567 568//568 570//570
f 571//571 570//570 568//568
f 569//569 572//572 571//571
f 572//572 569//569 573//573
f 573//573 569//569 574//574
f 569//569 575//575 574//574
f 575//575 576//576 574//574
f 576//576 575//575 577//577
f 578//578 577//577 575//575
f 578//578 580//580 579//579
f 580//580 578//578 575//575
f 581//581 580//580 523//523
f 581//581 582//582 580//580
f 579//579 580//580 582//582
f 523//523 583//583 581//581
f 523//523 584//584 583//583
f 584//584 523//523 522//522
f 586//586 559//559 560//560
f 585//585 560//560 554//554
f 586//586 587//587 559//559
f 587//587 588//588 559//559
f 559//559 588//588 589//589
f 589//589 590//590 559//559
f 590//590 589//589 591//591
f 590//590 591//591 592//592
f 594//594 592//592 593//593
f 594//594 590//590 592//592
f 594//594 593//593 595//595
f 594//594 595//595 598//598
f 596//596 594//594 597//597
f 597//597 594//594 598//598
f 597//597 599//599 596//596
f 600//600 599//599 597//597
f 601//601 604//604 600//600
f 599//599 600//600 602//602
f 602//602 600//600 603//603
f 603//603 600//600 604//604
f 604//604 601//601 605//605
f 606//606 605//605 601//601
f 601//601 554//554 606//606
f 554//554 601//601 607//607
f 554//554 607//607 608//608
f 608//608 585//585 554//554
f 528//528 534//534 609//609
f 534//534 529//529 610//610
f 529//529 611//611 610//610
f 529//529 612//612 611//611
f 612//612 529//529 613//613
f 613//613 529//529 614//614
f 614//614 615//615 613//613
f 615//615 614//614 616//616
f 618//618 616//616 617//617
f 616//616 614//614 617//617
f 619//619 618//618 617//617
f 619//619 617//617 620//620
f 620//620 617//617 621//621
f 617//617 625//625 621//621
f 622//622 621//621 623//623
f 621//621 624//624 623//623
f 624//624 621//621 625//625
f 622//622 623//623 626//626
f 622//622 626//626 627//627
f 628//628 622//622 627//627
f 630//630 628//628 629//629
f 630//630 622//622 628//628
f 528//528 631//631 630//630
f 629//629 528//528 630//630
f 528//528 632//632 631//631
f 632//632 528//528 609//609
