# joint_01 exported from /models/guards/joint_01.glb
# units: meters
v 0.025476 -0.001000 0.025718
v 0.023476 -0.001000 0.025748
v 0.023288 -0.001000 0.033479
v 0.046313 -0.001000 0.030902
v 0.025439 -0.001000 0.023243
v 0.057229 -0.001000 0.033085
v 0.059566 -0.001000 0.043644
v 0.062849 -0.001000 0.042588
v 0.061321 -0.001000 0.043470
v 0.064203 -0.001000 0.038032
v 0.059988 -0.001000 0.033455
v 0.064224 -0.001000 0.039424
v 0.063878 -0.001000 0.041154
v 0.060334 -0.001000 0.033496
v 0.064198 -0.001000 0.037684
v 0.060679 -0.001000 0.033540
v 0.064184 -0.001000 0.037337
v 0.061354 -0.001000 0.033708
v 0.064071 -0.001000 0.036650
v 0.062575 -0.001000 0.034363
v 0.063515 -0.001000 0.035381
v -0.009525 -0.001000 0.010951
v -0.033026 -0.001000 -0.021174
v 0.023424 -0.001000 0.022232
v -0.002443 -0.001000 0.003653
v -0.021788 -0.001000 -0.021646
v -0.025304 -0.001000 -0.021593
v -0.025334 -0.001000 -0.023593
v -0.034176 -0.001000 -0.058363
v -0.022859 -0.001000 -0.023630
v -0.036948 -0.001000 -0.061711
v -0.034631 -0.001000 -0.059739
v -0.038379 -0.001000 -0.061940
v -0.044273 -0.001000 -0.057131
v -0.040194 -0.001000 -0.061913
v -0.044151 -0.001000 -0.058891
v -0.041913 -0.001000 -0.061515
v -0.043315 -0.001000 -0.060445
v -0.035604 -0.001000 -0.060943
v -0.022859 -0.001000 -0.023630
v -0.022859 0.000000 -0.023630
v -0.023913 -0.001000 -0.025687
v -0.023913 -0.000500 -0.025687
v -0.024920 -0.001000 -0.027758
v -0.024920 -0.000500 -0.027758
v -0.026789 -0.001000 -0.031937
v -0.026789 0.000000 -0.031937
v -0.030039 -0.001000 -0.040661
v -0.030039 0.001000 -0.040661
v -0.032505 0.000000 -0.049534
v -0.032505 -0.001000 -0.049534
v -0.033437 -0.000500 -0.053960
v -0.033437 -0.001000 -0.053960
v -0.033830 -0.001000 -0.056165
v -0.034176 -0.001000 -0.058363
v -0.033830 -0.000500 -0.056165
v -0.033830 0.000000 -0.056165
v -0.034176 0.000000 -0.058363
v -0.033437 0.000000 -0.053960
v -0.033830 0.000500 -0.056165
v -0.034176 0.001000 -0.058363
v -0.033830 0.001000 -0.056165
v -0.033437 0.000500 -0.053960
v -0.033437 0.001000 -0.053960
v -0.032505 0.001000 -0.049534
v -0.026789 0.001000 -0.031937
v -0.024920 0.000500 -0.027758
v -0.024920 0.001000 -0.027758
v -0.023913 0.001000 -0.025687
v -0.022859 0.001000 -0.023630
v -0.023913 0.000500 -0.025687
v -0.023913 0.000000 -0.025687
v -0.024920 0.000000 -0.027758
v -0.034176 -0.001000 -0.058363
v -0.034176 0.000000 -0.058363
v -0.034650 -0.001000 -0.059774
v -0.034650 0.001000 -0.059774
v -0.035629 -0.001000 -0.060964
v -0.035629 0.001000 -0.060964
v -0.036963 -0.001000 -0.061716
v -0.036963 0.001000 -0.061716
v -0.038379 -0.001000 -0.061940
v -0.038379 0.001000 -0.061940
v -0.034176 0.001000 -0.058363
v -0.038379 -0.001000 -0.061940
v -0.038379 0.001000 -0.061940
v -0.040194 -0.001000 -0.061913
v -0.040194 0.001000 -0.061913
v -0.040194 -0.001000 -0.061913
v -0.044265 0.000000 -0.058381
v -0.044265 -0.001000 -0.058381
v -0.040194 0.001000 -0.061913
v -0.044265 0.001000 -0.058381
v -0.043601 0.001000 -0.052997
v -0.043601 0.000000 -0.052997
v -0.041106 0.001000 -0.042140
v -0.041106 -0.001000 -0.042140
v -0.037584 0.001000 -0.031517
v -0.032970 0.001000 -0.021061
v -0.037584 -0.001000 -0.031517
v -0.032970 -0.001000 -0.021061
v -0.027290 -0.001000 -0.010972
v -0.027290 0.001000 -0.010972
v -0.020678 -0.001000 -0.001519
v -0.020678 0.001000 -0.001519
v -0.013122 -0.001000 0.007305
v -0.013122 0.001000 0.007305
v -0.004720 -0.001000 0.015364
v -0.004720 0.001000 0.015364
v 0.004406 -0.001000 0.022540
v 0.004406 0.001000 0.022540
v 0.014116 -0.001000 0.028745
v 0.014116 0.001000 0.028745
v 0.024256 -0.001000 0.033921
v 0.024256 0.001000 0.033921
v 0.034668 -0.001000 0.038039
v 0.034668 0.001000 0.038039
v 0.045195 -0.001000 0.041101
v 0.045195 0.001000 0.041101
v 0.056197 -0.000000 0.043211
v 0.056197 -0.001000 0.043211
v 0.061240 -0.001000 0.043495
v 0.061240 -0.000000 0.043495
v 0.064224 -0.001000 0.039424
v 0.064224 0.001000 0.039424
v 0.061240 0.001000 0.043495
v 0.056197 0.001000 0.043211
v -0.043601 -0.001000 -0.052997
v -0.025304 0.001000 -0.021593
v -0.025304 -0.001000 -0.021593
v -0.021788 0.001000 -0.021646
v -0.021788 -0.001000 -0.021646
v -0.022859 0.001000 -0.023630
v -0.022859 0.000000 -0.023630
v -0.025334 0.001000 -0.023593
v -0.025334 -0.001000 -0.023593
v -0.022859 -0.001000 -0.023630
v 0.023424 -0.001000 0.022232
v 0.021088 -0.000500 0.020993
v 0.021088 -0.001000 0.020993
v 0.023424 -0.000000 0.022232
v 0.023424 0.001000 0.022232
v 0.021088 -0.000000 0.020993
v 0.021088 0.000500 0.020993
v 0.018775 0.000500 0.019693
v 0.021088 0.001000 0.020993
v 0.018775 0.001000 0.019693
v 0.014228 0.001000 0.016913
v 0.014228 -0.000000 0.016913
v 0.005552 0.001000 0.010683
v 0.005552 -0.001000 0.010683
v -0.002483 0.001000 0.003614
v -0.002483 -0.001000 0.003614
v -0.009780 0.001000 -0.004212
v -0.009780 -0.001000 -0.004212
v -0.016240 0.000000 -0.012677
v -0.016240 0.001000 -0.012677
v -0.019132 0.001000 -0.017108
v -0.019132 0.000000 -0.017108
v -0.021788 0.001000 -0.021646
v -0.021788 -0.001000 -0.021646
v -0.019132 -0.001000 -0.017108
v -0.016240 -0.001000 -0.012677
v 0.014228 -0.001000 0.016913
v 0.018775 -0.000500 0.019693
v 0.018775 -0.001000 0.019693
v 0.018775 -0.000000 0.019693
v -0.025304 -0.001000 -0.021593
v -0.025334 -0.001000 -0.023593
v -0.025304 0.001000 -0.021593
v -0.025334 0.001000 -0.023593
v 0.064224 0.001000 0.039424
v 0.063747 0.001000 0.035783
v 0.064224 -0.001000 0.039424
v 0.063747 -0.001000 0.035783
v 0.060907 -0.001000 0.033584
v 0.060907 0.001000 0.033584
v 0.057229 -0.001000 0.033085
v 0.057229 0.001000 0.033085
v 0.053566 -0.001000 0.032482
v 0.053566 0.001000 0.032482
v 0.049926 -0.001000 0.031754
v 0.049926 0.001000 0.031754
v 0.046313 -0.001000 0.030902
v 0.046313 0.001000 0.030902
v 0.042731 -0.001000 0.029926
v 0.042731 0.001000 0.029926
v 0.039185 -0.001000 0.028828
v 0.039185 0.001000 0.028828
v 0.035679 -0.001000 0.027609
v 0.035679 0.001000 0.027609
v 0.032217 -0.001000 0.026271
v 0.032217 0.001000 0.026271
v 0.028802 -0.001000 0.024815
v 0.028802 0.001000 0.024815
v 0.025439 -0.001000 0.023243
v 0.025439 -0.000000 0.023243
v 0.025439 0.001000 0.023243
v 0.023424 0.001000 0.022232
v 0.023424 -0.000000 0.022232
v 0.023450 0.001000 0.023990
v 0.023450 -0.001000 0.023990
v 0.023476 -0.000000 0.025748
v 0.023476 0.001000 0.025748
v 0.023476 -0.001000 0.025748
v 0.023424 -0.001000 0.022232
v 0.023476 0.001000 0.025748
v 0.023476 -0.000000 0.025748
v 0.025476 0.001000 0.025718
v 0.025476 -0.000000 0.025718
v 0.025476 -0.001000 0.025718
v 0.023476 -0.001000 0.025748
v 0.025476 0.001000 0.025718
v 0.025476 -0.000000 0.025718
v 0.025439 0.001000 0.023243
v 0.025439 -0.000000 0.023243
v 0.025439 -0.001000 0.023243
v 0.025476 -0.001000 0.025718
v 0.023476 0.001000 0.025748
v 0.023424 0.001000 0.022232
v -0.009525 0.001000 0.010951
v 0.023288 0.001000 0.033479
v 0.025476 0.001000 0.025718
v 0.046313 0.001000 0.030902
v 0.025439 0.001000 0.023243
v 0.057229 0.001000 0.033085
v 0.059566 0.001000 0.043644
v 0.062849 0.001000 0.042588
v 0.061321 0.001000 0.043470
v 0.064203 0.001000 0.038032
v 0.059988 0.001000 0.033455
v 0.064224 0.001000 0.039424
v 0.063878 0.001000 0.041154
v 0.060334 0.001000 0.033496
v 0.060679 0.001000 0.033540
v 0.064198 0.001000 0.037684
v 0.064184 0.001000 0.037337
v 0.061354 0.001000 0.033708
v 0.064071 0.001000 0.036650
v 0.063515 0.001000 0.035381
v 0.062575 0.001000 0.034363
v -0.021788 0.001000 -0.021646
v -0.025304 0.001000 -0.021593
v -0.033026 0.001000 -0.021174
v -0.002443 0.001000 0.003653
v -0.025334 0.001000 -0.023593
v -0.034176 0.001000 -0.058363
v -0.044273 0.001000 -0.057131
v -0.038379 0.001000 -0.061940
v -0.040194 0.001000 -0.061913
v -0.044151 0.001000 -0.058891
v -0.041913 0.001000 -0.061515
v -0.043315 0.001000 -0.060445
v -0.036948 0.001000 -0.061711
v -0.034631 0.001000 -0.059739
v -0.035604 0.001000 -0.060943
v -0.022859 0.001000 -0.023630
vn 0.000000 -1.000000 -0.000000
vn 0.000000 -1.000000 -0.000000
vn 0.000000 -1.000000 -0.000000
vn 0.000000 -1.000000 -0.000000
vn 0.000000 -1.000000 -0.000000
vn 0.000000 -1.000000 -0.000000
vn 0.000000 -1.000000 -0.000000
vn 0.000000 -1.000000 -0.000000
vn 0.000000 -1.000000 -0.000000
vn 0.000000 -1.000000 -0.000000
vn 0.000000 -1.000000 -0.000000
vn 0.000000 -1.000000 -0.000000
vn 0.000000 -1.000000 -0.000000
vn 0.000000 -1.000000 -0.000000
vn 0.000000 -1.000000 -0.000000
vn 0.000000 -1.000000 -0.000000
vn 0.000000 -1.000000 -0.000000
vn 0.000000 -1.000000 -0.000000
vn 0.000000 -1.000000 -0.000000
vn 0.000000 -1.000000 -0.000000
vn 0.000000 -1.000000 -0.000000
vn 0.000000 -1.000000 -0.000000
vn 0.000000 -1.000000 -0.000000
vn 0.000000 -1.000000 -0.000000
vn 0.000000 -1.000000 -0.000000
vn 0.000000 -1.000000 -0.000000
vn 0.000000 -1.000000 -0.000000
vn 0.000000 -1.000000 -0.000000
vn 0.000000 -1.000000 -0.000000
vn 0.000000 -1.000000 -0.000000
vn 0.000000 -1.000000 -0.000000
vn 0.000000 -1.000000 -0.000000
vn 0.000000 -1.000000 -0.000000
vn 0.000000 -1.000000 -0.000000
vn 0.000000 -1.000000 -0.000000
vn 0.000000 -1.000000 -0.000000
vn 0.000000 -1.000000 -0.000000
vn 0.000000 -1.000000 -0.000000
vn 0.000000 -1.000000 -0.000000
vn 0.884933 0.000000 -0.465718
vn 0.884933 0.000000 -0.465718
vn 0.894647 0.000000 -0.446774
vn 0.894647 0.000000 -0.446774
vn 0.903974 0.000000 -0.427588
vn 0.903974 0.000000 -0.427588
vn 0.921232 0.000000 -0.389014
vn 0.921232 0.000000 -0.389014
vn 0.951163 0.000000 -0.308688
vn 0.951163 0.000000 -0.308688
vn 0.974011 0.000000 -0.226503
vn 0.974011 0.000000 -0.226503
vn 0.982606 0.000000 -0.185701
vn 0.982606 0.000000 -0.185701
vn 0.986242 0.000000 -0.165307
vn 0.989431 0.000000 -0.145005
vn 0.986242 0.000000 -0.165307
vn 0.986242 0.000000 -0.165307
vn 0.989431 0.000000 -0.145005
vn 0.982606 0.000000 -0.185701
vn 0.986242 0.000000 -0.165307
vn 0.989431 0.000000 -0.145005
vn 0.986242 0.000000 -0.165307
vn 0.982606 0.000000 -0.185701
vn 0.982606 0.000000 -0.185701
vn 0.974011 0.000000 -0.226503
vn 0.921232 0.000000 -0.389014
vn 0.903974 0.000000 -0.427588
vn 0.903974 0.000000 -0.427588
vn 0.894647 0.000000 -0.446774
vn 0.884933 0.000000 -0.465718
vn 0.894647 0.000000 -0.446774
vn 0.894647 0.000000 -0.446774
vn 0.903974 0.000000 -0.427588
vn 0.989417 0.000000 -0.145102
vn 0.989417 0.000000 -0.145102
vn 0.876005 0.000000 -0.482303
vn 0.876005 0.000000 -0.482303
vn 0.642493 0.000000 -0.766292
vn 0.642493 0.000000 -0.766292
vn 0.323299 0.000000 -0.946297
vn 0.323299 0.000000 -0.946297
vn -0.014900 0.000000 -0.999889
vn -0.014900 -0.000100 -0.999889
vn 0.989417 0.000000 -0.145102
vn -0.015000 0.000000 -0.999887
vn -0.015000 0.000000 -0.999887
vn -0.015000 0.000000 -0.999887
vn -0.015000 0.000000 -0.999887
vn -0.014900 0.000200 -0.999889
vn -0.987758 0.000000 -0.155993
vn -0.987758 0.000000 -0.155993
vn -0.014900 0.000000 -0.999889
vn -0.987758 0.000000 -0.155993
vn -0.984050 -0.000000 0.177891
vn -0.984047 -0.000000 0.177909
vn -0.962974 -0.000000 0.269593
vn -0.962974 -0.000000 0.269593
vn -0.933219 -0.000000 0.359307
vn -0.894187 -0.000000 0.447694
vn -0.933219 -0.000000 0.359307
vn -0.894187 -0.000000 0.447694
vn -0.846421 -0.000000 0.532514
vn -0.846421 -0.000000 0.532514
vn -0.790482 -0.000000 0.612486
vn -0.790482 -0.000000 0.612486
vn -0.726775 -0.000000 0.686876
vn -0.726775 -0.000000 0.686876
vn -0.655924 -0.000000 0.754827
vn -0.655924 -0.000000 0.754827
vn -0.578605 -0.000000 0.815608
vn -0.578605 -0.000000 0.815608
vn -0.496903 -0.000000 0.867806
vn -0.496903 -0.000000 0.867806
vn -0.411707 -0.000000 0.911316
vn -0.411707 -0.000000 0.911316
vn -0.323897 -0.000000 0.946092
vn -0.323897 -0.000000 0.946092
vn -0.234409 -0.000000 0.972138
vn -0.234409 -0.000000 0.972138
vn -0.141701 -0.000000 0.989909
vn -0.141701 -0.000000 0.989909
vn 0.287008 -0.000000 0.957928
vn 0.287008 -0.000000 0.957928
vn 0.999887 0.000000 -0.015000
vn 0.999887 0.000000 -0.015000
vn 0.287008 -0.000000 0.957928
vn -0.141701 -0.000000 0.989909
vn -0.984050 -0.000000 0.177891
vn -0.015000 0.000000 -0.999887
vn -0.015000 0.000000 -0.999887
vn -0.015000 0.000000 -0.999887
vn -0.015000 0.000000 -0.999887
vn 0.015000 -0.000000 0.999887
vn 0.015000 -0.000000 0.999887
vn 0.015000 -0.000000 0.999887
vn 0.015000 -0.000000 0.999887
vn 0.015000 -0.000000 0.999887
vn 0.457624 0.000000 -0.889146
vn 0.479202 0.000000 -0.877704
vn 0.479202 0.000000 -0.877704
vn 0.457624 0.000000 -0.889146
vn 0.457624 0.000000 -0.889146
vn 0.479202 0.000000 -0.877704
vn 0.479202 0.000000 -0.877704
vn 0.500516 0.000000 -0.865727
vn 0.479202 0.000000 -0.877704
vn 0.500516 0.000000 -0.865727
vn 0.542525 0.000000 -0.840039
vn 0.542525 0.000000 -0.840039
vn 0.622681 0.000000 -0.782476
vn 0.622681 0.000000 -0.782476
vn 0.696783 0.000000 -0.717282
vn 0.696783 0.000000 -0.717282
vn 0.764099 0.000000 -0.645099
vn 0.764099 0.000000 -0.645099
vn 0.823838 0.000000 -0.566826
vn 0.823838 0.000000 -0.566826
vn 0.850489 0.000000 -0.525993
vn 0.850489 0.000000 -0.525993
vn 0.875010 0.000000 -0.484105
vn 0.875010 0.000000 -0.484105
vn 0.850489 0.000000 -0.525993
vn 0.823838 0.000000 -0.566826
vn 0.542525 0.000000 -0.840039
vn 0.500516 0.000000 -0.865727
vn 0.500516 0.000000 -0.865727
vn 0.500516 0.000000 -0.865727
vn 0.999887 0.000000 -0.015000
vn 0.999887 0.000000 -0.015000
vn 0.999887 0.000000 -0.015000
vn 0.999887 0.000000 -0.015000
vn 0.999887 0.000000 -0.015000
vn 0.892418 0.000000 -0.451209
vn 0.999887 0.000000 -0.015000
vn 0.892418 0.000000 -0.451209
vn 0.214198 0.000000 -0.976790
vn 0.214198 0.000000 -0.976790
vn 0.145494 0.000000 -0.989359
vn 0.145494 0.000000 -0.989359
vn 0.179299 0.000000 -0.983795
vn 0.179299 0.000000 -0.983795
vn 0.212895 0.000000 -0.977075
vn 0.212895 0.000000 -0.977075
vn 0.246298 0.000000 -0.969194
vn 0.246298 0.000000 -0.969194
vn 0.279393 0.000000 -0.960177
vn 0.279393 0.000000 -0.960177
vn 0.312115 0.000000 -0.950044
vn 0.312115 0.000000 -0.950044
vn 0.344496 0.000000 -0.938788
vn 0.344496 0.000000 -0.938788
vn 0.376385 0.000000 -0.926463
vn 0.376385 0.000000 -0.926463
vn 0.407993 0.000000 -0.912985
vn 0.407993 0.000000 -0.912985
vn 0.439076 0.000000 -0.898450
vn 0.439076 0.000000 -0.898450
vn 0.439076 0.000000 -0.898450
vn 0.999889 0.000000 -0.014900
vn 0.999889 0.000000 -0.014900
vn 0.999887 0.000000 -0.015000
vn 0.999887 0.000000 -0.015000
vn 0.999887 0.000000 -0.015000
vn 0.999887 0.000000 -0.015000
vn 0.999887 0.000000 -0.015000
vn 0.999889 0.000000 -0.014900
vn -0.015000 0.000000 -0.999887
vn -0.015000 0.000000 -0.999887
vn -0.015000 0.000000 -0.999887
vn -0.015000 0.000000 -0.999887
vn -0.015000 0.000000 -0.999887
vn -0.015000 0.000000 -0.999887
vn -0.999887 -0.000000 0.015000
vn -0.999887 -0.000000 0.015000
vn -0.999887 -0.000000 0.015000
vn -0.999887 -0.000000 0.015000
vn -0.999887 -0.000000 0.015000
vn -0.999887 -0.000000 0.015000
vn 0.000000 1.000000 0.000000
vn 0.000000 1.000000 0.000000
vn 0.000000 1.000000 0.000000
vn 0.000000 1.000000 0.000000
vn 0.000000 1.000000 0.000000
vn 0.000000 1.000000 0.000000
vn 0.000000 1.000000 0.000000
vn 0.000000 1.000000 0.000000
vn 0.000000 1.000000 0.000000
vn 0.000000 1.000000 0.000000
vn 0.000000 1.000000 0.000000
vn 0.000000 1.000000 0.000000
vn 0.000000 1.000000 0.000000
vn 0.000000 1.000000 0.000000
vn 0.000000 1.000000 0.000000
vn 0.000000 1.000000 0.000000
vn 0.000000 1.000000 0.000000
vn 0.000000 1.000000 0.000000
vn 0.000000 1.000000 0.000000
vn 0.000000 1.000000 0.000000
vn 0.000000 1.000000 0.000000
vn 0.000000 1.000000 0.000000
vn 0.000000 1.000000 0.000000
vn 0.000000 1.000000 0.000000
vn 0.000000 1.000000 0.000000
vn 0.000000 1.000000 0.000000
vn 0.000000 1.000000 0.000000
vn 0.000000 1.000000 0.000000
vn 0.000000 1.000000 0.000000
vn 0.000000 1.000000 0.000000
vn 0.000000 1.000000 0.000000
vn 0.000000 1.000000 0.000000
vn 0.000000 1.000000 0.000000
vn 0.000000 1.000000 0.000000
vn 0.000000 1.000000 0.000000
vn 0.000000 1.000000 0.000000
vn 0.000000 1.000000 0.000000
vn 0.000000 1.000000 0.000000
vn 0.000000 1.000000 0.000000
f 2//2 1//1 3//3
f 1//1 4//4 3//3
f 4//4 1//1 5//5
f 6//6 7//7 4//4
f 4//4 7//7 3//3
f 7//7 12//12 8//8
f 8//8 9//9 7//7
f 12//12 7//7 10//10
f 10//10 7//7 11//11
f 7//7 6//6 11//11
f 8//8 12//12 13//13
f 10//10 11//11 14//14
f 14//14 15//15 10//10
f 14//14 16//16 15//15
f 15//15 16//16 17//17
f 17//17 16//16 18//18
f 17//17 18//18 19//19
f 19//19 18//18 20//20
f 21//21 19//19 20//20
f 3//3 22//22 2//2
f 22//22 23//23 27//27
f 24//24 22//22 25//25
f 24//24 2//2 22//22
f 25//25 22//22 26//26
f 27//27 26//26 22//22
f 28//28 27//27 23//23
f 29//29 28//28 23//23
f 29//29 30//30 28//28
f 29//29 23//23 34//34
f 33//33 31//31 29//29
f 31//31 32//32 29//29
f 34//34 33//33 29//29
f 35//35 33//33 34//34
f 35//35 34//34 36//36
f 35//35 36//36 37//37
f 38//38 37//37 36//36
f 39//39 32//32 31//31
f 41//41 40//40 42//42
f 41//41 42//42 43//43
f 45//45 43//43 42//42
f 45//45 42//42 44//44
f 45//45 44//44 46//46
f 46//46 47//47 45//45
f 47//47 46//46 48//48
f 48//48 49//49 47//47
f 49//49 48//48 50//50
f 48//48 51//51 50//50
f 50//50 51//51 52//52
f 51//51 53//53 52//52
f 56//56 52//52 53//53
f 56//56 53//53 54//54
f 55//55 56//56 54//54
f 57//57 59//59 52//52
f 57//57 52//52 56//56
f 55//55 58//58 57//57
f 55//55 57//57 56//56
f 58//58 60//60 57//57
f 60//60 63//63 59//59
f 60//60 59//59 57//57
f 60//60 58//58 61//61
f 61//61 62//62 60//60
f 62//62 64//64 63//63
f 62//62 63//63 60//60
f 63//63 64//64 65//65
f 65//65 50//50 63//63
f 50//50 59//59 63//63
f 50//50 65//65 49//49
f 52//52 59//59 50//50
f 49//49 66//66 47//47
f 47//47 66//66 67//67
f 66//66 68//68 67//67
f 68//68 69//69 71//71
f 68//68 71//71 67//67
f 70//70 71//71 69//69
f 70//70 41//41 72//72
f 70//70 72//72 71//71
f 67//67 71//71 72//72
f 67//67 72//72 73//73
f 73//73 72//72 43//43
f 73//73 43//43 45//45
f 72//72 41//41 43//43
f 67//67 73//73 47//47
f 47//47 73//73 45//45
f 75//75 74//74 76//76
f 77//77 75//75 76//76
f 79//79 77//77 76//76
f 79//79 76//76 78//78
f 81//81 79//79 78//78
f 81//81 78//78 80//80
f 82//82 83//83 81//81
f 82//82 81//81 80//80
f 75//75 77//77 84//84
f 86//86 85//85 87//87
f 86//86 87//87 88//88
f 89//89 90//90 92//92
f 90//90 89//89 91//91
f 93//93 92//92 90//90
f 94//94 93//93 90//90
f 94//94 90//90 95//95
f 96//96 94//94 95//95
f 98//98 96//96 97//97
f 98//98 97//97 100//100
f 97//97 96//96 95//95
f 99//99 98//98 100//100
f 99//99 100//100 101//101
f 103//103 99//99 101//101
f 103//103 101//101 102//102
f 105//105 103//103 102//102
f 105//105 102//102 104//104
f 107//107 105//105 104//104
f 107//107 104//104 106//106
f 109//109 107//107 106//106
f 109//109 106//106 108//108
f 111//111 109//109 108//108
f 111//111 108//108 110//110
f 113//113 111//111 110//110
f 113//113 110//110 112//112
f 115//115 113//113 112//112
f 115//115 112//112 114//114
f 117//117 115//115 114//114
f 117//117 114//114 116//116
f 119//119 117//117 116//116
f 119//119 116//116 118//118
f 119//119 118//118 120//120
f 118//118 121//121 120//120
f 123//123 120//120 121//121
f 123//123 121//121 122//122
f 123//123 122//122 124//124
f 124//124 125//125 123//123
f 126//126 123//123 125//125
f 126//126 127//127 120//120
f 126//126 120//120 123//123
f 120//120 127//127 119//119
f 95//95 128//128 97//97
f 95//95 90//90 91//91
f 95//95 91//91 128//128
f 130//130 129//129 131//131
f 130//130 131//131 132//132
f 136//136 134//134 133//133
f 136//136 133//133 135//135
f 136//136 137//137 134//134
f 141//141 138//138 139//139
f 141//141 139//139 143//143
f 139//139 138//138 140//140
f 142//142 141//141 144//144
f 142//142 144//144 146//146
f 143//143 144//144 141//141
f 145//145 144//144 143//143
f 145//145 143//143 167//167
f 147//147 146//146 144//144
f 147//147 144//144 145//145
f 148//148 147//147 145//145
f 149//149 148//148 145//145
f 150//150 148//148 149//149
f 152//152 150//150 151//151
f 152//152 151//151 153//153
f 151//151 150//150 149//149
f 154//154 152//152 153//153
f 154//154 153//153 155//155
f 154//154 155//155 156//156
f 156//156 157//157 154//154
f 158//158 157//157 156//156
f 158//158 156//156 159//159
f 158//158 159//159 160//160
f 160//160 159//159 161//161
f 159//159 162//162 161//161
f 159//159 156//156 163//163
f 159//159 163//163 162//162
f 155//155 163//163 156//156
f 149//149 164//164 151//151
f 164//164 149//149 165//165
f 165//165 166//166 164//164
f 165//165 139//139 140//140
f 165//165 140//140 166//166
f 149//149 167//167 165//165
f 167//167 143//143 139//139
f 167//167 139//139 165//165
f 145//145 167//167 149//149
f 169//169 171//171 170//170
f 169//169 170//170 168//168
f 173//173 172//172 174//174
f 173//173 174//174 175//175
f 176//176 177//177 173//173
f 176//176 173//173 175//175
f 178//178 179//179 177//177
f 178//178 177//177 176//176
f 180//180 181//181 179//179
f 180//180 179//179 178//178
f 182//182 183//183 181//181
f 182//182 181//181 180//180
f 184//184 185//185 183//183
f 184//184 183//183 182//182
f 186//186 187//187 185//185
f 186//186 185//185 184//184
f 188//188 189//189 187//187
f 188//188 187//187 186//186
f 190//190 191//191 189//189
f 190//190 189//189 188//188
f 192//192 193//193 191//191
f 192//192 191//191 190//190
f 194//194 195//195 193//193
f 194//194 193//193 192//192
f 195//195 194//194 197//197
f 196//196 197//197 194//194
f 197//197 198//198 195//195
f 200//200 199//199 201//201
f 202//202 200//200 201//201
f 202//202 201//201 203//203
f 202//202 203//203 205//205
f 204//204 203//203 201//201
f 200//200 202//202 206//206
f 208//208 207//207 209//209
f 208//208 209//209 210//210
f 212//212 208//208 210//210
f 212//212 210//210 211//211
f 214//214 213//213 215//215
f 214//214 215//215 216//216
f 218//218 214//214 216//216
f 218//218 216//216 217//217
f 220//220 221//221 219//219
f 222//222 219//219 221//221
f 219//219 222//222 223//223
f 223//223 222//222 224//224
f 224//224 225//225 223//223
f 226//226 224//224 227//227
f 224//224 222//222 227//227
f 227//227 228//228 232//232
f 228//228 227//227 229//229
f 232//232 230//230 227//227
f 230//230 231//231 227//227
f 227//227 231//231 226//226
f 228//228 233//233 232//232
f 230//230 234//234 231//231
f 234//234 236//236 235//235
f 234//234 230//230 236//236
f 236//236 237//237 235//235
f 237//237 238//238 235//235
f 237//237 239//239 238//238
f 240//240 241//241 239//239
f 239//239 241//241 238//238
f 243//243 221//221 242//242
f 245//245 242//242 221//221
f 221//221 243//243 244//244
f 220//220 245//245 221//221
f 246//246 244//244 243//243
f 247//247 244//244 246//246
f 247//247 248//248 244//244
f 248//248 247//247 249//249
f 250//250 248//248 249//249
f 250//250 251//251 248//248
f 250//250 252//252 251//251
f 253//253 251//251 252//252
f 249//249 247//247 254//254
f 254//254 247//247 255//255
f 256//256 254//254 255//255
f 247//247 246//246 257//257
