# joint_17 exported from /models/guards/joint_17.glb
# units: meters
v -0.011307 0.001000 0.024277
v -0.018763 0.001000 0.019814
v -0.019181 0.001000 0.019900
v -0.019553 0.001000 0.019875
v -0.018351 0.001000 0.019588
v -0.018014 0.001000 0.019223
v -0.011373 0.001000 0.019873
v -0.047623 0.001000 0.017125
v -0.048220 0.001000 0.010020
v -0.048076 0.001000 0.010359
v -0.054950 0.001000 0.003511
v -0.045799 0.001000 0.014302
v -0.045370 0.001000 0.014774
v -0.044784 0.001000 0.015025
v -0.048207 0.001000 0.009154
v -0.047989 0.001000 0.008724
v -0.047646 0.001000 0.008386
v -0.048277 0.001000 0.009607
v -0.046459 0.001000 0.008143
v -0.046825 0.001000 0.008110
v -0.047236 0.001000 0.008181
v -0.021232 0.001000 0.013627
v 0.005828 0.001000 0.016688
v 0.000293 0.001000 0.018427
v -0.000680 0.001000 0.018257
v 0.017341 0.001000 0.005378
v 0.008531 0.001000 0.017877
v 0.008287 0.001000 0.018190
v -0.020715 0.001000 0.013847
v 0.001135 0.001000 0.018943
v 0.008082 0.001000 0.018979
v 0.008130 0.001000 0.018570
v 0.008143 0.001000 0.019371
v 0.001763 0.001000 0.019808
v 0.001996 0.001000 0.020851
v 0.008994 0.001000 0.022252
v 0.001826 0.001000 0.021824
v 0.001310 0.001000 0.022666
v 0.009352 0.001000 0.022867
v 0.009773 0.001000 0.028459
v 0.000445 0.001000 0.023295
v -0.000599 0.001000 0.023528
v -0.001571 0.001000 0.023358
v -0.009337 0.001000 0.024636
v -0.009396 0.001000 0.019843
v -0.003275 0.001000 0.020933
v -0.003042 0.001000 0.021976
v -0.002414 0.001000 0.022842
v -0.003105 0.001000 0.019960
v -0.002589 0.001000 0.019118
v -0.001724 0.001000 0.018490
v -0.020316 0.001000 0.014241
v -0.018035 0.001000 0.017551
v -0.017863 0.001000 0.017882
v -0.017773 0.001000 0.018299
v -0.017815 0.001000 0.018768
v 0.029118 0.001000 0.009254
v 0.009670 0.001000 0.023119
v 0.010479 0.001000 0.023326
v 0.010060 0.001000 0.023280
v 0.010879 0.001000 0.023259
v 0.011489 0.001000 0.022891
v 0.023611 0.001000 0.010858
v 0.023985 0.001000 0.010243
v 0.024054 0.001000 0.009837
v 0.024005 0.001000 0.009412
v 0.023838 0.001000 0.009018
v 0.023579 0.001000 0.008698
v 0.022951 0.001000 0.008347
v 0.022820 0.001000 0.000279
v 0.022006 0.001000 0.000839
v 0.023400 0.001000 -0.000619
v 0.023577 0.001000 -0.001673
v 0.023355 0.001000 -0.002636
v 0.024613 0.001000 -0.010484
v 0.019820 0.001000 -0.010413
v 0.021897 0.001000 -0.004030
v 0.022794 0.001000 -0.003449
v 0.020842 0.001000 -0.004206
v 0.019880 0.001000 -0.003984
v 0.019067 0.001000 -0.003424
v 0.018486 0.001000 -0.002526
v 0.014016 0.001000 -0.020844
v 0.018309 0.001000 -0.001472
v 0.013616 0.001000 -0.021229
v 0.013384 0.001000 -0.021734
v 0.007346 0.001000 -0.045865
v 0.002175 0.001000 -0.055236
v 0.007365 0.001000 -0.046660
v 0.007301 0.001000 -0.046237
v 0.007921 0.001000 -0.047443
v 0.007571 0.001000 -0.047087
v 0.008369 0.001000 -0.047665
v 0.008838 0.001000 -0.047728
v 0.009260 0.001000 -0.047657
v 0.016418 0.001000 -0.046432
v 0.013466 0.001000 -0.045068
v 0.009600 0.001000 -0.047499
v 0.013891 0.001000 -0.044666
v 0.014130 0.001000 -0.044131
v 0.019564 0.001000 -0.020292
v 0.024159 0.001000 -0.012472
v 0.018957 0.001000 -0.018727
v 0.019314 0.001000 -0.019076
v 0.019601 0.001000 -0.019919
v 0.019529 0.001000 -0.019497
v 0.019790 0.001000 -0.012393
v 0.017615 0.001000 -0.018540
v 0.018036 0.001000 -0.018460
v 0.017279 0.001000 -0.018704
v 0.018506 0.001000 -0.018514
v 0.018531 0.001000 -0.000509
v 0.019092 0.001000 0.000304
v 0.019990 0.001000 0.000885
v 0.021044 0.001000 0.001061
v 0.020095 0.001000 0.007563
v 0.019321 0.001000 0.007557
v 0.018647 0.001000 0.007939
v 0.023611 0.001000 0.010858
v 0.011489 0.001000 0.022891
v 0.023611 -0.001000 0.010858
v 0.011489 -0.001000 0.022891
v 0.011489 -0.001000 0.022891
v 0.010879 -0.001000 0.023259
v 0.011489 0.001000 0.022891
v 0.010879 0.001000 0.023259
v 0.010479 0.001000 0.023326
v 0.010479 -0.001000 0.023326
v 0.010060 0.001000 0.023280
v 0.009670 0.001000 0.023119
v 0.010060 -0.001000 0.023280
v 0.009670 -0.001000 0.023119
v 0.009352 -0.001000 0.022867
v 0.009352 0.001000 0.022867
v 0.008994 -0.001000 0.022252
v 0.008994 0.001000 0.022252
v 0.008143 -0.001000 0.019371
v 0.008994 -0.001000 0.022252
v 0.008143 0.001000 0.019371
v 0.008994 0.001000 0.022252
v 0.022951 0.001000 0.008347
v 0.020095 0.001000 0.007563
v 0.022951 -0.001000 0.008347
v 0.020095 -0.001000 0.007563
v 0.008531 0.001000 0.017877
v 0.018647 0.001000 0.007939
v 0.008531 -0.001000 0.017877
v 0.018647 -0.001000 0.007939
v 0.022951 -0.001000 0.008347
v 0.023579 -0.001000 0.008698
v 0.022951 0.001000 0.008347
v 0.023579 0.001000 0.008698
v 0.023838 0.001000 0.009018
v 0.023838 -0.001000 0.009018
v 0.024005 0.001000 0.009412
v 0.024054 0.001000 0.009837
v 0.024005 -0.001000 0.009412
v 0.024054 -0.001000 0.009837
v 0.023985 -0.001000 0.010243
v 0.023985 0.001000 0.010243
v 0.023611 -0.001000 0.010858
v 0.023611 0.001000 0.010858
v 0.018647 -0.001000 0.007939
v 0.019321 -0.001000 0.007557
v 0.018647 0.001000 0.007939
v 0.019321 0.001000 0.007557
v 0.020095 0.001000 0.007563
v 0.020095 -0.001000 0.007563
v 0.008143 -0.001000 0.019371
v 0.008082 -0.001000 0.018979
v 0.008143 0.001000 0.019371
v 0.008082 0.001000 0.018979
v 0.008130 0.001000 0.018570
v 0.008287 0.001000 0.018190
v 0.008130 -0.001000 0.018570
v 0.008287 -0.001000 0.018190
v 0.008531 -0.001000 0.017877
v 0.008531 0.001000 0.017877
v 0.009600 0.001000 -0.047499
v 0.013466 0.001000 -0.045068
v 0.009600 -0.001000 -0.047499
v 0.013466 -0.001000 -0.045068
v 0.014130 -0.001000 -0.044131
v 0.014130 0.001000 -0.044131
v 0.019564 -0.001000 -0.020292
v 0.019564 0.001000 -0.020292
v 0.014016 0.001000 -0.020844
v 0.014016 -0.001000 -0.020844
v 0.017279 0.001000 -0.018704
v 0.017279 -0.001000 -0.018704
v 0.013384 0.001000 -0.021734
v 0.007346 0.001000 -0.045865
v 0.013384 -0.001000 -0.021734
v 0.007346 -0.001000 -0.045865
v 0.014130 0.001000 -0.044131
v 0.013891 0.001000 -0.044666
v 0.014130 -0.001000 -0.044131
v 0.013891 -0.001000 -0.044666
v 0.013466 -0.001000 -0.045068
v 0.013466 0.001000 -0.045068
v 0.017279 0.001000 -0.018704
v 0.017615 0.001000 -0.018540
v 0.017279 -0.001000 -0.018704
v 0.017615 -0.001000 -0.018540
v 0.018036 -0.001000 -0.018460
v 0.018036 0.001000 -0.018460
v 0.018506 -0.001000 -0.018514
v 0.018957 -0.001000 -0.018727
v 0.018506 0.001000 -0.018514
v 0.018957 0.001000 -0.018727
v 0.019314 0.001000 -0.019076
v 0.019529 0.001000 -0.019497
v 0.019314 -0.001000 -0.019076
v 0.019529 -0.001000 -0.019497
v 0.019601 -0.001000 -0.019919
v 0.019564 -0.001000 -0.020292
v 0.019601 0.001000 -0.019919
v 0.019564 0.001000 -0.020292
v 0.013384 0.001000 -0.021734
v 0.013616 0.001000 -0.021229
v 0.013384 -0.001000 -0.021734
v 0.013616 -0.001000 -0.021229
v 0.014016 -0.001000 -0.020844
v 0.014016 0.001000 -0.020844
v 0.009600 0.001000 -0.047499
v 0.009260 0.001000 -0.047657
v 0.009600 -0.001000 -0.047499
v 0.009260 -0.001000 -0.047657
v 0.008838 -0.001000 -0.047728
v 0.008838 0.001000 -0.047728
v 0.008369 -0.001000 -0.047665
v 0.007921 -0.001000 -0.047443
v 0.008369 0.001000 -0.047665
v 0.007921 0.001000 -0.047443
v 0.007571 0.001000 -0.047087
v 0.007365 0.001000 -0.046660
v 0.007571 -0.001000 -0.047087
v 0.007365 -0.001000 -0.046660
v 0.007301 -0.001000 -0.046237
v 0.007346 -0.001000 -0.045865
v 0.007301 0.001000 -0.046237
v 0.007346 0.001000 -0.045865
v -0.020316 0.001000 0.014241
v -0.018035 0.001000 0.017551
v -0.020316 -0.001000 0.014241
v -0.018035 -0.001000 0.017551
v -0.019553 0.001000 0.019875
v -0.019181 0.001000 0.019900
v -0.019553 -0.001000 0.019875
v -0.019181 -0.001000 0.019900
v -0.018763 -0.001000 0.019814
v -0.018351 -0.001000 0.019588
v -0.018763 0.001000 0.019814
v -0.018351 0.001000 0.019588
v -0.018014 0.001000 0.019223
v -0.017815 0.001000 0.018768
v -0.018014 -0.001000 0.019223
v -0.017815 -0.001000 0.018768
v -0.017773 -0.001000 0.018299
v -0.017773 0.001000 0.018299
v -0.017863 -0.001000 0.017882
v -0.018035 -0.001000 0.017551
v -0.017863 0.001000 0.017882
v -0.018035 0.001000 0.017551
v -0.045799 0.001000 0.014302
v -0.048076 0.001000 0.010359
v -0.045799 -0.001000 0.014302
v -0.048076 -0.001000 0.010359
v -0.046459 0.001000 0.008143
v -0.046825 0.001000 0.008110
v -0.046459 -0.001000 0.008143
v -0.046825 -0.001000 0.008110
v -0.047236 -0.001000 0.008181
v -0.047236 0.001000 0.008181
v -0.047646 -0.001000 0.008386
v -0.047989 -0.001000 0.008724
v -0.047646 0.001000 0.008386
v -0.047989 0.001000 0.008724
v -0.048207 0.001000 0.009154
v -0.048277 0.001000 0.009607
v -0.048207 -0.001000 0.009154
v -0.048277 -0.001000 0.009607
v -0.048220 -0.001000 0.010020
v -0.048076 -0.001000 0.010359
v -0.048220 0.001000 0.010020
v -0.048076 0.001000 0.010359
v -0.021232 0.001000 0.013627
v -0.021232 -0.001000 0.013627
v -0.046459 0.001000 0.008143
v -0.046459 -0.001000 0.008143
v -0.020316 0.001000 0.014241
v -0.020715 0.001000 0.013847
v -0.020316 -0.001000 0.014241
v -0.020715 -0.001000 0.013847
v -0.021232 -0.001000 0.013627
v -0.021232 0.001000 0.013627
v -0.019553 0.001000 0.019875
v -0.044784 0.001000 0.015025
v -0.019553 -0.001000 0.019875
v -0.044784 -0.001000 0.015025
v -0.045799 0.001000 0.014302
v -0.045370 0.001000 0.014774
v -0.045799 -0.001000 0.014302
v -0.045370 -0.001000 0.014774
v -0.044784 -0.001000 0.015025
v -0.044784 0.001000 0.015025
v 0.001826 0.001000 0.021824
v 0.001310 0.001000 0.022666
v 0.001826 -0.001000 0.021824
v 0.001310 -0.001000 0.022666
v 0.000445 -0.001000 0.023295
v 0.000445 0.001000 0.023295
v -0.000599 -0.001000 0.023528
v -0.000599 0.001000 0.023528
v -0.001571 -0.001000 0.023358
v -0.001571 0.001000 0.023358
v -0.002414 -0.001000 0.022842
v -0.002414 0.001000 0.022842
v -0.003042 -0.001000 0.021976
v -0.003042 0.001000 0.021976
v -0.003275 -0.001000 0.020933
v -0.003275 0.001000 0.020933
v -0.003105 -0.001000 0.019960
v -0.003105 0.001000 0.019960
v -0.002589 -0.001000 0.019118
v -0.002589 0.001000 0.019118
v -0.001724 -0.001000 0.018490
v -0.001724 0.001000 0.018490
v -0.000680 -0.001000 0.018257
v -0.000680 0.001000 0.018257
v 0.000293 -0.001000 0.018427
v 0.000293 0.001000 0.018427
v 0.001135 -0.001000 0.018943
v 0.001135 0.001000 0.018943
v 0.001763 -0.001000 0.019808
v 0.001763 0.001000 0.019808
v 0.001996 -0.001000 0.020851
v 0.001996 0.001000 0.020851
v 0.001826 -0.001000 0.021824
v 0.001826 0.001000 0.021824
v 0.022006 0.001000 0.000839
v 0.022820 0.001000 0.000279
v 0.022006 -0.001000 0.000839
v 0.022820 -0.001000 0.000279
v 0.023400 -0.001000 -0.000619
v 0.023577 -0.001000 -0.001673
v 0.023400 0.001000 -0.000619
v 0.023577 0.001000 -0.001673
v 0.023355 0.001000 -0.002636
v 0.022794 0.001000 -0.003449
v 0.023355 -0.001000 -0.002636
v 0.022794 -0.001000 -0.003449
v 0.021897 -0.001000 -0.004030
v 0.020842 -0.001000 -0.004206
v 0.021897 0.001000 -0.004030
v 0.020842 0.001000 -0.004206
v 0.019880 0.001000 -0.003984
v 0.019067 0.001000 -0.003424
v 0.019880 -0.001000 -0.003984
v 0.019067 -0.001000 -0.003424
v 0.018486 -0.001000 -0.002526
v 0.018309 -0.001000 -0.001472
v 0.018486 0.001000 -0.002526
v 0.018309 0.001000 -0.001472
v 0.018531 0.001000 -0.000509
v 0.019092 0.001000 0.000304
v 0.018531 -0.001000 -0.000509
v 0.019092 -0.001000 0.000304
v 0.019990 -0.001000 0.000885
v 0.021044 -0.001000 0.001061
v 0.019990 0.001000 0.000885
v 0.021044 0.001000 0.001061
v 0.022006 0.001000 0.000839
v 0.022006 -0.001000 0.000839
v -0.011307 -0.001000 0.024277
v -0.047623 -0.001000 0.017125
v -0.011307 0.001000 0.024277
v -0.047623 0.001000 0.017125
v -0.047623 -0.001000 0.017125
v -0.051287 -0.001000 0.010318
v -0.047623 0.001000 0.017125
v -0.051287 0.001000 0.010318
v -0.054950 0.001000 0.003511
v -0.054950 -0.001000 0.003511
v -0.054950 -0.001000 0.003511
v 0.005828 -0.001000 0.016688
v -0.054950 0.001000 0.003511
v 0.005828 0.001000 0.016688
v 0.005828 -0.001000 0.016688
v 0.011584 -0.001000 0.011033
v 0.005828 0.001000 0.016688
v 0.011584 0.001000 0.011033
v 0.017341 0.001000 0.005378
v 0.017341 -0.001000 0.005378
v 0.017341 -0.001000 0.005378
v 0.002175 -0.001000 -0.055236
v 0.017341 0.001000 0.005378
v 0.002175 0.001000 -0.055236
v 0.002175 -0.001000 -0.055236
v 0.016418 -0.001000 -0.046432
v 0.002175 0.001000 -0.055236
v 0.016418 0.001000 -0.046432
v 0.016418 -0.001000 -0.046432
v 0.024159 -0.001000 -0.012472
v 0.016418 0.001000 -0.046432
v 0.024159 0.001000 -0.012472
v 0.024159 -0.001000 -0.012472
v 0.019790 -0.001000 -0.012393
v 0.024159 0.001000 -0.012472
v 0.019790 0.001000 -0.012393
v 0.019790 -0.001000 -0.012393
v 0.019820 -0.001000 -0.010413
v 0.019790 0.001000 -0.012393
v 0.019820 0.001000 -0.010413
v 0.019820 -0.001000 -0.010413
v 0.024613 -0.001000 -0.010484
v 0.019820 0.001000 -0.010413
v 0.024613 0.001000 -0.010484
v 0.024613 -0.001000 -0.010484
v 0.029118 -0.001000 0.009254
v 0.024613 0.001000 -0.010484
v 0.029118 0.001000 0.009254
v 0.029118 -0.001000 0.009254
v 0.009773 -0.001000 0.028459
v 0.029118 0.001000 0.009254
v 0.009773 0.001000 0.028459
v 0.009773 -0.001000 0.028459
v -0.009337 -0.001000 0.024636
v 0.009773 0.001000 0.028459
v -0.009337 0.001000 0.024636
v -0.009337 -0.001000 0.024636
v -0.009396 -0.001000 0.019843
v -0.009337 0.001000 0.024636
v -0.009396 0.001000 0.019843
v -0.009396 -0.001000 0.019843
v -0.011373 -0.001000 0.019873
v -0.009396 0.001000 0.019843
v -0.011373 0.001000 0.019873
v -0.011373 -0.001000 0.019873
v -0.011307 -0.001000 0.024277
v -0.011373 0.001000 0.019873
v -0.011307 0.001000 0.024277
v -0.047623 -0.001000 0.017125
v -0.011307 -0.001000 0.024277
v -0.019553 -0.001000 0.019875
v -0.048076 -0.001000 0.010359
v -0.048220 -0.001000 0.010020
v -0.054950 -0.001000 0.003511
v -0.045799 -0.001000 0.014302
v -0.044784 -0.001000 0.015025
v -0.045370 -0.001000 0.014774
v 0.005828 -0.001000 0.016688
v -0.048277 -0.001000 0.009607
v -0.048207 -0.001000 0.009154
v -0.047646 -0.001000 0.008386
v -0.047989 -0.001000 0.008724
v -0.047236 -0.001000 0.008181
v -0.046825 -0.001000 0.008110
v -0.046459 -0.001000 0.008143
v -0.021232 -0.001000 0.013627
v -0.020715 -0.001000 0.013847
v -0.001724 -0.001000 0.018490
v -0.000680 -0.001000 0.018257
v -0.020316 -0.001000 0.014241
v -0.011373 -0.001000 0.019873
v -0.018035 -0.001000 0.017551
v -0.009396 -0.001000 0.019843
v -0.009337 -0.001000 0.024636
v -0.003275 -0.001000 0.020933
v -0.002589 -0.001000 0.019118
v -0.003105 -0.001000 0.019960
v -0.003042 -0.001000 0.021976
v -0.002414 -0.001000 0.022842
v -0.001571 -0.001000 0.023358
v -0.000599 -0.001000 0.023528
v 0.009773 -0.001000 0.028459
v 0.000445 -0.001000 0.023295
v 0.001310 -0.001000 0.022666
v 0.009352 -0.001000 0.022867
v 0.008994 -0.001000 0.022252
v 0.001826 -0.001000 0.021824
v 0.001996 -0.001000 0.020851
v 0.001763 -0.001000 0.019808
v 0.008143 -0.001000 0.019371
v 0.008082 -0.001000 0.018979
v 0.008130 -0.001000 0.018570
v 0.008287 -0.001000 0.018190
v 0.008531 -0.001000 0.017877
v 0.017341 -0.001000 0.005378
v 0.018647 -0.001000 0.007939
v 0.019321 -0.001000 0.007557
v 0.020095 -0.001000 0.007563
v 0.022006 -0.001000 0.000839
v 0.021044 -0.001000 0.001061
v 0.022951 -0.001000 0.008347
v 0.022820 -0.001000 0.000279
v 0.023579 -0.001000 0.008698
v 0.029118 -0.001000 0.009254
v 0.023838 -0.001000 0.009018
v 0.024005 -0.001000 0.009412
v 0.024054 -0.001000 0.009837
v 0.023985 -0.001000 0.010243
v 0.023611 -0.001000 0.010858
v 0.011489 -0.001000 0.022891
v 0.010879 -0.001000 0.023259
v 0.010479 -0.001000 0.023326
v 0.010060 -0.001000 0.023280
v 0.009670 -0.001000 0.023119
v 0.023400 -0.001000 -0.000619
v 0.023577 -0.001000 -0.001673
v 0.024613 -0.001000 -0.010484
v 0.022794 -0.001000 -0.003449
v 0.021897 -0.001000 -0.004030
v 0.019820 -0.001000 -0.010413
v 0.023355 -0.001000 -0.002636
v 0.019067 -0.001000 -0.003424
v 0.019880 -0.001000 -0.003984
v 0.020842 -0.001000 -0.004206
v 0.019790 -0.001000 -0.012393
v 0.014016 -0.001000 -0.020844
v 0.018486 -0.001000 -0.002526
v 0.013616 -0.001000 -0.021229
v 0.018309 -0.001000 -0.001472
v 0.018531 -0.001000 -0.000509
v 0.019092 -0.001000 0.000304
v 0.019990 -0.001000 0.000885
v 0.013384 -0.001000 -0.021734
v 0.002175 -0.001000 -0.055236
v 0.007346 -0.001000 -0.045865
v 0.007301 -0.001000 -0.046237
v 0.007365 -0.001000 -0.046660
v 0.007571 -0.001000 -0.047087
v 0.007921 -0.001000 -0.047443
v 0.008369 -0.001000 -0.047665
v 0.008838 -0.001000 -0.047728
v 0.009260 -0.001000 -0.047657
v 0.009600 -0.001000 -0.047499
v 0.016418 -0.001000 -0.046432
v 0.024159 -0.001000 -0.012472
v 0.013891 -0.001000 -0.044666
v 0.014130 -0.001000 -0.044131
v 0.013466 -0.001000 -0.045068
v 0.019564 -0.001000 -0.020292
v 0.019601 -0.001000 -0.019919
v 0.019529 -0.001000 -0.019497
v 0.019314 -0.001000 -0.019076
v 0.018957 -0.001000 -0.018727
v 0.018506 -0.001000 -0.018514
v 0.018036 -0.001000 -0.018460
v 0.017615 -0.001000 -0.018540
v 0.017279 -0.001000 -0.018704
v 0.001135 -0.001000 0.018943
v 0.000293 -0.001000 0.018427
v -0.017863 -0.001000 0.017882
v -0.017773 -0.001000 0.018299
v -0.017815 -0.001000 0.018768
v -0.018014 -0.001000 0.019223
v -0.018351 -0.001000 0.019588
v -0.018763 -0.001000 0.019814
v -0.019181 -0.001000 0.019900
vn 0.000000 1.000000 0.000000
vn 0.000000 1.000000 0.000000
vn 0.000000 1.000000 0.000000
vn 0.000000 1.000000 0.000000
vn 0.000000 1.000000 0.000000
vn 0.000000 1.000000 0.000000
vn 0.000000 1.000000 0.000000
vn 0.000000 1.000000 0.000000
vn 0.000000 1.000000 0.000000
vn 0.000000 1.000000 0.000000
vn 0.000000 1.000000 0.000000
vn 0.000000 1.000000 0.000000
vn 0.000000 1.000000 0.000000
vn 0.000000 1.000000 0.000000
vn 0.000000 1.000000 0.000000
vn 0.000000 1.000000 0.000000
vn 0.000000 1.000000 0.000000
vn 0.000000 1.000000 0.000000
vn 0.000000 1.000000 0.000000
vn 0.000000 1.000000 0.000000
vn 0.000000 1.000000 0.000000
vn 0.000000 1.000000 0.000000
vn 0.000000 1.000000 0.000000
vn 0.000000 1.000000 0.000000
vn 0.000000 1.000000 0.000000
vn 0.000000 1.000000 0.000000
vn 0.000000 1.000000 0.000000
vn 0.000000 1.000000 0.000000
vn 0.000000 1.000000 0.000000
vn 0.000000 1.000000 0.000000
vn 0.000000 1.000000 0.000000
vn 0.000000 1.000000 0.000000
vn 0.000000 1.000000 0.000000
vn 0.000000 1.000000 0.000000
vn 0.000000 1.000000 0.000000
vn 0.000000 1.000000 0.000000
vn 0.000000 1.000000 0.000000
vn 0.000000 1.000000 0.000000
vn 0.000000 1.000000 0.000000
vn 0.000000 1.000000 0.000000
vn 0.000000 1.000000 0.000000
vn 0.000000 1.000000 0.000000
vn 0.000000 1.000000 0.000000
vn 0.000000 1.000000 0.000000
vn 0.000000 1.000000 0.000000
vn 0.000000 1.000000 0.000000
vn 0.000000 1.000000 0.000000
vn 0.000000 1.000000 0.000000
vn 0.000000 1.000000 0.000000
vn 0.000000 1.000000 0.000000
vn 0.000000 1.000000 0.000000
vn 0.000000 1.000000 0.000000
vn 0.000000 1.000000 0.000000
vn 0.000000 1.000000 0.000000
vn 0.000000 1.000000 0.000000
vn 0.000000 1.000000 0.000000
vn 0.000000 1.000000 0.000000
vn 0.000000 1.000000 0.000000
vn 0.000000 1.000000 0.000000
vn 0.000000 1.000000 0.000000
vn 0.000000 1.000000 0.000000
vn 0.000000 1.000000 0.000000
vn 0.000000 1.000000 0.000000
vn 0.000000 1.000000 0.000000
vn 0.000000 1.000000 0.000000
vn 0.000000 1.000000 0.000000
vn 0.000000 1.000000 0.000000
vn 0.000000 1.000000 0.000000
vn 0.000000 1.000000 0.000000
vn 0.000000 1.000000 0.000000
vn 0.000000 1.000000 0.000000
vn 0.000000 1.000000 0.000000
vn 0.000000 1.000000 0.000000
vn 0.000000 1.000000 0.000000
vn 0.000000 1.000000 0.000000
vn 0.000000 1.000000 0.000000
vn 0.000000 1.000000 0.000000
vn 0.000000 1.000000 0.000000
vn 0.000000 1.000000 0.000000
vn 0.000000 1.000000 0.000000
vn 0.000000 1.000000 0.000000
vn 0.000000 1.000000 0.000000
vn 0.000000 1.000000 0.000000
vn 0.000000 1.000000 0.000000
vn 0.000000 1.000000 0.000000
vn 0.000000 1.000000 0.000000
vn 0.000000 1.000000 0.000000
vn 0.000000 1.000000 0.000000
vn 0.000000 1.000000 0.000000
vn 0.000000 1.000000 0.000000
vn 0.000000 1.000000 0.000000
vn 0.000000 1.000000 0.000000
vn 0.000000 1.000000 0.000000
vn 0.000000 1.000000 0.000000
vn 0.000000 1.000000 0.000000
vn 0.000000 1.000000 0.000000
vn 0.000000 1.000000 0.000000
vn 0.000000 1.000000 0.000000
vn 0.000000 1.000000 0.000000
vn 0.000000 1.000000 0.000000
vn 0.000000 1.000000 0.000000
vn 0.000000 1.000000 0.000000
vn 0.000000 1.000000 0.000000
vn 0.000000 1.000000 0.000000
vn 0.000000 1.000000 0.000000
vn 0.000000 1.000000 0.000000
vn 0.000000 1.000000 0.000000
vn 0.000000 1.000000 0.000000
vn 0.000000 1.000000 0.000000
vn 0.000000 1.000000 0.000000
vn 0.000000 1.000000 0.000000
vn 0.000000 1.000000 0.000000
vn 0.000000 1.000000 0.000000
vn 0.000000 1.000000 0.000000
vn 0.000000 1.000000 0.000000
vn 0.000000 1.000000 0.000000
vn 0.000000 1.000000 0.000000
vn 0.000000 1.000000 0.000000
vn -0.704502 0.000000 -0.709702
vn -0.704502 0.000000 -0.709702
vn -0.704502 0.000000 -0.709702
vn -0.704502 0.000000 -0.709702
vn -0.704402 0.000000 -0.709802
vn -0.297597 0.000000 -0.954691
vn -0.704402 0.000000 -0.709802
vn -0.297597 0.000000 -0.954691
vn -0.030901 0.000000 -0.999522
vn -0.030901 0.000000 -0.999522
vn 0.248390 0.000000 -0.968660
vn 0.508099 0.000000 -0.861299
vn 0.248390 0.000000 -0.968660
vn 0.508099 0.000000 -0.861299
vn 0.720281 0.000000 -0.693682
vn 0.720281 0.000000 -0.693682
vn 0.959064 0.000000 -0.283189
vn 0.959064 0.000000 -0.283189
vn 0.959091 0.000000 -0.283097
vn 0.959091 0.000000 -0.283097
vn 0.959091 0.000000 -0.283097
vn 0.959091 0.000000 -0.283097
vn -0.264708 -0.000000 0.964329
vn -0.264708 -0.000000 0.964329
vn -0.264708 -0.000000 0.964329
vn -0.264708 -0.000000 0.964329
vn 0.700779 -0.000000 0.713379
vn 0.700779 -0.000000 0.713379
vn 0.700779 -0.000000 0.713379
vn 0.700779 -0.000000 0.713379
vn -0.264801 -0.000000 0.964303
vn -0.683475 -0.000000 0.729974
vn -0.264801 -0.000000 0.964303
vn -0.683475 -0.000000 0.729974
vn -0.856060 -0.000000 0.516876
vn -0.856060 -0.000000 0.516876
vn -0.967204 -0.000000 0.254001
vn -0.999571 0.000000 -0.029299
vn -0.967204 -0.000000 0.254001
vn -0.999571 0.000000 -0.029299
vn -0.954030 0.000000 -0.299710
vn -0.954030 0.000000 -0.299710
vn -0.704602 0.000000 -0.709602
vn -0.704602 0.000000 -0.709602
vn 0.700728 -0.000000 0.713429
vn 0.251608 -0.000000 0.967829
vn 0.700728 -0.000000 0.713429
vn 0.251608 -0.000000 0.967829
vn -0.264589 -0.000000 0.964361
vn -0.264589 -0.000000 0.964361
vn 0.959118 0.000000 -0.283005
vn 0.999765 0.000000 -0.021699
vn 0.959118 0.000000 -0.283005
vn 0.999765 0.000000 -0.021699
vn 0.968036 -0.000000 0.250809
vn 0.863340 -0.000000 0.504623
vn 0.968036 -0.000000 0.250809
vn 0.863340 -0.000000 0.504623
vn 0.700829 -0.000000 0.713329
vn 0.700829 -0.000000 0.713329
vn -0.532325 -0.000000 0.846540
vn -0.532325 -0.000000 0.846540
vn -0.532325 -0.000000 0.846540
vn -0.532325 -0.000000 0.846540
vn -0.974979 -0.000000 0.222295
vn -0.974979 -0.000000 0.222295
vn -0.974979 -0.000000 0.222295
vn -0.974979 -0.000000 0.222295
vn 0.548407 0.000000 -0.836211
vn 0.548407 0.000000 -0.836211
vn 0.548407 0.000000 -0.836211
vn 0.548407 0.000000 -0.836211
vn 0.970101 0.000000 -0.242700
vn 0.970101 0.000000 -0.242700
vn 0.970101 0.000000 -0.242700
vn 0.970101 0.000000 -0.242700
vn -0.974958 -0.000000 0.222390
vn -0.815688 -0.000000 0.578492
vn -0.974958 -0.000000 0.222390
vn -0.815688 -0.000000 0.578492
vn -0.532397 -0.000000 0.846495
vn -0.532397 -0.000000 0.846495
vn 0.548407 0.000000 -0.836211
vn 0.324196 0.000000 -0.945990
vn 0.548407 0.000000 -0.836211
vn 0.324196 0.000000 -0.945990
vn 0.043902 0.000000 -0.999036
vn 0.043902 0.000000 -0.999036
vn -0.269500 0.000000 -0.963000
vn -0.570613 0.000000 -0.821219
vn -0.269500 0.000000 -0.963000
vn -0.570613 0.000000 -0.821219
vn -0.808498 0.000000 -0.588499
vn -0.951582 0.000000 -0.307394
vn -0.808498 0.000000 -0.588499
vn -0.951582 0.000000 -0.307394
vn -0.999659 0.000000 -0.026099
vn -0.975001 -0.000000 0.222200
vn -0.999659 0.000000 -0.026099
vn -0.975001 -0.000000 0.222200
vn 0.970078 0.000000 -0.242794
vn 0.815190 0.000000 -0.579193
vn 0.970078 0.000000 -0.242794
vn 0.815190 0.000000 -0.579193
vn 0.548477 0.000000 -0.836165
vn 0.548477 0.000000 -0.836165
vn -0.532280 -0.000000 0.846568
vn -0.306009 -0.000000 0.952029
vn -0.532280 -0.000000 0.846568
vn -0.306009 -0.000000 0.952029
vn -0.024500 -0.000000 0.999700
vn -0.024500 -0.000000 0.999700
vn 0.288403 -0.000000 0.957509
vn 0.586928 -0.000000 0.809639
vn 0.288403 -0.000000 0.957509
vn 0.586928 -0.000000 0.809639
vn 0.820395 -0.000000 0.571797
vn 0.957746 -0.000000 0.287614
vn 0.820395 -0.000000 0.571797
vn 0.957746 -0.000000 0.287614
vn 0.999986 -0.000000 0.005200
vn 0.970101 0.000000 -0.242700
vn 0.999986 -0.000000 0.005200
vn 0.970101 0.000000 -0.242700
vn -0.823382 -0.000000 0.567488
vn -0.823382 -0.000000 0.567488
vn -0.823382 -0.000000 0.567488
vn -0.823382 -0.000000 0.567488
vn 0.188706 0.000000 -0.982034
vn -0.059502 0.000000 -0.998228
vn 0.188706 0.000000 -0.982034
vn -0.059502 0.000000 -0.998228
vn -0.337894 0.000000 -0.941184
vn -0.612881 0.000000 -0.790175
vn -0.337894 0.000000 -0.941184
vn -0.612881 0.000000 -0.790175
vn -0.837244 0.000000 -0.546829
vn -0.969848 0.000000 -0.243712
vn -0.837244 0.000000 -0.546829
vn -0.969848 0.000000 -0.243712
vn -0.997630 -0.000000 0.068802
vn -0.997630 -0.000000 0.068802
vn -0.938011 -0.000000 0.346604
vn -0.823429 -0.000000 0.567420
vn -0.938011 -0.000000 0.346604
vn -0.823429 -0.000000 0.567420
vn 0.866019 0.000000 -0.500011
vn 0.866019 0.000000 -0.500011
vn 0.866019 0.000000 -0.500011
vn 0.866019 0.000000 -0.500011
vn -0.212396 -0.000000 0.977184
vn 0.031700 -0.000000 0.999497
vn -0.212396 -0.000000 0.977184
vn 0.031700 -0.000000 0.999497
vn 0.305799 -0.000000 0.952096
vn 0.305799 -0.000000 0.952096
vn 0.579013 -0.000000 0.815318
vn 0.807697 -0.000000 0.589598
vn 0.579013 -0.000000 0.815318
vn 0.807697 -0.000000 0.589598
vn 0.952963 -0.000000 0.303088
vn 0.999999 -0.000000 0.001200
vn 0.952963 -0.000000 0.303088
vn 0.999999 -0.000000 0.001200
vn 0.961641 0.000000 -0.274312
vn 0.866087 0.000000 -0.499893
vn 0.961641 0.000000 -0.274312
vn 0.866087 0.000000 -0.499893
vn -0.212396 -0.000000 0.977184
vn -0.212396 -0.000000 0.977184
vn -0.212396 -0.000000 0.977184
vn -0.212396 -0.000000 0.977184
vn -0.823382 -0.000000 0.567488
vn -0.556891 -0.000000 0.830586
vn -0.823382 -0.000000 0.567488
vn -0.556891 -0.000000 0.830586
vn -0.212492 -0.000000 0.977163
vn -0.212492 -0.000000 0.977163
vn 0.188803 0.000000 -0.982015
vn 0.188803 0.000000 -0.982015
vn 0.188803 0.000000 -0.982015
vn 0.188803 0.000000 -0.982015
vn 0.865976 0.000000 -0.500086
vn 0.579828 0.000000 -0.814739
vn 0.865976 0.000000 -0.500086
vn 0.579828 0.000000 -0.814739
vn 0.188899 0.000000 -0.981996
vn 0.188899 0.000000 -0.981996
vn -0.935364 0.000000 -0.353686
vn -0.739573 0.000000 -0.673076
vn -0.935364 0.000000 -0.353686
vn -0.739573 0.000000 -0.673076
vn -0.411383 0.000000 -0.911463
vn -0.411383 0.000000 -0.911463
vn -0.015500 0.000000 -0.999880
vn -0.015500 0.000000 -0.999880
vn 0.353599 0.000000 -0.935397
vn 0.353599 0.000000 -0.935397
vn 0.673076 0.000000 -0.739574
vn 0.673076 0.000000 -0.739574
vn 0.911463 0.000000 -0.411383
vn 0.911463 0.000000 -0.411383
vn 0.999878 0.000000 -0.015600
vn 0.999878 0.000000 -0.015600
vn 0.935397 -0.000000 0.353599
vn 0.935397 -0.000000 0.353599
vn 0.739573 -0.000000 0.673076
vn 0.739573 -0.000000 0.673076
vn 0.411383 -0.000000 0.911463
vn 0.411383 -0.000000 0.911463
vn 0.015500 -0.000000 0.999880
vn 0.015500 -0.000000 0.999880
vn -0.353599 -0.000000 0.935397
vn -0.353599 -0.000000 0.935397
vn -0.673076 -0.000000 0.739574
vn -0.673076 -0.000000 0.739574
vn -0.911463 -0.000000 0.411383
vn -0.911463 -0.000000 0.411383
vn -0.999880 -0.000000 0.015500
vn -0.999880 -0.000000 0.015500
vn -0.935430 0.000000 -0.353511
vn -0.935430 0.000000 -0.353511
vn -0.403492 0.000000 -0.914983
vn -0.711890 0.000000 -0.702291
vn -0.403492 0.000000 -0.914983
vn -0.711890 0.000000 -0.702291
vn -0.932262 0.000000 -0.361785
vn -0.999270 -0.000000 0.038199
vn -0.932262 0.000000 -0.361785
vn -0.999270 -0.000000 0.038199
vn -0.915020 -0.000000 0.403409
vn -0.702291 -0.000000 0.711890
vn -0.915020 -0.000000 0.403409
vn -0.702291 -0.000000 0.711890
vn -0.361785 -0.000000 0.932262
vn 0.038199 -0.000000 0.999270
vn -0.361785 -0.000000 0.932262
vn 0.038199 -0.000000 0.999270
vn 0.403409 -0.000000 0.915020
vn 0.711890 -0.000000 0.702291
vn 0.403409 -0.000000 0.915020
vn 0.711890 -0.000000 0.702291
vn 0.932262 -0.000000 0.361785
vn 0.999270 0.000000 -0.038199
vn 0.932262 -0.000000 0.361785
vn 0.999270 0.000000 -0.038199
vn 0.915020 0.000000 -0.403409
vn 0.702291 0.000000 -0.711890
vn 0.915020 0.000000 -0.403409
vn 0.702291 0.000000 -0.711890
vn 0.361785 0.000000 -0.932262
vn -0.038199 0.000000 -0.999270
vn 0.361785 0.000000 -0.932262
vn -0.038199 0.000000 -0.999270
vn -0.403288 0.000000 -0.915073
vn -0.403288 0.000000 -0.915073
vn -0.193192 -0.000000 0.981161
vn -0.193192 -0.000000 0.981161
vn -0.193192 -0.000000 0.981161
vn -0.193192 -0.000000 0.981161
vn -0.880583 -0.000000 0.473891
vn -0.880583 -0.000000 0.473891
vn -0.880583 -0.000000 0.473891
vn -0.880583 -0.000000 0.473891
vn -0.880583 -0.000000 0.473891
vn -0.880583 -0.000000 0.473891
vn 0.211898 0.000000 -0.977292
vn 0.211898 0.000000 -0.977292
vn 0.211898 0.000000 -0.977292
vn 0.211898 0.000000 -0.977292
vn -0.700779 0.000000 -0.713379
vn -0.700779 0.000000 -0.713379
vn -0.700779 0.000000 -0.713379
vn -0.700779 0.000000 -0.713379
vn -0.700779 0.000000 -0.713379
vn -0.700779 0.000000 -0.713379
vn -0.970101 -0.000000 0.242700
vn -0.970101 -0.000000 0.242700
vn -0.970101 -0.000000 0.242700
vn -0.970101 -0.000000 0.242700
vn 0.525804 0.000000 -0.850606
vn 0.525804 0.000000 -0.850606
vn 0.525804 0.000000 -0.850606
vn 0.525804 0.000000 -0.850606
vn 0.974979 0.000000 -0.222295
vn 0.974979 0.000000 -0.222295
vn 0.974979 0.000000 -0.222295
vn 0.974979 0.000000 -0.222295
vn 0.018001 -0.000000 0.999838
vn 0.018001 -0.000000 0.999838
vn 0.018001 -0.000000 0.999838
vn 0.018001 -0.000000 0.999838
vn 0.999887 0.000000 -0.015000
vn 0.999887 0.000000 -0.015000
vn 0.999887 0.000000 -0.015000
vn 0.999887 0.000000 -0.015000
vn -0.015000 0.000000 -0.999887
vn -0.015000 0.000000 -0.999887
vn -0.015000 0.000000 -0.999887
vn -0.015000 0.000000 -0.999887
vn 0.974931 0.000000 -0.222507
vn 0.974931 0.000000 -0.222507
vn 0.974931 0.000000 -0.222507
vn 0.974931 0.000000 -0.222507
vn 0.704502 -0.000000 0.709702
vn 0.704502 -0.000000 0.709702
vn 0.704502 -0.000000 0.709702
vn 0.704502 -0.000000 0.709702
vn -0.196097 -0.000000 0.980585
vn -0.196097 -0.000000 0.980585
vn -0.196097 -0.000000 0.980585
vn -0.196097 -0.000000 0.980585
vn -0.999926 -0.000000 0.012200
vn -0.999926 -0.000000 0.012200
vn -0.999926 -0.000000 0.012200
vn -0.999926 -0.000000 0.012200
vn 0.014900 -0.000000 0.999889
vn 0.014900 -0.000000 0.999889
vn 0.014900 -0.000000 0.999889
vn 0.014900 -0.000000 0.999889
vn 0.999887 0.000000 -0.015000
vn 0.999887 0.000000 -0.015000
vn 0.999887 0.000000 -0.015000
vn 0.999887 0.000000 -0.015000
vn 0.000000 -1.000000 -0.000000
vn 0.000000 -1.000000 -0.000000
vn 0.000000 -1.000000 -0.000000
vn 0.000000 -1.000000 -0.000000
vn 0.000000 -1.000000 -0.000000
vn 0.000000 -1.000000 -0.000000
vn 0.000000 -1.000000 -0.000000
vn 0.000000 -1.000000 -0.000000
vn 0.000000 -1.000000 -0.000000
vn 0.000000 -1.000000 -0.000000
vn 0.000000 -1.000000 -0.000000
vn 0.000000 -1.000000 -0.000000
vn 0.000000 -1.000000 -0.000000
vn 0.000000 -1.000000 -0.000000
vn 0.000000 -1.000000 -0.000000
vn 0.000000 -1.000000 -0.000000
vn 0.000000 -1.000000 -0.000000
vn 0.000000 -1.000000 -0.000000
vn 0.000000 -1.000000 -0.000000
vn 0.000000 -1.000000 -0.000000
vn 0.000000 -1.000000 -0.000000
vn 0.000000 -1.000000 -0.000000
vn 0.000000 -1.000000 -0.000000
vn 0.000000 -1.000000 -0.000000
vn 0.000000 -1.000000 -0.000000
vn 0.000000 -1.000000 -0.000000
vn 0.000000 -1.000000 -0.000000
vn 0.000000 -1.000000 -0.000000
vn 0.000000 -1.000000 -0.000000
vn 0.000000 -1.000000 -0.000000
vn 0.000000 -1.000000 -0.000000
vn 0.000000 -1.000000 -0.000000
vn 0.000000 -1.000000 -0.000000
vn 0.000000 -1.000000 -0.000000
vn 0.000000 -1.000000 -0.000000
vn 0.000000 -1.000000 -0.000000
vn 0.000000 -1.000000 -0.000000
vn 0.000000 -1.000000 -0.000000
vn 0.000000 -1.000000 -0.000000
vn 0.000000 -1.000000 -0.000000
vn 0.000000 -1.000000 -0.000000
vn 0.000000 -1.000000 -0.000000
vn 0.000000 -1.000000 -0.000000
vn 0.000000 -1.000000 -0.000000
vn 0.000000 -1.000000 -0.000000
vn 0.000000 -1.000000 -0.000000
vn 0.000000 -1.000000 -0.000000
vn 0.000000 -1.000000 -0.000000
vn 0.000000 -1.000000 -0.000000
vn 0.000000 -1.000000 -0.000000
vn 0.000000 -1.000000 -0.000000
vn 0.000000 -1.000000 -0.000000
vn 0.000000 -1.000000 -0.000000
vn 0.000000 -1.000000 -0.000000
vn 0.000000 -1.000000 -0.000000
vn 0.000000 -1.000000 -0.000000
vn 0.000000 -1.000000 -0.000000
vn 0.000000 -1.000000 -0.000000
vn 0.000000 -1.000000 -0.000000
vn 0.000000 -1.000000 -0.000000
vn 0.000000 -1.000000 -0.000000
vn 0.000000 -1.000000 -0.000000
vn 0.000000 -1.000000 -0.000000
vn 0.000000 -1.000000 -0.000000
vn 0.000000 -1.000000 -0.000000
vn 0.000000 -1.000000 -0.000000
vn 0.000000 -1.000000 -0.000000
vn 0.000000 -1.000000 -0.000000
vn 0.000000 -1.000000 -0.000000
vn 0.000000 -1.000000 -0.000000
vn 0.000000 -1.000000 -0.000000
vn 0.000000 -1.000000 -0.000000
vn 0.000000 -1.000000 -0.000000
vn 0.000000 -1.000000 -0.000000
vn 0.000000 -1.000000 -0.000000
vn 0.000000 -1.000000 -0.000000
vn 0.000000 -1.000000 -0.000000
vn 0.000000 -1.000000 -0.000000
vn 0.000000 -1.000000 -0.000000
vn 0.000000 -1.000000 -0.000000
vn 0.000000 -1.000000 -0.000000
vn 0.000000 -1.000000 -0.000000
vn 0.000000 -1.000000 -0.000000
vn 0.000000 -1.000000 -0.000000
vn 0.000000 -1.000000 -0.000000
vn 0.000000 -1.000000 -0.000000
vn 0.000000 -1.000000 -0.000000
vn 0.000000 -1.000000 -0.000000
vn 0.000000 -1.000000 -0.000000
vn 0.000000 -1.000000 -0.000000
vn 0.000000 -1.000000 -0.000000
vn 0.000000 -1.000000 -0.000000
vn 0.000000 -1.000000 -0.000000
vn 0.000000 -1.000000 -0.000000
vn 0.000000 -1.000000 -0.000000
vn 0.000000 -1.000000 -0.000000
vn 0.000000 -1.000000 -0.000000
vn 0.000000 -1.000000 -0.000000
vn 0.000000 -1.000000 -0.000000
vn 0.000000 -1.000000 -0.000000
vn 0.000000 -1.000000 -0.000000
vn 0.000000 -1.000000 -0.000000
vn 0.000000 -1.000000 -0.000000
vn 0.000000 -1.000000 -0.000000
vn 0.000000 -1.000000 -0.000000
vn 0.000000 -1.000000 -0.000000
vn 0.000000 -1.000000 -0.000000
vn 0.000000 -1.000000 -0.000000
vn 0.000000 -1.000000 -0.000000
vn 0.000000 -1.000000 -0.000000
vn 0.000000 -1.000000 -0.000000
vn 0.000000 -1.000000 -0.000000
vn 0.000000 -1.000000 -0.000000
vn 0.000000 -1.000000 -0.000000
vn 0.000000 -1.000000 -0.000000
vn 0.000000 -1.000000 -0.000000
vn 0.000000 -1.000000 -0.000000
vn 0.000000 -1.000000 -0.000000
f 1//1 5//5 2//2
f 2//2 3//3 1//1
f 1//1 3//3 4//4
f 8//8 1//1 4//4
f 5//5 1//1 6//6
f 6//6 1//1 7//7
f 11//11 8//8 9//9
f 8//8 10//10 9//9
f 10//10 8//8 12//12
f 8//8 13//13 12//12
f 13//13 8//8 14//14
f 14//14 8//8 4//4
f 18//18 15//15 11//11
f 15//15 16//16 11//11
f 17//17 11//11 16//16
f 11//11 17//17 21//21
f 18//18 11//11 9//9
f 22//22 11//11 19//19
f 11//11 20//20 19//19
f 11//11 21//21 20//20
f 11//11 22//22 23//23
f 29//29 23//23 22//22
f 30//30 23//23 24//24
f 24//24 23//23 25//25
f 29//29 25//25 23//23
f 23//23 27//27 26//26
f 28//28 27//27 23//23
f 28//28 23//23 32//32
f 30//30 34//34 23//23
f 31//31 23//23 33//33
f 31//31 32//32 23//23
f 35//35 33//33 23//23
f 34//34 35//35 23//23
f 35//35 36//36 33//33
f 35//35 37//37 36//36
f 38//38 36//36 37//37
f 38//38 39//39 36//36
f 38//38 40//40 39//39
f 38//38 41//41 40//40
f 40//40 41//41 42//42
f 44//44 42//42 43//43
f 40//40 42//42 44//44
f 44//44 46//46 45//45
f 44//44 47//47 46//46
f 44//44 48//48 47//47
f 43//43 48//48 44//44
f 45//45 46//46 49//49
f 49//49 50//50 45//45
f 51//51 45//45 50//50
f 51//51 52//52 45//45
f 25//25 29//29 51//51
f 29//29 52//52 51//51
f 7//7 45//45 52//52
f 7//7 52//52 53//53
f 53//53 54//54 7//7
f 54//54 55//55 7//7
f 55//55 56//56 7//7
f 56//56 6//6 7//7
f 57//57 62//62 40//40
f 40//40 58//58 39//39
f 58//58 40//40 60//60
f 40//40 61//61 59//59
f 59//59 60//60 40//40
f 61//61 40//40 62//62
f 62//62 57//57 63//63
f 64//64 63//63 57//57
f 57//57 65//65 64//64
f 65//65 57//57 66//66
f 67//67 66//66 57//57
f 67//67 57//57 68//68
f 68//68 70//70 69//69
f 68//68 57//57 70//70
f 70//70 71//71 69//69
f 72//72 70//70 57//57
f 72//72 57//57 73//73
f 73//73 75//75 74//74
f 73//73 57//57 75//75
f 75//75 76//76 77//77
f 75//75 77//77 78//78
f 78//78 74//74 75//75
f 79//79 77//77 76//76
f 80//80 79//79 76//76
f 76//76 81//81 80//80
f 82//82 81//81 76//76
f 83//83 82//82 76//76
f 83//83 85//85 82//82
f 84//84 82//82 85//85
f 86//86 26//26 85//85
f 26//26 84//84 85//85
f 86//86 87//87 88//88
f 26//26 86//86 88//88
f 90//90 88//88 87//87
f 88//88 89//89 92//92
f 89//89 88//88 90//90
f 91//91 93//93 88//88
f 88//88 92//92 91//91
f 88//88 93//93 94//94
f 88//88 94//94 95//95
f 96//96 88//88 95//95
f 96//96 97//97 99//99
f 97//97 96//96 98//98
f 95//95 98//98 96//96
f 99//99 100//100 96//96
f 101//101 96//96 100//100
f 102//102 96//96 101//101
f 102//102 103//103 107//107
f 102//102 104//104 103//103
f 104//104 102//102 106//106
f 105//105 106//106 102//102
f 102//102 101//101 105//105
f 107//107 108//108 110//110
f 107//107 109//109 108//108
f 107//107 111//111 109//109
f 107//107 110//110 83//83
f 76//76 107//107 83//83
f 103//103 111//111 107//107
f 84//84 26//26 112//112
f 112//112 26//26 113//113
f 113//113 26//26 114//114
f 114//114 26//26 115//115
f 71//71 115//115 116//116
f 26//26 116//116 115//115
f 71//71 116//116 69//69
f 26//26 117//117 116//116
f 118//118 117//117 26//26
f 118//118 26//26 27//27
f 119//119 121//121 122//122
f 119//119 122//122 120//120
f 124//124 126//126 125//125
f 124//124 125//125 123//123
f 128//128 127//127 126//126
f 128//128 126//126 124//124
f 131//131 129//129 127//127
f 131//131 127//127 128//128
f 132//132 130//130 129//129
f 132//132 129//129 131//131
f 133//133 134//134 130//130
f 133//133 130//130 132//132
f 135//135 136//136 134//134
f 135//135 134//134 133//133
f 140//140 138//138 137//137
f 140//140 137//137 139//139
f 142//142 144//144 143//143
f 142//142 143//143 141//141
f 145//145 147//147 148//148
f 145//145 148//148 146//146
f 150//150 152//152 151//151
f 150//150 151//151 149//149
f 154//154 153//153 152//152
f 154//154 152//152 150//150
f 157//157 155//155 153//153
f 157//157 153//153 154//154
f 158//158 156//156 155//155
f 158//158 155//155 157//157
f 159//159 160//160 156//156
f 159//159 156//156 158//158
f 161//161 162//162 160//160
f 161//161 160//160 159//159
f 164//164 166//166 165//165
f 164//164 165//165 163//163
f 168//168 167//167 166//166
f 168//168 166//166 164//164
f 170//170 172//172 171//171
f 170//170 171//171 169//169
f 175//175 173//173 172//172
f 175//175 172//172 170//170
f 176//176 174//174 173//173
f 176//176 173//173 175//175
f 177//177 178//178 174//174
f 177//177 174//174 176//176
f 180//180 179//179 181//181
f 180//180 181//181 182//182
f 186//186 184//184 183//183
f 186//186 183//183 185//185
f 187//187 189//189 190//190
f 187//187 190//190 188//188
f 192//192 191//191 193//193
f 192//192 193//193 194//194
f 196//196 198//198 197//197
f 196//196 197//197 195//195
f 200//200 199//199 198//198
f 200//200 198//198 196//196
f 202//202 204//204 203//203
f 202//202 203//203 201//201
f 206//206 205//205 204//204
f 206//206 204//204 202//202
f 209//209 207//207 205//205
f 209//209 205//205 206//206
f 210//210 208//208 207//207
f 210//210 207//207 209//209
f 211//211 213//213 208//208
f 211//211 208//208 210//210
f 212//212 214//214 213//213
f 212//212 213//213 211//211
f 217//217 215//215 214//214
f 217//217 214//214 212//212
f 218//218 216//216 215//215
f 218//218 215//215 217//217
f 220//220 222//222 221//221
f 220//220 221//221 219//219
f 224//224 223//223 222//222
f 224//224 222//222 220//220
f 226//226 228//228 227//227
f 226//226 227//227 225//225
f 230//230 229//229 228//228
f 230//230 228//228 226//226
f 233//233 231//231 229//229
f 233//233 229//229 230//230
f 234//234 232//232 231//231
f 234//234 231//231 233//233
f 235//235 237//237 232//232
f 235//235 232//232 234//234
f 236//236 238//238 237//237
f 236//236 237//237 235//235
f 241//241 239//239 238//238
f 241//241 238//238 236//236
f 242//242 240//240 239//239
f 242//242 239//239 241//241
f 244//244 243//243 245//245
f 244//244 245//245 246//246
f 248//248 250//250 249//249
f 248//248 249//249 247//247
f 253//253 251//251 250//250
f 253//253 250//250 248//248
f 254//254 252//252 251//251
f 254//254 251//251 253//253
f 255//255 257//257 252//252
f 255//255 252//252 254//254
f 256//256 258//258 257//257
f 256//256 257//257 255//255
f 260//260 259//259 258//258
f 260//260 258//258 256//256
f 263//263 261//261 259//259
f 263//263 259//259 260//260
f 264//264 262//262 261//261
f 264//264 261//261 263//263
f 266//266 265//265 267//267
f 266//266 267//267 268//268
f 270//270 272//272 271//271
f 270//270 271//271 269//269
f 274//274 273//273 272//272
f 274//274 272//272 270//270
f 277//277 275//275 273//273
f 277//277 273//273 274//274
f 278//278 276//276 275//275
f 278//278 275//275 277//277
f 279//279 281//281 276//276
f 279//279 276//276 278//278
f 280//280 282//282 281//281
f 280//280 281//281 279//279
f 285//285 283//283 282//282
f 285//285 282//282 280//280
f 286//286 284//284 283//283
f 286//286 283//283 285//285
f 287//287 289//289 290//290
f 287//287 290//290 288//288
f 292//292 294//294 293//293
f 292//292 293//293 291//291
f 296//296 295//295 294//294
f 296//296 294//294 292//292
f 298//298 297//297 299//299
f 298//298 299//299 300//300
f 302//302 304//304 303//303
f 302//302 303//303 301//301
f 306//306 305//305 304//304
f 306//306 304//304 302//302
f 308//308 307//307 309//309
f 308//308 309//309 310//310
f 312//312 308//308 310//310
f 312//312 310//310 311//311
f 314//314 312//312 311//311
f 314//314 311//311 313//313
f 316//316 314//314 313//313
f 316//316 313//313 315//315
f 318//318 316//316 315//315
f 318//318 315//315 317//317
f 320//320 318//318 317//317
f 320//320 317//317 319//319
f 322//322 320//320 319//319
f 322//322 319//319 321//321
f 324//324 322//322 321//321
f 324//324 321//321 323//323
f 326//326 324//324 323//323
f 326//326 323//323 325//325
f 328//328 326//326 325//325
f 328//328 325//325 327//327
f 330//330 328//328 327//327
f 330//330 327//327 329//329
f 332//332 330//330 329//329
f 332//332 329//329 331//331
f 334//334 332//332 331//331
f 334//334 331//331 333//333
f 336//336 334//334 333//333
f 336//336 333//333 335//335
f 338//338 336//336 335//335
f 338//338 335//335 337//337
f 340//340 338//338 337//337
f 340//340 337//337 339//339
f 342//342 344//344 343//343
f 342//342 343//343 341//341
f 347//347 345//345 344//344
f 347//347 344//344 342//342
f 348//348 346//346 345//345
f 348//348 345//345 347//347
f 349//349 351//351 346//346
f 349//349 346//346 348//348
f 350//350 352//352 351//351
f 350//350 351//351 349//349
f 355//355 353//353 352//352
f 355//355 352//352 350//350
f 356//356 354//354 353//353
f 356//356 353//353 355//355
f 357//357 359//359 354//354
f 357//357 354//354 356//356
f 358//358 360//360 359//359
f 358//358 359//359 357//357
f 363//363 361//361 360//360
f 363//363 360//360 358//358
f 364//364 362//362 361//361
f 364//364 361//361 363//363
f 365//365 367//367 362//362
f 365//365 362//362 364//364
f 366//366 368//368 367//367
f 366//366 367//367 365//365
f 371//371 369//369 368//368
f 371//371 368//368 366//366
f 372//372 370//370 369//369
f 372//372 369//369 371//371
f 373//373 374//374 370//370
f 373//373 370//370 372//372
f 376//376 375//375 377//377
f 376//376 377//377 378//378
f 380//380 379//379 381//381
f 380//380 381//381 382//382
f 384//384 380//380 382//382
f 384//384 382//382 383//383
f 386//386 385//385 387//387
f 386//386 387//387 388//388
f 390//390 389//389 391//391
f 390//390 391//391 392//392
f 394//394 390//390 392//392
f 394//394 392//392 393//393
f 396//396 395//395 397//397
f 396//396 397//397 398//398
f 400//400 399//399 401//401
f 400//400 401//401 402//402
f 404//404 403//403 405//405
f 404//404 405//405 406//406
f 408//408 407//407 409//409
f 408//408 409//409 410//410
f 412//412 411//411 413//413
f 412//412 413//413 414//414
f 416//416 415//415 417//417
f 416//416 417//417 418//418
f 420//420 419//419 421//421
f 420//420 421//421 422//422
f 424//424 423//423 425//425
f 424//424 425//425 426//426
f 428//428 427//427 429//429
f 428//428 429//429 430//430
f 432//432 431//431 433//433
f 432//432 433//433 434//434
f 436//436 435//435 437//437
f 436//436 437//437 438//438
f 440//440 439//439 441//441
f 440//440 441//441 442//442
f 443//443 445//445 444//444
f 450//450 445//445 443//443
f 449//449 443//443 446//446
f 446//446 443//443 447//447
f 448//448 447//447 443//443
f 443//443 449//449 451//451
f 443//443 451//451 450//450
f 460//460 448//448 452//452
f 447//447 448//448 453//453
f 448//448 454//454 453//453
f 454//454 448//448 456//456
f 448//448 457//457 455//455
f 455//455 456//456 448//448
f 448//448 458//458 457//457
f 448//448 459//459 458//458
f 459//459 448//448 460//460
f 460//460 452//452 461//461
f 461//461 452//452 463//463
f 464//464 461//461 462//462
f 461//461 463//463 462//462
f 462//462 467//467 464//464
f 466//466 464//464 465//465
f 465//465 464//464 467//467
f 468//468 467//467 469//469
f 469//469 467//467 471//471
f 462//462 470//470 467//467
f 470//470 471//471 467//467
f 472//472 468//468 469//469
f 472//472 473//473 468//468
f 468//468 473//473 474//474
f 468//468 474//474 475//475
f 475//475 476//476 468//468
f 476//476 475//475 477//477
f 477//477 478//478 476//476
f 478//478 479//479 476//476
f 479//479 478//478 480//480
f 478//478 481//481 480//480
f 482//482 480//480 481//481
f 483//483 452//452 482//482
f 480//480 482//482 484//484
f 484//484 482//482 452//452
f 485//485 484//484 452//452
f 452//452 486//486 485//485
f 487//487 486//486 452//452
f 487//487 452//452 488//488
f 489//489 490//490 488//488
f 452//452 489//489 488//488
f 491//491 490//490 489//489
f 492//492 491//491 489//489
f 492//492 489//489 494//494
f 493//493 495//495 492//492
f 493//493 492//492 494//494
f 493//493 496//496 495//495
f 496//496 497//497 495//495
f 496//496 498//498 497//497
f 498//498 499//499 497//497
f 499//499 498//498 500//500
f 501//501 500//500 498//498
f 498//498 502//502 501//501
f 498//498 503//503 502//502
f 498//498 504//504 503//503
f 498//498 476//476 504//504
f 476//476 505//505 504//504
f 505//505 476//476 506//506
f 476//476 507//507 506//506
f 507//507 476//476 508//508
f 508//508 476//476 479//479
f 509//509 498//498 496//496
f 509//509 510//510 498//498
f 510//510 511//511 498//498
f 511//511 510//510 515//515
f 515//515 512//512 511//511
f 512//512 513//513 511//511
f 514//514 511//511 513//513
f 516//516 521//521 514//514
f 514//514 517//517 516//516
f 518//518 517//517 514//514
f 514//514 513//513 518//518
f 514//514 520//520 519//519
f 514//514 521//521 520//520
f 520//520 521//521 522//522
f 522//522 521//521 523//523
f 489//489 522//522 523//523
f 489//489 523//523 524//524
f 525//525 489//489 524//524
f 525//525 526//526 489//489
f 489//489 526//526 494//494
f 527//527 522//522 489//489
f 528//528 527//527 489//489
f 527//527 528//528 529//529
f 528//528 530//530 529//529
f 531//531 530//530 528//528
f 528//528 532//532 531//531
f 528//528 533//533 532//532
f 534//534 533//533 528//528
f 528//528 535//535 534//534
f 535//535 528//528 536//536
f 528//528 538//538 536//536
f 538//538 537//537 536//536
f 538//538 539//539 543//543
f 537//537 538//538 542//542
f 540//540 542//542 538//538
f 538//538 541//541 540//540
f 543//543 541//541 538//538
f 543//543 539//539 544//544
f 539//539 545//545 544//544
f 545//545 539//539 546//546
f 539//539 547//547 546//546
f 547//547 519//519 548//548
f 519//519 547//547 539//539
f 519//519 549//549 548//548
f 519//519 550//550 549//549
f 519//519 551//551 550//550
f 551//551 519//519 520//520
f 483//483 552//552 452//452
f 452//452 552//552 553//553
f 463//463 452//452 553//553
f 466//466 465//465 554//554
f 554//554 465//465 555//555
f 555//555 465//465 556//556
f 556//556 465//465 557//557
f 558//558 557//557 444//444
f 557//557 465//465 444//444
f 444//444 559//559 558//558
f 559//559 444//444 560//560
f 444//444 445//445 560//560
