# joint_39 exported from /models/guards/joint_39.glb
# units: meters
v -0.019308 -0.001000 -0.047391
v -0.019301 -0.001000 -0.035927
v -0.019206 -0.001000 -0.024459
v -0.017671 -0.001000 -0.013142
v -0.013642 -0.001000 -0.002416
v -0.006728 -0.001000 0.006631
v 0.002673 -0.001000 0.013102
v 0.013433 -0.001000 0.017035
v 0.024696 -0.001000 0.018964
v 0.036154 -0.001000 0.019382
v 0.047607 -0.001000 0.019381
v -0.019308 0.001000 -0.047391
v -0.019301 0.001000 -0.035927
v -0.019206 0.001000 -0.024459
v -0.017671 0.001000 -0.013142
v -0.013642 0.001000 -0.002416
v -0.006728 0.001000 0.006631
v 0.002673 0.001000 0.013102
v 0.013433 0.001000 0.017035
v 0.024696 0.001000 0.018964
v 0.036154 0.001000 0.019382
v 0.047607 0.001000 0.019381
v 0.047607 -0.000000 0.019381
v 0.041884 -0.000000 0.019377
v 0.044739 -0.000000 0.019386
v 0.041884 0.000500 0.019377
v 0.044739 0.000500 0.019386
v 0.041884 -0.000500 0.019377
v 0.044739 -0.000500 0.019386
v -0.019308 -0.000000 -0.047391
v -0.019295 -0.000000 -0.041662
v -0.019318 -0.000000 -0.044521
v -0.019295 -0.000500 -0.041662
v -0.019318 -0.000500 -0.044521
v -0.019295 0.000500 -0.041662
v -0.019318 0.000500 -0.044521
v -0.027308 -0.001000 -0.047390
v -0.027002 -0.001000 -0.048925
v -0.026137 -0.001000 -0.050219
v -0.024835 -0.001000 -0.051088
v -0.023308 -0.001000 -0.051391
v -0.021773 -0.001000 -0.051084
v -0.020480 -0.001000 -0.050219
v -0.019611 -0.001000 -0.048917
v -0.019308 -0.001000 -0.047391
v -0.027308 0.001000 -0.047390
v -0.027002 0.001000 -0.048925
v -0.026137 0.001000 -0.050219
v -0.024835 0.001000 -0.051088
v -0.023308 0.001000 -0.051391
v -0.021773 0.001000 -0.051084
v -0.020480 0.001000 -0.050219
v -0.019611 0.001000 -0.048917
v -0.019308 0.001000 -0.047391
v -0.027308 -0.000000 -0.047390
v -0.019308 -0.000000 -0.047391
v 0.047607 -0.001000 0.019381
v 0.049142 -0.001000 0.019688
v 0.050435 -0.001000 0.020553
v 0.051304 -0.001000 0.021855
v 0.051607 -0.001000 0.023381
v 0.051300 -0.001000 0.024917
v 0.050435 -0.001000 0.026210
v 0.049133 -0.001000 0.027079
v 0.047607 -0.001000 0.027381
v 0.047607 0.001000 0.019381
v 0.049142 0.001000 0.019688
v 0.050435 0.001000 0.020553
v 0.051304 0.001000 0.021855
v 0.051607 0.001000 0.023381
v 0.051300 0.001000 0.024917
v 0.050435 0.001000 0.026210
v 0.049133 0.001000 0.027079
v 0.047607 0.001000 0.027381
v 0.047607 -0.000000 0.019381
v 0.047607 -0.000000 0.027381
v 0.022504 -0.001000 0.021174
v 0.023809 -0.001000 0.022823
v 0.023809 0.001000 0.022823
v 0.022504 0.001000 0.021174
v 0.023034 0.001000 0.021344
v 0.023494 0.001000 0.021731
v 0.023765 0.001000 0.022268
v 0.023765 -0.001000 0.022268
v 0.023494 -0.001000 0.021731
v 0.023034 -0.001000 0.021344
v 0.023809 -0.000000 0.022823
v 0.022504 -0.000000 0.021174
v 0.023809 -0.001000 0.022823
v 0.022132 -0.001000 0.024151
v 0.023809 0.001000 0.022823
v 0.022132 0.001000 0.024151
v 0.023643 0.001000 0.023366
v 0.023249 0.001000 0.023839
v 0.022699 0.001000 0.024114
v 0.022699 -0.001000 0.024114
v 0.023249 -0.001000 0.023839
v 0.023643 -0.001000 0.023366
v 0.023809 -0.000000 0.022823
v 0.022132 -0.000000 0.024151
v 0.022132 -0.001000 0.024151
v -0.021783 -0.001000 -0.007111
v -0.024728 -0.001000 -0.022138
v -0.021783 0.001000 -0.007111
v -0.024728 0.001000 -0.022138
v 0.022132 0.001000 0.024151
v 0.019267 0.001000 0.023752
v 0.016540 0.001000 0.023284
v 0.013731 0.001000 0.022703
v 0.010944 0.001000 0.022012
v 0.008285 0.001000 0.021233
v 0.005637 0.001000 0.020332
v 0.003148 0.001000 0.019354
v 0.000709 0.001000 0.018257
v -0.001579 0.001000 0.017084
v -0.003802 0.001000 0.015792
v -0.005886 0.001000 0.014422
v -0.007890 0.001000 0.012936
v -0.009767 0.001000 0.011366
v -0.011548 0.001000 0.009689
v -0.013214 0.001000 0.007920
v -0.014770 0.001000 0.006054
v -0.016221 0.001000 0.004088
v -0.017552 0.001000 0.002039
v -0.018783 0.001000 -0.000124
v -0.019889 0.001000 -0.002352
v -0.020900 0.001000 -0.004707
v -0.022572 0.001000 -0.009654
v -0.023235 0.001000 -0.012228
v -0.023800 0.001000 -0.014946
v -0.024244 0.001000 -0.017687
v -0.024520 0.001000 -0.019901
v -0.024520 -0.001000 -0.019901
v -0.024244 -0.001000 -0.017687
v -0.023800 -0.001000 -0.014946
v -0.023235 -0.001000 -0.012228
v -0.022572 -0.001000 -0.009654
v -0.020900 -0.001000 -0.004707
v -0.019889 -0.001000 -0.002352
v -0.018783 -0.001000 -0.000124
v -0.017552 -0.001000 0.002039
v -0.016221 -0.001000 0.004088
v -0.014770 -0.001000 0.006054
v -0.013214 -0.001000 0.007920
v -0.011548 -0.001000 0.009689
v -0.009767 -0.001000 0.011366
v -0.007890 -0.001000 0.012936
v -0.005886 -0.001000 0.014422
v -0.003802 -0.001000 0.015792
v -0.001579 -0.001000 0.017084
v 0.000709 -0.001000 0.018257
v 0.003148 -0.001000 0.019354
v 0.005637 -0.001000 0.020332
v 0.008285 -0.001000 0.021233
v 0.010944 -0.001000 0.022012
v 0.013731 -0.001000 0.022703
v 0.016540 -0.001000 0.023284
v 0.019267 -0.001000 0.023752
v 0.022132 -0.000000 0.024151
v -0.024728 -0.000000 -0.022138
v -0.024728 -0.001000 -0.022138
v -0.021738 -0.001000 -0.022372
v -0.021738 0.001000 -0.022372
v -0.024728 0.001000 -0.022138
v -0.024665 0.001000 -0.022702
v -0.024364 0.001000 -0.023241
v -0.023872 0.001000 -0.023612
v -0.023321 0.001000 -0.023752
v -0.022770 0.001000 -0.023682
v -0.022247 0.001000 -0.023386
v -0.021883 0.001000 -0.022909
v -0.021883 -0.001000 -0.022909
v -0.022247 -0.001000 -0.023386
v -0.022770 -0.001000 -0.023682
v -0.023321 -0.001000 -0.023752
v -0.023872 -0.001000 -0.023612
v -0.024364 -0.001000 -0.023241
v -0.024665 -0.001000 -0.022702
v -0.024728 -0.000000 -0.022138
v -0.021738 -0.000000 -0.022372
v -0.021738 -0.001000 -0.022372
v 0.022504 -0.001000 0.021174
v 0.022504 0.001000 0.021174
v -0.021738 0.001000 -0.022372
v -0.021538 0.001000 -0.020228
v -0.021274 0.001000 -0.018106
v -0.020851 0.001000 -0.015496
v -0.020312 0.001000 -0.012908
v -0.019687 0.001000 -0.010476
v -0.018942 0.001000 -0.008073
v -0.018114 0.001000 -0.005819
v -0.017167 0.001000 -0.003611
v -0.016136 0.001000 -0.001535
v -0.014989 0.001000 0.000478
v -0.013755 0.001000 0.002379
v -0.012410 0.001000 0.004203
v -0.010969 0.001000 0.005930
v -0.009427 0.001000 0.007567
v -0.007774 0.001000 0.009123
v -0.006033 0.001000 0.010579
v -0.004166 0.001000 0.011964
v -0.002224 0.001000 0.013241
v -0.000138 0.001000 0.014453
v 0.002009 0.001000 0.015553
v 0.004315 0.001000 0.016591
v 0.006669 0.001000 0.017515
v 0.009193 0.001000 0.018374
v 0.011725 0.001000 0.019115
v 0.014398 0.001000 0.019778
v 0.017092 0.001000 0.020335
v 0.019729 0.001000 0.020787
v 0.019729 -0.001000 0.020787
v 0.017092 -0.001000 0.020335
v 0.014398 -0.001000 0.019778
v 0.011725 -0.001000 0.019115
v 0.009193 -0.001000 0.018374
v 0.006669 -0.001000 0.017515
v 0.004315 -0.001000 0.016591
v 0.002009 -0.001000 0.015553
v -0.000138 -0.001000 0.014453
v -0.002224 -0.001000 0.013241
v -0.004166 -0.001000 0.011964
v -0.006033 -0.001000 0.010579
v -0.007774 -0.001000 0.009123
v -0.009427 -0.001000 0.007567
v -0.010969 -0.001000 0.005930
v -0.012410 -0.001000 0.004203
v -0.013755 -0.001000 0.002379
v -0.014989 -0.001000 0.000478
v -0.016136 -0.001000 -0.001535
v -0.017167 -0.001000 -0.003611
v -0.018114 -0.001000 -0.005819
v -0.018942 -0.001000 -0.008073
v -0.019687 -0.001000 -0.010476
v -0.020312 -0.001000 -0.012908
v -0.020851 -0.001000 -0.015496
v -0.021274 -0.001000 -0.018106
v -0.021538 -0.001000 -0.020228
v -0.021738 -0.000000 -0.022372
v 0.022504 -0.000000 0.021174
v 0.044517 -0.001000 0.021458
v 0.042573 -0.001000 0.023402
v 0.044517 -0.001000 0.025346
v 0.046461 -0.001000 0.023402
v 0.044517 -0.001000 0.021458
v 0.046461 0.001000 0.023402
v 0.044517 0.001000 0.021458
v 0.044517 0.001000 0.021458
v 0.043802 0.001000 0.021595
v 0.043143 0.001000 0.022028
v 0.042710 0.001000 0.022687
v 0.042573 0.001000 0.023402
v 0.042710 0.001000 0.024118
v 0.043143 0.001000 0.024777
v 0.043802 0.001000 0.025210
v 0.044517 0.001000 0.025346
v 0.045233 0.001000 0.025210
v 0.045892 0.001000 0.024777
v 0.046325 0.001000 0.024118
v 0.046325 0.001000 0.022687
v 0.045892 0.001000 0.022028
v 0.045233 0.001000 0.021595
v 0.045233 -0.001000 0.021595
v 0.045892 -0.001000 0.022028
v 0.046325 -0.001000 0.022687
v 0.046325 -0.001000 0.024118
v 0.045892 -0.001000 0.024777
v 0.045233 -0.001000 0.025210
v 0.043802 -0.001000 0.025210
v 0.043143 -0.001000 0.024777
v 0.042710 -0.001000 0.024118
v 0.042710 -0.001000 0.022687
v 0.043143 -0.001000 0.022028
v 0.043802 -0.001000 0.021595
v -0.021310 -0.001000 -0.044196
v -0.023254 -0.001000 -0.042252
v -0.025198 -0.001000 -0.044196
v -0.023254 -0.001000 -0.046140
v -0.021310 -0.001000 -0.044196
v -0.023254 0.001000 -0.046140
v -0.021310 0.001000 -0.044196
v -0.021310 0.001000 -0.044196
v -0.021446 0.001000 -0.043480
v -0.021879 0.001000 -0.042821
v -0.022538 0.001000 -0.042388
v -0.023254 0.001000 -0.042252
v -0.023970 0.001000 -0.042388
v -0.024629 0.001000 -0.042821
v -0.025061 0.001000 -0.043480
v -0.025198 0.001000 -0.044196
v -0.025061 0.001000 -0.044911
v -0.024629 0.001000 -0.045570
v -0.023970 0.001000 -0.046003
v -0.022538 0.001000 -0.046003
v -0.021879 0.001000 -0.045570
v -0.021446 0.001000 -0.044911
v -0.021446 -0.001000 -0.044911
v -0.021879 -0.001000 -0.045570
v -0.022538 -0.001000 -0.046003
v -0.023970 -0.001000 -0.046003
v -0.024629 -0.001000 -0.045570
v -0.025061 -0.001000 -0.044911
v -0.025061 -0.001000 -0.043480
v -0.024629 -0.001000 -0.042821
v -0.023970 -0.001000 -0.042388
v -0.022538 -0.001000 -0.042388
v -0.021879 -0.001000 -0.042821
v -0.021446 -0.001000 -0.043480
v 0.037174 -0.001000 0.027393
v 0.037174 0.001000 0.027393
v 0.037174 0.001000 0.023345
v 0.037174 -0.001000 0.023345
v 0.035174 -0.001000 0.023345
v 0.035174 -0.001000 0.027387
v 0.035174 0.001000 0.027387
v 0.035174 0.001000 0.023345
v 0.035174 -0.000000 0.023345
v 0.047607 -0.001000 0.027381
v 0.047607 0.001000 0.027381
v 0.037174 0.001000 0.027393
v 0.047607 -0.000000 0.027381
v 0.042390 -0.000000 0.027381
v 0.044994 -0.000000 0.027379
v 0.042390 -0.000500 0.027381
v 0.044994 -0.000500 0.027379
v 0.042390 0.000500 0.027381
v 0.044994 0.000500 0.027379
v 0.037174 -0.001000 0.027393
v 0.042390 -0.001000 0.027381
v 0.037174 0.001000 0.023345
v 0.037174 -0.001000 0.023345
v 0.036174 0.001000 0.023345
v 0.035174 -0.001000 0.023345
v 0.036174 -0.001000 0.023345
v 0.035174 0.001000 0.023345
v 0.035174 -0.000000 0.023345
v -0.027289 -0.001000 -0.037193
v -0.027289 0.001000 -0.037193
v -0.023364 0.001000 -0.037193
v -0.023364 -0.001000 -0.037193
v -0.027299 0.001000 -0.035193
v -0.027299 -0.001000 -0.035193
v -0.023364 -0.001000 -0.035193
v -0.023364 0.001000 -0.035193
v -0.023364 -0.000000 -0.035193
v 0.035174 -0.001000 0.027387
v 0.023791 -0.001000 0.026898
v 0.012566 -0.001000 0.025066
v 0.001749 -0.001000 0.021491
v -0.008131 -0.001000 0.015859
v -0.016309 -0.001000 0.008006
v -0.022215 -0.001000 -0.001708
v -0.025740 -0.001000 -0.012523
v -0.027168 -0.001000 -0.023800
v -0.027299 -0.001000 -0.035193
v 0.035174 0.001000 0.027387
v 0.023791 0.001000 0.026898
v 0.012566 0.001000 0.025066
v 0.001749 0.001000 0.021491
v -0.008131 0.001000 0.015859
v -0.016309 0.001000 0.008006
v -0.022215 0.001000 -0.001708
v -0.025740 0.001000 -0.012523
v -0.027168 0.001000 -0.023800
v -0.027299 0.001000 -0.035193
v -0.027289 -0.001000 -0.037193
v -0.027308 -0.001000 -0.047390
v -0.027308 0.001000 -0.047390
v -0.027308 -0.000000 -0.047390
v -0.027304 -0.000000 -0.042291
v -0.027321 -0.000000 -0.044837
v -0.027304 0.000500 -0.042291
v -0.027321 0.000500 -0.044837
v -0.027304 -0.000500 -0.042291
v -0.027321 -0.000500 -0.044837
v -0.027289 0.001000 -0.037193
v -0.027304 0.001000 -0.042291
v 0.047607 0.001000 0.019381
v 0.049142 0.001000 0.019688
v 0.050435 0.001000 0.020553
v 0.051304 0.001000 0.021855
v 0.051607 0.001000 0.023381
v 0.051300 0.001000 0.024917
v 0.050435 0.001000 0.026210
v 0.049133 0.001000 0.027079
v 0.047607 0.001000 0.027381
v -0.019308 0.001000 -0.047391
v -0.019301 0.001000 -0.035927
v -0.019206 0.001000 -0.024459
v -0.017671 0.001000 -0.013142
v -0.013642 0.001000 -0.002416
v -0.006728 0.001000 0.006631
v 0.002673 0.001000 0.013102
v 0.013433 0.001000 0.017035
v 0.024696 0.001000 0.018964
v 0.036154 0.001000 0.019382
v -0.027308 0.001000 -0.047390
v -0.027002 0.001000 -0.048925
v -0.026137 0.001000 -0.050219
v -0.024835 0.001000 -0.051088
v -0.023308 0.001000 -0.051391
v -0.021773 0.001000 -0.051084
v -0.020480 0.001000 -0.050219
v -0.019611 0.001000 -0.048917
v 0.037174 0.001000 0.027393
v 0.023809 0.001000 0.022823
v 0.023765 0.001000 0.022268
v 0.023494 0.001000 0.021731
v 0.023034 0.001000 0.021344
v 0.022504 0.001000 0.021174
v 0.022132 0.001000 0.024151
v 0.022699 0.001000 0.024114
v 0.023249 0.001000 0.023839
v 0.023643 0.001000 0.023366
v -0.024728 0.001000 -0.022138
v -0.024520 0.001000 -0.019901
v -0.024244 0.001000 -0.017687
v -0.023800 0.001000 -0.014946
v -0.023235 0.001000 -0.012228
v -0.022572 0.001000 -0.009654
v -0.021783 0.001000 -0.007111
v -0.020900 0.001000 -0.004707
v -0.019889 0.001000 -0.002352
v -0.018783 0.001000 -0.000124
v -0.017552 0.001000 0.002039
v -0.016221 0.001000 0.004088
v -0.014770 0.001000 0.006054
v -0.013214 0.001000 0.007920
v -0.011548 0.001000 0.009689
v -0.009767 0.001000 0.011366
v -0.007890 0.001000 0.012936
v -0.005886 0.001000 0.014422
v -0.003802 0.001000 0.015792
v -0.001579 0.001000 0.017084
v 0.000709 0.001000 0.018257
v 0.003148 0.001000 0.019354
v 0.005637 0.001000 0.020332
v 0.008285 0.001000 0.021233
v 0.010944 0.001000 0.022012
v 0.013731 0.001000 0.022703
v 0.016540 0.001000 0.023284
v 0.019267 0.001000 0.023752
v -0.021738 0.001000 -0.022372
v -0.021883 0.001000 -0.022909
v -0.022247 0.001000 -0.023386
v -0.022770 0.001000 -0.023682
v -0.023321 0.001000 -0.023752
v -0.023872 0.001000 -0.023612
v -0.024364 0.001000 -0.023241
v -0.024665 0.001000 -0.022702
v 0.019729 0.001000 0.020787
v 0.017092 0.001000 0.020335
v 0.014398 0.001000 0.019778
v 0.011725 0.001000 0.019115
v 0.009193 0.001000 0.018374
v 0.006669 0.001000 0.017515
v 0.004315 0.001000 0.016591
v 0.002009 0.001000 0.015553
v -0.000138 0.001000 0.014453
v -0.002224 0.001000 0.013241
v -0.004166 0.001000 0.011964
v -0.006033 0.001000 0.010579
v -0.007774 0.001000 0.009123
v -0.009427 0.001000 0.007567
v -0.010969 0.001000 0.005930
v -0.012410 0.001000 0.004203
v -0.013755 0.001000 0.002379
v -0.014989 0.001000 0.000478
v -0.016136 0.001000 -0.001535
v -0.017167 0.001000 -0.003611
v -0.018114 0.001000 -0.005819
v -0.018942 0.001000 -0.008073
v -0.019687 0.001000 -0.010476
v -0.020312 0.001000 -0.012908
v -0.020851 0.001000 -0.015496
v -0.021274 0.001000 -0.018106
v -0.021538 0.001000 -0.020228
v 0.044517 0.001000 0.021458
v 0.043802 0.001000 0.021595
v 0.043143 0.001000 0.022028
v 0.042710 0.001000 0.022687
v 0.042573 0.001000 0.023402
v 0.042710 0.001000 0.024118
v 0.043143 0.001000 0.024777
v 0.043802 0.001000 0.025210
v 0.044517 0.001000 0.025346
v 0.045233 0.001000 0.025210
v 0.045892 0.001000 0.024777
v 0.046325 0.001000 0.024118
v 0.046461 0.001000 0.023402
v 0.046325 0.001000 0.022687
v 0.045892 0.001000 0.022028
v 0.045233 0.001000 0.021595
v -0.021310 0.001000 -0.044196
v -0.021446 0.001000 -0.044911
v -0.021879 0.001000 -0.045570
v -0.022538 0.001000 -0.046003
v -0.023254 0.001000 -0.046140
v -0.023970 0.001000 -0.046003
v -0.024629 0.001000 -0.045570
v -0.025061 0.001000 -0.044911
v -0.025198 0.001000 -0.044196
v -0.025061 0.001000 -0.043480
v -0.024629 0.001000 -0.042821
v -0.023970 0.001000 -0.042388
v -0.023254 0.001000 -0.042252
v -0.022538 0.001000 -0.042388
v -0.021879 0.001000 -0.042821
v -0.021446 0.001000 -0.043480
v 0.037174 0.001000 0.023345
v 0.036174 0.001000 0.023345
v 0.035174 0.001000 0.023345
v 0.035174 0.001000 0.027387
v 0.023791 0.001000 0.026898
v 0.012566 0.001000 0.025066
v 0.001749 0.001000 0.021491
v -0.008131 0.001000 0.015859
v -0.016309 0.001000 0.008006
v -0.022215 0.001000 -0.001708
v -0.025740 0.001000 -0.012523
v -0.027168 0.001000 -0.023800
v -0.027299 0.001000 -0.035193
v -0.023364 0.001000 -0.035193
v -0.023364 0.001000 -0.036193
v -0.023364 0.001000 -0.037193
v -0.027289 0.001000 -0.037193
v -0.027304 0.001000 -0.042291
v 0.047607 -0.001000 0.019381
v 0.036154 -0.001000 0.019382
v 0.024696 -0.001000 0.018964
v 0.013433 -0.001000 0.017035
v 0.002673 -0.001000 0.013102
v -0.006728 -0.001000 0.006631
v -0.013642 -0.001000 -0.002416
v -0.017671 -0.001000 -0.013142
v -0.019206 -0.001000 -0.024459
v -0.019301 -0.001000 -0.035927
v -0.019308 -0.001000 -0.047391
v -0.027308 -0.001000 -0.047390
v -0.027289 -0.001000 -0.037193
v -0.019611 -0.001000 -0.048917
v -0.020480 -0.001000 -0.050219
v -0.021773 -0.001000 -0.051084
v -0.023308 -0.001000 -0.051391
v -0.024835 -0.001000 -0.051088
v -0.026137 -0.001000 -0.050219
v -0.027002 -0.001000 -0.048925
v 0.047607 -0.001000 0.027381
v 0.049133 -0.001000 0.027079
v 0.050435 -0.001000 0.026210
v 0.051300 -0.001000 0.024917
v 0.051607 -0.001000 0.023381
v 0.051304 -0.001000 0.021855
v 0.050435 -0.001000 0.020553
v 0.049142 -0.001000 0.019688
v 0.022504 -0.001000 0.021174
v 0.023034 -0.001000 0.021344
v 0.023494 -0.001000 0.021731
v 0.023765 -0.001000 0.022268
v 0.023809 -0.001000 0.022823
v 0.023643 -0.001000 0.023366
v 0.023249 -0.001000 0.023839
v 0.022699 -0.001000 0.024114
v 0.022132 -0.001000 0.024151
v 0.019267 -0.001000 0.023752
v 0.016540 -0.001000 0.023284
v 0.013731 -0.001000 0.022703
v 0.010944 -0.001000 0.022012
v 0.008285 -0.001000 0.021233
v 0.005637 -0.001000 0.020332
v 0.003148 -0.001000 0.019354
v 0.000709 -0.001000 0.018257
v -0.001579 -0.001000 0.017084
v -0.003802 -0.001000 0.015792
v -0.005886 -0.001000 0.014422
v -0.007890 -0.001000 0.012936
v -0.009767 -0.001000 0.011366
v -0.011548 -0.001000 0.009689
v -0.013214 -0.001000 0.007920
v -0.014770 -0.001000 0.006054
v -0.016221 -0.001000 0.004088
v -0.017552 -0.001000 0.002039
v -0.018783 -0.001000 -0.000124
v -0.019889 -0.001000 -0.002352
v -0.020900 -0.001000 -0.004707
v -0.021783 -0.001000 -0.007111
v -0.022572 -0.001000 -0.009654
v -0.023235 -0.001000 -0.012228
v -0.023800 -0.001000 -0.014946
v -0.024244 -0.001000 -0.017687
v -0.024520 -0.001000 -0.019901
v -0.024728 -0.001000 -0.022138
v -0.024665 -0.001000 -0.022702
v -0.024364 -0.001000 -0.023241
v -0.023872 -0.001000 -0.023612
v -0.023321 -0.001000 -0.023752
v -0.022770 -0.001000 -0.023682
v -0.022247 -0.001000 -0.023386
v -0.021883 -0.001000 -0.022909
v -0.021738 -0.001000 -0.022372
v -0.021538 -0.001000 -0.020228
v -0.021274 -0.001000 -0.018106
v -0.020851 -0.001000 -0.015496
v -0.020312 -0.001000 -0.012908
v -0.019687 -0.001000 -0.010476
v -0.018942 -0.001000 -0.008073
v -0.018114 -0.001000 -0.005819
v -0.017167 -0.001000 -0.003611
v -0.016136 -0.001000 -0.001535
v -0.014989 -0.001000 0.000478
v -0.013755 -0.001000 0.002379
v -0.012410 -0.001000 0.004203
v -0.010969 -0.001000 0.005930
v -0.009427 -0.001000 0.007567
v -0.007774 -0.001000 0.009123
v -0.006033 -0.001000 0.010579
v -0.004166 -0.001000 0.011964
v -0.002224 -0.001000 0.013241
v -0.000138 -0.001000 0.014453
v 0.002009 -0.001000 0.015553
v 0.004315 -0.001000 0.016591
v 0.006669 -0.001000 0.017515
v 0.009193 -0.001000 0.018374
v 0.011725 -0.001000 0.019115
v 0.014398 -0.001000 0.019778
v 0.017092 -0.001000 0.020335
v 0.019729 -0.001000 0.020787
v 0.044517 -0.001000 0.021458
v 0.045233 -0.001000 0.021595
v 0.045892 -0.001000 0.022028
v 0.046325 -0.001000 0.022687
v 0.046461 -0.001000 0.023402
v 0.046325 -0.001000 0.024118
v 0.045892 -0.001000 0.024777
v 0.045233 -0.001000 0.025210
v 0.044517 -0.001000 0.025346
v 0.043802 -0.001000 0.025210
v 0.043143 -0.001000 0.024777
v 0.042710 -0.001000 0.024118
v 0.042573 -0.001000 0.023402
v 0.042710 -0.001000 0.022687
v 0.043143 -0.001000 0.022028
v 0.043802 -0.001000 0.021595
v -0.021310 -0.001000 -0.044196
v -0.021446 -0.001000 -0.043480
v -0.021879 -0.001000 -0.042821
v -0.022538 -0.001000 -0.042388
v -0.023254 -0.001000 -0.042252
v -0.023970 -0.001000 -0.042388
v -0.024629 -0.001000 -0.042821
v -0.025061 -0.001000 -0.043480
v -0.025198 -0.001000 -0.044196
v -0.025061 -0.001000 -0.044911
v -0.024629 -0.001000 -0.045570
v -0.023970 -0.001000 -0.046003
v -0.023254 -0.001000 -0.046140
v -0.022538 -0.001000 -0.046003
v -0.021879 -0.001000 -0.045570
v -0.021446 -0.001000 -0.044911
v 0.035174 -0.001000 0.023345
v 0.036174 -0.001000 0.023345
v 0.037174 -0.001000 0.023345
v 0.037174 -0.001000 0.027393
v 0.035174 -0.001000 0.027387
v 0.042390 -0.001000 0.027381
v -0.023364 -0.001000 -0.037193
v -0.023364 -0.001000 -0.036193
v -0.023364 -0.001000 -0.035193
v -0.027299 -0.001000 -0.035193
v -0.027168 -0.001000 -0.023800
v -0.025740 -0.001000 -0.012523
v -0.022215 -0.001000 -0.001708
v -0.016309 -0.001000 0.008006
v -0.008131 -0.001000 0.015859
v 0.001749 -0.001000 0.021491
v 0.012566 -0.001000 0.025066
v 0.023791 -0.001000 0.026898
v -0.023364 0.001000 -0.037193
v -0.023364 -0.001000 -0.037193
v -0.023364 0.001000 -0.036193
v -0.023364 -0.001000 -0.035193
v -0.023364 -0.001000 -0.036193
v -0.023364 0.001000 -0.035193
v -0.023364 -0.000000 -0.035193
vn 0.999818 -0.000000 0.019100
vn 0.999966 -0.000000 0.008200
vn 0.998729 0.000000 -0.050401
vn 0.972670 0.000000 -0.232193
vn 0.879393 0.000000 -0.476096
vn 0.686515 0.000000 -0.727116
vn 0.445493 0.000000 -0.895286
vn 0.249306 0.000000 -0.968425
vn 0.092402 0.000000 -0.995722
vn 0.000200 0.000000 -1.000000
vn -0.011000 0.000000 -0.999939
vn 0.999819 -0.000000 0.019000
vn 0.999966 -0.000000 0.008200
vn 0.998729 0.000000 -0.050401
vn 0.972670 0.000000 -0.232193
vn 0.879393 0.000000 -0.476096
vn 0.686515 0.000000 -0.727116
vn 0.445493 0.000000 -0.895286
vn 0.249306 0.000000 -0.968425
vn 0.092402 0.000000 -0.995722
vn 0.000200 0.000000 -1.000000
vn -0.011000 0.000000 -0.999939
vn -0.011000 0.000000 -0.999939
vn 0.001600 0.000000 -0.999999
vn 0.003500 0.000000 -0.999994
vn 0.001700 0.000000 -0.999999
vn 0.003500 0.000000 -0.999994
vn 0.001700 0.000000 -0.999999
vn 0.003500 0.000000 -0.999994
vn 0.999819 -0.000000 0.019000
vn 0.999976 0.000000 -0.007000
vn 0.999979 0.000000 -0.006500
vn 0.999976 0.000000 -0.007000
vn 0.999979 0.000000 -0.006500
vn 0.999976 0.000000 -0.007000
vn 0.999979 0.000000 -0.006500
vn -1.000000 -0.000000 0.000100
vn -0.923464 0.000000 -0.383685
vn -0.707207 0.000000 -0.707007
vn -0.381610 0.000000 -0.924324
vn -0.000200 0.000000 -1.000000
vn 0.383806 0.000000 -0.923414
vn 0.707207 0.000000 -0.707007
vn 0.924288 0.000000 -0.381695
vn 1.000000 0.000000 0.000000
vn -1.000000 -0.000000 0.000100
vn -0.923464 0.000000 -0.383685
vn -0.707207 0.000000 -0.707007
vn -0.381610 0.000000 -0.924324
vn -0.000200 0.000000 -1.000000
vn 0.383806 0.000000 -0.923414
vn 0.707207 0.000000 -0.707007
vn 0.924288 0.000000 -0.381695
vn 1.000000 0.000000 0.000000
vn -1.000000 -0.000000 0.000100
vn 1.000000 0.000000 0.000000
vn 0.000000 0.000000 -1.000000
vn 0.383806 0.000000 -0.923414
vn 0.707057 0.000000 -0.707157
vn 0.924359 0.000000 -0.381524
vn 1.000000 0.000000 -0.000100
vn 0.923378 -0.000000 0.383891
vn 0.707107 -0.000000 0.707107
vn 0.381610 -0.000000 0.924324
vn 0.000000 -0.000000 1.000000
vn 0.000000 0.000000 -1.000000
vn 0.383891 0.000000 -0.923378
vn 0.707057 0.000000 -0.707157
vn 0.924359 0.000000 -0.381524
vn 1.000000 0.000000 -0.000100
vn 0.923378 -0.000000 0.383891
vn 0.707107 -0.000000 0.707107
vn 0.381610 -0.000000 0.924324
vn 0.000000 -0.000000 1.000000
vn 0.000000 0.000000 -1.000000
vn 0.000000 -0.000000 1.000000
vn -0.123801 -0.000000 0.992307
vn -0.994291 0.000000 -0.106699
vn -0.994291 0.000000 -0.106699
vn -0.123801 -0.000000 0.992307
vn -0.477001 -0.000000 0.878903
vn -0.783894 -0.000000 0.620895
vn -0.964771 -0.000000 0.263092
vn -0.964771 -0.000000 0.263092
vn -0.783894 -0.000000 0.620895
vn -0.477001 -0.000000 0.878903
vn -0.994291 0.000000 -0.106699
vn -0.123801 -0.000000 0.992307
vn -0.994281 0.000000 -0.106798
vn 0.123702 0.000000 -0.992319
vn -0.994281 0.000000 -0.106798
vn 0.123702 0.000000 -0.992319
vn -0.883408 0.000000 -0.468604
vn -0.620895 0.000000 -0.783894
vn -0.253814 0.000000 -0.967253
vn -0.253814 0.000000 -0.967253
vn -0.620895 0.000000 -0.783894
vn -0.883408 0.000000 -0.468604
vn -0.994281 0.000000 -0.106798
vn 0.123702 0.000000 -0.992319
vn 0.123702 0.000000 -0.992319
vn 0.947183 0.000000 -0.320694
vn 0.996937 0.000000 -0.078203
vn 0.947183 0.000000 -0.320694
vn 0.996937 0.000000 -0.078203
vn 0.123702 0.000000 -0.992319
vn 0.153605 0.000000 -0.988132
vn 0.184892 0.000000 -0.982759
vn 0.220994 0.000000 -0.975275
vn 0.260985 0.000000 -0.965343
vn 0.301098 0.000000 -0.953593
vn 0.343990 0.000000 -0.938973
vn 0.387610 0.000000 -0.921824
vn 0.433401 0.000000 -0.901201
vn 0.478887 0.000000 -0.877876
vn 0.526182 0.000000 -0.850372
vn 0.572798 0.000000 -0.819697
vn 0.618824 0.000000 -0.785530
vn 0.663805 0.000000 -0.747906
vn 0.707107 0.000000 -0.707107
vn 0.748236 0.000000 -0.663432
vn 0.786669 0.000000 -0.617375
vn 0.822073 0.000000 -0.569382
vn 0.854104 0.000000 -0.520102
vn 0.882842 0.000000 -0.469669
vn 0.907669 0.000000 -0.419686
vn 0.929309 0.000000 -0.369304
vn 0.962271 0.000000 -0.272092
vn 0.974011 0.000000 -0.226503
vn 0.983409 0.000000 -0.181402
vn 0.990249 0.000000 -0.139307
vn 0.994162 0.000000 -0.107896
vn 0.994162 0.000000 -0.107896
vn 0.990249 0.000000 -0.139307
vn 0.983409 0.000000 -0.181402
vn 0.974011 0.000000 -0.226503
vn 0.962271 0.000000 -0.272092
vn 0.929309 0.000000 -0.369304
vn 0.907669 0.000000 -0.419686
vn 0.882842 0.000000 -0.469669
vn 0.854104 0.000000 -0.520102
vn 0.822073 0.000000 -0.569382
vn 0.786669 0.000000 -0.617375
vn 0.748236 0.000000 -0.663432
vn 0.707107 0.000000 -0.707107
vn 0.663805 0.000000 -0.747906
vn 0.618824 0.000000 -0.785530
vn 0.572798 0.000000 -0.819697
vn 0.526182 0.000000 -0.850372
vn 0.478887 0.000000 -0.877876
vn 0.433401 0.000000 -0.901201
vn 0.387610 0.000000 -0.921824
vn 0.343990 0.000000 -0.938973
vn 0.301098 0.000000 -0.953593
vn 0.260985 0.000000 -0.965343
vn 0.220994 0.000000 -0.975275
vn 0.184892 0.000000 -0.982759
vn 0.153605 0.000000 -0.988132
vn 0.123702 0.000000 -0.992319
vn 0.996937 0.000000 -0.078203
vn 0.996937 0.000000 -0.078203
vn -0.996937 -0.000000 0.078203
vn -0.996937 -0.000000 0.078203
vn 0.996937 0.000000 -0.078203
vn 0.954437 -0.000000 0.298412
vn 0.753802 -0.000000 0.657102
vn 0.425888 -0.000000 0.904776
vn 0.058699 -0.000000 0.998276
vn -0.308808 -0.000000 0.951124
vn -0.657102 -0.000000 0.753802
vn -0.900054 -0.000000 0.435778
vn -0.900054 -0.000000 0.435778
vn -0.657102 -0.000000 0.753802
vn -0.308808 -0.000000 0.951124
vn 0.058699 -0.000000 0.998276
vn 0.425888 -0.000000 0.904776
vn 0.753802 -0.000000 0.657102
vn 0.954437 -0.000000 0.298412
vn 0.996937 0.000000 -0.078203
vn -0.996937 -0.000000 0.078203
vn -0.996945 -0.000000 0.078104
vn -0.123702 -0.000000 0.992319
vn -0.123702 -0.000000 0.992319
vn -0.996945 -0.000000 0.078104
vn -0.994140 -0.000000 0.108104
vn -0.990249 -0.000000 0.139307
vn -0.983448 -0.000000 0.181190
vn -0.974033 -0.000000 0.226408
vn -0.962211 -0.000000 0.272303
vn -0.947213 -0.000000 0.320604
vn -0.929391 -0.000000 0.369096
vn -0.907707 -0.000000 0.419604
vn -0.882925 -0.000000 0.469514
vn -0.854175 -0.000000 0.519985
vn -0.822404 -0.000000 0.568903
vn -0.786669 -0.000000 0.617375
vn -0.748187 -0.000000 0.663488
vn -0.707107 -0.000000 0.707107
vn -0.663805 -0.000000 0.747906
vn -0.618824 -0.000000 0.785530
vn -0.572388 -0.000000 0.819983
vn -0.526110 -0.000000 0.850416
vn -0.478887 -0.000000 0.877876
vn -0.433319 -0.000000 0.901240
vn -0.387404 -0.000000 0.921910
vn -0.343902 -0.000000 0.939006
vn -0.301098 -0.000000 0.953593
vn -0.260891 -0.000000 0.965368
vn -0.220994 -0.000000 0.975275
vn -0.184892 -0.000000 0.982759
vn -0.153199 -0.000000 0.988195
vn -0.153199 -0.000000 0.988195
vn -0.184892 -0.000000 0.982759
vn -0.220994 -0.000000 0.975275
vn -0.260891 -0.000000 0.965368
vn -0.301098 -0.000000 0.953593
vn -0.343902 -0.000000 0.939006
vn -0.387404 -0.000000 0.921910
vn -0.433319 -0.000000 0.901240
vn -0.478887 -0.000000 0.877876
vn -0.526110 -0.000000 0.850416
vn -0.572388 -0.000000 0.819983
vn -0.618824 -0.000000 0.785530
vn -0.663805 -0.000000 0.747906
vn -0.707107 -0.000000 0.707107
vn -0.748187 -0.000000 0.663488
vn -0.786669 -0.000000 0.617375
vn -0.822404 -0.000000 0.568903
vn -0.854175 -0.000000 0.519985
vn -0.882925 -0.000000 0.469514
vn -0.907707 -0.000000 0.419604
vn -0.929391 -0.000000 0.369096
vn -0.947213 -0.000000 0.320604
vn -0.962211 -0.000000 0.272303
vn -0.974033 -0.000000 0.226408
vn -0.983448 -0.000000 0.181190
vn -0.990249 -0.000000 0.139307
vn -0.994140 -0.000000 0.108104
vn -0.996945 -0.000000 0.078104
vn -0.123702 -0.000000 0.992319
vn 0.000000 -0.000000 1.000000
vn 1.000000 0.000000 0.000000
vn 0.000000 0.000000 -1.000000
vn -1.000000 0.000000 0.000000
vn 0.000000 -0.000000 1.000000
vn -1.000000 0.000000 0.000000
vn 0.000000 -0.000000 1.000000
vn 0.000000 -0.000000 1.000000
vn 0.368095 -0.000000 0.929788
vn 0.707107 -0.000000 0.707107
vn 0.929788 -0.000000 0.368095
vn 1.000000 0.000000 0.000000
vn 0.929788 0.000000 -0.368095
vn 0.707107 0.000000 -0.707107
vn 0.368095 0.000000 -0.929788
vn 0.000000 0.000000 -1.000000
vn -0.368095 0.000000 -0.929788
vn -0.707107 0.000000 -0.707107
vn -0.929788 0.000000 -0.368095
vn -0.929788 -0.000000 0.368095
vn -0.707107 -0.000000 0.707107
vn -0.368095 -0.000000 0.929788
vn -0.368095 -0.000000 0.929788
vn -0.707107 -0.000000 0.707107
vn -0.929788 -0.000000 0.368095
vn -0.929788 0.000000 -0.368095
vn -0.707107 0.000000 -0.707107
vn -0.368095 0.000000 -0.929788
vn 0.368095 0.000000 -0.929788
vn 0.707107 0.000000 -0.707107
vn 0.929788 0.000000 -0.368095
vn 0.929788 -0.000000 0.368095
vn 0.707107 -0.000000 0.707107
vn 0.368095 -0.000000 0.929788
vn -1.000000 0.000000 0.000000
vn 0.000000 0.000000 -1.000000
vn 1.000000 0.000000 0.000000
vn 0.000000 -0.000000 1.000000
vn -1.000000 0.000000 0.000000
vn 0.000000 -0.000000 1.000000
vn -1.000000 0.000000 0.000000
vn -1.000000 0.000000 0.000000
vn -0.929788 0.000000 -0.368095
vn -0.707107 0.000000 -0.707107
vn -0.368095 0.000000 -0.929788
vn 0.000000 0.000000 -1.000000
vn 0.368095 0.000000 -0.929788
vn 0.707107 0.000000 -0.707107
vn 0.929788 0.000000 -0.368095
vn 1.000000 0.000000 0.000000
vn 0.929788 -0.000000 0.368095
vn 0.707107 -0.000000 0.707107
vn 0.368095 -0.000000 0.929788
vn -0.368095 -0.000000 0.929788
vn -0.707107 -0.000000 0.707107
vn -0.929788 -0.000000 0.368095
vn -0.929788 -0.000000 0.368095
vn -0.707107 -0.000000 0.707107
vn -0.368095 -0.000000 0.929788
vn 0.368095 -0.000000 0.929788
vn 0.707107 -0.000000 0.707107
vn 0.929788 -0.000000 0.368095
vn 0.929788 0.000000 -0.368095
vn 0.707107 0.000000 -0.707107
vn 0.368095 0.000000 -0.929788
vn -0.368095 0.000000 -0.929788
vn -0.707107 0.000000 -0.707107
vn -0.929788 0.000000 -0.368095
vn -1.000000 0.000000 0.000000
vn -1.000000 0.000000 0.000000
vn -1.000000 0.000000 0.000000
vn -1.000000 0.000000 0.000000
vn 1.000000 0.000000 0.000000
vn 1.000000 0.000000 0.000000
vn 1.000000 0.000000 0.000000
vn 1.000000 0.000000 0.000000
vn 1.000000 0.000000 0.000000
vn -0.000600 0.000100 1.000000
vn -0.000500 -0.000000 1.000000
vn -0.000200 -0.000000 1.000000
vn -0.000500 -0.000000 1.000000
vn 0.002000 -0.000000 0.999998
vn -0.000500 -0.000000 1.000000
vn 0.002000 -0.000000 0.999998
vn -0.000400 -0.000000 1.000000
vn 0.002100 -0.000000 0.999998
vn -0.000400 -0.000000 1.000000
vn -0.000200 -0.000000 1.000000
vn 0.002100 -0.000000 0.999998
vn 0.000000 -0.000000 1.000000
vn 0.000000 -0.000000 1.000000
vn 0.000000 -0.000000 1.000000
vn 0.000000 -0.000000 1.000000
vn 0.000000 -0.000000 1.000000
vn 0.000000 -0.000000 1.000000
vn 0.000000 -0.000000 1.000000
vn 0.000000 -0.000000 1.000000
vn 0.000000 -0.000000 1.000000
vn 0.000000 -0.000000 1.000000
vn 0.000000 -0.000000 1.000000
vn 0.000000 0.000000 -1.000000
vn 0.000000 0.000000 -1.000000
vn 0.000000 0.000000 -1.000000
vn 0.000000 0.000000 -1.000000
vn 0.000000 0.000000 -1.000000
vn -0.006000 -0.000000 0.999982
vn -0.093403 -0.000000 0.995628
vn -0.232995 -0.000000 0.972478
vn -0.398693 -0.000000 0.917084
vn -0.593404 -0.000000 0.804905
vn -0.781503 -0.000000 0.623902
vn -0.911316 -0.000000 0.411707
vn -0.977528 -0.000000 0.210806
vn -0.998694 -0.000000 0.051100
vn -0.999982 0.000000 -0.006000
vn -0.006000 -0.000000 0.999982
vn -0.093403 -0.000000 0.995628
vn -0.232995 -0.000000 0.972478
vn -0.398693 -0.000000 0.917084
vn -0.593404 -0.000000 0.804905
vn -0.781503 -0.000000 0.623902
vn -0.911316 -0.000000 0.411707
vn -0.977528 -0.000000 0.210806
vn -0.998694 -0.000000 0.051100
vn -0.999982 0.000000 -0.006000
vn -0.999995 0.000000 -0.003200
vn -0.999831 0.000000 -0.018401
vn -0.999831 0.000000 -0.018401
vn -0.999831 0.000000 -0.018401
vn -0.999970 -0.000000 0.007700
vn -0.999992 -0.000000 0.003900
vn -0.999970 -0.000000 0.007700
vn -0.999992 -0.000000 0.004000
vn -0.999970 -0.000000 0.007700
vn -0.999992 -0.000000 0.004000
vn -0.999995 0.000000 -0.003200
vn -0.999970 -0.000000 0.007700
vn 0.000000 1.000000 0.000000
vn 0.000000 1.000000 0.000000
vn 0.000000 1.000000 0.000000
vn 0.000000 1.000000 0.000000
vn 0.000000 1.000000 0.000000
vn 0.000000 1.000000 0.000000
vn 0.000000 1.000000 0.000000
vn 0.000000 1.000000 0.000000
vn 0.000000 1.000000 0.000000
vn 0.000000 1.000000 0.000000
vn 0.000000 1.000000 0.000000
vn 0.000000 1.000000 0.000000
vn 0.000000 1.000000 0.000000
vn 0.000000 1.000000 0.000000
vn 0.000000 1.000000 0.000000
vn 0.000000 1.000000 0.000000
vn 0.000000 1.000000 0.000000
vn 0.000000 1.000000 0.000000
vn 0.000000 1.000000 0.000000
vn 0.000000 1.000000 0.000000
vn 0.000000 1.000000 0.000000
vn 0.000000 1.000000 0.000000
vn 0.000000 1.000000 0.000000
vn 0.000000 1.000000 0.000000
vn 0.000000 1.000000 0.000000
vn 0.000000 1.000000 0.000000
vn 0.000000 1.000000 0.000000
vn 0.000000 1.000000 0.000000
vn 0.000000 1.000000 0.000000
vn 0.000000 1.000000 0.000000
vn 0.000000 1.000000 0.000000
vn 0.000000 1.000000 0.000000
vn 0.000000 1.000000 0.000000
vn 0.000000 1.000000 0.000000
vn 0.000000 1.000000 0.000000
vn 0.000000 1.000000 0.000000
vn 0.000000 1.000000 0.000000
vn 0.000000 1.000000 0.000000
vn 0.000000 1.000000 0.000000
vn 0.000000 1.000000 0.000000
vn 0.000000 1.000000 0.000000
vn 0.000000 1.000000 0.000000
vn 0.000000 1.000000 0.000000
vn 0.000000 1.000000 0.000000
vn 0.000000 1.000000 0.000000
vn 0.000000 1.000000 0.000000
vn 0.000000 1.000000 0.000000
vn 0.000000 1.000000 0.000000
vn 0.000000 1.000000 0.000000
vn 0.000000 1.000000 0.000000
vn 0.000000 1.000000 0.000000
vn 0.000000 1.000000 0.000000
vn 0.000000 1.000000 0.000000
vn 0.000000 1.000000 0.000000
vn 0.000000 1.000000 0.000000
vn 0.000000 1.000000 0.000000
vn 0.000000 1.000000 0.000000
vn 0.000000 1.000000 0.000000
vn 0.000000 1.000000 0.000000
vn 0.000000 1.000000 0.000000
vn 0.000000 1.000000 0.000000
vn 0.000000 1.000000 0.000000
vn 0.000000 1.000000 0.000000
vn 0.000000 1.000000 0.000000
vn 0.000000 1.000000 0.000000
vn 0.000000 1.000000 0.000000
vn 0.000000 1.000000 0.000000
vn 0.000000 1.000000 0.000000
vn 0.000000 1.000000 0.000000
vn 0.000000 1.000000 0.000000
vn 0.000000 1.000000 0.000000
vn 0.000000 1.000000 0.000000
vn 0.000000 1.000000 0.000000
vn 0.000000 1.000000 0.000000
vn 0.000000 1.000000 0.000000
vn 0.000000 1.000000 0.000000
vn 0.000000 1.000000 0.000000
vn 0.000000 1.000000 0.000000
vn 0.000000 1.000000 0.000000
vn 0.000000 1.000000 0.000000
vn 0.000000 1.000000 0.000000
vn 0.000000 1.000000 0.000000
vn 0.000000 1.000000 0.000000
vn 0.000000 1.000000 0.000000
vn 0.000000 1.000000 0.000000
vn 0.000000 1.000000 0.000000
vn 0.000000 1.000000 0.000000
vn 0.000000 1.000000 0.000000
vn 0.000000 1.000000 0.000000
vn 0.000000 1.000000 0.000000
vn 0.000000 1.000000 0.000000
vn 0.000000 1.000000 0.000000
vn 0.000000 1.000000 0.000000
vn 0.000000 1.000000 0.000000
vn 0.000000 1.000000 0.000000
vn 0.000000 1.000000 0.000000
vn 0.000000 1.000000 0.000000
vn 0.000000 1.000000 0.000000
vn 0.000000 1.000000 0.000000
vn 0.000000 1.000000 0.000000
vn 0.000000 1.000000 0.000000
vn 0.000000 1.000000 0.000000
vn 0.000000 1.000000 0.000000
vn 0.000000 1.000000 0.000000
vn 0.000000 1.000000 0.000000
vn 0.000000 1.000000 0.000000
vn 0.000000 1.000000 0.000000
vn 0.000000 1.000000 0.000000
vn 0.000000 1.000000 0.000000
vn 0.000000 1.000000 0.000000
vn 0.000000 1.000000 0.000000
vn 0.000000 1.000000 0.000000
vn 0.000000 1.000000 0.000000
vn 0.000000 1.000000 0.000000
vn 0.000000 1.000000 0.000000
vn 0.000000 1.000000 0.000000
vn 0.000000 1.000000 0.000000
vn 0.000000 1.000000 0.000000
vn 0.000000 1.000000 0.000000
vn 0.000000 1.000000 0.000000
vn 0.000000 1.000000 0.000000
vn 0.000000 1.000000 0.000000
vn 0.000000 1.000000 0.000000
vn 0.000000 1.000000 0.000000
vn 0.000000 1.000000 0.000000
vn 0.000000 1.000000 0.000000
vn 0.000000 1.000000 0.000000
vn 0.000000 1.000000 0.000000
vn 0.000000 1.000000 0.000000
vn 0.000000 1.000000 0.000000
vn 0.000000 1.000000 0.000000
vn 0.000000 1.000000 0.000000
vn 0.000000 1.000000 0.000000
vn 0.000000 1.000000 0.000000
vn 0.000000 1.000000 0.000000
vn 0.000000 1.000000 0.000000
vn 0.000000 1.000000 0.000000
vn 0.000000 1.000000 0.000000
vn 0.000000 1.000000 0.000000
vn 0.000000 1.000000 0.000000
vn 0.000000 1.000000 0.000000
vn 0.000000 1.000000 0.000000
vn 0.000000 1.000000 0.000000
vn 0.000000 1.000000 0.000000
vn 0.000000 1.000000 0.000000
vn 0.000000 1.000000 0.000000
vn 0.000000 1.000000 0.000000
vn 0.000000 1.000000 0.000000
vn 0.000000 1.000000 0.000000
vn 0.000000 1.000000 0.000000
vn 0.000000 -1.000000 -0.000000
vn 0.000000 -1.000000 -0.000000
vn 0.000000 -1.000000 -0.000000
vn 0.000000 -1.000000 -0.000000
vn 0.000000 -1.000000 -0.000000
vn 0.000000 -1.000000 -0.000000
vn 0.000000 -1.000000 -0.000000
vn 0.000000 -1.000000 -0.000000
vn 0.000000 -1.000000 -0.000000
vn 0.000000 -1.000000 -0.000000
vn 0.000000 -1.000000 -0.000000
vn 0.000000 -1.000000 -0.000000
vn 0.000000 -1.000000 -0.000000
vn 0.000000 -1.000000 -0.000000
vn 0.000000 -1.000000 -0.000000
vn 0.000000 -1.000000 -0.000000
vn 0.000000 -1.000000 -0.000000
vn 0.000000 -1.000000 -0.000000
vn 0.000000 -1.000000 -0.000000
vn 0.000000 -1.000000 -0.000000
vn 0.000000 -1.000000 -0.000000
vn 0.000000 -1.000000 -0.000000
vn 0.000000 -1.000000 -0.000000
vn 0.000000 -1.000000 -0.000000
vn 0.000000 -1.000000 -0.000000
vn 0.000000 -1.000000 -0.000000
vn 0.000000 -1.000000 -0.000000
vn 0.000000 -1.000000 -0.000000
vn 0.000000 -1.000000 -0.000000
vn 0.000000 -1.000000 -0.000000
vn 0.000000 -1.000000 -0.000000
vn 0.000000 -1.000000 -0.000000
vn 0.000000 -1.000000 -0.000000
vn 0.000000 -1.000000 -0.000000
vn 0.000000 -1.000000 -0.000000
vn 0.000000 -1.000000 -0.000000
vn 0.000000 -1.000000 -0.000000
vn 0.000000 -1.000000 -0.000000
vn 0.000000 -1.000000 -0.000000
vn 0.000000 -1.000000 -0.000000
vn 0.000000 -1.000000 -0.000000
vn 0.000000 -1.000000 -0.000000
vn 0.000000 -1.000000 -0.000000
vn 0.000000 -1.000000 -0.000000
vn 0.000000 -1.000000 -0.000000
vn 0.000000 -1.000000 -0.000000
vn 0.000000 -1.000000 -0.000000
vn 0.000000 -1.000000 -0.000000
vn 0.000000 -1.000000 -0.000000
vn 0.000000 -1.000000 -0.000000
vn 0.000000 -1.000000 -0.000000
vn 0.000000 -1.000000 -0.000000
vn 0.000000 -1.000000 -0.000000
vn 0.000000 -1.000000 -0.000000
vn 0.000000 -1.000000 -0.000000
vn 0.000000 -1.000000 -0.000000
vn 0.000000 -1.000000 -0.000000
vn 0.000000 -1.000000 -0.000000
vn 0.000000 -1.000000 -0.000000
vn 0.000000 -1.000000 -0.000000
vn 0.000000 -1.000000 -0.000000
vn 0.000000 -1.000000 -0.000000
vn 0.000000 -1.000000 -0.000000
vn 0.000000 -1.000000 -0.000000
vn 0.000000 -1.000000 -0.000000
vn 0.000000 -1.000000 -0.000000
vn 0.000000 -1.000000 -0.000000
vn 0.000000 -1.000000 -0.000000
vn 0.000000 -1.000000 -0.000000
vn 0.000000 -1.000000 -0.000000
vn 0.000000 -1.000000 -0.000000
vn 0.000000 -1.000000 -0.000000
vn 0.000000 -1.000000 -0.000000
vn 0.000000 -1.000000 -0.000000
vn 0.000000 -1.000000 -0.000000
vn 0.000000 -1.000000 -0.000000
vn 0.000000 -1.000000 -0.000000
vn 0.000000 -1.000000 -0.000000
vn 0.000000 -1.000000 -0.000000
vn 0.000000 -1.000000 -0.000000
vn 0.000000 -1.000000 -0.000000
vn 0.000000 -1.000000 -0.000000
vn 0.000000 -1.000000 -0.000000
vn 0.000000 -1.000000 -0.000000
vn 0.000000 -1.000000 -0.000000
vn 0.000000 -1.000000 -0.000000
vn 0.000000 -1.000000 -0.000000
vn 0.000000 -1.000000 -0.000000
vn 0.000000 -1.000000 -0.000000
vn 0.000000 -1.000000 -0.000000
vn 0.000000 -1.000000 -0.000000
vn 0.000000 -1.000000 -0.000000
vn 0.000000 -1.000000 -0.000000
vn 0.000000 -1.000000 -0.000000
vn 0.000000 -1.000000 -0.000000
vn 0.000000 -1.000000 -0.000000
vn 0.000000 -1.000000 -0.000000
vn 0.000000 -1.000000 -0.000000
vn 0.000000 -1.000000 -0.000000
vn 0.000000 -1.000000 -0.000000
vn 0.000000 -1.000000 -0.000000
vn 0.000000 -1.000000 -0.000000
vn 0.000000 -1.000000 -0.000000
vn 0.000000 -1.000000 -0.000000
vn 0.000000 -1.000000 -0.000000
vn 0.000000 -1.000000 -0.000000
vn 0.000000 -1.000000 -0.000000
vn 0.000000 -1.000000 -0.000000
vn 0.000000 -1.000000 -0.000000
vn 0.000000 -1.000000 -0.000000
vn 0.000000 -1.000000 -0.000000
vn 0.000000 -1.000000 -0.000000
vn 0.000000 -1.000000 -0.000000
vn 0.000000 -1.000000 -0.000000
vn 0.000000 -1.000000 -0.000000
vn 0.000000 -1.000000 -0.000000
vn 0.000000 -1.000000 -0.000000
vn 0.000000 -1.000000 -0.000000
vn 0.000000 -1.000000 -0.000000
vn 0.000000 -1.000000 -0.000000
vn 0.000000 -1.000000 -0.000000
vn 0.000000 -1.000000 -0.000000
vn 0.000000 -1.000000 -0.000000
vn 0.000000 -1.000000 -0.000000
vn 0.000000 -1.000000 -0.000000
vn 0.000000 -1.000000 -0.000000
vn 0.000000 -1.000000 -0.000000
vn 0.000000 -1.000000 -0.000000
vn 0.000000 -1.000000 -0.000000
vn 0.000000 -1.000000 -0.000000
vn 0.000000 -1.000000 -0.000000
vn 0.000000 -1.000000 -0.000000
vn 0.000000 -1.000000 -0.000000
vn 0.000000 -1.000000 -0.000000
vn 0.000000 -1.000000 -0.000000
vn 0.000000 -1.000000 -0.000000
vn 0.000000 -1.000000 -0.000000
vn 0.000000 -1.000000 -0.000000
vn 0.000000 -1.000000 -0.000000
vn 0.000000 -1.000000 -0.000000
vn 0.000000 -1.000000 -0.000000
vn 0.000000 -1.000000 -0.000000
vn 0.000000 -1.000000 -0.000000
vn 0.000000 -1.000000 -0.000000
vn 0.000000 -1.000000 -0.000000
vn 0.000000 -1.000000 -0.000000
vn 0.000000 -1.000000 -0.000000
vn 0.000000 -1.000000 -0.000000
vn 0.000000 -1.000000 -0.000000
vn 0.000000 -1.000000 -0.000000
vn -1.000000 0.000000 0.000000
vn -1.000000 0.000000 0.000000
vn -1.000000 0.000000 0.000000
vn -1.000000 0.000000 0.000000
vn -1.000000 0.000000 0.000000
vn -1.000000 0.000000 0.000000
vn -1.000000 0.000000 0.000000
f 31//31 33//33 34//34
f 31//31 34//34 32//32
f 35//35 31//31 32//32
f 35//35 32//32 36//36
f 27//27 25//25 24//24
f 27//27 24//24 26//26
f 25//25 29//29 28//28
f 25//25 28//28 24//24
f 2//2 1//1 34//34
f 2//2 34//34 33//33
f 4//4 3//3 14//14
f 4//4 14//14 15//15
f 3//3 2//2 13//13
f 3//3 13//13 14//14
f 32//32 34//34 30//30
f 1//1 30//30 34//34
f 5//5 4//4 15//15
f 5//5 15//15 16//16
f 33//33 31//31 2//2
f 6//6 5//5 16//16
f 6//6 16//16 17//17
f 32//32 30//30 36//36
f 8//8 7//7 18//18
f 8//8 18//18 19//19
f 10//10 9//9 20//20
f 10//10 20//20 21//21
f 9//9 8//8 19//19
f 9//9 19//19 20//20
f 11//11 10//10 28//28
f 24//24 28//28 10//10
f 23//23 11//11 29//29
f 28//28 29//29 11//11
f 29//29 25//25 23//23
f 7//7 6//6 17//17
f 7//7 17//17 18//18
f 35//35 36//36 12//12
f 30//30 12//12 36//36
f 13//13 31//31 35//35
f 35//35 12//12 13//13
f 21//21 26//26 24//24
f 23//23 27//27 22//22
f 27//27 26//26 22//22
f 10//10 21//21 24//24
f 26//26 21//21 22//22
f 25//25 27//27 23//23
f 13//13 2//2 31//31
f 55//55 38//38 37//37
f 40//40 39//39 48//48
f 40//40 48//48 49//49
f 39//39 38//38 47//47
f 39//39 47//47 48//48
f 41//41 40//40 49//49
f 41//41 49//49 50//50
f 42//42 41//41 50//50
f 42//42 50//50 51//51
f 44//44 43//43 52//52
f 44//44 52//52 53//53
f 44//44 56//56 45//45
f 43//43 42//42 51//51
f 43//43 51//51 52//52
f 47//47 38//38 55//55
f 47//47 55//55 46//46
f 44//44 53//53 56//56
f 56//56 53//53 54//54
f 75//75 58//58 57//57
f 60//60 59//59 68//68
f 60//60 68//68 69//69
f 59//59 58//58 67//67
f 59//59 67//67 68//68
f 61//61 60//60 69//69
f 61//61 69//69 70//70
f 62//62 61//61 70//70
f 62//62 70//70 71//71
f 64//64 63//63 72//72
f 64//64 72//72 73//73
f 64//64 76//76 65//65
f 63//63 62//62 71//71
f 63//63 71//71 72//72
f 67//67 58//58 75//75
f 64//64 73//73 76//76
f 76//76 73//73 74//74
f 66//66 67//67 75//75
f 85//85 82//82 81//81
f 85//85 81//81 86//86
f 84//84 83//83 82//82
f 84//84 82//82 85//85
f 78//78 87//87 84//84
f 84//84 87//87 79//79
f 84//84 79//79 83//83
f 88//88 77//77 86//86
f 81//81 80//80 88//88
f 86//86 81//81 88//88
f 97//97 94//94 93//93
f 97//97 93//93 98//98
f 96//96 95//95 94//94
f 96//96 94//94 97//97
f 90//90 100//100 96//96
f 96//96 100//100 95//95
f 99//99 89//89 98//98
f 93//93 91//91 99//99
f 95//95 100//100 92//92
f 98//98 93//93 99//99
f 159//159 101//101 158//158
f 157//157 108//108 107//107
f 157//157 107//107 158//158
f 155//155 110//110 109//109
f 155//155 109//109 156//156
f 153//153 112//112 111//111
f 153//153 111//111 154//154
f 154//154 111//111 110//110
f 154//154 110//110 155//155
f 156//156 109//109 108//108
f 156//156 108//108 157//157
f 151//151 114//114 113//113
f 151//151 113//113 152//152
f 149//149 116//116 115//115
f 149//149 115//115 150//150
f 150//150 115//115 114//114
f 150//150 114//114 151//151
f 152//152 113//113 112//112
f 152//152 112//112 153//153
f 148//148 117//117 116//116
f 148//148 116//116 149//149
f 146//146 119//119 118//118
f 146//146 118//118 147//147
f 147//147 118//118 117//117
f 147//147 117//117 148//148
f 145//145 120//120 119//119
f 145//145 119//119 146//146
f 144//144 121//121 120//120
f 144//144 120//120 145//145
f 143//143 122//122 121//121
f 143//143 121//121 144//144
f 141//141 124//124 123//123
f 141//141 123//123 142//142
f 139//139 126//126 125//125
f 139//139 125//125 140//140
f 140//140 125//125 124//124
f 140//140 124//124 141//141
f 142//142 123//123 122//122
f 142//142 122//122 143//143
f 102//102 104//104 127//127
f 102//102 127//127 138//138
f 136//136 129//129 128//128
f 136//136 128//128 137//137
f 137//137 128//128 104//104
f 137//137 104//104 102//102
f 134//134 131//131 130//130
f 134//134 130//130 135//135
f 133//133 103//103 160//160
f 133//133 132//132 131//131
f 133//133 131//131 134//134
f 135//135 130//130 129//129
f 135//135 129//129 136//136
f 138//138 127//127 126//126
f 138//138 126//126 139//139
f 158//158 107//107 159//159
f 160//160 105//105 132//132
f 133//133 160//160 132//132
f 106//106 159//159 107//107
f 177//177 166//166 165//165
f 177//177 165//165 178//178
f 175//175 168//168 167//167
f 175//175 167//167 176//176
f 174//174 169//169 168//168
f 174//174 168//168 175//175
f 176//176 167//167 166//166
f 176//176 166//166 177//177
f 172//172 171//171 170//170
f 172//172 170//170 173//173
f 162//162 180//180 172//172
f 172//172 180//180 163//163
f 172//172 163//163 171//171
f 173//173 170//170 169//169
f 173//173 169//169 174//174
f 179//179 161//161 178//178
f 165//165 164//164 179//179
f 179//179 178//178 165//165
f 239//239 181//181 238//238
f 237//237 186//186 185//185
f 237//237 185//185 238//238
f 235//235 188//188 187//187
f 235//235 187//187 236//236
f 233//233 190//190 189//189
f 233//233 189//189 234//234
f 234//234 189//189 188//188
f 234//234 188//188 235//235
f 236//236 187//187 186//186
f 236//236 186//186 237//237
f 231//231 192//192 191//191
f 231//231 191//191 232//232
f 229//229 194//194 193//193
f 229//229 193//193 230//230
f 230//230 193//193 192//192
f 230//230 192//192 231//231
f 232//232 191//191 190//190
f 232//232 190//190 233//233
f 228//228 195//195 194//194
f 228//228 194//194 229//229
f 226//226 197//197 196//196
f 226//226 196//196 227//227
f 227//227 196//196 195//195
f 227//227 195//195 228//228
f 225//225 198//198 197//197
f 225//225 197//197 226//226
f 224//224 199//199 198//198
f 224//224 198//198 225//225
f 223//223 200//200 199//199
f 223//223 199//199 224//224
f 221//221 202//202 201//201
f 221//221 201//201 222//222
f 219//219 204//204 203//203
f 219//219 203//203 220//220
f 220//220 203//203 202//202
f 220//220 202//202 221//221
f 222//222 201//201 200//200
f 222//222 200//200 223//223
f 217//217 206//206 205//205
f 217//217 205//205 218//218
f 215//215 208//208 207//207
f 215//215 207//207 216//216
f 216//216 207//207 206//206
f 216//216 206//206 217//217
f 213//213 210//210 209//209
f 213//213 209//209 214//214
f 212//212 182//182 240//240
f 212//212 211//211 210//210
f 212//212 210//210 213//213
f 214//214 209//209 208//208
f 214//214 208//208 215//215
f 218//218 205//205 204//204
f 218//218 204//204 219//219
f 238//238 185//185 239//239
f 240//240 183//183 211//211
f 212//212 240//240 211//211
f 184//184 239//239 185//185
f 274//274 241//241 248//248
f 274//274 248//248 249//249
f 272//272 273//273 250//250
f 272//272 250//250 251//251
f 273//273 274//274 249//249
f 273//273 249//249 250//250
f 271//271 242//242 252//252
f 271//271 252//252 253//253
f 269//269 270//270 254//254
f 269//269 254//254 255//255
f 270//270 271//271 253//253
f 270//270 253//253 254//254
f 242//242 272//272 251//251
f 242//242 251//251 252//252
f 268//268 243//243 256//256
f 268//268 256//256 257//257
f 266//266 267//267 258//258
f 266//266 258//258 259//259
f 267//267 268//268 257//257
f 267//267 257//257 258//258
f 265//265 244//244 246//246
f 265//265 246//246 260//260
f 263//263 264//264 261//261
f 263//263 261//261 262//262
f 245//245 263//263 262//262
f 245//245 262//262 247//247
f 264//264 265//265 260//260
f 264//264 260//260 261//261
f 244//244 266//266 259//259
f 244//244 259//259 246//246
f 243//243 269//269 255//255
f 243//243 255//255 256//256
f 308//308 283//283 282//282
f 308//308 282//282 275//275
f 306//306 285//285 284//284
f 306//306 284//284 307//307
f 307//307 284//284 283//283
f 307//307 283//283 308//308
f 305//305 287//287 286//286
f 305//305 286//286 276//276
f 303//303 289//289 288//288
f 303//303 288//288 304//304
f 304//304 288//288 287//287
f 304//304 287//287 305//305
f 276//276 286//286 285//285
f 276//276 285//285 306//306
f 302//302 291//291 290//290
f 302//302 290//290 277//277
f 300//300 293//293 292//292
f 300//300 292//292 301//301
f 301//301 292//292 291//291
f 301//301 291//291 302//302
f 299//299 294//294 280//280
f 299//299 280//280 278//278
f 297//297 296//296 295//295
f 297//297 295//295 298//298
f 279//279 281//281 296//296
f 279//279 296//296 297//297
f 298//298 295//295 294//294
f 298//298 294//294 299//299
f 278//278 280//280 293//293
f 278//278 293//293 300//300
f 277//277 290//290 289//289
f 277//277 289//289 303//303
f 312//312 309//309 310//310
f 312//312 310//310 311//311
f 314//314 313//313 317//317
f 316//316 315//315 317//317
f 314//314 317//317 315//315
f 322//322 324//324 325//325
f 322//322 325//325 323//323
f 326//326 322//322 323//323
f 326//326 323//323 327//327
f 325//325 318//318 321//321
f 329//329 318//318 325//325
f 328//328 329//329 324//324
f 325//325 324//324 329//329
f 322//322 328//328 324//324
f 323//323 325//325 321//321
f 323//323 321//321 327//327
f 319//319 327//327 321//321
f 326//326 327//327 319//319
f 320//320 322//322 326//326
f 319//319 320//320 326//326
f 328//328 322//322 320//320
f 334//334 331//331 330//330
f 334//334 330//330 332//332
f 336//336 332//332 335//335
f 336//336 333//333 334//334
f 332//332 336//336 334//334
f 340//340 339//339 338//338
f 340//340 338//338 337//337
f 342//342 345//345 343//343
f 344//344 345//345 341//341
f 342//342 341//341 345//345
f 347//347 346//346 356//356
f 347//347 356//356 357//357
f 349//349 348//348 358//358
f 349//349 358//358 359//359
f 350//350 349//349 359//359
f 350//350 359//359 360//360
f 348//348 347//347 357//357
f 348//348 357//357 358//358
f 352//352 351//351 361//361
f 352//352 361//361 362//362
f 354//354 353//353 363//363
f 354//354 363//363 364//364
f 355//355 354//354 364//364
f 355//355 364//364 365//365
f 353//353 352//352 362//362
f 353//353 362//362 363//363
f 351//351 350//350 360//360
f 351//351 360//360 361//361
f 373//373 371//371 370//370
f 373//373 370//370 372//372
f 371//371 375//375 374//374
f 371//371 374//374 370//370
f 374//374 366//366 370//370
f 376//376 370//370 366//366
f 367//367 366//366 374//374
f 369//369 367//367 375//375
f 369//369 375//375 371//371
f 374//374 375//375 367//367
f 377//377 372//372 376//376
f 370//370 376//376 372//372
f 373//373 372//372 377//377
f 368//368 369//369 373//373
f 373//373 369//369 371//371
f 377//377 368//368 373//373
f 398//398 397//397 499//499
f 502//502 397//397 527//527
f 397//397 502//502 501//501
f 499//499 399//399 398//398
f 397//397 500//500 499//499
f 498//498 400//400 499//499
f 500//500 397//397 501//501
f 499//499 400//400 399//399
f 503//503 502//502 527//527
f 522//522 521//521 523//523
f 505//505 527//527 526//526
f 521//521 448//448 523//523
f 388//388 524//524 523//523
f 447//447 523//523 448//448
f 505//505 526//526 525//525
f 527//527 505//505 504//504
f 504//504 503//503 527//527
f 449//449 448//448 521//521
f 403//403 498//498 497//497
f 497//497 496//496 387//387
f 401//401 498//498 402//402
f 403//403 497//497 404//404
f 495//495 387//387 496//496
f 387//387 404//404 497//497
f 494//494 387//387 495//495
f 402//402 498//498 403//403
f 525//525 507//507 506//506
f 447//447 446//446 523//523
f 388//388 523//523 389//389
f 525//525 524//524 388//388
f 388//388 507//507 525//525
f 506//506 505//505 525//525
f 509//509 387//387 494//494
f 389//389 523//523 446//446
f 509//509 508//508 388//388
f 508//508 507//507 388//388
f 509//509 388//388 387//387
f 445//445 389//389 446//446
f 401//401 400//400 498//498
f 521//521 450//450 449//449
f 416//416 521//521 417//417
f 521//521 415//415 450//450
f 389//389 445//445 444//444
f 390//390 476//476 475//475
f 477//477 476//476 389//389
f 444//444 443//443 389//389
f 520//520 418//418 417//417
f 420//420 419//419 520//520
f 418//418 520//520 419//419
f 421//421 420//420 520//520
f 417//417 521//521 520//520
f 475//475 474//474 390//390
f 422//422 421//421 519//519
f 520//520 519//519 421//421
f 423//423 422//422 519//519
f 477//477 389//389 443//443
f 415//415 521//521 416//416
f 390//390 473//473 472//472
f 424//424 519//519 425//425
f 391//391 390//390 471//471
f 472//472 471//471 390//390
f 469//469 391//391 470//470
f 471//471 470//470 391//391
f 390//390 474//474 473//473
f 391//391 469//469 468//468
f 427//427 426//426 518//518
f 425//425 518//518 426//426
f 428//428 427//427 518//518
f 425//425 519//519 518//518
f 466//466 391//391 467//467
f 518//518 429//429 428//428
f 467//467 391//391 468//468
f 466//466 465//465 392//392
f 517//517 429//429 518//518
f 391//391 466//466 392//392
f 423//423 519//519 424//424
f 390//390 389//389 476//476
f 392//392 464//464 463//463
f 517//517 431//431 430//430
f 463//463 462//462 392//392
f 461//461 392//392 462//462
f 460//460 393//393 461//461
f 392//392 461//461 393//393
f 459//459 393//393 460//460
f 392//392 465//465 464//464
f 517//517 433//433 432//432
f 516//516 434//434 517//517
f 433//433 517//517 434//434
f 431//431 517//517 432//432
f 393//393 459//459 458//458
f 516//516 436//436 435//435
f 437//437 436//436 516//516
f 434//434 516//516 435//435
f 457//457 393//393 458//458
f 429//429 517//517 430//430
f 394//394 456//456 455//455
f 455//455 454//454 394//394
f 393//393 457//457 456//456
f 453//453 394//394 454//454
f 378//378 396//396 479//479
f 395//395 409//409 408//408
f 395//395 394//394 451//451
f 456//456 394//394 393//393
f 478//478 493//493 378//378
f 394//394 453//453 452//452
f 394//394 452//452 451//451
f 516//516 438//438 437//437
f 378//378 479//479 478//478
f 410//410 395//395 451//451
f 410//410 409//409 395//395
f 396//396 395//395 512//512
f 380//380 379//379 491//491
f 491//491 379//379 378//378
f 516//516 515//515 438//438
f 396//396 480//480 479//479
f 515//515 441//441 440//440
f 515//515 440//440 439//439
f 406//406 395//395 407//407
f 395//395 408//408 407//407
f 511//511 396//396 512//512
f 511//511 510//510 396//396
f 482//482 481//481 510//510
f 512//512 406//406 414//414
f 442//442 514//514 411//411
f 515//515 514//514 442//442
f 412//412 411//411 514//514
f 412//412 514//514 413//413
f 441//441 515//515 442//442
f 512//512 514//514 513//513
f 483//483 510//510 405//405
f 414//414 514//514 512//512
f 483//483 482//482 510//510
f 413//413 514//514 414//414
f 512//512 395//395 406//406
f 438//438 515//515 439//439
f 480//480 396//396 481//481
f 493//493 492//492 378//378
f 396//396 510//510 481//481
f 490//490 381//381 491//491
f 378//378 492//492 491//491
f 490//490 489//489 384//384
f 381//381 490//490 382//382
f 382//382 490//490 383//383
f 380//380 491//491 381//381
f 405//405 484//484 483//483
f 386//386 487//487 486//486
f 386//386 486//486 485//485
f 405//405 485//485 484//484
f 489//489 385//385 384//384
f 488//488 386//386 489//489
f 386//386 385//385 489//489
f 487//487 386//386 488//488
f 490//490 384//384 383//383
f 405//405 386//386 485//485
f 671//671 588//588 587//587
f 590//590 589//589 671//671
f 588//588 671//671 589//589
f 586//586 671//671 587//587
f 585//585 584//584 672//672
f 583//583 672//672 584//584
f 672//672 586//586 585//585
f 671//671 586//586 672//672
f 670//670 590//590 671//671
f 670//670 593//593 592//592
f 591//591 590//590 670//670
f 535//535 603//603 602//602
f 602//602 601//601 536//536
f 600//600 599//599 536//536
f 536//536 601//601 600//600
f 603//603 535//535 604//604
f 592//592 591//591 670//670
f 581//581 580//580 673//673
f 579//579 673//673 580//580
f 582//582 581//581 673//673
f 578//578 577//577 674//674
f 534//534 612//612 611//611
f 613//613 612//612 533//533
f 673//673 579//579 578//578
f 674//674 673//673 578//578
f 612//612 534//534 533//533
f 535//535 606//606 605//605
f 607//607 606//606 535//535
f 604//604 535//535 605//605
f 535//535 534//534 607//607
f 534//534 609//609 608//608
f 610//610 609//609 534//534
f 607//607 534//534 608//608
f 534//534 611//611 610//610
f 583//583 582//582 672//672
f 673//673 672//672 582//582
f 536//536 535//535 602//602
f 668//668 670//670 669//669
f 593//593 670//670 594//594
f 594//594 670//670 595//595
f 596//596 595//595 668//668
f 649//649 666//666 540//540
f 537//537 667//667 666//666
f 667//667 537//537 668//668
f 595//595 670//670 668//668
f 650//650 649//649 540//540
f 539//539 653//653 652//652
f 539//539 652//652 651//651
f 547//547 655//655 539//539
f 655//655 547//547 546//546
f 540//540 539//539 651//651
f 545//545 655//655 546//546
f 655//655 654//654 539//539
f 656//656 655//655 545//545
f 653//653 539//539 654//654
f 650//650 540//540 651//651
f 648//648 666//666 649//649
f 666//666 647//647 537//537
f 666//666 648//648 647//647
f 536//536 597//597 668//668
f 536//536 668//668 537//537
f 599//599 598//598 536//536
f 645//645 537//537 646//646
f 537//537 647//647 646//646
f 538//538 537//537 645//645
f 536//536 598//598 597//597
f 657//657 656//656 542//542
f 543//543 656//656 544//544
f 656//656 545//545 544//544
f 656//656 543//543 542//542
f 538//538 658//658 657//657
f 538//538 644//644 659//659
f 657//657 542//542 541//541
f 541//541 538//538 657//657
f 538//538 645//645 644//644
f 538//538 659//659 658//658
f 596//596 668//668 597//597
f 564//564 677//677 565//565
f 677//677 564//564 563//563
f 676//676 565//565 677//677
f 566//566 565//565 676//676
f 664//664 677//677 660//660
f 561//561 677//677 562//562
f 563//563 562//562 677//677
f 663//663 662//662 639//639
f 676//676 568//568 567//567
f 676//676 567//567 566//566
f 660//660 529//529 661//661
f 677//677 561//561 660//660
f 560//560 559//559 530//530
f 561//561 560//560 660//660
f 530//530 660//660 560//560
f 662//662 661//661 529//529
f 639//639 665//665 663//663
f 569//569 568//568 676//676
f 636//636 665//665 637//637
f 635//635 548//548 636//636
f 665//665 638//638 637//637
f 633//633 548//548 634//634
f 549//549 633//633 550//550
f 633//633 549//549 548//548
f 551//551 550//550 632//632
f 635//635 634//634 548//548
f 636//636 548//548 665//665
f 662//662 640//640 639//639
f 529//529 641//641 662//662
f 662//662 641//641 640//640
f 632//632 550//550 633//633
f 631//631 553//553 632//632
f 552//552 632//632 553//553
f 528//528 631//631 630//630
f 632//632 552//552 551//551
f 641//641 529//529 642//642
f 665//665 639//639 638//638
f 554//554 553//553 631//631
f 573//573 572//572 675//675
f 574//574 674//674 575//575
f 573//573 674//674 574//574
f 674//674 573//573 675//675
f 571//571 570//570 675//675
f 569//569 675//675 570//570
f 532//532 621//621 620//620
f 675//675 572//572 571//571
f 533//533 615//615 614//614
f 616//616 615//615 533//533
f 613//613 533//533 614//614
f 533//533 617//617 616//616
f 532//532 618//618 617//617
f 619//619 618//618 532//532
f 533//533 532//532 617//617
f 532//532 620//620 619//619
f 575//575 674//674 576//576
f 532//532 622//622 621//621
f 674//674 577//577 576//576
f 556//556 627//627 530//530
f 530//530 557//557 556//556
f 642//642 529//529 643//643
f 629//629 628//628 528//528
f 528//528 628//628 643//643
f 530//530 529//529 660//660
f 555//555 554//554 631//631
f 558//558 557//557 530//530
f 569//569 676//676 675//675
f 631//631 528//528 555//555
f 531//531 625//625 624//624
f 531//531 623//623 622//622
f 624//624 623//623 531//531
f 532//532 531//531 622//622
f 531//531 626//626 625//625
f 559//559 558//558 530//530
f 629//629 528//528 630//630
f 530//530 627//627 531//531
f 528//528 643//643 529//529
f 626//626 531//531 627//627
f 678//678 679//679 682//682
f 678//678 682//682 680//680
f 680//680 682//682 684//684
f 684//684 682//682 681//681
f 683//683 680//680 684//684
